<?xml version="1.0" encoding="UTF-8" standalone="no"?>
<!DOCTYPE svg PUBLIC "-//W3C//DTD SVG 1.1//EN"
 "http://www.w3.org/Graphics/SVG/1.1/DTD/svg11.dtd">
<!-- Generated by graphviz version 2.43.0 (0)
 -->
<!-- Title: LoadAesKey Pages: 1 -->
<svg width="438pt" height="88pt"
 viewBox="0.00 0.00 438.00 88.00" xmlns="http://www.w3.org/2000/svg" xmlns:xlink="http://www.w3.org/1999/xlink">
<g id="graph0" class="graph" transform="scale(1 1) rotate(0) translate(4 84)">
<title>LoadAesKey</title>
<polygon fill="white" stroke="transparent" points="-4,4 -4,-84 434,-84 434,4 -4,4"/>
<!-- Node1 -->
<g id="node1" class="node">
<title>Node1</title>
<g id="a_node1"><a xlink:title="Loads the AES&#45;256 key from a file at runtime. The key file should contain a 64&#45;character hex string (...">
<polygon fill="#bfbfbf" stroke="black" points="354,-30 354,-49 430,-49 430,-30 354,-30"/>
<text text-anchor="middle" x="392" y="-37" font-family="Helvetica,sans-Serif" font-size="10.00">LoadAesKey</text>
</a>
</g>
</g>
<!-- Node2 -->
<g id="node2" class="node">
<title>Node2</title>
<g id="a_node2"><a xlink:href="aes__gcm__decrypt_8cpp.html#aafa6ad411734eeb8c3783999c926ac2b" target="_top" xlink:title="Decrypts an OTA (over&#45;the&#45;air) payload formatted as [IV|TAG|CIPHERTEXT]. Loads the AES key from file ...">
<polygon fill="white" stroke="black" points="199,-30 199,-49 318,-49 318,-30 199,-30"/>
<text text-anchor="middle" x="258.5" y="-37" font-family="Helvetica,sans-Serif" font-size="10.00">decrypt_ota_payload</text>
</a>
</g>
</g>
<!-- Node1&#45;&gt;Node2 -->
<g id="edge1" class="edge">
<title>Node1&#45;&gt;Node2</title>
<path fill="none" stroke="midnightblue" d="M343.49,-39.5C335.24,-39.5 326.57,-39.5 318.07,-39.5"/>
<polygon fill="midnightblue" stroke="midnightblue" points="343.67,-43 353.67,-39.5 343.67,-36 343.67,-43"/>
</g>
<!-- Node3 -->
<g id="node3" class="node">
<title>Node3</title>
<g id="a_node3"><a xlink:href="classJsonRequestExecutorHandler.html#aaf7c1c7c14971ccfda4076e0a4681f43" target="_top" xlink:title="Executes a request represented as a JSON string.">
<polygon fill="white" stroke="black" points="2.5,-49.5 2.5,-79.5 160.5,-79.5 160.5,-49.5 2.5,-49.5"/>
<text text-anchor="start" x="10.5" y="-67.5" font-family="Helvetica,sans-Serif" font-size="10.00">JsonRequestExecutorHandler</text>
<text text-anchor="middle" x="81.5" y="-56.5" font-family="Helvetica,sans-Serif" font-size="10.00">::Execute</text>
</a>
</g>
</g>
<!-- Node2&#45;&gt;Node3 -->
<g id="edge2" class="edge">
<title>Node2&#45;&gt;Node3</title>
<path fill="none" stroke="midnightblue" d="M188.56,-49.35C179.41,-50.66 169.98,-52 160.69,-53.33"/>
<polygon fill="midnightblue" stroke="midnightblue" points="189.34,-52.77 198.74,-47.89 188.35,-45.84 189.34,-52.77"/>
</g>
<!-- Node4 -->
<g id="node4" class="node">
<title>Node4</title>
<g id="a_node4"><a xlink:href="classProtoRequestExecutorHandler.html#a7255c2daf8946f8c73b0327cd4ad9156" target="_top" xlink:title="Receives a serialized protobuf string, deserializes, saves to DB, and returns result as JSON.">
<polygon fill="white" stroke="black" points="0,-0.5 0,-30.5 163,-30.5 163,-0.5 0,-0.5"/>
<text text-anchor="start" x="8" y="-18.5" font-family="Helvetica,sans-Serif" font-size="10.00">ProtoRequestExecutorHandler</text>
<text text-anchor="middle" x="81.5" y="-7.5" font-family="Helvetica,sans-Serif" font-size="10.00">::Execute</text>
</a>
</g>
</g>
<!-- Node2&#45;&gt;Node4 -->
<g id="edge3" class="edge">
<title>Node2&#45;&gt;Node4</title>
<path fill="none" stroke="midnightblue" d="M188.68,-30.06C180.31,-28.91 171.7,-27.73 163.19,-26.57"/>
<polygon fill="midnightblue" stroke="midnightblue" points="188.36,-33.55 198.74,-31.44 189.31,-26.62 188.36,-33.55"/>
</g>
</g>
</svg>
