<?xml version="1.0" encoding="UTF-8" standalone="no"?>
<!DOCTYPE svg PUBLIC "-//W3C//DTD SVG 1.1//EN"
 "http://www.w3.org/Graphics/SVG/1.1/DTD/svg11.dtd">
<!-- Generated by graphviz version 2.43.0 (0)
 -->
<!-- Title: decrypt_ota_payload Pages: 1 -->
<svg width="265pt" height="66pt"
 viewBox="0.00 0.00 265.00 66.00" xmlns="http://www.w3.org/2000/svg" xmlns:xlink="http://www.w3.org/1999/xlink">
<g id="graph0" class="graph" transform="scale(1 1) rotate(0) translate(4 62)">
<title>decrypt_ota_payload</title>
<polygon fill="white" stroke="transparent" points="-4,4 -4,-62 261,-62 261,4 -4,4"/>
<!-- Node1 -->
<g id="node1" class="node">
<title>Node1</title>
<g id="a_node1"><a xlink:title="Decrypts an OTA (over&#45;the&#45;air) payload formatted as [IV|TAG|CIPHERTEXT]. Loads the AES key from file ...">
<polygon fill="#bfbfbf" stroke="black" points="0,-19.5 0,-38.5 119,-38.5 119,-19.5 0,-19.5"/>
<text text-anchor="middle" x="59.5" y="-26.5" font-family="Helvetica,sans-Serif" font-size="10.00">decrypt_ota_payload</text>
</a>
</g>
</g>
<!-- Node2 -->
<g id="node2" class="node">
<title>Node2</title>
<g id="a_node2"><a xlink:href="aes__gcm__decrypt_8cpp.html#adac74448236ae767b76ec9f551cee9e2" target="_top" xlink:title="Decrypts AES&#45;256&#45;GCM encrypted ciphertext.">
<polygon fill="white" stroke="black" points="155,-38.5 155,-57.5 257,-57.5 257,-38.5 155,-38.5"/>
<text text-anchor="middle" x="206" y="-45.5" font-family="Helvetica,sans-Serif" font-size="10.00">aes_gcm_decrypt</text>
</a>
</g>
</g>
<!-- Node1&#45;&gt;Node2 -->
<g id="edge1" class="edge">
<title>Node1&#45;&gt;Node2</title>
<path fill="none" stroke="midnightblue" d="M119.27,-36.73C127.61,-37.82 136.19,-38.95 144.55,-40.05"/>
<polygon fill="midnightblue" stroke="midnightblue" points="144.24,-43.54 154.61,-41.37 145.15,-36.6 144.24,-43.54"/>
</g>
<!-- Node3 -->
<g id="node3" class="node">
<title>Node3</title>
<g id="a_node3"><a xlink:href="aes__gcm__decrypt_8cpp.html#ac3bd08c44501a45d3a1e0129b7b3b046" target="_top" xlink:title="Loads the AES&#45;256 key from a file at runtime. The key file should contain a 64&#45;character hex string (...">
<polygon fill="white" stroke="black" points="168,-0.5 168,-19.5 244,-19.5 244,-0.5 168,-0.5"/>
<text text-anchor="middle" x="206" y="-7.5" font-family="Helvetica,sans-Serif" font-size="10.00">LoadAesKey</text>
</a>
</g>
</g>
<!-- Node1&#45;&gt;Node3 -->
<g id="edge2" class="edge">
<title>Node1&#45;&gt;Node3</title>
<path fill="none" stroke="midnightblue" d="M119.27,-21.27C132.09,-19.59 145.5,-17.82 157.8,-16.21"/>
<polygon fill="midnightblue" stroke="midnightblue" points="158.38,-19.66 167.83,-14.89 157.46,-12.72 158.38,-19.66"/>
</g>
</g>
</svg>
