<?xml version="1.0" encoding="UTF-8" standalone="no"?>
<!DOCTYPE svg PUBLIC "-//W3C//DTD SVG 1.1//EN"
 "http://www.w3.org/Graphics/SVG/1.1/DTD/svg11.dtd">
<!-- Generated by graphviz version 2.43.0 (0)
 -->
<!-- Title: security/inc/chacha20_security_provider.hpp Pages: 1 -->
<svg width="434pt" height="151pt"
 viewBox="0.00 0.00 433.50 151.00" xmlns="http://www.w3.org/2000/svg" xmlns:xlink="http://www.w3.org/1999/xlink">
<g id="graph0" class="graph" transform="scale(1 1) rotate(0) translate(4 147)">
<title>security/inc/chacha20_security_provider.hpp</title>
<polygon fill="white" stroke="transparent" points="-4,4 -4,-147 429.5,-147 429.5,4 -4,4"/>
<!-- Node1 -->
<g id="node1" class="node">
<title>Node1</title>
<g id="a_node1"><a xlink:title="Declares the ChaCha20SecurityProvider class for ChaCha20&#45;Poly1305 decryption.">
<polygon fill="#bfbfbf" stroke="black" points="130,-112.5 130,-142.5 258,-142.5 258,-112.5 130,-112.5"/>
<text text-anchor="start" x="138" y="-130.5" font-family="Helvetica,sans-Serif" font-size="10.00">security/inc/chacha20</text>
<text text-anchor="middle" x="194" y="-119.5" font-family="Helvetica,sans-Serif" font-size="10.00">_security_provider.hpp</text>
</a>
</g>
</g>
<!-- Node2 -->
<g id="node2" class="node">
<title>Node2</title>
<g id="a_node2"><a xlink:href="security__provider_8hpp.html" target="_top" xlink:title="Declares the ISecurityProvider abstract interface for encryption/decryption.">
<polygon fill="white" stroke="black" points="0,-56.5 0,-75.5 140,-75.5 140,-56.5 0,-56.5"/>
<text text-anchor="middle" x="70" y="-63.5" font-family="Helvetica,sans-Serif" font-size="10.00">inc/security_provider.hpp</text>
</a>
</g>
</g>
<!-- Node1&#45;&gt;Node2 -->
<g id="edge1" class="edge">
<title>Node1&#45;&gt;Node2</title>
<path fill="none" stroke="midnightblue" d="M164.61,-112.4C144.18,-102.59 117.14,-89.62 97.2,-80.05"/>
<polygon fill="midnightblue" stroke="midnightblue" points="98.57,-76.83 88.04,-75.66 95.54,-83.14 98.57,-76.83"/>
</g>
<!-- Node3 -->
<g id="node3" class="node">
<title>Node3</title>
<g id="a_node3"><a xlink:title=" ">
<polygon fill="white" stroke="#bfbfbf" points="146,-0.5 146,-19.5 190,-19.5 190,-0.5 146,-0.5"/>
<text text-anchor="middle" x="168" y="-7.5" font-family="Helvetica,sans-Serif" font-size="10.00">string</text>
</a>
</g>
</g>
<!-- Node1&#45;&gt;Node3 -->
<g id="edge3" class="edge">
<title>Node1&#45;&gt;Node3</title>
<path fill="none" stroke="midnightblue" d="M190.81,-112.34C186.13,-91.53 177.38,-52.66 172.18,-29.58"/>
<polygon fill="midnightblue" stroke="midnightblue" points="175.56,-28.66 169.95,-19.67 168.73,-30.19 175.56,-28.66"/>
</g>
<!-- Node4 -->
<g id="node4" class="node">
<title>Node4</title>
<g id="a_node4"><a xlink:title=" ">
<polygon fill="white" stroke="#bfbfbf" points="196.5,-56.5 196.5,-75.5 243.5,-75.5 243.5,-56.5 196.5,-56.5"/>
<text text-anchor="middle" x="220" y="-63.5" font-family="Helvetica,sans-Serif" font-size="10.00">vector</text>
</a>
</g>
</g>
<!-- Node1&#45;&gt;Node4 -->
<g id="edge4" class="edge">
<title>Node1&#45;&gt;Node4</title>
<path fill="none" stroke="midnightblue" d="M200.16,-112.4C203.74,-104.2 208.3,-93.78 212.14,-84.99"/>
<polygon fill="midnightblue" stroke="midnightblue" points="215.42,-86.22 216.22,-75.66 209.01,-83.42 215.42,-86.22"/>
</g>
<!-- Node5 -->
<g id="node5" class="node">
<title>Node5</title>
<g id="a_node5"><a xlink:href="common_8hpp.html" target="_top" xlink:title="Defines common constants, string views, and utility structures for the application.">
<polygon fill="white" stroke="black" points="262,-56.5 262,-75.5 360,-75.5 360,-56.5 262,-56.5"/>
<text text-anchor="middle" x="311" y="-63.5" font-family="Helvetica,sans-Serif" font-size="10.00">inc/common.hpp</text>
</a>
</g>
</g>
<!-- Node1&#45;&gt;Node5 -->
<g id="edge5" class="edge">
<title>Node1&#45;&gt;Node5</title>
<path fill="none" stroke="midnightblue" d="M221.73,-112.4C240.83,-102.68 266.06,-89.86 284.82,-80.31"/>
<polygon fill="midnightblue" stroke="midnightblue" points="286.65,-83.31 293.98,-75.66 283.48,-77.07 286.65,-83.31"/>
</g>
<!-- Node2&#45;&gt;Node3 -->
<g id="edge2" class="edge">
<title>Node2&#45;&gt;Node3</title>
<path fill="none" stroke="midnightblue" d="M85.75,-56.32C101.32,-47.74 125.38,-34.49 143.46,-24.52"/>
<polygon fill="midnightblue" stroke="midnightblue" points="145.22,-27.55 152.29,-19.65 141.85,-21.42 145.22,-27.55"/>
</g>
<!-- Node5&#45;&gt;Node3 -->
<g id="edge6" class="edge">
<title>Node5&#45;&gt;Node3</title>
<path fill="none" stroke="midnightblue" d="M288.34,-56.44C264.46,-47.42 226.65,-33.15 199.79,-23"/>
<polygon fill="midnightblue" stroke="midnightblue" points="200.67,-19.6 190.08,-19.34 198.2,-26.15 200.67,-19.6"/>
</g>
<!-- Node6 -->
<g id="node6" class="node">
<title>Node6</title>
<g id="a_node6"><a xlink:title=" ">
<polygon fill="white" stroke="#bfbfbf" points="241.5,-0.5 241.5,-19.5 314.5,-19.5 314.5,-0.5 241.5,-0.5"/>
<text text-anchor="middle" x="278" y="-7.5" font-family="Helvetica,sans-Serif" font-size="10.00">string_view</text>
</a>
</g>
</g>
<!-- Node5&#45;&gt;Node6 -->
<g id="edge7" class="edge">
<title>Node5&#45;&gt;Node6</title>
<path fill="none" stroke="midnightblue" d="M305.55,-56.08C300.99,-48.61 294.33,-37.72 288.71,-28.52"/>
<polygon fill="midnightblue" stroke="midnightblue" points="291.55,-26.46 283.35,-19.75 285.58,-30.11 291.55,-26.46"/>
</g>
<!-- Node7 -->
<g id="node7" class="node">
<title>Node7</title>
<g id="a_node7"><a xlink:title=" ">
<polygon fill="white" stroke="#bfbfbf" points="332.5,-0.5 332.5,-19.5 425.5,-19.5 425.5,-0.5 332.5,-0.5"/>
<text text-anchor="middle" x="379" y="-7.5" font-family="Helvetica,sans-Serif" font-size="10.00">unordered_map</text>
</a>
</g>
</g>
<!-- Node5&#45;&gt;Node7 -->
<g id="edge8" class="edge">
<title>Node5&#45;&gt;Node7</title>
<path fill="none" stroke="midnightblue" d="M321.93,-56.32C332.17,-48.18 347.72,-35.84 360,-26.09"/>
<polygon fill="midnightblue" stroke="midnightblue" points="362.22,-28.79 367.88,-19.83 357.87,-23.31 362.22,-28.79"/>
</g>
</g>
</svg>
