<?xml version="1.0" encoding="UTF-8" standalone="no"?>
<!DOCTYPE svg PUBLIC "-//W3C//DTD SVG 1.1//EN"
 "http://www.w3.org/Graphics/SVG/1.1/DTD/svg11.dtd">
<!-- Generated by graphviz version 2.43.0 (0)
 -->
<!-- Title: security/src/chacha20_security_provider.cpp Pages: 1 -->
<svg width="694pt" height="218pt"
 viewBox="0.00 0.00 694.00 218.00" xmlns="http://www.w3.org/2000/svg" xmlns:xlink="http://www.w3.org/1999/xlink">
<g id="graph0" class="graph" transform="scale(1 1) rotate(0) translate(4 214)">
<title>security/src/chacha20_security_provider.cpp</title>
<polygon fill="white" stroke="transparent" points="-4,4 -4,-214 690,-214 690,4 -4,4"/>
<!-- Node1 -->
<g id="node1" class="node">
<title>Node1</title>
<g id="a_node1"><a xlink:title="Implementation of the ChaCha20SecurityProvider class for ChaCha20&#45;Poly1305 decryption.">
<polygon fill="#bfbfbf" stroke="black" points="342.5,-179.5 342.5,-209.5 469.5,-209.5 469.5,-179.5 342.5,-179.5"/>
<text text-anchor="start" x="350.5" y="-197.5" font-family="Helvetica,sans-Serif" font-size="10.00">security/src/chacha20</text>
<text text-anchor="middle" x="406" y="-186.5" font-family="Helvetica,sans-Serif" font-size="10.00">_security_provider.cpp</text>
</a>
</g>
</g>
<!-- Node2 -->
<g id="node2" class="node">
<title>Node2</title>
<g id="a_node2"><a xlink:href="chacha20__security__provider_8hpp.html" target="_top" xlink:title="Declares the ChaCha20SecurityProvider class for ChaCha20&#45;Poly1305 decryption.">
<polygon fill="white" stroke="black" points="157.5,-112.5 157.5,-142.5 282.5,-142.5 282.5,-112.5 157.5,-112.5"/>
<text text-anchor="start" x="165.5" y="-130.5" font-family="Helvetica,sans-Serif" font-size="10.00">inc/chacha20_security</text>
<text text-anchor="middle" x="220" y="-119.5" font-family="Helvetica,sans-Serif" font-size="10.00">_provider.hpp</text>
</a>
</g>
</g>
<!-- Node1&#45;&gt;Node2 -->
<g id="edge1" class="edge">
<title>Node1&#45;&gt;Node2</title>
<path fill="none" stroke="midnightblue" d="M365.64,-179.4C337.49,-169.56 299.74,-156.37 269.73,-145.88"/>
<polygon fill="midnightblue" stroke="midnightblue" points="270.88,-142.57 260.28,-142.58 268.57,-149.18 270.88,-142.57"/>
</g>
<!-- Node6 -->
<g id="node6" class="node">
<title>Node6</title>
<g id="a_node6"><a xlink:href="common_8hpp.html" target="_top" xlink:title="Defines common constants, string views, and utility structures for the application.">
<polygon fill="white" stroke="black" points="262,-56.5 262,-75.5 360,-75.5 360,-56.5 262,-56.5"/>
<text text-anchor="middle" x="311" y="-63.5" font-family="Helvetica,sans-Serif" font-size="10.00">inc/common.hpp</text>
</a>
</g>
</g>
<!-- Node1&#45;&gt;Node6 -->
<g id="edge10" class="edge">
<title>Node1&#45;&gt;Node6</title>
<path fill="none" stroke="midnightblue" d="M374.49,-179.45C358.93,-171 341.15,-158.79 330,-143 318.02,-126.03 313.57,-102.25 311.93,-85.83"/>
<polygon fill="midnightblue" stroke="midnightblue" points="315.42,-85.53 311.19,-75.82 308.44,-86.05 315.42,-85.53"/>
</g>
<!-- Node9 -->
<g id="node9" class="node">
<title>Node9</title>
<g id="a_node9"><a xlink:title=" ">
<polygon fill="white" stroke="#bfbfbf" points="339.5,-118 339.5,-137 394.5,-137 394.5,-118 339.5,-118"/>
<text text-anchor="middle" x="367" y="-125" font-family="Helvetica,sans-Serif" font-size="10.00">fstream</text>
</a>
</g>
</g>
<!-- Node1&#45;&gt;Node9 -->
<g id="edge11" class="edge">
<title>Node1&#45;&gt;Node9</title>
<path fill="none" stroke="midnightblue" d="M397.54,-179.4C391.64,-169.56 383.73,-156.38 377.44,-145.89"/>
<polygon fill="midnightblue" stroke="midnightblue" points="380.36,-143.97 372.22,-137.19 374.36,-147.57 380.36,-143.97"/>
</g>
<!-- Node10 -->
<g id="node10" class="node">
<title>Node10</title>
<g id="a_node10"><a xlink:title=" ">
<polygon fill="white" stroke="#bfbfbf" points="412.5,-118 412.5,-137 477.5,-137 477.5,-118 412.5,-118"/>
<text text-anchor="middle" x="445" y="-125" font-family="Helvetica,sans-Serif" font-size="10.00">stdexcept</text>
</a>
</g>
</g>
<!-- Node1&#45;&gt;Node10 -->
<g id="edge12" class="edge">
<title>Node1&#45;&gt;Node10</title>
<path fill="none" stroke="midnightblue" d="M414.46,-179.4C420.36,-169.56 428.27,-156.38 434.56,-145.89"/>
<polygon fill="midnightblue" stroke="midnightblue" points="437.64,-147.57 439.78,-137.19 431.64,-143.97 437.64,-147.57"/>
</g>
<!-- Node11 -->
<g id="node11" class="node">
<title>Node11</title>
<g id="a_node11"><a xlink:title=" ">
<polygon fill="white" stroke="#bfbfbf" points="496,-118 496,-137 580,-137 580,-118 496,-118"/>
<text text-anchor="middle" x="538" y="-125" font-family="Helvetica,sans-Serif" font-size="10.00">openssl/evp.h</text>
</a>
</g>
</g>
<!-- Node1&#45;&gt;Node11 -->
<g id="edge13" class="edge">
<title>Node1&#45;&gt;Node11</title>
<path fill="none" stroke="midnightblue" d="M434.64,-179.4C457.5,-168.14 489.26,-152.5 511.52,-141.54"/>
<polygon fill="midnightblue" stroke="midnightblue" points="513.3,-144.56 520.72,-137.01 510.21,-138.28 513.3,-144.56"/>
</g>
<!-- Node12 -->
<g id="node12" class="node">
<title>Node12</title>
<g id="a_node12"><a xlink:title=" ">
<polygon fill="white" stroke="#bfbfbf" points="598,-118 598,-137 686,-137 686,-118 598,-118"/>
<text text-anchor="middle" x="642" y="-125" font-family="Helvetica,sans-Serif" font-size="10.00">openssl/rand.h</text>
</a>
</g>
</g>
<!-- Node1&#45;&gt;Node12 -->
<g id="edge14" class="edge">
<title>Node1&#45;&gt;Node12</title>
<path fill="none" stroke="midnightblue" d="M456.92,-179.48C500.14,-167.57 561.34,-150.72 601.34,-139.7"/>
<polygon fill="midnightblue" stroke="midnightblue" points="602.32,-143.06 611.03,-137.03 600.46,-136.31 602.32,-143.06"/>
</g>
<!-- Node3 -->
<g id="node3" class="node">
<title>Node3</title>
<g id="a_node3"><a xlink:href="security__provider_8hpp.html" target="_top" xlink:title="Declares the ISecurityProvider abstract interface for encryption/decryption.">
<polygon fill="white" stroke="black" points="0,-56.5 0,-75.5 140,-75.5 140,-56.5 0,-56.5"/>
<text text-anchor="middle" x="70" y="-63.5" font-family="Helvetica,sans-Serif" font-size="10.00">inc/security_provider.hpp</text>
</a>
</g>
</g>
<!-- Node2&#45;&gt;Node3 -->
<g id="edge2" class="edge">
<title>Node2&#45;&gt;Node3</title>
<path fill="none" stroke="midnightblue" d="M184.45,-112.4C159.17,-102.37 125.53,-89.03 101.27,-79.4"/>
<polygon fill="midnightblue" stroke="midnightblue" points="102.41,-76.09 91.83,-75.66 99.83,-82.6 102.41,-76.09"/>
</g>
<!-- Node4 -->
<g id="node4" class="node">
<title>Node4</title>
<g id="a_node4"><a xlink:title=" ">
<polygon fill="white" stroke="#bfbfbf" points="146,-0.5 146,-19.5 190,-19.5 190,-0.5 146,-0.5"/>
<text text-anchor="middle" x="168" y="-7.5" font-family="Helvetica,sans-Serif" font-size="10.00">string</text>
</a>
</g>
</g>
<!-- Node2&#45;&gt;Node4 -->
<g id="edge4" class="edge">
<title>Node2&#45;&gt;Node4</title>
<path fill="none" stroke="midnightblue" d="M208.97,-112.14C201.9,-102.38 192.96,-88.94 187,-76 180.08,-60.98 175.03,-42.85 171.88,-29.56"/>
<polygon fill="midnightblue" stroke="midnightblue" points="175.28,-28.7 169.69,-19.7 168.45,-30.22 175.28,-28.7"/>
</g>
<!-- Node5 -->
<g id="node5" class="node">
<title>Node5</title>
<g id="a_node5"><a xlink:title=" ">
<polygon fill="white" stroke="#bfbfbf" points="196.5,-56.5 196.5,-75.5 243.5,-75.5 243.5,-56.5 196.5,-56.5"/>
<text text-anchor="middle" x="220" y="-63.5" font-family="Helvetica,sans-Serif" font-size="10.00">vector</text>
</a>
</g>
</g>
<!-- Node2&#45;&gt;Node5 -->
<g id="edge5" class="edge">
<title>Node2&#45;&gt;Node5</title>
<path fill="none" stroke="midnightblue" d="M220,-112.4C220,-104.47 220,-94.46 220,-85.86"/>
<polygon fill="midnightblue" stroke="midnightblue" points="223.5,-85.66 220,-75.66 216.5,-85.66 223.5,-85.66"/>
</g>
<!-- Node2&#45;&gt;Node6 -->
<g id="edge6" class="edge">
<title>Node2&#45;&gt;Node6</title>
<path fill="none" stroke="midnightblue" d="M241.57,-112.4C255.88,-103.04 274.61,-90.79 289.01,-81.38"/>
<polygon fill="midnightblue" stroke="midnightblue" points="291.3,-84.06 297.76,-75.66 287.47,-78.2 291.3,-84.06"/>
</g>
<!-- Node3&#45;&gt;Node4 -->
<g id="edge3" class="edge">
<title>Node3&#45;&gt;Node4</title>
<path fill="none" stroke="midnightblue" d="M85.75,-56.32C101.32,-47.74 125.38,-34.49 143.46,-24.52"/>
<polygon fill="midnightblue" stroke="midnightblue" points="145.22,-27.55 152.29,-19.65 141.85,-21.42 145.22,-27.55"/>
</g>
<!-- Node6&#45;&gt;Node4 -->
<g id="edge7" class="edge">
<title>Node6&#45;&gt;Node4</title>
<path fill="none" stroke="midnightblue" d="M288.34,-56.44C264.46,-47.42 226.65,-33.15 199.79,-23"/>
<polygon fill="midnightblue" stroke="midnightblue" points="200.67,-19.6 190.08,-19.34 198.2,-26.15 200.67,-19.6"/>
</g>
<!-- Node7 -->
<g id="node7" class="node">
<title>Node7</title>
<g id="a_node7"><a xlink:title=" ">
<polygon fill="white" stroke="#bfbfbf" points="241.5,-0.5 241.5,-19.5 314.5,-19.5 314.5,-0.5 241.5,-0.5"/>
<text text-anchor="middle" x="278" y="-7.5" font-family="Helvetica,sans-Serif" font-size="10.00">string_view</text>
</a>
</g>
</g>
<!-- Node6&#45;&gt;Node7 -->
<g id="edge8" class="edge">
<title>Node6&#45;&gt;Node7</title>
<path fill="none" stroke="midnightblue" d="M305.55,-56.08C300.99,-48.61 294.33,-37.72 288.71,-28.52"/>
<polygon fill="midnightblue" stroke="midnightblue" points="291.55,-26.46 283.35,-19.75 285.58,-30.11 291.55,-26.46"/>
</g>
<!-- Node8 -->
<g id="node8" class="node">
<title>Node8</title>
<g id="a_node8"><a xlink:title=" ">
<polygon fill="white" stroke="#bfbfbf" points="332.5,-0.5 332.5,-19.5 425.5,-19.5 425.5,-0.5 332.5,-0.5"/>
<text text-anchor="middle" x="379" y="-7.5" font-family="Helvetica,sans-Serif" font-size="10.00">unordered_map</text>
</a>
</g>
</g>
<!-- Node6&#45;&gt;Node8 -->
<g id="edge9" class="edge">
<title>Node6&#45;&gt;Node8</title>
<path fill="none" stroke="midnightblue" d="M321.93,-56.32C332.17,-48.18 347.72,-35.84 360,-26.09"/>
<polygon fill="midnightblue" stroke="midnightblue" points="362.22,-28.79 367.88,-19.83 357.87,-23.31 362.22,-28.79"/>
</g>
</g>
</svg>
