<?xml version="1.0" encoding="UTF-8" standalone="no"?>
<!DOCTYPE svg PUBLIC "-//W3C//DTD SVG 1.1//EN"
 "http://www.w3.org/Graphics/SVG/1.1/DTD/svg11.dtd">
<!-- Generated by graphviz version 2.43.0 (0)
 -->
<!-- Title: ProtoRequestExecutorHandler::Execute Pages: 1 -->
<svg width="946pt" height="351pt"
 viewBox="0.00 0.00 946.00 350.50" xmlns="http://www.w3.org/2000/svg" xmlns:xlink="http://www.w3.org/1999/xlink">
<g id="graph0" class="graph" transform="scale(1 1) rotate(0) translate(4 346.5)">
<title>ProtoRequestExecutorHandler::Execute</title>
<polygon fill="white" stroke="transparent" points="-4,4 -4,-346.5 942,-346.5 942,4 -4,4"/>
<!-- Node1 -->
<g id="node1" class="node">
<title>Node1</title>
<g id="a_node1"><a xlink:title="Receives a serialized protobuf string, deserializes, saves to DB, and returns result as JSON.">
<polygon fill="#bfbfbf" stroke="black" points="0,-161 0,-191 163,-191 163,-161 0,-161"/>
<text text-anchor="start" x="8" y="-179" font-family="Helvetica,sans-Serif" font-size="10.00">ProtoRequestExecutorHandler</text>
<text text-anchor="middle" x="81.5" y="-168" font-family="Helvetica,sans-Serif" font-size="10.00">::Execute</text>
</a>
</g>
</g>
<!-- Node2 -->
<g id="node2" class="node">
<title>Node2</title>
<g id="a_node2"><a xlink:href="classcontainermanager_1_1ContainerParameters.html#a1fa02ce02859ee70a41e1b4fe203e412" target="_top" xlink:title=" ">
<polygon fill="white" stroke="black" points="199,-312 199,-342 358,-342 358,-312 199,-312"/>
<text text-anchor="start" x="207" y="-330" font-family="Helvetica,sans-Serif" font-size="10.00">containermanager::Container</text>
<text text-anchor="middle" x="278.5" y="-319" font-family="Helvetica,sans-Serif" font-size="10.00">Parameters::container_name</text>
</a>
</g>
</g>
<!-- Node1&#45;&gt;Node2 -->
<g id="edge1" class="edge">
<title>Node1&#45;&gt;Node2</title>
<path fill="none" stroke="midnightblue" d="M92.5,-191.17C110.63,-217.51 151.49,-271.78 199,-302 202.3,-304.1 205.79,-306.03 209.39,-307.82"/>
<polygon fill="midnightblue" stroke="midnightblue" points="207.98,-311.02 218.54,-311.94 210.86,-304.64 207.98,-311.02"/>
</g>
<!-- Node3 -->
<g id="node3" class="node">
<title>Node3</title>
<g id="a_node3"><a xlink:href="aes__gcm__decrypt_8hpp.html#aafa6ad411734eeb8c3783999c926ac2b" target="_top" xlink:title=" ">
<polygon fill="white" stroke="black" points="219,-273.5 219,-292.5 338,-292.5 338,-273.5 219,-273.5"/>
<text text-anchor="middle" x="278.5" y="-280.5" font-family="Helvetica,sans-Serif" font-size="10.00">decrypt_ota_payload</text>
</a>
</g>
</g>
<!-- Node1&#45;&gt;Node3 -->
<g id="edge2" class="edge">
<title>Node1&#45;&gt;Node3</title>
<path fill="none" stroke="midnightblue" d="M98.07,-191.15C119.19,-210.87 158.91,-245.02 199,-264 204.2,-266.46 209.74,-268.62 215.39,-270.51"/>
<polygon fill="midnightblue" stroke="midnightblue" points="214.37,-273.86 224.95,-273.45 216.42,-267.17 214.37,-273.86"/>
</g>
<!-- Node5 -->
<g id="node5" class="node">
<title>Node5</title>
<g id="a_node5"><a xlink:href="structStatus.html#ace3b560f6a5f4a2d62a02b6e03700538" target="_top" xlink:title="Returns an error Status with the given code and message.">
<polygon fill="white" stroke="black" points="240,-235.5 240,-254.5 317,-254.5 317,-235.5 240,-235.5"/>
<text text-anchor="middle" x="278.5" y="-242.5" font-family="Helvetica,sans-Serif" font-size="10.00">Status::Error</text>
</a>
</g>
</g>
<!-- Node1&#45;&gt;Node5 -->
<g id="edge4" class="edge">
<title>Node1&#45;&gt;Node5</title>
<path fill="none" stroke="midnightblue" d="M113.59,-191.04C136.75,-201.82 169.35,-216.13 199,-226 208.78,-229.26 219.41,-232.21 229.61,-234.76"/>
<polygon fill="midnightblue" stroke="midnightblue" points="229.06,-238.23 239.6,-237.18 230.71,-231.43 229.06,-238.23"/>
</g>
<!-- Node6 -->
<g id="node6" class="node">
<title>Node6</title>
<g id="a_node6"><a xlink:href="classContainerServiceHandler.html#a16f0650a9d5719fc441541a2adc5f29a" target="_top" xlink:title="Handles a container request by dispatching to the appropriate operation. Updates the container status...">
<polygon fill="white" stroke="black" points="209.5,-186 209.5,-216 347.5,-216 347.5,-186 209.5,-186"/>
<text text-anchor="start" x="217.5" y="-204" font-family="Helvetica,sans-Serif" font-size="10.00">ContainerServiceHandler</text>
<text text-anchor="middle" x="278.5" y="-193" font-family="Helvetica,sans-Serif" font-size="10.00">::HandleRequest</text>
</a>
</g>
</g>
<!-- Node1&#45;&gt;Node6 -->
<g id="edge5" class="edge">
<title>Node1&#45;&gt;Node6</title>
<path fill="none" stroke="midnightblue" d="M163.22,-186.35C175.05,-187.87 187.22,-189.43 199.01,-190.94"/>
<polygon fill="midnightblue" stroke="midnightblue" points="198.89,-194.45 209.25,-192.25 199.78,-187.51 198.89,-194.45"/>
</g>
<!-- Node15 -->
<g id="node15" class="node">
<title>Node15</title>
<g id="a_node15"><a xlink:href="classcontainermanager_1_1ContainerRequest.html#a28ace998fd1164adc2da2f87d4f45ab0" target="_top" xlink:title=" ">
<polygon fill="white" stroke="black" points="199,-137 199,-167 358,-167 358,-137 199,-137"/>
<text text-anchor="start" x="207" y="-155" font-family="Helvetica,sans-Serif" font-size="10.00">containermanager::Container</text>
<text text-anchor="middle" x="278.5" y="-144" font-family="Helvetica,sans-Serif" font-size="10.00">Request::operation</text>
</a>
</g>
</g>
<!-- Node1&#45;&gt;Node15 -->
<g id="edge14" class="edge">
<title>Node1&#45;&gt;Node15</title>
<path fill="none" stroke="midnightblue" d="M163.22,-166.07C171.66,-165.03 180.26,-163.97 188.78,-162.92"/>
<polygon fill="midnightblue" stroke="midnightblue" points="189.22,-166.39 198.72,-161.7 188.37,-159.44 189.22,-166.39"/>
</g>
<!-- Node16 -->
<g id="node16" class="node">
<title>Node16</title>
<g id="a_node16"><a xlink:href="classcontainermanager_1_1ContainerRequest.html#aa9ca92cdaef7d9ae3358c34fa8a024dd" target="_top" xlink:title=" ">
<polygon fill="white" stroke="black" points="199,-88 199,-118 358,-118 358,-88 199,-88"/>
<text text-anchor="start" x="207" y="-106" font-family="Helvetica,sans-Serif" font-size="10.00">containermanager::Container</text>
<text text-anchor="middle" x="278.5" y="-95" font-family="Helvetica,sans-Serif" font-size="10.00">Request::parameters</text>
</a>
</g>
</g>
<!-- Node1&#45;&gt;Node16 -->
<g id="edge15" class="edge">
<title>Node1&#45;&gt;Node16</title>
<path fill="none" stroke="midnightblue" d="M115.79,-160.94C138.9,-150.74 170.53,-137.31 199,-127 204.49,-125.01 210.24,-123.04 216.02,-121.14"/>
<polygon fill="midnightblue" stroke="midnightblue" points="217.29,-124.41 225.74,-118.01 215.15,-117.75 217.29,-124.41"/>
</g>
<!-- Node17 -->
<g id="node17" class="node">
<title>Node17</title>
<g id="a_node17"><a xlink:href="classcontainermanager_1_1ContainerRequest.html#a83c720592fa42a002f8a88c190cecfa5" target="_top" xlink:title=" ">
<polygon fill="white" stroke="black" points="199,-39 199,-69 358,-69 358,-39 199,-39"/>
<text text-anchor="start" x="207" y="-57" font-family="Helvetica,sans-Serif" font-size="10.00">containermanager::Container</text>
<text text-anchor="middle" x="278.5" y="-46" font-family="Helvetica,sans-Serif" font-size="10.00">Request::runtime</text>
</a>
</g>
</g>
<!-- Node1&#45;&gt;Node17 -->
<g id="edge16" class="edge">
<title>Node1&#45;&gt;Node17</title>
<path fill="none" stroke="midnightblue" d="M96.5,-160.87C117.04,-139.51 157.44,-100.6 199,-78 202.26,-76.23 205.67,-74.57 209.16,-73.02"/>
<polygon fill="midnightblue" stroke="midnightblue" points="210.64,-76.19 218.56,-69.16 207.98,-69.72 210.64,-76.19"/>
</g>
<!-- Node18 -->
<g id="node18" class="node">
<title>Node18</title>
<g id="a_node18"><a xlink:href="classIDatabaseHandler.html#ae77b65ff51207a07704ae8efebac2125" target="_top" xlink:title="Saves a JSON object to the database with the specified key.">
<polygon fill="white" stroke="black" points="201,-0.5 201,-19.5 356,-19.5 356,-0.5 201,-0.5"/>
<text text-anchor="middle" x="278.5" y="-7.5" font-family="Helvetica,sans-Serif" font-size="10.00">IDatabaseHandler::SaveJson</text>
</a>
</g>
</g>
<!-- Node1&#45;&gt;Node18 -->
<g id="edge17" class="edge">
<title>Node1&#45;&gt;Node18</title>
<path fill="none" stroke="midnightblue" d="M90.08,-160.77C105.91,-130.6 145.51,-63.22 199,-29 202.2,-26.95 205.6,-25.13 209.13,-23.5"/>
<polygon fill="midnightblue" stroke="midnightblue" points="210.74,-26.62 218.69,-19.63 208.11,-20.13 210.74,-26.62"/>
</g>
<!-- Node4 -->
<g id="node4" class="node">
<title>Node4</title>
<g id="a_node4"><a xlink:href="aes__gcm__decrypt_8cpp.html#adac74448236ae767b76ec9f551cee9e2" target="_top" xlink:title=" ">
<polygon fill="white" stroke="black" points="427.5,-279.5 427.5,-298.5 529.5,-298.5 529.5,-279.5 427.5,-279.5"/>
<text text-anchor="middle" x="478.5" y="-286.5" font-family="Helvetica,sans-Serif" font-size="10.00">aes_gcm_decrypt</text>
</a>
</g>
</g>
<!-- Node3&#45;&gt;Node4 -->
<g id="edge3" class="edge">
<title>Node3&#45;&gt;Node4</title>
<path fill="none" stroke="midnightblue" d="M338.1,-284.78C363.06,-285.53 392.15,-286.41 417.28,-287.18"/>
<polygon fill="midnightblue" stroke="midnightblue" points="417.32,-290.68 427.42,-287.48 417.53,-283.68 417.32,-290.68"/>
</g>
<!-- Node7 -->
<g id="node7" class="node">
<title>Node7</title>
<g id="a_node7"><a xlink:href="classContainerServiceHandler.html#a9c527464b3d91168a747a33361994000" target="_top" xlink:title="Performs the specified container operation using the request structure. Invokes the appropriate comma...">
<polygon fill="white" stroke="black" points="409.5,-230 409.5,-260 547.5,-260 547.5,-230 409.5,-230"/>
<text text-anchor="start" x="417.5" y="-248" font-family="Helvetica,sans-Serif" font-size="10.00">ContainerServiceHandler</text>
<text text-anchor="middle" x="478.5" y="-237" font-family="Helvetica,sans-Serif" font-size="10.00">::ContainerOperations</text>
</a>
</g>
</g>
<!-- Node6&#45;&gt;Node7 -->
<g id="edge6" class="edge">
<title>Node6&#45;&gt;Node7</title>
<path fill="none" stroke="midnightblue" d="M347.09,-216.02C364.04,-219.79 382.36,-223.86 399.76,-227.72"/>
<polygon fill="midnightblue" stroke="midnightblue" points="399.36,-231.22 409.88,-229.97 400.88,-224.39 399.36,-231.22"/>
</g>
<!-- Node12 -->
<g id="node12" class="node">
<title>Node12</title>
<g id="a_node12"><a xlink:href="structStatus.html#a19a4e02345758bf3685dcb14a9678de1" target="_top" xlink:title="Checks if the status represents success.">
<polygon fill="white" stroke="black" points="446,-191.5 446,-210.5 511,-210.5 511,-191.5 446,-191.5"/>
<text text-anchor="middle" x="478.5" y="-198.5" font-family="Helvetica,sans-Serif" font-size="10.00">Status::ok</text>
</a>
</g>
</g>
<!-- Node6&#45;&gt;Node12 -->
<g id="edge11" class="edge">
<title>Node6&#45;&gt;Node12</title>
<path fill="none" stroke="midnightblue" d="M347.64,-201C376.94,-201 410.24,-201 435.79,-201"/>
<polygon fill="midnightblue" stroke="midnightblue" points="435.88,-204.5 445.88,-201 435.88,-197.5 435.88,-204.5"/>
</g>
<!-- Node13 -->
<g id="node13" class="node">
<title>Node13</title>
<g id="a_node13"><a xlink:href="classIDatabaseHandler.html#a32aef1bd17b79529d93fadc2d72441e5" target="_top" xlink:title="Removes the JSON object associated with the specified key from the database.">
<polygon fill="white" stroke="black" points="394,-153.5 394,-172.5 563,-172.5 563,-153.5 394,-153.5"/>
<text text-anchor="middle" x="478.5" y="-160.5" font-family="Helvetica,sans-Serif" font-size="10.00">IDatabaseHandler::RemoveKey</text>
</a>
</g>
</g>
<!-- Node6&#45;&gt;Node13 -->
<g id="edge12" class="edge">
<title>Node6&#45;&gt;Node13</title>
<path fill="none" stroke="midnightblue" d="M347.64,-187.92C370.53,-183.53 395.87,-178.67 418.05,-174.41"/>
<polygon fill="midnightblue" stroke="midnightblue" points="418.83,-177.82 427.99,-172.5 417.51,-170.95 418.83,-177.82"/>
</g>
<!-- Node14 -->
<g id="node14" class="node">
<title>Node14</title>
<g id="a_node14"><a xlink:href="classIDatabaseHandler.html#a10972030d1577974e9f86820e251c7d6" target="_top" xlink:title="Updates a specific field in the JSON object stored under the given key.">
<polygon fill="white" stroke="black" points="405.5,-104 405.5,-134 551.5,-134 551.5,-104 405.5,-104"/>
<text text-anchor="start" x="413.5" y="-122" font-family="Helvetica,sans-Serif" font-size="10.00">IDatabaseHandler::Update</text>
<text text-anchor="middle" x="478.5" y="-111" font-family="Helvetica,sans-Serif" font-size="10.00">Field</text>
</a>
</g>
</g>
<!-- Node6&#45;&gt;Node14 -->
<g id="edge13" class="edge">
<title>Node6&#45;&gt;Node14</title>
<path fill="none" stroke="midnightblue" d="M336.87,-185.84C344.19,-183.02 351.41,-179.75 358,-176 376.6,-165.41 375.3,-154.43 394,-144 397.97,-141.78 402.16,-139.74 406.47,-137.87"/>
<polygon fill="midnightblue" stroke="midnightblue" points="408.06,-141 416.03,-134.02 405.44,-134.51 408.06,-141"/>
</g>
<!-- Node8 -->
<g id="node8" class="node">
<title>Node8</title>
<g id="a_node8"><a xlink:href="classCommandFactory.html#adf4da2f0dbcf9e4018f9afe8bd4a38e9" target="_top" xlink:title="Factory method to create a command based on the container request structure.">
<polygon fill="white" stroke="black" points="599,-273.5 599,-292.5 790,-292.5 790,-273.5 599,-273.5"/>
<text text-anchor="middle" x="694.5" y="-280.5" font-family="Helvetica,sans-Serif" font-size="10.00">CommandFactory::CreateCommand</text>
</a>
</g>
</g>
<!-- Node7&#45;&gt;Node8 -->
<g id="edge7" class="edge">
<title>Node7&#45;&gt;Node8</title>
<path fill="none" stroke="midnightblue" d="M547.5,-257.08C573.87,-261.76 603.89,-267.09 629.83,-271.69"/>
<polygon fill="midnightblue" stroke="midnightblue" points="629.46,-275.18 639.92,-273.49 630.69,-268.29 629.46,-275.18"/>
</g>
<!-- Node9 -->
<g id="node9" class="node">
<title>Node9</title>
<g id="a_node9"><a xlink:href="classInvoker.html#ac01c8216ff7b95532f2970a49198d840" target="_top" xlink:title="Execute the command.">
<polygon fill="white" stroke="black" points="649,-235.5 649,-254.5 740,-254.5 740,-235.5 649,-235.5"/>
<text text-anchor="middle" x="694.5" y="-242.5" font-family="Helvetica,sans-Serif" font-size="10.00">Invoker::Invoke</text>
</a>
</g>
</g>
<!-- Node7&#45;&gt;Node9 -->
<g id="edge8" class="edge">
<title>Node7&#45;&gt;Node9</title>
<path fill="none" stroke="midnightblue" d="M547.5,-245C576.91,-245 610.88,-245 638.64,-245"/>
<polygon fill="midnightblue" stroke="midnightblue" points="638.96,-248.5 648.96,-245 638.96,-241.5 638.96,-248.5"/>
</g>
<!-- Node11 -->
<g id="node11" class="node">
<title>Node11</title>
<g id="a_node11"><a xlink:href="classInvoker.html#ae9f10a2487afd153bf0da69ae410a0e9" target="_top" xlink:title="Set the command to be executed.">
<polygon fill="white" stroke="black" points="632,-197.5 632,-216.5 757,-216.5 757,-197.5 632,-197.5"/>
<text text-anchor="middle" x="694.5" y="-204.5" font-family="Helvetica,sans-Serif" font-size="10.00">Invoker::SetCommand</text>
</a>
</g>
</g>
<!-- Node7&#45;&gt;Node11 -->
<g id="edge10" class="edge">
<title>Node7&#45;&gt;Node11</title>
<path fill="none" stroke="midnightblue" d="M547.5,-232.92C573.87,-228.24 603.89,-222.91 629.83,-218.31"/>
<polygon fill="midnightblue" stroke="midnightblue" points="630.69,-221.71 639.92,-216.51 629.46,-214.82 630.69,-221.71"/>
</g>
<!-- Node10 -->
<g id="node10" class="node">
<title>Node10</title>
<g id="a_node10"><a xlink:href="classCommand.html#a8d6fcd1baa8fd96ce9b423b66765ab4a" target="_top" xlink:title="Execute the command.">
<polygon fill="white" stroke="black" points="826,-235.5 826,-254.5 938,-254.5 938,-235.5 826,-235.5"/>
<text text-anchor="middle" x="882" y="-242.5" font-family="Helvetica,sans-Serif" font-size="10.00">Command::Execute</text>
</a>
</g>
</g>
<!-- Node9&#45;&gt;Node10 -->
<g id="edge9" class="edge">
<title>Node9&#45;&gt;Node10</title>
<path fill="none" stroke="midnightblue" d="M740.4,-245C763.02,-245 790.87,-245 815.79,-245"/>
<polygon fill="midnightblue" stroke="midnightblue" points="815.91,-248.5 825.91,-245 815.91,-241.5 815.91,-248.5"/>
</g>
</g>
</svg>
