<?xml version="1.0" encoding="UTF-8" standalone="no"?>
<!DOCTYPE svg PUBLIC "-//W3C//DTD SVG 1.1//EN"
 "http://www.w3.org/Graphics/SVG/1.1/DTD/svg11.dtd">
<!-- Generated by graphviz version 2.43.0 (0)
 -->
<!-- Title: IDatabaseHandler::UpdateField Pages: 1 -->
<svg width="384pt" height="480pt"
 viewBox="0.00 0.00 384.00 480.00" xmlns="http://www.w3.org/2000/svg" xmlns:xlink="http://www.w3.org/1999/xlink">
<g id="graph0" class="graph" transform="scale(1 1) rotate(0) translate(4 476)">
<title>IDatabaseHandler::UpdateField</title>
<polygon fill="white" stroke="transparent" points="-4,4 -4,-476 380,-476 380,4 -4,4"/>
<!-- Node1 -->
<g id="node1" class="node">
<title>Node1</title>
<g id="a_node1"><a xlink:title="Updates a specific field in the JSON object stored under the given key.">
<polygon fill="#bfbfbf" stroke="black" points="230,-220.5 230,-250.5 376,-250.5 376,-220.5 230,-220.5"/>
<text text-anchor="start" x="238" y="-238.5" font-family="Helvetica,sans-Serif" font-size="10.00">IDatabaseHandler::Update</text>
<text text-anchor="middle" x="303" y="-227.5" font-family="Helvetica,sans-Serif" font-size="10.00">Field</text>
</a>
</g>
</g>
<!-- Node2 -->
<g id="node2" class="node">
<title>Node2</title>
<g id="a_node2"><a xlink:href="classDockerCreateContainerCommand.html#a8967ee094698e00a212c67f71870de06" target="_top" xlink:title="Executes the command to create a Docker container.">
<polygon fill="white" stroke="black" points="7,-441.5 7,-471.5 187,-471.5 187,-441.5 7,-441.5"/>
<text text-anchor="start" x="15" y="-459.5" font-family="Helvetica,sans-Serif" font-size="10.00">DockerCreateContainerCommand</text>
<text text-anchor="middle" x="97" y="-448.5" font-family="Helvetica,sans-Serif" font-size="10.00">::Execute</text>
</a>
</g>
</g>
<!-- Node1&#45;&gt;Node2 -->
<g id="edge1" class="edge">
<title>Node1&#45;&gt;Node2</title>
<path fill="none" stroke="midnightblue" d="M295.49,-260.29C283.11,-302.4 252.08,-387.69 194,-432.5 189.51,-435.96 184.58,-438.93 179.41,-441.48"/>
<polygon fill="midnightblue" stroke="midnightblue" points="298.89,-261.14 298.24,-250.57 292.15,-259.24 298.89,-261.14"/>
</g>
<!-- Node3 -->
<g id="node3" class="node">
<title>Node3</title>
<g id="a_node3"><a xlink:href="classPodmanCreateContainerCommand.html#aca31055904b1fb20736ed5807e215ae6" target="_top" xlink:title="Executes the command to create a Podman container.">
<polygon fill="white" stroke="black" points="4,-392.5 4,-422.5 190,-422.5 190,-392.5 4,-392.5"/>
<text text-anchor="start" x="12" y="-410.5" font-family="Helvetica,sans-Serif" font-size="10.00">PodmanCreateContainerCommand</text>
<text text-anchor="middle" x="97" y="-399.5" font-family="Helvetica,sans-Serif" font-size="10.00">::Execute</text>
</a>
</g>
</g>
<!-- Node1&#45;&gt;Node3 -->
<g id="edge2" class="edge">
<title>Node1&#45;&gt;Node3</title>
<path fill="none" stroke="midnightblue" d="M290.97,-259.83C274.63,-293.02 240.82,-351.97 194,-383.5 188.87,-386.95 183.28,-389.91 177.47,-392.44"/>
<polygon fill="midnightblue" stroke="midnightblue" points="294.13,-261.33 295.29,-250.8 287.81,-258.31 294.13,-261.33"/>
</g>
<!-- Node4 -->
<g id="node4" class="node">
<title>Node4</title>
<g id="a_node4"><a xlink:href="classDockerStartContainerCommand.html#ad208f99e4185a7606a0a9903d1346fcc" target="_top" xlink:title="Executes the command to start a Docker container.">
<polygon fill="white" stroke="black" points="11.5,-343.5 11.5,-373.5 182.5,-373.5 182.5,-343.5 11.5,-343.5"/>
<text text-anchor="start" x="19.5" y="-361.5" font-family="Helvetica,sans-Serif" font-size="10.00">DockerStartContainerCommand</text>
<text text-anchor="middle" x="97" y="-350.5" font-family="Helvetica,sans-Serif" font-size="10.00">::Execute</text>
</a>
</g>
</g>
<!-- Node1&#45;&gt;Node4 -->
<g id="edge3" class="edge">
<title>Node1&#45;&gt;Node4</title>
<path fill="none" stroke="midnightblue" d="M283.07,-258.56C263.2,-281.24 229.91,-315.19 194,-334.5 187.57,-337.96 180.63,-340.93 173.52,-343.48"/>
<polygon fill="midnightblue" stroke="midnightblue" points="285.9,-260.63 289.76,-250.76 280.59,-256.07 285.9,-260.63"/>
</g>
<!-- Node5 -->
<g id="node5" class="node">
<title>Node5</title>
<g id="a_node5"><a xlink:href="classPodmanStartContainerCommand.html#aaf7627e6faf5974ffcd95e8a5f58852f" target="_top" xlink:title="Executes the command to start a Podman container.">
<polygon fill="white" stroke="black" points="8.5,-294.5 8.5,-324.5 185.5,-324.5 185.5,-294.5 8.5,-294.5"/>
<text text-anchor="start" x="16.5" y="-312.5" font-family="Helvetica,sans-Serif" font-size="10.00">PodmanStartContainerCommand</text>
<text text-anchor="middle" x="97" y="-301.5" font-family="Helvetica,sans-Serif" font-size="10.00">::Execute</text>
</a>
</g>
</g>
<!-- Node1&#45;&gt;Node5 -->
<g id="edge4" class="edge">
<title>Node1&#45;&gt;Node5</title>
<path fill="none" stroke="midnightblue" d="M264.31,-255.08C243.89,-265.14 217.99,-277.03 194,-285.5 184.77,-288.76 174.88,-291.76 165.1,-294.45"/>
<polygon fill="midnightblue" stroke="midnightblue" points="265.9,-258.2 273.28,-250.61 262.77,-251.94 265.9,-258.2"/>
</g>
<!-- Node6 -->
<g id="node6" class="node">
<title>Node6</title>
<g id="a_node6"><a xlink:href="classDockerStopContainerCommand.html#a4d6a495edca166958eee65ca601bc5bd" target="_top" xlink:title="Executes the command to stop a Docker container.">
<polygon fill="white" stroke="black" points="12,-245.5 12,-275.5 182,-275.5 182,-245.5 12,-245.5"/>
<text text-anchor="start" x="20" y="-263.5" font-family="Helvetica,sans-Serif" font-size="10.00">DockerStopContainerCommand</text>
<text text-anchor="middle" x="97" y="-252.5" font-family="Helvetica,sans-Serif" font-size="10.00">::Execute</text>
</a>
</g>
</g>
<!-- Node1&#45;&gt;Node6 -->
<g id="edge5" class="edge">
<title>Node1&#45;&gt;Node6</title>
<path fill="none" stroke="midnightblue" d="M219.59,-245.6C207.31,-247.1 194.64,-248.66 182.32,-250.17"/>
<polygon fill="midnightblue" stroke="midnightblue" points="220.29,-249.04 229.79,-244.35 219.44,-242.09 220.29,-249.04"/>
</g>
<!-- Node7 -->
<g id="node7" class="node">
<title>Node7</title>
<g id="a_node7"><a xlink:href="classPodmanStopContainerCommand.html#a42d7bf3c2ae604172ae1e1ae29bdc0c6" target="_top" xlink:title="Executes the command to stop a Podman container.">
<polygon fill="white" stroke="black" points="9,-196.5 9,-226.5 185,-226.5 185,-196.5 9,-196.5"/>
<text text-anchor="start" x="17" y="-214.5" font-family="Helvetica,sans-Serif" font-size="10.00">PodmanStopContainerCommand</text>
<text text-anchor="middle" x="97" y="-203.5" font-family="Helvetica,sans-Serif" font-size="10.00">::Execute</text>
</a>
</g>
</g>
<!-- Node1&#45;&gt;Node7 -->
<g id="edge6" class="edge">
<title>Node1&#45;&gt;Node7</title>
<path fill="none" stroke="midnightblue" d="M219.85,-225.84C208.43,-224.49 196.66,-223.11 185.15,-221.75"/>
<polygon fill="midnightblue" stroke="midnightblue" points="219.45,-229.31 229.79,-227 220.27,-222.36 219.45,-229.31"/>
</g>
<!-- Node8 -->
<g id="node8" class="node">
<title>Node8</title>
<g id="a_node8"><a xlink:href="classDockerRemoveContainerCommand.html#a0c15063652bf92deb99a742a4a9f61fd" target="_top" xlink:title="Executes the command to remove a Docker container and clean up database state.">
<polygon fill="white" stroke="black" points="3,-147.5 3,-177.5 191,-177.5 191,-147.5 3,-147.5"/>
<text text-anchor="start" x="11" y="-165.5" font-family="Helvetica,sans-Serif" font-size="10.00">DockerRemoveContainerCommand</text>
<text text-anchor="middle" x="97" y="-154.5" font-family="Helvetica,sans-Serif" font-size="10.00">::Execute</text>
</a>
</g>
</g>
<!-- Node1&#45;&gt;Node8 -->
<g id="edge7" class="edge">
<title>Node1&#45;&gt;Node8</title>
<path fill="none" stroke="midnightblue" d="M262.62,-216.14C242.42,-206.68 217.24,-195.63 194,-187.5 183.68,-183.89 172.57,-180.53 161.7,-177.52"/>
<polygon fill="midnightblue" stroke="midnightblue" points="261.28,-219.37 271.81,-220.49 264.27,-213.05 261.28,-219.37"/>
</g>
<!-- Node9 -->
<g id="node9" class="node">
<title>Node9</title>
<g id="a_node9"><a xlink:href="classPodmanRemoveContainerCommand.html#a3bb0bf30e7f91e87c407980e1adcc398" target="_top" xlink:title="Executes the command to remove a Podman container and clean up database state.">
<polygon fill="white" stroke="black" points="0,-98.5 0,-128.5 194,-128.5 194,-98.5 0,-98.5"/>
<text text-anchor="start" x="8" y="-116.5" font-family="Helvetica,sans-Serif" font-size="10.00">PodmanRemoveContainerCommand</text>
<text text-anchor="middle" x="97" y="-105.5" font-family="Helvetica,sans-Serif" font-size="10.00">::Execute</text>
</a>
</g>
</g>
<!-- Node1&#45;&gt;Node9 -->
<g id="edge8" class="edge">
<title>Node1&#45;&gt;Node9</title>
<path fill="none" stroke="midnightblue" d="M282.59,-212.62C262.58,-190.47 229.39,-157.52 194,-138.5 186.79,-134.63 178.96,-131.33 170.97,-128.53"/>
<polygon fill="midnightblue" stroke="midnightblue" points="280.1,-215.08 289.35,-220.25 285.34,-210.44 280.1,-215.08"/>
</g>
<!-- Node10 -->
<g id="node10" class="node">
<title>Node10</title>
<g id="a_node10"><a xlink:href="classDockerRestartContainerCommand.html#a3852a9870150e02cde5e3f3cabf4d5d9" target="_top" xlink:title="Executes the command to restart a Docker container.">
<polygon fill="white" stroke="black" points="5.5,-49.5 5.5,-79.5 188.5,-79.5 188.5,-49.5 5.5,-49.5"/>
<text text-anchor="start" x="13.5" y="-67.5" font-family="Helvetica,sans-Serif" font-size="10.00">DockerRestartContainerCommand</text>
<text text-anchor="middle" x="97" y="-56.5" font-family="Helvetica,sans-Serif" font-size="10.00">::Execute</text>
</a>
</g>
</g>
<!-- Node1&#45;&gt;Node10 -->
<g id="edge9" class="edge">
<title>Node1&#45;&gt;Node10</title>
<path fill="none" stroke="midnightblue" d="M290.62,-211.14C274.06,-178.4 240.16,-120.7 194,-89.5 188.29,-85.64 182.02,-82.38 175.51,-79.62"/>
<polygon fill="midnightblue" stroke="midnightblue" points="287.65,-213.02 295.2,-220.45 293.93,-209.93 287.65,-213.02"/>
</g>
<!-- Node11 -->
<g id="node11" class="node">
<title>Node11</title>
<g id="a_node11"><a xlink:href="classPodmanRestartContainerCommand.html#ae4a585c345eafa6a97a1f38e4cb485ea" target="_top" xlink:title="Executes the command to restart a Podman container.">
<polygon fill="white" stroke="black" points="2.5,-0.5 2.5,-30.5 191.5,-30.5 191.5,-0.5 2.5,-0.5"/>
<text text-anchor="start" x="10.5" y="-18.5" font-family="Helvetica,sans-Serif" font-size="10.00">PodmanRestartContainerCommand</text>
<text text-anchor="middle" x="97" y="-7.5" font-family="Helvetica,sans-Serif" font-size="10.00">::Execute</text>
</a>
</g>
</g>
<!-- Node1&#45;&gt;Node11 -->
<g id="edge10" class="edge">
<title>Node1&#45;&gt;Node11</title>
<path fill="none" stroke="midnightblue" d="M295.27,-210.71C282.65,-169 251.36,-85.01 194,-40.5 188.97,-36.59 183.38,-33.29 177.51,-30.51"/>
<polygon fill="midnightblue" stroke="midnightblue" points="291.93,-211.73 298.09,-220.35 298.65,-209.77 291.93,-211.73"/>
</g>
</g>
</svg>
