<?xml version="1.0" encoding="UTF-8" standalone="no"?>
<!DOCTYPE svg PUBLIC "-//W3C//DTD SVG 1.1//EN"
 "http://www.w3.org/Graphics/SVG/1.1/DTD/svg11.dtd">
<!-- Generated by graphviz version 2.43.0 (0)
 -->
<!-- Title: PodmanRuntimeAvailableCommand Pages: 1 -->
<svg width="228pt" height="193pt"
 viewBox="0.00 0.00 228.00 193.00" xmlns="http://www.w3.org/2000/svg" xmlns:xlink="http://www.w3.org/1999/xlink">
<g id="graph0" class="graph" transform="scale(1 1) rotate(0) translate(4 189)">
<title>PodmanRuntimeAvailableCommand</title>
<polygon fill="white" stroke="transparent" points="-4,4 -4,-189 224,-189 224,4 -4,4"/>
<!-- Node1 -->
<g id="node1" class="node">
<title>Node1</title>
<g id="a_node1"><a xlink:title="Command to check if Podman runtime is available.">
<polygon fill="#bfbfbf" stroke="black" points="0,-0.5 0,-79.5 220,-79.5 220,-0.5 0,-0.5"/>
<text text-anchor="middle" x="110" y="-67.5" font-family="Helvetica,sans-Serif" font-size="10.00">PodmanRuntimeAvailableCommand</text>
<polyline fill="none" stroke="black" points="0,-60.5 220,-60.5 "/>
<text text-anchor="middle" x="110" y="-48.5" font-family="Helvetica,sans-Serif" font-size="10.00"> </text>
<polyline fill="none" stroke="black" points="0,-41.5 220,-41.5 "/>
<text text-anchor="start" x="8" y="-29.5" font-family="Helvetica,sans-Serif" font-size="10.00">+ PodmanRuntimeAvailableCommand()</text>
<text text-anchor="start" x="8" y="-18.5" font-family="Helvetica,sans-Serif" font-size="10.00">+ ~PodmanRuntimeAvailableCommand()</text>
<text text-anchor="start" x="8" y="-7.5" font-family="Helvetica,sans-Serif" font-size="10.00">+ Execute()</text>
</a>
</g>
</g>
<!-- Node2 -->
<g id="node2" class="node">
<title>Node2</title>
<g id="a_node2"><a xlink:href="classCommand.html" target="_top" xlink:title="Abstract base class for all commands.">
<polygon fill="white" stroke="black" points="63,-116.5 63,-184.5 157,-184.5 157,-116.5 63,-116.5"/>
<text text-anchor="middle" x="110" y="-172.5" font-family="Helvetica,sans-Serif" font-size="10.00">Command</text>
<polyline fill="none" stroke="black" points="63,-165.5 157,-165.5 "/>
<text text-anchor="middle" x="110" y="-153.5" font-family="Helvetica,sans-Serif" font-size="10.00"> </text>
<polyline fill="none" stroke="black" points="63,-146.5 157,-146.5 "/>
<text text-anchor="start" x="71" y="-134.5" font-family="Helvetica,sans-Serif" font-size="10.00">+ Execute()</text>
<text text-anchor="start" x="71" y="-123.5" font-family="Helvetica,sans-Serif" font-size="10.00">+ ~Command()</text>
</a>
</g>
</g>
<!-- Node2&#45;&gt;Node1 -->
<g id="edge1" class="edge">
<title>Node2&#45;&gt;Node1</title>
<path fill="none" stroke="midnightblue" d="M110,-106.27C110,-97.48 110,-88.28 110,-79.65"/>
<polygon fill="none" stroke="midnightblue" points="106.5,-106.36 110,-116.36 113.5,-106.36 106.5,-106.36"/>
</g>
</g>
</svg>
