<?xml version="1.0" encoding="UTF-8" standalone="no"?>
<!DOCTYPE svg PUBLIC "-//W3C//DTD SVG 1.1//EN"
 "http://www.w3.org/Graphics/SVG/1.1/DTD/svg11.dtd">
<!-- Generated by graphviz version 2.43.0 (0)
 -->
<!-- Title: CurlHandler::PostUnix Pages: 1 -->
<svg width="361pt" height="333pt"
 viewBox="0.00 0.00 361.00 333.00" xmlns="http://www.w3.org/2000/svg" xmlns:xlink="http://www.w3.org/1999/xlink">
<g id="graph0" class="graph" transform="scale(1 1) rotate(0) translate(4 329)">
<title>CurlHandler::PostUnix</title>
<polygon fill="white" stroke="transparent" points="-4,4 -4,-329 357,-329 357,4 -4,4"/>
<!-- Node1 -->
<g id="node1" class="node">
<title>Node1</title>
<g id="a_node1"><a xlink:title="Perform a HTTP POST request over a Unix domain socket.">
<polygon fill="#bfbfbf" stroke="black" points="229,-153 229,-172 353,-172 353,-153 229,-153"/>
<text text-anchor="middle" x="291" y="-160" font-family="Helvetica,sans-Serif" font-size="10.00">CurlHandler::PostUnix</text>
</a>
</g>
</g>
<!-- Node2 -->
<g id="node2" class="node">
<title>Node2</title>
<g id="a_node2"><a xlink:href="classDockerApiCreateContainerCommand.html#ac45b2bf53a52657537c46de70cdd489b" target="_top" xlink:title="Executes the command to create a Docker container via the API.">
<polygon fill="white" stroke="black" points="23.5,-294.5 23.5,-324.5 169.5,-324.5 169.5,-294.5 23.5,-294.5"/>
<text text-anchor="start" x="31.5" y="-312.5" font-family="Helvetica,sans-Serif" font-size="10.00">DockerApiCreateContainer</text>
<text text-anchor="middle" x="96.5" y="-301.5" font-family="Helvetica,sans-Serif" font-size="10.00">Command::Execute</text>
</a>
</g>
</g>
<!-- Node1&#45;&gt;Node2 -->
<g id="edge1" class="edge">
<title>Node1&#45;&gt;Node2</title>
<path fill="none" stroke="midnightblue" d="M280.49,-181.19C265.63,-208.45 234.27,-258.78 193,-285.5 185.83,-290.15 177.81,-293.89 169.56,-296.91"/>
<polygon fill="midnightblue" stroke="midnightblue" points="283.62,-182.75 285.21,-172.27 277.44,-179.48 283.62,-182.75"/>
</g>
<!-- Node3 -->
<g id="node3" class="node">
<title>Node3</title>
<g id="a_node3"><a xlink:href="classPodmanApiCreateContainerCommand.html#a593df3aa310c4035ee99ed8ce303995c" target="_top" xlink:title="Executes the command to create a Podman container via the API.">
<polygon fill="white" stroke="black" points="20.5,-245.5 20.5,-275.5 172.5,-275.5 172.5,-245.5 20.5,-245.5"/>
<text text-anchor="start" x="28.5" y="-263.5" font-family="Helvetica,sans-Serif" font-size="10.00">PodmanApiCreateContainer</text>
<text text-anchor="middle" x="96.5" y="-252.5" font-family="Helvetica,sans-Serif" font-size="10.00">Command::Execute</text>
</a>
</g>
</g>
<!-- Node1&#45;&gt;Node3 -->
<g id="edge2" class="edge">
<title>Node1&#45;&gt;Node3</title>
<path fill="none" stroke="midnightblue" d="M272.63,-179.3C254.28,-196.15 223.78,-221.67 193,-236.5 185.92,-239.91 178.29,-242.87 170.56,-245.44"/>
<polygon fill="midnightblue" stroke="midnightblue" points="275.27,-181.63 280.17,-172.24 270.48,-176.52 275.27,-181.63"/>
</g>
<!-- Node4 -->
<g id="node4" class="node">
<title>Node4</title>
<g id="a_node4"><a xlink:href="classPodmanApiStartContainerCommand.html#ac6d8ad00378d60769a41bd7bceb87666" target="_top" xlink:title="Executes the command to start a Podman container via the API.">
<polygon fill="white" stroke="black" points="0,-196.5 0,-226.5 193,-226.5 193,-196.5 0,-196.5"/>
<text text-anchor="start" x="8" y="-214.5" font-family="Helvetica,sans-Serif" font-size="10.00">PodmanApiStartContainerCommand</text>
<text text-anchor="middle" x="96.5" y="-203.5" font-family="Helvetica,sans-Serif" font-size="10.00">::Execute</text>
</a>
</g>
</g>
<!-- Node1&#45;&gt;Node4 -->
<g id="edge3" class="edge">
<title>Node1&#45;&gt;Node4</title>
<path fill="none" stroke="midnightblue" d="M243.04,-174.66C227.16,-178.76 209.31,-183.35 193,-187.5 181.57,-190.41 169.36,-193.49 157.63,-196.45"/>
<polygon fill="midnightblue" stroke="midnightblue" points="244.36,-177.94 253.16,-172.05 242.61,-171.16 244.36,-177.94"/>
</g>
<!-- Node5 -->
<g id="node5" class="node">
<title>Node5</title>
<g id="a_node5"><a xlink:href="classDockerApiStartContainerCommand.html#a801f848aeb274329771b4945b81ebf92" target="_top" xlink:title="Executes the command to start a Docker container via the API.">
<polygon fill="white" stroke="black" points="3,-147.5 3,-177.5 190,-177.5 190,-147.5 3,-147.5"/>
<text text-anchor="start" x="11" y="-165.5" font-family="Helvetica,sans-Serif" font-size="10.00">DockerApiStartContainerCommand</text>
<text text-anchor="middle" x="96.5" y="-154.5" font-family="Helvetica,sans-Serif" font-size="10.00">::Execute</text>
</a>
</g>
</g>
<!-- Node1&#45;&gt;Node5 -->
<g id="edge4" class="edge">
<title>Node1&#45;&gt;Node5</title>
<path fill="none" stroke="midnightblue" d="M218.53,-162.5C209.27,-162.5 199.69,-162.5 190.15,-162.5"/>
<polygon fill="midnightblue" stroke="midnightblue" points="218.83,-166 228.83,-162.5 218.83,-159 218.83,-166"/>
</g>
<!-- Node6 -->
<g id="node6" class="node">
<title>Node6</title>
<g id="a_node6"><a xlink:href="classPodmanApiStopContainerCommand.html#a708264d45ab7ab07c44b47229f645693" target="_top" xlink:title="Executes the command to stop a Podman container via the API.">
<polygon fill="white" stroke="black" points="1,-98.5 1,-128.5 192,-128.5 192,-98.5 1,-98.5"/>
<text text-anchor="start" x="9" y="-116.5" font-family="Helvetica,sans-Serif" font-size="10.00">PodmanApiStopContainerCommand</text>
<text text-anchor="middle" x="96.5" y="-105.5" font-family="Helvetica,sans-Serif" font-size="10.00">::Execute</text>
</a>
</g>
</g>
<!-- Node1&#45;&gt;Node6 -->
<g id="edge5" class="edge">
<title>Node1&#45;&gt;Node6</title>
<path fill="none" stroke="midnightblue" d="M242.46,-150.4C216.5,-143.79 184.14,-135.55 156.57,-128.54"/>
<polygon fill="midnightblue" stroke="midnightblue" points="241.87,-153.86 252.43,-152.94 243.6,-147.08 241.87,-153.86"/>
</g>
<!-- Node7 -->
<g id="node7" class="node">
<title>Node7</title>
<g id="a_node7"><a xlink:href="classDockerApiStopContainerCommand.html#af3d839065c84ea86c419907624afd37c" target="_top" xlink:title="Executes the command to stop a Docker container via the API.">
<polygon fill="white" stroke="black" points="4,-49.5 4,-79.5 189,-79.5 189,-49.5 4,-49.5"/>
<text text-anchor="start" x="12" y="-67.5" font-family="Helvetica,sans-Serif" font-size="10.00">DockerApiStopContainerCommand</text>
<text text-anchor="middle" x="96.5" y="-56.5" font-family="Helvetica,sans-Serif" font-size="10.00">::Execute</text>
</a>
</g>
</g>
<!-- Node1&#45;&gt;Node7 -->
<g id="edge6" class="edge">
<title>Node1&#45;&gt;Node7</title>
<path fill="none" stroke="midnightblue" d="M272.56,-146C254.15,-129.43 223.6,-104.31 193,-89.5 185.05,-85.66 176.44,-82.35 167.75,-79.51"/>
<polygon fill="midnightblue" stroke="midnightblue" points="270.39,-148.76 280.12,-152.94 275.12,-143.6 270.39,-148.76"/>
</g>
<!-- Node8 -->
<g id="node8" class="node">
<title>Node8</title>
<g id="a_node8"><a xlink:href="classDockerApiRestartContainerCommand.html#a6b2b59422ef0abd5f6962ddd50397aad" target="_top" xlink:title="Executes the command to restart a Docker container via the API.">
<polygon fill="white" stroke="black" points="22,-0.5 22,-30.5 171,-30.5 171,-0.5 22,-0.5"/>
<text text-anchor="start" x="30" y="-18.5" font-family="Helvetica,sans-Serif" font-size="10.00">DockerApiRestartContainer</text>
<text text-anchor="middle" x="96.5" y="-7.5" font-family="Helvetica,sans-Serif" font-size="10.00">Command::Execute</text>
</a>
</g>
</g>
<!-- Node1&#45;&gt;Node8 -->
<g id="edge7" class="edge">
<title>Node1&#45;&gt;Node8</title>
<path fill="none" stroke="midnightblue" d="M280.42,-144.02C265.46,-117.04 233.99,-67.21 193,-40.5 186.25,-36.1 178.76,-32.48 171.03,-29.49"/>
<polygon fill="midnightblue" stroke="midnightblue" points="277.34,-145.69 285.17,-152.83 283.51,-142.37 277.34,-145.69"/>
</g>
</g>
</svg>
