<?xml version="1.0" encoding="UTF-8" standalone="no"?>
<!DOCTYPE svg PUBLIC "-//W3C//DTD SVG 1.1//EN"
 "http://www.w3.org/Graphics/SVG/1.1/DTD/svg11.dtd">
<!-- Generated by graphviz version 2.43.0 (0)
 -->
<!-- Title: IDatabaseHandler Pages: 1 -->
<svg width="500pt" height="303pt"
 viewBox="0.00 0.00 499.50 303.00" xmlns="http://www.w3.org/2000/svg" xmlns:xlink="http://www.w3.org/1999/xlink">
<g id="graph0" class="graph" transform="scale(1 1) rotate(0) translate(4 299)">
<title>IDatabaseHandler</title>
<polygon fill="white" stroke="transparent" points="-4,4 -4,-299 495.5,-299 495.5,4 -4,4"/>
<!-- Node1 -->
<g id="node1" class="node">
<title>Node1</title>
<g id="a_node1"><a xlink:title="Interface for database handlers supporting JSON storage and retrieval.">
<polygon fill="#bfbfbf" stroke="black" points="188.5,-182.5 188.5,-294.5 319.5,-294.5 319.5,-182.5 188.5,-182.5"/>
<text text-anchor="middle" x="254" y="-282.5" font-family="Helvetica,sans-Serif" font-size="10.00">IDatabaseHandler</text>
<polyline fill="none" stroke="black" points="188.5,-275.5 319.5,-275.5 "/>
<text text-anchor="middle" x="254" y="-263.5" font-family="Helvetica,sans-Serif" font-size="10.00"> </text>
<polyline fill="none" stroke="black" points="188.5,-256.5 319.5,-256.5 "/>
<text text-anchor="start" x="196.5" y="-244.5" font-family="Helvetica,sans-Serif" font-size="10.00">+ ~IDatabaseHandler()</text>
<text text-anchor="start" x="196.5" y="-233.5" font-family="Helvetica,sans-Serif" font-size="10.00">+ SaveJson()</text>
<text text-anchor="start" x="196.5" y="-222.5" font-family="Helvetica,sans-Serif" font-size="10.00">+ GetJson()</text>
<text text-anchor="start" x="196.5" y="-211.5" font-family="Helvetica,sans-Serif" font-size="10.00">+ ClearDatabase()</text>
<text text-anchor="start" x="196.5" y="-200.5" font-family="Helvetica,sans-Serif" font-size="10.00">+ UpdateField()</text>
<text text-anchor="start" x="196.5" y="-189.5" font-family="Helvetica,sans-Serif" font-size="10.00">+ RemoveKey()</text>
</a>
</g>
</g>
<!-- Node2 -->
<g id="node2" class="node">
<title>Node2</title>
<g id="a_node2"><a xlink:href="classEmbeddedDatabaseHandler.html" target="_top" xlink:title="Lightweight, fixed&#45;size in&#45;memory key&#45;value store for embedded systems.">
<polygon fill="white" stroke="black" points="0,-17 0,-129 172,-129 172,-17 0,-17"/>
<text text-anchor="middle" x="86" y="-117" font-family="Helvetica,sans-Serif" font-size="10.00">EmbeddedDatabaseHandler</text>
<polyline fill="none" stroke="black" points="0,-110 172,-110 "/>
<text text-anchor="middle" x="86" y="-98" font-family="Helvetica,sans-Serif" font-size="10.00"> </text>
<polyline fill="none" stroke="black" points="0,-91 172,-91 "/>
<text text-anchor="start" x="8" y="-79" font-family="Helvetica,sans-Serif" font-size="10.00">+ EmbeddedDatabaseHandler()</text>
<text text-anchor="start" x="8" y="-68" font-family="Helvetica,sans-Serif" font-size="10.00">+ SaveJson()</text>
<text text-anchor="start" x="8" y="-57" font-family="Helvetica,sans-Serif" font-size="10.00">+ GetJson()</text>
<text text-anchor="start" x="8" y="-46" font-family="Helvetica,sans-Serif" font-size="10.00">+ ClearDatabase()</text>
<text text-anchor="start" x="8" y="-35" font-family="Helvetica,sans-Serif" font-size="10.00">+ UpdateField()</text>
<text text-anchor="start" x="8" y="-24" font-family="Helvetica,sans-Serif" font-size="10.00">+ RemoveKey()</text>
</a>
</g>
</g>
<!-- Node1&#45;&gt;Node2 -->
<g id="edge1" class="edge">
<title>Node1&#45;&gt;Node2</title>
<path fill="none" stroke="midnightblue" d="M189.6,-174.82C174.09,-159.73 157.65,-143.73 142.53,-129.02"/>
<polygon fill="none" stroke="midnightblue" points="187.52,-177.68 197.12,-182.15 192.4,-172.66 187.52,-177.68"/>
</g>
<!-- Node3 -->
<g id="node3" class="node">
<title>Node3</title>
<g id="a_node3"><a xlink:href="classMockDatabaseHandler.html" target="_top" xlink:title=" ">
<polygon fill="white" stroke="black" points="190,-22.5 190,-123.5 318,-123.5 318,-22.5 190,-22.5"/>
<text text-anchor="middle" x="254" y="-111.5" font-family="Helvetica,sans-Serif" font-size="10.00">MockDatabaseHandler</text>
<polyline fill="none" stroke="black" points="190,-104.5 318,-104.5 "/>
<text text-anchor="middle" x="254" y="-92.5" font-family="Helvetica,sans-Serif" font-size="10.00"> </text>
<polyline fill="none" stroke="black" points="190,-85.5 318,-85.5 "/>
<text text-anchor="start" x="198" y="-73.5" font-family="Helvetica,sans-Serif" font-size="10.00">+ MOCK_METHOD()</text>
<text text-anchor="start" x="198" y="-62.5" font-family="Helvetica,sans-Serif" font-size="10.00">+ MOCK_METHOD()</text>
<text text-anchor="start" x="198" y="-51.5" font-family="Helvetica,sans-Serif" font-size="10.00">+ MOCK_METHOD()</text>
<text text-anchor="start" x="198" y="-40.5" font-family="Helvetica,sans-Serif" font-size="10.00">+ MOCK_METHOD()</text>
<text text-anchor="start" x="198" y="-29.5" font-family="Helvetica,sans-Serif" font-size="10.00">+ MOCK_METHOD()</text>
</a>
</g>
</g>
<!-- Node1&#45;&gt;Node3 -->
<g id="edge2" class="edge">
<title>Node1&#45;&gt;Node3</title>
<path fill="none" stroke="midnightblue" d="M254,-171.73C254,-155.65 254,-138.71 254,-123.53"/>
<polygon fill="none" stroke="midnightblue" points="250.5,-172.15 254,-182.15 257.5,-172.15 250.5,-172.15"/>
</g>
<!-- Node4 -->
<g id="node4" class="node">
<title>Node4</title>
<g id="a_node4"><a xlink:href="classRedisDatabaseHandler.html" target="_top" xlink:title="Class for interacting with a Redis database backend.">
<polygon fill="white" stroke="black" points="336.5,-0.5 336.5,-145.5 491.5,-145.5 491.5,-0.5 336.5,-0.5"/>
<text text-anchor="middle" x="414" y="-133.5" font-family="Helvetica,sans-Serif" font-size="10.00">RedisDatabaseHandler</text>
<polyline fill="none" stroke="black" points="336.5,-126.5 491.5,-126.5 "/>
<text text-anchor="middle" x="414" y="-114.5" font-family="Helvetica,sans-Serif" font-size="10.00"> </text>
<polyline fill="none" stroke="black" points="336.5,-107.5 491.5,-107.5 "/>
<text text-anchor="start" x="344.5" y="-95.5" font-family="Helvetica,sans-Serif" font-size="10.00">+ RedisDatabaseHandler()</text>
<text text-anchor="start" x="344.5" y="-84.5" font-family="Helvetica,sans-Serif" font-size="10.00">+ ~RedisDatabaseHandler()</text>
<text text-anchor="start" x="344.5" y="-73.5" font-family="Helvetica,sans-Serif" font-size="10.00">+ SaveJson()</text>
<text text-anchor="start" x="344.5" y="-62.5" font-family="Helvetica,sans-Serif" font-size="10.00">+ GetJson()</text>
<text text-anchor="start" x="344.5" y="-51.5" font-family="Helvetica,sans-Serif" font-size="10.00">+ ClearDatabase()</text>
<text text-anchor="start" x="344.5" y="-40.5" font-family="Helvetica,sans-Serif" font-size="10.00">+ UpdateField()</text>
<text text-anchor="start" x="344.5" y="-29.5" font-family="Helvetica,sans-Serif" font-size="10.00">+ RemoveKey()</text>
<text text-anchor="start" x="344.5" y="-18.5" font-family="Helvetica,sans-Serif" font-size="10.00">+ RedisDatabaseHandler()</text>
<text text-anchor="start" x="344.5" y="-7.5" font-family="Helvetica,sans-Serif" font-size="10.00">+ operator=()</text>
</a>
</g>
</g>
<!-- Node1&#45;&gt;Node4 -->
<g id="edge3" class="edge">
<title>Node1&#45;&gt;Node4</title>
<path fill="none" stroke="midnightblue" d="M315.27,-174.89C324.67,-165.28 334.43,-155.31 344,-145.53"/>
<polygon fill="none" stroke="midnightblue" points="312.66,-172.55 308.17,-182.15 317.66,-177.45 312.66,-172.55"/>
</g>
</g>
</svg>
