<?xml version="1.0" encoding="UTF-8" standalone="no"?>
<!DOCTYPE svg PUBLIC "-//W3C//DTD SVG 1.1//EN"
 "http://www.w3.org/Graphics/SVG/1.1/DTD/svg11.dtd">
<!-- Generated by graphviz version 2.43.0 (0)
 -->
<!-- Title: ISecurityProvider Pages: 1 -->
<svg width="525pt" height="193pt"
 viewBox="0.00 0.00 524.50 193.00" xmlns="http://www.w3.org/2000/svg" xmlns:xlink="http://www.w3.org/1999/xlink">
<g id="graph0" class="graph" transform="scale(1 1) rotate(0) translate(4 189)">
<title>ISecurityProvider</title>
<polygon fill="white" stroke="transparent" points="-4,4 -4,-189 520.5,-189 520.5,4 -4,4"/>
<!-- Node1 -->
<g id="node1" class="node">
<title>Node1</title>
<g id="a_node1"><a xlink:title="Abstract interface for security providers (encryption/decryption).">
<polygon fill="#bfbfbf" stroke="black" points="205.5,-116.5 205.5,-184.5 332.5,-184.5 332.5,-116.5 205.5,-116.5"/>
<text text-anchor="middle" x="269" y="-172.5" font-family="Helvetica,sans-Serif" font-size="10.00">ISecurityProvider</text>
<polyline fill="none" stroke="black" points="205.5,-165.5 332.5,-165.5 "/>
<text text-anchor="middle" x="269" y="-153.5" font-family="Helvetica,sans-Serif" font-size="10.00"> </text>
<polyline fill="none" stroke="black" points="205.5,-146.5 332.5,-146.5 "/>
<text text-anchor="start" x="213.5" y="-134.5" font-family="Helvetica,sans-Serif" font-size="10.00">+ ~ISecurityProvider()</text>
<text text-anchor="start" x="213.5" y="-123.5" font-family="Helvetica,sans-Serif" font-size="10.00">+ Decrypt()</text>
</a>
</g>
</g>
<!-- Node2 -->
<g id="node2" class="node">
<title>Node2</title>
<g id="a_node2"><a xlink:href="classAesGcmSecurityProvider.html" target="_top" xlink:title="AES&#45;256&#45;GCM implementation for secure OTA payloads.">
<polygon fill="white" stroke="black" points="0,-0.5 0,-79.5 164,-79.5 164,-0.5 0,-0.5"/>
<text text-anchor="middle" x="82" y="-67.5" font-family="Helvetica,sans-Serif" font-size="10.00">AesGcmSecurityProvider</text>
<polyline fill="none" stroke="black" points="0,-60.5 164,-60.5 "/>
<text text-anchor="middle" x="82" y="-48.5" font-family="Helvetica,sans-Serif" font-size="10.00"> </text>
<polyline fill="none" stroke="black" points="0,-41.5 164,-41.5 "/>
<text text-anchor="start" x="8" y="-29.5" font-family="Helvetica,sans-Serif" font-size="10.00">+ AesGcmSecurityProvider()</text>
<text text-anchor="start" x="8" y="-18.5" font-family="Helvetica,sans-Serif" font-size="10.00">+ ~AesGcmSecurityProvider()</text>
<text text-anchor="start" x="8" y="-7.5" font-family="Helvetica,sans-Serif" font-size="10.00">+ Decrypt()</text>
</a>
</g>
</g>
<!-- Node1&#45;&gt;Node2 -->
<g id="edge1" class="edge">
<title>Node1&#45;&gt;Node2</title>
<path fill="none" stroke="midnightblue" d="M202.82,-111.1C185.23,-100.9 166.23,-89.87 148.61,-79.65"/>
<polygon fill="none" stroke="midnightblue" points="201.47,-114.37 211.88,-116.36 204.98,-108.31 201.47,-114.37"/>
</g>
<!-- Node3 -->
<g id="node3" class="node">
<title>Node3</title>
<g id="a_node3"><a xlink:href="classChaCha20SecurityProvider.html" target="_top" xlink:title="ChaCha20&#45;Poly1305 implementation for secure OTA payloads.">
<polygon fill="white" stroke="black" points="182.5,-0.5 182.5,-79.5 355.5,-79.5 355.5,-0.5 182.5,-0.5"/>
<text text-anchor="middle" x="269" y="-67.5" font-family="Helvetica,sans-Serif" font-size="10.00">ChaCha20SecurityProvider</text>
<polyline fill="none" stroke="black" points="182.5,-60.5 355.5,-60.5 "/>
<text text-anchor="middle" x="269" y="-48.5" font-family="Helvetica,sans-Serif" font-size="10.00"> </text>
<polyline fill="none" stroke="black" points="182.5,-41.5 355.5,-41.5 "/>
<text text-anchor="start" x="190.5" y="-29.5" font-family="Helvetica,sans-Serif" font-size="10.00">+ ChaCha20SecurityProvider()</text>
<text text-anchor="start" x="190.5" y="-18.5" font-family="Helvetica,sans-Serif" font-size="10.00">+ ~ChaCha20SecurityProvider()</text>
<text text-anchor="start" x="190.5" y="-7.5" font-family="Helvetica,sans-Serif" font-size="10.00">+ Decrypt()</text>
</a>
</g>
</g>
<!-- Node1&#45;&gt;Node3 -->
<g id="edge2" class="edge">
<title>Node1&#45;&gt;Node3</title>
<path fill="none" stroke="midnightblue" d="M269,-106.27C269,-97.48 269,-88.28 269,-79.65"/>
<polygon fill="none" stroke="midnightblue" points="265.5,-106.36 269,-116.36 272.5,-106.36 265.5,-106.36"/>
</g>
<!-- Node4 -->
<g id="node4" class="node">
<title>Node4</title>
<g id="a_node4"><a xlink:href="classNullSecurityProvider.html" target="_top" xlink:title="Null object pattern implementation &#45; no encryption/decryption.">
<polygon fill="white" stroke="black" points="373.5,-0.5 373.5,-79.5 516.5,-79.5 516.5,-0.5 373.5,-0.5"/>
<text text-anchor="middle" x="445" y="-67.5" font-family="Helvetica,sans-Serif" font-size="10.00">NullSecurityProvider</text>
<polyline fill="none" stroke="black" points="373.5,-60.5 516.5,-60.5 "/>
<text text-anchor="middle" x="445" y="-48.5" font-family="Helvetica,sans-Serif" font-size="10.00"> </text>
<polyline fill="none" stroke="black" points="373.5,-41.5 516.5,-41.5 "/>
<text text-anchor="start" x="381.5" y="-29.5" font-family="Helvetica,sans-Serif" font-size="10.00">+ NullSecurityProvider()</text>
<text text-anchor="start" x="381.5" y="-18.5" font-family="Helvetica,sans-Serif" font-size="10.00">+ ~NullSecurityProvider()</text>
<text text-anchor="start" x="381.5" y="-7.5" font-family="Helvetica,sans-Serif" font-size="10.00">+ Decrypt()</text>
</a>
</g>
</g>
<!-- Node1&#45;&gt;Node4 -->
<g id="edge3" class="edge">
<title>Node1&#45;&gt;Node4</title>
<path fill="none" stroke="midnightblue" d="M331.28,-111.1C347.84,-100.9 365.73,-89.87 382.31,-79.65"/>
<polygon fill="none" stroke="midnightblue" points="329.44,-108.13 322.76,-116.36 333.11,-114.09 329.44,-108.13"/>
</g>
</g>
</svg>
