<?xml version="1.0" encoding="UTF-8" standalone="no"?>
<!DOCTYPE svg PUBLIC "-//W3C//DTD SVG 1.1//EN"
 "http://www.w3.org/Graphics/SVG/1.1/DTD/svg11.dtd">
<!-- Generated by graphviz version 2.43.0 (0)
 -->
<!-- Title: ProtoRequestExecutorHandler::Execute Pages: 1 -->
<svg width="946pt" height="313pt"
 viewBox="0.00 0.00 946.00 312.50" xmlns="http://www.w3.org/2000/svg" xmlns:xlink="http://www.w3.org/1999/xlink">
<g id="graph0" class="graph" transform="scale(1 1) rotate(0) translate(4 308.5)">
<title>ProtoRequestExecutorHandler::Execute</title>
<polygon fill="white" stroke="transparent" points="-4,4 -4,-308.5 942,-308.5 942,4 -4,4"/>
<!-- Node1 -->
<g id="node1" class="node">
<title>Node1</title>
<g id="a_node1"><a xlink:title="Receives a serialized protobuf string, deserializes, saves to DB, and returns result as JSON.">
<polygon fill="#bfbfbf" stroke="black" points="0,-137 0,-167 163,-167 163,-137 0,-137"/>
<text text-anchor="start" x="8" y="-155" font-family="Helvetica,sans-Serif" font-size="10.00">ProtoRequestExecutorHandler</text>
<text text-anchor="middle" x="81.5" y="-144" font-family="Helvetica,sans-Serif" font-size="10.00">::Execute</text>
</a>
</g>
</g>
<!-- Node2 -->
<g id="node2" class="node">
<title>Node2</title>
<g id="a_node2"><a xlink:href="classcontainermanager_1_1ContainerParameters.html#a1fa02ce02859ee70a41e1b4fe203e412" target="_top" xlink:title=" ">
<polygon fill="white" stroke="black" points="199,-274 199,-304 358,-304 358,-274 199,-274"/>
<text text-anchor="start" x="207" y="-292" font-family="Helvetica,sans-Serif" font-size="10.00">containermanager::Container</text>
<text text-anchor="middle" x="278.5" y="-281" font-family="Helvetica,sans-Serif" font-size="10.00">Parameters::container_name</text>
</a>
</g>
</g>
<!-- Node1&#45;&gt;Node2 -->
<g id="edge1" class="edge">
<title>Node1&#45;&gt;Node2</title>
<path fill="none" stroke="midnightblue" d="M95.42,-167.06C115.54,-189.72 156.49,-232.71 199,-259 205.54,-263.05 212.72,-266.7 220,-269.95"/>
<polygon fill="midnightblue" stroke="midnightblue" points="218.65,-273.18 229.22,-273.85 221.37,-266.73 218.65,-273.18"/>
</g>
<!-- Node3 -->
<g id="node3" class="node">
<title>Node3</title>
<g id="a_node3"><a xlink:href="classRedisDatabaseHandler.html#a07c65b208d5997ec20ed239dca4081ce" target="_top" xlink:title="Retrieves the singleton instance of the RedisDatabaseHandler.">
<polygon fill="white" stroke="black" points="414.5,-235 414.5,-265 542.5,-265 542.5,-235 414.5,-235"/>
<text text-anchor="start" x="422.5" y="-253" font-family="Helvetica,sans-Serif" font-size="10.00">RedisDatabaseHandler</text>
<text text-anchor="middle" x="478.5" y="-242" font-family="Helvetica,sans-Serif" font-size="10.00">::GetInstance</text>
</a>
</g>
</g>
<!-- Node1&#45;&gt;Node3 -->
<g id="edge2" class="edge">
<title>Node1&#45;&gt;Node3</title>
<path fill="none" stroke="midnightblue" d="M100.04,-167.03C121.7,-184.6 160.41,-212.96 199,-226 266.01,-248.65 346.99,-253.29 404.31,-253.08"/>
<polygon fill="midnightblue" stroke="midnightblue" points="404.4,-256.58 414.37,-253 404.34,-249.58 404.4,-256.58"/>
</g>
<!-- Node4 -->
<g id="node4" class="node">
<title>Node4</title>
<g id="a_node4"><a xlink:href="classContainerServiceHandler.html#a16f0650a9d5719fc441541a2adc5f29a" target="_top" xlink:title="Handles a container request by dispatching to the appropriate operation.">
<polygon fill="white" stroke="black" points="209.5,-186 209.5,-216 347.5,-216 347.5,-186 209.5,-186"/>
<text text-anchor="start" x="217.5" y="-204" font-family="Helvetica,sans-Serif" font-size="10.00">ContainerServiceHandler</text>
<text text-anchor="middle" x="278.5" y="-193" font-family="Helvetica,sans-Serif" font-size="10.00">::HandleRequest</text>
</a>
</g>
</g>
<!-- Node1&#45;&gt;Node4 -->
<g id="edge3" class="edge">
<title>Node1&#45;&gt;Node4</title>
<path fill="none" stroke="midnightblue" d="M142.33,-167.03C163.11,-172.26 186.58,-178.15 208.07,-183.55"/>
<polygon fill="midnightblue" stroke="midnightblue" points="207.23,-186.95 217.78,-185.99 208.94,-180.16 207.23,-186.95"/>
</g>
<!-- Node12 -->
<g id="node12" class="node">
<title>Node12</title>
<g id="a_node12"><a xlink:href="classcontainermanager_1_1ContainerRequest.html#a28ace998fd1164adc2da2f87d4f45ab0" target="_top" xlink:title=" ">
<polygon fill="white" stroke="black" points="199,-137 199,-167 358,-167 358,-137 199,-137"/>
<text text-anchor="start" x="207" y="-155" font-family="Helvetica,sans-Serif" font-size="10.00">containermanager::Container</text>
<text text-anchor="middle" x="278.5" y="-144" font-family="Helvetica,sans-Serif" font-size="10.00">Request::operation</text>
</a>
</g>
</g>
<!-- Node1&#45;&gt;Node12 -->
<g id="edge12" class="edge">
<title>Node1&#45;&gt;Node12</title>
<path fill="none" stroke="midnightblue" d="M163.22,-152C171.56,-152 180.08,-152 188.5,-152"/>
<polygon fill="midnightblue" stroke="midnightblue" points="188.72,-155.5 198.72,-152 188.72,-148.5 188.72,-155.5"/>
</g>
<!-- Node13 -->
<g id="node13" class="node">
<title>Node13</title>
<g id="a_node13"><a xlink:href="classcontainermanager_1_1ContainerRequest.html#aa9ca92cdaef7d9ae3358c34fa8a024dd" target="_top" xlink:title=" ">
<polygon fill="white" stroke="black" points="199,-88 199,-118 358,-118 358,-88 199,-88"/>
<text text-anchor="start" x="207" y="-106" font-family="Helvetica,sans-Serif" font-size="10.00">containermanager::Container</text>
<text text-anchor="middle" x="278.5" y="-95" font-family="Helvetica,sans-Serif" font-size="10.00">Request::parameters</text>
</a>
</g>
</g>
<!-- Node1&#45;&gt;Node13 -->
<g id="edge13" class="edge">
<title>Node1&#45;&gt;Node13</title>
<path fill="none" stroke="midnightblue" d="M142.33,-136.97C163.11,-131.74 186.58,-125.85 208.07,-120.45"/>
<polygon fill="midnightblue" stroke="midnightblue" points="208.94,-123.84 217.78,-118.01 207.23,-117.05 208.94,-123.84"/>
</g>
<!-- Node14 -->
<g id="node14" class="node">
<title>Node14</title>
<g id="a_node14"><a xlink:href="classcontainermanager_1_1ContainerRequest.html#a83c720592fa42a002f8a88c190cecfa5" target="_top" xlink:title=" ">
<polygon fill="white" stroke="black" points="199,-39 199,-69 358,-69 358,-39 199,-39"/>
<text text-anchor="start" x="207" y="-57" font-family="Helvetica,sans-Serif" font-size="10.00">containermanager::Container</text>
<text text-anchor="middle" x="278.5" y="-46" font-family="Helvetica,sans-Serif" font-size="10.00">Request::runtime</text>
</a>
</g>
</g>
<!-- Node1&#45;&gt;Node14 -->
<g id="edge14" class="edge">
<title>Node1&#45;&gt;Node14</title>
<path fill="none" stroke="midnightblue" d="M102.58,-136.86C125.07,-120.49 163.08,-94.53 199,-78 203.12,-76.11 207.42,-74.31 211.8,-72.62"/>
<polygon fill="midnightblue" stroke="midnightblue" points="213.29,-75.81 221.48,-69.09 210.89,-69.23 213.29,-75.81"/>
</g>
<!-- Node15 -->
<g id="node15" class="node">
<title>Node15</title>
<g id="a_node15"><a xlink:href="classIDatabaseHandler.html#ae77b65ff51207a07704ae8efebac2125" target="_top" xlink:title="Saves a JSON object to the database with the specified key.">
<polygon fill="white" stroke="black" points="201,-0.5 201,-19.5 356,-19.5 356,-0.5 201,-0.5"/>
<text text-anchor="middle" x="278.5" y="-7.5" font-family="Helvetica,sans-Serif" font-size="10.00">IDatabaseHandler::SaveJson</text>
</a>
</g>
</g>
<!-- Node1&#45;&gt;Node15 -->
<g id="edge15" class="edge">
<title>Node1&#45;&gt;Node15</title>
<path fill="none" stroke="midnightblue" d="M92.38,-136.86C110.32,-110.63 150.9,-56.86 199,-29 202.86,-26.77 206.97,-24.79 211.21,-23.05"/>
<polygon fill="midnightblue" stroke="midnightblue" points="212.47,-26.32 220.66,-19.6 210.06,-19.74 212.47,-26.32"/>
</g>
<!-- Node4&#45;&gt;Node3 -->
<g id="edge9" class="edge">
<title>Node4&#45;&gt;Node3</title>
<path fill="none" stroke="midnightblue" d="M340.25,-216.03C361.35,-221.26 385.18,-227.15 407,-232.55"/>
<polygon fill="midnightblue" stroke="midnightblue" points="406.31,-235.99 416.86,-234.99 408,-229.19 406.31,-235.99"/>
</g>
<!-- Node5 -->
<g id="node5" class="node">
<title>Node5</title>
<g id="a_node5"><a xlink:href="classContainerServiceHandler.html#ae4a38bbbb711ab34dbd3fc50ea0814f7" target="_top" xlink:title="Performs the specified container operation using the request structure.">
<polygon fill="white" stroke="black" points="409.5,-186 409.5,-216 547.5,-216 547.5,-186 409.5,-186"/>
<text text-anchor="start" x="417.5" y="-204" font-family="Helvetica,sans-Serif" font-size="10.00">ContainerServiceHandler</text>
<text text-anchor="middle" x="478.5" y="-193" font-family="Helvetica,sans-Serif" font-size="10.00">::ContainerOperations</text>
</a>
</g>
</g>
<!-- Node4&#45;&gt;Node5 -->
<g id="edge4" class="edge">
<title>Node4&#45;&gt;Node5</title>
<path fill="none" stroke="midnightblue" d="M347.64,-201C364.13,-201 381.89,-201 398.82,-201"/>
<polygon fill="midnightblue" stroke="midnightblue" points="399.23,-204.5 409.23,-201 399.23,-197.5 399.23,-204.5"/>
</g>
<!-- Node10 -->
<g id="node10" class="node">
<title>Node10</title>
<g id="a_node10"><a xlink:href="classIDatabaseHandler.html#a32aef1bd17b79529d93fadc2d72441e5" target="_top" xlink:title="Removes the JSON object associated with the specified key from the database.">
<polygon fill="white" stroke="black" points="394,-147.5 394,-166.5 563,-166.5 563,-147.5 394,-147.5"/>
<text text-anchor="middle" x="478.5" y="-154.5" font-family="Helvetica,sans-Serif" font-size="10.00">IDatabaseHandler::RemoveKey</text>
</a>
</g>
</g>
<!-- Node4&#45;&gt;Node10 -->
<g id="edge10" class="edge">
<title>Node4&#45;&gt;Node10</title>
<path fill="none" stroke="midnightblue" d="M347.09,-185.98C372.48,-180.34 400.94,-174.01 424.78,-168.72"/>
<polygon fill="midnightblue" stroke="midnightblue" points="425.69,-172.1 434.69,-166.51 424.17,-165.27 425.69,-172.1"/>
</g>
<!-- Node11 -->
<g id="node11" class="node">
<title>Node11</title>
<g id="a_node11"><a xlink:href="classIDatabaseHandler.html#a10972030d1577974e9f86820e251c7d6" target="_top" xlink:title="Updates a specific field in the JSON object stored under the given key.">
<polygon fill="white" stroke="black" points="405.5,-98 405.5,-128 551.5,-128 551.5,-98 405.5,-98"/>
<text text-anchor="start" x="413.5" y="-116" font-family="Helvetica,sans-Serif" font-size="10.00">IDatabaseHandler::Update</text>
<text text-anchor="middle" x="478.5" y="-105" font-family="Helvetica,sans-Serif" font-size="10.00">Field</text>
</a>
</g>
</g>
<!-- Node4&#45;&gt;Node11 -->
<g id="edge11" class="edge">
<title>Node4&#45;&gt;Node11</title>
<path fill="none" stroke="midnightblue" d="M338.42,-185.87C345.26,-183.07 351.94,-179.8 358,-176 377.71,-163.64 374.19,-150.19 394,-138 397.38,-135.92 400.95,-134 404.63,-132.23"/>
<polygon fill="midnightblue" stroke="midnightblue" points="406.2,-135.37 413.96,-128.15 403.39,-128.96 406.2,-135.37"/>
</g>
<!-- Node6 -->
<g id="node6" class="node">
<title>Node6</title>
<g id="a_node6"><a xlink:href="classCommandFactory.html#adf4da2f0dbcf9e4018f9afe8bd4a38e9" target="_top" xlink:title="Factory method to create a command based on the container request structure.">
<polygon fill="white" stroke="black" points="599,-229.5 599,-248.5 790,-248.5 790,-229.5 599,-229.5"/>
<text text-anchor="middle" x="694.5" y="-236.5" font-family="Helvetica,sans-Serif" font-size="10.00">CommandFactory::CreateCommand</text>
</a>
</g>
</g>
<!-- Node5&#45;&gt;Node6 -->
<g id="edge5" class="edge">
<title>Node5&#45;&gt;Node6</title>
<path fill="none" stroke="midnightblue" d="M547.5,-213.08C573.87,-217.76 603.89,-223.09 629.83,-227.69"/>
<polygon fill="midnightblue" stroke="midnightblue" points="629.46,-231.18 639.92,-229.49 630.69,-224.29 629.46,-231.18"/>
</g>
<!-- Node7 -->
<g id="node7" class="node">
<title>Node7</title>
<g id="a_node7"><a xlink:href="classInvoker.html#a1459c66263ad54b3568e6b3d33d9256f" target="_top" xlink:title="Execute the command.">
<polygon fill="white" stroke="black" points="649,-191.5 649,-210.5 740,-210.5 740,-191.5 649,-191.5"/>
<text text-anchor="middle" x="694.5" y="-198.5" font-family="Helvetica,sans-Serif" font-size="10.00">Invoker::Invoke</text>
</a>
</g>
</g>
<!-- Node5&#45;&gt;Node7 -->
<g id="edge6" class="edge">
<title>Node5&#45;&gt;Node7</title>
<path fill="none" stroke="midnightblue" d="M547.5,-201C576.91,-201 610.88,-201 638.64,-201"/>
<polygon fill="midnightblue" stroke="midnightblue" points="638.96,-204.5 648.96,-201 638.96,-197.5 638.96,-204.5"/>
</g>
<!-- Node9 -->
<g id="node9" class="node">
<title>Node9</title>
<g id="a_node9"><a xlink:href="classInvoker.html#ae9f10a2487afd153bf0da69ae410a0e9" target="_top" xlink:title="Set the command to be executed.">
<polygon fill="white" stroke="black" points="632,-153.5 632,-172.5 757,-172.5 757,-153.5 632,-153.5"/>
<text text-anchor="middle" x="694.5" y="-160.5" font-family="Helvetica,sans-Serif" font-size="10.00">Invoker::SetCommand</text>
</a>
</g>
</g>
<!-- Node5&#45;&gt;Node9 -->
<g id="edge8" class="edge">
<title>Node5&#45;&gt;Node9</title>
<path fill="none" stroke="midnightblue" d="M547.5,-188.92C573.87,-184.24 603.89,-178.91 629.83,-174.31"/>
<polygon fill="midnightblue" stroke="midnightblue" points="630.69,-177.71 639.92,-172.51 629.46,-170.82 630.69,-177.71"/>
</g>
<!-- Node8 -->
<g id="node8" class="node">
<title>Node8</title>
<g id="a_node8"><a xlink:href="classCommand.html#ab04996232fade41af481e1a94c15f5e5" target="_top" xlink:title="Execute the command.">
<polygon fill="white" stroke="black" points="826,-191.5 826,-210.5 938,-210.5 938,-191.5 826,-191.5"/>
<text text-anchor="middle" x="882" y="-198.5" font-family="Helvetica,sans-Serif" font-size="10.00">Command::Execute</text>
</a>
</g>
</g>
<!-- Node7&#45;&gt;Node8 -->
<g id="edge7" class="edge">
<title>Node7&#45;&gt;Node8</title>
<path fill="none" stroke="midnightblue" d="M740.4,-201C763.02,-201 790.87,-201 815.79,-201"/>
<polygon fill="midnightblue" stroke="midnightblue" points="815.91,-204.5 825.91,-201 815.91,-197.5 815.91,-204.5"/>
</g>
</g>
</svg>
