<?xml version="1.0" encoding="UTF-8" standalone="no"?>
<!DOCTYPE svg PUBLIC "-//W3C//DTD SVG 1.1//EN"
 "http://www.w3.org/Graphics/SVG/1.1/DTD/svg11.dtd">
<!-- Generated by graphviz version 2.43.0 (0)
 -->
<!-- Title: containermanager::ContainerParameters::pids Pages: 1 -->
<svg width="408pt" height="357pt"
 viewBox="0.00 0.00 408.00 357.00" xmlns="http://www.w3.org/2000/svg" xmlns:xlink="http://www.w3.org/1999/xlink">
<g id="graph0" class="graph" transform="scale(1 1) rotate(0) translate(4 353)">
<title>containermanager::ContainerParameters::pids</title>
<polygon fill="white" stroke="transparent" points="-4,4 -4,-353 404,-353 404,4 -4,4"/>
<!-- Node1 -->
<g id="node1" class="node">
<title>Node1</title>
<g id="a_node1"><a xlink:title=" ">
<polygon fill="#bfbfbf" stroke="black" points="241,-159.5 241,-189.5 400,-189.5 400,-159.5 241,-159.5"/>
<text text-anchor="start" x="249" y="-177.5" font-family="Helvetica,sans-Serif" font-size="10.00">containermanager::Container</text>
<text text-anchor="middle" x="320.5" y="-166.5" font-family="Helvetica,sans-Serif" font-size="10.00">Parameters::pids</text>
</a>
</g>
</g>
<!-- Node2 -->
<g id="node2" class="node">
<title>Node2</title>
<g id="a_node2"><a xlink:href="classcontainermanager_1_1ContainerParameters.html#a6596180db4da81bbaf81f434e379f0ab" target="_top" xlink:title=" ">
<polygon fill="white" stroke="black" points="23,-318.5 23,-348.5 182,-348.5 182,-318.5 23,-318.5"/>
<text text-anchor="start" x="31" y="-336.5" font-family="Helvetica,sans-Serif" font-size="10.00">containermanager::Container</text>
<text text-anchor="middle" x="102.5" y="-325.5" font-family="Helvetica,sans-Serif" font-size="10.00">Parameters::ByteSizeLong</text>
</a>
</g>
</g>
<!-- Node1&#45;&gt;Node2 -->
<g id="edge1" class="edge">
<title>Node1&#45;&gt;Node2</title>
<path fill="none" stroke="midnightblue" d="M305.82,-198.58C287.1,-229.23 250.59,-281.56 205,-309.5 197.9,-313.85 190.07,-317.42 182.01,-320.33"/>
<polygon fill="midnightblue" stroke="midnightblue" points="308.93,-200.19 311.04,-189.81 302.92,-196.61 308.93,-200.19"/>
</g>
<!-- Node3 -->
<g id="node3" class="node">
<title>Node3</title>
<g id="a_node3"><a xlink:href="classcontainermanager_1_1ContainerParameters.html#a2fee4e0c315fa483968409ecdd02545c" target="_top" xlink:title=" ">
<polygon fill="white" stroke="black" points="11.5,-269.5 11.5,-299.5 193.5,-299.5 193.5,-269.5 11.5,-269.5"/>
<text text-anchor="start" x="19.5" y="-287.5" font-family="Helvetica,sans-Serif" font-size="10.00">containermanager::Container</text>
<text text-anchor="middle" x="102.5" y="-276.5" font-family="Helvetica,sans-Serif" font-size="10.00">Parameters::ContainerParameters</text>
</a>
</g>
</g>
<!-- Node1&#45;&gt;Node3 -->
<g id="edge2" class="edge">
<title>Node1&#45;&gt;Node3</title>
<path fill="none" stroke="midnightblue" d="M295.91,-196.46C273.96,-215.77 239.51,-243.25 205,-259.5 196.79,-263.37 187.92,-266.67 178.95,-269.5"/>
<polygon fill="midnightblue" stroke="midnightblue" points="298.29,-199.03 303.42,-189.76 293.63,-193.81 298.29,-199.03"/>
</g>
<!-- Node4 -->
<g id="node4" class="node">
<title>Node4</title>
<g id="a_node4"><a xlink:href="classcontainermanager_1_1ContainerParameters.html#a36de13559f731376aa286280030077ba" target="_top" xlink:title=" ">
<polygon fill="white" stroke="black" points="12,-209 12,-250 193,-250 193,-209 12,-209"/>
<text text-anchor="start" x="20" y="-238" font-family="Helvetica,sans-Serif" font-size="10.00">containermanager::Container</text>
<text text-anchor="start" x="20" y="-227" font-family="Helvetica,sans-Serif" font-size="10.00">Parameters::InternalSerializeWith</text>
<text text-anchor="middle" x="102.5" y="-216" font-family="Helvetica,sans-Serif" font-size="10.00">CachedSizesToArray</text>
</a>
</g>
</g>
<!-- Node1&#45;&gt;Node4 -->
<g id="edge3" class="edge">
<title>Node1&#45;&gt;Node4</title>
<path fill="none" stroke="midnightblue" d="M250.64,-192.03C229.54,-197.41 206.14,-203.37 184.31,-208.92"/>
<polygon fill="midnightblue" stroke="midnightblue" points="251.65,-195.39 260.48,-189.53 249.92,-188.6 251.65,-195.39"/>
</g>
<!-- Node5 -->
<g id="node5" class="node">
<title>Node5</title>
<g id="a_node5"><a xlink:href="classcontainermanager_1_1ContainerParameters.html#ad9cd6a95640deb798e3da50545edab5a" target="_top" xlink:title=" ">
<polygon fill="white" stroke="black" points="23,-159.5 23,-189.5 182,-189.5 182,-159.5 23,-159.5"/>
<text text-anchor="start" x="31" y="-177.5" font-family="Helvetica,sans-Serif" font-size="10.00">containermanager::Container</text>
<text text-anchor="middle" x="102.5" y="-166.5" font-family="Helvetica,sans-Serif" font-size="10.00">Parameters::MergeFrom</text>
</a>
</g>
</g>
<!-- Node1&#45;&gt;Node5 -->
<g id="edge4" class="edge">
<title>Node1&#45;&gt;Node5</title>
<path fill="none" stroke="midnightblue" d="M230.45,-174.5C214.4,-174.5 197.76,-174.5 182.03,-174.5"/>
<polygon fill="midnightblue" stroke="midnightblue" points="230.91,-178 240.91,-174.5 230.91,-171 230.91,-178"/>
</g>
<!-- Node6 -->
<g id="node6" class="node">
<title>Node6</title>
<g id="a_node6"><a xlink:href="classcontainermanager_1_1ContainerParameters.html#aa8cd2fad13af260eb2e0ea4d58eeee57" target="_top" xlink:title=" ">
<polygon fill="white" stroke="black" points="4,-99 4,-140 201,-140 201,-99 4,-99"/>
<text text-anchor="start" x="12" y="-128" font-family="Helvetica,sans-Serif" font-size="10.00">containermanager::Container</text>
<text text-anchor="start" x="12" y="-117" font-family="Helvetica,sans-Serif" font-size="10.00">Parameters::MergePartialFromCoded</text>
<text text-anchor="middle" x="102.5" y="-106" font-family="Helvetica,sans-Serif" font-size="10.00">Stream</text>
</a>
</g>
</g>
<!-- Node1&#45;&gt;Node6 -->
<g id="edge5" class="edge">
<title>Node1&#45;&gt;Node6</title>
<path fill="none" stroke="midnightblue" d="M250.64,-156.97C229.54,-151.59 206.14,-145.63 184.31,-140.08"/>
<polygon fill="midnightblue" stroke="midnightblue" points="249.92,-160.4 260.48,-159.47 251.65,-153.61 249.92,-160.4"/>
</g>
<!-- Node7 -->
<g id="node7" class="node">
<title>Node7</title>
<g id="a_node7"><a xlink:href="classcontainermanager_1_1ContainerParameters.html#a3861adae59d508844a3e8bdf892ba7e3" target="_top" xlink:title=" ">
<polygon fill="white" stroke="black" points="0,-49.5 0,-79.5 205,-79.5 205,-49.5 0,-49.5"/>
<text text-anchor="start" x="8" y="-67.5" font-family="Helvetica,sans-Serif" font-size="10.00">containermanager::Container</text>
<text text-anchor="middle" x="102.5" y="-56.5" font-family="Helvetica,sans-Serif" font-size="10.00">Parameters::SerializeWithCachedSizes</text>
</a>
</g>
</g>
<!-- Node1&#45;&gt;Node7 -->
<g id="edge6" class="edge">
<title>Node1&#45;&gt;Node7</title>
<path fill="none" stroke="midnightblue" d="M295.91,-152.54C273.96,-133.23 239.51,-105.75 205,-89.5 196.79,-85.63 187.92,-82.33 178.95,-79.5"/>
<polygon fill="midnightblue" stroke="midnightblue" points="293.63,-155.19 303.42,-159.24 298.29,-149.97 293.63,-155.19"/>
</g>
<!-- Node8 -->
<g id="node8" class="node">
<title>Node8</title>
<g id="a_node8"><a xlink:href="classcontainermanager_1_1ContainerParameters.html#a036598743b2f2b48c5812074fbbae698" target="_top" xlink:title=" ">
<polygon fill="white" stroke="black" points="17.5,-0.5 17.5,-30.5 187.5,-30.5 187.5,-0.5 17.5,-0.5"/>
<text text-anchor="start" x="25.5" y="-18.5" font-family="Helvetica,sans-Serif" font-size="10.00">containermanager::Container</text>
<text text-anchor="middle" x="102.5" y="-7.5" font-family="Helvetica,sans-Serif" font-size="10.00">Parameters::set_allocated_pids</text>
</a>
</g>
</g>
<!-- Node1&#45;&gt;Node8 -->
<g id="edge7" class="edge">
<title>Node1&#45;&gt;Node8</title>
<path fill="none" stroke="midnightblue" d="M305.73,-150.66C286.93,-120.31 250.32,-68.45 205,-40.5 198.67,-36.59 191.76,-33.3 184.62,-30.52"/>
<polygon fill="midnightblue" stroke="midnightblue" points="302.81,-152.6 310.99,-159.34 308.8,-148.98 302.81,-152.6"/>
</g>
</g>
</svg>
