<?xml version="1.0" encoding="UTF-8" standalone="no"?>
<!DOCTYPE svg PUBLIC "-//W3C//DTD SVG 1.1//EN"
 "http://www.w3.org/Graphics/SVG/1.1/DTD/svg11.dtd">
<!-- Generated by graphviz version 2.43.0 (0)
 -->
<!-- Title: PodmanCreateContainerCommand::Execute Pages: 1 -->
<svg width="378pt" height="127pt"
 viewBox="0.00 0.00 378.00 127.00" xmlns="http://www.w3.org/2000/svg" xmlns:xlink="http://www.w3.org/1999/xlink">
<g id="graph0" class="graph" transform="scale(1 1) rotate(0) translate(4 123)">
<title>PodmanCreateContainerCommand::Execute</title>
<polygon fill="white" stroke="transparent" points="-4,4 -4,-123 374,-123 374,4 -4,4"/>
<!-- Node1 -->
<g id="node1" class="node">
<title>Node1</title>
<g id="a_node1"><a xlink:title="Executes the command to create a Podman container.">
<polygon fill="#bfbfbf" stroke="black" points="0,-44.5 0,-74.5 186,-74.5 186,-44.5 0,-44.5"/>
<text text-anchor="start" x="8" y="-62.5" font-family="Helvetica,sans-Serif" font-size="10.00">PodmanCreateContainerCommand</text>
<text text-anchor="middle" x="93" y="-51.5" font-family="Helvetica,sans-Serif" font-size="10.00">::Execute</text>
</a>
</g>
</g>
<!-- Node2 -->
<g id="node2" class="node">
<title>Node2</title>
<g id="a_node2"><a xlink:href="classRedisDatabaseHandler.html#a07c65b208d5997ec20ed239dca4081ce" target="_top" xlink:title="Retrieves the singleton instance of the RedisDatabaseHandler.">
<polygon fill="white" stroke="black" points="232,-88.5 232,-118.5 360,-118.5 360,-88.5 232,-88.5"/>
<text text-anchor="start" x="240" y="-106.5" font-family="Helvetica,sans-Serif" font-size="10.00">RedisDatabaseHandler</text>
<text text-anchor="middle" x="296" y="-95.5" font-family="Helvetica,sans-Serif" font-size="10.00">::GetInstance</text>
</a>
</g>
</g>
<!-- Node1&#45;&gt;Node2 -->
<g id="edge1" class="edge">
<title>Node1&#45;&gt;Node2</title>
<path fill="none" stroke="midnightblue" d="M162.61,-74.52C181.69,-78.7 202.48,-83.25 221.81,-87.48"/>
<polygon fill="midnightblue" stroke="midnightblue" points="221.25,-90.94 231.77,-89.66 222.75,-84.1 221.25,-90.94"/>
</g>
<!-- Node3 -->
<g id="node3" class="node">
<title>Node3</title>
<g id="a_node3"><a xlink:href="classIDatabaseHandler.html#a40a9b925225f1a8694d8a58907248678" target="_top" xlink:title="Retrieves a JSON object from the database by key.">
<polygon fill="white" stroke="black" points="222,-50 222,-69 370,-69 370,-50 222,-50"/>
<text text-anchor="middle" x="296" y="-57" font-family="Helvetica,sans-Serif" font-size="10.00">IDatabaseHandler::GetJson</text>
</a>
</g>
</g>
<!-- Node1&#45;&gt;Node3 -->
<g id="edge2" class="edge">
<title>Node1&#45;&gt;Node3</title>
<path fill="none" stroke="midnightblue" d="M186.26,-59.5C194.78,-59.5 203.37,-59.5 211.79,-59.5"/>
<polygon fill="midnightblue" stroke="midnightblue" points="211.96,-63 221.96,-59.5 211.96,-56 211.96,-63"/>
</g>
<!-- Node4 -->
<g id="node4" class="node">
<title>Node4</title>
<g id="a_node4"><a xlink:href="classIDatabaseHandler.html#a10972030d1577974e9f86820e251c7d6" target="_top" xlink:title="Updates a specific field in the JSON object stored under the given key.">
<polygon fill="white" stroke="black" points="223,-0.5 223,-30.5 369,-30.5 369,-0.5 223,-0.5"/>
<text text-anchor="start" x="231" y="-18.5" font-family="Helvetica,sans-Serif" font-size="10.00">IDatabaseHandler::Update</text>
<text text-anchor="middle" x="296" y="-7.5" font-family="Helvetica,sans-Serif" font-size="10.00">Field</text>
</a>
</g>
</g>
<!-- Node1&#45;&gt;Node4 -->
<g id="edge3" class="edge">
<title>Node1&#45;&gt;Node4</title>
<path fill="none" stroke="midnightblue" d="M162.61,-44.48C179.98,-40.68 198.76,-36.57 216.58,-32.67"/>
<polygon fill="midnightblue" stroke="midnightblue" points="217.34,-36.08 226.36,-30.53 215.84,-29.25 217.34,-36.08"/>
</g>
</g>
</svg>
