<?xml version="1.0" encoding="UTF-8" standalone="no"?>
<!DOCTYPE svg PUBLIC "-//W3C//DTD SVG 1.1//EN"
 "http://www.w3.org/Graphics/SVG/1.1/DTD/svg11.dtd">
<!-- Generated by graphviz version 2.43.0 (0)
 -->
<!-- Title: PodmanRestartContainerCommand::Execute Pages: 1 -->
<svg width="379pt" height="127pt"
 viewBox="0.00 0.00 379.00 126.50" xmlns="http://www.w3.org/2000/svg" xmlns:xlink="http://www.w3.org/1999/xlink">
<g id="graph0" class="graph" transform="scale(1 1) rotate(0) translate(4 122.5)">
<title>PodmanRestartContainerCommand::Execute</title>
<polygon fill="white" stroke="transparent" points="-4,4 -4,-122.5 375,-122.5 375,4 -4,4"/>
<!-- Node1 -->
<g id="node1" class="node">
<title>Node1</title>
<g id="a_node1"><a xlink:title="Executes the command to restart a Podman container.">
<polygon fill="#bfbfbf" stroke="black" points="0,-49.5 0,-79.5 189,-79.5 189,-49.5 0,-49.5"/>
<text text-anchor="start" x="8" y="-67.5" font-family="Helvetica,sans-Serif" font-size="10.00">PodmanRestartContainerCommand</text>
<text text-anchor="middle" x="94.5" y="-56.5" font-family="Helvetica,sans-Serif" font-size="10.00">::Execute</text>
</a>
</g>
</g>
<!-- Node2 -->
<g id="node2" class="node">
<title>Node2</title>
<g id="a_node2"><a xlink:href="common_8hpp.html#a2f80aeff93aed5c1cc3d4c356d458b99" target="_top" xlink:title="Utility function to format command templates by replacing placeholders with actual values.">
<polygon fill="white" stroke="black" points="247.5,-99 247.5,-118 348.5,-118 348.5,-99 247.5,-99"/>
<text text-anchor="middle" x="298" y="-106" font-family="Helvetica,sans-Serif" font-size="10.00">FormatCommand</text>
</a>
</g>
</g>
<!-- Node1&#45;&gt;Node2 -->
<g id="edge1" class="edge">
<title>Node1&#45;&gt;Node2</title>
<path fill="none" stroke="midnightblue" d="M164.28,-79.52C190.12,-85.16 219.09,-91.49 243.35,-96.78"/>
<polygon fill="midnightblue" stroke="midnightblue" points="242.92,-100.27 253.44,-98.99 244.41,-93.43 242.92,-100.27"/>
</g>
<!-- Node3 -->
<g id="node3" class="node">
<title>Node3</title>
<g id="a_node3"><a xlink:href="classRedisDatabaseHandler.html#a07c65b208d5997ec20ed239dca4081ce" target="_top" xlink:title="Retrieves the singleton instance of the RedisDatabaseHandler.">
<polygon fill="white" stroke="black" points="234,-49.5 234,-79.5 362,-79.5 362,-49.5 234,-49.5"/>
<text text-anchor="start" x="242" y="-67.5" font-family="Helvetica,sans-Serif" font-size="10.00">RedisDatabaseHandler</text>
<text text-anchor="middle" x="298" y="-56.5" font-family="Helvetica,sans-Serif" font-size="10.00">::GetInstance</text>
</a>
</g>
</g>
<!-- Node1&#45;&gt;Node3 -->
<g id="edge2" class="edge">
<title>Node1&#45;&gt;Node3</title>
<path fill="none" stroke="midnightblue" d="M189.17,-64.5C200.74,-64.5 212.43,-64.5 223.63,-64.5"/>
<polygon fill="midnightblue" stroke="midnightblue" points="223.77,-68 233.77,-64.5 223.77,-61 223.77,-68"/>
</g>
<!-- Node4 -->
<g id="node4" class="node">
<title>Node4</title>
<g id="a_node4"><a xlink:href="classIDatabaseHandler.html#a10972030d1577974e9f86820e251c7d6" target="_top" xlink:title="Updates a specific field in the JSON object stored under the given key.">
<polygon fill="white" stroke="black" points="225,-0.5 225,-30.5 371,-30.5 371,-0.5 225,-0.5"/>
<text text-anchor="start" x="233" y="-18.5" font-family="Helvetica,sans-Serif" font-size="10.00">IDatabaseHandler::Update</text>
<text text-anchor="middle" x="298" y="-7.5" font-family="Helvetica,sans-Serif" font-size="10.00">Field</text>
</a>
</g>
</g>
<!-- Node1&#45;&gt;Node4 -->
<g id="edge3" class="edge">
<title>Node1&#45;&gt;Node4</title>
<path fill="none" stroke="midnightblue" d="M157.33,-49.47C178.89,-44.22 203.27,-38.29 225.55,-32.87"/>
<polygon fill="midnightblue" stroke="midnightblue" points="226.4,-36.27 235.29,-30.51 224.75,-29.47 226.4,-36.27"/>
</g>
</g>
</svg>
