<?xml version="1.0" encoding="UTF-8" standalone="no"?>
<!DOCTYPE svg PUBLIC "-//W3C//DTD SVG 1.1//EN"
 "http://www.w3.org/Graphics/SVG/1.1/DTD/svg11.dtd">
<!-- Generated by graphviz version 2.43.0 (0)
 -->
<!-- Title: PodmanApiStartContainerCommand Pages: 1 -->
<svg width="220pt" height="204pt"
 viewBox="0.00 0.00 220.00 204.00" xmlns="http://www.w3.org/2000/svg" xmlns:xlink="http://www.w3.org/1999/xlink">
<g id="graph0" class="graph" transform="scale(1 1) rotate(0) translate(4 200)">
<title>PodmanApiStartContainerCommand</title>
<polygon fill="white" stroke="transparent" points="-4,4 -4,-200 216,-200 216,4 -4,4"/>
<!-- Node1 -->
<g id="node1" class="node">
<title>Node1</title>
<g id="a_node1"><a xlink:title="Command to start a Podman container via the Podman API.">
<polygon fill="#bfbfbf" stroke="black" points="0,-0.5 0,-90.5 212,-90.5 212,-0.5 0,-0.5"/>
<text text-anchor="middle" x="106" y="-78.5" font-family="Helvetica,sans-Serif" font-size="10.00">PodmanApiStartContainerCommand</text>
<polyline fill="none" stroke="black" points="0,-71.5 212,-71.5 "/>
<text text-anchor="middle" x="106" y="-59.5" font-family="Helvetica,sans-Serif" font-size="10.00"> </text>
<polyline fill="none" stroke="black" points="0,-52.5 212,-52.5 "/>
<text text-anchor="start" x="8" y="-40.5" font-family="Helvetica,sans-Serif" font-size="10.00">+ PodmanApiStartContainerCommand()</text>
<text text-anchor="start" x="8" y="-29.5" font-family="Helvetica,sans-Serif" font-size="10.00">+ ~PodmanApiStartContainer</text>
<text text-anchor="start" x="8" y="-18.5" font-family="Helvetica,sans-Serif" font-size="10.00">Command()</text>
<text text-anchor="start" x="8" y="-7.5" font-family="Helvetica,sans-Serif" font-size="10.00">+ Execute()</text>
</a>
</g>
</g>
<!-- Node2 -->
<g id="node2" class="node">
<title>Node2</title>
<g id="a_node2"><a xlink:href="classCommand.html" target="_top" xlink:title="Abstract base class for all commands.">
<polygon fill="white" stroke="black" points="59,-127.5 59,-195.5 153,-195.5 153,-127.5 59,-127.5"/>
<text text-anchor="middle" x="106" y="-183.5" font-family="Helvetica,sans-Serif" font-size="10.00">Command</text>
<polyline fill="none" stroke="black" points="59,-176.5 153,-176.5 "/>
<text text-anchor="middle" x="106" y="-164.5" font-family="Helvetica,sans-Serif" font-size="10.00"> </text>
<polyline fill="none" stroke="black" points="59,-157.5 153,-157.5 "/>
<text text-anchor="start" x="67" y="-145.5" font-family="Helvetica,sans-Serif" font-size="10.00">+ Execute()</text>
<text text-anchor="start" x="67" y="-134.5" font-family="Helvetica,sans-Serif" font-size="10.00">+ ~Command()</text>
</a>
</g>
</g>
<!-- Node2&#45;&gt;Node1 -->
<g id="edge1" class="edge">
<title>Node2&#45;&gt;Node1</title>
<path fill="none" stroke="midnightblue" d="M106,-116.97C106,-108.35 106,-99.28 106,-90.64"/>
<polygon fill="none" stroke="midnightblue" points="102.5,-117.22 106,-127.22 109.5,-117.22 102.5,-117.22"/>
</g>
</g>
</svg>
