<?xml version="1.0" encoding="UTF-8" standalone="no"?>
<!DOCTYPE svg PUBLIC "-//W3C//DTD SVG 1.1//EN"
 "http://www.w3.org/Graphics/SVG/1.1/DTD/svg11.dtd">
<!-- Generated by graphviz version 2.43.0 (0)
 -->
<!-- Title: PodmanApiStartContainerCommand::Execute Pages: 1 -->
<svg width="405pt" height="66pt"
 viewBox="0.00 0.00 405.00 66.00" xmlns="http://www.w3.org/2000/svg" xmlns:xlink="http://www.w3.org/1999/xlink">
<g id="graph0" class="graph" transform="scale(1 1) rotate(0) translate(4 62)">
<title>PodmanApiStartContainerCommand::Execute</title>
<polygon fill="white" stroke="transparent" points="-4,4 -4,-62 401,-62 401,4 -4,4"/>
<!-- Node1 -->
<g id="node1" class="node">
<title>Node1</title>
<g id="a_node1"><a xlink:title="Executes the command to start a Podman container via the API.">
<polygon fill="#bfbfbf" stroke="black" points="0,-14 0,-44 193,-44 193,-14 0,-14"/>
<text text-anchor="start" x="8" y="-32" font-family="Helvetica,sans-Serif" font-size="10.00">PodmanApiStartContainerCommand</text>
<text text-anchor="middle" x="96.5" y="-21" font-family="Helvetica,sans-Serif" font-size="10.00">::Execute</text>
</a>
</g>
</g>
<!-- Node2 -->
<g id="node2" class="node">
<title>Node2</title>
<g id="a_node2"><a xlink:href="common_8hpp.html#a6ef961c11398422cd4dd9b4f66a57d03" target="_top" xlink:title="Compose a container API endpoint for Docker or Podman API.">
<polygon fill="white" stroke="black" points="229,-38.5 229,-57.5 397,-57.5 397,-38.5 229,-38.5"/>
<text text-anchor="middle" x="313" y="-45.5" font-family="Helvetica,sans-Serif" font-size="10.00">ComposeContainerApiEndpoint</text>
</a>
</g>
</g>
<!-- Node1&#45;&gt;Node2 -->
<g id="edge1" class="edge">
<title>Node1&#45;&gt;Node2</title>
<path fill="none" stroke="midnightblue" d="M193.14,-37.47C201.74,-38.23 210.43,-39 219,-39.76"/>
<polygon fill="midnightblue" stroke="midnightblue" points="218.72,-43.25 228.99,-40.65 219.33,-36.28 218.72,-43.25"/>
</g>
<!-- Node3 -->
<g id="node3" class="node">
<title>Node3</title>
<g id="a_node3"><a xlink:href="classCurlHandler.html#a35359e5d7f3412aef304d81dbe02a7bc" target="_top" xlink:title="Perform a HTTP POST request over a Unix domain socket.">
<polygon fill="white" stroke="black" points="251,-0.5 251,-19.5 375,-19.5 375,-0.5 251,-0.5"/>
<text text-anchor="middle" x="313" y="-7.5" font-family="Helvetica,sans-Serif" font-size="10.00">CurlHandler::PostUnix</text>
</a>
</g>
</g>
<!-- Node1&#45;&gt;Node3 -->
<g id="edge2" class="edge">
<title>Node1&#45;&gt;Node3</title>
<path fill="none" stroke="midnightblue" d="M193.14,-20.53C209.03,-19.12 225.26,-17.68 240.41,-16.34"/>
<polygon fill="midnightblue" stroke="midnightblue" points="241.07,-19.8 250.72,-15.43 240.45,-12.82 241.07,-19.8"/>
</g>
</g>
</svg>
