<?xml version="1.0" encoding="UTF-8" standalone="no"?>
<!DOCTYPE svg PUBLIC "-//W3C//DTD SVG 1.1//EN"
 "http://www.w3.org/Graphics/SVG/1.1/DTD/svg11.dtd">
<!-- Generated by graphviz version 2.43.0 (0)
 -->
<!-- Title: DockerApiStopContainerCommand::Execute Pages: 1 -->
<svg width="397pt" height="66pt"
 viewBox="0.00 0.00 397.00 66.00" xmlns="http://www.w3.org/2000/svg" xmlns:xlink="http://www.w3.org/1999/xlink">
<g id="graph0" class="graph" transform="scale(1 1) rotate(0) translate(4 62)">
<title>DockerApiStopContainerCommand::Execute</title>
<polygon fill="white" stroke="transparent" points="-4,4 -4,-62 393,-62 393,4 -4,4"/>
<!-- Node1 -->
<g id="node1" class="node">
<title>Node1</title>
<g id="a_node1"><a xlink:title="Executes the command to stop a Docker container via the API.">
<polygon fill="#bfbfbf" stroke="black" points="0,-14 0,-44 185,-44 185,-14 0,-14"/>
<text text-anchor="start" x="8" y="-32" font-family="Helvetica,sans-Serif" font-size="10.00">DockerApiStopContainerCommand</text>
<text text-anchor="middle" x="92.5" y="-21" font-family="Helvetica,sans-Serif" font-size="10.00">::Execute</text>
</a>
</g>
</g>
<!-- Node2 -->
<g id="node2" class="node">
<title>Node2</title>
<g id="a_node2"><a xlink:href="common_8hpp.html#a6ef961c11398422cd4dd9b4f66a57d03" target="_top" xlink:title="Compose a container API endpoint for Docker or Podman API.">
<polygon fill="white" stroke="black" points="221,-38.5 221,-57.5 389,-57.5 389,-38.5 221,-38.5"/>
<text text-anchor="middle" x="305" y="-45.5" font-family="Helvetica,sans-Serif" font-size="10.00">ComposeContainerApiEndpoint</text>
</a>
</g>
</g>
<!-- Node1&#45;&gt;Node2 -->
<g id="edge1" class="edge">
<title>Node1&#45;&gt;Node2</title>
<path fill="none" stroke="midnightblue" d="M185.22,-37.28C193.64,-38.04 202.19,-38.81 210.63,-39.57"/>
<polygon fill="midnightblue" stroke="midnightblue" points="210.59,-43.08 220.86,-40.5 211.22,-36.11 210.59,-43.08"/>
</g>
<!-- Node3 -->
<g id="node3" class="node">
<title>Node3</title>
<g id="a_node3"><a xlink:href="classCurlHandler.html#a35359e5d7f3412aef304d81dbe02a7bc" target="_top" xlink:title="Perform a HTTP POST request over a Unix domain socket.">
<polygon fill="white" stroke="black" points="243,-0.5 243,-19.5 367,-19.5 367,-0.5 243,-0.5"/>
<text text-anchor="middle" x="305" y="-7.5" font-family="Helvetica,sans-Serif" font-size="10.00">CurlHandler::PostUnix</text>
</a>
</g>
</g>
<!-- Node1&#45;&gt;Node3 -->
<g id="edge2" class="edge">
<title>Node1&#45;&gt;Node3</title>
<path fill="none" stroke="midnightblue" d="M185.22,-20.72C201.06,-19.29 217.32,-17.82 232.53,-16.45"/>
<polygon fill="midnightblue" stroke="midnightblue" points="233.22,-19.9 242.87,-15.52 232.59,-12.93 233.22,-19.9"/>
</g>
</g>
</svg>
