<?xml version="1.0" encoding="UTF-8" standalone="no"?>
<!DOCTYPE svg PUBLIC "-//W3C//DTD SVG 1.1//EN"
 "http://www.w3.org/Graphics/SVG/1.1/DTD/svg11.dtd">
<!-- Generated by graphviz version 2.43.0 (0)
 -->
<!-- Title: IDatabaseHandler Pages: 1 -->
<svg width="354pt" height="303pt"
 viewBox="0.00 0.00 353.50 303.00" xmlns="http://www.w3.org/2000/svg" xmlns:xlink="http://www.w3.org/1999/xlink">
<g id="graph0" class="graph" transform="scale(1 1) rotate(0) translate(4 299)">
<title>IDatabaseHandler</title>
<polygon fill="white" stroke="transparent" points="-4,4 -4,-299 349.5,-299 349.5,4 -4,4"/>
<!-- Node1 -->
<g id="node1" class="node">
<title>Node1</title>
<g id="a_node1"><a xlink:title="Interface for database handlers supporting JSON storage and retrieval.">
<polygon fill="#bfbfbf" stroke="black" points="111.5,-182.5 111.5,-294.5 242.5,-294.5 242.5,-182.5 111.5,-182.5"/>
<text text-anchor="middle" x="177" y="-282.5" font-family="Helvetica,sans-Serif" font-size="10.00">IDatabaseHandler</text>
<polyline fill="none" stroke="black" points="111.5,-275.5 242.5,-275.5 "/>
<text text-anchor="middle" x="177" y="-263.5" font-family="Helvetica,sans-Serif" font-size="10.00"> </text>
<polyline fill="none" stroke="black" points="111.5,-256.5 242.5,-256.5 "/>
<text text-anchor="start" x="119.5" y="-244.5" font-family="Helvetica,sans-Serif" font-size="10.00">+ ~IDatabaseHandler()</text>
<text text-anchor="start" x="119.5" y="-233.5" font-family="Helvetica,sans-Serif" font-size="10.00">+ SaveJson()</text>
<text text-anchor="start" x="119.5" y="-222.5" font-family="Helvetica,sans-Serif" font-size="10.00">+ GetJson()</text>
<text text-anchor="start" x="119.5" y="-211.5" font-family="Helvetica,sans-Serif" font-size="10.00">+ ClearDatabase()</text>
<text text-anchor="start" x="119.5" y="-200.5" font-family="Helvetica,sans-Serif" font-size="10.00">+ UpdateField()</text>
<text text-anchor="start" x="119.5" y="-189.5" font-family="Helvetica,sans-Serif" font-size="10.00">+ RemoveKey()</text>
</a>
</g>
</g>
<!-- Node2 -->
<g id="node2" class="node">
<title>Node2</title>
<g id="a_node2"><a xlink:href="classEmbeddedDatabaseHandler.html" target="_top" xlink:title="Lightweight, fixed&#45;size in&#45;memory key&#45;value store for embedded systems.">
<polygon fill="white" stroke="black" points="0,-17 0,-129 172,-129 172,-17 0,-17"/>
<text text-anchor="middle" x="86" y="-117" font-family="Helvetica,sans-Serif" font-size="10.00">EmbeddedDatabaseHandler</text>
<polyline fill="none" stroke="black" points="0,-110 172,-110 "/>
<text text-anchor="middle" x="86" y="-98" font-family="Helvetica,sans-Serif" font-size="10.00"> </text>
<polyline fill="none" stroke="black" points="0,-91 172,-91 "/>
<text text-anchor="start" x="8" y="-79" font-family="Helvetica,sans-Serif" font-size="10.00">+ EmbeddedDatabaseHandler()</text>
<text text-anchor="start" x="8" y="-68" font-family="Helvetica,sans-Serif" font-size="10.00">+ SaveJson()</text>
<text text-anchor="start" x="8" y="-57" font-family="Helvetica,sans-Serif" font-size="10.00">+ GetJson()</text>
<text text-anchor="start" x="8" y="-46" font-family="Helvetica,sans-Serif" font-size="10.00">+ ClearDatabase()</text>
<text text-anchor="start" x="8" y="-35" font-family="Helvetica,sans-Serif" font-size="10.00">+ UpdateField()</text>
<text text-anchor="start" x="8" y="-24" font-family="Helvetica,sans-Serif" font-size="10.00">+ RemoveKey()</text>
</a>
</g>
</g>
<!-- Node1&#45;&gt;Node2 -->
<g id="edge1" class="edge">
<title>Node1&#45;&gt;Node2</title>
<path fill="none" stroke="midnightblue" d="M141.2,-173.17C133.07,-158.57 124.51,-143.19 116.62,-129.02"/>
<polygon fill="none" stroke="midnightblue" points="138.27,-175.11 146.19,-182.15 144.39,-171.71 138.27,-175.11"/>
</g>
<!-- Node3 -->
<g id="node3" class="node">
<title>Node3</title>
<g id="a_node3"><a xlink:href="classRedisDatabaseHandler.html" target="_top" xlink:title="Class for interacting with a Redis database backend.">
<polygon fill="white" stroke="black" points="190.5,-0.5 190.5,-145.5 345.5,-145.5 345.5,-0.5 190.5,-0.5"/>
<text text-anchor="middle" x="268" y="-133.5" font-family="Helvetica,sans-Serif" font-size="10.00">RedisDatabaseHandler</text>
<polyline fill="none" stroke="black" points="190.5,-126.5 345.5,-126.5 "/>
<text text-anchor="middle" x="268" y="-114.5" font-family="Helvetica,sans-Serif" font-size="10.00"> </text>
<polyline fill="none" stroke="black" points="190.5,-107.5 345.5,-107.5 "/>
<text text-anchor="start" x="198.5" y="-95.5" font-family="Helvetica,sans-Serif" font-size="10.00">+ RedisDatabaseHandler()</text>
<text text-anchor="start" x="198.5" y="-84.5" font-family="Helvetica,sans-Serif" font-size="10.00">+ ~RedisDatabaseHandler()</text>
<text text-anchor="start" x="198.5" y="-73.5" font-family="Helvetica,sans-Serif" font-size="10.00">+ SaveJson()</text>
<text text-anchor="start" x="198.5" y="-62.5" font-family="Helvetica,sans-Serif" font-size="10.00">+ GetJson()</text>
<text text-anchor="start" x="198.5" y="-51.5" font-family="Helvetica,sans-Serif" font-size="10.00">+ ClearDatabase()</text>
<text text-anchor="start" x="198.5" y="-40.5" font-family="Helvetica,sans-Serif" font-size="10.00">+ UpdateField()</text>
<text text-anchor="start" x="198.5" y="-29.5" font-family="Helvetica,sans-Serif" font-size="10.00">+ RemoveKey()</text>
<text text-anchor="start" x="198.5" y="-18.5" font-family="Helvetica,sans-Serif" font-size="10.00">+ RedisDatabaseHandler()</text>
<text text-anchor="start" x="198.5" y="-7.5" font-family="Helvetica,sans-Serif" font-size="10.00">+ operator=()</text>
</a>
</g>
</g>
<!-- Node1&#45;&gt;Node3 -->
<g id="edge2" class="edge">
<title>Node1&#45;&gt;Node3</title>
<path fill="none" stroke="midnightblue" d="M212.8,-173.19C217.85,-164.11 223.07,-154.73 228.19,-145.53"/>
<polygon fill="none" stroke="midnightblue" points="209.61,-171.71 207.81,-182.15 215.73,-175.11 209.61,-171.71"/>
</g>
</g>
</svg>
