<?xml version="1.0" encoding="UTF-8" standalone="no"?>
<!DOCTYPE svg PUBLIC "-//W3C//DTD SVG 1.1//EN"
 "http://www.w3.org/Graphics/SVG/1.1/DTD/svg11.dtd">
<!-- Generated by graphviz version 2.43.0 (0)
 -->
<!-- Title: IDatabaseHandler::UpdateField Pages: 1 -->
<svg width="583pt" height="455pt"
 viewBox="0.00 0.00 583.00 455.00" xmlns="http://www.w3.org/2000/svg" xmlns:xlink="http://www.w3.org/1999/xlink">
<g id="graph0" class="graph" transform="scale(1 1) rotate(0) translate(4 451)">
<title>IDatabaseHandler::UpdateField</title>
<polygon fill="white" stroke="transparent" points="-4,4 -4,-451 579,-451 579,4 -4,4"/>
<!-- Node1 -->
<g id="node1" class="node">
<title>Node1</title>
<g id="a_node1"><a xlink:title="Updates a specific field in the JSON object stored under the given key.">
<polygon fill="#bfbfbf" stroke="black" points="429,-220.5 429,-250.5 575,-250.5 575,-220.5 429,-220.5"/>
<text text-anchor="start" x="437" y="-238.5" font-family="Helvetica,sans-Serif" font-size="10.00">IDatabaseHandler::Update</text>
<text text-anchor="middle" x="502" y="-227.5" font-family="Helvetica,sans-Serif" font-size="10.00">Field</text>
</a>
</g>
</g>
<!-- Node2 -->
<g id="node2" class="node">
<title>Node2</title>
<g id="a_node2"><a xlink:href="classDockerStartContainerCommand.html#ad208f99e4185a7606a0a9903d1346fcc" target="_top" xlink:title="Executes the command to start a Docker container.">
<polygon fill="white" stroke="black" points="210.5,-416.5 210.5,-446.5 381.5,-446.5 381.5,-416.5 210.5,-416.5"/>
<text text-anchor="start" x="218.5" y="-434.5" font-family="Helvetica,sans-Serif" font-size="10.00">DockerStartContainerCommand</text>
<text text-anchor="middle" x="296" y="-423.5" font-family="Helvetica,sans-Serif" font-size="10.00">::Execute</text>
</a>
</g>
</g>
<!-- Node1&#45;&gt;Node2 -->
<g id="edge1" class="edge">
<title>Node1&#45;&gt;Node2</title>
<path fill="none" stroke="midnightblue" d="M492.36,-260.36C477.91,-298.15 445.18,-369.65 393,-407.5 388.27,-410.93 383.11,-413.87 377.7,-416.39"/>
<polygon fill="midnightblue" stroke="midnightblue" points="495.76,-261.24 495.95,-250.65 489.2,-258.81 495.76,-261.24"/>
</g>
<!-- Node3 -->
<g id="node3" class="node">
<title>Node3</title>
<g id="a_node3"><a xlink:href="classPodmanStartContainerCommand.html#aaf7627e6faf5974ffcd95e8a5f58852f" target="_top" xlink:title="Executes the command to start a Podman container.">
<polygon fill="white" stroke="black" points="207.5,-367.5 207.5,-397.5 384.5,-397.5 384.5,-367.5 207.5,-367.5"/>
<text text-anchor="start" x="215.5" y="-385.5" font-family="Helvetica,sans-Serif" font-size="10.00">PodmanStartContainerCommand</text>
<text text-anchor="middle" x="296" y="-374.5" font-family="Helvetica,sans-Serif" font-size="10.00">::Execute</text>
</a>
</g>
</g>
<!-- Node1&#45;&gt;Node3 -->
<g id="edge2" class="edge">
<title>Node1&#45;&gt;Node3</title>
<path fill="none" stroke="midnightblue" d="M486.53,-259.4C468.26,-287.47 434.2,-333.38 393,-358.5 387.43,-361.9 381.39,-364.82 375.16,-367.32"/>
<polygon fill="midnightblue" stroke="midnightblue" points="489.69,-260.94 492.1,-250.62 483.79,-257.18 489.69,-260.94"/>
</g>
<!-- Node4 -->
<g id="node4" class="node">
<title>Node4</title>
<g id="a_node4"><a xlink:href="classDockerStopContainerCommand.html#a4d6a495edca166958eee65ca601bc5bd" target="_top" xlink:title="Executes the command to stop a Docker container.">
<polygon fill="white" stroke="black" points="211,-318.5 211,-348.5 381,-348.5 381,-318.5 211,-318.5"/>
<text text-anchor="start" x="219" y="-336.5" font-family="Helvetica,sans-Serif" font-size="10.00">DockerStopContainerCommand</text>
<text text-anchor="middle" x="296" y="-325.5" font-family="Helvetica,sans-Serif" font-size="10.00">::Execute</text>
</a>
</g>
</g>
<!-- Node1&#45;&gt;Node4 -->
<g id="edge3" class="edge">
<title>Node1&#45;&gt;Node4</title>
<path fill="none" stroke="midnightblue" d="M475.03,-257.24C454.09,-273.76 423.24,-295.89 393,-309.5 385.4,-312.92 377.24,-315.9 368.99,-318.5"/>
<polygon fill="midnightblue" stroke="midnightblue" points="477.49,-259.76 483.1,-250.77 473.11,-254.3 477.49,-259.76"/>
</g>
<!-- Node5 -->
<g id="node5" class="node">
<title>Node5</title>
<g id="a_node5"><a xlink:href="classPodmanStopContainerCommand.html#a42d7bf3c2ae604172ae1e1ae29bdc0c6" target="_top" xlink:title="Executes the command to stop a Podman container.">
<polygon fill="white" stroke="black" points="208,-269.5 208,-299.5 384,-299.5 384,-269.5 208,-269.5"/>
<text text-anchor="start" x="216" y="-287.5" font-family="Helvetica,sans-Serif" font-size="10.00">PodmanStopContainerCommand</text>
<text text-anchor="middle" x="296" y="-276.5" font-family="Helvetica,sans-Serif" font-size="10.00">::Execute</text>
</a>
</g>
</g>
<!-- Node1&#45;&gt;Node5 -->
<g id="edge4" class="edge">
<title>Node1&#45;&gt;Node5</title>
<path fill="none" stroke="midnightblue" d="M428.54,-252.9C405.98,-258.32 381.3,-264.25 359.47,-269.49"/>
<polygon fill="midnightblue" stroke="midnightblue" points="429.5,-256.27 438.41,-250.53 427.87,-249.47 429.5,-256.27"/>
</g>
<!-- Node6 -->
<g id="node6" class="node">
<title>Node6</title>
<g id="a_node6"><a xlink:href="classDockerRemoveContainerCommand.html#a0c15063652bf92deb99a742a4a9f61fd" target="_top" xlink:title="Executes the command to remove a Docker container and clean up database state.">
<polygon fill="white" stroke="black" points="202,-220.5 202,-250.5 390,-250.5 390,-220.5 202,-220.5"/>
<text text-anchor="start" x="210" y="-238.5" font-family="Helvetica,sans-Serif" font-size="10.00">DockerRemoveContainerCommand</text>
<text text-anchor="middle" x="296" y="-227.5" font-family="Helvetica,sans-Serif" font-size="10.00">::Execute</text>
</a>
</g>
</g>
<!-- Node1&#45;&gt;Node6 -->
<g id="edge5" class="edge">
<title>Node1&#45;&gt;Node6</title>
<path fill="none" stroke="midnightblue" d="M418.71,-235.5C409.33,-235.5 399.71,-235.5 390.19,-235.5"/>
<polygon fill="midnightblue" stroke="midnightblue" points="418.79,-239 428.79,-235.5 418.79,-232 418.79,-239"/>
</g>
<!-- Node7 -->
<g id="node7" class="node">
<title>Node7</title>
<g id="a_node7"><a xlink:href="classPodmanRemoveContainerCommand.html#a3bb0bf30e7f91e87c407980e1adcc398" target="_top" xlink:title="Executes the command to remove a Podman container and clean up database state.">
<polygon fill="white" stroke="black" points="199,-171.5 199,-201.5 393,-201.5 393,-171.5 199,-171.5"/>
<text text-anchor="start" x="207" y="-189.5" font-family="Helvetica,sans-Serif" font-size="10.00">PodmanRemoveContainerCommand</text>
<text text-anchor="middle" x="296" y="-178.5" font-family="Helvetica,sans-Serif" font-size="10.00">::Execute</text>
</a>
</g>
</g>
<!-- Node1&#45;&gt;Node7 -->
<g id="edge6" class="edge">
<title>Node1&#45;&gt;Node7</title>
<path fill="none" stroke="midnightblue" d="M428.54,-218.1C405.98,-212.68 381.3,-206.75 359.47,-201.51"/>
<polygon fill="midnightblue" stroke="midnightblue" points="427.87,-221.53 438.41,-220.47 429.5,-214.73 427.87,-221.53"/>
</g>
<!-- Node8 -->
<g id="node8" class="node">
<title>Node8</title>
<g id="a_node8"><a xlink:href="classDockerRestartContainerCommand.html#a3852a9870150e02cde5e3f3cabf4d5d9" target="_top" xlink:title="Executes the command to restart a Docker container.">
<polygon fill="white" stroke="black" points="204.5,-122.5 204.5,-152.5 387.5,-152.5 387.5,-122.5 204.5,-122.5"/>
<text text-anchor="start" x="212.5" y="-140.5" font-family="Helvetica,sans-Serif" font-size="10.00">DockerRestartContainerCommand</text>
<text text-anchor="middle" x="296" y="-129.5" font-family="Helvetica,sans-Serif" font-size="10.00">::Execute</text>
</a>
</g>
</g>
<!-- Node1&#45;&gt;Node8 -->
<g id="edge7" class="edge">
<title>Node1&#45;&gt;Node8</title>
<path fill="none" stroke="midnightblue" d="M474.57,-213.86C453.59,-197.65 422.91,-176.02 393,-162.5 384.6,-158.7 375.52,-155.4 366.41,-152.56"/>
<polygon fill="midnightblue" stroke="midnightblue" points="472.63,-216.79 482.66,-220.22 476.96,-211.29 472.63,-216.79"/>
</g>
<!-- Node9 -->
<g id="node9" class="node">
<title>Node9</title>
<g id="a_node9"><a xlink:href="classPodmanRestartContainerCommand.html#ae4a585c345eafa6a97a1f38e4cb485ea" target="_top" xlink:title="Executes the command to restart a Podman container.">
<polygon fill="white" stroke="black" points="201.5,-73.5 201.5,-103.5 390.5,-103.5 390.5,-73.5 201.5,-73.5"/>
<text text-anchor="start" x="209.5" y="-91.5" font-family="Helvetica,sans-Serif" font-size="10.00">PodmanRestartContainerCommand</text>
<text text-anchor="middle" x="296" y="-80.5" font-family="Helvetica,sans-Serif" font-size="10.00">::Execute</text>
</a>
</g>
</g>
<!-- Node1&#45;&gt;Node9 -->
<g id="edge8" class="edge">
<title>Node1&#45;&gt;Node9</title>
<path fill="none" stroke="midnightblue" d="M486.14,-211.42C467.72,-183.62 433.72,-138.49 393,-113.5 386.69,-109.63 379.79,-106.35 372.68,-103.58"/>
<polygon fill="midnightblue" stroke="midnightblue" points="483.41,-213.64 491.78,-220.14 489.29,-209.84 483.41,-213.64"/>
</g>
<!-- Node10 -->
<g id="node10" class="node">
<title>Node10</title>
<g id="a_node10"><a xlink:href="classContainerServiceHandler.html#a16f0650a9d5719fc441541a2adc5f29a" target="_top" xlink:title="Handles a container request by dispatching to the appropriate operation.">
<polygon fill="white" stroke="black" points="227,-24.5 227,-54.5 365,-54.5 365,-24.5 227,-24.5"/>
<text text-anchor="start" x="235" y="-42.5" font-family="Helvetica,sans-Serif" font-size="10.00">ContainerServiceHandler</text>
<text text-anchor="middle" x="296" y="-31.5" font-family="Helvetica,sans-Serif" font-size="10.00">::HandleRequest</text>
</a>
</g>
</g>
<!-- Node1&#45;&gt;Node10 -->
<g id="edge9" class="edge">
<title>Node1&#45;&gt;Node10</title>
<path fill="none" stroke="midnightblue" d="M492.27,-210.85C477.71,-173.36 444.83,-102.38 393,-64.5 384.8,-58.5 375.27,-53.94 365.48,-50.48"/>
<polygon fill="midnightblue" stroke="midnightblue" points="489.1,-212.35 495.9,-220.48 495.65,-209.89 489.1,-212.35"/>
</g>
<!-- Node11 -->
<g id="node11" class="node">
<title>Node11</title>
<g id="a_node11"><a xlink:href="classJsonRequestExecutorHandler.html#aaf7c1c7c14971ccfda4076e0a4681f43" target="_top" xlink:title="Executes a request represented as a JSON string.">
<polygon fill="white" stroke="black" points="2.5,-49.5 2.5,-79.5 160.5,-79.5 160.5,-49.5 2.5,-49.5"/>
<text text-anchor="start" x="10.5" y="-67.5" font-family="Helvetica,sans-Serif" font-size="10.00">JsonRequestExecutorHandler</text>
<text text-anchor="middle" x="81.5" y="-56.5" font-family="Helvetica,sans-Serif" font-size="10.00">::Execute</text>
</a>
</g>
</g>
<!-- Node10&#45;&gt;Node11 -->
<g id="edge10" class="edge">
<title>Node10&#45;&gt;Node11</title>
<path fill="none" stroke="midnightblue" d="M216.83,-48.7C198.48,-50.86 178.92,-53.16 160.58,-55.31"/>
<polygon fill="midnightblue" stroke="midnightblue" points="217.36,-52.16 226.89,-47.51 216.55,-45.21 217.36,-52.16"/>
</g>
<!-- Node12 -->
<g id="node12" class="node">
<title>Node12</title>
<g id="a_node12"><a xlink:href="classProtoRequestExecutorHandler.html#a7255c2daf8946f8c73b0327cd4ad9156" target="_top" xlink:title="Executes a request and returns a JSON response.">
<polygon fill="white" stroke="black" points="0,-0.5 0,-30.5 163,-30.5 163,-0.5 0,-0.5"/>
<text text-anchor="start" x="8" y="-18.5" font-family="Helvetica,sans-Serif" font-size="10.00">ProtoRequestExecutorHandler</text>
<text text-anchor="middle" x="81.5" y="-7.5" font-family="Helvetica,sans-Serif" font-size="10.00">::Execute</text>
</a>
</g>
</g>
<!-- Node10&#45;&gt;Node12 -->
<g id="edge11" class="edge">
<title>Node10&#45;&gt;Node12</title>
<path fill="none" stroke="midnightblue" d="M216.75,-30.66C199.3,-28.69 180.76,-26.6 163.21,-24.62"/>
<polygon fill="midnightblue" stroke="midnightblue" points="216.56,-34.16 226.89,-31.81 217.34,-27.21 216.56,-34.16"/>
</g>
</g>
</svg>
