<?xml version="1.0" encoding="UTF-8" standalone="no"?>
<!DOCTYPE svg PUBLIC "-//W3C//DTD SVG 1.1//EN"
 "http://www.w3.org/Graphics/SVG/1.1/DTD/svg11.dtd">
<!-- Generated by graphviz version 2.43.0 (0)
 -->
<!-- Title: containermanager::ContainerParameters::MergeFrom Pages: 1 -->
<svg width="362pt" height="284pt"
 viewBox="0.00 0.00 362.00 284.00" xmlns="http://www.w3.org/2000/svg" xmlns:xlink="http://www.w3.org/1999/xlink">
<g id="graph0" class="graph" transform="scale(1 1) rotate(0) translate(4 280)">
<title>containermanager::ContainerParameters::MergeFrom</title>
<polygon fill="white" stroke="transparent" points="-4,4 -4,-280 358,-280 358,4 -4,4"/>
<!-- Node1 -->
<g id="node1" class="node">
<title>Node1</title>
<g id="a_node1"><a xlink:title=" ">
<polygon fill="#bfbfbf" stroke="black" points="0,-122.5 0,-152.5 159,-152.5 159,-122.5 0,-122.5"/>
<text text-anchor="start" x="8" y="-140.5" font-family="Helvetica,sans-Serif" font-size="10.00">containermanager::Container</text>
<text text-anchor="middle" x="79.5" y="-129.5" font-family="Helvetica,sans-Serif" font-size="10.00">Parameters::MergeFrom</text>
</a>
</g>
</g>
<!-- Node2 -->
<g id="node2" class="node">
<title>Node2</title>
<g id="a_node2"><a xlink:href="classcontainermanager_1_1ContainerParameters.html#a1fa02ce02859ee70a41e1b4fe203e412" target="_top" xlink:title=" ">
<polygon fill="white" stroke="black" points="195,-245.5 195,-275.5 354,-275.5 354,-245.5 195,-245.5"/>
<text text-anchor="start" x="203" y="-263.5" font-family="Helvetica,sans-Serif" font-size="10.00">containermanager::Container</text>
<text text-anchor="middle" x="274.5" y="-252.5" font-family="Helvetica,sans-Serif" font-size="10.00">Parameters::container_name</text>
</a>
</g>
</g>
<!-- Node1&#45;&gt;Node2 -->
<g id="edge1" class="edge">
<title>Node1&#45;&gt;Node2</title>
<path fill="none" stroke="midnightblue" d="M94.17,-152.81C114.25,-174.41 153.83,-213.75 195,-236.5 198.25,-238.29 201.65,-239.97 205.13,-241.54"/>
<polygon fill="midnightblue" stroke="midnightblue" points="203.94,-244.83 214.52,-245.43 206.62,-238.36 203.94,-244.83"/>
</g>
<!-- Node3 -->
<g id="node3" class="node">
<title>Node3</title>
<g id="a_node3"><a xlink:href="classcontainermanager_1_1ContainerParameters.html#af839132551bd6af4c89eb23d3eb1f34c" target="_top" xlink:title=" ">
<polygon fill="white" stroke="black" points="195,-196.5 195,-226.5 354,-226.5 354,-196.5 195,-196.5"/>
<text text-anchor="start" x="203" y="-214.5" font-family="Helvetica,sans-Serif" font-size="10.00">containermanager::Container</text>
<text text-anchor="middle" x="274.5" y="-203.5" font-family="Helvetica,sans-Serif" font-size="10.00">Parameters::cpus</text>
</a>
</g>
</g>
<!-- Node1&#45;&gt;Node3 -->
<g id="edge2" class="edge">
<title>Node1&#45;&gt;Node3</title>
<path fill="none" stroke="midnightblue" d="M112.18,-152.51C134.94,-163 166.52,-176.97 195,-187.5 200.39,-189.49 206.04,-191.46 211.72,-193.35"/>
<polygon fill="midnightblue" stroke="midnightblue" points="210.69,-196.69 221.28,-196.46 212.85,-190.04 210.69,-196.69"/>
</g>
<!-- Node4 -->
<g id="node4" class="node">
<title>Node4</title>
<g id="a_node4"><a xlink:href="classcontainermanager_1_1ContainerParameters.html#a59f4919cc9edc798ed20464e28128dd8" target="_top" xlink:title=" ">
<polygon fill="white" stroke="black" points="195,-147.5 195,-177.5 354,-177.5 354,-147.5 195,-147.5"/>
<text text-anchor="start" x="203" y="-165.5" font-family="Helvetica,sans-Serif" font-size="10.00">containermanager::Container</text>
<text text-anchor="middle" x="274.5" y="-154.5" font-family="Helvetica,sans-Serif" font-size="10.00">Parameters::image_name</text>
</a>
</g>
</g>
<!-- Node1&#45;&gt;Node4 -->
<g id="edge3" class="edge">
<title>Node1&#45;&gt;Node4</title>
<path fill="none" stroke="midnightblue" d="M159,-147.67C167.48,-148.77 176.14,-149.89 184.73,-151"/>
<polygon fill="midnightblue" stroke="midnightblue" points="184.39,-154.49 194.76,-152.3 185.29,-147.54 184.39,-154.49"/>
</g>
<!-- Node5 -->
<g id="node5" class="node">
<title>Node5</title>
<g id="a_node5"><a xlink:href="classcontainermanager_1_1ContainerParameters.html#a399f34ad96a2cef3179a3c72f251e2d0" target="_top" xlink:title=" ">
<polygon fill="white" stroke="black" points="195,-98.5 195,-128.5 354,-128.5 354,-98.5 195,-98.5"/>
<text text-anchor="start" x="203" y="-116.5" font-family="Helvetica,sans-Serif" font-size="10.00">containermanager::Container</text>
<text text-anchor="middle" x="274.5" y="-105.5" font-family="Helvetica,sans-Serif" font-size="10.00">Parameters::memory</text>
</a>
</g>
</g>
<!-- Node1&#45;&gt;Node5 -->
<g id="edge4" class="edge">
<title>Node1&#45;&gt;Node5</title>
<path fill="none" stroke="midnightblue" d="M159,-127.74C167.48,-126.68 176.14,-125.61 184.73,-124.54"/>
<polygon fill="midnightblue" stroke="midnightblue" points="185.26,-128 194.76,-123.29 184.4,-121.05 185.26,-128"/>
</g>
<!-- Node6 -->
<g id="node6" class="node">
<title>Node6</title>
<g id="a_node6"><a xlink:href="classcontainermanager_1_1ContainerParameters.html#a96b6ea6e5ad06ddab5701150627b7aca" target="_top" xlink:title=" ">
<polygon fill="white" stroke="black" points="195,-49.5 195,-79.5 354,-79.5 354,-49.5 195,-49.5"/>
<text text-anchor="start" x="203" y="-67.5" font-family="Helvetica,sans-Serif" font-size="10.00">containermanager::Container</text>
<text text-anchor="middle" x="274.5" y="-56.5" font-family="Helvetica,sans-Serif" font-size="10.00">Parameters::pids</text>
</a>
</g>
</g>
<!-- Node1&#45;&gt;Node6 -->
<g id="edge5" class="edge">
<title>Node1&#45;&gt;Node6</title>
<path fill="none" stroke="midnightblue" d="M114.26,-122.42C136.89,-112.54 167.49,-99.62 195,-89.5 201.22,-87.21 207.77,-84.93 214.31,-82.73"/>
<polygon fill="midnightblue" stroke="midnightblue" points="215.46,-86.04 223.86,-79.57 213.27,-79.39 215.46,-86.04"/>
</g>
<!-- Node7 -->
<g id="node7" class="node">
<title>Node7</title>
<g id="a_node7"><a xlink:href="classcontainermanager_1_1ContainerParameters.html#a51eb0c4c3c36e1e3326f34559917a304" target="_top" xlink:title=" ">
<polygon fill="white" stroke="black" points="195,-0.5 195,-30.5 354,-30.5 354,-0.5 195,-0.5"/>
<text text-anchor="start" x="203" y="-18.5" font-family="Helvetica,sans-Serif" font-size="10.00">containermanager::Container</text>
<text text-anchor="middle" x="274.5" y="-7.5" font-family="Helvetica,sans-Serif" font-size="10.00">Parameters::restart_policy</text>
</a>
</g>
</g>
<!-- Node1&#45;&gt;Node7 -->
<g id="edge6" class="edge">
<title>Node1&#45;&gt;Node7</title>
<path fill="none" stroke="midnightblue" d="M94.61,-122.23C114.92,-101.08 154.43,-62.96 195,-40.5 198.91,-38.34 203.03,-36.33 207.25,-34.47"/>
<polygon fill="midnightblue" stroke="midnightblue" points="208.69,-37.67 216.63,-30.65 206.05,-31.19 208.69,-37.67"/>
</g>
</g>
</svg>
