<?xml version="1.0" encoding="UTF-8" standalone="no"?>
<!DOCTYPE svg PUBLIC "-//W3C//DTD SVG 1.1//EN"
 "http://www.w3.org/Graphics/SVG/1.1/DTD/svg11.dtd">
<!-- Generated by graphviz version 2.43.0 (0)
 -->
<!-- Title: ContainerServiceHandler::ContainerOperations Pages: 1 -->
<svg width="521pt" height="104pt"
 viewBox="0.00 0.00 521.00 104.00" xmlns="http://www.w3.org/2000/svg" xmlns:xlink="http://www.w3.org/1999/xlink">
<g id="graph0" class="graph" transform="scale(1 1) rotate(0) translate(4 100)">
<title>ContainerServiceHandler::ContainerOperations</title>
<polygon fill="white" stroke="transparent" points="-4,4 -4,-100 517,-100 517,4 -4,4"/>
<!-- Node1 -->
<g id="node1" class="node">
<title>Node1</title>
<g id="a_node1"><a xlink:title="Performs the specified container operation.">
<polygon fill="#bfbfbf" stroke="black" points="0,-33 0,-63 138,-63 138,-33 0,-33"/>
<text text-anchor="start" x="8" y="-51" font-family="Helvetica,sans-Serif" font-size="10.00">ContainerServiceHandler</text>
<text text-anchor="middle" x="69" y="-40" font-family="Helvetica,sans-Serif" font-size="10.00">::ContainerOperations</text>
</a>
</g>
</g>
<!-- Node2 -->
<g id="node2" class="node">
<title>Node2</title>
<g id="a_node2"><a xlink:href="classCommandFactory.html#a1ce3fdcfe96e7dc24e40c05b4387442f" target="_top" xlink:title="Factory method to create a command based on the runtime type and command type.">
<polygon fill="white" stroke="black" points="174,-76.5 174,-95.5 365,-95.5 365,-76.5 174,-76.5"/>
<text text-anchor="middle" x="269.5" y="-83.5" font-family="Helvetica,sans-Serif" font-size="10.00">CommandFactory::CreateCommand</text>
</a>
</g>
</g>
<!-- Node1&#45;&gt;Node2 -->
<g id="edge1" class="edge">
<title>Node1&#45;&gt;Node2</title>
<path fill="none" stroke="midnightblue" d="M138.03,-61.02C161,-65.42 186.46,-70.29 208.74,-74.56"/>
<polygon fill="midnightblue" stroke="midnightblue" points="208.25,-78.03 218.73,-76.47 209.56,-71.15 208.25,-78.03"/>
</g>
<!-- Node3 -->
<g id="node3" class="node">
<title>Node3</title>
<g id="a_node3"><a xlink:href="classInvoker.html#a1459c66263ad54b3568e6b3d33d9256f" target="_top" xlink:title="Execute the command.">
<polygon fill="white" stroke="black" points="224,-38.5 224,-57.5 315,-57.5 315,-38.5 224,-38.5"/>
<text text-anchor="middle" x="269.5" y="-45.5" font-family="Helvetica,sans-Serif" font-size="10.00">Invoker::Invoke</text>
</a>
</g>
</g>
<!-- Node1&#45;&gt;Node3 -->
<g id="edge2" class="edge">
<title>Node1&#45;&gt;Node3</title>
<path fill="none" stroke="midnightblue" d="M138.03,-48C162.77,-48 190.38,-48 213.81,-48"/>
<polygon fill="midnightblue" stroke="midnightblue" points="213.92,-51.5 223.92,-48 213.92,-44.5 213.92,-51.5"/>
</g>
<!-- Node5 -->
<g id="node5" class="node">
<title>Node5</title>
<g id="a_node5"><a xlink:href="classInvoker.html#ae9f10a2487afd153bf0da69ae410a0e9" target="_top" xlink:title="Set the command to be executed.">
<polygon fill="white" stroke="black" points="207,-0.5 207,-19.5 332,-19.5 332,-0.5 207,-0.5"/>
<text text-anchor="middle" x="269.5" y="-7.5" font-family="Helvetica,sans-Serif" font-size="10.00">Invoker::SetCommand</text>
</a>
</g>
</g>
<!-- Node1&#45;&gt;Node5 -->
<g id="edge4" class="edge">
<title>Node1&#45;&gt;Node5</title>
<path fill="none" stroke="midnightblue" d="M138.03,-34.98C161,-30.58 186.46,-25.71 208.74,-21.44"/>
<polygon fill="midnightblue" stroke="midnightblue" points="209.56,-24.85 218.73,-19.53 208.25,-17.97 209.56,-24.85"/>
</g>
<!-- Node4 -->
<g id="node4" class="node">
<title>Node4</title>
<g id="a_node4"><a xlink:href="classCommand.html#ab04996232fade41af481e1a94c15f5e5" target="_top" xlink:title="Execute the command.">
<polygon fill="white" stroke="black" points="401,-38.5 401,-57.5 513,-57.5 513,-38.5 401,-38.5"/>
<text text-anchor="middle" x="457" y="-45.5" font-family="Helvetica,sans-Serif" font-size="10.00">Command::Execute</text>
</a>
</g>
</g>
<!-- Node3&#45;&gt;Node4 -->
<g id="edge3" class="edge">
<title>Node3&#45;&gt;Node4</title>
<path fill="none" stroke="midnightblue" d="M315.4,-48C338.02,-48 365.87,-48 390.79,-48"/>
<polygon fill="midnightblue" stroke="midnightblue" points="390.91,-51.5 400.91,-48 390.91,-44.5 390.91,-51.5"/>
</g>
</g>
</svg>
