<?xml version="1.0" encoding="UTF-8" standalone="no"?>
<!DOCTYPE svg PUBLIC "-//W3C//DTD SVG 1.1//EN"
 "http://www.w3.org/Graphics/SVG/1.1/DTD/svg11.dtd">
<!-- Generated by graphviz version 2.43.0 (0)
 -->
<!-- Title: PodmanStartContainerCommand::Execute Pages: 1 -->
<svg width="367pt" height="127pt"
 viewBox="0.00 0.00 367.00 126.50" xmlns="http://www.w3.org/2000/svg" xmlns:xlink="http://www.w3.org/1999/xlink">
<g id="graph0" class="graph" transform="scale(1 1) rotate(0) translate(4 122.5)">
<title>PodmanStartContainerCommand::Execute</title>
<polygon fill="white" stroke="transparent" points="-4,4 -4,-122.5 363,-122.5 363,4 -4,4"/>
<!-- Node1 -->
<g id="node1" class="node">
<title>Node1</title>
<g id="a_node1"><a xlink:title="Executes the command to start a Podman container.">
<polygon fill="#bfbfbf" stroke="black" points="0,-49.5 0,-79.5 177,-79.5 177,-49.5 0,-49.5"/>
<text text-anchor="start" x="8" y="-67.5" font-family="Helvetica,sans-Serif" font-size="10.00">PodmanStartContainerCommand</text>
<text text-anchor="middle" x="88.5" y="-56.5" font-family="Helvetica,sans-Serif" font-size="10.00">::Execute</text>
</a>
</g>
</g>
<!-- Node2 -->
<g id="node2" class="node">
<title>Node2</title>
<g id="a_node2"><a xlink:href="common_8hpp.html#a2f80aeff93aed5c1cc3d4c356d458b99" target="_top" xlink:title="Utility function to format command templates by replacing placeholders with actual values.">
<polygon fill="white" stroke="black" points="235.5,-99 235.5,-118 336.5,-118 336.5,-99 235.5,-99"/>
<text text-anchor="middle" x="286" y="-106" font-family="Helvetica,sans-Serif" font-size="10.00">FormatCommand</text>
</a>
</g>
</g>
<!-- Node1&#45;&gt;Node2 -->
<g id="edge1" class="edge">
<title>Node1&#45;&gt;Node2</title>
<path fill="none" stroke="midnightblue" d="M156.23,-79.52C181.3,-85.16 209.41,-91.49 232.95,-96.78"/>
<polygon fill="midnightblue" stroke="midnightblue" points="232.21,-100.21 242.73,-98.99 233.75,-93.38 232.21,-100.21"/>
</g>
<!-- Node3 -->
<g id="node3" class="node">
<title>Node3</title>
<g id="a_node3"><a xlink:href="classRedisDatabaseHandler.html#a07c65b208d5997ec20ed239dca4081ce" target="_top" xlink:title="Retrieves the singleton instance of the RedisDatabaseHandler.">
<polygon fill="white" stroke="black" points="222,-49.5 222,-79.5 350,-79.5 350,-49.5 222,-49.5"/>
<text text-anchor="start" x="230" y="-67.5" font-family="Helvetica,sans-Serif" font-size="10.00">RedisDatabaseHandler</text>
<text text-anchor="middle" x="286" y="-56.5" font-family="Helvetica,sans-Serif" font-size="10.00">::GetInstance</text>
</a>
</g>
</g>
<!-- Node1&#45;&gt;Node3 -->
<g id="edge2" class="edge">
<title>Node1&#45;&gt;Node3</title>
<path fill="none" stroke="midnightblue" d="M177.24,-64.5C188.74,-64.5 200.43,-64.5 211.66,-64.5"/>
<polygon fill="midnightblue" stroke="midnightblue" points="211.83,-68 221.83,-64.5 211.83,-61 211.83,-68"/>
</g>
<!-- Node4 -->
<g id="node4" class="node">
<title>Node4</title>
<g id="a_node4"><a xlink:href="classIDatabaseHandler.html#a10972030d1577974e9f86820e251c7d6" target="_top" xlink:title="Updates a specific field in the JSON object stored under the given key.">
<polygon fill="white" stroke="black" points="213,-0.5 213,-30.5 359,-30.5 359,-0.5 213,-0.5"/>
<text text-anchor="start" x="221" y="-18.5" font-family="Helvetica,sans-Serif" font-size="10.00">IDatabaseHandler::Update</text>
<text text-anchor="middle" x="286" y="-7.5" font-family="Helvetica,sans-Serif" font-size="10.00">Field</text>
</a>
</g>
</g>
<!-- Node1&#45;&gt;Node4 -->
<g id="edge3" class="edge">
<title>Node1&#45;&gt;Node4</title>
<path fill="none" stroke="midnightblue" d="M149.49,-49.47C170.31,-44.24 193.85,-38.35 215.39,-32.95"/>
<polygon fill="midnightblue" stroke="midnightblue" points="216.28,-36.33 225.13,-30.51 214.58,-29.54 216.28,-36.33"/>
</g>
</g>
</svg>
