<?xml version="1.0" encoding="UTF-8" standalone="no"?>
<!DOCTYPE svg PUBLIC "-//W3C//DTD SVG 1.1//EN"
 "http://www.w3.org/Graphics/SVG/1.1/DTD/svg11.dtd">
<!-- Generated by graphviz version 2.43.0 (0)
 -->
<!-- Title: DockerRemoveContainerCommand Pages: 1 -->
<svg width="223pt" height="193pt"
 viewBox="0.00 0.00 223.00 193.00" xmlns="http://www.w3.org/2000/svg" xmlns:xlink="http://www.w3.org/1999/xlink">
<g id="graph0" class="graph" transform="scale(1 1) rotate(0) translate(4 189)">
<title>DockerRemoveContainerCommand</title>
<polygon fill="white" stroke="transparent" points="-4,4 -4,-189 219,-189 219,4 -4,4"/>
<!-- Node1 -->
<g id="node1" class="node">
<title>Node1</title>
<g id="a_node1"><a xlink:title="Command to remove a Docker container and clean up database state.">
<polygon fill="#bfbfbf" stroke="black" points="0,-0.5 0,-79.5 215,-79.5 215,-0.5 0,-0.5"/>
<text text-anchor="middle" x="107.5" y="-67.5" font-family="Helvetica,sans-Serif" font-size="10.00">DockerRemoveContainerCommand</text>
<polyline fill="none" stroke="black" points="0,-60.5 215,-60.5 "/>
<text text-anchor="middle" x="107.5" y="-48.5" font-family="Helvetica,sans-Serif" font-size="10.00"> </text>
<polyline fill="none" stroke="black" points="0,-41.5 215,-41.5 "/>
<text text-anchor="start" x="8" y="-29.5" font-family="Helvetica,sans-Serif" font-size="10.00">+ DockerRemoveContainerCommand()</text>
<text text-anchor="start" x="8" y="-18.5" font-family="Helvetica,sans-Serif" font-size="10.00">+ ~DockerRemoveContainerCommand()</text>
<text text-anchor="start" x="8" y="-7.5" font-family="Helvetica,sans-Serif" font-size="10.00">+ Execute()</text>
</a>
</g>
</g>
<!-- Node2 -->
<g id="node2" class="node">
<title>Node2</title>
<g id="a_node2"><a xlink:href="classCommand.html" target="_top" xlink:title="Abstract base class for all commands.">
<polygon fill="white" stroke="black" points="60.5,-116.5 60.5,-184.5 154.5,-184.5 154.5,-116.5 60.5,-116.5"/>
<text text-anchor="middle" x="107.5" y="-172.5" font-family="Helvetica,sans-Serif" font-size="10.00">Command</text>
<polyline fill="none" stroke="black" points="60.5,-165.5 154.5,-165.5 "/>
<text text-anchor="middle" x="107.5" y="-153.5" font-family="Helvetica,sans-Serif" font-size="10.00"> </text>
<polyline fill="none" stroke="black" points="60.5,-146.5 154.5,-146.5 "/>
<text text-anchor="start" x="68.5" y="-134.5" font-family="Helvetica,sans-Serif" font-size="10.00">+ Execute()</text>
<text text-anchor="start" x="68.5" y="-123.5" font-family="Helvetica,sans-Serif" font-size="10.00">+ ~Command()</text>
</a>
</g>
</g>
<!-- Node2&#45;&gt;Node1 -->
<g id="edge1" class="edge">
<title>Node2&#45;&gt;Node1</title>
<path fill="none" stroke="midnightblue" d="M107.5,-106.27C107.5,-97.48 107.5,-88.28 107.5,-79.65"/>
<polygon fill="none" stroke="midnightblue" points="104,-106.36 107.5,-116.36 111,-106.36 104,-106.36"/>
</g>
</g>
</svg>
