<?xml version="1.0" encoding="UTF-8" standalone="no"?>
<!DOCTYPE svg PUBLIC "-//W3C//DTD SVG 1.1//EN"
 "http://www.w3.org/Graphics/SVG/1.1/DTD/svg11.dtd">
<!-- Generated by graphviz version 2.43.0 (0)
 -->
<!-- Title: containermanager::ContainerRequest::operation Pages: 1 -->
<svg width="418pt" height="394pt"
 viewBox="0.00 0.00 418.00 394.00" xmlns="http://www.w3.org/2000/svg" xmlns:xlink="http://www.w3.org/1999/xlink">
<g id="graph0" class="graph" transform="scale(1 1) rotate(0) translate(4 390)">
<title>containermanager::ContainerRequest::operation</title>
<polygon fill="white" stroke="transparent" points="-4,4 -4,-390 414,-390 414,4 -4,4"/>
<!-- Node1 -->
<g id="node1" class="node">
<title>Node1</title>
<g id="a_node1"><a xlink:title=" ">
<polygon fill="#bfbfbf" stroke="black" points="251,-174.5 251,-204.5 410,-204.5 410,-174.5 251,-174.5"/>
<text text-anchor="start" x="259" y="-192.5" font-family="Helvetica,sans-Serif" font-size="10.00">containermanager::Container</text>
<text text-anchor="middle" x="330.5" y="-181.5" font-family="Helvetica,sans-Serif" font-size="10.00">Request::operation</text>
</a>
</g>
</g>
<!-- Node2 -->
<g id="node2" class="node">
<title>Node2</title>
<g id="a_node2"><a xlink:href="classcontainermanager_1_1ContainerRequest.html#a07263f5c37155b38c048673795aa20d8" target="_top" xlink:title=" ">
<polygon fill="white" stroke="black" points="28,-355.5 28,-385.5 187,-385.5 187,-355.5 28,-355.5"/>
<text text-anchor="start" x="36" y="-373.5" font-family="Helvetica,sans-Serif" font-size="10.00">containermanager::Container</text>
<text text-anchor="middle" x="107.5" y="-362.5" font-family="Helvetica,sans-Serif" font-size="10.00">Request::ByteSizeLong</text>
</a>
</g>
</g>
<!-- Node1&#45;&gt;Node2 -->
<g id="edge1" class="edge">
<title>Node1&#45;&gt;Node2</title>
<path fill="none" stroke="midnightblue" d="M318.66,-213.94C301.77,-249.04 265.77,-313.15 215,-346.5 206.52,-352.07 196.94,-356.36 187.08,-359.66"/>
<polygon fill="midnightblue" stroke="midnightblue" points="321.84,-215.4 322.91,-204.86 315.5,-212.43 321.84,-215.4"/>
</g>
<!-- Node3 -->
<g id="node3" class="node">
<title>Node3</title>
<g id="a_node3"><a xlink:href="classcontainermanager_1_1ContainerRequest.html#ac2be470680f4991dcec9d5818abc53a2" target="_top" xlink:title=" ">
<polygon fill="white" stroke="black" points="28,-306.5 28,-336.5 187,-336.5 187,-306.5 28,-306.5"/>
<text text-anchor="start" x="36" y="-324.5" font-family="Helvetica,sans-Serif" font-size="10.00">containermanager::Container</text>
<text text-anchor="middle" x="107.5" y="-313.5" font-family="Helvetica,sans-Serif" font-size="10.00">Request::ContainerRequest</text>
</a>
</g>
</g>
<!-- Node1&#45;&gt;Node3 -->
<g id="edge2" class="edge">
<title>Node1&#45;&gt;Node3</title>
<path fill="none" stroke="midnightblue" d="M311.59,-212.57C291,-237.43 254.88,-276.28 215,-297.5 206.3,-302.13 196.74,-305.87 187.03,-308.89"/>
<polygon fill="midnightblue" stroke="midnightblue" points="314.37,-214.69 317.96,-204.72 308.94,-210.28 314.37,-214.69"/>
</g>
<!-- Node4 -->
<g id="node4" class="node">
<title>Node4</title>
<g id="a_node4"><a xlink:href="classProtoRequestExecutorHandler.html#a7255c2daf8946f8c73b0327cd4ad9156" target="_top" xlink:title="Receives a serialized protobuf string, deserializes, saves to DB, and returns result as JSON....">
<polygon fill="white" stroke="black" points="26,-257.5 26,-287.5 189,-287.5 189,-257.5 26,-257.5"/>
<text text-anchor="start" x="34" y="-275.5" font-family="Helvetica,sans-Serif" font-size="10.00">ProtoRequestExecutorHandler</text>
<text text-anchor="middle" x="107.5" y="-264.5" font-family="Helvetica,sans-Serif" font-size="10.00">::Execute</text>
</a>
</g>
</g>
<!-- Node1&#45;&gt;Node4 -->
<g id="edge3" class="edge">
<title>Node1&#45;&gt;Node4</title>
<path fill="none" stroke="midnightblue" d="M295.18,-209.6C272.93,-221.95 242.97,-237.3 215,-247.5 204.74,-251.24 193.72,-254.56 182.79,-257.47"/>
<polygon fill="midnightblue" stroke="midnightblue" points="296.92,-212.64 303.92,-204.69 293.49,-206.54 296.92,-212.64"/>
</g>
<!-- Node5 -->
<g id="node5" class="node">
<title>Node5</title>
<g id="a_node5"><a xlink:href="classcontainermanager_1_1ContainerRequest.html#ab2166ecc77d10413d90d2128f7cfe2ba" target="_top" xlink:title=" ">
<polygon fill="white" stroke="black" points="7.5,-197 7.5,-238 207.5,-238 207.5,-197 7.5,-197"/>
<text text-anchor="start" x="15.5" y="-226" font-family="Helvetica,sans-Serif" font-size="10.00">containermanager::Container</text>
<text text-anchor="start" x="15.5" y="-215" font-family="Helvetica,sans-Serif" font-size="10.00">Request::InternalSerializeWithCached</text>
<text text-anchor="middle" x="107.5" y="-204" font-family="Helvetica,sans-Serif" font-size="10.00">SizesToArray</text>
</a>
</g>
</g>
<!-- Node1&#45;&gt;Node5 -->
<g id="edge4" class="edge">
<title>Node1&#45;&gt;Node5</title>
<path fill="none" stroke="midnightblue" d="M240.99,-200.71C230.03,-202.1 218.77,-203.53 207.66,-204.94"/>
<polygon fill="midnightblue" stroke="midnightblue" points="241.48,-204.18 250.96,-199.45 240.6,-197.24 241.48,-204.18"/>
</g>
<!-- Node6 -->
<g id="node6" class="node">
<title>Node6</title>
<g id="a_node6"><a xlink:href="classcontainermanager_1_1ContainerRequest.html#ad956e8c08912d46fb56bb6dc899f8948" target="_top" xlink:title=" ">
<polygon fill="white" stroke="black" points="28,-147.5 28,-177.5 187,-177.5 187,-147.5 28,-147.5"/>
<text text-anchor="start" x="36" y="-165.5" font-family="Helvetica,sans-Serif" font-size="10.00">containermanager::Container</text>
<text text-anchor="middle" x="107.5" y="-154.5" font-family="Helvetica,sans-Serif" font-size="10.00">Request::MergeFrom</text>
</a>
</g>
</g>
<!-- Node1&#45;&gt;Node6 -->
<g id="edge5" class="edge">
<title>Node1&#45;&gt;Node6</title>
<path fill="none" stroke="midnightblue" d="M240.65,-178.64C222.95,-176.48 204.48,-174.23 187.16,-172.11"/>
<polygon fill="midnightblue" stroke="midnightblue" points="240.61,-182.17 250.96,-179.9 241.46,-175.22 240.61,-182.17"/>
</g>
<!-- Node7 -->
<g id="node7" class="node">
<title>Node7</title>
<g id="a_node7"><a xlink:href="classcontainermanager_1_1ContainerRequest.html#aeb9d3e541f395290711c3e930b76d7e2" target="_top" xlink:title=" ">
<polygon fill="white" stroke="black" points="0,-98.5 0,-128.5 215,-128.5 215,-98.5 0,-98.5"/>
<text text-anchor="start" x="8" y="-116.5" font-family="Helvetica,sans-Serif" font-size="10.00">containermanager::Container</text>
<text text-anchor="middle" x="107.5" y="-105.5" font-family="Helvetica,sans-Serif" font-size="10.00">Request::MergePartialFromCodedStream</text>
</a>
</g>
</g>
<!-- Node1&#45;&gt;Node7 -->
<g id="edge6" class="edge">
<title>Node1&#45;&gt;Node7</title>
<path fill="none" stroke="midnightblue" d="M290.72,-170.03C268.88,-159.63 240.87,-147.21 215,-138.5 204.11,-134.83 192.42,-131.5 180.91,-128.56"/>
<polygon fill="midnightblue" stroke="midnightblue" points="289.45,-173.31 299.98,-174.5 292.49,-167 289.45,-173.31"/>
</g>
<!-- Node8 -->
<g id="node8" class="node">
<title>Node8</title>
<g id="a_node8"><a xlink:href="classcontainermanager_1_1ContainerRequest.html#a9fcf39c4e200d820bedfac20ac26fbdc" target="_top" xlink:title=" ">
<polygon fill="white" stroke="black" points="13.5,-49.5 13.5,-79.5 201.5,-79.5 201.5,-49.5 13.5,-49.5"/>
<text text-anchor="start" x="21.5" y="-67.5" font-family="Helvetica,sans-Serif" font-size="10.00">containermanager::Container</text>
<text text-anchor="middle" x="107.5" y="-56.5" font-family="Helvetica,sans-Serif" font-size="10.00">Request::SerializeWithCachedSizes</text>
</a>
</g>
</g>
<!-- Node1&#45;&gt;Node8 -->
<g id="edge7" class="edge">
<title>Node1&#45;&gt;Node8</title>
<path fill="none" stroke="midnightblue" d="M309.87,-166.81C288.75,-143.84 253.02,-109.01 215,-89.5 207.4,-85.6 199.18,-82.29 190.79,-79.5"/>
<polygon fill="midnightblue" stroke="midnightblue" points="307.42,-169.32 316.72,-174.4 312.62,-164.63 307.42,-169.32"/>
</g>
<!-- Node9 -->
<g id="node9" class="node">
<title>Node9</title>
<g id="a_node9"><a xlink:href="classcontainermanager_1_1ContainerRequest.html#a4bbe8a0072aa243957f128766854283d" target="_top" xlink:title=" ">
<polygon fill="white" stroke="black" points="18,-0.5 18,-30.5 197,-30.5 197,-0.5 18,-0.5"/>
<text text-anchor="start" x="26" y="-18.5" font-family="Helvetica,sans-Serif" font-size="10.00">containermanager::Container</text>
<text text-anchor="middle" x="107.5" y="-7.5" font-family="Helvetica,sans-Serif" font-size="10.00">Request::set_allocated_operation</text>
</a>
</g>
</g>
<!-- Node1&#45;&gt;Node9 -->
<g id="edge8" class="edge">
<title>Node1&#45;&gt;Node9</title>
<path fill="none" stroke="midnightblue" d="M317.79,-165.42C300.25,-131.99 263.9,-72.06 215,-40.5 209.02,-36.64 202.5,-33.37 195.74,-30.61"/>
<polygon fill="midnightblue" stroke="midnightblue" points="314.76,-167.19 322.43,-174.5 321,-164 314.76,-167.19"/>
</g>
</g>
</svg>
