<?xml version="1.0" encoding="UTF-8" standalone="no"?>
<!DOCTYPE svg PUBLIC "-//W3C//DTD SVG 1.1//EN"
 "http://www.w3.org/Graphics/SVG/1.1/DTD/svg11.dtd">
<!-- Generated by graphviz version 2.43.0 (0)
 -->
<!-- Title: DockerStartContainerCommand::Execute Pages: 1 -->
<svg width="316pt" height="104pt"
 viewBox="0.00 0.00 316.00 104.00" xmlns="http://www.w3.org/2000/svg" xmlns:xlink="http://www.w3.org/1999/xlink">
<g id="graph0" class="graph" transform="scale(1 1) rotate(0) translate(4 100)">
<title>DockerStartContainerCommand::Execute</title>
<polygon fill="white" stroke="transparent" points="-4,4 -4,-100 312,-100 312,4 -4,4"/>
<!-- Node1 -->
<g id="node1" class="node">
<title>Node1</title>
<g id="a_node1"><a xlink:title="Executes the command to start a Docker container.">
<polygon fill="#bfbfbf" stroke="black" points="0,-33 0,-63 171,-63 171,-33 0,-33"/>
<text text-anchor="start" x="8" y="-51" font-family="Helvetica,sans-Serif" font-size="10.00">DockerStartContainerCommand</text>
<text text-anchor="middle" x="85.5" y="-40" font-family="Helvetica,sans-Serif" font-size="10.00">::Execute</text>
</a>
</g>
</g>
<!-- Node2 -->
<g id="node2" class="node">
<title>Node2</title>
<g id="a_node2"><a xlink:href="structStatus.html#ace3b560f6a5f4a2d62a02b6e03700538" target="_top" xlink:title="Returns an error Status with the given code and message.">
<polygon fill="white" stroke="black" points="219,-76.5 219,-95.5 296,-95.5 296,-76.5 219,-76.5"/>
<text text-anchor="middle" x="257.5" y="-83.5" font-family="Helvetica,sans-Serif" font-size="10.00">Status::Error</text>
</a>
</g>
</g>
<!-- Node1&#45;&gt;Node2 -->
<g id="edge1" class="edge">
<title>Node1&#45;&gt;Node2</title>
<path fill="none" stroke="midnightblue" d="M153.69,-63.02C171.98,-67.11 191.42,-71.45 208.42,-75.25"/>
<polygon fill="midnightblue" stroke="midnightblue" points="208.14,-78.78 218.66,-77.54 209.66,-71.94 208.14,-78.78"/>
</g>
<!-- Node3 -->
<g id="node3" class="node">
<title>Node3</title>
<g id="a_node3"><a xlink:href="common_8hpp.html#a2f80aeff93aed5c1cc3d4c356d458b99" target="_top" xlink:title="Utility function to format command templates by replacing placeholders with actual values.">
<polygon fill="white" stroke="black" points="207,-38.5 207,-57.5 308,-57.5 308,-38.5 207,-38.5"/>
<text text-anchor="middle" x="257.5" y="-45.5" font-family="Helvetica,sans-Serif" font-size="10.00">FormatCommand</text>
</a>
</g>
</g>
<!-- Node1&#45;&gt;Node3 -->
<g id="edge2" class="edge">
<title>Node1&#45;&gt;Node3</title>
<path fill="none" stroke="midnightblue" d="M171,-48C179.56,-48 188.12,-48 196.34,-48"/>
<polygon fill="midnightblue" stroke="midnightblue" points="196.54,-51.5 206.54,-48 196.54,-44.5 196.54,-51.5"/>
</g>
<!-- Node4 -->
<g id="node4" class="node">
<title>Node4</title>
<g id="a_node4"><a xlink:href="structStatus.html#ab516c5b687e7e334a1865fe28fd39122" target="_top" xlink:title="Returns a success Status.">
<polygon fill="white" stroke="black" points="224,-0.5 224,-19.5 291,-19.5 291,-0.5 224,-0.5"/>
<text text-anchor="middle" x="257.5" y="-7.5" font-family="Helvetica,sans-Serif" font-size="10.00">Status::Ok</text>
</a>
</g>
</g>
<!-- Node1&#45;&gt;Node4 -->
<g id="edge3" class="edge">
<title>Node1&#45;&gt;Node4</title>
<path fill="none" stroke="midnightblue" d="M153.69,-32.98C173.95,-28.45 195.63,-23.61 213.84,-19.54"/>
<polygon fill="midnightblue" stroke="midnightblue" points="214.84,-22.9 223.84,-17.3 213.31,-16.07 214.84,-22.9"/>
</g>
</g>
</svg>
