<?xml version="1.0" encoding="UTF-8" standalone="no"?>
<!DOCTYPE svg PUBLIC "-//W3C//DTD SVG 1.1//EN"
 "http://www.w3.org/Graphics/SVG/1.1/DTD/svg11.dtd">
<!-- Generated by graphviz version 2.43.0 (0)
 -->
<!-- Title: RedisDatabaseHandler::GetInstance Pages: 1 -->
<!--zoomable 568 -->
<svg id="main" version="1.1" xmlns="http://www.w3.org/2000/svg" xmlns:xlink="http://www.w3.org/1999/xlink" xml:space="preserve" onload="init(evt)">
<style type="text/css"><![CDATA[
.edge:hover path { stroke: red; }
.edge:hover polygon { stroke: red; fill: red; }
]]></style>
<script type="text/javascript"><![CDATA[
var edges = document.getElementsByTagName('g');
if (edges && edges.length) {
  for (var i=0;i<edges.length;i++) {
    if (edges[i].id.substr(0,4)=='edge') {
      edges[i].setAttribute('class','edge');
    }
  }
}
]]></script>
        <defs>
                <circle id="rim" cx="0" cy="0" r="7"/>
                <circle id="rim2" cx="0" cy="0" r="3.5"/>
                <g id="zoomPlus">
                        <use xlink:href="#rim" fill="#404040">
                                <set attributeName="fill" to="#808080" begin="zoomplus.mouseover" end="zoomplus.mouseout"/>
                        </use>
                        <path d="M-4,0h8M0,-4v8" fill="none" stroke="white" stroke-width="1.5" pointer-events="none"/>
                </g>
                <g id="zoomMin">
                        <use xlink:href="#rim" fill="#404040">
                                <set attributeName="fill" to="#808080" begin="zoomminus.mouseover" end="zoomminus.mouseout"/>
                        </use>
                        <path d="M-4,0h8" fill="none" stroke="white" stroke-width="1.5" pointer-events="none"/>
                </g>
                <g id="dirArrow">
                        <path fill="none" stroke="white" stroke-width="1.5" d="M0,-3.0v7 M-2.5,-0.5L0,-3.0L2.5,-0.5"/>
                </g>
               <g id="resetDef">
                       <use xlink:href="#rim2" fill="#404040">
                               <set attributeName="fill" to="#808080" begin="reset.mouseover" end="reset.mouseout"/>
                       </use>
               </g>
        </defs>

<script type="text/javascript">
var viewWidth = 545;
var viewHeight = 568;
var sectionId = 'dynsection-2';
</script>
<script xlink:href="svgpan.js"/>
<svg id="graph" class="graph">
<g id="viewport">
<title>RedisDatabaseHandler::GetInstance</title>
<polygon fill="white" stroke="transparent" points="-4,4 -4,-563.5 541,-563.5 541,4 -4,4"/>
<!-- Node1 -->
<g id="node1" class="node">
<title>Node1</title>
<g id="a_node1"><a xlink:title="Retrieves the singleton instance of the RedisDatabaseHandler.">
<polygon fill="#bfbfbf" stroke="black" points="409,-259 409,-289 537,-289 537,-259 409,-259"/>
<text text-anchor="start" x="417" y="-277" font-family="Helvetica,sans-Serif" font-size="10.00">RedisDatabaseHandler</text>
<text text-anchor="middle" x="473" y="-266" font-family="Helvetica,sans-Serif" font-size="10.00">::GetInstance</text>
</a>
</g>
</g>
<!-- Node2 -->
<g id="node2" class="node">
<title>Node2</title>
<g id="a_node2"><a xlink:href="classJsonRequestExecutorHandler.html#aaf7c1c7c14971ccfda4076e0a4681f43" target="_top" xlink:title="Executes a request represented as a JSON string.">
<polygon fill="white" stroke="black" points="197,-529 197,-559 355,-559 355,-529 197,-529"/>
<text text-anchor="start" x="205" y="-547" font-family="Helvetica,sans-Serif" font-size="10.00">JsonRequestExecutorHandler</text>
<text text-anchor="middle" x="276" y="-536" font-family="Helvetica,sans-Serif" font-size="10.00">::Execute</text>
</a>
</g>
</g>
<!-- Node1&#45;&gt;Node2 -->
<g id="edge1" class="edge">
<title>Node1&#45;&gt;Node2</title>
<path fill="none" stroke="midnightblue" d="M469.36,-299.07C462.74,-348.96 440.76,-460.98 373,-520 367.69,-524.63 361.62,-528.39 355.16,-531.44"/>
<polygon fill="midnightblue" stroke="midnightblue" points="472.84,-299.48 470.59,-289.13 465.89,-298.63 472.84,-299.48"/>
</g>
<!-- Node3 -->
<g id="node3" class="node">
<title>Node3</title>
<g id="a_node3"><a xlink:href="classDockerCreateContainerCommand.html#a8967ee094698e00a212c67f71870de06" target="_top" xlink:title="Executes the command to create a Docker container.">
<polygon fill="white" stroke="black" points="186,-480 186,-510 366,-510 366,-480 186,-480"/>
<text text-anchor="start" x="194" y="-498" font-family="Helvetica,sans-Serif" font-size="10.00">DockerCreateContainerCommand</text>
<text text-anchor="middle" x="276" y="-487" font-family="Helvetica,sans-Serif" font-size="10.00">::Execute</text>
</a>
</g>
</g>
<!-- Node1&#45;&gt;Node3 -->
<g id="edge2" class="edge">
<title>Node1&#45;&gt;Node3</title>
<path fill="none" stroke="midnightblue" d="M466.59,-299.02C456.14,-341.17 429.08,-426.11 373,-471 368.71,-474.44 363.99,-477.39 359.02,-479.92"/>
<polygon fill="midnightblue" stroke="midnightblue" points="470.06,-299.58 468.95,-289.04 463.24,-297.97 470.06,-299.58"/>
</g>
<!-- Node4 -->
<g id="node4" class="node">
<title>Node4</title>
<g id="a_node4"><a xlink:href="classPodmanCreateContainerCommand.html#aca31055904b1fb20736ed5807e215ae6" target="_top" xlink:title="Executes the command to create a Podman container.">
<polygon fill="white" stroke="black" points="183,-431 183,-461 369,-461 369,-431 183,-431"/>
<text text-anchor="start" x="191" y="-449" font-family="Helvetica,sans-Serif" font-size="10.00">PodmanCreateContainerCommand</text>
<text text-anchor="middle" x="276" y="-438" font-family="Helvetica,sans-Serif" font-size="10.00">::Execute</text>
</a>
</g>
</g>
<!-- Node1&#45;&gt;Node4 -->
<g id="edge3" class="edge">
<title>Node1&#45;&gt;Node4</title>
<path fill="none" stroke="midnightblue" d="M462.25,-298.75C447.85,-332 417.68,-390.57 373,-422 368.08,-425.46 362.71,-428.42 357.11,-430.96"/>
<polygon fill="midnightblue" stroke="midnightblue" points="465.57,-299.87 466.21,-289.3 459.12,-297.17 465.57,-299.87"/>
</g>
<!-- Node5 -->
<g id="node5" class="node">
<title>Node5</title>
<g id="a_node5"><a xlink:href="classDockerStartContainerCommand.html#ad208f99e4185a7606a0a9903d1346fcc" target="_top" xlink:title="Executes the command to start a Docker container.">
<polygon fill="white" stroke="black" points="190.5,-382 190.5,-412 361.5,-412 361.5,-382 190.5,-382"/>
<text text-anchor="start" x="198.5" y="-400" font-family="Helvetica,sans-Serif" font-size="10.00">DockerStartContainerCommand</text>
<text text-anchor="middle" x="276" y="-389" font-family="Helvetica,sans-Serif" font-size="10.00">::Execute</text>
</a>
</g>
</g>
<!-- Node1&#45;&gt;Node5 -->
<g id="edge4" class="edge">
<title>Node1&#45;&gt;Node5</title>
<path fill="none" stroke="midnightblue" d="M454.82,-297.41C436.91,-320.12 406.76,-353.89 373,-373 366.87,-376.47 360.24,-379.44 353.43,-381.99"/>
<polygon fill="midnightblue" stroke="midnightblue" points="457.74,-299.35 461.07,-289.3 452.2,-295.08 457.74,-299.35"/>
</g>
<!-- Node6 -->
<g id="node6" class="node">
<title>Node6</title>
<g id="a_node6"><a xlink:href="classPodmanStartContainerCommand.html#aaf7627e6faf5974ffcd95e8a5f58852f" target="_top" xlink:title="Executes the command to start a Podman container.">
<polygon fill="white" stroke="black" points="187.5,-333 187.5,-363 364.5,-363 364.5,-333 187.5,-333"/>
<text text-anchor="start" x="195.5" y="-351" font-family="Helvetica,sans-Serif" font-size="10.00">PodmanStartContainerCommand</text>
<text text-anchor="middle" x="276" y="-340" font-family="Helvetica,sans-Serif" font-size="10.00">::Execute</text>
</a>
</g>
</g>
<!-- Node1&#45;&gt;Node6 -->
<g id="edge5" class="edge">
<title>Node1&#45;&gt;Node6</title>
<path fill="none" stroke="midnightblue" d="M437.27,-293.94C418.66,-304 395.08,-315.78 373,-324 364.14,-327.3 354.66,-330.28 345.23,-332.94"/>
<polygon fill="midnightblue" stroke="midnightblue" points="439.16,-296.89 446.24,-289.01 435.79,-290.76 439.16,-296.89"/>
</g>
<!-- Node7 -->
<g id="node7" class="node">
<title>Node7</title>
<g id="a_node7"><a xlink:href="classDockerStopContainerCommand.html#a4d6a495edca166958eee65ca601bc5bd" target="_top" xlink:title="Executes the command to stop a Docker container.">
<polygon fill="white" stroke="black" points="191,-284 191,-314 361,-314 361,-284 191,-284"/>
<text text-anchor="start" x="199" y="-302" font-family="Helvetica,sans-Serif" font-size="10.00">DockerStopContainerCommand</text>
<text text-anchor="middle" x="276" y="-291" font-family="Helvetica,sans-Serif" font-size="10.00">::Execute</text>
</a>
</g>
</g>
<!-- Node1&#45;&gt;Node7 -->
<g id="edge6" class="edge">
<title>Node1&#45;&gt;Node7</title>
<path fill="none" stroke="midnightblue" d="M398.79,-283.39C386.5,-284.96 373.67,-286.61 361.14,-288.21"/>
<polygon fill="midnightblue" stroke="midnightblue" points="399.48,-286.83 408.96,-282.08 398.59,-279.88 399.48,-286.83"/>
</g>
<!-- Node8 -->
<g id="node8" class="node">
<title>Node8</title>
<g id="a_node8"><a xlink:href="classPodmanStopContainerCommand.html#a42d7bf3c2ae604172ae1e1ae29bdc0c6" target="_top" xlink:title="Executes the command to stop a Podman container.">
<polygon fill="white" stroke="black" points="188,-235 188,-265 364,-265 364,-235 188,-235"/>
<text text-anchor="start" x="196" y="-253" font-family="Helvetica,sans-Serif" font-size="10.00">PodmanStopContainerCommand</text>
<text text-anchor="middle" x="276" y="-242" font-family="Helvetica,sans-Serif" font-size="10.00">::Execute</text>
</a>
</g>
</g>
<!-- Node1&#45;&gt;Node8 -->
<g id="edge7" class="edge">
<title>Node1&#45;&gt;Node8</title>
<path fill="none" stroke="midnightblue" d="M398.78,-264.99C387.53,-263.6 375.82,-262.16 364.3,-260.75"/>
<polygon fill="midnightblue" stroke="midnightblue" points="398.61,-268.49 408.96,-266.24 399.46,-261.55 398.61,-268.49"/>
</g>
<!-- Node9 -->
<g id="node9" class="node">
<title>Node9</title>
<g id="a_node9"><a xlink:href="classDockerRemoveContainerCommand.html#a0c15063652bf92deb99a742a4a9f61fd" target="_top" xlink:title="Executes the command to remove a Docker container and clean up database state.">
<polygon fill="white" stroke="black" points="182,-186 182,-216 370,-216 370,-186 182,-186"/>
<text text-anchor="start" x="190" y="-204" font-family="Helvetica,sans-Serif" font-size="10.00">DockerRemoveContainerCommand</text>
<text text-anchor="middle" x="276" y="-193" font-family="Helvetica,sans-Serif" font-size="10.00">::Execute</text>
</a>
</g>
</g>
<!-- Node1&#45;&gt;Node9 -->
<g id="edge8" class="edge">
<title>Node1&#45;&gt;Node9</title>
<path fill="none" stroke="midnightblue" d="M435.57,-254.21C417.18,-244.77 394.31,-233.85 373,-226 363.06,-222.34 352.36,-218.99 341.83,-216.02"/>
<polygon fill="midnightblue" stroke="midnightblue" points="433.99,-257.33 444.48,-258.84 437.22,-251.12 433.99,-257.33"/>
</g>
<!-- Node10 -->
<g id="node10" class="node">
<title>Node10</title>
<g id="a_node10"><a xlink:href="classPodmanRemoveContainerCommand.html#a3bb0bf30e7f91e87c407980e1adcc398" target="_top" xlink:title="Executes the command to remove a Podman container and clean up database state.">
<polygon fill="white" stroke="black" points="179,-137 179,-167 373,-167 373,-137 179,-137"/>
<text text-anchor="start" x="187" y="-155" font-family="Helvetica,sans-Serif" font-size="10.00">PodmanRemoveContainerCommand</text>
<text text-anchor="middle" x="276" y="-144" font-family="Helvetica,sans-Serif" font-size="10.00">::Execute</text>
</a>
</g>
</g>
<!-- Node1&#45;&gt;Node10 -->
<g id="edge9" class="edge">
<title>Node1&#45;&gt;Node10</title>
<path fill="none" stroke="midnightblue" d="M454.38,-250.77C436.32,-228.58 406.24,-195.81 373,-177 366.18,-173.14 358.75,-169.86 351.15,-167.08"/>
<polygon fill="midnightblue" stroke="midnightblue" points="451.73,-253.06 460.69,-258.71 457.2,-248.71 451.73,-253.06"/>
</g>
<!-- Node11 -->
<g id="node11" class="node">
<title>Node11</title>
<g id="a_node11"><a xlink:href="classDockerRestartContainerCommand.html#a3852a9870150e02cde5e3f3cabf4d5d9" target="_top" xlink:title="Executes the command to restart a Docker container.">
<polygon fill="white" stroke="black" points="184.5,-88 184.5,-118 367.5,-118 367.5,-88 184.5,-88"/>
<text text-anchor="start" x="192.5" y="-106" font-family="Helvetica,sans-Serif" font-size="10.00">DockerRestartContainerCommand</text>
<text text-anchor="middle" x="276" y="-95" font-family="Helvetica,sans-Serif" font-size="10.00">::Execute</text>
</a>
</g>
</g>
<!-- Node1&#45;&gt;Node11 -->
<g id="edge10" class="edge">
<title>Node1&#45;&gt;Node11</title>
<path fill="none" stroke="midnightblue" d="M462.12,-249.65C447.56,-216.91 417.21,-159.22 373,-128 367.51,-124.13 361.47,-120.85 355.17,-118.08"/>
<polygon fill="midnightblue" stroke="midnightblue" points="458.95,-251.15 466.12,-258.95 465.38,-248.38 458.95,-251.15"/>
</g>
<!-- Node12 -->
<g id="node12" class="node">
<title>Node12</title>
<g id="a_node12"><a xlink:href="classPodmanRestartContainerCommand.html#ae4a585c345eafa6a97a1f38e4cb485ea" target="_top" xlink:title="Executes the command to restart a Podman container.">
<polygon fill="white" stroke="black" points="181.5,-39 181.5,-69 370.5,-69 370.5,-39 181.5,-39"/>
<text text-anchor="start" x="189.5" y="-57" font-family="Helvetica,sans-Serif" font-size="10.00">PodmanRestartContainerCommand</text>
<text text-anchor="middle" x="276" y="-46" font-family="Helvetica,sans-Serif" font-size="10.00">::Execute</text>
</a>
</g>
</g>
<!-- Node1&#45;&gt;Node12 -->
<g id="edge11" class="edge">
<title>Node1&#45;&gt;Node12</title>
<path fill="none" stroke="midnightblue" d="M466.39,-248.98C455.7,-207.23 428.36,-123.58 373,-79 368.17,-75.11 362.8,-71.82 357.14,-69.04"/>
<polygon fill="midnightblue" stroke="midnightblue" points="463.03,-249.99 468.81,-258.87 469.83,-248.33 463.03,-249.99"/>
</g>
<!-- Node13 -->
<g id="node13" class="node">
<title>Node13</title>
<g id="a_node13"><a xlink:href="init__handler_8cpp.html#a3ca899cad245b508cfb58fd9230fa669" target="_top" xlink:title="Initializes and clears the database.">
<polygon fill="white" stroke="black" points="236.5,-0.5 236.5,-19.5 315.5,-19.5 315.5,-0.5 236.5,-0.5"/>
<text text-anchor="middle" x="276" y="-7.5" font-family="Helvetica,sans-Serif" font-size="10.00">InitDatabase</text>
</a>
</g>
</g>
<!-- Node1&#45;&gt;Node13 -->
<g id="edge12" class="edge">
<title>Node1&#45;&gt;Node13</title>
<path fill="none" stroke="midnightblue" d="M469.49,-248.91C463.1,-198.99 441.51,-87.16 373,-30 357.18,-16.8 334.87,-11.61 315.74,-9.81"/>
<polygon fill="midnightblue" stroke="midnightblue" points="466.02,-249.33 470.67,-258.85 472.97,-248.51 466.02,-249.33"/>
</g>
<!-- Node14 -->
<g id="node14" class="node">
<title>Node14</title>
<g id="a_node14"><a xlink:href="init__handler_8cpp.html#ad98029164064eb3e856369697d9cc015" target="_top" xlink:title="Initializes all enabled project subsystems.">
<polygon fill="white" stroke="black" points="77,-0.5 77,-19.5 143,-19.5 143,-0.5 77,-0.5"/>
<text text-anchor="middle" x="110" y="-7.5" font-family="Helvetica,sans-Serif" font-size="10.00">InitProject</text>
</a>
</g>
</g>
<!-- Node13&#45;&gt;Node14 -->
<g id="edge13" class="edge">
<title>Node13&#45;&gt;Node14</title>
<path fill="none" stroke="midnightblue" d="M225.82,-10C199.08,-10 166.77,-10 143.25,-10"/>
<polygon fill="midnightblue" stroke="midnightblue" points="226.13,-13.5 236.13,-10 226.13,-6.5 226.13,-13.5"/>
</g>
<!-- Node15 -->
<g id="node15" class="node">
<title>Node15</title>
<g id="a_node15"><a xlink:href="main_8cpp.html#ae66f6b31b5ad750f1fe042a706a4e3d4" target="_top" xlink:title="Main function for the Container Manager application.">
<polygon fill="white" stroke="black" points="0,-0.5 0,-19.5 41,-19.5 41,-0.5 0,-0.5"/>
<text text-anchor="middle" x="20.5" y="-7.5" font-family="Helvetica,sans-Serif" font-size="10.00">main</text>
</a>
</g>
</g>
<!-- Node14&#45;&gt;Node15 -->
<g id="edge14" class="edge">
<title>Node14&#45;&gt;Node15</title>
<path fill="none" stroke="midnightblue" d="M66.87,-10C57.87,-10 48.77,-10 41.11,-10"/>
<polygon fill="midnightblue" stroke="midnightblue" points="66.92,-13.5 76.92,-10 66.92,-6.5 66.92,-13.5"/>
</g>
</g>
</svg>
        <g id="navigator" transform="translate(0 0)" fill="#404254">
                <rect fill="#f2f5e9" fill-opacity="0.5" stroke="#606060" stroke-width=".5" x="0" y="0" width="60" height="60"/>
                <use id="zoomplus" xlink:href="#zoomPlus" x="17" y="9" onmousedown="handleZoom(evt,'in')"/>
                <use id="zoomminus" xlink:href="#zoomMin" x="42" y="9" onmousedown="handleZoom(evt,'out')"/>
                <use id="reset" xlink:href="#resetDef" x="30" y="36" onmousedown="handleReset()"/>
                <g id="arrowUp" xlink:href="#dirArrow" transform="translate(30 24)" onmousedown="handlePan(0,-1)">
                  <use xlink:href="#rim" fill="#404040">
                        <set attributeName="fill" to="#808080" begin="arrowUp.mouseover" end="arrowUp.mouseout"/>
                  </use>
                  <path fill="none" stroke="white" stroke-width="1.5" d="M0,-3.0v7 M-2.5,-0.5L0,-3.0L2.5,-0.5"/>
                </g>
                <g id="arrowRight" xlink:href="#dirArrow" transform="rotate(90) translate(36 -43)" onmousedown="handlePan(1,0)">
                  <use xlink:href="#rim" fill="#404040">
                        <set attributeName="fill" to="#808080" begin="arrowRight.mouseover" end="arrowRight.mouseout"/>
                  </use>
                  <path fill="none" stroke="white" stroke-width="1.5" d="M0,-3.0v7 M-2.5,-0.5L0,-3.0L2.5,-0.5"/>
                </g>
                <g id="arrowDown" xlink:href="#dirArrow" transform="rotate(180) translate(-30 -48)" onmousedown="handlePan(0,1)">
                  <use xlink:href="#rim" fill="#404040">
                        <set attributeName="fill" to="#808080" begin="arrowDown.mouseover" end="arrowDown.mouseout"/>
                  </use>
                  <path fill="none" stroke="white" stroke-width="1.5" d="M0,-3.0v7 M-2.5,-0.5L0,-3.0L2.5,-0.5"/>
                </g>
                <g id="arrowLeft" xlink:href="#dirArrow" transform="rotate(270) translate(-36 17)" onmousedown="handlePan(-1,0)">
                  <use xlink:href="#rim" fill="#404040">
                        <set attributeName="fill" to="#808080" begin="arrowLeft.mouseover" end="arrowLeft.mouseout"/>
                  </use>
                  <path fill="none" stroke="white" stroke-width="1.5" d="M0,-3.0v7 M-2.5,-0.5L0,-3.0L2.5,-0.5"/>
                </g>
        </g>
        <svg viewBox="0 0 15 15" width="100%" height="30px" preserveAspectRatio="xMaxYMin meet">
         <g id="arrow_out" transform="scale(0.3 0.3)">
          <a xlink:href="classRedisDatabaseHandler_a07c65b208d5997ec20ed239dca4081ce_icgraph_org.svg" target="_base">
           <rect id="button" ry="5" rx="5" y="6" x="6" height="38" width="38"
                fill="#f2f5e9" fill-opacity="0.5" stroke="#606060" stroke-width="1.0"/>
           <path id="arrow"
             d="M 11.500037,31.436501 C 11.940474,20.09759 22.043105,11.32322 32.158766,21.979434 L 37.068811,17.246167 C 37.068811,17.246167 37.088388,32 37.088388,32 L 22.160133,31.978069 C 22.160133,31.978069 26.997745,27.140456 26.997745,27.140456 C 18.528582,18.264221 13.291696,25.230495 11.500037,31.436501 z"
             style="fill:#404040;"/>
          </a>
         </g>
        </svg>
</svg>
