<?xml version="1.0" encoding="UTF-8" standalone="no"?>
<!DOCTYPE svg PUBLIC "-//W3C//DTD SVG 1.1//EN"
 "http://www.w3.org/Graphics/SVG/1.1/DTD/svg11.dtd">
<!-- Generated by graphviz version 2.43.0 (0)
 -->
<!-- Title: DockerApiRemoveContainerCommand::Execute Pages: 1 -->
<svg width="366pt" height="142pt"
 viewBox="0.00 0.00 366.00 142.00" xmlns="http://www.w3.org/2000/svg" xmlns:xlink="http://www.w3.org/1999/xlink">
<g id="graph0" class="graph" transform="scale(1 1) rotate(0) translate(4 138)">
<title>DockerApiRemoveContainerCommand::Execute</title>
<polygon fill="white" stroke="transparent" points="-4,4 -4,-138 362,-138 362,4 -4,4"/>
<!-- Node1 -->
<g id="node1" class="node">
<title>Node1</title>
<g id="a_node1"><a xlink:title="Executes the command to remove a Docker container via the API.">
<polygon fill="#bfbfbf" stroke="black" points="0,-52 0,-82 154,-82 154,-52 0,-52"/>
<text text-anchor="start" x="8" y="-70" font-family="Helvetica,sans-Serif" font-size="10.00">DockerApiRemoveContainer</text>
<text text-anchor="middle" x="77" y="-59" font-family="Helvetica,sans-Serif" font-size="10.00">Command::Execute</text>
</a>
</g>
</g>
<!-- Node2 -->
<g id="node2" class="node">
<title>Node2</title>
<g id="a_node2"><a xlink:href="common_8hpp.html#a6ef961c11398422cd4dd9b4f66a57d03" target="_top" xlink:title="Compose a container API endpoint for Docker or Podman API.">
<polygon fill="white" stroke="black" points="190,-114.5 190,-133.5 358,-133.5 358,-114.5 190,-114.5"/>
<text text-anchor="middle" x="274" y="-121.5" font-family="Helvetica,sans-Serif" font-size="10.00">ComposeContainerApiEndpoint</text>
</a>
</g>
</g>
<!-- Node1&#45;&gt;Node2 -->
<g id="edge1" class="edge">
<title>Node1&#45;&gt;Node2</title>
<path fill="none" stroke="midnightblue" d="M119.17,-82.09C140.2,-89.51 166.29,-98.28 190,-105 198.88,-107.52 208.36,-109.93 217.63,-112.15"/>
<polygon fill="midnightblue" stroke="midnightblue" points="217.02,-115.61 227.56,-114.48 218.62,-108.79 217.02,-115.61"/>
</g>
<!-- Node3 -->
<g id="node3" class="node">
<title>Node3</title>
<g id="a_node3"><a xlink:href="classCurlHandler.html#a576e7a125e092c05b15eba5050b0409e" target="_top" xlink:title="Perform a HTTP DELETE request over a Unix domain socket.">
<polygon fill="white" stroke="black" points="206.5,-76.5 206.5,-95.5 341.5,-95.5 341.5,-76.5 206.5,-76.5"/>
<text text-anchor="middle" x="274" y="-83.5" font-family="Helvetica,sans-Serif" font-size="10.00">CurlHandler::DeleteUnix</text>
</a>
</g>
</g>
<!-- Node1&#45;&gt;Node3 -->
<g id="edge2" class="edge">
<title>Node1&#45;&gt;Node3</title>
<path fill="none" stroke="midnightblue" d="M154.23,-74.43C168.07,-75.78 182.51,-77.18 196.36,-78.53"/>
<polygon fill="midnightblue" stroke="midnightblue" points="196.03,-82.02 206.32,-79.5 196.71,-75.05 196.03,-82.02"/>
</g>
<!-- Node4 -->
<g id="node4" class="node">
<title>Node4</title>
<g id="a_node4"><a xlink:href="structStatus.html#ace3b560f6a5f4a2d62a02b6e03700538" target="_top" xlink:title="Returns an error Status with the given code and message.">
<polygon fill="white" stroke="black" points="235.5,-38.5 235.5,-57.5 312.5,-57.5 312.5,-38.5 235.5,-38.5"/>
<text text-anchor="middle" x="274" y="-45.5" font-family="Helvetica,sans-Serif" font-size="10.00">Status::Error</text>
</a>
</g>
</g>
<!-- Node1&#45;&gt;Node4 -->
<g id="edge3" class="edge">
<title>Node1&#45;&gt;Node4</title>
<path fill="none" stroke="midnightblue" d="M154.23,-59.57C178.19,-57.24 203.95,-54.73 225.34,-52.64"/>
<polygon fill="midnightblue" stroke="midnightblue" points="225.84,-56.11 235.46,-51.66 225.16,-49.14 225.84,-56.11"/>
</g>
<!-- Node5 -->
<g id="node5" class="node">
<title>Node5</title>
<g id="a_node5"><a xlink:href="structStatus.html#ab516c5b687e7e334a1865fe28fd39122" target="_top" xlink:title="Returns a success Status.">
<polygon fill="white" stroke="black" points="240.5,-0.5 240.5,-19.5 307.5,-19.5 307.5,-0.5 240.5,-0.5"/>
<text text-anchor="middle" x="274" y="-7.5" font-family="Helvetica,sans-Serif" font-size="10.00">Status::Ok</text>
</a>
</g>
</g>
<!-- Node1&#45;&gt;Node5 -->
<g id="edge4" class="edge">
<title>Node1&#45;&gt;Node5</title>
<path fill="none" stroke="midnightblue" d="M119.17,-51.91C140.2,-44.49 166.29,-35.72 190,-29 203.02,-25.31 217.34,-21.83 230.36,-18.88"/>
<polygon fill="midnightblue" stroke="midnightblue" points="231.48,-22.22 240.48,-16.64 229.96,-15.39 231.48,-22.22"/>
</g>
</g>
</svg>
