<?xml version="1.0" encoding="UTF-8" standalone="no"?>
<!DOCTYPE svg PUBLIC "-//W3C//DTD SVG 1.1//EN"
 "http://www.w3.org/Graphics/SVG/1.1/DTD/svg11.dtd">
<!-- Generated by graphviz version 2.43.0 (0)
 -->
<!-- Title: RedisDatabaseHandler Pages: 1 -->
<svg width="163pt" height="303pt"
 viewBox="0.00 0.00 163.00 303.00" xmlns="http://www.w3.org/2000/svg" xmlns:xlink="http://www.w3.org/1999/xlink">
<g id="graph0" class="graph" transform="scale(1 1) rotate(0) translate(4 299)">
<title>RedisDatabaseHandler</title>
<polygon fill="white" stroke="transparent" points="-4,4 -4,-299 159,-299 159,4 -4,4"/>
<!-- Node1 -->
<g id="node1" class="node">
<title>Node1</title>
<g id="a_node1"><a xlink:title="Class for interacting with a Redis database backend.">
<polygon fill="#bfbfbf" stroke="black" points="0,-0.5 0,-145.5 155,-145.5 155,-0.5 0,-0.5"/>
<text text-anchor="middle" x="77.5" y="-133.5" font-family="Helvetica,sans-Serif" font-size="10.00">RedisDatabaseHandler</text>
<polyline fill="none" stroke="black" points="0,-126.5 155,-126.5 "/>
<text text-anchor="middle" x="77.5" y="-114.5" font-family="Helvetica,sans-Serif" font-size="10.00"> </text>
<polyline fill="none" stroke="black" points="0,-107.5 155,-107.5 "/>
<text text-anchor="start" x="8" y="-95.5" font-family="Helvetica,sans-Serif" font-size="10.00">+ RedisDatabaseHandler()</text>
<text text-anchor="start" x="8" y="-84.5" font-family="Helvetica,sans-Serif" font-size="10.00">+ ~RedisDatabaseHandler()</text>
<text text-anchor="start" x="8" y="-73.5" font-family="Helvetica,sans-Serif" font-size="10.00">+ SaveJson()</text>
<text text-anchor="start" x="8" y="-62.5" font-family="Helvetica,sans-Serif" font-size="10.00">+ GetJson()</text>
<text text-anchor="start" x="8" y="-51.5" font-family="Helvetica,sans-Serif" font-size="10.00">+ ClearDatabase()</text>
<text text-anchor="start" x="8" y="-40.5" font-family="Helvetica,sans-Serif" font-size="10.00">+ UpdateField()</text>
<text text-anchor="start" x="8" y="-29.5" font-family="Helvetica,sans-Serif" font-size="10.00">+ RemoveKey()</text>
<text text-anchor="start" x="8" y="-18.5" font-family="Helvetica,sans-Serif" font-size="10.00">+ RedisDatabaseHandler()</text>
<text text-anchor="start" x="8" y="-7.5" font-family="Helvetica,sans-Serif" font-size="10.00">+ operator=()</text>
</a>
</g>
</g>
<!-- Node2 -->
<g id="node2" class="node">
<title>Node2</title>
<g id="a_node2"><a xlink:href="classIDatabaseHandler.html" target="_top" xlink:title="Interface for database handlers supporting JSON storage and retrieval.">
<polygon fill="white" stroke="black" points="12,-182.5 12,-294.5 143,-294.5 143,-182.5 12,-182.5"/>
<text text-anchor="middle" x="77.5" y="-282.5" font-family="Helvetica,sans-Serif" font-size="10.00">IDatabaseHandler</text>
<polyline fill="none" stroke="black" points="12,-275.5 143,-275.5 "/>
<text text-anchor="middle" x="77.5" y="-263.5" font-family="Helvetica,sans-Serif" font-size="10.00"> </text>
<polyline fill="none" stroke="black" points="12,-256.5 143,-256.5 "/>
<text text-anchor="start" x="20" y="-244.5" font-family="Helvetica,sans-Serif" font-size="10.00">+ ~IDatabaseHandler()</text>
<text text-anchor="start" x="20" y="-233.5" font-family="Helvetica,sans-Serif" font-size="10.00">+ SaveJson()</text>
<text text-anchor="start" x="20" y="-222.5" font-family="Helvetica,sans-Serif" font-size="10.00">+ GetJson()</text>
<text text-anchor="start" x="20" y="-211.5" font-family="Helvetica,sans-Serif" font-size="10.00">+ ClearDatabase()</text>
<text text-anchor="start" x="20" y="-200.5" font-family="Helvetica,sans-Serif" font-size="10.00">+ UpdateField()</text>
<text text-anchor="start" x="20" y="-189.5" font-family="Helvetica,sans-Serif" font-size="10.00">+ RemoveKey()</text>
</a>
</g>
</g>
<!-- Node2&#45;&gt;Node1 -->
<g id="edge1" class="edge">
<title>Node2&#45;&gt;Node1</title>
<path fill="none" stroke="midnightblue" d="M77.5,-172.05C77.5,-163.33 77.5,-154.35 77.5,-145.53"/>
<polygon fill="none" stroke="midnightblue" points="74,-172.15 77.5,-182.15 81,-172.15 74,-172.15"/>
</g>
</g>
</svg>
