<?xml version="1.0" encoding="UTF-8" standalone="no"?>
<!DOCTYPE svg PUBLIC "-//W3C//DTD SVG 1.1//EN"
 "http://www.w3.org/Graphics/SVG/1.1/DTD/svg11.dtd">
<!-- Generated by graphviz version 2.43.0 (0)
 -->
<!-- Title: containermanager::ContainerRequest::ByteSizeLong Pages: 1 -->
<svg width="362pt" height="186pt"
 viewBox="0.00 0.00 362.00 186.00" xmlns="http://www.w3.org/2000/svg" xmlns:xlink="http://www.w3.org/1999/xlink">
<g id="graph0" class="graph" transform="scale(1 1) rotate(0) translate(4 182)">
<title>containermanager::ContainerRequest::ByteSizeLong</title>
<polygon fill="white" stroke="transparent" points="-4,4 -4,-182 358,-182 358,4 -4,4"/>
<!-- Node1 -->
<g id="node1" class="node">
<title>Node1</title>
<g id="a_node1"><a xlink:title=" ">
<polygon fill="#bfbfbf" stroke="black" points="0,-73.5 0,-103.5 159,-103.5 159,-73.5 0,-73.5"/>
<text text-anchor="start" x="8" y="-91.5" font-family="Helvetica,sans-Serif" font-size="10.00">containermanager::Container</text>
<text text-anchor="middle" x="79.5" y="-80.5" font-family="Helvetica,sans-Serif" font-size="10.00">Request::ByteSizeLong</text>
</a>
</g>
</g>
<!-- Node2 -->
<g id="node2" class="node">
<title>Node2</title>
<g id="a_node2"><a xlink:href="classcontainermanager_1_1ContainerRequest.html#a28ace998fd1164adc2da2f87d4f45ab0" target="_top" xlink:title=" ">
<polygon fill="white" stroke="black" points="195,-147.5 195,-177.5 354,-177.5 354,-147.5 195,-147.5"/>
<text text-anchor="start" x="203" y="-165.5" font-family="Helvetica,sans-Serif" font-size="10.00">containermanager::Container</text>
<text text-anchor="middle" x="274.5" y="-154.5" font-family="Helvetica,sans-Serif" font-size="10.00">Request::operation</text>
</a>
</g>
</g>
<!-- Node1&#45;&gt;Node2 -->
<g id="edge1" class="edge">
<title>Node1&#45;&gt;Node2</title>
<path fill="none" stroke="midnightblue" d="M112.18,-103.51C134.94,-114 166.52,-127.97 195,-138.5 200.39,-140.49 206.04,-142.46 211.72,-144.35"/>
<polygon fill="midnightblue" stroke="midnightblue" points="210.69,-147.69 221.28,-147.46 212.85,-141.04 210.69,-147.69"/>
</g>
<!-- Node3 -->
<g id="node3" class="node">
<title>Node3</title>
<g id="a_node3"><a xlink:href="classcontainermanager_1_1ContainerRequest.html#a9cd8d5cff94e72249a84e86da9b61516" target="_top" xlink:title=" ">
<polygon fill="white" stroke="black" points="195,-98.5 195,-128.5 354,-128.5 354,-98.5 195,-98.5"/>
<text text-anchor="start" x="203" y="-116.5" font-family="Helvetica,sans-Serif" font-size="10.00">containermanager::Container</text>
<text text-anchor="middle" x="274.5" y="-105.5" font-family="Helvetica,sans-Serif" font-size="10.00">Request::parameters</text>
</a>
</g>
</g>
<!-- Node1&#45;&gt;Node3 -->
<g id="edge2" class="edge">
<title>Node1&#45;&gt;Node3</title>
<path fill="none" stroke="midnightblue" d="M159,-98.67C167.48,-99.77 176.14,-100.89 184.73,-102"/>
<polygon fill="midnightblue" stroke="midnightblue" points="184.39,-105.49 194.76,-103.3 185.29,-98.54 184.39,-105.49"/>
</g>
<!-- Node4 -->
<g id="node4" class="node">
<title>Node4</title>
<g id="a_node4"><a xlink:href="classcontainermanager_1_1ContainerRequest.html#ad565a5ce010924a70d8dd2fe5586d219" target="_top" xlink:title=" ">
<polygon fill="white" stroke="black" points="195,-49.5 195,-79.5 354,-79.5 354,-49.5 195,-49.5"/>
<text text-anchor="start" x="203" y="-67.5" font-family="Helvetica,sans-Serif" font-size="10.00">containermanager::Container</text>
<text text-anchor="middle" x="274.5" y="-56.5" font-family="Helvetica,sans-Serif" font-size="10.00">Request::parameters_size</text>
</a>
</g>
</g>
<!-- Node1&#45;&gt;Node4 -->
<g id="edge3" class="edge">
<title>Node1&#45;&gt;Node4</title>
<path fill="none" stroke="midnightblue" d="M159,-78.74C167.48,-77.68 176.14,-76.61 184.73,-75.54"/>
<polygon fill="midnightblue" stroke="midnightblue" points="185.26,-79 194.76,-74.29 184.4,-72.05 185.26,-79"/>
</g>
<!-- Node5 -->
<g id="node5" class="node">
<title>Node5</title>
<g id="a_node5"><a xlink:href="classcontainermanager_1_1ContainerRequest.html#a83c720592fa42a002f8a88c190cecfa5" target="_top" xlink:title=" ">
<polygon fill="white" stroke="black" points="195,-0.5 195,-30.5 354,-30.5 354,-0.5 195,-0.5"/>
<text text-anchor="start" x="203" y="-18.5" font-family="Helvetica,sans-Serif" font-size="10.00">containermanager::Container</text>
<text text-anchor="middle" x="274.5" y="-7.5" font-family="Helvetica,sans-Serif" font-size="10.00">Request::runtime</text>
</a>
</g>
</g>
<!-- Node1&#45;&gt;Node5 -->
<g id="edge4" class="edge">
<title>Node1&#45;&gt;Node5</title>
<path fill="none" stroke="midnightblue" d="M114.26,-73.42C136.89,-63.54 167.49,-50.62 195,-40.5 201.22,-38.21 207.77,-35.93 214.31,-33.73"/>
<polygon fill="midnightblue" stroke="midnightblue" points="215.46,-37.04 223.86,-30.57 213.27,-30.39 215.46,-37.04"/>
</g>
</g>
</svg>
