<?xml version="1.0" encoding="UTF-8" standalone="no"?>
<!DOCTYPE svg PUBLIC "-//W3C//DTD SVG 1.1//EN"
 "http://www.w3.org/Graphics/SVG/1.1/DTD/svg11.dtd">
<!-- Generated by graphviz version 2.43.0 (0)
 -->
<!-- Title: PodmanCreateContainerCommand::Execute Pages: 1 -->
<svg width="331pt" height="104pt"
 viewBox="0.00 0.00 331.00 104.00" xmlns="http://www.w3.org/2000/svg" xmlns:xlink="http://www.w3.org/1999/xlink">
<g id="graph0" class="graph" transform="scale(1 1) rotate(0) translate(4 100)">
<title>PodmanCreateContainerCommand::Execute</title>
<polygon fill="white" stroke="transparent" points="-4,4 -4,-100 327,-100 327,4 -4,4"/>
<!-- Node1 -->
<g id="node1" class="node">
<title>Node1</title>
<g id="a_node1"><a xlink:title="Executes the command to create a Podman container.">
<polygon fill="#bfbfbf" stroke="black" points="0,-33 0,-63 186,-63 186,-33 0,-33"/>
<text text-anchor="start" x="8" y="-51" font-family="Helvetica,sans-Serif" font-size="10.00">PodmanCreateContainerCommand</text>
<text text-anchor="middle" x="93" y="-40" font-family="Helvetica,sans-Serif" font-size="10.00">::Execute</text>
</a>
</g>
</g>
<!-- Node2 -->
<g id="node2" class="node">
<title>Node2</title>
<g id="a_node2"><a xlink:href="structStatus.html#ace3b560f6a5f4a2d62a02b6e03700538" target="_top" xlink:title="Returns an error Status with the given code and message.">
<polygon fill="white" stroke="black" points="234,-76.5 234,-95.5 311,-95.5 311,-76.5 234,-76.5"/>
<text text-anchor="middle" x="272.5" y="-83.5" font-family="Helvetica,sans-Serif" font-size="10.00">Status::Error</text>
</a>
</g>
</g>
<!-- Node1&#45;&gt;Node2 -->
<g id="edge1" class="edge">
<title>Node1&#45;&gt;Node2</title>
<path fill="none" stroke="midnightblue" d="M164.15,-63.02C184.27,-67.32 205.71,-71.92 224.11,-75.85"/>
<polygon fill="midnightblue" stroke="midnightblue" points="223.47,-79.3 233.99,-77.97 224.94,-72.45 223.47,-79.3"/>
</g>
<!-- Node3 -->
<g id="node3" class="node">
<title>Node3</title>
<g id="a_node3"><a xlink:href="common_8hpp.html#a2f80aeff93aed5c1cc3d4c356d458b99" target="_top" xlink:title="Utility function to format command templates by replacing placeholders with actual values.">
<polygon fill="white" stroke="black" points="222,-38.5 222,-57.5 323,-57.5 323,-38.5 222,-38.5"/>
<text text-anchor="middle" x="272.5" y="-45.5" font-family="Helvetica,sans-Serif" font-size="10.00">FormatCommand</text>
</a>
</g>
</g>
<!-- Node1&#45;&gt;Node3 -->
<g id="edge2" class="edge">
<title>Node1&#45;&gt;Node3</title>
<path fill="none" stroke="midnightblue" d="M186.13,-48C194.8,-48 203.42,-48 211.67,-48"/>
<polygon fill="midnightblue" stroke="midnightblue" points="211.89,-51.5 221.89,-48 211.89,-44.5 211.89,-51.5"/>
</g>
<!-- Node4 -->
<g id="node4" class="node">
<title>Node4</title>
<g id="a_node4"><a xlink:href="structStatus.html#ab516c5b687e7e334a1865fe28fd39122" target="_top" xlink:title="Returns a success Status.">
<polygon fill="white" stroke="black" points="239,-0.5 239,-19.5 306,-19.5 306,-0.5 239,-0.5"/>
<text text-anchor="middle" x="272.5" y="-7.5" font-family="Helvetica,sans-Serif" font-size="10.00">Status::Ok</text>
</a>
</g>
</g>
<!-- Node1&#45;&gt;Node4 -->
<g id="edge3" class="edge">
<title>Node1&#45;&gt;Node4</title>
<path fill="none" stroke="midnightblue" d="M164.15,-32.98C186,-28.3 209.43,-23.29 228.8,-19.14"/>
<polygon fill="midnightblue" stroke="midnightblue" points="229.78,-22.51 238.82,-17 228.31,-15.67 229.78,-22.51"/>
</g>
</g>
</svg>
