<?xml version="1.0" encoding="UTF-8" standalone="no"?>
<!DOCTYPE svg PUBLIC "-//W3C//DTD SVG 1.1//EN"
 "http://www.w3.org/Graphics/SVG/1.1/DTD/svg11.dtd">
<!-- Generated by graphviz version 2.43.0 (0)
 -->
<!-- Title: containermanager::ContainerParameters::restart_policy Pages: 1 -->
<svg width="408pt" height="369pt"
 viewBox="0.00 0.00 408.00 368.50" xmlns="http://www.w3.org/2000/svg" xmlns:xlink="http://www.w3.org/1999/xlink">
<g id="graph0" class="graph" transform="scale(1 1) rotate(0) translate(4 364.5)">
<title>containermanager::ContainerParameters::restart_policy</title>
<polygon fill="white" stroke="transparent" points="-4,4 -4,-364.5 404,-364.5 404,4 -4,4"/>
<!-- Node1 -->
<g id="node1" class="node">
<title>Node1</title>
<g id="a_node1"><a xlink:title=" ">
<polygon fill="#bfbfbf" stroke="black" points="241,-171 241,-201 400,-201 400,-171 241,-171"/>
<text text-anchor="start" x="249" y="-189" font-family="Helvetica,sans-Serif" font-size="10.00">containermanager::Container</text>
<text text-anchor="middle" x="320.5" y="-178" font-family="Helvetica,sans-Serif" font-size="10.00">Parameters::restart_policy</text>
</a>
</g>
</g>
<!-- Node2 -->
<g id="node2" class="node">
<title>Node2</title>
<g id="a_node2"><a xlink:href="classcontainermanager_1_1ContainerParameters.html#a6596180db4da81bbaf81f434e379f0ab" target="_top" xlink:title=" ">
<polygon fill="white" stroke="black" points="23,-330 23,-360 182,-360 182,-330 23,-330"/>
<text text-anchor="start" x="31" y="-348" font-family="Helvetica,sans-Serif" font-size="10.00">containermanager::Container</text>
<text text-anchor="middle" x="102.5" y="-337" font-family="Helvetica,sans-Serif" font-size="10.00">Parameters::ByteSizeLong</text>
</a>
</g>
</g>
<!-- Node1&#45;&gt;Node2 -->
<g id="edge1" class="edge">
<title>Node1&#45;&gt;Node2</title>
<path fill="none" stroke="midnightblue" d="M305.82,-210.08C287.1,-240.73 250.59,-293.06 205,-321 197.9,-325.35 190.07,-328.92 182.01,-331.83"/>
<polygon fill="midnightblue" stroke="midnightblue" points="308.93,-211.69 311.04,-201.31 302.92,-208.11 308.93,-211.69"/>
</g>
<!-- Node3 -->
<g id="node3" class="node">
<title>Node3</title>
<g id="a_node3"><a xlink:href="classcontainermanager_1_1ContainerParameters.html#a2fee4e0c315fa483968409ecdd02545c" target="_top" xlink:title=" ">
<polygon fill="white" stroke="black" points="11.5,-281 11.5,-311 193.5,-311 193.5,-281 11.5,-281"/>
<text text-anchor="start" x="19.5" y="-299" font-family="Helvetica,sans-Serif" font-size="10.00">containermanager::Container</text>
<text text-anchor="middle" x="102.5" y="-288" font-family="Helvetica,sans-Serif" font-size="10.00">Parameters::ContainerParameters</text>
</a>
</g>
</g>
<!-- Node1&#45;&gt;Node3 -->
<g id="edge2" class="edge">
<title>Node1&#45;&gt;Node3</title>
<path fill="none" stroke="midnightblue" d="M295.91,-207.96C273.96,-227.27 239.51,-254.75 205,-271 196.79,-274.87 187.92,-278.17 178.95,-281"/>
<polygon fill="midnightblue" stroke="midnightblue" points="298.29,-210.53 303.42,-201.26 293.63,-205.31 298.29,-210.53"/>
</g>
<!-- Node4 -->
<g id="node4" class="node">
<title>Node4</title>
<g id="a_node4"><a xlink:href="classcontainermanager_1_1ContainerParameters.html#a36de13559f731376aa286280030077ba" target="_top" xlink:title=" ">
<polygon fill="white" stroke="black" points="12,-220.5 12,-261.5 193,-261.5 193,-220.5 12,-220.5"/>
<text text-anchor="start" x="20" y="-249.5" font-family="Helvetica,sans-Serif" font-size="10.00">containermanager::Container</text>
<text text-anchor="start" x="20" y="-238.5" font-family="Helvetica,sans-Serif" font-size="10.00">Parameters::InternalSerializeWith</text>
<text text-anchor="middle" x="102.5" y="-227.5" font-family="Helvetica,sans-Serif" font-size="10.00">CachedSizesToArray</text>
</a>
</g>
</g>
<!-- Node1&#45;&gt;Node4 -->
<g id="edge3" class="edge">
<title>Node1&#45;&gt;Node4</title>
<path fill="none" stroke="midnightblue" d="M250.64,-203.53C229.54,-208.91 206.14,-214.87 184.31,-220.42"/>
<polygon fill="midnightblue" stroke="midnightblue" points="251.65,-206.89 260.48,-201.03 249.92,-200.1 251.65,-206.89"/>
</g>
<!-- Node5 -->
<g id="node5" class="node">
<title>Node5</title>
<g id="a_node5"><a xlink:href="classcontainermanager_1_1ContainerParameters.html#ad9cd6a95640deb798e3da50545edab5a" target="_top" xlink:title=" ">
<polygon fill="white" stroke="black" points="23,-171 23,-201 182,-201 182,-171 23,-171"/>
<text text-anchor="start" x="31" y="-189" font-family="Helvetica,sans-Serif" font-size="10.00">containermanager::Container</text>
<text text-anchor="middle" x="102.5" y="-178" font-family="Helvetica,sans-Serif" font-size="10.00">Parameters::MergeFrom</text>
</a>
</g>
</g>
<!-- Node1&#45;&gt;Node5 -->
<g id="edge4" class="edge">
<title>Node1&#45;&gt;Node5</title>
<path fill="none" stroke="midnightblue" d="M230.45,-186C214.4,-186 197.76,-186 182.03,-186"/>
<polygon fill="midnightblue" stroke="midnightblue" points="230.91,-189.5 240.91,-186 230.91,-182.5 230.91,-189.5"/>
</g>
<!-- Node6 -->
<g id="node6" class="node">
<title>Node6</title>
<g id="a_node6"><a xlink:href="classcontainermanager_1_1ContainerParameters.html#aa8cd2fad13af260eb2e0ea4d58eeee57" target="_top" xlink:title=" ">
<polygon fill="white" stroke="black" points="4,-110.5 4,-151.5 201,-151.5 201,-110.5 4,-110.5"/>
<text text-anchor="start" x="12" y="-139.5" font-family="Helvetica,sans-Serif" font-size="10.00">containermanager::Container</text>
<text text-anchor="start" x="12" y="-128.5" font-family="Helvetica,sans-Serif" font-size="10.00">Parameters::MergePartialFromCoded</text>
<text text-anchor="middle" x="102.5" y="-117.5" font-family="Helvetica,sans-Serif" font-size="10.00">Stream</text>
</a>
</g>
</g>
<!-- Node1&#45;&gt;Node6 -->
<g id="edge5" class="edge">
<title>Node1&#45;&gt;Node6</title>
<path fill="none" stroke="midnightblue" d="M250.64,-168.47C229.54,-163.09 206.14,-157.13 184.31,-151.58"/>
<polygon fill="midnightblue" stroke="midnightblue" points="249.92,-171.9 260.48,-170.97 251.65,-165.11 249.92,-171.9"/>
</g>
<!-- Node7 -->
<g id="node7" class="node">
<title>Node7</title>
<g id="a_node7"><a xlink:href="classcontainermanager_1_1ContainerParameters.html#a3861adae59d508844a3e8bdf892ba7e3" target="_top" xlink:title=" ">
<polygon fill="white" stroke="black" points="0,-61 0,-91 205,-91 205,-61 0,-61"/>
<text text-anchor="start" x="8" y="-79" font-family="Helvetica,sans-Serif" font-size="10.00">containermanager::Container</text>
<text text-anchor="middle" x="102.5" y="-68" font-family="Helvetica,sans-Serif" font-size="10.00">Parameters::SerializeWithCachedSizes</text>
</a>
</g>
</g>
<!-- Node1&#45;&gt;Node7 -->
<g id="edge6" class="edge">
<title>Node1&#45;&gt;Node7</title>
<path fill="none" stroke="midnightblue" d="M295.91,-164.04C273.96,-144.73 239.51,-117.25 205,-101 196.79,-97.13 187.92,-93.83 178.95,-91"/>
<polygon fill="midnightblue" stroke="midnightblue" points="293.63,-166.69 303.42,-170.74 298.29,-161.47 293.63,-166.69"/>
</g>
<!-- Node8 -->
<g id="node8" class="node">
<title>Node8</title>
<g id="a_node8"><a xlink:href="classcontainermanager_1_1ContainerParameters.html#a85612e7e015d18e2d798295374656261" target="_top" xlink:title=" ">
<polygon fill="white" stroke="black" points="23,-0.5 23,-41.5 182,-41.5 182,-0.5 23,-0.5"/>
<text text-anchor="start" x="31" y="-29.5" font-family="Helvetica,sans-Serif" font-size="10.00">containermanager::Container</text>
<text text-anchor="start" x="31" y="-18.5" font-family="Helvetica,sans-Serif" font-size="10.00">Parameters::set_allocated</text>
<text text-anchor="middle" x="102.5" y="-7.5" font-family="Helvetica,sans-Serif" font-size="10.00">_restart_policy</text>
</a>
</g>
</g>
<!-- Node1&#45;&gt;Node8 -->
<g id="edge7" class="edge">
<title>Node1&#45;&gt;Node8</title>
<path fill="none" stroke="midnightblue" d="M305.19,-162.07C286.04,-132.06 249.3,-81.03 205,-52 197.91,-47.35 190.09,-43.38 182.03,-39.98"/>
<polygon fill="midnightblue" stroke="midnightblue" points="302.29,-164.04 310.56,-170.67 308.23,-160.33 302.29,-164.04"/>
</g>
</g>
</svg>
