<?xml version="1.0" encoding="UTF-8" standalone="no"?>
<!DOCTYPE svg PUBLIC "-//W3C//DTD SVG 1.1//EN"
 "http://www.w3.org/Graphics/SVG/1.1/DTD/svg11.dtd">
<!-- Generated by graphviz version 2.43.0 (0)
 -->
<!-- Title: Command Pages: 1 -->
<svg width="4405pt" height="226pt"
 viewBox="0.00 0.00 4405.00 226.00" xmlns="http://www.w3.org/2000/svg" xmlns:xlink="http://www.w3.org/1999/xlink">
<g id="graph0" class="graph" transform="scale(1 1) rotate(0) translate(4 222)">
<title>Command</title>
<polygon fill="white" stroke="transparent" points="-4,4 -4,-222 4401,-222 4401,4 -4,4"/>
<!-- Node1 -->
<g id="node1" class="node">
<title>Node1</title>
<g id="a_node1"><a xlink:title="Abstract base class for all commands.">
<polygon fill="#bfbfbf" stroke="black" points="2115.5,-149.5 2115.5,-217.5 2209.5,-217.5 2209.5,-149.5 2115.5,-149.5"/>
<text text-anchor="middle" x="2162.5" y="-205.5" font-family="Helvetica,sans-Serif" font-size="10.00">Command</text>
<polyline fill="none" stroke="black" points="2115.5,-198.5 2209.5,-198.5 "/>
<text text-anchor="middle" x="2162.5" y="-186.5" font-family="Helvetica,sans-Serif" font-size="10.00"> </text>
<polyline fill="none" stroke="black" points="2115.5,-179.5 2209.5,-179.5 "/>
<text text-anchor="start" x="2123.5" y="-167.5" font-family="Helvetica,sans-Serif" font-size="10.00">+ Execute()</text>
<text text-anchor="start" x="2123.5" y="-156.5" font-family="Helvetica,sans-Serif" font-size="10.00">+ ~Command()</text>
</a>
</g>
</g>
<!-- Node2 -->
<g id="node2" class="node">
<title>Node2</title>
<g id="a_node2"><a xlink:href="classDockerApiCreateContainerCommand.html" target="_top" xlink:title=" ">
<polygon fill="white" stroke="black" points="0,-0.5 0,-112.5 165,-112.5 165,-0.5 0,-0.5"/>
<text text-anchor="start" x="8" y="-100.5" font-family="Helvetica,sans-Serif" font-size="10.00">DockerApiCreateContainer</text>
<text text-anchor="middle" x="82.5" y="-89.5" font-family="Helvetica,sans-Serif" font-size="10.00">Command</text>
<polyline fill="none" stroke="black" points="0,-82.5 165,-82.5 "/>
<text text-anchor="middle" x="82.5" y="-70.5" font-family="Helvetica,sans-Serif" font-size="10.00"> </text>
<polyline fill="none" stroke="black" points="0,-63.5 165,-63.5 "/>
<text text-anchor="start" x="8" y="-51.5" font-family="Helvetica,sans-Serif" font-size="10.00">+ DockerApiCreateContainer</text>
<text text-anchor="start" x="8" y="-40.5" font-family="Helvetica,sans-Serif" font-size="10.00">Command()</text>
<text text-anchor="start" x="8" y="-29.5" font-family="Helvetica,sans-Serif" font-size="10.00">+ ~DockerApiCreateContainer</text>
<text text-anchor="start" x="8" y="-18.5" font-family="Helvetica,sans-Serif" font-size="10.00">Command()</text>
<text text-anchor="start" x="8" y="-7.5" font-family="Helvetica,sans-Serif" font-size="10.00">+ Execute()</text>
</a>
</g>
</g>
<!-- Node1&#45;&gt;Node2 -->
<g id="edge1" class="edge">
<title>Node1&#45;&gt;Node2</title>
<path fill="none" stroke="midnightblue" d="M2104.82,-182.21C1797.91,-180.44 363.54,-169.18 174.5,-113 171.37,-112.07 168.24,-111.01 165.12,-109.84"/>
<polygon fill="none" stroke="midnightblue" points="2105.24,-185.71 2115.26,-182.27 2105.28,-178.71 2105.24,-185.71"/>
</g>
<!-- Node3 -->
<g id="node3" class="node">
<title>Node3</title>
<g id="a_node3"><a xlink:href="classDockerApiRuntimeAvailableCommand.html" target="_top" xlink:title=" ">
<polygon fill="white" stroke="black" points="183.5,-0.5 183.5,-112.5 355.5,-112.5 355.5,-0.5 183.5,-0.5"/>
<text text-anchor="start" x="191.5" y="-100.5" font-family="Helvetica,sans-Serif" font-size="10.00">DockerApiRuntimeAvailable</text>
<text text-anchor="middle" x="269.5" y="-89.5" font-family="Helvetica,sans-Serif" font-size="10.00">Command</text>
<polyline fill="none" stroke="black" points="183.5,-82.5 355.5,-82.5 "/>
<text text-anchor="middle" x="269.5" y="-70.5" font-family="Helvetica,sans-Serif" font-size="10.00"> </text>
<polyline fill="none" stroke="black" points="183.5,-63.5 355.5,-63.5 "/>
<text text-anchor="start" x="191.5" y="-51.5" font-family="Helvetica,sans-Serif" font-size="10.00">+ DockerApiRuntimeAvailable</text>
<text text-anchor="start" x="191.5" y="-40.5" font-family="Helvetica,sans-Serif" font-size="10.00">Command()</text>
<text text-anchor="start" x="191.5" y="-29.5" font-family="Helvetica,sans-Serif" font-size="10.00">+ ~DockerApiRuntimeAvailable</text>
<text text-anchor="start" x="191.5" y="-18.5" font-family="Helvetica,sans-Serif" font-size="10.00">Command()</text>
<text text-anchor="start" x="191.5" y="-7.5" font-family="Helvetica,sans-Serif" font-size="10.00">+ Execute()</text>
</a>
</g>
</g>
<!-- Node1&#45;&gt;Node3 -->
<g id="edge2" class="edge">
<title>Node1&#45;&gt;Node3</title>
<path fill="none" stroke="midnightblue" d="M2104.85,-181.93C1816.16,-178.88 534.65,-162.61 364.5,-113 361.57,-112.14 358.63,-111.18 355.7,-110.12"/>
<polygon fill="none" stroke="midnightblue" points="2105.06,-185.44 2115.1,-182.04 2105.13,-178.44 2105.06,-185.44"/>
</g>
<!-- Node4 -->
<g id="node4" class="node">
<title>Node4</title>
<g id="a_node4"><a xlink:href="classDockerApiStartContainerCommand.html" target="_top" xlink:title=" ">
<polygon fill="white" stroke="black" points="373.5,-11.5 373.5,-101.5 579.5,-101.5 579.5,-11.5 373.5,-11.5"/>
<text text-anchor="middle" x="476.5" y="-89.5" font-family="Helvetica,sans-Serif" font-size="10.00">DockerApiStartContainerCommand</text>
<polyline fill="none" stroke="black" points="373.5,-82.5 579.5,-82.5 "/>
<text text-anchor="middle" x="476.5" y="-70.5" font-family="Helvetica,sans-Serif" font-size="10.00"> </text>
<polyline fill="none" stroke="black" points="373.5,-63.5 579.5,-63.5 "/>
<text text-anchor="start" x="381.5" y="-51.5" font-family="Helvetica,sans-Serif" font-size="10.00">+ DockerApiStartContainerCommand()</text>
<text text-anchor="start" x="381.5" y="-40.5" font-family="Helvetica,sans-Serif" font-size="10.00">+ ~DockerApiStartContainer</text>
<text text-anchor="start" x="381.5" y="-29.5" font-family="Helvetica,sans-Serif" font-size="10.00">Command()</text>
<text text-anchor="start" x="381.5" y="-18.5" font-family="Helvetica,sans-Serif" font-size="10.00">+ Execute()</text>
</a>
</g>
</g>
<!-- Node1&#45;&gt;Node4 -->
<g id="edge3" class="edge">
<title>Node1&#45;&gt;Node4</title>
<path fill="none" stroke="midnightblue" d="M2104.95,-181.37C1839.2,-175.95 737.41,-151.36 588.5,-113 577.47,-110.16 566.25,-106.15 555.39,-101.57"/>
<polygon fill="none" stroke="midnightblue" points="2105.08,-184.87 2115.14,-181.58 2105.22,-177.87 2105.08,-184.87"/>
</g>
<!-- Node5 -->
<g id="node5" class="node">
<title>Node5</title>
<g id="a_node5"><a xlink:href="classDockerApiStopContainerCommand.html" target="_top" xlink:title=" ">
<polygon fill="white" stroke="black" points="597.5,-17 597.5,-96 809.5,-96 809.5,-17 597.5,-17"/>
<text text-anchor="middle" x="703.5" y="-84" font-family="Helvetica,sans-Serif" font-size="10.00">DockerApiStopContainerCommand</text>
<polyline fill="none" stroke="black" points="597.5,-77 809.5,-77 "/>
<text text-anchor="middle" x="703.5" y="-65" font-family="Helvetica,sans-Serif" font-size="10.00"> </text>
<polyline fill="none" stroke="black" points="597.5,-58 809.5,-58 "/>
<text text-anchor="start" x="605.5" y="-46" font-family="Helvetica,sans-Serif" font-size="10.00">+ DockerApiStopContainerCommand()</text>
<text text-anchor="start" x="605.5" y="-35" font-family="Helvetica,sans-Serif" font-size="10.00">+ ~DockerApiStopContainerCommand()</text>
<text text-anchor="start" x="605.5" y="-24" font-family="Helvetica,sans-Serif" font-size="10.00">+ Execute()</text>
</a>
</g>
</g>
<!-- Node1&#45;&gt;Node5 -->
<g id="edge4" class="edge">
<title>Node1&#45;&gt;Node5</title>
<path fill="none" stroke="midnightblue" d="M2105.04,-182.55C1881.16,-182.26 1067.49,-176.75 818.5,-113 802.93,-109.01 786.96,-102.83 772.05,-96.02"/>
<polygon fill="none" stroke="midnightblue" points="2105.24,-186.05 2115.25,-182.56 2105.25,-179.05 2105.24,-186.05"/>
</g>
<!-- Node6 -->
<g id="node6" class="node">
<title>Node6</title>
<g id="a_node6"><a xlink:href="classDockerCreateContainerCommand.html" target="_top" xlink:title="Command to create a Docker container with specified parameters.">
<polygon fill="white" stroke="black" points="828,-17 828,-96 1035,-96 1035,-17 828,-17"/>
<text text-anchor="middle" x="931.5" y="-84" font-family="Helvetica,sans-Serif" font-size="10.00">DockerCreateContainerCommand</text>
<polyline fill="none" stroke="black" points="828,-77 1035,-77 "/>
<text text-anchor="middle" x="931.5" y="-65" font-family="Helvetica,sans-Serif" font-size="10.00"> </text>
<polyline fill="none" stroke="black" points="828,-58 1035,-58 "/>
<text text-anchor="start" x="836" y="-46" font-family="Helvetica,sans-Serif" font-size="10.00">+ DockerCreateContainerCommand()</text>
<text text-anchor="start" x="836" y="-35" font-family="Helvetica,sans-Serif" font-size="10.00">+ ~DockerCreateContainerCommand()</text>
<text text-anchor="start" x="836" y="-24" font-family="Helvetica,sans-Serif" font-size="10.00">+ Execute()</text>
</a>
</g>
</g>
<!-- Node1&#45;&gt;Node6 -->
<g id="edge5" class="edge">
<title>Node1&#45;&gt;Node6</title>
<path fill="none" stroke="midnightblue" d="M2105,-181.93C1905.9,-179.48 1246.95,-167.35 1043.5,-113 1028.4,-108.97 1012.94,-102.81 998.51,-96.05"/>
<polygon fill="none" stroke="midnightblue" points="2105.2,-185.43 2115.24,-182.05 2105.29,-178.43 2105.2,-185.43"/>
</g>
<!-- Node7 -->
<g id="node7" class="node">
<title>Node7</title>
<g id="a_node7"><a xlink:href="classDockerRemoveContainerCommand.html" target="_top" xlink:title="Command to remove a Docker container and clean up database state.">
<polygon fill="white" stroke="black" points="1053,-17 1053,-96 1268,-96 1268,-17 1053,-17"/>
<text text-anchor="middle" x="1160.5" y="-84" font-family="Helvetica,sans-Serif" font-size="10.00">DockerRemoveContainerCommand</text>
<polyline fill="none" stroke="black" points="1053,-77 1268,-77 "/>
<text text-anchor="middle" x="1160.5" y="-65" font-family="Helvetica,sans-Serif" font-size="10.00"> </text>
<polyline fill="none" stroke="black" points="1053,-58 1268,-58 "/>
<text text-anchor="start" x="1061" y="-46" font-family="Helvetica,sans-Serif" font-size="10.00">+ DockerRemoveContainerCommand()</text>
<text text-anchor="start" x="1061" y="-35" font-family="Helvetica,sans-Serif" font-size="10.00">+ ~DockerRemoveContainerCommand()</text>
<text text-anchor="start" x="1061" y="-24" font-family="Helvetica,sans-Serif" font-size="10.00">+ Execute()</text>
</a>
</g>
</g>
<!-- Node1&#45;&gt;Node7 -->
<g id="edge6" class="edge">
<title>Node1&#45;&gt;Node7</title>
<path fill="none" stroke="midnightblue" d="M2105.39,-180.72C1935.4,-175 1434.83,-154.96 1277.5,-113 1262.08,-108.89 1246.21,-102.79 1231.33,-96.12"/>
<polygon fill="none" stroke="midnightblue" points="2105.27,-184.22 2115.38,-181.05 2105.51,-177.22 2105.27,-184.22"/>
</g>
<!-- Node8 -->
<g id="node8" class="node">
<title>Node8</title>
<g id="a_node8"><a xlink:href="classDockerRestartContainerCommand.html" target="_top" xlink:title="Command to restart a Docker container.">
<polygon fill="white" stroke="black" points="1286.5,-17 1286.5,-96 1496.5,-96 1496.5,-17 1286.5,-17"/>
<text text-anchor="middle" x="1391.5" y="-84" font-family="Helvetica,sans-Serif" font-size="10.00">DockerRestartContainerCommand</text>
<polyline fill="none" stroke="black" points="1286.5,-77 1496.5,-77 "/>
<text text-anchor="middle" x="1391.5" y="-65" font-family="Helvetica,sans-Serif" font-size="10.00"> </text>
<polyline fill="none" stroke="black" points="1286.5,-58 1496.5,-58 "/>
<text text-anchor="start" x="1294.5" y="-46" font-family="Helvetica,sans-Serif" font-size="10.00">+ DockerRestartContainerCommand()</text>
<text text-anchor="start" x="1294.5" y="-35" font-family="Helvetica,sans-Serif" font-size="10.00">+ ~DockerRestartContainerCommand()</text>
<text text-anchor="start" x="1294.5" y="-24" font-family="Helvetica,sans-Serif" font-size="10.00">+ Execute()</text>
</a>
</g>
</g>
<!-- Node1&#45;&gt;Node8 -->
<g id="edge7" class="edge">
<title>Node1&#45;&gt;Node8</title>
<path fill="none" stroke="midnightblue" d="M2105.19,-183.04C1989.47,-182.71 1720.62,-174.68 1505.5,-113 1490.69,-108.75 1475.45,-102.68 1461.13,-96.09"/>
<polygon fill="none" stroke="midnightblue" points="2105.24,-186.54 2115.24,-183.05 2105.24,-179.54 2105.24,-186.54"/>
</g>
<!-- Node9 -->
<g id="node9" class="node">
<title>Node9</title>
<g id="a_node9"><a xlink:href="classDockerRuntimeAvailableCommand.html" target="_top" xlink:title="Command to check if Docker runtime is available.">
<polygon fill="white" stroke="black" points="1514.5,-17 1514.5,-96 1728.5,-96 1728.5,-17 1514.5,-17"/>
<text text-anchor="middle" x="1621.5" y="-84" font-family="Helvetica,sans-Serif" font-size="10.00">DockerRuntimeAvailableCommand</text>
<polyline fill="none" stroke="black" points="1514.5,-77 1728.5,-77 "/>
<text text-anchor="middle" x="1621.5" y="-65" font-family="Helvetica,sans-Serif" font-size="10.00"> </text>
<polyline fill="none" stroke="black" points="1514.5,-58 1728.5,-58 "/>
<text text-anchor="start" x="1522.5" y="-46" font-family="Helvetica,sans-Serif" font-size="10.00">+ DockerRuntimeAvailableCommand()</text>
<text text-anchor="start" x="1522.5" y="-35" font-family="Helvetica,sans-Serif" font-size="10.00">+ ~DockerRuntimeAvailableCommand()</text>
<text text-anchor="start" x="1522.5" y="-24" font-family="Helvetica,sans-Serif" font-size="10.00">+ Execute()</text>
</a>
</g>
</g>
<!-- Node1&#45;&gt;Node9 -->
<g id="edge8" class="edge">
<title>Node1&#45;&gt;Node9</title>
<path fill="none" stroke="midnightblue" d="M2105.06,-178.31C2022.25,-171.11 1865.25,-153.1 1737.5,-113 1723.12,-108.49 1708.26,-102.49 1694.17,-96.12"/>
<polygon fill="none" stroke="midnightblue" points="2105.01,-181.82 2115.27,-179.17 2105.6,-174.84 2105.01,-181.82"/>
</g>
<!-- Node10 -->
<g id="node10" class="node">
<title>Node10</title>
<g id="a_node10"><a xlink:href="classDockerStartContainerCommand.html" target="_top" xlink:title="Command to start a Docker container.">
<polygon fill="white" stroke="black" points="1746.5,-17 1746.5,-96 1944.5,-96 1944.5,-17 1746.5,-17"/>
<text text-anchor="middle" x="1845.5" y="-84" font-family="Helvetica,sans-Serif" font-size="10.00">DockerStartContainerCommand</text>
<polyline fill="none" stroke="black" points="1746.5,-77 1944.5,-77 "/>
<text text-anchor="middle" x="1845.5" y="-65" font-family="Helvetica,sans-Serif" font-size="10.00"> </text>
<polyline fill="none" stroke="black" points="1746.5,-58 1944.5,-58 "/>
<text text-anchor="start" x="1754.5" y="-46" font-family="Helvetica,sans-Serif" font-size="10.00">+ DockerStartContainerCommand()</text>
<text text-anchor="start" x="1754.5" y="-35" font-family="Helvetica,sans-Serif" font-size="10.00">+ ~DockerStartContainerCommand()</text>
<text text-anchor="start" x="1754.5" y="-24" font-family="Helvetica,sans-Serif" font-size="10.00">+ Execute()</text>
</a>
</g>
</g>
<!-- Node1&#45;&gt;Node10 -->
<g id="edge9" class="edge">
<title>Node1&#45;&gt;Node10</title>
<path fill="none" stroke="midnightblue" d="M2105.64,-166.18C2063.11,-153.35 2003.86,-134.17 1953.5,-113 1941.45,-107.94 1928.9,-102.07 1916.81,-96.09"/>
<polygon fill="none" stroke="midnightblue" points="2104.67,-169.54 2115.26,-169.06 2106.68,-162.84 2104.67,-169.54"/>
</g>
<!-- Node11 -->
<g id="node11" class="node">
<title>Node11</title>
<g id="a_node11"><a xlink:href="classDockerStopContainerCommand.html" target="_top" xlink:title="Command to stop a Docker container.">
<polygon fill="white" stroke="black" points="1963,-17 1963,-96 2160,-96 2160,-17 1963,-17"/>
<text text-anchor="middle" x="2061.5" y="-84" font-family="Helvetica,sans-Serif" font-size="10.00">DockerStopContainerCommand</text>
<polyline fill="none" stroke="black" points="1963,-77 2160,-77 "/>
<text text-anchor="middle" x="2061.5" y="-65" font-family="Helvetica,sans-Serif" font-size="10.00"> </text>
<polyline fill="none" stroke="black" points="1963,-58 2160,-58 "/>
<text text-anchor="start" x="1971" y="-46" font-family="Helvetica,sans-Serif" font-size="10.00">+ DockerStopContainerCommand()</text>
<text text-anchor="start" x="1971" y="-35" font-family="Helvetica,sans-Serif" font-size="10.00">+ ~DockerStopContainerCommand()</text>
<text text-anchor="start" x="1971" y="-24" font-family="Helvetica,sans-Serif" font-size="10.00">+ Execute()</text>
</a>
</g>
</g>
<!-- Node1&#45;&gt;Node11 -->
<g id="edge10" class="edge">
<title>Node1&#45;&gt;Node11</title>
<path fill="none" stroke="midnightblue" d="M2129.32,-141.44C2117.54,-126.86 2104.34,-110.52 2092.73,-96.15"/>
<polygon fill="none" stroke="midnightblue" points="2126.69,-143.75 2135.7,-149.33 2132.14,-139.35 2126.69,-143.75"/>
</g>
<!-- Node12 -->
<g id="node12" class="node">
<title>Node12</title>
<g id="a_node12"><a xlink:href="classPodmanApiCreateContainerCommand.html" target="_top" xlink:title=" ">
<polygon fill="white" stroke="black" points="2178,-0.5 2178,-112.5 2349,-112.5 2349,-0.5 2178,-0.5"/>
<text text-anchor="start" x="2186" y="-100.5" font-family="Helvetica,sans-Serif" font-size="10.00">PodmanApiCreateContainer</text>
<text text-anchor="middle" x="2263.5" y="-89.5" font-family="Helvetica,sans-Serif" font-size="10.00">Command</text>
<polyline fill="none" stroke="black" points="2178,-82.5 2349,-82.5 "/>
<text text-anchor="middle" x="2263.5" y="-70.5" font-family="Helvetica,sans-Serif" font-size="10.00"> </text>
<polyline fill="none" stroke="black" points="2178,-63.5 2349,-63.5 "/>
<text text-anchor="start" x="2186" y="-51.5" font-family="Helvetica,sans-Serif" font-size="10.00">+ PodmanApiCreateContainer</text>
<text text-anchor="start" x="2186" y="-40.5" font-family="Helvetica,sans-Serif" font-size="10.00">Command()</text>
<text text-anchor="start" x="2186" y="-29.5" font-family="Helvetica,sans-Serif" font-size="10.00">+ ~PodmanApiCreateContainer</text>
<text text-anchor="start" x="2186" y="-18.5" font-family="Helvetica,sans-Serif" font-size="10.00">Command()</text>
<text text-anchor="start" x="2186" y="-7.5" font-family="Helvetica,sans-Serif" font-size="10.00">+ Execute()</text>
</a>
</g>
</g>
<!-- Node1&#45;&gt;Node12 -->
<g id="edge11" class="edge">
<title>Node1&#45;&gt;Node12</title>
<path fill="none" stroke="midnightblue" d="M2195.68,-141.43C2203.14,-132.21 2211.16,-122.28 2218.99,-112.59"/>
<polygon fill="none" stroke="midnightblue" points="2192.86,-139.35 2189.3,-149.33 2198.31,-143.75 2192.86,-139.35"/>
</g>
<!-- Node13 -->
<g id="node13" class="node">
<title>Node13</title>
<g id="a_node13"><a xlink:href="classPodmanApiRuntimeAvailableCommand.html" target="_top" xlink:title=" ">
<polygon fill="white" stroke="black" points="2367.5,-0.5 2367.5,-112.5 2545.5,-112.5 2545.5,-0.5 2367.5,-0.5"/>
<text text-anchor="start" x="2375.5" y="-100.5" font-family="Helvetica,sans-Serif" font-size="10.00">PodmanApiRuntimeAvailable</text>
<text text-anchor="middle" x="2456.5" y="-89.5" font-family="Helvetica,sans-Serif" font-size="10.00">Command</text>
<polyline fill="none" stroke="black" points="2367.5,-82.5 2545.5,-82.5 "/>
<text text-anchor="middle" x="2456.5" y="-70.5" font-family="Helvetica,sans-Serif" font-size="10.00"> </text>
<polyline fill="none" stroke="black" points="2367.5,-63.5 2545.5,-63.5 "/>
<text text-anchor="start" x="2375.5" y="-51.5" font-family="Helvetica,sans-Serif" font-size="10.00">+ PodmanApiRuntimeAvailable</text>
<text text-anchor="start" x="2375.5" y="-40.5" font-family="Helvetica,sans-Serif" font-size="10.00">Command()</text>
<text text-anchor="start" x="2375.5" y="-29.5" font-family="Helvetica,sans-Serif" font-size="10.00">+ ~PodmanApiRuntimeAvailable</text>
<text text-anchor="start" x="2375.5" y="-18.5" font-family="Helvetica,sans-Serif" font-size="10.00">Command()</text>
<text text-anchor="start" x="2375.5" y="-7.5" font-family="Helvetica,sans-Serif" font-size="10.00">+ Execute()</text>
</a>
</g>
</g>
<!-- Node1&#45;&gt;Node13 -->
<g id="edge12" class="edge">
<title>Node1&#45;&gt;Node13</title>
<path fill="none" stroke="midnightblue" d="M2219.51,-165.2C2259.18,-152.46 2312.93,-133.79 2358.5,-113 2361.44,-111.66 2364.4,-110.26 2367.38,-108.82"/>
<polygon fill="none" stroke="midnightblue" points="2218.21,-161.94 2209.74,-168.31 2220.33,-168.61 2218.21,-161.94"/>
</g>
<!-- Node14 -->
<g id="node14" class="node">
<title>Node14</title>
<g id="a_node14"><a xlink:href="classPodmanApiStartContainerCommand.html" target="_top" xlink:title=" ">
<polygon fill="white" stroke="black" points="2563.5,-11.5 2563.5,-101.5 2775.5,-101.5 2775.5,-11.5 2563.5,-11.5"/>
<text text-anchor="middle" x="2669.5" y="-89.5" font-family="Helvetica,sans-Serif" font-size="10.00">PodmanApiStartContainerCommand</text>
<polyline fill="none" stroke="black" points="2563.5,-82.5 2775.5,-82.5 "/>
<text text-anchor="middle" x="2669.5" y="-70.5" font-family="Helvetica,sans-Serif" font-size="10.00"> </text>
<polyline fill="none" stroke="black" points="2563.5,-63.5 2775.5,-63.5 "/>
<text text-anchor="start" x="2571.5" y="-51.5" font-family="Helvetica,sans-Serif" font-size="10.00">+ PodmanApiStartContainerCommand()</text>
<text text-anchor="start" x="2571.5" y="-40.5" font-family="Helvetica,sans-Serif" font-size="10.00">+ ~PodmanApiStartContainer</text>
<text text-anchor="start" x="2571.5" y="-29.5" font-family="Helvetica,sans-Serif" font-size="10.00">Command()</text>
<text text-anchor="start" x="2571.5" y="-18.5" font-family="Helvetica,sans-Serif" font-size="10.00">+ Execute()</text>
</a>
</g>
</g>
<!-- Node1&#45;&gt;Node14 -->
<g id="edge13" class="edge">
<title>Node1&#45;&gt;Node14</title>
<path fill="none" stroke="midnightblue" d="M2219.7,-177.32C2297.11,-169.2 2438.84,-150.37 2554.5,-113 2564.52,-109.76 2574.78,-105.81 2584.85,-101.53"/>
<polygon fill="none" stroke="midnightblue" points="2219.26,-173.85 2209.67,-178.35 2219.97,-180.81 2219.26,-173.85"/>
</g>
<!-- Node15 -->
<g id="node15" class="node">
<title>Node15</title>
<g id="a_node15"><a xlink:href="classPodmanApiStopContainerCommand.html" target="_top" xlink:title=" ">
<polygon fill="white" stroke="black" points="2793.5,-17 2793.5,-96 3011.5,-96 3011.5,-17 2793.5,-17"/>
<text text-anchor="middle" x="2902.5" y="-84" font-family="Helvetica,sans-Serif" font-size="10.00">PodmanApiStopContainerCommand</text>
<polyline fill="none" stroke="black" points="2793.5,-77 3011.5,-77 "/>
<text text-anchor="middle" x="2902.5" y="-65" font-family="Helvetica,sans-Serif" font-size="10.00"> </text>
<polyline fill="none" stroke="black" points="2793.5,-58 3011.5,-58 "/>
<text text-anchor="start" x="2801.5" y="-46" font-family="Helvetica,sans-Serif" font-size="10.00">+ PodmanApiStopContainerCommand()</text>
<text text-anchor="start" x="2801.5" y="-35" font-family="Helvetica,sans-Serif" font-size="10.00">+ ~PodmanApiStopContainerCommand()</text>
<text text-anchor="start" x="2801.5" y="-24" font-family="Helvetica,sans-Serif" font-size="10.00">+ Execute()</text>
</a>
</g>
</g>
<!-- Node1&#45;&gt;Node15 -->
<g id="edge14" class="edge">
<title>Node1&#45;&gt;Node15</title>
<path fill="none" stroke="midnightblue" d="M2219.84,-182.31C2330.95,-180.6 2582.42,-170.12 2784.5,-113 2799.64,-108.72 2815.26,-102.67 2829.98,-96.14"/>
<polygon fill="none" stroke="midnightblue" points="2219.49,-178.82 2209.54,-182.45 2219.58,-185.82 2219.49,-178.82"/>
</g>
<!-- Node16 -->
<g id="node16" class="node">
<title>Node16</title>
<g id="a_node16"><a xlink:href="classPodmanCreateContainerCommand.html" target="_top" xlink:title="Command to create a Podman container with specified parameters.">
<polygon fill="white" stroke="black" points="3030,-17 3030,-96 3243,-96 3243,-17 3030,-17"/>
<text text-anchor="middle" x="3136.5" y="-84" font-family="Helvetica,sans-Serif" font-size="10.00">PodmanCreateContainerCommand</text>
<polyline fill="none" stroke="black" points="3030,-77 3243,-77 "/>
<text text-anchor="middle" x="3136.5" y="-65" font-family="Helvetica,sans-Serif" font-size="10.00"> </text>
<polyline fill="none" stroke="black" points="3030,-58 3243,-58 "/>
<text text-anchor="start" x="3038" y="-46" font-family="Helvetica,sans-Serif" font-size="10.00">+ PodmanCreateContainerCommand()</text>
<text text-anchor="start" x="3038" y="-35" font-family="Helvetica,sans-Serif" font-size="10.00">+ ~PodmanCreateContainerCommand()</text>
<text text-anchor="start" x="3038" y="-24" font-family="Helvetica,sans-Serif" font-size="10.00">+ Execute()</text>
</a>
</g>
</g>
<!-- Node1&#45;&gt;Node16 -->
<g id="edge15" class="edge">
<title>Node1&#45;&gt;Node16</title>
<path fill="none" stroke="midnightblue" d="M2219.57,-180.58C2385.99,-174.57 2868.57,-153.99 3020.5,-113 3035.8,-108.87 3051.54,-102.76 3066.29,-96.09"/>
<polygon fill="none" stroke="midnightblue" points="2219.41,-177.09 2209.54,-180.94 2219.66,-184.08 2219.41,-177.09"/>
</g>
<!-- Node17 -->
<g id="node17" class="node">
<title>Node17</title>
<g id="a_node17"><a xlink:href="classPodmanRemoveContainerCommand.html" target="_top" xlink:title="Command to remove a Podman container and clean up database state.">
<polygon fill="white" stroke="black" points="3261,-17 3261,-96 3482,-96 3482,-17 3261,-17"/>
<text text-anchor="middle" x="3371.5" y="-84" font-family="Helvetica,sans-Serif" font-size="10.00">PodmanRemoveContainerCommand</text>
<polyline fill="none" stroke="black" points="3261,-77 3482,-77 "/>
<text text-anchor="middle" x="3371.5" y="-65" font-family="Helvetica,sans-Serif" font-size="10.00"> </text>
<polyline fill="none" stroke="black" points="3261,-58 3482,-58 "/>
<text text-anchor="start" x="3269" y="-46" font-family="Helvetica,sans-Serif" font-size="10.00">+ PodmanRemoveContainerCommand()</text>
<text text-anchor="start" x="3269" y="-35" font-family="Helvetica,sans-Serif" font-size="10.00">+ ~PodmanRemoveContainerCommand()</text>
<text text-anchor="start" x="3269" y="-24" font-family="Helvetica,sans-Serif" font-size="10.00">+ Execute()</text>
</a>
</g>
</g>
<!-- Node1&#45;&gt;Node17 -->
<g id="edge16" class="edge">
<title>Node1&#45;&gt;Node17</title>
<path fill="none" stroke="midnightblue" d="M2219.79,-181.65C2415.17,-178.3 3054.18,-163.65 3252.5,-113 3268.4,-108.94 3284.77,-102.77 3300.09,-96"/>
<polygon fill="none" stroke="midnightblue" points="2219.67,-178.15 2209.73,-181.82 2219.79,-185.15 2219.67,-178.15"/>
</g>
<!-- Node18 -->
<g id="node18" class="node">
<title>Node18</title>
<g id="a_node18"><a xlink:href="classPodmanRestartContainerCommand.html" target="_top" xlink:title="Command to restart a Podman container.">
<polygon fill="white" stroke="black" points="3500.5,-17 3500.5,-96 3716.5,-96 3716.5,-17 3500.5,-17"/>
<text text-anchor="middle" x="3608.5" y="-84" font-family="Helvetica,sans-Serif" font-size="10.00">PodmanRestartContainerCommand</text>
<polyline fill="none" stroke="black" points="3500.5,-77 3716.5,-77 "/>
<text text-anchor="middle" x="3608.5" y="-65" font-family="Helvetica,sans-Serif" font-size="10.00"> </text>
<polyline fill="none" stroke="black" points="3500.5,-58 3716.5,-58 "/>
<text text-anchor="start" x="3508.5" y="-46" font-family="Helvetica,sans-Serif" font-size="10.00">+ PodmanRestartContainerCommand()</text>
<text text-anchor="start" x="3508.5" y="-35" font-family="Helvetica,sans-Serif" font-size="10.00">+ ~PodmanRestartContainerCommand()</text>
<text text-anchor="start" x="3508.5" y="-24" font-family="Helvetica,sans-Serif" font-size="10.00">+ Execute()</text>
</a>
</g>
</g>
<!-- Node1&#45;&gt;Node18 -->
<g id="edge17" class="edge">
<title>Node1&#45;&gt;Node18</title>
<path fill="none" stroke="midnightblue" d="M2219.68,-182.46C2441.54,-181.84 3245.23,-175.25 3491.5,-113 3507.3,-109.01 3523.54,-102.82 3538.69,-96.01"/>
<polygon fill="none" stroke="midnightblue" points="2219.55,-178.96 2209.56,-182.48 2219.57,-185.96 2219.55,-178.96"/>
</g>
<!-- Node19 -->
<g id="node19" class="node">
<title>Node19</title>
<g id="a_node19"><a xlink:href="classPodmanRuntimeAvailableCommand.html" target="_top" xlink:title="Command to check if Podman runtime is available.">
<polygon fill="white" stroke="black" points="3734.5,-17 3734.5,-96 3954.5,-96 3954.5,-17 3734.5,-17"/>
<text text-anchor="middle" x="3844.5" y="-84" font-family="Helvetica,sans-Serif" font-size="10.00">PodmanRuntimeAvailableCommand</text>
<polyline fill="none" stroke="black" points="3734.5,-77 3954.5,-77 "/>
<text text-anchor="middle" x="3844.5" y="-65" font-family="Helvetica,sans-Serif" font-size="10.00"> </text>
<polyline fill="none" stroke="black" points="3734.5,-58 3954.5,-58 "/>
<text text-anchor="start" x="3742.5" y="-46" font-family="Helvetica,sans-Serif" font-size="10.00">+ PodmanRuntimeAvailableCommand()</text>
<text text-anchor="start" x="3742.5" y="-35" font-family="Helvetica,sans-Serif" font-size="10.00">+ ~PodmanRuntimeAvailableCommand()</text>
<text text-anchor="start" x="3742.5" y="-24" font-family="Helvetica,sans-Serif" font-size="10.00">+ Execute()</text>
</a>
</g>
</g>
<!-- Node1&#45;&gt;Node19 -->
<g id="edge18" class="edge">
<title>Node1&#45;&gt;Node19</title>
<path fill="none" stroke="midnightblue" d="M2219.72,-182.93C2465.39,-184.33 3431.62,-185.05 3725.5,-113 3741.55,-109.06 3758.06,-102.91 3773.47,-96.1"/>
<polygon fill="none" stroke="midnightblue" points="2219.6,-179.43 2209.58,-182.87 2219.56,-186.43 2219.6,-179.43"/>
</g>
<!-- Node20 -->
<g id="node20" class="node">
<title>Node20</title>
<g id="a_node20"><a xlink:href="classPodmanStartContainerCommand.html" target="_top" xlink:title="Command to start a Podman container.">
<polygon fill="white" stroke="black" points="3972.5,-17 3972.5,-96 4176.5,-96 4176.5,-17 3972.5,-17"/>
<text text-anchor="middle" x="4074.5" y="-84" font-family="Helvetica,sans-Serif" font-size="10.00">PodmanStartContainerCommand</text>
<polyline fill="none" stroke="black" points="3972.5,-77 4176.5,-77 "/>
<text text-anchor="middle" x="4074.5" y="-65" font-family="Helvetica,sans-Serif" font-size="10.00"> </text>
<polyline fill="none" stroke="black" points="3972.5,-58 4176.5,-58 "/>
<text text-anchor="start" x="3980.5" y="-46" font-family="Helvetica,sans-Serif" font-size="10.00">+ PodmanStartContainerCommand()</text>
<text text-anchor="start" x="3980.5" y="-35" font-family="Helvetica,sans-Serif" font-size="10.00">+ ~PodmanStartContainerCommand()</text>
<text text-anchor="start" x="3980.5" y="-24" font-family="Helvetica,sans-Serif" font-size="10.00">+ Execute()</text>
</a>
</g>
</g>
<!-- Node1&#45;&gt;Node20 -->
<g id="edge19" class="edge">
<title>Node1&#45;&gt;Node20</title>
<path fill="none" stroke="midnightblue" d="M2220.18,-181.72C2509.07,-177.63 3791.54,-157.11 3963.5,-113 3978.73,-109.09 3994.31,-102.9 4008.79,-96.04"/>
<polygon fill="none" stroke="midnightblue" points="2219.88,-178.23 2209.93,-181.87 2219.98,-185.23 2219.88,-178.23"/>
</g>
<!-- Node21 -->
<g id="node21" class="node">
<title>Node21</title>
<g id="a_node21"><a xlink:href="classPodmanStopContainerCommand.html" target="_top" xlink:title="Command to stop a Podman container.">
<polygon fill="white" stroke="black" points="4194,-17 4194,-96 4397,-96 4397,-17 4194,-17"/>
<text text-anchor="middle" x="4295.5" y="-84" font-family="Helvetica,sans-Serif" font-size="10.00">PodmanStopContainerCommand</text>
<polyline fill="none" stroke="black" points="4194,-77 4397,-77 "/>
<text text-anchor="middle" x="4295.5" y="-65" font-family="Helvetica,sans-Serif" font-size="10.00"> </text>
<polyline fill="none" stroke="black" points="4194,-58 4397,-58 "/>
<text text-anchor="start" x="4202" y="-46" font-family="Helvetica,sans-Serif" font-size="10.00">+ PodmanStopContainerCommand()</text>
<text text-anchor="start" x="4202" y="-35" font-family="Helvetica,sans-Serif" font-size="10.00">+ ~PodmanStopContainerCommand()</text>
<text text-anchor="start" x="4202" y="-24" font-family="Helvetica,sans-Serif" font-size="10.00">+ Execute()</text>
</a>
</g>
</g>
<!-- Node1&#45;&gt;Node21 -->
<g id="edge20" class="edge">
<title>Node1&#45;&gt;Node21</title>
<path fill="none" stroke="midnightblue" d="M2219.66,-182C2528.47,-179.11 3990.8,-162.88 4185.5,-113 4200.63,-109.12 4216.07,-102.95 4230.42,-96.09"/>
<polygon fill="none" stroke="midnightblue" points="2219.56,-178.5 2209.59,-182.09 2219.62,-185.5 2219.56,-178.5"/>
</g>
</g>
</svg>
