<?xml version="1.0" encoding="UTF-8" standalone="no"?>
<!DOCTYPE svg PUBLIC "-//W3C//DTD SVG 1.1//EN"
 "http://www.w3.org/Graphics/SVG/1.1/DTD/svg11.dtd">
<!-- Generated by graphviz version 2.43.0 (0)
 -->
<!-- Title: JsonRequestExecutorHandler::Execute Pages: 1 -->
<svg width="937pt" height="176pt"
 viewBox="0.00 0.00 937.00 176.00" xmlns="http://www.w3.org/2000/svg" xmlns:xlink="http://www.w3.org/1999/xlink">
<g id="graph0" class="graph" transform="scale(1 1) rotate(0) translate(4 172)">
<title>JsonRequestExecutorHandler::Execute</title>
<polygon fill="white" stroke="transparent" points="-4,4 -4,-172 933,-172 933,4 -4,4"/>
<!-- Node1 -->
<g id="node1" class="node">
<title>Node1</title>
<g id="a_node1"><a xlink:title="Executes a request represented as a JSON string.">
<polygon fill="#bfbfbf" stroke="black" points="0,-88.5 0,-118.5 158,-118.5 158,-88.5 0,-88.5"/>
<text text-anchor="start" x="8" y="-106.5" font-family="Helvetica,sans-Serif" font-size="10.00">JsonRequestExecutorHandler</text>
<text text-anchor="middle" x="79" y="-95.5" font-family="Helvetica,sans-Serif" font-size="10.00">::Execute</text>
</a>
</g>
</g>
<!-- Node2 -->
<g id="node2" class="node">
<title>Node2</title>
<g id="a_node2"><a xlink:href="classRedisDatabaseHandler.html#a07c65b208d5997ec20ed239dca4081ce" target="_top" xlink:title="Retrieves the singleton instance of the RedisDatabaseHandler.">
<polygon fill="white" stroke="black" points="405.5,-137.5 405.5,-167.5 533.5,-167.5 533.5,-137.5 405.5,-137.5"/>
<text text-anchor="start" x="413.5" y="-155.5" font-family="Helvetica,sans-Serif" font-size="10.00">RedisDatabaseHandler</text>
<text text-anchor="middle" x="469.5" y="-144.5" font-family="Helvetica,sans-Serif" font-size="10.00">::GetInstance</text>
</a>
</g>
</g>
<!-- Node1&#45;&gt;Node2 -->
<g id="edge1" class="edge">
<title>Node1&#45;&gt;Node2</title>
<path fill="none" stroke="midnightblue" d="M141.56,-118.52C158.47,-122.23 176.87,-125.88 194,-128.5 261.78,-138.85 339.71,-145.13 395.18,-148.66"/>
<polygon fill="midnightblue" stroke="midnightblue" points="395.07,-152.16 405.26,-149.29 395.5,-145.17 395.07,-152.16"/>
</g>
<!-- Node3 -->
<g id="node3" class="node">
<title>Node3</title>
<g id="a_node3"><a xlink:href="classContainerServiceHandler.html#a16f0650a9d5719fc441541a2adc5f29a" target="_top" xlink:title="Handles a container request by dispatching to the appropriate operation.">
<polygon fill="white" stroke="black" points="202.5,-88.5 202.5,-118.5 340.5,-118.5 340.5,-88.5 202.5,-88.5"/>
<text text-anchor="start" x="210.5" y="-106.5" font-family="Helvetica,sans-Serif" font-size="10.00">ContainerServiceHandler</text>
<text text-anchor="middle" x="271.5" y="-95.5" font-family="Helvetica,sans-Serif" font-size="10.00">::HandleRequest</text>
</a>
</g>
</g>
<!-- Node1&#45;&gt;Node3 -->
<g id="edge2" class="edge">
<title>Node1&#45;&gt;Node3</title>
<path fill="none" stroke="midnightblue" d="M158.03,-103.5C169.28,-103.5 180.86,-103.5 192.12,-103.5"/>
<polygon fill="midnightblue" stroke="midnightblue" points="192.35,-107 202.35,-103.5 192.35,-100 192.35,-107"/>
</g>
<!-- Node11 -->
<g id="node11" class="node">
<title>Node11</title>
<g id="a_node11"><a xlink:href="classIDatabaseHandler.html#ae77b65ff51207a07704ae8efebac2125" target="_top" xlink:title="Saves a JSON object to the database with the specified key.">
<polygon fill="white" stroke="black" points="194,-50 194,-69 349,-69 349,-50 194,-50"/>
<text text-anchor="middle" x="271.5" y="-57" font-family="Helvetica,sans-Serif" font-size="10.00">IDatabaseHandler::SaveJson</text>
</a>
</g>
</g>
<!-- Node1&#45;&gt;Node11 -->
<g id="edge11" class="edge">
<title>Node1&#45;&gt;Node11</title>
<path fill="none" stroke="midnightblue" d="M145.03,-88.48C169.34,-82.86 196.59,-76.57 219.47,-71.29"/>
<polygon fill="midnightblue" stroke="midnightblue" points="220.36,-74.67 229.32,-69.01 218.78,-67.85 220.36,-74.67"/>
</g>
<!-- Node3&#45;&gt;Node2 -->
<g id="edge8" class="edge">
<title>Node3&#45;&gt;Node2</title>
<path fill="none" stroke="midnightblue" d="M332.64,-118.53C353.52,-123.76 377.11,-129.65 398.71,-135.05"/>
<polygon fill="midnightblue" stroke="midnightblue" points="397.92,-138.46 408.48,-137.49 399.62,-131.67 397.92,-138.46"/>
</g>
<!-- Node4 -->
<g id="node4" class="node">
<title>Node4</title>
<g id="a_node4"><a xlink:href="classContainerServiceHandler.html#ae4a38bbbb711ab34dbd3fc50ea0814f7" target="_top" xlink:title="Performs the specified container operation using the request structure.">
<polygon fill="white" stroke="black" points="400.5,-88.5 400.5,-118.5 538.5,-118.5 538.5,-88.5 400.5,-88.5"/>
<text text-anchor="start" x="408.5" y="-106.5" font-family="Helvetica,sans-Serif" font-size="10.00">ContainerServiceHandler</text>
<text text-anchor="middle" x="469.5" y="-95.5" font-family="Helvetica,sans-Serif" font-size="10.00">::ContainerOperations</text>
</a>
</g>
</g>
<!-- Node3&#45;&gt;Node4 -->
<g id="edge3" class="edge">
<title>Node3&#45;&gt;Node4</title>
<path fill="none" stroke="midnightblue" d="M340.5,-103.5C356.52,-103.5 373.73,-103.5 390.17,-103.5"/>
<polygon fill="midnightblue" stroke="midnightblue" points="390.29,-107 400.29,-103.5 390.29,-100 390.29,-107"/>
</g>
<!-- Node9 -->
<g id="node9" class="node">
<title>Node9</title>
<g id="a_node9"><a xlink:href="classIDatabaseHandler.html#a32aef1bd17b79529d93fadc2d72441e5" target="_top" xlink:title="Removes the JSON object associated with the specified key from the database.">
<polygon fill="white" stroke="black" points="385,-50 385,-69 554,-69 554,-50 385,-50"/>
<text text-anchor="middle" x="469.5" y="-57" font-family="Helvetica,sans-Serif" font-size="10.00">IDatabaseHandler::RemoveKey</text>
</a>
</g>
</g>
<!-- Node3&#45;&gt;Node9 -->
<g id="edge9" class="edge">
<title>Node3&#45;&gt;Node9</title>
<path fill="none" stroke="midnightblue" d="M339.4,-88.48C364.54,-82.84 392.71,-76.51 416.31,-71.22"/>
<polygon fill="midnightblue" stroke="midnightblue" points="417.14,-74.62 426.13,-69.01 415.6,-67.79 417.14,-74.62"/>
</g>
<!-- Node10 -->
<g id="node10" class="node">
<title>Node10</title>
<g id="a_node10"><a xlink:href="classIDatabaseHandler.html#a10972030d1577974e9f86820e251c7d6" target="_top" xlink:title="Updates a specific field in the JSON object stored under the given key.">
<polygon fill="white" stroke="black" points="396.5,-0.5 396.5,-30.5 542.5,-30.5 542.5,-0.5 396.5,-0.5"/>
<text text-anchor="start" x="404.5" y="-18.5" font-family="Helvetica,sans-Serif" font-size="10.00">IDatabaseHandler::Update</text>
<text text-anchor="middle" x="469.5" y="-7.5" font-family="Helvetica,sans-Serif" font-size="10.00">Field</text>
</a>
</g>
</g>
<!-- Node3&#45;&gt;Node10 -->
<g id="edge10" class="edge">
<title>Node3&#45;&gt;Node10</title>
<path fill="none" stroke="midnightblue" d="M329.52,-88.41C336.32,-85.59 342.98,-82.31 349,-78.5 368.66,-66.06 365.19,-52.69 385,-40.5 388.38,-38.42 391.95,-36.5 395.63,-34.73"/>
<polygon fill="midnightblue" stroke="midnightblue" points="397.2,-37.87 404.96,-30.65 394.39,-31.46 397.2,-37.87"/>
</g>
<!-- Node5 -->
<g id="node5" class="node">
<title>Node5</title>
<g id="a_node5"><a xlink:href="classCommandFactory.html#adf4da2f0dbcf9e4018f9afe8bd4a38e9" target="_top" xlink:title="Factory method to create a command based on the container request structure.">
<polygon fill="white" stroke="black" points="590,-132 590,-151 781,-151 781,-132 590,-132"/>
<text text-anchor="middle" x="685.5" y="-139" font-family="Helvetica,sans-Serif" font-size="10.00">CommandFactory::CreateCommand</text>
</a>
</g>
</g>
<!-- Node4&#45;&gt;Node5 -->
<g id="edge4" class="edge">
<title>Node4&#45;&gt;Node5</title>
<path fill="none" stroke="midnightblue" d="M538.5,-115.58C564.87,-120.26 594.89,-125.59 620.83,-130.19"/>
<polygon fill="midnightblue" stroke="midnightblue" points="620.46,-133.68 630.92,-131.99 621.69,-126.79 620.46,-133.68"/>
</g>
<!-- Node6 -->
<g id="node6" class="node">
<title>Node6</title>
<g id="a_node6"><a xlink:href="classInvoker.html#a1459c66263ad54b3568e6b3d33d9256f" target="_top" xlink:title="Execute the command.">
<polygon fill="white" stroke="black" points="640,-94 640,-113 731,-113 731,-94 640,-94"/>
<text text-anchor="middle" x="685.5" y="-101" font-family="Helvetica,sans-Serif" font-size="10.00">Invoker::Invoke</text>
</a>
</g>
</g>
<!-- Node4&#45;&gt;Node6 -->
<g id="edge5" class="edge">
<title>Node4&#45;&gt;Node6</title>
<path fill="none" stroke="midnightblue" d="M538.5,-103.5C567.91,-103.5 601.88,-103.5 629.64,-103.5"/>
<polygon fill="midnightblue" stroke="midnightblue" points="629.96,-107 639.96,-103.5 629.96,-100 629.96,-107"/>
</g>
<!-- Node8 -->
<g id="node8" class="node">
<title>Node8</title>
<g id="a_node8"><a xlink:href="classInvoker.html#ae9f10a2487afd153bf0da69ae410a0e9" target="_top" xlink:title="Set the command to be executed.">
<polygon fill="white" stroke="black" points="623,-56 623,-75 748,-75 748,-56 623,-56"/>
<text text-anchor="middle" x="685.5" y="-63" font-family="Helvetica,sans-Serif" font-size="10.00">Invoker::SetCommand</text>
</a>
</g>
</g>
<!-- Node4&#45;&gt;Node8 -->
<g id="edge7" class="edge">
<title>Node4&#45;&gt;Node8</title>
<path fill="none" stroke="midnightblue" d="M538.5,-91.42C564.87,-86.74 594.89,-81.41 620.83,-76.81"/>
<polygon fill="midnightblue" stroke="midnightblue" points="621.69,-80.21 630.92,-75.01 620.46,-73.32 621.69,-80.21"/>
</g>
<!-- Node7 -->
<g id="node7" class="node">
<title>Node7</title>
<g id="a_node7"><a xlink:href="classCommand.html#ab04996232fade41af481e1a94c15f5e5" target="_top" xlink:title="Execute the command.">
<polygon fill="white" stroke="black" points="817,-94 817,-113 929,-113 929,-94 817,-94"/>
<text text-anchor="middle" x="873" y="-101" font-family="Helvetica,sans-Serif" font-size="10.00">Command::Execute</text>
</a>
</g>
</g>
<!-- Node6&#45;&gt;Node7 -->
<g id="edge6" class="edge">
<title>Node6&#45;&gt;Node7</title>
<path fill="none" stroke="midnightblue" d="M731.4,-103.5C754.02,-103.5 781.87,-103.5 806.79,-103.5"/>
<polygon fill="midnightblue" stroke="midnightblue" points="806.91,-107 816.91,-103.5 806.91,-100 806.91,-107"/>
</g>
</g>
</svg>
