<?xml version="1.0" encoding="UTF-8" standalone="no"?>
<!DOCTYPE svg PUBLIC "-//W3C//DTD SVG 1.1//EN"
 "http://www.w3.org/Graphics/SVG/1.1/DTD/svg11.dtd">
<!-- Generated by graphviz version 2.43.0 (0)
 -->
<!-- Title: DockerRemoveContainerCommand::Execute Pages: 1 -->
<svg width="401pt" height="127pt"
 viewBox="0.00 0.00 401.00 127.00" xmlns="http://www.w3.org/2000/svg" xmlns:xlink="http://www.w3.org/1999/xlink">
<g id="graph0" class="graph" transform="scale(1 1) rotate(0) translate(4 123)">
<title>DockerRemoveContainerCommand::Execute</title>
<polygon fill="white" stroke="transparent" points="-4,4 -4,-123 397,-123 397,4 -4,4"/>
<!-- Node1 -->
<g id="node1" class="node">
<title>Node1</title>
<g id="a_node1"><a xlink:title="Executes the command to remove a Docker container and clean up database state.">
<polygon fill="#bfbfbf" stroke="black" points="0,-44.5 0,-74.5 188,-74.5 188,-44.5 0,-44.5"/>
<text text-anchor="start" x="8" y="-62.5" font-family="Helvetica,sans-Serif" font-size="10.00">DockerRemoveContainerCommand</text>
<text text-anchor="middle" x="94" y="-51.5" font-family="Helvetica,sans-Serif" font-size="10.00">::Execute</text>
</a>
</g>
</g>
<!-- Node2 -->
<g id="node2" class="node">
<title>Node2</title>
<g id="a_node2"><a xlink:href="classRedisDatabaseHandler.html#a07c65b208d5997ec20ed239dca4081ce" target="_top" xlink:title="Retrieves the singleton instance of the RedisDatabaseHandler.">
<polygon fill="white" stroke="black" points="244.5,-88.5 244.5,-118.5 372.5,-118.5 372.5,-88.5 244.5,-88.5"/>
<text text-anchor="start" x="252.5" y="-106.5" font-family="Helvetica,sans-Serif" font-size="10.00">RedisDatabaseHandler</text>
<text text-anchor="middle" x="308.5" y="-95.5" font-family="Helvetica,sans-Serif" font-size="10.00">::GetInstance</text>
</a>
</g>
</g>
<!-- Node1&#45;&gt;Node2 -->
<g id="edge1" class="edge">
<title>Node1&#45;&gt;Node2</title>
<path fill="none" stroke="midnightblue" d="M167.54,-74.52C189.02,-78.97 212.56,-83.84 234.1,-88.3"/>
<polygon fill="midnightblue" stroke="midnightblue" points="233.66,-91.79 244.17,-90.39 235.08,-84.93 233.66,-91.79"/>
</g>
<!-- Node3 -->
<g id="node3" class="node">
<title>Node3</title>
<g id="a_node3"><a xlink:href="classIDatabaseHandler.html#a32aef1bd17b79529d93fadc2d72441e5" target="_top" xlink:title="Removes the JSON object associated with the specified key from the database.">
<polygon fill="white" stroke="black" points="224,-50 224,-69 393,-69 393,-50 224,-50"/>
<text text-anchor="middle" x="308.5" y="-57" font-family="Helvetica,sans-Serif" font-size="10.00">IDatabaseHandler::RemoveKey</text>
</a>
</g>
</g>
<!-- Node1&#45;&gt;Node3 -->
<g id="edge2" class="edge">
<title>Node1&#45;&gt;Node3</title>
<path fill="none" stroke="midnightblue" d="M188.21,-59.5C196.61,-59.5 205.12,-59.5 213.53,-59.5"/>
<polygon fill="midnightblue" stroke="midnightblue" points="213.73,-63 223.73,-59.5 213.73,-56 213.73,-63"/>
</g>
<!-- Node4 -->
<g id="node4" class="node">
<title>Node4</title>
<g id="a_node4"><a xlink:href="classIDatabaseHandler.html#a10972030d1577974e9f86820e251c7d6" target="_top" xlink:title="Updates a specific field in the JSON object stored under the given key.">
<polygon fill="white" stroke="black" points="235.5,-0.5 235.5,-30.5 381.5,-30.5 381.5,-0.5 235.5,-0.5"/>
<text text-anchor="start" x="243.5" y="-18.5" font-family="Helvetica,sans-Serif" font-size="10.00">IDatabaseHandler::Update</text>
<text text-anchor="middle" x="308.5" y="-7.5" font-family="Helvetica,sans-Serif" font-size="10.00">Field</text>
</a>
</g>
</g>
<!-- Node1&#45;&gt;Node4 -->
<g id="edge3" class="edge">
<title>Node1&#45;&gt;Node4</title>
<path fill="none" stroke="midnightblue" d="M167.54,-44.48C186.17,-40.62 206.35,-36.44 225.43,-32.49"/>
<polygon fill="midnightblue" stroke="midnightblue" points="226.21,-35.91 235.29,-30.45 224.79,-29.05 226.21,-35.91"/>
</g>
</g>
</svg>
