<?xml version="1.0" encoding="UTF-8" standalone="no"?>
<!DOCTYPE svg PUBLIC "-//W3C//DTD SVG 1.1//EN"
 "http://www.w3.org/Graphics/SVG/1.1/DTD/svg11.dtd">
<!-- Generated by graphviz version 2.43.0 (0)
 -->
<!-- Title: RequestExecutor Pages: 1 -->
<svg width="374pt" height="193pt"
 viewBox="0.00 0.00 374.00 193.00" xmlns="http://www.w3.org/2000/svg" xmlns:xlink="http://www.w3.org/1999/xlink">
<g id="graph0" class="graph" transform="scale(1 1) rotate(0) translate(4 189)">
<title>RequestExecutor</title>
<polygon fill="white" stroke="transparent" points="-4,4 -4,-189 370,-189 370,4 -4,4"/>
<!-- Node1 -->
<g id="node1" class="node">
<title>Node1</title>
<g id="a_node1"><a xlink:title="Abstract base class for request executors supporting different input formats.">
<polygon fill="#bfbfbf" stroke="black" points="112,-116.5 112,-184.5 238,-184.5 238,-116.5 112,-116.5"/>
<text text-anchor="middle" x="175" y="-172.5" font-family="Helvetica,sans-Serif" font-size="10.00">RequestExecutor</text>
<polyline fill="none" stroke="black" points="112,-165.5 238,-165.5 "/>
<text text-anchor="middle" x="175" y="-153.5" font-family="Helvetica,sans-Serif" font-size="10.00"> </text>
<polyline fill="none" stroke="black" points="112,-146.5 238,-146.5 "/>
<text text-anchor="start" x="120" y="-134.5" font-family="Helvetica,sans-Serif" font-size="10.00">+ ~RequestExecutor()</text>
<text text-anchor="start" x="120" y="-123.5" font-family="Helvetica,sans-Serif" font-size="10.00">+ Execute()</text>
</a>
</g>
</g>
<!-- Node2 -->
<g id="node2" class="node">
<title>Node2</title>
<g id="a_node2"><a xlink:href="classJsonRequestExecutorHandler.html" target="_top" xlink:title="Parses and executes JSON requests, invoking business logic and database operations.">
<polygon fill="white" stroke="black" points="0,-11.5 0,-68.5 158,-68.5 158,-11.5 0,-11.5"/>
<text text-anchor="middle" x="79" y="-56.5" font-family="Helvetica,sans-Serif" font-size="10.00">JsonRequestExecutorHandler</text>
<polyline fill="none" stroke="black" points="0,-49.5 158,-49.5 "/>
<text text-anchor="middle" x="79" y="-37.5" font-family="Helvetica,sans-Serif" font-size="10.00"> </text>
<polyline fill="none" stroke="black" points="0,-30.5 158,-30.5 "/>
<text text-anchor="start" x="8" y="-18.5" font-family="Helvetica,sans-Serif" font-size="10.00">+ Execute()</text>
</a>
</g>
</g>
<!-- Node1&#45;&gt;Node2 -->
<g id="edge1" class="edge">
<title>Node1&#45;&gt;Node2</title>
<path fill="none" stroke="midnightblue" d="M138.89,-108.69C127.12,-95.39 114.34,-80.95 103.62,-68.83"/>
<polygon fill="none" stroke="midnightblue" points="136.43,-111.19 145.68,-116.36 141.67,-106.55 136.43,-111.19"/>
</g>
<!-- Node3 -->
<g id="node3" class="node">
<title>Node3</title>
<g id="a_node3"><a xlink:href="classProtoRequestExecutorHandler.html" target="_top" xlink:title=" ">
<polygon fill="white" stroke="black" points="176,-0.5 176,-79.5 366,-79.5 366,-0.5 176,-0.5"/>
<text text-anchor="middle" x="271" y="-67.5" font-family="Helvetica,sans-Serif" font-size="10.00">ProtoRequestExecutorHandler</text>
<polyline fill="none" stroke="black" points="176,-60.5 366,-60.5 "/>
<text text-anchor="middle" x="271" y="-48.5" font-family="Helvetica,sans-Serif" font-size="10.00"> </text>
<polyline fill="none" stroke="black" points="176,-41.5 366,-41.5 "/>
<text text-anchor="start" x="184" y="-29.5" font-family="Helvetica,sans-Serif" font-size="10.00">+ ProtoRequestExecutorHandler()</text>
<text text-anchor="start" x="184" y="-18.5" font-family="Helvetica,sans-Serif" font-size="10.00">+ ~ProtoRequestExecutorHandler()</text>
<text text-anchor="start" x="184" y="-7.5" font-family="Helvetica,sans-Serif" font-size="10.00">+ Execute()</text>
</a>
</g>
</g>
<!-- Node1&#45;&gt;Node3 -->
<g id="edge2" class="edge">
<title>Node1&#45;&gt;Node3</title>
<path fill="none" stroke="midnightblue" d="M210.97,-108.84C219.43,-99.28 228.42,-89.12 236.8,-79.65"/>
<polygon fill="none" stroke="midnightblue" points="208.33,-106.55 204.32,-116.36 213.57,-111.19 208.33,-106.55"/>
</g>
</g>
</svg>
