<?xml version="1.0" encoding="UTF-8" standalone="no"?>
<!DOCTYPE svg PUBLIC "-//W3C//DTD SVG 1.1//EN"
 "http://www.w3.org/Graphics/SVG/1.1/DTD/svg11.dtd">
<!-- Generated by graphviz version 2.43.0 (0)
 -->
<!-- Title: ProtoRequestExecutorHandler::Execute Pages: 1 -->
<svg width="916pt" height="323pt"
 viewBox="0.00 0.00 916.00 322.50" xmlns="http://www.w3.org/2000/svg" xmlns:xlink="http://www.w3.org/1999/xlink">
<g id="graph0" class="graph" transform="scale(1 1) rotate(0) translate(4 318.5)">
<title>ProtoRequestExecutorHandler::Execute</title>
<polygon fill="white" stroke="transparent" points="-4,4 -4,-318.5 912,-318.5 912,4 -4,4"/>
<!-- Node1 -->
<g id="node1" class="node">
<title>Node1</title>
<g id="a_node1"><a xlink:title="Executes a request and returns a JSON response.">
<polygon fill="#bfbfbf" stroke="black" points="0,-137 0,-167 163,-167 163,-137 0,-137"/>
<text text-anchor="start" x="8" y="-155" font-family="Helvetica,sans-Serif" font-size="10.00">ProtoRequestExecutorHandler</text>
<text text-anchor="middle" x="81.5" y="-144" font-family="Helvetica,sans-Serif" font-size="10.00">::Execute</text>
</a>
</g>
</g>
<!-- Node2 -->
<g id="node2" class="node">
<title>Node2</title>
<g id="a_node2"><a xlink:href="classcontainermanager_1_1ContainerParameters.html#a1fa02ce02859ee70a41e1b4fe203e412" target="_top" xlink:title=" ">
<polygon fill="white" stroke="black" points="199,-284 199,-314 358,-314 358,-284 199,-284"/>
<text text-anchor="start" x="207" y="-302" font-family="Helvetica,sans-Serif" font-size="10.00">containermanager::Container</text>
<text text-anchor="middle" x="278.5" y="-291" font-family="Helvetica,sans-Serif" font-size="10.00">Parameters::container_name</text>
</a>
</g>
</g>
<!-- Node1&#45;&gt;Node2 -->
<g id="edge1" class="edge">
<title>Node1&#45;&gt;Node2</title>
<path fill="none" stroke="midnightblue" d="M92.84,-167.26C111.2,-193.2 151.99,-245.88 199,-275 201.64,-276.64 204.4,-278.17 207.24,-279.6"/>
<polygon fill="midnightblue" stroke="midnightblue" points="205.98,-282.87 216.53,-283.85 208.89,-276.51 205.98,-282.87"/>
</g>
<!-- Node3 -->
<g id="node3" class="node">
<title>Node3</title>
<g id="a_node3"><a xlink:href="classRedisDatabaseHandler.html#a07c65b208d5997ec20ed239dca4081ce" target="_top" xlink:title="Retrieves the singleton instance of the RedisDatabaseHandler.">
<polygon fill="white" stroke="black" points="214.5,-235 214.5,-265 342.5,-265 342.5,-235 214.5,-235"/>
<text text-anchor="start" x="222.5" y="-253" font-family="Helvetica,sans-Serif" font-size="10.00">RedisDatabaseHandler</text>
<text text-anchor="middle" x="278.5" y="-242" font-family="Helvetica,sans-Serif" font-size="10.00">::GetInstance</text>
</a>
</g>
</g>
<!-- Node1&#45;&gt;Node3 -->
<g id="edge2" class="edge">
<title>Node1&#45;&gt;Node3</title>
<path fill="none" stroke="midnightblue" d="M102.58,-167.14C125.07,-183.51 163.08,-209.47 199,-226 203.12,-227.89 207.42,-229.69 211.8,-231.38"/>
<polygon fill="midnightblue" stroke="midnightblue" points="210.89,-234.77 221.48,-234.91 213.29,-228.19 210.89,-234.77"/>
</g>
<!-- Node4 -->
<g id="node4" class="node">
<title>Node4</title>
<g id="a_node4"><a xlink:href="classContainerServiceHandler.html#a16f0650a9d5719fc441541a2adc5f29a" target="_top" xlink:title="Handles a container request by dispatching to the appropriate operation.">
<polygon fill="white" stroke="black" points="209.5,-186 209.5,-216 347.5,-216 347.5,-186 209.5,-186"/>
<text text-anchor="start" x="217.5" y="-204" font-family="Helvetica,sans-Serif" font-size="10.00">ContainerServiceHandler</text>
<text text-anchor="middle" x="278.5" y="-193" font-family="Helvetica,sans-Serif" font-size="10.00">::HandleRequest</text>
</a>
</g>
</g>
<!-- Node1&#45;&gt;Node4 -->
<g id="edge3" class="edge">
<title>Node1&#45;&gt;Node4</title>
<path fill="none" stroke="midnightblue" d="M142.33,-167.03C163.11,-172.26 186.58,-178.15 208.07,-183.55"/>
<polygon fill="midnightblue" stroke="midnightblue" points="207.23,-186.95 217.78,-185.99 208.94,-180.16 207.23,-186.95"/>
</g>
<!-- Node11 -->
<g id="node11" class="node">
<title>Node11</title>
<g id="a_node11"><a xlink:href="classcontainermanager_1_1ContainerRequest.html#a28ace998fd1164adc2da2f87d4f45ab0" target="_top" xlink:title=" ">
<polygon fill="white" stroke="black" points="199,-137 199,-167 358,-167 358,-137 199,-137"/>
<text text-anchor="start" x="207" y="-155" font-family="Helvetica,sans-Serif" font-size="10.00">containermanager::Container</text>
<text text-anchor="middle" x="278.5" y="-144" font-family="Helvetica,sans-Serif" font-size="10.00">Request::operation</text>
</a>
</g>
</g>
<!-- Node1&#45;&gt;Node11 -->
<g id="edge13" class="edge">
<title>Node1&#45;&gt;Node11</title>
<path fill="none" stroke="midnightblue" d="M163.22,-152C171.56,-152 180.08,-152 188.5,-152"/>
<polygon fill="midnightblue" stroke="midnightblue" points="188.72,-155.5 198.72,-152 188.72,-148.5 188.72,-155.5"/>
</g>
<!-- Node12 -->
<g id="node12" class="node">
<title>Node12</title>
<g id="a_node12"><a xlink:href="classcontainermanager_1_1ContainerRequest.html#aa9ca92cdaef7d9ae3358c34fa8a024dd" target="_top" xlink:title=" ">
<polygon fill="white" stroke="black" points="199,-88 199,-118 358,-118 358,-88 199,-88"/>
<text text-anchor="start" x="207" y="-106" font-family="Helvetica,sans-Serif" font-size="10.00">containermanager::Container</text>
<text text-anchor="middle" x="278.5" y="-95" font-family="Helvetica,sans-Serif" font-size="10.00">Request::parameters</text>
</a>
</g>
</g>
<!-- Node1&#45;&gt;Node12 -->
<g id="edge14" class="edge">
<title>Node1&#45;&gt;Node12</title>
<path fill="none" stroke="midnightblue" d="M142.33,-136.97C163.11,-131.74 186.58,-125.85 208.07,-120.45"/>
<polygon fill="midnightblue" stroke="midnightblue" points="208.94,-123.84 217.78,-118.01 207.23,-117.05 208.94,-123.84"/>
</g>
<!-- Node13 -->
<g id="node13" class="node">
<title>Node13</title>
<g id="a_node13"><a xlink:href="classcontainermanager_1_1ContainerRequest.html#a83c720592fa42a002f8a88c190cecfa5" target="_top" xlink:title=" ">
<polygon fill="white" stroke="black" points="199,-39 199,-69 358,-69 358,-39 199,-39"/>
<text text-anchor="start" x="207" y="-57" font-family="Helvetica,sans-Serif" font-size="10.00">containermanager::Container</text>
<text text-anchor="middle" x="278.5" y="-46" font-family="Helvetica,sans-Serif" font-size="10.00">Request::runtime</text>
</a>
</g>
</g>
<!-- Node1&#45;&gt;Node13 -->
<g id="edge15" class="edge">
<title>Node1&#45;&gt;Node13</title>
<path fill="none" stroke="midnightblue" d="M102.58,-136.86C125.07,-120.49 163.08,-94.53 199,-78 203.12,-76.11 207.42,-74.31 211.8,-72.62"/>
<polygon fill="midnightblue" stroke="midnightblue" points="213.29,-75.81 221.48,-69.09 210.89,-69.23 213.29,-75.81"/>
</g>
<!-- Node14 -->
<g id="node14" class="node">
<title>Node14</title>
<g id="a_node14"><a xlink:href="classIDatabaseHandler.html#ae77b65ff51207a07704ae8efebac2125" target="_top" xlink:title="Saves a JSON object to the database with the specified key.">
<polygon fill="white" stroke="black" points="201,-0.5 201,-19.5 356,-19.5 356,-0.5 201,-0.5"/>
<text text-anchor="middle" x="278.5" y="-7.5" font-family="Helvetica,sans-Serif" font-size="10.00">IDatabaseHandler::SaveJson</text>
</a>
</g>
</g>
<!-- Node1&#45;&gt;Node14 -->
<g id="edge16" class="edge">
<title>Node1&#45;&gt;Node14</title>
<path fill="none" stroke="midnightblue" d="M92.38,-136.86C110.32,-110.63 150.9,-56.86 199,-29 202.86,-26.77 206.97,-24.79 211.21,-23.05"/>
<polygon fill="midnightblue" stroke="midnightblue" points="212.47,-26.32 220.66,-19.6 210.06,-19.74 212.47,-26.32"/>
</g>
<!-- Node5 -->
<g id="node5" class="node">
<title>Node5</title>
<g id="a_node5"><a xlink:href="classContainerServiceHandler.html#af17a1c94a543aa45bdcdba2b0674ab8a" target="_top" xlink:title="Checks if the specified container runtime is available for the given operation.">
<polygon fill="white" stroke="black" points="394,-210 394,-240 533,-240 533,-210 394,-210"/>
<text text-anchor="start" x="402" y="-228" font-family="Helvetica,sans-Serif" font-size="10.00">ContainerServiceHandler</text>
<text text-anchor="middle" x="463.5" y="-217" font-family="Helvetica,sans-Serif" font-size="10.00">::CheckRuntimeAvailable</text>
</a>
</g>
</g>
<!-- Node4&#45;&gt;Node5 -->
<g id="edge4" class="edge">
<title>Node4&#45;&gt;Node5</title>
<path fill="none" stroke="midnightblue" d="M347.64,-209.94C359.47,-211.49 371.86,-213.11 383.94,-214.7"/>
<polygon fill="midnightblue" stroke="midnightblue" points="383.63,-218.19 394,-216.02 384.54,-211.25 383.63,-218.19"/>
</g>
<!-- Node10 -->
<g id="node10" class="node">
<title>Node10</title>
<g id="a_node10"><a xlink:href="classContainerServiceHandler.html#a92b3d49dc72dfdf47661c33431aa9db9" target="_top" xlink:title="Performs the specified container operation.">
<polygon fill="white" stroke="black" points="394.5,-161 394.5,-191 532.5,-191 532.5,-161 394.5,-161"/>
<text text-anchor="start" x="402.5" y="-179" font-family="Helvetica,sans-Serif" font-size="10.00">ContainerServiceHandler</text>
<text text-anchor="middle" x="463.5" y="-168" font-family="Helvetica,sans-Serif" font-size="10.00">::ContainerOperations</text>
</a>
</g>
</g>
<!-- Node4&#45;&gt;Node10 -->
<g id="edge9" class="edge">
<title>Node4&#45;&gt;Node10</title>
<path fill="none" stroke="midnightblue" d="M347.64,-191.69C359.55,-190.06 372.03,-188.36 384.18,-186.7"/>
<polygon fill="midnightblue" stroke="midnightblue" points="384.87,-190.14 394.3,-185.32 383.92,-183.2 384.87,-190.14"/>
</g>
<!-- Node6 -->
<g id="node6" class="node">
<title>Node6</title>
<g id="a_node6"><a xlink:href="classCommandFactory.html#a1ce3fdcfe96e7dc24e40c05b4387442f" target="_top" xlink:title="Factory method to create a command based on the runtime type and command type.">
<polygon fill="white" stroke="black" points="569,-229.5 569,-248.5 760,-248.5 760,-229.5 569,-229.5"/>
<text text-anchor="middle" x="664.5" y="-236.5" font-family="Helvetica,sans-Serif" font-size="10.00">CommandFactory::CreateCommand</text>
</a>
</g>
</g>
<!-- Node5&#45;&gt;Node6 -->
<g id="edge5" class="edge">
<title>Node5&#45;&gt;Node6</title>
<path fill="none" stroke="midnightblue" d="M533.26,-229.84C541.5,-230.42 550.05,-231.02 558.65,-231.62"/>
<polygon fill="midnightblue" stroke="midnightblue" points="558.53,-235.12 568.75,-232.33 559.02,-228.14 558.53,-235.12"/>
</g>
<!-- Node7 -->
<g id="node7" class="node">
<title>Node7</title>
<g id="a_node7"><a xlink:href="classInvoker.html#a1459c66263ad54b3568e6b3d33d9256f" target="_top" xlink:title="Execute the command.">
<polygon fill="white" stroke="black" points="619,-191.5 619,-210.5 710,-210.5 710,-191.5 619,-191.5"/>
<text text-anchor="middle" x="664.5" y="-198.5" font-family="Helvetica,sans-Serif" font-size="10.00">Invoker::Invoke</text>
</a>
</g>
</g>
<!-- Node5&#45;&gt;Node7 -->
<g id="edge6" class="edge">
<title>Node5&#45;&gt;Node7</title>
<path fill="none" stroke="midnightblue" d="M533.26,-216.71C557.92,-213.73 585.38,-210.42 608.7,-207.61"/>
<polygon fill="midnightblue" stroke="midnightblue" points="609.25,-211.07 618.76,-206.4 608.41,-204.12 609.25,-211.07"/>
</g>
<!-- Node9 -->
<g id="node9" class="node">
<title>Node9</title>
<g id="a_node9"><a xlink:href="classInvoker.html#ae9f10a2487afd153bf0da69ae410a0e9" target="_top" xlink:title="Set the command to be executed.">
<polygon fill="white" stroke="black" points="602,-153.5 602,-172.5 727,-172.5 727,-153.5 602,-153.5"/>
<text text-anchor="middle" x="664.5" y="-160.5" font-family="Helvetica,sans-Serif" font-size="10.00">Invoker::SetCommand</text>
</a>
</g>
</g>
<!-- Node5&#45;&gt;Node9 -->
<g id="edge8" class="edge">
<title>Node5&#45;&gt;Node9</title>
<path fill="none" stroke="midnightblue" d="M510.56,-209.92C518.13,-207.14 525.84,-204.12 533,-201 549.58,-193.77 551.96,-188.07 569,-182 576.62,-179.29 584.73,-176.92 592.88,-174.87"/>
<polygon fill="midnightblue" stroke="midnightblue" points="593.88,-178.23 602.81,-172.52 592.27,-171.42 593.88,-178.23"/>
</g>
<!-- Node8 -->
<g id="node8" class="node">
<title>Node8</title>
<g id="a_node8"><a xlink:href="classCommand.html#ab04996232fade41af481e1a94c15f5e5" target="_top" xlink:title="Execute the command.">
<polygon fill="white" stroke="black" points="796,-191.5 796,-210.5 908,-210.5 908,-191.5 796,-191.5"/>
<text text-anchor="middle" x="852" y="-198.5" font-family="Helvetica,sans-Serif" font-size="10.00">Command::Execute</text>
</a>
</g>
</g>
<!-- Node7&#45;&gt;Node8 -->
<g id="edge7" class="edge">
<title>Node7&#45;&gt;Node8</title>
<path fill="none" stroke="midnightblue" d="M710.4,-201C733.02,-201 760.87,-201 785.79,-201"/>
<polygon fill="midnightblue" stroke="midnightblue" points="785.91,-204.5 795.91,-201 785.91,-197.5 785.91,-204.5"/>
</g>
<!-- Node10&#45;&gt;Node6 -->
<g id="edge10" class="edge">
<title>Node10&#45;&gt;Node6</title>
<path fill="none" stroke="midnightblue" d="M508.7,-191.13C516.86,-194.21 525.25,-197.56 533,-201 549.54,-208.34 551.96,-213.93 569,-220 576.62,-222.71 584.73,-225.08 592.88,-227.13"/>
<polygon fill="midnightblue" stroke="midnightblue" points="592.27,-230.58 602.81,-229.48 593.88,-223.77 592.27,-230.58"/>
</g>
<!-- Node10&#45;&gt;Node7 -->
<g id="edge11" class="edge">
<title>Node10&#45;&gt;Node7</title>
<path fill="none" stroke="midnightblue" d="M532.71,-184.57C557.5,-187.68 585.19,-191.16 608.68,-194.11"/>
<polygon fill="midnightblue" stroke="midnightblue" points="608.45,-197.61 618.81,-195.39 609.32,-190.67 608.45,-197.61"/>
</g>
<!-- Node10&#45;&gt;Node9 -->
<g id="edge12" class="edge">
<title>Node10&#45;&gt;Node9</title>
<path fill="none" stroke="midnightblue" d="M532.71,-171.54C551.69,-170.3 572.36,-168.95 591.54,-167.7"/>
<polygon fill="midnightblue" stroke="midnightblue" points="591.97,-171.18 601.73,-167.04 591.52,-164.19 591.97,-171.18"/>
</g>
</g>
</svg>
