<?xml version="1.0" encoding="UTF-8" standalone="no"?>
<!DOCTYPE svg PUBLIC "-//W3C//DTD SVG 1.1//EN"
 "http://www.w3.org/Graphics/SVG/1.1/DTD/svg11.dtd">
<!-- Generated by graphviz version 2.43.0 (0)
 -->
<!-- Title: DockerApiRemoveContainerCommand::Execute Pages: 1 -->
<svg width="366pt" height="66pt"
 viewBox="0.00 0.00 366.00 66.00" xmlns="http://www.w3.org/2000/svg" xmlns:xlink="http://www.w3.org/1999/xlink">
<g id="graph0" class="graph" transform="scale(1 1) rotate(0) translate(4 62)">
<title>DockerApiRemoveContainerCommand::Execute</title>
<polygon fill="white" stroke="transparent" points="-4,4 -4,-62 362,-62 362,4 -4,4"/>
<!-- Node1 -->
<g id="node1" class="node">
<title>Node1</title>
<g id="a_node1"><a xlink:title="Executes the command to remove a Docker container via the API.">
<polygon fill="#bfbfbf" stroke="black" points="0,-14 0,-44 154,-44 154,-14 0,-14"/>
<text text-anchor="start" x="8" y="-32" font-family="Helvetica,sans-Serif" font-size="10.00">DockerApiRemoveContainer</text>
<text text-anchor="middle" x="77" y="-21" font-family="Helvetica,sans-Serif" font-size="10.00">Command::Execute</text>
</a>
</g>
</g>
<!-- Node2 -->
<g id="node2" class="node">
<title>Node2</title>
<g id="a_node2"><a xlink:href="common_8hpp.html#a6ef961c11398422cd4dd9b4f66a57d03" target="_top" xlink:title="Compose a container API endpoint for Docker or Podman API.">
<polygon fill="white" stroke="black" points="190,-38.5 190,-57.5 358,-57.5 358,-38.5 190,-38.5"/>
<text text-anchor="middle" x="274" y="-45.5" font-family="Helvetica,sans-Serif" font-size="10.00">ComposeContainerApiEndpoint</text>
</a>
</g>
</g>
<!-- Node1&#45;&gt;Node2 -->
<g id="edge1" class="edge">
<title>Node1&#45;&gt;Node2</title>
<path fill="none" stroke="midnightblue" d="M154.23,-36.43C162.6,-37.24 171.19,-38.08 179.73,-38.91"/>
<polygon fill="midnightblue" stroke="midnightblue" points="179.44,-42.4 189.73,-39.89 180.11,-35.43 179.44,-42.4"/>
</g>
<!-- Node3 -->
<g id="node3" class="node">
<title>Node3</title>
<g id="a_node3"><a xlink:href="classCurlHandler.html#a576e7a125e092c05b15eba5050b0409e" target="_top" xlink:title="Perform a HTTP DELETE request over a Unix domain socket.">
<polygon fill="white" stroke="black" points="206.5,-0.5 206.5,-19.5 341.5,-19.5 341.5,-0.5 206.5,-0.5"/>
<text text-anchor="middle" x="274" y="-7.5" font-family="Helvetica,sans-Serif" font-size="10.00">CurlHandler::DeleteUnix</text>
</a>
</g>
</g>
<!-- Node1&#45;&gt;Node3 -->
<g id="edge2" class="edge">
<title>Node1&#45;&gt;Node3</title>
<path fill="none" stroke="midnightblue" d="M154.23,-21.57C168.07,-20.22 182.51,-18.82 196.36,-17.47"/>
<polygon fill="midnightblue" stroke="midnightblue" points="196.71,-20.95 206.32,-16.5 196.03,-13.98 196.71,-20.95"/>
</g>
</g>
</svg>
