<?xml version="1.0" encoding="UTF-8" standalone="no"?>
<!DOCTYPE svg PUBLIC "-//W3C//DTD SVG 1.1//EN"
 "http://www.w3.org/Graphics/SVG/1.1/DTD/svg11.dtd">
<!-- Generated by graphviz version 2.43.0 (0)
 -->
<!-- Title: GrpcServerHandler Pages: 1 -->
<svg width="167pt" height="204pt"
 viewBox="0.00 0.00 167.00 204.00" xmlns="http://www.w3.org/2000/svg" xmlns:xlink="http://www.w3.org/1999/xlink">
<g id="graph0" class="graph" transform="scale(1 1) rotate(0) translate(4 200)">
<title>GrpcServerHandler</title>
<polygon fill="white" stroke="transparent" points="-4,4 -4,-200 163,-200 163,4 -4,4"/>
<!-- Node1 -->
<g id="node1" class="node">
<title>Node1</title>
<g id="a_node1"><a xlink:title="Handles incoming gRPC requests and dispatches them to the appropriate JSON/Protobuf executor.">
<polygon fill="#bfbfbf" stroke="black" points="15.5,-0.5 15.5,-90.5 143.5,-90.5 143.5,-0.5 15.5,-0.5"/>
<text text-anchor="middle" x="79.5" y="-78.5" font-family="Helvetica,sans-Serif" font-size="10.00">GrpcServerHandler</text>
<polyline fill="none" stroke="black" points="15.5,-71.5 143.5,-71.5 "/>
<text text-anchor="middle" x="79.5" y="-59.5" font-family="Helvetica,sans-Serif" font-size="10.00"> </text>
<polyline fill="none" stroke="black" points="15.5,-52.5 143.5,-52.5 "/>
<text text-anchor="start" x="23.5" y="-40.5" font-family="Helvetica,sans-Serif" font-size="10.00">+ GrpcServerHandler()</text>
<text text-anchor="start" x="23.5" y="-29.5" font-family="Helvetica,sans-Serif" font-size="10.00">+ Start()</text>
<text text-anchor="start" x="23.5" y="-18.5" font-family="Helvetica,sans-Serif" font-size="10.00">+ Stop()</text>
<text text-anchor="start" x="23.5" y="-7.5" font-family="Helvetica,sans-Serif" font-size="10.00">+ Execute()</text>
</a>
</g>
</g>
<!-- Node2 -->
<g id="node2" class="node">
<title>Node2</title>
<g id="a_node2"><a xlink:title=" ">
<polygon fill="white" stroke="#bfbfbf" points="0,-127.5 0,-195.5 159,-195.5 159,-127.5 0,-127.5"/>
<text text-anchor="start" x="8" y="-183.5" font-family="Helvetica,sans-Serif" font-size="10.00">containermanager::Container</text>
<text text-anchor="middle" x="79.5" y="-172.5" font-family="Helvetica,sans-Serif" font-size="10.00">Manager::Service</text>
<polyline fill="none" stroke="#bfbfbf" points="0,-165.5 159,-165.5 "/>
<text text-anchor="middle" x="79.5" y="-153.5" font-family="Helvetica,sans-Serif" font-size="10.00"> </text>
<polyline fill="none" stroke="#bfbfbf" points="0,-146.5 159,-146.5 "/>
<text text-anchor="middle" x="79.5" y="-134.5" font-family="Helvetica,sans-Serif" font-size="10.00"> </text>
</a>
</g>
</g>
<!-- Node2&#45;&gt;Node1 -->
<g id="edge1" class="edge">
<title>Node2&#45;&gt;Node1</title>
<path fill="none" stroke="midnightblue" d="M79.5,-116.97C79.5,-108.35 79.5,-99.28 79.5,-90.64"/>
<polygon fill="none" stroke="midnightblue" points="76,-117.22 79.5,-127.22 83,-117.22 76,-117.22"/>
</g>
</g>
</svg>
