<?xml version="1.0" encoding="UTF-8" standalone="no"?>
<!DOCTYPE svg PUBLIC "-//W3C//DTD SVG 1.1//EN"
 "http://www.w3.org/Graphics/SVG/1.1/DTD/svg11.dtd">
<!-- Generated by graphviz version 2.43.0 (0)
 -->
<!-- Title: containermanager::ContainerParameters::ContainerParameters Pages: 1 -->
<svg width="385pt" height="284pt"
 viewBox="0.00 0.00 385.00 284.00" xmlns="http://www.w3.org/2000/svg" xmlns:xlink="http://www.w3.org/1999/xlink">
<g id="graph0" class="graph" transform="scale(1 1) rotate(0) translate(4 280)">
<title>containermanager::ContainerParameters::ContainerParameters</title>
<polygon fill="white" stroke="transparent" points="-4,4 -4,-280 381,-280 381,4 -4,4"/>
<!-- Node1 -->
<g id="node1" class="node">
<title>Node1</title>
<g id="a_node1"><a xlink:title=" ">
<polygon fill="#bfbfbf" stroke="black" points="0,-122.5 0,-152.5 182,-152.5 182,-122.5 0,-122.5"/>
<text text-anchor="start" x="8" y="-140.5" font-family="Helvetica,sans-Serif" font-size="10.00">containermanager::Container</text>
<text text-anchor="middle" x="91" y="-129.5" font-family="Helvetica,sans-Serif" font-size="10.00">Parameters::ContainerParameters</text>
</a>
</g>
</g>
<!-- Node2 -->
<g id="node2" class="node">
<title>Node2</title>
<g id="a_node2"><a xlink:href="classcontainermanager_1_1ContainerParameters.html#a1fa02ce02859ee70a41e1b4fe203e412" target="_top" xlink:title=" ">
<polygon fill="white" stroke="black" points="218,-245.5 218,-275.5 377,-275.5 377,-245.5 218,-245.5"/>
<text text-anchor="start" x="226" y="-263.5" font-family="Helvetica,sans-Serif" font-size="10.00">containermanager::Container</text>
<text text-anchor="middle" x="297.5" y="-252.5" font-family="Helvetica,sans-Serif" font-size="10.00">Parameters::container_name</text>
</a>
</g>
</g>
<!-- Node1&#45;&gt;Node2 -->
<g id="edge1" class="edge">
<title>Node1&#45;&gt;Node2</title>
<path fill="none" stroke="midnightblue" d="M107.36,-152.72C129.85,-174.23 173.86,-213.45 218,-236.5 221.52,-238.34 225.21,-240.06 228.98,-241.68"/>
<polygon fill="midnightblue" stroke="midnightblue" points="227.91,-245.02 238.5,-245.45 230.49,-238.51 227.91,-245.02"/>
</g>
<!-- Node3 -->
<g id="node3" class="node">
<title>Node3</title>
<g id="a_node3"><a xlink:href="classcontainermanager_1_1ContainerParameters.html#af839132551bd6af4c89eb23d3eb1f34c" target="_top" xlink:title=" ">
<polygon fill="white" stroke="black" points="218,-196.5 218,-226.5 377,-226.5 377,-196.5 218,-196.5"/>
<text text-anchor="start" x="226" y="-214.5" font-family="Helvetica,sans-Serif" font-size="10.00">containermanager::Container</text>
<text text-anchor="middle" x="297.5" y="-203.5" font-family="Helvetica,sans-Serif" font-size="10.00">Parameters::cpus</text>
</a>
</g>
</g>
<!-- Node1&#45;&gt;Node3 -->
<g id="edge2" class="edge">
<title>Node1&#45;&gt;Node3</title>
<path fill="none" stroke="midnightblue" d="M127.55,-152.5C152.64,-162.87 187.13,-176.68 218,-187.5 223.6,-189.46 229.46,-191.42 235.33,-193.33"/>
<polygon fill="midnightblue" stroke="midnightblue" points="234.62,-196.77 245.21,-196.47 236.74,-190.1 234.62,-196.77"/>
</g>
<!-- Node4 -->
<g id="node4" class="node">
<title>Node4</title>
<g id="a_node4"><a xlink:href="classcontainermanager_1_1ContainerParameters.html#a59f4919cc9edc798ed20464e28128dd8" target="_top" xlink:title=" ">
<polygon fill="white" stroke="black" points="218,-147.5 218,-177.5 377,-177.5 377,-147.5 218,-147.5"/>
<text text-anchor="start" x="226" y="-165.5" font-family="Helvetica,sans-Serif" font-size="10.00">containermanager::Container</text>
<text text-anchor="middle" x="297.5" y="-154.5" font-family="Helvetica,sans-Serif" font-size="10.00">Parameters::image_name</text>
</a>
</g>
</g>
<!-- Node1&#45;&gt;Node4 -->
<g id="edge3" class="edge">
<title>Node1&#45;&gt;Node4</title>
<path fill="none" stroke="midnightblue" d="M182.29,-148.54C190.83,-149.58 199.48,-150.64 208,-151.68"/>
<polygon fill="midnightblue" stroke="midnightblue" points="207.57,-155.15 217.92,-152.89 208.42,-148.21 207.57,-155.15"/>
</g>
<!-- Node5 -->
<g id="node5" class="node">
<title>Node5</title>
<g id="a_node5"><a xlink:href="classcontainermanager_1_1ContainerParameters.html#a399f34ad96a2cef3179a3c72f251e2d0" target="_top" xlink:title=" ">
<polygon fill="white" stroke="black" points="218,-98.5 218,-128.5 377,-128.5 377,-98.5 218,-98.5"/>
<text text-anchor="start" x="226" y="-116.5" font-family="Helvetica,sans-Serif" font-size="10.00">containermanager::Container</text>
<text text-anchor="middle" x="297.5" y="-105.5" font-family="Helvetica,sans-Serif" font-size="10.00">Parameters::memory</text>
</a>
</g>
</g>
<!-- Node1&#45;&gt;Node5 -->
<g id="edge4" class="edge">
<title>Node1&#45;&gt;Node5</title>
<path fill="none" stroke="midnightblue" d="M182.29,-126.9C190.74,-125.91 199.29,-124.91 207.72,-123.92"/>
<polygon fill="midnightblue" stroke="midnightblue" points="208.4,-127.36 217.92,-122.72 207.58,-120.41 208.4,-127.36"/>
</g>
<!-- Node6 -->
<g id="node6" class="node">
<title>Node6</title>
<g id="a_node6"><a xlink:href="classcontainermanager_1_1ContainerParameters.html#a96b6ea6e5ad06ddab5701150627b7aca" target="_top" xlink:title=" ">
<polygon fill="white" stroke="black" points="218,-49.5 218,-79.5 377,-79.5 377,-49.5 218,-49.5"/>
<text text-anchor="start" x="226" y="-67.5" font-family="Helvetica,sans-Serif" font-size="10.00">containermanager::Container</text>
<text text-anchor="middle" x="297.5" y="-56.5" font-family="Helvetica,sans-Serif" font-size="10.00">Parameters::pids</text>
</a>
</g>
</g>
<!-- Node1&#45;&gt;Node6 -->
<g id="edge5" class="edge">
<title>Node1&#45;&gt;Node6</title>
<path fill="none" stroke="midnightblue" d="M129.84,-122.45C154.76,-112.7 188.17,-99.92 218,-89.5 224.44,-87.25 231.21,-84.97 237.95,-82.75"/>
<polygon fill="midnightblue" stroke="midnightblue" points="239.36,-85.97 247.78,-79.55 237.19,-79.32 239.36,-85.97"/>
</g>
<!-- Node7 -->
<g id="node7" class="node">
<title>Node7</title>
<g id="a_node7"><a xlink:href="classcontainermanager_1_1ContainerParameters.html#a51eb0c4c3c36e1e3326f34559917a304" target="_top" xlink:title=" ">
<polygon fill="white" stroke="black" points="218,-0.5 218,-30.5 377,-30.5 377,-0.5 218,-0.5"/>
<text text-anchor="start" x="226" y="-18.5" font-family="Helvetica,sans-Serif" font-size="10.00">containermanager::Container</text>
<text text-anchor="middle" x="297.5" y="-7.5" font-family="Helvetica,sans-Serif" font-size="10.00">Parameters::restart_policy</text>
</a>
</g>
</g>
<!-- Node1&#45;&gt;Node7 -->
<g id="edge6" class="edge">
<title>Node1&#45;&gt;Node7</title>
<path fill="none" stroke="midnightblue" d="M107.84,-122.32C130.55,-101.28 174.46,-63.29 218,-40.5 222.21,-38.29 226.66,-36.24 231.2,-34.34"/>
<polygon fill="midnightblue" stroke="midnightblue" points="232.59,-37.55 240.62,-30.63 230.03,-31.03 232.59,-37.55"/>
</g>
</g>
</svg>
