<?xml version="1.0" encoding="UTF-8" standalone="no"?>
<!DOCTYPE svg PUBLIC "-//W3C//DTD SVG 1.1//EN"
 "http://www.w3.org/Graphics/SVG/1.1/DTD/svg11.dtd">
<!-- Generated by graphviz version 2.43.0 (0)
 -->
<!-- Title: containermanager::ContainerRequest::MergePartialFromCodedStream Pages: 1 -->
<svg width="418pt" height="235pt"
 viewBox="0.00 0.00 418.00 235.00" xmlns="http://www.w3.org/2000/svg" xmlns:xlink="http://www.w3.org/1999/xlink">
<g id="graph0" class="graph" transform="scale(1 1) rotate(0) translate(4 231)">
<title>containermanager::ContainerRequest::MergePartialFromCodedStream</title>
<polygon fill="white" stroke="transparent" points="-4,4 -4,-231 414,-231 414,4 -4,4"/>
<!-- Node1 -->
<g id="node1" class="node">
<title>Node1</title>
<g id="a_node1"><a xlink:title=" ">
<polygon fill="#bfbfbf" stroke="black" points="0,-98.5 0,-128.5 215,-128.5 215,-98.5 0,-98.5"/>
<text text-anchor="start" x="8" y="-116.5" font-family="Helvetica,sans-Serif" font-size="10.00">containermanager::Container</text>
<text text-anchor="middle" x="107.5" y="-105.5" font-family="Helvetica,sans-Serif" font-size="10.00">Request::MergePartialFromCodedStream</text>
</a>
</g>
</g>
<!-- Node2 -->
<g id="node2" class="node">
<title>Node2</title>
<g id="a_node2"><a xlink:href="classcontainermanager_1_1ContainerRequest.html#a255c7ec015015ed979f0fcaa577c04d8" target="_top" xlink:title=" ">
<polygon fill="white" stroke="black" points="251,-196.5 251,-226.5 410,-226.5 410,-196.5 251,-196.5"/>
<text text-anchor="start" x="259" y="-214.5" font-family="Helvetica,sans-Serif" font-size="10.00">containermanager::Container</text>
<text text-anchor="middle" x="330.5" y="-203.5" font-family="Helvetica,sans-Serif" font-size="10.00">Request::add_parameters</text>
</a>
</g>
</g>
<!-- Node1&#45;&gt;Node2 -->
<g id="edge1" class="edge">
<title>Node1&#45;&gt;Node2</title>
<path fill="none" stroke="midnightblue" d="M134.09,-128.6C162.1,-144.7 208.68,-170.21 251,-187.5 255.74,-189.44 260.7,-191.3 265.72,-193.08"/>
<polygon fill="midnightblue" stroke="midnightblue" points="264.82,-196.47 275.41,-196.39 267.08,-189.85 264.82,-196.47"/>
</g>
<!-- Node3 -->
<g id="node3" class="node">
<title>Node3</title>
<g id="a_node3"><a xlink:href="classcontainermanager_1_1ContainerRequest.html#a2d37b3abe58b315e5caddb32246dd654" target="_top" xlink:title=" ">
<polygon fill="white" stroke="black" points="251,-147.5 251,-177.5 410,-177.5 410,-147.5 251,-147.5"/>
<text text-anchor="start" x="259" y="-165.5" font-family="Helvetica,sans-Serif" font-size="10.00">containermanager::Container</text>
<text text-anchor="middle" x="330.5" y="-154.5" font-family="Helvetica,sans-Serif" font-size="10.00">Request::mutable_operation</text>
</a>
</g>
</g>
<!-- Node1&#45;&gt;Node3 -->
<g id="edge2" class="edge">
<title>Node1&#45;&gt;Node3</title>
<path fill="none" stroke="midnightblue" d="M176.31,-128.53C200.17,-133.83 227.18,-139.81 251.79,-145.27"/>
<polygon fill="midnightblue" stroke="midnightblue" points="251.3,-148.75 261.82,-147.49 252.81,-141.91 251.3,-148.75"/>
</g>
<!-- Node4 -->
<g id="node4" class="node">
<title>Node4</title>
<g id="a_node4"><a xlink:href="classcontainermanager_1_1ContainerRequest.html#a5d26a5518c9e59c70babb66c92f62df8" target="_top" xlink:title=" ">
<polygon fill="white" stroke="black" points="251,-98.5 251,-128.5 410,-128.5 410,-98.5 251,-98.5"/>
<text text-anchor="start" x="259" y="-116.5" font-family="Helvetica,sans-Serif" font-size="10.00">containermanager::Container</text>
<text text-anchor="middle" x="330.5" y="-105.5" font-family="Helvetica,sans-Serif" font-size="10.00">Request::mutable_runtime</text>
</a>
</g>
</g>
<!-- Node1&#45;&gt;Node4 -->
<g id="edge3" class="edge">
<title>Node1&#45;&gt;Node4</title>
<path fill="none" stroke="midnightblue" d="M215.12,-113.5C223.67,-113.5 232.25,-113.5 240.66,-113.5"/>
<polygon fill="midnightblue" stroke="midnightblue" points="240.82,-117 250.82,-113.5 240.82,-110 240.82,-117"/>
</g>
<!-- Node5 -->
<g id="node5" class="node">
<title>Node5</title>
<g id="a_node5"><a xlink:href="classcontainermanager_1_1ContainerRequest.html#a28ace998fd1164adc2da2f87d4f45ab0" target="_top" xlink:title=" ">
<polygon fill="white" stroke="black" points="251,-49.5 251,-79.5 410,-79.5 410,-49.5 251,-49.5"/>
<text text-anchor="start" x="259" y="-67.5" font-family="Helvetica,sans-Serif" font-size="10.00">containermanager::Container</text>
<text text-anchor="middle" x="330.5" y="-56.5" font-family="Helvetica,sans-Serif" font-size="10.00">Request::operation</text>
</a>
</g>
</g>
<!-- Node1&#45;&gt;Node5 -->
<g id="edge4" class="edge">
<title>Node1&#45;&gt;Node5</title>
<path fill="none" stroke="midnightblue" d="M176.31,-98.47C200.17,-93.17 227.18,-87.19 251.79,-81.73"/>
<polygon fill="midnightblue" stroke="midnightblue" points="252.81,-85.09 261.82,-79.51 251.3,-78.25 252.81,-85.09"/>
</g>
<!-- Node6 -->
<g id="node6" class="node">
<title>Node6</title>
<g id="a_node6"><a xlink:href="classcontainermanager_1_1ContainerRequest.html#a83c720592fa42a002f8a88c190cecfa5" target="_top" xlink:title=" ">
<polygon fill="white" stroke="black" points="251,-0.5 251,-30.5 410,-30.5 410,-0.5 251,-0.5"/>
<text text-anchor="start" x="259" y="-18.5" font-family="Helvetica,sans-Serif" font-size="10.00">containermanager::Container</text>
<text text-anchor="middle" x="330.5" y="-7.5" font-family="Helvetica,sans-Serif" font-size="10.00">Request::runtime</text>
</a>
</g>
</g>
<!-- Node1&#45;&gt;Node6 -->
<g id="edge5" class="edge">
<title>Node1&#45;&gt;Node6</title>
<path fill="none" stroke="midnightblue" d="M134.67,-98.43C162.79,-82.64 209.11,-57.76 251,-40.5 256.51,-38.23 262.3,-36.04 268.14,-33.96"/>
<polygon fill="midnightblue" stroke="midnightblue" points="269.65,-37.14 277.97,-30.57 267.37,-30.52 269.65,-37.14"/>
</g>
</g>
</svg>
