<?xml version="1.0" encoding="UTF-8" standalone="no"?>
<!DOCTYPE svg PUBLIC "-//W3C//DTD SVG 1.1//EN"
 "http://www.w3.org/Graphics/SVG/1.1/DTD/svg11.dtd">
<!-- Generated by graphviz version 2.43.0 (0)
 -->
<!-- Title: ChaCha20SecurityProvider Pages: 1 -->
<svg width="181pt" height="193pt"
 viewBox="0.00 0.00 181.00 193.00" xmlns="http://www.w3.org/2000/svg" xmlns:xlink="http://www.w3.org/1999/xlink">
<g id="graph0" class="graph" transform="scale(1 1) rotate(0) translate(4 189)">
<title>ChaCha20SecurityProvider</title>
<polygon fill="white" stroke="transparent" points="-4,4 -4,-189 177,-189 177,4 -4,4"/>
<!-- Node1 -->
<g id="node1" class="node">
<title>Node1</title>
<g id="a_node1"><a xlink:title="ChaCha20&#45;Poly1305 implementation for secure OTA payloads.">
<polygon fill="#bfbfbf" stroke="black" points="0,-0.5 0,-79.5 173,-79.5 173,-0.5 0,-0.5"/>
<text text-anchor="middle" x="86.5" y="-67.5" font-family="Helvetica,sans-Serif" font-size="10.00">ChaCha20SecurityProvider</text>
<polyline fill="none" stroke="black" points="0,-60.5 173,-60.5 "/>
<text text-anchor="middle" x="86.5" y="-48.5" font-family="Helvetica,sans-Serif" font-size="10.00"> </text>
<polyline fill="none" stroke="black" points="0,-41.5 173,-41.5 "/>
<text text-anchor="start" x="8" y="-29.5" font-family="Helvetica,sans-Serif" font-size="10.00">+ ChaCha20SecurityProvider()</text>
<text text-anchor="start" x="8" y="-18.5" font-family="Helvetica,sans-Serif" font-size="10.00">+ ~ChaCha20SecurityProvider()</text>
<text text-anchor="start" x="8" y="-7.5" font-family="Helvetica,sans-Serif" font-size="10.00">+ Decrypt()</text>
</a>
</g>
</g>
<!-- Node2 -->
<g id="node2" class="node">
<title>Node2</title>
<g id="a_node2"><a xlink:href="classISecurityProvider.html" target="_top" xlink:title="Abstract interface for security providers (encryption/decryption).">
<polygon fill="white" stroke="black" points="23,-116.5 23,-184.5 150,-184.5 150,-116.5 23,-116.5"/>
<text text-anchor="middle" x="86.5" y="-172.5" font-family="Helvetica,sans-Serif" font-size="10.00">ISecurityProvider</text>
<polyline fill="none" stroke="black" points="23,-165.5 150,-165.5 "/>
<text text-anchor="middle" x="86.5" y="-153.5" font-family="Helvetica,sans-Serif" font-size="10.00"> </text>
<polyline fill="none" stroke="black" points="23,-146.5 150,-146.5 "/>
<text text-anchor="start" x="31" y="-134.5" font-family="Helvetica,sans-Serif" font-size="10.00">+ ~ISecurityProvider()</text>
<text text-anchor="start" x="31" y="-123.5" font-family="Helvetica,sans-Serif" font-size="10.00">+ Decrypt()</text>
</a>
</g>
</g>
<!-- Node2&#45;&gt;Node1 -->
<g id="edge1" class="edge">
<title>Node2&#45;&gt;Node1</title>
<path fill="none" stroke="midnightblue" d="M86.5,-106.27C86.5,-97.48 86.5,-88.28 86.5,-79.65"/>
<polygon fill="none" stroke="midnightblue" points="83,-106.36 86.5,-116.36 90,-106.36 83,-106.36"/>
</g>
</g>
</svg>
