<?xml version="1.0" encoding="UTF-8" standalone="no"?>
<!DOCTYPE svg PUBLIC "-//W3C//DTD SVG 1.1//EN"
 "http://www.w3.org/Graphics/SVG/1.1/DTD/svg11.dtd">
<!-- Generated by graphviz version 2.43.0 (0)
 -->
<!-- Title: containermanager::ContainerRequest::SerializeWithCachedSizes Pages: 1 -->
<svg width="391pt" height="186pt"
 viewBox="0.00 0.00 391.00 186.00" xmlns="http://www.w3.org/2000/svg" xmlns:xlink="http://www.w3.org/1999/xlink">
<g id="graph0" class="graph" transform="scale(1 1) rotate(0) translate(4 182)">
<title>containermanager::ContainerRequest::SerializeWithCachedSizes</title>
<polygon fill="white" stroke="transparent" points="-4,4 -4,-182 387,-182 387,4 -4,4"/>
<!-- Node1 -->
<g id="node1" class="node">
<title>Node1</title>
<g id="a_node1"><a xlink:title=" ">
<polygon fill="#bfbfbf" stroke="black" points="0,-73.5 0,-103.5 188,-103.5 188,-73.5 0,-73.5"/>
<text text-anchor="start" x="8" y="-91.5" font-family="Helvetica,sans-Serif" font-size="10.00">containermanager::Container</text>
<text text-anchor="middle" x="94" y="-80.5" font-family="Helvetica,sans-Serif" font-size="10.00">Request::SerializeWithCachedSizes</text>
</a>
</g>
</g>
<!-- Node2 -->
<g id="node2" class="node">
<title>Node2</title>
<g id="a_node2"><a xlink:href="classcontainermanager_1_1ContainerRequest.html#a28ace998fd1164adc2da2f87d4f45ab0" target="_top" xlink:title=" ">
<polygon fill="white" stroke="black" points="224,-147.5 224,-177.5 383,-177.5 383,-147.5 224,-147.5"/>
<text text-anchor="start" x="232" y="-165.5" font-family="Helvetica,sans-Serif" font-size="10.00">containermanager::Container</text>
<text text-anchor="middle" x="303.5" y="-154.5" font-family="Helvetica,sans-Serif" font-size="10.00">Request::operation</text>
</a>
</g>
</g>
<!-- Node1&#45;&gt;Node2 -->
<g id="edge1" class="edge">
<title>Node1&#45;&gt;Node2</title>
<path fill="none" stroke="midnightblue" d="M131.71,-103.55C157.38,-113.88 192.56,-127.62 224,-138.5 229.61,-140.44 235.47,-142.39 241.35,-144.28"/>
<polygon fill="midnightblue" stroke="midnightblue" points="240.64,-147.73 251.23,-147.42 242.76,-141.06 240.64,-147.73"/>
</g>
<!-- Node3 -->
<g id="node3" class="node">
<title>Node3</title>
<g id="a_node3"><a xlink:href="classcontainermanager_1_1ContainerRequest.html#a9cd8d5cff94e72249a84e86da9b61516" target="_top" xlink:title=" ">
<polygon fill="white" stroke="black" points="224,-98.5 224,-128.5 383,-128.5 383,-98.5 224,-98.5"/>
<text text-anchor="start" x="232" y="-116.5" font-family="Helvetica,sans-Serif" font-size="10.00">containermanager::Container</text>
<text text-anchor="middle" x="303.5" y="-105.5" font-family="Helvetica,sans-Serif" font-size="10.00">Request::parameters</text>
</a>
</g>
</g>
<!-- Node1&#45;&gt;Node3 -->
<g id="edge2" class="edge">
<title>Node1&#45;&gt;Node3</title>
<path fill="none" stroke="midnightblue" d="M188.13,-99.72C196.72,-100.76 205.42,-101.8 213.97,-102.83"/>
<polygon fill="midnightblue" stroke="midnightblue" points="213.58,-106.31 223.93,-104.03 214.42,-99.36 213.58,-106.31"/>
</g>
<!-- Node4 -->
<g id="node4" class="node">
<title>Node4</title>
<g id="a_node4"><a xlink:href="classcontainermanager_1_1ContainerRequest.html#ad565a5ce010924a70d8dd2fe5586d219" target="_top" xlink:title=" ">
<polygon fill="white" stroke="black" points="224,-49.5 224,-79.5 383,-79.5 383,-49.5 224,-49.5"/>
<text text-anchor="start" x="232" y="-67.5" font-family="Helvetica,sans-Serif" font-size="10.00">containermanager::Container</text>
<text text-anchor="middle" x="303.5" y="-56.5" font-family="Helvetica,sans-Serif" font-size="10.00">Request::parameters_size</text>
</a>
</g>
</g>
<!-- Node1&#45;&gt;Node4 -->
<g id="edge3" class="edge">
<title>Node1&#45;&gt;Node4</title>
<path fill="none" stroke="midnightblue" d="M188.13,-77.73C196.72,-76.73 205.42,-75.73 213.97,-74.74"/>
<polygon fill="midnightblue" stroke="midnightblue" points="214.4,-78.21 223.93,-73.59 213.6,-71.26 214.4,-78.21"/>
</g>
<!-- Node5 -->
<g id="node5" class="node">
<title>Node5</title>
<g id="a_node5"><a xlink:href="classcontainermanager_1_1ContainerRequest.html#a83c720592fa42a002f8a88c190cecfa5" target="_top" xlink:title=" ">
<polygon fill="white" stroke="black" points="224,-0.5 224,-30.5 383,-30.5 383,-0.5 224,-0.5"/>
<text text-anchor="start" x="232" y="-18.5" font-family="Helvetica,sans-Serif" font-size="10.00">containermanager::Container</text>
<text text-anchor="middle" x="303.5" y="-7.5" font-family="Helvetica,sans-Serif" font-size="10.00">Request::runtime</text>
</a>
</g>
</g>
<!-- Node1&#45;&gt;Node5 -->
<g id="edge4" class="edge">
<title>Node1&#45;&gt;Node5</title>
<path fill="none" stroke="midnightblue" d="M134.06,-73.41C159.55,-63.7 193.62,-50.98 224,-40.5 230.45,-38.27 237.22,-36.01 243.97,-33.8"/>
<polygon fill="midnightblue" stroke="midnightblue" points="245.37,-37.02 253.8,-30.61 243.21,-30.37 245.37,-37.02"/>
</g>
</g>
</svg>
