<?xml version="1.0" encoding="UTF-8" standalone="no"?>
<!DOCTYPE svg PUBLIC "-//W3C//DTD SVG 1.1//EN"
 "http://www.w3.org/Graphics/SVG/1.1/DTD/svg11.dtd">
<!-- Generated by graphviz version 2.43.0 (0)
 -->
<!-- Title: RedisDatabaseHandler::GetInstance Pages: 1 -->
<svg width="545pt" height="617pt"
 viewBox="0.00 0.00 545.00 616.50" xmlns="http://www.w3.org/2000/svg" xmlns:xlink="http://www.w3.org/1999/xlink">
<g id="graph0" class="graph" transform="scale(1 1) rotate(0) translate(4 612.5)">
<title>RedisDatabaseHandler::GetInstance</title>
<polygon fill="white" stroke="transparent" points="-4,4 -4,-612.5 541,-612.5 541,4 -4,4"/>
<!-- Node1 -->
<g id="node1" class="node">
<title>Node1</title>
<g id="a_node1"><a xlink:title="Retrieves the singleton instance of the RedisDatabaseHandler.">
<polygon fill="#bfbfbf" stroke="black" points="409,-284 409,-314 537,-314 537,-284 409,-284"/>
<text text-anchor="start" x="417" y="-302" font-family="Helvetica,sans-Serif" font-size="10.00">RedisDatabaseHandler</text>
<text text-anchor="middle" x="473" y="-291" font-family="Helvetica,sans-Serif" font-size="10.00">::GetInstance</text>
</a>
</g>
</g>
<!-- Node2 -->
<g id="node2" class="node">
<title>Node2</title>
<g id="a_node2"><a xlink:href="classJsonRequestExecutorHandler.html#aaf7c1c7c14971ccfda4076e0a4681f43" target="_top" xlink:title="Executes a request represented as a JSON string.">
<polygon fill="white" stroke="black" points="197,-578 197,-608 355,-608 355,-578 197,-578"/>
<text text-anchor="start" x="205" y="-596" font-family="Helvetica,sans-Serif" font-size="10.00">JsonRequestExecutorHandler</text>
<text text-anchor="middle" x="276" y="-585" font-family="Helvetica,sans-Serif" font-size="10.00">::Execute</text>
</a>
</g>
</g>
<!-- Node1&#45;&gt;Node2 -->
<g id="edge1" class="edge">
<title>Node1&#45;&gt;Node2</title>
<path fill="none" stroke="midnightblue" d="M470.37,-324.23C465.51,-377.71 446.47,-502.96 373,-569 367.76,-573.71 361.74,-577.52 355.32,-580.61"/>
<polygon fill="midnightblue" stroke="midnightblue" points="473.86,-324.49 471.18,-314.24 466.88,-323.92 473.86,-324.49"/>
</g>
<!-- Node3 -->
<g id="node3" class="node">
<title>Node3</title>
<g id="a_node3"><a xlink:href="classProtoRequestExecutorHandler.html#a7255c2daf8946f8c73b0327cd4ad9156" target="_top" xlink:title="Executes a request and returns a JSON response.">
<polygon fill="white" stroke="black" points="194.5,-529 194.5,-559 357.5,-559 357.5,-529 194.5,-529"/>
<text text-anchor="start" x="202.5" y="-547" font-family="Helvetica,sans-Serif" font-size="10.00">ProtoRequestExecutorHandler</text>
<text text-anchor="middle" x="276" y="-536" font-family="Helvetica,sans-Serif" font-size="10.00">::Execute</text>
</a>
</g>
</g>
<!-- Node1&#45;&gt;Node3 -->
<g id="edge2" class="edge">
<title>Node1&#45;&gt;Node3</title>
<path fill="none" stroke="midnightblue" d="M468.08,-324.07C459.53,-370.14 434.76,-468.26 373,-520 368.39,-523.86 363.25,-527.12 357.8,-529.86"/>
<polygon fill="midnightblue" stroke="midnightblue" points="471.56,-324.5 469.84,-314.05 464.67,-323.29 471.56,-324.5"/>
</g>
<!-- Node4 -->
<g id="node4" class="node">
<title>Node4</title>
<g id="a_node4"><a xlink:href="classDockerCreateContainerCommand.html#a8967ee094698e00a212c67f71870de06" target="_top" xlink:title="Executes the command to create a Docker container.">
<polygon fill="white" stroke="black" points="186,-480 186,-510 366,-510 366,-480 186,-480"/>
<text text-anchor="start" x="194" y="-498" font-family="Helvetica,sans-Serif" font-size="10.00">DockerCreateContainerCommand</text>
<text text-anchor="middle" x="276" y="-487" font-family="Helvetica,sans-Serif" font-size="10.00">::Execute</text>
</a>
</g>
</g>
<!-- Node1&#45;&gt;Node4 -->
<g id="edge3" class="edge">
<title>Node1&#45;&gt;Node4</title>
<path fill="none" stroke="midnightblue" d="M464.68,-323.83C452.23,-361.59 423.27,-433.04 373,-471 368.48,-474.42 363.52,-477.35 358.33,-479.87"/>
<polygon fill="midnightblue" stroke="midnightblue" points="468.07,-324.72 467.76,-314.13 461.39,-322.6 468.07,-324.72"/>
</g>
<!-- Node5 -->
<g id="node5" class="node">
<title>Node5</title>
<g id="a_node5"><a xlink:href="classPodmanCreateContainerCommand.html#aca31055904b1fb20736ed5807e215ae6" target="_top" xlink:title="Executes the command to create a Podman container.">
<polygon fill="white" stroke="black" points="183,-431 183,-461 369,-461 369,-431 183,-431"/>
<text text-anchor="start" x="191" y="-449" font-family="Helvetica,sans-Serif" font-size="10.00">PodmanCreateContainerCommand</text>
<text text-anchor="middle" x="276" y="-438" font-family="Helvetica,sans-Serif" font-size="10.00">::Execute</text>
</a>
</g>
</g>
<!-- Node1&#45;&gt;Node5 -->
<g id="edge4" class="edge">
<title>Node1&#45;&gt;Node5</title>
<path fill="none" stroke="midnightblue" d="M459.22,-322.91C442.96,-351 412.21,-396.92 373,-422 367.65,-425.42 361.83,-428.36 355.81,-430.88"/>
<polygon fill="midnightblue" stroke="midnightblue" points="462.31,-324.56 464.17,-314.13 456.22,-321.12 462.31,-324.56"/>
</g>
<!-- Node6 -->
<g id="node6" class="node">
<title>Node6</title>
<g id="a_node6"><a xlink:href="classDockerStartContainerCommand.html#ad208f99e4185a7606a0a9903d1346fcc" target="_top" xlink:title="Executes the command to start a Docker container.">
<polygon fill="white" stroke="black" points="190.5,-382 190.5,-412 361.5,-412 361.5,-382 190.5,-382"/>
<text text-anchor="start" x="198.5" y="-400" font-family="Helvetica,sans-Serif" font-size="10.00">DockerStartContainerCommand</text>
<text text-anchor="middle" x="276" y="-389" font-family="Helvetica,sans-Serif" font-size="10.00">::Execute</text>
</a>
</g>
</g>
<!-- Node1&#45;&gt;Node6 -->
<g id="edge5" class="edge">
<title>Node1&#45;&gt;Node6</title>
<path fill="none" stroke="midnightblue" d="M448.6,-320.76C429.57,-337.34 401.32,-359.55 373,-373 365.78,-376.43 358.02,-379.4 350.15,-381.97"/>
<polygon fill="midnightblue" stroke="midnightblue" points="451.01,-323.3 456.16,-314.04 446.36,-318.06 451.01,-323.3"/>
</g>
<!-- Node7 -->
<g id="node7" class="node">
<title>Node7</title>
<g id="a_node7"><a xlink:href="classPodmanStartContainerCommand.html#aaf7627e6faf5974ffcd95e8a5f58852f" target="_top" xlink:title="Executes the command to start a Podman container.">
<polygon fill="white" stroke="black" points="187.5,-333 187.5,-363 364.5,-363 364.5,-333 187.5,-333"/>
<text text-anchor="start" x="195.5" y="-351" font-family="Helvetica,sans-Serif" font-size="10.00">PodmanStartContainerCommand</text>
<text text-anchor="middle" x="276" y="-340" font-family="Helvetica,sans-Serif" font-size="10.00">::Execute</text>
</a>
</g>
</g>
<!-- Node1&#45;&gt;Node7 -->
<g id="edge6" class="edge">
<title>Node1&#45;&gt;Node7</title>
<path fill="none" stroke="midnightblue" d="M402.7,-316.52C392.74,-319.04 382.61,-321.59 373,-324 361.42,-326.91 349.05,-330.01 337.18,-332.98"/>
<polygon fill="midnightblue" stroke="midnightblue" points="403.75,-319.87 412.59,-314.03 402.04,-313.08 403.75,-319.87"/>
</g>
<!-- Node8 -->
<g id="node8" class="node">
<title>Node8</title>
<g id="a_node8"><a xlink:href="classDockerStopContainerCommand.html#a4d6a495edca166958eee65ca601bc5bd" target="_top" xlink:title="Executes the command to stop a Docker container.">
<polygon fill="white" stroke="black" points="191,-284 191,-314 361,-314 361,-284 191,-284"/>
<text text-anchor="start" x="199" y="-302" font-family="Helvetica,sans-Serif" font-size="10.00">DockerStopContainerCommand</text>
<text text-anchor="middle" x="276" y="-291" font-family="Helvetica,sans-Serif" font-size="10.00">::Execute</text>
</a>
</g>
</g>
<!-- Node1&#45;&gt;Node8 -->
<g id="edge7" class="edge">
<title>Node1&#45;&gt;Node8</title>
<path fill="none" stroke="midnightblue" d="M398.79,-299C386.5,-299 373.67,-299 361.14,-299"/>
<polygon fill="midnightblue" stroke="midnightblue" points="398.96,-302.5 408.96,-299 398.96,-295.5 398.96,-302.5"/>
</g>
<!-- Node9 -->
<g id="node9" class="node">
<title>Node9</title>
<g id="a_node9"><a xlink:href="classPodmanStopContainerCommand.html#a42d7bf3c2ae604172ae1e1ae29bdc0c6" target="_top" xlink:title="Executes the command to stop a Podman container.">
<polygon fill="white" stroke="black" points="188,-235 188,-265 364,-265 364,-235 188,-235"/>
<text text-anchor="start" x="196" y="-253" font-family="Helvetica,sans-Serif" font-size="10.00">PodmanStopContainerCommand</text>
<text text-anchor="middle" x="276" y="-242" font-family="Helvetica,sans-Serif" font-size="10.00">::Execute</text>
</a>
</g>
</g>
<!-- Node1&#45;&gt;Node9 -->
<g id="edge8" class="edge">
<title>Node1&#45;&gt;Node9</title>
<path fill="none" stroke="midnightblue" d="M402.45,-281.52C380.96,-276.12 357.49,-270.22 336.72,-265.01"/>
<polygon fill="midnightblue" stroke="midnightblue" points="401.62,-284.92 412.17,-283.97 403.32,-278.13 401.62,-284.92"/>
</g>
<!-- Node10 -->
<g id="node10" class="node">
<title>Node10</title>
<g id="a_node10"><a xlink:href="classDockerRemoveContainerCommand.html#a0c15063652bf92deb99a742a4a9f61fd" target="_top" xlink:title="Executes the command to remove a Docker container and clean up database state.">
<polygon fill="white" stroke="black" points="182,-186 182,-216 370,-216 370,-186 182,-186"/>
<text text-anchor="start" x="190" y="-204" font-family="Helvetica,sans-Serif" font-size="10.00">DockerRemoveContainerCommand</text>
<text text-anchor="middle" x="276" y="-193" font-family="Helvetica,sans-Serif" font-size="10.00">::Execute</text>
</a>
</g>
</g>
<!-- Node1&#45;&gt;Node10 -->
<g id="edge9" class="edge">
<title>Node1&#45;&gt;Node10</title>
<path fill="none" stroke="midnightblue" d="M448.16,-277.33C429.09,-261.05 401,-239.35 373,-226 364.99,-222.18 356.32,-218.89 347.58,-216.06"/>
<polygon fill="midnightblue" stroke="midnightblue" points="445.92,-280.01 455.76,-283.94 450.51,-274.73 445.92,-280.01"/>
</g>
<!-- Node11 -->
<g id="node11" class="node">
<title>Node11</title>
<g id="a_node11"><a xlink:href="classPodmanRemoveContainerCommand.html#a3bb0bf30e7f91e87c407980e1adcc398" target="_top" xlink:title="Executes the command to remove a Podman container and clean up database state.">
<polygon fill="white" stroke="black" points="179,-137 179,-167 373,-167 373,-137 179,-137"/>
<text text-anchor="start" x="187" y="-155" font-family="Helvetica,sans-Serif" font-size="10.00">PodmanRemoveContainerCommand</text>
<text text-anchor="middle" x="276" y="-144" font-family="Helvetica,sans-Serif" font-size="10.00">::Execute</text>
</a>
</g>
</g>
<!-- Node1&#45;&gt;Node11 -->
<g id="edge10" class="edge">
<title>Node1&#45;&gt;Node11</title>
<path fill="none" stroke="midnightblue" d="M458.87,-274.9C442.46,-247.08 411.74,-201.94 373,-177 367.06,-173.18 360.56,-169.94 353.84,-167.19"/>
<polygon fill="midnightblue" stroke="midnightblue" points="455.87,-276.7 463.88,-283.62 461.94,-273.21 455.87,-276.7"/>
</g>
<!-- Node12 -->
<g id="node12" class="node">
<title>Node12</title>
<g id="a_node12"><a xlink:href="classDockerRestartContainerCommand.html#a3852a9870150e02cde5e3f3cabf4d5d9" target="_top" xlink:title="Executes the command to restart a Docker container.">
<polygon fill="white" stroke="black" points="184.5,-88 184.5,-118 367.5,-118 367.5,-88 184.5,-88"/>
<text text-anchor="start" x="192.5" y="-106" font-family="Helvetica,sans-Serif" font-size="10.00">DockerRestartContainerCommand</text>
<text text-anchor="middle" x="276" y="-95" font-family="Helvetica,sans-Serif" font-size="10.00">::Execute</text>
</a>
</g>
</g>
<!-- Node1&#45;&gt;Node12 -->
<g id="edge11" class="edge">
<title>Node1&#45;&gt;Node12</title>
<path fill="none" stroke="midnightblue" d="M464.59,-274.37C452.02,-236.91 422.91,-165.97 373,-128 367.93,-124.14 362.32,-120.88 356.43,-118.11"/>
<polygon fill="midnightblue" stroke="midnightblue" points="461.29,-275.56 467.7,-284 467.95,-273.4 461.29,-275.56"/>
</g>
<!-- Node13 -->
<g id="node13" class="node">
<title>Node13</title>
<g id="a_node13"><a xlink:href="classPodmanRestartContainerCommand.html#ae4a585c345eafa6a97a1f38e4cb485ea" target="_top" xlink:title="Executes the command to restart a Podman container.">
<polygon fill="white" stroke="black" points="181.5,-39 181.5,-69 370.5,-69 370.5,-39 181.5,-39"/>
<text text-anchor="start" x="189.5" y="-57" font-family="Helvetica,sans-Serif" font-size="10.00">PodmanRestartContainerCommand</text>
<text text-anchor="middle" x="276" y="-46" font-family="Helvetica,sans-Serif" font-size="10.00">::Execute</text>
</a>
</g>
</g>
<!-- Node1&#45;&gt;Node13 -->
<g id="edge12" class="edge">
<title>Node1&#45;&gt;Node13</title>
<path fill="none" stroke="midnightblue" d="M467.94,-273.76C459.19,-227.85 434.17,-130.67 373,-79 368.39,-75.11 363.25,-71.82 357.81,-69.03"/>
<polygon fill="midnightblue" stroke="midnightblue" points="464.52,-274.54 469.74,-283.76 471.41,-273.3 464.52,-274.54"/>
</g>
<!-- Node14 -->
<g id="node14" class="node">
<title>Node14</title>
<g id="a_node14"><a xlink:href="init__handler_8cpp.html#a3ca899cad245b508cfb58fd9230fa669" target="_top" xlink:title="Initializes and clears the database.">
<polygon fill="white" stroke="black" points="236.5,-0.5 236.5,-19.5 315.5,-19.5 315.5,-0.5 236.5,-0.5"/>
<text text-anchor="middle" x="276" y="-7.5" font-family="Helvetica,sans-Serif" font-size="10.00">InitDatabase</text>
</a>
</g>
</g>
<!-- Node1&#45;&gt;Node14 -->
<g id="edge13" class="edge">
<title>Node1&#45;&gt;Node14</title>
<path fill="none" stroke="midnightblue" d="M470.57,-274.02C466.09,-220.51 447.74,-94.47 373,-30 357.4,-16.54 335.1,-11.34 315.92,-9.59"/>
<polygon fill="midnightblue" stroke="midnightblue" points="467.08,-274.29 471.31,-284 474.06,-273.77 467.08,-274.29"/>
</g>
<!-- Node15 -->
<g id="node15" class="node">
<title>Node15</title>
<g id="a_node15"><a xlink:href="init__handler_8cpp.html#ad98029164064eb3e856369697d9cc015" target="_top" xlink:title="Initializes all enabled project subsystems.">
<polygon fill="white" stroke="black" points="77,-0.5 77,-19.5 143,-19.5 143,-0.5 77,-0.5"/>
<text text-anchor="middle" x="110" y="-7.5" font-family="Helvetica,sans-Serif" font-size="10.00">InitProject</text>
</a>
</g>
</g>
<!-- Node14&#45;&gt;Node15 -->
<g id="edge14" class="edge">
<title>Node14&#45;&gt;Node15</title>
<path fill="none" stroke="midnightblue" d="M225.82,-10C199.08,-10 166.77,-10 143.25,-10"/>
<polygon fill="midnightblue" stroke="midnightblue" points="226.13,-13.5 236.13,-10 226.13,-6.5 226.13,-13.5"/>
</g>
<!-- Node16 -->
<g id="node16" class="node">
<title>Node16</title>
<g id="a_node16"><a xlink:href="main_8cpp.html#ae66f6b31b5ad750f1fe042a706a4e3d4" target="_top" xlink:title="Main function for the Container Manager application.">
<polygon fill="white" stroke="black" points="0,-0.5 0,-19.5 41,-19.5 41,-0.5 0,-0.5"/>
<text text-anchor="middle" x="20.5" y="-7.5" font-family="Helvetica,sans-Serif" font-size="10.00">main</text>
</a>
</g>
</g>
<!-- Node15&#45;&gt;Node16 -->
<g id="edge15" class="edge">
<title>Node15&#45;&gt;Node16</title>
<path fill="none" stroke="midnightblue" d="M66.87,-10C57.87,-10 48.77,-10 41.11,-10"/>
<polygon fill="midnightblue" stroke="midnightblue" points="66.92,-13.5 76.92,-10 66.92,-6.5 66.92,-13.5"/>
</g>
</g>
</svg>
