<?xml version="1.0" encoding="UTF-8" standalone="no"?>
<!DOCTYPE svg PUBLIC "-//W3C//DTD SVG 1.1//EN"
 "http://www.w3.org/Graphics/SVG/1.1/DTD/svg11.dtd">
<!-- Generated by graphviz version 2.43.0 (0)
 -->
<!-- Title: ProtoRequestExecutorHandler Pages: 1 -->
<svg width="198pt" height="193pt"
 viewBox="0.00 0.00 198.00 193.00" xmlns="http://www.w3.org/2000/svg" xmlns:xlink="http://www.w3.org/1999/xlink">
<g id="graph0" class="graph" transform="scale(1 1) rotate(0) translate(4 189)">
<title>ProtoRequestExecutorHandler</title>
<polygon fill="white" stroke="transparent" points="-4,4 -4,-189 194,-189 194,4 -4,4"/>
<!-- Node1 -->
<g id="node1" class="node">
<title>Node1</title>
<g id="a_node1"><a xlink:title="Executes requests received as serialized Protobuf data.">
<polygon fill="#bfbfbf" stroke="black" points="0,-0.5 0,-79.5 190,-79.5 190,-0.5 0,-0.5"/>
<text text-anchor="middle" x="95" y="-67.5" font-family="Helvetica,sans-Serif" font-size="10.00">ProtoRequestExecutorHandler</text>
<polyline fill="none" stroke="black" points="0,-60.5 190,-60.5 "/>
<text text-anchor="middle" x="95" y="-48.5" font-family="Helvetica,sans-Serif" font-size="10.00"> </text>
<polyline fill="none" stroke="black" points="0,-41.5 190,-41.5 "/>
<text text-anchor="start" x="8" y="-29.5" font-family="Helvetica,sans-Serif" font-size="10.00">+ ProtoRequestExecutorHandler()</text>
<text text-anchor="start" x="8" y="-18.5" font-family="Helvetica,sans-Serif" font-size="10.00">+ ~ProtoRequestExecutorHandler()</text>
<text text-anchor="start" x="8" y="-7.5" font-family="Helvetica,sans-Serif" font-size="10.00">+ Execute()</text>
</a>
</g>
</g>
<!-- Node2 -->
<g id="node2" class="node">
<title>Node2</title>
<g id="a_node2"><a xlink:href="classRequestExecutor.html" target="_top" xlink:title="Abstract base class for request executors supporting different input formats (e.g....">
<polygon fill="white" stroke="black" points="32,-116.5 32,-184.5 158,-184.5 158,-116.5 32,-116.5"/>
<text text-anchor="middle" x="95" y="-172.5" font-family="Helvetica,sans-Serif" font-size="10.00">RequestExecutor</text>
<polyline fill="none" stroke="black" points="32,-165.5 158,-165.5 "/>
<text text-anchor="middle" x="95" y="-153.5" font-family="Helvetica,sans-Serif" font-size="10.00"> </text>
<polyline fill="none" stroke="black" points="32,-146.5 158,-146.5 "/>
<text text-anchor="start" x="40" y="-134.5" font-family="Helvetica,sans-Serif" font-size="10.00">+ ~RequestExecutor()</text>
<text text-anchor="start" x="40" y="-123.5" font-family="Helvetica,sans-Serif" font-size="10.00">+ Execute()</text>
</a>
</g>
</g>
<!-- Node2&#45;&gt;Node1 -->
<g id="edge1" class="edge">
<title>Node2&#45;&gt;Node1</title>
<path fill="none" stroke="midnightblue" d="M95,-106.27C95,-97.48 95,-88.28 95,-79.65"/>
<polygon fill="none" stroke="midnightblue" points="91.5,-106.36 95,-116.36 98.5,-106.36 91.5,-106.36"/>
</g>
</g>
</svg>
