<?xml version="1.0" encoding="UTF-8" standalone="no"?>
<!DOCTYPE svg PUBLIC "-//W3C//DTD SVG 1.1//EN"
 "http://www.w3.org/Graphics/SVG/1.1/DTD/svg11.dtd">
<!-- Generated by graphviz version 2.43.0 (0)
 -->
<!-- Title: ContainerServiceHandler::HandleRequest Pages: 1 -->
<svg width="726pt" height="198pt"
 viewBox="0.00 0.00 726.00 197.50" xmlns="http://www.w3.org/2000/svg" xmlns:xlink="http://www.w3.org/1999/xlink">
<g id="graph0" class="graph" transform="scale(1 1) rotate(0) translate(4 193.5)">
<title>ContainerServiceHandler::HandleRequest</title>
<polygon fill="white" stroke="transparent" points="-4,4 -4,-193.5 722,-193.5 722,4 -4,4"/>
<!-- Node1 -->
<g id="node1" class="node">
<title>Node1</title>
<g id="a_node1"><a xlink:title="Handles a container request by dispatching to the appropriate operation. Updates the container status...">
<polygon fill="#bfbfbf" stroke="black" points="0,-63.5 0,-93.5 138,-93.5 138,-63.5 0,-63.5"/>
<text text-anchor="start" x="8" y="-81.5" font-family="Helvetica,sans-Serif" font-size="10.00">ContainerServiceHandler</text>
<text text-anchor="middle" x="69" y="-70.5" font-family="Helvetica,sans-Serif" font-size="10.00">::HandleRequest</text>
</a>
</g>
</g>
<!-- Node2 -->
<g id="node2" class="node">
<title>Node2</title>
<g id="a_node2"><a xlink:href="classContainerServiceHandler.html#a9c527464b3d91168a747a33361994000" target="_top" xlink:title="Performs the specified container operation using the request structure. Invokes the appropriate comma...">
<polygon fill="white" stroke="black" points="189.5,-126.5 189.5,-156.5 327.5,-156.5 327.5,-126.5 189.5,-126.5"/>
<text text-anchor="start" x="197.5" y="-144.5" font-family="Helvetica,sans-Serif" font-size="10.00">ContainerServiceHandler</text>
<text text-anchor="middle" x="258.5" y="-133.5" font-family="Helvetica,sans-Serif" font-size="10.00">::ContainerOperations</text>
</a>
</g>
</g>
<!-- Node1&#45;&gt;Node2 -->
<g id="edge1" class="edge">
<title>Node1&#45;&gt;Node2</title>
<path fill="none" stroke="midnightblue" d="M109.81,-93.67C129.1,-100.87 152.66,-109.41 174,-116.5 180.91,-118.8 188.18,-121.11 195.41,-123.36"/>
<polygon fill="midnightblue" stroke="midnightblue" points="194.65,-126.78 205.24,-126.37 196.7,-120.09 194.65,-126.78"/>
</g>
<!-- Node7 -->
<g id="node7" class="node">
<title>Node7</title>
<g id="a_node7"><a xlink:href="structStatus.html#a19a4e02345758bf3685dcb14a9678de1" target="_top" xlink:title="Checks if the status represents success.">
<polygon fill="white" stroke="black" points="226,-88 226,-107 291,-107 291,-88 226,-88"/>
<text text-anchor="middle" x="258.5" y="-95" font-family="Helvetica,sans-Serif" font-size="10.00">Status::ok</text>
</a>
</g>
</g>
<!-- Node1&#45;&gt;Node7 -->
<g id="edge6" class="edge">
<title>Node1&#45;&gt;Node7</title>
<path fill="none" stroke="midnightblue" d="M138.22,-85.41C164.19,-88.04 192.99,-90.96 215.78,-93.27"/>
<polygon fill="midnightblue" stroke="midnightblue" points="215.5,-96.76 225.8,-94.29 216.2,-89.8 215.5,-96.76"/>
</g>
<!-- Node8 -->
<g id="node8" class="node">
<title>Node8</title>
<g id="a_node8"><a xlink:href="classIDatabaseHandler.html#a32aef1bd17b79529d93fadc2d72441e5" target="_top" xlink:title="Removes the JSON object associated with the specified key from the database.">
<polygon fill="white" stroke="black" points="174,-50 174,-69 343,-69 343,-50 174,-50"/>
<text text-anchor="middle" x="258.5" y="-57" font-family="Helvetica,sans-Serif" font-size="10.00">IDatabaseHandler::RemoveKey</text>
</a>
</g>
</g>
<!-- Node1&#45;&gt;Node8 -->
<g id="edge7" class="edge">
<title>Node1&#45;&gt;Node8</title>
<path fill="none" stroke="midnightblue" d="M138.22,-71.59C146.58,-70.74 155.22,-69.86 163.87,-68.99"/>
<polygon fill="midnightblue" stroke="midnightblue" points="164.4,-72.45 174,-67.96 163.7,-65.49 164.4,-72.45"/>
</g>
<!-- Node9 -->
<g id="node9" class="node">
<title>Node9</title>
<g id="a_node9"><a xlink:href="classIDatabaseHandler.html#a10972030d1577974e9f86820e251c7d6" target="_top" xlink:title="Updates a specific field in the JSON object stored under the given key.">
<polygon fill="white" stroke="black" points="185.5,-0.5 185.5,-30.5 331.5,-30.5 331.5,-0.5 185.5,-0.5"/>
<text text-anchor="start" x="193.5" y="-18.5" font-family="Helvetica,sans-Serif" font-size="10.00">IDatabaseHandler::Update</text>
<text text-anchor="middle" x="258.5" y="-7.5" font-family="Helvetica,sans-Serif" font-size="10.00">Field</text>
</a>
</g>
</g>
<!-- Node1&#45;&gt;Node9 -->
<g id="edge8" class="edge">
<title>Node1&#45;&gt;Node9</title>
<path fill="none" stroke="midnightblue" d="M109.81,-63.33C129.1,-56.13 152.66,-47.59 174,-40.5 180.91,-38.2 188.18,-35.89 195.41,-33.64"/>
<polygon fill="midnightblue" stroke="midnightblue" points="196.7,-36.91 205.24,-30.63 194.65,-30.22 196.7,-36.91"/>
</g>
<!-- Node3 -->
<g id="node3" class="node">
<title>Node3</title>
<g id="a_node3"><a xlink:href="classCommandFactory.html#adf4da2f0dbcf9e4018f9afe8bd4a38e9" target="_top" xlink:title="Factory method to create a command based on the container request structure.">
<polygon fill="white" stroke="black" points="379,-170 379,-189 570,-189 570,-170 379,-170"/>
<text text-anchor="middle" x="474.5" y="-177" font-family="Helvetica,sans-Serif" font-size="10.00">CommandFactory::CreateCommand</text>
</a>
</g>
</g>
<!-- Node2&#45;&gt;Node3 -->
<g id="edge2" class="edge">
<title>Node2&#45;&gt;Node3</title>
<path fill="none" stroke="midnightblue" d="M327.5,-153.58C353.87,-158.26 383.89,-163.59 409.83,-168.19"/>
<polygon fill="midnightblue" stroke="midnightblue" points="409.46,-171.68 419.92,-169.99 410.69,-164.79 409.46,-171.68"/>
</g>
<!-- Node4 -->
<g id="node4" class="node">
<title>Node4</title>
<g id="a_node4"><a xlink:href="classInvoker.html#ac01c8216ff7b95532f2970a49198d840" target="_top" xlink:title="Execute the command.">
<polygon fill="white" stroke="black" points="429,-132 429,-151 520,-151 520,-132 429,-132"/>
<text text-anchor="middle" x="474.5" y="-139" font-family="Helvetica,sans-Serif" font-size="10.00">Invoker::Invoke</text>
</a>
</g>
</g>
<!-- Node2&#45;&gt;Node4 -->
<g id="edge3" class="edge">
<title>Node2&#45;&gt;Node4</title>
<path fill="none" stroke="midnightblue" d="M327.5,-141.5C356.91,-141.5 390.88,-141.5 418.64,-141.5"/>
<polygon fill="midnightblue" stroke="midnightblue" points="418.96,-145 428.96,-141.5 418.96,-138 418.96,-145"/>
</g>
<!-- Node6 -->
<g id="node6" class="node">
<title>Node6</title>
<g id="a_node6"><a xlink:href="classInvoker.html#ae9f10a2487afd153bf0da69ae410a0e9" target="_top" xlink:title="Set the command to be executed.">
<polygon fill="white" stroke="black" points="412,-94 412,-113 537,-113 537,-94 412,-94"/>
<text text-anchor="middle" x="474.5" y="-101" font-family="Helvetica,sans-Serif" font-size="10.00">Invoker::SetCommand</text>
</a>
</g>
</g>
<!-- Node2&#45;&gt;Node6 -->
<g id="edge5" class="edge">
<title>Node2&#45;&gt;Node6</title>
<path fill="none" stroke="midnightblue" d="M327.5,-129.42C353.87,-124.74 383.89,-119.41 409.83,-114.81"/>
<polygon fill="midnightblue" stroke="midnightblue" points="410.69,-118.21 419.92,-113.01 409.46,-111.32 410.69,-118.21"/>
</g>
<!-- Node5 -->
<g id="node5" class="node">
<title>Node5</title>
<g id="a_node5"><a xlink:href="classCommand.html#a8d6fcd1baa8fd96ce9b423b66765ab4a" target="_top" xlink:title="Execute the command.">
<polygon fill="white" stroke="black" points="606,-132 606,-151 718,-151 718,-132 606,-132"/>
<text text-anchor="middle" x="662" y="-139" font-family="Helvetica,sans-Serif" font-size="10.00">Command::Execute</text>
</a>
</g>
</g>
<!-- Node4&#45;&gt;Node5 -->
<g id="edge4" class="edge">
<title>Node4&#45;&gt;Node5</title>
<path fill="none" stroke="midnightblue" d="M520.4,-141.5C543.02,-141.5 570.87,-141.5 595.79,-141.5"/>
<polygon fill="midnightblue" stroke="midnightblue" points="595.91,-145 605.91,-141.5 595.91,-138 595.91,-145"/>
</g>
</g>
</svg>
