<?xml version="1.0" encoding="UTF-8" standalone="no"?>
<!DOCTYPE svg PUBLIC "-//W3C//DTD SVG 1.1//EN"
 "http://www.w3.org/Graphics/SVG/1.1/DTD/svg11.dtd">
<!-- Generated by graphviz version 2.43.0 (0)
 -->
<!-- Title: containermanager::ContainerParameters::set_allocated_restart_policy Pages: 1 -->
<svg width="362pt" height="50pt"
 viewBox="0.00 0.00 362.00 50.00" xmlns="http://www.w3.org/2000/svg" xmlns:xlink="http://www.w3.org/1999/xlink">
<g id="graph0" class="graph" transform="scale(1 1) rotate(0) translate(4 46)">
<title>containermanager::ContainerParameters::set_allocated_restart_policy</title>
<polygon fill="white" stroke="transparent" points="-4,4 -4,-46 358,-46 358,4 -4,4"/>
<!-- Node1 -->
<g id="node1" class="node">
<title>Node1</title>
<g id="a_node1"><a xlink:title=" ">
<polygon fill="#bfbfbf" stroke="black" points="0,-0.5 0,-41.5 159,-41.5 159,-0.5 0,-0.5"/>
<text text-anchor="start" x="8" y="-29.5" font-family="Helvetica,sans-Serif" font-size="10.00">containermanager::Container</text>
<text text-anchor="start" x="8" y="-18.5" font-family="Helvetica,sans-Serif" font-size="10.00">Parameters::set_allocated</text>
<text text-anchor="middle" x="79.5" y="-7.5" font-family="Helvetica,sans-Serif" font-size="10.00">_restart_policy</text>
</a>
</g>
</g>
<!-- Node2 -->
<g id="node2" class="node">
<title>Node2</title>
<g id="a_node2"><a xlink:href="classcontainermanager_1_1ContainerParameters.html#a51eb0c4c3c36e1e3326f34559917a304" target="_top" xlink:title=" ">
<polygon fill="white" stroke="black" points="195,-6 195,-36 354,-36 354,-6 195,-6"/>
<text text-anchor="start" x="203" y="-24" font-family="Helvetica,sans-Serif" font-size="10.00">containermanager::Container</text>
<text text-anchor="middle" x="274.5" y="-13" font-family="Helvetica,sans-Serif" font-size="10.00">Parameters::restart_policy</text>
</a>
</g>
</g>
<!-- Node1&#45;&gt;Node2 -->
<g id="edge1" class="edge">
<title>Node1&#45;&gt;Node2</title>
<path fill="none" stroke="midnightblue" d="M159,-21C167.48,-21 176.14,-21 184.73,-21"/>
<polygon fill="midnightblue" stroke="midnightblue" points="184.76,-24.5 194.76,-21 184.76,-17.5 184.76,-24.5"/>
</g>
</g>
</svg>
