<?xml version="1.0" encoding="UTF-8" standalone="no"?>
<!DOCTYPE svg PUBLIC "-//W3C//DTD SVG 1.1//EN"
 "http://www.w3.org/Graphics/SVG/1.1/DTD/svg11.dtd">
<!-- Generated by graphviz version 2.43.0 (0)
 -->
<!-- Title: DockerApiStartContainerCommand::Execute Pages: 1 -->
<svg width="399pt" height="66pt"
 viewBox="0.00 0.00 399.00 66.00" xmlns="http://www.w3.org/2000/svg" xmlns:xlink="http://www.w3.org/1999/xlink">
<g id="graph0" class="graph" transform="scale(1 1) rotate(0) translate(4 62)">
<title>DockerApiStartContainerCommand::Execute</title>
<polygon fill="white" stroke="transparent" points="-4,4 -4,-62 395,-62 395,4 -4,4"/>
<!-- Node1 -->
<g id="node1" class="node">
<title>Node1</title>
<g id="a_node1"><a xlink:title="Executes the command to start a Docker container via the API.">
<polygon fill="#bfbfbf" stroke="black" points="0,-14 0,-44 187,-44 187,-14 0,-14"/>
<text text-anchor="start" x="8" y="-32" font-family="Helvetica,sans-Serif" font-size="10.00">DockerApiStartContainerCommand</text>
<text text-anchor="middle" x="93.5" y="-21" font-family="Helvetica,sans-Serif" font-size="10.00">::Execute</text>
</a>
</g>
</g>
<!-- Node2 -->
<g id="node2" class="node">
<title>Node2</title>
<g id="a_node2"><a xlink:href="common_8hpp.html#a6ef961c11398422cd4dd9b4f66a57d03" target="_top" xlink:title="Compose a container API endpoint for Docker or Podman API.">
<polygon fill="white" stroke="black" points="223,-38.5 223,-57.5 391,-57.5 391,-38.5 223,-38.5"/>
<text text-anchor="middle" x="307" y="-45.5" font-family="Helvetica,sans-Serif" font-size="10.00">ComposeContainerApiEndpoint</text>
</a>
</g>
</g>
<!-- Node1&#45;&gt;Node2 -->
<g id="edge1" class="edge">
<title>Node1&#45;&gt;Node2</title>
<path fill="none" stroke="midnightblue" d="M187.27,-37.33C195.71,-38.09 204.27,-38.86 212.71,-39.62"/>
<polygon fill="midnightblue" stroke="midnightblue" points="212.68,-43.13 222.95,-40.54 213.3,-36.16 212.68,-43.13"/>
</g>
<!-- Node3 -->
<g id="node3" class="node">
<title>Node3</title>
<g id="a_node3"><a xlink:href="classCurlHandler.html#a35359e5d7f3412aef304d81dbe02a7bc" target="_top" xlink:title="Perform a HTTP POST request over a Unix domain socket.">
<polygon fill="white" stroke="black" points="245,-0.5 245,-19.5 369,-19.5 369,-0.5 245,-0.5"/>
<text text-anchor="middle" x="307" y="-7.5" font-family="Helvetica,sans-Serif" font-size="10.00">CurlHandler::PostUnix</text>
</a>
</g>
</g>
<!-- Node1&#45;&gt;Node3 -->
<g id="edge2" class="edge">
<title>Node1&#45;&gt;Node3</title>
<path fill="none" stroke="midnightblue" d="M187.27,-20.67C203.14,-19.24 219.41,-17.78 234.61,-16.41"/>
<polygon fill="midnightblue" stroke="midnightblue" points="235.3,-19.87 244.95,-15.48 234.68,-12.89 235.3,-19.87"/>
</g>
</g>
</svg>
