<?xml version="1.0" encoding="UTF-8" standalone="no"?>
<!DOCTYPE svg PUBLIC "-//W3C//DTD SVG 1.1//EN"
 "http://www.w3.org/Graphics/SVG/1.1/DTD/svg11.dtd">
<!-- Generated by graphviz version 2.43.0 (0)
 -->
<!-- Title: ContainerServiceHandlerTest Pages: 1 -->
<svg width="301pt" height="481pt"
 viewBox="0.00 0.00 300.50 481.00" xmlns="http://www.w3.org/2000/svg" xmlns:xlink="http://www.w3.org/1999/xlink">
<g id="graph0" class="graph" transform="scale(1 1) rotate(0) translate(4 477)">
<title>ContainerServiceHandlerTest</title>
<polygon fill="white" stroke="transparent" points="-4,4 -4,-477 296.5,-477 296.5,4 -4,4"/>
<!-- Node1 -->
<g id="node1" class="node">
<title>Node1</title>
<g id="a_node1"><a xlink:title=" ">
<polygon fill="#bfbfbf" stroke="black" points="0,-0.5 0,-57.5 158,-57.5 158,-0.5 0,-0.5"/>
<text text-anchor="middle" x="79" y="-45.5" font-family="Helvetica,sans-Serif" font-size="10.00">ContainerServiceHandlerTest</text>
<polyline fill="none" stroke="black" points="0,-38.5 158,-38.5 "/>
<text text-anchor="middle" x="79" y="-26.5" font-family="Helvetica,sans-Serif" font-size="10.00"> </text>
<polyline fill="none" stroke="black" points="0,-19.5 158,-19.5 "/>
<text text-anchor="start" x="8" y="-7.5" font-family="Helvetica,sans-Serif" font-size="10.00"># SetUp()</text>
</a>
</g>
</g>
<!-- Node2 -->
<g id="node2" class="node">
<title>Node2</title>
<g id="a_node2"><a xlink:title=" ">
<polygon fill="white" stroke="#bfbfbf" points="25,-111 25,-168 101,-168 101,-111 25,-111"/>
<text text-anchor="middle" x="63" y="-156" font-family="Helvetica,sans-Serif" font-size="10.00">testing::Test</text>
<polyline fill="none" stroke="#bfbfbf" points="25,-149 101,-149 "/>
<text text-anchor="middle" x="63" y="-137" font-family="Helvetica,sans-Serif" font-size="10.00"> </text>
<polyline fill="none" stroke="#bfbfbf" points="25,-130 101,-130 "/>
<text text-anchor="middle" x="63" y="-118" font-family="Helvetica,sans-Serif" font-size="10.00"> </text>
</a>
</g>
</g>
<!-- Node2&#45;&gt;Node1 -->
<g id="edge1" class="edge">
<title>Node2&#45;&gt;Node1</title>
<path fill="none" stroke="midnightblue" d="M68.55,-100.85C70.65,-86.64 72.99,-70.74 74.93,-57.61"/>
<polygon fill="none" stroke="midnightblue" points="65.08,-100.44 67.08,-110.84 72,-101.46 65.08,-100.44"/>
</g>
<!-- Node3 -->
<g id="node3" class="node">
<title>Node3</title>
<g id="a_node3"><a xlink:title=" ">
<polygon fill="white" stroke="#bfbfbf" points="119.5,-105.5 119.5,-173.5 292.5,-173.5 292.5,-105.5 119.5,-105.5"/>
<text text-anchor="start" x="127.5" y="-161.5" font-family="Helvetica,sans-Serif" font-size="10.00">std::shared_ptr&lt; MockDatabase</text>
<text text-anchor="middle" x="206" y="-150.5" font-family="Helvetica,sans-Serif" font-size="10.00">Handler &gt;</text>
<polyline fill="none" stroke="#bfbfbf" points="119.5,-143.5 292.5,-143.5 "/>
<text text-anchor="middle" x="206" y="-131.5" font-family="Helvetica,sans-Serif" font-size="10.00"> </text>
<polyline fill="none" stroke="#bfbfbf" points="119.5,-124.5 292.5,-124.5 "/>
<text text-anchor="start" x="127.5" y="-112.5" font-family="Helvetica,sans-Serif" font-size="10.00">+ operator&#45;&gt;()</text>
</a>
</g>
</g>
<!-- Node3&#45;&gt;Node1 -->
<g id="edge2" class="edge">
<title>Node3&#45;&gt;Node1</title>
<path fill="none" stroke="#404040" d="M167.21,-105.36C152.61,-92.88 135.94,-78.65 121.06,-65.93"/>
<polygon fill="none" stroke="#404040" points="120.7,-65.62 113.54,-64.77 111.57,-57.83 118.73,-58.68 120.7,-65.62"/>
<text text-anchor="middle" x="175" y="-79" font-family="Helvetica,sans-Serif" font-size="10.00"> #db_handler</text>
</g>
<!-- Node4 -->
<g id="node4" class="node">
<title>Node4</title>
<g id="a_node4"><a xlink:href="classMockDatabaseHandler.html" target="_top" xlink:title=" ">
<polygon fill="white" stroke="black" points="142,-221.5 142,-322.5 270,-322.5 270,-221.5 142,-221.5"/>
<text text-anchor="middle" x="206" y="-310.5" font-family="Helvetica,sans-Serif" font-size="10.00">MockDatabaseHandler</text>
<polyline fill="none" stroke="black" points="142,-303.5 270,-303.5 "/>
<text text-anchor="middle" x="206" y="-291.5" font-family="Helvetica,sans-Serif" font-size="10.00"> </text>
<polyline fill="none" stroke="black" points="142,-284.5 270,-284.5 "/>
<text text-anchor="start" x="150" y="-272.5" font-family="Helvetica,sans-Serif" font-size="10.00">+ MOCK_METHOD()</text>
<text text-anchor="start" x="150" y="-261.5" font-family="Helvetica,sans-Serif" font-size="10.00">+ MOCK_METHOD()</text>
<text text-anchor="start" x="150" y="-250.5" font-family="Helvetica,sans-Serif" font-size="10.00">+ MOCK_METHOD()</text>
<text text-anchor="start" x="150" y="-239.5" font-family="Helvetica,sans-Serif" font-size="10.00">+ MOCK_METHOD()</text>
<text text-anchor="start" x="150" y="-228.5" font-family="Helvetica,sans-Serif" font-size="10.00">+ MOCK_METHOD()</text>
</a>
</g>
</g>
<!-- Node4&#45;&gt;Node3 -->
<g id="edge3" class="edge">
<title>Node4&#45;&gt;Node3</title>
<path fill="none" stroke="#404040" d="M206,-221.29C206,-209.55 206,-197.09 206,-185.57"/>
<polygon fill="none" stroke="#404040" points="206,-185.51 202,-179.51 206,-173.51 210,-179.51 206,-185.51"/>
<text text-anchor="middle" x="218.5" y="-195" font-family="Helvetica,sans-Serif" font-size="10.00"> +ptr</text>
</g>
<!-- Node5 -->
<g id="node5" class="node">
<title>Node5</title>
<g id="a_node5"><a xlink:href="classIDatabaseHandler.html" target="_top" xlink:title="Interface for database handlers supporting JSON storage and retrieval.">
<polygon fill="white" stroke="black" points="140.5,-360.5 140.5,-472.5 271.5,-472.5 271.5,-360.5 140.5,-360.5"/>
<text text-anchor="middle" x="206" y="-460.5" font-family="Helvetica,sans-Serif" font-size="10.00">IDatabaseHandler</text>
<polyline fill="none" stroke="black" points="140.5,-453.5 271.5,-453.5 "/>
<text text-anchor="middle" x="206" y="-441.5" font-family="Helvetica,sans-Serif" font-size="10.00"> </text>
<polyline fill="none" stroke="black" points="140.5,-434.5 271.5,-434.5 "/>
<text text-anchor="start" x="148.5" y="-422.5" font-family="Helvetica,sans-Serif" font-size="10.00">+ ~IDatabaseHandler()</text>
<text text-anchor="start" x="148.5" y="-411.5" font-family="Helvetica,sans-Serif" font-size="10.00">+ SaveJson()</text>
<text text-anchor="start" x="148.5" y="-400.5" font-family="Helvetica,sans-Serif" font-size="10.00">+ GetJson()</text>
<text text-anchor="start" x="148.5" y="-389.5" font-family="Helvetica,sans-Serif" font-size="10.00">+ ClearDatabase()</text>
<text text-anchor="start" x="148.5" y="-378.5" font-family="Helvetica,sans-Serif" font-size="10.00">+ UpdateField()</text>
<text text-anchor="start" x="148.5" y="-367.5" font-family="Helvetica,sans-Serif" font-size="10.00">+ RemoveKey()</text>
</a>
</g>
</g>
<!-- Node5&#45;&gt;Node4 -->
<g id="edge4" class="edge">
<title>Node5&#45;&gt;Node4</title>
<path fill="none" stroke="midnightblue" d="M206,-350.13C206,-340.96 206,-331.65 206,-322.83"/>
<polygon fill="none" stroke="midnightblue" points="202.5,-350.41 206,-360.41 209.5,-350.41 202.5,-350.41"/>
</g>
</g>
</svg>
