<?xml version="1.0" encoding="UTF-8" standalone="no"?>
<!DOCTYPE svg PUBLIC "-//W3C//DTD SVG 1.1//EN"
 "http://www.w3.org/Graphics/SVG/1.1/DTD/svg11.dtd">
<!-- Generated by graphviz version 2.43.0 (0)
 -->
<!-- Title: PodmanStopContainerCommand::Execute Pages: 1 -->
<svg width="366pt" height="88pt"
 viewBox="0.00 0.00 366.00 88.00" xmlns="http://www.w3.org/2000/svg" xmlns:xlink="http://www.w3.org/1999/xlink">
<g id="graph0" class="graph" transform="scale(1 1) rotate(0) translate(4 84)">
<title>PodmanStopContainerCommand::Execute</title>
<polygon fill="white" stroke="transparent" points="-4,4 -4,-84 362,-84 362,4 -4,4"/>
<!-- Node1 -->
<g id="node1" class="node">
<title>Node1</title>
<g id="a_node1"><a xlink:title="Executes the command to stop a Podman container.">
<polygon fill="#bfbfbf" stroke="black" points="0,-24.5 0,-54.5 176,-54.5 176,-24.5 0,-24.5"/>
<text text-anchor="start" x="8" y="-42.5" font-family="Helvetica,sans-Serif" font-size="10.00">PodmanStopContainerCommand</text>
<text text-anchor="middle" x="88" y="-31.5" font-family="Helvetica,sans-Serif" font-size="10.00">::Execute</text>
</a>
</g>
</g>
<!-- Node2 -->
<g id="node2" class="node">
<title>Node2</title>
<g id="a_node2"><a xlink:href="classRedisDatabaseHandler.html#a07c65b208d5997ec20ed239dca4081ce" target="_top" xlink:title="Retrieves the singleton instance of the RedisDatabaseHandler.">
<polygon fill="white" stroke="black" points="221,-49.5 221,-79.5 349,-79.5 349,-49.5 221,-49.5"/>
<text text-anchor="start" x="229" y="-67.5" font-family="Helvetica,sans-Serif" font-size="10.00">RedisDatabaseHandler</text>
<text text-anchor="middle" x="285" y="-56.5" font-family="Helvetica,sans-Serif" font-size="10.00">::GetInstance</text>
</a>
</g>
</g>
<!-- Node1&#45;&gt;Node2 -->
<g id="edge1" class="edge">
<title>Node1&#45;&gt;Node2</title>
<path fill="none" stroke="midnightblue" d="M176.23,-50.68C187.72,-52.16 199.41,-53.65 210.63,-55.09"/>
<polygon fill="midnightblue" stroke="midnightblue" points="210.43,-58.6 220.8,-56.4 211.32,-51.65 210.43,-58.6"/>
</g>
<!-- Node3 -->
<g id="node3" class="node">
<title>Node3</title>
<g id="a_node3"><a xlink:href="classIDatabaseHandler.html#a10972030d1577974e9f86820e251c7d6" target="_top" xlink:title="Updates a specific field in the JSON object stored under the given key.">
<polygon fill="white" stroke="black" points="212,-0.5 212,-30.5 358,-30.5 358,-0.5 212,-0.5"/>
<text text-anchor="start" x="220" y="-18.5" font-family="Helvetica,sans-Serif" font-size="10.00">IDatabaseHandler::Update</text>
<text text-anchor="middle" x="285" y="-7.5" font-family="Helvetica,sans-Serif" font-size="10.00">Field</text>
</a>
</g>
</g>
<!-- Node1&#45;&gt;Node3 -->
<g id="edge2" class="edge">
<title>Node1&#45;&gt;Node3</title>
<path fill="none" stroke="midnightblue" d="M176.23,-28.76C184.67,-27.73 193.21,-26.67 201.59,-25.64"/>
<polygon fill="midnightblue" stroke="midnightblue" points="202.23,-29.09 211.73,-24.39 201.38,-22.14 202.23,-29.09"/>
</g>
</g>
</svg>
