<?xml version="1.0" encoding="UTF-8" standalone="no"?>
<!DOCTYPE svg PUBLIC "-//W3C//DTD SVG 1.1//EN"
 "http://www.w3.org/Graphics/SVG/1.1/DTD/svg11.dtd">
<!-- Generated by graphviz version 2.43.0 (0)
 -->
<!-- Title: PodmanApiRuntimeAvailableCommand::Execute Pages: 1 -->
<svg width="322pt" height="104pt"
 viewBox="0.00 0.00 322.00 104.00" xmlns="http://www.w3.org/2000/svg" xmlns:xlink="http://www.w3.org/1999/xlink">
<g id="graph0" class="graph" transform="scale(1 1) rotate(0) translate(4 100)">
<title>PodmanApiRuntimeAvailableCommand::Execute</title>
<polygon fill="white" stroke="transparent" points="-4,4 -4,-100 318,-100 318,4 -4,4"/>
<!-- Node1 -->
<g id="node1" class="node">
<title>Node1</title>
<g id="a_node1"><a xlink:title="Executes the command to check Podman API runtime availability.">
<polygon fill="#bfbfbf" stroke="black" points="0,-33 0,-63 158,-63 158,-33 0,-33"/>
<text text-anchor="start" x="8" y="-51" font-family="Helvetica,sans-Serif" font-size="10.00">PodmanApiRuntimeAvailable</text>
<text text-anchor="middle" x="79" y="-40" font-family="Helvetica,sans-Serif" font-size="10.00">Command::Execute</text>
</a>
</g>
</g>
<!-- Node2 -->
<g id="node2" class="node">
<title>Node2</title>
<g id="a_node2"><a xlink:href="structStatus.html#ace3b560f6a5f4a2d62a02b6e03700538" target="_top" xlink:title="Returns an error Status with the given code and message.">
<polygon fill="white" stroke="black" points="215.5,-76.5 215.5,-95.5 292.5,-95.5 292.5,-76.5 215.5,-76.5"/>
<text text-anchor="middle" x="254" y="-83.5" font-family="Helvetica,sans-Serif" font-size="10.00">Status::Error</text>
</a>
</g>
</g>
<!-- Node1&#45;&gt;Node2 -->
<g id="edge1" class="edge">
<title>Node1&#45;&gt;Node2</title>
<path fill="none" stroke="midnightblue" d="M148.37,-63.02C167.48,-67.22 187.82,-71.68 205.44,-75.55"/>
<polygon fill="midnightblue" stroke="midnightblue" points="204.95,-79.03 215.47,-77.76 206.45,-72.19 204.95,-79.03"/>
</g>
<!-- Node3 -->
<g id="node3" class="node">
<title>Node3</title>
<g id="a_node3"><a xlink:href="classCurlHandler.html#a9853b0c9406486fa0cfc422a10bbf068" target="_top" xlink:title="Perform a HTTP GET request over a Unix domain socket.">
<polygon fill="white" stroke="black" points="194,-38.5 194,-57.5 314,-57.5 314,-38.5 194,-38.5"/>
<text text-anchor="middle" x="254" y="-45.5" font-family="Helvetica,sans-Serif" font-size="10.00">CurlHandler::GetUnix</text>
</a>
</g>
</g>
<!-- Node1&#45;&gt;Node3 -->
<g id="edge2" class="edge">
<title>Node1&#45;&gt;Node3</title>
<path fill="none" stroke="midnightblue" d="M158.15,-48C166.68,-48 175.32,-48 183.73,-48"/>
<polygon fill="midnightblue" stroke="midnightblue" points="183.86,-51.5 193.86,-48 183.86,-44.5 183.86,-51.5"/>
</g>
<!-- Node4 -->
<g id="node4" class="node">
<title>Node4</title>
<g id="a_node4"><a xlink:href="structStatus.html#ab516c5b687e7e334a1865fe28fd39122" target="_top" xlink:title="Returns a success Status.">
<polygon fill="white" stroke="black" points="220.5,-0.5 220.5,-19.5 287.5,-19.5 287.5,-0.5 220.5,-0.5"/>
<text text-anchor="middle" x="254" y="-7.5" font-family="Helvetica,sans-Serif" font-size="10.00">Status::Ok</text>
</a>
</g>
</g>
<!-- Node1&#45;&gt;Node4 -->
<g id="edge3" class="edge">
<title>Node1&#45;&gt;Node4</title>
<path fill="none" stroke="midnightblue" d="M148.37,-32.98C169.25,-28.4 191.61,-23.49 210.27,-19.39"/>
<polygon fill="midnightblue" stroke="midnightblue" points="211.21,-22.76 220.22,-17.2 209.71,-15.93 211.21,-22.76"/>
</g>
</g>
</svg>
