<?xml version="1.0" encoding="UTF-8" standalone="no"?>
<!DOCTYPE svg PUBLIC "-//W3C//DTD SVG 1.1//EN"
 "http://www.w3.org/Graphics/SVG/1.1/DTD/svg11.dtd">
<!-- Generated by graphviz version 2.43.0 (0)
 -->
<!-- Title: ProtoRequestExecutorHandler::Execute Pages: 1 -->
<svg width="946pt" height="320pt"
 viewBox="0.00 0.00 946.00 320.00" xmlns="http://www.w3.org/2000/svg" xmlns:xlink="http://www.w3.org/1999/xlink">
<g id="graph0" class="graph" transform="scale(1 1) rotate(0) translate(4 316)">
<title>ProtoRequestExecutorHandler::Execute</title>
<polygon fill="white" stroke="transparent" points="-4,4 -4,-316 942,-316 942,4 -4,4"/>
<!-- Node1 -->
<g id="node1" class="node">
<title>Node1</title>
<g id="a_node1"><a xlink:title="Receives a serialized protobuf string, deserializes, saves to DB, and returns result as JSON.">
<polygon fill="#bfbfbf" stroke="black" points="0,-137 0,-167 163,-167 163,-137 0,-137"/>
<text text-anchor="start" x="8" y="-155" font-family="Helvetica,sans-Serif" font-size="10.00">ProtoRequestExecutorHandler</text>
<text text-anchor="middle" x="81.5" y="-144" font-family="Helvetica,sans-Serif" font-size="10.00">::Execute</text>
</a>
</g>
</g>
<!-- Node2 -->
<g id="node2" class="node">
<title>Node2</title>
<g id="a_node2"><a xlink:href="classcontainermanager_1_1ContainerParameters.html#a1fa02ce02859ee70a41e1b4fe203e412" target="_top" xlink:title=" ">
<polygon fill="white" stroke="black" points="199,-274 199,-304 358,-304 358,-274 199,-274"/>
<text text-anchor="start" x="207" y="-292" font-family="Helvetica,sans-Serif" font-size="10.00">containermanager::Container</text>
<text text-anchor="middle" x="278.5" y="-281" font-family="Helvetica,sans-Serif" font-size="10.00">Parameters::container_name</text>
</a>
</g>
</g>
<!-- Node1&#45;&gt;Node2 -->
<g id="edge1" class="edge">
<title>Node1&#45;&gt;Node2</title>
<path fill="none" stroke="midnightblue" d="M94.44,-167.33C113.86,-191.29 154.64,-237.59 199,-264 202.59,-266.14 206.39,-268.12 210.3,-269.94"/>
<polygon fill="midnightblue" stroke="midnightblue" points="209.01,-273.19 219.58,-273.92 211.77,-266.76 209.01,-273.19"/>
</g>
<!-- Node3 -->
<g id="node3" class="node">
<title>Node3</title>
<g id="a_node3"><a xlink:href="structStatus.html#ace3b560f6a5f4a2d62a02b6e03700538" target="_top" xlink:title="Returns an error Status with the given code and message.">
<polygon fill="white" stroke="black" points="240,-235.5 240,-254.5 317,-254.5 317,-235.5 240,-235.5"/>
<text text-anchor="middle" x="278.5" y="-242.5" font-family="Helvetica,sans-Serif" font-size="10.00">Status::Error</text>
</a>
</g>
</g>
<!-- Node1&#45;&gt;Node3 -->
<g id="edge2" class="edge">
<title>Node1&#45;&gt;Node3</title>
<path fill="none" stroke="midnightblue" d="M102.47,-167.24C124.87,-183.65 162.8,-209.5 199,-225 208.8,-229.2 219.67,-232.66 230.13,-235.46"/>
<polygon fill="midnightblue" stroke="midnightblue" points="229.43,-238.89 239.98,-237.94 231.14,-232.1 229.43,-238.89"/>
</g>
<!-- Node4 -->
<g id="node4" class="node">
<title>Node4</title>
<g id="a_node4"><a xlink:href="classContainerServiceHandler.html#a16f0650a9d5719fc441541a2adc5f29a" target="_top" xlink:title="Handles a container request by dispatching to the appropriate operation. Updates the container status...">
<polygon fill="white" stroke="black" points="209.5,-186 209.5,-216 347.5,-216 347.5,-186 209.5,-186"/>
<text text-anchor="start" x="217.5" y="-204" font-family="Helvetica,sans-Serif" font-size="10.00">ContainerServiceHandler</text>
<text text-anchor="middle" x="278.5" y="-193" font-family="Helvetica,sans-Serif" font-size="10.00">::HandleRequest</text>
</a>
</g>
</g>
<!-- Node1&#45;&gt;Node4 -->
<g id="edge3" class="edge">
<title>Node1&#45;&gt;Node4</title>
<path fill="none" stroke="midnightblue" d="M142.33,-167.03C163.11,-172.26 186.58,-178.15 208.07,-183.55"/>
<polygon fill="midnightblue" stroke="midnightblue" points="207.23,-186.95 217.78,-185.99 208.94,-180.16 207.23,-186.95"/>
</g>
<!-- Node13 -->
<g id="node13" class="node">
<title>Node13</title>
<g id="a_node13"><a xlink:href="classcontainermanager_1_1ContainerRequest.html#a28ace998fd1164adc2da2f87d4f45ab0" target="_top" xlink:title=" ">
<polygon fill="white" stroke="black" points="199,-137 199,-167 358,-167 358,-137 199,-137"/>
<text text-anchor="start" x="207" y="-155" font-family="Helvetica,sans-Serif" font-size="10.00">containermanager::Container</text>
<text text-anchor="middle" x="278.5" y="-144" font-family="Helvetica,sans-Serif" font-size="10.00">Request::operation</text>
</a>
</g>
</g>
<!-- Node1&#45;&gt;Node13 -->
<g id="edge12" class="edge">
<title>Node1&#45;&gt;Node13</title>
<path fill="none" stroke="midnightblue" d="M163.22,-152C171.56,-152 180.08,-152 188.5,-152"/>
<polygon fill="midnightblue" stroke="midnightblue" points="188.72,-155.5 198.72,-152 188.72,-148.5 188.72,-155.5"/>
</g>
<!-- Node14 -->
<g id="node14" class="node">
<title>Node14</title>
<g id="a_node14"><a xlink:href="classcontainermanager_1_1ContainerRequest.html#aa9ca92cdaef7d9ae3358c34fa8a024dd" target="_top" xlink:title=" ">
<polygon fill="white" stroke="black" points="199,-88 199,-118 358,-118 358,-88 199,-88"/>
<text text-anchor="start" x="207" y="-106" font-family="Helvetica,sans-Serif" font-size="10.00">containermanager::Container</text>
<text text-anchor="middle" x="278.5" y="-95" font-family="Helvetica,sans-Serif" font-size="10.00">Request::parameters</text>
</a>
</g>
</g>
<!-- Node1&#45;&gt;Node14 -->
<g id="edge13" class="edge">
<title>Node1&#45;&gt;Node14</title>
<path fill="none" stroke="midnightblue" d="M142.33,-136.97C163.11,-131.74 186.58,-125.85 208.07,-120.45"/>
<polygon fill="midnightblue" stroke="midnightblue" points="208.94,-123.84 217.78,-118.01 207.23,-117.05 208.94,-123.84"/>
</g>
<!-- Node15 -->
<g id="node15" class="node">
<title>Node15</title>
<g id="a_node15"><a xlink:href="classcontainermanager_1_1ContainerRequest.html#a83c720592fa42a002f8a88c190cecfa5" target="_top" xlink:title=" ">
<polygon fill="white" stroke="black" points="199,-39 199,-69 358,-69 358,-39 199,-39"/>
<text text-anchor="start" x="207" y="-57" font-family="Helvetica,sans-Serif" font-size="10.00">containermanager::Container</text>
<text text-anchor="middle" x="278.5" y="-46" font-family="Helvetica,sans-Serif" font-size="10.00">Request::runtime</text>
</a>
</g>
</g>
<!-- Node1&#45;&gt;Node15 -->
<g id="edge14" class="edge">
<title>Node1&#45;&gt;Node15</title>
<path fill="none" stroke="midnightblue" d="M102.58,-136.86C125.07,-120.49 163.08,-94.53 199,-78 203.12,-76.11 207.42,-74.31 211.8,-72.62"/>
<polygon fill="midnightblue" stroke="midnightblue" points="213.29,-75.81 221.48,-69.09 210.89,-69.23 213.29,-75.81"/>
</g>
<!-- Node16 -->
<g id="node16" class="node">
<title>Node16</title>
<g id="a_node16"><a xlink:href="classIDatabaseHandler.html#ae77b65ff51207a07704ae8efebac2125" target="_top" xlink:title="Saves a JSON object to the database with the specified key.">
<polygon fill="white" stroke="black" points="201,-0.5 201,-19.5 356,-19.5 356,-0.5 201,-0.5"/>
<text text-anchor="middle" x="278.5" y="-7.5" font-family="Helvetica,sans-Serif" font-size="10.00">IDatabaseHandler::SaveJson</text>
</a>
</g>
</g>
<!-- Node1&#45;&gt;Node16 -->
<g id="edge15" class="edge">
<title>Node1&#45;&gt;Node16</title>
<path fill="none" stroke="midnightblue" d="M92.38,-136.86C110.32,-110.63 150.9,-56.86 199,-29 202.86,-26.77 206.97,-24.79 211.21,-23.05"/>
<polygon fill="midnightblue" stroke="midnightblue" points="212.47,-26.32 220.66,-19.6 210.06,-19.74 212.47,-26.32"/>
</g>
<!-- Node5 -->
<g id="node5" class="node">
<title>Node5</title>
<g id="a_node5"><a xlink:href="classContainerServiceHandler.html#a9c527464b3d91168a747a33361994000" target="_top" xlink:title="Performs the specified container operation using the request structure. Invokes the appropriate comma...">
<polygon fill="white" stroke="black" points="409.5,-249 409.5,-279 547.5,-279 547.5,-249 409.5,-249"/>
<text text-anchor="start" x="417.5" y="-267" font-family="Helvetica,sans-Serif" font-size="10.00">ContainerServiceHandler</text>
<text text-anchor="middle" x="478.5" y="-256" font-family="Helvetica,sans-Serif" font-size="10.00">::ContainerOperations</text>
</a>
</g>
</g>
<!-- Node4&#45;&gt;Node5 -->
<g id="edge4" class="edge">
<title>Node4&#45;&gt;Node5</title>
<path fill="none" stroke="midnightblue" d="M327.75,-216.05C337.77,-219.26 348.25,-222.69 358,-226 374.11,-231.47 377.85,-233.67 394,-239 401.09,-241.34 408.56,-243.71 415.98,-246.01"/>
<polygon fill="midnightblue" stroke="midnightblue" points="415.1,-249.4 425.69,-248.98 417.15,-242.7 415.1,-249.4"/>
</g>
<!-- Node10 -->
<g id="node10" class="node">
<title>Node10</title>
<g id="a_node10"><a xlink:href="structStatus.html#a19a4e02345758bf3685dcb14a9678de1" target="_top" xlink:title="Checks if the status represents success.">
<polygon fill="white" stroke="black" points="446,-210.5 446,-229.5 511,-229.5 511,-210.5 446,-210.5"/>
<text text-anchor="middle" x="478.5" y="-217.5" font-family="Helvetica,sans-Serif" font-size="10.00">Status::ok</text>
</a>
</g>
</g>
<!-- Node4&#45;&gt;Node10 -->
<g id="edge9" class="edge">
<title>Node4&#45;&gt;Node10</title>
<path fill="none" stroke="midnightblue" d="M347.64,-207.54C376.94,-210.35 410.24,-213.55 435.79,-216"/>
<polygon fill="midnightblue" stroke="midnightblue" points="435.59,-219.49 445.88,-216.97 436.26,-212.53 435.59,-219.49"/>
</g>
<!-- Node11 -->
<g id="node11" class="node">
<title>Node11</title>
<g id="a_node11"><a xlink:href="classIDatabaseHandler.html#a32aef1bd17b79529d93fadc2d72441e5" target="_top" xlink:title="Removes the JSON object associated with the specified key from the database.">
<polygon fill="white" stroke="black" points="394,-172.5 394,-191.5 563,-191.5 563,-172.5 394,-172.5"/>
<text text-anchor="middle" x="478.5" y="-179.5" font-family="Helvetica,sans-Serif" font-size="10.00">IDatabaseHandler::RemoveKey</text>
</a>
</g>
</g>
<!-- Node4&#45;&gt;Node11 -->
<g id="edge10" class="edge">
<title>Node4&#45;&gt;Node11</title>
<path fill="none" stroke="midnightblue" d="M347.64,-194.46C359.26,-193.35 371.52,-192.17 383.67,-191"/>
<polygon fill="midnightblue" stroke="midnightblue" points="384.21,-194.47 393.83,-190.03 383.54,-187.5 384.21,-194.47"/>
</g>
<!-- Node12 -->
<g id="node12" class="node">
<title>Node12</title>
<g id="a_node12"><a xlink:href="classIDatabaseHandler.html#a10972030d1577974e9f86820e251c7d6" target="_top" xlink:title="Updates a specific field in the JSON object stored under the given key.">
<polygon fill="white" stroke="black" points="405.5,-123 405.5,-153 551.5,-153 551.5,-123 405.5,-123"/>
<text text-anchor="start" x="413.5" y="-141" font-family="Helvetica,sans-Serif" font-size="10.00">IDatabaseHandler::Update</text>
<text text-anchor="middle" x="478.5" y="-130" font-family="Helvetica,sans-Serif" font-size="10.00">Field</text>
</a>
</g>
</g>
<!-- Node4&#45;&gt;Node12 -->
<g id="edge11" class="edge">
<title>Node4&#45;&gt;Node12</title>
<path fill="none" stroke="midnightblue" d="M327.75,-185.95C337.77,-182.74 348.25,-179.31 358,-176 374.11,-170.53 377.85,-168.33 394,-163 401.09,-160.66 408.56,-158.29 415.98,-155.99"/>
<polygon fill="midnightblue" stroke="midnightblue" points="417.15,-159.3 425.69,-153.02 415.1,-152.6 417.15,-159.3"/>
</g>
<!-- Node6 -->
<g id="node6" class="node">
<title>Node6</title>
<g id="a_node6"><a xlink:href="classCommandFactory.html#adf4da2f0dbcf9e4018f9afe8bd4a38e9" target="_top" xlink:title="Factory method to create a command based on the container request structure.">
<polygon fill="white" stroke="black" points="599,-292.5 599,-311.5 790,-311.5 790,-292.5 599,-292.5"/>
<text text-anchor="middle" x="694.5" y="-299.5" font-family="Helvetica,sans-Serif" font-size="10.00">CommandFactory::CreateCommand</text>
</a>
</g>
</g>
<!-- Node5&#45;&gt;Node6 -->
<g id="edge5" class="edge">
<title>Node5&#45;&gt;Node6</title>
<path fill="none" stroke="midnightblue" d="M547.5,-276.08C573.87,-280.76 603.89,-286.09 629.83,-290.69"/>
<polygon fill="midnightblue" stroke="midnightblue" points="629.46,-294.18 639.92,-292.49 630.69,-287.29 629.46,-294.18"/>
</g>
<!-- Node7 -->
<g id="node7" class="node">
<title>Node7</title>
<g id="a_node7"><a xlink:href="classInvoker.html#ac01c8216ff7b95532f2970a49198d840" target="_top" xlink:title="Execute the command.">
<polygon fill="white" stroke="black" points="649,-254.5 649,-273.5 740,-273.5 740,-254.5 649,-254.5"/>
<text text-anchor="middle" x="694.5" y="-261.5" font-family="Helvetica,sans-Serif" font-size="10.00">Invoker::Invoke</text>
</a>
</g>
</g>
<!-- Node5&#45;&gt;Node7 -->
<g id="edge6" class="edge">
<title>Node5&#45;&gt;Node7</title>
<path fill="none" stroke="midnightblue" d="M547.5,-264C576.91,-264 610.88,-264 638.64,-264"/>
<polygon fill="midnightblue" stroke="midnightblue" points="638.96,-267.5 648.96,-264 638.96,-260.5 638.96,-267.5"/>
</g>
<!-- Node9 -->
<g id="node9" class="node">
<title>Node9</title>
<g id="a_node9"><a xlink:href="classInvoker.html#ae9f10a2487afd153bf0da69ae410a0e9" target="_top" xlink:title="Set the command to be executed.">
<polygon fill="white" stroke="black" points="632,-216.5 632,-235.5 757,-235.5 757,-216.5 632,-216.5"/>
<text text-anchor="middle" x="694.5" y="-223.5" font-family="Helvetica,sans-Serif" font-size="10.00">Invoker::SetCommand</text>
</a>
</g>
</g>
<!-- Node5&#45;&gt;Node9 -->
<g id="edge8" class="edge">
<title>Node5&#45;&gt;Node9</title>
<path fill="none" stroke="midnightblue" d="M547.5,-251.92C573.87,-247.24 603.89,-241.91 629.83,-237.31"/>
<polygon fill="midnightblue" stroke="midnightblue" points="630.69,-240.71 639.92,-235.51 629.46,-233.82 630.69,-240.71"/>
</g>
<!-- Node8 -->
<g id="node8" class="node">
<title>Node8</title>
<g id="a_node8"><a xlink:href="classCommand.html#a8d6fcd1baa8fd96ce9b423b66765ab4a" target="_top" xlink:title="Execute the command.">
<polygon fill="white" stroke="black" points="826,-254.5 826,-273.5 938,-273.5 938,-254.5 826,-254.5"/>
<text text-anchor="middle" x="882" y="-261.5" font-family="Helvetica,sans-Serif" font-size="10.00">Command::Execute</text>
</a>
</g>
</g>
<!-- Node7&#45;&gt;Node8 -->
<g id="edge7" class="edge">
<title>Node7&#45;&gt;Node8</title>
<path fill="none" stroke="midnightblue" d="M740.4,-264C763.02,-264 790.87,-264 815.79,-264"/>
<polygon fill="midnightblue" stroke="midnightblue" points="815.91,-267.5 825.91,-264 815.91,-260.5 815.91,-267.5"/>
</g>
</g>
</svg>
