<?xml version="1.0" encoding="UTF-8" standalone="no"?>
<!DOCTYPE svg PUBLIC "-//W3C//DTD SVG 1.1//EN"
 "http://www.w3.org/Graphics/SVG/1.1/DTD/svg11.dtd">
<!-- Generated by graphviz version 2.43.0 (0)
 -->
<!-- Title: JsonRequestExecutorHandler::Execute Pages: 1 -->
<svg width="907pt" height="127pt"
 viewBox="0.00 0.00 907.00 126.50" xmlns="http://www.w3.org/2000/svg" xmlns:xlink="http://www.w3.org/1999/xlink">
<g id="graph0" class="graph" transform="scale(1 1) rotate(0) translate(4 122.5)">
<title>JsonRequestExecutorHandler::Execute</title>
<polygon fill="white" stroke="transparent" points="-4,4 -4,-122.5 903,-122.5 903,4 -4,4"/>
<!-- Node1 -->
<g id="node1" class="node">
<title>Node1</title>
<g id="a_node1"><a xlink:title="Executes a request represented as a JSON string.">
<polygon fill="#bfbfbf" stroke="black" points="0,-39 0,-69 158,-69 158,-39 0,-39"/>
<text text-anchor="start" x="8" y="-57" font-family="Helvetica,sans-Serif" font-size="10.00">JsonRequestExecutorHandler</text>
<text text-anchor="middle" x="79" y="-46" font-family="Helvetica,sans-Serif" font-size="10.00">::Execute</text>
</a>
</g>
</g>
<!-- Node2 -->
<g id="node2" class="node">
<title>Node2</title>
<g id="a_node2"><a xlink:href="classRedisDatabaseHandler.html#a07c65b208d5997ec20ed239dca4081ce" target="_top" xlink:title="Retrieves the singleton instance of the RedisDatabaseHandler.">
<polygon fill="white" stroke="black" points="207.5,-88 207.5,-118 335.5,-118 335.5,-88 207.5,-88"/>
<text text-anchor="start" x="215.5" y="-106" font-family="Helvetica,sans-Serif" font-size="10.00">RedisDatabaseHandler</text>
<text text-anchor="middle" x="271.5" y="-95" font-family="Helvetica,sans-Serif" font-size="10.00">::GetInstance</text>
</a>
</g>
</g>
<!-- Node1&#45;&gt;Node2 -->
<g id="edge1" class="edge">
<title>Node1&#45;&gt;Node2</title>
<path fill="none" stroke="midnightblue" d="M138.45,-69.03C158.66,-74.23 181.47,-80.1 202.39,-85.48"/>
<polygon fill="midnightblue" stroke="midnightblue" points="201.6,-88.89 212.16,-87.99 203.35,-82.11 201.6,-88.89"/>
</g>
<!-- Node3 -->
<g id="node3" class="node">
<title>Node3</title>
<g id="a_node3"><a xlink:href="classContainerServiceHandler.html#a16f0650a9d5719fc441541a2adc5f29a" target="_top" xlink:title="Handles a container request by dispatching to the appropriate operation.">
<polygon fill="white" stroke="black" points="202.5,-39 202.5,-69 340.5,-69 340.5,-39 202.5,-39"/>
<text text-anchor="start" x="210.5" y="-57" font-family="Helvetica,sans-Serif" font-size="10.00">ContainerServiceHandler</text>
<text text-anchor="middle" x="271.5" y="-46" font-family="Helvetica,sans-Serif" font-size="10.00">::HandleRequest</text>
</a>
</g>
</g>
<!-- Node1&#45;&gt;Node3 -->
<g id="edge2" class="edge">
<title>Node1&#45;&gt;Node3</title>
<path fill="none" stroke="midnightblue" d="M158.03,-54C169.28,-54 180.86,-54 192.12,-54"/>
<polygon fill="midnightblue" stroke="midnightblue" points="192.35,-57.5 202.35,-54 192.35,-50.5 192.35,-57.5"/>
</g>
<!-- Node10 -->
<g id="node10" class="node">
<title>Node10</title>
<g id="a_node10"><a xlink:href="classIDatabaseHandler.html#ae77b65ff51207a07704ae8efebac2125" target="_top" xlink:title="Saves a JSON object to the database with the specified key.">
<polygon fill="white" stroke="black" points="194,-0.5 194,-19.5 349,-19.5 349,-0.5 194,-0.5"/>
<text text-anchor="middle" x="271.5" y="-7.5" font-family="Helvetica,sans-Serif" font-size="10.00">IDatabaseHandler::SaveJson</text>
</a>
</g>
</g>
<!-- Node1&#45;&gt;Node10 -->
<g id="edge12" class="edge">
<title>Node1&#45;&gt;Node10</title>
<path fill="none" stroke="midnightblue" d="M145.03,-38.98C169.34,-33.36 196.59,-27.07 219.47,-21.79"/>
<polygon fill="midnightblue" stroke="midnightblue" points="220.36,-25.17 229.32,-19.51 218.78,-18.35 220.36,-25.17"/>
</g>
<!-- Node4 -->
<g id="node4" class="node">
<title>Node4</title>
<g id="a_node4"><a xlink:href="classContainerServiceHandler.html#af17a1c94a543aa45bdcdba2b0674ab8a" target="_top" xlink:title="Checks if the specified container runtime is available for the given operation.">
<polygon fill="white" stroke="black" points="385,-63 385,-93 524,-93 524,-63 385,-63"/>
<text text-anchor="start" x="393" y="-81" font-family="Helvetica,sans-Serif" font-size="10.00">ContainerServiceHandler</text>
<text text-anchor="middle" x="454.5" y="-70" font-family="Helvetica,sans-Serif" font-size="10.00">::CheckRuntimeAvailable</text>
</a>
</g>
</g>
<!-- Node3&#45;&gt;Node4 -->
<g id="edge3" class="edge">
<title>Node3&#45;&gt;Node4</title>
<path fill="none" stroke="midnightblue" d="M340.67,-63.04C351.83,-64.52 363.48,-66.06 374.86,-67.57"/>
<polygon fill="midnightblue" stroke="midnightblue" points="374.42,-71.04 384.79,-68.89 375.34,-64.11 374.42,-71.04"/>
</g>
<!-- Node9 -->
<g id="node9" class="node">
<title>Node9</title>
<g id="a_node9"><a xlink:href="classContainerServiceHandler.html#a92b3d49dc72dfdf47661c33431aa9db9" target="_top" xlink:title="Performs the specified container operation.">
<polygon fill="white" stroke="black" points="385.5,-14 385.5,-44 523.5,-44 523.5,-14 385.5,-14"/>
<text text-anchor="start" x="393.5" y="-32" font-family="Helvetica,sans-Serif" font-size="10.00">ContainerServiceHandler</text>
<text text-anchor="middle" x="454.5" y="-21" font-family="Helvetica,sans-Serif" font-size="10.00">::ContainerOperations</text>
</a>
</g>
</g>
<!-- Node3&#45;&gt;Node9 -->
<g id="edge8" class="edge">
<title>Node3&#45;&gt;Node9</title>
<path fill="none" stroke="midnightblue" d="M340.67,-44.58C351.99,-43.02 363.8,-41.39 375.34,-39.8"/>
<polygon fill="midnightblue" stroke="midnightblue" points="375.96,-43.24 385.39,-38.41 375.01,-36.31 375.96,-43.24"/>
</g>
<!-- Node5 -->
<g id="node5" class="node">
<title>Node5</title>
<g id="a_node5"><a xlink:href="classCommandFactory.html#a1ce3fdcfe96e7dc24e40c05b4387442f" target="_top" xlink:title="Factory method to create a command based on the runtime type and command type.">
<polygon fill="white" stroke="black" points="560,-82.5 560,-101.5 751,-101.5 751,-82.5 560,-82.5"/>
<text text-anchor="middle" x="655.5" y="-89.5" font-family="Helvetica,sans-Serif" font-size="10.00">CommandFactory::CreateCommand</text>
</a>
</g>
</g>
<!-- Node4&#45;&gt;Node5 -->
<g id="edge4" class="edge">
<title>Node4&#45;&gt;Node5</title>
<path fill="none" stroke="midnightblue" d="M524.26,-82.84C532.5,-83.42 541.05,-84.02 549.65,-84.62"/>
<polygon fill="midnightblue" stroke="midnightblue" points="549.53,-88.12 559.75,-85.33 550.02,-81.14 549.53,-88.12"/>
</g>
<!-- Node6 -->
<g id="node6" class="node">
<title>Node6</title>
<g id="a_node6"><a xlink:href="classInvoker.html#a1459c66263ad54b3568e6b3d33d9256f" target="_top" xlink:title="Execute the command.">
<polygon fill="white" stroke="black" points="610,-44.5 610,-63.5 701,-63.5 701,-44.5 610,-44.5"/>
<text text-anchor="middle" x="655.5" y="-51.5" font-family="Helvetica,sans-Serif" font-size="10.00">Invoker::Invoke</text>
</a>
</g>
</g>
<!-- Node4&#45;&gt;Node6 -->
<g id="edge5" class="edge">
<title>Node4&#45;&gt;Node6</title>
<path fill="none" stroke="midnightblue" d="M524.26,-69.71C548.92,-66.73 576.38,-63.42 599.7,-60.61"/>
<polygon fill="midnightblue" stroke="midnightblue" points="600.25,-64.07 609.76,-59.4 599.41,-57.12 600.25,-64.07"/>
</g>
<!-- Node8 -->
<g id="node8" class="node">
<title>Node8</title>
<g id="a_node8"><a xlink:href="classInvoker.html#ae9f10a2487afd153bf0da69ae410a0e9" target="_top" xlink:title="Set the command to be executed.">
<polygon fill="white" stroke="black" points="593,-6.5 593,-25.5 718,-25.5 718,-6.5 593,-6.5"/>
<text text-anchor="middle" x="655.5" y="-13.5" font-family="Helvetica,sans-Serif" font-size="10.00">Invoker::SetCommand</text>
</a>
</g>
</g>
<!-- Node4&#45;&gt;Node8 -->
<g id="edge7" class="edge">
<title>Node4&#45;&gt;Node8</title>
<path fill="none" stroke="midnightblue" d="M501.56,-62.92C509.13,-60.14 516.84,-57.12 524,-54 540.58,-46.77 542.96,-41.07 560,-35 567.62,-32.29 575.73,-29.92 583.88,-27.87"/>
<polygon fill="midnightblue" stroke="midnightblue" points="584.88,-31.23 593.81,-25.52 583.27,-24.42 584.88,-31.23"/>
</g>
<!-- Node7 -->
<g id="node7" class="node">
<title>Node7</title>
<g id="a_node7"><a xlink:href="classCommand.html#ab04996232fade41af481e1a94c15f5e5" target="_top" xlink:title="Execute the command.">
<polygon fill="white" stroke="black" points="787,-44.5 787,-63.5 899,-63.5 899,-44.5 787,-44.5"/>
<text text-anchor="middle" x="843" y="-51.5" font-family="Helvetica,sans-Serif" font-size="10.00">Command::Execute</text>
</a>
</g>
</g>
<!-- Node6&#45;&gt;Node7 -->
<g id="edge6" class="edge">
<title>Node6&#45;&gt;Node7</title>
<path fill="none" stroke="midnightblue" d="M701.4,-54C724.02,-54 751.87,-54 776.79,-54"/>
<polygon fill="midnightblue" stroke="midnightblue" points="776.91,-57.5 786.91,-54 776.91,-50.5 776.91,-57.5"/>
</g>
<!-- Node9&#45;&gt;Node5 -->
<g id="edge9" class="edge">
<title>Node9&#45;&gt;Node5</title>
<path fill="none" stroke="midnightblue" d="M499.7,-44.13C507.86,-47.21 516.25,-50.56 524,-54 540.54,-61.34 542.96,-66.93 560,-73 567.62,-75.71 575.73,-78.08 583.88,-80.13"/>
<polygon fill="midnightblue" stroke="midnightblue" points="583.27,-83.58 593.81,-82.48 584.88,-76.77 583.27,-83.58"/>
</g>
<!-- Node9&#45;&gt;Node6 -->
<g id="edge10" class="edge">
<title>Node9&#45;&gt;Node6</title>
<path fill="none" stroke="midnightblue" d="M523.71,-37.57C548.5,-40.68 576.19,-44.16 599.68,-47.11"/>
<polygon fill="midnightblue" stroke="midnightblue" points="599.45,-50.61 609.81,-48.39 600.32,-43.67 599.45,-50.61"/>
</g>
<!-- Node9&#45;&gt;Node8 -->
<g id="edge11" class="edge">
<title>Node9&#45;&gt;Node8</title>
<path fill="none" stroke="midnightblue" d="M523.71,-24.54C542.69,-23.3 563.36,-21.95 582.54,-20.7"/>
<polygon fill="midnightblue" stroke="midnightblue" points="582.97,-24.18 592.73,-20.04 582.52,-17.19 582.97,-24.18"/>
</g>
</g>
</svg>
