<?xml version="1.0" encoding="UTF-8" standalone="no"?>
<!DOCTYPE svg PUBLIC "-//W3C//DTD SVG 1.1//EN"
 "http://www.w3.org/Graphics/SVG/1.1/DTD/svg11.dtd">
<!-- Generated by graphviz version 2.43.0 (0)
 -->
<!-- Title: DockerCreateContainerCommand::Execute Pages: 1 -->
<svg width="372pt" height="127pt"
 viewBox="0.00 0.00 372.00 127.00" xmlns="http://www.w3.org/2000/svg" xmlns:xlink="http://www.w3.org/1999/xlink">
<g id="graph0" class="graph" transform="scale(1 1) rotate(0) translate(4 123)">
<title>DockerCreateContainerCommand::Execute</title>
<polygon fill="white" stroke="transparent" points="-4,4 -4,-123 368,-123 368,4 -4,4"/>
<!-- Node1 -->
<g id="node1" class="node">
<title>Node1</title>
<g id="a_node1"><a xlink:title="Executes the command to create a Docker container.">
<polygon fill="#bfbfbf" stroke="black" points="0,-44.5 0,-74.5 180,-74.5 180,-44.5 0,-44.5"/>
<text text-anchor="start" x="8" y="-62.5" font-family="Helvetica,sans-Serif" font-size="10.00">DockerCreateContainerCommand</text>
<text text-anchor="middle" x="90" y="-51.5" font-family="Helvetica,sans-Serif" font-size="10.00">::Execute</text>
</a>
</g>
</g>
<!-- Node2 -->
<g id="node2" class="node">
<title>Node2</title>
<g id="a_node2"><a xlink:href="classRedisDatabaseHandler.html#a07c65b208d5997ec20ed239dca4081ce" target="_top" xlink:title="Retrieves the singleton instance of the RedisDatabaseHandler.">
<polygon fill="white" stroke="black" points="226,-88.5 226,-118.5 354,-118.5 354,-88.5 226,-88.5"/>
<text text-anchor="start" x="234" y="-106.5" font-family="Helvetica,sans-Serif" font-size="10.00">RedisDatabaseHandler</text>
<text text-anchor="middle" x="290" y="-95.5" font-family="Helvetica,sans-Serif" font-size="10.00">::GetInstance</text>
</a>
</g>
</g>
<!-- Node1&#45;&gt;Node2 -->
<g id="edge1" class="edge">
<title>Node1&#45;&gt;Node2</title>
<path fill="none" stroke="midnightblue" d="M158.59,-74.52C177.01,-78.61 197.05,-83.07 215.77,-87.23"/>
<polygon fill="midnightblue" stroke="midnightblue" points="215.2,-90.69 225.72,-89.44 216.72,-83.85 215.2,-90.69"/>
</g>
<!-- Node3 -->
<g id="node3" class="node">
<title>Node3</title>
<g id="a_node3"><a xlink:href="classIDatabaseHandler.html#a40a9b925225f1a8694d8a58907248678" target="_top" xlink:title="Retrieves a JSON object from the database by key.">
<polygon fill="white" stroke="black" points="216,-50 216,-69 364,-69 364,-50 216,-50"/>
<text text-anchor="middle" x="290" y="-57" font-family="Helvetica,sans-Serif" font-size="10.00">IDatabaseHandler::GetJson</text>
</a>
</g>
</g>
<!-- Node1&#45;&gt;Node3 -->
<g id="edge2" class="edge">
<title>Node1&#45;&gt;Node3</title>
<path fill="none" stroke="midnightblue" d="M180.15,-59.5C188.62,-59.5 197.18,-59.5 205.59,-59.5"/>
<polygon fill="midnightblue" stroke="midnightblue" points="205.75,-63 215.75,-59.5 205.75,-56 205.75,-63"/>
</g>
<!-- Node4 -->
<g id="node4" class="node">
<title>Node4</title>
<g id="a_node4"><a xlink:href="classIDatabaseHandler.html#a10972030d1577974e9f86820e251c7d6" target="_top" xlink:title="Updates a specific field in the JSON object stored under the given key.">
<polygon fill="white" stroke="black" points="217,-0.5 217,-30.5 363,-30.5 363,-0.5 217,-0.5"/>
<text text-anchor="start" x="225" y="-18.5" font-family="Helvetica,sans-Serif" font-size="10.00">IDatabaseHandler::Update</text>
<text text-anchor="middle" x="290" y="-7.5" font-family="Helvetica,sans-Serif" font-size="10.00">Field</text>
</a>
</g>
</g>
<!-- Node1&#45;&gt;Node4 -->
<g id="edge3" class="edge">
<title>Node1&#45;&gt;Node4</title>
<path fill="none" stroke="midnightblue" d="M158.59,-44.48C175.54,-40.71 193.86,-36.64 211.26,-32.78"/>
<polygon fill="midnightblue" stroke="midnightblue" points="212.38,-36.11 221.38,-30.53 210.86,-29.28 212.38,-36.11"/>
</g>
</g>
</svg>
