<?xml version="1.0" encoding="UTF-8" standalone="no"?>
<!DOCTYPE svg PUBLIC "-//W3C//DTD SVG 1.1//EN"
 "http://www.w3.org/Graphics/SVG/1.1/DTD/svg11.dtd">
<!-- Generated by graphviz version 2.43.0 (0)
 -->
<!-- Title: ContainerServiceHandler::HandleRequest Pages: 1 -->
<svg width="726pt" height="160pt"
 viewBox="0.00 0.00 726.00 159.50" xmlns="http://www.w3.org/2000/svg" xmlns:xlink="http://www.w3.org/1999/xlink">
<g id="graph0" class="graph" transform="scale(1 1) rotate(0) translate(4 155.5)">
<title>ContainerServiceHandler::HandleRequest</title>
<polygon fill="white" stroke="transparent" points="-4,4 -4,-155.5 722,-155.5 722,4 -4,4"/>
<!-- Node1 -->
<g id="node1" class="node">
<title>Node1</title>
<g id="a_node1"><a xlink:title="Handles a container request by dispatching to the appropriate operation. Updates the container status...">
<polygon fill="#bfbfbf" stroke="black" points="0,-44.5 0,-74.5 138,-74.5 138,-44.5 0,-44.5"/>
<text text-anchor="start" x="8" y="-62.5" font-family="Helvetica,sans-Serif" font-size="10.00">ContainerServiceHandler</text>
<text text-anchor="middle" x="69" y="-51.5" font-family="Helvetica,sans-Serif" font-size="10.00">::HandleRequest</text>
</a>
</g>
</g>
<!-- Node2 -->
<g id="node2" class="node">
<title>Node2</title>
<g id="a_node2"><a xlink:href="classContainerServiceHandler.html#ae4a38bbbb711ab34dbd3fc50ea0814f7" target="_top" xlink:title="Performs the specified container operation using the request structure. Invokes the appropriate comma...">
<polygon fill="white" stroke="black" points="189.5,-88.5 189.5,-118.5 327.5,-118.5 327.5,-88.5 189.5,-88.5"/>
<text text-anchor="start" x="197.5" y="-106.5" font-family="Helvetica,sans-Serif" font-size="10.00">ContainerServiceHandler</text>
<text text-anchor="middle" x="258.5" y="-95.5" font-family="Helvetica,sans-Serif" font-size="10.00">::ContainerOperations</text>
</a>
</g>
</g>
<!-- Node1&#45;&gt;Node2 -->
<g id="edge1" class="edge">
<title>Node1&#45;&gt;Node2</title>
<path fill="none" stroke="midnightblue" d="M134,-74.52C149.9,-78.25 167.08,-82.28 183.42,-86.12"/>
<polygon fill="midnightblue" stroke="midnightblue" points="182.93,-89.6 193.47,-88.47 184.53,-82.78 182.93,-89.6"/>
</g>
<!-- Node7 -->
<g id="node7" class="node">
<title>Node7</title>
<g id="a_node7"><a xlink:href="classIDatabaseHandler.html#a32aef1bd17b79529d93fadc2d72441e5" target="_top" xlink:title="Removes the JSON object associated with the specified key from the database.">
<polygon fill="white" stroke="black" points="174,-50 174,-69 343,-69 343,-50 174,-50"/>
<text text-anchor="middle" x="258.5" y="-57" font-family="Helvetica,sans-Serif" font-size="10.00">IDatabaseHandler::RemoveKey</text>
</a>
</g>
</g>
<!-- Node1&#45;&gt;Node7 -->
<g id="edge6" class="edge">
<title>Node1&#45;&gt;Node7</title>
<path fill="none" stroke="midnightblue" d="M138.22,-59.5C146.58,-59.5 155.22,-59.5 163.87,-59.5"/>
<polygon fill="midnightblue" stroke="midnightblue" points="164,-63 174,-59.5 164,-56 164,-63"/>
</g>
<!-- Node8 -->
<g id="node8" class="node">
<title>Node8</title>
<g id="a_node8"><a xlink:href="classIDatabaseHandler.html#a10972030d1577974e9f86820e251c7d6" target="_top" xlink:title="Updates a specific field in the JSON object stored under the given key.">
<polygon fill="white" stroke="black" points="185.5,-0.5 185.5,-30.5 331.5,-30.5 331.5,-0.5 185.5,-0.5"/>
<text text-anchor="start" x="193.5" y="-18.5" font-family="Helvetica,sans-Serif" font-size="10.00">IDatabaseHandler::Update</text>
<text text-anchor="middle" x="258.5" y="-7.5" font-family="Helvetica,sans-Serif" font-size="10.00">Field</text>
</a>
</g>
</g>
<!-- Node1&#45;&gt;Node8 -->
<g id="edge7" class="edge">
<title>Node1&#45;&gt;Node8</title>
<path fill="none" stroke="midnightblue" d="M134,-44.48C149.9,-40.75 167.08,-36.72 183.42,-32.88"/>
<polygon fill="midnightblue" stroke="midnightblue" points="184.53,-36.22 193.47,-30.53 182.93,-29.4 184.53,-36.22"/>
</g>
<!-- Node3 -->
<g id="node3" class="node">
<title>Node3</title>
<g id="a_node3"><a xlink:href="classCommandFactory.html#adf4da2f0dbcf9e4018f9afe8bd4a38e9" target="_top" xlink:title="Factory method to create a command based on the container request structure.">
<polygon fill="white" stroke="black" points="379,-132 379,-151 570,-151 570,-132 379,-132"/>
<text text-anchor="middle" x="474.5" y="-139" font-family="Helvetica,sans-Serif" font-size="10.00">CommandFactory::CreateCommand</text>
</a>
</g>
</g>
<!-- Node2&#45;&gt;Node3 -->
<g id="edge2" class="edge">
<title>Node2&#45;&gt;Node3</title>
<path fill="none" stroke="midnightblue" d="M327.5,-115.58C353.87,-120.26 383.89,-125.59 409.83,-130.19"/>
<polygon fill="midnightblue" stroke="midnightblue" points="409.46,-133.68 419.92,-131.99 410.69,-126.79 409.46,-133.68"/>
</g>
<!-- Node4 -->
<g id="node4" class="node">
<title>Node4</title>
<g id="a_node4"><a xlink:href="classInvoker.html#a1459c66263ad54b3568e6b3d33d9256f" target="_top" xlink:title="Execute the command.">
<polygon fill="white" stroke="black" points="429,-94 429,-113 520,-113 520,-94 429,-94"/>
<text text-anchor="middle" x="474.5" y="-101" font-family="Helvetica,sans-Serif" font-size="10.00">Invoker::Invoke</text>
</a>
</g>
</g>
<!-- Node2&#45;&gt;Node4 -->
<g id="edge3" class="edge">
<title>Node2&#45;&gt;Node4</title>
<path fill="none" stroke="midnightblue" d="M327.5,-103.5C356.91,-103.5 390.88,-103.5 418.64,-103.5"/>
<polygon fill="midnightblue" stroke="midnightblue" points="418.96,-107 428.96,-103.5 418.96,-100 418.96,-107"/>
</g>
<!-- Node6 -->
<g id="node6" class="node">
<title>Node6</title>
<g id="a_node6"><a xlink:href="classInvoker.html#ae9f10a2487afd153bf0da69ae410a0e9" target="_top" xlink:title="Set the command to be executed.">
<polygon fill="white" stroke="black" points="412,-56 412,-75 537,-75 537,-56 412,-56"/>
<text text-anchor="middle" x="474.5" y="-63" font-family="Helvetica,sans-Serif" font-size="10.00">Invoker::SetCommand</text>
</a>
</g>
</g>
<!-- Node2&#45;&gt;Node6 -->
<g id="edge5" class="edge">
<title>Node2&#45;&gt;Node6</title>
<path fill="none" stroke="midnightblue" d="M327.5,-91.42C353.87,-86.74 383.89,-81.41 409.83,-76.81"/>
<polygon fill="midnightblue" stroke="midnightblue" points="410.69,-80.21 419.92,-75.01 409.46,-73.32 410.69,-80.21"/>
</g>
<!-- Node5 -->
<g id="node5" class="node">
<title>Node5</title>
<g id="a_node5"><a xlink:href="classCommand.html#ab04996232fade41af481e1a94c15f5e5" target="_top" xlink:title="Execute the command.">
<polygon fill="white" stroke="black" points="606,-94 606,-113 718,-113 718,-94 606,-94"/>
<text text-anchor="middle" x="662" y="-101" font-family="Helvetica,sans-Serif" font-size="10.00">Command::Execute</text>
</a>
</g>
</g>
<!-- Node4&#45;&gt;Node5 -->
<g id="edge4" class="edge">
<title>Node4&#45;&gt;Node5</title>
<path fill="none" stroke="midnightblue" d="M520.4,-103.5C543.02,-103.5 570.87,-103.5 595.79,-103.5"/>
<polygon fill="midnightblue" stroke="midnightblue" points="595.91,-107 605.91,-103.5 595.91,-100 595.91,-107"/>
</g>
</g>
</svg>
