<?xml version="1.0" encoding="UTF-8" standalone="no"?>
<!DOCTYPE svg PUBLIC "-//W3C//DTD SVG 1.1//EN"
 "http://www.w3.org/Graphics/SVG/1.1/DTD/svg11.dtd">
<!-- Generated by graphviz version 2.43.0 (0)
 -->
<!-- Title: Command::Execute Pages: 1 -->
<svg width="795pt" height="88pt"
 viewBox="0.00 0.00 795.00 88.00" xmlns="http://www.w3.org/2000/svg" xmlns:xlink="http://www.w3.org/1999/xlink">
<g id="graph0" class="graph" transform="scale(1 1) rotate(0) translate(4 84)">
<title>Command::Execute</title>
<polygon fill="white" stroke="transparent" points="-4,4 -4,-84 791,-84 791,4 -4,4"/>
<!-- Node1 -->
<g id="node1" class="node">
<title>Node1</title>
<g id="a_node1"><a xlink:title="Execute the command.">
<polygon fill="#bfbfbf" stroke="black" points="675,-30 675,-49 787,-49 787,-30 675,-30"/>
<text text-anchor="middle" x="731" y="-37" font-family="Helvetica,sans-Serif" font-size="10.00">Command::Execute</text>
</a>
</g>
</g>
<!-- Node2 -->
<g id="node2" class="node">
<title>Node2</title>
<g id="a_node2"><a xlink:href="classInvoker.html#a1459c66263ad54b3568e6b3d33d9256f" target="_top" xlink:title="Execute the command.">
<polygon fill="white" stroke="black" points="548,-30 548,-49 639,-49 639,-30 548,-30"/>
<text text-anchor="middle" x="593.5" y="-37" font-family="Helvetica,sans-Serif" font-size="10.00">Invoker::Invoke</text>
</a>
</g>
</g>
<!-- Node1&#45;&gt;Node2 -->
<g id="edge1" class="edge">
<title>Node1&#45;&gt;Node2</title>
<path fill="none" stroke="midnightblue" d="M664.78,-39.5C656.12,-39.5 647.4,-39.5 639.2,-39.5"/>
<polygon fill="midnightblue" stroke="midnightblue" points="664.89,-43 674.89,-39.5 664.89,-36 664.89,-43"/>
</g>
<!-- Node3 -->
<g id="node3" class="node">
<title>Node3</title>
<g id="a_node3"><a xlink:href="classContainerServiceHandler.html#af17a1c94a543aa45bdcdba2b0674ab8a" target="_top" xlink:title="Checks if the specified container runtime is available for the given operation.">
<polygon fill="white" stroke="black" points="373,-49.5 373,-79.5 512,-79.5 512,-49.5 373,-49.5"/>
<text text-anchor="start" x="381" y="-67.5" font-family="Helvetica,sans-Serif" font-size="10.00">ContainerServiceHandler</text>
<text text-anchor="middle" x="442.5" y="-56.5" font-family="Helvetica,sans-Serif" font-size="10.00">::CheckRuntimeAvailable</text>
</a>
</g>
</g>
<!-- Node2&#45;&gt;Node3 -->
<g id="edge2" class="edge">
<title>Node2&#45;&gt;Node3</title>
<path fill="none" stroke="midnightblue" d="M537.82,-48.67C529.47,-50.08 520.76,-51.54 512.15,-52.98"/>
<polygon fill="midnightblue" stroke="midnightblue" points="538.51,-52.11 547.8,-47 537.35,-45.2 538.51,-52.11"/>
</g>
<!-- Node7 -->
<g id="node7" class="node">
<title>Node7</title>
<g id="a_node7"><a xlink:href="classContainerServiceHandler.html#a92b3d49dc72dfdf47661c33431aa9db9" target="_top" xlink:title="Performs the specified container operation.">
<polygon fill="white" stroke="black" points="373.5,-0.5 373.5,-30.5 511.5,-30.5 511.5,-0.5 373.5,-0.5"/>
<text text-anchor="start" x="381.5" y="-18.5" font-family="Helvetica,sans-Serif" font-size="10.00">ContainerServiceHandler</text>
<text text-anchor="middle" x="442.5" y="-7.5" font-family="Helvetica,sans-Serif" font-size="10.00">::ContainerOperations</text>
</a>
</g>
</g>
<!-- Node2&#45;&gt;Node7 -->
<g id="edge6" class="edge">
<title>Node2&#45;&gt;Node7</title>
<path fill="none" stroke="midnightblue" d="M537.66,-30.67C529.18,-29.3 520.33,-27.88 511.6,-26.47"/>
<polygon fill="midnightblue" stroke="midnightblue" points="537.37,-34.16 547.8,-32.3 538.48,-27.25 537.37,-34.16"/>
</g>
<!-- Node4 -->
<g id="node4" class="node">
<title>Node4</title>
<g id="a_node4"><a xlink:href="classContainerServiceHandler.html#a16f0650a9d5719fc441541a2adc5f29a" target="_top" xlink:title="Handles a container request by dispatching to the appropriate operation.">
<polygon fill="white" stroke="black" points="199,-24.5 199,-54.5 337,-54.5 337,-24.5 199,-24.5"/>
<text text-anchor="start" x="207" y="-42.5" font-family="Helvetica,sans-Serif" font-size="10.00">ContainerServiceHandler</text>
<text text-anchor="middle" x="268" y="-31.5" font-family="Helvetica,sans-Serif" font-size="10.00">::HandleRequest</text>
</a>
</g>
</g>
<!-- Node3&#45;&gt;Node4 -->
<g id="edge3" class="edge">
<title>Node3&#45;&gt;Node4</title>
<path fill="none" stroke="midnightblue" d="M362.83,-53.1C354.26,-51.86 345.59,-50.6 337.15,-49.38"/>
<polygon fill="midnightblue" stroke="midnightblue" points="362.43,-56.58 372.83,-54.55 363.43,-49.65 362.43,-56.58"/>
</g>
<!-- Node5 -->
<g id="node5" class="node">
<title>Node5</title>
<g id="a_node5"><a xlink:href="classJsonRequestExecutorHandler.html#aaf7c1c7c14971ccfda4076e0a4681f43" target="_top" xlink:title="Executes a request represented as a JSON string.">
<polygon fill="white" stroke="black" points="2.5,-49.5 2.5,-79.5 160.5,-79.5 160.5,-49.5 2.5,-49.5"/>
<text text-anchor="start" x="10.5" y="-67.5" font-family="Helvetica,sans-Serif" font-size="10.00">JsonRequestExecutorHandler</text>
<text text-anchor="middle" x="81.5" y="-56.5" font-family="Helvetica,sans-Serif" font-size="10.00">::Execute</text>
</a>
</g>
</g>
<!-- Node4&#45;&gt;Node5 -->
<g id="edge4" class="edge">
<title>Node4&#45;&gt;Node5</title>
<path fill="none" stroke="midnightblue" d="M188.81,-50.09C179.5,-51.36 169.99,-52.65 160.67,-53.91"/>
<polygon fill="midnightblue" stroke="midnightblue" points="189.38,-53.55 198.82,-48.74 188.44,-46.61 189.38,-53.55"/>
</g>
<!-- Node6 -->
<g id="node6" class="node">
<title>Node6</title>
<g id="a_node6"><a xlink:href="classProtoRequestExecutorHandler.html#a7255c2daf8946f8c73b0327cd4ad9156" target="_top" xlink:title="Executes a request and returns a JSON response.">
<polygon fill="white" stroke="black" points="0,-0.5 0,-30.5 163,-30.5 163,-0.5 0,-0.5"/>
<text text-anchor="start" x="8" y="-18.5" font-family="Helvetica,sans-Serif" font-size="10.00">ProtoRequestExecutorHandler</text>
<text text-anchor="middle" x="81.5" y="-7.5" font-family="Helvetica,sans-Serif" font-size="10.00">::Execute</text>
</a>
</g>
</g>
<!-- Node4&#45;&gt;Node6 -->
<g id="edge5" class="edge">
<title>Node4&#45;&gt;Node6</title>
<path fill="none" stroke="midnightblue" d="M188.65,-29.31C180.22,-28.21 171.64,-27.1 163.19,-26"/>
<polygon fill="midnightblue" stroke="midnightblue" points="188.46,-32.81 198.82,-30.63 189.36,-25.87 188.46,-32.81"/>
</g>
<!-- Node7&#45;&gt;Node4 -->
<g id="edge7" class="edge">
<title>Node7&#45;&gt;Node4</title>
<path fill="none" stroke="midnightblue" d="M363.22,-26.39C354.55,-27.6 345.78,-28.82 337.25,-30"/>
<polygon fill="midnightblue" stroke="midnightblue" points="363.9,-29.83 373.32,-24.99 362.94,-22.9 363.9,-29.83"/>
</g>
</g>
</svg>
