<?xml version="1.0" encoding="UTF-8" standalone="no"?>
<!DOCTYPE svg PUBLIC "-//W3C//DTD SVG 1.1//EN"
 "http://www.w3.org/Graphics/SVG/1.1/DTD/svg11.dtd">
<!-- Generated by graphviz version 2.43.0 (0)
 -->
<!-- Title: DockerRemoveContainerCommand::Execute Pages: 1 -->
<svg width="401pt" height="166pt"
 viewBox="0.00 0.00 401.00 165.50" xmlns="http://www.w3.org/2000/svg" xmlns:xlink="http://www.w3.org/1999/xlink">
<g id="graph0" class="graph" transform="scale(1 1) rotate(0) translate(4 161.5)">
<title>DockerRemoveContainerCommand::Execute</title>
<polygon fill="white" stroke="transparent" points="-4,4 -4,-161.5 397,-161.5 397,4 -4,4"/>
<!-- Node1 -->
<g id="node1" class="node">
<title>Node1</title>
<g id="a_node1"><a xlink:title="Executes the command to remove a Docker container and clean up database state.">
<polygon fill="#bfbfbf" stroke="black" points="0,-66.5 0,-96.5 188,-96.5 188,-66.5 0,-66.5"/>
<text text-anchor="start" x="8" y="-84.5" font-family="Helvetica,sans-Serif" font-size="10.00">DockerRemoveContainerCommand</text>
<text text-anchor="middle" x="94" y="-73.5" font-family="Helvetica,sans-Serif" font-size="10.00">::Execute</text>
</a>
</g>
</g>
<!-- Node2 -->
<g id="node2" class="node">
<title>Node2</title>
<g id="a_node2"><a xlink:href="common_8hpp.html#a2f80aeff93aed5c1cc3d4c356d458b99" target="_top" xlink:title="Utility function to format command templates by replacing placeholders with actual values.">
<polygon fill="white" stroke="black" points="258,-138 258,-157 359,-157 359,-138 258,-138"/>
<text text-anchor="middle" x="308.5" y="-145" font-family="Helvetica,sans-Serif" font-size="10.00">FormatCommand</text>
</a>
</g>
</g>
<!-- Node1&#45;&gt;Node2 -->
<g id="edge1" class="edge">
<title>Node1&#45;&gt;Node2</title>
<path fill="none" stroke="midnightblue" d="M132.4,-96.54C157.93,-106.46 192.68,-119.27 224,-128.5 232.69,-131.06 241.98,-133.48 251.08,-135.68"/>
<polygon fill="midnightblue" stroke="midnightblue" points="250.32,-139.1 260.86,-137.98 251.92,-132.28 250.32,-139.1"/>
</g>
<!-- Node3 -->
<g id="node3" class="node">
<title>Node3</title>
<g id="a_node3"><a xlink:href="classRedisDatabaseHandler.html#a07c65b208d5997ec20ed239dca4081ce" target="_top" xlink:title="Retrieves the singleton instance of the RedisDatabaseHandler.">
<polygon fill="white" stroke="black" points="244.5,-88.5 244.5,-118.5 372.5,-118.5 372.5,-88.5 244.5,-88.5"/>
<text text-anchor="start" x="252.5" y="-106.5" font-family="Helvetica,sans-Serif" font-size="10.00">RedisDatabaseHandler</text>
<text text-anchor="middle" x="308.5" y="-95.5" font-family="Helvetica,sans-Serif" font-size="10.00">::GetInstance</text>
</a>
</g>
</g>
<!-- Node1&#45;&gt;Node3 -->
<g id="edge2" class="edge">
<title>Node1&#45;&gt;Node3</title>
<path fill="none" stroke="midnightblue" d="M188.21,-91.15C203.61,-92.74 219.38,-94.38 234.21,-95.91"/>
<polygon fill="midnightblue" stroke="midnightblue" points="234,-99.41 244.3,-96.96 234.72,-92.45 234,-99.41"/>
</g>
<!-- Node4 -->
<g id="node4" class="node">
<title>Node4</title>
<g id="a_node4"><a xlink:href="classIDatabaseHandler.html#a32aef1bd17b79529d93fadc2d72441e5" target="_top" xlink:title="Removes the JSON object associated with the specified key from the database.">
<polygon fill="white" stroke="black" points="224,-50 224,-69 393,-69 393,-50 224,-50"/>
<text text-anchor="middle" x="308.5" y="-57" font-family="Helvetica,sans-Serif" font-size="10.00">IDatabaseHandler::RemoveKey</text>
</a>
</g>
</g>
<!-- Node1&#45;&gt;Node4 -->
<g id="edge3" class="edge">
<title>Node1&#45;&gt;Node4</title>
<path fill="none" stroke="midnightblue" d="M188.21,-71.85C196.61,-70.98 205.12,-70.1 213.53,-69.23"/>
<polygon fill="midnightblue" stroke="midnightblue" points="214.14,-72.68 223.73,-68.17 213.42,-65.72 214.14,-72.68"/>
</g>
<!-- Node5 -->
<g id="node5" class="node">
<title>Node5</title>
<g id="a_node5"><a xlink:href="classIDatabaseHandler.html#a10972030d1577974e9f86820e251c7d6" target="_top" xlink:title="Updates a specific field in the JSON object stored under the given key.">
<polygon fill="white" stroke="black" points="235.5,-0.5 235.5,-30.5 381.5,-30.5 381.5,-0.5 235.5,-0.5"/>
<text text-anchor="start" x="243.5" y="-18.5" font-family="Helvetica,sans-Serif" font-size="10.00">IDatabaseHandler::Update</text>
<text text-anchor="middle" x="308.5" y="-7.5" font-family="Helvetica,sans-Serif" font-size="10.00">Field</text>
</a>
</g>
</g>
<!-- Node1&#45;&gt;Node5 -->
<g id="edge4" class="edge">
<title>Node1&#45;&gt;Node5</title>
<path fill="none" stroke="midnightblue" d="M141.82,-66.41C166.27,-58.58 196.72,-48.92 224,-40.5 231.42,-38.21 239.22,-35.83 246.96,-33.5"/>
<polygon fill="midnightblue" stroke="midnightblue" points="248.11,-36.8 256.68,-30.57 246.09,-30.1 248.11,-36.8"/>
</g>
</g>
</svg>
