<?xml version="1.0" encoding="UTF-8" standalone="no"?>
<!DOCTYPE svg PUBLIC "-//W3C//DTD SVG 1.1//EN"
 "http://www.w3.org/Graphics/SVG/1.1/DTD/svg11.dtd">
<!-- Generated by graphviz version 2.43.0 (0)
 -->
<!-- Title: DockerRestartContainerCommand Pages: 1 -->
<svg width="218pt" height="193pt"
 viewBox="0.00 0.00 218.00 193.00" xmlns="http://www.w3.org/2000/svg" xmlns:xlink="http://www.w3.org/1999/xlink">
<g id="graph0" class="graph" transform="scale(1 1) rotate(0) translate(4 189)">
<title>DockerRestartContainerCommand</title>
<polygon fill="white" stroke="transparent" points="-4,4 -4,-189 214,-189 214,4 -4,4"/>
<!-- Node1 -->
<g id="node1" class="node">
<title>Node1</title>
<g id="a_node1"><a xlink:title="Command to restart a Docker container.">
<polygon fill="#bfbfbf" stroke="black" points="0,-0.5 0,-79.5 210,-79.5 210,-0.5 0,-0.5"/>
<text text-anchor="middle" x="105" y="-67.5" font-family="Helvetica,sans-Serif" font-size="10.00">DockerRestartContainerCommand</text>
<polyline fill="none" stroke="black" points="0,-60.5 210,-60.5 "/>
<text text-anchor="middle" x="105" y="-48.5" font-family="Helvetica,sans-Serif" font-size="10.00"> </text>
<polyline fill="none" stroke="black" points="0,-41.5 210,-41.5 "/>
<text text-anchor="start" x="8" y="-29.5" font-family="Helvetica,sans-Serif" font-size="10.00">+ DockerRestartContainerCommand()</text>
<text text-anchor="start" x="8" y="-18.5" font-family="Helvetica,sans-Serif" font-size="10.00">+ ~DockerRestartContainerCommand()</text>
<text text-anchor="start" x="8" y="-7.5" font-family="Helvetica,sans-Serif" font-size="10.00">+ Execute()</text>
</a>
</g>
</g>
<!-- Node2 -->
<g id="node2" class="node">
<title>Node2</title>
<g id="a_node2"><a xlink:href="classCommand.html" target="_top" xlink:title="Abstract base class for all commands.">
<polygon fill="white" stroke="black" points="58,-116.5 58,-184.5 152,-184.5 152,-116.5 58,-116.5"/>
<text text-anchor="middle" x="105" y="-172.5" font-family="Helvetica,sans-Serif" font-size="10.00">Command</text>
<polyline fill="none" stroke="black" points="58,-165.5 152,-165.5 "/>
<text text-anchor="middle" x="105" y="-153.5" font-family="Helvetica,sans-Serif" font-size="10.00"> </text>
<polyline fill="none" stroke="black" points="58,-146.5 152,-146.5 "/>
<text text-anchor="start" x="66" y="-134.5" font-family="Helvetica,sans-Serif" font-size="10.00">+ Execute()</text>
<text text-anchor="start" x="66" y="-123.5" font-family="Helvetica,sans-Serif" font-size="10.00">+ ~Command()</text>
</a>
</g>
</g>
<!-- Node2&#45;&gt;Node1 -->
<g id="edge1" class="edge">
<title>Node2&#45;&gt;Node1</title>
<path fill="none" stroke="midnightblue" d="M105,-106.27C105,-97.48 105,-88.28 105,-79.65"/>
<polygon fill="none" stroke="midnightblue" points="101.5,-106.36 105,-116.36 108.5,-106.36 101.5,-106.36"/>
</g>
</g>
</svg>
