<?xml version="1.0" encoding="UTF-8" standalone="no"?>
<!DOCTYPE svg PUBLIC "-//W3C//DTD SVG 1.1//EN"
 "http://www.w3.org/Graphics/SVG/1.1/DTD/svg11.dtd">
<!-- Generated by graphviz version 2.43.0 (0)
 -->
<!-- Title: ISecurityProvider::Decrypt Pages: 1 -->
<svg width="313pt" height="88pt"
 viewBox="0.00 0.00 313.00 88.00" xmlns="http://www.w3.org/2000/svg" xmlns:xlink="http://www.w3.org/1999/xlink">
<g id="graph0" class="graph" transform="scale(1 1) rotate(0) translate(4 84)">
<title>ISecurityProvider::Decrypt</title>
<polygon fill="white" stroke="transparent" points="-4,4 -4,-84 309,-84 309,4 -4,4"/>
<!-- Node1 -->
<g id="node1" class="node">
<title>Node1</title>
<g id="a_node1"><a xlink:title="Decrypt input data and store result in output.">
<polygon fill="#bfbfbf" stroke="black" points="199,-24.5 199,-54.5 305,-54.5 305,-24.5 199,-24.5"/>
<text text-anchor="start" x="207" y="-42.5" font-family="Helvetica,sans-Serif" font-size="10.00">ISecurityProvider::</text>
<text text-anchor="middle" x="252" y="-31.5" font-family="Helvetica,sans-Serif" font-size="10.00">Decrypt</text>
</a>
</g>
</g>
<!-- Node2 -->
<g id="node2" class="node">
<title>Node2</title>
<g id="a_node2"><a xlink:href="classJsonRequestExecutorHandler.html#aaf7c1c7c14971ccfda4076e0a4681f43" target="_top" xlink:title="Executes a request represented as a JSON string. Handles decryption if the payload is encrypted.">
<polygon fill="white" stroke="black" points="2.5,-49.5 2.5,-79.5 160.5,-79.5 160.5,-49.5 2.5,-49.5"/>
<text text-anchor="start" x="10.5" y="-67.5" font-family="Helvetica,sans-Serif" font-size="10.00">JsonRequestExecutorHandler</text>
<text text-anchor="middle" x="81.5" y="-56.5" font-family="Helvetica,sans-Serif" font-size="10.00">::Execute</text>
</a>
</g>
</g>
<!-- Node1&#45;&gt;Node2 -->
<g id="edge1" class="edge">
<title>Node1&#45;&gt;Node2</title>
<path fill="none" stroke="midnightblue" d="M188.5,-48.77C179.38,-50.13 169.9,-51.53 160.53,-52.92"/>
<polygon fill="midnightblue" stroke="midnightblue" points="189.23,-52.2 198.61,-47.27 188.2,-45.28 189.23,-52.2"/>
</g>
<!-- Node3 -->
<g id="node3" class="node">
<title>Node3</title>
<g id="a_node3"><a xlink:href="classProtoRequestExecutorHandler.html#a7255c2daf8946f8c73b0327cd4ad9156" target="_top" xlink:title="Receives a serialized protobuf string, deserializes, saves to DB, and returns result as JSON....">
<polygon fill="white" stroke="black" points="0,-0.5 0,-30.5 163,-30.5 163,-0.5 0,-0.5"/>
<text text-anchor="start" x="8" y="-18.5" font-family="Helvetica,sans-Serif" font-size="10.00">ProtoRequestExecutorHandler</text>
<text text-anchor="middle" x="81.5" y="-7.5" font-family="Helvetica,sans-Serif" font-size="10.00">::Execute</text>
</a>
</g>
</g>
<!-- Node1&#45;&gt;Node3 -->
<g id="edge2" class="edge">
<title>Node1&#45;&gt;Node3</title>
<path fill="none" stroke="midnightblue" d="M188.61,-30.61C180.26,-29.42 171.61,-28.19 163.01,-26.97"/>
<polygon fill="midnightblue" stroke="midnightblue" points="188.22,-34.09 198.61,-32.04 189.2,-27.16 188.22,-34.09"/>
</g>
</g>
</svg>
