<?xml version="1.0" encoding="UTF-8" standalone="no"?>
<!DOCTYPE svg PUBLIC "-//W3C//DTD SVG 1.1//EN"
 "http://www.w3.org/Graphics/SVG/1.1/DTD/svg11.dtd">
<!-- Generated by graphviz version 2.43.0 (0)
 -->
<!-- Title: DockerApiStopContainerCommand::Execute Pages: 1 -->
<svg width="397pt" height="142pt"
 viewBox="0.00 0.00 397.00 142.00" xmlns="http://www.w3.org/2000/svg" xmlns:xlink="http://www.w3.org/1999/xlink">
<g id="graph0" class="graph" transform="scale(1 1) rotate(0) translate(4 138)">
<title>DockerApiStopContainerCommand::Execute</title>
<polygon fill="white" stroke="transparent" points="-4,4 -4,-138 393,-138 393,4 -4,4"/>
<!-- Node1 -->
<g id="node1" class="node">
<title>Node1</title>
<g id="a_node1"><a xlink:title="Executes the command to stop a Docker container via the API.">
<polygon fill="#bfbfbf" stroke="black" points="0,-52 0,-82 185,-82 185,-52 0,-52"/>
<text text-anchor="start" x="8" y="-70" font-family="Helvetica,sans-Serif" font-size="10.00">DockerApiStopContainerCommand</text>
<text text-anchor="middle" x="92.5" y="-59" font-family="Helvetica,sans-Serif" font-size="10.00">::Execute</text>
</a>
</g>
</g>
<!-- Node2 -->
<g id="node2" class="node">
<title>Node2</title>
<g id="a_node2"><a xlink:href="common_8hpp.html#a6ef961c11398422cd4dd9b4f66a57d03" target="_top" xlink:title="Compose a container API endpoint for Docker or Podman API.">
<polygon fill="white" stroke="black" points="221,-114.5 221,-133.5 389,-133.5 389,-114.5 221,-114.5"/>
<text text-anchor="middle" x="305" y="-121.5" font-family="Helvetica,sans-Serif" font-size="10.00">ComposeContainerApiEndpoint</text>
</a>
</g>
</g>
<!-- Node1&#45;&gt;Node2 -->
<g id="edge1" class="edge">
<title>Node1&#45;&gt;Node2</title>
<path fill="none" stroke="midnightblue" d="M141.43,-82.08C165.25,-89.37 194.53,-98.03 221,-105 230.34,-107.46 240.31,-109.9 249.99,-112.17"/>
<polygon fill="midnightblue" stroke="midnightblue" points="249.4,-115.63 259.93,-114.47 250.98,-108.81 249.4,-115.63"/>
</g>
<!-- Node3 -->
<g id="node3" class="node">
<title>Node3</title>
<g id="a_node3"><a xlink:href="structStatus.html#ace3b560f6a5f4a2d62a02b6e03700538" target="_top" xlink:title="Returns an error Status with the given code and message.">
<polygon fill="white" stroke="black" points="266.5,-76.5 266.5,-95.5 343.5,-95.5 343.5,-76.5 266.5,-76.5"/>
<text text-anchor="middle" x="305" y="-83.5" font-family="Helvetica,sans-Serif" font-size="10.00">Status::Error</text>
</a>
</g>
</g>
<!-- Node1&#45;&gt;Node3 -->
<g id="edge2" class="edge">
<title>Node1&#45;&gt;Node3</title>
<path fill="none" stroke="midnightblue" d="M185.22,-75.28C209.78,-77.5 235.35,-79.8 256.44,-81.71"/>
<polygon fill="midnightblue" stroke="midnightblue" points="256.13,-85.19 266.41,-82.61 256.76,-78.22 256.13,-85.19"/>
</g>
<!-- Node4 -->
<g id="node4" class="node">
<title>Node4</title>
<g id="a_node4"><a xlink:href="structStatus.html#ab516c5b687e7e334a1865fe28fd39122" target="_top" xlink:title="Returns a success Status.">
<polygon fill="white" stroke="black" points="271.5,-38.5 271.5,-57.5 338.5,-57.5 338.5,-38.5 271.5,-38.5"/>
<text text-anchor="middle" x="305" y="-45.5" font-family="Helvetica,sans-Serif" font-size="10.00">Status::Ok</text>
</a>
</g>
</g>
<!-- Node1&#45;&gt;Node4 -->
<g id="edge3" class="edge">
<title>Node1&#45;&gt;Node4</title>
<path fill="none" stroke="midnightblue" d="M185.22,-58.72C211.71,-56.33 239.37,-53.83 261.32,-51.85"/>
<polygon fill="midnightblue" stroke="midnightblue" points="261.65,-55.34 271.3,-50.95 261.02,-48.37 261.65,-55.34"/>
</g>
<!-- Node5 -->
<g id="node5" class="node">
<title>Node5</title>
<g id="a_node5"><a xlink:href="classCurlHandler.html#a35359e5d7f3412aef304d81dbe02a7bc" target="_top" xlink:title="Perform a HTTP POST request over a Unix domain socket.">
<polygon fill="white" stroke="black" points="243,-0.5 243,-19.5 367,-19.5 367,-0.5 243,-0.5"/>
<text text-anchor="middle" x="305" y="-7.5" font-family="Helvetica,sans-Serif" font-size="10.00">CurlHandler::PostUnix</text>
</a>
</g>
</g>
<!-- Node1&#45;&gt;Node5 -->
<g id="edge4" class="edge">
<title>Node1&#45;&gt;Node5</title>
<path fill="none" stroke="midnightblue" d="M141.43,-51.92C165.25,-44.63 194.53,-35.97 221,-29 230.34,-26.54 240.31,-24.1 249.99,-21.83"/>
<polygon fill="midnightblue" stroke="midnightblue" points="250.98,-25.19 259.93,-19.53 249.4,-18.37 250.98,-25.19"/>
</g>
</g>
</svg>
