<?xml version="1.0" encoding="UTF-8" standalone="no"?>
<!DOCTYPE svg PUBLIC "-//W3C//DTD SVG 1.1//EN"
 "http://www.w3.org/Graphics/SVG/1.1/DTD/svg11.dtd">
<!-- Generated by graphviz version 2.43.0 (0)
 -->
<!-- Title: DockerApiCreateContainerCommand::Execute Pages: 1 -->
<svg width="314pt" height="104pt"
 viewBox="0.00 0.00 314.00 104.00" xmlns="http://www.w3.org/2000/svg" xmlns:xlink="http://www.w3.org/1999/xlink">
<g id="graph0" class="graph" transform="scale(1 1) rotate(0) translate(4 100)">
<title>DockerApiCreateContainerCommand::Execute</title>
<polygon fill="white" stroke="transparent" points="-4,4 -4,-100 310,-100 310,4 -4,4"/>
<!-- Node1 -->
<g id="node1" class="node">
<title>Node1</title>
<g id="a_node1"><a xlink:title="Executes the command to create a Docker container via the API.">
<polygon fill="#bfbfbf" stroke="black" points="0,-33 0,-63 146,-63 146,-33 0,-33"/>
<text text-anchor="start" x="8" y="-51" font-family="Helvetica,sans-Serif" font-size="10.00">DockerApiCreateContainer</text>
<text text-anchor="middle" x="73" y="-40" font-family="Helvetica,sans-Serif" font-size="10.00">Command::Execute</text>
</a>
</g>
</g>
<!-- Node2 -->
<g id="node2" class="node">
<title>Node2</title>
<g id="a_node2"><a xlink:href="structStatus.html#ace3b560f6a5f4a2d62a02b6e03700538" target="_top" xlink:title="Returns an error Status with the given code and message.">
<polygon fill="white" stroke="black" points="205.5,-76.5 205.5,-95.5 282.5,-95.5 282.5,-76.5 205.5,-76.5"/>
<text text-anchor="middle" x="244" y="-83.5" font-family="Helvetica,sans-Serif" font-size="10.00">Status::Error</text>
</a>
</g>
</g>
<!-- Node1&#45;&gt;Node2 -->
<g id="edge1" class="edge">
<title>Node1&#45;&gt;Node2</title>
<path fill="none" stroke="midnightblue" d="M140.79,-63.02C158.98,-67.11 178.31,-71.45 195.21,-75.25"/>
<polygon fill="midnightblue" stroke="midnightblue" points="194.86,-78.76 205.38,-77.54 196.39,-71.93 194.86,-78.76"/>
</g>
<!-- Node3 -->
<g id="node3" class="node">
<title>Node3</title>
<g id="a_node3"><a xlink:href="structStatus.html#ab516c5b687e7e334a1865fe28fd39122" target="_top" xlink:title="Returns a success Status.">
<polygon fill="white" stroke="black" points="210.5,-38.5 210.5,-57.5 277.5,-57.5 277.5,-38.5 210.5,-38.5"/>
<text text-anchor="middle" x="244" y="-45.5" font-family="Helvetica,sans-Serif" font-size="10.00">Status::Ok</text>
</a>
</g>
</g>
<!-- Node1&#45;&gt;Node3 -->
<g id="edge2" class="edge">
<title>Node1&#45;&gt;Node3</title>
<path fill="none" stroke="midnightblue" d="M146.16,-48C164.56,-48 183.76,-48 200.16,-48"/>
<polygon fill="midnightblue" stroke="midnightblue" points="200.5,-51.5 210.5,-48 200.5,-44.5 200.5,-51.5"/>
</g>
<!-- Node4 -->
<g id="node4" class="node">
<title>Node4</title>
<g id="a_node4"><a xlink:href="classCurlHandler.html#a35359e5d7f3412aef304d81dbe02a7bc" target="_top" xlink:title="Perform a HTTP POST request over a Unix domain socket.">
<polygon fill="white" stroke="black" points="182,-0.5 182,-19.5 306,-19.5 306,-0.5 182,-0.5"/>
<text text-anchor="middle" x="244" y="-7.5" font-family="Helvetica,sans-Serif" font-size="10.00">CurlHandler::PostUnix</text>
</a>
</g>
</g>
<!-- Node1&#45;&gt;Node4 -->
<g id="edge3" class="edge">
<title>Node1&#45;&gt;Node4</title>
<path fill="none" stroke="midnightblue" d="M140.79,-32.98C157.29,-29.27 174.73,-25.35 190.45,-21.82"/>
<polygon fill="midnightblue" stroke="midnightblue" points="191.51,-25.17 200.5,-19.56 189.97,-18.34 191.51,-25.17"/>
</g>
</g>
</svg>
