<?xml version="1.0" encoding="UTF-8" standalone="no"?>
<!DOCTYPE svg PUBLIC "-//W3C//DTD SVG 1.1//EN"
 "http://www.w3.org/Graphics/SVG/1.1/DTD/svg11.dtd">
<!-- Generated by graphviz version 2.43.0 (0)
 -->
<!-- Title: EmbeddedDatabaseHandler Pages: 1 -->
<svg width="180pt" height="270pt"
 viewBox="0.00 0.00 180.00 270.00" xmlns="http://www.w3.org/2000/svg" xmlns:xlink="http://www.w3.org/1999/xlink">
<g id="graph0" class="graph" transform="scale(1 1) rotate(0) translate(4 266)">
<title>EmbeddedDatabaseHandler</title>
<polygon fill="white" stroke="transparent" points="-4,4 -4,-266 176,-266 176,4 -4,4"/>
<!-- Node1 -->
<g id="node1" class="node">
<title>Node1</title>
<g id="a_node1"><a xlink:title="Lightweight, fixed&#45;size in&#45;memory key&#45;value store for embedded systems.">
<polygon fill="#bfbfbf" stroke="black" points="0,-0.5 0,-112.5 172,-112.5 172,-0.5 0,-0.5"/>
<text text-anchor="middle" x="86" y="-100.5" font-family="Helvetica,sans-Serif" font-size="10.00">EmbeddedDatabaseHandler</text>
<polyline fill="none" stroke="black" points="0,-93.5 172,-93.5 "/>
<text text-anchor="middle" x="86" y="-81.5" font-family="Helvetica,sans-Serif" font-size="10.00"> </text>
<polyline fill="none" stroke="black" points="0,-74.5 172,-74.5 "/>
<text text-anchor="start" x="8" y="-62.5" font-family="Helvetica,sans-Serif" font-size="10.00">+ EmbeddedDatabaseHandler()</text>
<text text-anchor="start" x="8" y="-51.5" font-family="Helvetica,sans-Serif" font-size="10.00">+ SaveJson()</text>
<text text-anchor="start" x="8" y="-40.5" font-family="Helvetica,sans-Serif" font-size="10.00">+ GetJson()</text>
<text text-anchor="start" x="8" y="-29.5" font-family="Helvetica,sans-Serif" font-size="10.00">+ ClearDatabase()</text>
<text text-anchor="start" x="8" y="-18.5" font-family="Helvetica,sans-Serif" font-size="10.00">+ UpdateField()</text>
<text text-anchor="start" x="8" y="-7.5" font-family="Helvetica,sans-Serif" font-size="10.00">+ RemoveKey()</text>
</a>
</g>
</g>
<!-- Node2 -->
<g id="node2" class="node">
<title>Node2</title>
<g id="a_node2"><a xlink:href="classIDatabaseHandler.html" target="_top" xlink:title="Interface for database handlers supporting JSON storage and retrieval.">
<polygon fill="white" stroke="black" points="20.5,-149.5 20.5,-261.5 151.5,-261.5 151.5,-149.5 20.5,-149.5"/>
<text text-anchor="middle" x="86" y="-249.5" font-family="Helvetica,sans-Serif" font-size="10.00">IDatabaseHandler</text>
<polyline fill="none" stroke="black" points="20.5,-242.5 151.5,-242.5 "/>
<text text-anchor="middle" x="86" y="-230.5" font-family="Helvetica,sans-Serif" font-size="10.00"> </text>
<polyline fill="none" stroke="black" points="20.5,-223.5 151.5,-223.5 "/>
<text text-anchor="start" x="28.5" y="-211.5" font-family="Helvetica,sans-Serif" font-size="10.00">+ ~IDatabaseHandler()</text>
<text text-anchor="start" x="28.5" y="-200.5" font-family="Helvetica,sans-Serif" font-size="10.00">+ SaveJson()</text>
<text text-anchor="start" x="28.5" y="-189.5" font-family="Helvetica,sans-Serif" font-size="10.00">+ GetJson()</text>
<text text-anchor="start" x="28.5" y="-178.5" font-family="Helvetica,sans-Serif" font-size="10.00">+ ClearDatabase()</text>
<text text-anchor="start" x="28.5" y="-167.5" font-family="Helvetica,sans-Serif" font-size="10.00">+ UpdateField()</text>
<text text-anchor="start" x="28.5" y="-156.5" font-family="Helvetica,sans-Serif" font-size="10.00">+ RemoveKey()</text>
</a>
</g>
</g>
<!-- Node2&#45;&gt;Node1 -->
<g id="edge1" class="edge">
<title>Node2&#45;&gt;Node1</title>
<path fill="none" stroke="midnightblue" d="M86,-139.18C86,-130.43 86,-121.52 86,-112.96"/>
<polygon fill="none" stroke="midnightblue" points="82.5,-139.34 86,-149.34 89.5,-139.34 82.5,-139.34"/>
</g>
</g>
</svg>
