<?xml version="1.0" encoding="UTF-8" standalone="no"?>
<!DOCTYPE svg PUBLIC "-//W3C//DTD SVG 1.1//EN"
 "http://www.w3.org/Graphics/SVG/1.1/DTD/svg11.dtd">
<!-- Generated by graphviz version 2.43.0 (0)
 -->
<!-- Title: containermanager::ContainerParameters::container_name Pages: 1 -->
<svg width="408pt" height="418pt"
 viewBox="0.00 0.00 408.00 417.50" xmlns="http://www.w3.org/2000/svg" xmlns:xlink="http://www.w3.org/1999/xlink">
<g id="graph0" class="graph" transform="scale(1 1) rotate(0) translate(4 413.5)">
<title>containermanager::ContainerParameters::container_name</title>
<polygon fill="white" stroke="transparent" points="-4,4 -4,-413.5 404,-413.5 404,4 -4,4"/>
<!-- Node1 -->
<g id="node1" class="node">
<title>Node1</title>
<g id="a_node1"><a xlink:title=" ">
<polygon fill="#bfbfbf" stroke="black" points="241,-198 241,-228 400,-228 400,-198 241,-198"/>
<text text-anchor="start" x="249" y="-216" font-family="Helvetica,sans-Serif" font-size="10.00">containermanager::Container</text>
<text text-anchor="middle" x="320.5" y="-205" font-family="Helvetica,sans-Serif" font-size="10.00">Parameters::container_name</text>
</a>
</g>
</g>
<!-- Node2 -->
<g id="node2" class="node">
<title>Node2</title>
<g id="a_node2"><a xlink:href="classcontainermanager_1_1ContainerParameters.html#a6596180db4da81bbaf81f434e379f0ab" target="_top" xlink:title=" ">
<polygon fill="white" stroke="black" points="23,-379 23,-409 182,-409 182,-379 23,-379"/>
<text text-anchor="start" x="31" y="-397" font-family="Helvetica,sans-Serif" font-size="10.00">containermanager::Container</text>
<text text-anchor="middle" x="102.5" y="-386" font-family="Helvetica,sans-Serif" font-size="10.00">Parameters::ByteSizeLong</text>
</a>
</g>
</g>
<!-- Node1&#45;&gt;Node2 -->
<g id="edge1" class="edge">
<title>Node1&#45;&gt;Node2</title>
<path fill="none" stroke="midnightblue" d="M308.61,-237.37C291.67,-272.38 255.6,-336.38 205,-370 197.99,-374.66 190.17,-378.42 182.08,-381.45"/>
<polygon fill="midnightblue" stroke="midnightblue" points="311.78,-238.85 312.88,-228.31 305.45,-235.87 311.78,-238.85"/>
</g>
<!-- Node3 -->
<g id="node3" class="node">
<title>Node3</title>
<g id="a_node3"><a xlink:href="classcontainermanager_1_1ContainerParameters.html#a2fee4e0c315fa483968409ecdd02545c" target="_top" xlink:title=" ">
<polygon fill="white" stroke="black" points="11.5,-330 11.5,-360 193.5,-360 193.5,-330 11.5,-330"/>
<text text-anchor="start" x="19.5" y="-348" font-family="Helvetica,sans-Serif" font-size="10.00">containermanager::Container</text>
<text text-anchor="middle" x="102.5" y="-337" font-family="Helvetica,sans-Serif" font-size="10.00">Parameters::ContainerParameters</text>
</a>
</g>
</g>
<!-- Node1&#45;&gt;Node3 -->
<g id="edge2" class="edge">
<title>Node1&#45;&gt;Node3</title>
<path fill="none" stroke="midnightblue" d="M301.55,-235.99C280.92,-260.78 244.77,-299.57 205,-321 198.62,-324.44 191.76,-327.38 184.72,-329.91"/>
<polygon fill="midnightblue" stroke="midnightblue" points="304.32,-238.13 307.93,-228.16 298.9,-233.7 304.32,-238.13"/>
</g>
<!-- Node4 -->
<g id="node4" class="node">
<title>Node4</title>
<g id="a_node4"><a xlink:href="classProtoRequestExecutorHandler.html#a7255c2daf8946f8c73b0327cd4ad9156" target="_top" xlink:title="Receives a serialized protobuf string, deserializes, saves to DB, and returns result as JSON....">
<polygon fill="white" stroke="black" points="21,-281 21,-311 184,-311 184,-281 21,-281"/>
<text text-anchor="start" x="29" y="-299" font-family="Helvetica,sans-Serif" font-size="10.00">ProtoRequestExecutorHandler</text>
<text text-anchor="middle" x="102.5" y="-288" font-family="Helvetica,sans-Serif" font-size="10.00">::Execute</text>
</a>
</g>
</g>
<!-- Node1&#45;&gt;Node4 -->
<g id="edge3" class="edge">
<title>Node1&#45;&gt;Node4</title>
<path fill="none" stroke="midnightblue" d="M285.14,-233C262.87,-245.3 232.91,-260.65 205,-271 194.96,-274.72 184.16,-278.06 173.48,-280.99"/>
<polygon fill="midnightblue" stroke="midnightblue" points="286.87,-236.05 293.89,-228.11 283.45,-229.94 286.87,-236.05"/>
</g>
<!-- Node5 -->
<g id="node5" class="node">
<title>Node5</title>
<g id="a_node5"><a xlink:href="classcontainermanager_1_1ContainerParameters.html#a36de13559f731376aa286280030077ba" target="_top" xlink:title=" ">
<polygon fill="white" stroke="black" points="12,-220.5 12,-261.5 193,-261.5 193,-220.5 12,-220.5"/>
<text text-anchor="start" x="20" y="-249.5" font-family="Helvetica,sans-Serif" font-size="10.00">containermanager::Container</text>
<text text-anchor="start" x="20" y="-238.5" font-family="Helvetica,sans-Serif" font-size="10.00">Parameters::InternalSerializeWith</text>
<text text-anchor="middle" x="102.5" y="-227.5" font-family="Helvetica,sans-Serif" font-size="10.00">CachedSizesToArray</text>
</a>
</g>
</g>
<!-- Node1&#45;&gt;Node5 -->
<g id="edge4" class="edge">
<title>Node1&#45;&gt;Node5</title>
<path fill="none" stroke="midnightblue" d="M230.96,-224.48C218.44,-226.1 205.55,-227.77 193.01,-229.4"/>
<polygon fill="midnightblue" stroke="midnightblue" points="231.44,-227.94 240.91,-223.19 230.54,-221 231.44,-227.94"/>
</g>
<!-- Node6 -->
<g id="node6" class="node">
<title>Node6</title>
<g id="a_node6"><a xlink:href="classcontainermanager_1_1ContainerParameters.html#ad9cd6a95640deb798e3da50545edab5a" target="_top" xlink:title=" ">
<polygon fill="white" stroke="black" points="23,-171 23,-201 182,-201 182,-171 23,-171"/>
<text text-anchor="start" x="31" y="-189" font-family="Helvetica,sans-Serif" font-size="10.00">containermanager::Container</text>
<text text-anchor="middle" x="102.5" y="-178" font-family="Helvetica,sans-Serif" font-size="10.00">Parameters::MergeFrom</text>
</a>
</g>
</g>
<!-- Node1&#45;&gt;Node6 -->
<g id="edge5" class="edge">
<title>Node1&#45;&gt;Node6</title>
<path fill="none" stroke="midnightblue" d="M230.91,-201.93C214.72,-199.9 197.91,-197.8 182.03,-195.82"/>
<polygon fill="midnightblue" stroke="midnightblue" points="230.55,-205.41 240.91,-203.18 231.42,-198.46 230.55,-205.41"/>
</g>
<!-- Node7 -->
<g id="node7" class="node">
<title>Node7</title>
<g id="a_node7"><a xlink:href="classcontainermanager_1_1ContainerParameters.html#aa8cd2fad13af260eb2e0ea4d58eeee57" target="_top" xlink:title=" ">
<polygon fill="white" stroke="black" points="4,-110.5 4,-151.5 201,-151.5 201,-110.5 4,-110.5"/>
<text text-anchor="start" x="12" y="-139.5" font-family="Helvetica,sans-Serif" font-size="10.00">containermanager::Container</text>
<text text-anchor="start" x="12" y="-128.5" font-family="Helvetica,sans-Serif" font-size="10.00">Parameters::MergePartialFromCoded</text>
<text text-anchor="middle" x="102.5" y="-117.5" font-family="Helvetica,sans-Serif" font-size="10.00">Stream</text>
</a>
</g>
</g>
<!-- Node1&#45;&gt;Node7 -->
<g id="edge6" class="edge">
<title>Node1&#45;&gt;Node7</title>
<path fill="none" stroke="midnightblue" d="M279.11,-193.55C257.41,-183.48 230.04,-171.36 205,-162 195.34,-158.39 185.04,-154.87 174.86,-151.58"/>
<polygon fill="midnightblue" stroke="midnightblue" points="277.8,-196.81 288.34,-197.88 280.77,-190.47 277.8,-196.81"/>
</g>
<!-- Node8 -->
<g id="node8" class="node">
<title>Node8</title>
<g id="a_node8"><a xlink:href="classcontainermanager_1_1ContainerParameters.html#a3861adae59d508844a3e8bdf892ba7e3" target="_top" xlink:title=" ">
<polygon fill="white" stroke="black" points="0,-61 0,-91 205,-91 205,-61 0,-61"/>
<text text-anchor="start" x="8" y="-79" font-family="Helvetica,sans-Serif" font-size="10.00">containermanager::Container</text>
<text text-anchor="middle" x="102.5" y="-68" font-family="Helvetica,sans-Serif" font-size="10.00">Parameters::SerializeWithCachedSizes</text>
</a>
</g>
</g>
<!-- Node1&#45;&gt;Node8 -->
<g id="edge7" class="edge">
<title>Node1&#45;&gt;Node8</title>
<path fill="none" stroke="midnightblue" d="M302.03,-189.63C281.59,-163.98 245.38,-123.48 205,-101 198.02,-97.12 190.45,-93.83 182.68,-91.05"/>
<polygon fill="midnightblue" stroke="midnightblue" points="299.42,-191.98 308.34,-197.71 304.94,-187.67 299.42,-191.98"/>
</g>
<!-- Node9 -->
<g id="node9" class="node">
<title>Node9</title>
<g id="a_node9"><a xlink:href="classcontainermanager_1_1ContainerParameters.html#a98e35a56b192f23fb33e1c5f0b67308b" target="_top" xlink:title=" ">
<polygon fill="white" stroke="black" points="23,-0.5 23,-41.5 182,-41.5 182,-0.5 23,-0.5"/>
<text text-anchor="start" x="31" y="-29.5" font-family="Helvetica,sans-Serif" font-size="10.00">containermanager::Container</text>
<text text-anchor="start" x="31" y="-18.5" font-family="Helvetica,sans-Serif" font-size="10.00">Parameters::set_allocated</text>
<text text-anchor="middle" x="102.5" y="-7.5" font-family="Helvetica,sans-Serif" font-size="10.00">_container_name</text>
</a>
</g>
</g>
<!-- Node1&#45;&gt;Node9 -->
<g id="edge8" class="edge">
<title>Node1&#45;&gt;Node9</title>
<path fill="none" stroke="midnightblue" d="M308.48,-188.44C291.37,-153.08 255.1,-88.11 205,-52 198.05,-46.99 190.28,-42.78 182.21,-39.24"/>
<polygon fill="midnightblue" stroke="midnightblue" points="305.36,-190.03 312.79,-197.58 311.69,-187.04 305.36,-190.03"/>
</g>
</g>
</svg>
