<?xml version="1.0" encoding="UTF-8" standalone="no"?>
<!DOCTYPE svg PUBLIC "-//W3C//DTD SVG 1.1//EN"
 "http://www.w3.org/Graphics/SVG/1.1/DTD/svg11.dtd">
<!-- Generated by graphviz version 2.43.0 (0)
 -->
<!-- Title: MosquittoMqttSubscriber Pages: 1 -->
<svg width="174pt" height="215pt"
 viewBox="0.00 0.00 174.00 215.00" xmlns="http://www.w3.org/2000/svg" xmlns:xlink="http://www.w3.org/1999/xlink">
<g id="graph0" class="graph" transform="scale(1 1) rotate(0) translate(4 211)">
<title>MosquittoMqttSubscriber</title>
<polygon fill="white" stroke="transparent" points="-4,4 -4,-211 170,-211 170,4 -4,4"/>
<!-- Node1 -->
<g id="node1" class="node">
<title>Node1</title>
<g id="a_node1"><a xlink:title="Subscribes to an MQTT topic and dispatches received messages to a RequestExecutor.">
<polygon fill="#bfbfbf" stroke="black" points="0,-0.5 0,-112.5 166,-112.5 166,-0.5 0,-0.5"/>
<text text-anchor="middle" x="83" y="-100.5" font-family="Helvetica,sans-Serif" font-size="10.00">MosquittoMqttSubscriber</text>
<polyline fill="none" stroke="black" points="0,-93.5 166,-93.5 "/>
<text text-anchor="middle" x="83" y="-81.5" font-family="Helvetica,sans-Serif" font-size="10.00"> </text>
<polyline fill="none" stroke="black" points="0,-74.5 166,-74.5 "/>
<text text-anchor="start" x="8" y="-62.5" font-family="Helvetica,sans-Serif" font-size="10.00">+ MosquittoMqttSubscriber()</text>
<text text-anchor="start" x="8" y="-51.5" font-family="Helvetica,sans-Serif" font-size="10.00">+ ~MosquittoMqttSubscriber()</text>
<text text-anchor="start" x="8" y="-40.5" font-family="Helvetica,sans-Serif" font-size="10.00">+ Start()</text>
<text text-anchor="start" x="8" y="-29.5" font-family="Helvetica,sans-Serif" font-size="10.00">+ Stop()</text>
<text text-anchor="start" x="8" y="-18.5" font-family="Helvetica,sans-Serif" font-size="10.00"># on_connect()</text>
<text text-anchor="start" x="8" y="-7.5" font-family="Helvetica,sans-Serif" font-size="10.00"># on_message()</text>
</a>
</g>
</g>
<!-- Node2 -->
<g id="node2" class="node">
<title>Node2</title>
<g id="a_node2"><a xlink:title=" ">
<polygon fill="white" stroke="#bfbfbf" points="21.5,-149.5 21.5,-206.5 144.5,-206.5 144.5,-149.5 21.5,-149.5"/>
<text text-anchor="middle" x="83" y="-194.5" font-family="Helvetica,sans-Serif" font-size="10.00">mosqpp::mosquittopp</text>
<polyline fill="none" stroke="#bfbfbf" points="21.5,-187.5 144.5,-187.5 "/>
<text text-anchor="middle" x="83" y="-175.5" font-family="Helvetica,sans-Serif" font-size="10.00"> </text>
<polyline fill="none" stroke="#bfbfbf" points="21.5,-168.5 144.5,-168.5 "/>
<text text-anchor="middle" x="83" y="-156.5" font-family="Helvetica,sans-Serif" font-size="10.00"> </text>
</a>
</g>
</g>
<!-- Node2&#45;&gt;Node1 -->
<g id="edge1" class="edge">
<title>Node2&#45;&gt;Node1</title>
<path fill="none" stroke="midnightblue" d="M83,-139.11C83,-130.75 83,-121.73 83,-112.83"/>
<polygon fill="none" stroke="midnightblue" points="79.5,-139.28 83,-149.28 86.5,-139.28 79.5,-139.28"/>
</g>
</g>
</svg>
