<?xml version="1.0" encoding="UTF-8" standalone="no"?>
<!DOCTYPE svg PUBLIC "-//W3C//DTD SVG 1.1//EN"
 "http://www.w3.org/Graphics/SVG/1.1/DTD/svg11.dtd">
<!-- Generated by graphviz version 2.43.0 (0)
 -->
<!-- Title: containermanager::ContainerParameters::MergePartialFromCodedStream Pages: 1 -->
<svg width="444pt" height="578pt"
 viewBox="0.00 0.00 444.00 578.00" xmlns="http://www.w3.org/2000/svg" xmlns:xlink="http://www.w3.org/1999/xlink">
<g id="graph0" class="graph" transform="scale(1 1) rotate(0) translate(4 574)">
<title>containermanager::ContainerParameters::MergePartialFromCodedStream</title>
<polygon fill="white" stroke="transparent" points="-4,4 -4,-574 440,-574 440,4 -4,4"/>
<!-- Node1 -->
<g id="node1" class="node">
<title>Node1</title>
<g id="a_node1"><a xlink:title=" ">
<polygon fill="#bfbfbf" stroke="black" points="0,-264 0,-305 197,-305 197,-264 0,-264"/>
<text text-anchor="start" x="8" y="-293" font-family="Helvetica,sans-Serif" font-size="10.00">containermanager::Container</text>
<text text-anchor="start" x="8" y="-282" font-family="Helvetica,sans-Serif" font-size="10.00">Parameters::MergePartialFromCoded</text>
<text text-anchor="middle" x="98.5" y="-271" font-family="Helvetica,sans-Serif" font-size="10.00">Stream</text>
</a>
</g>
</g>
<!-- Node2 -->
<g id="node2" class="node">
<title>Node2</title>
<g id="a_node2"><a xlink:href="classcontainermanager_1_1ContainerParameters.html#a1fa02ce02859ee70a41e1b4fe203e412" target="_top" xlink:title=" ">
<polygon fill="white" stroke="black" points="255,-539.5 255,-569.5 414,-569.5 414,-539.5 255,-539.5"/>
<text text-anchor="start" x="263" y="-557.5" font-family="Helvetica,sans-Serif" font-size="10.00">containermanager::Container</text>
<text text-anchor="middle" x="334.5" y="-546.5" font-family="Helvetica,sans-Serif" font-size="10.00">Parameters::container_name</text>
</a>
</g>
</g>
<!-- Node1&#45;&gt;Node2 -->
<g id="edge1" class="edge">
<title>Node1&#45;&gt;Node2</title>
<path fill="none" stroke="midnightblue" d="M104.51,-305.1C117.2,-352.73 155.29,-470.93 233,-530.5 236.89,-533.48 241.09,-536.1 245.5,-538.4"/>
<polygon fill="midnightblue" stroke="midnightblue" points="244.24,-541.67 254.79,-542.68 247.17,-535.32 244.24,-541.67"/>
</g>
<!-- Node3 -->
<g id="node3" class="node">
<title>Node3</title>
<g id="a_node3"><a xlink:href="classcontainermanager_1_1ContainerParameters.html#af839132551bd6af4c89eb23d3eb1f34c" target="_top" xlink:title=" ">
<polygon fill="white" stroke="black" points="255,-490.5 255,-520.5 414,-520.5 414,-490.5 255,-490.5"/>
<text text-anchor="start" x="263" y="-508.5" font-family="Helvetica,sans-Serif" font-size="10.00">containermanager::Container</text>
<text text-anchor="middle" x="334.5" y="-497.5" font-family="Helvetica,sans-Serif" font-size="10.00">Parameters::cpus</text>
</a>
</g>
</g>
<!-- Node1&#45;&gt;Node3 -->
<g id="edge2" class="edge">
<title>Node1&#45;&gt;Node3</title>
<path fill="none" stroke="midnightblue" d="M107.47,-305.23C124.18,-345.83 166.9,-435.81 233,-481.5 236.94,-484.23 241.16,-486.64 245.54,-488.79"/>
<polygon fill="midnightblue" stroke="midnightblue" points="244.19,-492.02 254.76,-492.82 247,-485.6 244.19,-492.02"/>
</g>
<!-- Node4 -->
<g id="node4" class="node">
<title>Node4</title>
<g id="a_node4"><a xlink:href="classcontainermanager_1_1ContainerParameters.html#a59f4919cc9edc798ed20464e28128dd8" target="_top" xlink:title=" ">
<polygon fill="white" stroke="black" points="255,-441.5 255,-471.5 414,-471.5 414,-441.5 255,-441.5"/>
<text text-anchor="start" x="263" y="-459.5" font-family="Helvetica,sans-Serif" font-size="10.00">containermanager::Container</text>
<text text-anchor="middle" x="334.5" y="-448.5" font-family="Helvetica,sans-Serif" font-size="10.00">Parameters::image_name</text>
</a>
</g>
</g>
<!-- Node1&#45;&gt;Node4 -->
<g id="edge3" class="edge">
<title>Node1&#45;&gt;Node4</title>
<path fill="none" stroke="midnightblue" d="M112.08,-305.06C132.99,-337.43 178.1,-399.92 233,-432.5 236.92,-434.83 241.06,-436.93 245.33,-438.83"/>
<polygon fill="midnightblue" stroke="midnightblue" points="244.27,-442.18 254.85,-442.67 246.89,-435.69 244.27,-442.18"/>
</g>
<!-- Node5 -->
<g id="node5" class="node">
<title>Node5</title>
<g id="a_node5"><a xlink:href="classcontainermanager_1_1ContainerParameters.html#a399f34ad96a2cef3179a3c72f251e2d0" target="_top" xlink:title=" ">
<polygon fill="white" stroke="black" points="255,-392.5 255,-422.5 414,-422.5 414,-392.5 255,-392.5"/>
<text text-anchor="start" x="263" y="-410.5" font-family="Helvetica,sans-Serif" font-size="10.00">containermanager::Container</text>
<text text-anchor="middle" x="334.5" y="-399.5" font-family="Helvetica,sans-Serif" font-size="10.00">Parameters::memory</text>
</a>
</g>
</g>
<!-- Node1&#45;&gt;Node5 -->
<g id="edge4" class="edge">
<title>Node1&#45;&gt;Node5</title>
<path fill="none" stroke="midnightblue" d="M121.3,-305.1C146.34,-327.64 189.59,-363.26 233,-383.5 237.34,-385.53 241.88,-387.39 246.51,-389.1"/>
<polygon fill="midnightblue" stroke="midnightblue" points="245.54,-392.47 256.14,-392.42 247.82,-385.85 245.54,-392.47"/>
</g>
<!-- Node6 -->
<g id="node6" class="node">
<title>Node6</title>
<g id="a_node6"><a xlink:href="classcontainermanager_1_1ContainerParameters.html#a4ee9db95da3a81d27a8f0c8e31b70528" target="_top" xlink:title=" ">
<polygon fill="white" stroke="black" points="233,-343.5 233,-373.5 436,-373.5 436,-343.5 233,-343.5"/>
<text text-anchor="start" x="241" y="-361.5" font-family="Helvetica,sans-Serif" font-size="10.00">containermanager::Container</text>
<text text-anchor="middle" x="334.5" y="-350.5" font-family="Helvetica,sans-Serif" font-size="10.00">Parameters::mutable_container_name</text>
</a>
</g>
</g>
<!-- Node1&#45;&gt;Node6 -->
<g id="edge5" class="edge">
<title>Node1&#45;&gt;Node6</title>
<path fill="none" stroke="midnightblue" d="M150.02,-305.11C174.78,-314.78 205.19,-326.01 233,-334.5 240.3,-336.73 247.95,-338.88 255.63,-340.92"/>
<polygon fill="midnightblue" stroke="midnightblue" points="254.79,-344.32 265.35,-343.43 256.54,-337.54 254.79,-344.32"/>
</g>
<!-- Node7 -->
<g id="node7" class="node">
<title>Node7</title>
<g id="a_node7"><a xlink:href="classcontainermanager_1_1ContainerParameters.html#a56f48d6529ca4a0c0f444156708ad854" target="_top" xlink:title=" ">
<polygon fill="white" stroke="black" points="255,-294.5 255,-324.5 414,-324.5 414,-294.5 255,-294.5"/>
<text text-anchor="start" x="263" y="-312.5" font-family="Helvetica,sans-Serif" font-size="10.00">containermanager::Container</text>
<text text-anchor="middle" x="334.5" y="-301.5" font-family="Helvetica,sans-Serif" font-size="10.00">Parameters::mutable_cpus</text>
</a>
</g>
</g>
<!-- Node1&#45;&gt;Node7 -->
<g id="edge6" class="edge">
<title>Node1&#45;&gt;Node7</title>
<path fill="none" stroke="midnightblue" d="M197.04,-294.92C212.88,-296.61 229.22,-298.36 244.83,-300.03"/>
<polygon fill="midnightblue" stroke="midnightblue" points="244.66,-303.53 254.98,-301.11 245.41,-296.57 244.66,-303.53"/>
</g>
<!-- Node8 -->
<g id="node8" class="node">
<title>Node8</title>
<g id="a_node8"><a xlink:href="classcontainermanager_1_1ContainerParameters.html#a5225f2171dfab67f2a3666a66b5bdda8" target="_top" xlink:title=" ">
<polygon fill="white" stroke="black" points="240.5,-245.5 240.5,-275.5 428.5,-275.5 428.5,-245.5 240.5,-245.5"/>
<text text-anchor="start" x="248.5" y="-263.5" font-family="Helvetica,sans-Serif" font-size="10.00">containermanager::Container</text>
<text text-anchor="middle" x="334.5" y="-252.5" font-family="Helvetica,sans-Serif" font-size="10.00">Parameters::mutable_image_name</text>
</a>
</g>
</g>
<!-- Node1&#45;&gt;Node8 -->
<g id="edge7" class="edge">
<title>Node1&#45;&gt;Node8</title>
<path fill="none" stroke="midnightblue" d="M197.04,-274.5C207.99,-273.37 219.17,-272.23 230.18,-271.1"/>
<polygon fill="midnightblue" stroke="midnightblue" points="230.65,-274.57 240.24,-270.07 229.94,-267.6 230.65,-274.57"/>
</g>
<!-- Node9 -->
<g id="node9" class="node">
<title>Node9</title>
<g id="a_node9"><a xlink:href="classcontainermanager_1_1ContainerParameters.html#a439502a4a4371d8d74397255f47e0900" target="_top" xlink:title=" ">
<polygon fill="white" stroke="black" points="251.5,-196.5 251.5,-226.5 417.5,-226.5 417.5,-196.5 251.5,-196.5"/>
<text text-anchor="start" x="259.5" y="-214.5" font-family="Helvetica,sans-Serif" font-size="10.00">containermanager::Container</text>
<text text-anchor="middle" x="334.5" y="-203.5" font-family="Helvetica,sans-Serif" font-size="10.00">Parameters::mutable_memory</text>
</a>
</g>
</g>
<!-- Node1&#45;&gt;Node9 -->
<g id="edge8" class="edge">
<title>Node1&#45;&gt;Node9</title>
<path fill="none" stroke="midnightblue" d="M152.68,-263.98C176.98,-254.97 206.25,-244.61 233,-236.5 241.38,-233.96 250.2,-231.48 259,-229.13"/>
<polygon fill="midnightblue" stroke="midnightblue" points="260.11,-232.46 268.9,-226.54 258.34,-225.69 260.11,-232.46"/>
</g>
<!-- Node10 -->
<g id="node10" class="node">
<title>Node10</title>
<g id="a_node10"><a xlink:href="classcontainermanager_1_1ContainerParameters.html#a91d1eac6c444eaf9ddb3e1f2d8ab09ea" target="_top" xlink:title=" ">
<polygon fill="white" stroke="black" points="255,-147.5 255,-177.5 414,-177.5 414,-147.5 255,-147.5"/>
<text text-anchor="start" x="263" y="-165.5" font-family="Helvetica,sans-Serif" font-size="10.00">containermanager::Container</text>
<text text-anchor="middle" x="334.5" y="-154.5" font-family="Helvetica,sans-Serif" font-size="10.00">Parameters::mutable_pids</text>
</a>
</g>
</g>
<!-- Node1&#45;&gt;Node10 -->
<g id="edge9" class="edge">
<title>Node1&#45;&gt;Node10</title>
<path fill="none" stroke="midnightblue" d="M122.33,-263.61C147.6,-241.57 190.41,-207.35 233,-187.5 238.27,-185.04 243.82,-182.81 249.48,-180.78"/>
<polygon fill="midnightblue" stroke="midnightblue" points="250.73,-184.05 259.1,-177.55 248.51,-177.41 250.73,-184.05"/>
</g>
<!-- Node11 -->
<g id="node11" class="node">
<title>Node11</title>
<g id="a_node11"><a xlink:href="classcontainermanager_1_1ContainerParameters.html#a8314afa07bd3eb2c5bfa980dbea06fbf" target="_top" xlink:title=" ">
<polygon fill="white" stroke="black" points="239,-98.5 239,-128.5 430,-128.5 430,-98.5 239,-98.5"/>
<text text-anchor="start" x="247" y="-116.5" font-family="Helvetica,sans-Serif" font-size="10.00">containermanager::Container</text>
<text text-anchor="middle" x="334.5" y="-105.5" font-family="Helvetica,sans-Serif" font-size="10.00">Parameters::mutable_restart_policy</text>
</a>
</g>
</g>
<!-- Node1&#45;&gt;Node11 -->
<g id="edge10" class="edge">
<title>Node1&#45;&gt;Node11</title>
<path fill="none" stroke="midnightblue" d="M112.53,-263.76C133.73,-231.77 178.84,-170.74 233,-138.5 236.69,-136.3 240.57,-134.3 244.57,-132.47"/>
<polygon fill="midnightblue" stroke="midnightblue" points="246.2,-135.58 254.09,-128.51 243.51,-129.12 246.2,-135.58"/>
</g>
<!-- Node12 -->
<g id="node12" class="node">
<title>Node12</title>
<g id="a_node12"><a xlink:href="classcontainermanager_1_1ContainerParameters.html#a96b6ea6e5ad06ddab5701150627b7aca" target="_top" xlink:title=" ">
<polygon fill="white" stroke="black" points="255,-49.5 255,-79.5 414,-79.5 414,-49.5 255,-49.5"/>
<text text-anchor="start" x="263" y="-67.5" font-family="Helvetica,sans-Serif" font-size="10.00">containermanager::Container</text>
<text text-anchor="middle" x="334.5" y="-56.5" font-family="Helvetica,sans-Serif" font-size="10.00">Parameters::pids</text>
</a>
</g>
</g>
<!-- Node1&#45;&gt;Node12 -->
<g id="edge11" class="edge">
<title>Node1&#45;&gt;Node12</title>
<path fill="none" stroke="midnightblue" d="M107.7,-263.72C124.67,-223.48 167.63,-134.91 233,-89.5 236.95,-86.76 241.16,-84.32 245.55,-82.14"/>
<polygon fill="midnightblue" stroke="midnightblue" points="247.05,-85.31 254.77,-78.05 244.21,-78.91 247.05,-85.31"/>
</g>
<!-- Node13 -->
<g id="node13" class="node">
<title>Node13</title>
<g id="a_node13"><a xlink:href="classcontainermanager_1_1ContainerParameters.html#a51eb0c4c3c36e1e3326f34559917a304" target="_top" xlink:title=" ">
<polygon fill="white" stroke="black" points="255,-0.5 255,-30.5 414,-30.5 414,-0.5 255,-0.5"/>
<text text-anchor="start" x="263" y="-18.5" font-family="Helvetica,sans-Serif" font-size="10.00">containermanager::Container</text>
<text text-anchor="middle" x="334.5" y="-7.5" font-family="Helvetica,sans-Serif" font-size="10.00">Parameters::restart_policy</text>
</a>
</g>
</g>
<!-- Node1&#45;&gt;Node13 -->
<g id="edge12" class="edge">
<title>Node1&#45;&gt;Node13</title>
<path fill="none" stroke="midnightblue" d="M104.7,-263.76C117.68,-216.39 156.15,-99.78 233,-40.5 236.89,-37.5 241.09,-34.86 245.5,-32.53"/>
<polygon fill="midnightblue" stroke="midnightblue" points="247.22,-35.58 254.79,-28.17 244.25,-29.25 247.22,-35.58"/>
</g>
</g>
</svg>
