<?xml version="1.0" encoding="UTF-8" standalone="no"?>
<!DOCTYPE svg PUBLIC "-//W3C//DTD SVG 1.1//EN"
 "http://www.w3.org/Graphics/SVG/1.1/DTD/svg11.dtd">
<!-- Generated by graphviz version 2.43.0 (0)
 -->
<!-- Title: JsonRequestExecutorHandler::Execute Pages: 1 -->
<svg width="937pt" height="242pt"
 viewBox="0.00 0.00 937.00 241.50" xmlns="http://www.w3.org/2000/svg" xmlns:xlink="http://www.w3.org/1999/xlink">
<g id="graph0" class="graph" transform="scale(1 1) rotate(0) translate(4 237.5)">
<title>JsonRequestExecutorHandler::Execute</title>
<polygon fill="white" stroke="transparent" points="-4,4 -4,-237.5 933,-237.5 933,4 -4,4"/>
<!-- Node1 -->
<g id="node1" class="node">
<title>Node1</title>
<g id="a_node1"><a xlink:title="Executes a request represented as a JSON string.">
<polygon fill="#bfbfbf" stroke="black" points="0,-104.5 0,-134.5 158,-134.5 158,-104.5 0,-104.5"/>
<text text-anchor="start" x="8" y="-122.5" font-family="Helvetica,sans-Serif" font-size="10.00">JsonRequestExecutorHandler</text>
<text text-anchor="middle" x="79" y="-111.5" font-family="Helvetica,sans-Serif" font-size="10.00">::Execute</text>
</a>
</g>
</g>
<!-- Node2 -->
<g id="node2" class="node">
<title>Node2</title>
<g id="a_node2"><a xlink:href="aes__gcm__decrypt_8hpp.html#aafa6ad411734eeb8c3783999c926ac2b" target="_top" xlink:title="Decrypts an OTA (over&#45;the&#45;air) payload formatted as [IV|TAG|CIPHERTEXT]. Loads the AES key from file ...">
<polygon fill="white" stroke="black" points="212,-176 212,-195 331,-195 331,-176 212,-176"/>
<text text-anchor="middle" x="271.5" y="-183" font-family="Helvetica,sans-Serif" font-size="10.00">decrypt_ota_payload</text>
</a>
</g>
</g>
<!-- Node1&#45;&gt;Node2 -->
<g id="edge1" class="edge">
<title>Node1&#45;&gt;Node2</title>
<path fill="none" stroke="midnightblue" d="M121.06,-134.59C142.7,-142.47 169.73,-152.17 194,-160.5 205.98,-164.61 219.06,-168.94 230.97,-172.83"/>
<polygon fill="midnightblue" stroke="midnightblue" points="230.05,-176.21 240.64,-175.97 232.21,-169.55 230.05,-176.21"/>
</g>
<!-- Node5 -->
<g id="node5" class="node">
<title>Node5</title>
<g id="a_node5"><a xlink:href="structStatus.html#ace3b560f6a5f4a2d62a02b6e03700538" target="_top" xlink:title="Returns an error Status with the given code and message.">
<polygon fill="white" stroke="black" points="233,-132 233,-151 310,-151 310,-132 233,-132"/>
<text text-anchor="middle" x="271.5" y="-139" font-family="Helvetica,sans-Serif" font-size="10.00">Status::Error</text>
</a>
</g>
</g>
<!-- Node1&#45;&gt;Node5 -->
<g id="edge4" class="edge">
<title>Node1&#45;&gt;Node5</title>
<path fill="none" stroke="midnightblue" d="M158.03,-128.51C179.98,-131.05 203.19,-133.73 222.79,-135.99"/>
<polygon fill="midnightblue" stroke="midnightblue" points="222.65,-139.5 232.98,-137.17 223.45,-132.54 222.65,-139.5"/>
</g>
<!-- Node6 -->
<g id="node6" class="node">
<title>Node6</title>
<g id="a_node6"><a xlink:href="classContainerServiceHandler.html#a16f0650a9d5719fc441541a2adc5f29a" target="_top" xlink:title="Handles a container request by dispatching to the appropriate operation. Updates the container status...">
<polygon fill="white" stroke="black" points="202.5,-82.5 202.5,-112.5 340.5,-112.5 340.5,-82.5 202.5,-82.5"/>
<text text-anchor="start" x="210.5" y="-100.5" font-family="Helvetica,sans-Serif" font-size="10.00">ContainerServiceHandler</text>
<text text-anchor="middle" x="271.5" y="-89.5" font-family="Helvetica,sans-Serif" font-size="10.00">::HandleRequest</text>
</a>
</g>
</g>
<!-- Node1&#45;&gt;Node6 -->
<g id="edge5" class="edge">
<title>Node1&#45;&gt;Node6</title>
<path fill="none" stroke="midnightblue" d="M158.03,-110.49C169.28,-109.19 180.86,-107.85 192.12,-106.55"/>
<polygon fill="midnightblue" stroke="midnightblue" points="192.82,-109.99 202.35,-105.37 192.01,-103.04 192.82,-109.99"/>
</g>
<!-- Node15 -->
<g id="node15" class="node">
<title>Node15</title>
<g id="a_node15"><a xlink:href="classIDatabaseHandler.html#ae77b65ff51207a07704ae8efebac2125" target="_top" xlink:title="Saves a JSON object to the database with the specified key.">
<polygon fill="white" stroke="black" points="194,-44 194,-63 349,-63 349,-44 194,-44"/>
<text text-anchor="middle" x="271.5" y="-51" font-family="Helvetica,sans-Serif" font-size="10.00">IDatabaseHandler::SaveJson</text>
</a>
</g>
</g>
<!-- Node1&#45;&gt;Node15 -->
<g id="edge14" class="edge">
<title>Node1&#45;&gt;Node15</title>
<path fill="none" stroke="midnightblue" d="M112.93,-104.41C135.45,-94.47 166.13,-81.65 194,-72.5 201.5,-70.04 209.5,-67.72 217.39,-65.61"/>
<polygon fill="midnightblue" stroke="midnightblue" points="218.49,-68.94 227.29,-63.05 216.74,-62.17 218.49,-68.94"/>
</g>
<!-- Node3 -->
<g id="node3" class="node">
<title>Node3</title>
<g id="a_node3"><a xlink:href="aes__gcm__decrypt_8cpp.html#adac74448236ae767b76ec9f551cee9e2" target="_top" xlink:title="Decrypts AES&#45;256&#45;GCM encrypted ciphertext.">
<polygon fill="white" stroke="black" points="418.5,-214 418.5,-233 520.5,-233 520.5,-214 418.5,-214"/>
<text text-anchor="middle" x="469.5" y="-221" font-family="Helvetica,sans-Serif" font-size="10.00">aes_gcm_decrypt</text>
</a>
</g>
</g>
<!-- Node2&#45;&gt;Node3 -->
<g id="edge2" class="edge">
<title>Node2&#45;&gt;Node3</title>
<path fill="none" stroke="midnightblue" d="M321.71,-195.04C348.27,-200.19 381.25,-206.58 409.22,-212.01"/>
<polygon fill="midnightblue" stroke="midnightblue" points="408.79,-215.49 419.27,-213.96 410.12,-208.62 408.79,-215.49"/>
</g>
<!-- Node4 -->
<g id="node4" class="node">
<title>Node4</title>
<g id="a_node4"><a xlink:href="aes__gcm__decrypt_8cpp.html#ac3bd08c44501a45d3a1e0129b7b3b046" target="_top" xlink:title="Loads the AES&#45;256 key from a file at runtime. The key file should contain a 64&#45;character hex string (...">
<polygon fill="white" stroke="black" points="431.5,-176 431.5,-195 507.5,-195 507.5,-176 431.5,-176"/>
<text text-anchor="middle" x="469.5" y="-183" font-family="Helvetica,sans-Serif" font-size="10.00">LoadAesKey</text>
</a>
</g>
</g>
<!-- Node2&#45;&gt;Node4 -->
<g id="edge3" class="edge">
<title>Node2&#45;&gt;Node4</title>
<path fill="none" stroke="midnightblue" d="M331.04,-185.5C359.85,-185.5 394.12,-185.5 421.23,-185.5"/>
<polygon fill="midnightblue" stroke="midnightblue" points="421.24,-189 431.24,-185.5 421.24,-182 421.24,-189"/>
</g>
<!-- Node7 -->
<g id="node7" class="node">
<title>Node7</title>
<g id="a_node7"><a xlink:href="classContainerServiceHandler.html#a9c527464b3d91168a747a33361994000" target="_top" xlink:title="Performs the specified container operation using the request structure. Invokes the appropriate comma...">
<polygon fill="white" stroke="black" points="400.5,-126.5 400.5,-156.5 538.5,-156.5 538.5,-126.5 400.5,-126.5"/>
<text text-anchor="start" x="408.5" y="-144.5" font-family="Helvetica,sans-Serif" font-size="10.00">ContainerServiceHandler</text>
<text text-anchor="middle" x="469.5" y="-133.5" font-family="Helvetica,sans-Serif" font-size="10.00">::ContainerOperations</text>
</a>
</g>
</g>
<!-- Node6&#45;&gt;Node7 -->
<g id="edge6" class="edge">
<title>Node6&#45;&gt;Node7</title>
<path fill="none" stroke="midnightblue" d="M339.4,-112.52C356.18,-116.29 374.32,-120.36 391.55,-124.22"/>
<polygon fill="midnightblue" stroke="midnightblue" points="391.04,-127.7 401.57,-126.47 392.57,-120.87 391.04,-127.7"/>
</g>
<!-- Node12 -->
<g id="node12" class="node">
<title>Node12</title>
<g id="a_node12"><a xlink:href="structStatus.html#a19a4e02345758bf3685dcb14a9678de1" target="_top" xlink:title="Checks if the status represents success.">
<polygon fill="white" stroke="black" points="437,-88 437,-107 502,-107 502,-88 437,-88"/>
<text text-anchor="middle" x="469.5" y="-95" font-family="Helvetica,sans-Serif" font-size="10.00">Status::ok</text>
</a>
</g>
</g>
<!-- Node6&#45;&gt;Node12 -->
<g id="edge11" class="edge">
<title>Node6&#45;&gt;Node12</title>
<path fill="none" stroke="midnightblue" d="M340.5,-97.5C369.14,-97.5 401.56,-97.5 426.6,-97.5"/>
<polygon fill="midnightblue" stroke="midnightblue" points="426.85,-101 436.85,-97.5 426.85,-94 426.85,-101"/>
</g>
<!-- Node13 -->
<g id="node13" class="node">
<title>Node13</title>
<g id="a_node13"><a xlink:href="classIDatabaseHandler.html#a32aef1bd17b79529d93fadc2d72441e5" target="_top" xlink:title="Removes the JSON object associated with the specified key from the database.">
<polygon fill="white" stroke="black" points="385,-50 385,-69 554,-69 554,-50 385,-50"/>
<text text-anchor="middle" x="469.5" y="-57" font-family="Helvetica,sans-Serif" font-size="10.00">IDatabaseHandler::RemoveKey</text>
</a>
</g>
</g>
<!-- Node6&#45;&gt;Node13 -->
<g id="edge12" class="edge">
<title>Node6&#45;&gt;Node13</title>
<path fill="none" stroke="midnightblue" d="M340.5,-84.32C362.93,-79.97 387.68,-75.17 409.39,-70.96"/>
<polygon fill="midnightblue" stroke="midnightblue" points="410.31,-74.35 419.46,-69.01 408.98,-67.48 410.31,-74.35"/>
</g>
<!-- Node14 -->
<g id="node14" class="node">
<title>Node14</title>
<g id="a_node14"><a xlink:href="classIDatabaseHandler.html#a10972030d1577974e9f86820e251c7d6" target="_top" xlink:title="Updates a specific field in the JSON object stored under the given key.">
<polygon fill="white" stroke="black" points="396.5,-0.5 396.5,-30.5 542.5,-30.5 542.5,-0.5 396.5,-0.5"/>
<text text-anchor="start" x="404.5" y="-18.5" font-family="Helvetica,sans-Serif" font-size="10.00">IDatabaseHandler::Update</text>
<text text-anchor="middle" x="469.5" y="-7.5" font-family="Helvetica,sans-Serif" font-size="10.00">Field</text>
</a>
</g>
</g>
<!-- Node6&#45;&gt;Node14 -->
<g id="edge13" class="edge">
<title>Node6&#45;&gt;Node14</title>
<path fill="none" stroke="midnightblue" d="M328,-82.39C335.27,-79.54 342.46,-76.26 349,-72.5 367.56,-61.84 366.3,-50.93 385,-40.5 388.97,-38.28 393.16,-36.24 397.47,-34.37"/>
<polygon fill="midnightblue" stroke="midnightblue" points="399.06,-37.5 407.03,-30.52 396.44,-31.01 399.06,-37.5"/>
</g>
<!-- Node8 -->
<g id="node8" class="node">
<title>Node8</title>
<g id="a_node8"><a xlink:href="classCommandFactory.html#adf4da2f0dbcf9e4018f9afe8bd4a38e9" target="_top" xlink:title="Factory method to create a command based on the container request structure.">
<polygon fill="white" stroke="black" points="590,-170 590,-189 781,-189 781,-170 590,-170"/>
<text text-anchor="middle" x="685.5" y="-177" font-family="Helvetica,sans-Serif" font-size="10.00">CommandFactory::CreateCommand</text>
</a>
</g>
</g>
<!-- Node7&#45;&gt;Node8 -->
<g id="edge7" class="edge">
<title>Node7&#45;&gt;Node8</title>
<path fill="none" stroke="midnightblue" d="M538.5,-153.58C564.87,-158.26 594.89,-163.59 620.83,-168.19"/>
<polygon fill="midnightblue" stroke="midnightblue" points="620.46,-171.68 630.92,-169.99 621.69,-164.79 620.46,-171.68"/>
</g>
<!-- Node9 -->
<g id="node9" class="node">
<title>Node9</title>
<g id="a_node9"><a xlink:href="classInvoker.html#ac01c8216ff7b95532f2970a49198d840" target="_top" xlink:title="Execute the command.">
<polygon fill="white" stroke="black" points="640,-132 640,-151 731,-151 731,-132 640,-132"/>
<text text-anchor="middle" x="685.5" y="-139" font-family="Helvetica,sans-Serif" font-size="10.00">Invoker::Invoke</text>
</a>
</g>
</g>
<!-- Node7&#45;&gt;Node9 -->
<g id="edge8" class="edge">
<title>Node7&#45;&gt;Node9</title>
<path fill="none" stroke="midnightblue" d="M538.5,-141.5C567.91,-141.5 601.88,-141.5 629.64,-141.5"/>
<polygon fill="midnightblue" stroke="midnightblue" points="629.96,-145 639.96,-141.5 629.96,-138 629.96,-145"/>
</g>
<!-- Node11 -->
<g id="node11" class="node">
<title>Node11</title>
<g id="a_node11"><a xlink:href="classInvoker.html#ae9f10a2487afd153bf0da69ae410a0e9" target="_top" xlink:title="Set the command to be executed.">
<polygon fill="white" stroke="black" points="623,-94 623,-113 748,-113 748,-94 623,-94"/>
<text text-anchor="middle" x="685.5" y="-101" font-family="Helvetica,sans-Serif" font-size="10.00">Invoker::SetCommand</text>
</a>
</g>
</g>
<!-- Node7&#45;&gt;Node11 -->
<g id="edge10" class="edge">
<title>Node7&#45;&gt;Node11</title>
<path fill="none" stroke="midnightblue" d="M538.5,-129.42C564.87,-124.74 594.89,-119.41 620.83,-114.81"/>
<polygon fill="midnightblue" stroke="midnightblue" points="621.69,-118.21 630.92,-113.01 620.46,-111.32 621.69,-118.21"/>
</g>
<!-- Node10 -->
<g id="node10" class="node">
<title>Node10</title>
<g id="a_node10"><a xlink:href="classCommand.html#a8d6fcd1baa8fd96ce9b423b66765ab4a" target="_top" xlink:title="Execute the command.">
<polygon fill="white" stroke="black" points="817,-132 817,-151 929,-151 929,-132 817,-132"/>
<text text-anchor="middle" x="873" y="-139" font-family="Helvetica,sans-Serif" font-size="10.00">Command::Execute</text>
</a>
</g>
</g>
<!-- Node9&#45;&gt;Node10 -->
<g id="edge9" class="edge">
<title>Node9&#45;&gt;Node10</title>
<path fill="none" stroke="midnightblue" d="M731.4,-141.5C754.02,-141.5 781.87,-141.5 806.79,-141.5"/>
<polygon fill="midnightblue" stroke="midnightblue" points="806.91,-145 816.91,-141.5 806.91,-138 806.91,-145"/>
</g>
</g>
</svg>
