<?xml version="1.0" encoding="UTF-8" standalone="no"?>
<!DOCTYPE svg PUBLIC "-//W3C//DTD SVG 1.1//EN"
 "http://www.w3.org/Graphics/SVG/1.1/DTD/svg11.dtd">
<!-- Generated by graphviz version 2.43.0 (0)
 -->
<!-- Title: CurlHandler::GetUnix Pages: 1 -->
<svg width="322pt" height="88pt"
 viewBox="0.00 0.00 322.00 88.00" xmlns="http://www.w3.org/2000/svg" xmlns:xlink="http://www.w3.org/1999/xlink">
<g id="graph0" class="graph" transform="scale(1 1) rotate(0) translate(4 84)">
<title>CurlHandler::GetUnix</title>
<polygon fill="white" stroke="transparent" points="-4,4 -4,-84 318,-84 318,4 -4,4"/>
<!-- Node1 -->
<g id="node1" class="node">
<title>Node1</title>
<g id="a_node1"><a xlink:title="Perform a HTTP GET request over a Unix domain socket.">
<polygon fill="#bfbfbf" stroke="black" points="194,-30 194,-49 314,-49 314,-30 194,-30"/>
<text text-anchor="middle" x="254" y="-37" font-family="Helvetica,sans-Serif" font-size="10.00">CurlHandler::GetUnix</text>
</a>
</g>
</g>
<!-- Node2 -->
<g id="node2" class="node">
<title>Node2</title>
<g id="a_node2"><a xlink:href="classDockerApiRuntimeAvailableCommand.html#a26f5ae3b7b9d8da730865a6b4f057fca" target="_top" xlink:title="Execute the command.">
<polygon fill="white" stroke="black" points="3,-49.5 3,-79.5 155,-79.5 155,-49.5 3,-49.5"/>
<text text-anchor="start" x="11" y="-67.5" font-family="Helvetica,sans-Serif" font-size="10.00">DockerApiRuntimeAvailable</text>
<text text-anchor="middle" x="79" y="-56.5" font-family="Helvetica,sans-Serif" font-size="10.00">Command::Execute</text>
</a>
</g>
</g>
<!-- Node1&#45;&gt;Node2 -->
<g id="edge1" class="edge">
<title>Node1&#45;&gt;Node2</title>
<path fill="none" stroke="midnightblue" d="M183.88,-49.49C174.49,-50.85 164.8,-52.24 155.31,-53.62"/>
<polygon fill="midnightblue" stroke="midnightblue" points="184.55,-52.93 193.95,-48.03 183.55,-46 184.55,-52.93"/>
</g>
<!-- Node3 -->
<g id="node3" class="node">
<title>Node3</title>
<g id="a_node3"><a xlink:href="classPodmanApiRuntimeAvailableCommand.html#a3cee9a8e7da55eb4f1fc67a12dcab68f" target="_top" xlink:title="Execute the command.">
<polygon fill="white" stroke="black" points="0,-0.5 0,-30.5 158,-30.5 158,-0.5 0,-0.5"/>
<text text-anchor="start" x="8" y="-18.5" font-family="Helvetica,sans-Serif" font-size="10.00">PodmanApiRuntimeAvailable</text>
<text text-anchor="middle" x="79" y="-7.5" font-family="Helvetica,sans-Serif" font-size="10.00">Command::Execute</text>
</a>
</g>
</g>
<!-- Node1&#45;&gt;Node3 -->
<g id="edge2" class="edge">
<title>Node1&#45;&gt;Node3</title>
<path fill="none" stroke="midnightblue" d="M183.77,-29.9C175.32,-28.72 166.63,-27.52 158.06,-26.33"/>
<polygon fill="midnightblue" stroke="midnightblue" points="183.56,-33.4 193.95,-31.31 184.52,-26.47 183.56,-33.4"/>
</g>
</g>
</svg>
