<?xml version="1.0" encoding="UTF-8" standalone="no"?>
<!DOCTYPE svg PUBLIC "-//W3C//DTD SVG 1.1//EN"
 "http://www.w3.org/Graphics/SVG/1.1/DTD/svg11.dtd">
<!-- Generated by graphviz version 2.43.0 (0)
 -->
<!-- Title: RedisDatabaseHandler::GetInstance Pages: 1 -->
<svg width="443pt" height="568pt"
 viewBox="0.00 0.00 443.00 567.50" xmlns="http://www.w3.org/2000/svg" xmlns:xlink="http://www.w3.org/1999/xlink">
<g id="graph0" class="graph" transform="scale(1 1) rotate(0) translate(4 563.5)">
<title>RedisDatabaseHandler::GetInstance</title>
<polygon fill="white" stroke="transparent" points="-4,4 -4,-563.5 439,-563.5 439,4 -4,4"/>
<!-- Node1 -->
<g id="node1" class="node">
<title>Node1</title>
<g id="a_node1"><a xlink:title="Retrieves the singleton instance of the RedisDatabaseHandler.">
<polygon fill="#bfbfbf" stroke="black" points="307,-259 307,-289 435,-289 435,-259 307,-259"/>
<text text-anchor="start" x="315" y="-277" font-family="Helvetica,sans-Serif" font-size="10.00">RedisDatabaseHandler</text>
<text text-anchor="middle" x="371" y="-266" font-family="Helvetica,sans-Serif" font-size="10.00">::GetInstance</text>
</a>
</g>
</g>
<!-- Node2 -->
<g id="node2" class="node">
<title>Node2</title>
<g id="a_node2"><a xlink:href="classJsonRequestExecutorHandler.html#aaf7c1c7c14971ccfda4076e0a4681f43" target="_top" xlink:title="Executes a request represented as a JSON string.">
<polygon fill="white" stroke="black" points="95,-529 95,-559 253,-559 253,-529 95,-529"/>
<text text-anchor="start" x="103" y="-547" font-family="Helvetica,sans-Serif" font-size="10.00">JsonRequestExecutorHandler</text>
<text text-anchor="middle" x="174" y="-536" font-family="Helvetica,sans-Serif" font-size="10.00">::Execute</text>
</a>
</g>
</g>
<!-- Node1&#45;&gt;Node2 -->
<g id="edge1" class="edge">
<title>Node1&#45;&gt;Node2</title>
<path fill="none" stroke="midnightblue" d="M367.36,-299.07C360.74,-348.96 338.76,-460.98 271,-520 265.69,-524.63 259.62,-528.39 253.16,-531.44"/>
<polygon fill="midnightblue" stroke="midnightblue" points="370.84,-299.48 368.59,-289.13 363.89,-298.63 370.84,-299.48"/>
</g>
<!-- Node3 -->
<g id="node3" class="node">
<title>Node3</title>
<g id="a_node3"><a xlink:href="classDockerCreateContainerCommand.html#a8967ee094698e00a212c67f71870de06" target="_top" xlink:title="Executes the command to create a Docker container.">
<polygon fill="white" stroke="black" points="84,-480 84,-510 264,-510 264,-480 84,-480"/>
<text text-anchor="start" x="92" y="-498" font-family="Helvetica,sans-Serif" font-size="10.00">DockerCreateContainerCommand</text>
<text text-anchor="middle" x="174" y="-487" font-family="Helvetica,sans-Serif" font-size="10.00">::Execute</text>
</a>
</g>
</g>
<!-- Node1&#45;&gt;Node3 -->
<g id="edge2" class="edge">
<title>Node1&#45;&gt;Node3</title>
<path fill="none" stroke="midnightblue" d="M364.59,-299.02C354.14,-341.17 327.08,-426.11 271,-471 266.71,-474.44 261.99,-477.39 257.02,-479.92"/>
<polygon fill="midnightblue" stroke="midnightblue" points="368.06,-299.58 366.95,-289.04 361.24,-297.97 368.06,-299.58"/>
</g>
<!-- Node4 -->
<g id="node4" class="node">
<title>Node4</title>
<g id="a_node4"><a xlink:href="classPodmanCreateContainerCommand.html#aca31055904b1fb20736ed5807e215ae6" target="_top" xlink:title="Executes the command to create a Podman container.">
<polygon fill="white" stroke="black" points="81,-431 81,-461 267,-461 267,-431 81,-431"/>
<text text-anchor="start" x="89" y="-449" font-family="Helvetica,sans-Serif" font-size="10.00">PodmanCreateContainerCommand</text>
<text text-anchor="middle" x="174" y="-438" font-family="Helvetica,sans-Serif" font-size="10.00">::Execute</text>
</a>
</g>
</g>
<!-- Node1&#45;&gt;Node4 -->
<g id="edge3" class="edge">
<title>Node1&#45;&gt;Node4</title>
<path fill="none" stroke="midnightblue" d="M360.25,-298.75C345.85,-332 315.68,-390.57 271,-422 266.08,-425.46 260.71,-428.42 255.11,-430.96"/>
<polygon fill="midnightblue" stroke="midnightblue" points="363.57,-299.87 364.21,-289.3 357.12,-297.17 363.57,-299.87"/>
</g>
<!-- Node5 -->
<g id="node5" class="node">
<title>Node5</title>
<g id="a_node5"><a xlink:href="classDockerStartContainerCommand.html#ad208f99e4185a7606a0a9903d1346fcc" target="_top" xlink:title="Executes the command to start a Docker container.">
<polygon fill="white" stroke="black" points="88.5,-382 88.5,-412 259.5,-412 259.5,-382 88.5,-382"/>
<text text-anchor="start" x="96.5" y="-400" font-family="Helvetica,sans-Serif" font-size="10.00">DockerStartContainerCommand</text>
<text text-anchor="middle" x="174" y="-389" font-family="Helvetica,sans-Serif" font-size="10.00">::Execute</text>
</a>
</g>
</g>
<!-- Node1&#45;&gt;Node5 -->
<g id="edge4" class="edge">
<title>Node1&#45;&gt;Node5</title>
<path fill="none" stroke="midnightblue" d="M352.82,-297.41C334.91,-320.12 304.76,-353.89 271,-373 264.87,-376.47 258.24,-379.44 251.43,-381.99"/>
<polygon fill="midnightblue" stroke="midnightblue" points="355.74,-299.35 359.07,-289.3 350.2,-295.08 355.74,-299.35"/>
</g>
<!-- Node6 -->
<g id="node6" class="node">
<title>Node6</title>
<g id="a_node6"><a xlink:href="classPodmanStartContainerCommand.html#aaf7627e6faf5974ffcd95e8a5f58852f" target="_top" xlink:title="Executes the command to start a Podman container.">
<polygon fill="white" stroke="black" points="85.5,-333 85.5,-363 262.5,-363 262.5,-333 85.5,-333"/>
<text text-anchor="start" x="93.5" y="-351" font-family="Helvetica,sans-Serif" font-size="10.00">PodmanStartContainerCommand</text>
<text text-anchor="middle" x="174" y="-340" font-family="Helvetica,sans-Serif" font-size="10.00">::Execute</text>
</a>
</g>
</g>
<!-- Node1&#45;&gt;Node6 -->
<g id="edge5" class="edge">
<title>Node1&#45;&gt;Node6</title>
<path fill="none" stroke="midnightblue" d="M335.27,-293.94C316.66,-304 293.08,-315.78 271,-324 262.14,-327.3 252.66,-330.28 243.23,-332.94"/>
<polygon fill="midnightblue" stroke="midnightblue" points="337.16,-296.89 344.24,-289.01 333.79,-290.76 337.16,-296.89"/>
</g>
<!-- Node7 -->
<g id="node7" class="node">
<title>Node7</title>
<g id="a_node7"><a xlink:href="classDockerStopContainerCommand.html#a4d6a495edca166958eee65ca601bc5bd" target="_top" xlink:title="Executes the command to stop a Docker container.">
<polygon fill="white" stroke="black" points="89,-284 89,-314 259,-314 259,-284 89,-284"/>
<text text-anchor="start" x="97" y="-302" font-family="Helvetica,sans-Serif" font-size="10.00">DockerStopContainerCommand</text>
<text text-anchor="middle" x="174" y="-291" font-family="Helvetica,sans-Serif" font-size="10.00">::Execute</text>
</a>
</g>
</g>
<!-- Node1&#45;&gt;Node7 -->
<g id="edge6" class="edge">
<title>Node1&#45;&gt;Node7</title>
<path fill="none" stroke="midnightblue" d="M296.79,-283.39C284.5,-284.96 271.67,-286.61 259.14,-288.21"/>
<polygon fill="midnightblue" stroke="midnightblue" points="297.48,-286.83 306.96,-282.08 296.59,-279.88 297.48,-286.83"/>
</g>
<!-- Node8 -->
<g id="node8" class="node">
<title>Node8</title>
<g id="a_node8"><a xlink:href="classPodmanStopContainerCommand.html#a42d7bf3c2ae604172ae1e1ae29bdc0c6" target="_top" xlink:title="Executes the command to stop a Podman container.">
<polygon fill="white" stroke="black" points="86,-235 86,-265 262,-265 262,-235 86,-235"/>
<text text-anchor="start" x="94" y="-253" font-family="Helvetica,sans-Serif" font-size="10.00">PodmanStopContainerCommand</text>
<text text-anchor="middle" x="174" y="-242" font-family="Helvetica,sans-Serif" font-size="10.00">::Execute</text>
</a>
</g>
</g>
<!-- Node1&#45;&gt;Node8 -->
<g id="edge7" class="edge">
<title>Node1&#45;&gt;Node8</title>
<path fill="none" stroke="midnightblue" d="M296.78,-264.99C285.53,-263.6 273.82,-262.16 262.3,-260.75"/>
<polygon fill="midnightblue" stroke="midnightblue" points="296.61,-268.49 306.96,-266.24 297.46,-261.55 296.61,-268.49"/>
</g>
<!-- Node9 -->
<g id="node9" class="node">
<title>Node9</title>
<g id="a_node9"><a xlink:href="classDockerRemoveContainerCommand.html#a0c15063652bf92deb99a742a4a9f61fd" target="_top" xlink:title="Executes the command to remove a Docker container and clean up database state.">
<polygon fill="white" stroke="black" points="80,-186 80,-216 268,-216 268,-186 80,-186"/>
<text text-anchor="start" x="88" y="-204" font-family="Helvetica,sans-Serif" font-size="10.00">DockerRemoveContainerCommand</text>
<text text-anchor="middle" x="174" y="-193" font-family="Helvetica,sans-Serif" font-size="10.00">::Execute</text>
</a>
</g>
</g>
<!-- Node1&#45;&gt;Node9 -->
<g id="edge8" class="edge">
<title>Node1&#45;&gt;Node9</title>
<path fill="none" stroke="midnightblue" d="M333.57,-254.21C315.18,-244.77 292.31,-233.85 271,-226 261.06,-222.34 250.36,-218.99 239.83,-216.02"/>
<polygon fill="midnightblue" stroke="midnightblue" points="331.99,-257.33 342.48,-258.84 335.22,-251.12 331.99,-257.33"/>
</g>
<!-- Node10 -->
<g id="node10" class="node">
<title>Node10</title>
<g id="a_node10"><a xlink:href="classPodmanRemoveContainerCommand.html#a3bb0bf30e7f91e87c407980e1adcc398" target="_top" xlink:title="Executes the command to remove a Podman container and clean up database state.">
<polygon fill="white" stroke="black" points="77,-137 77,-167 271,-167 271,-137 77,-137"/>
<text text-anchor="start" x="85" y="-155" font-family="Helvetica,sans-Serif" font-size="10.00">PodmanRemoveContainerCommand</text>
<text text-anchor="middle" x="174" y="-144" font-family="Helvetica,sans-Serif" font-size="10.00">::Execute</text>
</a>
</g>
</g>
<!-- Node1&#45;&gt;Node10 -->
<g id="edge9" class="edge">
<title>Node1&#45;&gt;Node10</title>
<path fill="none" stroke="midnightblue" d="M352.38,-250.77C334.32,-228.58 304.24,-195.81 271,-177 264.18,-173.14 256.75,-169.86 249.15,-167.08"/>
<polygon fill="midnightblue" stroke="midnightblue" points="349.73,-253.06 358.69,-258.71 355.2,-248.71 349.73,-253.06"/>
</g>
<!-- Node11 -->
<g id="node11" class="node">
<title>Node11</title>
<g id="a_node11"><a xlink:href="classDockerRestartContainerCommand.html#a3852a9870150e02cde5e3f3cabf4d5d9" target="_top" xlink:title="Executes the command to restart a Docker container.">
<polygon fill="white" stroke="black" points="82.5,-88 82.5,-118 265.5,-118 265.5,-88 82.5,-88"/>
<text text-anchor="start" x="90.5" y="-106" font-family="Helvetica,sans-Serif" font-size="10.00">DockerRestartContainerCommand</text>
<text text-anchor="middle" x="174" y="-95" font-family="Helvetica,sans-Serif" font-size="10.00">::Execute</text>
</a>
</g>
</g>
<!-- Node1&#45;&gt;Node11 -->
<g id="edge10" class="edge">
<title>Node1&#45;&gt;Node11</title>
<path fill="none" stroke="midnightblue" d="M360.12,-249.65C345.56,-216.91 315.21,-159.22 271,-128 265.51,-124.13 259.47,-120.85 253.17,-118.08"/>
<polygon fill="midnightblue" stroke="midnightblue" points="356.95,-251.15 364.12,-258.95 363.38,-248.38 356.95,-251.15"/>
</g>
<!-- Node12 -->
<g id="node12" class="node">
<title>Node12</title>
<g id="a_node12"><a xlink:href="classPodmanRestartContainerCommand.html#ae4a585c345eafa6a97a1f38e4cb485ea" target="_top" xlink:title="Executes the command to restart a Podman container.">
<polygon fill="white" stroke="black" points="79.5,-39 79.5,-69 268.5,-69 268.5,-39 79.5,-39"/>
<text text-anchor="start" x="87.5" y="-57" font-family="Helvetica,sans-Serif" font-size="10.00">PodmanRestartContainerCommand</text>
<text text-anchor="middle" x="174" y="-46" font-family="Helvetica,sans-Serif" font-size="10.00">::Execute</text>
</a>
</g>
</g>
<!-- Node1&#45;&gt;Node12 -->
<g id="edge11" class="edge">
<title>Node1&#45;&gt;Node12</title>
<path fill="none" stroke="midnightblue" d="M364.39,-248.98C353.7,-207.23 326.36,-123.58 271,-79 266.17,-75.11 260.8,-71.82 255.14,-69.04"/>
<polygon fill="midnightblue" stroke="midnightblue" points="361.03,-249.99 366.81,-258.87 367.83,-248.33 361.03,-249.99"/>
</g>
<!-- Node13 -->
<g id="node13" class="node">
<title>Node13</title>
<g id="a_node13"><a xlink:href="init__handler_8cpp.html#ad98029164064eb3e856369697d9cc015" target="_top" xlink:title="Initializes logging and clears the database before server startup.">
<polygon fill="white" stroke="black" points="141,-0.5 141,-19.5 207,-19.5 207,-0.5 141,-0.5"/>
<text text-anchor="middle" x="174" y="-7.5" font-family="Helvetica,sans-Serif" font-size="10.00">InitProject</text>
</a>
</g>
</g>
<!-- Node1&#45;&gt;Node13 -->
<g id="edge12" class="edge">
<title>Node1&#45;&gt;Node13</title>
<path fill="none" stroke="midnightblue" d="M367.49,-248.91C361.1,-198.99 339.51,-87.16 271,-30 253.35,-15.28 227.62,-10.52 207.24,-9.31"/>
<polygon fill="midnightblue" stroke="midnightblue" points="364.02,-249.33 368.67,-258.85 370.97,-248.51 364.02,-249.33"/>
</g>
<!-- Node14 -->
<g id="node14" class="node">
<title>Node14</title>
<g id="a_node14"><a xlink:href="main_8cpp.html#ae66f6b31b5ad750f1fe042a706a4e3d4" target="_top" xlink:title="Main function for the Container Manager application.">
<polygon fill="white" stroke="black" points="0,-0.5 0,-19.5 41,-19.5 41,-0.5 0,-0.5"/>
<text text-anchor="middle" x="20.5" y="-7.5" font-family="Helvetica,sans-Serif" font-size="10.00">main</text>
</a>
</g>
</g>
<!-- Node13&#45;&gt;Node14 -->
<g id="edge13" class="edge">
<title>Node13&#45;&gt;Node14</title>
<path fill="none" stroke="midnightblue" d="M130.49,-10C101.18,-10 63.6,-10 41.09,-10"/>
<polygon fill="midnightblue" stroke="midnightblue" points="130.87,-13.5 140.87,-10 130.87,-6.5 130.87,-13.5"/>
</g>
</g>
</svg>
