<?xml version="1.0" encoding="UTF-8" standalone="no"?>
<!DOCTYPE svg PUBLIC "-//W3C//DTD SVG 1.1//EN"
 "http://www.w3.org/Graphics/SVG/1.1/DTD/svg11.dtd">
<!-- Generated by graphviz version 2.43.0 (0)
 -->
<!-- Title: containermanager::ContainerRequest::InternalSerializeWithCachedSizesToArray Pages: 1 -->
<svg width="403pt" height="186pt"
 viewBox="0.00 0.00 403.00 186.00" xmlns="http://www.w3.org/2000/svg" xmlns:xlink="http://www.w3.org/1999/xlink">
<g id="graph0" class="graph" transform="scale(1 1) rotate(0) translate(4 182)">
<title>containermanager::ContainerRequest::InternalSerializeWithCachedSizesToArray</title>
<polygon fill="white" stroke="transparent" points="-4,4 -4,-182 399,-182 399,4 -4,4"/>
<!-- Node1 -->
<g id="node1" class="node">
<title>Node1</title>
<g id="a_node1"><a xlink:title=" ">
<polygon fill="#bfbfbf" stroke="black" points="0,-68 0,-109 200,-109 200,-68 0,-68"/>
<text text-anchor="start" x="8" y="-97" font-family="Helvetica,sans-Serif" font-size="10.00">containermanager::Container</text>
<text text-anchor="start" x="8" y="-86" font-family="Helvetica,sans-Serif" font-size="10.00">Request::InternalSerializeWithCached</text>
<text text-anchor="middle" x="100" y="-75" font-family="Helvetica,sans-Serif" font-size="10.00">SizesToArray</text>
</a>
</g>
</g>
<!-- Node2 -->
<g id="node2" class="node">
<title>Node2</title>
<g id="a_node2"><a xlink:href="classcontainermanager_1_1ContainerRequest.html#a28ace998fd1164adc2da2f87d4f45ab0" target="_top" xlink:title=" ">
<polygon fill="white" stroke="black" points="236,-147.5 236,-177.5 395,-177.5 395,-147.5 236,-147.5"/>
<text text-anchor="start" x="244" y="-165.5" font-family="Helvetica,sans-Serif" font-size="10.00">containermanager::Container</text>
<text text-anchor="middle" x="315.5" y="-154.5" font-family="Helvetica,sans-Serif" font-size="10.00">Request::operation</text>
</a>
</g>
</g>
<!-- Node1&#45;&gt;Node2 -->
<g id="edge1" class="edge">
<title>Node1&#45;&gt;Node2</title>
<path fill="none" stroke="midnightblue" d="M154.29,-109.05C179.02,-118.37 208.89,-129.34 236,-138.5 241.85,-140.48 247.96,-142.47 254.09,-144.42"/>
<polygon fill="midnightblue" stroke="midnightblue" points="253.1,-147.78 263.69,-147.44 255.2,-141.1 253.1,-147.78"/>
</g>
<!-- Node3 -->
<g id="node3" class="node">
<title>Node3</title>
<g id="a_node3"><a xlink:href="classcontainermanager_1_1ContainerRequest.html#a9cd8d5cff94e72249a84e86da9b61516" target="_top" xlink:title=" ">
<polygon fill="white" stroke="black" points="236,-98.5 236,-128.5 395,-128.5 395,-98.5 236,-98.5"/>
<text text-anchor="start" x="244" y="-116.5" font-family="Helvetica,sans-Serif" font-size="10.00">containermanager::Container</text>
<text text-anchor="middle" x="315.5" y="-105.5" font-family="Helvetica,sans-Serif" font-size="10.00">Request::parameters</text>
</a>
</g>
</g>
<!-- Node1&#45;&gt;Node3 -->
<g id="edge2" class="edge">
<title>Node1&#45;&gt;Node3</title>
<path fill="none" stroke="midnightblue" d="M200.25,-100.12C208.77,-101.12 217.35,-102.12 225.77,-103.11"/>
<polygon fill="midnightblue" stroke="midnightblue" points="225.62,-106.62 235.96,-104.3 226.43,-99.66 225.62,-106.62"/>
</g>
<!-- Node4 -->
<g id="node4" class="node">
<title>Node4</title>
<g id="a_node4"><a xlink:href="classcontainermanager_1_1ContainerRequest.html#ad565a5ce010924a70d8dd2fe5586d219" target="_top" xlink:title=" ">
<polygon fill="white" stroke="black" points="236,-49.5 236,-79.5 395,-79.5 395,-49.5 236,-49.5"/>
<text text-anchor="start" x="244" y="-67.5" font-family="Helvetica,sans-Serif" font-size="10.00">containermanager::Container</text>
<text text-anchor="middle" x="315.5" y="-56.5" font-family="Helvetica,sans-Serif" font-size="10.00">Request::parameters_size</text>
</a>
</g>
</g>
<!-- Node1&#45;&gt;Node4 -->
<g id="edge3" class="edge">
<title>Node1&#45;&gt;Node4</title>
<path fill="none" stroke="midnightblue" d="M200.25,-77.34C208.77,-76.39 217.35,-75.42 225.77,-74.47"/>
<polygon fill="midnightblue" stroke="midnightblue" points="226.41,-77.92 235.96,-73.33 225.63,-70.97 226.41,-77.92"/>
</g>
<!-- Node5 -->
<g id="node5" class="node">
<title>Node5</title>
<g id="a_node5"><a xlink:href="classcontainermanager_1_1ContainerRequest.html#a83c720592fa42a002f8a88c190cecfa5" target="_top" xlink:title=" ">
<polygon fill="white" stroke="black" points="236,-0.5 236,-30.5 395,-30.5 395,-0.5 236,-0.5"/>
<text text-anchor="start" x="244" y="-18.5" font-family="Helvetica,sans-Serif" font-size="10.00">containermanager::Container</text>
<text text-anchor="middle" x="315.5" y="-7.5" font-family="Helvetica,sans-Serif" font-size="10.00">Request::runtime</text>
</a>
</g>
</g>
<!-- Node1&#45;&gt;Node5 -->
<g id="edge4" class="edge">
<title>Node1&#45;&gt;Node5</title>
<path fill="none" stroke="midnightblue" d="M157.34,-68C181.5,-59.33 210.07,-49.24 236,-40.5 242.56,-38.29 249.44,-36.02 256.29,-33.8"/>
<polygon fill="midnightblue" stroke="midnightblue" points="257.82,-36.98 266.26,-30.58 255.67,-30.32 257.82,-36.98"/>
</g>
</g>
</svg>
