<?xml version="1.0" encoding="UTF-8" standalone="no"?>
<!DOCTYPE svg PUBLIC "-//W3C//DTD SVG 1.1//EN"
 "http://www.w3.org/Graphics/SVG/1.1/DTD/svg11.dtd">
<!-- Generated by graphviz version 2.43.0 (0)
 -->
<!-- Title: RequestExecutor Pages: 1 -->
<svg width="384pt" height="182pt"
 viewBox="0.00 0.00 384.00 182.00" xmlns="http://www.w3.org/2000/svg" xmlns:xlink="http://www.w3.org/1999/xlink">
<g id="graph0" class="graph" transform="scale(1 1) rotate(0) translate(4 178)">
<title>RequestExecutor</title>
<polygon fill="white" stroke="transparent" points="-4,4 -4,-178 380,-178 380,4 -4,4"/>
<!-- Node1 -->
<g id="node1" class="node">
<title>Node1</title>
<g id="a_node1"><a xlink:title="Abstract base class for request executors supporting different input formats (e.g....">
<polygon fill="#bfbfbf" stroke="black" points="123,-105.5 123,-173.5 249,-173.5 249,-105.5 123,-105.5"/>
<text text-anchor="middle" x="186" y="-161.5" font-family="Helvetica,sans-Serif" font-size="10.00">RequestExecutor</text>
<polyline fill="none" stroke="black" points="123,-154.5 249,-154.5 "/>
<text text-anchor="middle" x="186" y="-142.5" font-family="Helvetica,sans-Serif" font-size="10.00"> </text>
<polyline fill="none" stroke="black" points="123,-135.5 249,-135.5 "/>
<text text-anchor="start" x="131" y="-123.5" font-family="Helvetica,sans-Serif" font-size="10.00">+ ~RequestExecutor()</text>
<text text-anchor="start" x="131" y="-112.5" font-family="Helvetica,sans-Serif" font-size="10.00">+ Execute()</text>
</a>
</g>
</g>
<!-- Node2 -->
<g id="node2" class="node">
<title>Node2</title>
<g id="a_node2"><a xlink:href="classJsonRequestExecutorHandler.html" target="_top" xlink:title="Parses and executes JSON requests, invoking business logic and database operations.">
<polygon fill="white" stroke="black" points="0,-0.5 0,-68.5 176,-68.5 176,-0.5 0,-0.5"/>
<text text-anchor="middle" x="88" y="-56.5" font-family="Helvetica,sans-Serif" font-size="10.00">JsonRequestExecutorHandler</text>
<polyline fill="none" stroke="black" points="0,-49.5 176,-49.5 "/>
<text text-anchor="middle" x="88" y="-37.5" font-family="Helvetica,sans-Serif" font-size="10.00"> </text>
<polyline fill="none" stroke="black" points="0,-30.5 176,-30.5 "/>
<text text-anchor="start" x="8" y="-18.5" font-family="Helvetica,sans-Serif" font-size="10.00">+ JsonRequestExecutorHandler()</text>
<text text-anchor="start" x="8" y="-7.5" font-family="Helvetica,sans-Serif" font-size="10.00">+ Execute()</text>
</a>
</g>
</g>
<!-- Node1&#45;&gt;Node2 -->
<g id="edge1" class="edge">
<title>Node1&#45;&gt;Node2</title>
<path fill="none" stroke="midnightblue" d="M147.48,-98.02C138.21,-88.27 128.4,-77.96 119.49,-68.59"/>
<polygon fill="none" stroke="midnightblue" points="145.02,-100.51 154.45,-105.34 150.1,-95.69 145.02,-100.51"/>
</g>
<!-- Node3 -->
<g id="node3" class="node">
<title>Node3</title>
<g id="a_node3"><a xlink:href="classProtoRequestExecutorHandler.html" target="_top" xlink:title="Parses and executes Protobuf requests, invoking business logic and database operations.">
<polygon fill="white" stroke="black" points="194,-0.5 194,-68.5 376,-68.5 376,-0.5 194,-0.5"/>
<text text-anchor="middle" x="285" y="-56.5" font-family="Helvetica,sans-Serif" font-size="10.00">ProtoRequestExecutorHandler</text>
<polyline fill="none" stroke="black" points="194,-49.5 376,-49.5 "/>
<text text-anchor="middle" x="285" y="-37.5" font-family="Helvetica,sans-Serif" font-size="10.00"> </text>
<polyline fill="none" stroke="black" points="194,-30.5 376,-30.5 "/>
<text text-anchor="start" x="202" y="-18.5" font-family="Helvetica,sans-Serif" font-size="10.00">+ ProtoRequestExecutorHandler()</text>
<text text-anchor="start" x="202" y="-7.5" font-family="Helvetica,sans-Serif" font-size="10.00">+ Execute()</text>
</a>
</g>
</g>
<!-- Node1&#45;&gt;Node3 -->
<g id="edge2" class="edge">
<title>Node1&#45;&gt;Node3</title>
<path fill="none" stroke="midnightblue" d="M224.91,-98.02C234.28,-88.27 244.19,-77.96 253.19,-68.59"/>
<polygon fill="none" stroke="midnightblue" points="222.28,-95.71 217.87,-105.34 227.32,-100.56 222.28,-95.71"/>
</g>
</g>
</svg>
