<?xml version="1.0" encoding="UTF-8" standalone="no"?>
<!DOCTYPE svg PUBLIC "-//W3C//DTD SVG 1.1//EN"
 "http://www.w3.org/Graphics/SVG/1.1/DTD/svg11.dtd">
<!-- Generated by graphviz version 2.43.0 (0)
 -->
<!-- Title: IDatabaseHandler::GetJson Pages: 1 -->
<svg width="378pt" height="88pt"
 viewBox="0.00 0.00 378.00 88.00" xmlns="http://www.w3.org/2000/svg" xmlns:xlink="http://www.w3.org/1999/xlink">
<g id="graph0" class="graph" transform="scale(1 1) rotate(0) translate(4 84)">
<title>IDatabaseHandler::GetJson</title>
<polygon fill="white" stroke="transparent" points="-4,4 -4,-84 374,-84 374,4 -4,4"/>
<!-- Node1 -->
<g id="node1" class="node">
<title>Node1</title>
<g id="a_node1"><a xlink:title="Retrieves a JSON object from the database by key.">
<polygon fill="#bfbfbf" stroke="black" points="222,-30 222,-49 370,-49 370,-30 222,-30"/>
<text text-anchor="middle" x="296" y="-37" font-family="Helvetica,sans-Serif" font-size="10.00">IDatabaseHandler::GetJson</text>
</a>
</g>
</g>
<!-- Node2 -->
<g id="node2" class="node">
<title>Node2</title>
<g id="a_node2"><a xlink:href="classDockerCreateContainerCommand.html#a8967ee094698e00a212c67f71870de06" target="_top" xlink:title="Executes the command to create a Docker container.">
<polygon fill="white" stroke="black" points="3,-49.5 3,-79.5 183,-79.5 183,-49.5 3,-49.5"/>
<text text-anchor="start" x="11" y="-67.5" font-family="Helvetica,sans-Serif" font-size="10.00">DockerCreateContainerCommand</text>
<text text-anchor="middle" x="93" y="-56.5" font-family="Helvetica,sans-Serif" font-size="10.00">::Execute</text>
</a>
</g>
</g>
<!-- Node1&#45;&gt;Node2 -->
<g id="edge1" class="edge">
<title>Node1&#45;&gt;Node2</title>
<path fill="none" stroke="midnightblue" d="M211.73,-49.86C202.3,-51.03 192.67,-52.23 183.17,-53.41"/>
<polygon fill="midnightblue" stroke="midnightblue" points="212.37,-53.3 221.87,-48.6 211.51,-46.36 212.37,-53.3"/>
</g>
<!-- Node3 -->
<g id="node3" class="node">
<title>Node3</title>
<g id="a_node3"><a xlink:href="classPodmanCreateContainerCommand.html#aca31055904b1fb20736ed5807e215ae6" target="_top" xlink:title="Executes the command to create a Podman container.">
<polygon fill="white" stroke="black" points="0,-0.5 0,-30.5 186,-30.5 186,-0.5 0,-0.5"/>
<text text-anchor="start" x="8" y="-18.5" font-family="Helvetica,sans-Serif" font-size="10.00">PodmanCreateContainerCommand</text>
<text text-anchor="middle" x="93" y="-7.5" font-family="Helvetica,sans-Serif" font-size="10.00">::Execute</text>
</a>
</g>
</g>
<!-- Node1&#45;&gt;Node3 -->
<g id="edge2" class="edge">
<title>Node1&#45;&gt;Node3</title>
<path fill="none" stroke="midnightblue" d="M211.73,-29.56C203.33,-28.55 194.77,-27.53 186.29,-26.52"/>
<polygon fill="midnightblue" stroke="midnightblue" points="211.52,-33.06 221.87,-30.77 212.35,-26.11 211.52,-33.06"/>
</g>
</g>
</svg>
