<?xml version="1.0" encoding="UTF-8" standalone="no"?>
<!DOCTYPE svg PUBLIC "-//W3C//DTD SVG 1.1//EN"
 "http://www.w3.org/Graphics/SVG/1.1/DTD/svg11.dtd">
<!-- Generated by graphviz version 2.43.0 (0)
 -->
<!-- Title: DbusConsumer::Stop Pages: 1 -->
<svg width="342pt" height="66pt"
 viewBox="0.00 0.00 342.00 66.00" xmlns="http://www.w3.org/2000/svg" xmlns:xlink="http://www.w3.org/1999/xlink">
<g id="graph0" class="graph" transform="scale(1 1) rotate(0) translate(4 62)">
<title>DbusConsumer::Stop</title>
<polygon fill="white" stroke="transparent" points="-4,4 -4,-62 338,-62 338,4 -4,4"/>
<!-- Node1 -->
<g id="node1" class="node">
<title>Node1</title>
<g id="a_node1"><a xlink:title="Stop listening and join the background thread.">
<polygon fill="#bfbfbf" stroke="black" points="215,-19.5 215,-38.5 334,-38.5 334,-19.5 215,-19.5"/>
<text text-anchor="middle" x="274.5" y="-26.5" font-family="Helvetica,sans-Serif" font-size="10.00">DbusConsumer::Stop</text>
</a>
</g>
</g>
<!-- Node2 -->
<g id="node2" class="node">
<title>Node2</title>
<g id="a_node2"><a xlink:href="main_8cpp.html#ae66f6b31b5ad750f1fe042a706a4e3d4" target="_top" xlink:title="Main function for the Container Manager application.">
<polygon fill="white" stroke="black" points="69,-38.5 69,-57.5 110,-57.5 110,-38.5 69,-38.5"/>
<text text-anchor="middle" x="89.5" y="-45.5" font-family="Helvetica,sans-Serif" font-size="10.00">main</text>
</a>
</g>
</g>
<!-- Node1&#45;&gt;Node2 -->
<g id="edge1" class="edge">
<title>Node1&#45;&gt;Node2</title>
<path fill="none" stroke="midnightblue" d="M204.54,-36.16C170.84,-39.66 132.78,-43.61 110.26,-45.95"/>
<polygon fill="midnightblue" stroke="midnightblue" points="205.26,-39.6 214.84,-35.09 204.53,-32.64 205.26,-39.6"/>
</g>
<!-- Node3 -->
<g id="node3" class="node">
<title>Node3</title>
<g id="a_node3"><a xlink:href="classDbusConsumer.html#a74532170cbc078d04d6fe81527d2d6b6" target="_top" xlink:title="Destructor. Stops the consumer if running.">
<polygon fill="white" stroke="black" points="0,-0.5 0,-19.5 179,-19.5 179,-0.5 0,-0.5"/>
<text text-anchor="middle" x="89.5" y="-7.5" font-family="Helvetica,sans-Serif" font-size="10.00">DbusConsumer::~DbusConsumer</text>
</a>
</g>
</g>
<!-- Node1&#45;&gt;Node3 -->
<g id="edge2" class="edge">
<title>Node1&#45;&gt;Node3</title>
<path fill="none" stroke="midnightblue" d="M204.78,-21.87C196.41,-21 187.77,-20.1 179.16,-19.2"/>
<polygon fill="midnightblue" stroke="midnightblue" points="204.53,-25.36 214.84,-22.91 205.26,-18.4 204.53,-25.36"/>
</g>
</g>
</svg>
