<?xml version="1.0" encoding="UTF-8" standalone="no"?>
<!DOCTYPE svg PUBLIC "-//W3C//DTD SVG 1.1//EN"
 "http://www.w3.org/Graphics/SVG/1.1/DTD/svg11.dtd">
<!-- Generated by graphviz version 2.43.0 (0)
 -->
<!-- Title: ContainerServiceHandler::HandleRequest Pages: 1 -->
<!--zoomable 209 -->
<svg id="main" version="1.1" xmlns="http://www.w3.org/2000/svg" xmlns:xlink="http://www.w3.org/1999/xlink" xml:space="preserve" onload="init(evt)">
<style type="text/css"><![CDATA[
.edge:hover path { stroke: red; }
.edge:hover polygon { stroke: red; fill: red; }
]]></style>
<script type="text/javascript"><![CDATA[
var edges = document.getElementsByTagName('g');
if (edges && edges.length) {
  for (var i=0;i<edges.length;i++) {
    if (edges[i].id.substr(0,4)=='edge') {
      edges[i].setAttribute('class','edge');
    }
  }
}
]]></script>
        <defs>
                <circle id="rim" cx="0" cy="0" r="7"/>
                <circle id="rim2" cx="0" cy="0" r="3.5"/>
                <g id="zoomPlus">
                        <use xlink:href="#rim" fill="#404040">
                                <set attributeName="fill" to="#808080" begin="zoomplus.mouseover" end="zoomplus.mouseout"/>
                        </use>
                        <path d="M-4,0h8M0,-4v8" fill="none" stroke="white" stroke-width="1.5" pointer-events="none"/>
                </g>
                <g id="zoomMin">
                        <use xlink:href="#rim" fill="#404040">
                                <set attributeName="fill" to="#808080" begin="zoomminus.mouseover" end="zoomminus.mouseout"/>
                        </use>
                        <path d="M-4,0h8" fill="none" stroke="white" stroke-width="1.5" pointer-events="none"/>
                </g>
                <g id="dirArrow">
                        <path fill="none" stroke="white" stroke-width="1.5" d="M0,-3.0v7 M-2.5,-0.5L0,-3.0L2.5,-0.5"/>
                </g>
               <g id="resetDef">
                       <use xlink:href="#rim2" fill="#404040">
                               <set attributeName="fill" to="#808080" begin="reset.mouseover" end="reset.mouseout"/>
                       </use>
               </g>
        </defs>

<script type="text/javascript">
var viewWidth = 726;
var viewHeight = 209;
var sectionId = 'dynsection-3';
</script>
<script xlink:href="svgpan.js"/>
<svg id="graph" class="graph">
<g id="viewport">
<title>ContainerServiceHandler::HandleRequest</title>
<polygon fill="white" stroke="transparent" points="-4,4 -4,-204.5 722,-204.5 722,4 -4,4"/>
<!-- Node1 -->
<g id="node1" class="node">
<title>Node1</title>
<g id="a_node1"><a xlink:title="Handles a container request by dispatching to the appropriate operation.">
<polygon fill="#bfbfbf" stroke="black" points="0,-66.5 0,-96.5 138,-96.5 138,-66.5 0,-66.5"/>
<text text-anchor="start" x="8" y="-84.5" font-family="Helvetica,sans-Serif" font-size="10.00">ContainerServiceHandler</text>
<text text-anchor="middle" x="69" y="-73.5" font-family="Helvetica,sans-Serif" font-size="10.00">::HandleRequest</text>
</a>
</g>
</g>
<!-- Node2 -->
<g id="node2" class="node">
<title>Node2</title>
<g id="a_node2"><a xlink:href="classContainerServiceHandler.html#ae4a38bbbb711ab34dbd3fc50ea0814f7" target="_top" xlink:title="Performs the specified container operation using the request structure.">
<polygon fill="white" stroke="black" points="189.5,-137.5 189.5,-167.5 327.5,-167.5 327.5,-137.5 189.5,-137.5"/>
<text text-anchor="start" x="197.5" y="-155.5" font-family="Helvetica,sans-Serif" font-size="10.00">ContainerServiceHandler</text>
<text text-anchor="middle" x="258.5" y="-144.5" font-family="Helvetica,sans-Serif" font-size="10.00">::ContainerOperations</text>
</a>
</g>
</g>
<!-- Node1&#45;&gt;Node2 -->
<g id="edge1" class="edge">
<title>Node1&#45;&gt;Node2</title>
<path fill="none" stroke="midnightblue" d="M101.44,-96.64C121.85,-106.16 149.18,-118.34 174,-127.5 180.39,-129.86 187.12,-132.16 193.86,-134.35"/>
<polygon fill="midnightblue" stroke="midnightblue" points="193.13,-137.79 203.72,-137.48 195.24,-131.12 193.13,-137.79"/>
</g>
<!-- Node7 -->
<g id="node7" class="node">
<title>Node7</title>
<g id="a_node7"><a xlink:href="classRedisDatabaseHandler.html#a07c65b208d5997ec20ed239dca4081ce" target="_top" xlink:title="Retrieves the singleton instance of the RedisDatabaseHandler.">
<polygon fill="white" stroke="black" points="194.5,-88.5 194.5,-118.5 322.5,-118.5 322.5,-88.5 194.5,-88.5"/>
<text text-anchor="start" x="202.5" y="-106.5" font-family="Helvetica,sans-Serif" font-size="10.00">RedisDatabaseHandler</text>
<text text-anchor="middle" x="258.5" y="-95.5" font-family="Helvetica,sans-Serif" font-size="10.00">::GetInstance</text>
</a>
</g>
</g>
<!-- Node1&#45;&gt;Node7 -->
<g id="edge6" class="edge">
<title>Node1&#45;&gt;Node7</title>
<path fill="none" stroke="midnightblue" d="M138.22,-89.5C153.11,-91.25 168.93,-93.11 184.01,-94.88"/>
<polygon fill="midnightblue" stroke="midnightblue" points="183.98,-98.4 194.32,-96.09 184.79,-91.44 183.98,-98.4"/>
</g>
<!-- Node8 -->
<g id="node8" class="node">
<title>Node8</title>
<g id="a_node8"><a xlink:href="classIDatabaseHandler.html#a32aef1bd17b79529d93fadc2d72441e5" target="_top" xlink:title="Removes the JSON object associated with the specified key from the database.">
<polygon fill="white" stroke="black" points="174,-50 174,-69 343,-69 343,-50 174,-50"/>
<text text-anchor="middle" x="258.5" y="-57" font-family="Helvetica,sans-Serif" font-size="10.00">IDatabaseHandler::RemoveKey</text>
</a>
</g>
</g>
<!-- Node1&#45;&gt;Node8 -->
<g id="edge7" class="edge">
<title>Node1&#45;&gt;Node8</title>
<path fill="none" stroke="midnightblue" d="M138.22,-73.5C147.3,-72.43 156.71,-71.33 166.1,-70.22"/>
<polygon fill="midnightblue" stroke="midnightblue" points="166.73,-73.67 176.26,-69.03 165.92,-66.72 166.73,-73.67"/>
</g>
<!-- Node9 -->
<g id="node9" class="node">
<title>Node9</title>
<g id="a_node9"><a xlink:href="classIDatabaseHandler.html#a10972030d1577974e9f86820e251c7d6" target="_top" xlink:title="Updates a specific field in the JSON object stored under the given key.">
<polygon fill="white" stroke="black" points="185.5,-0.5 185.5,-30.5 331.5,-30.5 331.5,-0.5 185.5,-0.5"/>
<text text-anchor="start" x="193.5" y="-18.5" font-family="Helvetica,sans-Serif" font-size="10.00">IDatabaseHandler::Update</text>
<text text-anchor="middle" x="258.5" y="-7.5" font-family="Helvetica,sans-Serif" font-size="10.00">Field</text>
</a>
</g>
</g>
<!-- Node1&#45;&gt;Node9 -->
<g id="edge8" class="edge">
<title>Node1&#45;&gt;Node9</title>
<path fill="none" stroke="midnightblue" d="M106.3,-66.32C126.15,-58.24 151.26,-48.37 174,-40.5 180.78,-38.15 187.92,-35.82 195.05,-33.57"/>
<polygon fill="midnightblue" stroke="midnightblue" points="196.21,-36.87 204.72,-30.56 194.13,-30.19 196.21,-36.87"/>
</g>
<!-- Node3 -->
<g id="node3" class="node">
<title>Node3</title>
<g id="a_node3"><a xlink:href="classCommandFactory.html#adf4da2f0dbcf9e4018f9afe8bd4a38e9" target="_top" xlink:title="Factory method to create a command based on the container request structure.">
<polygon fill="white" stroke="black" points="379,-181 379,-200 570,-200 570,-181 379,-181"/>
<text text-anchor="middle" x="474.5" y="-188" font-family="Helvetica,sans-Serif" font-size="10.00">CommandFactory::CreateCommand</text>
</a>
</g>
</g>
<!-- Node2&#45;&gt;Node3 -->
<g id="edge2" class="edge">
<title>Node2&#45;&gt;Node3</title>
<path fill="none" stroke="midnightblue" d="M327.5,-164.58C353.87,-169.26 383.89,-174.59 409.83,-179.19"/>
<polygon fill="midnightblue" stroke="midnightblue" points="409.46,-182.68 419.92,-180.99 410.69,-175.79 409.46,-182.68"/>
</g>
<!-- Node4 -->
<g id="node4" class="node">
<title>Node4</title>
<g id="a_node4"><a xlink:href="classInvoker.html#a1459c66263ad54b3568e6b3d33d9256f" target="_top" xlink:title="Execute the command.">
<polygon fill="white" stroke="black" points="429,-143 429,-162 520,-162 520,-143 429,-143"/>
<text text-anchor="middle" x="474.5" y="-150" font-family="Helvetica,sans-Serif" font-size="10.00">Invoker::Invoke</text>
</a>
</g>
</g>
<!-- Node2&#45;&gt;Node4 -->
<g id="edge3" class="edge">
<title>Node2&#45;&gt;Node4</title>
<path fill="none" stroke="midnightblue" d="M327.5,-152.5C356.91,-152.5 390.88,-152.5 418.64,-152.5"/>
<polygon fill="midnightblue" stroke="midnightblue" points="418.96,-156 428.96,-152.5 418.96,-149 418.96,-156"/>
</g>
<!-- Node6 -->
<g id="node6" class="node">
<title>Node6</title>
<g id="a_node6"><a xlink:href="classInvoker.html#ae9f10a2487afd153bf0da69ae410a0e9" target="_top" xlink:title="Set the command to be executed.">
<polygon fill="white" stroke="black" points="412,-105 412,-124 537,-124 537,-105 412,-105"/>
<text text-anchor="middle" x="474.5" y="-112" font-family="Helvetica,sans-Serif" font-size="10.00">Invoker::SetCommand</text>
</a>
</g>
</g>
<!-- Node2&#45;&gt;Node6 -->
<g id="edge5" class="edge">
<title>Node2&#45;&gt;Node6</title>
<path fill="none" stroke="midnightblue" d="M327.5,-140.42C353.87,-135.74 383.89,-130.41 409.83,-125.81"/>
<polygon fill="midnightblue" stroke="midnightblue" points="410.69,-129.21 419.92,-124.01 409.46,-122.32 410.69,-129.21"/>
</g>
<!-- Node5 -->
<g id="node5" class="node">
<title>Node5</title>
<g id="a_node5"><a xlink:href="classCommand.html#ab04996232fade41af481e1a94c15f5e5" target="_top" xlink:title="Execute the command.">
<polygon fill="white" stroke="black" points="606,-143 606,-162 718,-162 718,-143 606,-143"/>
<text text-anchor="middle" x="662" y="-150" font-family="Helvetica,sans-Serif" font-size="10.00">Command::Execute</text>
</a>
</g>
</g>
<!-- Node4&#45;&gt;Node5 -->
<g id="edge4" class="edge">
<title>Node4&#45;&gt;Node5</title>
<path fill="none" stroke="midnightblue" d="M520.4,-152.5C543.02,-152.5 570.87,-152.5 595.79,-152.5"/>
<polygon fill="midnightblue" stroke="midnightblue" points="595.91,-156 605.91,-152.5 595.91,-149 595.91,-156"/>
</g>
</g>
</svg>
        <g id="navigator" transform="translate(0 0)" fill="#404254">
                <rect fill="#f2f5e9" fill-opacity="0.5" stroke="#606060" stroke-width=".5" x="0" y="0" width="60" height="60"/>
                <use id="zoomplus" xlink:href="#zoomPlus" x="17" y="9" onmousedown="handleZoom(evt,'in')"/>
                <use id="zoomminus" xlink:href="#zoomMin" x="42" y="9" onmousedown="handleZoom(evt,'out')"/>
                <use id="reset" xlink:href="#resetDef" x="30" y="36" onmousedown="handleReset()"/>
                <g id="arrowUp" xlink:href="#dirArrow" transform="translate(30 24)" onmousedown="handlePan(0,-1)">
                  <use xlink:href="#rim" fill="#404040">
                        <set attributeName="fill" to="#808080" begin="arrowUp.mouseover" end="arrowUp.mouseout"/>
                  </use>
                  <path fill="none" stroke="white" stroke-width="1.5" d="M0,-3.0v7 M-2.5,-0.5L0,-3.0L2.5,-0.5"/>
                </g>
                <g id="arrowRight" xlink:href="#dirArrow" transform="rotate(90) translate(36 -43)" onmousedown="handlePan(1,0)">
                  <use xlink:href="#rim" fill="#404040">
                        <set attributeName="fill" to="#808080" begin="arrowRight.mouseover" end="arrowRight.mouseout"/>
                  </use>
                  <path fill="none" stroke="white" stroke-width="1.5" d="M0,-3.0v7 M-2.5,-0.5L0,-3.0L2.5,-0.5"/>
                </g>
                <g id="arrowDown" xlink:href="#dirArrow" transform="rotate(180) translate(-30 -48)" onmousedown="handlePan(0,1)">
                  <use xlink:href="#rim" fill="#404040">
                        <set attributeName="fill" to="#808080" begin="arrowDown.mouseover" end="arrowDown.mouseout"/>
                  </use>
                  <path fill="none" stroke="white" stroke-width="1.5" d="M0,-3.0v7 M-2.5,-0.5L0,-3.0L2.5,-0.5"/>
                </g>
                <g id="arrowLeft" xlink:href="#dirArrow" transform="rotate(270) translate(-36 17)" onmousedown="handlePan(-1,0)">
                  <use xlink:href="#rim" fill="#404040">
                        <set attributeName="fill" to="#808080" begin="arrowLeft.mouseover" end="arrowLeft.mouseout"/>
                  </use>
                  <path fill="none" stroke="white" stroke-width="1.5" d="M0,-3.0v7 M-2.5,-0.5L0,-3.0L2.5,-0.5"/>
                </g>
        </g>
        <svg viewBox="0 0 15 15" width="100%" height="30px" preserveAspectRatio="xMaxYMin meet">
         <g id="arrow_out" transform="scale(0.3 0.3)">
          <a xlink:href="classContainerServiceHandler_a16f0650a9d5719fc441541a2adc5f29a_cgraph_org.svg" target="_base">
           <rect id="button" ry="5" rx="5" y="6" x="6" height="38" width="38"
                fill="#f2f5e9" fill-opacity="0.5" stroke="#606060" stroke-width="1.0"/>
           <path id="arrow"
             d="M 11.500037,31.436501 C 11.940474,20.09759 22.043105,11.32322 32.158766,21.979434 L 37.068811,17.246167 C 37.068811,17.246167 37.088388,32 37.088388,32 L 22.160133,31.978069 C 22.160133,31.978069 26.997745,27.140456 26.997745,27.140456 C 18.528582,18.264221 13.291696,25.230495 11.500037,31.436501 z"
             style="fill:#404040;"/>
          </a>
         </g>
        </svg>
</svg>
