<?xml version="1.0" encoding="UTF-8" standalone="no"?>
<!DOCTYPE svg PUBLIC "-//W3C//DTD SVG 1.1//EN"
 "http://www.w3.org/Graphics/SVG/1.1/DTD/svg11.dtd">
<!-- Generated by graphviz version 2.43.0 (0)
 -->
<!-- Title: containermanager::ContainerParameters::container_name Pages: 1 -->
<svg width="366pt" height="100pt"
 viewBox="0.00 0.00 366.00 99.50" xmlns="http://www.w3.org/2000/svg" xmlns:xlink="http://www.w3.org/1999/xlink">
<g id="graph0" class="graph" transform="scale(1 1) rotate(0) translate(4 95.5)">
<title>containermanager::ContainerParameters::container_name</title>
<polygon fill="white" stroke="transparent" points="-4,4 -4,-95.5 362,-95.5 362,4 -4,4"/>
<!-- Node1 -->
<g id="node1" class="node">
<title>Node1</title>
<g id="a_node1"><a xlink:title=" ">
<polygon fill="#bfbfbf" stroke="black" points="199,-33 199,-63 358,-63 358,-33 199,-33"/>
<text text-anchor="start" x="207" y="-51" font-family="Helvetica,sans-Serif" font-size="10.00">containermanager::Container</text>
<text text-anchor="middle" x="278.5" y="-40" font-family="Helvetica,sans-Serif" font-size="10.00">Parameters::container_name</text>
</a>
</g>
</g>
<!-- Node2 -->
<g id="node2" class="node">
<title>Node2</title>
<g id="a_node2"><a xlink:href="classProtoRequestExecutorHandler.html#a7255c2daf8946f8c73b0327cd4ad9156" target="_top" xlink:title="Executes a request and returns a JSON response.">
<polygon fill="white" stroke="black" points="0,-61 0,-91 163,-91 163,-61 0,-61"/>
<text text-anchor="start" x="8" y="-79" font-family="Helvetica,sans-Serif" font-size="10.00">ProtoRequestExecutorHandler</text>
<text text-anchor="middle" x="81.5" y="-68" font-family="Helvetica,sans-Serif" font-size="10.00">::Execute</text>
</a>
</g>
</g>
<!-- Node1&#45;&gt;Node2 -->
<g id="edge1" class="edge">
<title>Node1&#45;&gt;Node2</title>
<path fill="none" stroke="midnightblue" d="M188.77,-60.74C180.23,-61.97 171.6,-63.21 163.13,-64.42"/>
<polygon fill="midnightblue" stroke="midnightblue" points="189.35,-64.19 198.75,-59.31 188.35,-57.26 189.35,-64.19"/>
</g>
<!-- Node3 -->
<g id="node3" class="node">
<title>Node3</title>
<g id="a_node3"><a xlink:href="classcontainermanager_1_1ContainerParameters.html#a98e35a56b192f23fb33e1c5f0b67308b" target="_top" xlink:title=" ">
<polygon fill="white" stroke="black" points="2,-0.5 2,-41.5 161,-41.5 161,-0.5 2,-0.5"/>
<text text-anchor="start" x="10" y="-29.5" font-family="Helvetica,sans-Serif" font-size="10.00">containermanager::Container</text>
<text text-anchor="start" x="10" y="-18.5" font-family="Helvetica,sans-Serif" font-size="10.00">Parameters::set_allocated</text>
<text text-anchor="middle" x="81.5" y="-7.5" font-family="Helvetica,sans-Serif" font-size="10.00">_container_name</text>
</a>
</g>
</g>
<!-- Node1&#45;&gt;Node3 -->
<g id="edge2" class="edge">
<title>Node1&#45;&gt;Node3</title>
<path fill="none" stroke="midnightblue" d="M188.82,-35.72C179.62,-34.45 170.31,-33.16 161.23,-31.9"/>
<polygon fill="midnightblue" stroke="midnightblue" points="188.36,-39.19 198.75,-37.1 189.32,-32.26 188.36,-39.19"/>
</g>
</g>
</svg>
