<?xml version="1.0" encoding="UTF-8" standalone="no"?>
<!DOCTYPE svg PUBLIC "-//W3C//DTD SVG 1.1//EN"
 "http://www.w3.org/Graphics/SVG/1.1/DTD/svg11.dtd">
<!-- Generated by graphviz version 2.43.0 (0)
 -->
<!-- Title: JsonRequestExecutorHandler::Execute Pages: 1 -->
<svg width="937pt" height="198pt"
 viewBox="0.00 0.00 937.00 197.50" xmlns="http://www.w3.org/2000/svg" xmlns:xlink="http://www.w3.org/1999/xlink">
<g id="graph0" class="graph" transform="scale(1 1) rotate(0) translate(4 193.5)">
<title>JsonRequestExecutorHandler::Execute</title>
<polygon fill="white" stroke="transparent" points="-4,4 -4,-193.5 933,-193.5 933,4 -4,4"/>
<!-- Node1 -->
<g id="node1" class="node">
<title>Node1</title>
<g id="a_node1"><a xlink:title="Executes a request represented as a JSON string.">
<polygon fill="#bfbfbf" stroke="black" points="0,-63.5 0,-93.5 158,-93.5 158,-63.5 0,-63.5"/>
<text text-anchor="start" x="8" y="-81.5" font-family="Helvetica,sans-Serif" font-size="10.00">JsonRequestExecutorHandler</text>
<text text-anchor="middle" x="79" y="-70.5" font-family="Helvetica,sans-Serif" font-size="10.00">::Execute</text>
</a>
</g>
</g>
<!-- Node2 -->
<g id="node2" class="node">
<title>Node2</title>
<g id="a_node2"><a xlink:href="structStatus.html#ace3b560f6a5f4a2d62a02b6e03700538" target="_top" xlink:title="Returns an error Status with the given code and message.">
<polygon fill="white" stroke="black" points="233,-113 233,-132 310,-132 310,-113 233,-113"/>
<text text-anchor="middle" x="271.5" y="-120" font-family="Helvetica,sans-Serif" font-size="10.00">Status::Error</text>
</a>
</g>
</g>
<!-- Node1&#45;&gt;Node2 -->
<g id="edge1" class="edge">
<title>Node1&#45;&gt;Node2</title>
<path fill="none" stroke="midnightblue" d="M145.03,-93.52C170.68,-99.44 199.6,-106.12 223.2,-111.57"/>
<polygon fill="midnightblue" stroke="midnightblue" points="222.43,-114.99 232.96,-113.83 224.01,-108.17 222.43,-114.99"/>
</g>
<!-- Node3 -->
<g id="node3" class="node">
<title>Node3</title>
<g id="a_node3"><a xlink:href="classContainerServiceHandler.html#a16f0650a9d5719fc441541a2adc5f29a" target="_top" xlink:title="Handles a container request by dispatching to the appropriate operation. Updates the container status...">
<polygon fill="white" stroke="black" points="202.5,-63.5 202.5,-93.5 340.5,-93.5 340.5,-63.5 202.5,-63.5"/>
<text text-anchor="start" x="210.5" y="-81.5" font-family="Helvetica,sans-Serif" font-size="10.00">ContainerServiceHandler</text>
<text text-anchor="middle" x="271.5" y="-70.5" font-family="Helvetica,sans-Serif" font-size="10.00">::HandleRequest</text>
</a>
</g>
</g>
<!-- Node1&#45;&gt;Node3 -->
<g id="edge2" class="edge">
<title>Node1&#45;&gt;Node3</title>
<path fill="none" stroke="midnightblue" d="M158.03,-78.5C169.28,-78.5 180.86,-78.5 192.12,-78.5"/>
<polygon fill="midnightblue" stroke="midnightblue" points="192.35,-82 202.35,-78.5 192.35,-75 192.35,-82"/>
</g>
<!-- Node12 -->
<g id="node12" class="node">
<title>Node12</title>
<g id="a_node12"><a xlink:href="classIDatabaseHandler.html#ae77b65ff51207a07704ae8efebac2125" target="_top" xlink:title="Saves a JSON object to the database with the specified key.">
<polygon fill="white" stroke="black" points="194,-25 194,-44 349,-44 349,-25 194,-25"/>
<text text-anchor="middle" x="271.5" y="-32" font-family="Helvetica,sans-Serif" font-size="10.00">IDatabaseHandler::SaveJson</text>
</a>
</g>
</g>
<!-- Node1&#45;&gt;Node12 -->
<g id="edge11" class="edge">
<title>Node1&#45;&gt;Node12</title>
<path fill="none" stroke="midnightblue" d="M145.03,-63.48C169.34,-57.86 196.59,-51.57 219.47,-46.29"/>
<polygon fill="midnightblue" stroke="midnightblue" points="220.36,-49.67 229.32,-44.01 218.78,-42.85 220.36,-49.67"/>
</g>
<!-- Node4 -->
<g id="node4" class="node">
<title>Node4</title>
<g id="a_node4"><a xlink:href="classContainerServiceHandler.html#a9c527464b3d91168a747a33361994000" target="_top" xlink:title="Performs the specified container operation using the request structure. Invokes the appropriate comma...">
<polygon fill="white" stroke="black" points="400.5,-126.5 400.5,-156.5 538.5,-156.5 538.5,-126.5 400.5,-126.5"/>
<text text-anchor="start" x="408.5" y="-144.5" font-family="Helvetica,sans-Serif" font-size="10.00">ContainerServiceHandler</text>
<text text-anchor="middle" x="469.5" y="-133.5" font-family="Helvetica,sans-Serif" font-size="10.00">::ContainerOperations</text>
</a>
</g>
</g>
<!-- Node3&#45;&gt;Node4 -->
<g id="edge3" class="edge">
<title>Node3&#45;&gt;Node4</title>
<path fill="none" stroke="midnightblue" d="M319.51,-93.61C329.27,-96.82 339.49,-100.23 349,-103.5 365.09,-109.03 368.85,-111.17 385,-116.5 392.09,-118.84 399.56,-121.21 406.98,-123.51"/>
<polygon fill="midnightblue" stroke="midnightblue" points="406.1,-126.9 416.69,-126.48 408.15,-120.2 406.1,-126.9"/>
</g>
<!-- Node9 -->
<g id="node9" class="node">
<title>Node9</title>
<g id="a_node9"><a xlink:href="structStatus.html#a19a4e02345758bf3685dcb14a9678de1" target="_top" xlink:title="Checks if the status represents success.">
<polygon fill="white" stroke="black" points="437,-88 437,-107 502,-107 502,-88 437,-88"/>
<text text-anchor="middle" x="469.5" y="-95" font-family="Helvetica,sans-Serif" font-size="10.00">Status::ok</text>
</a>
</g>
</g>
<!-- Node3&#45;&gt;Node9 -->
<g id="edge8" class="edge">
<title>Node3&#45;&gt;Node9</title>
<path fill="none" stroke="midnightblue" d="M340.5,-85.09C369.14,-87.87 401.56,-91.01 426.6,-93.44"/>
<polygon fill="midnightblue" stroke="midnightblue" points="426.56,-96.95 436.85,-94.43 427.24,-89.98 426.56,-96.95"/>
</g>
<!-- Node10 -->
<g id="node10" class="node">
<title>Node10</title>
<g id="a_node10"><a xlink:href="classIDatabaseHandler.html#a32aef1bd17b79529d93fadc2d72441e5" target="_top" xlink:title="Removes the JSON object associated with the specified key from the database.">
<polygon fill="white" stroke="black" points="385,-50 385,-69 554,-69 554,-50 385,-50"/>
<text text-anchor="middle" x="469.5" y="-57" font-family="Helvetica,sans-Serif" font-size="10.00">IDatabaseHandler::RemoveKey</text>
</a>
</g>
</g>
<!-- Node3&#45;&gt;Node10 -->
<g id="edge9" class="edge">
<title>Node3&#45;&gt;Node10</title>
<path fill="none" stroke="midnightblue" d="M340.5,-71.91C351.53,-70.84 363.13,-69.71 374.64,-68.6"/>
<polygon fill="midnightblue" stroke="midnightblue" points="375.11,-72.07 384.73,-67.62 374.44,-65.1 375.11,-72.07"/>
</g>
<!-- Node11 -->
<g id="node11" class="node">
<title>Node11</title>
<g id="a_node11"><a xlink:href="classIDatabaseHandler.html#a10972030d1577974e9f86820e251c7d6" target="_top" xlink:title="Updates a specific field in the JSON object stored under the given key.">
<polygon fill="white" stroke="black" points="396.5,-0.5 396.5,-30.5 542.5,-30.5 542.5,-0.5 396.5,-0.5"/>
<text text-anchor="start" x="404.5" y="-18.5" font-family="Helvetica,sans-Serif" font-size="10.00">IDatabaseHandler::Update</text>
<text text-anchor="middle" x="469.5" y="-7.5" font-family="Helvetica,sans-Serif" font-size="10.00">Field</text>
</a>
</g>
</g>
<!-- Node3&#45;&gt;Node11 -->
<g id="edge10" class="edge">
<title>Node3&#45;&gt;Node11</title>
<path fill="none" stroke="midnightblue" d="M319.51,-63.39C329.27,-60.18 339.49,-56.77 349,-53.5 365.09,-47.97 368.85,-45.83 385,-40.5 392.09,-38.16 399.56,-35.79 406.98,-33.49"/>
<polygon fill="midnightblue" stroke="midnightblue" points="408.15,-36.8 416.69,-30.52 406.1,-30.1 408.15,-36.8"/>
</g>
<!-- Node5 -->
<g id="node5" class="node">
<title>Node5</title>
<g id="a_node5"><a xlink:href="classCommandFactory.html#adf4da2f0dbcf9e4018f9afe8bd4a38e9" target="_top" xlink:title="Factory method to create a command based on the container request structure.">
<polygon fill="white" stroke="black" points="590,-170 590,-189 781,-189 781,-170 590,-170"/>
<text text-anchor="middle" x="685.5" y="-177" font-family="Helvetica,sans-Serif" font-size="10.00">CommandFactory::CreateCommand</text>
</a>
</g>
</g>
<!-- Node4&#45;&gt;Node5 -->
<g id="edge4" class="edge">
<title>Node4&#45;&gt;Node5</title>
<path fill="none" stroke="midnightblue" d="M538.5,-153.58C564.87,-158.26 594.89,-163.59 620.83,-168.19"/>
<polygon fill="midnightblue" stroke="midnightblue" points="620.46,-171.68 630.92,-169.99 621.69,-164.79 620.46,-171.68"/>
</g>
<!-- Node6 -->
<g id="node6" class="node">
<title>Node6</title>
<g id="a_node6"><a xlink:href="classInvoker.html#ac01c8216ff7b95532f2970a49198d840" target="_top" xlink:title="Execute the command.">
<polygon fill="white" stroke="black" points="640,-132 640,-151 731,-151 731,-132 640,-132"/>
<text text-anchor="middle" x="685.5" y="-139" font-family="Helvetica,sans-Serif" font-size="10.00">Invoker::Invoke</text>
</a>
</g>
</g>
<!-- Node4&#45;&gt;Node6 -->
<g id="edge5" class="edge">
<title>Node4&#45;&gt;Node6</title>
<path fill="none" stroke="midnightblue" d="M538.5,-141.5C567.91,-141.5 601.88,-141.5 629.64,-141.5"/>
<polygon fill="midnightblue" stroke="midnightblue" points="629.96,-145 639.96,-141.5 629.96,-138 629.96,-145"/>
</g>
<!-- Node8 -->
<g id="node8" class="node">
<title>Node8</title>
<g id="a_node8"><a xlink:href="classInvoker.html#ae9f10a2487afd153bf0da69ae410a0e9" target="_top" xlink:title="Set the command to be executed.">
<polygon fill="white" stroke="black" points="623,-94 623,-113 748,-113 748,-94 623,-94"/>
<text text-anchor="middle" x="685.5" y="-101" font-family="Helvetica,sans-Serif" font-size="10.00">Invoker::SetCommand</text>
</a>
</g>
</g>
<!-- Node4&#45;&gt;Node8 -->
<g id="edge7" class="edge">
<title>Node4&#45;&gt;Node8</title>
<path fill="none" stroke="midnightblue" d="M538.5,-129.42C564.87,-124.74 594.89,-119.41 620.83,-114.81"/>
<polygon fill="midnightblue" stroke="midnightblue" points="621.69,-118.21 630.92,-113.01 620.46,-111.32 621.69,-118.21"/>
</g>
<!-- Node7 -->
<g id="node7" class="node">
<title>Node7</title>
<g id="a_node7"><a xlink:href="classCommand.html#a8d6fcd1baa8fd96ce9b423b66765ab4a" target="_top" xlink:title="Execute the command.">
<polygon fill="white" stroke="black" points="817,-132 817,-151 929,-151 929,-132 817,-132"/>
<text text-anchor="middle" x="873" y="-139" font-family="Helvetica,sans-Serif" font-size="10.00">Command::Execute</text>
</a>
</g>
</g>
<!-- Node6&#45;&gt;Node7 -->
<g id="edge6" class="edge">
<title>Node6&#45;&gt;Node7</title>
<path fill="none" stroke="midnightblue" d="M731.4,-141.5C754.02,-141.5 781.87,-141.5 806.79,-141.5"/>
<polygon fill="midnightblue" stroke="midnightblue" points="806.91,-145 816.91,-141.5 806.91,-138 806.91,-145"/>
</g>
</g>
</svg>
