<?xml version="1.0" encoding="UTF-8" standalone="no"?>
<!DOCTYPE svg PUBLIC "-//W3C//DTD SVG 1.1//EN"
 "http://www.w3.org/Graphics/SVG/1.1/DTD/svg11.dtd">
<!-- Generated by graphviz version 2.43.0 (0)
 -->
<!-- Title: PodmanApiStartContainerCommand::Execute Pages: 1 -->
<svg width="405pt" height="142pt"
 viewBox="0.00 0.00 405.00 142.00" xmlns="http://www.w3.org/2000/svg" xmlns:xlink="http://www.w3.org/1999/xlink">
<g id="graph0" class="graph" transform="scale(1 1) rotate(0) translate(4 138)">
<title>PodmanApiStartContainerCommand::Execute</title>
<polygon fill="white" stroke="transparent" points="-4,4 -4,-138 401,-138 401,4 -4,4"/>
<!-- Node1 -->
<g id="node1" class="node">
<title>Node1</title>
<g id="a_node1"><a xlink:title="Executes the command to start a Podman container via the API.">
<polygon fill="#bfbfbf" stroke="black" points="0,-52 0,-82 193,-82 193,-52 0,-52"/>
<text text-anchor="start" x="8" y="-70" font-family="Helvetica,sans-Serif" font-size="10.00">PodmanApiStartContainerCommand</text>
<text text-anchor="middle" x="96.5" y="-59" font-family="Helvetica,sans-Serif" font-size="10.00">::Execute</text>
</a>
</g>
</g>
<!-- Node2 -->
<g id="node2" class="node">
<title>Node2</title>
<g id="a_node2"><a xlink:href="common_8hpp.html#a6ef961c11398422cd4dd9b4f66a57d03" target="_top" xlink:title="Compose a container API endpoint for Docker or Podman API.">
<polygon fill="white" stroke="black" points="229,-114.5 229,-133.5 397,-133.5 397,-114.5 229,-114.5"/>
<text text-anchor="middle" x="313" y="-121.5" font-family="Helvetica,sans-Serif" font-size="10.00">ComposeContainerApiEndpoint</text>
</a>
</g>
</g>
<!-- Node1&#45;&gt;Node2 -->
<g id="edge1" class="edge">
<title>Node1&#45;&gt;Node2</title>
<path fill="none" stroke="midnightblue" d="M146.96,-82.01C171.54,-89.28 201.74,-97.95 229,-105 238.45,-107.45 248.55,-109.89 258.34,-112.18"/>
<polygon fill="midnightblue" stroke="midnightblue" points="257.85,-115.66 268.38,-114.5 259.42,-108.84 257.85,-115.66"/>
</g>
<!-- Node3 -->
<g id="node3" class="node">
<title>Node3</title>
<g id="a_node3"><a xlink:href="structStatus.html#ace3b560f6a5f4a2d62a02b6e03700538" target="_top" xlink:title="Returns an error Status with the given code and message.">
<polygon fill="white" stroke="black" points="274.5,-76.5 274.5,-95.5 351.5,-95.5 351.5,-76.5 274.5,-76.5"/>
<text text-anchor="middle" x="313" y="-83.5" font-family="Helvetica,sans-Serif" font-size="10.00">Status::Error</text>
</a>
</g>
</g>
<!-- Node1&#45;&gt;Node3 -->
<g id="edge2" class="edge">
<title>Node1&#45;&gt;Node3</title>
<path fill="none" stroke="midnightblue" d="M193.14,-75.47C217.71,-77.65 243.09,-79.9 264.06,-81.75"/>
<polygon fill="midnightblue" stroke="midnightblue" points="264.02,-85.26 274.29,-82.66 264.63,-78.29 264.02,-85.26"/>
</g>
<!-- Node4 -->
<g id="node4" class="node">
<title>Node4</title>
<g id="a_node4"><a xlink:href="structStatus.html#ab516c5b687e7e334a1865fe28fd39122" target="_top" xlink:title="Returns a success Status.">
<polygon fill="white" stroke="black" points="279.5,-38.5 279.5,-57.5 346.5,-57.5 346.5,-38.5 279.5,-38.5"/>
<text text-anchor="middle" x="313" y="-45.5" font-family="Helvetica,sans-Serif" font-size="10.00">Status::Ok</text>
</a>
</g>
</g>
<!-- Node1&#45;&gt;Node4 -->
<g id="edge3" class="edge">
<title>Node1&#45;&gt;Node4</title>
<path fill="none" stroke="midnightblue" d="M193.14,-58.53C219.74,-56.17 247.3,-53.73 269.17,-51.79"/>
<polygon fill="midnightblue" stroke="midnightblue" points="269.77,-55.25 279.43,-50.89 269.16,-48.28 269.77,-55.25"/>
</g>
<!-- Node5 -->
<g id="node5" class="node">
<title>Node5</title>
<g id="a_node5"><a xlink:href="classCurlHandler.html#a35359e5d7f3412aef304d81dbe02a7bc" target="_top" xlink:title="Perform a HTTP POST request over a Unix domain socket.">
<polygon fill="white" stroke="black" points="251,-0.5 251,-19.5 375,-19.5 375,-0.5 251,-0.5"/>
<text text-anchor="middle" x="313" y="-7.5" font-family="Helvetica,sans-Serif" font-size="10.00">CurlHandler::PostUnix</text>
</a>
</g>
</g>
<!-- Node1&#45;&gt;Node5 -->
<g id="edge4" class="edge">
<title>Node1&#45;&gt;Node5</title>
<path fill="none" stroke="midnightblue" d="M146.96,-51.99C171.54,-44.72 201.74,-36.05 229,-29 238.45,-26.55 248.55,-24.11 258.34,-21.82"/>
<polygon fill="midnightblue" stroke="midnightblue" points="259.42,-25.16 268.38,-19.5 257.85,-18.34 259.42,-25.16"/>
</g>
</g>
</svg>
