<?xml version="1.0" encoding="UTF-8" standalone="no"?>
<!DOCTYPE svg PUBLIC "-//W3C//DTD SVG 1.1//EN"
 "http://www.w3.org/Graphics/SVG/1.1/DTD/svg11.dtd">
<!-- Generated by graphviz version 2.43.0 (0)
 -->
<!-- Title: containermanager::ContainerParameters::SerializeWithCachedSizes Pages: 1 -->
<svg width="408pt" height="284pt"
 viewBox="0.00 0.00 408.00 284.00" xmlns="http://www.w3.org/2000/svg" xmlns:xlink="http://www.w3.org/1999/xlink">
<g id="graph0" class="graph" transform="scale(1 1) rotate(0) translate(4 280)">
<title>containermanager::ContainerParameters::SerializeWithCachedSizes</title>
<polygon fill="white" stroke="transparent" points="-4,4 -4,-280 404,-280 404,4 -4,4"/>
<!-- Node1 -->
<g id="node1" class="node">
<title>Node1</title>
<g id="a_node1"><a xlink:title=" ">
<polygon fill="#bfbfbf" stroke="black" points="0,-122.5 0,-152.5 205,-152.5 205,-122.5 0,-122.5"/>
<text text-anchor="start" x="8" y="-140.5" font-family="Helvetica,sans-Serif" font-size="10.00">containermanager::Container</text>
<text text-anchor="middle" x="102.5" y="-129.5" font-family="Helvetica,sans-Serif" font-size="10.00">Parameters::SerializeWithCachedSizes</text>
</a>
</g>
</g>
<!-- Node2 -->
<g id="node2" class="node">
<title>Node2</title>
<g id="a_node2"><a xlink:href="classcontainermanager_1_1ContainerParameters.html#a1fa02ce02859ee70a41e1b4fe203e412" target="_top" xlink:title=" ">
<polygon fill="white" stroke="black" points="241,-245.5 241,-275.5 400,-275.5 400,-245.5 241,-245.5"/>
<text text-anchor="start" x="249" y="-263.5" font-family="Helvetica,sans-Serif" font-size="10.00">containermanager::Container</text>
<text text-anchor="middle" x="320.5" y="-252.5" font-family="Helvetica,sans-Serif" font-size="10.00">Parameters::container_name</text>
</a>
</g>
</g>
<!-- Node1&#45;&gt;Node2 -->
<g id="edge1" class="edge">
<title>Node1&#45;&gt;Node2</title>
<path fill="none" stroke="midnightblue" d="M120.53,-152.63C145.4,-174.03 193.83,-213.11 241,-236.5 244.81,-238.39 248.79,-240.16 252.86,-241.82"/>
<polygon fill="midnightblue" stroke="midnightblue" points="251.88,-245.19 262.47,-245.49 254.37,-238.65 251.88,-245.19"/>
</g>
<!-- Node3 -->
<g id="node3" class="node">
<title>Node3</title>
<g id="a_node3"><a xlink:href="classcontainermanager_1_1ContainerParameters.html#af839132551bd6af4c89eb23d3eb1f34c" target="_top" xlink:title=" ">
<polygon fill="white" stroke="black" points="241,-196.5 241,-226.5 400,-226.5 400,-196.5 241,-196.5"/>
<text text-anchor="start" x="249" y="-214.5" font-family="Helvetica,sans-Serif" font-size="10.00">containermanager::Container</text>
<text text-anchor="middle" x="320.5" y="-203.5" font-family="Helvetica,sans-Serif" font-size="10.00">Parameters::cpus</text>
</a>
</g>
</g>
<!-- Node1&#45;&gt;Node3 -->
<g id="edge2" class="edge">
<title>Node1&#45;&gt;Node3</title>
<path fill="none" stroke="midnightblue" d="M143.32,-152.6C170.67,-162.82 207.88,-176.42 241,-187.5 246.85,-189.46 252.97,-191.44 259.1,-193.38"/>
<polygon fill="midnightblue" stroke="midnightblue" points="258.11,-196.74 268.7,-196.39 260.21,-190.06 258.11,-196.74"/>
</g>
<!-- Node4 -->
<g id="node4" class="node">
<title>Node4</title>
<g id="a_node4"><a xlink:href="classcontainermanager_1_1ContainerParameters.html#a59f4919cc9edc798ed20464e28128dd8" target="_top" xlink:title=" ">
<polygon fill="white" stroke="black" points="241,-147.5 241,-177.5 400,-177.5 400,-147.5 241,-147.5"/>
<text text-anchor="start" x="249" y="-165.5" font-family="Helvetica,sans-Serif" font-size="10.00">containermanager::Container</text>
<text text-anchor="middle" x="320.5" y="-154.5" font-family="Helvetica,sans-Serif" font-size="10.00">Parameters::image_name</text>
</a>
</g>
</g>
<!-- Node1&#45;&gt;Node4 -->
<g id="edge3" class="edge">
<title>Node1&#45;&gt;Node4</title>
<path fill="none" stroke="midnightblue" d="M205.18,-149.27C213.73,-150.26 222.34,-151.25 230.79,-152.23"/>
<polygon fill="midnightblue" stroke="midnightblue" points="230.66,-155.74 241,-153.41 231.47,-148.79 230.66,-155.74"/>
</g>
<!-- Node5 -->
<g id="node5" class="node">
<title>Node5</title>
<g id="a_node5"><a xlink:href="classcontainermanager_1_1ContainerParameters.html#a399f34ad96a2cef3179a3c72f251e2d0" target="_top" xlink:title=" ">
<polygon fill="white" stroke="black" points="241,-98.5 241,-128.5 400,-128.5 400,-98.5 241,-98.5"/>
<text text-anchor="start" x="249" y="-116.5" font-family="Helvetica,sans-Serif" font-size="10.00">containermanager::Container</text>
<text text-anchor="middle" x="320.5" y="-105.5" font-family="Helvetica,sans-Serif" font-size="10.00">Parameters::memory</text>
</a>
</g>
</g>
<!-- Node1&#45;&gt;Node5 -->
<g id="edge4" class="edge">
<title>Node1&#45;&gt;Node5</title>
<path fill="none" stroke="midnightblue" d="M205.18,-126.2C213.73,-125.25 222.34,-124.3 230.79,-123.36"/>
<polygon fill="midnightblue" stroke="midnightblue" points="231.45,-126.81 241,-122.22 230.67,-119.85 231.45,-126.81"/>
</g>
<!-- Node6 -->
<g id="node6" class="node">
<title>Node6</title>
<g id="a_node6"><a xlink:href="classcontainermanager_1_1ContainerParameters.html#a96b6ea6e5ad06ddab5701150627b7aca" target="_top" xlink:title=" ">
<polygon fill="white" stroke="black" points="241,-49.5 241,-79.5 400,-79.5 400,-49.5 241,-49.5"/>
<text text-anchor="start" x="249" y="-67.5" font-family="Helvetica,sans-Serif" font-size="10.00">containermanager::Container</text>
<text text-anchor="middle" x="320.5" y="-56.5" font-family="Helvetica,sans-Serif" font-size="10.00">Parameters::pids</text>
</a>
</g>
</g>
<!-- Node1&#45;&gt;Node6 -->
<g id="edge5" class="edge">
<title>Node1&#45;&gt;Node6</title>
<path fill="none" stroke="midnightblue" d="M145.52,-122.49C172.69,-112.87 208.86,-100.23 241,-89.5 247.56,-87.31 254.45,-85.05 261.3,-82.84"/>
<polygon fill="midnightblue" stroke="midnightblue" points="262.83,-86.02 271.27,-79.63 260.68,-79.36 262.83,-86.02"/>
</g>
<!-- Node7 -->
<g id="node7" class="node">
<title>Node7</title>
<g id="a_node7"><a xlink:href="classcontainermanager_1_1ContainerParameters.html#a51eb0c4c3c36e1e3326f34559917a304" target="_top" xlink:title=" ">
<polygon fill="white" stroke="black" points="241,-0.5 241,-30.5 400,-30.5 400,-0.5 241,-0.5"/>
<text text-anchor="start" x="249" y="-18.5" font-family="Helvetica,sans-Serif" font-size="10.00">containermanager::Container</text>
<text text-anchor="middle" x="320.5" y="-7.5" font-family="Helvetica,sans-Serif" font-size="10.00">Parameters::restart_policy</text>
</a>
</g>
</g>
<!-- Node1&#45;&gt;Node7 -->
<g id="edge6" class="edge">
<title>Node1&#45;&gt;Node7</title>
<path fill="none" stroke="midnightblue" d="M121.05,-122.42C146.15,-101.5 194.44,-63.65 241,-40.5 245.53,-38.25 250.3,-36.14 255.16,-34.19"/>
<polygon fill="midnightblue" stroke="midnightblue" points="256.49,-37.43 264.59,-30.6 254,-30.88 256.49,-37.43"/>
</g>
</g>
</svg>
