<?xml version="1.0" encoding="UTF-8" standalone="no"?>
<!DOCTYPE svg PUBLIC "-//W3C//DTD SVG 1.1//EN"
 "http://www.w3.org/Graphics/SVG/1.1/DTD/svg11.dtd">
<!-- Generated by graphviz version 2.43.0 (0)
 -->
<!-- Title: runtime/src/command_factory.cpp Pages: 1 -->
<!--zoomable 207 -->
<svg id="main" version="1.1" xmlns="http://www.w3.org/2000/svg" xmlns:xlink="http://www.w3.org/1999/xlink" xml:space="preserve" onload="init(evt)">
<style type="text/css"><![CDATA[
.edge:hover path { stroke: red; }
.edge:hover polygon { stroke: red; fill: red; }
]]></style>
<script type="text/javascript"><![CDATA[
var edges = document.getElementsByTagName('g');
if (edges && edges.length) {
  for (var i=0;i<edges.length;i++) {
    if (edges[i].id.substr(0,4)=='edge') {
      edges[i].setAttribute('class','edge');
    }
  }
}
]]></script>
        <defs>
                <circle id="rim" cx="0" cy="0" r="7"/>
                <circle id="rim2" cx="0" cy="0" r="3.5"/>
                <g id="zoomPlus">
                        <use xlink:href="#rim" fill="#404040">
                                <set attributeName="fill" to="#808080" begin="zoomplus.mouseover" end="zoomplus.mouseout"/>
                        </use>
                        <path d="M-4,0h8M0,-4v8" fill="none" stroke="white" stroke-width="1.5" pointer-events="none"/>
                </g>
                <g id="zoomMin">
                        <use xlink:href="#rim" fill="#404040">
                                <set attributeName="fill" to="#808080" begin="zoomminus.mouseover" end="zoomminus.mouseout"/>
                        </use>
                        <path d="M-4,0h8" fill="none" stroke="white" stroke-width="1.5" pointer-events="none"/>
                </g>
                <g id="dirArrow">
                        <path fill="none" stroke="white" stroke-width="1.5" d="M0,-3.0v7 M-2.5,-0.5L0,-3.0L2.5,-0.5"/>
                </g>
               <g id="resetDef">
                       <use xlink:href="#rim2" fill="#404040">
                               <set attributeName="fill" to="#808080" begin="reset.mouseover" end="reset.mouseout"/>
                       </use>
               </g>
        </defs>

<script type="text/javascript">
var viewWidth = 1128;
var viewHeight = 207;
var sectionId = 'dynsection-0';
</script>
<script xlink:href="svgpan.js"/>
<svg id="graph" class="graph">
<g id="viewport">
<title>runtime/src/command_factory.cpp</title>
<polygon fill="white" stroke="transparent" points="-4,4 -4,-203 1123.5,-203 1123.5,4 -4,4"/>
<!-- Node1 -->
<g id="node1" class="node">
<title>Node1</title>
<g id="a_node1"><a xlink:title="Implements the CommandFactory class for creating command objects based on container requests.">
<polygon fill="#bfbfbf" stroke="black" points="723,-168.5 723,-198.5 847,-198.5 847,-168.5 723,-168.5"/>
<text text-anchor="start" x="731" y="-186.5" font-family="Helvetica,sans-Serif" font-size="10.00">runtime/src/command</text>
<text text-anchor="middle" x="785" y="-175.5" font-family="Helvetica,sans-Serif" font-size="10.00">_factory.cpp</text>
</a>
</g>
</g>
<!-- Node2 -->
<g id="node2" class="node">
<title>Node2</title>
<g id="a_node2"><a xlink:href="command__factory_8hpp.html" target="_top" xlink:title="Declares the CommandFactory class for creating command objects based on container requests.">
<polygon fill="white" stroke="black" points="714,-112.5 714,-131.5 856,-131.5 856,-112.5 714,-112.5"/>
<text text-anchor="middle" x="785" y="-119.5" font-family="Helvetica,sans-Serif" font-size="10.00">inc/command_factory.hpp</text>
</a>
</g>
</g>
<!-- Node1&#45;&gt;Node2 -->
<g id="edge1" class="edge">
<title>Node1&#45;&gt;Node2</title>
<path fill="none" stroke="midnightblue" d="M785,-168.4C785,-160.47 785,-150.46 785,-141.86"/>
<polygon fill="midnightblue" stroke="midnightblue" points="788.5,-141.66 785,-131.66 781.5,-141.66 788.5,-141.66"/>
</g>
<!-- Node6 -->
<g id="node6" class="node">
<title>Node6</title>
<g id="a_node6"><a xlink:href="common_8hpp.html" target="_top" xlink:title="Defines common constants, string views, and utility structures for the application.">
<polygon fill="white" stroke="black" points="875,-56.5 875,-75.5 973,-75.5 973,-56.5 875,-56.5"/>
<text text-anchor="middle" x="924" y="-63.5" font-family="Helvetica,sans-Serif" font-size="10.00">inc/common.hpp</text>
</a>
</g>
</g>
<!-- Node1&#45;&gt;Node6 -->
<g id="edge14" class="edge">
<title>Node1&#45;&gt;Node6</title>
<path fill="none" stroke="midnightblue" d="M820.99,-168.42C839.95,-159.81 862.77,-147.48 880,-132 895.01,-118.51 907.37,-98.88 915.13,-84.73"/>
<polygon fill="midnightblue" stroke="midnightblue" points="918.4,-86.04 919.94,-75.56 912.2,-82.79 918.4,-86.04"/>
</g>
<!-- Node9 -->
<g id="node9" class="node">
<title>Node9</title>
<g id="a_node9"><a xlink:href="container__request_8hpp.html" target="_top" xlink:title="Data structure for representing a container operation request.">
<polygon fill="white" stroke="black" points="713.5,-56.5 713.5,-75.5 856.5,-75.5 856.5,-56.5 713.5,-56.5"/>
<text text-anchor="middle" x="785" y="-63.5" font-family="Helvetica,sans-Serif" font-size="10.00">inc/container_request.hpp</text>
</a>
</g>
</g>
<!-- Node1&#45;&gt;Node9 -->
<g id="edge33" class="edge">
<title>Node1&#45;&gt;Node9</title>
<path fill="none" stroke="midnightblue" d="M822.27,-168.45C849.34,-155.92 878.97,-135.89 865,-112 856.14,-96.85 840.09,-86.41 824.69,-79.42"/>
<polygon fill="midnightblue" stroke="midnightblue" points="825.83,-76.11 815.25,-75.51 823.15,-82.57 825.83,-76.11"/>
</g>
<!-- Node10 -->
<g id="node10" class="node">
<title>Node10</title>
<g id="a_node10"><a xlink:title=" ">
<polygon fill="white" stroke="#bfbfbf" points="950,-112.5 950,-131.5 1010,-131.5 1010,-112.5 950,-112.5"/>
<text text-anchor="middle" x="980" y="-119.5" font-family="Helvetica,sans-Serif" font-size="10.00">iostream</text>
</a>
</g>
</g>
<!-- Node1&#45;&gt;Node10 -->
<g id="edge13" class="edge">
<title>Node1&#45;&gt;Node10</title>
<path fill="none" stroke="midnightblue" d="M831.21,-168.4C865.05,-158.07 910.42,-144.23 942.13,-134.56"/>
<polygon fill="midnightblue" stroke="midnightblue" points="943.37,-137.84 951.91,-131.57 941.32,-131.14 943.37,-137.84"/>
</g>
<!-- Node11 -->
<g id="node11" class="node">
<title>Node11</title>
<g id="a_node11"><a xlink:href="logging_8hpp.html" target="_top" xlink:title="Logging macros and configuration for the Container Manager.">
<polygon fill="white" stroke="black" points="1028.5,-112.5 1028.5,-131.5 1119.5,-131.5 1119.5,-112.5 1028.5,-112.5"/>
<text text-anchor="middle" x="1074" y="-119.5" font-family="Helvetica,sans-Serif" font-size="10.00">inc/logging.hpp</text>
</a>
</g>
</g>
<!-- Node1&#45;&gt;Node11 -->
<g id="edge15" class="edge">
<title>Node1&#45;&gt;Node11</title>
<path fill="none" stroke="midnightblue" d="M847.35,-169.66C899.71,-158.88 973.62,-143.67 1022.63,-133.58"/>
<polygon fill="midnightblue" stroke="midnightblue" points="1023.61,-136.95 1032.7,-131.5 1022.19,-130.09 1023.61,-136.95"/>
</g>
<!-- Node13 -->
<g id="node13" class="node">
<title>Node13</title>
<g id="a_node13"><a xlink:href="podman__commands_8hpp.html" target="_top" xlink:title="Declares Podman command classes for container operations.">
<polygon fill="white" stroke="black" points="542,-112.5 542,-131.5 696,-131.5 696,-112.5 542,-112.5"/>
<text text-anchor="middle" x="619" y="-119.5" font-family="Helvetica,sans-Serif" font-size="10.00">inc/podman_commands.hpp</text>
</a>
</g>
</g>
<!-- Node1&#45;&gt;Node13 -->
<g id="edge17" class="edge">
<title>Node1&#45;&gt;Node13</title>
<path fill="none" stroke="midnightblue" d="M745.66,-168.4C717.44,-158.28 679.79,-144.79 652.9,-135.15"/>
<polygon fill="midnightblue" stroke="midnightblue" points="653.75,-131.74 643.15,-131.66 651.39,-138.33 653.75,-131.74"/>
</g>
<!-- Node14 -->
<g id="node14" class="node">
<title>Node14</title>
<g id="a_node14"><a xlink:href="docker__commands_8hpp.html" target="_top" xlink:title="Declares Docker command classes for container operations.">
<polygon fill="white" stroke="black" points="192,-112.5 192,-131.5 338,-131.5 338,-112.5 192,-112.5"/>
<text text-anchor="middle" x="265" y="-119.5" font-family="Helvetica,sans-Serif" font-size="10.00">inc/docker_commands.hpp</text>
</a>
</g>
</g>
<!-- Node1&#45;&gt;Node14 -->
<g id="edge21" class="edge">
<title>Node1&#45;&gt;Node14</title>
<path fill="none" stroke="midnightblue" d="M722.79,-175.38C629.39,-164.69 452.77,-144.49 348.33,-132.53"/>
<polygon fill="midnightblue" stroke="midnightblue" points="348.47,-129.03 338.14,-131.37 347.68,-135.98 348.47,-129.03"/>
</g>
<!-- Node15 -->
<g id="node15" class="node">
<title>Node15</title>
<g id="a_node15"><a xlink:href="podman__api__commands_8hpp.html" target="_top" xlink:title=" ">
<polygon fill="white" stroke="black" points="0,-112.5 0,-131.5 174,-131.5 174,-112.5 0,-112.5"/>
<text text-anchor="middle" x="87" y="-119.5" font-family="Helvetica,sans-Serif" font-size="10.00">inc/podman_api_commands.hpp</text>
</a>
</g>
</g>
<!-- Node1&#45;&gt;Node15 -->
<g id="edge25" class="edge">
<title>Node1&#45;&gt;Node15</title>
<path fill="none" stroke="midnightblue" d="M722.58,-177.47C615,-168.75 387.41,-150.1 184.09,-132.09"/>
<polygon fill="midnightblue" stroke="midnightblue" points="184.39,-128.6 174.12,-131.2 183.77,-135.57 184.39,-128.6"/>
</g>
<!-- Node16 -->
<g id="node16" class="node">
<title>Node16</title>
<g id="a_node16"><a xlink:href="docker__api__commands_8hpp.html" target="_top" xlink:title=" ">
<polygon fill="white" stroke="black" points="356.5,-112.5 356.5,-131.5 523.5,-131.5 523.5,-112.5 356.5,-112.5"/>
<text text-anchor="middle" x="440" y="-119.5" font-family="Helvetica,sans-Serif" font-size="10.00">inc/docker_api_commands.hpp</text>
</a>
</g>
</g>
<!-- Node1&#45;&gt;Node16 -->
<g id="edge29" class="edge">
<title>Node1&#45;&gt;Node16</title>
<path fill="none" stroke="midnightblue" d="M722.92,-171.79C659.52,-160.86 561.79,-144 499.38,-133.24"/>
<polygon fill="midnightblue" stroke="midnightblue" points="499.75,-129.75 489.3,-131.5 498.56,-136.65 499.75,-129.75"/>
</g>
<!-- Node3 -->
<g id="node3" class="node">
<title>Node3</title>
<g id="a_node3"><a xlink:title=" ">
<polygon fill="white" stroke="#bfbfbf" points="380,-0.5 380,-19.5 438,-19.5 438,-0.5 380,-0.5"/>
<text text-anchor="middle" x="409" y="-7.5" font-family="Helvetica,sans-Serif" font-size="10.00">memory</text>
</a>
</g>
</g>
<!-- Node2&#45;&gt;Node3 -->
<g id="edge2" class="edge">
<title>Node2&#45;&gt;Node3</title>
<path fill="none" stroke="midnightblue" d="M755.81,-112.46C688.68,-92.82 523.34,-44.45 447.79,-22.35"/>
<polygon fill="midnightblue" stroke="midnightblue" points="448.75,-18.98 438.17,-19.53 446.79,-25.7 448.75,-18.98"/>
</g>
<!-- Node4 -->
<g id="node4" class="node">
<title>Node4</title>
<g id="a_node4"><a xlink:title=" ">
<polygon fill="white" stroke="#bfbfbf" points="568,-0.5 568,-19.5 612,-19.5 612,-0.5 568,-0.5"/>
<text text-anchor="middle" x="590" y="-7.5" font-family="Helvetica,sans-Serif" font-size="10.00">string</text>
</a>
</g>
</g>
<!-- Node2&#45;&gt;Node4 -->
<g id="edge3" class="edge">
<title>Node2&#45;&gt;Node4</title>
<path fill="none" stroke="midnightblue" d="M769.66,-112.38C753.55,-103.33 727.49,-88.68 705,-76 673.57,-58.28 637.34,-37.79 614.08,-24.63"/>
<polygon fill="midnightblue" stroke="midnightblue" points="615.68,-21.51 605.25,-19.63 612.23,-27.6 615.68,-21.51"/>
</g>
<!-- Node5 -->
<g id="node5" class="node">
<title>Node5</title>
<g id="a_node5"><a xlink:href="commands_8hpp.html" target="_top" xlink:title=" ">
<polygon fill="white" stroke="black" points="395.5,-56.5 395.5,-75.5 504.5,-75.5 504.5,-56.5 395.5,-56.5"/>
<text text-anchor="middle" x="450" y="-63.5" font-family="Helvetica,sans-Serif" font-size="10.00">inc/commands.hpp</text>
</a>
</g>
</g>
<!-- Node2&#45;&gt;Node5 -->
<g id="edge4" class="edge">
<title>Node2&#45;&gt;Node5</title>
<path fill="none" stroke="midnightblue" d="M731.92,-112.44C672.5,-102.87 576.28,-87.36 513.07,-77.17"/>
<polygon fill="midnightblue" stroke="midnightblue" points="513.26,-73.65 502.83,-75.52 512.15,-80.56 513.26,-73.65"/>
</g>
<!-- Node2&#45;&gt;Node6 -->
<g id="edge7" class="edge">
<title>Node2&#45;&gt;Node6</title>
<path fill="none" stroke="midnightblue" d="M807.02,-112.44C830.1,-103.48 866.56,-89.31 892.64,-79.18"/>
<polygon fill="midnightblue" stroke="midnightblue" points="894.02,-82.4 902.08,-75.52 891.49,-75.88 894.02,-82.4"/>
</g>
<!-- Node2&#45;&gt;Node9 -->
<g id="edge11" class="edge">
<title>Node2&#45;&gt;Node9</title>
<path fill="none" stroke="midnightblue" d="M785,-112.08C785,-105.01 785,-94.86 785,-85.99"/>
<polygon fill="midnightblue" stroke="midnightblue" points="788.5,-85.75 785,-75.75 781.5,-85.75 788.5,-85.75"/>
</g>
<!-- Node5&#45;&gt;Node3 -->
<g id="edge6" class="edge">
<title>Node5&#45;&gt;Node3</title>
<path fill="none" stroke="midnightblue" d="M443.23,-56.08C437.44,-48.46 428.94,-37.26 421.86,-27.94"/>
<polygon fill="midnightblue" stroke="midnightblue" points="424.48,-25.6 415.64,-19.75 418.9,-29.83 424.48,-25.6"/>
</g>
<!-- Node5&#45;&gt;Node4 -->
<g id="edge5" class="edge">
<title>Node5&#45;&gt;Node4</title>
<path fill="none" stroke="midnightblue" d="M472.18,-56.44C495.43,-47.48 532.15,-33.31 558.42,-23.18"/>
<polygon fill="midnightblue" stroke="midnightblue" points="559.85,-26.38 567.92,-19.52 557.33,-19.85 559.85,-26.38"/>
</g>
<!-- Node6&#45;&gt;Node4 -->
<g id="edge8" class="edge">
<title>Node6&#45;&gt;Node4</title>
<path fill="none" stroke="midnightblue" d="M874.72,-57.03C805.36,-45.82 680.89,-25.69 622.24,-16.21"/>
<polygon fill="midnightblue" stroke="midnightblue" points="622.51,-12.71 612.08,-14.57 621.4,-19.62 622.51,-12.71"/>
</g>
<!-- Node7 -->
<g id="node7" class="node">
<title>Node7</title>
<g id="a_node7"><a xlink:title=" ">
<polygon fill="white" stroke="#bfbfbf" points="836.5,-0.5 836.5,-19.5 909.5,-19.5 909.5,-0.5 836.5,-0.5"/>
<text text-anchor="middle" x="873" y="-7.5" font-family="Helvetica,sans-Serif" font-size="10.00">string_view</text>
</a>
</g>
</g>
<!-- Node6&#45;&gt;Node7 -->
<g id="edge9" class="edge">
<title>Node6&#45;&gt;Node7</title>
<path fill="none" stroke="midnightblue" d="M915.58,-56.08C908.15,-48.22 897.15,-36.57 888.19,-27.08"/>
<polygon fill="midnightblue" stroke="midnightblue" points="890.68,-24.62 881.26,-19.75 885.59,-29.42 890.68,-24.62"/>
</g>
<!-- Node8 -->
<g id="node8" class="node">
<title>Node8</title>
<g id="a_node8"><a xlink:title=" ">
<polygon fill="white" stroke="#bfbfbf" points="927.5,-0.5 927.5,-19.5 1020.5,-19.5 1020.5,-0.5 927.5,-0.5"/>
<text text-anchor="middle" x="974" y="-7.5" font-family="Helvetica,sans-Serif" font-size="10.00">unordered_map</text>
</a>
</g>
</g>
<!-- Node6&#45;&gt;Node8 -->
<g id="edge10" class="edge">
<title>Node6&#45;&gt;Node8</title>
<path fill="none" stroke="midnightblue" d="M932.26,-56.08C939.46,-48.3 950.11,-36.8 958.85,-27.37"/>
<polygon fill="midnightblue" stroke="midnightblue" points="961.67,-29.47 965.9,-19.75 956.53,-24.71 961.67,-29.47"/>
</g>
<!-- Node9&#45;&gt;Node4 -->
<g id="edge12" class="edge">
<title>Node9&#45;&gt;Node4</title>
<path fill="none" stroke="midnightblue" d="M754.1,-56.44C717.98,-46.44 658.49,-29.97 621.93,-19.84"/>
<polygon fill="midnightblue" stroke="midnightblue" points="622.83,-16.46 612.26,-17.16 620.97,-23.21 622.83,-16.46"/>
</g>
<!-- Node12 -->
<g id="node12" class="node">
<title>Node12</title>
<g id="a_node12"><a xlink:title=" ">
<polygon fill="white" stroke="#bfbfbf" points="1031,-56.5 1031,-75.5 1117,-75.5 1117,-56.5 1031,-56.5"/>
<text text-anchor="middle" x="1074" y="-63.5" font-family="Helvetica,sans-Serif" font-size="10.00">glog/logging.h</text>
</a>
</g>
</g>
<!-- Node11&#45;&gt;Node12 -->
<g id="edge16" class="edge">
<title>Node11&#45;&gt;Node12</title>
<path fill="none" stroke="midnightblue" d="M1074,-112.08C1074,-105.01 1074,-94.86 1074,-85.99"/>
<polygon fill="midnightblue" stroke="midnightblue" points="1077.5,-85.75 1074,-75.75 1070.5,-85.75 1077.5,-85.75"/>
</g>
<!-- Node13&#45;&gt;Node3 -->
<g id="edge19" class="edge">
<title>Node13&#45;&gt;Node3</title>
<path fill="none" stroke="midnightblue" d="M606.43,-112.36C587.08,-99.26 548.62,-74 514,-56 490.15,-43.6 462.12,-31.71 441.03,-23.28"/>
<polygon fill="midnightblue" stroke="midnightblue" points="442.16,-19.96 431.57,-19.54 439.58,-26.47 442.16,-19.96"/>
</g>
<!-- Node13&#45;&gt;Node4 -->
<g id="edge18" class="edge">
<title>Node13&#45;&gt;Node4</title>
<path fill="none" stroke="midnightblue" d="M616.72,-112.37C612.02,-94.54 601.15,-53.3 594.82,-29.27"/>
<polygon fill="midnightblue" stroke="midnightblue" points="598.2,-28.37 592.27,-19.59 591.43,-30.15 598.2,-28.37"/>
</g>
<!-- Node13&#45;&gt;Node5 -->
<g id="edge20" class="edge">
<title>Node13&#45;&gt;Node5</title>
<path fill="none" stroke="midnightblue" d="M592.22,-112.44C563.67,-103.32 518.27,-88.81 486.46,-78.65"/>
<polygon fill="midnightblue" stroke="midnightblue" points="487.24,-75.23 476.65,-75.52 485.11,-81.89 487.24,-75.23"/>
</g>
<!-- Node14&#45;&gt;Node3 -->
<g id="edge23" class="edge">
<title>Node14&#45;&gt;Node3</title>
<path fill="none" stroke="midnightblue" d="M269.81,-112.38C277.72,-98.85 294.64,-72.49 315,-56 332.48,-41.84 355.15,-30.82 373.85,-23.23"/>
<polygon fill="midnightblue" stroke="midnightblue" points="375.17,-26.47 383.22,-19.58 372.63,-19.95 375.17,-26.47"/>
</g>
<!-- Node14&#45;&gt;Node4 -->
<g id="edge22" class="edge">
<title>Node14&#45;&gt;Node4</title>
<path fill="none" stroke="midnightblue" d="M278.34,-112.32C300.19,-98.48 345.35,-71.38 387,-56 445.28,-34.47 516.96,-21.55 557.67,-15.39"/>
<polygon fill="midnightblue" stroke="midnightblue" points="558.43,-18.82 567.81,-13.9 557.41,-11.89 558.43,-18.82"/>
</g>
<!-- Node14&#45;&gt;Node5 -->
<g id="edge24" class="edge">
<title>Node14&#45;&gt;Node5</title>
<path fill="none" stroke="midnightblue" d="M294.31,-112.44C325.84,-103.24 376.13,-88.56 410.99,-78.39"/>
<polygon fill="midnightblue" stroke="midnightblue" points="412.2,-81.68 420.82,-75.52 410.24,-74.96 412.2,-81.68"/>
</g>
<!-- Node15&#45;&gt;Node3 -->
<g id="edge27" class="edge">
<title>Node15&#45;&gt;Node3</title>
<path fill="none" stroke="midnightblue" d="M112,-112.46C168.94,-93.01 308.43,-45.36 373.94,-22.98"/>
<polygon fill="midnightblue" stroke="midnightblue" points="375.46,-26.16 383.8,-19.61 373.2,-19.53 375.46,-26.16"/>
</g>
<!-- Node15&#45;&gt;Node4 -->
<g id="edge26" class="edge">
<title>Node15&#45;&gt;Node4</title>
<path fill="none" stroke="midnightblue" d="M121.1,-112.43C156.59,-103.47 213.74,-88.95 263,-76 295.95,-67.34 303.75,-63.43 337,-56 415.73,-38.4 509.46,-23.21 557.73,-15.81"/>
<polygon fill="midnightblue" stroke="midnightblue" points="558.51,-19.23 567.87,-14.26 557.46,-12.31 558.51,-19.23"/>
</g>
<!-- Node15&#45;&gt;Node5 -->
<g id="edge28" class="edge">
<title>Node15&#45;&gt;Node5</title>
<path fill="none" stroke="midnightblue" d="M144.52,-112.44C210.03,-102.7 316.81,-86.81 385.2,-76.64"/>
<polygon fill="midnightblue" stroke="midnightblue" points="386.05,-80.05 395.42,-75.12 385.02,-73.13 386.05,-80.05"/>
</g>
<!-- Node16&#45;&gt;Node3 -->
<g id="edge31" class="edge">
<title>Node16&#45;&gt;Node3</title>
<path fill="none" stroke="midnightblue" d="M423.67,-112.39C411.04,-104.72 394.5,-92.21 387,-76 379.75,-60.34 387.75,-41.59 396.06,-28.26"/>
<polygon fill="midnightblue" stroke="midnightblue" points="399.2,-29.87 401.95,-19.64 393.42,-25.92 399.2,-29.87"/>
</g>
<!-- Node16&#45;&gt;Node4 -->
<g id="edge30" class="edge">
<title>Node16&#45;&gt;Node4</title>
<path fill="none" stroke="midnightblue" d="M455.77,-112.39C471.08,-103.81 494.76,-89.94 514,-76 535.59,-60.36 558.63,-40.09 573.6,-26.38"/>
<polygon fill="midnightblue" stroke="midnightblue" points="576.07,-28.87 581.03,-19.51 571.32,-23.73 576.07,-28.87"/>
</g>
<!-- Node16&#45;&gt;Node5 -->
<g id="edge32" class="edge">
<title>Node16&#45;&gt;Node5</title>
<path fill="none" stroke="midnightblue" d="M441.65,-112.08C442.98,-104.93 444.88,-94.64 446.54,-85.69"/>
<polygon fill="midnightblue" stroke="midnightblue" points="450,-86.22 448.38,-75.75 443.12,-84.95 450,-86.22"/>
</g>
</g>
</svg>
        <g id="navigator" transform="translate(0 0)" fill="#404254">
                <rect fill="#f2f5e9" fill-opacity="0.5" stroke="#606060" stroke-width=".5" x="0" y="0" width="60" height="60"/>
                <use id="zoomplus" xlink:href="#zoomPlus" x="17" y="9" onmousedown="handleZoom(evt,'in')"/>
                <use id="zoomminus" xlink:href="#zoomMin" x="42" y="9" onmousedown="handleZoom(evt,'out')"/>
                <use id="reset" xlink:href="#resetDef" x="30" y="36" onmousedown="handleReset()"/>
                <g id="arrowUp" xlink:href="#dirArrow" transform="translate(30 24)" onmousedown="handlePan(0,-1)">
                  <use xlink:href="#rim" fill="#404040">
                        <set attributeName="fill" to="#808080" begin="arrowUp.mouseover" end="arrowUp.mouseout"/>
                  </use>
                  <path fill="none" stroke="white" stroke-width="1.5" d="M0,-3.0v7 M-2.5,-0.5L0,-3.0L2.5,-0.5"/>
                </g>
                <g id="arrowRight" xlink:href="#dirArrow" transform="rotate(90) translate(36 -43)" onmousedown="handlePan(1,0)">
                  <use xlink:href="#rim" fill="#404040">
                        <set attributeName="fill" to="#808080" begin="arrowRight.mouseover" end="arrowRight.mouseout"/>
                  </use>
                  <path fill="none" stroke="white" stroke-width="1.5" d="M0,-3.0v7 M-2.5,-0.5L0,-3.0L2.5,-0.5"/>
                </g>
                <g id="arrowDown" xlink:href="#dirArrow" transform="rotate(180) translate(-30 -48)" onmousedown="handlePan(0,1)">
                  <use xlink:href="#rim" fill="#404040">
                        <set attributeName="fill" to="#808080" begin="arrowDown.mouseover" end="arrowDown.mouseout"/>
                  </use>
                  <path fill="none" stroke="white" stroke-width="1.5" d="M0,-3.0v7 M-2.5,-0.5L0,-3.0L2.5,-0.5"/>
                </g>
                <g id="arrowLeft" xlink:href="#dirArrow" transform="rotate(270) translate(-36 17)" onmousedown="handlePan(-1,0)">
                  <use xlink:href="#rim" fill="#404040">
                        <set attributeName="fill" to="#808080" begin="arrowLeft.mouseover" end="arrowLeft.mouseout"/>
                  </use>
                  <path fill="none" stroke="white" stroke-width="1.5" d="M0,-3.0v7 M-2.5,-0.5L0,-3.0L2.5,-0.5"/>
                </g>
        </g>
        <svg viewBox="0 0 15 15" width="100%" height="30px" preserveAspectRatio="xMaxYMin meet">
         <g id="arrow_out" transform="scale(0.3 0.3)">
          <a xlink:href="command__factory_8cpp__incl_org.svg" target="_base">
           <rect id="button" ry="5" rx="5" y="6" x="6" height="38" width="38"
                fill="#f2f5e9" fill-opacity="0.5" stroke="#606060" stroke-width="1.0"/>
           <path id="arrow"
             d="M 11.500037,31.436501 C 11.940474,20.09759 22.043105,11.32322 32.158766,21.979434 L 37.068811,17.246167 C 37.068811,17.246167 37.088388,32 37.088388,32 L 22.160133,31.978069 C 22.160133,31.978069 26.997745,27.140456 26.997745,27.140456 C 18.528582,18.264221 13.291696,25.230495 11.500037,31.436501 z"
             style="fill:#404040;"/>
          </a>
         </g>
        </svg>
</svg>
