<?xml version="1.0" encoding="UTF-8" standalone="no"?>
<!DOCTYPE svg PUBLIC "-//W3C//DTD SVG 1.1//EN"
 "http://www.w3.org/Graphics/SVG/1.1/DTD/svg11.dtd">
<!-- Generated by graphviz version 2.43.0 (0)
 -->
<!-- Title: runtime/src/command_factory.cpp Pages: 1 -->
<svg width="1090pt" height="207pt"
 viewBox="0.00 0.00 1089.50 207.00" xmlns="http://www.w3.org/2000/svg" xmlns:xlink="http://www.w3.org/1999/xlink">
<g id="graph0" class="graph" transform="scale(1 1) rotate(0) translate(4 203)">
<title>runtime/src/command_factory.cpp</title>
<polygon fill="white" stroke="transparent" points="-4,4 -4,-203 1085.5,-203 1085.5,4 -4,4"/>
<!-- Node1 -->
<g id="node1" class="node">
<title>Node1</title>
<g id="a_node1"><a xlink:title=" ">
<polygon fill="#bfbfbf" stroke="black" points="635,-168.5 635,-198.5 759,-198.5 759,-168.5 635,-168.5"/>
<text text-anchor="start" x="643" y="-186.5" font-family="Helvetica,sans-Serif" font-size="10.00">runtime/src/command</text>
<text text-anchor="middle" x="697" y="-175.5" font-family="Helvetica,sans-Serif" font-size="10.00">_factory.cpp</text>
</a>
</g>
</g>
<!-- Node2 -->
<g id="node2" class="node">
<title>Node2</title>
<g id="a_node2"><a xlink:href="command__factory_8hpp.html" target="_top" xlink:title=" ">
<polygon fill="white" stroke="black" points="714,-112.5 714,-131.5 856,-131.5 856,-112.5 714,-112.5"/>
<text text-anchor="middle" x="785" y="-119.5" font-family="Helvetica,sans-Serif" font-size="10.00">inc/command_factory.hpp</text>
</a>
</g>
</g>
<!-- Node1&#45;&gt;Node2 -->
<g id="edge1" class="edge">
<title>Node1&#45;&gt;Node2</title>
<path fill="none" stroke="midnightblue" d="M717.85,-168.4C731.7,-159.04 749.81,-146.79 763.74,-137.38"/>
<polygon fill="midnightblue" stroke="midnightblue" points="765.87,-140.16 772.2,-131.66 761.95,-134.36 765.87,-140.16"/>
</g>
<!-- Node6 -->
<g id="node6" class="node">
<title>Node6</title>
<g id="a_node6"><a xlink:href="common_8hpp.html" target="_top" xlink:title="Defines common constants, string views, and utility structures for the application.">
<polygon fill="white" stroke="black" points="736,-56.5 736,-75.5 834,-75.5 834,-56.5 736,-56.5"/>
<text text-anchor="middle" x="785" y="-63.5" font-family="Helvetica,sans-Serif" font-size="10.00">inc/common.hpp</text>
</a>
</g>
</g>
<!-- Node1&#45;&gt;Node6 -->
<g id="edge11" class="edge">
<title>Node1&#45;&gt;Node6</title>
<path fill="none" stroke="midnightblue" d="M759.34,-181.24C796.43,-176.87 840.83,-164.5 865,-132 881.45,-109.87 849.12,-90.83 820.77,-79.18"/>
<polygon fill="midnightblue" stroke="midnightblue" points="821.97,-75.89 811.38,-75.52 819.42,-82.42 821.97,-75.89"/>
</g>
<!-- Node8 -->
<g id="node8" class="node">
<title>Node8</title>
<g id="a_node8"><a xlink:title=" ">
<polygon fill="white" stroke="#bfbfbf" points="912,-112.5 912,-131.5 972,-131.5 972,-112.5 912,-112.5"/>
<text text-anchor="middle" x="942" y="-119.5" font-family="Helvetica,sans-Serif" font-size="10.00">iostream</text>
</a>
</g>
</g>
<!-- Node1&#45;&gt;Node8 -->
<g id="edge10" class="edge">
<title>Node1&#45;&gt;Node8</title>
<path fill="none" stroke="midnightblue" d="M754.75,-168.47C800.04,-157.48 861.9,-142.45 901.9,-132.74"/>
<polygon fill="midnightblue" stroke="midnightblue" points="902.93,-136.09 911.83,-130.33 901.28,-129.29 902.93,-136.09"/>
</g>
<!-- Node9 -->
<g id="node9" class="node">
<title>Node9</title>
<g id="a_node9"><a xlink:href="logging_8hpp.html" target="_top" xlink:title="Logging macros and configuration for the Container Manager.">
<polygon fill="white" stroke="black" points="990.5,-112.5 990.5,-131.5 1081.5,-131.5 1081.5,-112.5 990.5,-112.5"/>
<text text-anchor="middle" x="1036" y="-119.5" font-family="Helvetica,sans-Serif" font-size="10.00">inc/logging.hpp</text>
</a>
</g>
</g>
<!-- Node1&#45;&gt;Node9 -->
<g id="edge12" class="edge">
<title>Node1&#45;&gt;Node9</title>
<path fill="none" stroke="midnightblue" d="M759.18,-171.59C822.42,-160.49 919.52,-143.44 980.32,-132.77"/>
<polygon fill="midnightblue" stroke="midnightblue" points="981.25,-136.16 990.49,-130.99 980.04,-129.27 981.25,-136.16"/>
</g>
<!-- Node11 -->
<g id="node11" class="node">
<title>Node11</title>
<g id="a_node11"><a xlink:href="podman__commands_8hpp.html" target="_top" xlink:title="Declares Podman command classes for container operations.">
<polygon fill="white" stroke="black" points="350,-112.5 350,-131.5 504,-131.5 504,-112.5 350,-112.5"/>
<text text-anchor="middle" x="427" y="-119.5" font-family="Helvetica,sans-Serif" font-size="10.00">inc/podman_commands.hpp</text>
</a>
</g>
</g>
<!-- Node1&#45;&gt;Node11 -->
<g id="edge14" class="edge">
<title>Node1&#45;&gt;Node11</title>
<path fill="none" stroke="midnightblue" d="M634.72,-168.77C586.32,-158.11 520.14,-143.52 475.6,-133.71"/>
<polygon fill="midnightblue" stroke="midnightblue" points="476.12,-130.24 465.6,-131.51 474.62,-137.08 476.12,-130.24"/>
</g>
<!-- Node12 -->
<g id="node12" class="node">
<title>Node12</title>
<g id="a_node12"><a xlink:href="docker__commands_8hpp.html" target="_top" xlink:title="Declares Docker command classes for container operations.">
<polygon fill="white" stroke="black" points="0,-112.5 0,-131.5 146,-131.5 146,-112.5 0,-112.5"/>
<text text-anchor="middle" x="73" y="-119.5" font-family="Helvetica,sans-Serif" font-size="10.00">inc/docker_commands.hpp</text>
</a>
</g>
</g>
<!-- Node1&#45;&gt;Node12 -->
<g id="edge18" class="edge">
<title>Node1&#45;&gt;Node12</title>
<path fill="none" stroke="midnightblue" d="M634.78,-177.04C535.85,-168.28 336.29,-150.31 156.49,-132.14"/>
<polygon fill="midnightblue" stroke="midnightblue" points="156.61,-128.63 146.31,-131.11 155.91,-135.6 156.61,-128.63"/>
</g>
<!-- Node13 -->
<g id="node13" class="node">
<title>Node13</title>
<g id="a_node13"><a xlink:href="podman__api__commands_8hpp.html" target="_top" xlink:title=" ">
<polygon fill="white" stroke="black" points="522,-112.5 522,-131.5 696,-131.5 696,-112.5 522,-112.5"/>
<text text-anchor="middle" x="609" y="-119.5" font-family="Helvetica,sans-Serif" font-size="10.00">inc/podman_api_commands.hpp</text>
</a>
</g>
</g>
<!-- Node1&#45;&gt;Node13 -->
<g id="edge22" class="edge">
<title>Node1&#45;&gt;Node13</title>
<path fill="none" stroke="midnightblue" d="M676.15,-168.4C662.3,-159.04 644.19,-146.79 630.26,-137.38"/>
<polygon fill="midnightblue" stroke="midnightblue" points="632.05,-134.36 621.8,-131.66 628.13,-140.16 632.05,-134.36"/>
</g>
<!-- Node14 -->
<g id="node14" class="node">
<title>Node14</title>
<g id="a_node14"><a xlink:href="docker__api__commands_8hpp.html" target="_top" xlink:title=" ">
<polygon fill="white" stroke="black" points="164.5,-112.5 164.5,-131.5 331.5,-131.5 331.5,-112.5 164.5,-112.5"/>
<text text-anchor="middle" x="248" y="-119.5" font-family="Helvetica,sans-Serif" font-size="10.00">inc/docker_api_commands.hpp</text>
</a>
</g>
</g>
<!-- Node1&#45;&gt;Node14 -->
<g id="edge26" class="edge">
<title>Node1&#45;&gt;Node14</title>
<path fill="none" stroke="midnightblue" d="M634.57,-174.23C552.86,-163.4 409.84,-144.45 322.54,-132.88"/>
<polygon fill="midnightblue" stroke="midnightblue" points="322.82,-129.38 312.44,-131.54 321.9,-136.32 322.82,-129.38"/>
</g>
<!-- Node3 -->
<g id="node3" class="node">
<title>Node3</title>
<g id="a_node3"><a xlink:title=" ">
<polygon fill="white" stroke="#bfbfbf" points="378,-0.5 378,-19.5 436,-19.5 436,-0.5 378,-0.5"/>
<text text-anchor="middle" x="407" y="-7.5" font-family="Helvetica,sans-Serif" font-size="10.00">memory</text>
</a>
</g>
</g>
<!-- Node2&#45;&gt;Node3 -->
<g id="edge2" class="edge">
<title>Node2&#45;&gt;Node3</title>
<path fill="none" stroke="midnightblue" d="M755.65,-112.46C688.09,-92.8 521.54,-44.33 445.72,-22.27"/>
<polygon fill="midnightblue" stroke="midnightblue" points="446.65,-18.89 436.07,-19.46 444.69,-25.61 446.65,-18.89"/>
</g>
<!-- Node4 -->
<g id="node4" class="node">
<title>Node4</title>
<g id="a_node4"><a xlink:title=" ">
<polygon fill="white" stroke="#bfbfbf" points="547,-0.5 547,-19.5 591,-19.5 591,-0.5 547,-0.5"/>
<text text-anchor="middle" x="569" y="-7.5" font-family="Helvetica,sans-Serif" font-size="10.00">string</text>
</a>
</g>
</g>
<!-- Node2&#45;&gt;Node4 -->
<g id="edge3" class="edge">
<title>Node2&#45;&gt;Node4</title>
<path fill="none" stroke="midnightblue" d="M770.14,-112.47C747.78,-99.74 704.04,-75.19 666,-56 643.31,-44.56 617.16,-32.49 597.73,-23.73"/>
<polygon fill="midnightblue" stroke="midnightblue" points="599.06,-20.49 588.5,-19.6 596.2,-26.88 599.06,-20.49"/>
</g>
<!-- Node5 -->
<g id="node5" class="node">
<title>Node5</title>
<g id="a_node5"><a xlink:href="commands_8hpp.html" target="_top" xlink:title=" ">
<polygon fill="white" stroke="black" points="393.5,-56.5 393.5,-75.5 502.5,-75.5 502.5,-56.5 393.5,-56.5"/>
<text text-anchor="middle" x="448" y="-63.5" font-family="Helvetica,sans-Serif" font-size="10.00">inc/commands.hpp</text>
</a>
</g>
</g>
<!-- Node2&#45;&gt;Node5 -->
<g id="edge4" class="edge">
<title>Node2&#45;&gt;Node5</title>
<path fill="none" stroke="midnightblue" d="M731.6,-112.44C671.7,-102.85 574.63,-87.29 511.05,-77.1"/>
<polygon fill="midnightblue" stroke="midnightblue" points="511.58,-73.64 501.15,-75.52 510.47,-80.55 511.58,-73.64"/>
</g>
<!-- Node2&#45;&gt;Node6 -->
<g id="edge7" class="edge">
<title>Node2&#45;&gt;Node6</title>
<path fill="none" stroke="midnightblue" d="M785,-112.08C785,-105.01 785,-94.86 785,-85.99"/>
<polygon fill="midnightblue" stroke="midnightblue" points="788.5,-85.75 785,-75.75 781.5,-85.75 788.5,-85.75"/>
</g>
<!-- Node5&#45;&gt;Node3 -->
<g id="edge6" class="edge">
<title>Node5&#45;&gt;Node3</title>
<path fill="none" stroke="midnightblue" d="M441.23,-56.08C435.44,-48.46 426.94,-37.26 419.86,-27.94"/>
<polygon fill="midnightblue" stroke="midnightblue" points="422.48,-25.6 413.64,-19.75 416.9,-29.83 422.48,-25.6"/>
</g>
<!-- Node5&#45;&gt;Node4 -->
<g id="edge5" class="edge">
<title>Node5&#45;&gt;Node4</title>
<path fill="none" stroke="midnightblue" d="M467.17,-56.44C486.91,-47.64 517.89,-33.81 540.49,-23.72"/>
<polygon fill="midnightblue" stroke="midnightblue" points="542.21,-26.79 549.92,-19.52 539.36,-20.4 542.21,-26.79"/>
</g>
<!-- Node6&#45;&gt;Node4 -->
<g id="edge8" class="edge">
<title>Node6&#45;&gt;Node4</title>
<path fill="none" stroke="midnightblue" d="M750.77,-56.44C709.63,-46.16 641.12,-29.03 600.99,-19"/>
<polygon fill="midnightblue" stroke="midnightblue" points="601.75,-15.58 591.2,-16.55 600.05,-22.37 601.75,-15.58"/>
</g>
<!-- Node7 -->
<g id="node7" class="node">
<title>Node7</title>
<g id="a_node7"><a xlink:title=" ">
<polygon fill="white" stroke="#bfbfbf" points="748.5,-0.5 748.5,-19.5 821.5,-19.5 821.5,-0.5 748.5,-0.5"/>
<text text-anchor="middle" x="785" y="-7.5" font-family="Helvetica,sans-Serif" font-size="10.00">string_view</text>
</a>
</g>
</g>
<!-- Node6&#45;&gt;Node7 -->
<g id="edge9" class="edge">
<title>Node6&#45;&gt;Node7</title>
<path fill="none" stroke="midnightblue" d="M785,-56.08C785,-49.01 785,-38.86 785,-29.99"/>
<polygon fill="midnightblue" stroke="midnightblue" points="788.5,-29.75 785,-19.75 781.5,-29.75 788.5,-29.75"/>
</g>
<!-- Node10 -->
<g id="node10" class="node">
<title>Node10</title>
<g id="a_node10"><a xlink:title=" ">
<polygon fill="white" stroke="#bfbfbf" points="993,-56.5 993,-75.5 1079,-75.5 1079,-56.5 993,-56.5"/>
<text text-anchor="middle" x="1036" y="-63.5" font-family="Helvetica,sans-Serif" font-size="10.00">glog/logging.h</text>
</a>
</g>
</g>
<!-- Node9&#45;&gt;Node10 -->
<g id="edge13" class="edge">
<title>Node9&#45;&gt;Node10</title>
<path fill="none" stroke="midnightblue" d="M1036,-112.08C1036,-105.01 1036,-94.86 1036,-85.99"/>
<polygon fill="midnightblue" stroke="midnightblue" points="1039.5,-85.75 1036,-75.75 1032.5,-85.75 1039.5,-85.75"/>
</g>
<!-- Node11&#45;&gt;Node3 -->
<g id="edge16" class="edge">
<title>Node11&#45;&gt;Node3</title>
<path fill="none" stroke="midnightblue" d="M414.79,-112.24C404.65,-104.14 390.96,-91.11 385,-76 378.67,-59.95 386.55,-41.25 394.58,-28.04"/>
<polygon fill="midnightblue" stroke="midnightblue" points="397.63,-29.77 400.26,-19.51 391.8,-25.9 397.63,-29.77"/>
</g>
<!-- Node11&#45;&gt;Node4 -->
<g id="edge15" class="edge">
<title>Node11&#45;&gt;Node4</title>
<path fill="none" stroke="midnightblue" d="M448.19,-112.39C466.2,-104.48 492.22,-91.63 512,-76 529.58,-62.1 546.04,-42.31 556.71,-28.22"/>
<polygon fill="midnightblue" stroke="midnightblue" points="559.72,-30.03 562.84,-19.91 554.09,-25.88 559.72,-30.03"/>
</g>
<!-- Node11&#45;&gt;Node5 -->
<g id="edge17" class="edge">
<title>Node11&#45;&gt;Node5</title>
<path fill="none" stroke="midnightblue" d="M430.47,-112.08C433.31,-104.77 437.43,-94.18 440.96,-85.1"/>
<polygon fill="midnightblue" stroke="midnightblue" points="444.23,-86.34 444.6,-75.75 437.71,-83.8 444.23,-86.34"/>
</g>
<!-- Node12&#45;&gt;Node3 -->
<g id="edge20" class="edge">
<title>Node12&#45;&gt;Node3</title>
<path fill="none" stroke="midnightblue" d="M98.93,-112.46C158.12,-92.97 303.28,-45.16 371.05,-22.84"/>
<polygon fill="midnightblue" stroke="midnightblue" points="372.45,-26.06 380.86,-19.61 370.26,-19.41 372.45,-26.06"/>
</g>
<!-- Node12&#45;&gt;Node4 -->
<g id="edge19" class="edge">
<title>Node12&#45;&gt;Node4</title>
<path fill="none" stroke="midnightblue" d="M107.56,-112.48C144.17,-103.45 203.67,-88.76 255,-76 290.57,-67.16 299.21,-63.91 335,-56 406.8,-40.13 491.71,-24.61 536.9,-16.6"/>
<polygon fill="midnightblue" stroke="midnightblue" points="537.74,-20 546.98,-14.82 536.52,-13.11 537.74,-20"/>
</g>
<!-- Node12&#45;&gt;Node5 -->
<g id="edge21" class="edge">
<title>Node12&#45;&gt;Node5</title>
<path fill="none" stroke="midnightblue" d="M132.42,-112.44C200.82,-102.59 312.79,-86.47 383.33,-76.31"/>
<polygon fill="midnightblue" stroke="midnightblue" points="384.03,-79.75 393.43,-74.86 383.03,-72.82 384.03,-79.75"/>
</g>
<!-- Node13&#45;&gt;Node3 -->
<g id="edge24" class="edge">
<title>Node13&#45;&gt;Node3</title>
<path fill="none" stroke="midnightblue" d="M597.79,-112.48C580.16,-99.31 544.6,-73.71 512,-56 488.68,-43.33 461.05,-31.61 439.99,-23.31"/>
<polygon fill="midnightblue" stroke="midnightblue" points="441.11,-19.99 430.52,-19.63 438.58,-26.52 441.11,-19.99"/>
</g>
<!-- Node13&#45;&gt;Node4 -->
<g id="edge23" class="edge">
<title>Node13&#45;&gt;Node4</title>
<path fill="none" stroke="midnightblue" d="M605.86,-112.37C599.38,-94.54 584.38,-53.3 575.64,-29.27"/>
<polygon fill="midnightblue" stroke="midnightblue" points="578.83,-27.79 572.12,-19.59 572.25,-30.19 578.83,-27.79"/>
</g>
<!-- Node13&#45;&gt;Node5 -->
<g id="edge25" class="edge">
<title>Node13&#45;&gt;Node5</title>
<path fill="none" stroke="midnightblue" d="M583.49,-112.44C556.4,-103.36 513.41,-88.94 483.13,-78.78"/>
<polygon fill="midnightblue" stroke="midnightblue" points="483.99,-75.38 473.39,-75.52 481.76,-82.01 483.99,-75.38"/>
</g>
<!-- Node14&#45;&gt;Node3 -->
<g id="edge28" class="edge">
<title>Node14&#45;&gt;Node3</title>
<path fill="none" stroke="midnightblue" d="M254.7,-112.47C265.58,-99.07 288.25,-72.88 312,-56 331,-42.5 354.69,-31.27 373.66,-23.4"/>
<polygon fill="midnightblue" stroke="midnightblue" points="375.13,-26.58 383.1,-19.6 372.52,-20.09 375.13,-26.58"/>
</g>
<!-- Node14&#45;&gt;Node4 -->
<g id="edge27" class="edge">
<title>Node14&#45;&gt;Node4</title>
<path fill="none" stroke="midnightblue" d="M263.58,-112.32C288.55,-98.7 339.36,-72.22 385,-56 436.75,-37.61 499.29,-24.06 536.52,-16.87"/>
<polygon fill="midnightblue" stroke="midnightblue" points="537.6,-20.22 546.77,-14.92 536.29,-13.35 537.6,-20.22"/>
</g>
<!-- Node14&#45;&gt;Node5 -->
<g id="edge29" class="edge">
<title>Node14&#45;&gt;Node5</title>
<path fill="none" stroke="midnightblue" d="M279.69,-112.44C314.07,-103.16 369.08,-88.31 406.79,-78.13"/>
<polygon fill="midnightblue" stroke="midnightblue" points="407.72,-81.5 416.46,-75.52 405.89,-74.74 407.72,-81.5"/>
</g>
</g>
</svg>
