<?xml version="1.0" encoding="UTF-8" standalone="no"?>
<!DOCTYPE svg PUBLIC "-//W3C//DTD SVG 1.1//EN"
 "http://www.w3.org/Graphics/SVG/1.1/DTD/svg11.dtd">
<!-- Generated by graphviz version 2.43.0 (0)
 -->
<!-- Title: runtime/inc/command_factory.hpp Pages: 1 -->
<svg width="497pt" height="151pt"
 viewBox="0.00 0.00 496.50 151.00" xmlns="http://www.w3.org/2000/svg" xmlns:xlink="http://www.w3.org/1999/xlink">
<g id="graph0" class="graph" transform="scale(1 1) rotate(0) translate(4 147)">
<title>runtime/inc/command_factory.hpp</title>
<polygon fill="white" stroke="transparent" points="-4,4 -4,-147 492.5,-147 492.5,4 -4,4"/>
<!-- Node1 -->
<g id="node1" class="node">
<title>Node1</title>
<g id="a_node1"><a xlink:title="Declares the CommandFactory class for creating command objects based on container requests.">
<polygon fill="#bfbfbf" stroke="black" points="91,-112.5 91,-142.5 215,-142.5 215,-112.5 91,-112.5"/>
<text text-anchor="start" x="99" y="-130.5" font-family="Helvetica,sans-Serif" font-size="10.00">runtime/inc/command</text>
<text text-anchor="middle" x="153" y="-119.5" font-family="Helvetica,sans-Serif" font-size="10.00">_factory.hpp</text>
</a>
</g>
</g>
<!-- Node2 -->
<g id="node2" class="node">
<title>Node2</title>
<g id="a_node2"><a xlink:title=" ">
<polygon fill="white" stroke="#bfbfbf" points="0,-0.5 0,-19.5 58,-19.5 58,-0.5 0,-0.5"/>
<text text-anchor="middle" x="29" y="-7.5" font-family="Helvetica,sans-Serif" font-size="10.00">memory</text>
</a>
</g>
</g>
<!-- Node1&#45;&gt;Node2 -->
<g id="edge1" class="edge">
<title>Node1&#45;&gt;Node2</title>
<path fill="none" stroke="midnightblue" d="M90.81,-121.65C59.97,-115.73 25.28,-103.01 6,-76 -4.38,-61.45 5.17,-41.77 14.93,-27.88"/>
<polygon fill="midnightblue" stroke="midnightblue" points="17.89,-29.78 21.17,-19.71 12.32,-25.53 17.89,-29.78"/>
</g>
<!-- Node3 -->
<g id="node3" class="node">
<title>Node3</title>
<g id="a_node3"><a xlink:title=" ">
<polygon fill="white" stroke="#bfbfbf" points="161,-0.5 161,-19.5 205,-19.5 205,-0.5 161,-0.5"/>
<text text-anchor="middle" x="183" y="-7.5" font-family="Helvetica,sans-Serif" font-size="10.00">string</text>
</a>
</g>
</g>
<!-- Node1&#45;&gt;Node3 -->
<g id="edge2" class="edge">
<title>Node1&#45;&gt;Node3</title>
<path fill="none" stroke="midnightblue" d="M156.68,-112.34C162.08,-91.53 172.18,-52.66 178.17,-29.58"/>
<polygon fill="midnightblue" stroke="midnightblue" points="181.62,-30.23 180.75,-19.67 174.85,-28.47 181.62,-30.23"/>
</g>
<!-- Node4 -->
<g id="node4" class="node">
<title>Node4</title>
<g id="a_node4"><a xlink:href="commands_8hpp.html" target="_top" xlink:title=" ">
<polygon fill="white" stroke="black" points="15.5,-56.5 15.5,-75.5 124.5,-75.5 124.5,-56.5 15.5,-56.5"/>
<text text-anchor="middle" x="70" y="-63.5" font-family="Helvetica,sans-Serif" font-size="10.00">inc/commands.hpp</text>
</a>
</g>
</g>
<!-- Node1&#45;&gt;Node4 -->
<g id="edge3" class="edge">
<title>Node1&#45;&gt;Node4</title>
<path fill="none" stroke="midnightblue" d="M133.33,-112.4C120.4,-103.13 103.51,-91.03 90.43,-81.65"/>
<polygon fill="midnightblue" stroke="midnightblue" points="92.24,-78.64 82.08,-75.66 88.17,-84.33 92.24,-78.64"/>
</g>
<!-- Node5 -->
<g id="node5" class="node">
<title>Node5</title>
<g id="a_node5"><a xlink:href="common_8hpp.html" target="_top" xlink:title="Defines common constants, string views, and utility structures for the application.">
<polygon fill="white" stroke="black" points="343,-56.5 343,-75.5 441,-75.5 441,-56.5 343,-56.5"/>
<text text-anchor="middle" x="392" y="-63.5" font-family="Helvetica,sans-Serif" font-size="10.00">inc/common.hpp</text>
</a>
</g>
</g>
<!-- Node1&#45;&gt;Node5 -->
<g id="edge6" class="edge">
<title>Node1&#45;&gt;Node5</title>
<path fill="none" stroke="midnightblue" d="M209.34,-112.47C251.65,-101.94 308.79,-87.72 347.82,-78"/>
<polygon fill="midnightblue" stroke="midnightblue" points="348.97,-81.32 357.83,-75.51 347.28,-74.53 348.97,-81.32"/>
</g>
<!-- Node8 -->
<g id="node8" class="node">
<title>Node8</title>
<g id="a_node8"><a xlink:href="container__request_8hpp.html" target="_top" xlink:title="Data structure for representing a container operation request.">
<polygon fill="white" stroke="black" points="181.5,-56.5 181.5,-75.5 324.5,-75.5 324.5,-56.5 181.5,-56.5"/>
<text text-anchor="middle" x="253" y="-63.5" font-family="Helvetica,sans-Serif" font-size="10.00">inc/container_request.hpp</text>
</a>
</g>
</g>
<!-- Node1&#45;&gt;Node8 -->
<g id="edge10" class="edge">
<title>Node1&#45;&gt;Node8</title>
<path fill="none" stroke="midnightblue" d="M176.7,-112.4C192.73,-102.86 213.8,-90.32 229.74,-80.84"/>
<polygon fill="midnightblue" stroke="midnightblue" points="231.64,-83.78 238.45,-75.66 228.07,-77.76 231.64,-83.78"/>
</g>
<!-- Node4&#45;&gt;Node2 -->
<g id="edge5" class="edge">
<title>Node4&#45;&gt;Node2</title>
<path fill="none" stroke="midnightblue" d="M63.23,-56.08C57.44,-48.46 48.94,-37.26 41.86,-27.94"/>
<polygon fill="midnightblue" stroke="midnightblue" points="44.48,-25.6 35.64,-19.75 38.9,-29.83 44.48,-25.6"/>
</g>
<!-- Node4&#45;&gt;Node3 -->
<g id="edge4" class="edge">
<title>Node4&#45;&gt;Node3</title>
<path fill="none" stroke="midnightblue" d="M87.91,-56.44C106.25,-47.68 135.01,-33.94 156.09,-23.86"/>
<polygon fill="midnightblue" stroke="midnightblue" points="157.67,-26.99 165.18,-19.52 154.65,-20.67 157.67,-26.99"/>
</g>
<!-- Node5&#45;&gt;Node3 -->
<g id="edge7" class="edge">
<title>Node5&#45;&gt;Node3</title>
<path fill="none" stroke="midnightblue" d="M358.88,-56.44C319.37,-46.23 253.76,-29.28 214.82,-19.22"/>
<polygon fill="midnightblue" stroke="midnightblue" points="215.62,-15.81 205.06,-16.7 213.87,-22.59 215.62,-15.81"/>
</g>
<!-- Node6 -->
<g id="node6" class="node">
<title>Node6</title>
<g id="a_node6"><a xlink:title=" ">
<polygon fill="white" stroke="#bfbfbf" points="304.5,-0.5 304.5,-19.5 377.5,-19.5 377.5,-0.5 304.5,-0.5"/>
<text text-anchor="middle" x="341" y="-7.5" font-family="Helvetica,sans-Serif" font-size="10.00">string_view</text>
</a>
</g>
</g>
<!-- Node5&#45;&gt;Node6 -->
<g id="edge8" class="edge">
<title>Node5&#45;&gt;Node6</title>
<path fill="none" stroke="midnightblue" d="M383.58,-56.08C376.15,-48.22 365.15,-36.57 356.19,-27.08"/>
<polygon fill="midnightblue" stroke="midnightblue" points="358.68,-24.62 349.26,-19.75 353.59,-29.42 358.68,-24.62"/>
</g>
<!-- Node7 -->
<g id="node7" class="node">
<title>Node7</title>
<g id="a_node7"><a xlink:title=" ">
<polygon fill="white" stroke="#bfbfbf" points="395.5,-0.5 395.5,-19.5 488.5,-19.5 488.5,-0.5 395.5,-0.5"/>
<text text-anchor="middle" x="442" y="-7.5" font-family="Helvetica,sans-Serif" font-size="10.00">unordered_map</text>
</a>
</g>
</g>
<!-- Node5&#45;&gt;Node7 -->
<g id="edge9" class="edge">
<title>Node5&#45;&gt;Node7</title>
<path fill="none" stroke="midnightblue" d="M400.26,-56.08C407.46,-48.3 418.11,-36.8 426.85,-27.37"/>
<polygon fill="midnightblue" stroke="midnightblue" points="429.67,-29.47 433.9,-19.75 424.53,-24.71 429.67,-29.47"/>
</g>
<!-- Node8&#45;&gt;Node3 -->
<g id="edge11" class="edge">
<title>Node8&#45;&gt;Node3</title>
<path fill="none" stroke="midnightblue" d="M241.75,-56.32C231.2,-48.18 215.2,-35.84 202.56,-26.09"/>
<polygon fill="midnightblue" stroke="midnightblue" points="204.51,-23.17 194.45,-19.83 200.23,-28.71 204.51,-23.17"/>
</g>
</g>
</svg>
