<?xml version="1.0" encoding="UTF-8" standalone="no"?>
<!DOCTYPE svg PUBLIC "-//W3C//DTD SVG 1.1//EN"
 "http://www.w3.org/Graphics/SVG/1.1/DTD/svg11.dtd">
<!-- Generated by graphviz version 2.43.0 (0)
 -->
<!-- Title: utils/inc/common.hpp Pages: 1 -->
<svg width="1884pt" height="162pt"
 viewBox="0.00 0.00 1883.50 162.00" xmlns="http://www.w3.org/2000/svg" xmlns:xlink="http://www.w3.org/1999/xlink">
<g id="graph0" class="graph" transform="scale(1 1) rotate(0) translate(4 158)">
<title>utils/inc/common.hpp</title>
<polygon fill="white" stroke="transparent" points="-4,4 -4,-158 1879.5,-158 1879.5,4 -4,4"/>
<!-- Node1 -->
<g id="node1" class="node">
<title>Node1</title>
<g id="a_node1"><a xlink:title="Defines common constants, string views, and utility structures for the application.">
<polygon fill="#bfbfbf" stroke="black" points="811.5,-134.5 811.5,-153.5 933.5,-153.5 933.5,-134.5 811.5,-134.5"/>
<text text-anchor="middle" x="872.5" y="-141.5" font-family="Helvetica,sans-Serif" font-size="10.00">utils/inc/common.hpp</text>
</a>
</g>
</g>
<!-- Node2 -->
<g id="node2" class="node">
<title>Node2</title>
<g id="a_node2"><a xlink:href="dbus__consumer_8hpp.html" target="_top" xlink:title="Defines the DBusConsumer class for receiving and processing JSON/Protobuf requests over D&#45;Bus.">
<polygon fill="white" stroke="black" points="0,-73 0,-92 149,-92 149,-73 0,-73"/>
<text text-anchor="middle" x="74.5" y="-80" font-family="Helvetica,sans-Serif" font-size="10.00">api/inc/dbus_consumer.hpp</text>
</a>
</g>
</g>
<!-- Node1&#45;&gt;Node2 -->
<g id="edge1" class="edge">
<title>Node1&#45;&gt;Node2</title>
<path fill="none" stroke="midnightblue" d="M801.04,-141.05C672.23,-136.97 392.7,-125.51 158.5,-98 145.57,-96.48 131.6,-94.29 118.84,-92.07"/>
<polygon fill="midnightblue" stroke="midnightblue" points="801.07,-144.55 811.17,-141.37 801.29,-137.56 801.07,-144.55"/>
</g>
<!-- Node4 -->
<g id="node4" class="node">
<title>Node4</title>
<g id="a_node4"><a xlink:href="http__server_8hpp.html" target="_top" xlink:title="Defines the HttpServerHandler class for handling HTTP requests.">
<polygon fill="white" stroke="black" points="167.5,-73 167.5,-92 295.5,-92 295.5,-73 167.5,-73"/>
<text text-anchor="middle" x="231.5" y="-80" font-family="Helvetica,sans-Serif" font-size="10.00">api/inc/http_server.hpp</text>
</a>
</g>
</g>
<!-- Node1&#45;&gt;Node4 -->
<g id="edge3" class="edge">
<title>Node1&#45;&gt;Node4</title>
<path fill="none" stroke="midnightblue" d="M801.19,-140.03C693.28,-134.94 482.24,-122.61 304.5,-98 293.24,-96.44 281.09,-94.24 270,-92.02"/>
<polygon fill="midnightblue" stroke="midnightblue" points="801.15,-143.53 811.31,-140.5 801.48,-136.54 801.15,-143.53"/>
</g>
<!-- Node6 -->
<g id="node6" class="node">
<title>Node6</title>
<g id="a_node6"><a xlink:href="posix__message__queue__consumer_8hpp.html" target="_top" xlink:title="Declares the MessageQueueConsumer class for handling messages from a POSIX message queue.">
<polygon fill="white" stroke="black" points="313.5,-67.5 313.5,-97.5 441.5,-97.5 441.5,-67.5 313.5,-67.5"/>
<text text-anchor="start" x="321.5" y="-85.5" font-family="Helvetica,sans-Serif" font-size="10.00">api/inc/posix_message</text>
<text text-anchor="middle" x="377.5" y="-74.5" font-family="Helvetica,sans-Serif" font-size="10.00">_queue_consumer.hpp</text>
</a>
</g>
</g>
<!-- Node1&#45;&gt;Node6 -->
<g id="edge5" class="edge">
<title>Node1&#45;&gt;Node6</title>
<path fill="none" stroke="midnightblue" d="M801.09,-136.96C717.88,-129.55 576.36,-115.73 455.5,-98 451,-97.34 446.37,-96.61 441.71,-95.84"/>
<polygon fill="midnightblue" stroke="midnightblue" points="800.92,-140.46 811.19,-137.86 801.54,-133.49 800.92,-140.46"/>
</g>
<!-- Node7 -->
<g id="node7" class="node">
<title>Node7</title>
<g id="a_node7"><a xlink:href="posix__message__queue__consumer_8cpp.html" target="_top" xlink:title="Implements the MessageQueueConsumer class for handling messages from a POSIX message queue.">
<polygon fill="white" stroke="black" points="322.5,-0.5 322.5,-30.5 450.5,-30.5 450.5,-0.5 322.5,-0.5"/>
<text text-anchor="start" x="330.5" y="-18.5" font-family="Helvetica,sans-Serif" font-size="10.00">api/src/posix_message</text>
<text text-anchor="middle" x="386.5" y="-7.5" font-family="Helvetica,sans-Serif" font-size="10.00">_queue_consumer.cpp</text>
</a>
</g>
</g>
<!-- Node1&#45;&gt;Node7 -->
<g id="edge7" class="edge">
<title>Node1&#45;&gt;Node7</title>
<path fill="none" stroke="midnightblue" d="M801.07,-139.41C705.92,-133.81 543.22,-121.17 488.5,-98 468.43,-89.5 467.5,-80.64 450.5,-67 435.04,-54.6 417.35,-40.66 404.49,-30.57"/>
<polygon fill="midnightblue" stroke="midnightblue" points="801.01,-142.91 811.2,-139.99 801.41,-135.92 801.01,-142.91"/>
</g>
<!-- Node8 -->
<g id="node8" class="node">
<title>Node8</title>
<g id="a_node8"><a xlink:href="container__service_8cpp.html" target="_top" xlink:title="Implements the ContainerServiceHandler class for business logic related to containers.">
<polygon fill="white" stroke="black" points="854.5,-0.5 854.5,-30.5 958.5,-30.5 958.5,-0.5 854.5,-0.5"/>
<text text-anchor="start" x="862.5" y="-18.5" font-family="Helvetica,sans-Serif" font-size="10.00">core/src/container</text>
<text text-anchor="middle" x="906.5" y="-7.5" font-family="Helvetica,sans-Serif" font-size="10.00">_service.cpp</text>
</a>
</g>
</g>
<!-- Node1&#45;&gt;Node8 -->
<g id="edge8" class="edge">
<title>Node1&#45;&gt;Node8</title>
<path fill="none" stroke="midnightblue" d="M801.4,-133.35C748.1,-123.05 688.75,-103.09 716.5,-67 733.25,-45.22 804.08,-30.86 854.34,-23.2"/>
<polygon fill="midnightblue" stroke="midnightblue" points="800.8,-136.8 811.26,-135.16 802.06,-129.91 800.8,-136.8"/>
</g>
<!-- Node9 -->
<g id="node9" class="node">
<title>Node9</title>
<g id="a_node9"><a xlink:href="embedded__database_8hpp.html" target="_top" xlink:title="Declares the EmbeddedDatabaseHandler class for a lightweight, fixed&#45;size in&#45;memory database.">
<polygon fill="white" stroke="black" points="497.5,-67.5 497.5,-97.5 631.5,-97.5 631.5,-67.5 497.5,-67.5"/>
<text text-anchor="start" x="505.5" y="-85.5" font-family="Helvetica,sans-Serif" font-size="10.00">database/inc/embedded</text>
<text text-anchor="middle" x="564.5" y="-74.5" font-family="Helvetica,sans-Serif" font-size="10.00">_database.hpp</text>
</a>
</g>
</g>
<!-- Node1&#45;&gt;Node9 -->
<g id="edge9" class="edge">
<title>Node1&#45;&gt;Node9</title>
<path fill="none" stroke="midnightblue" d="M818.33,-132.54C766.28,-122.48 687.5,-107.26 631.52,-96.45"/>
<polygon fill="midnightblue" stroke="midnightblue" points="817.89,-136.01 828.37,-134.48 819.22,-129.14 817.89,-136.01"/>
</g>
<!-- Node11 -->
<g id="node11" class="node">
<title>Node11</title>
<g id="a_node11"><a xlink:href="main_8cpp.html" target="_top" xlink:title="Entry point for the Container Manager application.">
<polygon fill="white" stroke="black" points="628.5,-6 628.5,-25 690.5,-25 690.5,-6 628.5,-6"/>
<text text-anchor="middle" x="659.5" y="-13" font-family="Helvetica,sans-Serif" font-size="10.00">main.cpp</text>
</a>
</g>
</g>
<!-- Node1&#45;&gt;Node11 -->
<g id="edge14" class="edge">
<title>Node1&#45;&gt;Node11</title>
<path fill="none" stroke="midnightblue" d="M801.05,-136.64C768.84,-130.75 731.97,-119.49 704.5,-98 679.81,-78.68 666.7,-41.84 661.79,-25.13"/>
<polygon fill="midnightblue" stroke="midnightblue" points="800.89,-140.16 811.33,-138.36 802.05,-133.25 800.89,-140.16"/>
</g>
<!-- Node12 -->
<g id="node12" class="node">
<title>Node12</title>
<g id="a_node12"><a xlink:href="json__request__executor_8cpp.html" target="_top" xlink:title="Implements the JsonRequestExecutorHandler class for executing JSON&#45;based requests.">
<polygon fill="white" stroke="black" points="725.5,-67.5 725.5,-97.5 867.5,-97.5 867.5,-67.5 725.5,-67.5"/>
<text text-anchor="start" x="733.5" y="-85.5" font-family="Helvetica,sans-Serif" font-size="10.00">executor/src/json_request</text>
<text text-anchor="middle" x="796.5" y="-74.5" font-family="Helvetica,sans-Serif" font-size="10.00">_executor.cpp</text>
</a>
</g>
</g>
<!-- Node1&#45;&gt;Node12 -->
<g id="edge12" class="edge">
<title>Node1&#45;&gt;Node12</title>
<path fill="none" stroke="midnightblue" d="M853.59,-128.2C841.61,-118.81 826.2,-106.75 814.41,-97.52"/>
<polygon fill="midnightblue" stroke="midnightblue" points="851.58,-131.07 861.61,-134.48 855.89,-125.55 851.58,-131.07"/>
</g>
<!-- Node13 -->
<g id="node13" class="node">
<title>Node13</title>
<g id="a_node13"><a xlink:href="protobuf__request__executor_8cpp.html" target="_top" xlink:title="Implements the ProtoRequestExecutorHandler class for handling Protobuf&#45;based requests.">
<polygon fill="white" stroke="black" points="886,-67.5 886,-97.5 1013,-97.5 1013,-67.5 886,-67.5"/>
<text text-anchor="start" x="894" y="-85.5" font-family="Helvetica,sans-Serif" font-size="10.00">executor/src/protobuf</text>
<text text-anchor="middle" x="949.5" y="-74.5" font-family="Helvetica,sans-Serif" font-size="10.00">_request_executor.cpp</text>
</a>
</g>
</g>
<!-- Node1&#45;&gt;Node13 -->
<g id="edge13" class="edge">
<title>Node1&#45;&gt;Node13</title>
<path fill="none" stroke="midnightblue" d="M891.66,-128.2C903.8,-118.81 919.41,-106.75 931.35,-97.52"/>
<polygon fill="midnightblue" stroke="midnightblue" points="889.31,-125.59 883.53,-134.48 893.59,-131.13 889.31,-125.59"/>
</g>
<!-- Node14 -->
<g id="node14" class="node">
<title>Node14</title>
<g id="a_node14"><a xlink:href="command__factory_8hpp.html" target="_top" xlink:title="Declares the CommandFactory class for creating command objects based on container requests.">
<polygon fill="white" stroke="black" points="1031.5,-67.5 1031.5,-97.5 1155.5,-97.5 1155.5,-67.5 1031.5,-67.5"/>
<text text-anchor="start" x="1039.5" y="-85.5" font-family="Helvetica,sans-Serif" font-size="10.00">runtime/inc/command</text>
<text text-anchor="middle" x="1093.5" y="-74.5" font-family="Helvetica,sans-Serif" font-size="10.00">_factory.hpp</text>
</a>
</g>
</g>
<!-- Node1&#45;&gt;Node14 -->
<g id="edge15" class="edge">
<title>Node1&#45;&gt;Node14</title>
<path fill="none" stroke="midnightblue" d="M913.88,-131.86C949.96,-122.14 1002.48,-108.01 1041.41,-97.52"/>
<polygon fill="midnightblue" stroke="midnightblue" points="912.91,-128.5 904.16,-134.48 914.73,-135.25 912.91,-128.5"/>
</g>
<!-- Node15 -->
<g id="node15" class="node">
<title>Node15</title>
<g id="a_node15"><a xlink:href="command__factory_8cpp.html" target="_top" xlink:title="Implements the CommandFactory class for creating command objects based on container requests.">
<polygon fill="white" stroke="black" points="1076.5,-0.5 1076.5,-30.5 1200.5,-30.5 1200.5,-0.5 1076.5,-0.5"/>
<text text-anchor="start" x="1084.5" y="-18.5" font-family="Helvetica,sans-Serif" font-size="10.00">runtime/src/command</text>
<text text-anchor="middle" x="1138.5" y="-7.5" font-family="Helvetica,sans-Serif" font-size="10.00">_factory.cpp</text>
</a>
</g>
</g>
<!-- Node1&#45;&gt;Node15 -->
<g id="edge18" class="edge">
<title>Node1&#45;&gt;Node15</title>
<path fill="none" stroke="midnightblue" d="M943.73,-142.25C1020.85,-139.75 1136.62,-130.51 1164.5,-98 1181.13,-78.61 1163.68,-48.48 1150.43,-30.8"/>
<polygon fill="midnightblue" stroke="midnightblue" points="943.48,-138.76 933.58,-142.55 943.68,-145.76 943.48,-138.76"/>
</g>
<!-- Node16 -->
<g id="node16" class="node">
<title>Node16</title>
<g id="a_node16"><a xlink:href="docker__api__commands_8cpp.html" target="_top" xlink:title="Implements Docker API command classes for managing containers via the Docker HTTP API over a Unix soc...">
<polygon fill="white" stroke="black" points="1211.5,-67.5 1211.5,-97.5 1327.5,-97.5 1327.5,-67.5 1211.5,-67.5"/>
<text text-anchor="start" x="1219.5" y="-85.5" font-family="Helvetica,sans-Serif" font-size="10.00">runtime/src/docker</text>
<text text-anchor="middle" x="1269.5" y="-74.5" font-family="Helvetica,sans-Serif" font-size="10.00">_api_commands.cpp</text>
</a>
</g>
</g>
<!-- Node1&#45;&gt;Node16 -->
<g id="edge19" class="edge">
<title>Node1&#45;&gt;Node16</title>
<path fill="none" stroke="midnightblue" d="M944.05,-134.37C1010.03,-126.11 1110.61,-112.75 1197.5,-98 1202.03,-97.23 1206.7,-96.39 1211.4,-95.52"/>
<polygon fill="midnightblue" stroke="midnightblue" points="943.26,-130.94 933.77,-135.65 944.12,-137.89 943.26,-130.94"/>
</g>
<!-- Node17 -->
<g id="node17" class="node">
<title>Node17</title>
<g id="a_node17"><a xlink:href="docker__commands_8cpp.html" target="_top" xlink:title="Implements Docker command classes for container operations.">
<polygon fill="white" stroke="black" points="1346,-67.5 1346,-97.5 1453,-97.5 1453,-67.5 1346,-67.5"/>
<text text-anchor="start" x="1354" y="-85.5" font-family="Helvetica,sans-Serif" font-size="10.00">runtime/src/docker</text>
<text text-anchor="middle" x="1399.5" y="-74.5" font-family="Helvetica,sans-Serif" font-size="10.00">_commands.cpp</text>
</a>
</g>
</g>
<!-- Node1&#45;&gt;Node17 -->
<g id="edge20" class="edge">
<title>Node1&#45;&gt;Node17</title>
<path fill="none" stroke="midnightblue" d="M943.87,-138.96C1035.29,-133.12 1198.43,-120.49 1336.5,-98 1339.6,-97.49 1342.78,-96.93 1345.98,-96.32"/>
<polygon fill="midnightblue" stroke="midnightblue" points="943.39,-135.48 933.63,-139.6 943.83,-142.47 943.39,-135.48"/>
</g>
<!-- Node18 -->
<g id="node18" class="node">
<title>Node18</title>
<g id="a_node18"><a xlink:href="podman__api__commands_8cpp.html" target="_top" xlink:title="Implements Podman API command classes for managing containers via the Podman HTTP API over a Unix soc...">
<polygon fill="white" stroke="black" points="1471.5,-67.5 1471.5,-97.5 1587.5,-97.5 1587.5,-67.5 1471.5,-67.5"/>
<text text-anchor="start" x="1479.5" y="-85.5" font-family="Helvetica,sans-Serif" font-size="10.00">runtime/src/podman</text>
<text text-anchor="middle" x="1529.5" y="-74.5" font-family="Helvetica,sans-Serif" font-size="10.00">_api_commands.cpp</text>
</a>
</g>
</g>
<!-- Node1&#45;&gt;Node18 -->
<g id="edge21" class="edge">
<title>Node1&#45;&gt;Node18</title>
<path fill="none" stroke="midnightblue" d="M943.62,-140.72C1054.83,-136.45 1276.43,-125.1 1462.5,-98 1465.44,-97.57 1468.45,-97.09 1471.48,-96.56"/>
<polygon fill="midnightblue" stroke="midnightblue" points="943.39,-137.23 933.53,-141.1 943.66,-144.22 943.39,-137.23"/>
</g>
<!-- Node19 -->
<g id="node19" class="node">
<title>Node19</title>
<g id="a_node19"><a xlink:href="podman__commands_8cpp.html" target="_top" xlink:title="Implements Podman command classes for container operations.">
<polygon fill="white" stroke="black" points="1606,-67.5 1606,-97.5 1721,-97.5 1721,-67.5 1606,-67.5"/>
<text text-anchor="start" x="1614" y="-85.5" font-family="Helvetica,sans-Serif" font-size="10.00">runtime/src/podman</text>
<text text-anchor="middle" x="1663.5" y="-74.5" font-family="Helvetica,sans-Serif" font-size="10.00">_commands.cpp</text>
</a>
</g>
</g>
<!-- Node1&#45;&gt;Node19 -->
<g id="edge22" class="edge">
<title>Node1&#45;&gt;Node19</title>
<path fill="none" stroke="midnightblue" d="M944.08,-142.13C1074.45,-139.74 1359.05,-130.88 1596.5,-98 1599.57,-97.58 1602.7,-97.09 1605.86,-96.55"/>
<polygon fill="midnightblue" stroke="midnightblue" points="943.77,-138.63 933.83,-142.31 943.89,-145.63 943.77,-138.63"/>
</g>
<!-- Node20 -->
<g id="node20" class="node">
<title>Node20</title>
<g id="a_node20"><a xlink:href="init__handler_8cpp.html" target="_top" xlink:title="Implements project&#45;wide initialization functions for the Container Manager application.">
<polygon fill="white" stroke="black" points="1739.5,-73 1739.5,-92 1875.5,-92 1875.5,-73 1739.5,-73"/>
<text text-anchor="middle" x="1807.5" y="-80" font-family="Helvetica,sans-Serif" font-size="10.00">utils/src/init_handler.cpp</text>
</a>
</g>
</g>
<!-- Node1&#45;&gt;Node20 -->
<g id="edge23" class="edge">
<title>Node1&#45;&gt;Node20</title>
<path fill="none" stroke="midnightblue" d="M943.86,-142.48C1091.33,-140.69 1440.15,-132.79 1730.5,-98 1742.66,-96.54 1755.78,-94.32 1767.69,-92.05"/>
<polygon fill="midnightblue" stroke="midnightblue" points="943.56,-138.98 933.6,-142.6 943.64,-145.98 943.56,-138.98"/>
</g>
<!-- Node3 -->
<g id="node3" class="node">
<title>Node3</title>
<g id="a_node3"><a xlink:href="dbus__consumer_8cpp.html" target="_top" xlink:title="Implements the DBusConsumer class for receiving and processing JSON/Protobuf requests over D&#45;Bus.">
<polygon fill="white" stroke="black" points="0,-6 0,-25 149,-25 149,-6 0,-6"/>
<text text-anchor="middle" x="74.5" y="-13" font-family="Helvetica,sans-Serif" font-size="10.00">api/src/dbus_consumer.cpp</text>
</a>
</g>
</g>
<!-- Node2&#45;&gt;Node3 -->
<g id="edge2" class="edge">
<title>Node2&#45;&gt;Node3</title>
<path fill="none" stroke="midnightblue" d="M74.5,-62.54C74.5,-50.17 74.5,-34.62 74.5,-25.13"/>
<polygon fill="midnightblue" stroke="midnightblue" points="71,-62.73 74.5,-72.73 78,-62.73 71,-62.73"/>
</g>
<!-- Node5 -->
<g id="node5" class="node">
<title>Node5</title>
<g id="a_node5"><a xlink:href="http__server_8cpp.html" target="_top" xlink:title="Implements the HttpServerHandler class for handling HTTP requests.">
<polygon fill="white" stroke="black" points="167.5,-6 167.5,-25 295.5,-25 295.5,-6 167.5,-6"/>
<text text-anchor="middle" x="231.5" y="-13" font-family="Helvetica,sans-Serif" font-size="10.00">api/src/http_server.cpp</text>
</a>
</g>
</g>
<!-- Node4&#45;&gt;Node5 -->
<g id="edge4" class="edge">
<title>Node4&#45;&gt;Node5</title>
<path fill="none" stroke="midnightblue" d="M231.5,-62.54C231.5,-50.17 231.5,-34.62 231.5,-25.13"/>
<polygon fill="midnightblue" stroke="midnightblue" points="228,-62.73 231.5,-72.73 235,-62.73 228,-62.73"/>
</g>
<!-- Node6&#45;&gt;Node7 -->
<g id="edge6" class="edge">
<title>Node6&#45;&gt;Node7</title>
<path fill="none" stroke="midnightblue" d="M380.84,-57.4C382.09,-48.37 383.47,-38.41 384.55,-30.58"/>
<polygon fill="midnightblue" stroke="midnightblue" points="377.36,-57.01 379.45,-67.4 384.29,-57.97 377.36,-57.01"/>
</g>
<!-- Node10 -->
<g id="node10" class="node">
<title>Node10</title>
<g id="a_node10"><a xlink:href="embedded__database_8cpp.html" target="_top" xlink:title="Implements the EmbeddedDatabaseHandler class for a lightweight, fixed&#45;size in&#45;memory database.">
<polygon fill="white" stroke="black" points="476.5,-0.5 476.5,-30.5 610.5,-30.5 610.5,-0.5 476.5,-0.5"/>
<text text-anchor="start" x="484.5" y="-18.5" font-family="Helvetica,sans-Serif" font-size="10.00">database/src/embedded</text>
<text text-anchor="middle" x="543.5" y="-7.5" font-family="Helvetica,sans-Serif" font-size="10.00">_database.cpp</text>
</a>
</g>
</g>
<!-- Node9&#45;&gt;Node10 -->
<g id="edge10" class="edge">
<title>Node9&#45;&gt;Node10</title>
<path fill="none" stroke="midnightblue" d="M556.81,-57.7C553.87,-48.59 550.61,-38.49 548.05,-30.58"/>
<polygon fill="midnightblue" stroke="midnightblue" points="553.54,-58.96 559.94,-67.4 560.2,-56.8 553.54,-58.96"/>
</g>
<!-- Node9&#45;&gt;Node11 -->
<g id="edge11" class="edge">
<title>Node9&#45;&gt;Node11</title>
<path fill="none" stroke="midnightblue" d="M593.52,-61.64C611.45,-49.37 633.54,-34.26 647.07,-25.01"/>
<polygon fill="midnightblue" stroke="midnightblue" points="591.39,-58.86 585.11,-67.4 595.34,-64.64 591.39,-58.86"/>
</g>
<!-- Node14&#45;&gt;Node8 -->
<g id="edge16" class="edge">
<title>Node14&#45;&gt;Node8</title>
<path fill="none" stroke="midnightblue" d="M1043.42,-64.09C1013.23,-53.6 975.28,-40.41 947,-30.58"/>
<polygon fill="midnightblue" stroke="midnightblue" points="1042.33,-67.42 1052.92,-67.4 1044.63,-60.81 1042.33,-67.42"/>
</g>
<!-- Node14&#45;&gt;Node15 -->
<g id="edge17" class="edge">
<title>Node14&#45;&gt;Node15</title>
<path fill="none" stroke="midnightblue" d="M1108.97,-59.16C1115.53,-49.68 1122.98,-38.92 1128.75,-30.58"/>
<polygon fill="midnightblue" stroke="midnightblue" points="1106.08,-57.18 1103.26,-67.4 1111.83,-61.17 1106.08,-57.18"/>
</g>
</g>
</svg>
