<?xml version="1.0" encoding="UTF-8" standalone="no"?>
<!DOCTYPE svg PUBLIC "-//W3C//DTD SVG 1.1//EN"
 "http://www.w3.org/Graphics/SVG/1.1/DTD/svg11.dtd">
<!-- Generated by graphviz version 2.43.0 (0)
 -->
<!-- Title: runtime/src/command_factory.cpp Pages: 1 -->
<svg width="1089pt" height="207pt"
 viewBox="0.00 0.00 1089.00 207.00" xmlns="http://www.w3.org/2000/svg" xmlns:xlink="http://www.w3.org/1999/xlink">
<g id="graph0" class="graph" transform="scale(1 1) rotate(0) translate(4 203)">
<title>runtime/src/command_factory.cpp</title>
<polygon fill="white" stroke="transparent" points="-4,4 -4,-203 1085,-203 1085,4 -4,4"/>
<!-- Node1 -->
<g id="node1" class="node">
<title>Node1</title>
<g id="a_node1"><a xlink:title=" ">
<polygon fill="#bfbfbf" stroke="black" points="634.5,-168.5 634.5,-198.5 758.5,-198.5 758.5,-168.5 634.5,-168.5"/>
<text text-anchor="start" x="642.5" y="-186.5" font-family="Helvetica,sans-Serif" font-size="10.00">runtime/src/command</text>
<text text-anchor="middle" x="696.5" y="-175.5" font-family="Helvetica,sans-Serif" font-size="10.00">_factory.cpp</text>
</a>
</g>
</g>
<!-- Node2 -->
<g id="node2" class="node">
<title>Node2</title>
<g id="a_node2"><a xlink:href="command__factory_8hpp.html" target="_top" xlink:title=" ">
<polygon fill="white" stroke="black" points="713.5,-112.5 713.5,-131.5 855.5,-131.5 855.5,-112.5 713.5,-112.5"/>
<text text-anchor="middle" x="784.5" y="-119.5" font-family="Helvetica,sans-Serif" font-size="10.00">inc/command_factory.hpp</text>
</a>
</g>
</g>
<!-- Node1&#45;&gt;Node2 -->
<g id="edge1" class="edge">
<title>Node1&#45;&gt;Node2</title>
<path fill="none" stroke="midnightblue" d="M717.35,-168.4C731.2,-159.04 749.31,-146.79 763.24,-137.38"/>
<polygon fill="midnightblue" stroke="midnightblue" points="765.37,-140.16 771.7,-131.66 761.45,-134.36 765.37,-140.16"/>
</g>
<!-- Node6 -->
<g id="node6" class="node">
<title>Node6</title>
<g id="a_node6"><a xlink:href="common_8hpp.html" target="_top" xlink:title="Defines common constants, string views, and utility structures for the application.">
<polygon fill="white" stroke="black" points="735.5,-56.5 735.5,-75.5 833.5,-75.5 833.5,-56.5 735.5,-56.5"/>
<text text-anchor="middle" x="784.5" y="-63.5" font-family="Helvetica,sans-Serif" font-size="10.00">inc/common.hpp</text>
</a>
</g>
</g>
<!-- Node1&#45;&gt;Node6 -->
<g id="edge12" class="edge">
<title>Node1&#45;&gt;Node6</title>
<path fill="none" stroke="midnightblue" d="M758.84,-181.24C795.93,-176.87 840.33,-164.5 864.5,-132 880.95,-109.87 848.62,-90.83 820.27,-79.18"/>
<polygon fill="midnightblue" stroke="midnightblue" points="821.47,-75.89 810.88,-75.52 818.92,-82.42 821.47,-75.89"/>
</g>
<!-- Node9 -->
<g id="node9" class="node">
<title>Node9</title>
<g id="a_node9"><a xlink:title=" ">
<polygon fill="white" stroke="#bfbfbf" points="911.5,-112.5 911.5,-131.5 971.5,-131.5 971.5,-112.5 911.5,-112.5"/>
<text text-anchor="middle" x="941.5" y="-119.5" font-family="Helvetica,sans-Serif" font-size="10.00">iostream</text>
</a>
</g>
</g>
<!-- Node1&#45;&gt;Node9 -->
<g id="edge11" class="edge">
<title>Node1&#45;&gt;Node9</title>
<path fill="none" stroke="midnightblue" d="M754.25,-168.47C799.54,-157.48 861.4,-142.45 901.4,-132.74"/>
<polygon fill="midnightblue" stroke="midnightblue" points="902.43,-136.09 911.33,-130.33 900.78,-129.29 902.43,-136.09"/>
</g>
<!-- Node10 -->
<g id="node10" class="node">
<title>Node10</title>
<g id="a_node10"><a xlink:href="logging_8hpp.html" target="_top" xlink:title="Logging macros and configuration for the Container Manager.">
<polygon fill="white" stroke="black" points="990,-112.5 990,-131.5 1081,-131.5 1081,-112.5 990,-112.5"/>
<text text-anchor="middle" x="1035.5" y="-119.5" font-family="Helvetica,sans-Serif" font-size="10.00">inc/logging.hpp</text>
</a>
</g>
</g>
<!-- Node1&#45;&gt;Node10 -->
<g id="edge13" class="edge">
<title>Node1&#45;&gt;Node10</title>
<path fill="none" stroke="midnightblue" d="M758.68,-171.59C821.92,-160.49 919.02,-143.44 979.82,-132.77"/>
<polygon fill="midnightblue" stroke="midnightblue" points="980.75,-136.16 989.99,-130.99 979.54,-129.27 980.75,-136.16"/>
</g>
<!-- Node12 -->
<g id="node12" class="node">
<title>Node12</title>
<g id="a_node12"><a xlink:href="podman__commands_8hpp.html" target="_top" xlink:title="Declares Podman command classes for container operations.">
<polygon fill="white" stroke="black" points="349.5,-112.5 349.5,-131.5 503.5,-131.5 503.5,-112.5 349.5,-112.5"/>
<text text-anchor="middle" x="426.5" y="-119.5" font-family="Helvetica,sans-Serif" font-size="10.00">inc/podman_commands.hpp</text>
</a>
</g>
</g>
<!-- Node1&#45;&gt;Node12 -->
<g id="edge15" class="edge">
<title>Node1&#45;&gt;Node12</title>
<path fill="none" stroke="midnightblue" d="M634.22,-168.77C585.82,-158.11 519.64,-143.52 475.1,-133.71"/>
<polygon fill="midnightblue" stroke="midnightblue" points="475.62,-130.24 465.1,-131.51 474.12,-137.08 475.62,-130.24"/>
</g>
<!-- Node13 -->
<g id="node13" class="node">
<title>Node13</title>
<g id="a_node13"><a xlink:href="docker__commands_8hpp.html" target="_top" xlink:title="Declares Docker command classes for container operations.">
<polygon fill="white" stroke="black" points="185.5,-112.5 185.5,-131.5 331.5,-131.5 331.5,-112.5 185.5,-112.5"/>
<text text-anchor="middle" x="258.5" y="-119.5" font-family="Helvetica,sans-Serif" font-size="10.00">inc/docker_commands.hpp</text>
</a>
</g>
</g>
<!-- Node1&#45;&gt;Node13 -->
<g id="edge19" class="edge">
<title>Node1&#45;&gt;Node13</title>
<path fill="none" stroke="midnightblue" d="M634.21,-174.04C554.32,-163.19 416.01,-144.4 331.34,-132.89"/>
<polygon fill="midnightblue" stroke="midnightblue" points="331.66,-129.41 321.28,-131.53 330.72,-136.34 331.66,-129.41"/>
</g>
<!-- Node14 -->
<g id="node14" class="node">
<title>Node14</title>
<g id="a_node14"><a xlink:href="podman__api__commands_8hpp.html" target="_top" xlink:title=" ">
<polygon fill="white" stroke="black" points="521.5,-112.5 521.5,-131.5 695.5,-131.5 695.5,-112.5 521.5,-112.5"/>
<text text-anchor="middle" x="608.5" y="-119.5" font-family="Helvetica,sans-Serif" font-size="10.00">inc/podman_api_commands.hpp</text>
</a>
</g>
</g>
<!-- Node1&#45;&gt;Node14 -->
<g id="edge23" class="edge">
<title>Node1&#45;&gt;Node14</title>
<path fill="none" stroke="midnightblue" d="M675.65,-168.4C661.8,-159.04 643.69,-146.79 629.76,-137.38"/>
<polygon fill="midnightblue" stroke="midnightblue" points="631.55,-134.36 621.3,-131.66 627.63,-140.16 631.55,-134.36"/>
</g>
<!-- Node15 -->
<g id="node15" class="node">
<title>Node15</title>
<g id="a_node15"><a xlink:href="docker__api__commands_8hpp.html" target="_top" xlink:title=" ">
<polygon fill="white" stroke="black" points="0,-112.5 0,-131.5 167,-131.5 167,-112.5 0,-112.5"/>
<text text-anchor="middle" x="83.5" y="-119.5" font-family="Helvetica,sans-Serif" font-size="10.00">inc/docker_api_commands.hpp</text>
</a>
</g>
</g>
<!-- Node1&#45;&gt;Node15 -->
<g id="edge27" class="edge">
<title>Node1&#45;&gt;Node15</title>
<path fill="none" stroke="midnightblue" d="M634.35,-176.47C526.48,-166 304.01,-144.4 177.28,-132.1"/>
<polygon fill="midnightblue" stroke="midnightblue" points="177.49,-128.61 167.2,-131.12 176.81,-135.57 177.49,-128.61"/>
</g>
<!-- Node3 -->
<g id="node3" class="node">
<title>Node3</title>
<g id="a_node3"><a xlink:title=" ">
<polygon fill="white" stroke="#bfbfbf" points="382.5,-0.5 382.5,-19.5 440.5,-19.5 440.5,-0.5 382.5,-0.5"/>
<text text-anchor="middle" x="411.5" y="-7.5" font-family="Helvetica,sans-Serif" font-size="10.00">memory</text>
</a>
</g>
</g>
<!-- Node2&#45;&gt;Node3 -->
<g id="edge2" class="edge">
<title>Node2&#45;&gt;Node3</title>
<path fill="none" stroke="midnightblue" d="M755.54,-112.46C689.09,-92.86 525.6,-44.65 450.44,-22.48"/>
<polygon fill="midnightblue" stroke="midnightblue" points="451.02,-19.01 440.44,-19.53 449.04,-25.72 451.02,-19.01"/>
</g>
<!-- Node4 -->
<g id="node4" class="node">
<title>Node4</title>
<g id="a_node4"><a xlink:title=" ">
<polygon fill="white" stroke="#bfbfbf" points="551.5,-0.5 551.5,-19.5 595.5,-19.5 595.5,-0.5 551.5,-0.5"/>
<text text-anchor="middle" x="573.5" y="-7.5" font-family="Helvetica,sans-Serif" font-size="10.00">string</text>
</a>
</g>
</g>
<!-- Node2&#45;&gt;Node4 -->
<g id="edge3" class="edge">
<title>Node2&#45;&gt;Node4</title>
<path fill="none" stroke="midnightblue" d="M769.36,-112.33C747.04,-99.61 703.9,-75.33 666.5,-56 644.65,-44.71 619.53,-32.6 600.91,-23.8"/>
<polygon fill="midnightblue" stroke="midnightblue" points="602.36,-20.61 591.82,-19.51 599.37,-26.94 602.36,-20.61"/>
</g>
<!-- Node5 -->
<g id="node5" class="node">
<title>Node5</title>
<g id="a_node5"><a xlink:href="commands_8hpp.html" target="_top" xlink:title=" ">
<polygon fill="white" stroke="black" points="398,-56.5 398,-75.5 507,-75.5 507,-56.5 398,-56.5"/>
<text text-anchor="middle" x="452.5" y="-63.5" font-family="Helvetica,sans-Serif" font-size="10.00">inc/commands.hpp</text>
</a>
</g>
</g>
<!-- Node2&#45;&gt;Node5 -->
<g id="edge4" class="edge">
<title>Node2&#45;&gt;Node5</title>
<path fill="none" stroke="midnightblue" d="M731.89,-112.44C673.01,-102.87 577.65,-87.36 515.01,-77.17"/>
<polygon fill="midnightblue" stroke="midnightblue" points="515.29,-73.67 504.86,-75.52 514.17,-80.58 515.29,-73.67"/>
</g>
<!-- Node2&#45;&gt;Node6 -->
<g id="edge7" class="edge">
<title>Node2&#45;&gt;Node6</title>
<path fill="none" stroke="midnightblue" d="M784.5,-112.08C784.5,-105.01 784.5,-94.86 784.5,-85.99"/>
<polygon fill="midnightblue" stroke="midnightblue" points="788,-85.75 784.5,-75.75 781,-85.75 788,-85.75"/>
</g>
<!-- Node5&#45;&gt;Node3 -->
<g id="edge6" class="edge">
<title>Node5&#45;&gt;Node3</title>
<path fill="none" stroke="midnightblue" d="M445.73,-56.08C439.94,-48.46 431.44,-37.26 424.36,-27.94"/>
<polygon fill="midnightblue" stroke="midnightblue" points="426.98,-25.6 418.14,-19.75 421.4,-29.83 426.98,-25.6"/>
</g>
<!-- Node5&#45;&gt;Node4 -->
<g id="edge5" class="edge">
<title>Node5&#45;&gt;Node4</title>
<path fill="none" stroke="midnightblue" d="M471.67,-56.44C491.41,-47.64 522.39,-33.81 544.99,-23.72"/>
<polygon fill="midnightblue" stroke="midnightblue" points="546.71,-26.79 554.42,-19.52 543.86,-20.4 546.71,-26.79"/>
</g>
<!-- Node6&#45;&gt;Node4 -->
<g id="edge8" class="edge">
<title>Node6&#45;&gt;Node4</title>
<path fill="none" stroke="midnightblue" d="M751.07,-56.44C711.17,-46.23 644.94,-29.28 605.63,-19.22"/>
<polygon fill="midnightblue" stroke="midnightblue" points="606.33,-15.79 595.77,-16.7 604.59,-22.57 606.33,-15.79"/>
</g>
<!-- Node7 -->
<g id="node7" class="node">
<title>Node7</title>
<g id="a_node7"><a xlink:title=" ">
<polygon fill="white" stroke="#bfbfbf" points="697,-0.5 697,-19.5 770,-19.5 770,-0.5 697,-0.5"/>
<text text-anchor="middle" x="733.5" y="-7.5" font-family="Helvetica,sans-Serif" font-size="10.00">string_view</text>
</a>
</g>
</g>
<!-- Node6&#45;&gt;Node7 -->
<g id="edge9" class="edge">
<title>Node6&#45;&gt;Node7</title>
<path fill="none" stroke="midnightblue" d="M776.08,-56.08C768.65,-48.22 757.65,-36.57 748.69,-27.08"/>
<polygon fill="midnightblue" stroke="midnightblue" points="751.18,-24.62 741.76,-19.75 746.09,-29.42 751.18,-24.62"/>
</g>
<!-- Node8 -->
<g id="node8" class="node">
<title>Node8</title>
<g id="a_node8"><a xlink:title=" ">
<polygon fill="white" stroke="#bfbfbf" points="788,-0.5 788,-19.5 881,-19.5 881,-0.5 788,-0.5"/>
<text text-anchor="middle" x="834.5" y="-7.5" font-family="Helvetica,sans-Serif" font-size="10.00">unordered_map</text>
</a>
</g>
</g>
<!-- Node6&#45;&gt;Node8 -->
<g id="edge10" class="edge">
<title>Node6&#45;&gt;Node8</title>
<path fill="none" stroke="midnightblue" d="M792.76,-56.08C799.96,-48.3 810.61,-36.8 819.35,-27.37"/>
<polygon fill="midnightblue" stroke="midnightblue" points="822.17,-29.47 826.4,-19.75 817.03,-24.71 822.17,-29.47"/>
</g>
<!-- Node11 -->
<g id="node11" class="node">
<title>Node11</title>
<g id="a_node11"><a xlink:title=" ">
<polygon fill="white" stroke="#bfbfbf" points="992.5,-56.5 992.5,-75.5 1078.5,-75.5 1078.5,-56.5 992.5,-56.5"/>
<text text-anchor="middle" x="1035.5" y="-63.5" font-family="Helvetica,sans-Serif" font-size="10.00">glog/logging.h</text>
</a>
</g>
</g>
<!-- Node10&#45;&gt;Node11 -->
<g id="edge14" class="edge">
<title>Node10&#45;&gt;Node11</title>
<path fill="none" stroke="midnightblue" d="M1035.5,-112.08C1035.5,-105.01 1035.5,-94.86 1035.5,-85.99"/>
<polygon fill="midnightblue" stroke="midnightblue" points="1039,-85.75 1035.5,-75.75 1032,-85.75 1039,-85.75"/>
</g>
<!-- Node12&#45;&gt;Node3 -->
<g id="edge17" class="edge">
<title>Node12&#45;&gt;Node3</title>
<path fill="none" stroke="midnightblue" d="M416.06,-112.24C407.08,-103.97 394.75,-90.66 389.5,-76 383.74,-59.94 391.32,-41.5 399.1,-28.37"/>
<polygon fill="midnightblue" stroke="midnightblue" points="402.12,-30.16 404.63,-19.87 396.25,-26.35 402.12,-30.16"/>
</g>
<!-- Node12&#45;&gt;Node4 -->
<g id="edge16" class="edge">
<title>Node12&#45;&gt;Node4</title>
<path fill="none" stroke="midnightblue" d="M449.34,-112.48C468.42,-104.71 495.76,-92.01 516.5,-76 534.43,-62.16 551.04,-42.04 561.64,-27.86"/>
<polygon fill="midnightblue" stroke="midnightblue" points="564.65,-29.68 567.7,-19.53 558.99,-25.56 564.65,-29.68"/>
</g>
<!-- Node12&#45;&gt;Node5 -->
<g id="edge18" class="edge">
<title>Node12&#45;&gt;Node5</title>
<path fill="none" stroke="midnightblue" d="M430.79,-112.08C434.35,-104.69 439.52,-93.95 443.92,-84.81"/>
<polygon fill="midnightblue" stroke="midnightblue" points="447.1,-86.28 448.29,-75.75 440.79,-83.24 447.1,-86.28"/>
</g>
<!-- Node13&#45;&gt;Node3 -->
<g id="edge21" class="edge">
<title>Node13&#45;&gt;Node3</title>
<path fill="none" stroke="midnightblue" d="M264.54,-112.44C274.37,-99 295.01,-72.75 317.5,-56 335.91,-42.29 359.16,-31.11 377.94,-23.33"/>
<polygon fill="midnightblue" stroke="midnightblue" points="379.32,-26.55 387.29,-19.57 376.71,-20.05 379.32,-26.55"/>
</g>
<!-- Node13&#45;&gt;Node4 -->
<g id="edge20" class="edge">
<title>Node13&#45;&gt;Node4</title>
<path fill="none" stroke="midnightblue" d="M272.96,-112.49C296.62,-98.88 345.38,-72.12 389.5,-56 441.09,-37.16 503.68,-23.75 540.96,-16.7"/>
<polygon fill="midnightblue" stroke="midnightblue" points="542.03,-20.06 551.22,-14.8 540.75,-13.18 542.03,-20.06"/>
</g>
<!-- Node13&#45;&gt;Node5 -->
<g id="edge22" class="edge">
<title>Node13&#45;&gt;Node5</title>
<path fill="none" stroke="midnightblue" d="M289.24,-112.44C322.44,-103.2 375.49,-88.44 412.06,-78.26"/>
<polygon fill="midnightblue" stroke="midnightblue" points="413.21,-81.57 421.9,-75.52 411.33,-74.83 413.21,-81.57"/>
</g>
<!-- Node14&#45;&gt;Node3 -->
<g id="edge25" class="edge">
<title>Node14&#45;&gt;Node3</title>
<path fill="none" stroke="midnightblue" d="M597.94,-112.42C581.33,-99.18 547.73,-73.47 516.5,-56 493.49,-43.13 466.06,-31.49 445.01,-23.27"/>
<polygon fill="midnightblue" stroke="midnightblue" points="446.12,-19.95 435.53,-19.64 443.61,-26.49 446.12,-19.95"/>
</g>
<!-- Node14&#45;&gt;Node4 -->
<g id="edge24" class="edge">
<title>Node14&#45;&gt;Node4</title>
<path fill="none" stroke="midnightblue" d="M605.75,-112.37C600.08,-94.54 586.96,-53.3 579.31,-29.27"/>
<polygon fill="midnightblue" stroke="midnightblue" points="582.6,-28.06 576.23,-19.59 575.93,-30.18 582.6,-28.06"/>
</g>
<!-- Node14&#45;&gt;Node5 -->
<g id="edge26" class="edge">
<title>Node14&#45;&gt;Node5</title>
<path fill="none" stroke="midnightblue" d="M583.78,-112.44C557.65,-103.4 516.24,-89.06 486.92,-78.92"/>
<polygon fill="midnightblue" stroke="midnightblue" points="487.7,-75.48 477.1,-75.52 485.41,-82.1 487.7,-75.48"/>
</g>
<!-- Node15&#45;&gt;Node3 -->
<g id="edge29" class="edge">
<title>Node15&#45;&gt;Node3</title>
<path fill="none" stroke="midnightblue" d="M108.96,-112.46C167.09,-92.97 309.64,-45.16 376.2,-22.84"/>
<polygon fill="midnightblue" stroke="midnightblue" points="377.46,-26.11 385.83,-19.61 375.23,-19.47 377.46,-26.11"/>
</g>
<!-- Node15&#45;&gt;Node4 -->
<g id="edge28" class="edge">
<title>Node15&#45;&gt;Node4</title>
<path fill="none" stroke="midnightblue" d="M117.15,-112.5C185.78,-95.16 335.94,-57.24 341.5,-56 412.5,-40.18 496.43,-24.69 541.32,-16.66"/>
<polygon fill="midnightblue" stroke="midnightblue" points="542.11,-20.08 551.34,-14.88 540.89,-13.18 542.11,-20.08"/>
</g>
<!-- Node15&#45;&gt;Node5 -->
<g id="edge30" class="edge">
<title>Node15&#45;&gt;Node5</title>
<path fill="none" stroke="midnightblue" d="M141.97,-112.44C208.99,-102.64 318.5,-86.61 387.96,-76.44"/>
<polygon fill="midnightblue" stroke="midnightblue" points="388.53,-79.9 397.91,-74.99 387.51,-72.97 388.53,-79.9"/>
</g>
</g>
</svg>
