<?xml version="1.0" encoding="UTF-8" standalone="no"?>
<!DOCTYPE svg PUBLIC "-//W3C//DTD SVG 1.1//EN"
 "http://www.w3.org/Graphics/SVG/1.1/DTD/svg11.dtd">
<!-- Generated by graphviz version 2.43.0 (0)
 -->
<!-- Title: runtime/src/command_factory.cpp Pages: 1 -->
<svg width="1127pt" height="207pt"
 viewBox="0.00 0.00 1126.50 207.00" xmlns="http://www.w3.org/2000/svg" xmlns:xlink="http://www.w3.org/1999/xlink">
<g id="graph0" class="graph" transform="scale(1 1) rotate(0) translate(4 203)">
<title>runtime/src/command_factory.cpp</title>
<polygon fill="white" stroke="transparent" points="-4,4 -4,-203 1122.5,-203 1122.5,4 -4,4"/>
<!-- Node1 -->
<g id="node1" class="node">
<title>Node1</title>
<g id="a_node1"><a xlink:title="Implements the CommandFactory class for creating command objects based on container requests.">
<polygon fill="#bfbfbf" stroke="black" points="587,-168.5 587,-198.5 711,-198.5 711,-168.5 587,-168.5"/>
<text text-anchor="start" x="595" y="-186.5" font-family="Helvetica,sans-Serif" font-size="10.00">runtime/src/command</text>
<text text-anchor="middle" x="649" y="-175.5" font-family="Helvetica,sans-Serif" font-size="10.00">_factory.cpp</text>
</a>
</g>
</g>
<!-- Node2 -->
<g id="node2" class="node">
<title>Node2</title>
<g id="a_node2"><a xlink:href="command__factory_8hpp.html" target="_top" xlink:title="Declares the CommandFactory class for creating command objects based on container requests.">
<polygon fill="white" stroke="black" points="751,-112.5 751,-131.5 893,-131.5 893,-112.5 751,-112.5"/>
<text text-anchor="middle" x="822" y="-119.5" font-family="Helvetica,sans-Serif" font-size="10.00">inc/command_factory.hpp</text>
</a>
</g>
</g>
<!-- Node1&#45;&gt;Node2 -->
<g id="edge1" class="edge">
<title>Node1&#45;&gt;Node2</title>
<path fill="none" stroke="midnightblue" d="M690,-168.4C719.63,-158.21 759.23,-144.59 787.3,-134.93"/>
<polygon fill="midnightblue" stroke="midnightblue" points="788.76,-138.13 797.08,-131.57 786.48,-131.51 788.76,-138.13"/>
</g>
<!-- Node6 -->
<g id="node6" class="node">
<title>Node6</title>
<g id="a_node6"><a xlink:href="common_8hpp.html" target="_top" xlink:title="Defines common constants, string views, and utility structures for the application.">
<polygon fill="white" stroke="black" points="791,-56.5 791,-75.5 889,-75.5 889,-56.5 791,-56.5"/>
<text text-anchor="middle" x="840" y="-63.5" font-family="Helvetica,sans-Serif" font-size="10.00">inc/common.hpp</text>
</a>
</g>
</g>
<!-- Node1&#45;&gt;Node6 -->
<g id="edge14" class="edge">
<title>Node1&#45;&gt;Node6</title>
<path fill="none" stroke="midnightblue" d="M711.18,-178.89C778.15,-173.56 878.32,-160.87 902,-132 917.45,-113.16 890.94,-93.1 867.94,-80.33"/>
<polygon fill="midnightblue" stroke="midnightblue" points="869.55,-77.22 859.07,-75.65 866.28,-83.41 869.55,-77.22"/>
</g>
<!-- Node9 -->
<g id="node9" class="node">
<title>Node9</title>
<g id="a_node9"><a xlink:href="container__request_8hpp.html" target="_top" xlink:title="Data structure for representing a container operation request.">
<polygon fill="white" stroke="black" points="477.5,-56.5 477.5,-75.5 620.5,-75.5 620.5,-56.5 477.5,-56.5"/>
<text text-anchor="middle" x="549" y="-63.5" font-family="Helvetica,sans-Serif" font-size="10.00">inc/container_request.hpp</text>
</a>
</g>
</g>
<!-- Node1&#45;&gt;Node9 -->
<g id="edge37" class="edge">
<title>Node1&#45;&gt;Node9</title>
<path fill="none" stroke="midnightblue" d="M604.81,-168.36C587.15,-160.46 568.35,-148.74 557,-132 547.93,-118.62 546.47,-100.05 546.96,-86.18"/>
<polygon fill="midnightblue" stroke="midnightblue" points="550.48,-86.09 547.71,-75.86 543.49,-85.58 550.48,-86.09"/>
</g>
<!-- Node10 -->
<g id="node10" class="node">
<title>Node10</title>
<g id="a_node10"><a xlink:title=" ">
<polygon fill="white" stroke="#bfbfbf" points="949,-112.5 949,-131.5 1009,-131.5 1009,-112.5 949,-112.5"/>
<text text-anchor="middle" x="979" y="-119.5" font-family="Helvetica,sans-Serif" font-size="10.00">iostream</text>
</a>
</g>
</g>
<!-- Node1&#45;&gt;Node10 -->
<g id="edge13" class="edge">
<title>Node1&#45;&gt;Node10</title>
<path fill="none" stroke="midnightblue" d="M711.02,-172.05C769.01,-162.15 857.98,-146.67 935,-132 936.25,-131.76 937.52,-131.52 938.8,-131.27"/>
<polygon fill="midnightblue" stroke="midnightblue" points="939.59,-134.68 948.72,-129.3 938.24,-127.81 939.59,-134.68"/>
</g>
<!-- Node11 -->
<g id="node11" class="node">
<title>Node11</title>
<g id="a_node11"><a xlink:href="logging_8hpp.html" target="_top" xlink:title="Logging macros and configuration for the Container Manager.">
<polygon fill="white" stroke="black" points="1027.5,-112.5 1027.5,-131.5 1118.5,-131.5 1118.5,-112.5 1027.5,-112.5"/>
<text text-anchor="middle" x="1073" y="-119.5" font-family="Helvetica,sans-Serif" font-size="10.00">inc/logging.hpp</text>
</a>
</g>
</g>
<!-- Node1&#45;&gt;Node11 -->
<g id="edge15" class="edge">
<title>Node1&#45;&gt;Node11</title>
<path fill="none" stroke="midnightblue" d="M711.1,-174.51C782.41,-165.21 903.18,-149.13 1017.42,-132.05"/>
<polygon fill="midnightblue" stroke="midnightblue" points="1018.03,-135.5 1027.4,-130.56 1016.99,-128.58 1018.03,-135.5"/>
</g>
<!-- Node13 -->
<g id="node13" class="node">
<title>Node13</title>
<g id="a_node13"><a xlink:href="podman__commands_8hpp.html" target="_top" xlink:title="Declares Podman command classes for container operations.">
<polygon fill="white" stroke="black" points="0,-112.5 0,-131.5 154,-131.5 154,-112.5 0,-112.5"/>
<text text-anchor="middle" x="77" y="-119.5" font-family="Helvetica,sans-Serif" font-size="10.00">inc/podman_commands.hpp</text>
</a>
</g>
</g>
<!-- Node1&#45;&gt;Node13 -->
<g id="edge17" class="edge">
<title>Node1&#45;&gt;Node13</title>
<path fill="none" stroke="midnightblue" d="M586.86,-176.06C496.42,-166.68 322.95,-148.68 164.75,-132.18"/>
<polygon fill="midnightblue" stroke="midnightblue" points="164.66,-128.65 154.35,-131.1 163.94,-135.62 164.66,-128.65"/>
</g>
<!-- Node14 -->
<g id="node14" class="node">
<title>Node14</title>
<g id="a_node14"><a xlink:href="docker__commands_8hpp.html" target="_top" xlink:title="Declares Docker command classes for container operations.">
<polygon fill="white" stroke="black" points="364,-112.5 364,-131.5 510,-131.5 510,-112.5 364,-112.5"/>
<text text-anchor="middle" x="437" y="-119.5" font-family="Helvetica,sans-Serif" font-size="10.00">inc/docker_commands.hpp</text>
</a>
</g>
</g>
<!-- Node1&#45;&gt;Node14 -->
<g id="edge22" class="edge">
<title>Node1&#45;&gt;Node14</title>
<path fill="none" stroke="midnightblue" d="M599.03,-168.47C561.81,-158.03 511.67,-143.96 477.07,-134.25"/>
<polygon fill="midnightblue" stroke="midnightblue" points="477.88,-130.84 467.31,-131.51 475.99,-137.58 477.88,-130.84"/>
</g>
<!-- Node15 -->
<g id="node15" class="node">
<title>Node15</title>
<g id="a_node15"><a xlink:href="podman__api__commands_8hpp.html" target="_top" xlink:title="Declares command classes for managing containers via the Podman HTTP API over a Unix socket.">
<polygon fill="white" stroke="black" points="172,-112.5 172,-131.5 346,-131.5 346,-112.5 172,-112.5"/>
<text text-anchor="middle" x="259" y="-119.5" font-family="Helvetica,sans-Serif" font-size="10.00">inc/podman_api_commands.hpp</text>
</a>
</g>
</g>
<!-- Node1&#45;&gt;Node15 -->
<g id="edge27" class="edge">
<title>Node1&#45;&gt;Node15</title>
<path fill="none" stroke="midnightblue" d="M586.77,-173.01C515.19,-162.09 398.16,-144.23 325.02,-133.07"/>
<polygon fill="midnightblue" stroke="midnightblue" points="325.41,-129.59 315,-131.54 324.36,-136.51 325.41,-129.59"/>
</g>
<!-- Node16 -->
<g id="node16" class="node">
<title>Node16</title>
<g id="a_node16"><a xlink:href="docker__api__commands_8hpp.html" target="_top" xlink:title="Declares command classes for managing containers via the Docker HTTP API over a Unix socket.">
<polygon fill="white" stroke="black" points="565.5,-112.5 565.5,-131.5 732.5,-131.5 732.5,-112.5 565.5,-112.5"/>
<text text-anchor="middle" x="649" y="-119.5" font-family="Helvetica,sans-Serif" font-size="10.00">inc/docker_api_commands.hpp</text>
</a>
</g>
</g>
<!-- Node1&#45;&gt;Node16 -->
<g id="edge32" class="edge">
<title>Node1&#45;&gt;Node16</title>
<path fill="none" stroke="midnightblue" d="M649,-168.4C649,-160.47 649,-150.46 649,-141.86"/>
<polygon fill="midnightblue" stroke="midnightblue" points="652.5,-141.66 649,-131.66 645.5,-141.66 652.5,-141.66"/>
</g>
<!-- Node3 -->
<g id="node3" class="node">
<title>Node3</title>
<g id="a_node3"><a xlink:title=" ">
<polygon fill="white" stroke="#bfbfbf" points="296,-0.5 296,-19.5 354,-19.5 354,-0.5 296,-0.5"/>
<text text-anchor="middle" x="325" y="-7.5" font-family="Helvetica,sans-Serif" font-size="10.00">memory</text>
</a>
</g>
</g>
<!-- Node2&#45;&gt;Node3 -->
<g id="edge2" class="edge">
<title>Node2&#45;&gt;Node3</title>
<path fill="none" stroke="midnightblue" d="M798.76,-112.49C774.36,-103.54 734.92,-88.96 701,-76 678.26,-67.31 673.56,-62.16 650,-56 548.93,-29.58 425.88,-17.92 364.21,-13.43"/>
<polygon fill="midnightblue" stroke="midnightblue" points="364.36,-9.93 354.14,-12.72 363.87,-16.92 364.36,-9.93"/>
</g>
<!-- Node4 -->
<g id="node4" class="node">
<title>Node4</title>
<g id="a_node4"><a xlink:title=" ">
<polygon fill="white" stroke="#bfbfbf" points="477,-0.5 477,-19.5 521,-19.5 521,-0.5 477,-0.5"/>
<text text-anchor="middle" x="499" y="-7.5" font-family="Helvetica,sans-Serif" font-size="10.00">string</text>
</a>
</g>
</g>
<!-- Node2&#45;&gt;Node4 -->
<g id="edge3" class="edge">
<title>Node2&#45;&gt;Node4</title>
<path fill="none" stroke="midnightblue" d="M805.67,-112.39C779.52,-98.88 726.38,-72.54 679,-56 628.48,-38.37 567.74,-24.67 531.31,-17.23"/>
<polygon fill="midnightblue" stroke="midnightblue" points="531.76,-13.75 521.27,-15.21 530.38,-20.61 531.76,-13.75"/>
</g>
<!-- Node5 -->
<g id="node5" class="node">
<title>Node5</title>
<g id="a_node5"><a xlink:href="commands_8hpp.html" target="_top" xlink:title=" ">
<polygon fill="white" stroke="black" points="311.5,-56.5 311.5,-75.5 420.5,-75.5 420.5,-56.5 311.5,-56.5"/>
<text text-anchor="middle" x="366" y="-63.5" font-family="Helvetica,sans-Serif" font-size="10.00">inc/commands.hpp</text>
</a>
</g>
</g>
<!-- Node2&#45;&gt;Node5 -->
<g id="edge4" class="edge">
<title>Node2&#45;&gt;Node5</title>
<path fill="none" stroke="midnightblue" d="M750.75,-112.56C663.01,-102.17 515.26,-84.68 430.66,-74.66"/>
<polygon fill="midnightblue" stroke="midnightblue" points="431.01,-71.17 420.66,-73.47 430.18,-78.13 431.01,-71.17"/>
</g>
<!-- Node2&#45;&gt;Node6 -->
<g id="edge7" class="edge">
<title>Node2&#45;&gt;Node6</title>
<path fill="none" stroke="midnightblue" d="M824.97,-112.08C827.38,-104.85 830.86,-94.41 833.87,-85.4"/>
<polygon fill="midnightblue" stroke="midnightblue" points="837.24,-86.34 837.08,-75.75 830.6,-84.13 837.24,-86.34"/>
</g>
<!-- Node2&#45;&gt;Node9 -->
<g id="edge11" class="edge">
<title>Node2&#45;&gt;Node9</title>
<path fill="none" stroke="midnightblue" d="M778.74,-112.44C730.82,-102.96 653.52,-87.67 602,-77.48"/>
<polygon fill="midnightblue" stroke="midnightblue" points="602.54,-74.02 592.06,-75.52 601.19,-80.89 602.54,-74.02"/>
</g>
<!-- Node5&#45;&gt;Node3 -->
<g id="edge6" class="edge">
<title>Node5&#45;&gt;Node3</title>
<path fill="none" stroke="midnightblue" d="M359.23,-56.08C353.44,-48.46 344.94,-37.26 337.86,-27.94"/>
<polygon fill="midnightblue" stroke="midnightblue" points="340.48,-25.6 331.64,-19.75 334.9,-29.83 340.48,-25.6"/>
</g>
<!-- Node5&#45;&gt;Node4 -->
<g id="edge5" class="edge">
<title>Node5&#45;&gt;Node4</title>
<path fill="none" stroke="midnightblue" d="M387.07,-56.44C409.06,-47.52 443.73,-33.44 468.66,-23.32"/>
<polygon fill="midnightblue" stroke="midnightblue" points="470.08,-26.52 478.02,-19.52 467.44,-20.04 470.08,-26.52"/>
</g>
<!-- Node6&#45;&gt;Node4 -->
<g id="edge8" class="edge">
<title>Node6&#45;&gt;Node4</title>
<path fill="none" stroke="midnightblue" d="M790.78,-57.21C719.96,-45.99 591.28,-25.61 531.34,-16.12"/>
<polygon fill="midnightblue" stroke="midnightblue" points="531.73,-12.64 521.31,-14.53 530.64,-19.55 531.73,-12.64"/>
</g>
<!-- Node7 -->
<g id="node7" class="node">
<title>Node7</title>
<g id="a_node7"><a xlink:title=" ">
<polygon fill="white" stroke="#bfbfbf" points="752.5,-0.5 752.5,-19.5 825.5,-19.5 825.5,-0.5 752.5,-0.5"/>
<text text-anchor="middle" x="789" y="-7.5" font-family="Helvetica,sans-Serif" font-size="10.00">string_view</text>
</a>
</g>
</g>
<!-- Node6&#45;&gt;Node7 -->
<g id="edge9" class="edge">
<title>Node6&#45;&gt;Node7</title>
<path fill="none" stroke="midnightblue" d="M831.58,-56.08C824.15,-48.22 813.15,-36.57 804.19,-27.08"/>
<polygon fill="midnightblue" stroke="midnightblue" points="806.68,-24.62 797.26,-19.75 801.59,-29.42 806.68,-24.62"/>
</g>
<!-- Node8 -->
<g id="node8" class="node">
<title>Node8</title>
<g id="a_node8"><a xlink:title=" ">
<polygon fill="white" stroke="#bfbfbf" points="843.5,-0.5 843.5,-19.5 936.5,-19.5 936.5,-0.5 843.5,-0.5"/>
<text text-anchor="middle" x="890" y="-7.5" font-family="Helvetica,sans-Serif" font-size="10.00">unordered_map</text>
</a>
</g>
</g>
<!-- Node6&#45;&gt;Node8 -->
<g id="edge10" class="edge">
<title>Node6&#45;&gt;Node8</title>
<path fill="none" stroke="midnightblue" d="M848.26,-56.08C855.46,-48.3 866.11,-36.8 874.85,-27.37"/>
<polygon fill="midnightblue" stroke="midnightblue" points="877.67,-29.47 881.9,-19.75 872.53,-24.71 877.67,-29.47"/>
</g>
<!-- Node9&#45;&gt;Node4 -->
<g id="edge12" class="edge">
<title>Node9&#45;&gt;Node4</title>
<path fill="none" stroke="midnightblue" d="M540.74,-56.08C533.54,-48.3 522.89,-36.8 514.15,-27.37"/>
<polygon fill="midnightblue" stroke="midnightblue" points="516.47,-24.71 507.1,-19.75 511.33,-29.47 516.47,-24.71"/>
</g>
<!-- Node12 -->
<g id="node12" class="node">
<title>Node12</title>
<g id="a_node12"><a xlink:title=" ">
<polygon fill="white" stroke="#bfbfbf" points="1030,-56.5 1030,-75.5 1116,-75.5 1116,-56.5 1030,-56.5"/>
<text text-anchor="middle" x="1073" y="-63.5" font-family="Helvetica,sans-Serif" font-size="10.00">glog/logging.h</text>
</a>
</g>
</g>
<!-- Node11&#45;&gt;Node12 -->
<g id="edge16" class="edge">
<title>Node11&#45;&gt;Node12</title>
<path fill="none" stroke="midnightblue" d="M1073,-112.08C1073,-105.01 1073,-94.86 1073,-85.99"/>
<polygon fill="midnightblue" stroke="midnightblue" points="1076.5,-85.75 1073,-75.75 1069.5,-85.75 1076.5,-85.75"/>
</g>
<!-- Node13&#45;&gt;Node3 -->
<g id="edge19" class="edge">
<title>Node13&#45;&gt;Node3</title>
<path fill="none" stroke="midnightblue" d="M96.46,-112.37C140.01,-93.05 245.51,-46.26 296.48,-23.65"/>
<polygon fill="midnightblue" stroke="midnightblue" points="297.91,-26.85 305.63,-19.59 295.07,-20.45 297.91,-26.85"/>
</g>
<!-- Node13&#45;&gt;Node4 -->
<g id="edge18" class="edge">
<title>Node13&#45;&gt;Node4</title>
<path fill="none" stroke="midnightblue" d="M100.69,-112.44C138.18,-99.11 213.61,-73.15 279,-56 345.19,-38.64 424.04,-23.93 467.07,-16.4"/>
<polygon fill="midnightblue" stroke="midnightblue" points="467.7,-19.84 476.96,-14.68 466.51,-12.94 467.7,-19.84"/>
</g>
<!-- Node13&#45;&gt;Node5 -->
<g id="edge20" class="edge">
<title>Node13&#45;&gt;Node5</title>
<path fill="none" stroke="midnightblue" d="M122.79,-112.44C173.74,-102.92 256.03,-87.55 310.57,-77.36"/>
<polygon fill="midnightblue" stroke="midnightblue" points="311.23,-80.79 320.42,-75.52 309.95,-73.91 311.23,-80.79"/>
</g>
<!-- Node13&#45;&gt;Node9 -->
<g id="edge21" class="edge">
<title>Node13&#45;&gt;Node9</title>
<path fill="none" stroke="midnightblue" d="M151.53,-112.47C237.45,-102.64 378.23,-86.54 467.14,-76.37"/>
<polygon fill="midnightblue" stroke="midnightblue" points="467.64,-79.83 477.18,-75.22 466.85,-72.88 467.64,-79.83"/>
</g>
<!-- Node14&#45;&gt;Node3 -->
<g id="edge24" class="edge">
<title>Node14&#45;&gt;Node3</title>
<path fill="none" stroke="midnightblue" d="M363.8,-113.56C340.2,-107.29 316.45,-96.04 302,-76 291.55,-61.5 301.11,-41.81 310.9,-27.91"/>
<polygon fill="midnightblue" stroke="midnightblue" points="313.86,-29.79 317.15,-19.72 308.3,-25.54 313.86,-29.79"/>
</g>
<!-- Node14&#45;&gt;Node4 -->
<g id="edge23" class="edge">
<title>Node14&#45;&gt;Node4</title>
<path fill="none" stroke="midnightblue" d="M440.8,-112.4C446.47,-99.78 457.7,-75.62 469,-56 474.45,-46.54 481.14,-36.39 486.81,-28.13"/>
<polygon fill="midnightblue" stroke="midnightblue" points="489.81,-29.95 492.67,-19.75 484.08,-25.94 489.81,-29.95"/>
</g>
<!-- Node14&#45;&gt;Node5 -->
<g id="edge25" class="edge">
<title>Node14&#45;&gt;Node5</title>
<path fill="none" stroke="midnightblue" d="M425.59,-112.32C414.89,-104.18 398.66,-91.84 385.84,-82.09"/>
<polygon fill="midnightblue" stroke="midnightblue" points="387.69,-79.1 377.61,-75.83 383.46,-84.67 387.69,-79.1"/>
</g>
<!-- Node14&#45;&gt;Node9 -->
<g id="edge26" class="edge">
<title>Node14&#45;&gt;Node9</title>
<path fill="none" stroke="midnightblue" d="M454.99,-112.32C473.04,-103.62 501.05,-90.12 521.8,-80.11"/>
<polygon fill="midnightblue" stroke="midnightblue" points="523.56,-83.15 531.05,-75.65 520.52,-76.84 523.56,-83.15"/>
</g>
<!-- Node15&#45;&gt;Node3 -->
<g id="edge29" class="edge">
<title>Node15&#45;&gt;Node3</title>
<path fill="none" stroke="midnightblue" d="M249.94,-112.16C237.84,-99.25 219.21,-74.71 231,-56 243.05,-36.88 265.71,-25.7 285.77,-19.27"/>
<polygon fill="midnightblue" stroke="midnightblue" points="287.02,-22.56 295.65,-16.41 285.07,-15.83 287.02,-22.56"/>
</g>
<!-- Node15&#45;&gt;Node4 -->
<g id="edge28" class="edge">
<title>Node15&#45;&gt;Node4</title>
<path fill="none" stroke="midnightblue" d="M262.25,-112.29C267.98,-98.15 281.31,-70.32 302,-56 352.15,-21.28 425.05,-12.97 466.66,-11.2"/>
<polygon fill="midnightblue" stroke="midnightblue" points="466.9,-14.7 476.78,-10.88 466.68,-7.7 466.9,-14.7"/>
</g>
<!-- Node15&#45;&gt;Node5 -->
<g id="edge30" class="edge">
<title>Node15&#45;&gt;Node5</title>
<path fill="none" stroke="midnightblue" d="M276.19,-112.32C293.35,-103.66 319.95,-90.24 339.75,-80.25"/>
<polygon fill="midnightblue" stroke="midnightblue" points="341.5,-83.28 348.85,-75.65 338.35,-77.04 341.5,-83.28"/>
</g>
<!-- Node15&#45;&gt;Node9 -->
<g id="edge31" class="edge">
<title>Node15&#45;&gt;Node9</title>
<path fill="none" stroke="midnightblue" d="M304.95,-112.44C356.07,-102.92 438.65,-87.55 493.38,-77.36"/>
<polygon fill="midnightblue" stroke="midnightblue" points="494.07,-80.79 503.26,-75.52 492.79,-73.91 494.07,-80.79"/>
</g>
<!-- Node16&#45;&gt;Node3 -->
<g id="edge34" class="edge">
<title>Node16&#45;&gt;Node3</title>
<path fill="none" stroke="midnightblue" d="M649.21,-112.3C649.05,-98.17 646.49,-70.36 630,-56 610.24,-38.79 442.3,-21.59 364.4,-14.44"/>
<polygon fill="midnightblue" stroke="midnightblue" points="364.3,-10.92 354.03,-13.5 363.67,-17.89 364.3,-10.92"/>
</g>
<!-- Node16&#45;&gt;Node4 -->
<g id="edge33" class="edge">
<title>Node16&#45;&gt;Node4</title>
<path fill="none" stroke="midnightblue" d="M654.76,-112.48C663.01,-99.08 675.88,-72.89 663,-56 647.08,-35.12 574.14,-21.54 531.08,-15.19"/>
<polygon fill="midnightblue" stroke="midnightblue" points="531.48,-11.71 521.08,-13.76 530.49,-18.64 531.48,-11.71"/>
</g>
<!-- Node16&#45;&gt;Node5 -->
<g id="edge35" class="edge">
<title>Node16&#45;&gt;Node5</title>
<path fill="none" stroke="midnightblue" d="M604.16,-112.44C554.38,-102.94 474.02,-87.61 420.61,-77.42"/>
<polygon fill="midnightblue" stroke="midnightblue" points="421.11,-73.95 410.63,-75.52 419.8,-80.83 421.11,-73.95"/>
</g>
<!-- Node16&#45;&gt;Node9 -->
<g id="edge36" class="edge">
<title>Node16&#45;&gt;Node9</title>
<path fill="none" stroke="midnightblue" d="M632.93,-112.32C617.04,-103.74 592.49,-90.49 574.04,-80.52"/>
<polygon fill="midnightblue" stroke="midnightblue" points="575.49,-77.33 565.03,-75.65 572.16,-83.49 575.49,-77.33"/>
</g>
</g>
</svg>
