<?xml version="1.0" encoding="UTF-8" standalone="no"?>
<!DOCTYPE svg PUBLIC "-//W3C//DTD SVG 1.1//EN"
 "http://www.w3.org/Graphics/SVG/1.1/DTD/svg11.dtd">
<!-- Generated by graphviz version 2.43.0 (0)
 -->
<!-- Title: utils/inc/common.hpp Pages: 1 -->
<svg width="145pt" height="84pt"
 viewBox="0.00 0.00 144.50 84.00" xmlns="http://www.w3.org/2000/svg" xmlns:xlink="http://www.w3.org/1999/xlink">
<g id="graph0" class="graph" transform="scale(1 1) rotate(0) translate(4 80)">
<title>utils/inc/common.hpp</title>
<polygon fill="white" stroke="transparent" points="-4,4 -4,-80 140.5,-80 140.5,4 -4,4"/>
<!-- Node1 -->
<g id="node1" class="node">
<title>Node1</title>
<g id="a_node1"><a xlink:title="Defines common constants, string views, and utility structures for the application.">
<polygon fill="#bfbfbf" stroke="black" points="0,-56.5 0,-75.5 122,-75.5 122,-56.5 0,-56.5"/>
<text text-anchor="middle" x="61" y="-63.5" font-family="Helvetica,sans-Serif" font-size="10.00">utils/inc/common.hpp</text>
</a>
</g>
</g>
<!-- Node2 -->
<g id="node2" class="node">
<title>Node2</title>
<g id="a_node2"><a xlink:title=" ">
<polygon fill="white" stroke="#bfbfbf" points="1,-0.5 1,-19.5 45,-19.5 45,-0.5 1,-0.5"/>
<text text-anchor="middle" x="23" y="-7.5" font-family="Helvetica,sans-Serif" font-size="10.00">string</text>
</a>
</g>
</g>
<!-- Node1&#45;&gt;Node2 -->
<g id="edge1" class="edge">
<title>Node1&#45;&gt;Node2</title>
<path fill="none" stroke="midnightblue" d="M54.73,-56.08C49.36,-48.46 41.48,-37.26 34.92,-27.94"/>
<polygon fill="midnightblue" stroke="midnightblue" points="37.78,-25.91 29.16,-19.75 32.05,-29.94 37.78,-25.91"/>
</g>
<!-- Node3 -->
<g id="node3" class="node">
<title>Node3</title>
<g id="a_node3"><a xlink:title=" ">
<polygon fill="white" stroke="#bfbfbf" points="63.5,-0.5 63.5,-19.5 136.5,-19.5 136.5,-0.5 63.5,-0.5"/>
<text text-anchor="middle" x="100" y="-7.5" font-family="Helvetica,sans-Serif" font-size="10.00">string_view</text>
</a>
</g>
</g>
<!-- Node1&#45;&gt;Node3 -->
<g id="edge2" class="edge">
<title>Node1&#45;&gt;Node3</title>
<path fill="none" stroke="midnightblue" d="M67.44,-56.08C72.95,-48.46 81.03,-37.26 87.76,-27.94"/>
<polygon fill="midnightblue" stroke="midnightblue" points="90.66,-29.91 93.68,-19.75 84.99,-25.81 90.66,-29.91"/>
</g>
</g>
</svg>
