<?xml version="1.0" encoding="UTF-8" standalone="no"?>
<!DOCTYPE svg PUBLIC "-//W3C//DTD SVG 1.1//EN"
 "http://www.w3.org/Graphics/SVG/1.1/DTD/svg11.dtd">
<!-- Generated by graphviz version 2.43.0 (0)
 -->
<!-- Title: runtime/inc/commands.hpp Pages: 1 -->
<svg width="910pt" height="162pt"
 viewBox="0.00 0.00 909.50 162.00" xmlns="http://www.w3.org/2000/svg" xmlns:xlink="http://www.w3.org/1999/xlink">
<g id="graph0" class="graph" transform="scale(1 1) rotate(0) translate(4 158)">
<title>runtime/inc/commands.hpp</title>
<polygon fill="white" stroke="transparent" points="-4,4 -4,-158 905.5,-158 905.5,4 -4,4"/>
<!-- Node1 -->
<g id="node1" class="node">
<title>Node1</title>
<g id="a_node1"><a xlink:title="Declares the Command interface and Invoker class for the command pattern.">
<polygon fill="#bfbfbf" stroke="black" points="371,-134.5 371,-153.5 521,-153.5 521,-134.5 371,-134.5"/>
<text text-anchor="middle" x="446" y="-141.5" font-family="Helvetica,sans-Serif" font-size="10.00">runtime/inc/commands.hpp</text>
</a>
</g>
</g>
<!-- Node2 -->
<g id="node2" class="node">
<title>Node2</title>
<g id="a_node2"><a xlink:href="command__factory_8hpp.html" target="_top" xlink:title="Declares the CommandFactory class for creating command objects based on container requests.">
<polygon fill="white" stroke="black" points="112,-67.5 112,-97.5 236,-97.5 236,-67.5 112,-67.5"/>
<text text-anchor="start" x="120" y="-85.5" font-family="Helvetica,sans-Serif" font-size="10.00">runtime/inc/command</text>
<text text-anchor="middle" x="174" y="-74.5" font-family="Helvetica,sans-Serif" font-size="10.00">_factory.hpp</text>
</a>
</g>
</g>
<!-- Node1&#45;&gt;Node2 -->
<g id="edge1" class="edge">
<title>Node1&#45;&gt;Node2</title>
<path fill="none" stroke="midnightblue" d="M397.19,-132.32C352.1,-122.46 284.9,-107.76 236.02,-97.07"/>
<polygon fill="midnightblue" stroke="midnightblue" points="396.51,-135.76 407.03,-134.48 398.01,-128.92 396.51,-135.76"/>
</g>
<!-- Node6 -->
<g id="node6" class="node">
<title>Node6</title>
<g id="a_node6"><a xlink:href="docker__api__commands_8hpp.html" target="_top" xlink:title="Declares command classes for managing containers via the Docker HTTP API over a Unix socket.">
<polygon fill="white" stroke="black" points="254.5,-67.5 254.5,-97.5 371.5,-97.5 371.5,-67.5 254.5,-67.5"/>
<text text-anchor="start" x="262.5" y="-85.5" font-family="Helvetica,sans-Serif" font-size="10.00">runtime/inc/docker</text>
<text text-anchor="middle" x="313" y="-74.5" font-family="Helvetica,sans-Serif" font-size="10.00">_api_commands.hpp</text>
</a>
</g>
</g>
<!-- Node1&#45;&gt;Node6 -->
<g id="edge5" class="edge">
<title>Node1&#45;&gt;Node6</title>
<path fill="none" stroke="midnightblue" d="M417.68,-130.33C396.16,-120.7 366.58,-107.47 344.35,-97.52"/>
<polygon fill="midnightblue" stroke="midnightblue" points="416.39,-133.59 426.94,-134.48 419.25,-127.2 416.39,-133.59"/>
</g>
<!-- Node8 -->
<g id="node8" class="node">
<title>Node8</title>
<g id="a_node8"><a xlink:href="docker__cli__commands_8hpp.html" target="_top" xlink:title="Declares Docker command classes for container operations.">
<polygon fill="white" stroke="black" points="389.5,-67.5 389.5,-97.5 502.5,-97.5 502.5,-67.5 389.5,-67.5"/>
<text text-anchor="start" x="397.5" y="-85.5" font-family="Helvetica,sans-Serif" font-size="10.00">runtime/inc/docker</text>
<text text-anchor="middle" x="446" y="-74.5" font-family="Helvetica,sans-Serif" font-size="10.00">_cli_commands.hpp</text>
</a>
</g>
</g>
<!-- Node1&#45;&gt;Node8 -->
<g id="edge8" class="edge">
<title>Node1&#45;&gt;Node8</title>
<path fill="none" stroke="midnightblue" d="M446,-124.23C446,-115.59 446,-105.5 446,-97.52"/>
<polygon fill="midnightblue" stroke="midnightblue" points="442.5,-124.48 446,-134.48 449.5,-124.48 442.5,-124.48"/>
</g>
<!-- Node10 -->
<g id="node10" class="node">
<title>Node10</title>
<g id="a_node10"><a xlink:href="podman__api__commands_8hpp.html" target="_top" xlink:title="Declares command classes for managing containers via the Podman HTTP API over a Unix socket.">
<polygon fill="white" stroke="black" points="520.5,-67.5 520.5,-97.5 637.5,-97.5 637.5,-67.5 520.5,-67.5"/>
<text text-anchor="start" x="528.5" y="-85.5" font-family="Helvetica,sans-Serif" font-size="10.00">runtime/inc/podman</text>
<text text-anchor="middle" x="579" y="-74.5" font-family="Helvetica,sans-Serif" font-size="10.00">_api_commands.hpp</text>
</a>
</g>
</g>
<!-- Node1&#45;&gt;Node10 -->
<g id="edge11" class="edge">
<title>Node1&#45;&gt;Node10</title>
<path fill="none" stroke="midnightblue" d="M474.32,-130.33C495.84,-120.7 525.42,-107.47 547.65,-97.52"/>
<polygon fill="midnightblue" stroke="midnightblue" points="472.75,-127.2 465.06,-134.48 475.61,-133.59 472.75,-127.2"/>
</g>
<!-- Node12 -->
<g id="node12" class="node">
<title>Node12</title>
<g id="a_node12"><a xlink:href="podman__cli__commands_8hpp.html" target="_top" xlink:title="Declares Podman command classes for container operations.">
<polygon fill="white" stroke="black" points="655.5,-67.5 655.5,-97.5 770.5,-97.5 770.5,-67.5 655.5,-67.5"/>
<text text-anchor="start" x="663.5" y="-85.5" font-family="Helvetica,sans-Serif" font-size="10.00">runtime/inc/podman</text>
<text text-anchor="middle" x="713" y="-74.5" font-family="Helvetica,sans-Serif" font-size="10.00">_cli_commands.hpp</text>
</a>
</g>
</g>
<!-- Node1&#45;&gt;Node12 -->
<g id="edge14" class="edge">
<title>Node1&#45;&gt;Node12</title>
<path fill="none" stroke="midnightblue" d="M494.12,-132.28C539.4,-122.19 607.26,-107.06 655.4,-96.34"/>
<polygon fill="midnightblue" stroke="midnightblue" points="493.25,-128.88 484.25,-134.48 494.78,-135.72 493.25,-128.88"/>
</g>
<!-- Node3 -->
<g id="node3" class="node">
<title>Node3</title>
<g id="a_node3"><a xlink:href="container__service_8cpp.html" target="_top" xlink:title="Implements the ContainerServiceHandler class for business logic related to containers.">
<polygon fill="white" stroke="black" points="122,-0.5 122,-30.5 226,-30.5 226,-0.5 122,-0.5"/>
<text text-anchor="start" x="130" y="-18.5" font-family="Helvetica,sans-Serif" font-size="10.00">core/src/container</text>
<text text-anchor="middle" x="174" y="-7.5" font-family="Helvetica,sans-Serif" font-size="10.00">_service.cpp</text>
</a>
</g>
</g>
<!-- Node2&#45;&gt;Node3 -->
<g id="edge2" class="edge">
<title>Node2&#45;&gt;Node3</title>
<path fill="none" stroke="midnightblue" d="M174,-57.11C174,-48.15 174,-38.32 174,-30.58"/>
<polygon fill="midnightblue" stroke="midnightblue" points="170.5,-57.4 174,-67.4 177.5,-57.4 170.5,-57.4"/>
</g>
<!-- Node4 -->
<g id="node4" class="node">
<title>Node4</title>
<g id="a_node4"><a xlink:href="command__factory_8cpp.html" target="_top" xlink:title="Implements the CommandFactory class for creating command objects based on container requests.">
<polygon fill="white" stroke="black" points="510,-0.5 510,-30.5 634,-30.5 634,-0.5 510,-0.5"/>
<text text-anchor="start" x="518" y="-18.5" font-family="Helvetica,sans-Serif" font-size="10.00">runtime/src/command</text>
<text text-anchor="middle" x="572" y="-7.5" font-family="Helvetica,sans-Serif" font-size="10.00">_factory.cpp</text>
</a>
</g>
</g>
<!-- Node2&#45;&gt;Node4 -->
<g id="edge3" class="edge">
<title>Node2&#45;&gt;Node4</title>
<path fill="none" stroke="midnightblue" d="M246.4,-66.82C359.52,-47.68 390.38,-49.76 500,-31 503.27,-30.44 506.61,-29.85 509.99,-29.23"/>
<polygon fill="midnightblue" stroke="midnightblue" points="245.56,-63.42 236.3,-68.55 246.74,-70.32 245.56,-63.42"/>
</g>
<!-- Node5 -->
<g id="node5" class="node">
<title>Node5</title>
<g id="a_node5"><a xlink:href="container__service__test_8cpp.html" target="_top" xlink:title=" ">
<polygon fill="white" stroke="black" points="0,-0.5 0,-30.5 104,-30.5 104,-0.5 0,-0.5"/>
<text text-anchor="start" x="8" y="-18.5" font-family="Helvetica,sans-Serif" font-size="10.00">unitTest/container</text>
<text text-anchor="middle" x="52" y="-7.5" font-family="Helvetica,sans-Serif" font-size="10.00">_service_test.cpp</text>
</a>
</g>
</g>
<!-- Node2&#45;&gt;Node5 -->
<g id="edge4" class="edge">
<title>Node2&#45;&gt;Node5</title>
<path fill="none" stroke="midnightblue" d="M138.48,-62.57C119.29,-52.35 96,-39.94 78.42,-30.58"/>
<polygon fill="midnightblue" stroke="midnightblue" points="137.06,-65.78 147.53,-67.4 140.35,-59.6 137.06,-65.78"/>
</g>
<!-- Node6&#45;&gt;Node4 -->
<g id="edge6" class="edge">
<title>Node6&#45;&gt;Node4</title>
<path fill="none" stroke="midnightblue" d="M378.81,-64.98C421.11,-54.37 475.49,-40.72 515.77,-30.61"/>
<polygon fill="midnightblue" stroke="midnightblue" points="377.73,-61.65 368.88,-67.48 379.43,-68.44 377.73,-61.65"/>
</g>
<!-- Node7 -->
<g id="node7" class="node">
<title>Node7</title>
<g id="a_node7"><a xlink:href="docker__api__commands_8cpp.html" target="_top" xlink:title="Implements Docker API command classes for managing containers via the Docker HTTP API over a Unix soc...">
<polygon fill="white" stroke="black" points="244,-0.5 244,-30.5 360,-30.5 360,-0.5 244,-0.5"/>
<text text-anchor="start" x="252" y="-18.5" font-family="Helvetica,sans-Serif" font-size="10.00">runtime/src/docker</text>
<text text-anchor="middle" x="302" y="-7.5" font-family="Helvetica,sans-Serif" font-size="10.00">_api_commands.cpp</text>
</a>
</g>
</g>
<!-- Node6&#45;&gt;Node7 -->
<g id="edge7" class="edge">
<title>Node6&#45;&gt;Node7</title>
<path fill="none" stroke="midnightblue" d="M308.92,-57.4C307.39,-48.37 305.71,-38.41 304.38,-30.58"/>
<polygon fill="midnightblue" stroke="midnightblue" points="305.49,-58.12 310.61,-67.4 312.4,-56.95 305.49,-58.12"/>
</g>
<!-- Node8&#45;&gt;Node4 -->
<g id="edge9" class="edge">
<title>Node8&#45;&gt;Node4</title>
<path fill="none" stroke="midnightblue" d="M482.42,-62.71C502.29,-52.46 526.48,-39.98 544.71,-30.58"/>
<polygon fill="midnightblue" stroke="midnightblue" points="480.62,-59.7 473.34,-67.4 483.83,-65.92 480.62,-59.7"/>
</g>
<!-- Node9 -->
<g id="node9" class="node">
<title>Node9</title>
<g id="a_node9"><a xlink:href="docker__cli__commands_8cpp.html" target="_top" xlink:title="Implements Docker command classes for container operations.">
<polygon fill="white" stroke="black" points="378.5,-0.5 378.5,-30.5 491.5,-30.5 491.5,-0.5 378.5,-0.5"/>
<text text-anchor="start" x="386.5" y="-18.5" font-family="Helvetica,sans-Serif" font-size="10.00">runtime/src/docker</text>
<text text-anchor="middle" x="435" y="-7.5" font-family="Helvetica,sans-Serif" font-size="10.00">_cli_commands.cpp</text>
</a>
</g>
</g>
<!-- Node8&#45;&gt;Node9 -->
<g id="edge10" class="edge">
<title>Node8&#45;&gt;Node9</title>
<path fill="none" stroke="midnightblue" d="M441.92,-57.4C440.39,-48.37 438.71,-38.41 437.38,-30.58"/>
<polygon fill="midnightblue" stroke="midnightblue" points="438.49,-58.12 443.61,-67.4 445.4,-56.95 438.49,-58.12"/>
</g>
<!-- Node10&#45;&gt;Node4 -->
<g id="edge12" class="edge">
<title>Node10&#45;&gt;Node4</title>
<path fill="none" stroke="midnightblue" d="M576.4,-57.4C575.43,-48.37 574.36,-38.41 573.52,-30.58"/>
<polygon fill="midnightblue" stroke="midnightblue" points="572.93,-57.83 577.48,-67.4 579.89,-57.08 572.93,-57.83"/>
</g>
<!-- Node11 -->
<g id="node11" class="node">
<title>Node11</title>
<g id="a_node11"><a xlink:href="podman__api__commands_8cpp.html" target="_top" xlink:title="Implements Podman API command classes for managing containers via the Podman HTTP API over a Unix soc...">
<polygon fill="white" stroke="black" points="652,-0.5 652,-30.5 768,-30.5 768,-0.5 652,-0.5"/>
<text text-anchor="start" x="660" y="-18.5" font-family="Helvetica,sans-Serif" font-size="10.00">runtime/src/podman</text>
<text text-anchor="middle" x="710" y="-7.5" font-family="Helvetica,sans-Serif" font-size="10.00">_api_commands.cpp</text>
</a>
</g>
</g>
<!-- Node10&#45;&gt;Node11 -->
<g id="edge13" class="edge">
<title>Node10&#45;&gt;Node11</title>
<path fill="none" stroke="midnightblue" d="M616.58,-62.85C637.29,-52.58 662.59,-40.03 681.63,-30.58"/>
<polygon fill="midnightblue" stroke="midnightblue" points="614.83,-59.82 607.43,-67.4 617.94,-66.09 614.83,-59.82"/>
</g>
<!-- Node12&#45;&gt;Node4 -->
<g id="edge15" class="edge">
<title>Node12&#45;&gt;Node4</title>
<path fill="none" stroke="midnightblue" d="M673.15,-63.13C650.75,-52.8 623.22,-40.11 602.54,-30.58"/>
<polygon fill="midnightblue" stroke="midnightblue" points="671.86,-66.39 682.41,-67.4 674.79,-60.03 671.86,-66.39"/>
</g>
<!-- Node13 -->
<g id="node13" class="node">
<title>Node13</title>
<g id="a_node13"><a xlink:href="podman__cli__commands_8cpp.html" target="_top" xlink:title="Implements Podman command classes for container operations.">
<polygon fill="white" stroke="black" points="786.5,-0.5 786.5,-30.5 901.5,-30.5 901.5,-0.5 786.5,-0.5"/>
<text text-anchor="start" x="794.5" y="-18.5" font-family="Helvetica,sans-Serif" font-size="10.00">runtime/src/podman</text>
<text text-anchor="middle" x="844" y="-7.5" font-family="Helvetica,sans-Serif" font-size="10.00">_cli_commands.cpp</text>
</a>
</g>
</g>
<!-- Node12&#45;&gt;Node13 -->
<g id="edge16" class="edge">
<title>Node12&#45;&gt;Node13</title>
<path fill="none" stroke="midnightblue" d="M750.58,-62.85C771.29,-52.58 796.59,-40.03 815.63,-30.58"/>
<polygon fill="midnightblue" stroke="midnightblue" points="748.83,-59.82 741.43,-67.4 751.94,-66.09 748.83,-59.82"/>
</g>
</g>
</svg>
