<?xml version="1.0" encoding="UTF-8" standalone="no"?>
<!DOCTYPE svg PUBLIC "-//W3C//DTD SVG 1.1//EN"
 "http://www.w3.org/Graphics/SVG/1.1/DTD/svg11.dtd">
<!-- Generated by graphviz version 2.43.0 (0)
 -->
<!-- Title: FormatCommand Pages: 1 -->
<svg width="339pt" height="480pt"
 viewBox="0.00 0.00 339.00 480.00" xmlns="http://www.w3.org/2000/svg" xmlns:xlink="http://www.w3.org/1999/xlink">
<g id="graph0" class="graph" transform="scale(1 1) rotate(0) translate(4 476)">
<title>FormatCommand</title>
<polygon fill="white" stroke="transparent" points="-4,4 -4,-476 335,-476 335,4 -4,4"/>
<!-- Node1 -->
<g id="node1" class="node">
<title>Node1</title>
<g id="a_node1"><a xlink:title="Utility function to format command templates by replacing placeholders with actual values.">
<polygon fill="#bfbfbf" stroke="black" points="230,-226 230,-245 331,-245 331,-226 230,-226"/>
<text text-anchor="middle" x="280.5" y="-233" font-family="Helvetica,sans-Serif" font-size="10.00">FormatCommand</text>
</a>
</g>
</g>
<!-- Node2 -->
<g id="node2" class="node">
<title>Node2</title>
<g id="a_node2"><a xlink:href="classDockerCreateContainerCommand.html#a8967ee094698e00a212c67f71870de06" target="_top" xlink:title="Executes the command to create a Docker container.">
<polygon fill="white" stroke="black" points="7,-441.5 7,-471.5 187,-471.5 187,-441.5 7,-441.5"/>
<text text-anchor="start" x="15" y="-459.5" font-family="Helvetica,sans-Serif" font-size="10.00">DockerCreateContainerCommand</text>
<text text-anchor="middle" x="97" y="-448.5" font-family="Helvetica,sans-Serif" font-size="10.00">::Execute</text>
</a>
</g>
</g>
<!-- Node1&#45;&gt;Node2 -->
<g id="edge1" class="edge">
<title>Node1&#45;&gt;Node2</title>
<path fill="none" stroke="midnightblue" d="M276.81,-255.04C270.27,-294.78 249.77,-385.22 194,-432.5 189.94,-435.94 185.45,-438.91 180.7,-441.45"/>
<polygon fill="midnightblue" stroke="midnightblue" points="280.28,-255.46 278.33,-245.05 273.36,-254.41 280.28,-255.46"/>
</g>
<!-- Node3 -->
<g id="node3" class="node">
<title>Node3</title>
<g id="a_node3"><a xlink:href="classPodmanCreateContainerCommand.html#aca31055904b1fb20736ed5807e215ae6" target="_top" xlink:title="Executes the command to create a Podman container.">
<polygon fill="white" stroke="black" points="4,-392.5 4,-422.5 190,-422.5 190,-392.5 4,-392.5"/>
<text text-anchor="start" x="12" y="-410.5" font-family="Helvetica,sans-Serif" font-size="10.00">PodmanCreateContainerCommand</text>
<text text-anchor="middle" x="97" y="-399.5" font-family="Helvetica,sans-Serif" font-size="10.00">::Execute</text>
</a>
</g>
</g>
<!-- Node1&#45;&gt;Node3 -->
<g id="edge2" class="edge">
<title>Node1&#45;&gt;Node3</title>
<path fill="none" stroke="midnightblue" d="M273.71,-255.16C263.25,-287.16 238.09,-350.26 194,-383.5 189.47,-386.91 184.52,-389.84 179.32,-392.36"/>
<polygon fill="midnightblue" stroke="midnightblue" points="277.17,-255.83 276.81,-245.24 270.49,-253.74 277.17,-255.83"/>
</g>
<!-- Node4 -->
<g id="node4" class="node">
<title>Node4</title>
<g id="a_node4"><a xlink:href="classPodmanStartContainerCommand.html#aaf7627e6faf5974ffcd95e8a5f58852f" target="_top" xlink:title="Executes the command to start a Podman container.">
<polygon fill="white" stroke="black" points="8.5,-343.5 8.5,-373.5 185.5,-373.5 185.5,-343.5 8.5,-343.5"/>
<text text-anchor="start" x="16.5" y="-361.5" font-family="Helvetica,sans-Serif" font-size="10.00">PodmanStartContainerCommand</text>
<text text-anchor="middle" x="97" y="-350.5" font-family="Helvetica,sans-Serif" font-size="10.00">::Execute</text>
</a>
</g>
</g>
<!-- Node1&#45;&gt;Node4 -->
<g id="edge3" class="edge">
<title>Node1&#45;&gt;Node4</title>
<path fill="none" stroke="midnightblue" d="M268.76,-253.72C254.55,-276.21 227.34,-313.98 194,-334.5 188.44,-337.92 182.42,-340.86 176.19,-343.37"/>
<polygon fill="midnightblue" stroke="midnightblue" points="271.8,-255.47 274.04,-245.11 265.83,-251.81 271.8,-255.47"/>
</g>
<!-- Node5 -->
<g id="node5" class="node">
<title>Node5</title>
<g id="a_node5"><a xlink:href="classDockerStartContainerCommand.html#ad208f99e4185a7606a0a9903d1346fcc" target="_top" xlink:title="Executes the command to start a Docker container.">
<polygon fill="white" stroke="black" points="11.5,-294.5 11.5,-324.5 182.5,-324.5 182.5,-294.5 11.5,-294.5"/>
<text text-anchor="start" x="19.5" y="-312.5" font-family="Helvetica,sans-Serif" font-size="10.00">DockerStartContainerCommand</text>
<text text-anchor="middle" x="97" y="-301.5" font-family="Helvetica,sans-Serif" font-size="10.00">::Execute</text>
</a>
</g>
</g>
<!-- Node1&#45;&gt;Node5 -->
<g id="edge4" class="edge">
<title>Node1&#45;&gt;Node5</title>
<path fill="none" stroke="midnightblue" d="M257.4,-250.79C240.64,-261.79 216.71,-276.24 194,-285.5 185.73,-288.87 176.85,-291.86 167.97,-294.49"/>
<polygon fill="midnightblue" stroke="midnightblue" points="259.55,-253.57 265.91,-245.1 255.65,-247.75 259.55,-253.57"/>
</g>
<!-- Node6 -->
<g id="node6" class="node">
<title>Node6</title>
<g id="a_node6"><a xlink:href="classPodmanStopContainerCommand.html#a42d7bf3c2ae604172ae1e1ae29bdc0c6" target="_top" xlink:title="Executes the command to stop a Podman container.">
<polygon fill="white" stroke="black" points="9,-245.5 9,-275.5 185,-275.5 185,-245.5 9,-245.5"/>
<text text-anchor="start" x="17" y="-263.5" font-family="Helvetica,sans-Serif" font-size="10.00">PodmanStopContainerCommand</text>
<text text-anchor="middle" x="97" y="-252.5" font-family="Helvetica,sans-Serif" font-size="10.00">::Execute</text>
</a>
</g>
</g>
<!-- Node1&#45;&gt;Node6 -->
<g id="edge5" class="edge">
<title>Node1&#45;&gt;Node6</title>
<path fill="none" stroke="midnightblue" d="M219.92,-243.71C208.8,-245.24 196.98,-246.87 185.23,-248.49"/>
<polygon fill="midnightblue" stroke="midnightblue" points="220.48,-247.16 229.9,-242.33 219.52,-240.23 220.48,-247.16"/>
</g>
<!-- Node7 -->
<g id="node7" class="node">
<title>Node7</title>
<g id="a_node7"><a xlink:href="classDockerStopContainerCommand.html#a4d6a495edca166958eee65ca601bc5bd" target="_top" xlink:title="Executes the command to stop a Docker container.">
<polygon fill="white" stroke="black" points="12,-196.5 12,-226.5 182,-226.5 182,-196.5 12,-196.5"/>
<text text-anchor="start" x="20" y="-214.5" font-family="Helvetica,sans-Serif" font-size="10.00">DockerStopContainerCommand</text>
<text text-anchor="middle" x="97" y="-203.5" font-family="Helvetica,sans-Serif" font-size="10.00">::Execute</text>
</a>
</g>
</g>
<!-- Node1&#45;&gt;Node7 -->
<g id="edge6" class="edge">
<title>Node1&#45;&gt;Node7</title>
<path fill="none" stroke="midnightblue" d="M219.95,-227.63C207.83,-226.02 194.87,-224.31 182.09,-222.62"/>
<polygon fill="midnightblue" stroke="midnightblue" points="219.53,-231.1 229.9,-228.94 220.45,-224.16 219.53,-231.1"/>
</g>
<!-- Node8 -->
<g id="node8" class="node">
<title>Node8</title>
<g id="a_node8"><a xlink:href="classPodmanRemoveContainerCommand.html#a3bb0bf30e7f91e87c407980e1adcc398" target="_top" xlink:title="Executes the command to remove a Podman container.">
<polygon fill="white" stroke="black" points="0,-147.5 0,-177.5 194,-177.5 194,-147.5 0,-147.5"/>
<text text-anchor="start" x="8" y="-165.5" font-family="Helvetica,sans-Serif" font-size="10.00">PodmanRemoveContainerCommand</text>
<text text-anchor="middle" x="97" y="-154.5" font-family="Helvetica,sans-Serif" font-size="10.00">::Execute</text>
</a>
</g>
</g>
<!-- Node1&#45;&gt;Node8 -->
<g id="edge7" class="edge">
<title>Node1&#45;&gt;Node8</title>
<path fill="none" stroke="midnightblue" d="M256.68,-220.56C239.91,-210.11 216.25,-196.47 194,-187.5 184.74,-183.77 174.74,-180.44 164.82,-177.53"/>
<polygon fill="midnightblue" stroke="midnightblue" points="254.92,-223.58 265.24,-225.98 258.67,-217.67 254.92,-223.58"/>
</g>
<!-- Node9 -->
<g id="node9" class="node">
<title>Node9</title>
<g id="a_node9"><a xlink:href="classDockerRemoveContainerCommand.html#a0c15063652bf92deb99a742a4a9f61fd" target="_top" xlink:title="Executes the command to remove a Docker container.">
<polygon fill="white" stroke="black" points="3,-98.5 3,-128.5 191,-128.5 191,-98.5 3,-98.5"/>
<text text-anchor="start" x="11" y="-116.5" font-family="Helvetica,sans-Serif" font-size="10.00">DockerRemoveContainerCommand</text>
<text text-anchor="middle" x="97" y="-105.5" font-family="Helvetica,sans-Serif" font-size="10.00">::Execute</text>
</a>
</g>
</g>
<!-- Node1&#45;&gt;Node9 -->
<g id="edge8" class="edge">
<title>Node1&#45;&gt;Node9</title>
<path fill="none" stroke="midnightblue" d="M268.42,-217.37C254.02,-195.35 226.79,-158.67 194,-138.5 187.69,-134.62 180.8,-131.34 173.68,-128.56"/>
<polygon fill="midnightblue" stroke="midnightblue" points="265.47,-219.25 273.79,-225.81 271.38,-215.49 265.47,-219.25"/>
</g>
<!-- Node10 -->
<g id="node10" class="node">
<title>Node10</title>
<g id="a_node10"><a xlink:href="classDockerRestartContainerCommand.html#a3852a9870150e02cde5e3f3cabf4d5d9" target="_top" xlink:title="Executes the command to restart a Docker container.">
<polygon fill="white" stroke="black" points="5.5,-49.5 5.5,-79.5 188.5,-79.5 188.5,-49.5 5.5,-49.5"/>
<text text-anchor="start" x="13.5" y="-67.5" font-family="Helvetica,sans-Serif" font-size="10.00">DockerRestartContainerCommand</text>
<text text-anchor="middle" x="97" y="-56.5" font-family="Helvetica,sans-Serif" font-size="10.00">::Execute</text>
</a>
</g>
</g>
<!-- Node1&#45;&gt;Node10 -->
<g id="edge9" class="edge">
<title>Node1&#45;&gt;Node10</title>
<path fill="none" stroke="midnightblue" d="M273.6,-216.15C262.98,-184.65 237.58,-122.48 194,-89.5 188.92,-85.65 183.3,-82.4 177.41,-79.64"/>
<polygon fill="midnightblue" stroke="midnightblue" points="270.35,-217.47 276.75,-225.92 277.01,-215.32 270.35,-217.47"/>
</g>
<!-- Node11 -->
<g id="node11" class="node">
<title>Node11</title>
<g id="a_node11"><a xlink:href="classPodmanRestartContainerCommand.html#ae4a585c345eafa6a97a1f38e4cb485ea" target="_top" xlink:title="Executes the command to restart a Podman container.">
<polygon fill="white" stroke="black" points="2.5,-0.5 2.5,-30.5 191.5,-30.5 191.5,-0.5 2.5,-0.5"/>
<text text-anchor="start" x="10.5" y="-18.5" font-family="Helvetica,sans-Serif" font-size="10.00">PodmanRestartContainerCommand</text>
<text text-anchor="middle" x="97" y="-7.5" font-family="Helvetica,sans-Serif" font-size="10.00">::Execute</text>
</a>
</g>
</g>
<!-- Node1&#45;&gt;Node11 -->
<g id="edge10" class="edge">
<title>Node1&#45;&gt;Node11</title>
<path fill="none" stroke="midnightblue" d="M276.61,-215.65C269.79,-176.11 248.9,-87.32 194,-40.5 189.54,-36.7 184.58,-33.47 179.32,-30.72"/>
<polygon fill="midnightblue" stroke="midnightblue" points="273.17,-216.3 278.21,-225.62 280.08,-215.19 273.17,-216.3"/>
</g>
</g>
</svg>
