<?xml version="1.0" encoding="UTF-8" standalone="no"?>
<!DOCTYPE svg PUBLIC "-//W3C//DTD SVG 1.1//EN"
 "http://www.w3.org/Graphics/SVG/1.1/DTD/svg11.dtd">
<!-- Generated by graphviz version 2.43.0 (0)
 -->
<!-- Title: runtime/src/command_factory.cpp Pages: 1 -->
<!--zoomable 263 -->
<svg id="main" version="1.1" xmlns="http://www.w3.org/2000/svg" xmlns:xlink="http://www.w3.org/1999/xlink" xml:space="preserve" onload="init(evt)">
<style type="text/css"><![CDATA[
.edge:hover path { stroke: red; }
.edge:hover polygon { stroke: red; fill: red; }
]]></style>
<script type="text/javascript"><![CDATA[
var edges = document.getElementsByTagName('g');
if (edges && edges.length) {
  for (var i=0;i<edges.length;i++) {
    if (edges[i].id.substr(0,4)=='edge') {
      edges[i].setAttribute('class','edge');
    }
  }
}
]]></script>
        <defs>
                <circle id="rim" cx="0" cy="0" r="7"/>
                <circle id="rim2" cx="0" cy="0" r="3.5"/>
                <g id="zoomPlus">
                        <use xlink:href="#rim" fill="#404040">
                                <set attributeName="fill" to="#808080" begin="zoomplus.mouseover" end="zoomplus.mouseout"/>
                        </use>
                        <path d="M-4,0h8M0,-4v8" fill="none" stroke="white" stroke-width="1.5" pointer-events="none"/>
                </g>
                <g id="zoomMin">
                        <use xlink:href="#rim" fill="#404040">
                                <set attributeName="fill" to="#808080" begin="zoomminus.mouseover" end="zoomminus.mouseout"/>
                        </use>
                        <path d="M-4,0h8" fill="none" stroke="white" stroke-width="1.5" pointer-events="none"/>
                </g>
                <g id="dirArrow">
                        <path fill="none" stroke="white" stroke-width="1.5" d="M0,-3.0v7 M-2.5,-0.5L0,-3.0L2.5,-0.5"/>
                </g>
               <g id="resetDef">
                       <use xlink:href="#rim2" fill="#404040">
                               <set attributeName="fill" to="#808080" begin="reset.mouseover" end="reset.mouseout"/>
                       </use>
               </g>
        </defs>

<script type="text/javascript">
var viewWidth = 1087;
var viewHeight = 263;
var sectionId = 'dynsection-0';
</script>
<script xlink:href="svgpan.js"/>
<svg id="graph" class="graph">
<g id="viewport">
<title>runtime/src/command_factory.cpp</title>
<polygon fill="white" stroke="transparent" points="-4,4 -4,-259 1082.5,-259 1082.5,4 -4,4"/>
<!-- Node1 -->
<g id="node1" class="node">
<title>Node1</title>
<g id="a_node1"><a xlink:title="Implements the CommandFactory class for creating command objects based on container requests.">
<polygon fill="#bfbfbf" stroke="black" points="598,-224.5 598,-254.5 722,-254.5 722,-224.5 598,-224.5"/>
<text text-anchor="start" x="606" y="-242.5" font-family="Helvetica,sans-Serif" font-size="10.00">runtime/src/command</text>
<text text-anchor="middle" x="660" y="-231.5" font-family="Helvetica,sans-Serif" font-size="10.00">_factory.cpp</text>
</a>
</g>
</g>
<!-- Node2 -->
<g id="node2" class="node">
<title>Node2</title>
<g id="a_node2"><a xlink:href="command__factory_8hpp.html" target="_top" xlink:title="Declares the CommandFactory class for creating command objects based on container requests.">
<polygon fill="white" stroke="black" points="751,-168.5 751,-187.5 893,-187.5 893,-168.5 751,-168.5"/>
<text text-anchor="middle" x="822" y="-175.5" font-family="Helvetica,sans-Serif" font-size="10.00">inc/command_factory.hpp</text>
</a>
</g>
</g>
<!-- Node1&#45;&gt;Node2 -->
<g id="edge1" class="edge">
<title>Node1&#45;&gt;Node2</title>
<path fill="none" stroke="midnightblue" d="M698.39,-224.4C725.94,-214.28 762.67,-200.79 788.92,-191.15"/>
<polygon fill="midnightblue" stroke="midnightblue" points="790.25,-194.39 798.43,-187.66 787.83,-187.82 790.25,-194.39"/>
</g>
<!-- Node7 -->
<g id="node7" class="node">
<title>Node7</title>
<g id="a_node7"><a xlink:href="common_8hpp.html" target="_top" xlink:title="Defines common constants, string views, and utility structures for the application.">
<polygon fill="white" stroke="black" points="852,-112.5 852,-131.5 950,-131.5 950,-112.5 852,-112.5"/>
<text text-anchor="middle" x="901" y="-119.5" font-family="Helvetica,sans-Serif" font-size="10.00">inc/common.hpp</text>
</a>
</g>
</g>
<!-- Node1&#45;&gt;Node7 -->
<g id="edge16" class="edge">
<title>Node1&#45;&gt;Node7</title>
<path fill="none" stroke="midnightblue" d="M722.11,-234.26C786.16,-228.43 879.73,-215.39 902,-188 912.44,-175.16 910.59,-155.7 907.11,-141.42"/>
<polygon fill="midnightblue" stroke="midnightblue" points="910.44,-140.34 904.3,-131.71 903.71,-142.29 910.44,-140.34"/>
</g>
<!-- Node10 -->
<g id="node10" class="node">
<title>Node10</title>
<g id="a_node10"><a xlink:href="container__request_8hpp.html" target="_top" xlink:title="Data structure for representing a container operation request.">
<polygon fill="white" stroke="black" points="512.5,-112.5 512.5,-131.5 655.5,-131.5 655.5,-112.5 512.5,-112.5"/>
<text text-anchor="middle" x="584" y="-119.5" font-family="Helvetica,sans-Serif" font-size="10.00">inc/container_request.hpp</text>
</a>
</g>
</g>
<!-- Node1&#45;&gt;Node10 -->
<g id="edge42" class="edge">
<title>Node1&#45;&gt;Node10</title>
<path fill="none" stroke="midnightblue" d="M620.88,-224.48C604.57,-216.47 587.29,-204.64 578,-188 570.06,-173.79 572.92,-155.07 576.96,-141.37"/>
<polygon fill="midnightblue" stroke="midnightblue" points="580.36,-142.23 580.26,-131.64 573.73,-139.98 580.36,-142.23"/>
</g>
<!-- Node11 -->
<g id="node11" class="node">
<title>Node11</title>
<g id="a_node11"><a xlink:title=" ">
<polygon fill="white" stroke="#bfbfbf" points="984,-112.5 984,-131.5 1044,-131.5 1044,-112.5 984,-112.5"/>
<text text-anchor="middle" x="1014" y="-119.5" font-family="Helvetica,sans-Serif" font-size="10.00">iostream</text>
</a>
</g>
</g>
<!-- Node1&#45;&gt;Node11 -->
<g id="edge15" class="edge">
<title>Node1&#45;&gt;Node11</title>
<path fill="none" stroke="midnightblue" d="M722.24,-233.66C776.26,-227.79 855.69,-215.07 920,-188 949.23,-175.7 978.61,-153.42 996.55,-138.41"/>
<polygon fill="midnightblue" stroke="midnightblue" points="999.06,-140.87 1004.39,-131.71 994.51,-135.55 999.06,-140.87"/>
</g>
<!-- Node12 -->
<g id="node12" class="node">
<title>Node12</title>
<g id="a_node12"><a xlink:href="logging_8hpp.html" target="_top" xlink:title="Logging macros and configuration for the Container Manager.">
<polygon fill="white" stroke="black" points="987.5,-168.5 987.5,-187.5 1078.5,-187.5 1078.5,-168.5 987.5,-168.5"/>
<text text-anchor="middle" x="1033" y="-175.5" font-family="Helvetica,sans-Serif" font-size="10.00">inc/logging.hpp</text>
</a>
</g>
</g>
<!-- Node1&#45;&gt;Node12 -->
<g id="edge17" class="edge">
<title>Node1&#45;&gt;Node12</title>
<path fill="none" stroke="midnightblue" d="M722.01,-228.61C793.14,-217.26 908.74,-198.82 977.17,-187.91"/>
<polygon fill="midnightblue" stroke="midnightblue" points="978,-191.32 987.32,-186.29 976.89,-184.41 978,-191.32"/>
</g>
<!-- Node13 -->
<g id="node13" class="node">
<title>Node13</title>
<g id="a_node13"><a xlink:href="podman__commands_8hpp.html" target="_top" xlink:title="Declares Podman command classes for container operations.">
<polygon fill="white" stroke="black" points="192,-168.5 192,-187.5 346,-187.5 346,-168.5 192,-168.5"/>
<text text-anchor="middle" x="269" y="-175.5" font-family="Helvetica,sans-Serif" font-size="10.00">inc/podman_commands.hpp</text>
</a>
</g>
</g>
<!-- Node1&#45;&gt;Node13 -->
<g id="edge19" class="edge">
<title>Node1&#45;&gt;Node13</title>
<path fill="none" stroke="midnightblue" d="M597.61,-229.01C525.85,-218.09 408.51,-200.23 335.19,-189.07"/>
<polygon fill="midnightblue" stroke="midnightblue" points="335.56,-185.59 325.14,-187.54 334.5,-192.51 335.56,-185.59"/>
</g>
<!-- Node14 -->
<g id="node14" class="node">
<title>Node14</title>
<g id="a_node14"><a xlink:href="docker__commands_8hpp.html" target="_top" xlink:title="Declares Docker command classes for container operations.">
<polygon fill="white" stroke="black" points="587,-168.5 587,-187.5 733,-187.5 733,-168.5 587,-168.5"/>
<text text-anchor="middle" x="660" y="-175.5" font-family="Helvetica,sans-Serif" font-size="10.00">inc/docker_commands.hpp</text>
</a>
</g>
</g>
<!-- Node1&#45;&gt;Node14 -->
<g id="edge25" class="edge">
<title>Node1&#45;&gt;Node14</title>
<path fill="none" stroke="midnightblue" d="M660,-224.4C660,-216.47 660,-206.46 660,-197.86"/>
<polygon fill="midnightblue" stroke="midnightblue" points="663.5,-197.66 660,-187.66 656.5,-197.66 663.5,-197.66"/>
</g>
<!-- Node15 -->
<g id="node15" class="node">
<title>Node15</title>
<g id="a_node15"><a xlink:href="podman__api__commands_8hpp.html" target="_top" xlink:title="Declares command classes for managing containers via the Podman HTTP API over a Unix socket.">
<polygon fill="white" stroke="black" points="0,-168.5 0,-187.5 174,-187.5 174,-168.5 0,-168.5"/>
<text text-anchor="middle" x="87" y="-175.5" font-family="Helvetica,sans-Serif" font-size="10.00">inc/podman_api_commands.hpp</text>
</a>
</g>
</g>
<!-- Node1&#45;&gt;Node15 -->
<g id="edge30" class="edge">
<title>Node1&#45;&gt;Node15</title>
<path fill="none" stroke="midnightblue" d="M597.86,-232.05C496.94,-221.57 296.87,-200.79 179.28,-188.58"/>
<polygon fill="midnightblue" stroke="midnightblue" points="179.52,-185.09 169.21,-187.54 178.8,-192.05 179.52,-185.09"/>
</g>
<!-- Node16 -->
<g id="node16" class="node">
<title>Node16</title>
<g id="a_node16"><a xlink:href="docker__api__commands_8hpp.html" target="_top" xlink:title="Declares command classes for managing containers via the Docker HTTP API over a Unix socket.">
<polygon fill="white" stroke="black" points="364.5,-168.5 364.5,-187.5 531.5,-187.5 531.5,-168.5 364.5,-168.5"/>
<text text-anchor="middle" x="448" y="-175.5" font-family="Helvetica,sans-Serif" font-size="10.00">inc/docker_api_commands.hpp</text>
</a>
</g>
</g>
<!-- Node1&#45;&gt;Node16 -->
<g id="edge36" class="edge">
<title>Node1&#45;&gt;Node16</title>
<path fill="none" stroke="midnightblue" d="M610.03,-224.47C572.81,-214.03 522.67,-199.96 488.07,-190.25"/>
<polygon fill="midnightblue" stroke="midnightblue" points="488.88,-186.84 478.31,-187.51 486.99,-193.58 488.88,-186.84"/>
</g>
<!-- Node3 -->
<g id="node3" class="node">
<title>Node3</title>
<g id="a_node3"><a xlink:title=" ">
<polygon fill="white" stroke="#bfbfbf" points="395,-56.5 395,-75.5 453,-75.5 453,-56.5 395,-56.5"/>
<text text-anchor="middle" x="424" y="-63.5" font-family="Helvetica,sans-Serif" font-size="10.00">memory</text>
</a>
</g>
</g>
<!-- Node2&#45;&gt;Node3 -->
<g id="edge2" class="edge">
<title>Node2&#45;&gt;Node3</title>
<path fill="none" stroke="midnightblue" d="M806.99,-168.42C781.92,-154.46 729.56,-126.9 682,-112 606.5,-88.34 514.43,-76.05 463.21,-70.61"/>
<polygon fill="midnightblue" stroke="midnightblue" points="463.53,-67.12 453.22,-69.58 462.81,-74.09 463.53,-67.12"/>
</g>
<!-- Node4 -->
<g id="node4" class="node">
<title>Node4</title>
<g id="a_node4"><a xlink:title=" ">
<polygon fill="white" stroke="#bfbfbf" points="462,-0.5 462,-19.5 506,-19.5 506,-0.5 462,-0.5"/>
<text text-anchor="middle" x="484" y="-7.5" font-family="Helvetica,sans-Serif" font-size="10.00">string</text>
</a>
</g>
</g>
<!-- Node2&#45;&gt;Node4 -->
<g id="edge3" class="edge">
<title>Node2&#45;&gt;Node4</title>
<path fill="none" stroke="midnightblue" d="M812.38,-168.28C787.54,-146.23 718.47,-87.72 651,-56 606.55,-35.1 550.72,-22.54 516.2,-16.19"/>
<polygon fill="midnightblue" stroke="midnightblue" points="516.67,-12.72 506.21,-14.42 515.45,-19.61 516.67,-12.72"/>
</g>
<!-- Node5 -->
<g id="node5" class="node">
<title>Node5</title>
<g id="a_node5"><a xlink:href="commands_8hpp.html" target="_top" xlink:title="Declares the Command interface and Invoker class for the command pattern.">
<polygon fill="white" stroke="black" points="308.5,-112.5 308.5,-131.5 417.5,-131.5 417.5,-112.5 308.5,-112.5"/>
<text text-anchor="middle" x="363" y="-119.5" font-family="Helvetica,sans-Serif" font-size="10.00">inc/commands.hpp</text>
</a>
</g>
</g>
<!-- Node2&#45;&gt;Node5 -->
<g id="edge4" class="edge">
<title>Node2&#45;&gt;Node5</title>
<path fill="none" stroke="midnightblue" d="M750.78,-168.62C662.47,-158.23 513.17,-140.67 427.89,-130.63"/>
<polygon fill="midnightblue" stroke="midnightblue" points="428.15,-127.14 417.81,-129.45 427.34,-134.09 428.15,-127.14"/>
</g>
<!-- Node2&#45;&gt;Node7 -->
<g id="edge9" class="edge">
<title>Node2&#45;&gt;Node7</title>
<path fill="none" stroke="midnightblue" d="M834.69,-168.32C846.9,-159.98 865.58,-147.21 880,-137.35"/>
<polygon fill="midnightblue" stroke="midnightblue" points="882.06,-140.19 888.34,-131.65 878.11,-134.41 882.06,-140.19"/>
</g>
<!-- Node2&#45;&gt;Node10 -->
<g id="edge13" class="edge">
<title>Node2&#45;&gt;Node10</title>
<path fill="none" stroke="midnightblue" d="M784.29,-168.44C742.86,-159.04 676.24,-143.93 631.33,-133.74"/>
<polygon fill="midnightblue" stroke="midnightblue" points="632.06,-130.32 621.54,-131.52 630.51,-137.14 632.06,-130.32"/>
</g>
<!-- Node5&#45;&gt;Node3 -->
<g id="edge6" class="edge">
<title>Node5&#45;&gt;Node3</title>
<path fill="none" stroke="midnightblue" d="M372.8,-112.32C381.82,-104.34 395.41,-92.31 406.32,-82.65"/>
<polygon fill="midnightblue" stroke="midnightblue" points="408.85,-85.08 414.02,-75.83 404.21,-79.84 408.85,-85.08"/>
</g>
<!-- Node5&#45;&gt;Node4 -->
<g id="edge5" class="edge">
<title>Node5&#45;&gt;Node4</title>
<path fill="none" stroke="midnightblue" d="M363.91,-112.33C365.76,-98.73 371.15,-72.26 386,-56 403.55,-36.79 430.93,-25.17 452.29,-18.57"/>
<polygon fill="midnightblue" stroke="midnightblue" points="453.29,-21.93 461.93,-15.8 451.35,-15.2 453.29,-21.93"/>
</g>
<!-- Node6 -->
<g id="node6" class="node">
<title>Node6</title>
<g id="a_node6"><a xlink:href="status_8hpp.html" target="_top" xlink:title="Defines status codes and a Status struct for standardized error handling.">
<polygon fill="white" stroke="black" points="199.5,-56.5 199.5,-75.5 284.5,-75.5 284.5,-56.5 199.5,-56.5"/>
<text text-anchor="middle" x="242" y="-63.5" font-family="Helvetica,sans-Serif" font-size="10.00">inc/status.hpp</text>
</a>
</g>
</g>
<!-- Node5&#45;&gt;Node6 -->
<g id="edge7" class="edge">
<title>Node5&#45;&gt;Node6</title>
<path fill="none" stroke="midnightblue" d="M343.83,-112.44C324.09,-103.64 293.11,-89.81 270.51,-79.72"/>
<polygon fill="midnightblue" stroke="midnightblue" points="271.64,-76.4 261.08,-75.52 268.79,-82.79 271.64,-76.4"/>
</g>
<!-- Node6&#45;&gt;Node4 -->
<g id="edge8" class="edge">
<title>Node6&#45;&gt;Node4</title>
<path fill="none" stroke="midnightblue" d="M280.35,-56.44C327.73,-45.87 407.49,-28.07 451.83,-18.18"/>
<polygon fill="midnightblue" stroke="midnightblue" points="452.78,-21.55 461.77,-15.96 451.25,-14.72 452.78,-21.55"/>
</g>
<!-- Node7&#45;&gt;Node4 -->
<g id="edge10" class="edge">
<title>Node7&#45;&gt;Node4</title>
<path fill="none" stroke="midnightblue" d="M892.08,-112.07C877.03,-97.6 845,-69.32 812,-56 709.68,-14.71 576.37,-10.04 516.09,-10.29"/>
<polygon fill="midnightblue" stroke="midnightblue" points="516.01,-6.79 506.04,-10.38 516.07,-13.79 516.01,-6.79"/>
</g>
<!-- Node8 -->
<g id="node8" class="node">
<title>Node8</title>
<g id="a_node8"><a xlink:title=" ">
<polygon fill="white" stroke="#bfbfbf" points="864.5,-56.5 864.5,-75.5 937.5,-75.5 937.5,-56.5 864.5,-56.5"/>
<text text-anchor="middle" x="901" y="-63.5" font-family="Helvetica,sans-Serif" font-size="10.00">string_view</text>
</a>
</g>
</g>
<!-- Node7&#45;&gt;Node8 -->
<g id="edge11" class="edge">
<title>Node7&#45;&gt;Node8</title>
<path fill="none" stroke="midnightblue" d="M901,-112.08C901,-105.01 901,-94.86 901,-85.99"/>
<polygon fill="midnightblue" stroke="midnightblue" points="904.5,-85.75 901,-75.75 897.5,-85.75 904.5,-85.75"/>
</g>
<!-- Node9 -->
<g id="node9" class="node">
<title>Node9</title>
<g id="a_node9"><a xlink:title=" ">
<polygon fill="white" stroke="#bfbfbf" points="955.5,-56.5 955.5,-75.5 1048.5,-75.5 1048.5,-56.5 955.5,-56.5"/>
<text text-anchor="middle" x="1002" y="-63.5" font-family="Helvetica,sans-Serif" font-size="10.00">unordered_map</text>
</a>
</g>
</g>
<!-- Node7&#45;&gt;Node9 -->
<g id="edge12" class="edge">
<title>Node7&#45;&gt;Node9</title>
<path fill="none" stroke="midnightblue" d="M917.23,-112.32C933.35,-103.7 958.3,-90.36 976.96,-80.39"/>
<polygon fill="midnightblue" stroke="midnightblue" points="978.64,-83.46 985.81,-75.65 975.34,-77.28 978.64,-83.46"/>
</g>
<!-- Node10&#45;&gt;Node4 -->
<g id="edge14" class="edge">
<title>Node10&#45;&gt;Node4</title>
<path fill="none" stroke="midnightblue" d="M576.15,-112.37C559.43,-93.97 520.06,-50.67 498.59,-27.05"/>
<polygon fill="midnightblue" stroke="midnightblue" points="501.13,-24.64 491.81,-19.59 495.95,-29.35 501.13,-24.64"/>
</g>
<!-- Node12&#45;&gt;Node11 -->
<g id="edge18" class="edge">
<title>Node12&#45;&gt;Node11</title>
<path fill="none" stroke="midnightblue" d="M1029.86,-168.08C1027.32,-160.85 1023.64,-150.41 1020.47,-141.4"/>
<polygon fill="midnightblue" stroke="midnightblue" points="1023.7,-140.02 1017.08,-131.75 1017.1,-142.35 1023.7,-140.02"/>
</g>
<!-- Node13&#45;&gt;Node3 -->
<g id="edge21" class="edge">
<title>Node13&#45;&gt;Node3</title>
<path fill="none" stroke="midnightblue" d="M270.78,-168.13C274.02,-154.27 282.14,-127.45 299,-112 322.82,-90.16 358.01,-78.75 384.98,-72.89"/>
<polygon fill="midnightblue" stroke="midnightblue" points="385.76,-76.31 394.88,-70.91 384.39,-69.44 385.76,-76.31"/>
</g>
<!-- Node13&#45;&gt;Node4 -->
<g id="edge20" class="edge">
<title>Node13&#45;&gt;Node4</title>
<path fill="none" stroke="midnightblue" d="M255.53,-168.25C225.26,-147.56 156.99,-94.45 190,-56 223.45,-17.05 382.34,-11.46 451.6,-10.9"/>
<polygon fill="midnightblue" stroke="midnightblue" points="451.93,-14.4 461.91,-10.85 451.89,-7.4 451.93,-14.4"/>
</g>
<!-- Node13&#45;&gt;Node5 -->
<g id="edge23" class="edge">
<title>Node13&#45;&gt;Node5</title>
<path fill="none" stroke="midnightblue" d="M284.1,-168.32C298.9,-159.82 321.69,-146.73 338.98,-136.8"/>
<polygon fill="midnightblue" stroke="midnightblue" points="341.01,-139.67 347.93,-131.65 337.52,-133.6 341.01,-139.67"/>
</g>
<!-- Node13&#45;&gt;Node6 -->
<g id="edge22" class="edge">
<title>Node13&#45;&gt;Node6</title>
<path fill="none" stroke="midnightblue" d="M257.46,-168.49C247.52,-160.38 233.88,-147.18 228,-132 222.08,-116.71 227.04,-98.38 232.63,-85.09"/>
<polygon fill="midnightblue" stroke="midnightblue" points="235.97,-86.2 237.05,-75.66 229.63,-83.23 235.97,-86.2"/>
</g>
<!-- Node13&#45;&gt;Node10 -->
<g id="edge24" class="edge">
<title>Node13&#45;&gt;Node10</title>
<path fill="none" stroke="midnightblue" d="M318.91,-168.44C374.67,-158.89 464.89,-143.42 524.33,-133.23"/>
<polygon fill="midnightblue" stroke="midnightblue" points="525.06,-136.66 534.32,-131.52 523.87,-129.76 525.06,-136.66"/>
</g>
<!-- Node14&#45;&gt;Node3 -->
<g id="edge27" class="edge">
<title>Node14&#45;&gt;Node3</title>
<path fill="none" stroke="midnightblue" d="M663.92,-168.27C669.41,-154.58 677.29,-128.01 664,-112 638.98,-81.86 525.01,-71.78 463.55,-68.51"/>
<polygon fill="midnightblue" stroke="midnightblue" points="463.6,-65.01 453.44,-68.01 463.26,-72 463.6,-65.01"/>
</g>
<!-- Node14&#45;&gt;Node4 -->
<g id="edge26" class="edge">
<title>Node14&#45;&gt;Node4</title>
<path fill="none" stroke="midnightblue" d="M667.29,-168.48C677.43,-155.54 693.32,-130.49 682,-112 645.63,-52.62 562.16,-26.77 516.06,-16.68"/>
<polygon fill="midnightblue" stroke="midnightblue" points="516.51,-13.2 506,-14.6 515.09,-20.06 516.51,-13.2"/>
</g>
<!-- Node14&#45;&gt;Node5 -->
<g id="edge28" class="edge">
<title>Node14&#45;&gt;Node5</title>
<path fill="none" stroke="midnightblue" d="M612.94,-168.44C560.59,-158.92 476.01,-143.55 419.96,-133.36"/>
<polygon fill="midnightblue" stroke="midnightblue" points="420.31,-129.86 409.84,-131.52 419.05,-136.75 420.31,-129.86"/>
</g>
<!-- Node14&#45;&gt;Node10 -->
<g id="edge29" class="edge">
<title>Node14&#45;&gt;Node10</title>
<path fill="none" stroke="midnightblue" d="M647.79,-168.32C636.22,-160.11 618.62,-147.6 604.84,-137.81"/>
<polygon fill="midnightblue" stroke="midnightblue" points="606.61,-134.77 596.43,-131.83 602.56,-140.48 606.61,-134.77"/>
</g>
<!-- Node15&#45;&gt;Node3 -->
<g id="edge32" class="edge">
<title>Node15&#45;&gt;Node3</title>
<path fill="none" stroke="midnightblue" d="M112.06,-168.44C148.98,-155.86 220.19,-131.75 281,-112 316.76,-100.38 357.7,-87.55 386.58,-78.57"/>
<polygon fill="midnightblue" stroke="midnightblue" points="387.76,-81.87 396.27,-75.56 385.68,-75.18 387.76,-81.87"/>
</g>
<!-- Node15&#45;&gt;Node4 -->
<g id="edge31" class="edge">
<title>Node15&#45;&gt;Node4</title>
<path fill="none" stroke="midnightblue" d="M86.26,-168.26C85.57,-155.04 85.97,-129.61 97,-112 120.22,-74.9 137.28,-72.05 178,-56 272.57,-18.73 394.6,-11.97 451.77,-10.98"/>
<polygon fill="midnightblue" stroke="midnightblue" points="452.03,-14.48 461.99,-10.86 451.94,-7.48 452.03,-14.48"/>
</g>
<!-- Node15&#45;&gt;Node5 -->
<g id="edge34" class="edge">
<title>Node15&#45;&gt;Node5</title>
<path fill="none" stroke="midnightblue" d="M130.73,-168.44C179.18,-158.96 257.33,-143.67 309.42,-133.48"/>
<polygon fill="midnightblue" stroke="midnightblue" points="310.33,-136.87 319.47,-131.52 308.99,-130 310.33,-136.87"/>
</g>
<!-- Node15&#45;&gt;Node6 -->
<g id="edge33" class="edge">
<title>Node15&#45;&gt;Node6</title>
<path fill="none" stroke="midnightblue" d="M88.33,-168.13C90.86,-154.27 97.67,-127.45 114,-112 134.55,-92.57 163.97,-81.46 189.43,-75.15"/>
<polygon fill="midnightblue" stroke="midnightblue" points="190.37,-78.53 199.33,-72.88 188.8,-71.7 190.37,-78.53"/>
</g>
<!-- Node15&#45;&gt;Node10 -->
<g id="edge35" class="edge">
<title>Node15&#45;&gt;Node10</title>
<path fill="none" stroke="midnightblue" d="M165.48,-168.47C257.45,-158.48 409.13,-142 502.42,-131.86"/>
<polygon fill="midnightblue" stroke="midnightblue" points="502.82,-135.34 512.38,-130.78 502.06,-128.38 502.82,-135.34"/>
</g>
<!-- Node16&#45;&gt;Node3 -->
<g id="edge38" class="edge">
<title>Node16&#45;&gt;Node3</title>
<path fill="none" stroke="midnightblue" d="M446.12,-168.37C442.24,-150.62 433.31,-109.67 428.06,-85.6"/>
<polygon fill="midnightblue" stroke="midnightblue" points="431.43,-84.62 425.87,-75.59 424.59,-86.11 431.43,-84.62"/>
</g>
<!-- Node16&#45;&gt;Node4 -->
<g id="edge37" class="edge">
<title>Node16&#45;&gt;Node4</title>
<path fill="none" stroke="midnightblue" d="M449.94,-168.08C455.6,-141.95 472.24,-65.21 479.97,-29.58"/>
<polygon fill="midnightblue" stroke="midnightblue" points="483.44,-30.08 482.14,-19.57 476.6,-28.6 483.44,-30.08"/>
</g>
<!-- Node16&#45;&gt;Node5 -->
<g id="edge40" class="edge">
<title>Node16&#45;&gt;Node5</title>
<path fill="none" stroke="midnightblue" d="M434.34,-168.32C421.08,-159.9 400.73,-146.97 385.15,-137.07"/>
<polygon fill="midnightblue" stroke="midnightblue" points="386.94,-134.06 376.62,-131.65 383.19,-139.97 386.94,-134.06"/>
</g>
<!-- Node16&#45;&gt;Node6 -->
<g id="edge39" class="edge">
<title>Node16&#45;&gt;Node6</title>
<path fill="none" stroke="midnightblue" d="M394.96,-168.47C365.04,-161.89 327.97,-150.65 299,-132 279.75,-119.6 263.2,-98.89 252.96,-84.18"/>
<polygon fill="midnightblue" stroke="midnightblue" points="255.65,-81.91 247.19,-75.53 249.83,-85.79 255.65,-81.91"/>
</g>
<!-- Node16&#45;&gt;Node10 -->
<g id="edge41" class="edge">
<title>Node16&#45;&gt;Node10</title>
<path fill="none" stroke="midnightblue" d="M469.55,-168.44C492.03,-159.52 527.49,-145.44 552.98,-135.32"/>
<polygon fill="midnightblue" stroke="midnightblue" points="554.55,-138.46 562.55,-131.52 551.97,-131.95 554.55,-138.46"/>
</g>
</g>
</svg>
        <g id="navigator" transform="translate(0 0)" fill="#404254">
                <rect fill="#f2f5e9" fill-opacity="0.5" stroke="#606060" stroke-width=".5" x="0" y="0" width="60" height="60"/>
                <use id="zoomplus" xlink:href="#zoomPlus" x="17" y="9" onmousedown="handleZoom(evt,'in')"/>
                <use id="zoomminus" xlink:href="#zoomMin" x="42" y="9" onmousedown="handleZoom(evt,'out')"/>
                <use id="reset" xlink:href="#resetDef" x="30" y="36" onmousedown="handleReset()"/>
                <g id="arrowUp" xlink:href="#dirArrow" transform="translate(30 24)" onmousedown="handlePan(0,-1)">
                  <use xlink:href="#rim" fill="#404040">
                        <set attributeName="fill" to="#808080" begin="arrowUp.mouseover" end="arrowUp.mouseout"/>
                  </use>
                  <path fill="none" stroke="white" stroke-width="1.5" d="M0,-3.0v7 M-2.5,-0.5L0,-3.0L2.5,-0.5"/>
                </g>
                <g id="arrowRight" xlink:href="#dirArrow" transform="rotate(90) translate(36 -43)" onmousedown="handlePan(1,0)">
                  <use xlink:href="#rim" fill="#404040">
                        <set attributeName="fill" to="#808080" begin="arrowRight.mouseover" end="arrowRight.mouseout"/>
                  </use>
                  <path fill="none" stroke="white" stroke-width="1.5" d="M0,-3.0v7 M-2.5,-0.5L0,-3.0L2.5,-0.5"/>
                </g>
                <g id="arrowDown" xlink:href="#dirArrow" transform="rotate(180) translate(-30 -48)" onmousedown="handlePan(0,1)">
                  <use xlink:href="#rim" fill="#404040">
                        <set attributeName="fill" to="#808080" begin="arrowDown.mouseover" end="arrowDown.mouseout"/>
                  </use>
                  <path fill="none" stroke="white" stroke-width="1.5" d="M0,-3.0v7 M-2.5,-0.5L0,-3.0L2.5,-0.5"/>
                </g>
                <g id="arrowLeft" xlink:href="#dirArrow" transform="rotate(270) translate(-36 17)" onmousedown="handlePan(-1,0)">
                  <use xlink:href="#rim" fill="#404040">
                        <set attributeName="fill" to="#808080" begin="arrowLeft.mouseover" end="arrowLeft.mouseout"/>
                  </use>
                  <path fill="none" stroke="white" stroke-width="1.5" d="M0,-3.0v7 M-2.5,-0.5L0,-3.0L2.5,-0.5"/>
                </g>
        </g>
        <svg viewBox="0 0 15 15" width="100%" height="30px" preserveAspectRatio="xMaxYMin meet">
         <g id="arrow_out" transform="scale(0.3 0.3)">
          <a xlink:href="command__factory_8cpp__incl_org.svg" target="_base">
           <rect id="button" ry="5" rx="5" y="6" x="6" height="38" width="38"
                fill="#f2f5e9" fill-opacity="0.5" stroke="#606060" stroke-width="1.0"/>
           <path id="arrow"
             d="M 11.500037,31.436501 C 11.940474,20.09759 22.043105,11.32322 32.158766,21.979434 L 37.068811,17.246167 C 37.068811,17.246167 37.088388,32 37.088388,32 L 22.160133,31.978069 C 22.160133,31.978069 26.997745,27.140456 26.997745,27.140456 C 18.528582,18.264221 13.291696,25.230495 11.500037,31.436501 z"
             style="fill:#404040;"/>
          </a>
         </g>
        </svg>
</svg>
