<?xml version="1.0" encoding="UTF-8" standalone="no"?>
<!DOCTYPE svg PUBLIC "-//W3C//DTD SVG 1.1//EN"
 "http://www.w3.org/Graphics/SVG/1.1/DTD/svg11.dtd">
<!-- Generated by graphviz version 2.43.0 (0)
 -->
<!-- Title: ComposeContainerApiEndpoint Pages: 1 -->
<svg width="405pt" height="284pt"
 viewBox="0.00 0.00 405.00 284.00" xmlns="http://www.w3.org/2000/svg" xmlns:xlink="http://www.w3.org/1999/xlink">
<g id="graph0" class="graph" transform="scale(1 1) rotate(0) translate(4 280)">
<title>ComposeContainerApiEndpoint</title>
<polygon fill="white" stroke="transparent" points="-4,4 -4,-280 401,-280 401,4 -4,4"/>
<!-- Node1 -->
<g id="node1" class="node">
<title>Node1</title>
<g id="a_node1"><a xlink:title="Compose a container API endpoint for Docker or Podman API.">
<polygon fill="#bfbfbf" stroke="black" points="229,-128 229,-147 397,-147 397,-128 229,-128"/>
<text text-anchor="middle" x="313" y="-135" font-family="Helvetica,sans-Serif" font-size="10.00">ComposeContainerApiEndpoint</text>
</a>
</g>
</g>
<!-- Node2 -->
<g id="node2" class="node">
<title>Node2</title>
<g id="a_node2"><a xlink:href="classDockerApiStartContainerCommand.html#a9e1d44df3c9fed542ccf6aef9e383860" target="_top" xlink:title="Executes the command to start a Docker container via the API.">
<polygon fill="white" stroke="black" points="3,-245.5 3,-275.5 190,-275.5 190,-245.5 3,-245.5"/>
<text text-anchor="start" x="11" y="-263.5" font-family="Helvetica,sans-Serif" font-size="10.00">DockerApiStartContainerCommand</text>
<text text-anchor="middle" x="96.5" y="-252.5" font-family="Helvetica,sans-Serif" font-size="10.00">::Execute</text>
</a>
</g>
</g>
<!-- Node1&#45;&gt;Node2 -->
<g id="edge1" class="edge">
<title>Node1&#45;&gt;Node2</title>
<path fill="none" stroke="midnightblue" d="M296.56,-154.39C275.35,-176.56 235.04,-215.14 193,-236.5 186.22,-239.95 178.91,-242.92 171.46,-245.48"/>
<polygon fill="midnightblue" stroke="midnightblue" points="299.18,-156.72 303.47,-147.03 294.07,-151.92 299.18,-156.72"/>
</g>
<!-- Node3 -->
<g id="node3" class="node">
<title>Node3</title>
<g id="a_node3"><a xlink:href="classPodmanApiStartContainerCommand.html#a8b359ed21f9b14a581da61246eb6bd09" target="_top" xlink:title="Executes the command to start a Podman container via the API.">
<polygon fill="white" stroke="black" points="0,-196.5 0,-226.5 193,-226.5 193,-196.5 0,-196.5"/>
<text text-anchor="start" x="8" y="-214.5" font-family="Helvetica,sans-Serif" font-size="10.00">PodmanApiStartContainerCommand</text>
<text text-anchor="middle" x="96.5" y="-203.5" font-family="Helvetica,sans-Serif" font-size="10.00">::Execute</text>
</a>
</g>
</g>
<!-- Node1&#45;&gt;Node3 -->
<g id="edge2" class="edge">
<title>Node1&#45;&gt;Node3</title>
<path fill="none" stroke="midnightblue" d="M282.54,-151.35C258.74,-162.18 224.2,-177.09 193,-187.5 183.35,-190.72 173.03,-193.74 162.87,-196.48"/>
<polygon fill="midnightblue" stroke="midnightblue" points="284.1,-154.49 291.72,-147.13 281.18,-148.13 284.1,-154.49"/>
</g>
<!-- Node4 -->
<g id="node4" class="node">
<title>Node4</title>
<g id="a_node4"><a xlink:href="classPodmanApiStopContainerCommand.html#a85bea8f24f66f9ac514ef09ea6dd1c1a" target="_top" xlink:title="Executes the command to stop a Podman container via the API.">
<polygon fill="white" stroke="black" points="1,-147.5 1,-177.5 192,-177.5 192,-147.5 1,-147.5"/>
<text text-anchor="start" x="9" y="-165.5" font-family="Helvetica,sans-Serif" font-size="10.00">PodmanApiStopContainerCommand</text>
<text text-anchor="middle" x="96.5" y="-154.5" font-family="Helvetica,sans-Serif" font-size="10.00">::Execute</text>
</a>
</g>
</g>
<!-- Node1&#45;&gt;Node4 -->
<g id="edge3" class="edge">
<title>Node1&#45;&gt;Node4</title>
<path fill="none" stroke="midnightblue" d="M220.3,-148.19C211.02,-149.27 201.58,-150.37 192.26,-151.46"/>
<polygon fill="midnightblue" stroke="midnightblue" points="220.77,-151.66 230.29,-147.02 219.96,-144.7 220.77,-151.66"/>
</g>
<!-- Node5 -->
<g id="node5" class="node">
<title>Node5</title>
<g id="a_node5"><a xlink:href="classDockerApiStopContainerCommand.html#a069c3c95925d8595762d40ca76f0ff95" target="_top" xlink:title="Executes the command to stop a Docker container via the API.">
<polygon fill="white" stroke="black" points="4,-98.5 4,-128.5 189,-128.5 189,-98.5 4,-98.5"/>
<text text-anchor="start" x="12" y="-116.5" font-family="Helvetica,sans-Serif" font-size="10.00">DockerApiStopContainerCommand</text>
<text text-anchor="middle" x="96.5" y="-105.5" font-family="Helvetica,sans-Serif" font-size="10.00">::Execute</text>
</a>
</g>
</g>
<!-- Node1&#45;&gt;Node5 -->
<g id="edge4" class="edge">
<title>Node1&#45;&gt;Node5</title>
<path fill="none" stroke="midnightblue" d="M218.66,-127.06C208.9,-125.96 198.98,-124.85 189.23,-123.76"/>
<polygon fill="midnightblue" stroke="midnightblue" points="218.43,-130.55 228.76,-128.19 219.21,-123.6 218.43,-130.55"/>
</g>
<!-- Node6 -->
<g id="node6" class="node">
<title>Node6</title>
<g id="a_node6"><a xlink:href="classDockerApiRestartContainerCommand.html#a93f11d262f9a76765a4a606cd39eba44" target="_top" xlink:title="Executes the command to restart a Docker container via the API.">
<polygon fill="white" stroke="black" points="22,-49.5 22,-79.5 171,-79.5 171,-49.5 22,-49.5"/>
<text text-anchor="start" x="30" y="-67.5" font-family="Helvetica,sans-Serif" font-size="10.00">DockerApiRestartContainer</text>
<text text-anchor="middle" x="96.5" y="-56.5" font-family="Helvetica,sans-Serif" font-size="10.00">Command::Execute</text>
</a>
</g>
</g>
<!-- Node1&#45;&gt;Node6 -->
<g id="edge5" class="edge">
<title>Node1&#45;&gt;Node6</title>
<path fill="none" stroke="midnightblue" d="M281.59,-123.98C257.78,-113.71 223.67,-99.65 193,-89.5 182.34,-85.97 170.89,-82.61 159.74,-79.57"/>
<polygon fill="midnightblue" stroke="midnightblue" points="280.24,-127.21 290.81,-128 283.04,-120.8 280.24,-127.21"/>
</g>
<!-- Node7 -->
<g id="node7" class="node">
<title>Node7</title>
<g id="a_node7"><a xlink:href="classDockerApiRemoveContainerCommand.html#a56eefcf10fdf0689a2b6ba54e9970c13" target="_top" xlink:title="Executes the command to remove a Docker container via the API.">
<polygon fill="white" stroke="black" points="19.5,-0.5 19.5,-30.5 173.5,-30.5 173.5,-0.5 19.5,-0.5"/>
<text text-anchor="start" x="27.5" y="-18.5" font-family="Helvetica,sans-Serif" font-size="10.00">DockerApiRemoveContainer</text>
<text text-anchor="middle" x="96.5" y="-7.5" font-family="Helvetica,sans-Serif" font-size="10.00">Command::Execute</text>
</a>
</g>
</g>
<!-- Node1&#45;&gt;Node7 -->
<g id="edge6" class="edge">
<title>Node1&#45;&gt;Node7</title>
<path fill="none" stroke="midnightblue" d="M296.13,-120.69C274.72,-99.01 234.48,-61.57 193,-40.5 185.44,-36.66 177.23,-33.37 168.9,-30.56"/>
<polygon fill="midnightblue" stroke="midnightblue" points="293.65,-123.17 303.13,-127.91 298.68,-118.3 293.65,-123.17"/>
</g>
</g>
</svg>
