<?xml version="1.0" encoding="UTF-8" standalone="no"?>
<!DOCTYPE svg PUBLIC "-//W3C//DTD SVG 1.1//EN"
 "http://www.w3.org/Graphics/SVG/1.1/DTD/svg11.dtd">
<!-- Generated by graphviz version 2.43.0 (0)
 -->
<!-- Title: runtime/inc/commands.hpp Pages: 1 -->
<svg width="782pt" height="162pt"
 viewBox="0.00 0.00 781.50 162.00" xmlns="http://www.w3.org/2000/svg" xmlns:xlink="http://www.w3.org/1999/xlink">
<g id="graph0" class="graph" transform="scale(1 1) rotate(0) translate(4 158)">
<title>runtime/inc/commands.hpp</title>
<polygon fill="white" stroke="transparent" points="-4,4 -4,-158 777.5,-158 777.5,4 -4,4"/>
<!-- Node1 -->
<g id="node1" class="node">
<title>Node1</title>
<g id="a_node1"><a xlink:title="Declares the Command interface and Invoker class for the command pattern.">
<polygon fill="#bfbfbf" stroke="black" points="309,-134.5 309,-153.5 459,-153.5 459,-134.5 309,-134.5"/>
<text text-anchor="middle" x="384" y="-141.5" font-family="Helvetica,sans-Serif" font-size="10.00">runtime/inc/commands.hpp</text>
</a>
</g>
</g>
<!-- Node2 -->
<g id="node2" class="node">
<title>Node2</title>
<g id="a_node2"><a xlink:href="command__factory_8hpp.html" target="_top" xlink:title="Declares the CommandFactory class for creating command objects based on container requests.">
<polygon fill="white" stroke="black" points="53,-67.5 53,-97.5 177,-97.5 177,-67.5 53,-67.5"/>
<text text-anchor="start" x="61" y="-85.5" font-family="Helvetica,sans-Serif" font-size="10.00">runtime/inc/command</text>
<text text-anchor="middle" x="115" y="-74.5" font-family="Helvetica,sans-Serif" font-size="10.00">_factory.hpp</text>
</a>
</g>
</g>
<!-- Node1&#45;&gt;Node2 -->
<g id="edge1" class="edge">
<title>Node1&#45;&gt;Node2</title>
<path fill="none" stroke="midnightblue" d="M335.5,-132.27C291.15,-122.46 225.3,-107.9 177.11,-97.24"/>
<polygon fill="midnightblue" stroke="midnightblue" points="334.94,-135.73 345.46,-134.48 336.45,-128.9 334.94,-135.73"/>
</g>
<!-- Node5 -->
<g id="node5" class="node">
<title>Node5</title>
<g id="a_node5"><a xlink:href="docker__api__commands_8hpp.html" target="_top" xlink:title="Declares command classes for managing containers via the Docker HTTP API over a Unix socket.">
<polygon fill="white" stroke="black" points="195.5,-67.5 195.5,-97.5 312.5,-97.5 312.5,-67.5 195.5,-67.5"/>
<text text-anchor="start" x="203.5" y="-85.5" font-family="Helvetica,sans-Serif" font-size="10.00">runtime/inc/docker</text>
<text text-anchor="middle" x="254" y="-74.5" font-family="Helvetica,sans-Serif" font-size="10.00">_api_commands.hpp</text>
</a>
</g>
</g>
<!-- Node1&#45;&gt;Node5 -->
<g id="edge4" class="edge">
<title>Node1&#45;&gt;Node5</title>
<path fill="none" stroke="midnightblue" d="M356.03,-130.2C335.03,-120.58 306.27,-107.42 284.64,-97.52"/>
<polygon fill="midnightblue" stroke="midnightblue" points="354.82,-133.5 365.37,-134.48 357.74,-127.13 354.82,-133.5"/>
</g>
<!-- Node7 -->
<g id="node7" class="node">
<title>Node7</title>
<g id="a_node7"><a xlink:href="docker__commands_8hpp.html" target="_top" xlink:title="Declares Docker command classes for container operations.">
<polygon fill="white" stroke="black" points="330.5,-67.5 330.5,-97.5 437.5,-97.5 437.5,-67.5 330.5,-67.5"/>
<text text-anchor="start" x="338.5" y="-85.5" font-family="Helvetica,sans-Serif" font-size="10.00">runtime/inc/docker</text>
<text text-anchor="middle" x="384" y="-74.5" font-family="Helvetica,sans-Serif" font-size="10.00">_commands.hpp</text>
</a>
</g>
</g>
<!-- Node1&#45;&gt;Node7 -->
<g id="edge7" class="edge">
<title>Node1&#45;&gt;Node7</title>
<path fill="none" stroke="midnightblue" d="M384,-124.23C384,-115.59 384,-105.5 384,-97.52"/>
<polygon fill="midnightblue" stroke="midnightblue" points="380.5,-124.48 384,-134.48 387.5,-124.48 380.5,-124.48"/>
</g>
<!-- Node9 -->
<g id="node9" class="node">
<title>Node9</title>
<g id="a_node9"><a xlink:href="podman__api__commands_8hpp.html" target="_top" xlink:title="Declares command classes for managing containers via the Podman HTTP API over a Unix socket.">
<polygon fill="white" stroke="black" points="455.5,-67.5 455.5,-97.5 572.5,-97.5 572.5,-67.5 455.5,-67.5"/>
<text text-anchor="start" x="463.5" y="-85.5" font-family="Helvetica,sans-Serif" font-size="10.00">runtime/inc/podman</text>
<text text-anchor="middle" x="514" y="-74.5" font-family="Helvetica,sans-Serif" font-size="10.00">_api_commands.hpp</text>
</a>
</g>
</g>
<!-- Node1&#45;&gt;Node9 -->
<g id="edge10" class="edge">
<title>Node1&#45;&gt;Node9</title>
<path fill="none" stroke="midnightblue" d="M411.97,-130.2C432.97,-120.58 461.73,-107.42 483.36,-97.52"/>
<polygon fill="midnightblue" stroke="midnightblue" points="410.26,-127.13 402.63,-134.48 413.18,-133.5 410.26,-127.13"/>
</g>
<!-- Node11 -->
<g id="node11" class="node">
<title>Node11</title>
<g id="a_node11"><a xlink:href="podman__commands_8hpp.html" target="_top" xlink:title="Declares Podman command classes for container operations.">
<polygon fill="white" stroke="black" points="590.5,-67.5 590.5,-97.5 705.5,-97.5 705.5,-67.5 590.5,-67.5"/>
<text text-anchor="start" x="598.5" y="-85.5" font-family="Helvetica,sans-Serif" font-size="10.00">runtime/inc/podman</text>
<text text-anchor="middle" x="648" y="-74.5" font-family="Helvetica,sans-Serif" font-size="10.00">_commands.hpp</text>
</a>
</g>
</g>
<!-- Node1&#45;&gt;Node11 -->
<g id="edge13" class="edge">
<title>Node1&#45;&gt;Node11</title>
<path fill="none" stroke="midnightblue" d="M431.81,-132.22C476.35,-122.19 542.84,-107.2 590.31,-96.5"/>
<polygon fill="midnightblue" stroke="midnightblue" points="430.81,-128.86 421.82,-134.48 432.35,-135.69 430.81,-128.86"/>
</g>
<!-- Node3 -->
<g id="node3" class="node">
<title>Node3</title>
<g id="a_node3"><a xlink:href="container__service_8cpp.html" target="_top" xlink:title="Implements the ContainerServiceHandler class for business logic related to containers.">
<polygon fill="white" stroke="black" points="0,-0.5 0,-30.5 104,-30.5 104,-0.5 0,-0.5"/>
<text text-anchor="start" x="8" y="-18.5" font-family="Helvetica,sans-Serif" font-size="10.00">core/src/container</text>
<text text-anchor="middle" x="52" y="-7.5" font-family="Helvetica,sans-Serif" font-size="10.00">_service.cpp</text>
</a>
</g>
</g>
<!-- Node2&#45;&gt;Node3 -->
<g id="edge2" class="edge">
<title>Node2&#45;&gt;Node3</title>
<path fill="none" stroke="midnightblue" d="M94.19,-60.02C84.8,-50.34 73.98,-39.17 65.64,-30.58"/>
<polygon fill="midnightblue" stroke="midnightblue" points="91.86,-62.65 101.33,-67.4 96.88,-57.78 91.86,-62.65"/>
</g>
<!-- Node4 -->
<g id="node4" class="node">
<title>Node4</title>
<g id="a_node4"><a xlink:href="command__factory_8cpp.html" target="_top" xlink:title="Implements the CommandFactory class for creating command objects based on container requests.">
<polygon fill="white" stroke="black" points="256,-0.5 256,-30.5 380,-30.5 380,-0.5 256,-0.5"/>
<text text-anchor="start" x="264" y="-18.5" font-family="Helvetica,sans-Serif" font-size="10.00">runtime/src/command</text>
<text text-anchor="middle" x="318" y="-7.5" font-family="Helvetica,sans-Serif" font-size="10.00">_factory.cpp</text>
</a>
</g>
</g>
<!-- Node2&#45;&gt;Node4 -->
<g id="edge3" class="edge">
<title>Node2&#45;&gt;Node4</title>
<path fill="none" stroke="midnightblue" d="M168.94,-64.23C201.78,-53.71 243.2,-40.45 274.04,-30.58"/>
<polygon fill="midnightblue" stroke="midnightblue" points="167.5,-61.01 159.05,-67.4 169.64,-67.68 167.5,-61.01"/>
</g>
<!-- Node5&#45;&gt;Node4 -->
<g id="edge5" class="edge">
<title>Node5&#45;&gt;Node4</title>
<path fill="none" stroke="midnightblue" d="M275.15,-60.02C284.68,-50.34 295.67,-39.17 304.14,-30.58"/>
<polygon fill="midnightblue" stroke="midnightblue" points="272.41,-57.81 267.89,-67.4 277.4,-62.73 272.41,-57.81"/>
</g>
<!-- Node6 -->
<g id="node6" class="node">
<title>Node6</title>
<g id="a_node6"><a xlink:href="docker__api__commands_8cpp.html" target="_top" xlink:title="Implements Docker API command classes for managing containers via the Docker HTTP API over a Unix soc...">
<polygon fill="white" stroke="black" points="122,-0.5 122,-30.5 238,-30.5 238,-0.5 122,-0.5"/>
<text text-anchor="start" x="130" y="-18.5" font-family="Helvetica,sans-Serif" font-size="10.00">runtime/src/docker</text>
<text text-anchor="middle" x="180" y="-7.5" font-family="Helvetica,sans-Serif" font-size="10.00">_api_commands.cpp</text>
</a>
</g>
</g>
<!-- Node5&#45;&gt;Node6 -->
<g id="edge6" class="edge">
<title>Node5&#45;&gt;Node6</title>
<path fill="none" stroke="midnightblue" d="M230.2,-60.6C219.03,-50.78 206.01,-39.34 196.03,-30.58"/>
<polygon fill="midnightblue" stroke="midnightblue" points="228.12,-63.43 237.94,-67.4 232.74,-58.17 228.12,-63.43"/>
</g>
<!-- Node7&#45;&gt;Node4 -->
<g id="edge8" class="edge">
<title>Node7&#45;&gt;Node4</title>
<path fill="none" stroke="midnightblue" d="M362.49,-60.31C352.59,-50.56 341.11,-39.26 332.29,-30.58"/>
<polygon fill="midnightblue" stroke="midnightblue" points="360.1,-62.87 369.68,-67.4 365.01,-57.89 360.1,-62.87"/>
</g>
<!-- Node8 -->
<g id="node8" class="node">
<title>Node8</title>
<g id="a_node8"><a xlink:href="docker__commands_8cpp.html" target="_top" xlink:title="Implements Docker command classes for container operations.">
<polygon fill="white" stroke="black" points="398.5,-0.5 398.5,-30.5 505.5,-30.5 505.5,-0.5 398.5,-0.5"/>
<text text-anchor="start" x="406.5" y="-18.5" font-family="Helvetica,sans-Serif" font-size="10.00">runtime/src/docker</text>
<text text-anchor="middle" x="452" y="-7.5" font-family="Helvetica,sans-Serif" font-size="10.00">_commands.cpp</text>
</a>
</g>
</g>
<!-- Node7&#45;&gt;Node8 -->
<g id="edge9" class="edge">
<title>Node7&#45;&gt;Node8</title>
<path fill="none" stroke="midnightblue" d="M406.17,-60.31C416.37,-50.56 428.19,-39.26 437.27,-30.58"/>
<polygon fill="midnightblue" stroke="midnightblue" points="403.57,-57.96 398.75,-67.4 408.4,-63.02 403.57,-57.96"/>
</g>
<!-- Node9&#45;&gt;Node4 -->
<g id="edge11" class="edge">
<title>Node9&#45;&gt;Node4</title>
<path fill="none" stroke="midnightblue" d="M461.92,-64.23C430.21,-53.71 390.22,-40.45 360.45,-30.58"/>
<polygon fill="midnightblue" stroke="midnightblue" points="460.88,-67.57 471.47,-67.4 463.08,-60.93 460.88,-67.57"/>
</g>
<!-- Node10 -->
<g id="node10" class="node">
<title>Node10</title>
<g id="a_node10"><a xlink:href="podman__api__commands_8cpp.html" target="_top" xlink:title="Implements Podman API command classes for managing containers via the Podman HTTP API over a Unix soc...">
<polygon fill="white" stroke="black" points="524,-0.5 524,-30.5 640,-30.5 640,-0.5 524,-0.5"/>
<text text-anchor="start" x="532" y="-18.5" font-family="Helvetica,sans-Serif" font-size="10.00">runtime/src/podman</text>
<text text-anchor="middle" x="582" y="-7.5" font-family="Helvetica,sans-Serif" font-size="10.00">_api_commands.cpp</text>
</a>
</g>
</g>
<!-- Node9&#45;&gt;Node10 -->
<g id="edge12" class="edge">
<title>Node9&#45;&gt;Node10</title>
<path fill="none" stroke="midnightblue" d="M536.17,-60.31C546.37,-50.56 558.19,-39.26 567.27,-30.58"/>
<polygon fill="midnightblue" stroke="midnightblue" points="533.57,-57.96 528.75,-67.4 538.4,-63.02 533.57,-57.96"/>
</g>
<!-- Node11&#45;&gt;Node4 -->
<g id="edge14" class="edge">
<title>Node11&#45;&gt;Node4</title>
<path fill="none" stroke="midnightblue" d="M580.57,-66.74C495.27,-49.51 472.14,-46.97 390,-31 386.75,-30.37 383.41,-29.71 380.04,-29.05"/>
<polygon fill="midnightblue" stroke="midnightblue" points="579.93,-70.18 590.43,-68.74 581.33,-63.32 579.93,-70.18"/>
</g>
<!-- Node12 -->
<g id="node12" class="node">
<title>Node12</title>
<g id="a_node12"><a xlink:href="podman__commands_8cpp.html" target="_top" xlink:title="Implements Podman command classes for container operations.">
<polygon fill="white" stroke="black" points="658.5,-0.5 658.5,-30.5 773.5,-30.5 773.5,-0.5 658.5,-0.5"/>
<text text-anchor="start" x="666.5" y="-18.5" font-family="Helvetica,sans-Serif" font-size="10.00">runtime/src/podman</text>
<text text-anchor="middle" x="716" y="-7.5" font-family="Helvetica,sans-Serif" font-size="10.00">_commands.cpp</text>
</a>
</g>
</g>
<!-- Node11&#45;&gt;Node12 -->
<g id="edge15" class="edge">
<title>Node11&#45;&gt;Node12</title>
<path fill="none" stroke="midnightblue" d="M670.17,-60.31C680.37,-50.56 692.19,-39.26 701.27,-30.58"/>
<polygon fill="midnightblue" stroke="midnightblue" points="667.57,-57.96 662.75,-67.4 672.4,-63.02 667.57,-57.96"/>
</g>
</g>
</svg>
