<?xml version="1.0" encoding="UTF-8" standalone="no"?>
<!DOCTYPE svg PUBLIC "-//W3C//DTD SVG 1.1//EN"
 "http://www.w3.org/Graphics/SVG/1.1/DTD/svg11.dtd">
<!-- Generated by graphviz version 2.43.0 (0)
 -->
<!-- Title: utils/inc/common.hpp Pages: 1 -->
<svg width="1595pt" height="162pt"
 viewBox="0.00 0.00 1594.50 162.00" xmlns="http://www.w3.org/2000/svg" xmlns:xlink="http://www.w3.org/1999/xlink">
<g id="graph0" class="graph" transform="scale(1 1) rotate(0) translate(4 158)">
<title>utils/inc/common.hpp</title>
<polygon fill="white" stroke="transparent" points="-4,4 -4,-158 1590.5,-158 1590.5,4 -4,4"/>
<!-- Node1 -->
<g id="node1" class="node">
<title>Node1</title>
<g id="a_node1"><a xlink:title="Defines common constants, string views, and utility structures for the application.">
<polygon fill="#bfbfbf" stroke="black" points="628.5,-134.5 628.5,-153.5 750.5,-153.5 750.5,-134.5 628.5,-134.5"/>
<text text-anchor="middle" x="689.5" y="-141.5" font-family="Helvetica,sans-Serif" font-size="10.00">utils/inc/common.hpp</text>
</a>
</g>
</g>
<!-- Node2 -->
<g id="node2" class="node">
<title>Node2</title>
<g id="a_node2"><a xlink:href="dbus__consumer_8hpp.html" target="_top" xlink:title="Defines the DbusConsumer class for receiving and processing JSON requests over D&#45;Bus.">
<polygon fill="white" stroke="black" points="10,-73 10,-92 159,-92 159,-73 10,-73"/>
<text text-anchor="middle" x="84.5" y="-80" font-family="Helvetica,sans-Serif" font-size="10.00">api/inc/dbus_consumer.hpp</text>
</a>
</g>
</g>
<!-- Node1&#45;&gt;Node2 -->
<g id="edge1" class="edge">
<title>Node1&#45;&gt;Node2</title>
<path fill="none" stroke="midnightblue" d="M618.18,-138.52C518.29,-131.86 331.14,-117.94 172.5,-98 159.44,-96.36 145.35,-94.21 132.36,-92.07"/>
<polygon fill="midnightblue" stroke="midnightblue" points="618.25,-142.04 628.45,-139.2 618.71,-135.05 618.25,-142.04"/>
</g>
<!-- Node4 -->
<g id="node4" class="node">
<title>Node4</title>
<g id="a_node4"><a xlink:href="main_8cpp.html" target="_top" xlink:title="Entry point for the Container Manager application.">
<polygon fill="white" stroke="black" points="166.5,-6 166.5,-25 228.5,-25 228.5,-6 166.5,-6"/>
<text text-anchor="middle" x="197.5" y="-13" font-family="Helvetica,sans-Serif" font-size="10.00">main.cpp</text>
</a>
</g>
</g>
<!-- Node1&#45;&gt;Node4 -->
<g id="edge13" class="edge">
<title>Node1&#45;&gt;Node4</title>
<path fill="none" stroke="midnightblue" d="M618.39,-141.3C490.93,-137.55 234.15,-126.5 205.5,-98 185.95,-78.55 191.43,-41.77 195.24,-25.1"/>
<polygon fill="midnightblue" stroke="midnightblue" points="618.35,-144.8 628.45,-141.59 618.56,-137.8 618.35,-144.8"/>
</g>
<!-- Node5 -->
<g id="node5" class="node">
<title>Node5</title>
<g id="a_node5"><a xlink:href="http__server_8hpp.html" target="_top" xlink:title="Defines the HttpServerHandler class for handling HTTP requests.">
<polygon fill="white" stroke="black" points="214.5,-73 214.5,-92 342.5,-92 342.5,-73 214.5,-73"/>
<text text-anchor="middle" x="278.5" y="-80" font-family="Helvetica,sans-Serif" font-size="10.00">api/inc/http_server.hpp</text>
</a>
</g>
</g>
<!-- Node1&#45;&gt;Node5 -->
<g id="edge4" class="edge">
<title>Node1&#45;&gt;Node5</title>
<path fill="none" stroke="midnightblue" d="M618.01,-134.82C549.47,-126.67 443.16,-113.19 351.5,-98 340.92,-96.25 329.53,-94.11 318.96,-92.01"/>
<polygon fill="midnightblue" stroke="midnightblue" points="617.92,-138.34 628.27,-136.04 618.75,-131.39 617.92,-138.34"/>
</g>
<!-- Node7 -->
<g id="node7" class="node">
<title>Node7</title>
<g id="a_node7"><a xlink:href="posix__message__queue__consumer_8hpp.html" target="_top" xlink:title="Declares the MessageQueueConsumer class for handling messages from a POSIX message queue.">
<polygon fill="white" stroke="black" points="360.5,-67.5 360.5,-97.5 488.5,-97.5 488.5,-67.5 360.5,-67.5"/>
<text text-anchor="start" x="368.5" y="-85.5" font-family="Helvetica,sans-Serif" font-size="10.00">api/inc/posix_message</text>
<text text-anchor="middle" x="424.5" y="-74.5" font-family="Helvetica,sans-Serif" font-size="10.00">_queue_consumer.hpp</text>
</a>
</g>
</g>
<!-- Node1&#45;&gt;Node7 -->
<g id="edge7" class="edge">
<title>Node1&#45;&gt;Node7</title>
<path fill="none" stroke="midnightblue" d="M641.53,-132.23C598.23,-122.51 534.24,-108.14 486.96,-97.52"/>
<polygon fill="midnightblue" stroke="midnightblue" points="641.01,-135.7 651.53,-134.48 642.54,-128.87 641.01,-135.7"/>
</g>
<!-- Node8 -->
<g id="node8" class="node">
<title>Node8</title>
<g id="a_node8"><a xlink:href="posix__message__queue__consumer_8cpp.html" target="_top" xlink:title="Implements the MessageQueueConsumer class for handling messages from a POSIX message queue.">
<polygon fill="white" stroke="black" points="398.5,-0.5 398.5,-30.5 526.5,-30.5 526.5,-0.5 398.5,-0.5"/>
<text text-anchor="start" x="406.5" y="-18.5" font-family="Helvetica,sans-Serif" font-size="10.00">api/src/posix_message</text>
<text text-anchor="middle" x="462.5" y="-7.5" font-family="Helvetica,sans-Serif" font-size="10.00">_queue_consumer.cpp</text>
</a>
</g>
</g>
<!-- Node1&#45;&gt;Node8 -->
<g id="edge10" class="edge">
<title>Node1&#45;&gt;Node8</title>
<path fill="none" stroke="midnightblue" d="M647.02,-131.52C622.1,-123.87 590.51,-112.54 564.5,-98 530.27,-78.86 495.72,-48.37 476.92,-30.61"/>
<polygon fill="midnightblue" stroke="midnightblue" points="646.33,-134.97 656.91,-134.47 648.33,-128.26 646.33,-134.97"/>
</g>
<!-- Node9 -->
<g id="node9" class="node">
<title>Node9</title>
<g id="a_node9"><a xlink:href="container__service_8cpp.html" target="_top" xlink:title="Implements the ContainerServiceHandler class for business logic related to containers.">
<polygon fill="white" stroke="black" points="547.5,-0.5 547.5,-30.5 651.5,-30.5 651.5,-0.5 547.5,-0.5"/>
<text text-anchor="start" x="555.5" y="-18.5" font-family="Helvetica,sans-Serif" font-size="10.00">core/src/container</text>
<text text-anchor="middle" x="599.5" y="-7.5" font-family="Helvetica,sans-Serif" font-size="10.00">_service.cpp</text>
</a>
</g>
</g>
<!-- Node1&#45;&gt;Node9 -->
<g id="edge11" class="edge">
<title>Node1&#45;&gt;Node9</title>
<path fill="none" stroke="midnightblue" d="M621.22,-131.35C602.69,-124.72 584.67,-114.32 573.5,-98 559.15,-77.04 575.57,-47.72 588.06,-30.56"/>
<polygon fill="midnightblue" stroke="midnightblue" points="620.34,-134.74 630.93,-134.48 622.49,-128.08 620.34,-134.74"/>
</g>
<!-- Node10 -->
<g id="node10" class="node">
<title>Node10</title>
<g id="a_node10"><a xlink:href="json__request__executor_8cpp.html" target="_top" xlink:title="Implements the JsonRequestExecutorHandler class for executing JSON&#45;based requests.">
<polygon fill="white" stroke="black" points="762.5,-67.5 762.5,-97.5 904.5,-97.5 904.5,-67.5 762.5,-67.5"/>
<text text-anchor="start" x="770.5" y="-85.5" font-family="Helvetica,sans-Serif" font-size="10.00">executor/src/json_request</text>
<text text-anchor="middle" x="833.5" y="-74.5" font-family="Helvetica,sans-Serif" font-size="10.00">_executor.cpp</text>
</a>
</g>
</g>
<!-- Node1&#45;&gt;Node10 -->
<g id="edge12" class="edge">
<title>Node1&#45;&gt;Node10</title>
<path fill="none" stroke="midnightblue" d="M719.53,-130.59C742.88,-120.94 775.28,-107.56 799.56,-97.52"/>
<polygon fill="midnightblue" stroke="midnightblue" points="718.04,-127.42 710.13,-134.48 720.71,-133.89 718.04,-127.42"/>
</g>
<!-- Node11 -->
<g id="node11" class="node">
<title>Node11</title>
<g id="a_node11"><a xlink:href="command__factory_8hpp.html" target="_top" xlink:title=" ">
<polygon fill="white" stroke="black" points="582.5,-67.5 582.5,-97.5 706.5,-97.5 706.5,-67.5 582.5,-67.5"/>
<text text-anchor="start" x="590.5" y="-85.5" font-family="Helvetica,sans-Serif" font-size="10.00">runtime/inc/command</text>
<text text-anchor="middle" x="644.5" y="-74.5" font-family="Helvetica,sans-Serif" font-size="10.00">_factory.hpp</text>
</a>
</g>
</g>
<!-- Node1&#45;&gt;Node11 -->
<g id="edge14" class="edge">
<title>Node1&#45;&gt;Node11</title>
<path fill="none" stroke="midnightblue" d="M676.83,-126.25C669.98,-117.19 661.61,-106.12 655.11,-97.52"/>
<polygon fill="midnightblue" stroke="midnightblue" points="674.23,-128.61 683.05,-134.48 679.81,-124.39 674.23,-128.61"/>
</g>
<!-- Node12 -->
<g id="node12" class="node">
<title>Node12</title>
<g id="a_node12"><a xlink:href="command__factory_8cpp.html" target="_top" xlink:title=" ">
<polygon fill="white" stroke="black" points="670.5,-0.5 670.5,-30.5 794.5,-30.5 794.5,-0.5 670.5,-0.5"/>
<text text-anchor="start" x="678.5" y="-18.5" font-family="Helvetica,sans-Serif" font-size="10.00">runtime/src/command</text>
<text text-anchor="middle" x="732.5" y="-7.5" font-family="Helvetica,sans-Serif" font-size="10.00">_factory.cpp</text>
</a>
</g>
</g>
<!-- Node1&#45;&gt;Node12 -->
<g id="edge17" class="edge">
<title>Node1&#45;&gt;Node12</title>
<path fill="none" stroke="midnightblue" d="M701.1,-125.91C706.18,-117.76 711.8,-107.69 715.5,-98 724.16,-75.32 728.78,-47.31 730.93,-30.73"/>
<polygon fill="midnightblue" stroke="midnightblue" points="698.07,-124.16 695.55,-134.45 703.94,-127.97 698.07,-124.16"/>
</g>
<!-- Node13 -->
<g id="node13" class="node">
<title>Node13</title>
<g id="a_node13"><a xlink:href="docker__api__commands_8cpp.html" target="_top" xlink:title=" ">
<polygon fill="white" stroke="black" points="922.5,-67.5 922.5,-97.5 1038.5,-97.5 1038.5,-67.5 922.5,-67.5"/>
<text text-anchor="start" x="930.5" y="-85.5" font-family="Helvetica,sans-Serif" font-size="10.00">runtime/src/docker</text>
<text text-anchor="middle" x="980.5" y="-74.5" font-family="Helvetica,sans-Serif" font-size="10.00">_api_commands.cpp</text>
</a>
</g>
</g>
<!-- Node1&#45;&gt;Node13 -->
<g id="edge18" class="edge">
<title>Node1&#45;&gt;Node13</title>
<path fill="none" stroke="midnightblue" d="M742.82,-132.52C788.23,-123.54 855.2,-110.16 913.5,-98 916.41,-97.39 919.4,-96.77 922.41,-96.13"/>
<polygon fill="midnightblue" stroke="midnightblue" points="742.03,-129.11 732.9,-134.48 743.39,-135.98 742.03,-129.11"/>
</g>
<!-- Node14 -->
<g id="node14" class="node">
<title>Node14</title>
<g id="a_node14"><a xlink:href="docker__commands_8cpp.html" target="_top" xlink:title="Implements Docker command classes for container operations.">
<polygon fill="white" stroke="black" points="1057,-67.5 1057,-97.5 1164,-97.5 1164,-67.5 1057,-67.5"/>
<text text-anchor="start" x="1065" y="-85.5" font-family="Helvetica,sans-Serif" font-size="10.00">runtime/src/docker</text>
<text text-anchor="middle" x="1110.5" y="-74.5" font-family="Helvetica,sans-Serif" font-size="10.00">_commands.cpp</text>
</a>
</g>
</g>
<!-- Node1&#45;&gt;Node14 -->
<g id="edge19" class="edge">
<title>Node1&#45;&gt;Node14</title>
<path fill="none" stroke="midnightblue" d="M760.97,-136.17C833.46,-128.73 948.74,-115.53 1047.5,-98 1050.59,-97.45 1053.77,-96.85 1056.96,-96.21"/>
<polygon fill="midnightblue" stroke="midnightblue" points="760.19,-132.73 750.59,-137.22 760.9,-139.69 760.19,-132.73"/>
</g>
<!-- Node15 -->
<g id="node15" class="node">
<title>Node15</title>
<g id="a_node15"><a xlink:href="podman__api__commands_8cpp.html" target="_top" xlink:title=" ">
<polygon fill="white" stroke="black" points="1182.5,-67.5 1182.5,-97.5 1298.5,-97.5 1298.5,-67.5 1182.5,-67.5"/>
<text text-anchor="start" x="1190.5" y="-85.5" font-family="Helvetica,sans-Serif" font-size="10.00">runtime/src/podman</text>
<text text-anchor="middle" x="1240.5" y="-74.5" font-family="Helvetica,sans-Serif" font-size="10.00">_api_commands.cpp</text>
</a>
</g>
</g>
<!-- Node1&#45;&gt;Node15 -->
<g id="edge20" class="edge">
<title>Node1&#45;&gt;Node15</title>
<path fill="none" stroke="midnightblue" d="M760.56,-139.08C855.2,-133.25 1027.64,-120.48 1173.5,-98 1176.44,-97.55 1179.45,-97.04 1182.47,-96.51"/>
<polygon fill="midnightblue" stroke="midnightblue" points="760.3,-135.59 750.53,-139.69 760.73,-142.58 760.3,-135.59"/>
</g>
<!-- Node16 -->
<g id="node16" class="node">
<title>Node16</title>
<g id="a_node16"><a xlink:href="podman__commands_8cpp.html" target="_top" xlink:title="Implements Podman command classes for container operations.">
<polygon fill="white" stroke="black" points="1317,-67.5 1317,-97.5 1432,-97.5 1432,-67.5 1317,-67.5"/>
<text text-anchor="start" x="1325" y="-85.5" font-family="Helvetica,sans-Serif" font-size="10.00">runtime/src/podman</text>
<text text-anchor="middle" x="1374.5" y="-74.5" font-family="Helvetica,sans-Serif" font-size="10.00">_commands.cpp</text>
</a>
</g>
</g>
<!-- Node1&#45;&gt;Node16 -->
<g id="edge21" class="edge">
<title>Node1&#45;&gt;Node16</title>
<path fill="none" stroke="midnightblue" d="M760.89,-141.06C876.32,-137.18 1110.86,-126.29 1307.5,-98 1310.56,-97.56 1313.69,-97.06 1316.85,-96.51"/>
<polygon fill="midnightblue" stroke="midnightblue" points="760.65,-137.56 750.77,-141.39 760.88,-144.56 760.65,-137.56"/>
</g>
<!-- Node17 -->
<g id="node17" class="node">
<title>Node17</title>
<g id="a_node17"><a xlink:href="init__handler_8cpp.html" target="_top" xlink:title="Implements project&#45;wide initialization functions.">
<polygon fill="white" stroke="black" points="1450.5,-73 1450.5,-92 1586.5,-92 1586.5,-73 1450.5,-73"/>
<text text-anchor="middle" x="1518.5" y="-80" font-family="Helvetica,sans-Serif" font-size="10.00">utils/src/init_handler.cpp</text>
</a>
</g>
</g>
<!-- Node1&#45;&gt;Node17 -->
<g id="edge22" class="edge">
<title>Node1&#45;&gt;Node17</title>
<path fill="none" stroke="midnightblue" d="M760.78,-141.73C894.65,-138.69 1192.6,-128.76 1441.5,-98 1453.52,-96.52 1466.48,-94.31 1478.29,-92.07"/>
<polygon fill="midnightblue" stroke="midnightblue" points="760.58,-138.24 750.66,-141.96 760.74,-145.23 760.58,-138.24"/>
</g>
<!-- Node3 -->
<g id="node3" class="node">
<title>Node3</title>
<g id="a_node3"><a xlink:href="dbus__consumer_8cpp.html" target="_top" xlink:title="Implements the DbusConsumer class for receiving and processing JSON requests over D&#45;Bus.">
<polygon fill="white" stroke="black" points="0,-6 0,-25 149,-25 149,-6 0,-6"/>
<text text-anchor="middle" x="74.5" y="-13" font-family="Helvetica,sans-Serif" font-size="10.00">api/src/dbus_consumer.cpp</text>
</a>
</g>
</g>
<!-- Node2&#45;&gt;Node3 -->
<g id="edge2" class="edge">
<title>Node2&#45;&gt;Node3</title>
<path fill="none" stroke="midnightblue" d="M81.58,-62.54C79.68,-50.17 77.29,-34.62 75.83,-25.13"/>
<polygon fill="midnightblue" stroke="midnightblue" points="78.17,-63.38 83.15,-72.73 85.09,-62.32 78.17,-63.38"/>
</g>
<!-- Node2&#45;&gt;Node4 -->
<g id="edge3" class="edge">
<title>Node2&#45;&gt;Node4</title>
<path fill="none" stroke="midnightblue" d="M108.64,-67.62C131.03,-54.74 163.64,-35.98 182.5,-25.13"/>
<polygon fill="midnightblue" stroke="midnightblue" points="106.66,-64.71 99.74,-72.73 110.15,-70.78 106.66,-64.71"/>
</g>
<!-- Node5&#45;&gt;Node4 -->
<g id="edge6" class="edge">
<title>Node5&#45;&gt;Node4</title>
<path fill="none" stroke="midnightblue" d="M259.45,-66.21C243.49,-53.41 221.29,-35.59 208.25,-25.13"/>
<polygon fill="midnightblue" stroke="midnightblue" points="257.59,-69.2 267.58,-72.73 261.97,-63.75 257.59,-69.2"/>
</g>
<!-- Node6 -->
<g id="node6" class="node">
<title>Node6</title>
<g id="a_node6"><a xlink:href="http__server_8cpp.html" target="_top" xlink:title="Implements the HttpServerHandler class for handling HTTP requests.">
<polygon fill="white" stroke="black" points="246.5,-6 246.5,-25 374.5,-25 374.5,-6 246.5,-6"/>
<text text-anchor="middle" x="310.5" y="-13" font-family="Helvetica,sans-Serif" font-size="10.00">api/src/http_server.cpp</text>
</a>
</g>
</g>
<!-- Node5&#45;&gt;Node6 -->
<g id="edge5" class="edge">
<title>Node5&#45;&gt;Node6</title>
<path fill="none" stroke="midnightblue" d="M287.28,-63.66C293.45,-51.13 301.44,-34.91 306.25,-25.13"/>
<polygon fill="midnightblue" stroke="midnightblue" points="284.09,-62.22 282.82,-72.73 290.37,-65.31 284.09,-62.22"/>
</g>
<!-- Node7&#45;&gt;Node4 -->
<g id="edge9" class="edge">
<title>Node7&#45;&gt;Node4</title>
<path fill="none" stroke="midnightblue" d="M357.81,-64.94C321.94,-55.67 277.07,-43.49 237.5,-31 231.86,-29.22 225.85,-27.14 220.23,-25.11"/>
<polygon fill="midnightblue" stroke="midnightblue" points="357.12,-68.38 367.68,-67.48 358.86,-61.6 357.12,-68.38"/>
</g>
<!-- Node7&#45;&gt;Node8 -->
<g id="edge8" class="edge">
<title>Node7&#45;&gt;Node8</title>
<path fill="none" stroke="midnightblue" d="M437.9,-58.58C443.36,-49.24 449.49,-38.75 454.27,-30.58"/>
<polygon fill="midnightblue" stroke="midnightblue" points="434.77,-57 432.75,-67.4 440.81,-60.53 434.77,-57"/>
</g>
<!-- Node11&#45;&gt;Node9 -->
<g id="edge15" class="edge">
<title>Node11&#45;&gt;Node9</title>
<path fill="none" stroke="midnightblue" d="M629.03,-59.16C622.47,-49.68 615.02,-38.92 609.25,-30.58"/>
<polygon fill="midnightblue" stroke="midnightblue" points="626.17,-61.17 634.74,-67.4 631.92,-57.18 626.17,-61.17"/>
</g>
<!-- Node11&#45;&gt;Node12 -->
<g id="edge16" class="edge">
<title>Node11&#45;&gt;Node12</title>
<path fill="none" stroke="midnightblue" d="M671.64,-61.45C685.18,-51.45 701.23,-39.6 713.44,-30.58"/>
<polygon fill="midnightblue" stroke="midnightblue" points="669.56,-58.64 663.59,-67.4 673.72,-64.27 669.56,-58.64"/>
</g>
</g>
</svg>
