<?xml version="1.0" encoding="UTF-8" standalone="no"?>
<!DOCTYPE svg PUBLIC "-//W3C//DTD SVG 1.1//EN"
 "http://www.w3.org/Graphics/SVG/1.1/DTD/svg11.dtd">
<!-- Generated by graphviz version 2.43.0 (0)
 -->
<!-- Title: runtime/inc/command_factory.hpp Pages: 1 -->
<svg width="648pt" height="207pt"
 viewBox="0.00 0.00 648.00 207.00" xmlns="http://www.w3.org/2000/svg" xmlns:xlink="http://www.w3.org/1999/xlink">
<g id="graph0" class="graph" transform="scale(1 1) rotate(0) translate(4 203)">
<title>runtime/inc/command_factory.hpp</title>
<polygon fill="white" stroke="transparent" points="-4,4 -4,-203 644,-203 644,4 -4,4"/>
<!-- Node1 -->
<g id="node1" class="node">
<title>Node1</title>
<g id="a_node1"><a xlink:title="Declares the CommandFactory class for creating command objects based on container requests.">
<polygon fill="#bfbfbf" stroke="black" points="222.5,-168.5 222.5,-198.5 346.5,-198.5 346.5,-168.5 222.5,-168.5"/>
<text text-anchor="start" x="230.5" y="-186.5" font-family="Helvetica,sans-Serif" font-size="10.00">runtime/inc/command</text>
<text text-anchor="middle" x="284.5" y="-175.5" font-family="Helvetica,sans-Serif" font-size="10.00">_factory.hpp</text>
</a>
</g>
</g>
<!-- Node2 -->
<g id="node2" class="node">
<title>Node2</title>
<g id="a_node2"><a xlink:title=" ">
<polygon fill="white" stroke="#bfbfbf" points="440.5,-56.5 440.5,-75.5 498.5,-75.5 498.5,-56.5 440.5,-56.5"/>
<text text-anchor="middle" x="469.5" y="-63.5" font-family="Helvetica,sans-Serif" font-size="10.00">memory</text>
</a>
</g>
</g>
<!-- Node1&#45;&gt;Node2 -->
<g id="edge1" class="edge">
<title>Node1&#45;&gt;Node2</title>
<path fill="none" stroke="midnightblue" d="M307.18,-168.34C342.79,-146.11 411.39,-103.28 446.93,-81.09"/>
<polygon fill="midnightblue" stroke="midnightblue" points="448.98,-83.93 455.61,-75.67 445.28,-78 448.98,-83.93"/>
</g>
<!-- Node3 -->
<g id="node3" class="node">
<title>Node3</title>
<g id="a_node3"><a xlink:title=" ">
<polygon fill="white" stroke="#bfbfbf" points="187.5,-0.5 187.5,-19.5 231.5,-19.5 231.5,-0.5 187.5,-0.5"/>
<text text-anchor="middle" x="209.5" y="-7.5" font-family="Helvetica,sans-Serif" font-size="10.00">string</text>
</a>
</g>
</g>
<!-- Node1&#45;&gt;Node3 -->
<g id="edge2" class="edge">
<title>Node1&#45;&gt;Node3</title>
<path fill="none" stroke="midnightblue" d="M261.82,-168.4C249.43,-159.49 234.93,-146.87 226.5,-132 208.17,-99.66 206.97,-54.89 208.04,-29.87"/>
<polygon fill="midnightblue" stroke="midnightblue" points="211.55,-29.79 208.65,-19.59 204.56,-29.37 211.55,-29.79"/>
</g>
<!-- Node4 -->
<g id="node4" class="node">
<title>Node4</title>
<g id="a_node4"><a xlink:href="commands_8hpp.html" target="_top" xlink:title="Declares the Command interface and Invoker class for the command pattern.">
<polygon fill="white" stroke="black" points="443,-112.5 443,-131.5 552,-131.5 552,-112.5 443,-112.5"/>
<text text-anchor="middle" x="497.5" y="-119.5" font-family="Helvetica,sans-Serif" font-size="10.00">inc/commands.hpp</text>
</a>
</g>
</g>
<!-- Node1&#45;&gt;Node4 -->
<g id="edge3" class="edge">
<title>Node1&#45;&gt;Node4</title>
<path fill="none" stroke="midnightblue" d="M334.71,-168.47C372.1,-158.03 422.48,-143.96 457.24,-134.25"/>
<polygon fill="midnightblue" stroke="midnightblue" points="458.36,-137.57 467.05,-131.51 456.48,-130.83 458.36,-137.57"/>
</g>
<!-- Node6 -->
<g id="node6" class="node">
<title>Node6</title>
<g id="a_node6"><a xlink:href="common_8hpp.html" target="_top" xlink:title="Defines common constants, string views, and utility structures for the application.">
<polygon fill="white" stroke="black" points="235.5,-112.5 235.5,-131.5 333.5,-131.5 333.5,-112.5 235.5,-112.5"/>
<text text-anchor="middle" x="284.5" y="-119.5" font-family="Helvetica,sans-Serif" font-size="10.00">inc/common.hpp</text>
</a>
</g>
</g>
<!-- Node1&#45;&gt;Node6 -->
<g id="edge8" class="edge">
<title>Node1&#45;&gt;Node6</title>
<path fill="none" stroke="midnightblue" d="M284.5,-168.4C284.5,-160.47 284.5,-150.46 284.5,-141.86"/>
<polygon fill="midnightblue" stroke="midnightblue" points="288,-141.66 284.5,-131.66 281,-141.66 288,-141.66"/>
</g>
<!-- Node9 -->
<g id="node9" class="node">
<title>Node9</title>
<g id="a_node9"><a xlink:href="container__request_8hpp.html" target="_top" xlink:title="Data structure for representing a container operation request.">
<polygon fill="white" stroke="black" points="0,-112.5 0,-131.5 143,-131.5 143,-112.5 0,-112.5"/>
<text text-anchor="middle" x="71.5" y="-119.5" font-family="Helvetica,sans-Serif" font-size="10.00">inc/container_request.hpp</text>
</a>
</g>
</g>
<!-- Node1&#45;&gt;Node9 -->
<g id="edge12" class="edge">
<title>Node1&#45;&gt;Node9</title>
<path fill="none" stroke="midnightblue" d="M234.29,-168.47C196.9,-158.03 146.52,-143.96 111.76,-134.25"/>
<polygon fill="midnightblue" stroke="midnightblue" points="112.52,-130.83 101.95,-131.51 110.64,-137.57 112.52,-130.83"/>
</g>
<!-- Node4&#45;&gt;Node2 -->
<g id="edge5" class="edge">
<title>Node4&#45;&gt;Node2</title>
<path fill="none" stroke="midnightblue" d="M492.88,-112.08C489.04,-104.69 483.48,-93.95 478.74,-84.81"/>
<polygon fill="midnightblue" stroke="midnightblue" points="481.75,-83.02 474.04,-75.75 475.53,-86.24 481.75,-83.02"/>
</g>
<!-- Node4&#45;&gt;Node3 -->
<g id="edge4" class="edge">
<title>Node4&#45;&gt;Node3</title>
<path fill="none" stroke="midnightblue" d="M502.68,-112.25C510.04,-98.54 521.2,-71.93 507.5,-56 473.5,-16.48 311.87,-11.22 241.91,-10.83"/>
<polygon fill="midnightblue" stroke="midnightblue" points="241.9,-7.33 231.89,-10.8 241.88,-14.33 241.9,-7.33"/>
</g>
<!-- Node5 -->
<g id="node5" class="node">
<title>Node5</title>
<g id="a_node5"><a xlink:href="status_8hpp.html" target="_top" xlink:title="Defines status codes and a Status struct for standardized error handling.">
<polygon fill="white" stroke="black" points="555,-56.5 555,-75.5 640,-75.5 640,-56.5 555,-56.5"/>
<text text-anchor="middle" x="597.5" y="-63.5" font-family="Helvetica,sans-Serif" font-size="10.00">inc/status.hpp</text>
</a>
</g>
</g>
<!-- Node4&#45;&gt;Node5 -->
<g id="edge6" class="edge">
<title>Node4&#45;&gt;Node5</title>
<path fill="none" stroke="midnightblue" d="M513.57,-112.32C529.46,-103.74 554.01,-90.49 572.46,-80.52"/>
<polygon fill="midnightblue" stroke="midnightblue" points="574.34,-83.49 581.47,-75.65 571.01,-77.33 574.34,-83.49"/>
</g>
<!-- Node5&#45;&gt;Node3 -->
<g id="edge7" class="edge">
<title>Node5&#45;&gt;Node3</title>
<path fill="none" stroke="midnightblue" d="M554.87,-58.17C550.03,-57.42 545.16,-56.68 540.5,-56 431.12,-39.93 301.09,-22.84 241.83,-15.16"/>
<polygon fill="midnightblue" stroke="midnightblue" points="241.97,-11.65 231.6,-13.84 241.07,-18.59 241.97,-11.65"/>
</g>
<!-- Node6&#45;&gt;Node3 -->
<g id="edge9" class="edge">
<title>Node6&#45;&gt;Node3</title>
<path fill="none" stroke="midnightblue" d="M269.82,-112.46C257.39,-104.51 239.96,-91.56 229.5,-76 220.14,-62.07 215,-43.56 212.29,-29.86"/>
<polygon fill="midnightblue" stroke="midnightblue" points="215.69,-28.95 210.54,-19.68 208.79,-30.13 215.69,-28.95"/>
</g>
<!-- Node7 -->
<g id="node7" class="node">
<title>Node7</title>
<g id="a_node7"><a xlink:title=" ">
<polygon fill="white" stroke="#bfbfbf" points="349,-56.5 349,-75.5 422,-75.5 422,-56.5 349,-56.5"/>
<text text-anchor="middle" x="385.5" y="-63.5" font-family="Helvetica,sans-Serif" font-size="10.00">string_view</text>
</a>
</g>
</g>
<!-- Node6&#45;&gt;Node7 -->
<g id="edge10" class="edge">
<title>Node6&#45;&gt;Node7</title>
<path fill="none" stroke="midnightblue" d="M300.73,-112.32C316.85,-103.7 341.8,-90.36 360.46,-80.39"/>
<polygon fill="midnightblue" stroke="midnightblue" points="362.14,-83.46 369.31,-75.65 358.84,-77.28 362.14,-83.46"/>
</g>
<!-- Node8 -->
<g id="node8" class="node">
<title>Node8</title>
<g id="a_node8"><a xlink:title=" ">
<polygon fill="white" stroke="#bfbfbf" points="238,-56.5 238,-75.5 331,-75.5 331,-56.5 238,-56.5"/>
<text text-anchor="middle" x="284.5" y="-63.5" font-family="Helvetica,sans-Serif" font-size="10.00">unordered_map</text>
</a>
</g>
</g>
<!-- Node6&#45;&gt;Node8 -->
<g id="edge11" class="edge">
<title>Node6&#45;&gt;Node8</title>
<path fill="none" stroke="midnightblue" d="M284.5,-112.08C284.5,-105.01 284.5,-94.86 284.5,-85.99"/>
<polygon fill="midnightblue" stroke="midnightblue" points="288,-85.75 284.5,-75.75 281,-85.75 288,-85.75"/>
</g>
<!-- Node9&#45;&gt;Node3 -->
<g id="edge13" class="edge">
<title>Node9&#45;&gt;Node3</title>
<path fill="none" stroke="midnightblue" d="M82.33,-112.37C105.81,-93.65 161.64,-49.15 190.89,-25.83"/>
<polygon fill="midnightblue" stroke="midnightblue" points="193.08,-28.56 198.72,-19.59 188.72,-23.09 193.08,-28.56"/>
</g>
</g>
</svg>
