<?xml version="1.0" encoding="UTF-8" standalone="no"?>
<!DOCTYPE svg PUBLIC "-//W3C//DTD SVG 1.1//EN"
 "http://www.w3.org/Graphics/SVG/1.1/DTD/svg11.dtd">
<!-- Generated by graphviz version 2.43.0 (0)
 -->
<!-- Title: runtime/inc/commands.hpp Pages: 1 -->
<svg width="904pt" height="162pt"
 viewBox="0.00 0.00 903.50 162.00" xmlns="http://www.w3.org/2000/svg" xmlns:xlink="http://www.w3.org/1999/xlink">
<g id="graph0" class="graph" transform="scale(1 1) rotate(0) translate(4 158)">
<title>runtime/inc/commands.hpp</title>
<polygon fill="white" stroke="transparent" points="-4,4 -4,-158 899.5,-158 899.5,4 -4,4"/>
<!-- Node1 -->
<g id="node1" class="node">
<title>Node1</title>
<g id="a_node1"><a xlink:title="Declares the Command interface and Invoker class for the command pattern.">
<polygon fill="#bfbfbf" stroke="black" points="368,-134.5 368,-153.5 518,-153.5 518,-134.5 368,-134.5"/>
<text text-anchor="middle" x="443" y="-141.5" font-family="Helvetica,sans-Serif" font-size="10.00">runtime/inc/commands.hpp</text>
</a>
</g>
</g>
<!-- Node2 -->
<g id="node2" class="node">
<title>Node2</title>
<g id="a_node2"><a xlink:href="command__factory_8hpp.html" target="_top" xlink:title="Declares the CommandFactory class for creating command objects based on container requests.">
<polygon fill="white" stroke="black" points="112,-67.5 112,-97.5 236,-97.5 236,-67.5 112,-67.5"/>
<text text-anchor="start" x="120" y="-85.5" font-family="Helvetica,sans-Serif" font-size="10.00">runtime/inc/command</text>
<text text-anchor="middle" x="174" y="-74.5" font-family="Helvetica,sans-Serif" font-size="10.00">_factory.hpp</text>
</a>
</g>
</g>
<!-- Node1&#45;&gt;Node2 -->
<g id="edge1" class="edge">
<title>Node1&#45;&gt;Node2</title>
<path fill="none" stroke="midnightblue" d="M394.5,-132.27C350.15,-122.46 284.3,-107.9 236.11,-97.24"/>
<polygon fill="midnightblue" stroke="midnightblue" points="393.94,-135.73 404.46,-134.48 395.45,-128.9 393.94,-135.73"/>
</g>
<!-- Node6 -->
<g id="node6" class="node">
<title>Node6</title>
<g id="a_node6"><a xlink:href="docker__api__commands_8hpp.html" target="_top" xlink:title="Declares command classes for managing containers via the Docker HTTP API over a Unix socket.">
<polygon fill="white" stroke="black" points="254.5,-67.5 254.5,-97.5 371.5,-97.5 371.5,-67.5 254.5,-67.5"/>
<text text-anchor="start" x="262.5" y="-85.5" font-family="Helvetica,sans-Serif" font-size="10.00">runtime/inc/docker</text>
<text text-anchor="middle" x="313" y="-74.5" font-family="Helvetica,sans-Serif" font-size="10.00">_api_commands.hpp</text>
</a>
</g>
</g>
<!-- Node1&#45;&gt;Node6 -->
<g id="edge5" class="edge">
<title>Node1&#45;&gt;Node6</title>
<path fill="none" stroke="midnightblue" d="M415.03,-130.2C394.03,-120.58 365.27,-107.42 343.64,-97.52"/>
<polygon fill="midnightblue" stroke="midnightblue" points="413.82,-133.5 424.37,-134.48 416.74,-127.13 413.82,-133.5"/>
</g>
<!-- Node8 -->
<g id="node8" class="node">
<title>Node8</title>
<g id="a_node8"><a xlink:href="docker__commands_8hpp.html" target="_top" xlink:title="Declares Docker command classes for container operations.">
<polygon fill="white" stroke="black" points="389.5,-67.5 389.5,-97.5 496.5,-97.5 496.5,-67.5 389.5,-67.5"/>
<text text-anchor="start" x="397.5" y="-85.5" font-family="Helvetica,sans-Serif" font-size="10.00">runtime/inc/docker</text>
<text text-anchor="middle" x="443" y="-74.5" font-family="Helvetica,sans-Serif" font-size="10.00">_commands.hpp</text>
</a>
</g>
</g>
<!-- Node1&#45;&gt;Node8 -->
<g id="edge8" class="edge">
<title>Node1&#45;&gt;Node8</title>
<path fill="none" stroke="midnightblue" d="M443,-124.23C443,-115.59 443,-105.5 443,-97.52"/>
<polygon fill="midnightblue" stroke="midnightblue" points="439.5,-124.48 443,-134.48 446.5,-124.48 439.5,-124.48"/>
</g>
<!-- Node10 -->
<g id="node10" class="node">
<title>Node10</title>
<g id="a_node10"><a xlink:href="podman__api__commands_8hpp.html" target="_top" xlink:title="Declares command classes for managing containers via the Podman HTTP API over a Unix socket.">
<polygon fill="white" stroke="black" points="514.5,-67.5 514.5,-97.5 631.5,-97.5 631.5,-67.5 514.5,-67.5"/>
<text text-anchor="start" x="522.5" y="-85.5" font-family="Helvetica,sans-Serif" font-size="10.00">runtime/inc/podman</text>
<text text-anchor="middle" x="573" y="-74.5" font-family="Helvetica,sans-Serif" font-size="10.00">_api_commands.hpp</text>
</a>
</g>
</g>
<!-- Node1&#45;&gt;Node10 -->
<g id="edge11" class="edge">
<title>Node1&#45;&gt;Node10</title>
<path fill="none" stroke="midnightblue" d="M470.97,-130.2C491.97,-120.58 520.73,-107.42 542.36,-97.52"/>
<polygon fill="midnightblue" stroke="midnightblue" points="469.26,-127.13 461.63,-134.48 472.18,-133.5 469.26,-127.13"/>
</g>
<!-- Node12 -->
<g id="node12" class="node">
<title>Node12</title>
<g id="a_node12"><a xlink:href="podman__commands_8hpp.html" target="_top" xlink:title="Declares Podman command classes for container operations.">
<polygon fill="white" stroke="black" points="649.5,-67.5 649.5,-97.5 764.5,-97.5 764.5,-67.5 649.5,-67.5"/>
<text text-anchor="start" x="657.5" y="-85.5" font-family="Helvetica,sans-Serif" font-size="10.00">runtime/inc/podman</text>
<text text-anchor="middle" x="707" y="-74.5" font-family="Helvetica,sans-Serif" font-size="10.00">_commands.hpp</text>
</a>
</g>
</g>
<!-- Node1&#45;&gt;Node12 -->
<g id="edge14" class="edge">
<title>Node1&#45;&gt;Node12</title>
<path fill="none" stroke="midnightblue" d="M490.81,-132.22C535.35,-122.19 601.84,-107.2 649.31,-96.5"/>
<polygon fill="midnightblue" stroke="midnightblue" points="489.81,-128.86 480.82,-134.48 491.35,-135.69 489.81,-128.86"/>
</g>
<!-- Node3 -->
<g id="node3" class="node">
<title>Node3</title>
<g id="a_node3"><a xlink:href="container__service_8cpp.html" target="_top" xlink:title="Implements the ContainerServiceHandler class for business logic related to containers.">
<polygon fill="white" stroke="black" points="122,-0.5 122,-30.5 226,-30.5 226,-0.5 122,-0.5"/>
<text text-anchor="start" x="130" y="-18.5" font-family="Helvetica,sans-Serif" font-size="10.00">core/src/container</text>
<text text-anchor="middle" x="174" y="-7.5" font-family="Helvetica,sans-Serif" font-size="10.00">_service.cpp</text>
</a>
</g>
</g>
<!-- Node2&#45;&gt;Node3 -->
<g id="edge2" class="edge">
<title>Node2&#45;&gt;Node3</title>
<path fill="none" stroke="midnightblue" d="M174,-57.11C174,-48.15 174,-38.32 174,-30.58"/>
<polygon fill="midnightblue" stroke="midnightblue" points="170.5,-57.4 174,-67.4 177.5,-57.4 170.5,-57.4"/>
</g>
<!-- Node4 -->
<g id="node4" class="node">
<title>Node4</title>
<g id="a_node4"><a xlink:href="command__factory_8cpp.html" target="_top" xlink:title="Implements the CommandFactory class for creating command objects based on container requests.">
<polygon fill="white" stroke="black" points="504,-0.5 504,-30.5 628,-30.5 628,-0.5 504,-0.5"/>
<text text-anchor="start" x="512" y="-18.5" font-family="Helvetica,sans-Serif" font-size="10.00">runtime/src/command</text>
<text text-anchor="middle" x="566" y="-7.5" font-family="Helvetica,sans-Serif" font-size="10.00">_factory.cpp</text>
</a>
</g>
</g>
<!-- Node2&#45;&gt;Node4 -->
<g id="edge3" class="edge">
<title>Node2&#45;&gt;Node4</title>
<path fill="none" stroke="midnightblue" d="M246.18,-66.86C356.85,-47.91 386.94,-49.51 494,-31 497.27,-30.44 500.61,-29.84 503.99,-29.21"/>
<polygon fill="midnightblue" stroke="midnightblue" points="245.56,-63.41 236.3,-68.56 246.75,-70.31 245.56,-63.41"/>
</g>
<!-- Node5 -->
<g id="node5" class="node">
<title>Node5</title>
<g id="a_node5"><a xlink:href="container__service__test_8cpp.html" target="_top" xlink:title=" ">
<polygon fill="white" stroke="black" points="0,-0.5 0,-30.5 104,-30.5 104,-0.5 0,-0.5"/>
<text text-anchor="start" x="8" y="-18.5" font-family="Helvetica,sans-Serif" font-size="10.00">unitTest/container</text>
<text text-anchor="middle" x="52" y="-7.5" font-family="Helvetica,sans-Serif" font-size="10.00">_service_test.cpp</text>
</a>
</g>
</g>
<!-- Node2&#45;&gt;Node5 -->
<g id="edge4" class="edge">
<title>Node2&#45;&gt;Node5</title>
<path fill="none" stroke="midnightblue" d="M138.48,-62.57C119.29,-52.35 96,-39.94 78.42,-30.58"/>
<polygon fill="midnightblue" stroke="midnightblue" points="137.06,-65.78 147.53,-67.4 140.35,-59.6 137.06,-65.78"/>
</g>
<!-- Node6&#45;&gt;Node4 -->
<g id="edge6" class="edge">
<title>Node6&#45;&gt;Node4</title>
<path fill="none" stroke="midnightblue" d="M377.28,-64.98C418.61,-54.37 471.73,-40.72 511.08,-30.61"/>
<polygon fill="midnightblue" stroke="midnightblue" points="376.4,-61.6 367.59,-67.48 378.14,-68.38 376.4,-61.6"/>
</g>
<!-- Node7 -->
<g id="node7" class="node">
<title>Node7</title>
<g id="a_node7"><a xlink:href="docker__api__commands_8cpp.html" target="_top" xlink:title="Implements Docker API command classes for managing containers via the Docker HTTP API over a Unix soc...">
<polygon fill="white" stroke="black" points="244,-0.5 244,-30.5 360,-30.5 360,-0.5 244,-0.5"/>
<text text-anchor="start" x="252" y="-18.5" font-family="Helvetica,sans-Serif" font-size="10.00">runtime/src/docker</text>
<text text-anchor="middle" x="302" y="-7.5" font-family="Helvetica,sans-Serif" font-size="10.00">_api_commands.cpp</text>
</a>
</g>
</g>
<!-- Node6&#45;&gt;Node7 -->
<g id="edge7" class="edge">
<title>Node6&#45;&gt;Node7</title>
<path fill="none" stroke="midnightblue" d="M308.92,-57.4C307.39,-48.37 305.71,-38.41 304.38,-30.58"/>
<polygon fill="midnightblue" stroke="midnightblue" points="305.49,-58.12 310.61,-67.4 312.4,-56.95 305.49,-58.12"/>
</g>
<!-- Node8&#45;&gt;Node4 -->
<g id="edge9" class="edge">
<title>Node8&#45;&gt;Node4</title>
<path fill="none" stroke="midnightblue" d="M478.55,-62.71C497.95,-52.46 521.56,-39.98 539.36,-30.58"/>
<polygon fill="midnightblue" stroke="midnightblue" points="476.9,-59.63 469.69,-67.4 480.17,-65.82 476.9,-59.63"/>
</g>
<!-- Node9 -->
<g id="node9" class="node">
<title>Node9</title>
<g id="a_node9"><a xlink:href="docker__commands_8cpp.html" target="_top" xlink:title="Implements Docker command classes for container operations.">
<polygon fill="white" stroke="black" points="378.5,-0.5 378.5,-30.5 485.5,-30.5 485.5,-0.5 378.5,-0.5"/>
<text text-anchor="start" x="386.5" y="-18.5" font-family="Helvetica,sans-Serif" font-size="10.00">runtime/src/docker</text>
<text text-anchor="middle" x="432" y="-7.5" font-family="Helvetica,sans-Serif" font-size="10.00">_commands.cpp</text>
</a>
</g>
</g>
<!-- Node8&#45;&gt;Node9 -->
<g id="edge10" class="edge">
<title>Node8&#45;&gt;Node9</title>
<path fill="none" stroke="midnightblue" d="M438.92,-57.4C437.39,-48.37 435.71,-38.41 434.38,-30.58"/>
<polygon fill="midnightblue" stroke="midnightblue" points="435.49,-58.12 440.61,-67.4 442.4,-56.95 435.49,-58.12"/>
</g>
<!-- Node10&#45;&gt;Node4 -->
<g id="edge12" class="edge">
<title>Node10&#45;&gt;Node4</title>
<path fill="none" stroke="midnightblue" d="M570.4,-57.4C569.43,-48.37 568.36,-38.41 567.52,-30.58"/>
<polygon fill="midnightblue" stroke="midnightblue" points="566.93,-57.83 571.48,-67.4 573.89,-57.08 566.93,-57.83"/>
</g>
<!-- Node11 -->
<g id="node11" class="node">
<title>Node11</title>
<g id="a_node11"><a xlink:href="podman__api__commands_8cpp.html" target="_top" xlink:title="Implements Podman API command classes for managing containers via the Podman HTTP API over a Unix soc...">
<polygon fill="white" stroke="black" points="646,-0.5 646,-30.5 762,-30.5 762,-0.5 646,-0.5"/>
<text text-anchor="start" x="654" y="-18.5" font-family="Helvetica,sans-Serif" font-size="10.00">runtime/src/podman</text>
<text text-anchor="middle" x="704" y="-7.5" font-family="Helvetica,sans-Serif" font-size="10.00">_api_commands.cpp</text>
</a>
</g>
</g>
<!-- Node10&#45;&gt;Node11 -->
<g id="edge13" class="edge">
<title>Node10&#45;&gt;Node11</title>
<path fill="none" stroke="midnightblue" d="M610.58,-62.85C631.29,-52.58 656.59,-40.03 675.63,-30.58"/>
<polygon fill="midnightblue" stroke="midnightblue" points="608.83,-59.82 601.43,-67.4 611.94,-66.09 608.83,-59.82"/>
</g>
<!-- Node12&#45;&gt;Node4 -->
<g id="edge15" class="edge">
<title>Node12&#45;&gt;Node4</title>
<path fill="none" stroke="midnightblue" d="M667.15,-63.13C644.75,-52.8 617.22,-40.11 596.54,-30.58"/>
<polygon fill="midnightblue" stroke="midnightblue" points="665.86,-66.39 676.41,-67.4 668.79,-60.03 665.86,-66.39"/>
</g>
<!-- Node13 -->
<g id="node13" class="node">
<title>Node13</title>
<g id="a_node13"><a xlink:href="podman__commands_8cpp.html" target="_top" xlink:title="Implements Podman command classes for container operations.">
<polygon fill="white" stroke="black" points="780.5,-0.5 780.5,-30.5 895.5,-30.5 895.5,-0.5 780.5,-0.5"/>
<text text-anchor="start" x="788.5" y="-18.5" font-family="Helvetica,sans-Serif" font-size="10.00">runtime/src/podman</text>
<text text-anchor="middle" x="838" y="-7.5" font-family="Helvetica,sans-Serif" font-size="10.00">_commands.cpp</text>
</a>
</g>
</g>
<!-- Node12&#45;&gt;Node13 -->
<g id="edge16" class="edge">
<title>Node12&#45;&gt;Node13</title>
<path fill="none" stroke="midnightblue" d="M744.58,-62.85C765.29,-52.58 790.59,-40.03 809.63,-30.58"/>
<polygon fill="midnightblue" stroke="midnightblue" points="742.83,-59.82 735.43,-67.4 745.94,-66.09 742.83,-59.82"/>
</g>
</g>
</svg>
