<?xml version="1.0" encoding="UTF-8" standalone="no"?>
<!DOCTYPE svg PUBLIC "-//W3C//DTD SVG 1.1//EN"
 "http://www.w3.org/Graphics/SVG/1.1/DTD/svg11.dtd">
<!-- Generated by graphviz version 2.43.0 (0)
 -->
<!-- Title: utils/inc/common.hpp Pages: 1 -->
<!--zoomable 162 -->
<svg id="main" version="1.1" xmlns="http://www.w3.org/2000/svg" xmlns:xlink="http://www.w3.org/1999/xlink" xml:space="preserve" onload="init(evt)">
<style type="text/css"><![CDATA[
.edge:hover path { stroke: red; }
.edge:hover polygon { stroke: red; fill: red; }
]]></style>
<script type="text/javascript"><![CDATA[
var edges = document.getElementsByTagName('g');
if (edges && edges.length) {
  for (var i=0;i<edges.length;i++) {
    if (edges[i].id.substr(0,4)=='edge') {
      edges[i].setAttribute('class','edge');
    }
  }
}
]]></script>
        <defs>
                <circle id="rim" cx="0" cy="0" r="7"/>
                <circle id="rim2" cx="0" cy="0" r="3.5"/>
                <g id="zoomPlus">
                        <use xlink:href="#rim" fill="#404040">
                                <set attributeName="fill" to="#808080" begin="zoomplus.mouseover" end="zoomplus.mouseout"/>
                        </use>
                        <path d="M-4,0h8M0,-4v8" fill="none" stroke="white" stroke-width="1.5" pointer-events="none"/>
                </g>
                <g id="zoomMin">
                        <use xlink:href="#rim" fill="#404040">
                                <set attributeName="fill" to="#808080" begin="zoomminus.mouseover" end="zoomminus.mouseout"/>
                        </use>
                        <path d="M-4,0h8" fill="none" stroke="white" stroke-width="1.5" pointer-events="none"/>
                </g>
                <g id="dirArrow">
                        <path fill="none" stroke="white" stroke-width="1.5" d="M0,-3.0v7 M-2.5,-0.5L0,-3.0L2.5,-0.5"/>
                </g>
               <g id="resetDef">
                       <use xlink:href="#rim2" fill="#404040">
                               <set attributeName="fill" to="#808080" begin="reset.mouseover" end="reset.mouseout"/>
                       </use>
               </g>
        </defs>

<script type="text/javascript">
var viewWidth = 1774;
var viewHeight = 162;
var sectionId = 'dynsection-1';
</script>
<script xlink:href="svgpan.js"/>
<svg id="graph" class="graph">
<g id="viewport">
<title>utils/inc/common.hpp</title>
<polygon fill="white" stroke="transparent" points="-4,4 -4,-158 1769.5,-158 1769.5,4 -4,4"/>
<!-- Node1 -->
<g id="node1" class="node">
<title>Node1</title>
<g id="a_node1"><a xlink:title="Defines common constants, string views, and utility structures for the application.">
<polygon fill="#bfbfbf" stroke="black" points="811.5,-134.5 811.5,-153.5 933.5,-153.5 933.5,-134.5 811.5,-134.5"/>
<text text-anchor="middle" x="872.5" y="-141.5" font-family="Helvetica,sans-Serif" font-size="10.00">utils/inc/common.hpp</text>
</a>
</g>
</g>
<!-- Node2 -->
<g id="node2" class="node">
<title>Node2</title>
<g id="a_node2"><a xlink:href="dbus__consumer_8hpp.html" target="_top" xlink:title="Defines the DBusConsumer class for receiving and processing JSON/Protobuf requests over D&#45;Bus.">
<polygon fill="white" stroke="black" points="0,-73 0,-92 149,-92 149,-73 0,-73"/>
<text text-anchor="middle" x="74.5" y="-80" font-family="Helvetica,sans-Serif" font-size="10.00">api/inc/dbus_consumer.hpp</text>
</a>
</g>
</g>
<!-- Node1&#45;&gt;Node2 -->
<g id="edge1" class="edge">
<title>Node1&#45;&gt;Node2</title>
<path fill="none" stroke="midnightblue" d="M801.04,-141.05C672.23,-136.97 392.7,-125.51 158.5,-98 145.57,-96.48 131.6,-94.29 118.84,-92.07"/>
<polygon fill="midnightblue" stroke="midnightblue" points="801.07,-144.55 811.17,-141.37 801.29,-137.56 801.07,-144.55"/>
</g>
<!-- Node4 -->
<g id="node4" class="node">
<title>Node4</title>
<g id="a_node4"><a xlink:href="http__server_8hpp.html" target="_top" xlink:title="Defines the HttpServerHandler class for handling HTTP requests.">
<polygon fill="white" stroke="black" points="167.5,-73 167.5,-92 295.5,-92 295.5,-73 167.5,-73"/>
<text text-anchor="middle" x="231.5" y="-80" font-family="Helvetica,sans-Serif" font-size="10.00">api/inc/http_server.hpp</text>
</a>
</g>
</g>
<!-- Node1&#45;&gt;Node4 -->
<g id="edge3" class="edge">
<title>Node1&#45;&gt;Node4</title>
<path fill="none" stroke="midnightblue" d="M801.19,-140.03C693.28,-134.94 482.24,-122.61 304.5,-98 293.24,-96.44 281.09,-94.24 270,-92.02"/>
<polygon fill="midnightblue" stroke="midnightblue" points="801.15,-143.53 811.31,-140.5 801.48,-136.54 801.15,-143.53"/>
</g>
<!-- Node6 -->
<g id="node6" class="node">
<title>Node6</title>
<g id="a_node6"><a xlink:href="posix__message__queue__consumer_8hpp.html" target="_top" xlink:title="Declares the MessageQueueConsumer class for handling messages from a POSIX message queue.">
<polygon fill="white" stroke="black" points="313.5,-67.5 313.5,-97.5 441.5,-97.5 441.5,-67.5 313.5,-67.5"/>
<text text-anchor="start" x="321.5" y="-85.5" font-family="Helvetica,sans-Serif" font-size="10.00">api/inc/posix_message</text>
<text text-anchor="middle" x="377.5" y="-74.5" font-family="Helvetica,sans-Serif" font-size="10.00">_queue_consumer.hpp</text>
</a>
</g>
</g>
<!-- Node1&#45;&gt;Node6 -->
<g id="edge5" class="edge">
<title>Node1&#45;&gt;Node6</title>
<path fill="none" stroke="midnightblue" d="M801.09,-136.96C717.88,-129.55 576.36,-115.73 455.5,-98 451,-97.34 446.37,-96.61 441.71,-95.84"/>
<polygon fill="midnightblue" stroke="midnightblue" points="800.92,-140.46 811.19,-137.86 801.54,-133.49 800.92,-140.46"/>
</g>
<!-- Node7 -->
<g id="node7" class="node">
<title>Node7</title>
<g id="a_node7"><a xlink:href="posix__message__queue__consumer_8cpp.html" target="_top" xlink:title="Implements the MessageQueueConsumer class for handling messages from a POSIX message queue.">
<polygon fill="white" stroke="black" points="359.5,-0.5 359.5,-30.5 487.5,-30.5 487.5,-0.5 359.5,-0.5"/>
<text text-anchor="start" x="367.5" y="-18.5" font-family="Helvetica,sans-Serif" font-size="10.00">api/src/posix_message</text>
<text text-anchor="middle" x="423.5" y="-7.5" font-family="Helvetica,sans-Serif" font-size="10.00">_queue_consumer.cpp</text>
</a>
</g>
</g>
<!-- Node1&#45;&gt;Node7 -->
<g id="edge7" class="edge">
<title>Node1&#45;&gt;Node7</title>
<path fill="none" stroke="midnightblue" d="M801.1,-139.21C711.16,-133.56 562.32,-121.03 512.5,-98 478.84,-82.44 449.18,-49.44 434.08,-30.55"/>
<polygon fill="midnightblue" stroke="midnightblue" points="801.04,-142.71 811.23,-139.83 801.47,-135.73 801.04,-142.71"/>
</g>
<!-- Node8 -->
<g id="node8" class="node">
<title>Node8</title>
<g id="a_node8"><a xlink:href="container__service_8cpp.html" target="_top" xlink:title="Implements the ContainerServiceHandler class for business logic related to containers.">
<polygon fill="white" stroke="black" points="697.5,-0.5 697.5,-30.5 801.5,-30.5 801.5,-0.5 697.5,-0.5"/>
<text text-anchor="start" x="705.5" y="-18.5" font-family="Helvetica,sans-Serif" font-size="10.00">core/src/container</text>
<text text-anchor="middle" x="749.5" y="-7.5" font-family="Helvetica,sans-Serif" font-size="10.00">_service.cpp</text>
</a>
</g>
</g>
<!-- Node1&#45;&gt;Node8 -->
<g id="edge8" class="edge">
<title>Node1&#45;&gt;Node8</title>
<path fill="none" stroke="midnightblue" d="M801.08,-138.68C705.08,-132.14 544.31,-118.28 526.5,-98 475.9,-40.4 616.55,-23.48 697.25,-18.53"/>
<polygon fill="midnightblue" stroke="midnightblue" points="801.09,-142.19 811.3,-139.37 801.56,-135.21 801.09,-142.19"/>
</g>
<!-- Node9 -->
<g id="node9" class="node">
<title>Node9</title>
<g id="a_node9"><a xlink:href="json__request__executor_8cpp.html" target="_top" xlink:title="Implements the JsonRequestExecutorHandler class for executing JSON&#45;based requests.">
<polygon fill="white" stroke="black" points="535.5,-67.5 535.5,-97.5 677.5,-97.5 677.5,-67.5 535.5,-67.5"/>
<text text-anchor="start" x="543.5" y="-85.5" font-family="Helvetica,sans-Serif" font-size="10.00">executor/src/json_request</text>
<text text-anchor="middle" x="606.5" y="-74.5" font-family="Helvetica,sans-Serif" font-size="10.00">_executor.cpp</text>
</a>
</g>
</g>
<!-- Node1&#45;&gt;Node9 -->
<g id="edge9" class="edge">
<title>Node1&#45;&gt;Node9</title>
<path fill="none" stroke="midnightblue" d="M824.63,-132.29C781.16,-122.57 716.76,-108.16 669.19,-97.52"/>
<polygon fill="midnightblue" stroke="midnightblue" points="823.87,-135.71 834.39,-134.48 825.39,-128.88 823.87,-135.71"/>
</g>
<!-- Node10 -->
<g id="node10" class="node">
<title>Node10</title>
<g id="a_node10"><a xlink:href="protobuf__request__executor_8cpp.html" target="_top" xlink:title="Implements the ProtoRequestExecutorHandler class for handling Protobuf&#45;based requests.">
<polygon fill="white" stroke="black" points="696,-67.5 696,-97.5 823,-97.5 823,-67.5 696,-67.5"/>
<text text-anchor="start" x="704" y="-85.5" font-family="Helvetica,sans-Serif" font-size="10.00">executor/src/protobuf</text>
<text text-anchor="middle" x="759.5" y="-74.5" font-family="Helvetica,sans-Serif" font-size="10.00">_request_executor.cpp</text>
</a>
</g>
</g>
<!-- Node1&#45;&gt;Node10 -->
<g id="edge10" class="edge">
<title>Node1&#45;&gt;Node10</title>
<path fill="none" stroke="midnightblue" d="M847.44,-129.81C829.25,-120.23 804.68,-107.29 786.13,-97.52"/>
<polygon fill="midnightblue" stroke="midnightblue" points="845.83,-132.91 856.31,-134.48 849.09,-126.72 845.83,-132.91"/>
</g>
<!-- Node11 -->
<g id="node11" class="node">
<title>Node11</title>
<g id="a_node11"><a xlink:href="main_8cpp.html" target="_top" xlink:title="Entry point for the Container Manager application.">
<polygon fill="white" stroke="black" points="841.5,-73 841.5,-92 903.5,-92 903.5,-73 841.5,-73"/>
<text text-anchor="middle" x="872.5" y="-80" font-family="Helvetica,sans-Serif" font-size="10.00">main.cpp</text>
</a>
</g>
</g>
<!-- Node1&#45;&gt;Node11 -->
<g id="edge11" class="edge">
<title>Node1&#45;&gt;Node11</title>
<path fill="none" stroke="midnightblue" d="M872.5,-124.32C872.5,-113.5 872.5,-100.4 872.5,-92.01"/>
<polygon fill="midnightblue" stroke="midnightblue" points="869,-124.48 872.5,-134.48 876,-124.48 869,-124.48"/>
</g>
<!-- Node12 -->
<g id="node12" class="node">
<title>Node12</title>
<g id="a_node12"><a xlink:href="command__factory_8hpp.html" target="_top" xlink:title="Declares the CommandFactory class for creating command objects based on container requests.">
<polygon fill="white" stroke="black" points="921.5,-67.5 921.5,-97.5 1045.5,-97.5 1045.5,-67.5 921.5,-67.5"/>
<text text-anchor="start" x="929.5" y="-85.5" font-family="Helvetica,sans-Serif" font-size="10.00">runtime/inc/command</text>
<text text-anchor="middle" x="983.5" y="-74.5" font-family="Helvetica,sans-Serif" font-size="10.00">_factory.hpp</text>
</a>
</g>
</g>
<!-- Node1&#45;&gt;Node12 -->
<g id="edge12" class="edge">
<title>Node1&#45;&gt;Node12</title>
<path fill="none" stroke="midnightblue" d="M897.61,-129.54C915.42,-119.99 939.29,-107.2 957.34,-97.52"/>
<polygon fill="midnightblue" stroke="midnightblue" points="895.56,-126.67 888.4,-134.48 898.87,-132.84 895.56,-126.67"/>
</g>
<!-- Node13 -->
<g id="node13" class="node">
<title>Node13</title>
<g id="a_node13"><a xlink:href="command__factory_8cpp.html" target="_top" xlink:title="Implements the CommandFactory class for creating command objects based on container requests.">
<polygon fill="white" stroke="black" points="966.5,-0.5 966.5,-30.5 1090.5,-30.5 1090.5,-0.5 966.5,-0.5"/>
<text text-anchor="start" x="974.5" y="-18.5" font-family="Helvetica,sans-Serif" font-size="10.00">runtime/src/command</text>
<text text-anchor="middle" x="1028.5" y="-7.5" font-family="Helvetica,sans-Serif" font-size="10.00">_factory.cpp</text>
</a>
</g>
</g>
<!-- Node1&#45;&gt;Node13 -->
<g id="edge15" class="edge">
<title>Node1&#45;&gt;Node13</title>
<path fill="none" stroke="midnightblue" d="M943.98,-134.41C988.81,-127.39 1040.65,-115.69 1054.5,-98 1070.25,-77.89 1053.1,-48.01 1040.15,-30.57"/>
<polygon fill="midnightblue" stroke="midnightblue" points="943.31,-130.97 933.94,-135.93 944.36,-137.89 943.31,-130.97"/>
</g>
<!-- Node14 -->
<g id="node14" class="node">
<title>Node14</title>
<g id="a_node14"><a xlink:href="docker__api__commands_8cpp.html" target="_top" xlink:title="Implements Docker API command classes for managing containers via the Docker HTTP API over a Unix soc...">
<polygon fill="white" stroke="black" points="1101.5,-67.5 1101.5,-97.5 1217.5,-97.5 1217.5,-67.5 1101.5,-67.5"/>
<text text-anchor="start" x="1109.5" y="-85.5" font-family="Helvetica,sans-Serif" font-size="10.00">runtime/src/docker</text>
<text text-anchor="middle" x="1159.5" y="-74.5" font-family="Helvetica,sans-Serif" font-size="10.00">_api_commands.cpp</text>
</a>
</g>
</g>
<!-- Node1&#45;&gt;Node14 -->
<g id="edge16" class="edge">
<title>Node1&#45;&gt;Node14</title>
<path fill="none" stroke="midnightblue" d="M923.54,-132.42C973.38,-122.09 1049.15,-106.38 1101.31,-95.56"/>
<polygon fill="midnightblue" stroke="midnightblue" points="922.7,-129.02 913.62,-134.48 924.12,-135.87 922.7,-129.02"/>
</g>
<!-- Node15 -->
<g id="node15" class="node">
<title>Node15</title>
<g id="a_node15"><a xlink:href="docker__commands_8cpp.html" target="_top" xlink:title="Implements Docker command classes for container operations.">
<polygon fill="white" stroke="black" points="1236,-67.5 1236,-97.5 1343,-97.5 1343,-67.5 1236,-67.5"/>
<text text-anchor="start" x="1244" y="-85.5" font-family="Helvetica,sans-Serif" font-size="10.00">runtime/src/docker</text>
<text text-anchor="middle" x="1289.5" y="-74.5" font-family="Helvetica,sans-Serif" font-size="10.00">_commands.cpp</text>
</a>
</g>
</g>
<!-- Node1&#45;&gt;Node15 -->
<g id="edge17" class="edge">
<title>Node1&#45;&gt;Node15</title>
<path fill="none" stroke="midnightblue" d="M943.81,-136.05C1015.53,-128.56 1129.13,-115.35 1226.5,-98 1229.59,-97.45 1232.76,-96.84 1235.96,-96.21"/>
<polygon fill="midnightblue" stroke="midnightblue" points="943.13,-132.6 933.54,-137.11 943.85,-139.56 943.13,-132.6"/>
</g>
<!-- Node16 -->
<g id="node16" class="node">
<title>Node16</title>
<g id="a_node16"><a xlink:href="podman__api__commands_8cpp.html" target="_top" xlink:title="Implements Podman API command classes for managing containers via the Podman HTTP API over a Unix soc...">
<polygon fill="white" stroke="black" points="1361.5,-67.5 1361.5,-97.5 1477.5,-97.5 1477.5,-67.5 1361.5,-67.5"/>
<text text-anchor="start" x="1369.5" y="-85.5" font-family="Helvetica,sans-Serif" font-size="10.00">runtime/src/podman</text>
<text text-anchor="middle" x="1419.5" y="-74.5" font-family="Helvetica,sans-Serif" font-size="10.00">_api_commands.cpp</text>
</a>
</g>
</g>
<!-- Node1&#45;&gt;Node16 -->
<g id="edge18" class="edge">
<title>Node1&#45;&gt;Node16</title>
<path fill="none" stroke="midnightblue" d="M944.04,-138.97C1038.12,-133.07 1208.39,-120.27 1352.5,-98 1355.44,-97.55 1358.45,-97.04 1361.47,-96.5"/>
<polygon fill="midnightblue" stroke="midnightblue" points="943.55,-135.5 933.78,-139.61 943.98,-142.48 943.55,-135.5"/>
</g>
<!-- Node17 -->
<g id="node17" class="node">
<title>Node17</title>
<g id="a_node17"><a xlink:href="podman__commands_8cpp.html" target="_top" xlink:title="Implements Podman command classes for container operations.">
<polygon fill="white" stroke="black" points="1496,-67.5 1496,-97.5 1611,-97.5 1611,-67.5 1496,-67.5"/>
<text text-anchor="start" x="1504" y="-85.5" font-family="Helvetica,sans-Serif" font-size="10.00">runtime/src/podman</text>
<text text-anchor="middle" x="1553.5" y="-74.5" font-family="Helvetica,sans-Serif" font-size="10.00">_commands.cpp</text>
</a>
</g>
</g>
<!-- Node1&#45;&gt;Node17 -->
<g id="edge19" class="edge">
<title>Node1&#45;&gt;Node17</title>
<path fill="none" stroke="midnightblue" d="M943.88,-141.01C1058.72,-137.08 1291.39,-126.12 1486.5,-98 1489.56,-97.56 1492.69,-97.06 1495.85,-96.51"/>
<polygon fill="midnightblue" stroke="midnightblue" points="943.69,-137.51 933.81,-141.35 943.92,-144.51 943.69,-137.51"/>
</g>
<!-- Node18 -->
<g id="node18" class="node">
<title>Node18</title>
<g id="a_node18"><a xlink:href="init__handler_8cpp.html" target="_top" xlink:title="Implements project&#45;wide initialization functions for the Container Manager application.">
<polygon fill="white" stroke="black" points="1629.5,-73 1629.5,-92 1765.5,-92 1765.5,-73 1629.5,-73"/>
<text text-anchor="middle" x="1697.5" y="-80" font-family="Helvetica,sans-Serif" font-size="10.00">utils/src/init_handler.cpp</text>
</a>
</g>
</g>
<!-- Node1&#45;&gt;Node18 -->
<g id="edge20" class="edge">
<title>Node1&#45;&gt;Node18</title>
<path fill="none" stroke="midnightblue" d="M943.91,-141.7C1077.32,-138.6 1373.24,-128.6 1620.5,-98 1632.52,-96.51 1645.48,-94.31 1657.29,-92.06"/>
<polygon fill="midnightblue" stroke="midnightblue" points="943.74,-138.2 933.82,-141.92 943.9,-145.2 943.74,-138.2"/>
</g>
<!-- Node3 -->
<g id="node3" class="node">
<title>Node3</title>
<g id="a_node3"><a xlink:href="dbus__consumer_8cpp.html" target="_top" xlink:title="Implements the DBusConsumer class for receiving and processing JSON/Protobuf requests over D&#45;Bus.">
<polygon fill="white" stroke="black" points="0,-6 0,-25 149,-25 149,-6 0,-6"/>
<text text-anchor="middle" x="74.5" y="-13" font-family="Helvetica,sans-Serif" font-size="10.00">api/src/dbus_consumer.cpp</text>
</a>
</g>
</g>
<!-- Node2&#45;&gt;Node3 -->
<g id="edge2" class="edge">
<title>Node2&#45;&gt;Node3</title>
<path fill="none" stroke="midnightblue" d="M74.5,-62.54C74.5,-50.17 74.5,-34.62 74.5,-25.13"/>
<polygon fill="midnightblue" stroke="midnightblue" points="71,-62.73 74.5,-72.73 78,-62.73 71,-62.73"/>
</g>
<!-- Node5 -->
<g id="node5" class="node">
<title>Node5</title>
<g id="a_node5"><a xlink:href="http__server_8cpp.html" target="_top" xlink:title="Implements the HttpServerHandler class for handling HTTP requests.">
<polygon fill="white" stroke="black" points="167.5,-6 167.5,-25 295.5,-25 295.5,-6 167.5,-6"/>
<text text-anchor="middle" x="231.5" y="-13" font-family="Helvetica,sans-Serif" font-size="10.00">api/src/http_server.cpp</text>
</a>
</g>
</g>
<!-- Node4&#45;&gt;Node5 -->
<g id="edge4" class="edge">
<title>Node4&#45;&gt;Node5</title>
<path fill="none" stroke="midnightblue" d="M231.5,-62.54C231.5,-50.17 231.5,-34.62 231.5,-25.13"/>
<polygon fill="midnightblue" stroke="midnightblue" points="228,-62.73 231.5,-72.73 235,-62.73 228,-62.73"/>
</g>
<!-- Node6&#45;&gt;Node7 -->
<g id="edge6" class="edge">
<title>Node6&#45;&gt;Node7</title>
<path fill="none" stroke="midnightblue" d="M393.31,-59.16C400.02,-49.68 407.63,-38.92 413.54,-30.58"/>
<polygon fill="midnightblue" stroke="midnightblue" points="390.4,-57.21 387.48,-67.4 396.12,-61.26 390.4,-57.21"/>
</g>
<!-- Node12&#45;&gt;Node8 -->
<g id="edge13" class="edge">
<title>Node12&#45;&gt;Node8</title>
<path fill="none" stroke="midnightblue" d="M923.07,-64.71C884.99,-54.14 836.39,-40.63 800.3,-30.61"/>
<polygon fill="midnightblue" stroke="midnightblue" points="922.44,-68.17 933.01,-67.48 924.32,-61.43 922.44,-68.17"/>
</g>
<!-- Node12&#45;&gt;Node13 -->
<g id="edge14" class="edge">
<title>Node12&#45;&gt;Node13</title>
<path fill="none" stroke="midnightblue" d="M998.97,-59.16C1005.53,-49.68 1012.98,-38.92 1018.75,-30.58"/>
<polygon fill="midnightblue" stroke="midnightblue" points="996.08,-57.18 993.26,-67.4 1001.83,-61.17 996.08,-57.18"/>
</g>
</g>
</svg>
        <g id="navigator" transform="translate(0 0)" fill="#404254">
                <rect fill="#f2f5e9" fill-opacity="0.5" stroke="#606060" stroke-width=".5" x="0" y="0" width="60" height="60"/>
                <use id="zoomplus" xlink:href="#zoomPlus" x="17" y="9" onmousedown="handleZoom(evt,'in')"/>
                <use id="zoomminus" xlink:href="#zoomMin" x="42" y="9" onmousedown="handleZoom(evt,'out')"/>
                <use id="reset" xlink:href="#resetDef" x="30" y="36" onmousedown="handleReset()"/>
                <g id="arrowUp" xlink:href="#dirArrow" transform="translate(30 24)" onmousedown="handlePan(0,-1)">
                  <use xlink:href="#rim" fill="#404040">
                        <set attributeName="fill" to="#808080" begin="arrowUp.mouseover" end="arrowUp.mouseout"/>
                  </use>
                  <path fill="none" stroke="white" stroke-width="1.5" d="M0,-3.0v7 M-2.5,-0.5L0,-3.0L2.5,-0.5"/>
                </g>
                <g id="arrowRight" xlink:href="#dirArrow" transform="rotate(90) translate(36 -43)" onmousedown="handlePan(1,0)">
                  <use xlink:href="#rim" fill="#404040">
                        <set attributeName="fill" to="#808080" begin="arrowRight.mouseover" end="arrowRight.mouseout"/>
                  </use>
                  <path fill="none" stroke="white" stroke-width="1.5" d="M0,-3.0v7 M-2.5,-0.5L0,-3.0L2.5,-0.5"/>
                </g>
                <g id="arrowDown" xlink:href="#dirArrow" transform="rotate(180) translate(-30 -48)" onmousedown="handlePan(0,1)">
                  <use xlink:href="#rim" fill="#404040">
                        <set attributeName="fill" to="#808080" begin="arrowDown.mouseover" end="arrowDown.mouseout"/>
                  </use>
                  <path fill="none" stroke="white" stroke-width="1.5" d="M0,-3.0v7 M-2.5,-0.5L0,-3.0L2.5,-0.5"/>
                </g>
                <g id="arrowLeft" xlink:href="#dirArrow" transform="rotate(270) translate(-36 17)" onmousedown="handlePan(-1,0)">
                  <use xlink:href="#rim" fill="#404040">
                        <set attributeName="fill" to="#808080" begin="arrowLeft.mouseover" end="arrowLeft.mouseout"/>
                  </use>
                  <path fill="none" stroke="white" stroke-width="1.5" d="M0,-3.0v7 M-2.5,-0.5L0,-3.0L2.5,-0.5"/>
                </g>
        </g>
        <svg viewBox="0 0 15 15" width="100%" height="30px" preserveAspectRatio="xMaxYMin meet">
         <g id="arrow_out" transform="scale(0.3 0.3)">
          <a xlink:href="common_8hpp__dep__incl_org.svg" target="_base">
           <rect id="button" ry="5" rx="5" y="6" x="6" height="38" width="38"
                fill="#f2f5e9" fill-opacity="0.5" stroke="#606060" stroke-width="1.0"/>
           <path id="arrow"
             d="M 11.500037,31.436501 C 11.940474,20.09759 22.043105,11.32322 32.158766,21.979434 L 37.068811,17.246167 C 37.068811,17.246167 37.088388,32 37.088388,32 L 22.160133,31.978069 C 22.160133,31.978069 26.997745,27.140456 26.997745,27.140456 C 18.528582,18.264221 13.291696,25.230495 11.500037,31.436501 z"
             style="fill:#404040;"/>
          </a>
         </g>
        </svg>
</svg>
