<?xml version="1.0" encoding="UTF-8" standalone="no"?>
<!DOCTYPE svg PUBLIC "-//W3C//DTD SVG 1.1//EN"
 "http://www.w3.org/Graphics/SVG/1.1/DTD/svg11.dtd">
<!-- Generated by graphviz version 2.43.0 (0)
 -->
<!-- Title: core/inc/container_service.hpp Pages: 1 -->
<svg width="453pt" height="151pt"
 viewBox="0.00 0.00 452.50 151.00" xmlns="http://www.w3.org/2000/svg" xmlns:xlink="http://www.w3.org/1999/xlink">
<g id="graph0" class="graph" transform="scale(1 1) rotate(0) translate(4 147)">
<title>core/inc/container_service.hpp</title>
<polygon fill="white" stroke="transparent" points="-4,4 -4,-147 448.5,-147 448.5,4 -4,4"/>
<!-- Node1 -->
<g id="node1" class="node">
<title>Node1</title>
<g id="a_node1"><a xlink:title="Declares the ContainerServiceHandler class for business logic related to containers.">
<polygon fill="#bfbfbf" stroke="black" points="121,-112.5 121,-142.5 225,-142.5 225,-112.5 121,-112.5"/>
<text text-anchor="start" x="129" y="-130.5" font-family="Helvetica,sans-Serif" font-size="10.00">core/inc/container</text>
<text text-anchor="middle" x="173" y="-119.5" font-family="Helvetica,sans-Serif" font-size="10.00">_service.hpp</text>
</a>
</g>
</g>
<!-- Node2 -->
<g id="node2" class="node">
<title>Node2</title>
<g id="a_node2"><a xlink:title=" ">
<polygon fill="white" stroke="#bfbfbf" points="0,-0.5 0,-19.5 110,-19.5 110,-0.5 0,-0.5"/>
<text text-anchor="middle" x="55" y="-7.5" font-family="Helvetica,sans-Serif" font-size="10.00">nlohmann/json.hpp</text>
</a>
</g>
</g>
<!-- Node1&#45;&gt;Node2 -->
<g id="edge1" class="edge">
<title>Node1&#45;&gt;Node2</title>
<path fill="none" stroke="midnightblue" d="M120.87,-123.83C86.99,-119.06 45.13,-106.8 23,-76 11.96,-60.63 24.95,-40.87 37.54,-27.19"/>
<polygon fill="midnightblue" stroke="midnightblue" points="40.18,-29.5 44.72,-19.92 35.2,-24.58 40.18,-29.5"/>
</g>
<!-- Node3 -->
<g id="node3" class="node">
<title>Node3</title>
<g id="a_node3"><a xlink:href="status_8hpp.html" target="_top" xlink:title="Defines status codes and a Status struct for standardized error handling.">
<polygon fill="white" stroke="black" points="198.5,-56.5 198.5,-75.5 283.5,-75.5 283.5,-56.5 198.5,-56.5"/>
<text text-anchor="middle" x="241" y="-63.5" font-family="Helvetica,sans-Serif" font-size="10.00">inc/status.hpp</text>
</a>
</g>
</g>
<!-- Node1&#45;&gt;Node3 -->
<g id="edge2" class="edge">
<title>Node1&#45;&gt;Node3</title>
<path fill="none" stroke="midnightblue" d="M189.12,-112.4C199.4,-103.4 212.75,-91.72 223.33,-82.47"/>
<polygon fill="midnightblue" stroke="midnightblue" points="225.88,-84.88 231.11,-75.66 221.27,-79.61 225.88,-84.88"/>
</g>
<!-- Node5 -->
<g id="node5" class="node">
<title>Node5</title>
<g id="a_node5"><a xlink:href="database__interface_8hpp.html" target="_top" xlink:title="Abstract interface for database operations.">
<polygon fill="white" stroke="black" points="31.5,-56.5 31.5,-75.5 180.5,-75.5 180.5,-56.5 31.5,-56.5"/>
<text text-anchor="middle" x="106" y="-63.5" font-family="Helvetica,sans-Serif" font-size="10.00">inc/database_interface.hpp</text>
</a>
</g>
</g>
<!-- Node1&#45;&gt;Node5 -->
<g id="edge4" class="edge">
<title>Node1&#45;&gt;Node5</title>
<path fill="none" stroke="midnightblue" d="M157.12,-112.4C146.98,-103.4 133.84,-91.72 123.41,-82.47"/>
<polygon fill="midnightblue" stroke="midnightblue" points="125.55,-79.68 115.75,-75.66 120.9,-84.92 125.55,-79.68"/>
</g>
<!-- Node6 -->
<g id="node6" class="node">
<title>Node6</title>
<g id="a_node6"><a xlink:href="container__request_8hpp.html" target="_top" xlink:title="Data structure for representing a container operation request.">
<polygon fill="white" stroke="black" points="301.5,-56.5 301.5,-75.5 444.5,-75.5 444.5,-56.5 301.5,-56.5"/>
<text text-anchor="middle" x="373" y="-63.5" font-family="Helvetica,sans-Serif" font-size="10.00">inc/container_request.hpp</text>
</a>
</g>
</g>
<!-- Node1&#45;&gt;Node6 -->
<g id="edge7" class="edge">
<title>Node1&#45;&gt;Node6</title>
<path fill="none" stroke="midnightblue" d="M220.14,-112.47C255.1,-102.08 302.15,-88.08 334.77,-78.37"/>
<polygon fill="midnightblue" stroke="midnightblue" points="335.82,-81.71 344.41,-75.51 333.82,-75 335.82,-81.71"/>
</g>
<!-- Node4 -->
<g id="node4" class="node">
<title>Node4</title>
<g id="a_node4"><a xlink:title=" ">
<polygon fill="white" stroke="#bfbfbf" points="219,-0.5 219,-19.5 263,-19.5 263,-0.5 219,-0.5"/>
<text text-anchor="middle" x="241" y="-7.5" font-family="Helvetica,sans-Serif" font-size="10.00">string</text>
</a>
</g>
</g>
<!-- Node3&#45;&gt;Node4 -->
<g id="edge3" class="edge">
<title>Node3&#45;&gt;Node4</title>
<path fill="none" stroke="midnightblue" d="M241,-56.08C241,-49.01 241,-38.86 241,-29.99"/>
<polygon fill="midnightblue" stroke="midnightblue" points="244.5,-29.75 241,-19.75 237.5,-29.75 244.5,-29.75"/>
</g>
<!-- Node5&#45;&gt;Node2 -->
<g id="edge6" class="edge">
<title>Node5&#45;&gt;Node2</title>
<path fill="none" stroke="midnightblue" d="M97.58,-56.08C90.15,-48.22 79.15,-36.57 70.19,-27.08"/>
<polygon fill="midnightblue" stroke="midnightblue" points="72.68,-24.62 63.26,-19.75 67.59,-29.42 72.68,-24.62"/>
</g>
<!-- Node5&#45;&gt;Node4 -->
<g id="edge5" class="edge">
<title>Node5&#45;&gt;Node4</title>
<path fill="none" stroke="midnightblue" d="M127.39,-56.44C149.71,-47.52 184.9,-33.44 210.21,-23.32"/>
<polygon fill="midnightblue" stroke="midnightblue" points="211.72,-26.48 219.71,-19.52 209.12,-19.98 211.72,-26.48"/>
</g>
<!-- Node6&#45;&gt;Node4 -->
<g id="edge8" class="edge">
<title>Node6&#45;&gt;Node4</title>
<path fill="none" stroke="midnightblue" d="M352.08,-56.44C330.26,-47.52 295.85,-33.44 271.11,-23.32"/>
<polygon fill="midnightblue" stroke="midnightblue" points="272.4,-20.06 261.82,-19.52 269.75,-26.54 272.4,-20.06"/>
</g>
</g>
</svg>
