<?xml version="1.0" encoding="UTF-8" standalone="no"?>
<!DOCTYPE svg PUBLIC "-//W3C//DTD SVG 1.1//EN"
 "http://www.w3.org/Graphics/SVG/1.1/DTD/svg11.dtd">
<!-- Generated by graphviz version 2.43.0 (0)
 -->
<!-- Title: executor/inc/container_request.hpp Pages: 1 -->
<!--zoomable 240 -->
<svg id="main" version="1.1" xmlns="http://www.w3.org/2000/svg" xmlns:xlink="http://www.w3.org/1999/xlink" xml:space="preserve" onload="init(evt)">
<style type="text/css"><![CDATA[
.edge:hover path { stroke: red; }
.edge:hover polygon { stroke: red; fill: red; }
]]></style>
<script type="text/javascript"><![CDATA[
var edges = document.getElementsByTagName('g');
if (edges && edges.length) {
  for (var i=0;i<edges.length;i++) {
    if (edges[i].id.substr(0,4)=='edge') {
      edges[i].setAttribute('class','edge');
    }
  }
}
]]></script>
        <defs>
                <circle id="rim" cx="0" cy="0" r="7"/>
                <circle id="rim2" cx="0" cy="0" r="3.5"/>
                <g id="zoomPlus">
                        <use xlink:href="#rim" fill="#404040">
                                <set attributeName="fill" to="#808080" begin="zoomplus.mouseover" end="zoomplus.mouseout"/>
                        </use>
                        <path d="M-4,0h8M0,-4v8" fill="none" stroke="white" stroke-width="1.5" pointer-events="none"/>
                </g>
                <g id="zoomMin">
                        <use xlink:href="#rim" fill="#404040">
                                <set attributeName="fill" to="#808080" begin="zoomminus.mouseover" end="zoomminus.mouseout"/>
                        </use>
                        <path d="M-4,0h8" fill="none" stroke="white" stroke-width="1.5" pointer-events="none"/>
                </g>
                <g id="dirArrow">
                        <path fill="none" stroke="white" stroke-width="1.5" d="M0,-3.0v7 M-2.5,-0.5L0,-3.0L2.5,-0.5"/>
                </g>
               <g id="resetDef">
                       <use xlink:href="#rim2" fill="#404040">
                               <set attributeName="fill" to="#808080" begin="reset.mouseover" end="reset.mouseout"/>
                       </use>
               </g>
        </defs>

<script type="text/javascript">
var viewWidth = 1932;
var viewHeight = 240;
var sectionId = 'dynsection-1';
</script>
<script xlink:href="svgpan.js"/>
<svg id="graph" class="graph">
<g id="viewport">
<title>executor/inc/container_request.hpp</title>
<polygon fill="white" stroke="transparent" points="-4,4 -4,-236 1927.5,-236 1927.5,4 -4,4"/>
<!-- Node1 -->
<g id="node1" class="node">
<title>Node1</title>
<g id="a_node1"><a xlink:title="Data structure for representing a container operation request.">
<polygon fill="#bfbfbf" stroke="black" points="969.5,-201.5 969.5,-231.5 1094.5,-231.5 1094.5,-201.5 969.5,-201.5"/>
<text text-anchor="start" x="977.5" y="-219.5" font-family="Helvetica,sans-Serif" font-size="10.00">executor/inc/container</text>
<text text-anchor="middle" x="1032" y="-208.5" font-family="Helvetica,sans-Serif" font-size="10.00">_request.hpp</text>
</a>
</g>
</g>
<!-- Node2 -->
<g id="node2" class="node">
<title>Node2</title>
<g id="a_node2"><a xlink:href="container__service_8hpp.html" target="_top" xlink:title="Declares the ContainerServiceHandler class for business logic related to containers.">
<polygon fill="white" stroke="black" points="391,-134.5 391,-164.5 495,-164.5 495,-134.5 391,-134.5"/>
<text text-anchor="start" x="399" y="-152.5" font-family="Helvetica,sans-Serif" font-size="10.00">core/inc/container</text>
<text text-anchor="middle" x="443" y="-141.5" font-family="Helvetica,sans-Serif" font-size="10.00">_service.hpp</text>
</a>
</g>
</g>
<!-- Node1&#45;&gt;Node2 -->
<g id="edge1" class="edge">
<title>Node1&#45;&gt;Node2</title>
<path fill="none" stroke="midnightblue" d="M959.01,-207.45C838.48,-194.14 600.71,-167.9 495.36,-156.28"/>
<polygon fill="midnightblue" stroke="midnightblue" points="958.92,-210.96 969.25,-208.57 959.69,-204 958.92,-210.96"/>
</g>
<!-- Node3 -->
<g id="node3" class="node">
<title>Node3</title>
<g id="a_node3"><a xlink:href="container__service_8cpp.html" target="_top" xlink:title="Implements the ContainerServiceHandler class for business logic related to containers.">
<polygon fill="white" stroke="black" points="0,-67.5 0,-97.5 104,-97.5 104,-67.5 0,-67.5"/>
<text text-anchor="start" x="8" y="-85.5" font-family="Helvetica,sans-Serif" font-size="10.00">core/src/container</text>
<text text-anchor="middle" x="52" y="-74.5" font-family="Helvetica,sans-Serif" font-size="10.00">_service.cpp</text>
</a>
</g>
</g>
<!-- Node1&#45;&gt;Node3 -->
<g id="edge12" class="edge">
<title>Node1&#45;&gt;Node3</title>
<path fill="none" stroke="midnightblue" d="M959.21,-213.94C761.49,-209.34 224.3,-194.29 150,-165 113.36,-150.56 80.29,-116.8 63.54,-97.56"/>
<polygon fill="midnightblue" stroke="midnightblue" points="959.42,-217.45 969.49,-214.18 959.58,-210.45 959.42,-217.45"/>
</g>
<!-- Node9 -->
<g id="node9" class="node">
<title>Node9</title>
<g id="a_node9"><a xlink:href="container__service__test_8cpp.html" target="_top" xlink:title=" ">
<polygon fill="white" stroke="black" points="122,-67.5 122,-97.5 226,-97.5 226,-67.5 122,-67.5"/>
<text text-anchor="start" x="130" y="-85.5" font-family="Helvetica,sans-Serif" font-size="10.00">unitTest/container</text>
<text text-anchor="middle" x="174" y="-74.5" font-family="Helvetica,sans-Serif" font-size="10.00">_service_test.cpp</text>
</a>
</g>
</g>
<!-- Node1&#45;&gt;Node9 -->
<g id="edge41" class="edge">
<title>Node1&#45;&gt;Node9</title>
<path fill="none" stroke="midnightblue" d="M959.26,-212.56C813.44,-206.21 490.07,-189.79 382,-165 347.41,-157.07 255.99,-118.83 206.66,-97.67"/>
<polygon fill="midnightblue" stroke="midnightblue" points="959.31,-216.06 969.45,-213 959.61,-209.07 959.31,-216.06"/>
</g>
<!-- Node10 -->
<g id="node10" class="node">
<title>Node10</title>
<g id="a_node10"><a xlink:href="request__executor_8hpp.html" target="_top" xlink:title="Declares the abstract RequestExecutor interface for executing requests.">
<polygon fill="white" stroke="black" points="838,-134.5 838,-164.5 954,-164.5 954,-134.5 838,-134.5"/>
<text text-anchor="start" x="846" y="-152.5" font-family="Helvetica,sans-Serif" font-size="10.00">executor/inc/request</text>
<text text-anchor="middle" x="896" y="-141.5" font-family="Helvetica,sans-Serif" font-size="10.00">_executor.hpp</text>
</a>
</g>
</g>
<!-- Node1&#45;&gt;Node10 -->
<g id="edge13" class="edge">
<title>Node1&#45;&gt;Node10</title>
<path fill="none" stroke="midnightblue" d="M993.28,-196.99C971.72,-186.69 945.31,-174.07 925.45,-164.58"/>
<polygon fill="midnightblue" stroke="midnightblue" points="991.96,-200.24 1002.49,-201.4 994.98,-193.93 991.96,-200.24"/>
</g>
<!-- Node19 -->
<g id="node19" class="node">
<title>Node19</title>
<g id="a_node19"><a xlink:href="command__factory_8hpp.html" target="_top" xlink:title="Declares the CommandFactory class for creating command objects based on container requests.">
<polygon fill="white" stroke="black" points="159,-134.5 159,-164.5 283,-164.5 283,-134.5 159,-134.5"/>
<text text-anchor="start" x="167" y="-152.5" font-family="Helvetica,sans-Serif" font-size="10.00">runtime/inc/command</text>
<text text-anchor="middle" x="221" y="-141.5" font-family="Helvetica,sans-Serif" font-size="10.00">_factory.hpp</text>
</a>
</g>
</g>
<!-- Node1&#45;&gt;Node19 -->
<g id="edge24" class="edge">
<title>Node1&#45;&gt;Node19</title>
<path fill="none" stroke="midnightblue" d="M959.12,-211.64C831.73,-204.57 560.38,-188.14 332,-165 316.14,-163.39 299.06,-161.33 283.16,-159.26"/>
<polygon fill="midnightblue" stroke="midnightblue" points="958.97,-215.13 969.15,-212.19 959.35,-208.14 958.97,-215.13"/>
</g>
<!-- Node20 -->
<g id="node20" class="node">
<title>Node20</title>
<g id="a_node20"><a xlink:href="command__factory_8cpp.html" target="_top" xlink:title="Implements the CommandFactory class for creating command objects based on container requests.">
<polygon fill="white" stroke="black" points="1406,-67.5 1406,-97.5 1530,-97.5 1530,-67.5 1406,-67.5"/>
<text text-anchor="start" x="1414" y="-85.5" font-family="Helvetica,sans-Serif" font-size="10.00">runtime/src/command</text>
<text text-anchor="middle" x="1468" y="-74.5" font-family="Helvetica,sans-Serif" font-size="10.00">_factory.cpp</text>
</a>
</g>
</g>
<!-- Node1&#45;&gt;Node20 -->
<g id="edge40" class="edge">
<title>Node1&#45;&gt;Node20</title>
<path fill="none" stroke="midnightblue" d="M1104.81,-211.44C1160.86,-206.1 1239.11,-193.71 1302,-165 1322.14,-155.8 1321.84,-145.1 1341,-134 1367.08,-118.9 1398.53,-106.35 1423.62,-97.54"/>
<polygon fill="midnightblue" stroke="midnightblue" points="1104.26,-207.98 1094.62,-212.36 1104.89,-214.95 1104.26,-207.98"/>
</g>
<!-- Node21 -->
<g id="node21" class="node">
<title>Node21</title>
<g id="a_node21"><a xlink:href="docker__api__commands_8hpp.html" target="_top" xlink:title="Declares command classes for managing containers via the Docker HTTP API over a Unix socket.">
<polygon fill="white" stroke="black" points="1175.5,-134.5 1175.5,-164.5 1292.5,-164.5 1292.5,-134.5 1175.5,-134.5"/>
<text text-anchor="start" x="1183.5" y="-152.5" font-family="Helvetica,sans-Serif" font-size="10.00">runtime/inc/docker</text>
<text text-anchor="middle" x="1234" y="-141.5" font-family="Helvetica,sans-Serif" font-size="10.00">_api_commands.hpp</text>
</a>
</g>
</g>
<!-- Node1&#45;&gt;Node21 -->
<g id="edge28" class="edge">
<title>Node1&#45;&gt;Node21</title>
<path fill="none" stroke="midnightblue" d="M1085.68,-198.23C1118.35,-187.71 1159.57,-174.45 1190.25,-164.58"/>
<polygon fill="midnightblue" stroke="midnightblue" points="1084.28,-195 1075.83,-201.4 1086.42,-201.66 1084.28,-195"/>
</g>
<!-- Node23 -->
<g id="node23" class="node">
<title>Node23</title>
<g id="a_node23"><a xlink:href="docker__commands_8hpp.html" target="_top" xlink:title="Declares Docker command classes for container operations.">
<polygon fill="white" stroke="black" points="1349.5,-134.5 1349.5,-164.5 1456.5,-164.5 1456.5,-134.5 1349.5,-134.5"/>
<text text-anchor="start" x="1357.5" y="-152.5" font-family="Helvetica,sans-Serif" font-size="10.00">runtime/inc/docker</text>
<text text-anchor="middle" x="1403" y="-141.5" font-family="Helvetica,sans-Serif" font-size="10.00">_commands.hpp</text>
</a>
</g>
</g>
<!-- Node1&#45;&gt;Node23 -->
<g id="edge31" class="edge">
<title>Node1&#45;&gt;Node23</title>
<path fill="none" stroke="midnightblue" d="M1104.52,-204.35C1166.01,-194.68 1256.46,-179.91 1335,-165 1339.63,-164.12 1344.42,-163.17 1349.22,-162.2"/>
<polygon fill="midnightblue" stroke="midnightblue" points="1103.86,-200.91 1094.53,-205.92 1104.95,-207.83 1103.86,-200.91"/>
</g>
<!-- Node25 -->
<g id="node25" class="node">
<title>Node25</title>
<g id="a_node25"><a xlink:href="podman__api__commands_8hpp.html" target="_top" xlink:title="Declares command classes for managing containers via the Podman HTTP API over a Unix socket.">
<polygon fill="white" stroke="black" points="1474.5,-134.5 1474.5,-164.5 1591.5,-164.5 1591.5,-134.5 1474.5,-134.5"/>
<text text-anchor="start" x="1482.5" y="-152.5" font-family="Helvetica,sans-Serif" font-size="10.00">runtime/inc/podman</text>
<text text-anchor="middle" x="1533" y="-141.5" font-family="Helvetica,sans-Serif" font-size="10.00">_api_commands.hpp</text>
</a>
</g>
</g>
<!-- Node1&#45;&gt;Node25 -->
<g id="edge34" class="edge">
<title>Node1&#45;&gt;Node25</title>
<path fill="none" stroke="midnightblue" d="M1104.77,-209.21C1191.23,-201.24 1339.67,-185.97 1466,-165 1468.7,-164.55 1471.46,-164.07 1474.24,-163.56"/>
<polygon fill="midnightblue" stroke="midnightblue" points="1104.44,-205.73 1094.8,-210.13 1105.07,-212.7 1104.44,-205.73"/>
</g>
<!-- Node27 -->
<g id="node27" class="node">
<title>Node27</title>
<g id="a_node27"><a xlink:href="podman__commands_8hpp.html" target="_top" xlink:title="Declares Podman command classes for container operations.">
<polygon fill="white" stroke="black" points="1609.5,-134.5 1609.5,-164.5 1724.5,-164.5 1724.5,-134.5 1609.5,-134.5"/>
<text text-anchor="start" x="1617.5" y="-152.5" font-family="Helvetica,sans-Serif" font-size="10.00">runtime/inc/podman</text>
<text text-anchor="middle" x="1667" y="-141.5" font-family="Helvetica,sans-Serif" font-size="10.00">_commands.hpp</text>
</a>
</g>
</g>
<!-- Node1&#45;&gt;Node27 -->
<g id="edge37" class="edge">
<title>Node1&#45;&gt;Node27</title>
<path fill="none" stroke="midnightblue" d="M1104.8,-212.02C1213.37,-206.16 1423.9,-192.2 1601,-165 1603.78,-164.57 1606.62,-164.1 1609.49,-163.59"/>
<polygon fill="midnightblue" stroke="midnightblue" points="1104.42,-208.54 1094.62,-212.56 1104.79,-215.53 1104.42,-208.54"/>
</g>
<!-- Node2&#45;&gt;Node3 -->
<g id="edge2" class="edge">
<title>Node2&#45;&gt;Node3</title>
<path fill="none" stroke="midnightblue" d="M380.44,-140.47C313.88,-131.57 205.61,-116.06 113,-98 110.12,-97.44 107.16,-96.83 104.18,-96.2"/>
<polygon fill="midnightblue" stroke="midnightblue" points="380.39,-144 390.76,-141.85 381.31,-137.06 380.39,-144"/>
</g>
<!-- Node4 -->
<g id="node4" class="node">
<title>Node4</title>
<g id="a_node4"><a xlink:href="json__request__executor_8hpp.html" target="_top" xlink:title="Declares the JsonRequestExecutorHandler class for executing JSON&#45;based requests.">
<polygon fill="white" stroke="black" points="282,-67.5 282,-97.5 424,-97.5 424,-67.5 282,-67.5"/>
<text text-anchor="start" x="290" y="-85.5" font-family="Helvetica,sans-Serif" font-size="10.00">executor/inc/json_request</text>
<text text-anchor="middle" x="353" y="-74.5" font-family="Helvetica,sans-Serif" font-size="10.00">_executor.hpp</text>
</a>
</g>
</g>
<!-- Node2&#45;&gt;Node4 -->
<g id="edge3" class="edge">
<title>Node2&#45;&gt;Node4</title>
<path fill="none" stroke="midnightblue" d="M415.24,-128.45C401.39,-118.45 384.98,-106.6 372.49,-97.58"/>
<polygon fill="midnightblue" stroke="midnightblue" points="413.32,-131.38 423.47,-134.4 417.41,-125.7 413.32,-131.38"/>
</g>
<!-- Node5 -->
<g id="node5" class="node">
<title>Node5</title>
<g id="a_node5"><a xlink:href="json__request__executor_8cpp.html" target="_top" xlink:title="Implementation of the JSON request executor for Container Manager.">
<polygon fill="white" stroke="black" points="222,-0.5 222,-30.5 364,-30.5 364,-0.5 222,-0.5"/>
<text text-anchor="start" x="230" y="-18.5" font-family="Helvetica,sans-Serif" font-size="10.00">executor/src/json_request</text>
<text text-anchor="middle" x="293" y="-7.5" font-family="Helvetica,sans-Serif" font-size="10.00">_executor.cpp</text>
</a>
</g>
</g>
<!-- Node2&#45;&gt;Node5 -->
<g id="edge8" class="edge">
<title>Node2&#45;&gt;Node5</title>
<path fill="none" stroke="midnightblue" d="M380.87,-138.04C337.91,-129.4 286.2,-115.69 273,-98 258.01,-77.92 272.19,-48.03 283.11,-30.58"/>
<polygon fill="midnightblue" stroke="midnightblue" points="380.24,-141.49 390.73,-139.97 381.58,-134.62 380.24,-141.49"/>
</g>
<!-- Node6 -->
<g id="node6" class="node">
<title>Node6</title>
<g id="a_node6"><a xlink:href="main_8cpp.html" target="_top" xlink:title="Entry point for the Container Manager service.">
<polygon fill="white" stroke="black" points="383,-6 383,-25 445,-25 445,-6 383,-6"/>
<text text-anchor="middle" x="414" y="-13" font-family="Helvetica,sans-Serif" font-size="10.00">main.cpp</text>
</a>
</g>
</g>
<!-- Node2&#45;&gt;Node6 -->
<g id="edge10" class="edge">
<title>Node2&#45;&gt;Node6</title>
<path fill="none" stroke="midnightblue" d="M441.53,-124.16C440.18,-107.81 437.64,-85.9 433,-67 429.29,-51.9 422.4,-35.15 418.02,-25.24"/>
<polygon fill="midnightblue" stroke="midnightblue" points="438.07,-124.76 442.29,-134.47 445.05,-124.24 438.07,-124.76"/>
</g>
<!-- Node7 -->
<g id="node7" class="node">
<title>Node7</title>
<g id="a_node7"><a xlink:href="protobuf__request__executor_8hpp.html" target="_top" xlink:title="Declares the ProtoRequestExecutorHandler class for handling Protobuf&#45;based requests.">
<polygon fill="white" stroke="black" points="518,-67.5 518,-97.5 646,-97.5 646,-67.5 518,-67.5"/>
<text text-anchor="start" x="526" y="-85.5" font-family="Helvetica,sans-Serif" font-size="10.00">executor/inc/protobuf</text>
<text text-anchor="middle" x="582" y="-74.5" font-family="Helvetica,sans-Serif" font-size="10.00">_request_executor.hpp</text>
</a>
</g>
</g>
<!-- Node2&#45;&gt;Node7 -->
<g id="edge6" class="edge">
<title>Node2&#45;&gt;Node7</title>
<path fill="none" stroke="midnightblue" d="M482.28,-130.13C504.37,-119.8 531.51,-107.11 551.9,-97.58"/>
<polygon fill="midnightblue" stroke="midnightblue" points="480.74,-126.99 473.16,-134.4 483.7,-133.33 480.74,-126.99"/>
</g>
<!-- Node8 -->
<g id="node8" class="node">
<title>Node8</title>
<g id="a_node8"><a xlink:href="protobuf__request__executor_8cpp.html" target="_top" xlink:title="Protocol Buffers request executor for Container Manager.">
<polygon fill="white" stroke="black" points="464.5,-0.5 464.5,-30.5 591.5,-30.5 591.5,-0.5 464.5,-0.5"/>
<text text-anchor="start" x="472.5" y="-18.5" font-family="Helvetica,sans-Serif" font-size="10.00">executor/src/protobuf</text>
<text text-anchor="middle" x="528" y="-7.5" font-family="Helvetica,sans-Serif" font-size="10.00">_request_executor.cpp</text>
</a>
</g>
</g>
<!-- Node2&#45;&gt;Node8 -->
<g id="edge9" class="edge">
<title>Node2&#45;&gt;Node8</title>
<path fill="none" stroke="midnightblue" d="M457.6,-125.83C475.22,-98.47 504.31,-53.28 518.97,-30.52"/>
<polygon fill="midnightblue" stroke="midnightblue" points="454.57,-124.07 452.1,-134.37 460.45,-127.86 454.57,-124.07"/>
</g>
<!-- Node2&#45;&gt;Node9 -->
<g id="edge11" class="edge">
<title>Node2&#45;&gt;Node9</title>
<path fill="none" stroke="midnightblue" d="M381.07,-133.53C334.13,-122.19 270.36,-106.78 226.04,-96.07"/>
<polygon fill="midnightblue" stroke="midnightblue" points="380.27,-136.94 390.82,-135.89 381.92,-130.14 380.27,-136.94"/>
</g>
<!-- Node4&#45;&gt;Node5 -->
<g id="edge4" class="edge">
<title>Node4&#45;&gt;Node5</title>
<path fill="none" stroke="midnightblue" d="M333.18,-60.02C324.24,-50.34 313.93,-39.17 305.99,-30.58"/>
<polygon fill="midnightblue" stroke="midnightblue" points="330.63,-62.42 339.98,-67.4 335.77,-57.67 330.63,-62.42"/>
</g>
<!-- Node4&#45;&gt;Node6 -->
<g id="edge5" class="edge">
<title>Node4&#45;&gt;Node6</title>
<path fill="none" stroke="midnightblue" d="M373.18,-60C384.31,-48.13 397.53,-34.05 405.84,-25.19"/>
<polygon fill="midnightblue" stroke="midnightblue" points="370.53,-57.71 366.24,-67.4 375.63,-62.5 370.53,-57.71"/>
</g>
<!-- Node7&#45;&gt;Node8 -->
<g id="edge7" class="edge">
<title>Node7&#45;&gt;Node8</title>
<path fill="none" stroke="midnightblue" d="M563.68,-59.45C555.75,-49.9 546.7,-39 539.69,-30.58"/>
<polygon fill="midnightblue" stroke="midnightblue" points="561.2,-61.94 570.28,-67.4 566.58,-57.47 561.2,-61.94"/>
</g>
<!-- Node10&#45;&gt;Node4 -->
<g id="edge22" class="edge">
<title>Node10&#45;&gt;Node4</title>
<path fill="none" stroke="midnightblue" d="M827.89,-140.35C724.66,-127.99 529.5,-104.63 424.37,-92.04"/>
<polygon fill="midnightblue" stroke="midnightblue" points="827.54,-143.83 837.89,-141.54 828.38,-136.88 827.54,-143.83"/>
</g>
<!-- Node10&#45;&gt;Node7 -->
<g id="edge23" class="edge">
<title>Node10&#45;&gt;Node7</title>
<path fill="none" stroke="midnightblue" d="M827.86,-134.39C773.92,-123.23 699.12,-107.75 646.23,-96.8"/>
<polygon fill="midnightblue" stroke="midnightblue" points="827.17,-137.83 837.67,-136.43 828.59,-130.97 827.17,-137.83"/>
</g>
<!-- Node11 -->
<g id="node11" class="node">
<title>Node11</title>
<g id="a_node11"><a xlink:href="dbus__consumer_8hpp.html" target="_top" xlink:title="Defines the DBusConsumer class for receiving and processing requests over D&#45;Bus.">
<polygon fill="white" stroke="black" points="664.5,-73 664.5,-92 813.5,-92 813.5,-73 664.5,-73"/>
<text text-anchor="middle" x="739" y="-80" font-family="Helvetica,sans-Serif" font-size="10.00">api/inc/dbus_consumer.hpp</text>
</a>
</g>
</g>
<!-- Node10&#45;&gt;Node11 -->
<g id="edge14" class="edge">
<title>Node10&#45;&gt;Node11</title>
<path fill="none" stroke="midnightblue" d="M852.42,-130.46C822.09,-117.9 783.02,-101.72 759.55,-92.01"/>
<polygon fill="midnightblue" stroke="midnightblue" points="851.36,-133.8 861.93,-134.4 854.03,-127.34 851.36,-133.8"/>
</g>
<!-- Node13 -->
<g id="node13" class="node">
<title>Node13</title>
<g id="a_node13"><a xlink:href="http__server_8hpp.html" target="_top" xlink:title="Defines the HttpServerHandler class for handling HTTP requests.">
<polygon fill="white" stroke="black" points="832,-73 832,-92 960,-92 960,-73 832,-73"/>
<text text-anchor="middle" x="896" y="-80" font-family="Helvetica,sans-Serif" font-size="10.00">api/inc/http_server.hpp</text>
</a>
</g>
</g>
<!-- Node10&#45;&gt;Node13 -->
<g id="edge16" class="edge">
<title>Node10&#45;&gt;Node13</title>
<path fill="none" stroke="midnightblue" d="M896,-124.25C896,-113.02 896,-100.38 896,-92.19"/>
<polygon fill="midnightblue" stroke="midnightblue" points="892.5,-124.4 896,-134.4 899.5,-124.4 892.5,-124.4"/>
</g>
<!-- Node15 -->
<g id="node15" class="node">
<title>Node15</title>
<g id="a_node15"><a xlink:href="mosquitto__mqtt__subscriber_8hpp.html" target="_top" xlink:title="Declares the MosquittoMqttSubscriber class for handling MQTT messages using Mosquitto.">
<polygon fill="white" stroke="black" points="978,-67.5 978,-97.5 1108,-97.5 1108,-67.5 978,-67.5"/>
<text text-anchor="start" x="986" y="-85.5" font-family="Helvetica,sans-Serif" font-size="10.00">api/inc/mosquitto_mqtt</text>
<text text-anchor="middle" x="1043" y="-74.5" font-family="Helvetica,sans-Serif" font-size="10.00">_subscriber.hpp</text>
</a>
</g>
</g>
<!-- Node10&#45;&gt;Node15 -->
<g id="edge18" class="edge">
<title>Node10&#45;&gt;Node15</title>
<path fill="none" stroke="midnightblue" d="M937.23,-130.27C960.64,-119.92 989.51,-107.15 1011.17,-97.58"/>
<polygon fill="midnightblue" stroke="midnightblue" points="935.63,-127.15 927.9,-134.4 938.46,-133.55 935.63,-127.15"/>
</g>
<!-- Node17 -->
<g id="node17" class="node">
<title>Node17</title>
<g id="a_node17"><a xlink:href="posix__message__queue__consumer_8hpp.html" target="_top" xlink:title="Declares the MessageQueueConsumer class for handling messages from a POSIX message queue.">
<polygon fill="white" stroke="black" points="1126,-67.5 1126,-97.5 1254,-97.5 1254,-67.5 1126,-67.5"/>
<text text-anchor="start" x="1134" y="-85.5" font-family="Helvetica,sans-Serif" font-size="10.00">api/inc/posix_message</text>
<text text-anchor="middle" x="1190" y="-74.5" font-family="Helvetica,sans-Serif" font-size="10.00">_queue_consumer.hpp</text>
</a>
</g>
</g>
<!-- Node10&#45;&gt;Node17 -->
<g id="edge20" class="edge">
<title>Node10&#45;&gt;Node17</title>
<path fill="none" stroke="midnightblue" d="M963.95,-133.48C1012.91,-122.65 1078.51,-108.15 1126.43,-97.55"/>
<polygon fill="midnightblue" stroke="midnightblue" points="963.09,-130.08 954.08,-135.66 964.6,-136.92 963.09,-130.08"/>
</g>
<!-- Node12 -->
<g id="node12" class="node">
<title>Node12</title>
<g id="a_node12"><a xlink:href="dbus__consumer_8cpp.html" target="_top" xlink:title="D&#45;Bus message consumer implementation for Container Manager.">
<polygon fill="white" stroke="black" points="664.5,-6 664.5,-25 813.5,-25 813.5,-6 664.5,-6"/>
<text text-anchor="middle" x="739" y="-13" font-family="Helvetica,sans-Serif" font-size="10.00">api/src/dbus_consumer.cpp</text>
</a>
</g>
</g>
<!-- Node11&#45;&gt;Node12 -->
<g id="edge15" class="edge">
<title>Node11&#45;&gt;Node12</title>
<path fill="none" stroke="midnightblue" d="M739,-62.54C739,-50.17 739,-34.62 739,-25.13"/>
<polygon fill="midnightblue" stroke="midnightblue" points="735.5,-62.73 739,-72.73 742.5,-62.73 735.5,-62.73"/>
</g>
<!-- Node14 -->
<g id="node14" class="node">
<title>Node14</title>
<g id="a_node14"><a xlink:href="http__server_8cpp.html" target="_top" xlink:title="Implements the HttpServerHandler class for handling HTTP requests.">
<polygon fill="white" stroke="black" points="832,-6 832,-25 960,-25 960,-6 832,-6"/>
<text text-anchor="middle" x="896" y="-13" font-family="Helvetica,sans-Serif" font-size="10.00">api/src/http_server.cpp</text>
</a>
</g>
</g>
<!-- Node13&#45;&gt;Node14 -->
<g id="edge17" class="edge">
<title>Node13&#45;&gt;Node14</title>
<path fill="none" stroke="midnightblue" d="M896,-62.54C896,-50.17 896,-34.62 896,-25.13"/>
<polygon fill="midnightblue" stroke="midnightblue" points="892.5,-62.73 896,-72.73 899.5,-62.73 892.5,-62.73"/>
</g>
<!-- Node16 -->
<g id="node16" class="node">
<title>Node16</title>
<g id="a_node16"><a xlink:href="mosquitto__mqtt__subscriber_8cpp.html" target="_top" xlink:title="Implements the MosquittoMqttSubscriber class for handling MQTT messages using Mosquitto.">
<polygon fill="white" stroke="black" points="978,-0.5 978,-30.5 1108,-30.5 1108,-0.5 978,-0.5"/>
<text text-anchor="start" x="986" y="-18.5" font-family="Helvetica,sans-Serif" font-size="10.00">api/src/mosquitto_mqtt</text>
<text text-anchor="middle" x="1043" y="-7.5" font-family="Helvetica,sans-Serif" font-size="10.00">_subscriber.cpp</text>
</a>
</g>
</g>
<!-- Node15&#45;&gt;Node16 -->
<g id="edge19" class="edge">
<title>Node15&#45;&gt;Node16</title>
<path fill="none" stroke="midnightblue" d="M1043,-57.11C1043,-48.15 1043,-38.32 1043,-30.58"/>
<polygon fill="midnightblue" stroke="midnightblue" points="1039.5,-57.4 1043,-67.4 1046.5,-57.4 1039.5,-57.4"/>
</g>
<!-- Node18 -->
<g id="node18" class="node">
<title>Node18</title>
<g id="a_node18"><a xlink:href="posix__message__queue__consumer_8cpp.html" target="_top" xlink:title="Implements the MessageQueueConsumer class for handling messages from a POSIX message queue.">
<polygon fill="white" stroke="black" points="1126,-0.5 1126,-30.5 1254,-30.5 1254,-0.5 1126,-0.5"/>
<text text-anchor="start" x="1134" y="-18.5" font-family="Helvetica,sans-Serif" font-size="10.00">api/src/posix_message</text>
<text text-anchor="middle" x="1190" y="-7.5" font-family="Helvetica,sans-Serif" font-size="10.00">_queue_consumer.cpp</text>
</a>
</g>
</g>
<!-- Node17&#45;&gt;Node18 -->
<g id="edge21" class="edge">
<title>Node17&#45;&gt;Node18</title>
<path fill="none" stroke="midnightblue" d="M1190,-57.11C1190,-48.15 1190,-38.32 1190,-30.58"/>
<polygon fill="midnightblue" stroke="midnightblue" points="1186.5,-57.4 1190,-67.4 1193.5,-57.4 1186.5,-57.4"/>
</g>
<!-- Node19&#45;&gt;Node3 -->
<g id="edge25" class="edge">
<title>Node19&#45;&gt;Node3</title>
<path fill="none" stroke="midnightblue" d="M174.67,-130.68C147.57,-120.26 113.83,-107.28 88.6,-97.58"/>
<polygon fill="midnightblue" stroke="midnightblue" points="173.74,-134.07 184.33,-134.4 176.25,-127.54 173.74,-134.07"/>
</g>
<!-- Node19&#45;&gt;Node9 -->
<g id="edge27" class="edge">
<title>Node19&#45;&gt;Node9</title>
<path fill="none" stroke="midnightblue" d="M204.84,-126.16C197.99,-116.68 190.21,-105.92 184.18,-97.58"/>
<polygon fill="midnightblue" stroke="midnightblue" points="202.11,-128.34 210.8,-134.4 207.78,-124.24 202.11,-128.34"/>
</g>
<!-- Node19&#45;&gt;Node20 -->
<g id="edge26" class="edge">
<title>Node19&#45;&gt;Node20</title>
<path fill="none" stroke="midnightblue" d="M293.26,-141.15C320.99,-138.55 352.94,-135.82 382,-134 832.51,-105.74 948.77,-151.34 1397,-98 1399.87,-97.66 1402.8,-97.26 1405.76,-96.82"/>
<polygon fill="midnightblue" stroke="midnightblue" points="292.88,-137.67 283.25,-142.1 293.54,-144.64 292.88,-137.67"/>
</g>
<!-- Node21&#45;&gt;Node20 -->
<g id="edge29" class="edge">
<title>Node21&#45;&gt;Node20</title>
<path fill="none" stroke="midnightblue" d="M1294.43,-131.71C1332.51,-121.14 1381.11,-107.63 1417.2,-97.61"/>
<polygon fill="midnightblue" stroke="midnightblue" points="1293.18,-128.43 1284.49,-134.48 1295.06,-135.17 1293.18,-128.43"/>
</g>
<!-- Node22 -->
<g id="node22" class="node">
<title>Node22</title>
<g id="a_node22"><a xlink:href="docker__api__commands_8cpp.html" target="_top" xlink:title="Implements Docker API command classes for managing containers via the Docker HTTP API over a Unix soc...">
<polygon fill="white" stroke="black" points="1272,-67.5 1272,-97.5 1388,-97.5 1388,-67.5 1272,-67.5"/>
<text text-anchor="start" x="1280" y="-85.5" font-family="Helvetica,sans-Serif" font-size="10.00">runtime/src/docker</text>
<text text-anchor="middle" x="1330" y="-74.5" font-family="Helvetica,sans-Serif" font-size="10.00">_api_commands.cpp</text>
</a>
</g>
</g>
<!-- Node21&#45;&gt;Node22 -->
<g id="edge30" class="edge">
<title>Node21&#45;&gt;Node22</title>
<path fill="none" stroke="midnightblue" d="M1263.19,-128.73C1278.05,-118.68 1295.76,-106.68 1309.21,-97.58"/>
<polygon fill="midnightblue" stroke="midnightblue" points="1261.15,-125.89 1254.83,-134.4 1265.07,-131.69 1261.15,-125.89"/>
</g>
<!-- Node23&#45;&gt;Node20 -->
<g id="edge32" class="edge">
<title>Node23&#45;&gt;Node20</title>
<path fill="none" stroke="midnightblue" d="M1424.19,-127.31C1433.94,-117.56 1445.24,-106.26 1453.92,-97.58"/>
<polygon fill="midnightblue" stroke="midnightblue" points="1421.7,-124.85 1417.1,-134.4 1426.65,-129.8 1421.7,-124.85"/>
</g>
<!-- Node24 -->
<g id="node24" class="node">
<title>Node24</title>
<g id="a_node24"><a xlink:href="docker__commands_8cpp.html" target="_top" xlink:title="Implements Docker command classes for container operations.">
<polygon fill="white" stroke="black" points="1548.5,-67.5 1548.5,-97.5 1655.5,-97.5 1655.5,-67.5 1548.5,-67.5"/>
<text text-anchor="start" x="1556.5" y="-85.5" font-family="Helvetica,sans-Serif" font-size="10.00">runtime/src/docker</text>
<text text-anchor="middle" x="1602" y="-74.5" font-family="Helvetica,sans-Serif" font-size="10.00">_commands.cpp</text>
</a>
</g>
</g>
<!-- Node23&#45;&gt;Node24 -->
<g id="edge33" class="edge">
<title>Node23&#45;&gt;Node24</title>
<path fill="none" stroke="midnightblue" d="M1455.88,-131.23C1488.07,-120.71 1528.67,-107.45 1558.9,-97.58"/>
<polygon fill="midnightblue" stroke="midnightblue" points="1454.6,-127.96 1446.18,-134.4 1456.77,-134.62 1454.6,-127.96"/>
</g>
<!-- Node25&#45;&gt;Node20 -->
<g id="edge35" class="edge">
<title>Node25&#45;&gt;Node20</title>
<path fill="none" stroke="midnightblue" d="M1511.81,-127.31C1502.06,-117.56 1490.76,-106.26 1482.08,-97.58"/>
<polygon fill="midnightblue" stroke="midnightblue" points="1509.35,-129.8 1518.9,-134.4 1514.3,-124.85 1509.35,-129.8"/>
</g>
<!-- Node26 -->
<g id="node26" class="node">
<title>Node26</title>
<g id="a_node26"><a xlink:href="podman__api__commands_8cpp.html" target="_top" xlink:title="Implements Podman API command classes for managing containers via the Podman HTTP API over a Unix soc...">
<polygon fill="white" stroke="black" points="1674,-67.5 1674,-97.5 1790,-97.5 1790,-67.5 1674,-67.5"/>
<text text-anchor="start" x="1682" y="-85.5" font-family="Helvetica,sans-Serif" font-size="10.00">runtime/src/podman</text>
<text text-anchor="middle" x="1732" y="-74.5" font-family="Helvetica,sans-Serif" font-size="10.00">_api_commands.cpp</text>
</a>
</g>
</g>
<!-- Node25&#45;&gt;Node26 -->
<g id="edge36" class="edge">
<title>Node25&#45;&gt;Node26</title>
<path fill="none" stroke="midnightblue" d="M1585.88,-131.23C1618.07,-120.71 1658.67,-107.45 1688.9,-97.58"/>
<polygon fill="midnightblue" stroke="midnightblue" points="1584.6,-127.96 1576.18,-134.4 1586.77,-134.62 1584.6,-127.96"/>
</g>
<!-- Node27&#45;&gt;Node20 -->
<g id="edge38" class="edge">
<title>Node27&#45;&gt;Node20</title>
<path fill="none" stroke="midnightblue" d="M1614.12,-131.23C1581.93,-120.71 1541.33,-107.45 1511.1,-97.58"/>
<polygon fill="midnightblue" stroke="midnightblue" points="1613.23,-134.62 1623.82,-134.4 1615.4,-127.96 1613.23,-134.62"/>
</g>
<!-- Node28 -->
<g id="node28" class="node">
<title>Node28</title>
<g id="a_node28"><a xlink:href="podman__commands_8cpp.html" target="_top" xlink:title="Implements Podman command classes for container operations.">
<polygon fill="white" stroke="black" points="1808.5,-67.5 1808.5,-97.5 1923.5,-97.5 1923.5,-67.5 1808.5,-67.5"/>
<text text-anchor="start" x="1816.5" y="-85.5" font-family="Helvetica,sans-Serif" font-size="10.00">runtime/src/podman</text>
<text text-anchor="middle" x="1866" y="-74.5" font-family="Helvetica,sans-Serif" font-size="10.00">_commands.cpp</text>
</a>
</g>
</g>
<!-- Node27&#45;&gt;Node28 -->
<g id="edge39" class="edge">
<title>Node27&#45;&gt;Node28</title>
<path fill="none" stroke="midnightblue" d="M1719.88,-131.23C1752.07,-120.71 1792.67,-107.45 1822.9,-97.58"/>
<polygon fill="midnightblue" stroke="midnightblue" points="1718.6,-127.96 1710.18,-134.4 1720.77,-134.62 1718.6,-127.96"/>
</g>
</g>
</svg>
        <g id="navigator" transform="translate(0 0)" fill="#404254">
                <rect fill="#f2f5e9" fill-opacity="0.5" stroke="#606060" stroke-width=".5" x="0" y="0" width="60" height="60"/>
                <use id="zoomplus" xlink:href="#zoomPlus" x="17" y="9" onmousedown="handleZoom(evt,'in')"/>
                <use id="zoomminus" xlink:href="#zoomMin" x="42" y="9" onmousedown="handleZoom(evt,'out')"/>
                <use id="reset" xlink:href="#resetDef" x="30" y="36" onmousedown="handleReset()"/>
                <g id="arrowUp" xlink:href="#dirArrow" transform="translate(30 24)" onmousedown="handlePan(0,-1)">
                  <use xlink:href="#rim" fill="#404040">
                        <set attributeName="fill" to="#808080" begin="arrowUp.mouseover" end="arrowUp.mouseout"/>
                  </use>
                  <path fill="none" stroke="white" stroke-width="1.5" d="M0,-3.0v7 M-2.5,-0.5L0,-3.0L2.5,-0.5"/>
                </g>
                <g id="arrowRight" xlink:href="#dirArrow" transform="rotate(90) translate(36 -43)" onmousedown="handlePan(1,0)">
                  <use xlink:href="#rim" fill="#404040">
                        <set attributeName="fill" to="#808080" begin="arrowRight.mouseover" end="arrowRight.mouseout"/>
                  </use>
                  <path fill="none" stroke="white" stroke-width="1.5" d="M0,-3.0v7 M-2.5,-0.5L0,-3.0L2.5,-0.5"/>
                </g>
                <g id="arrowDown" xlink:href="#dirArrow" transform="rotate(180) translate(-30 -48)" onmousedown="handlePan(0,1)">
                  <use xlink:href="#rim" fill="#404040">
                        <set attributeName="fill" to="#808080" begin="arrowDown.mouseover" end="arrowDown.mouseout"/>
                  </use>
                  <path fill="none" stroke="white" stroke-width="1.5" d="M0,-3.0v7 M-2.5,-0.5L0,-3.0L2.5,-0.5"/>
                </g>
                <g id="arrowLeft" xlink:href="#dirArrow" transform="rotate(270) translate(-36 17)" onmousedown="handlePan(-1,0)">
                  <use xlink:href="#rim" fill="#404040">
                        <set attributeName="fill" to="#808080" begin="arrowLeft.mouseover" end="arrowLeft.mouseout"/>
                  </use>
                  <path fill="none" stroke="white" stroke-width="1.5" d="M0,-3.0v7 M-2.5,-0.5L0,-3.0L2.5,-0.5"/>
                </g>
        </g>
        <svg viewBox="0 0 15 15" width="100%" height="30px" preserveAspectRatio="xMaxYMin meet">
         <g id="arrow_out" transform="scale(0.3 0.3)">
          <a xlink:href="container__request_8hpp__dep__incl_org.svg" target="_base">
           <rect id="button" ry="5" rx="5" y="6" x="6" height="38" width="38"
                fill="#f2f5e9" fill-opacity="0.5" stroke="#606060" stroke-width="1.0"/>
           <path id="arrow"
             d="M 11.500037,31.436501 C 11.940474,20.09759 22.043105,11.32322 32.158766,21.979434 L 37.068811,17.246167 C 37.068811,17.246167 37.088388,32 37.088388,32 L 22.160133,31.978069 C 22.160133,31.978069 26.997745,27.140456 26.997745,27.140456 C 18.528582,18.264221 13.291696,25.230495 11.500037,31.436501 z"
             style="fill:#404040;"/>
          </a>
         </g>
        </svg>
</svg>
