<?xml version="1.0" encoding="UTF-8" standalone="no"?>
<!DOCTYPE svg PUBLIC "-//W3C//DTD SVG 1.1//EN"
 "http://www.w3.org/Graphics/SVG/1.1/DTD/svg11.dtd">
<!-- Generated by graphviz version 2.43.0 (0)
 -->
<!-- Title: executor/inc/container_request.hpp Pages: 1 -->
<svg width="412pt" height="296pt"
 viewBox="0.00 0.00 412.00 296.00" xmlns="http://www.w3.org/2000/svg" xmlns:xlink="http://www.w3.org/1999/xlink">
<g id="graph0" class="graph" transform="scale(1 1) rotate(0) translate(4 292)">
<title>executor/inc/container_request.hpp</title>
<polygon fill="white" stroke="transparent" points="-4,4 -4,-292 408,-292 408,4 -4,4"/>
<!-- Node1 -->
<g id="node1" class="node">
<title>Node1</title>
<g id="a_node1"><a xlink:title="Data structure for representing a container operation request.">
<polygon fill="#bfbfbf" stroke="black" points="139.5,-257.5 139.5,-287.5 264.5,-287.5 264.5,-257.5 139.5,-257.5"/>
<text text-anchor="start" x="147.5" y="-275.5" font-family="Helvetica,sans-Serif" font-size="10.00">executor/inc/container</text>
<text text-anchor="middle" x="202" y="-264.5" font-family="Helvetica,sans-Serif" font-size="10.00">_request.hpp</text>
</a>
</g>
</g>
<!-- Node2 -->
<g id="node2" class="node">
<title>Node2</title>
<g id="a_node2"><a xlink:href="container__service_8hpp.html" target="_top" xlink:title="Declares the ContainerServiceHandler class for business logic related to containers.">
<polygon fill="white" stroke="black" points="80,-190.5 80,-220.5 184,-220.5 184,-190.5 80,-190.5"/>
<text text-anchor="start" x="88" y="-208.5" font-family="Helvetica,sans-Serif" font-size="10.00">core/inc/container</text>
<text text-anchor="middle" x="132" y="-197.5" font-family="Helvetica,sans-Serif" font-size="10.00">_service.hpp</text>
</a>
</g>
</g>
<!-- Node1&#45;&gt;Node2 -->
<g id="edge1" class="edge">
<title>Node1&#45;&gt;Node2</title>
<path fill="none" stroke="midnightblue" d="M179.18,-250.31C168.68,-240.56 156.51,-229.26 147.16,-220.58"/>
<polygon fill="midnightblue" stroke="midnightblue" points="177.1,-253.16 186.81,-257.4 181.86,-248.03 177.1,-253.16"/>
</g>
<!-- Node5 -->
<g id="node5" class="node">
<title>Node5</title>
<g id="a_node5"><a xlink:href="request__executor_8hpp.html" target="_top" xlink:title="Declares the abstract RequestExecutor interface for executing requests.">
<polygon fill="white" stroke="black" points="214,-190.5 214,-220.5 330,-220.5 330,-190.5 214,-190.5"/>
<text text-anchor="start" x="222" y="-208.5" font-family="Helvetica,sans-Serif" font-size="10.00">executor/inc/request</text>
<text text-anchor="middle" x="272" y="-197.5" font-family="Helvetica,sans-Serif" font-size="10.00">_executor.hpp</text>
</a>
</g>
</g>
<!-- Node1&#45;&gt;Node5 -->
<g id="edge4" class="edge">
<title>Node1&#45;&gt;Node5</title>
<path fill="none" stroke="midnightblue" d="M224.82,-250.31C235.32,-240.56 247.49,-229.26 256.84,-220.58"/>
<polygon fill="midnightblue" stroke="midnightblue" points="222.14,-248.03 217.19,-257.4 226.9,-253.16 222.14,-248.03"/>
</g>
<!-- Node3 -->
<g id="node3" class="node">
<title>Node3</title>
<g id="a_node3"><a xlink:href="container__service_8cpp.html" target="_top" xlink:title=" ">
<polygon fill="white" stroke="black" points="0,-123.5 0,-153.5 104,-153.5 104,-123.5 0,-123.5"/>
<text text-anchor="start" x="8" y="-141.5" font-family="Helvetica,sans-Serif" font-size="10.00">core/src/container</text>
<text text-anchor="middle" x="52" y="-130.5" font-family="Helvetica,sans-Serif" font-size="10.00">_service.cpp</text>
</a>
</g>
</g>
<!-- Node2&#45;&gt;Node3 -->
<g id="edge2" class="edge">
<title>Node2&#45;&gt;Node3</title>
<path fill="none" stroke="midnightblue" d="M106.63,-183.88C94.47,-174.01 80.22,-162.43 69.32,-153.58"/>
<polygon fill="midnightblue" stroke="midnightblue" points="104.67,-186.81 114.64,-190.4 109.09,-181.37 104.67,-186.81"/>
</g>
<!-- Node4 -->
<g id="node4" class="node">
<title>Node4</title>
<g id="a_node4"><a xlink:href="json__request__executor_8cpp.html" target="_top" xlink:title=" ">
<polygon fill="white" stroke="black" points="57,-56.5 57,-86.5 199,-86.5 199,-56.5 57,-56.5"/>
<text text-anchor="start" x="65" y="-74.5" font-family="Helvetica,sans-Serif" font-size="10.00">executor/src/json_request</text>
<text text-anchor="middle" x="128" y="-63.5" font-family="Helvetica,sans-Serif" font-size="10.00">_executor.cpp</text>
</a>
</g>
</g>
<!-- Node2&#45;&gt;Node4 -->
<g id="edge3" class="edge">
<title>Node2&#45;&gt;Node4</title>
<path fill="none" stroke="midnightblue" d="M131.26,-180.02C130.42,-152.51 129.1,-108.79 128.42,-86.52"/>
<polygon fill="midnightblue" stroke="midnightblue" points="127.77,-180.48 131.57,-190.37 134.77,-180.27 127.77,-180.48"/>
</g>
<!-- Node6 -->
<g id="node6" class="node">
<title>Node6</title>
<g id="a_node6"><a xlink:href="json__request__executor_8hpp.html" target="_top" xlink:title="Defines the JsonRequestExecutorHandler class for executing JSON&#45;based requests.">
<polygon fill="white" stroke="black" points="207,-123.5 207,-153.5 349,-153.5 349,-123.5 207,-123.5"/>
<text text-anchor="start" x="215" y="-141.5" font-family="Helvetica,sans-Serif" font-size="10.00">executor/inc/json_request</text>
<text text-anchor="middle" x="278" y="-130.5" font-family="Helvetica,sans-Serif" font-size="10.00">_executor.hpp</text>
</a>
</g>
</g>
<!-- Node5&#45;&gt;Node6 -->
<g id="edge5" class="edge">
<title>Node5&#45;&gt;Node6</title>
<path fill="none" stroke="midnightblue" d="M274.22,-180.4C275.06,-171.37 275.98,-161.41 276.7,-153.58"/>
<polygon fill="midnightblue" stroke="midnightblue" points="270.74,-180.12 273.3,-190.4 277.71,-180.76 270.74,-180.12"/>
</g>
<!-- Node6&#45;&gt;Node4 -->
<g id="edge9" class="edge">
<title>Node6&#45;&gt;Node4</title>
<path fill="none" stroke="midnightblue" d="M236.25,-119.41C212.3,-109.03 182.68,-96.2 160.48,-86.58"/>
<polygon fill="midnightblue" stroke="midnightblue" points="234.89,-122.63 245.45,-123.4 237.67,-116.21 234.89,-122.63"/>
</g>
<!-- Node7 -->
<g id="node7" class="node">
<title>Node7</title>
<g id="a_node7"><a xlink:href="http__server_8hpp.html" target="_top" xlink:title="Defines the HttpServerHandler class for handling HTTP requests.">
<polygon fill="white" stroke="black" points="217,-62 217,-81 345,-81 345,-62 217,-62"/>
<text text-anchor="middle" x="281" y="-69" font-family="Helvetica,sans-Serif" font-size="10.00">api/inc/http_server.hpp</text>
</a>
</g>
</g>
<!-- Node6&#45;&gt;Node7 -->
<g id="edge6" class="edge">
<title>Node6&#45;&gt;Node7</title>
<path fill="none" stroke="midnightblue" d="M279.12,-113.25C279.64,-102.02 280.22,-89.38 280.6,-81.19"/>
<polygon fill="midnightblue" stroke="midnightblue" points="275.62,-113.25 278.65,-123.4 282.61,-113.57 275.62,-113.25"/>
</g>
<!-- Node9 -->
<g id="node9" class="node">
<title>Node9</title>
<g id="a_node9"><a xlink:href="main_8cpp.html" target="_top" xlink:title="Entry point for the Container Manager application.">
<polygon fill="white" stroke="black" points="342,-0.5 342,-19.5 404,-19.5 404,-0.5 342,-0.5"/>
<text text-anchor="middle" x="373" y="-7.5" font-family="Helvetica,sans-Serif" font-size="10.00">main.cpp</text>
</a>
</g>
</g>
<!-- Node6&#45;&gt;Node9 -->
<g id="edge10" class="edge">
<title>Node6&#45;&gt;Node9</title>
<path fill="none" stroke="midnightblue" d="M318.44,-118.3C331.51,-110.29 344.94,-99.83 354,-87 368.74,-66.11 372.08,-34.92 372.81,-19.82"/>
<polygon fill="midnightblue" stroke="midnightblue" points="316.42,-115.43 309.51,-123.45 319.92,-121.49 316.42,-115.43"/>
</g>
<!-- Node8 -->
<g id="node8" class="node">
<title>Node8</title>
<g id="a_node8"><a xlink:href="http__server_8cpp.html" target="_top" xlink:title=" ">
<polygon fill="white" stroke="black" points="196,-0.5 196,-19.5 324,-19.5 324,-0.5 196,-0.5"/>
<text text-anchor="middle" x="260" y="-7.5" font-family="Helvetica,sans-Serif" font-size="10.00">api/src/http_server.cpp</text>
</a>
</g>
</g>
<!-- Node7&#45;&gt;Node8 -->
<g id="edge7" class="edge">
<title>Node7&#45;&gt;Node8</title>
<path fill="none" stroke="midnightblue" d="M274.65,-52.5C270.78,-41.55 266.03,-28.07 263,-19.51"/>
<polygon fill="midnightblue" stroke="midnightblue" points="271.36,-53.71 277.99,-61.98 277.96,-51.38 271.36,-53.71"/>
</g>
<!-- Node7&#45;&gt;Node9 -->
<g id="edge8" class="edge">
<title>Node7&#45;&gt;Node9</title>
<path fill="none" stroke="midnightblue" d="M302.76,-56.43C320.49,-44.96 344.96,-29.13 359.84,-19.51"/>
<polygon fill="midnightblue" stroke="midnightblue" points="300.68,-53.61 294.18,-61.98 304.48,-59.48 300.68,-53.61"/>
</g>
</g>
</svg>
