<?xml version="1.0" encoding="UTF-8" standalone="no"?>
<!DOCTYPE svg PUBLIC "-//W3C//DTD SVG 1.1//EN"
 "http://www.w3.org/Graphics/SVG/1.1/DTD/svg11.dtd">
<!-- Generated by graphviz version 2.43.0 (0)
 -->
<!-- Title: core/src/container_service.cpp Pages: 1 -->
<svg width="583pt" height="207pt"
 viewBox="0.00 0.00 583.00 207.00" xmlns="http://www.w3.org/2000/svg" xmlns:xlink="http://www.w3.org/1999/xlink">
<g id="graph0" class="graph" transform="scale(1 1) rotate(0) translate(4 203)">
<title>core/src/container_service.cpp</title>
<polygon fill="white" stroke="transparent" points="-4,4 -4,-203 579,-203 579,4 -4,4"/>
<!-- Node1 -->
<g id="node1" class="node">
<title>Node1</title>
<g id="a_node1"><a xlink:title="Implements the ContainerServiceHandler class for business logic related to containers.">
<polygon fill="#bfbfbf" stroke="black" points="214,-168.5 214,-198.5 318,-198.5 318,-168.5 214,-168.5"/>
<text text-anchor="start" x="222" y="-186.5" font-family="Helvetica,sans-Serif" font-size="10.00">core/src/container</text>
<text text-anchor="middle" x="266" y="-175.5" font-family="Helvetica,sans-Serif" font-size="10.00">_service.cpp</text>
</a>
</g>
</g>
<!-- Node2 -->
<g id="node2" class="node">
<title>Node2</title>
<g id="a_node2"><a xlink:href="container__service_8hpp.html" target="_top" xlink:title="Declares the ContainerServiceHandler class for business logic related to containers.">
<polygon fill="white" stroke="black" points="195.5,-112.5 195.5,-131.5 336.5,-131.5 336.5,-112.5 195.5,-112.5"/>
<text text-anchor="middle" x="266" y="-119.5" font-family="Helvetica,sans-Serif" font-size="10.00">inc/container_service.hpp</text>
</a>
</g>
</g>
<!-- Node1&#45;&gt;Node2 -->
<g id="edge1" class="edge">
<title>Node1&#45;&gt;Node2</title>
<path fill="none" stroke="midnightblue" d="M266,-168.4C266,-160.47 266,-150.46 266,-141.86"/>
<polygon fill="midnightblue" stroke="midnightblue" points="269.5,-141.66 266,-131.66 262.5,-141.66 269.5,-141.66"/>
</g>
<!-- Node3 -->
<g id="node3" class="node">
<title>Node3</title>
<g id="a_node3"><a xlink:title=" ">
<polygon fill="white" stroke="#bfbfbf" points="0,-56.5 0,-75.5 110,-75.5 110,-56.5 0,-56.5"/>
<text text-anchor="middle" x="55" y="-63.5" font-family="Helvetica,sans-Serif" font-size="10.00">nlohmann/json.hpp</text>
</a>
</g>
</g>
<!-- Node1&#45;&gt;Node3 -->
<g id="edge6" class="edge">
<title>Node1&#45;&gt;Node3</title>
<path fill="none" stroke="midnightblue" d="M240.13,-168.34C199.07,-145.86 119.55,-102.33 79.42,-80.37"/>
<polygon fill="midnightblue" stroke="midnightblue" points="81.02,-77.25 70.57,-75.52 77.66,-83.39 81.02,-77.25"/>
</g>
<!-- Node6 -->
<g id="node6" class="node">
<title>Node6</title>
<g id="a_node6"><a xlink:title=" ">
<polygon fill="white" stroke="#bfbfbf" points="515,-112.5 515,-131.5 575,-131.5 575,-112.5 515,-112.5"/>
<text text-anchor="middle" x="545" y="-119.5" font-family="Helvetica,sans-Serif" font-size="10.00">iostream</text>
</a>
</g>
</g>
<!-- Node1&#45;&gt;Node6 -->
<g id="edge5" class="edge">
<title>Node1&#45;&gt;Node6</title>
<path fill="none" stroke="midnightblue" d="M318.03,-171.86C364.5,-162.28 434.69,-147.65 504.88,-132.22"/>
<polygon fill="midnightblue" stroke="midnightblue" points="505.77,-135.61 514.78,-130.03 504.26,-128.77 505.77,-135.61"/>
</g>
<!-- Node7 -->
<g id="node7" class="node">
<title>Node7</title>
<g id="a_node7"><a xlink:href="common_8hpp.html" target="_top" xlink:title="Defines common constants, string views, and utility structures for the application.">
<polygon fill="white" stroke="black" points="128,-56.5 128,-75.5 226,-75.5 226,-56.5 128,-56.5"/>
<text text-anchor="middle" x="177" y="-63.5" font-family="Helvetica,sans-Serif" font-size="10.00">inc/common.hpp</text>
</a>
</g>
</g>
<!-- Node1&#45;&gt;Node7 -->
<g id="edge7" class="edge">
<title>Node1&#45;&gt;Node7</title>
<path fill="none" stroke="midnightblue" d="M230.48,-168.5C214.32,-160.29 196.5,-148.29 186,-132 177.22,-118.39 175.42,-99.84 175.55,-86.05"/>
<polygon fill="midnightblue" stroke="midnightblue" points="179.06,-85.93 176,-75.79 172.07,-85.62 179.06,-85.93"/>
</g>
<!-- Node10 -->
<g id="node10" class="node">
<title>Node10</title>
<g id="a_node10"><a xlink:href="command__factory_8hpp.html" target="_top" xlink:title=" ">
<polygon fill="white" stroke="black" points="355,-112.5 355,-131.5 497,-131.5 497,-112.5 355,-112.5"/>
<text text-anchor="middle" x="426" y="-119.5" font-family="Helvetica,sans-Serif" font-size="10.00">inc/command_factory.hpp</text>
</a>
</g>
</g>
<!-- Node1&#45;&gt;Node10 -->
<g id="edge11" class="edge">
<title>Node1&#45;&gt;Node10</title>
<path fill="none" stroke="midnightblue" d="M303.92,-168.4C331.12,-158.28 367.4,-144.79 393.33,-135.15"/>
<polygon fill="midnightblue" stroke="midnightblue" points="394.57,-138.42 402.72,-131.66 392.13,-131.86 394.57,-138.42"/>
</g>
<!-- Node2&#45;&gt;Node3 -->
<g id="edge2" class="edge">
<title>Node2&#45;&gt;Node3</title>
<path fill="none" stroke="midnightblue" d="M232.57,-112.44C196.14,-103.12 137.77,-88.18 97.97,-78"/>
<polygon fill="midnightblue" stroke="midnightblue" points="98.83,-74.61 88.28,-75.52 97.1,-81.39 98.83,-74.61"/>
</g>
<!-- Node4 -->
<g id="node4" class="node">
<title>Node4</title>
<g id="a_node4"><a xlink:href="container__request_8hpp.html" target="_top" xlink:title="Data structure for representing a container operation request.">
<polygon fill="white" stroke="black" points="244.5,-56.5 244.5,-75.5 387.5,-75.5 387.5,-56.5 244.5,-56.5"/>
<text text-anchor="middle" x="316" y="-63.5" font-family="Helvetica,sans-Serif" font-size="10.00">inc/container_request.hpp</text>
</a>
</g>
</g>
<!-- Node2&#45;&gt;Node4 -->
<g id="edge3" class="edge">
<title>Node2&#45;&gt;Node4</title>
<path fill="none" stroke="midnightblue" d="M274.26,-112.08C281.46,-104.3 292.11,-92.8 300.85,-83.37"/>
<polygon fill="midnightblue" stroke="midnightblue" points="303.67,-85.47 307.9,-75.75 298.53,-80.71 303.67,-85.47"/>
</g>
<!-- Node5 -->
<g id="node5" class="node">
<title>Node5</title>
<g id="a_node5"><a xlink:title=" ">
<polygon fill="white" stroke="#bfbfbf" points="344,-0.5 344,-19.5 388,-19.5 388,-0.5 344,-0.5"/>
<text text-anchor="middle" x="366" y="-7.5" font-family="Helvetica,sans-Serif" font-size="10.00">string</text>
</a>
</g>
</g>
<!-- Node4&#45;&gt;Node5 -->
<g id="edge4" class="edge">
<title>Node4&#45;&gt;Node5</title>
<path fill="none" stroke="midnightblue" d="M324.26,-56.08C331.46,-48.3 342.11,-36.8 350.85,-27.37"/>
<polygon fill="midnightblue" stroke="midnightblue" points="353.67,-29.47 357.9,-19.75 348.53,-24.71 353.67,-29.47"/>
</g>
<!-- Node7&#45;&gt;Node5 -->
<g id="edge8" class="edge">
<title>Node7&#45;&gt;Node5</title>
<path fill="none" stroke="midnightblue" d="M206.95,-56.44C241.62,-46.54 298.5,-30.28 334.02,-20.14"/>
<polygon fill="midnightblue" stroke="midnightblue" points="335.22,-23.44 343.87,-17.32 333.29,-16.7 335.22,-23.44"/>
</g>
<!-- Node8 -->
<g id="node8" class="node">
<title>Node8</title>
<g id="a_node8"><a xlink:title=" ">
<polygon fill="white" stroke="#bfbfbf" points="190.5,-0.5 190.5,-19.5 263.5,-19.5 263.5,-0.5 190.5,-0.5"/>
<text text-anchor="middle" x="227" y="-7.5" font-family="Helvetica,sans-Serif" font-size="10.00">string_view</text>
</a>
</g>
</g>
<!-- Node7&#45;&gt;Node8 -->
<g id="edge9" class="edge">
<title>Node7&#45;&gt;Node8</title>
<path fill="none" stroke="midnightblue" d="M185.26,-56.08C192.46,-48.3 203.11,-36.8 211.85,-27.37"/>
<polygon fill="midnightblue" stroke="midnightblue" points="214.67,-29.47 218.9,-19.75 209.53,-24.71 214.67,-29.47"/>
</g>
<!-- Node9 -->
<g id="node9" class="node">
<title>Node9</title>
<g id="a_node9"><a xlink:title=" ">
<polygon fill="white" stroke="#bfbfbf" points="79.5,-0.5 79.5,-19.5 172.5,-19.5 172.5,-0.5 79.5,-0.5"/>
<text text-anchor="middle" x="126" y="-7.5" font-family="Helvetica,sans-Serif" font-size="10.00">unordered_map</text>
</a>
</g>
</g>
<!-- Node7&#45;&gt;Node9 -->
<g id="edge10" class="edge">
<title>Node7&#45;&gt;Node9</title>
<path fill="none" stroke="midnightblue" d="M168.58,-56.08C161.15,-48.22 150.15,-36.57 141.19,-27.08"/>
<polygon fill="midnightblue" stroke="midnightblue" points="143.68,-24.62 134.26,-19.75 138.59,-29.42 143.68,-24.62"/>
</g>
<!-- Node10&#45;&gt;Node5 -->
<g id="edge13" class="edge">
<title>Node10&#45;&gt;Node5</title>
<path fill="none" stroke="midnightblue" d="M422.53,-112.38C417.32,-99.73 406.93,-75.52 396,-56 390.67,-46.47 383.99,-36.32 378.29,-28.07"/>
<polygon fill="midnightblue" stroke="midnightblue" points="381.02,-25.86 372.4,-19.71 375.3,-29.9 381.02,-25.86"/>
</g>
<!-- Node10&#45;&gt;Node7 -->
<g id="edge17" class="edge">
<title>Node10&#45;&gt;Node7</title>
<path fill="none" stroke="midnightblue" d="M386.55,-112.44C343.11,-103.02 273.21,-87.87 226.22,-77.68"/>
<polygon fill="midnightblue" stroke="midnightblue" points="226.78,-74.22 216.27,-75.52 225.3,-81.06 226.78,-74.22"/>
</g>
<!-- Node11 -->
<g id="node11" class="node">
<title>Node11</title>
<g id="a_node11"><a xlink:title=" ">
<polygon fill="white" stroke="#bfbfbf" points="511,-0.5 511,-19.5 569,-19.5 569,-0.5 511,-0.5"/>
<text text-anchor="middle" x="540" y="-7.5" font-family="Helvetica,sans-Serif" font-size="10.00">memory</text>
</a>
</g>
</g>
<!-- Node10&#45;&gt;Node11 -->
<g id="edge12" class="edge">
<title>Node10&#45;&gt;Node11</title>
<path fill="none" stroke="midnightblue" d="M469.58,-112.46C505.33,-104.47 551.8,-91.46 563,-76 573.48,-61.52 563.91,-41.83 554.12,-27.92"/>
<polygon fill="midnightblue" stroke="midnightblue" points="556.71,-25.55 547.86,-19.73 551.15,-29.8 556.71,-25.55"/>
</g>
<!-- Node12 -->
<g id="node12" class="node">
<title>Node12</title>
<g id="a_node12"><a xlink:href="commands_8hpp.html" target="_top" xlink:title=" ">
<polygon fill="white" stroke="black" points="444.5,-56.5 444.5,-75.5 553.5,-75.5 553.5,-56.5 444.5,-56.5"/>
<text text-anchor="middle" x="499" y="-63.5" font-family="Helvetica,sans-Serif" font-size="10.00">inc/commands.hpp</text>
</a>
</g>
</g>
<!-- Node10&#45;&gt;Node12 -->
<g id="edge14" class="edge">
<title>Node10&#45;&gt;Node12</title>
<path fill="none" stroke="midnightblue" d="M437.73,-112.32C448.84,-104.11 465.74,-91.6 478.98,-81.81"/>
<polygon fill="midnightblue" stroke="midnightblue" points="481.1,-84.59 487.06,-75.83 476.94,-78.97 481.1,-84.59"/>
</g>
<!-- Node12&#45;&gt;Node5 -->
<g id="edge15" class="edge">
<title>Node12&#45;&gt;Node5</title>
<path fill="none" stroke="midnightblue" d="M477.93,-56.44C455.94,-47.52 421.27,-33.44 396.34,-23.32"/>
<polygon fill="midnightblue" stroke="midnightblue" points="397.56,-20.04 386.98,-19.52 394.92,-26.52 397.56,-20.04"/>
</g>
<!-- Node12&#45;&gt;Node11 -->
<g id="edge16" class="edge">
<title>Node12&#45;&gt;Node11</title>
<path fill="none" stroke="midnightblue" d="M505.77,-56.08C511.56,-48.46 520.06,-37.26 527.14,-27.94"/>
<polygon fill="midnightblue" stroke="midnightblue" points="530.1,-29.83 533.36,-19.75 524.52,-25.6 530.1,-29.83"/>
</g>
</g>
</svg>
