<?xml version="1.0" encoding="UTF-8" standalone="no"?>
<!DOCTYPE svg PUBLIC "-//W3C//DTD SVG 1.1//EN"
 "http://www.w3.org/Graphics/SVG/1.1/DTD/svg11.dtd">
<!-- Generated by graphviz version 2.43.0 (0)
 -->
<!-- Title: core/src/container_service.cpp Pages: 1 -->
<!--zoomable 263 -->
<svg id="main" version="1.1" xmlns="http://www.w3.org/2000/svg" xmlns:xlink="http://www.w3.org/1999/xlink" xml:space="preserve" onload="init(evt)">
<style type="text/css"><![CDATA[
.edge:hover path { stroke: red; }
.edge:hover polygon { stroke: red; fill: red; }
]]></style>
<script type="text/javascript"><![CDATA[
var edges = document.getElementsByTagName('g');
if (edges && edges.length) {
  for (var i=0;i<edges.length;i++) {
    if (edges[i].id.substr(0,4)=='edge') {
      edges[i].setAttribute('class','edge');
    }
  }
}
]]></script>
        <defs>
                <circle id="rim" cx="0" cy="0" r="7"/>
                <circle id="rim2" cx="0" cy="0" r="3.5"/>
                <g id="zoomPlus">
                        <use xlink:href="#rim" fill="#404040">
                                <set attributeName="fill" to="#808080" begin="zoomplus.mouseover" end="zoomplus.mouseout"/>
                        </use>
                        <path d="M-4,0h8M0,-4v8" fill="none" stroke="white" stroke-width="1.5" pointer-events="none"/>
                </g>
                <g id="zoomMin">
                        <use xlink:href="#rim" fill="#404040">
                                <set attributeName="fill" to="#808080" begin="zoomminus.mouseover" end="zoomminus.mouseout"/>
                        </use>
                        <path d="M-4,0h8" fill="none" stroke="white" stroke-width="1.5" pointer-events="none"/>
                </g>
                <g id="dirArrow">
                        <path fill="none" stroke="white" stroke-width="1.5" d="M0,-3.0v7 M-2.5,-0.5L0,-3.0L2.5,-0.5"/>
                </g>
               <g id="resetDef">
                       <use xlink:href="#rim2" fill="#404040">
                               <set attributeName="fill" to="#808080" begin="reset.mouseover" end="reset.mouseout"/>
                       </use>
               </g>
        </defs>

<script type="text/javascript">
var viewWidth = 1059;
var viewHeight = 263;
var sectionId = 'dynsection-0';
</script>
<script xlink:href="svgpan.js"/>
<svg id="graph" class="graph">
<g id="viewport">
<title>core/src/container_service.cpp</title>
<polygon fill="white" stroke="transparent" points="-4,4 -4,-259 1054.55,-259 1054.55,4 -4,4"/>
<!-- Node1 -->
<g id="node1" class="node">
<title>Node1</title>
<g id="a_node1"><a xlink:title="Implements the ContainerServiceHandler class for business logic related to containers.">
<polygon fill="#bfbfbf" stroke="black" points="433.05,-224.5 433.05,-254.5 537.05,-254.5 537.05,-224.5 433.05,-224.5"/>
<text text-anchor="start" x="441.05" y="-242.5" font-family="Helvetica,sans-Serif" font-size="10.00">core/src/container</text>
<text text-anchor="middle" x="485.05" y="-231.5" font-family="Helvetica,sans-Serif" font-size="10.00">_service.cpp</text>
</a>
</g>
</g>
<!-- Node2 -->
<g id="node2" class="node">
<title>Node2</title>
<g id="a_node2"><a xlink:href="container__service_8hpp.html" target="_top" xlink:title="Declares the ContainerServiceHandler class for business logic related to containers.">
<polygon fill="white" stroke="black" points="364.55,-168.5 364.55,-187.5 505.55,-187.5 505.55,-168.5 364.55,-168.5"/>
<text text-anchor="middle" x="435.05" y="-175.5" font-family="Helvetica,sans-Serif" font-size="10.00">inc/container_service.hpp</text>
</a>
</g>
</g>
<!-- Node1&#45;&gt;Node2 -->
<g id="edge1" class="edge">
<title>Node1&#45;&gt;Node2</title>
<path fill="none" stroke="midnightblue" d="M473.2,-224.4C465.93,-215.75 456.59,-204.64 448.98,-195.58"/>
<polygon fill="midnightblue" stroke="midnightblue" points="451.44,-193.06 442.32,-187.66 446.08,-197.57 451.44,-193.06"/>
</g>
<!-- Node3 -->
<g id="node3" class="node">
<title>Node3</title>
<g id="a_node3"><a xlink:title=" ">
<polygon fill="white" stroke="#bfbfbf" points="212.05,-56.5 212.05,-75.5 322.05,-75.5 322.05,-56.5 212.05,-56.5"/>
<text text-anchor="middle" x="267.05" y="-63.5" font-family="Helvetica,sans-Serif" font-size="10.00">nlohmann/json.hpp</text>
</a>
</g>
</g>
<!-- Node1&#45;&gt;Node3 -->
<g id="edge11" class="edge">
<title>Node1&#45;&gt;Node3</title>
<path fill="none" stroke="midnightblue" d="M433.02,-235.87C318.19,-228.76 49.57,-204.53 4.05,-132 -0.68,-124.47 -1.68,-118.79 4.05,-112 28.88,-82.55 132.46,-72.37 201.98,-68.86"/>
<polygon fill="midnightblue" stroke="midnightblue" points="202.15,-72.35 211.97,-68.38 201.82,-65.36 202.15,-72.35"/>
</g>
<!-- Node6 -->
<g id="node6" class="node">
<title>Node6</title>
<g id="a_node6"><a xlink:href="database__interface_8hpp.html" target="_top" xlink:title="Abstract interface for database operations.">
<polygon fill="white" stroke="black" points="220.55,-112.5 220.55,-131.5 369.55,-131.5 369.55,-112.5 220.55,-112.5"/>
<text text-anchor="middle" x="295.05" y="-119.5" font-family="Helvetica,sans-Serif" font-size="10.00">inc/database_interface.hpp</text>
</a>
</g>
</g>
<!-- Node1&#45;&gt;Node6 -->
<g id="edge26" class="edge">
<title>Node1&#45;&gt;Node6</title>
<path fill="none" stroke="midnightblue" d="M434.43,-224.48C409.54,-216.19 379.85,-204.11 356.05,-188 336.52,-174.78 318.63,-154.27 307.34,-139.83"/>
<polygon fill="midnightblue" stroke="midnightblue" points="310.04,-137.6 301.21,-131.74 304.46,-141.83 310.04,-137.6"/>
</g>
<!-- Node7 -->
<g id="node7" class="node">
<title>Node7</title>
<g id="a_node7"><a xlink:href="container__request_8hpp.html" target="_top" xlink:title="Data structure for representing a container operation request.">
<polygon fill="white" stroke="black" points="463.55,-112.5 463.55,-131.5 606.55,-131.5 606.55,-112.5 463.55,-112.5"/>
<text text-anchor="middle" x="535.05" y="-119.5" font-family="Helvetica,sans-Serif" font-size="10.00">inc/container_request.hpp</text>
</a>
</g>
</g>
<!-- Node1&#45;&gt;Node7 -->
<g id="edge25" class="edge">
<title>Node1&#45;&gt;Node7</title>
<path fill="none" stroke="midnightblue" d="M494.66,-224.4C501.07,-214.53 509.34,-200.87 515.05,-188 521.78,-172.82 527.15,-154.7 530.62,-141.46"/>
<polygon fill="midnightblue" stroke="midnightblue" points="534.04,-142.2 533.08,-131.65 527.25,-140.5 534.04,-142.2"/>
</g>
<!-- Node8 -->
<g id="node8" class="node">
<title>Node8</title>
<g id="a_node8"><a xlink:title=" ">
<polygon fill="white" stroke="#bfbfbf" points="806.05,-168.5 806.05,-187.5 866.05,-187.5 866.05,-168.5 806.05,-168.5"/>
<text text-anchor="middle" x="836.05" y="-175.5" font-family="Helvetica,sans-Serif" font-size="10.00">iostream</text>
</a>
</g>
</g>
<!-- Node1&#45;&gt;Node8 -->
<g id="edge10" class="edge">
<title>Node1&#45;&gt;Node8</title>
<path fill="none" stroke="midnightblue" d="M537.3,-230.54C598.48,-221.06 702.81,-204.46 792.05,-188 793.3,-187.77 794.57,-187.53 795.85,-187.29"/>
<polygon fill="midnightblue" stroke="midnightblue" points="796.64,-190.7 805.78,-185.35 795.3,-183.83 796.64,-190.7"/>
</g>
<!-- Node9 -->
<g id="node9" class="node">
<title>Node9</title>
<g id="a_node9"><a xlink:href="common_8hpp.html" target="_top" xlink:title="Defines common constants, string views, and utility structures for the application.">
<polygon fill="white" stroke="black" points="828.05,-112.5 828.05,-131.5 926.05,-131.5 926.05,-112.5 828.05,-112.5"/>
<text text-anchor="middle" x="877.05" y="-119.5" font-family="Helvetica,sans-Serif" font-size="10.00">inc/common.hpp</text>
</a>
</g>
</g>
<!-- Node1&#45;&gt;Node9 -->
<g id="edge12" class="edge">
<title>Node1&#45;&gt;Node9</title>
<path fill="none" stroke="midnightblue" d="M537.08,-233.93C593.18,-227.85 684.45,-214.63 759.05,-188 763.96,-186.25 819.32,-155.37 852.44,-136.82"/>
<polygon fill="midnightblue" stroke="midnightblue" points="854.52,-139.66 861.53,-131.72 851.09,-133.56 854.52,-139.66"/>
</g>
<!-- Node12 -->
<g id="node12" class="node">
<title>Node12</title>
<g id="a_node12"><a xlink:href="command__factory_8hpp.html" target="_top" xlink:title="Declares the CommandFactory class for creating command objects based on container requests.">
<polygon fill="white" stroke="black" points="608.05,-168.5 608.05,-187.5 750.05,-187.5 750.05,-168.5 608.05,-168.5"/>
<text text-anchor="middle" x="679.05" y="-175.5" font-family="Helvetica,sans-Serif" font-size="10.00">inc/command_factory.hpp</text>
</a>
</g>
</g>
<!-- Node1&#45;&gt;Node12 -->
<g id="edge16" class="edge">
<title>Node1&#45;&gt;Node12</title>
<path fill="none" stroke="midnightblue" d="M531.02,-224.4C564.69,-214.07 609.82,-200.23 641.37,-190.56"/>
<polygon fill="midnightblue" stroke="midnightblue" points="642.57,-193.85 651.1,-187.57 640.51,-187.16 642.57,-193.85"/>
</g>
<!-- Node15 -->
<g id="node15" class="node">
<title>Node15</title>
<g id="a_node15"><a xlink:href="redis__database_8hpp.html" target="_top" xlink:title="Declares the RedisDatabaseHandler class for Redis&#45;based database operations.">
<polygon fill="white" stroke="black" points="128.55,-168.5 128.55,-187.5 257.55,-187.5 257.55,-168.5 128.55,-168.5"/>
<text text-anchor="middle" x="193.05" y="-175.5" font-family="Helvetica,sans-Serif" font-size="10.00">inc/redis_database.hpp</text>
</a>
</g>
</g>
<!-- Node1&#45;&gt;Node15 -->
<g id="edge27" class="edge">
<title>Node1&#45;&gt;Node15</title>
<path fill="none" stroke="midnightblue" d="M432.84,-227.86C379.68,-217.03 297.73,-200.33 244.74,-189.53"/>
<polygon fill="midnightblue" stroke="midnightblue" points="245.37,-186.09 234.88,-187.52 243.98,-192.95 245.37,-186.09"/>
</g>
<!-- Node2&#45;&gt;Node3 -->
<g id="edge2" class="edge">
<title>Node2&#45;&gt;Node3</title>
<path fill="none" stroke="midnightblue" d="M429.54,-168.25C420.52,-154.55 401.34,-127.94 379.05,-112 358.06,-96.99 331.35,-86.01 309.27,-78.65"/>
<polygon fill="midnightblue" stroke="midnightblue" points="310.09,-75.24 299.5,-75.53 307.96,-81.9 310.09,-75.24"/>
</g>
<!-- Node4 -->
<g id="node4" class="node">
<title>Node4</title>
<g id="a_node4"><a xlink:href="status_8hpp.html" target="_top" xlink:title="Defines status codes and a Status struct for standardized error handling.">
<polygon fill="white" stroke="black" points="449.55,-56.5 449.55,-75.5 534.55,-75.5 534.55,-56.5 449.55,-56.5"/>
<text text-anchor="middle" x="492.05" y="-63.5" font-family="Helvetica,sans-Serif" font-size="10.00">inc/status.hpp</text>
</a>
</g>
</g>
<!-- Node2&#45;&gt;Node4 -->
<g id="edge3" class="edge">
<title>Node2&#45;&gt;Node4</title>
<path fill="none" stroke="midnightblue" d="M436.63,-168.16C439.18,-155.25 444.98,-130.72 455.05,-112 460.72,-101.44 469.07,-91.02 476.4,-82.86"/>
<polygon fill="midnightblue" stroke="midnightblue" points="478.98,-85.24 483.26,-75.55 473.87,-80.45 478.98,-85.24"/>
</g>
<!-- Node2&#45;&gt;Node6 -->
<g id="edge5" class="edge">
<title>Node2&#45;&gt;Node6</title>
<path fill="none" stroke="midnightblue" d="M412.86,-168.44C389.62,-159.48 352.9,-145.31 326.63,-135.18"/>
<polygon fill="midnightblue" stroke="midnightblue" points="327.72,-131.85 317.13,-131.52 325.2,-138.38 327.72,-131.85"/>
</g>
<!-- Node2&#45;&gt;Node7 -->
<g id="edge8" class="edge">
<title>Node2&#45;&gt;Node7</title>
<path fill="none" stroke="midnightblue" d="M451.11,-168.32C467,-159.74 491.55,-146.49 510.01,-136.52"/>
<polygon fill="midnightblue" stroke="midnightblue" points="511.88,-139.49 519.02,-131.65 508.56,-133.33 511.88,-139.49"/>
</g>
<!-- Node5 -->
<g id="node5" class="node">
<title>Node5</title>
<g id="a_node5"><a xlink:title=" ">
<polygon fill="white" stroke="#bfbfbf" points="541.05,-0.5 541.05,-19.5 585.05,-19.5 585.05,-0.5 541.05,-0.5"/>
<text text-anchor="middle" x="563.05" y="-7.5" font-family="Helvetica,sans-Serif" font-size="10.00">string</text>
</a>
</g>
</g>
<!-- Node4&#45;&gt;Node5 -->
<g id="edge4" class="edge">
<title>Node4&#45;&gt;Node5</title>
<path fill="none" stroke="midnightblue" d="M503.45,-56.32C514.16,-48.18 530.39,-35.84 543.21,-26.09"/>
<polygon fill="midnightblue" stroke="midnightblue" points="545.59,-28.67 551.43,-19.83 541.35,-23.1 545.59,-28.67"/>
</g>
<!-- Node6&#45;&gt;Node3 -->
<g id="edge7" class="edge">
<title>Node6&#45;&gt;Node3</title>
<path fill="none" stroke="midnightblue" d="M290.42,-112.08C286.59,-104.69 281.02,-93.95 276.28,-84.81"/>
<polygon fill="midnightblue" stroke="midnightblue" points="279.29,-83.02 271.58,-75.75 273.08,-86.24 279.29,-83.02"/>
</g>
<!-- Node6&#45;&gt;Node5 -->
<g id="edge6" class="edge">
<title>Node6&#45;&gt;Node5</title>
<path fill="none" stroke="midnightblue" d="M313.32,-112.4C340.8,-99.57 394.52,-74.91 441.05,-56 471.38,-43.67 506.49,-30.87 531.24,-22.09"/>
<polygon fill="midnightblue" stroke="midnightblue" points="532.58,-25.33 540.84,-18.7 530.25,-18.73 532.58,-25.33"/>
</g>
<!-- Node7&#45;&gt;Node5 -->
<g id="edge9" class="edge">
<title>Node7&#45;&gt;Node5</title>
<path fill="none" stroke="midnightblue" d="M537.24,-112.37C541.76,-94.62 552.19,-53.67 558.31,-29.6"/>
<polygon fill="midnightblue" stroke="midnightblue" points="561.78,-30.15 560.86,-19.59 555,-28.42 561.78,-30.15"/>
</g>
<!-- Node9&#45;&gt;Node5 -->
<g id="edge13" class="edge">
<title>Node9&#45;&gt;Node5</title>
<path fill="none" stroke="midnightblue" d="M871.28,-112.16C861.41,-97.83 839.85,-69.74 814.05,-56 742.69,-18.01 645.43,-11.32 595.52,-10.61"/>
<polygon fill="midnightblue" stroke="midnightblue" points="595.35,-7.11 585.33,-10.54 595.3,-14.11 595.35,-7.11"/>
</g>
<!-- Node10 -->
<g id="node10" class="node">
<title>Node10</title>
<g id="a_node10"><a xlink:title=" ">
<polygon fill="white" stroke="#bfbfbf" points="866.55,-56.5 866.55,-75.5 939.55,-75.5 939.55,-56.5 866.55,-56.5"/>
<text text-anchor="middle" x="903.05" y="-63.5" font-family="Helvetica,sans-Serif" font-size="10.00">string_view</text>
</a>
</g>
</g>
<!-- Node9&#45;&gt;Node10 -->
<g id="edge14" class="edge">
<title>Node9&#45;&gt;Node10</title>
<path fill="none" stroke="midnightblue" d="M881.34,-112.08C884.9,-104.69 890.07,-93.95 894.47,-84.81"/>
<polygon fill="midnightblue" stroke="midnightblue" points="897.65,-86.28 898.83,-75.75 891.34,-83.24 897.65,-86.28"/>
</g>
<!-- Node11 -->
<g id="node11" class="node">
<title>Node11</title>
<g id="a_node11"><a xlink:title=" ">
<polygon fill="white" stroke="#bfbfbf" points="957.55,-56.5 957.55,-75.5 1050.55,-75.5 1050.55,-56.5 957.55,-56.5"/>
<text text-anchor="middle" x="1004.05" y="-63.5" font-family="Helvetica,sans-Serif" font-size="10.00">unordered_map</text>
</a>
</g>
</g>
<!-- Node9&#45;&gt;Node11 -->
<g id="edge15" class="edge">
<title>Node9&#45;&gt;Node11</title>
<path fill="none" stroke="midnightblue" d="M897.17,-112.44C918.07,-103.56 950.98,-89.56 974.76,-79.45"/>
<polygon fill="midnightblue" stroke="midnightblue" points="976.18,-82.65 984.02,-75.52 973.45,-76.21 976.18,-82.65"/>
</g>
<!-- Node12&#45;&gt;Node5 -->
<g id="edge18" class="edge">
<title>Node12&#45;&gt;Node5</title>
<path fill="none" stroke="midnightblue" d="M708.93,-168.39C726.59,-161.59 747.5,-150.15 758.05,-132 767.89,-115.07 763.54,-71.67 749.05,-56 728.49,-33.78 642.96,-20.39 595.37,-14.52"/>
<polygon fill="midnightblue" stroke="midnightblue" points="595.61,-11.03 585.27,-13.32 594.78,-17.98 595.61,-11.03"/>
</g>
<!-- Node12&#45;&gt;Node7 -->
<g id="edge24" class="edge">
<title>Node12&#45;&gt;Node7</title>
<path fill="none" stroke="midnightblue" d="M656.23,-168.44C632.22,-159.44 594.22,-145.19 567.18,-135.05"/>
<polygon fill="midnightblue" stroke="midnightblue" points="568.35,-131.75 557.76,-131.52 565.89,-138.3 568.35,-131.75"/>
</g>
<!-- Node12&#45;&gt;Node9 -->
<g id="edge23" class="edge">
<title>Node12&#45;&gt;Node9</title>
<path fill="none" stroke="midnightblue" d="M710.42,-168.44C744.31,-159.2 798.45,-144.44 835.77,-134.26"/>
<polygon fill="midnightblue" stroke="midnightblue" points="837.09,-137.52 845.82,-131.52 835.25,-130.77 837.09,-137.52"/>
</g>
<!-- Node13 -->
<g id="node13" class="node">
<title>Node13</title>
<g id="a_node13"><a xlink:title=" ">
<polygon fill="white" stroke="#bfbfbf" points="682.05,-56.5 682.05,-75.5 740.05,-75.5 740.05,-56.5 682.05,-56.5"/>
<text text-anchor="middle" x="711.05" y="-63.5" font-family="Helvetica,sans-Serif" font-size="10.00">memory</text>
</a>
</g>
</g>
<!-- Node12&#45;&gt;Node13 -->
<g id="edge17" class="edge">
<title>Node12&#45;&gt;Node13</title>
<path fill="none" stroke="midnightblue" d="M700.53,-168.36C715.44,-161.09 734.16,-149.12 743.05,-132 751.59,-115.55 739.69,-96.49 728.05,-83.28"/>
<polygon fill="midnightblue" stroke="midnightblue" points="730.45,-80.73 721.02,-75.89 725.38,-85.55 730.45,-80.73"/>
</g>
<!-- Node14 -->
<g id="node14" class="node">
<title>Node14</title>
<g id="a_node14"><a xlink:href="commands_8hpp.html" target="_top" xlink:title="Declares the Command interface and Invoker class for the command pattern.">
<polygon fill="white" stroke="black" points="624.55,-112.5 624.55,-131.5 733.55,-131.5 733.55,-112.5 624.55,-112.5"/>
<text text-anchor="middle" x="679.05" y="-119.5" font-family="Helvetica,sans-Serif" font-size="10.00">inc/commands.hpp</text>
</a>
</g>
</g>
<!-- Node12&#45;&gt;Node14 -->
<g id="edge19" class="edge">
<title>Node12&#45;&gt;Node14</title>
<path fill="none" stroke="midnightblue" d="M679.05,-168.08C679.05,-161.01 679.05,-150.86 679.05,-141.99"/>
<polygon fill="midnightblue" stroke="midnightblue" points="682.55,-141.75 679.05,-131.75 675.55,-141.75 682.55,-141.75"/>
</g>
<!-- Node14&#45;&gt;Node4 -->
<g id="edge22" class="edge">
<title>Node14&#45;&gt;Node4</title>
<path fill="none" stroke="midnightblue" d="M649.42,-112.44C617.55,-103.24 566.71,-88.56 531.48,-78.39"/>
<polygon fill="midnightblue" stroke="midnightblue" points="532.12,-74.93 521.54,-75.52 530.18,-81.65 532.12,-74.93"/>
</g>
<!-- Node14&#45;&gt;Node5 -->
<g id="edge20" class="edge">
<title>Node14&#45;&gt;Node5</title>
<path fill="none" stroke="midnightblue" d="M669.94,-112.37C650.46,-93.89 604.48,-50.29 579.65,-26.74"/>
<polygon fill="midnightblue" stroke="midnightblue" points="581.77,-23.93 572.11,-19.59 576.95,-29.01 581.77,-23.93"/>
</g>
<!-- Node14&#45;&gt;Node13 -->
<g id="edge21" class="edge">
<title>Node14&#45;&gt;Node13</title>
<path fill="none" stroke="midnightblue" d="M684.33,-112.08C688.76,-104.61 695.21,-93.72 700.66,-84.52"/>
<polygon fill="midnightblue" stroke="midnightblue" points="703.77,-86.14 705.86,-75.75 697.75,-82.57 703.77,-86.14"/>
</g>
<!-- Node15&#45;&gt;Node3 -->
<g id="edge31" class="edge">
<title>Node15&#45;&gt;Node3</title>
<path fill="none" stroke="midnightblue" d="M193.93,-168.32C195.62,-155.17 200.24,-129.84 212.05,-112 220.21,-99.66 232.8,-89.01 243.87,-81.17"/>
<polygon fill="midnightblue" stroke="midnightblue" points="245.96,-83.98 252.32,-75.5 242.06,-78.17 245.96,-83.98"/>
</g>
<!-- Node15&#45;&gt;Node5 -->
<g id="edge30" class="edge">
<title>Node15&#45;&gt;Node5</title>
<path fill="none" stroke="midnightblue" d="M190.51,-168.21C184.68,-145.98 173.04,-87.09 203.05,-56 225.67,-32.56 446.88,-17.61 530.9,-12.74"/>
<polygon fill="midnightblue" stroke="midnightblue" points="531.11,-16.24 540.9,-12.17 530.71,-9.25 531.11,-16.24"/>
</g>
<!-- Node15&#45;&gt;Node6 -->
<g id="edge28" class="edge">
<title>Node15&#45;&gt;Node6</title>
<path fill="none" stroke="midnightblue" d="M209.43,-168.32C225.72,-159.7 250.91,-146.36 269.76,-136.39"/>
<polygon fill="midnightblue" stroke="midnightblue" points="271.5,-139.43 278.7,-131.65 268.22,-133.24 271.5,-139.43"/>
</g>
<!-- Node16 -->
<g id="node16" class="node">
<title>Node16</title>
<g id="a_node16"><a xlink:title=" ">
<polygon fill="white" stroke="#bfbfbf" points="13.55,-112.5 13.55,-131.5 126.55,-131.5 126.55,-112.5 13.55,-112.5"/>
<text text-anchor="middle" x="70.05" y="-119.5" font-family="Helvetica,sans-Serif" font-size="10.00">cpp_redis/cpp_redis</text>
</a>
</g>
</g>
<!-- Node15&#45;&gt;Node16 -->
<g id="edge29" class="edge">
<title>Node15&#45;&gt;Node16</title>
<path fill="none" stroke="midnightblue" d="M173.56,-168.44C153.4,-159.6 121.72,-145.69 98.72,-135.59"/>
<polygon fill="midnightblue" stroke="midnightblue" points="100.01,-132.33 89.45,-131.52 97.19,-138.74 100.01,-132.33"/>
</g>
</g>
</svg>
        <g id="navigator" transform="translate(0 0)" fill="#404254">
                <rect fill="#f2f5e9" fill-opacity="0.5" stroke="#606060" stroke-width=".5" x="0" y="0" width="60" height="60"/>
                <use id="zoomplus" xlink:href="#zoomPlus" x="17" y="9" onmousedown="handleZoom(evt,'in')"/>
                <use id="zoomminus" xlink:href="#zoomMin" x="42" y="9" onmousedown="handleZoom(evt,'out')"/>
                <use id="reset" xlink:href="#resetDef" x="30" y="36" onmousedown="handleReset()"/>
                <g id="arrowUp" xlink:href="#dirArrow" transform="translate(30 24)" onmousedown="handlePan(0,-1)">
                  <use xlink:href="#rim" fill="#404040">
                        <set attributeName="fill" to="#808080" begin="arrowUp.mouseover" end="arrowUp.mouseout"/>
                  </use>
                  <path fill="none" stroke="white" stroke-width="1.5" d="M0,-3.0v7 M-2.5,-0.5L0,-3.0L2.5,-0.5"/>
                </g>
                <g id="arrowRight" xlink:href="#dirArrow" transform="rotate(90) translate(36 -43)" onmousedown="handlePan(1,0)">
                  <use xlink:href="#rim" fill="#404040">
                        <set attributeName="fill" to="#808080" begin="arrowRight.mouseover" end="arrowRight.mouseout"/>
                  </use>
                  <path fill="none" stroke="white" stroke-width="1.5" d="M0,-3.0v7 M-2.5,-0.5L0,-3.0L2.5,-0.5"/>
                </g>
                <g id="arrowDown" xlink:href="#dirArrow" transform="rotate(180) translate(-30 -48)" onmousedown="handlePan(0,1)">
                  <use xlink:href="#rim" fill="#404040">
                        <set attributeName="fill" to="#808080" begin="arrowDown.mouseover" end="arrowDown.mouseout"/>
                  </use>
                  <path fill="none" stroke="white" stroke-width="1.5" d="M0,-3.0v7 M-2.5,-0.5L0,-3.0L2.5,-0.5"/>
                </g>
                <g id="arrowLeft" xlink:href="#dirArrow" transform="rotate(270) translate(-36 17)" onmousedown="handlePan(-1,0)">
                  <use xlink:href="#rim" fill="#404040">
                        <set attributeName="fill" to="#808080" begin="arrowLeft.mouseover" end="arrowLeft.mouseout"/>
                  </use>
                  <path fill="none" stroke="white" stroke-width="1.5" d="M0,-3.0v7 M-2.5,-0.5L0,-3.0L2.5,-0.5"/>
                </g>
        </g>
        <svg viewBox="0 0 15 15" width="100%" height="30px" preserveAspectRatio="xMaxYMin meet">
         <g id="arrow_out" transform="scale(0.3 0.3)">
          <a xlink:href="container__service_8cpp__incl_org.svg" target="_base">
           <rect id="button" ry="5" rx="5" y="6" x="6" height="38" width="38"
                fill="#f2f5e9" fill-opacity="0.5" stroke="#606060" stroke-width="1.0"/>
           <path id="arrow"
             d="M 11.500037,31.436501 C 11.940474,20.09759 22.043105,11.32322 32.158766,21.979434 L 37.068811,17.246167 C 37.068811,17.246167 37.088388,32 37.088388,32 L 22.160133,31.978069 C 22.160133,31.978069 26.997745,27.140456 26.997745,27.140456 C 18.528582,18.264221 13.291696,25.230495 11.500037,31.436501 z"
             style="fill:#404040;"/>
          </a>
         </g>
        </svg>
</svg>
