<?xml version="1.0" encoding="UTF-8" standalone="no"?>
<!DOCTYPE svg PUBLIC "-//W3C//DTD SVG 1.1//EN"
 "http://www.w3.org/Graphics/SVG/1.1/DTD/svg11.dtd">
<!-- Generated by graphviz version 2.43.0 (0)
 -->
<!-- Title: executor/inc/container_request.hpp Pages: 1 -->
<svg width="941pt" height="296pt"
 viewBox="0.00 0.00 941.00 296.00" xmlns="http://www.w3.org/2000/svg" xmlns:xlink="http://www.w3.org/1999/xlink">
<g id="graph0" class="graph" transform="scale(1 1) rotate(0) translate(4 292)">
<title>executor/inc/container_request.hpp</title>
<polygon fill="white" stroke="transparent" points="-4,4 -4,-292 937,-292 937,4 -4,4"/>
<!-- Node1 -->
<g id="node1" class="node">
<title>Node1</title>
<g id="a_node1"><a xlink:title="Data structure for representing a container operation request.">
<polygon fill="#bfbfbf" stroke="black" points="195.5,-257.5 195.5,-287.5 320.5,-287.5 320.5,-257.5 195.5,-257.5"/>
<text text-anchor="start" x="203.5" y="-275.5" font-family="Helvetica,sans-Serif" font-size="10.00">executor/inc/container</text>
<text text-anchor="middle" x="258" y="-264.5" font-family="Helvetica,sans-Serif" font-size="10.00">_request.hpp</text>
</a>
</g>
</g>
<!-- Node2 -->
<g id="node2" class="node">
<title>Node2</title>
<g id="a_node2"><a xlink:href="container__service_8hpp.html" target="_top" xlink:title="Declares the ContainerServiceHandler class for business logic related to containers.">
<polygon fill="white" stroke="black" points="80,-190.5 80,-220.5 184,-220.5 184,-190.5 80,-190.5"/>
<text text-anchor="start" x="88" y="-208.5" font-family="Helvetica,sans-Serif" font-size="10.00">core/inc/container</text>
<text text-anchor="middle" x="132" y="-197.5" font-family="Helvetica,sans-Serif" font-size="10.00">_service.hpp</text>
</a>
</g>
</g>
<!-- Node1&#45;&gt;Node2 -->
<g id="edge1" class="edge">
<title>Node1&#45;&gt;Node2</title>
<path fill="none" stroke="midnightblue" d="M221.58,-252.71C201.71,-242.46 177.52,-229.98 159.29,-220.58"/>
<polygon fill="midnightblue" stroke="midnightblue" points="220.17,-255.92 230.66,-257.4 223.38,-249.7 220.17,-255.92"/>
</g>
<!-- Node5 -->
<g id="node5" class="node">
<title>Node5</title>
<g id="a_node5"><a xlink:href="request__executor_8hpp.html" target="_top" xlink:title="Declares the abstract RequestExecutor interface for executing requests.">
<polygon fill="white" stroke="black" points="383,-190.5 383,-220.5 499,-220.5 499,-190.5 383,-190.5"/>
<text text-anchor="start" x="391" y="-208.5" font-family="Helvetica,sans-Serif" font-size="10.00">executor/inc/request</text>
<text text-anchor="middle" x="441" y="-197.5" font-family="Helvetica,sans-Serif" font-size="10.00">_executor.hpp</text>
</a>
</g>
</g>
<!-- Node1&#45;&gt;Node5 -->
<g id="edge4" class="edge">
<title>Node1&#45;&gt;Node5</title>
<path fill="none" stroke="midnightblue" d="M307.4,-253.96C336.87,-243.48 373.81,-230.37 401.37,-220.58"/>
<polygon fill="midnightblue" stroke="midnightblue" points="305.96,-250.75 297.71,-257.4 308.3,-257.35 305.96,-250.75"/>
</g>
<!-- Node3 -->
<g id="node3" class="node">
<title>Node3</title>
<g id="a_node3"><a xlink:href="container__service_8cpp.html" target="_top" xlink:title="Implements the ContainerServiceHandler class for business logic related to containers.">
<polygon fill="white" stroke="black" points="0,-123.5 0,-153.5 104,-153.5 104,-123.5 0,-123.5"/>
<text text-anchor="start" x="8" y="-141.5" font-family="Helvetica,sans-Serif" font-size="10.00">core/src/container</text>
<text text-anchor="middle" x="52" y="-130.5" font-family="Helvetica,sans-Serif" font-size="10.00">_service.cpp</text>
</a>
</g>
</g>
<!-- Node2&#45;&gt;Node3 -->
<g id="edge2" class="edge">
<title>Node2&#45;&gt;Node3</title>
<path fill="none" stroke="midnightblue" d="M106.63,-183.88C94.47,-174.01 80.22,-162.43 69.32,-153.58"/>
<polygon fill="midnightblue" stroke="midnightblue" points="104.67,-186.81 114.64,-190.4 109.09,-181.37 104.67,-186.81"/>
</g>
<!-- Node4 -->
<g id="node4" class="node">
<title>Node4</title>
<g id="a_node4"><a xlink:href="json__request__executor_8cpp.html" target="_top" xlink:title="Implements the JsonRequestExecutorHandler class for executing JSON&#45;based requests.">
<polygon fill="white" stroke="black" points="33,-56.5 33,-86.5 175,-86.5 175,-56.5 33,-56.5"/>
<text text-anchor="start" x="41" y="-74.5" font-family="Helvetica,sans-Serif" font-size="10.00">executor/src/json_request</text>
<text text-anchor="middle" x="104" y="-63.5" font-family="Helvetica,sans-Serif" font-size="10.00">_executor.cpp</text>
</a>
</g>
</g>
<!-- Node2&#45;&gt;Node4 -->
<g id="edge3" class="edge">
<title>Node2&#45;&gt;Node4</title>
<path fill="none" stroke="midnightblue" d="M126.89,-180.39C121.05,-152.9 111.72,-108.89 106.97,-86.52"/>
<polygon fill="midnightblue" stroke="midnightblue" points="123.5,-181.32 129,-190.37 130.35,-179.87 123.5,-181.32"/>
</g>
<!-- Node6 -->
<g id="node6" class="node">
<title>Node6</title>
<g id="a_node6"><a xlink:href="dbus__consumer_8hpp.html" target="_top" xlink:title="Defines the DbusConsumer class for receiving and processing JSON requests over D&#45;Bus.">
<polygon fill="white" stroke="black" points="523.5,-129 523.5,-148 672.5,-148 672.5,-129 523.5,-129"/>
<text text-anchor="middle" x="598" y="-136" font-family="Helvetica,sans-Serif" font-size="10.00">api/inc/dbus_consumer.hpp</text>
</a>
</g>
</g>
<!-- Node5&#45;&gt;Node6 -->
<g id="edge5" class="edge">
<title>Node5&#45;&gt;Node6</title>
<path fill="none" stroke="midnightblue" d="M484.58,-186.46C514.91,-173.9 553.98,-157.72 577.45,-148.01"/>
<polygon fill="midnightblue" stroke="midnightblue" points="482.97,-183.34 475.07,-190.4 485.64,-189.8 482.97,-183.34"/>
</g>
<!-- Node9 -->
<g id="node9" class="node">
<title>Node9</title>
<g id="a_node9"><a xlink:href="mosquitto__mqtt__subscriber_8hpp.html" target="_top" xlink:title="Declares the MosquittoMqttSubscriber class for handling MQTT messages using Mosquitto.">
<polygon fill="white" stroke="black" points="710,-123.5 710,-153.5 840,-153.5 840,-123.5 710,-123.5"/>
<text text-anchor="start" x="718" y="-141.5" font-family="Helvetica,sans-Serif" font-size="10.00">api/inc/mosquitto_mqtt</text>
<text text-anchor="middle" x="775" y="-130.5" font-family="Helvetica,sans-Serif" font-size="10.00">_subscriber.hpp</text>
</a>
</g>
</g>
<!-- Node5&#45;&gt;Node9 -->
<g id="edge8" class="edge">
<title>Node5&#45;&gt;Node9</title>
<path fill="none" stroke="midnightblue" d="M509.1,-191.25C567.78,-179.83 651.94,-163.45 709.78,-152.19"/>
<polygon fill="midnightblue" stroke="midnightblue" points="508.33,-187.83 499.18,-193.18 509.66,-194.7 508.33,-187.83"/>
</g>
<!-- Node11 -->
<g id="node11" class="node">
<title>Node11</title>
<g id="a_node11"><a xlink:href="posix__message__queue__consumer_8hpp.html" target="_top" xlink:title="Declares the MessageQueueConsumer class for handling messages from a POSIX message queue.">
<polygon fill="white" stroke="black" points="377,-123.5 377,-153.5 505,-153.5 505,-123.5 377,-123.5"/>
<text text-anchor="start" x="385" y="-141.5" font-family="Helvetica,sans-Serif" font-size="10.00">api/inc/posix_message</text>
<text text-anchor="middle" x="441" y="-130.5" font-family="Helvetica,sans-Serif" font-size="10.00">_queue_consumer.hpp</text>
</a>
</g>
</g>
<!-- Node5&#45;&gt;Node11 -->
<g id="edge11" class="edge">
<title>Node5&#45;&gt;Node11</title>
<path fill="none" stroke="midnightblue" d="M441,-180.11C441,-171.15 441,-161.32 441,-153.58"/>
<polygon fill="midnightblue" stroke="midnightblue" points="437.5,-180.4 441,-190.4 444.5,-180.4 437.5,-180.4"/>
</g>
<!-- Node13 -->
<g id="node13" class="node">
<title>Node13</title>
<g id="a_node13"><a xlink:href="json__request__executor_8hpp.html" target="_top" xlink:title="Defines the JsonRequestExecutorHandler class for executing JSON&#45;based requests.">
<polygon fill="white" stroke="black" points="202,-123.5 202,-153.5 344,-153.5 344,-123.5 202,-123.5"/>
<text text-anchor="start" x="210" y="-141.5" font-family="Helvetica,sans-Serif" font-size="10.00">executor/inc/json_request</text>
<text text-anchor="middle" x="273" y="-130.5" font-family="Helvetica,sans-Serif" font-size="10.00">_executor.hpp</text>
</a>
</g>
</g>
<!-- Node5&#45;&gt;Node13 -->
<g id="edge14" class="edge">
<title>Node5&#45;&gt;Node13</title>
<path fill="none" stroke="midnightblue" d="M394.95,-186.68C368,-176.26 334.46,-163.28 309.38,-153.58"/>
<polygon fill="midnightblue" stroke="midnightblue" points="393.96,-190.05 404.55,-190.4 396.48,-183.52 393.96,-190.05"/>
</g>
<!-- Node7 -->
<g id="node7" class="node">
<title>Node7</title>
<g id="a_node7"><a xlink:href="dbus__consumer_8cpp.html" target="_top" xlink:title="Implements the DbusConsumer class for receiving and processing JSON requests over D&#45;Bus.">
<polygon fill="white" stroke="black" points="598.5,-62 598.5,-81 747.5,-81 747.5,-62 598.5,-62"/>
<text text-anchor="middle" x="673" y="-69" font-family="Helvetica,sans-Serif" font-size="10.00">api/src/dbus_consumer.cpp</text>
</a>
</g>
</g>
<!-- Node6&#45;&gt;Node7 -->
<g id="edge6" class="edge">
<title>Node6&#45;&gt;Node7</title>
<path fill="none" stroke="midnightblue" d="M616.05,-121.86C630.79,-109.08 651.09,-91.49 663.05,-81.13"/>
<polygon fill="midnightblue" stroke="midnightblue" points="613.38,-119.54 608.11,-128.73 617.96,-124.83 613.38,-119.54"/>
</g>
<!-- Node8 -->
<g id="node8" class="node">
<title>Node8</title>
<g id="a_node8"><a xlink:href="main_8cpp.html" target="_top" xlink:title="Entry point for the Container Manager application.">
<polygon fill="white" stroke="black" points="502,-0.5 502,-19.5 564,-19.5 564,-0.5 502,-0.5"/>
<text text-anchor="middle" x="533" y="-7.5" font-family="Helvetica,sans-Serif" font-size="10.00">main.cpp</text>
</a>
</g>
</g>
<!-- Node6&#45;&gt;Node8 -->
<g id="edge7" class="edge">
<title>Node6&#45;&gt;Node8</title>
<path fill="none" stroke="midnightblue" d="M588.96,-119.9C574.85,-92.44 548.11,-40.4 537.5,-19.76"/>
<polygon fill="midnightblue" stroke="midnightblue" points="585.85,-121.51 593.53,-128.81 592.08,-118.31 585.85,-121.51"/>
</g>
<!-- Node9&#45;&gt;Node8 -->
<g id="edge10" class="edge">
<title>Node9&#45;&gt;Node8</title>
<path fill="none" stroke="midnightblue" d="M776.24,-113.03C775.77,-94.83 771.97,-70.69 757,-56 730.03,-29.54 619.16,-17.54 564.19,-13.13"/>
<polygon fill="midnightblue" stroke="midnightblue" points="772.74,-113.19 776.18,-123.21 779.74,-113.23 772.74,-113.19"/>
</g>
<!-- Node10 -->
<g id="node10" class="node">
<title>Node10</title>
<g id="a_node10"><a xlink:href="mosquitto__mqtt__subscriber_8cpp.html" target="_top" xlink:title="Implements the MosquittoMqttSubscriber class for handling MQTT messages using Mosquitto.">
<polygon fill="white" stroke="black" points="803,-56.5 803,-86.5 933,-86.5 933,-56.5 803,-56.5"/>
<text text-anchor="start" x="811" y="-74.5" font-family="Helvetica,sans-Serif" font-size="10.00">api/src/mosquitto_mqtt</text>
<text text-anchor="middle" x="868" y="-63.5" font-family="Helvetica,sans-Serif" font-size="10.00">_subscriber.cpp</text>
</a>
</g>
</g>
<!-- Node9&#45;&gt;Node10 -->
<g id="edge9" class="edge">
<title>Node9&#45;&gt;Node10</title>
<path fill="none" stroke="midnightblue" d="M803.69,-117.45C817.99,-107.45 834.95,-95.6 847.86,-86.58"/>
<polygon fill="midnightblue" stroke="midnightblue" points="801.37,-114.8 795.18,-123.4 805.38,-120.54 801.37,-114.8"/>
</g>
<!-- Node11&#45;&gt;Node8 -->
<g id="edge13" class="edge">
<title>Node11&#45;&gt;Node8</title>
<path fill="none" stroke="midnightblue" d="M479.54,-118.2C492.19,-110.14 505.24,-99.66 514,-87 528.55,-65.97 531.98,-34.84 532.77,-19.79"/>
<polygon fill="midnightblue" stroke="midnightblue" points="477.67,-115.24 470.9,-123.39 481.28,-121.24 477.67,-115.24"/>
</g>
<!-- Node12 -->
<g id="node12" class="node">
<title>Node12</title>
<g id="a_node12"><a xlink:href="posix__message__queue__consumer_8cpp.html" target="_top" xlink:title="Implements the MessageQueueConsumer class for handling messages from a POSIX message queue.">
<polygon fill="white" stroke="black" points="377,-56.5 377,-86.5 505,-86.5 505,-56.5 377,-56.5"/>
<text text-anchor="start" x="385" y="-74.5" font-family="Helvetica,sans-Serif" font-size="10.00">api/src/posix_message</text>
<text text-anchor="middle" x="441" y="-63.5" font-family="Helvetica,sans-Serif" font-size="10.00">_queue_consumer.cpp</text>
</a>
</g>
</g>
<!-- Node11&#45;&gt;Node12 -->
<g id="edge12" class="edge">
<title>Node11&#45;&gt;Node12</title>
<path fill="none" stroke="midnightblue" d="M441,-113.11C441,-104.15 441,-94.32 441,-86.58"/>
<polygon fill="midnightblue" stroke="midnightblue" points="437.5,-113.4 441,-123.4 444.5,-113.4 437.5,-113.4"/>
</g>
<!-- Node13&#45;&gt;Node4 -->
<g id="edge18" class="edge">
<title>Node13&#45;&gt;Node4</title>
<path fill="none" stroke="midnightblue" d="M226.67,-119.68C199.57,-109.26 165.83,-96.28 140.6,-86.58"/>
<polygon fill="midnightblue" stroke="midnightblue" points="225.74,-123.07 236.33,-123.4 228.25,-116.54 225.74,-123.07"/>
</g>
<!-- Node13&#45;&gt;Node8 -->
<g id="edge19" class="edge">
<title>Node13&#45;&gt;Node8</title>
<path fill="none" stroke="midnightblue" d="M296.83,-116.6C323.62,-93.17 363.93,-58.16 368,-56 411.41,-32.97 467.65,-20.91 501.99,-15.26"/>
<polygon fill="midnightblue" stroke="midnightblue" points="294.23,-114.23 289.01,-123.45 298.84,-119.5 294.23,-114.23"/>
</g>
<!-- Node14 -->
<g id="node14" class="node">
<title>Node14</title>
<g id="a_node14"><a xlink:href="http__server_8hpp.html" target="_top" xlink:title="Defines the HttpServerHandler class for handling HTTP requests.">
<polygon fill="white" stroke="black" points="193,-62 193,-81 321,-81 321,-62 193,-62"/>
<text text-anchor="middle" x="257" y="-69" font-family="Helvetica,sans-Serif" font-size="10.00">api/inc/http_server.hpp</text>
</a>
</g>
</g>
<!-- Node13&#45;&gt;Node14 -->
<g id="edge15" class="edge">
<title>Node13&#45;&gt;Node14</title>
<path fill="none" stroke="midnightblue" d="M267.12,-113.6C264.33,-102.28 261.18,-89.46 259.14,-81.19"/>
<polygon fill="midnightblue" stroke="midnightblue" points="263.74,-114.52 269.53,-123.4 270.54,-112.85 263.74,-114.52"/>
</g>
<!-- Node14&#45;&gt;Node8 -->
<g id="edge17" class="edge">
<title>Node14&#45;&gt;Node8</title>
<path fill="none" stroke="midnightblue" d="M306.35,-59.86C362.94,-47.66 454.02,-28.03 501.66,-17.76"/>
<polygon fill="midnightblue" stroke="midnightblue" points="305.58,-56.45 296.54,-61.98 307.06,-63.29 305.58,-56.45"/>
</g>
<!-- Node15 -->
<g id="node15" class="node">
<title>Node15</title>
<g id="a_node15"><a xlink:href="http__server_8cpp.html" target="_top" xlink:title="Implements the HttpServerHandler class for handling HTTP requests.">
<polygon fill="white" stroke="black" points="193,-0.5 193,-19.5 321,-19.5 321,-0.5 193,-0.5"/>
<text text-anchor="middle" x="257" y="-7.5" font-family="Helvetica,sans-Serif" font-size="10.00">api/src/http_server.cpp</text>
</a>
</g>
</g>
<!-- Node14&#45;&gt;Node15 -->
<g id="edge16" class="edge">
<title>Node14&#45;&gt;Node15</title>
<path fill="none" stroke="midnightblue" d="M257,-51.82C257,-41 257,-27.9 257,-19.51"/>
<polygon fill="midnightblue" stroke="midnightblue" points="253.5,-51.98 257,-61.98 260.5,-51.98 253.5,-51.98"/>
</g>
</g>
</svg>
