<?xml version="1.0" encoding="UTF-8" standalone="no"?>
<!DOCTYPE svg PUBLIC "-//W3C//DTD SVG 1.1//EN"
 "http://www.w3.org/Graphics/SVG/1.1/DTD/svg11.dtd">
<!-- Generated by graphviz version 2.43.0 (0)
 -->
<!-- Title: executor/inc/container_request.hpp Pages: 1 -->
<svg width="1792pt" height="240pt"
 viewBox="0.00 0.00 1792.00 240.00" xmlns="http://www.w3.org/2000/svg" xmlns:xlink="http://www.w3.org/1999/xlink">
<g id="graph0" class="graph" transform="scale(1 1) rotate(0) translate(4 236)">
<title>executor/inc/container_request.hpp</title>
<polygon fill="white" stroke="transparent" points="-4,4 -4,-236 1788,-236 1788,4 -4,4"/>
<!-- Node1 -->
<g id="node1" class="node">
<title>Node1</title>
<g id="a_node1"><a xlink:title="Data structure for representing a container operation request.">
<polygon fill="#bfbfbf" stroke="black" points="1112,-201.5 1112,-231.5 1237,-231.5 1237,-201.5 1112,-201.5"/>
<text text-anchor="start" x="1120" y="-219.5" font-family="Helvetica,sans-Serif" font-size="10.00">executor/inc/container</text>
<text text-anchor="middle" x="1174.5" y="-208.5" font-family="Helvetica,sans-Serif" font-size="10.00">_request.hpp</text>
</a>
</g>
</g>
<!-- Node2 -->
<g id="node2" class="node">
<title>Node2</title>
<g id="a_node2"><a xlink:href="container__service_8hpp.html" target="_top" xlink:title="Declares the ContainerServiceHandler class for business logic related to containers.">
<polygon fill="white" stroke="black" points="56.5,-134.5 56.5,-164.5 160.5,-164.5 160.5,-134.5 56.5,-134.5"/>
<text text-anchor="start" x="64.5" y="-152.5" font-family="Helvetica,sans-Serif" font-size="10.00">core/inc/container</text>
<text text-anchor="middle" x="108.5" y="-141.5" font-family="Helvetica,sans-Serif" font-size="10.00">_service.hpp</text>
</a>
</g>
</g>
<!-- Node1&#45;&gt;Node2 -->
<g id="edge1" class="edge">
<title>Node1&#45;&gt;Node2</title>
<path fill="none" stroke="midnightblue" d="M1101.58,-211.05C899.36,-198.72 334.93,-164.31 160.52,-153.67"/>
<polygon fill="midnightblue" stroke="midnightblue" points="1101.6,-214.56 1111.8,-211.68 1102.03,-207.57 1101.6,-214.56"/>
</g>
<!-- Node3 -->
<g id="node3" class="node">
<title>Node3</title>
<g id="a_node3"><a xlink:href="container__service_8cpp.html" target="_top" xlink:title="Implements the ContainerServiceHandler class for business logic related to containers.">
<polygon fill="white" stroke="black" points="96.5,-67.5 96.5,-97.5 200.5,-97.5 200.5,-67.5 96.5,-67.5"/>
<text text-anchor="start" x="104.5" y="-85.5" font-family="Helvetica,sans-Serif" font-size="10.00">core/src/container</text>
<text text-anchor="middle" x="148.5" y="-74.5" font-family="Helvetica,sans-Serif" font-size="10.00">_service.cpp</text>
</a>
</g>
</g>
<!-- Node1&#45;&gt;Node3 -->
<g id="edge5" class="edge">
<title>Node1&#45;&gt;Node3</title>
<path fill="none" stroke="midnightblue" d="M1101.66,-210.03C940.03,-197.15 539.59,-161.14 209.5,-98 206.61,-97.45 203.66,-96.85 200.68,-96.22"/>
<polygon fill="midnightblue" stroke="midnightblue" points="1101.71,-213.54 1111.95,-210.84 1102.26,-206.57 1101.71,-213.54"/>
</g>
<!-- Node6 -->
<g id="node6" class="node">
<title>Node6</title>
<g id="a_node6"><a xlink:href="request__executor_8hpp.html" target="_top" xlink:title="Declares the abstract RequestExecutor interface for executing requests.">
<polygon fill="white" stroke="black" points="678.5,-134.5 678.5,-164.5 794.5,-164.5 794.5,-134.5 678.5,-134.5"/>
<text text-anchor="start" x="686.5" y="-152.5" font-family="Helvetica,sans-Serif" font-size="10.00">executor/inc/request</text>
<text text-anchor="middle" x="736.5" y="-141.5" font-family="Helvetica,sans-Serif" font-size="10.00">_executor.hpp</text>
</a>
</g>
</g>
<!-- Node1&#45;&gt;Node6 -->
<g id="edge6" class="edge">
<title>Node1&#45;&gt;Node6</title>
<path fill="none" stroke="midnightblue" d="M1101.78,-204.71C1015.61,-191.92 873.79,-170.87 794.59,-159.12"/>
<polygon fill="midnightblue" stroke="midnightblue" points="1101.34,-208.18 1111.75,-206.19 1102.37,-201.26 1101.34,-208.18"/>
</g>
<!-- Node18 -->
<g id="node18" class="node">
<title>Node18</title>
<g id="a_node18"><a xlink:href="command__factory_8hpp.html" target="_top" xlink:title="Declares the CommandFactory class for creating command objects based on container requests.">
<polygon fill="white" stroke="black" points="973.5,-134.5 973.5,-164.5 1097.5,-164.5 1097.5,-134.5 973.5,-134.5"/>
<text text-anchor="start" x="981.5" y="-152.5" font-family="Helvetica,sans-Serif" font-size="10.00">runtime/inc/command</text>
<text text-anchor="middle" x="1035.5" y="-141.5" font-family="Helvetica,sans-Serif" font-size="10.00">_factory.hpp</text>
</a>
</g>
</g>
<!-- Node1&#45;&gt;Node18 -->
<g id="edge20" class="edge">
<title>Node1&#45;&gt;Node18</title>
<path fill="none" stroke="midnightblue" d="M1135.22,-197.13C1113.13,-186.8 1085.99,-174.11 1065.6,-164.58"/>
<polygon fill="midnightblue" stroke="midnightblue" points="1133.8,-200.33 1144.34,-201.4 1136.76,-193.99 1133.8,-200.33"/>
</g>
<!-- Node19 -->
<g id="node19" class="node">
<title>Node19</title>
<g id="a_node19"><a xlink:href="command__factory_8cpp.html" target="_top" xlink:title="Implements the CommandFactory class for creating command objects based on container requests.">
<polygon fill="white" stroke="black" points="1266.5,-67.5 1266.5,-97.5 1390.5,-97.5 1390.5,-67.5 1266.5,-67.5"/>
<text text-anchor="start" x="1274.5" y="-85.5" font-family="Helvetica,sans-Serif" font-size="10.00">runtime/src/command</text>
<text text-anchor="middle" x="1328.5" y="-74.5" font-family="Helvetica,sans-Serif" font-size="10.00">_factory.cpp</text>
</a>
</g>
</g>
<!-- Node1&#45;&gt;Node19 -->
<g id="edge35" class="edge">
<title>Node1&#45;&gt;Node19</title>
<path fill="none" stroke="midnightblue" d="M1203.1,-195.43C1215.48,-186.45 1229.97,-175.53 1242.5,-165 1269.12,-142.64 1298.07,-114.28 1314.68,-97.59"/>
<polygon fill="midnightblue" stroke="midnightblue" points="1201,-192.63 1194.92,-201.31 1205.08,-198.31 1201,-192.63"/>
</g>
<!-- Node20 -->
<g id="node20" class="node">
<title>Node20</title>
<g id="a_node20"><a xlink:href="docker__api__commands_8hpp.html" target="_top" xlink:title="Declares command classes for managing containers via the Docker HTTP API over a Unix socket.">
<polygon fill="white" stroke="black" points="1116,-134.5 1116,-164.5 1233,-164.5 1233,-134.5 1116,-134.5"/>
<text text-anchor="start" x="1124" y="-152.5" font-family="Helvetica,sans-Serif" font-size="10.00">runtime/inc/docker</text>
<text text-anchor="middle" x="1174.5" y="-141.5" font-family="Helvetica,sans-Serif" font-size="10.00">_api_commands.hpp</text>
</a>
</g>
</g>
<!-- Node1&#45;&gt;Node20 -->
<g id="edge23" class="edge">
<title>Node1&#45;&gt;Node20</title>
<path fill="none" stroke="midnightblue" d="M1174.5,-191.11C1174.5,-182.15 1174.5,-172.32 1174.5,-164.58"/>
<polygon fill="midnightblue" stroke="midnightblue" points="1171,-191.4 1174.5,-201.4 1178,-191.4 1171,-191.4"/>
</g>
<!-- Node22 -->
<g id="node22" class="node">
<title>Node22</title>
<g id="a_node22"><a xlink:href="docker__commands_8hpp.html" target="_top" xlink:title="Declares Docker command classes for container operations.">
<polygon fill="white" stroke="black" points="1290,-134.5 1290,-164.5 1397,-164.5 1397,-134.5 1290,-134.5"/>
<text text-anchor="start" x="1298" y="-152.5" font-family="Helvetica,sans-Serif" font-size="10.00">runtime/inc/docker</text>
<text text-anchor="middle" x="1343.5" y="-141.5" font-family="Helvetica,sans-Serif" font-size="10.00">_commands.hpp</text>
</a>
</g>
</g>
<!-- Node1&#45;&gt;Node22 -->
<g id="edge26" class="edge">
<title>Node1&#45;&gt;Node22</title>
<path fill="none" stroke="midnightblue" d="M1220.83,-197.68C1247.93,-187.26 1281.67,-174.28 1306.9,-164.58"/>
<polygon fill="midnightblue" stroke="midnightblue" points="1219.25,-194.54 1211.17,-201.4 1221.76,-201.07 1219.25,-194.54"/>
</g>
<!-- Node24 -->
<g id="node24" class="node">
<title>Node24</title>
<g id="a_node24"><a xlink:href="podman__api__commands_8hpp.html" target="_top" xlink:title="Declares command classes for managing containers via the Podman HTTP API over a Unix socket.">
<polygon fill="white" stroke="black" points="1415,-134.5 1415,-164.5 1532,-164.5 1532,-134.5 1415,-134.5"/>
<text text-anchor="start" x="1423" y="-152.5" font-family="Helvetica,sans-Serif" font-size="10.00">runtime/inc/podman</text>
<text text-anchor="middle" x="1473.5" y="-141.5" font-family="Helvetica,sans-Serif" font-size="10.00">_api_commands.hpp</text>
</a>
</g>
</g>
<!-- Node1&#45;&gt;Node24 -->
<g id="edge29" class="edge">
<title>Node1&#45;&gt;Node24</title>
<path fill="none" stroke="midnightblue" d="M1247.25,-199.68C1298.76,-188.49 1366.96,-173.66 1414.96,-163.23"/>
<polygon fill="midnightblue" stroke="midnightblue" points="1246.21,-196.33 1237.18,-201.87 1247.7,-203.17 1246.21,-196.33"/>
</g>
<!-- Node26 -->
<g id="node26" class="node">
<title>Node26</title>
<g id="a_node26"><a xlink:href="podman__commands_8hpp.html" target="_top" xlink:title="Declares Podman command classes for container operations.">
<polygon fill="white" stroke="black" points="1550,-134.5 1550,-164.5 1665,-164.5 1665,-134.5 1550,-134.5"/>
<text text-anchor="start" x="1558" y="-152.5" font-family="Helvetica,sans-Serif" font-size="10.00">runtime/inc/podman</text>
<text text-anchor="middle" x="1607.5" y="-141.5" font-family="Helvetica,sans-Serif" font-size="10.00">_commands.hpp</text>
</a>
</g>
</g>
<!-- Node1&#45;&gt;Node26 -->
<g id="edge32" class="edge">
<title>Node1&#45;&gt;Node26</title>
<path fill="none" stroke="midnightblue" d="M1247.25,-207.22C1321.49,-198.36 1439.91,-183.12 1541.5,-165 1544.27,-164.51 1547.1,-163.98 1549.96,-163.42"/>
<polygon fill="midnightblue" stroke="midnightblue" points="1246.59,-203.77 1237.08,-208.43 1247.42,-210.72 1246.59,-203.77"/>
</g>
<!-- Node2&#45;&gt;Node3 -->
<g id="edge2" class="edge">
<title>Node2&#45;&gt;Node3</title>
<path fill="none" stroke="midnightblue" d="M122.43,-125.87C128.22,-116.46 134.76,-105.83 139.84,-97.58"/>
<polygon fill="midnightblue" stroke="midnightblue" points="119.44,-124.05 117.18,-134.4 125.4,-127.71 119.44,-124.05"/>
</g>
<!-- Node4 -->
<g id="node4" class="node">
<title>Node4</title>
<g id="a_node4"><a xlink:href="json__request__executor_8cpp.html" target="_top" xlink:title="Implements the JsonRequestExecutorHandler class for executing JSON&#45;based requests.">
<polygon fill="white" stroke="black" points="211.5,-0.5 211.5,-30.5 353.5,-30.5 353.5,-0.5 211.5,-0.5"/>
<text text-anchor="start" x="219.5" y="-18.5" font-family="Helvetica,sans-Serif" font-size="10.00">executor/src/json_request</text>
<text text-anchor="middle" x="282.5" y="-7.5" font-family="Helvetica,sans-Serif" font-size="10.00">_executor.cpp</text>
</a>
</g>
</g>
<!-- Node2&#45;&gt;Node4 -->
<g id="edge3" class="edge">
<title>Node2&#45;&gt;Node4</title>
<path fill="none" stroke="midnightblue" d="M92.79,-125.32C83.01,-107.72 74.52,-83.77 87.5,-67 102.83,-47.19 162.06,-33.74 211.26,-25.73"/>
<polygon fill="midnightblue" stroke="midnightblue" points="90.08,-127.59 98.23,-134.35 96.07,-123.98 90.08,-127.59"/>
</g>
<!-- Node5 -->
<g id="node5" class="node">
<title>Node5</title>
<g id="a_node5"><a xlink:href="protobuf__request__executor_8cpp.html" target="_top" xlink:title="Implements the ProtoRequestExecutorHandler class for handling Protobuf&#45;based requests.">
<polygon fill="white" stroke="black" points="0,-0.5 0,-30.5 127,-30.5 127,-0.5 0,-0.5"/>
<text text-anchor="start" x="8" y="-18.5" font-family="Helvetica,sans-Serif" font-size="10.00">executor/src/protobuf</text>
<text text-anchor="middle" x="63.5" y="-7.5" font-family="Helvetica,sans-Serif" font-size="10.00">_request_executor.cpp</text>
</a>
</g>
</g>
<!-- Node2&#45;&gt;Node5 -->
<g id="edge4" class="edge">
<title>Node2&#45;&gt;Node5</title>
<path fill="none" stroke="midnightblue" d="M78.25,-128.02C68.82,-119.9 59.57,-109.68 54.5,-98 44.92,-75.93 51.91,-47.48 57.77,-30.69"/>
<polygon fill="midnightblue" stroke="midnightblue" points="76.14,-130.81 86.13,-134.35 80.52,-125.36 76.14,-130.81"/>
</g>
<!-- Node7 -->
<g id="node7" class="node">
<title>Node7</title>
<g id="a_node7"><a xlink:href="dbus__consumer_8hpp.html" target="_top" xlink:title="Defines the DBusConsumer class for receiving and processing JSON/Protobuf requests over D&#45;Bus.">
<polygon fill="white" stroke="black" points="819,-73 819,-92 968,-92 968,-73 819,-73"/>
<text text-anchor="middle" x="893.5" y="-80" font-family="Helvetica,sans-Serif" font-size="10.00">api/inc/dbus_consumer.hpp</text>
</a>
</g>
</g>
<!-- Node6&#45;&gt;Node7 -->
<g id="edge7" class="edge">
<title>Node6&#45;&gt;Node7</title>
<path fill="none" stroke="midnightblue" d="M780.08,-130.46C810.41,-117.9 849.48,-101.72 872.95,-92.01"/>
<polygon fill="midnightblue" stroke="midnightblue" points="778.47,-127.34 770.57,-134.4 781.14,-133.8 778.47,-127.34"/>
</g>
<!-- Node9 -->
<g id="node9" class="node">
<title>Node9</title>
<g id="a_node9"><a xlink:href="http__server_8hpp.html" target="_top" xlink:title="Defines the HttpServerHandler class for handling HTTP requests.">
<polygon fill="white" stroke="black" points="986.5,-73 986.5,-92 1114.5,-92 1114.5,-73 986.5,-73"/>
<text text-anchor="middle" x="1050.5" y="-80" font-family="Helvetica,sans-Serif" font-size="10.00">api/inc/http_server.hpp</text>
</a>
</g>
</g>
<!-- Node6&#45;&gt;Node9 -->
<g id="edge9" class="edge">
<title>Node6&#45;&gt;Node9</title>
<path fill="none" stroke="midnightblue" d="M804.95,-134.33C867.2,-121.44 957.03,-102.85 1009.02,-92.09"/>
<polygon fill="midnightblue" stroke="midnightblue" points="803.91,-130.97 794.83,-136.43 805.33,-137.83 803.91,-130.97"/>
</g>
<!-- Node11 -->
<g id="node11" class="node">
<title>Node11</title>
<g id="a_node11"><a xlink:href="mosquitto__mqtt__subscriber_8hpp.html" target="_top" xlink:title="Declares the MosquittoMqttSubscriber class for handling MQTT messages using Mosquitto.">
<polygon fill="white" stroke="black" points="524.5,-67.5 524.5,-97.5 654.5,-97.5 654.5,-67.5 524.5,-67.5"/>
<text text-anchor="start" x="532.5" y="-85.5" font-family="Helvetica,sans-Serif" font-size="10.00">api/inc/mosquitto_mqtt</text>
<text text-anchor="middle" x="589.5" y="-74.5" font-family="Helvetica,sans-Serif" font-size="10.00">_subscriber.hpp</text>
</a>
</g>
</g>
<!-- Node6&#45;&gt;Node11 -->
<g id="edge11" class="edge">
<title>Node6&#45;&gt;Node11</title>
<path fill="none" stroke="midnightblue" d="M695.27,-130.27C671.86,-119.92 642.99,-107.15 621.33,-97.58"/>
<polygon fill="midnightblue" stroke="midnightblue" points="694.04,-133.55 704.6,-134.4 696.87,-127.15 694.04,-133.55"/>
</g>
<!-- Node13 -->
<g id="node13" class="node">
<title>Node13</title>
<g id="a_node13"><a xlink:href="posix__message__queue__consumer_8hpp.html" target="_top" xlink:title="Declares the MessageQueueConsumer class for handling messages from a POSIX message queue.">
<polygon fill="white" stroke="black" points="672.5,-67.5 672.5,-97.5 800.5,-97.5 800.5,-67.5 672.5,-67.5"/>
<text text-anchor="start" x="680.5" y="-85.5" font-family="Helvetica,sans-Serif" font-size="10.00">api/inc/posix_message</text>
<text text-anchor="middle" x="736.5" y="-74.5" font-family="Helvetica,sans-Serif" font-size="10.00">_queue_consumer.hpp</text>
</a>
</g>
</g>
<!-- Node6&#45;&gt;Node13 -->
<g id="edge13" class="edge">
<title>Node6&#45;&gt;Node13</title>
<path fill="none" stroke="midnightblue" d="M736.5,-124.11C736.5,-115.15 736.5,-105.32 736.5,-97.58"/>
<polygon fill="midnightblue" stroke="midnightblue" points="733,-124.4 736.5,-134.4 740,-124.4 733,-124.4"/>
</g>
<!-- Node15 -->
<g id="node15" class="node">
<title>Node15</title>
<g id="a_node15"><a xlink:href="json__request__executor_8hpp.html" target="_top" xlink:title="Defines the JsonRequestExecutorHandler class for executing JSON&#45;based requests.">
<polygon fill="white" stroke="black" points="364.5,-67.5 364.5,-97.5 506.5,-97.5 506.5,-67.5 364.5,-67.5"/>
<text text-anchor="start" x="372.5" y="-85.5" font-family="Helvetica,sans-Serif" font-size="10.00">executor/inc/json_request</text>
<text text-anchor="middle" x="435.5" y="-74.5" font-family="Helvetica,sans-Serif" font-size="10.00">_executor.hpp</text>
</a>
</g>
</g>
<!-- Node6&#45;&gt;Node15 -->
<g id="edge15" class="edge">
<title>Node6&#45;&gt;Node15</title>
<path fill="none" stroke="midnightblue" d="M668.64,-133.85C618.29,-122.97 550.04,-108.24 500.41,-97.52"/>
<polygon fill="midnightblue" stroke="midnightblue" points="667.95,-137.28 678.46,-135.97 669.43,-130.44 667.95,-137.28"/>
</g>
<!-- Node17 -->
<g id="node17" class="node">
<title>Node17</title>
<g id="a_node17"><a xlink:href="protobuf__request__executor_8hpp.html" target="_top" xlink:title="Defines the ProtoRequestExecutorHandler class for handling Protobuf&#45;based requests.">
<polygon fill="white" stroke="black" points="218.5,-67.5 218.5,-97.5 346.5,-97.5 346.5,-67.5 218.5,-67.5"/>
<text text-anchor="start" x="226.5" y="-85.5" font-family="Helvetica,sans-Serif" font-size="10.00">executor/inc/protobuf</text>
<text text-anchor="middle" x="282.5" y="-74.5" font-family="Helvetica,sans-Serif" font-size="10.00">_request_executor.hpp</text>
</a>
</g>
</g>
<!-- Node6&#45;&gt;Node17 -->
<g id="edge18" class="edge">
<title>Node6&#45;&gt;Node17</title>
<path fill="none" stroke="midnightblue" d="M668.26,-140.8C591.87,-131.86 464.49,-116.03 355.5,-98 352.57,-97.52 349.57,-97 346.55,-96.46"/>
<polygon fill="midnightblue" stroke="midnightblue" points="667.9,-144.28 678.23,-141.96 668.71,-137.32 667.9,-144.28"/>
</g>
<!-- Node8 -->
<g id="node8" class="node">
<title>Node8</title>
<g id="a_node8"><a xlink:href="dbus__consumer_8cpp.html" target="_top" xlink:title="Implements the DBusConsumer class for receiving and processing JSON/Protobuf requests over D&#45;Bus.">
<polygon fill="white" stroke="black" points="819,-6 819,-25 968,-25 968,-6 819,-6"/>
<text text-anchor="middle" x="893.5" y="-13" font-family="Helvetica,sans-Serif" font-size="10.00">api/src/dbus_consumer.cpp</text>
</a>
</g>
</g>
<!-- Node7&#45;&gt;Node8 -->
<g id="edge8" class="edge">
<title>Node7&#45;&gt;Node8</title>
<path fill="none" stroke="midnightblue" d="M893.5,-62.54C893.5,-50.17 893.5,-34.62 893.5,-25.13"/>
<polygon fill="midnightblue" stroke="midnightblue" points="890,-62.73 893.5,-72.73 897,-62.73 890,-62.73"/>
</g>
<!-- Node10 -->
<g id="node10" class="node">
<title>Node10</title>
<g id="a_node10"><a xlink:href="http__server_8cpp.html" target="_top" xlink:title="Implements the HttpServerHandler class for handling HTTP requests.">
<polygon fill="white" stroke="black" points="986.5,-6 986.5,-25 1114.5,-25 1114.5,-6 986.5,-6"/>
<text text-anchor="middle" x="1050.5" y="-13" font-family="Helvetica,sans-Serif" font-size="10.00">api/src/http_server.cpp</text>
</a>
</g>
</g>
<!-- Node9&#45;&gt;Node10 -->
<g id="edge10" class="edge">
<title>Node9&#45;&gt;Node10</title>
<path fill="none" stroke="midnightblue" d="M1050.5,-62.54C1050.5,-50.17 1050.5,-34.62 1050.5,-25.13"/>
<polygon fill="midnightblue" stroke="midnightblue" points="1047,-62.73 1050.5,-72.73 1054,-62.73 1047,-62.73"/>
</g>
<!-- Node12 -->
<g id="node12" class="node">
<title>Node12</title>
<g id="a_node12"><a xlink:href="mosquitto__mqtt__subscriber_8cpp.html" target="_top" xlink:title="Implements the MosquittoMqttSubscriber class for handling MQTT messages using Mosquitto.">
<polygon fill="white" stroke="black" points="524.5,-0.5 524.5,-30.5 654.5,-30.5 654.5,-0.5 524.5,-0.5"/>
<text text-anchor="start" x="532.5" y="-18.5" font-family="Helvetica,sans-Serif" font-size="10.00">api/src/mosquitto_mqtt</text>
<text text-anchor="middle" x="589.5" y="-7.5" font-family="Helvetica,sans-Serif" font-size="10.00">_subscriber.cpp</text>
</a>
</g>
</g>
<!-- Node11&#45;&gt;Node12 -->
<g id="edge12" class="edge">
<title>Node11&#45;&gt;Node12</title>
<path fill="none" stroke="midnightblue" d="M589.5,-57.11C589.5,-48.15 589.5,-38.32 589.5,-30.58"/>
<polygon fill="midnightblue" stroke="midnightblue" points="586,-57.4 589.5,-67.4 593,-57.4 586,-57.4"/>
</g>
<!-- Node14 -->
<g id="node14" class="node">
<title>Node14</title>
<g id="a_node14"><a xlink:href="posix__message__queue__consumer_8cpp.html" target="_top" xlink:title="Implements the MessageQueueConsumer class for handling messages from a POSIX message queue.">
<polygon fill="white" stroke="black" points="672.5,-0.5 672.5,-30.5 800.5,-30.5 800.5,-0.5 672.5,-0.5"/>
<text text-anchor="start" x="680.5" y="-18.5" font-family="Helvetica,sans-Serif" font-size="10.00">api/src/posix_message</text>
<text text-anchor="middle" x="736.5" y="-7.5" font-family="Helvetica,sans-Serif" font-size="10.00">_queue_consumer.cpp</text>
</a>
</g>
</g>
<!-- Node13&#45;&gt;Node14 -->
<g id="edge14" class="edge">
<title>Node13&#45;&gt;Node14</title>
<path fill="none" stroke="midnightblue" d="M736.5,-57.11C736.5,-48.15 736.5,-38.32 736.5,-30.58"/>
<polygon fill="midnightblue" stroke="midnightblue" points="733,-57.4 736.5,-67.4 740,-57.4 733,-57.4"/>
</g>
<!-- Node15&#45;&gt;Node4 -->
<g id="edge16" class="edge">
<title>Node15&#45;&gt;Node4</title>
<path fill="none" stroke="midnightblue" d="M392.91,-63.41C368.48,-53.03 338.28,-40.2 315.63,-30.58"/>
<polygon fill="midnightblue" stroke="midnightblue" points="391.73,-66.71 402.3,-67.4 394.47,-60.26 391.73,-66.71"/>
</g>
<!-- Node16 -->
<g id="node16" class="node">
<title>Node16</title>
<g id="a_node16"><a xlink:href="main_8cpp.html" target="_top" xlink:title="Entry point for the Container Manager application.">
<polygon fill="white" stroke="black" points="404.5,-6 404.5,-25 466.5,-25 466.5,-6 404.5,-6"/>
<text text-anchor="middle" x="435.5" y="-13" font-family="Helvetica,sans-Serif" font-size="10.00">main.cpp</text>
</a>
</g>
</g>
<!-- Node15&#45;&gt;Node16 -->
<g id="edge17" class="edge">
<title>Node15&#45;&gt;Node16</title>
<path fill="none" stroke="midnightblue" d="M435.5,-57.25C435.5,-46.02 435.5,-33.38 435.5,-25.19"/>
<polygon fill="midnightblue" stroke="midnightblue" points="432,-57.4 435.5,-67.4 439,-57.4 432,-57.4"/>
</g>
<!-- Node17&#45;&gt;Node5 -->
<g id="edge19" class="edge">
<title>Node17&#45;&gt;Node5</title>
<path fill="none" stroke="midnightblue" d="M225.49,-64.58C189.92,-54.02 144.67,-40.59 111.04,-30.61"/>
<polygon fill="midnightblue" stroke="midnightblue" points="224.67,-67.99 235.25,-67.48 226.66,-61.28 224.67,-67.99"/>
</g>
<!-- Node18&#45;&gt;Node3 -->
<g id="edge21" class="edge">
<title>Node18&#45;&gt;Node3</title>
<path fill="none" stroke="midnightblue" d="M963.34,-143.95C917.55,-141.08 857.05,-137.3 803.5,-134 539.52,-117.75 471.13,-136.73 209.5,-98 206.59,-97.57 203.62,-97.07 200.63,-96.52"/>
<polygon fill="midnightblue" stroke="midnightblue" points="963.27,-147.46 973.47,-144.59 963.71,-140.47 963.27,-147.46"/>
</g>
<!-- Node18&#45;&gt;Node19 -->
<g id="edge22" class="edge">
<title>Node18&#45;&gt;Node19</title>
<path fill="none" stroke="midnightblue" d="M1107.49,-132.53C1156.22,-121.72 1219.96,-107.58 1266.45,-97.26"/>
<polygon fill="midnightblue" stroke="midnightblue" points="1106.64,-129.13 1097.64,-134.72 1108.16,-135.97 1106.64,-129.13"/>
</g>
<!-- Node20&#45;&gt;Node19 -->
<g id="edge24" class="edge">
<title>Node20&#45;&gt;Node19</title>
<path fill="none" stroke="midnightblue" d="M1217.37,-130.41C1241.95,-120.03 1272.36,-107.2 1295.15,-97.58"/>
<polygon fill="midnightblue" stroke="midnightblue" points="1215.77,-127.28 1207.92,-134.4 1218.49,-133.73 1215.77,-127.28"/>
</g>
<!-- Node21 -->
<g id="node21" class="node">
<title>Node21</title>
<g id="a_node21"><a xlink:href="docker__api__commands_8cpp.html" target="_top" xlink:title="Implements Docker API command classes for managing containers via the Docker HTTP API over a Unix soc...">
<polygon fill="white" stroke="black" points="1132.5,-67.5 1132.5,-97.5 1248.5,-97.5 1248.5,-67.5 1132.5,-67.5"/>
<text text-anchor="start" x="1140.5" y="-85.5" font-family="Helvetica,sans-Serif" font-size="10.00">runtime/src/docker</text>
<text text-anchor="middle" x="1190.5" y="-74.5" font-family="Helvetica,sans-Serif" font-size="10.00">_api_commands.cpp</text>
</a>
</g>
</g>
<!-- Node20&#45;&gt;Node21 -->
<g id="edge25" class="edge">
<title>Node20&#45;&gt;Node21</title>
<path fill="none" stroke="midnightblue" d="M1180.43,-124.4C1182.66,-115.37 1185.11,-105.41 1187.04,-97.58"/>
<polygon fill="midnightblue" stroke="midnightblue" points="1176.96,-123.85 1177.97,-134.4 1183.76,-125.52 1176.96,-123.85"/>
</g>
<!-- Node22&#45;&gt;Node19 -->
<g id="edge27" class="edge">
<title>Node22&#45;&gt;Node19</title>
<path fill="none" stroke="midnightblue" d="M1337.94,-124.4C1335.85,-115.37 1333.56,-105.41 1331.75,-97.58"/>
<polygon fill="midnightblue" stroke="midnightblue" points="1334.59,-125.44 1340.25,-134.4 1341.41,-123.87 1334.59,-125.44"/>
</g>
<!-- Node23 -->
<g id="node23" class="node">
<title>Node23</title>
<g id="a_node23"><a xlink:href="docker__commands_8cpp.html" target="_top" xlink:title="Implements Docker command classes for container operations.">
<polygon fill="white" stroke="black" points="1409,-67.5 1409,-97.5 1516,-97.5 1516,-67.5 1409,-67.5"/>
<text text-anchor="start" x="1417" y="-85.5" font-family="Helvetica,sans-Serif" font-size="10.00">runtime/src/docker</text>
<text text-anchor="middle" x="1462.5" y="-74.5" font-family="Helvetica,sans-Serif" font-size="10.00">_commands.cpp</text>
</a>
</g>
</g>
<!-- Node22&#45;&gt;Node23 -->
<g id="edge28" class="edge">
<title>Node22&#45;&gt;Node23</title>
<path fill="none" stroke="midnightblue" d="M1378.15,-129.57C1396.87,-119.35 1419.59,-106.94 1436.73,-97.58"/>
<polygon fill="midnightblue" stroke="midnightblue" points="1376.42,-126.53 1369.32,-134.4 1379.78,-132.67 1376.42,-126.53"/>
</g>
<!-- Node24&#45;&gt;Node19 -->
<g id="edge30" class="edge">
<title>Node24&#45;&gt;Node19</title>
<path fill="none" stroke="midnightblue" d="M1432.83,-130.27C1409.74,-119.92 1381.26,-107.15 1359.9,-97.58"/>
<polygon fill="midnightblue" stroke="midnightblue" points="1431.48,-133.5 1442.04,-134.4 1434.34,-127.11 1431.48,-133.5"/>
</g>
<!-- Node25 -->
<g id="node25" class="node">
<title>Node25</title>
<g id="a_node25"><a xlink:href="podman__api__commands_8cpp.html" target="_top" xlink:title="Implements Podman API command classes for managing containers via the Podman HTTP API over a Unix soc...">
<polygon fill="white" stroke="black" points="1534.5,-67.5 1534.5,-97.5 1650.5,-97.5 1650.5,-67.5 1534.5,-67.5"/>
<text text-anchor="start" x="1542.5" y="-85.5" font-family="Helvetica,sans-Serif" font-size="10.00">runtime/src/podman</text>
<text text-anchor="middle" x="1592.5" y="-74.5" font-family="Helvetica,sans-Serif" font-size="10.00">_api_commands.cpp</text>
</a>
</g>
</g>
<!-- Node24&#45;&gt;Node25 -->
<g id="edge31" class="edge">
<title>Node24&#45;&gt;Node25</title>
<path fill="none" stroke="midnightblue" d="M1508.15,-129.57C1526.87,-119.35 1549.59,-106.94 1566.73,-97.58"/>
<polygon fill="midnightblue" stroke="midnightblue" points="1506.42,-126.53 1499.32,-134.4 1509.78,-132.67 1506.42,-126.53"/>
</g>
<!-- Node26&#45;&gt;Node19 -->
<g id="edge33" class="edge">
<title>Node26&#45;&gt;Node19</title>
<path fill="none" stroke="midnightblue" d="M1539.78,-132.72C1493.63,-121.97 1433.09,-107.87 1388.64,-97.51"/>
<polygon fill="midnightblue" stroke="midnightblue" points="1539.16,-136.17 1549.69,-135.03 1540.75,-129.35 1539.16,-136.17"/>
</g>
<!-- Node27 -->
<g id="node27" class="node">
<title>Node27</title>
<g id="a_node27"><a xlink:href="podman__commands_8cpp.html" target="_top" xlink:title="Implements Podman command classes for container operations.">
<polygon fill="white" stroke="black" points="1669,-67.5 1669,-97.5 1784,-97.5 1784,-67.5 1669,-67.5"/>
<text text-anchor="start" x="1677" y="-85.5" font-family="Helvetica,sans-Serif" font-size="10.00">runtime/src/podman</text>
<text text-anchor="middle" x="1726.5" y="-74.5" font-family="Helvetica,sans-Serif" font-size="10.00">_commands.cpp</text>
</a>
</g>
</g>
<!-- Node26&#45;&gt;Node27 -->
<g id="edge34" class="edge">
<title>Node26&#45;&gt;Node27</title>
<path fill="none" stroke="midnightblue" d="M1642.15,-129.57C1660.87,-119.35 1683.59,-106.94 1700.73,-97.58"/>
<polygon fill="midnightblue" stroke="midnightblue" points="1640.42,-126.53 1633.32,-134.4 1643.78,-132.67 1640.42,-126.53"/>
</g>
</g>
</svg>
