<?xml version="1.0" encoding="UTF-8" standalone="no"?>
<!DOCTYPE svg PUBLIC "-//W3C//DTD SVG 1.1//EN"
 "http://www.w3.org/Graphics/SVG/1.1/DTD/svg11.dtd">
<!-- Generated by graphviz version 2.43.0 (0)
 -->
<!-- Title: executor/proto/generated/container_manager.grpc.pb.cc Pages: 1 -->
<svg width="2462pt" height="240pt"
 viewBox="0.00 0.00 2461.50 240.00" xmlns="http://www.w3.org/2000/svg" xmlns:xlink="http://www.w3.org/1999/xlink">
<g id="graph0" class="graph" transform="scale(1 1) rotate(0) translate(4 236)">
<title>executor/proto/generated/container_manager.grpc.pb.cc</title>
<polygon fill="white" stroke="transparent" points="-4,4 -4,-236 2457.5,-236 2457.5,4 -4,4"/>
<!-- Node1 -->
<g id="node1" class="node">
<title>Node1</title>
<g id="a_node1"><a xlink:title=" ">
<polygon fill="#bfbfbf" stroke="black" points="1483.5,-201.5 1483.5,-231.5 1650.5,-231.5 1650.5,-201.5 1483.5,-201.5"/>
<text text-anchor="start" x="1491.5" y="-219.5" font-family="Helvetica,sans-Serif" font-size="10.00">executor/proto/generated</text>
<text text-anchor="middle" x="1567" y="-208.5" font-family="Helvetica,sans-Serif" font-size="10.00">/container_manager.grpc.pb.cc</text>
</a>
</g>
</g>
<!-- Node2 -->
<g id="node2" class="node">
<title>Node2</title>
<g id="a_node2"><a xlink:href="container__manager_8pb_8h.html" target="_top" xlink:title=" ">
<polygon fill="white" stroke="black" points="829.5,-73 829.5,-92 964.5,-92 964.5,-73 829.5,-73"/>
<text text-anchor="middle" x="897" y="-80" font-family="Helvetica,sans-Serif" font-size="10.00">container_manager.pb.h</text>
</a>
</g>
</g>
<!-- Node1&#45;&gt;Node2 -->
<g id="edge1" class="edge">
<title>Node1&#45;&gt;Node2</title>
<path fill="none" stroke="midnightblue" d="M1483.12,-210.2C1397.96,-203.69 1262.66,-190.27 1148,-165 1066.93,-147.13 974.87,-113.72 928,-95.73"/>
<polygon fill="midnightblue" stroke="midnightblue" points="929.02,-92.37 918.43,-92.03 926.49,-98.9 929.02,-92.37"/>
</g>
<!-- Node16 -->
<g id="node16" class="node">
<title>Node16</title>
<g id="a_node16"><a xlink:href="container__manager_8grpc_8pb_8h.html" target="_top" xlink:title=" ">
<polygon fill="white" stroke="black" points="1434.5,-140 1434.5,-159 1593.5,-159 1593.5,-140 1434.5,-140"/>
<text text-anchor="middle" x="1514" y="-147" font-family="Helvetica,sans-Serif" font-size="10.00">container_manager.grpc.pb.h</text>
</a>
</g>
</g>
<!-- Node1&#45;&gt;Node16 -->
<g id="edge15" class="edge">
<title>Node1&#45;&gt;Node16</title>
<path fill="none" stroke="midnightblue" d="M1555.5,-201.4C1547.32,-191.36 1536.29,-177.84 1527.66,-167.25"/>
<polygon fill="midnightblue" stroke="midnightblue" points="1530.12,-164.73 1521.09,-159.19 1524.7,-169.16 1530.12,-164.73"/>
</g>
<!-- Node17 -->
<g id="node17" class="node">
<title>Node17</title>
<g id="a_node17"><a xlink:title=" ">
<polygon fill="white" stroke="#bfbfbf" points="982.5,-73 982.5,-92 1047.5,-92 1047.5,-73 982.5,-73"/>
<text text-anchor="middle" x="1015" y="-80" font-family="Helvetica,sans-Serif" font-size="10.00">functional</text>
</a>
</g>
</g>
<!-- Node1&#45;&gt;Node17 -->
<g id="edge28" class="edge">
<title>Node1&#45;&gt;Node17</title>
<path fill="none" stroke="midnightblue" d="M1483.22,-206.39C1418.4,-198.35 1326.71,-184.8 1248,-165 1160.35,-142.96 1141.27,-127.96 1056,-98 1053.63,-97.17 1051.19,-96.31 1048.73,-95.44"/>
<polygon fill="midnightblue" stroke="midnightblue" points="1049.87,-92.13 1039.28,-92.1 1047.54,-98.73 1049.87,-92.13"/>
</g>
<!-- Node19 -->
<g id="node19" class="node">
<title>Node19</title>
<g id="a_node19"><a xlink:title=" ">
<polygon fill="white" stroke="#bfbfbf" points="1065.5,-67.5 1065.5,-97.5 1184.5,-97.5 1184.5,-67.5 1065.5,-67.5"/>
<text text-anchor="start" x="1073.5" y="-85.5" font-family="Helvetica,sans-Serif" font-size="10.00">grpcpp/impl/codegen</text>
<text text-anchor="middle" x="1125" y="-74.5" font-family="Helvetica,sans-Serif" font-size="10.00">/async_stream.h</text>
</a>
</g>
</g>
<!-- Node1&#45;&gt;Node19 -->
<g id="edge29" class="edge">
<title>Node1&#45;&gt;Node19</title>
<path fill="none" stroke="midnightblue" d="M1492.36,-201.45C1448.23,-192.48 1391.49,-179.77 1342,-165 1280.16,-146.54 1210.64,-119.23 1167.33,-101.39"/>
<polygon fill="midnightblue" stroke="midnightblue" points="1168.55,-98.11 1157.97,-97.52 1165.87,-104.58 1168.55,-98.11"/>
</g>
<!-- Node20 -->
<g id="node20" class="node">
<title>Node20</title>
<g id="a_node20"><a xlink:title=" ">
<polygon fill="white" stroke="#bfbfbf" points="1202.5,-67.5 1202.5,-97.5 1321.5,-97.5 1321.5,-67.5 1202.5,-67.5"/>
<text text-anchor="start" x="1210.5" y="-85.5" font-family="Helvetica,sans-Serif" font-size="10.00">grpcpp/impl/codegen</text>
<text text-anchor="middle" x="1262" y="-74.5" font-family="Helvetica,sans-Serif" font-size="10.00">/async_unary_call.h</text>
</a>
</g>
</g>
<!-- Node1&#45;&gt;Node20 -->
<g id="edge30" class="edge">
<title>Node1&#45;&gt;Node20</title>
<path fill="none" stroke="midnightblue" d="M1513.03,-201.47C1481.52,-192.55 1441.34,-179.88 1407,-165 1365.88,-147.18 1321.32,-121.01 1292.61,-103.17"/>
<polygon fill="midnightblue" stroke="midnightblue" points="1294.2,-100.03 1283.87,-97.69 1290.48,-105.96 1294.2,-100.03"/>
</g>
<!-- Node21 -->
<g id="node21" class="node">
<title>Node21</title>
<g id="a_node21"><a xlink:title=" ">
<polygon fill="white" stroke="#bfbfbf" points="1339.5,-67.5 1339.5,-97.5 1474.5,-97.5 1474.5,-67.5 1339.5,-67.5"/>
<text text-anchor="start" x="1347.5" y="-85.5" font-family="Helvetica,sans-Serif" font-size="10.00">grpcpp/impl/codegen</text>
<text text-anchor="middle" x="1407" y="-74.5" font-family="Helvetica,sans-Serif" font-size="10.00">/method_handler_impl.h</text>
</a>
</g>
</g>
<!-- Node1&#45;&gt;Node21 -->
<g id="edge34" class="edge">
<title>Node1&#45;&gt;Node21</title>
<path fill="none" stroke="midnightblue" d="M1484.6,-201.48C1462.52,-194.01 1440.5,-182.56 1425,-165 1411.26,-149.44 1407.26,-125.77 1406.4,-107.94"/>
<polygon fill="midnightblue" stroke="midnightblue" points="1409.9,-107.65 1406.22,-97.72 1402.9,-107.78 1409.9,-107.65"/>
</g>
<!-- Node24 -->
<g id="node24" class="node">
<title>Node24</title>
<g id="a_node24"><a xlink:title=" ">
<polygon fill="white" stroke="#bfbfbf" points="2197.5,-67.5 2197.5,-97.5 2316.5,-97.5 2316.5,-67.5 2197.5,-67.5"/>
<text text-anchor="start" x="2205.5" y="-85.5" font-family="Helvetica,sans-Serif" font-size="10.00">grpcpp/impl/codegen</text>
<text text-anchor="middle" x="2257" y="-74.5" font-family="Helvetica,sans-Serif" font-size="10.00">/service_type.h</text>
</a>
</g>
</g>
<!-- Node1&#45;&gt;Node24 -->
<g id="edge36" class="edge">
<title>Node1&#45;&gt;Node24</title>
<path fill="none" stroke="midnightblue" d="M1575.73,-201.2C1588.33,-182.01 1613.59,-148.66 1645,-134 1752,-84.06 2053.18,-113.11 2187.25,-97.99"/>
<polygon fill="midnightblue" stroke="midnightblue" points="2187.9,-101.44 2197.38,-96.72 2187.02,-94.49 2187.9,-101.44"/>
</g>
<!-- Node27 -->
<g id="node27" class="node">
<title>Node27</title>
<g id="a_node27"><a xlink:title=" ">
<polygon fill="white" stroke="#bfbfbf" points="2334.5,-67.5 2334.5,-97.5 2453.5,-97.5 2453.5,-67.5 2334.5,-67.5"/>
<text text-anchor="start" x="2342.5" y="-85.5" font-family="Helvetica,sans-Serif" font-size="10.00">grpcpp/impl/codegen</text>
<text text-anchor="middle" x="2394" y="-74.5" font-family="Helvetica,sans-Serif" font-size="10.00">/sync_stream.h</text>
</a>
</g>
</g>
<!-- Node1&#45;&gt;Node27 -->
<g id="edge37" class="edge">
<title>Node1&#45;&gt;Node27</title>
<path fill="none" stroke="midnightblue" d="M1587.67,-201.39C1602.16,-191.4 1621.92,-177.6 1639,-165 1657.1,-151.65 1657.93,-141.87 1679,-134 1811,-84.7 2167.51,-115.67 2324.35,-97.99"/>
<polygon fill="midnightblue" stroke="midnightblue" points="2324.89,-101.45 2334.39,-96.76 2324.03,-94.5 2324.89,-101.45"/>
</g>
<!-- Node28 -->
<g id="node28" class="node">
<title>Node28</title>
<g id="a_node28"><a xlink:title=" ">
<polygon fill="white" stroke="#bfbfbf" points="1687.5,-134.5 1687.5,-164.5 1806.5,-164.5 1806.5,-134.5 1687.5,-134.5"/>
<text text-anchor="start" x="1695.5" y="-152.5" font-family="Helvetica,sans-Serif" font-size="10.00">grpcpp/impl/codegen</text>
<text text-anchor="middle" x="1747" y="-141.5" font-family="Helvetica,sans-Serif" font-size="10.00">/channel_interface.h</text>
</a>
</g>
</g>
<!-- Node1&#45;&gt;Node28 -->
<g id="edge31" class="edge">
<title>Node1&#45;&gt;Node28</title>
<path fill="none" stroke="midnightblue" d="M1606.06,-201.4C1633.18,-191.6 1669.51,-178.48 1698.5,-168.02"/>
<polygon fill="midnightblue" stroke="midnightblue" points="1699.8,-171.26 1708.02,-164.58 1697.42,-164.68 1699.8,-171.26"/>
</g>
<!-- Node29 -->
<g id="node29" class="node">
<title>Node29</title>
<g id="a_node29"><a xlink:title=" ">
<polygon fill="white" stroke="#bfbfbf" points="1824.5,-134.5 1824.5,-164.5 1943.5,-164.5 1943.5,-134.5 1824.5,-134.5"/>
<text text-anchor="start" x="1832.5" y="-152.5" font-family="Helvetica,sans-Serif" font-size="10.00">grpcpp/impl/codegen</text>
<text text-anchor="middle" x="1884" y="-141.5" font-family="Helvetica,sans-Serif" font-size="10.00">/client_unary_call.h</text>
</a>
</g>
</g>
<!-- Node1&#45;&gt;Node29 -->
<g id="edge32" class="edge">
<title>Node1&#45;&gt;Node29</title>
<path fill="none" stroke="midnightblue" d="M1637.07,-201.48C1684.55,-191.94 1748.99,-178.9 1814.25,-165.35"/>
<polygon fill="midnightblue" stroke="midnightblue" points="1815.22,-168.73 1824.3,-163.26 1813.8,-161.87 1815.22,-168.73"/>
</g>
<!-- Node30 -->
<g id="node30" class="node">
<title>Node30</title>
<g id="a_node30"><a xlink:title=" ">
<polygon fill="white" stroke="#bfbfbf" points="1961.5,-134.5 1961.5,-164.5 2080.5,-164.5 2080.5,-134.5 1961.5,-134.5"/>
<text text-anchor="start" x="1969.5" y="-152.5" font-family="Helvetica,sans-Serif" font-size="10.00">grpcpp/impl/codegen</text>
<text text-anchor="middle" x="2021" y="-141.5" font-family="Helvetica,sans-Serif" font-size="10.00">/client_callback.h</text>
</a>
</g>
</g>
<!-- Node1&#45;&gt;Node30 -->
<g id="edge33" class="edge">
<title>Node1&#45;&gt;Node30</title>
<path fill="none" stroke="midnightblue" d="M1650.87,-206.49C1726.88,-197.87 1842.18,-183.68 1951.16,-165.24"/>
<polygon fill="midnightblue" stroke="midnightblue" points="1952.08,-168.64 1961.35,-163.5 1950.9,-161.74 1952.08,-168.64"/>
</g>
<!-- Node31 -->
<g id="node31" class="node">
<title>Node31</title>
<g id="a_node31"><a xlink:title=" ">
<polygon fill="white" stroke="#bfbfbf" points="2098.5,-134.5 2098.5,-164.5 2225.5,-164.5 2225.5,-134.5 2098.5,-134.5"/>
<text text-anchor="start" x="2106.5" y="-152.5" font-family="Helvetica,sans-Serif" font-size="10.00">grpcpp/impl/codegen</text>
<text text-anchor="middle" x="2162" y="-141.5" font-family="Helvetica,sans-Serif" font-size="10.00">/rpc_service_method.h</text>
</a>
</g>
</g>
<!-- Node1&#45;&gt;Node31 -->
<g id="edge35" class="edge">
<title>Node1&#45;&gt;Node31</title>
<path fill="none" stroke="midnightblue" d="M1650.66,-210.08C1752.06,-202.91 1928.29,-188.53 2088.42,-165.14"/>
<polygon fill="midnightblue" stroke="midnightblue" points="2089.08,-168.59 2098.46,-163.66 2088.06,-161.66 2089.08,-168.59"/>
</g>
<!-- Node3 -->
<g id="node3" class="node">
<title>Node3</title>
<g id="a_node3"><a xlink:title=" ">
<polygon fill="white" stroke="#bfbfbf" points="0,-6 0,-25 44,-25 44,-6 0,-6"/>
<text text-anchor="middle" x="22" y="-13" font-family="Helvetica,sans-Serif" font-size="10.00">string</text>
</a>
</g>
</g>
<!-- Node2&#45;&gt;Node3 -->
<g id="edge2" class="edge">
<title>Node2&#45;&gt;Node3</title>
<path fill="none" stroke="midnightblue" d="M829.44,-80.73C656.2,-78.22 199.46,-68.18 53,-31 51.01,-30.5 49,-29.86 47,-29.15"/>
<polygon fill="midnightblue" stroke="midnightblue" points="47.92,-25.74 37.34,-25.07 45.2,-32.19 47.92,-25.74"/>
</g>
<!-- Node4 -->
<g id="node4" class="node">
<title>Node4</title>
<g id="a_node4"><a xlink:title=" ">
<polygon fill="white" stroke="#bfbfbf" points="62.5,-0.5 62.5,-30.5 185.5,-30.5 185.5,-0.5 62.5,-0.5"/>
<text text-anchor="start" x="70.5" y="-18.5" font-family="Helvetica,sans-Serif" font-size="10.00">google/protobuf/stubs</text>
<text text-anchor="middle" x="124" y="-7.5" font-family="Helvetica,sans-Serif" font-size="10.00">/common.h</text>
</a>
</g>
</g>
<!-- Node2&#45;&gt;Node4 -->
<g id="edge3" class="edge">
<title>Node2&#45;&gt;Node4</title>
<path fill="none" stroke="midnightblue" d="M829.42,-79.55C705.69,-75.35 434.34,-63.18 196.12,-31.03"/>
<polygon fill="midnightblue" stroke="midnightblue" points="196.26,-27.51 185.87,-29.63 195.31,-34.45 196.26,-27.51"/>
</g>
<!-- Node5 -->
<g id="node5" class="node">
<title>Node5</title>
<g id="a_node5"><a xlink:title=" ">
<polygon fill="white" stroke="#bfbfbf" points="204,-0.5 204,-30.5 310,-30.5 310,-0.5 204,-0.5"/>
<text text-anchor="start" x="212" y="-18.5" font-family="Helvetica,sans-Serif" font-size="10.00">google/protobuf/io</text>
<text text-anchor="middle" x="257" y="-7.5" font-family="Helvetica,sans-Serif" font-size="10.00">/coded_stream.h</text>
</a>
</g>
</g>
<!-- Node2&#45;&gt;Node5 -->
<g id="edge4" class="edge">
<title>Node2&#45;&gt;Node5</title>
<path fill="none" stroke="midnightblue" d="M829.43,-78.72C722.99,-73.66 509.72,-60.74 319.88,-30.99"/>
<polygon fill="midnightblue" stroke="midnightblue" points="320.43,-27.53 310,-29.42 319.33,-34.44 320.43,-27.53"/>
</g>
<!-- Node6 -->
<g id="node6" class="node">
<title>Node6</title>
<g id="a_node6"><a xlink:title=" ">
<polygon fill="white" stroke="#bfbfbf" points="328,-6 328,-25 462,-25 462,-6 328,-6"/>
<text text-anchor="middle" x="395" y="-13" font-family="Helvetica,sans-Serif" font-size="10.00">google/protobuf/arena.h</text>
</a>
</g>
</g>
<!-- Node2&#45;&gt;Node6 -->
<g id="edge5" class="edge">
<title>Node2&#45;&gt;Node6</title>
<path fill="none" stroke="midnightblue" d="M829.29,-74.96C745.09,-66.49 597.05,-50.47 471,-31 463.16,-29.79 454.89,-28.36 446.81,-26.89"/>
<polygon fill="midnightblue" stroke="midnightblue" points="447.19,-23.4 436.72,-25.01 445.91,-30.28 447.19,-23.4"/>
</g>
<!-- Node7 -->
<g id="node7" class="node">
<title>Node7</title>
<g id="a_node7"><a xlink:title=" ">
<polygon fill="white" stroke="#bfbfbf" points="480.5,-6 480.5,-25 641.5,-25 641.5,-6 480.5,-6"/>
<text text-anchor="middle" x="561" y="-13" font-family="Helvetica,sans-Serif" font-size="10.00">google/protobuf/arenastring.h</text>
</a>
</g>
</g>
<!-- Node2&#45;&gt;Node7 -->
<g id="edge6" class="edge">
<title>Node2&#45;&gt;Node7</title>
<path fill="none" stroke="midnightblue" d="M852.73,-72.94C791.58,-61.11 681.36,-39.78 615.31,-27.01"/>
<polygon fill="midnightblue" stroke="midnightblue" points="615.59,-23.49 605.1,-25.03 614.26,-30.37 615.59,-23.49"/>
</g>
<!-- Node8 -->
<g id="node8" class="node">
<title>Node8</title>
<g id="a_node8"><a xlink:title=" ">
<polygon fill="white" stroke="#bfbfbf" points="660,-0.5 660,-30.5 806,-30.5 806,-0.5 660,-0.5"/>
<text text-anchor="start" x="668" y="-18.5" font-family="Helvetica,sans-Serif" font-size="10.00">google/protobuf/generated</text>
<text text-anchor="middle" x="733" y="-7.5" font-family="Helvetica,sans-Serif" font-size="10.00">_message_table_driven.h</text>
</a>
</g>
</g>
<!-- Node2&#45;&gt;Node8 -->
<g id="edge7" class="edge">
<title>Node2&#45;&gt;Node8</title>
<path fill="none" stroke="midnightblue" d="M875.22,-72.87C850.51,-63.07 809.52,-46.83 777.88,-34.29"/>
<polygon fill="midnightblue" stroke="midnightblue" points="778.98,-30.96 768.39,-30.53 776.4,-37.47 778.98,-30.96"/>
</g>
<!-- Node9 -->
<g id="node9" class="node">
<title>Node9</title>
<g id="a_node9"><a xlink:title=" ">
<polygon fill="white" stroke="#bfbfbf" points="824,-0.5 824,-30.5 970,-30.5 970,-0.5 824,-0.5"/>
<text text-anchor="start" x="832" y="-18.5" font-family="Helvetica,sans-Serif" font-size="10.00">google/protobuf/generated</text>
<text text-anchor="middle" x="897" y="-7.5" font-family="Helvetica,sans-Serif" font-size="10.00">_message_util.h</text>
</a>
</g>
</g>
<!-- Node2&#45;&gt;Node9 -->
<g id="edge8" class="edge">
<title>Node2&#45;&gt;Node9</title>
<path fill="none" stroke="midnightblue" d="M897,-72.73C897,-64.54 897,-51.92 897,-40.71"/>
<polygon fill="midnightblue" stroke="midnightblue" points="900.5,-40.59 897,-30.59 893.5,-40.59 900.5,-40.59"/>
</g>
<!-- Node10 -->
<g id="node10" class="node">
<title>Node10</title>
<g id="a_node10"><a xlink:title=" ">
<polygon fill="white" stroke="#bfbfbf" points="988,-0.5 988,-30.5 1118,-30.5 1118,-0.5 988,-0.5"/>
<text text-anchor="start" x="996" y="-18.5" font-family="Helvetica,sans-Serif" font-size="10.00">google/protobuf/inlined</text>
<text text-anchor="middle" x="1053" y="-7.5" font-family="Helvetica,sans-Serif" font-size="10.00">_string_field.h</text>
</a>
</g>
</g>
<!-- Node2&#45;&gt;Node10 -->
<g id="edge9" class="edge">
<title>Node2&#45;&gt;Node10</title>
<path fill="none" stroke="midnightblue" d="M917.72,-72.87C941.12,-63.12 979.87,-46.97 1009.92,-34.45"/>
<polygon fill="midnightblue" stroke="midnightblue" points="1011.45,-37.61 1019.33,-30.53 1008.76,-31.14 1011.45,-37.61"/>
</g>
<!-- Node11 -->
<g id="node11" class="node">
<title>Node11</title>
<g id="a_node11"><a xlink:title=" ">
<polygon fill="white" stroke="#bfbfbf" points="1136.5,-6 1136.5,-25 1289.5,-25 1289.5,-6 1136.5,-6"/>
<text text-anchor="middle" x="1213" y="-13" font-family="Helvetica,sans-Serif" font-size="10.00">google/protobuf/metadata.h</text>
</a>
</g>
</g>
<!-- Node2&#45;&gt;Node11 -->
<g id="edge10" class="edge">
<title>Node2&#45;&gt;Node11</title>
<path fill="none" stroke="midnightblue" d="M938.64,-72.94C996.03,-61.13 1099.38,-39.87 1161.54,-27.09"/>
<polygon fill="midnightblue" stroke="midnightblue" points="1162.43,-30.47 1171.52,-25.03 1161.02,-23.62 1162.43,-30.47"/>
</g>
<!-- Node12 -->
<g id="node12" class="node">
<title>Node12</title>
<g id="a_node12"><a xlink:title=" ">
<polygon fill="white" stroke="#bfbfbf" points="1308,-6 1308,-25 1458,-25 1458,-6 1308,-6"/>
<text text-anchor="middle" x="1383" y="-13" font-family="Helvetica,sans-Serif" font-size="10.00">google/protobuf/message.h</text>
</a>
</g>
</g>
<!-- Node2&#45;&gt;Node12 -->
<g id="edge11" class="edge">
<title>Node2&#45;&gt;Node12</title>
<path fill="none" stroke="midnightblue" d="M938.71,-72.93C949.82,-70.82 961.84,-68.68 973,-67 1116.71,-45.37 1154.09,-51.23 1298,-31 1307.04,-29.73 1316.59,-28.24 1325.9,-26.71"/>
<polygon fill="midnightblue" stroke="midnightblue" points="1326.58,-30.15 1335.87,-25.05 1325.43,-23.24 1326.58,-30.15"/>
</g>
<!-- Node13 -->
<g id="node13" class="node">
<title>Node13</title>
<g id="a_node13"><a xlink:title=" ">
<polygon fill="white" stroke="#bfbfbf" points="1476,-0.5 1476,-30.5 1616,-30.5 1616,-0.5 1476,-0.5"/>
<text text-anchor="start" x="1484" y="-18.5" font-family="Helvetica,sans-Serif" font-size="10.00">google/protobuf/repeated</text>
<text text-anchor="middle" x="1546" y="-7.5" font-family="Helvetica,sans-Serif" font-size="10.00">_field.h</text>
</a>
</g>
</g>
<!-- Node2&#45;&gt;Node13 -->
<g id="edge12" class="edge">
<title>Node2&#45;&gt;Node13</title>
<path fill="none" stroke="midnightblue" d="M937.09,-72.95C948.64,-70.73 961.28,-68.54 973,-67 1187.96,-38.76 1246.87,-58.3 1465.65,-31.07"/>
<polygon fill="midnightblue" stroke="midnightblue" points="1466.37,-34.51 1475.85,-29.78 1465.49,-27.57 1466.37,-34.51"/>
</g>
<!-- Node14 -->
<g id="node14" class="node">
<title>Node14</title>
<g id="a_node14"><a xlink:title=" ">
<polygon fill="white" stroke="#bfbfbf" points="1634.5,-0.5 1634.5,-30.5 1779.5,-30.5 1779.5,-0.5 1634.5,-0.5"/>
<text text-anchor="start" x="1642.5" y="-18.5" font-family="Helvetica,sans-Serif" font-size="10.00">google/protobuf/extension</text>
<text text-anchor="middle" x="1707" y="-7.5" font-family="Helvetica,sans-Serif" font-size="10.00">_set.h</text>
</a>
</g>
</g>
<!-- Node2&#45;&gt;Node14 -->
<g id="edge13" class="edge">
<title>Node2&#45;&gt;Node14</title>
<path fill="none" stroke="midnightblue" d="M936.29,-72.97C948.04,-70.7 961,-68.47 973,-67 1257.83,-32.12 1334.98,-63.6 1624.25,-30.98"/>
<polygon fill="midnightblue" stroke="midnightblue" points="1624.65,-34.46 1634.19,-29.84 1623.86,-27.5 1624.65,-34.46"/>
</g>
<!-- Node15 -->
<g id="node15" class="node">
<title>Node15</title>
<g id="a_node15"><a xlink:title=" ">
<polygon fill="white" stroke="#bfbfbf" points="1797.5,-0.5 1797.5,-30.5 1938.5,-30.5 1938.5,-0.5 1797.5,-0.5"/>
<text text-anchor="start" x="1805.5" y="-18.5" font-family="Helvetica,sans-Serif" font-size="10.00">google/protobuf/unknown</text>
<text text-anchor="middle" x="1868" y="-7.5" font-family="Helvetica,sans-Serif" font-size="10.00">_field_set.h</text>
</a>
</g>
</g>
<!-- Node2&#45;&gt;Node15 -->
<g id="edge14" class="edge">
<title>Node2&#45;&gt;Node15</title>
<path fill="none" stroke="midnightblue" d="M935.89,-72.96C947.75,-70.66 960.86,-68.42 973,-67 1330.22,-25.26 1426.51,-71 1787.23,-31.09"/>
<polygon fill="midnightblue" stroke="midnightblue" points="1787.89,-34.54 1797.44,-29.95 1787.11,-27.58 1787.89,-34.54"/>
</g>
<!-- Node16&#45;&gt;Node2 -->
<g id="edge16" class="edge">
<title>Node16&#45;&gt;Node2</title>
<path fill="none" stroke="midnightblue" d="M1434.43,-143.46C1328.69,-136.22 1136.21,-121.13 973,-98 964.87,-96.85 956.29,-95.42 947.93,-93.91"/>
<polygon fill="midnightblue" stroke="midnightblue" points="948.37,-90.43 937.9,-92.05 947.09,-97.31 948.37,-90.43"/>
</g>
<!-- Node16&#45;&gt;Node17 -->
<g id="edge17" class="edge">
<title>Node16&#45;&gt;Node17</title>
<path fill="none" stroke="midnightblue" d="M1434.47,-145.28C1342.38,-140.28 1186.62,-127.88 1056,-98 1052.76,-97.26 1049.43,-96.34 1046.12,-95.34"/>
<polygon fill="midnightblue" stroke="midnightblue" points="1047.02,-91.95 1036.43,-92.12 1044.82,-98.59 1047.02,-91.95"/>
</g>
<!-- Node18 -->
<g id="node18" class="node">
<title>Node18</title>
<g id="a_node18"><a xlink:title=" ">
<polygon fill="white" stroke="#bfbfbf" points="2040.5,-67.5 2040.5,-97.5 2179.5,-97.5 2179.5,-67.5 2040.5,-67.5"/>
<text text-anchor="start" x="2048.5" y="-85.5" font-family="Helvetica,sans-Serif" font-size="10.00">grpcpp/impl/codegen</text>
<text text-anchor="middle" x="2110" y="-74.5" font-family="Helvetica,sans-Serif" font-size="10.00">/async_generic_service.h</text>
</a>
</g>
</g>
<!-- Node16&#45;&gt;Node18 -->
<g id="edge18" class="edge">
<title>Node16&#45;&gt;Node18</title>
<path fill="none" stroke="midnightblue" d="M1564.59,-139.95C1578.32,-137.81 1593.21,-135.66 1607,-134 1791.99,-111.77 1842.42,-122.96 2030.38,-98.14"/>
<polygon fill="midnightblue" stroke="midnightblue" points="2030.87,-101.6 2040.31,-96.81 2029.94,-94.67 2030.87,-101.6"/>
</g>
<!-- Node16&#45;&gt;Node19 -->
<g id="edge19" class="edge">
<title>Node16&#45;&gt;Node19</title>
<path fill="none" stroke="midnightblue" d="M1453.49,-139.98C1390.98,-130.95 1290.37,-115.79 1194.52,-98.23"/>
<polygon fill="midnightblue" stroke="midnightblue" points="1195.14,-94.79 1184.67,-96.41 1193.87,-101.67 1195.14,-94.79"/>
</g>
<!-- Node16&#45;&gt;Node20 -->
<g id="edge20" class="edge">
<title>Node16&#45;&gt;Node20</title>
<path fill="none" stroke="midnightblue" d="M1480.8,-139.94C1441.66,-129.84 1375.72,-112.83 1326.44,-100.12"/>
<polygon fill="midnightblue" stroke="midnightblue" points="1327.06,-96.67 1316.51,-97.56 1325.32,-103.45 1327.06,-96.67"/>
</g>
<!-- Node16&#45;&gt;Node21 -->
<g id="edge21" class="edge">
<title>Node16&#45;&gt;Node21</title>
<path fill="none" stroke="midnightblue" d="M1499.57,-139.73C1484.07,-130.32 1458.94,-115.05 1438.77,-102.8"/>
<polygon fill="midnightblue" stroke="midnightblue" points="1440.56,-99.79 1430.19,-97.59 1436.92,-105.77 1440.56,-99.79"/>
</g>
<!-- Node22 -->
<g id="node22" class="node">
<title>Node22</title>
<g id="a_node22"><a xlink:title=" ">
<polygon fill="white" stroke="#bfbfbf" points="1492.5,-67.5 1492.5,-97.5 1611.5,-97.5 1611.5,-67.5 1492.5,-67.5"/>
<text text-anchor="start" x="1500.5" y="-85.5" font-family="Helvetica,sans-Serif" font-size="10.00">grpcpp/impl/codegen</text>
<text text-anchor="middle" x="1552" y="-74.5" font-family="Helvetica,sans-Serif" font-size="10.00">/proto_utils.h</text>
</a>
</g>
</g>
<!-- Node16&#45;&gt;Node22 -->
<g id="edge22" class="edge">
<title>Node16&#45;&gt;Node22</title>
<path fill="none" stroke="midnightblue" d="M1519.12,-139.73C1524.11,-131.2 1531.9,-117.87 1538.65,-106.33"/>
<polygon fill="midnightblue" stroke="midnightblue" points="1541.74,-107.99 1543.76,-97.59 1535.69,-104.46 1541.74,-107.99"/>
</g>
<!-- Node23 -->
<g id="node23" class="node">
<title>Node23</title>
<g id="a_node23"><a xlink:title=" ">
<polygon fill="white" stroke="#bfbfbf" points="1629.5,-67.5 1629.5,-97.5 1748.5,-97.5 1748.5,-67.5 1629.5,-67.5"/>
<text text-anchor="start" x="1637.5" y="-85.5" font-family="Helvetica,sans-Serif" font-size="10.00">grpcpp/impl/codegen</text>
<text text-anchor="middle" x="1689" y="-74.5" font-family="Helvetica,sans-Serif" font-size="10.00">/rpc_method.h</text>
</a>
</g>
</g>
<!-- Node16&#45;&gt;Node23 -->
<g id="edge23" class="edge">
<title>Node16&#45;&gt;Node23</title>
<path fill="none" stroke="midnightblue" d="M1537.24,-139.87C1563.73,-130.03 1607.72,-113.69 1641.54,-101.13"/>
<polygon fill="midnightblue" stroke="midnightblue" points="1643.08,-104.29 1651.23,-97.53 1640.64,-97.73 1643.08,-104.29"/>
</g>
<!-- Node16&#45;&gt;Node24 -->
<g id="edge24" class="edge">
<title>Node16&#45;&gt;Node24</title>
<path fill="none" stroke="midnightblue" d="M1563.12,-139.97C1577.25,-137.75 1592.7,-135.55 1607,-134 1861.37,-106.36 1930.48,-132.44 2187.38,-98.09"/>
<polygon fill="midnightblue" stroke="midnightblue" points="2187.94,-101.55 2197.38,-96.73 2187,-94.61 2187.94,-101.55"/>
</g>
<!-- Node25 -->
<g id="node25" class="node">
<title>Node25</title>
<g id="a_node25"><a xlink:title=" ">
<polygon fill="white" stroke="#bfbfbf" points="1766.5,-67.5 1766.5,-97.5 1885.5,-97.5 1885.5,-67.5 1766.5,-67.5"/>
<text text-anchor="start" x="1774.5" y="-85.5" font-family="Helvetica,sans-Serif" font-size="10.00">grpcpp/impl/codegen</text>
<text text-anchor="middle" x="1826" y="-74.5" font-family="Helvetica,sans-Serif" font-size="10.00">/status.h</text>
</a>
</g>
</g>
<!-- Node16&#45;&gt;Node25 -->
<g id="edge25" class="edge">
<title>Node16&#45;&gt;Node25</title>
<path fill="none" stroke="midnightblue" d="M1555.46,-140C1602.03,-130.43 1680.14,-114.33 1756.51,-98.31"/>
<polygon fill="midnightblue" stroke="midnightblue" points="1757.23,-101.73 1766.3,-96.25 1755.79,-94.88 1757.23,-101.73"/>
</g>
<!-- Node26 -->
<g id="node26" class="node">
<title>Node26</title>
<g id="a_node26"><a xlink:title=" ">
<polygon fill="white" stroke="#bfbfbf" points="1903.5,-67.5 1903.5,-97.5 2022.5,-97.5 2022.5,-67.5 1903.5,-67.5"/>
<text text-anchor="start" x="1911.5" y="-85.5" font-family="Helvetica,sans-Serif" font-size="10.00">grpcpp/impl/codegen</text>
<text text-anchor="middle" x="1963" y="-74.5" font-family="Helvetica,sans-Serif" font-size="10.00">/stub_options.h</text>
</a>
</g>
</g>
<!-- Node16&#45;&gt;Node26 -->
<g id="edge26" class="edge">
<title>Node16&#45;&gt;Node26</title>
<path fill="none" stroke="midnightblue" d="M1567.07,-139.94C1580.12,-137.92 1594.05,-135.82 1607,-134 1731.5,-116.52 1766.06,-119.31 1893.22,-98.22"/>
<polygon fill="midnightblue" stroke="midnightblue" points="1894.07,-101.63 1903.35,-96.52 1892.91,-94.72 1894.07,-101.63"/>
</g>
<!-- Node16&#45;&gt;Node27 -->
<g id="edge27" class="edge">
<title>Node16&#45;&gt;Node27</title>
<path fill="none" stroke="midnightblue" d="M1584.29,-139.97C1603.92,-137.79 1625.27,-135.61 1645,-134 1943.69,-109.59 2023.74,-137.1 2324.07,-98.12"/>
<polygon fill="midnightblue" stroke="midnightblue" points="2324.93,-101.54 2334.39,-96.77 2324.02,-94.6 2324.93,-101.54"/>
</g>
</g>
</svg>
