<?xml version="1.0" encoding="UTF-8" standalone="no"?>
<!DOCTYPE svg PUBLIC "-//W3C//DTD SVG 1.1//EN"
 "http://www.w3.org/Graphics/SVG/1.1/DTD/svg11.dtd">
<!-- Generated by graphviz version 2.43.0 (0)
 -->
<!-- Title: core/inc/container_service.hpp Pages: 1 -->
<svg width="398pt" height="151pt"
 viewBox="0.00 0.00 397.50 151.00" xmlns="http://www.w3.org/2000/svg" xmlns:xlink="http://www.w3.org/1999/xlink">
<g id="graph0" class="graph" transform="scale(1 1) rotate(0) translate(4 147)">
<title>core/inc/container_service.hpp</title>
<polygon fill="white" stroke="transparent" points="-4,4 -4,-147 393.5,-147 393.5,4 -4,4"/>
<!-- Node1 -->
<g id="node1" class="node">
<title>Node1</title>
<g id="a_node1"><a xlink:title="Declares the ContainerServiceHandler class for business logic related to containers.">
<polygon fill="#bfbfbf" stroke="black" points="102,-112.5 102,-142.5 206,-142.5 206,-112.5 102,-112.5"/>
<text text-anchor="start" x="110" y="-130.5" font-family="Helvetica,sans-Serif" font-size="10.00">core/inc/container</text>
<text text-anchor="middle" x="154" y="-119.5" font-family="Helvetica,sans-Serif" font-size="10.00">_service.hpp</text>
</a>
</g>
</g>
<!-- Node2 -->
<g id="node2" class="node">
<title>Node2</title>
<g id="a_node2"><a xlink:title=" ">
<polygon fill="white" stroke="#bfbfbf" points="0,-0.5 0,-19.5 110,-19.5 110,-0.5 0,-0.5"/>
<text text-anchor="middle" x="55" y="-7.5" font-family="Helvetica,sans-Serif" font-size="10.00">nlohmann/json.hpp</text>
</a>
</g>
</g>
<!-- Node1&#45;&gt;Node2 -->
<g id="edge1" class="edge">
<title>Node1&#45;&gt;Node2</title>
<path fill="none" stroke="midnightblue" d="M118.33,-112.5C101.64,-104.24 82.87,-92.19 71,-76 61.23,-62.67 57.37,-44.1 55.88,-30.22"/>
<polygon fill="midnightblue" stroke="midnightblue" points="59.34,-29.59 55.1,-19.88 52.36,-30.11 59.34,-29.59"/>
</g>
<!-- Node3 -->
<g id="node3" class="node">
<title>Node3</title>
<g id="a_node3"><a xlink:href="database__interface_8hpp.html" target="_top" xlink:title="Abstract interface for database operations.">
<polygon fill="white" stroke="black" points="79.5,-56.5 79.5,-75.5 228.5,-75.5 228.5,-56.5 79.5,-56.5"/>
<text text-anchor="middle" x="154" y="-63.5" font-family="Helvetica,sans-Serif" font-size="10.00">inc/database_interface.hpp</text>
</a>
</g>
</g>
<!-- Node1&#45;&gt;Node3 -->
<g id="edge2" class="edge">
<title>Node1&#45;&gt;Node3</title>
<path fill="none" stroke="midnightblue" d="M154,-112.4C154,-104.47 154,-94.46 154,-85.86"/>
<polygon fill="midnightblue" stroke="midnightblue" points="157.5,-85.66 154,-75.66 150.5,-85.66 157.5,-85.66"/>
</g>
<!-- Node5 -->
<g id="node5" class="node">
<title>Node5</title>
<g id="a_node5"><a xlink:href="container__request_8hpp.html" target="_top" xlink:title="Data structure for representing a container operation request.">
<polygon fill="white" stroke="black" points="246.5,-56.5 246.5,-75.5 389.5,-75.5 389.5,-56.5 246.5,-56.5"/>
<text text-anchor="middle" x="318" y="-63.5" font-family="Helvetica,sans-Serif" font-size="10.00">inc/container_request.hpp</text>
</a>
</g>
</g>
<!-- Node1&#45;&gt;Node5 -->
<g id="edge5" class="edge">
<title>Node1&#45;&gt;Node5</title>
<path fill="none" stroke="midnightblue" d="M192.87,-112.4C220.75,-102.28 257.94,-88.79 284.51,-79.15"/>
<polygon fill="midnightblue" stroke="midnightblue" points="285.93,-82.36 294.14,-75.66 283.54,-75.78 285.93,-82.36"/>
</g>
<!-- Node3&#45;&gt;Node2 -->
<g id="edge4" class="edge">
<title>Node3&#45;&gt;Node2</title>
<path fill="none" stroke="midnightblue" d="M138.09,-56.32C122.36,-47.74 98.06,-34.49 79.79,-24.52"/>
<polygon fill="midnightblue" stroke="midnightblue" points="81.32,-21.37 70.87,-19.65 77.97,-27.52 81.32,-21.37"/>
</g>
<!-- Node4 -->
<g id="node4" class="node">
<title>Node4</title>
<g id="a_node4"><a xlink:title=" ">
<polygon fill="white" stroke="#bfbfbf" points="214,-0.5 214,-19.5 258,-19.5 258,-0.5 214,-0.5"/>
<text text-anchor="middle" x="236" y="-7.5" font-family="Helvetica,sans-Serif" font-size="10.00">string</text>
</a>
</g>
</g>
<!-- Node3&#45;&gt;Node4 -->
<g id="edge3" class="edge">
<title>Node3&#45;&gt;Node4</title>
<path fill="none" stroke="midnightblue" d="M167.17,-56.32C179.85,-47.98 199.23,-35.21 214.21,-25.35"/>
<polygon fill="midnightblue" stroke="midnightblue" points="216.43,-28.08 222.86,-19.65 212.58,-22.23 216.43,-28.08"/>
</g>
<!-- Node5&#45;&gt;Node4 -->
<g id="edge6" class="edge">
<title>Node5&#45;&gt;Node4</title>
<path fill="none" stroke="midnightblue" d="M304.83,-56.32C292.15,-47.98 272.77,-35.21 257.79,-25.35"/>
<polygon fill="midnightblue" stroke="midnightblue" points="259.42,-22.23 249.14,-19.65 255.57,-28.08 259.42,-22.23"/>
</g>
</g>
</svg>
