<?xml version="1.0" encoding="UTF-8" standalone="no"?>
<!DOCTYPE svg PUBLIC "-//W3C//DTD SVG 1.1//EN"
 "http://www.w3.org/Graphics/SVG/1.1/DTD/svg11.dtd">
<!-- Generated by graphviz version 2.43.0 (0)
 -->
<!-- Title: executor/proto/generated/container_manager.pb.cc Pages: 1 -->
<svg width="1947pt" height="173pt"
 viewBox="0.00 0.00 1946.50 173.00" xmlns="http://www.w3.org/2000/svg" xmlns:xlink="http://www.w3.org/1999/xlink">
<g id="graph0" class="graph" transform="scale(1 1) rotate(0) translate(4 169)">
<title>executor/proto/generated/container_manager.pb.cc</title>
<polygon fill="white" stroke="transparent" points="-4,4 -4,-169 1942.5,-169 1942.5,4 -4,4"/>
<!-- Node1 -->
<g id="node1" class="node">
<title>Node1</title>
<g id="a_node1"><a xlink:title=" ">
<polygon fill="#bfbfbf" stroke="black" points="1064,-134.5 1064,-164.5 1207,-164.5 1207,-134.5 1064,-134.5"/>
<text text-anchor="start" x="1072" y="-152.5" font-family="Helvetica,sans-Serif" font-size="10.00">executor/proto/generated</text>
<text text-anchor="middle" x="1135.5" y="-141.5" font-family="Helvetica,sans-Serif" font-size="10.00">/container_manager.pb.cc</text>
</a>
</g>
</g>
<!-- Node2 -->
<g id="node2" class="node">
<title>Node2</title>
<g id="a_node2"><a xlink:href="container__manager_8pb_8h.html" target="_top" xlink:title=" ">
<polygon fill="white" stroke="black" points="769,-73 769,-92 904,-92 904,-73 769,-73"/>
<text text-anchor="middle" x="836.5" y="-80" font-family="Helvetica,sans-Serif" font-size="10.00">container_manager.pb.h</text>
</a>
</g>
</g>
<!-- Node1&#45;&gt;Node2 -->
<g id="edge1" class="edge">
<title>Node1&#45;&gt;Node2</title>
<path fill="none" stroke="midnightblue" d="M1070.99,-134.48C1015.42,-122.4 936.39,-105.21 885.77,-94.21"/>
<polygon fill="midnightblue" stroke="midnightblue" points="886.25,-90.73 875.73,-92.03 884.76,-97.57 886.25,-90.73"/>
</g>
<!-- Node4 -->
<g id="node4" class="node">
<title>Node4</title>
<g id="a_node4"><a xlink:title=" ">
<polygon fill="white" stroke="#bfbfbf" points="0,-0.5 0,-30.5 123,-30.5 123,-0.5 0,-0.5"/>
<text text-anchor="start" x="8" y="-18.5" font-family="Helvetica,sans-Serif" font-size="10.00">google/protobuf/stubs</text>
<text text-anchor="middle" x="61.5" y="-7.5" font-family="Helvetica,sans-Serif" font-size="10.00">/common.h</text>
</a>
</g>
</g>
<!-- Node1&#45;&gt;Node4 -->
<g id="edge16" class="edge">
<title>Node1&#45;&gt;Node4</title>
<path fill="none" stroke="midnightblue" d="M1063.99,-145.33C945.16,-139.51 699.67,-125.16 493.5,-98 335.03,-77.12 294.32,-62.81 133.33,-31.15"/>
<polygon fill="midnightblue" stroke="midnightblue" points="133.55,-27.63 123.06,-29.14 132.2,-34.5 133.55,-27.63"/>
</g>
<!-- Node5 -->
<g id="node5" class="node">
<title>Node5</title>
<g id="a_node5"><a xlink:title=" ">
<polygon fill="white" stroke="#bfbfbf" points="141.5,-0.5 141.5,-30.5 247.5,-30.5 247.5,-0.5 141.5,-0.5"/>
<text text-anchor="start" x="149.5" y="-18.5" font-family="Helvetica,sans-Serif" font-size="10.00">google/protobuf/io</text>
<text text-anchor="middle" x="194.5" y="-7.5" font-family="Helvetica,sans-Serif" font-size="10.00">/coded_stream.h</text>
</a>
</g>
</g>
<!-- Node1&#45;&gt;Node5 -->
<g id="edge18" class="edge">
<title>Node1&#45;&gt;Node5</title>
<path fill="none" stroke="midnightblue" d="M1063.73,-141.19C915.08,-125.55 562.7,-85.89 257.63,-30.91"/>
<polygon fill="midnightblue" stroke="midnightblue" points="258.17,-27.45 247.7,-29.11 256.92,-34.34 258.17,-27.45"/>
</g>
<!-- Node16 -->
<g id="node16" class="node">
<title>Node16</title>
<g id="a_node16"><a xlink:title=" ">
<polygon fill="white" stroke="#bfbfbf" points="922.5,-73 922.5,-92 986.5,-92 986.5,-73 922.5,-73"/>
<text text-anchor="middle" x="954.5" y="-80" font-family="Helvetica,sans-Serif" font-size="10.00">algorithm</text>
</a>
</g>
</g>
<!-- Node1&#45;&gt;Node16 -->
<g id="edge15" class="edge">
<title>Node1&#45;&gt;Node16</title>
<path fill="none" stroke="midnightblue" d="M1096.23,-134.4C1063.91,-122.79 1018.59,-106.51 987.97,-95.52"/>
<polygon fill="midnightblue" stroke="midnightblue" points="988.78,-92.09 978.19,-92.01 986.42,-98.68 988.78,-92.09"/>
</g>
<!-- Node17 -->
<g id="node17" class="node">
<title>Node17</title>
<g id="a_node17"><a xlink:title=" ">
<polygon fill="white" stroke="#bfbfbf" points="1005,-67.5 1005,-97.5 1128,-97.5 1128,-67.5 1005,-67.5"/>
<text text-anchor="start" x="1013" y="-85.5" font-family="Helvetica,sans-Serif" font-size="10.00">google/protobuf/stubs</text>
<text text-anchor="middle" x="1066.5" y="-74.5" font-family="Helvetica,sans-Serif" font-size="10.00">/port.h</text>
</a>
</g>
</g>
<!-- Node1&#45;&gt;Node17 -->
<g id="edge17" class="edge">
<title>Node1&#45;&gt;Node17</title>
<path fill="none" stroke="midnightblue" d="M1120.53,-134.4C1111.31,-125.71 1099.31,-114.4 1088.96,-104.66"/>
<polygon fill="midnightblue" stroke="midnightblue" points="1091.12,-101.89 1081.44,-97.58 1086.32,-106.98 1091.12,-101.89"/>
</g>
<!-- Node18 -->
<g id="node18" class="node">
<title>Node18</title>
<g id="a_node18"><a xlink:title=" ">
<polygon fill="white" stroke="#bfbfbf" points="1146.5,-67.5 1146.5,-97.5 1264.5,-97.5 1264.5,-67.5 1146.5,-67.5"/>
<text text-anchor="start" x="1154.5" y="-85.5" font-family="Helvetica,sans-Serif" font-size="10.00">google/protobuf/wire</text>
<text text-anchor="middle" x="1205.5" y="-74.5" font-family="Helvetica,sans-Serif" font-size="10.00">_format_lite_inl.h</text>
</a>
</g>
</g>
<!-- Node1&#45;&gt;Node18 -->
<g id="edge19" class="edge">
<title>Node1&#45;&gt;Node18</title>
<path fill="none" stroke="midnightblue" d="M1150.69,-134.4C1160.05,-125.71 1172.22,-114.4 1182.71,-104.66"/>
<polygon fill="midnightblue" stroke="midnightblue" points="1185.39,-106.95 1190.34,-97.58 1180.63,-101.82 1185.39,-106.95"/>
</g>
<!-- Node19 -->
<g id="node19" class="node">
<title>Node19</title>
<g id="a_node19"><a xlink:title=" ">
<polygon fill="white" stroke="#bfbfbf" points="1283,-73 1283,-92 1438,-92 1438,-73 1283,-73"/>
<text text-anchor="middle" x="1360.5" y="-80" font-family="Helvetica,sans-Serif" font-size="10.00">google/protobuf/descriptor.h</text>
</a>
</g>
</g>
<!-- Node1&#45;&gt;Node19 -->
<g id="edge20" class="edge">
<title>Node1&#45;&gt;Node19</title>
<path fill="none" stroke="midnightblue" d="M1184.04,-134.48C1225.08,-122.62 1283.11,-105.86 1321.25,-94.84"/>
<polygon fill="midnightblue" stroke="midnightblue" points="1322.34,-98.17 1330.98,-92.03 1320.4,-91.44 1322.34,-98.17"/>
</g>
<!-- Node20 -->
<g id="node20" class="node">
<title>Node20</title>
<g id="a_node20"><a xlink:title=" ">
<polygon fill="white" stroke="#bfbfbf" points="1456.5,-67.5 1456.5,-97.5 1602.5,-97.5 1602.5,-67.5 1456.5,-67.5"/>
<text text-anchor="start" x="1464.5" y="-85.5" font-family="Helvetica,sans-Serif" font-size="10.00">google/protobuf/generated</text>
<text text-anchor="middle" x="1529.5" y="-74.5" font-family="Helvetica,sans-Serif" font-size="10.00">_message_reflection.h</text>
</a>
</g>
</g>
<!-- Node1&#45;&gt;Node20 -->
<g id="edge21" class="edge">
<title>Node1&#45;&gt;Node20</title>
<path fill="none" stroke="midnightblue" d="M1207.11,-137.21C1268.1,-127.53 1358.32,-113.04 1446.31,-98.19"/>
<polygon fill="midnightblue" stroke="midnightblue" points="1446.92,-101.64 1456.19,-96.52 1445.75,-94.73 1446.92,-101.64"/>
</g>
<!-- Node21 -->
<g id="node21" class="node">
<title>Node21</title>
<g id="a_node21"><a xlink:title=" ">
<polygon fill="white" stroke="#bfbfbf" points="1621,-67.5 1621,-97.5 1764,-97.5 1764,-67.5 1621,-67.5"/>
<text text-anchor="start" x="1629" y="-85.5" font-family="Helvetica,sans-Serif" font-size="10.00">google/protobuf/reflection</text>
<text text-anchor="middle" x="1692.5" y="-74.5" font-family="Helvetica,sans-Serif" font-size="10.00">_ops.h</text>
</a>
</g>
</g>
<!-- Node1&#45;&gt;Node21 -->
<g id="edge22" class="edge">
<title>Node1&#45;&gt;Node21</title>
<path fill="none" stroke="midnightblue" d="M1207.07,-142.51C1298.28,-134.52 1461.03,-119.07 1610.7,-98.04"/>
<polygon fill="midnightblue" stroke="midnightblue" points="1611.58,-101.45 1620.99,-96.59 1610.6,-94.52 1611.58,-101.45"/>
</g>
<!-- Node22 -->
<g id="node22" class="node">
<title>Node22</title>
<g id="a_node22"><a xlink:title=" ">
<polygon fill="white" stroke="#bfbfbf" points="1782.5,-67.5 1782.5,-97.5 1900.5,-97.5 1900.5,-67.5 1782.5,-67.5"/>
<text text-anchor="start" x="1790.5" y="-85.5" font-family="Helvetica,sans-Serif" font-size="10.00">google/protobuf/wire</text>
<text text-anchor="middle" x="1841.5" y="-74.5" font-family="Helvetica,sans-Serif" font-size="10.00">_format.h</text>
</a>
</g>
</g>
<!-- Node1&#45;&gt;Node22 -->
<g id="edge23" class="edge">
<title>Node1&#45;&gt;Node22</title>
<path fill="none" stroke="midnightblue" d="M1207.12,-145.89C1323.67,-140.98 1561.68,-128.14 1772.24,-98.06"/>
<polygon fill="midnightblue" stroke="midnightblue" points="1772.85,-101.51 1782.24,-96.61 1771.85,-94.58 1772.85,-101.51"/>
</g>
<!-- Node3 -->
<g id="node3" class="node">
<title>Node3</title>
<g id="a_node3"><a xlink:title=" ">
<polygon fill="white" stroke="#bfbfbf" points="1086.5,-6 1086.5,-25 1130.5,-25 1130.5,-6 1086.5,-6"/>
<text text-anchor="middle" x="1108.5" y="-13" font-family="Helvetica,sans-Serif" font-size="10.00">string</text>
</a>
</g>
</g>
<!-- Node2&#45;&gt;Node3 -->
<g id="edge2" class="edge">
<title>Node2&#45;&gt;Node3</title>
<path fill="none" stroke="midnightblue" d="M879.85,-72.98C944.08,-60.27 1058.97,-37.18 1077.5,-31 1079.17,-30.44 1080.86,-29.82 1082.56,-29.16"/>
<polygon fill="midnightblue" stroke="midnightblue" points="1084.27,-32.23 1092.06,-25.05 1081.49,-25.81 1084.27,-32.23"/>
</g>
<!-- Node2&#45;&gt;Node4 -->
<g id="edge3" class="edge">
<title>Node2&#45;&gt;Node4</title>
<path fill="none" stroke="midnightblue" d="M768.73,-79.56C644.58,-75.38 372.25,-63.24 133.29,-30.98"/>
<polygon fill="midnightblue" stroke="midnightblue" points="133.76,-27.51 123.37,-29.63 132.81,-34.45 133.76,-27.51"/>
</g>
<!-- Node2&#45;&gt;Node5 -->
<g id="edge4" class="edge">
<title>Node2&#45;&gt;Node5</title>
<path fill="none" stroke="midnightblue" d="M768.84,-76.79C641.89,-67.76 371.39,-47.57 257.84,-30.84"/>
<polygon fill="midnightblue" stroke="midnightblue" points="258.09,-27.34 247.67,-29.29 257.03,-34.26 258.09,-27.34"/>
</g>
<!-- Node6 -->
<g id="node6" class="node">
<title>Node6</title>
<g id="a_node6"><a xlink:title=" ">
<polygon fill="white" stroke="#bfbfbf" points="1148.5,-6 1148.5,-25 1282.5,-25 1282.5,-6 1148.5,-6"/>
<text text-anchor="middle" x="1215.5" y="-13" font-family="Helvetica,sans-Serif" font-size="10.00">google/protobuf/arena.h</text>
</a>
</g>
</g>
<!-- Node2&#45;&gt;Node6 -->
<g id="edge5" class="edge">
<title>Node2&#45;&gt;Node6</title>
<path fill="none" stroke="midnightblue" d="M880.84,-72.93C891.53,-70.92 902.91,-68.84 913.5,-67 1013.71,-49.59 1039.31,-48.53 1139.5,-31 1146.86,-29.71 1154.61,-28.3 1162.23,-26.88"/>
<polygon fill="midnightblue" stroke="midnightblue" points="1162.96,-30.3 1172.14,-25.01 1161.66,-23.42 1162.96,-30.3"/>
</g>
<!-- Node7 -->
<g id="node7" class="node">
<title>Node7</title>
<g id="a_node7"><a xlink:title=" ">
<polygon fill="white" stroke="#bfbfbf" points="1301,-6 1301,-25 1462,-25 1462,-6 1301,-6"/>
<text text-anchor="middle" x="1381.5" y="-13" font-family="Helvetica,sans-Serif" font-size="10.00">google/protobuf/arenastring.h</text>
</a>
</g>
</g>
<!-- Node2&#45;&gt;Node7 -->
<g id="edge6" class="edge">
<title>Node2&#45;&gt;Node7</title>
<path fill="none" stroke="midnightblue" d="M877.95,-72.98C889.43,-70.81 901.92,-68.64 913.5,-67 1080.6,-43.36 1124.11,-52.43 1291.5,-31 1301.39,-29.73 1311.86,-28.21 1322.03,-26.64"/>
<polygon fill="midnightblue" stroke="midnightblue" points="1322.74,-30.07 1332.07,-25.05 1321.65,-23.16 1322.74,-30.07"/>
</g>
<!-- Node8 -->
<g id="node8" class="node">
<title>Node8</title>
<g id="a_node8"><a xlink:title=" ">
<polygon fill="white" stroke="#bfbfbf" points="1480.5,-0.5 1480.5,-30.5 1626.5,-30.5 1626.5,-0.5 1480.5,-0.5"/>
<text text-anchor="start" x="1488.5" y="-18.5" font-family="Helvetica,sans-Serif" font-size="10.00">google/protobuf/generated</text>
<text text-anchor="middle" x="1553.5" y="-7.5" font-family="Helvetica,sans-Serif" font-size="10.00">_message_table_driven.h</text>
</a>
</g>
</g>
<!-- Node2&#45;&gt;Node8 -->
<g id="edge7" class="edge">
<title>Node2&#45;&gt;Node8</title>
<path fill="none" stroke="midnightblue" d="M876.72,-72.97C888.52,-70.73 901.49,-68.51 913.5,-67 1156.82,-36.36 1223.03,-60.04 1470.24,-31.06"/>
<polygon fill="midnightblue" stroke="midnightblue" points="1470.73,-34.52 1480.24,-29.87 1469.9,-27.57 1470.73,-34.52"/>
</g>
<!-- Node9 -->
<g id="node9" class="node">
<title>Node9</title>
<g id="a_node9"><a xlink:title=" ">
<polygon fill="white" stroke="#bfbfbf" points="1644.5,-0.5 1644.5,-30.5 1790.5,-30.5 1790.5,-0.5 1644.5,-0.5"/>
<text text-anchor="start" x="1652.5" y="-18.5" font-family="Helvetica,sans-Serif" font-size="10.00">google/protobuf/generated</text>
<text text-anchor="middle" x="1717.5" y="-7.5" font-family="Helvetica,sans-Serif" font-size="10.00">_message_util.h</text>
</a>
</g>
</g>
<!-- Node2&#45;&gt;Node9 -->
<g id="edge8" class="edge">
<title>Node2&#45;&gt;Node9</title>
<path fill="none" stroke="midnightblue" d="M876.31,-72.93C888.22,-70.66 901.34,-68.44 913.5,-67 1229.28,-29.57 1314.5,-66.27 1634.23,-31.04"/>
<polygon fill="midnightblue" stroke="midnightblue" points="1634.7,-34.51 1644.25,-29.92 1633.92,-27.55 1634.7,-34.51"/>
</g>
<!-- Node10 -->
<g id="node10" class="node">
<title>Node10</title>
<g id="a_node10"><a xlink:title=" ">
<polygon fill="white" stroke="#bfbfbf" points="1808.5,-0.5 1808.5,-30.5 1938.5,-30.5 1938.5,-0.5 1808.5,-0.5"/>
<text text-anchor="start" x="1816.5" y="-18.5" font-family="Helvetica,sans-Serif" font-size="10.00">google/protobuf/inlined</text>
<text text-anchor="middle" x="1873.5" y="-7.5" font-family="Helvetica,sans-Serif" font-size="10.00">_string_field.h</text>
</a>
</g>
</g>
<!-- Node2&#45;&gt;Node10 -->
<g id="edge9" class="edge">
<title>Node2&#45;&gt;Node10</title>
<path fill="none" stroke="midnightblue" d="M875.9,-72.94C887.92,-70.64 901.2,-68.4 913.5,-67 1301.73,-22.8 1406.31,-76.1 1798.02,-31.04"/>
<polygon fill="midnightblue" stroke="midnightblue" points="1798.69,-34.49 1808.22,-29.85 1797.88,-27.53 1798.69,-34.49"/>
</g>
<!-- Node11 -->
<g id="node11" class="node">
<title>Node11</title>
<g id="a_node11"><a xlink:title=" ">
<polygon fill="white" stroke="#bfbfbf" points="266,-6 266,-25 419,-25 419,-6 266,-6"/>
<text text-anchor="middle" x="342.5" y="-13" font-family="Helvetica,sans-Serif" font-size="10.00">google/protobuf/metadata.h</text>
</a>
</g>
</g>
<!-- Node2&#45;&gt;Node11 -->
<g id="edge10" class="edge">
<title>Node2&#45;&gt;Node11</title>
<path fill="none" stroke="midnightblue" d="M768.88,-74.05C687.85,-64.91 548.03,-48.47 428.5,-31 419.48,-29.68 409.94,-28.18 400.63,-26.66"/>
<polygon fill="midnightblue" stroke="midnightblue" points="401.09,-23.19 390.66,-25 399.95,-30.09 401.09,-23.19"/>
</g>
<!-- Node12 -->
<g id="node12" class="node">
<title>Node12</title>
<g id="a_node12"><a xlink:title=" ">
<polygon fill="white" stroke="#bfbfbf" points="437.5,-6 437.5,-25 587.5,-25 587.5,-6 437.5,-6"/>
<text text-anchor="middle" x="512.5" y="-13" font-family="Helvetica,sans-Serif" font-size="10.00">google/protobuf/message.h</text>
</a>
</g>
</g>
<!-- Node2&#45;&gt;Node12 -->
<g id="edge11" class="edge">
<title>Node2&#45;&gt;Node12</title>
<path fill="none" stroke="midnightblue" d="M793.81,-72.94C734.85,-61.11 628.56,-39.78 564.87,-27.01"/>
<polygon fill="midnightblue" stroke="midnightblue" points="565.52,-23.57 555.03,-25.03 564.14,-30.43 565.52,-23.57"/>
</g>
<!-- Node13 -->
<g id="node13" class="node">
<title>Node13</title>
<g id="a_node13"><a xlink:title=" ">
<polygon fill="white" stroke="#bfbfbf" points="605.5,-0.5 605.5,-30.5 745.5,-30.5 745.5,-0.5 605.5,-0.5"/>
<text text-anchor="start" x="613.5" y="-18.5" font-family="Helvetica,sans-Serif" font-size="10.00">google/protobuf/repeated</text>
<text text-anchor="middle" x="675.5" y="-7.5" font-family="Helvetica,sans-Serif" font-size="10.00">_field.h</text>
</a>
</g>
</g>
<!-- Node2&#45;&gt;Node13 -->
<g id="edge12" class="edge">
<title>Node2&#45;&gt;Node13</title>
<path fill="none" stroke="midnightblue" d="M815.12,-72.87C790.86,-63.07 750.62,-46.83 719.56,-34.29"/>
<polygon fill="midnightblue" stroke="midnightblue" points="720.83,-31.03 710.25,-30.53 718.21,-37.52 720.83,-31.03"/>
</g>
<!-- Node14 -->
<g id="node14" class="node">
<title>Node14</title>
<g id="a_node14"><a xlink:title=" ">
<polygon fill="white" stroke="#bfbfbf" points="764,-0.5 764,-30.5 909,-30.5 909,-0.5 764,-0.5"/>
<text text-anchor="start" x="772" y="-18.5" font-family="Helvetica,sans-Serif" font-size="10.00">google/protobuf/extension</text>
<text text-anchor="middle" x="836.5" y="-7.5" font-family="Helvetica,sans-Serif" font-size="10.00">_set.h</text>
</a>
</g>
</g>
<!-- Node2&#45;&gt;Node14 -->
<g id="edge13" class="edge">
<title>Node2&#45;&gt;Node14</title>
<path fill="none" stroke="midnightblue" d="M836.5,-72.73C836.5,-64.54 836.5,-51.92 836.5,-40.71"/>
<polygon fill="midnightblue" stroke="midnightblue" points="840,-40.59 836.5,-30.59 833,-40.59 840,-40.59"/>
</g>
<!-- Node15 -->
<g id="node15" class="node">
<title>Node15</title>
<g id="a_node15"><a xlink:title=" ">
<polygon fill="white" stroke="#bfbfbf" points="927,-0.5 927,-30.5 1068,-30.5 1068,-0.5 927,-0.5"/>
<text text-anchor="start" x="935" y="-18.5" font-family="Helvetica,sans-Serif" font-size="10.00">google/protobuf/unknown</text>
<text text-anchor="middle" x="997.5" y="-7.5" font-family="Helvetica,sans-Serif" font-size="10.00">_field_set.h</text>
</a>
</g>
</g>
<!-- Node2&#45;&gt;Node15 -->
<g id="edge14" class="edge">
<title>Node2&#45;&gt;Node15</title>
<path fill="none" stroke="midnightblue" d="M857.88,-72.87C882.14,-63.07 922.38,-46.83 953.44,-34.29"/>
<polygon fill="midnightblue" stroke="midnightblue" points="954.79,-37.52 962.75,-30.53 952.17,-31.03 954.79,-37.52"/>
</g>
</g>
</svg>
