<?xml version="1.0" encoding="UTF-8" standalone="no"?>
<!DOCTYPE svg PUBLIC "-//W3C//DTD SVG 1.1//EN"
 "http://www.w3.org/Graphics/SVG/1.1/DTD/svg11.dtd">
<!-- Generated by graphviz version 2.43.0 (0)
 -->
<!-- Title: executor/proto/generated/container_manager.grpc.pb.h Pages: 1 -->
<svg width="2462pt" height="173pt"
 viewBox="0.00 0.00 2461.50 173.00" xmlns="http://www.w3.org/2000/svg" xmlns:xlink="http://www.w3.org/1999/xlink">
<g id="graph0" class="graph" transform="scale(1 1) rotate(0) translate(4 169)">
<title>executor/proto/generated/container_manager.grpc.pb.h</title>
<polygon fill="white" stroke="transparent" points="-4,4 -4,-169 2457.5,-169 2457.5,4 -4,4"/>
<!-- Node1 -->
<g id="node1" class="node">
<title>Node1</title>
<g id="a_node1"><a xlink:title=" ">
<polygon fill="#bfbfbf" stroke="black" points="1555,-134.5 1555,-164.5 1717,-164.5 1717,-134.5 1555,-134.5"/>
<text text-anchor="start" x="1563" y="-152.5" font-family="Helvetica,sans-Serif" font-size="10.00">executor/proto/generated</text>
<text text-anchor="middle" x="1636" y="-141.5" font-family="Helvetica,sans-Serif" font-size="10.00">/container_manager.grpc.pb.h</text>
</a>
</g>
</g>
<!-- Node2 -->
<g id="node2" class="node">
<title>Node2</title>
<g id="a_node2"><a xlink:href="container__manager_8pb_8h.html" target="_top" xlink:title=" ">
<polygon fill="white" stroke="black" points="829.5,-73 829.5,-92 964.5,-92 964.5,-73 829.5,-73"/>
<text text-anchor="middle" x="897" y="-80" font-family="Helvetica,sans-Serif" font-size="10.00">container_manager.pb.h</text>
</a>
</g>
</g>
<!-- Node1&#45;&gt;Node2 -->
<g id="edge1" class="edge">
<title>Node1&#45;&gt;Node2</title>
<path fill="none" stroke="midnightblue" d="M1554.94,-145.19C1429.85,-139.44 1182.41,-125.49 974,-98 965.47,-96.87 956.45,-95.42 947.71,-93.87"/>
<polygon fill="midnightblue" stroke="midnightblue" points="948.09,-90.38 937.63,-92.02 946.83,-97.26 948.09,-90.38"/>
</g>
<!-- Node16 -->
<g id="node16" class="node">
<title>Node16</title>
<g id="a_node16"><a xlink:title=" ">
<polygon fill="white" stroke="#bfbfbf" points="982.5,-73 982.5,-92 1047.5,-92 1047.5,-73 982.5,-73"/>
<text text-anchor="middle" x="1015" y="-80" font-family="Helvetica,sans-Serif" font-size="10.00">functional</text>
</a>
</g>
</g>
<!-- Node1&#45;&gt;Node16 -->
<g id="edge15" class="edge">
<title>Node1&#45;&gt;Node16</title>
<path fill="none" stroke="midnightblue" d="M1555,-147.67C1442.19,-145.12 1231.93,-135.23 1057,-98 1053.5,-97.25 1049.89,-96.3 1046.32,-95.24"/>
<polygon fill="midnightblue" stroke="midnightblue" points="1047.1,-91.82 1036.51,-92.06 1044.94,-98.48 1047.1,-91.82"/>
</g>
<!-- Node17 -->
<g id="node17" class="node">
<title>Node17</title>
<g id="a_node17"><a xlink:title=" ">
<polygon fill="white" stroke="#bfbfbf" points="1065.5,-67.5 1065.5,-97.5 1204.5,-97.5 1204.5,-67.5 1065.5,-67.5"/>
<text text-anchor="start" x="1073.5" y="-85.5" font-family="Helvetica,sans-Serif" font-size="10.00">grpcpp/impl/codegen</text>
<text text-anchor="middle" x="1135" y="-74.5" font-family="Helvetica,sans-Serif" font-size="10.00">/async_generic_service.h</text>
</a>
</g>
</g>
<!-- Node1&#45;&gt;Node17 -->
<g id="edge16" class="edge">
<title>Node1&#45;&gt;Node17</title>
<path fill="none" stroke="midnightblue" d="M1554.9,-140.31C1472.03,-131.6 1339.41,-116.71 1214.85,-98.07"/>
<polygon fill="midnightblue" stroke="midnightblue" points="1215.16,-94.58 1204.75,-96.55 1214.11,-101.5 1215.16,-94.58"/>
</g>
<!-- Node18 -->
<g id="node18" class="node">
<title>Node18</title>
<g id="a_node18"><a xlink:title=" ">
<polygon fill="white" stroke="#bfbfbf" points="1222.5,-67.5 1222.5,-97.5 1341.5,-97.5 1341.5,-67.5 1222.5,-67.5"/>
<text text-anchor="start" x="1230.5" y="-85.5" font-family="Helvetica,sans-Serif" font-size="10.00">grpcpp/impl/codegen</text>
<text text-anchor="middle" x="1282" y="-74.5" font-family="Helvetica,sans-Serif" font-size="10.00">/async_stream.h</text>
</a>
</g>
</g>
<!-- Node1&#45;&gt;Node18 -->
<g id="edge17" class="edge">
<title>Node1&#45;&gt;Node18</title>
<path fill="none" stroke="midnightblue" d="M1554.79,-134.82C1500.16,-125.45 1426.25,-112.45 1351.84,-98.13"/>
<polygon fill="midnightblue" stroke="midnightblue" points="1352.3,-94.65 1341.82,-96.19 1350.97,-101.53 1352.3,-94.65"/>
</g>
<!-- Node19 -->
<g id="node19" class="node">
<title>Node19</title>
<g id="a_node19"><a xlink:title=" ">
<polygon fill="white" stroke="#bfbfbf" points="1359.5,-67.5 1359.5,-97.5 1478.5,-97.5 1478.5,-67.5 1359.5,-67.5"/>
<text text-anchor="start" x="1367.5" y="-85.5" font-family="Helvetica,sans-Serif" font-size="10.00">grpcpp/impl/codegen</text>
<text text-anchor="middle" x="1419" y="-74.5" font-family="Helvetica,sans-Serif" font-size="10.00">/async_unary_call.h</text>
</a>
</g>
</g>
<!-- Node1&#45;&gt;Node19 -->
<g id="edge18" class="edge">
<title>Node1&#45;&gt;Node19</title>
<path fill="none" stroke="midnightblue" d="M1589.18,-134.48C1555.93,-124.51 1511.1,-111.09 1475.8,-100.51"/>
<polygon fill="midnightblue" stroke="midnightblue" points="1476.69,-97.13 1466.11,-97.61 1474.68,-103.83 1476.69,-97.13"/>
</g>
<!-- Node20 -->
<g id="node20" class="node">
<title>Node20</title>
<g id="a_node20"><a xlink:title=" ">
<polygon fill="white" stroke="#bfbfbf" points="1496.5,-67.5 1496.5,-97.5 1631.5,-97.5 1631.5,-67.5 1496.5,-67.5"/>
<text text-anchor="start" x="1504.5" y="-85.5" font-family="Helvetica,sans-Serif" font-size="10.00">grpcpp/impl/codegen</text>
<text text-anchor="middle" x="1564" y="-74.5" font-family="Helvetica,sans-Serif" font-size="10.00">/method_handler_impl.h</text>
</a>
</g>
</g>
<!-- Node1&#45;&gt;Node20 -->
<g id="edge19" class="edge">
<title>Node1&#45;&gt;Node20</title>
<path fill="none" stroke="midnightblue" d="M1620.38,-134.4C1610.66,-125.62 1597.99,-114.18 1587.12,-104.37"/>
<polygon fill="midnightblue" stroke="midnightblue" points="1589.36,-101.68 1579.59,-97.58 1584.67,-106.88 1589.36,-101.68"/>
</g>
<!-- Node21 -->
<g id="node21" class="node">
<title>Node21</title>
<g id="a_node21"><a xlink:title=" ">
<polygon fill="white" stroke="#bfbfbf" points="1649.5,-67.5 1649.5,-97.5 1768.5,-97.5 1768.5,-67.5 1649.5,-67.5"/>
<text text-anchor="start" x="1657.5" y="-85.5" font-family="Helvetica,sans-Serif" font-size="10.00">grpcpp/impl/codegen</text>
<text text-anchor="middle" x="1709" y="-74.5" font-family="Helvetica,sans-Serif" font-size="10.00">/proto_utils.h</text>
</a>
</g>
</g>
<!-- Node1&#45;&gt;Node21 -->
<g id="edge20" class="edge">
<title>Node1&#45;&gt;Node21</title>
<path fill="none" stroke="midnightblue" d="M1651.84,-134.4C1661.69,-125.62 1674.54,-114.18 1685.56,-104.37"/>
<polygon fill="midnightblue" stroke="midnightblue" points="1688.05,-106.84 1693.19,-97.58 1683.4,-101.61 1688.05,-106.84"/>
</g>
<!-- Node22 -->
<g id="node22" class="node">
<title>Node22</title>
<g id="a_node22"><a xlink:title=" ">
<polygon fill="white" stroke="#bfbfbf" points="1786.5,-67.5 1786.5,-97.5 1905.5,-97.5 1905.5,-67.5 1786.5,-67.5"/>
<text text-anchor="start" x="1794.5" y="-85.5" font-family="Helvetica,sans-Serif" font-size="10.00">grpcpp/impl/codegen</text>
<text text-anchor="middle" x="1846" y="-74.5" font-family="Helvetica,sans-Serif" font-size="10.00">/rpc_method.h</text>
</a>
</g>
</g>
<!-- Node1&#45;&gt;Node22 -->
<g id="edge21" class="edge">
<title>Node1&#45;&gt;Node22</title>
<path fill="none" stroke="midnightblue" d="M1681.31,-134.48C1713.35,-124.56 1756.5,-111.2 1790.6,-100.65"/>
<polygon fill="midnightblue" stroke="midnightblue" points="1791.89,-103.91 1800.41,-97.61 1789.82,-97.22 1791.89,-103.91"/>
</g>
<!-- Node23 -->
<g id="node23" class="node">
<title>Node23</title>
<g id="a_node23"><a xlink:title=" ">
<polygon fill="white" stroke="#bfbfbf" points="1923.5,-67.5 1923.5,-97.5 2042.5,-97.5 2042.5,-67.5 1923.5,-67.5"/>
<text text-anchor="start" x="1931.5" y="-85.5" font-family="Helvetica,sans-Serif" font-size="10.00">grpcpp/impl/codegen</text>
<text text-anchor="middle" x="1983" y="-74.5" font-family="Helvetica,sans-Serif" font-size="10.00">/service_type.h</text>
</a>
</g>
</g>
<!-- Node1&#45;&gt;Node23 -->
<g id="edge22" class="edge">
<title>Node1&#45;&gt;Node23</title>
<path fill="none" stroke="midnightblue" d="M1717.01,-134.52C1770.26,-125.17 1841.71,-112.33 1913.23,-98.32"/>
<polygon fill="midnightblue" stroke="midnightblue" points="1914.18,-101.7 1923.32,-96.34 1912.83,-94.83 1914.18,-101.7"/>
</g>
<!-- Node24 -->
<g id="node24" class="node">
<title>Node24</title>
<g id="a_node24"><a xlink:title=" ">
<polygon fill="white" stroke="#bfbfbf" points="2060.5,-67.5 2060.5,-97.5 2179.5,-97.5 2179.5,-67.5 2060.5,-67.5"/>
<text text-anchor="start" x="2068.5" y="-85.5" font-family="Helvetica,sans-Serif" font-size="10.00">grpcpp/impl/codegen</text>
<text text-anchor="middle" x="2120" y="-74.5" font-family="Helvetica,sans-Serif" font-size="10.00">/status.h</text>
</a>
</g>
</g>
<!-- Node1&#45;&gt;Node24 -->
<g id="edge23" class="edge">
<title>Node1&#45;&gt;Node24</title>
<path fill="none" stroke="midnightblue" d="M1717.22,-140.81C1799,-132.57 1928.94,-118.14 2050.15,-98.23"/>
<polygon fill="midnightblue" stroke="midnightblue" points="2051.06,-101.62 2060.35,-96.53 2049.92,-94.72 2051.06,-101.62"/>
</g>
<!-- Node25 -->
<g id="node25" class="node">
<title>Node25</title>
<g id="a_node25"><a xlink:title=" ">
<polygon fill="white" stroke="#bfbfbf" points="2197.5,-67.5 2197.5,-97.5 2316.5,-97.5 2316.5,-67.5 2197.5,-67.5"/>
<text text-anchor="start" x="2205.5" y="-85.5" font-family="Helvetica,sans-Serif" font-size="10.00">grpcpp/impl/codegen</text>
<text text-anchor="middle" x="2257" y="-74.5" font-family="Helvetica,sans-Serif" font-size="10.00">/stub_options.h</text>
</a>
</g>
</g>
<!-- Node1&#45;&gt;Node25 -->
<g id="edge24" class="edge">
<title>Node1&#45;&gt;Node25</title>
<path fill="none" stroke="midnightblue" d="M1717.42,-144.11C1823.53,-137.7 2014.97,-123.81 2187.35,-98.14"/>
<polygon fill="midnightblue" stroke="midnightblue" points="2188,-101.59 2197.37,-96.63 2186.96,-94.66 2188,-101.59"/>
</g>
<!-- Node26 -->
<g id="node26" class="node">
<title>Node26</title>
<g id="a_node26"><a xlink:title=" ">
<polygon fill="white" stroke="#bfbfbf" points="2334.5,-67.5 2334.5,-97.5 2453.5,-97.5 2453.5,-67.5 2334.5,-67.5"/>
<text text-anchor="start" x="2342.5" y="-85.5" font-family="Helvetica,sans-Serif" font-size="10.00">grpcpp/impl/codegen</text>
<text text-anchor="middle" x="2394" y="-74.5" font-family="Helvetica,sans-Serif" font-size="10.00">/sync_stream.h</text>
</a>
</g>
</g>
<!-- Node1&#45;&gt;Node26 -->
<g id="edge25" class="edge">
<title>Node1&#45;&gt;Node26</title>
<path fill="none" stroke="midnightblue" d="M1717.12,-146.16C1844.58,-141.7 2099.59,-129.55 2324.37,-98.11"/>
<polygon fill="midnightblue" stroke="midnightblue" points="2324.97,-101.56 2334.38,-96.7 2323.99,-94.63 2324.97,-101.56"/>
</g>
<!-- Node3 -->
<g id="node3" class="node">
<title>Node3</title>
<g id="a_node3"><a xlink:title=" ">
<polygon fill="white" stroke="#bfbfbf" points="0,-6 0,-25 44,-25 44,-6 0,-6"/>
<text text-anchor="middle" x="22" y="-13" font-family="Helvetica,sans-Serif" font-size="10.00">string</text>
</a>
</g>
</g>
<!-- Node2&#45;&gt;Node3 -->
<g id="edge2" class="edge">
<title>Node2&#45;&gt;Node3</title>
<path fill="none" stroke="midnightblue" d="M829.44,-80.73C656.2,-78.22 199.46,-68.18 53,-31 51.01,-30.5 49,-29.86 47,-29.15"/>
<polygon fill="midnightblue" stroke="midnightblue" points="47.92,-25.74 37.34,-25.07 45.2,-32.19 47.92,-25.74"/>
</g>
<!-- Node4 -->
<g id="node4" class="node">
<title>Node4</title>
<g id="a_node4"><a xlink:title=" ">
<polygon fill="white" stroke="#bfbfbf" points="62.5,-0.5 62.5,-30.5 185.5,-30.5 185.5,-0.5 62.5,-0.5"/>
<text text-anchor="start" x="70.5" y="-18.5" font-family="Helvetica,sans-Serif" font-size="10.00">google/protobuf/stubs</text>
<text text-anchor="middle" x="124" y="-7.5" font-family="Helvetica,sans-Serif" font-size="10.00">/common.h</text>
</a>
</g>
</g>
<!-- Node2&#45;&gt;Node4 -->
<g id="edge3" class="edge">
<title>Node2&#45;&gt;Node4</title>
<path fill="none" stroke="midnightblue" d="M829.42,-79.55C705.69,-75.35 434.34,-63.18 196.12,-31.03"/>
<polygon fill="midnightblue" stroke="midnightblue" points="196.26,-27.51 185.87,-29.63 195.31,-34.45 196.26,-27.51"/>
</g>
<!-- Node5 -->
<g id="node5" class="node">
<title>Node5</title>
<g id="a_node5"><a xlink:title=" ">
<polygon fill="white" stroke="#bfbfbf" points="204,-0.5 204,-30.5 310,-30.5 310,-0.5 204,-0.5"/>
<text text-anchor="start" x="212" y="-18.5" font-family="Helvetica,sans-Serif" font-size="10.00">google/protobuf/io</text>
<text text-anchor="middle" x="257" y="-7.5" font-family="Helvetica,sans-Serif" font-size="10.00">/coded_stream.h</text>
</a>
</g>
</g>
<!-- Node2&#45;&gt;Node5 -->
<g id="edge4" class="edge">
<title>Node2&#45;&gt;Node5</title>
<path fill="none" stroke="midnightblue" d="M829.43,-78.72C722.99,-73.66 509.72,-60.74 319.88,-30.99"/>
<polygon fill="midnightblue" stroke="midnightblue" points="320.43,-27.53 310,-29.42 319.33,-34.44 320.43,-27.53"/>
</g>
<!-- Node6 -->
<g id="node6" class="node">
<title>Node6</title>
<g id="a_node6"><a xlink:title=" ">
<polygon fill="white" stroke="#bfbfbf" points="328,-6 328,-25 462,-25 462,-6 328,-6"/>
<text text-anchor="middle" x="395" y="-13" font-family="Helvetica,sans-Serif" font-size="10.00">google/protobuf/arena.h</text>
</a>
</g>
</g>
<!-- Node2&#45;&gt;Node6 -->
<g id="edge5" class="edge">
<title>Node2&#45;&gt;Node6</title>
<path fill="none" stroke="midnightblue" d="M829.29,-74.96C745.09,-66.49 597.05,-50.47 471,-31 463.16,-29.79 454.89,-28.36 446.81,-26.89"/>
<polygon fill="midnightblue" stroke="midnightblue" points="447.19,-23.4 436.72,-25.01 445.91,-30.28 447.19,-23.4"/>
</g>
<!-- Node7 -->
<g id="node7" class="node">
<title>Node7</title>
<g id="a_node7"><a xlink:title=" ">
<polygon fill="white" stroke="#bfbfbf" points="480.5,-6 480.5,-25 641.5,-25 641.5,-6 480.5,-6"/>
<text text-anchor="middle" x="561" y="-13" font-family="Helvetica,sans-Serif" font-size="10.00">google/protobuf/arenastring.h</text>
</a>
</g>
</g>
<!-- Node2&#45;&gt;Node7 -->
<g id="edge6" class="edge">
<title>Node2&#45;&gt;Node7</title>
<path fill="none" stroke="midnightblue" d="M852.73,-72.94C791.58,-61.11 681.36,-39.78 615.31,-27.01"/>
<polygon fill="midnightblue" stroke="midnightblue" points="615.59,-23.49 605.1,-25.03 614.26,-30.37 615.59,-23.49"/>
</g>
<!-- Node8 -->
<g id="node8" class="node">
<title>Node8</title>
<g id="a_node8"><a xlink:title=" ">
<polygon fill="white" stroke="#bfbfbf" points="660,-0.5 660,-30.5 806,-30.5 806,-0.5 660,-0.5"/>
<text text-anchor="start" x="668" y="-18.5" font-family="Helvetica,sans-Serif" font-size="10.00">google/protobuf/generated</text>
<text text-anchor="middle" x="733" y="-7.5" font-family="Helvetica,sans-Serif" font-size="10.00">_message_table_driven.h</text>
</a>
</g>
</g>
<!-- Node2&#45;&gt;Node8 -->
<g id="edge7" class="edge">
<title>Node2&#45;&gt;Node8</title>
<path fill="none" stroke="midnightblue" d="M875.22,-72.87C850.51,-63.07 809.52,-46.83 777.88,-34.29"/>
<polygon fill="midnightblue" stroke="midnightblue" points="778.98,-30.96 768.39,-30.53 776.4,-37.47 778.98,-30.96"/>
</g>
<!-- Node9 -->
<g id="node9" class="node">
<title>Node9</title>
<g id="a_node9"><a xlink:title=" ">
<polygon fill="white" stroke="#bfbfbf" points="824,-0.5 824,-30.5 970,-30.5 970,-0.5 824,-0.5"/>
<text text-anchor="start" x="832" y="-18.5" font-family="Helvetica,sans-Serif" font-size="10.00">google/protobuf/generated</text>
<text text-anchor="middle" x="897" y="-7.5" font-family="Helvetica,sans-Serif" font-size="10.00">_message_util.h</text>
</a>
</g>
</g>
<!-- Node2&#45;&gt;Node9 -->
<g id="edge8" class="edge">
<title>Node2&#45;&gt;Node9</title>
<path fill="none" stroke="midnightblue" d="M897,-72.73C897,-64.54 897,-51.92 897,-40.71"/>
<polygon fill="midnightblue" stroke="midnightblue" points="900.5,-40.59 897,-30.59 893.5,-40.59 900.5,-40.59"/>
</g>
<!-- Node10 -->
<g id="node10" class="node">
<title>Node10</title>
<g id="a_node10"><a xlink:title=" ">
<polygon fill="white" stroke="#bfbfbf" points="988,-0.5 988,-30.5 1118,-30.5 1118,-0.5 988,-0.5"/>
<text text-anchor="start" x="996" y="-18.5" font-family="Helvetica,sans-Serif" font-size="10.00">google/protobuf/inlined</text>
<text text-anchor="middle" x="1053" y="-7.5" font-family="Helvetica,sans-Serif" font-size="10.00">_string_field.h</text>
</a>
</g>
</g>
<!-- Node2&#45;&gt;Node10 -->
<g id="edge9" class="edge">
<title>Node2&#45;&gt;Node10</title>
<path fill="none" stroke="midnightblue" d="M917.72,-72.87C941.12,-63.12 979.87,-46.97 1009.92,-34.45"/>
<polygon fill="midnightblue" stroke="midnightblue" points="1011.45,-37.61 1019.33,-30.53 1008.76,-31.14 1011.45,-37.61"/>
</g>
<!-- Node11 -->
<g id="node11" class="node">
<title>Node11</title>
<g id="a_node11"><a xlink:title=" ">
<polygon fill="white" stroke="#bfbfbf" points="1136.5,-6 1136.5,-25 1289.5,-25 1289.5,-6 1136.5,-6"/>
<text text-anchor="middle" x="1213" y="-13" font-family="Helvetica,sans-Serif" font-size="10.00">google/protobuf/metadata.h</text>
</a>
</g>
</g>
<!-- Node2&#45;&gt;Node11 -->
<g id="edge10" class="edge">
<title>Node2&#45;&gt;Node11</title>
<path fill="none" stroke="midnightblue" d="M938.64,-72.94C996.03,-61.13 1099.38,-39.87 1161.54,-27.09"/>
<polygon fill="midnightblue" stroke="midnightblue" points="1162.43,-30.47 1171.52,-25.03 1161.02,-23.62 1162.43,-30.47"/>
</g>
<!-- Node12 -->
<g id="node12" class="node">
<title>Node12</title>
<g id="a_node12"><a xlink:title=" ">
<polygon fill="white" stroke="#bfbfbf" points="1308,-6 1308,-25 1458,-25 1458,-6 1308,-6"/>
<text text-anchor="middle" x="1383" y="-13" font-family="Helvetica,sans-Serif" font-size="10.00">google/protobuf/message.h</text>
</a>
</g>
</g>
<!-- Node2&#45;&gt;Node12 -->
<g id="edge11" class="edge">
<title>Node2&#45;&gt;Node12</title>
<path fill="none" stroke="midnightblue" d="M939.26,-72.94C950.52,-70.83 962.7,-68.69 974,-67 1117.73,-45.54 1155.11,-51.37 1299,-31 1307.84,-29.75 1317.17,-28.28 1326.28,-26.77"/>
<polygon fill="midnightblue" stroke="midnightblue" points="1327.15,-30.17 1336.43,-25.06 1325.98,-23.27 1327.15,-30.17"/>
</g>
<!-- Node13 -->
<g id="node13" class="node">
<title>Node13</title>
<g id="a_node13"><a xlink:title=" ">
<polygon fill="white" stroke="#bfbfbf" points="1476,-0.5 1476,-30.5 1616,-30.5 1616,-0.5 1476,-0.5"/>
<text text-anchor="start" x="1484" y="-18.5" font-family="Helvetica,sans-Serif" font-size="10.00">google/protobuf/repeated</text>
<text text-anchor="middle" x="1546" y="-7.5" font-family="Helvetica,sans-Serif" font-size="10.00">_field.h</text>
</a>
</g>
</g>
<!-- Node2&#45;&gt;Node13 -->
<g id="edge12" class="edge">
<title>Node2&#45;&gt;Node13</title>
<path fill="none" stroke="midnightblue" d="M937.62,-72.96C949.32,-70.74 962.13,-68.55 974,-67 1188.56,-39.06 1247.31,-58.27 1465.67,-31.07"/>
<polygon fill="midnightblue" stroke="midnightblue" points="1466.37,-34.51 1475.85,-29.78 1465.49,-27.57 1466.37,-34.51"/>
</g>
<!-- Node14 -->
<g id="node14" class="node">
<title>Node14</title>
<g id="a_node14"><a xlink:title=" ">
<polygon fill="white" stroke="#bfbfbf" points="1634.5,-0.5 1634.5,-30.5 1779.5,-30.5 1779.5,-0.5 1634.5,-0.5"/>
<text text-anchor="start" x="1642.5" y="-18.5" font-family="Helvetica,sans-Serif" font-size="10.00">google/protobuf/extension</text>
<text text-anchor="middle" x="1707" y="-7.5" font-family="Helvetica,sans-Serif" font-size="10.00">_set.h</text>
</a>
</g>
</g>
<!-- Node2&#45;&gt;Node14 -->
<g id="edge13" class="edge">
<title>Node2&#45;&gt;Node14</title>
<path fill="none" stroke="midnightblue" d="M936.81,-72.98C948.72,-70.7 961.85,-68.47 974,-67 1258.3,-32.52 1335.34,-63.54 1623.84,-31.03"/>
<polygon fill="midnightblue" stroke="midnightblue" points="1624.65,-34.46 1634.19,-29.84 1623.86,-27.5 1624.65,-34.46"/>
</g>
<!-- Node15 -->
<g id="node15" class="node">
<title>Node15</title>
<g id="a_node15"><a xlink:title=" ">
<polygon fill="white" stroke="#bfbfbf" points="1797.5,-0.5 1797.5,-30.5 1938.5,-30.5 1938.5,-0.5 1797.5,-0.5"/>
<text text-anchor="start" x="1805.5" y="-18.5" font-family="Helvetica,sans-Serif" font-size="10.00">google/protobuf/unknown</text>
<text text-anchor="middle" x="1868" y="-7.5" font-family="Helvetica,sans-Serif" font-size="10.00">_field_set.h</text>
</a>
</g>
</g>
<!-- Node2&#45;&gt;Node15 -->
<g id="edge14" class="edge">
<title>Node2&#45;&gt;Node15</title>
<path fill="none" stroke="midnightblue" d="M936.4,-72.97C948.42,-70.67 961.7,-68.42 974,-67 1330.83,-25.73 1426.95,-70.97 1787.24,-31.09"/>
<polygon fill="midnightblue" stroke="midnightblue" points="1787.89,-34.54 1797.44,-29.95 1787.11,-27.58 1787.89,-34.54"/>
</g>
</g>
</svg>
