<?xml version="1.0" encoding="UTF-8" standalone="no"?>
<!DOCTYPE svg PUBLIC "-//W3C//DTD SVG 1.1//EN"
 "http://www.w3.org/Graphics/SVG/1.1/DTD/svg11.dtd">
<!-- Generated by graphviz version 2.43.0 (0)
 -->
<!-- Title: core/inc/container_service.hpp Pages: 1 -->
<svg width="654pt" height="173pt"
 viewBox="0.00 0.00 654.00 173.00" xmlns="http://www.w3.org/2000/svg" xmlns:xlink="http://www.w3.org/1999/xlink">
<g id="graph0" class="graph" transform="scale(1 1) rotate(0) translate(4 169)">
<title>core/inc/container_service.hpp</title>
<polygon fill="white" stroke="transparent" points="-4,4 -4,-169 650,-169 650,4 -4,4"/>
<!-- Node1 -->
<g id="node1" class="node">
<title>Node1</title>
<g id="a_node1"><a xlink:title="Declares the ContainerServiceHandler class for business logic related to containers.">
<polygon fill="#bfbfbf" stroke="black" points="278,-134.5 278,-164.5 382,-164.5 382,-134.5 278,-134.5"/>
<text text-anchor="start" x="286" y="-152.5" font-family="Helvetica,sans-Serif" font-size="10.00">core/inc/container</text>
<text text-anchor="middle" x="330" y="-141.5" font-family="Helvetica,sans-Serif" font-size="10.00">_service.hpp</text>
</a>
</g>
</g>
<!-- Node2 -->
<g id="node2" class="node">
<title>Node2</title>
<g id="a_node2"><a xlink:href="container__service_8cpp.html" target="_top" xlink:title="Implements the ContainerServiceHandler class for business logic related to containers.">
<polygon fill="white" stroke="black" points="0,-67.5 0,-97.5 104,-97.5 104,-67.5 0,-67.5"/>
<text text-anchor="start" x="8" y="-85.5" font-family="Helvetica,sans-Serif" font-size="10.00">core/src/container</text>
<text text-anchor="middle" x="52" y="-74.5" font-family="Helvetica,sans-Serif" font-size="10.00">_service.cpp</text>
</a>
</g>
</g>
<!-- Node1&#45;&gt;Node2 -->
<g id="edge1" class="edge">
<title>Node1&#45;&gt;Node2</title>
<path fill="none" stroke="midnightblue" d="M267.81,-133.96C218.53,-122.44 150.48,-106.53 104.06,-95.67"/>
<polygon fill="midnightblue" stroke="midnightblue" points="267.18,-137.41 277.71,-136.27 268.77,-130.59 267.18,-137.41"/>
</g>
<!-- Node3 -->
<g id="node3" class="node">
<title>Node3</title>
<g id="a_node3"><a xlink:href="json__request__executor_8hpp.html" target="_top" xlink:title="Declares the JsonRequestExecutorHandler class for executing JSON&#45;based requests.">
<polygon fill="white" stroke="black" points="160,-67.5 160,-97.5 302,-97.5 302,-67.5 160,-67.5"/>
<text text-anchor="start" x="168" y="-85.5" font-family="Helvetica,sans-Serif" font-size="10.00">executor/inc/json_request</text>
<text text-anchor="middle" x="231" y="-74.5" font-family="Helvetica,sans-Serif" font-size="10.00">_executor.hpp</text>
</a>
</g>
</g>
<!-- Node1&#45;&gt;Node3 -->
<g id="edge2" class="edge">
<title>Node1&#45;&gt;Node3</title>
<path fill="none" stroke="midnightblue" d="M299.89,-128.73C284.58,-118.68 266.31,-106.68 252.44,-97.58"/>
<polygon fill="midnightblue" stroke="midnightblue" points="298.24,-131.83 308.52,-134.4 302.08,-125.98 298.24,-131.83"/>
</g>
<!-- Node4 -->
<g id="node4" class="node">
<title>Node4</title>
<g id="a_node4"><a xlink:href="json__request__executor_8cpp.html" target="_top" xlink:title="JSON request executor for Container Manager.">
<polygon fill="white" stroke="black" points="93,-0.5 93,-30.5 235,-30.5 235,-0.5 93,-0.5"/>
<text text-anchor="start" x="101" y="-18.5" font-family="Helvetica,sans-Serif" font-size="10.00">executor/src/json_request</text>
<text text-anchor="middle" x="164" y="-7.5" font-family="Helvetica,sans-Serif" font-size="10.00">_executor.cpp</text>
</a>
</g>
</g>
<!-- Node1&#45;&gt;Node4 -->
<g id="edge7" class="edge">
<title>Node1&#45;&gt;Node4</title>
<path fill="none" stroke="midnightblue" d="M267.82,-139.08C222.01,-130.72 165.3,-116.89 151,-98 136.13,-78.35 147.11,-48.31 155.92,-30.72"/>
<polygon fill="midnightblue" stroke="midnightblue" points="267.25,-142.53 277.71,-140.83 268.47,-135.64 267.25,-142.53"/>
</g>
<!-- Node5 -->
<g id="node5" class="node">
<title>Node5</title>
<g id="a_node5"><a xlink:href="main_8cpp.html" target="_top" xlink:title="Entry point for the Container Manager service.">
<polygon fill="white" stroke="black" points="281,-6 281,-25 343,-25 343,-6 281,-6"/>
<text text-anchor="middle" x="312" y="-13" font-family="Helvetica,sans-Serif" font-size="10.00">main.cpp</text>
</a>
</g>
</g>
<!-- Node1&#45;&gt;Node5 -->
<g id="edge9" class="edge">
<title>Node1&#45;&gt;Node5</title>
<path fill="none" stroke="midnightblue" d="M326.7,-124.32C322.62,-94.38 315.87,-44.91 313.17,-25.1"/>
<polygon fill="midnightblue" stroke="midnightblue" points="323.25,-124.94 328.07,-134.37 330.19,-123.99 323.25,-124.94"/>
</g>
<!-- Node6 -->
<g id="node6" class="node">
<title>Node6</title>
<g id="a_node6"><a xlink:href="protobuf__request__executor_8hpp.html" target="_top" xlink:title="Declares the ProtoRequestExecutorHandler class for handling Protobuf&#45;based requests.">
<polygon fill="white" stroke="black" points="358,-67.5 358,-97.5 486,-97.5 486,-67.5 358,-67.5"/>
<text text-anchor="start" x="366" y="-85.5" font-family="Helvetica,sans-Serif" font-size="10.00">executor/inc/protobuf</text>
<text text-anchor="middle" x="422" y="-74.5" font-family="Helvetica,sans-Serif" font-size="10.00">_request_executor.hpp</text>
</a>
</g>
</g>
<!-- Node1&#45;&gt;Node6 -->
<g id="edge5" class="edge">
<title>Node1&#45;&gt;Node6</title>
<path fill="none" stroke="midnightblue" d="M358.38,-128.45C372.53,-118.45 389.31,-106.6 402.08,-97.58"/>
<polygon fill="midnightblue" stroke="midnightblue" points="356.11,-125.77 349.96,-134.4 360.15,-131.48 356.11,-125.77"/>
</g>
<!-- Node7 -->
<g id="node7" class="node">
<title>Node7</title>
<g id="a_node7"><a xlink:href="protobuf__request__executor_8cpp.html" target="_top" xlink:title="Protocol Buffers request executor for Container Manager.">
<polygon fill="white" stroke="black" points="375.5,-0.5 375.5,-30.5 502.5,-30.5 502.5,-0.5 375.5,-0.5"/>
<text text-anchor="start" x="383.5" y="-18.5" font-family="Helvetica,sans-Serif" font-size="10.00">executor/src/protobuf</text>
<text text-anchor="middle" x="439" y="-7.5" font-family="Helvetica,sans-Serif" font-size="10.00">_request_executor.cpp</text>
</a>
</g>
</g>
<!-- Node1&#45;&gt;Node7 -->
<g id="edge8" class="edge">
<title>Node1&#45;&gt;Node7</title>
<path fill="none" stroke="midnightblue" d="M392.39,-146.77C428.59,-142.15 471.55,-129.7 495,-98 512.15,-74.81 482.67,-46.96 460.38,-30.55"/>
<polygon fill="midnightblue" stroke="midnightblue" points="391.94,-143.3 382.38,-147.87 392.7,-150.26 391.94,-143.3"/>
</g>
<!-- Node8 -->
<g id="node8" class="node">
<title>Node8</title>
<g id="a_node8"><a xlink:href="container__service__test_8cpp.html" target="_top" xlink:title=" ">
<polygon fill="white" stroke="black" points="542,-67.5 542,-97.5 646,-97.5 646,-67.5 542,-67.5"/>
<text text-anchor="start" x="550" y="-85.5" font-family="Helvetica,sans-Serif" font-size="10.00">unitTest/container</text>
<text text-anchor="middle" x="594" y="-74.5" font-family="Helvetica,sans-Serif" font-size="10.00">_service_test.cpp</text>
</a>
</g>
</g>
<!-- Node1&#45;&gt;Node8 -->
<g id="edge10" class="edge">
<title>Node1&#45;&gt;Node8</title>
<path fill="none" stroke="midnightblue" d="M391.93,-133.25C437.54,-122.02 498.86,-106.92 541.95,-96.32"/>
<polygon fill="midnightblue" stroke="midnightblue" points="391.03,-129.87 382.16,-135.66 392.7,-136.67 391.03,-129.87"/>
</g>
<!-- Node3&#45;&gt;Node4 -->
<g id="edge3" class="edge">
<title>Node3&#45;&gt;Node4</title>
<path fill="none" stroke="midnightblue" d="M209.16,-60.31C199.11,-50.56 187.46,-39.26 178.51,-30.58"/>
<polygon fill="midnightblue" stroke="midnightblue" points="206.85,-62.94 216.46,-67.4 211.72,-57.92 206.85,-62.94"/>
</g>
<!-- Node3&#45;&gt;Node5 -->
<g id="edge4" class="edge">
<title>Node3&#45;&gt;Node5</title>
<path fill="none" stroke="midnightblue" d="M256.54,-61.01C271.57,-48.94 289.81,-34.3 301.17,-25.19"/>
<polygon fill="midnightblue" stroke="midnightblue" points="254.18,-58.41 248.58,-67.4 258.57,-63.87 254.18,-58.41"/>
</g>
<!-- Node6&#45;&gt;Node7 -->
<g id="edge6" class="edge">
<title>Node6&#45;&gt;Node7</title>
<path fill="none" stroke="midnightblue" d="M428.23,-57.7C430.61,-48.59 433.25,-38.49 435.32,-30.58"/>
<polygon fill="midnightblue" stroke="midnightblue" points="424.83,-56.84 425.69,-67.4 431.61,-58.61 424.83,-56.84"/>
</g>
</g>
</svg>
