<?xml version="1.0" encoding="UTF-8" standalone="no"?>
<!DOCTYPE svg PUBLIC "-//W3C//DTD SVG 1.1//EN"
 "http://www.w3.org/Graphics/SVG/1.1/DTD/svg11.dtd">
<!-- Generated by graphviz version 2.43.0 (0)
 -->
<!-- Title: executor/proto/generated/container_manager.pb.h Pages: 1 -->
<!--zoomable 106 -->
<svg id="main" version="1.1" xmlns="http://www.w3.org/2000/svg" xmlns:xlink="http://www.w3.org/1999/xlink" xml:space="preserve" onload="init(evt)">
<style type="text/css"><![CDATA[
.edge:hover path { stroke: red; }
.edge:hover polygon { stroke: red; fill: red; }
]]></style>
<script type="text/javascript"><![CDATA[
var edges = document.getElementsByTagName('g');
if (edges && edges.length) {
  for (var i=0;i<edges.length;i++) {
    if (edges[i].id.substr(0,4)=='edge') {
      edges[i].setAttribute('class','edge');
    }
  }
}
]]></script>
        <defs>
                <circle id="rim" cx="0" cy="0" r="7"/>
                <circle id="rim2" cx="0" cy="0" r="3.5"/>
                <g id="zoomPlus">
                        <use xlink:href="#rim" fill="#404040">
                                <set attributeName="fill" to="#808080" begin="zoomplus.mouseover" end="zoomplus.mouseout"/>
                        </use>
                        <path d="M-4,0h8M0,-4v8" fill="none" stroke="white" stroke-width="1.5" pointer-events="none"/>
                </g>
                <g id="zoomMin">
                        <use xlink:href="#rim" fill="#404040">
                                <set attributeName="fill" to="#808080" begin="zoomminus.mouseover" end="zoomminus.mouseout"/>
                        </use>
                        <path d="M-4,0h8" fill="none" stroke="white" stroke-width="1.5" pointer-events="none"/>
                </g>
                <g id="dirArrow">
                        <path fill="none" stroke="white" stroke-width="1.5" d="M0,-3.0v7 M-2.5,-0.5L0,-3.0L2.5,-0.5"/>
                </g>
               <g id="resetDef">
                       <use xlink:href="#rim2" fill="#404040">
                               <set attributeName="fill" to="#808080" begin="reset.mouseover" end="reset.mouseout"/>
                       </use>
               </g>
        </defs>

<script type="text/javascript">
var viewWidth = 1947;
var viewHeight = 106;
var sectionId = 'dynsection-0';
</script>
<script xlink:href="svgpan.js"/>
<svg id="graph" class="graph">
<g id="viewport">
<title>executor/proto/generated/container_manager.pb.h</title>
<polygon fill="white" stroke="transparent" points="-4,4 -4,-102 1942.5,-102 1942.5,4 -4,4"/>
<!-- Node1 -->
<g id="node1" class="node">
<title>Node1</title>
<g id="a_node1"><a xlink:title=" ">
<polygon fill="#bfbfbf" stroke="black" points="827,-67.5 827,-97.5 967,-97.5 967,-67.5 827,-67.5"/>
<text text-anchor="start" x="835" y="-85.5" font-family="Helvetica,sans-Serif" font-size="10.00">executor/proto/generated</text>
<text text-anchor="middle" x="897" y="-74.5" font-family="Helvetica,sans-Serif" font-size="10.00">/container_manager.pb.h</text>
</a>
</g>
</g>
<!-- Node2 -->
<g id="node2" class="node">
<title>Node2</title>
<g id="a_node2"><a xlink:title=" ">
<polygon fill="white" stroke="#bfbfbf" points="0,-6 0,-25 44,-25 44,-6 0,-6"/>
<text text-anchor="middle" x="22" y="-13" font-family="Helvetica,sans-Serif" font-size="10.00">string</text>
</a>
</g>
</g>
<!-- Node1&#45;&gt;Node2 -->
<g id="edge1" class="edge">
<title>Node1&#45;&gt;Node2</title>
<path fill="none" stroke="midnightblue" d="M826.9,-80.69C651.77,-78.12 198.74,-68 53,-31 51.01,-30.5 49,-29.86 47,-29.15"/>
<polygon fill="midnightblue" stroke="midnightblue" points="47.92,-25.74 37.34,-25.07 45.2,-32.19 47.92,-25.74"/>
</g>
<!-- Node3 -->
<g id="node3" class="node">
<title>Node3</title>
<g id="a_node3"><a xlink:title=" ">
<polygon fill="white" stroke="#bfbfbf" points="62.5,-0.5 62.5,-30.5 185.5,-30.5 185.5,-0.5 62.5,-0.5"/>
<text text-anchor="start" x="70.5" y="-18.5" font-family="Helvetica,sans-Serif" font-size="10.00">google/protobuf/stubs</text>
<text text-anchor="middle" x="124" y="-7.5" font-family="Helvetica,sans-Serif" font-size="10.00">/common.h</text>
</a>
</g>
</g>
<!-- Node1&#45;&gt;Node3 -->
<g id="edge2" class="edge">
<title>Node1&#45;&gt;Node3</title>
<path fill="none" stroke="midnightblue" d="M826.94,-79.47C702.08,-75.18 432.76,-62.97 196.05,-31.02"/>
<polygon fill="midnightblue" stroke="midnightblue" points="196.26,-27.51 185.87,-29.63 195.31,-34.45 196.26,-27.51"/>
</g>
<!-- Node4 -->
<g id="node4" class="node">
<title>Node4</title>
<g id="a_node4"><a xlink:title=" ">
<polygon fill="white" stroke="#bfbfbf" points="204,-0.5 204,-30.5 310,-30.5 310,-0.5 204,-0.5"/>
<text text-anchor="start" x="212" y="-18.5" font-family="Helvetica,sans-Serif" font-size="10.00">google/protobuf/io</text>
<text text-anchor="middle" x="257" y="-7.5" font-family="Helvetica,sans-Serif" font-size="10.00">/coded_stream.h</text>
</a>
</g>
</g>
<!-- Node1&#45;&gt;Node4 -->
<g id="edge3" class="edge">
<title>Node1&#45;&gt;Node4</title>
<path fill="none" stroke="midnightblue" d="M826.76,-78.6C719.5,-73.45 508.37,-60.51 320.09,-31.02"/>
<polygon fill="midnightblue" stroke="midnightblue" points="320.43,-27.53 310,-29.42 319.33,-34.44 320.43,-27.53"/>
</g>
<!-- Node5 -->
<g id="node5" class="node">
<title>Node5</title>
<g id="a_node5"><a xlink:title=" ">
<polygon fill="white" stroke="#bfbfbf" points="328,-6 328,-25 462,-25 462,-6 328,-6"/>
<text text-anchor="middle" x="395" y="-13" font-family="Helvetica,sans-Serif" font-size="10.00">google/protobuf/arena.h</text>
</a>
</g>
</g>
<!-- Node1&#45;&gt;Node5 -->
<g id="edge4" class="edge">
<title>Node1&#45;&gt;Node5</title>
<path fill="none" stroke="midnightblue" d="M826.69,-74.7C742.06,-66.16 595.76,-50.27 471,-31 463.16,-29.79 454.89,-28.36 446.81,-26.89"/>
<polygon fill="midnightblue" stroke="midnightblue" points="447.19,-23.4 436.72,-25.01 445.91,-30.28 447.19,-23.4"/>
</g>
<!-- Node6 -->
<g id="node6" class="node">
<title>Node6</title>
<g id="a_node6"><a xlink:title=" ">
<polygon fill="white" stroke="#bfbfbf" points="480.5,-6 480.5,-25 641.5,-25 641.5,-6 480.5,-6"/>
<text text-anchor="middle" x="561" y="-13" font-family="Helvetica,sans-Serif" font-size="10.00">google/protobuf/arenastring.h</text>
</a>
</g>
</g>
<!-- Node1&#45;&gt;Node6 -->
<g id="edge5" class="edge">
<title>Node1&#45;&gt;Node6</title>
<path fill="none" stroke="midnightblue" d="M826.97,-67.95C764.01,-55.77 672.84,-38.14 615.26,-27"/>
<polygon fill="midnightblue" stroke="midnightblue" points="615.75,-23.53 605.27,-25.06 614.42,-30.4 615.75,-23.53"/>
</g>
<!-- Node7 -->
<g id="node7" class="node">
<title>Node7</title>
<g id="a_node7"><a xlink:title=" ">
<polygon fill="white" stroke="#bfbfbf" points="660,-0.5 660,-30.5 806,-30.5 806,-0.5 660,-0.5"/>
<text text-anchor="start" x="668" y="-18.5" font-family="Helvetica,sans-Serif" font-size="10.00">google/protobuf/generated</text>
<text text-anchor="middle" x="733" y="-7.5" font-family="Helvetica,sans-Serif" font-size="10.00">_message_table_driven.h</text>
</a>
</g>
</g>
<!-- Node1&#45;&gt;Node7 -->
<g id="edge6" class="edge">
<title>Node1&#45;&gt;Node7</title>
<path fill="none" stroke="midnightblue" d="M861.41,-67.4C836.91,-57.69 804.17,-44.71 777.88,-34.29"/>
<polygon fill="midnightblue" stroke="midnightblue" points="779.1,-31.01 768.52,-30.58 776.52,-37.51 779.1,-31.01"/>
</g>
<!-- Node8 -->
<g id="node8" class="node">
<title>Node8</title>
<g id="a_node8"><a xlink:title=" ">
<polygon fill="white" stroke="#bfbfbf" points="824,-0.5 824,-30.5 970,-30.5 970,-0.5 824,-0.5"/>
<text text-anchor="start" x="832" y="-18.5" font-family="Helvetica,sans-Serif" font-size="10.00">google/protobuf/generated</text>
<text text-anchor="middle" x="897" y="-7.5" font-family="Helvetica,sans-Serif" font-size="10.00">_message_util.h</text>
</a>
</g>
</g>
<!-- Node1&#45;&gt;Node8 -->
<g id="edge7" class="edge">
<title>Node1&#45;&gt;Node8</title>
<path fill="none" stroke="midnightblue" d="M897,-67.4C897,-59.64 897,-49.81 897,-40.86"/>
<polygon fill="midnightblue" stroke="midnightblue" points="900.5,-40.58 897,-30.58 893.5,-40.58 900.5,-40.58"/>
</g>
<!-- Node9 -->
<g id="node9" class="node">
<title>Node9</title>
<g id="a_node9"><a xlink:title=" ">
<polygon fill="white" stroke="#bfbfbf" points="988,-0.5 988,-30.5 1118,-30.5 1118,-0.5 988,-0.5"/>
<text text-anchor="start" x="996" y="-18.5" font-family="Helvetica,sans-Serif" font-size="10.00">google/protobuf/inlined</text>
<text text-anchor="middle" x="1053" y="-7.5" font-family="Helvetica,sans-Serif" font-size="10.00">_string_field.h</text>
</a>
</g>
</g>
<!-- Node1&#45;&gt;Node9 -->
<g id="edge8" class="edge">
<title>Node1&#45;&gt;Node9</title>
<path fill="none" stroke="midnightblue" d="M930.85,-67.4C954.05,-57.73 985.03,-44.82 1009.98,-34.43"/>
<polygon fill="midnightblue" stroke="midnightblue" points="1011.33,-37.65 1019.22,-30.58 1008.64,-31.19 1011.33,-37.65"/>
</g>
<!-- Node10 -->
<g id="node10" class="node">
<title>Node10</title>
<g id="a_node10"><a xlink:title=" ">
<polygon fill="white" stroke="#bfbfbf" points="1136.5,-6 1136.5,-25 1289.5,-25 1289.5,-6 1136.5,-6"/>
<text text-anchor="middle" x="1213" y="-13" font-family="Helvetica,sans-Serif" font-size="10.00">google/protobuf/metadata.h</text>
</a>
</g>
</g>
<!-- Node1&#45;&gt;Node10 -->
<g id="edge9" class="edge">
<title>Node1&#45;&gt;Node10</title>
<path fill="none" stroke="midnightblue" d="M965.18,-67.48C1024.15,-55.34 1108.13,-38.07 1161.6,-27.07"/>
<polygon fill="midnightblue" stroke="midnightblue" points="1162.45,-30.47 1171.54,-25.03 1161.04,-23.62 1162.45,-30.47"/>
</g>
<!-- Node11 -->
<g id="node11" class="node">
<title>Node11</title>
<g id="a_node11"><a xlink:title=" ">
<polygon fill="white" stroke="#bfbfbf" points="1308,-6 1308,-25 1458,-25 1458,-6 1308,-6"/>
<text text-anchor="middle" x="1383" y="-13" font-family="Helvetica,sans-Serif" font-size="10.00">google/protobuf/message.h</text>
</a>
</g>
</g>
<!-- Node1&#45;&gt;Node11 -->
<g id="edge10" class="edge">
<title>Node1&#45;&gt;Node11</title>
<path fill="none" stroke="midnightblue" d="M967.21,-73.67C1047.55,-64.48 1182.99,-48.29 1299,-31 1307.72,-29.7 1316.93,-28.22 1325.93,-26.71"/>
<polygon fill="midnightblue" stroke="midnightblue" points="1326.7,-30.13 1335.97,-25.01 1325.52,-23.23 1326.7,-30.13"/>
</g>
<!-- Node12 -->
<g id="node12" class="node">
<title>Node12</title>
<g id="a_node12"><a xlink:title=" ">
<polygon fill="white" stroke="#bfbfbf" points="1476,-0.5 1476,-30.5 1616,-30.5 1616,-0.5 1476,-0.5"/>
<text text-anchor="start" x="1484" y="-18.5" font-family="Helvetica,sans-Serif" font-size="10.00">google/protobuf/repeated</text>
<text text-anchor="middle" x="1546" y="-7.5" font-family="Helvetica,sans-Serif" font-size="10.00">_field.h</text>
</a>
</g>
</g>
<!-- Node1&#45;&gt;Node12 -->
<g id="edge11" class="edge">
<title>Node1&#45;&gt;Node12</title>
<path fill="none" stroke="midnightblue" d="M967.44,-77.38C1073.43,-70.71 1280.4,-55.86 1465.91,-31.07"/>
<polygon fill="midnightblue" stroke="midnightblue" points="1466.4,-34.53 1475.84,-29.73 1465.46,-27.6 1466.4,-34.53"/>
</g>
<!-- Node13 -->
<g id="node13" class="node">
<title>Node13</title>
<g id="a_node13"><a xlink:title=" ">
<polygon fill="white" stroke="#bfbfbf" points="1634.5,-0.5 1634.5,-30.5 1779.5,-30.5 1779.5,-0.5 1634.5,-0.5"/>
<text text-anchor="start" x="1642.5" y="-18.5" font-family="Helvetica,sans-Serif" font-size="10.00">google/protobuf/extension</text>
<text text-anchor="middle" x="1707" y="-7.5" font-family="Helvetica,sans-Serif" font-size="10.00">_set.h</text>
</a>
</g>
</g>
<!-- Node1&#45;&gt;Node13 -->
<g id="edge12" class="edge">
<title>Node1&#45;&gt;Node13</title>
<path fill="none" stroke="midnightblue" d="M967,-79.11C1095.26,-74.19 1376.67,-60.89 1623.92,-31.04"/>
<polygon fill="midnightblue" stroke="midnightblue" points="1624.68,-34.47 1634.18,-29.79 1623.83,-27.52 1624.68,-34.47"/>
</g>
<!-- Node14 -->
<g id="node14" class="node">
<title>Node14</title>
<g id="a_node14"><a xlink:title=" ">
<polygon fill="white" stroke="#bfbfbf" points="1797.5,-0.5 1797.5,-30.5 1938.5,-30.5 1938.5,-0.5 1797.5,-0.5"/>
<text text-anchor="start" x="1805.5" y="-18.5" font-family="Helvetica,sans-Serif" font-size="10.00">google/protobuf/unknown</text>
<text text-anchor="middle" x="1868" y="-7.5" font-family="Helvetica,sans-Serif" font-size="10.00">_field_set.h</text>
</a>
</g>
</g>
<!-- Node1&#45;&gt;Node14 -->
<g id="edge13" class="edge">
<title>Node1&#45;&gt;Node14</title>
<path fill="none" stroke="midnightblue" d="M967.23,-80.5C1116.53,-77.74 1476.6,-67.65 1787.33,-31.1"/>
<polygon fill="midnightblue" stroke="midnightblue" points="1787.91,-34.56 1797.43,-29.9 1787.09,-27.61 1787.91,-34.56"/>
</g>
</g>
</svg>
        <g id="navigator" transform="translate(0 0)" fill="#404254">
                <rect fill="#f2f5e9" fill-opacity="0.5" stroke="#606060" stroke-width=".5" x="0" y="0" width="60" height="60"/>
                <use id="zoomplus" xlink:href="#zoomPlus" x="17" y="9" onmousedown="handleZoom(evt,'in')"/>
                <use id="zoomminus" xlink:href="#zoomMin" x="42" y="9" onmousedown="handleZoom(evt,'out')"/>
                <use id="reset" xlink:href="#resetDef" x="30" y="36" onmousedown="handleReset()"/>
                <g id="arrowUp" xlink:href="#dirArrow" transform="translate(30 24)" onmousedown="handlePan(0,-1)">
                  <use xlink:href="#rim" fill="#404040">
                        <set attributeName="fill" to="#808080" begin="arrowUp.mouseover" end="arrowUp.mouseout"/>
                  </use>
                  <path fill="none" stroke="white" stroke-width="1.5" d="M0,-3.0v7 M-2.5,-0.5L0,-3.0L2.5,-0.5"/>
                </g>
                <g id="arrowRight" xlink:href="#dirArrow" transform="rotate(90) translate(36 -43)" onmousedown="handlePan(1,0)">
                  <use xlink:href="#rim" fill="#404040">
                        <set attributeName="fill" to="#808080" begin="arrowRight.mouseover" end="arrowRight.mouseout"/>
                  </use>
                  <path fill="none" stroke="white" stroke-width="1.5" d="M0,-3.0v7 M-2.5,-0.5L0,-3.0L2.5,-0.5"/>
                </g>
                <g id="arrowDown" xlink:href="#dirArrow" transform="rotate(180) translate(-30 -48)" onmousedown="handlePan(0,1)">
                  <use xlink:href="#rim" fill="#404040">
                        <set attributeName="fill" to="#808080" begin="arrowDown.mouseover" end="arrowDown.mouseout"/>
                  </use>
                  <path fill="none" stroke="white" stroke-width="1.5" d="M0,-3.0v7 M-2.5,-0.5L0,-3.0L2.5,-0.5"/>
                </g>
                <g id="arrowLeft" xlink:href="#dirArrow" transform="rotate(270) translate(-36 17)" onmousedown="handlePan(-1,0)">
                  <use xlink:href="#rim" fill="#404040">
                        <set attributeName="fill" to="#808080" begin="arrowLeft.mouseover" end="arrowLeft.mouseout"/>
                  </use>
                  <path fill="none" stroke="white" stroke-width="1.5" d="M0,-3.0v7 M-2.5,-0.5L0,-3.0L2.5,-0.5"/>
                </g>
        </g>
        <svg viewBox="0 0 15 15" width="100%" height="30px" preserveAspectRatio="xMaxYMin meet">
         <g id="arrow_out" transform="scale(0.3 0.3)">
          <a xlink:href="container__manager_8pb_8h__incl_org.svg" target="_base">
           <rect id="button" ry="5" rx="5" y="6" x="6" height="38" width="38"
                fill="#f2f5e9" fill-opacity="0.5" stroke="#606060" stroke-width="1.0"/>
           <path id="arrow"
             d="M 11.500037,31.436501 C 11.940474,20.09759 22.043105,11.32322 32.158766,21.979434 L 37.068811,17.246167 C 37.068811,17.246167 37.088388,32 37.088388,32 L 22.160133,31.978069 C 22.160133,31.978069 26.997745,27.140456 26.997745,27.140456 C 18.528582,18.264221 13.291696,25.230495 11.500037,31.436501 z"
             style="fill:#404040;"/>
          </a>
         </g>
        </svg>
</svg>
