<?xml version="1.0" encoding="UTF-8" standalone="no"?>
<!DOCTYPE svg PUBLIC "-//W3C//DTD SVG 1.1//EN"
 "http://www.w3.org/Graphics/SVG/1.1/DTD/svg11.dtd">
<!-- Generated by graphviz version 2.43.0 (0)
 -->
<!-- Title: core/src/container_service.cpp Pages: 1 -->
<svg width="577pt" height="207pt"
 viewBox="0.00 0.00 577.00 207.00" xmlns="http://www.w3.org/2000/svg" xmlns:xlink="http://www.w3.org/1999/xlink">
<g id="graph0" class="graph" transform="scale(1 1) rotate(0) translate(4 203)">
<title>core/src/container_service.cpp</title>
<polygon fill="white" stroke="transparent" points="-4,4 -4,-203 573,-203 573,4 -4,4"/>
<!-- Node1 -->
<g id="node1" class="node">
<title>Node1</title>
<g id="a_node1"><a xlink:title=" ">
<polygon fill="#bfbfbf" stroke="black" points="265,-168.5 265,-198.5 369,-198.5 369,-168.5 265,-168.5"/>
<text text-anchor="start" x="273" y="-186.5" font-family="Helvetica,sans-Serif" font-size="10.00">core/src/container</text>
<text text-anchor="middle" x="317" y="-175.5" font-family="Helvetica,sans-Serif" font-size="10.00">_service.cpp</text>
</a>
</g>
</g>
<!-- Node2 -->
<g id="node2" class="node">
<title>Node2</title>
<g id="a_node2"><a xlink:href="container__service_8hpp.html" target="_top" xlink:title="Declares the ContainerServiceHandler class for business logic related to containers.">
<polygon fill="white" stroke="black" points="129.5,-112.5 129.5,-131.5 270.5,-131.5 270.5,-112.5 129.5,-112.5"/>
<text text-anchor="middle" x="200" y="-119.5" font-family="Helvetica,sans-Serif" font-size="10.00">inc/container_service.hpp</text>
</a>
</g>
</g>
<!-- Node1&#45;&gt;Node2 -->
<g id="edge1" class="edge">
<title>Node1&#45;&gt;Node2</title>
<path fill="none" stroke="midnightblue" d="M289.27,-168.4C270.17,-158.68 244.94,-145.86 226.18,-136.31"/>
<polygon fill="midnightblue" stroke="midnightblue" points="227.52,-133.07 217.02,-131.66 224.35,-139.31 227.52,-133.07"/>
</g>
<!-- Node3 -->
<g id="node3" class="node">
<title>Node3</title>
<g id="a_node3"><a xlink:title=" ">
<polygon fill="white" stroke="#bfbfbf" points="0,-56.5 0,-75.5 110,-75.5 110,-56.5 0,-56.5"/>
<text text-anchor="middle" x="55" y="-63.5" font-family="Helvetica,sans-Serif" font-size="10.00">nlohmann/json.hpp</text>
</a>
</g>
</g>
<!-- Node1&#45;&gt;Node3 -->
<g id="edge6" class="edge">
<title>Node1&#45;&gt;Node3</title>
<path fill="none" stroke="midnightblue" d="M264.79,-176.81C223.35,-170.54 165.09,-157.71 120,-132 98.65,-119.82 79.46,-98.77 67.56,-83.93"/>
<polygon fill="midnightblue" stroke="midnightblue" points="70.02,-81.39 61.14,-75.62 64.49,-85.68 70.02,-81.39"/>
</g>
<!-- Node6 -->
<g id="node6" class="node">
<title>Node6</title>
<g id="a_node6"><a xlink:title=" ">
<polygon fill="white" stroke="#bfbfbf" points="505,-112.5 505,-131.5 565,-131.5 565,-112.5 505,-112.5"/>
<text text-anchor="middle" x="535" y="-119.5" font-family="Helvetica,sans-Serif" font-size="10.00">iostream</text>
</a>
</g>
</g>
<!-- Node1&#45;&gt;Node6 -->
<g id="edge5" class="edge">
<title>Node1&#45;&gt;Node6</title>
<path fill="none" stroke="midnightblue" d="M368.39,-168.47C407,-157.94 459.14,-143.7 494.75,-133.99"/>
<polygon fill="midnightblue" stroke="midnightblue" points="496.05,-137.26 504.78,-131.25 494.21,-130.5 496.05,-137.26"/>
</g>
<!-- Node7 -->
<g id="node7" class="node">
<title>Node7</title>
<g id="a_node7"><a xlink:href="common_8hpp.html" target="_top" xlink:title="Defines common constants, string views, and utility structures for the application.">
<polygon fill="white" stroke="black" points="290,-56.5 290,-75.5 388,-75.5 388,-56.5 290,-56.5"/>
<text text-anchor="middle" x="339" y="-63.5" font-family="Helvetica,sans-Serif" font-size="10.00">inc/common.hpp</text>
</a>
</g>
</g>
<!-- Node1&#45;&gt;Node7 -->
<g id="edge7" class="edge">
<title>Node1&#45;&gt;Node7</title>
<path fill="none" stroke="midnightblue" d="M319.7,-168.34C323.66,-147.53 331.06,-108.66 335.46,-85.58"/>
<polygon fill="midnightblue" stroke="midnightblue" points="338.92,-86.15 337.35,-75.67 332.04,-84.84 338.92,-86.15"/>
</g>
<!-- Node9 -->
<g id="node9" class="node">
<title>Node9</title>
<g id="a_node9"><a xlink:href="command__factory_8hpp.html" target="_top" xlink:title=" ">
<polygon fill="white" stroke="black" points="345,-112.5 345,-131.5 487,-131.5 487,-112.5 345,-112.5"/>
<text text-anchor="middle" x="416" y="-119.5" font-family="Helvetica,sans-Serif" font-size="10.00">inc/command_factory.hpp</text>
</a>
</g>
</g>
<!-- Node1&#45;&gt;Node9 -->
<g id="edge10" class="edge">
<title>Node1&#45;&gt;Node9</title>
<path fill="none" stroke="midnightblue" d="M340.46,-168.4C356.33,-158.86 377.19,-146.32 392.97,-136.84"/>
<polygon fill="midnightblue" stroke="midnightblue" points="394.83,-139.81 401.59,-131.66 391.22,-133.81 394.83,-139.81"/>
</g>
<!-- Node2&#45;&gt;Node3 -->
<g id="edge2" class="edge">
<title>Node2&#45;&gt;Node3</title>
<path fill="none" stroke="midnightblue" d="M177.02,-112.44C152.84,-103.44 114.58,-89.19 87.35,-79.05"/>
<polygon fill="midnightblue" stroke="midnightblue" points="88.46,-75.73 77.87,-75.52 86.02,-82.29 88.46,-75.73"/>
</g>
<!-- Node4 -->
<g id="node4" class="node">
<title>Node4</title>
<g id="a_node4"><a xlink:href="container__request_8hpp.html" target="_top" xlink:title="Data structure for representing a container operation request.">
<polygon fill="white" stroke="black" points="128.5,-56.5 128.5,-75.5 271.5,-75.5 271.5,-56.5 128.5,-56.5"/>
<text text-anchor="middle" x="200" y="-63.5" font-family="Helvetica,sans-Serif" font-size="10.00">inc/container_request.hpp</text>
</a>
</g>
</g>
<!-- Node2&#45;&gt;Node4 -->
<g id="edge3" class="edge">
<title>Node2&#45;&gt;Node4</title>
<path fill="none" stroke="midnightblue" d="M200,-112.08C200,-105.01 200,-94.86 200,-85.99"/>
<polygon fill="midnightblue" stroke="midnightblue" points="203.5,-85.75 200,-75.75 196.5,-85.75 203.5,-85.75"/>
</g>
<!-- Node5 -->
<g id="node5" class="node">
<title>Node5</title>
<g id="a_node5"><a xlink:title=" ">
<polygon fill="white" stroke="#bfbfbf" points="394,-0.5 394,-19.5 438,-19.5 438,-0.5 394,-0.5"/>
<text text-anchor="middle" x="416" y="-7.5" font-family="Helvetica,sans-Serif" font-size="10.00">string</text>
</a>
</g>
</g>
<!-- Node4&#45;&gt;Node5 -->
<g id="edge4" class="edge">
<title>Node4&#45;&gt;Node5</title>
<path fill="none" stroke="midnightblue" d="M236.4,-56.49C273.59,-47.7 332.95,-33.42 384,-20 384.1,-19.97 384.2,-19.95 384.3,-19.92"/>
<polygon fill="midnightblue" stroke="midnightblue" points="385.26,-23.29 393.99,-17.3 383.43,-16.53 385.26,-23.29"/>
</g>
<!-- Node7&#45;&gt;Node5 -->
<g id="edge8" class="edge">
<title>Node7&#45;&gt;Node5</title>
<path fill="none" stroke="midnightblue" d="M351.37,-56.32C363.16,-48.06 381.13,-35.45 395.14,-25.63"/>
<polygon fill="midnightblue" stroke="midnightblue" points="397.48,-28.26 403.66,-19.65 393.46,-22.53 397.48,-28.26"/>
</g>
<!-- Node8 -->
<g id="node8" class="node">
<title>Node8</title>
<g id="a_node8"><a xlink:title=" ">
<polygon fill="white" stroke="#bfbfbf" points="302.5,-0.5 302.5,-19.5 375.5,-19.5 375.5,-0.5 302.5,-0.5"/>
<text text-anchor="middle" x="339" y="-7.5" font-family="Helvetica,sans-Serif" font-size="10.00">string_view</text>
</a>
</g>
</g>
<!-- Node7&#45;&gt;Node8 -->
<g id="edge9" class="edge">
<title>Node7&#45;&gt;Node8</title>
<path fill="none" stroke="midnightblue" d="M339,-56.08C339,-49.01 339,-38.86 339,-29.99"/>
<polygon fill="midnightblue" stroke="midnightblue" points="342.5,-29.75 339,-19.75 335.5,-29.75 342.5,-29.75"/>
</g>
<!-- Node9&#45;&gt;Node5 -->
<g id="edge12" class="edge">
<title>Node9&#45;&gt;Node5</title>
<path fill="none" stroke="midnightblue" d="M416,-112.37C416,-94.62 416,-53.67 416,-29.6"/>
<polygon fill="midnightblue" stroke="midnightblue" points="419.5,-29.59 416,-19.59 412.5,-29.59 419.5,-29.59"/>
</g>
<!-- Node9&#45;&gt;Node7 -->
<g id="edge16" class="edge">
<title>Node9&#45;&gt;Node7</title>
<path fill="none" stroke="midnightblue" d="M403.63,-112.32C391.84,-104.06 373.87,-91.45 359.86,-81.63"/>
<polygon fill="midnightblue" stroke="midnightblue" points="361.54,-78.53 351.34,-75.65 357.52,-84.26 361.54,-78.53"/>
</g>
<!-- Node10 -->
<g id="node10" class="node">
<title>Node10</title>
<g id="a_node10"><a xlink:title=" ">
<polygon fill="white" stroke="#bfbfbf" points="511,-0.5 511,-19.5 569,-19.5 569,-0.5 511,-0.5"/>
<text text-anchor="middle" x="540" y="-7.5" font-family="Helvetica,sans-Serif" font-size="10.00">memory</text>
</a>
</g>
</g>
<!-- Node9&#45;&gt;Node10 -->
<g id="edge11" class="edge">
<title>Node9&#45;&gt;Node10</title>
<path fill="none" stroke="midnightblue" d="M465,-112.44C503,-104.69 551.14,-92.04 563,-76 573.63,-61.63 564.04,-41.92 554.2,-27.98"/>
<polygon fill="midnightblue" stroke="midnightblue" points="556.76,-25.57 547.9,-19.76 551.21,-29.83 556.76,-25.57"/>
</g>
<!-- Node11 -->
<g id="node11" class="node">
<title>Node11</title>
<g id="a_node11"><a xlink:href="commands_8hpp.html" target="_top" xlink:title=" ">
<polygon fill="white" stroke="black" points="444.5,-56.5 444.5,-75.5 553.5,-75.5 553.5,-56.5 444.5,-56.5"/>
<text text-anchor="middle" x="499" y="-63.5" font-family="Helvetica,sans-Serif" font-size="10.00">inc/commands.hpp</text>
</a>
</g>
</g>
<!-- Node9&#45;&gt;Node11 -->
<g id="edge13" class="edge">
<title>Node9&#45;&gt;Node11</title>
<path fill="none" stroke="midnightblue" d="M429.34,-112.32C442.16,-103.98 461.78,-91.21 476.94,-81.35"/>
<polygon fill="midnightblue" stroke="midnightblue" points="479.22,-84.04 485.7,-75.65 475.41,-78.17 479.22,-84.04"/>
</g>
<!-- Node11&#45;&gt;Node5 -->
<g id="edge14" class="edge">
<title>Node11&#45;&gt;Node5</title>
<path fill="none" stroke="midnightblue" d="M485.66,-56.32C472.84,-47.98 453.22,-35.21 438.06,-25.35"/>
<polygon fill="midnightblue" stroke="midnightblue" points="439.59,-22.17 429.3,-19.65 435.78,-28.04 439.59,-22.17"/>
</g>
<!-- Node11&#45;&gt;Node10 -->
<g id="edge15" class="edge">
<title>Node11&#45;&gt;Node10</title>
<path fill="none" stroke="midnightblue" d="M505.77,-56.08C511.56,-48.46 520.06,-37.26 527.14,-27.94"/>
<polygon fill="midnightblue" stroke="midnightblue" points="530.1,-29.83 533.36,-19.75 524.52,-25.6 530.1,-29.83"/>
</g>
</g>
</svg>
