<?xml version="1.0" encoding="UTF-8" standalone="no"?>
<!DOCTYPE svg PUBLIC "-//W3C//DTD SVG 1.1//EN"
 "http://www.w3.org/Graphics/SVG/1.1/DTD/svg11.dtd">
<!-- Generated by graphviz version 2.43.0 (0)
 -->
<!-- Title: executor/inc/container_request.hpp Pages: 1 -->
<svg width="2250pt" height="240pt"
 viewBox="0.00 0.00 2249.50 240.00" xmlns="http://www.w3.org/2000/svg" xmlns:xlink="http://www.w3.org/1999/xlink">
<g id="graph0" class="graph" transform="scale(1 1) rotate(0) translate(4 236)">
<title>executor/inc/container_request.hpp</title>
<polygon fill="white" stroke="transparent" points="-4,4 -4,-236 2245.5,-236 2245.5,4 -4,4"/>
<!-- Node1 -->
<g id="node1" class="node">
<title>Node1</title>
<g id="a_node1"><a xlink:title="Data structure for representing a container operation request.">
<polygon fill="#bfbfbf" stroke="black" points="1314.5,-201.5 1314.5,-231.5 1439.5,-231.5 1439.5,-201.5 1314.5,-201.5"/>
<text text-anchor="start" x="1322.5" y="-219.5" font-family="Helvetica,sans-Serif" font-size="10.00">executor/inc/container</text>
<text text-anchor="middle" x="1377" y="-208.5" font-family="Helvetica,sans-Serif" font-size="10.00">_request.hpp</text>
</a>
</g>
</g>
<!-- Node2 -->
<g id="node2" class="node">
<title>Node2</title>
<g id="a_node2"><a xlink:href="container__service_8hpp.html" target="_top" xlink:title="Declares the ContainerServiceHandler class for business logic related to containers.">
<polygon fill="white" stroke="black" points="342,-134.5 342,-164.5 446,-164.5 446,-134.5 342,-134.5"/>
<text text-anchor="start" x="350" y="-152.5" font-family="Helvetica,sans-Serif" font-size="10.00">core/inc/container</text>
<text text-anchor="middle" x="394" y="-141.5" font-family="Helvetica,sans-Serif" font-size="10.00">_service.hpp</text>
</a>
</g>
</g>
<!-- Node1&#45;&gt;Node2 -->
<g id="edge1" class="edge">
<title>Node1&#45;&gt;Node2</title>
<path fill="none" stroke="midnightblue" d="M1304.26,-210.69C1114.91,-198.17 610.04,-164.79 446.16,-153.95"/>
<polygon fill="midnightblue" stroke="midnightblue" points="1304.18,-214.19 1314.39,-211.36 1304.64,-207.21 1304.18,-214.19"/>
</g>
<!-- Node3 -->
<g id="node3" class="node">
<title>Node3</title>
<g id="a_node3"><a xlink:href="container__service_8cpp.html" target="_top" xlink:title="Implements the ContainerServiceHandler class for business logic related to containers.">
<polygon fill="white" stroke="black" points="0,-67.5 0,-97.5 104,-97.5 104,-67.5 0,-67.5"/>
<text text-anchor="start" x="8" y="-85.5" font-family="Helvetica,sans-Serif" font-size="10.00">core/src/container</text>
<text text-anchor="middle" x="52" y="-74.5" font-family="Helvetica,sans-Serif" font-size="10.00">_service.cpp</text>
</a>
</g>
</g>
<!-- Node1&#45;&gt;Node3 -->
<g id="edge12" class="edge">
<title>Node1&#45;&gt;Node3</title>
<path fill="none" stroke="midnightblue" d="M1304.14,-214.79C1059.71,-212.07 278.14,-200.65 171,-165 128.71,-150.93 87.7,-117.02 66.63,-97.67"/>
<polygon fill="midnightblue" stroke="midnightblue" points="1304.3,-218.29 1314.34,-214.9 1304.38,-211.29 1304.3,-218.29"/>
</g>
<!-- Node9 -->
<g id="node9" class="node">
<title>Node9</title>
<g id="a_node9"><a xlink:href="container__service__test_8cpp.html" target="_top" xlink:title=" ">
<polygon fill="white" stroke="black" points="122,-67.5 122,-97.5 226,-97.5 226,-67.5 122,-67.5"/>
<text text-anchor="start" x="130" y="-85.5" font-family="Helvetica,sans-Serif" font-size="10.00">unitTest/container</text>
<text text-anchor="middle" x="174" y="-74.5" font-family="Helvetica,sans-Serif" font-size="10.00">_service_test.cpp</text>
</a>
</g>
</g>
<!-- Node1&#45;&gt;Node9 -->
<g id="edge44" class="edge">
<title>Node1&#45;&gt;Node9</title>
<path fill="none" stroke="midnightblue" d="M1304.04,-214.84C1052.36,-212.26 233.52,-201.09 191,-165 171.61,-148.54 170.84,-116.19 172.26,-97.58"/>
<polygon fill="midnightblue" stroke="midnightblue" points="1304.14,-218.34 1314.18,-214.94 1304.21,-211.34 1304.14,-218.34"/>
</g>
<!-- Node10 -->
<g id="node10" class="node">
<title>Node10</title>
<g id="a_node10"><a xlink:href="request__executor_8hpp.html" target="_top" xlink:title="Declares the abstract RequestExecutor interface for executing requests.">
<polygon fill="white" stroke="black" points="818,-134.5 818,-164.5 934,-164.5 934,-134.5 818,-134.5"/>
<text text-anchor="start" x="826" y="-152.5" font-family="Helvetica,sans-Serif" font-size="10.00">executor/inc/request</text>
<text text-anchor="middle" x="876" y="-141.5" font-family="Helvetica,sans-Serif" font-size="10.00">_executor.hpp</text>
</a>
</g>
</g>
<!-- Node1&#45;&gt;Node10 -->
<g id="edge13" class="edge">
<title>Node1&#45;&gt;Node10</title>
<path fill="none" stroke="midnightblue" d="M1304.28,-206.06C1204.16,-193.08 1025.86,-169.94 934.1,-158.04"/>
<polygon fill="midnightblue" stroke="midnightblue" points="1303.94,-209.55 1314.31,-207.37 1304.84,-202.61 1303.94,-209.55"/>
</g>
<!-- Node19 -->
<g id="node19" class="node">
<title>Node19</title>
<g id="a_node19"><a xlink:href="command__factory_8hpp.html" target="_top" xlink:title="Declares the CommandFactory class for creating command objects based on container requests.">
<polygon fill="white" stroke="black" points="200,-134.5 200,-164.5 324,-164.5 324,-134.5 200,-134.5"/>
<text text-anchor="start" x="208" y="-152.5" font-family="Helvetica,sans-Serif" font-size="10.00">runtime/inc/command</text>
<text text-anchor="middle" x="262" y="-141.5" font-family="Helvetica,sans-Serif" font-size="10.00">_factory.hpp</text>
</a>
</g>
</g>
<!-- Node1&#45;&gt;Node19 -->
<g id="edge24" class="edge">
<title>Node1&#45;&gt;Node19</title>
<path fill="none" stroke="midnightblue" d="M1304.24,-215.8C1133.78,-215.67 695.59,-210.52 333,-165 330.13,-164.64 327.2,-164.23 324.25,-163.77"/>
<polygon fill="midnightblue" stroke="midnightblue" points="1304.34,-219.3 1314.34,-215.8 1304.35,-212.3 1304.34,-219.3"/>
</g>
<!-- Node20 -->
<g id="node20" class="node">
<title>Node20</title>
<g id="a_node20"><a xlink:href="command__factory_8cpp.html" target="_top" xlink:title="Implements the CommandFactory class for creating command objects based on container requests.">
<polygon fill="white" stroke="black" points="1532,-67.5 1532,-97.5 1656,-97.5 1656,-67.5 1532,-67.5"/>
<text text-anchor="start" x="1540" y="-85.5" font-family="Helvetica,sans-Serif" font-size="10.00">runtime/src/command</text>
<text text-anchor="middle" x="1594" y="-74.5" font-family="Helvetica,sans-Serif" font-size="10.00">_factory.cpp</text>
</a>
</g>
</g>
<!-- Node1&#45;&gt;Node20 -->
<g id="edge43" class="edge">
<title>Node1&#45;&gt;Node20</title>
<path fill="none" stroke="midnightblue" d="M1433.9,-198.11C1456.89,-189.81 1483.11,-178.68 1505,-165 1521.08,-154.95 1558.91,-118.37 1579.7,-97.8"/>
<polygon fill="midnightblue" stroke="midnightblue" points="1432.54,-194.87 1424.27,-201.49 1434.86,-201.48 1432.54,-194.87"/>
</g>
<!-- Node21 -->
<g id="node21" class="node">
<title>Node21</title>
<g id="a_node21"><a xlink:href="docker__api__commands_8hpp.html" target="_top" xlink:title="Declares command classes for managing containers via the Docker HTTP API over a Unix socket.">
<polygon fill="white" stroke="black" points="1253.5,-134.5 1253.5,-164.5 1370.5,-164.5 1370.5,-134.5 1253.5,-134.5"/>
<text text-anchor="start" x="1261.5" y="-152.5" font-family="Helvetica,sans-Serif" font-size="10.00">runtime/inc/docker</text>
<text text-anchor="middle" x="1312" y="-141.5" font-family="Helvetica,sans-Serif" font-size="10.00">_api_commands.hpp</text>
</a>
</g>
</g>
<!-- Node1&#45;&gt;Node21 -->
<g id="edge28" class="edge">
<title>Node1&#45;&gt;Node21</title>
<path fill="none" stroke="midnightblue" d="M1355.81,-194.31C1346.06,-184.56 1334.76,-173.26 1326.08,-164.58"/>
<polygon fill="midnightblue" stroke="midnightblue" points="1353.35,-196.8 1362.9,-201.4 1358.3,-191.85 1353.35,-196.8"/>
</g>
<!-- Node23 -->
<g id="node23" class="node">
<title>Node23</title>
<g id="a_node23"><a xlink:href="docker__commands_8hpp.html" target="_top" xlink:title="Declares Docker command classes for container operations.">
<polygon fill="white" stroke="black" points="1388.5,-134.5 1388.5,-164.5 1495.5,-164.5 1495.5,-134.5 1388.5,-134.5"/>
<text text-anchor="start" x="1396.5" y="-152.5" font-family="Helvetica,sans-Serif" font-size="10.00">runtime/inc/docker</text>
<text text-anchor="middle" x="1442" y="-141.5" font-family="Helvetica,sans-Serif" font-size="10.00">_commands.hpp</text>
</a>
</g>
</g>
<!-- Node1&#45;&gt;Node23 -->
<g id="edge31" class="edge">
<title>Node1&#45;&gt;Node23</title>
<path fill="none" stroke="midnightblue" d="M1398.19,-194.31C1407.94,-184.56 1419.24,-173.26 1427.92,-164.58"/>
<polygon fill="midnightblue" stroke="midnightblue" points="1395.7,-191.85 1391.1,-201.4 1400.65,-196.8 1395.7,-191.85"/>
</g>
<!-- Node25 -->
<g id="node25" class="node">
<title>Node25</title>
<g id="a_node25"><a xlink:href="podman__api__commands_8hpp.html" target="_top" xlink:title="Declares command classes for managing containers via the Podman HTTP API over a Unix socket.">
<polygon fill="white" stroke="black" points="1552.5,-134.5 1552.5,-164.5 1669.5,-164.5 1669.5,-134.5 1552.5,-134.5"/>
<text text-anchor="start" x="1560.5" y="-152.5" font-family="Helvetica,sans-Serif" font-size="10.00">runtime/inc/podman</text>
<text text-anchor="middle" x="1611" y="-141.5" font-family="Helvetica,sans-Serif" font-size="10.00">_api_commands.hpp</text>
</a>
</g>
</g>
<!-- Node1&#45;&gt;Node25 -->
<g id="edge34" class="edge">
<title>Node1&#45;&gt;Node25</title>
<path fill="none" stroke="midnightblue" d="M1437.43,-198.71C1475.51,-188.14 1524.11,-174.63 1560.2,-164.61"/>
<polygon fill="midnightblue" stroke="midnightblue" points="1436.18,-195.43 1427.49,-201.48 1438.06,-202.17 1436.18,-195.43"/>
</g>
<!-- Node27 -->
<g id="node27" class="node">
<title>Node27</title>
<g id="a_node27"><a xlink:href="podman__commands_8hpp.html" target="_top" xlink:title="Declares Podman command classes for container operations.">
<polygon fill="white" stroke="black" points="1687.5,-134.5 1687.5,-164.5 1802.5,-164.5 1802.5,-134.5 1687.5,-134.5"/>
<text text-anchor="start" x="1695.5" y="-152.5" font-family="Helvetica,sans-Serif" font-size="10.00">runtime/inc/podman</text>
<text text-anchor="middle" x="1745" y="-141.5" font-family="Helvetica,sans-Serif" font-size="10.00">_commands.hpp</text>
</a>
</g>
</g>
<!-- Node1&#45;&gt;Node27 -->
<g id="edge37" class="edge">
<title>Node1&#45;&gt;Node27</title>
<path fill="none" stroke="midnightblue" d="M1449.59,-204.42C1510.88,-194.81 1600.89,-180.1 1679,-165 1681.76,-164.47 1684.59,-163.9 1687.44,-163.32"/>
<polygon fill="midnightblue" stroke="midnightblue" points="1448.97,-200.97 1439.63,-205.97 1450.05,-207.89 1448.97,-200.97"/>
</g>
<!-- Node29 -->
<g id="node29" class="node">
<title>Node29</title>
<g id="a_node29"><a xlink:href="podman__yaml__commands_8hpp.html" target="_top" xlink:title=" ">
<polygon fill="white" stroke="black" points="1820.5,-134.5 1820.5,-164.5 1947.5,-164.5 1947.5,-134.5 1820.5,-134.5"/>
<text text-anchor="start" x="1828.5" y="-152.5" font-family="Helvetica,sans-Serif" font-size="10.00">runtime/inc/podman</text>
<text text-anchor="middle" x="1884" y="-141.5" font-family="Helvetica,sans-Serif" font-size="10.00">_yaml_commands.hpp</text>
</a>
</g>
</g>
<!-- Node1&#45;&gt;Node29 -->
<g id="edge40" class="edge">
<title>Node1&#45;&gt;Node29</title>
<path fill="none" stroke="midnightblue" d="M1449.52,-208.94C1536.07,-200.69 1685.05,-185.12 1812,-165 1814.77,-164.56 1817.6,-164.09 1820.45,-163.6"/>
<polygon fill="midnightblue" stroke="midnightblue" points="1449.16,-205.46 1439.53,-209.89 1449.82,-212.43 1449.16,-205.46"/>
</g>
<!-- Node31 -->
<g id="node31" class="node">
<title>Node31</title>
<g id="a_node31"><a xlink:href="yaml__generator_8hpp.html" target="_top" xlink:title=" ">
<polygon fill="white" stroke="black" points="1966,-140 1966,-159 2122,-159 2122,-140 1966,-140"/>
<text text-anchor="middle" x="2044" y="-147" font-family="Helvetica,sans-Serif" font-size="10.00">utils/inc/yaml_generator.hpp</text>
</a>
</g>
</g>
<!-- Node1&#45;&gt;Node31 -->
<g id="edge45" class="edge">
<title>Node1&#45;&gt;Node31</title>
<path fill="none" stroke="midnightblue" d="M1449.82,-211C1559.91,-203.77 1775.16,-188.03 1957,-165 1970.06,-163.35 1984.17,-161.17 1997.14,-159"/>
<polygon fill="midnightblue" stroke="midnightblue" points="1449.58,-207.51 1439.83,-211.65 1450.03,-214.49 1449.58,-207.51"/>
</g>
<!-- Node2&#45;&gt;Node3 -->
<g id="edge2" class="edge">
<title>Node2&#45;&gt;Node3</title>
<path fill="none" stroke="midnightblue" d="M331.81,-133.85C234.12,-114.7 207.02,-116.84 113,-98 110.12,-97.42 107.17,-96.81 104.19,-96.16"/>
<polygon fill="midnightblue" stroke="midnightblue" points="331.32,-137.32 341.81,-135.84 332.68,-130.46 331.32,-137.32"/>
</g>
<!-- Node4 -->
<g id="node4" class="node">
<title>Node4</title>
<g id="a_node4"><a xlink:href="json__request__executor_8hpp.html" target="_top" xlink:title="Declares the JsonRequestExecutorHandler class for executing JSON&#45;based requests.">
<polygon fill="white" stroke="black" points="320,-67.5 320,-97.5 462,-97.5 462,-67.5 320,-67.5"/>
<text text-anchor="start" x="328" y="-85.5" font-family="Helvetica,sans-Serif" font-size="10.00">executor/inc/json_request</text>
<text text-anchor="middle" x="391" y="-74.5" font-family="Helvetica,sans-Serif" font-size="10.00">_executor.hpp</text>
</a>
</g>
</g>
<!-- Node2&#45;&gt;Node4 -->
<g id="edge3" class="edge">
<title>Node2&#45;&gt;Node4</title>
<path fill="none" stroke="midnightblue" d="M392.89,-124.4C392.47,-115.37 392.01,-105.41 391.65,-97.58"/>
<polygon fill="midnightblue" stroke="midnightblue" points="389.39,-124.57 393.35,-134.4 396.38,-124.25 389.39,-124.57"/>
</g>
<!-- Node5 -->
<g id="node5" class="node">
<title>Node5</title>
<g id="a_node5"><a xlink:href="json__request__executor_8cpp.html" target="_top" xlink:title="Implementation of the JSON request executor for Container Manager.">
<polygon fill="white" stroke="black" points="312,-0.5 312,-30.5 454,-30.5 454,-0.5 312,-0.5"/>
<text text-anchor="start" x="320" y="-18.5" font-family="Helvetica,sans-Serif" font-size="10.00">executor/src/json_request</text>
<text text-anchor="middle" x="383" y="-7.5" font-family="Helvetica,sans-Serif" font-size="10.00">_executor.cpp</text>
</a>
</g>
</g>
<!-- Node2&#45;&gt;Node5 -->
<g id="edge8" class="edge">
<title>Node2&#45;&gt;Node5</title>
<path fill="none" stroke="midnightblue" d="M345.12,-129.71C331.66,-122.01 318.66,-111.63 311,-98 304.25,-85.99 304.64,-79.22 311,-67 319.38,-50.88 335.53,-38.84 350.41,-30.56"/>
<polygon fill="midnightblue" stroke="midnightblue" points="343.5,-132.81 353.98,-134.38 346.77,-126.62 343.5,-132.81"/>
</g>
<!-- Node6 -->
<g id="node6" class="node">
<title>Node6</title>
<g id="a_node6"><a xlink:href="main_8cpp.html" target="_top" xlink:title="Entry point for the Container Manager service.">
<polygon fill="white" stroke="black" points="228,-6 228,-25 290,-25 290,-6 228,-6"/>
<text text-anchor="middle" x="259" y="-13" font-family="Helvetica,sans-Serif" font-size="10.00">main.cpp</text>
</a>
</g>
</g>
<!-- Node2&#45;&gt;Node6 -->
<g id="edge10" class="edge">
<title>Node2&#45;&gt;Node6</title>
<path fill="none" stroke="midnightblue" d="M348.89,-129.89C333.03,-121.78 315.95,-111.11 303,-98 281.3,-76.04 267.4,-41.18 261.81,-25.12"/>
<polygon fill="midnightblue" stroke="midnightblue" points="347.52,-133.12 358.04,-134.36 350.59,-126.83 347.52,-133.12"/>
</g>
<!-- Node7 -->
<g id="node7" class="node">
<title>Node7</title>
<g id="a_node7"><a xlink:href="protobuf__request__executor_8hpp.html" target="_top" xlink:title="Declares the ProtoRequestExecutorHandler class for handling Protobuf&#45;based requests.">
<polygon fill="white" stroke="black" points="518,-67.5 518,-97.5 646,-97.5 646,-67.5 518,-67.5"/>
<text text-anchor="start" x="526" y="-85.5" font-family="Helvetica,sans-Serif" font-size="10.00">executor/inc/protobuf</text>
<text text-anchor="middle" x="582" y="-74.5" font-family="Helvetica,sans-Serif" font-size="10.00">_request_executor.hpp</text>
</a>
</g>
</g>
<!-- Node2&#45;&gt;Node7 -->
<g id="edge6" class="edge">
<title>Node2&#45;&gt;Node7</title>
<path fill="none" stroke="midnightblue" d="M444.35,-131.09C474.7,-120.6 512.85,-107.41 541.29,-97.58"/>
<polygon fill="midnightblue" stroke="midnightblue" points="443.1,-127.82 434.79,-134.4 445.39,-134.44 443.1,-127.82"/>
</g>
<!-- Node8 -->
<g id="node8" class="node">
<title>Node8</title>
<g id="a_node8"><a xlink:href="protobuf__request__executor_8cpp.html" target="_top" xlink:title="Protocol Buffers request executor for Container Manager.">
<polygon fill="white" stroke="black" points="495.5,-0.5 495.5,-30.5 622.5,-30.5 622.5,-0.5 495.5,-0.5"/>
<text text-anchor="start" x="503.5" y="-18.5" font-family="Helvetica,sans-Serif" font-size="10.00">executor/src/protobuf</text>
<text text-anchor="middle" x="559" y="-7.5" font-family="Helvetica,sans-Serif" font-size="10.00">_request_executor.cpp</text>
</a>
</g>
</g>
<!-- Node2&#45;&gt;Node8 -->
<g id="edge9" class="edge">
<title>Node2&#45;&gt;Node8</title>
<path fill="none" stroke="midnightblue" d="M426.46,-128.91C440.52,-119.99 456.95,-108.99 471,-98 498.88,-76.19 528.54,-47.41 545.32,-30.53"/>
<polygon fill="midnightblue" stroke="midnightblue" points="424.23,-126.17 417.61,-134.44 427.94,-132.11 424.23,-126.17"/>
</g>
<!-- Node2&#45;&gt;Node9 -->
<g id="edge11" class="edge">
<title>Node2&#45;&gt;Node9</title>
<path fill="none" stroke="midnightblue" d="M336.73,-131.58C301,-121.02 255.54,-107.59 221.76,-97.61"/>
<polygon fill="midnightblue" stroke="midnightblue" points="335.95,-135 346.53,-134.48 337.94,-128.29 335.95,-135"/>
</g>
<!-- Node4&#45;&gt;Node5 -->
<g id="edge4" class="edge">
<title>Node4&#45;&gt;Node5</title>
<path fill="none" stroke="midnightblue" d="M388.03,-57.4C386.92,-48.37 385.7,-38.41 384.73,-30.58"/>
<polygon fill="midnightblue" stroke="midnightblue" points="384.57,-57.9 389.26,-67.4 391.52,-57.04 384.57,-57.9"/>
</g>
<!-- Node4&#45;&gt;Node6 -->
<g id="edge5" class="edge">
<title>Node4&#45;&gt;Node6</title>
<path fill="none" stroke="midnightblue" d="M353.36,-62.97C328.01,-50.48 295.75,-34.6 276.28,-25.01"/>
<polygon fill="midnightblue" stroke="midnightblue" points="351.84,-66.12 362.36,-67.4 354.93,-59.84 351.84,-66.12"/>
</g>
<!-- Node7&#45;&gt;Node8 -->
<g id="edge7" class="edge">
<title>Node7&#45;&gt;Node8</title>
<path fill="none" stroke="midnightblue" d="M573.58,-57.7C570.35,-48.59 566.78,-38.49 563.98,-30.58"/>
<polygon fill="midnightblue" stroke="midnightblue" points="570.37,-59.14 577.01,-67.4 576.97,-56.8 570.37,-59.14"/>
</g>
<!-- Node10&#45;&gt;Node4 -->
<g id="edge22" class="edge">
<title>Node10&#45;&gt;Node4</title>
<path fill="none" stroke="midnightblue" d="M808.01,-139.39C716.63,-127.14 554.97,-105.47 462.05,-93.02"/>
<polygon fill="midnightblue" stroke="midnightblue" points="807.6,-142.86 817.98,-140.72 808.53,-135.93 807.6,-142.86"/>
</g>
<!-- Node10&#45;&gt;Node7 -->
<g id="edge23" class="edge">
<title>Node10&#45;&gt;Node7</title>
<path fill="none" stroke="midnightblue" d="M808.05,-133.48C759.09,-122.65 693.49,-108.15 645.57,-97.55"/>
<polygon fill="midnightblue" stroke="midnightblue" points="807.4,-136.92 817.92,-135.66 808.91,-130.08 807.4,-136.92"/>
</g>
<!-- Node11 -->
<g id="node11" class="node">
<title>Node11</title>
<g id="a_node11"><a xlink:href="dbus__consumer_8hpp.html" target="_top" xlink:title="Defines the DBusConsumer class for receiving and processing requests over D&#45;Bus.">
<polygon fill="white" stroke="black" points="958.5,-73 958.5,-92 1107.5,-92 1107.5,-73 958.5,-73"/>
<text text-anchor="middle" x="1033" y="-80" font-family="Helvetica,sans-Serif" font-size="10.00">api/inc/dbus_consumer.hpp</text>
</a>
</g>
</g>
<!-- Node10&#45;&gt;Node11 -->
<g id="edge14" class="edge">
<title>Node10&#45;&gt;Node11</title>
<path fill="none" stroke="midnightblue" d="M919.58,-130.46C949.91,-117.9 988.98,-101.72 1012.45,-92.01"/>
<polygon fill="midnightblue" stroke="midnightblue" points="917.97,-127.34 910.07,-134.4 920.64,-133.8 917.97,-127.34"/>
</g>
<!-- Node13 -->
<g id="node13" class="node">
<title>Node13</title>
<g id="a_node13"><a xlink:href="http__server_8hpp.html" target="_top" xlink:title="Defines the HttpServerHandler class for handling HTTP requests.">
<polygon fill="white" stroke="black" points="1126,-73 1126,-92 1254,-92 1254,-73 1126,-73"/>
<text text-anchor="middle" x="1190" y="-80" font-family="Helvetica,sans-Serif" font-size="10.00">api/inc/http_server.hpp</text>
</a>
</g>
</g>
<!-- Node10&#45;&gt;Node13 -->
<g id="edge16" class="edge">
<title>Node10&#45;&gt;Node13</title>
<path fill="none" stroke="midnightblue" d="M944.45,-134.33C1006.7,-121.44 1096.53,-102.85 1148.52,-92.09"/>
<polygon fill="midnightblue" stroke="midnightblue" points="943.41,-130.97 934.33,-136.43 944.83,-137.83 943.41,-130.97"/>
</g>
<!-- Node15 -->
<g id="node15" class="node">
<title>Node15</title>
<g id="a_node15"><a xlink:href="mosquitto__mqtt__subscriber_8hpp.html" target="_top" xlink:title="Declares the MosquittoMqttSubscriber class for handling MQTT messages using Mosquitto.">
<polygon fill="white" stroke="black" points="664,-67.5 664,-97.5 794,-97.5 794,-67.5 664,-67.5"/>
<text text-anchor="start" x="672" y="-85.5" font-family="Helvetica,sans-Serif" font-size="10.00">api/inc/mosquitto_mqtt</text>
<text text-anchor="middle" x="729" y="-74.5" font-family="Helvetica,sans-Serif" font-size="10.00">_subscriber.hpp</text>
</a>
</g>
</g>
<!-- Node10&#45;&gt;Node15 -->
<g id="edge18" class="edge">
<title>Node10&#45;&gt;Node15</title>
<path fill="none" stroke="midnightblue" d="M834.77,-130.27C811.36,-119.92 782.49,-107.15 760.83,-97.58"/>
<polygon fill="midnightblue" stroke="midnightblue" points="833.54,-133.55 844.1,-134.4 836.37,-127.15 833.54,-133.55"/>
</g>
<!-- Node17 -->
<g id="node17" class="node">
<title>Node17</title>
<g id="a_node17"><a xlink:href="posix__message__queue__consumer_8hpp.html" target="_top" xlink:title="Declares the MessageQueueConsumer class for handling messages from a POSIX message queue.">
<polygon fill="white" stroke="black" points="812,-67.5 812,-97.5 940,-97.5 940,-67.5 812,-67.5"/>
<text text-anchor="start" x="820" y="-85.5" font-family="Helvetica,sans-Serif" font-size="10.00">api/inc/posix_message</text>
<text text-anchor="middle" x="876" y="-74.5" font-family="Helvetica,sans-Serif" font-size="10.00">_queue_consumer.hpp</text>
</a>
</g>
</g>
<!-- Node10&#45;&gt;Node17 -->
<g id="edge20" class="edge">
<title>Node10&#45;&gt;Node17</title>
<path fill="none" stroke="midnightblue" d="M876,-124.11C876,-115.15 876,-105.32 876,-97.58"/>
<polygon fill="midnightblue" stroke="midnightblue" points="872.5,-124.4 876,-134.4 879.5,-124.4 872.5,-124.4"/>
</g>
<!-- Node12 -->
<g id="node12" class="node">
<title>Node12</title>
<g id="a_node12"><a xlink:href="dbus__consumer_8cpp.html" target="_top" xlink:title="D&#45;Bus message consumer implementation for Container Manager.">
<polygon fill="white" stroke="black" points="958.5,-6 958.5,-25 1107.5,-25 1107.5,-6 958.5,-6"/>
<text text-anchor="middle" x="1033" y="-13" font-family="Helvetica,sans-Serif" font-size="10.00">api/src/dbus_consumer.cpp</text>
</a>
</g>
</g>
<!-- Node11&#45;&gt;Node12 -->
<g id="edge15" class="edge">
<title>Node11&#45;&gt;Node12</title>
<path fill="none" stroke="midnightblue" d="M1033,-62.54C1033,-50.17 1033,-34.62 1033,-25.13"/>
<polygon fill="midnightblue" stroke="midnightblue" points="1029.5,-62.73 1033,-72.73 1036.5,-62.73 1029.5,-62.73"/>
</g>
<!-- Node14 -->
<g id="node14" class="node">
<title>Node14</title>
<g id="a_node14"><a xlink:href="http__server_8cpp.html" target="_top" xlink:title="Implements the HttpServerHandler class for handling HTTP requests.">
<polygon fill="white" stroke="black" points="1126,-6 1126,-25 1254,-25 1254,-6 1126,-6"/>
<text text-anchor="middle" x="1190" y="-13" font-family="Helvetica,sans-Serif" font-size="10.00">api/src/http_server.cpp</text>
</a>
</g>
</g>
<!-- Node13&#45;&gt;Node14 -->
<g id="edge17" class="edge">
<title>Node13&#45;&gt;Node14</title>
<path fill="none" stroke="midnightblue" d="M1190,-62.54C1190,-50.17 1190,-34.62 1190,-25.13"/>
<polygon fill="midnightblue" stroke="midnightblue" points="1186.5,-62.73 1190,-72.73 1193.5,-62.73 1186.5,-62.73"/>
</g>
<!-- Node16 -->
<g id="node16" class="node">
<title>Node16</title>
<g id="a_node16"><a xlink:href="mosquitto__mqtt__subscriber_8cpp.html" target="_top" xlink:title="Implements the MosquittoMqttSubscriber class for handling MQTT messages using Mosquitto.">
<polygon fill="white" stroke="black" points="664,-0.5 664,-30.5 794,-30.5 794,-0.5 664,-0.5"/>
<text text-anchor="start" x="672" y="-18.5" font-family="Helvetica,sans-Serif" font-size="10.00">api/src/mosquitto_mqtt</text>
<text text-anchor="middle" x="729" y="-7.5" font-family="Helvetica,sans-Serif" font-size="10.00">_subscriber.cpp</text>
</a>
</g>
</g>
<!-- Node15&#45;&gt;Node16 -->
<g id="edge19" class="edge">
<title>Node15&#45;&gt;Node16</title>
<path fill="none" stroke="midnightblue" d="M729,-57.11C729,-48.15 729,-38.32 729,-30.58"/>
<polygon fill="midnightblue" stroke="midnightblue" points="725.5,-57.4 729,-67.4 732.5,-57.4 725.5,-57.4"/>
</g>
<!-- Node18 -->
<g id="node18" class="node">
<title>Node18</title>
<g id="a_node18"><a xlink:href="posix__message__queue__consumer_8cpp.html" target="_top" xlink:title="Implements the MessageQueueConsumer class for handling messages from a POSIX message queue.">
<polygon fill="white" stroke="black" points="812,-0.5 812,-30.5 940,-30.5 940,-0.5 812,-0.5"/>
<text text-anchor="start" x="820" y="-18.5" font-family="Helvetica,sans-Serif" font-size="10.00">api/src/posix_message</text>
<text text-anchor="middle" x="876" y="-7.5" font-family="Helvetica,sans-Serif" font-size="10.00">_queue_consumer.cpp</text>
</a>
</g>
</g>
<!-- Node17&#45;&gt;Node18 -->
<g id="edge21" class="edge">
<title>Node17&#45;&gt;Node18</title>
<path fill="none" stroke="midnightblue" d="M876,-57.11C876,-48.15 876,-38.32 876,-30.58"/>
<polygon fill="midnightblue" stroke="midnightblue" points="872.5,-57.4 876,-67.4 879.5,-57.4 872.5,-57.4"/>
</g>
<!-- Node19&#45;&gt;Node3 -->
<g id="edge25" class="edge">
<title>Node19&#45;&gt;Node3</title>
<path fill="none" stroke="midnightblue" d="M206.9,-131.44C172.86,-120.91 129.7,-107.55 97.59,-97.61"/>
<polygon fill="midnightblue" stroke="midnightblue" points="206.1,-134.86 216.69,-134.48 208.17,-128.18 206.1,-134.86"/>
</g>
<!-- Node19&#45;&gt;Node9 -->
<g id="edge27" class="edge">
<title>Node19&#45;&gt;Node9</title>
<path fill="none" stroke="midnightblue" d="M234.86,-128.45C221.32,-118.45 205.27,-106.6 193.06,-97.58"/>
<polygon fill="midnightblue" stroke="midnightblue" points="232.78,-131.27 242.91,-134.4 236.94,-125.64 232.78,-131.27"/>
</g>
<!-- Node19&#45;&gt;Node20 -->
<g id="edge26" class="edge">
<title>Node19&#45;&gt;Node20</title>
<path fill="none" stroke="midnightblue" d="M334.37,-133.99C860.36,-73.93 1000.75,-158.77 1523,-98 1525.87,-97.67 1528.81,-97.27 1531.76,-96.84"/>
<polygon fill="midnightblue" stroke="midnightblue" points="333.77,-130.54 324.24,-135.16 334.58,-137.49 333.77,-130.54"/>
</g>
<!-- Node21&#45;&gt;Node20 -->
<g id="edge29" class="edge">
<title>Node21&#45;&gt;Node20</title>
<path fill="none" stroke="midnightblue" d="M1380.76,-132.65C1427.24,-121.94 1488.08,-107.92 1532.87,-97.59"/>
<polygon fill="midnightblue" stroke="midnightblue" points="1379.73,-129.3 1370.77,-134.95 1381.3,-136.12 1379.73,-129.3"/>
</g>
<!-- Node22 -->
<g id="node22" class="node">
<title>Node22</title>
<g id="a_node22"><a xlink:href="docker__api__commands_8cpp.html" target="_top" xlink:title="Implements Docker API command classes for managing containers via the Docker HTTP API over a Unix soc...">
<polygon fill="white" stroke="black" points="1272,-67.5 1272,-97.5 1388,-97.5 1388,-67.5 1272,-67.5"/>
<text text-anchor="start" x="1280" y="-85.5" font-family="Helvetica,sans-Serif" font-size="10.00">runtime/src/docker</text>
<text text-anchor="middle" x="1330" y="-74.5" font-family="Helvetica,sans-Serif" font-size="10.00">_api_commands.cpp</text>
</a>
</g>
</g>
<!-- Node21&#45;&gt;Node22 -->
<g id="edge30" class="edge">
<title>Node21&#45;&gt;Node22</title>
<path fill="none" stroke="midnightblue" d="M1318.59,-124.7C1321.11,-115.59 1323.91,-105.49 1326.1,-97.58"/>
<polygon fill="midnightblue" stroke="midnightblue" points="1315.2,-123.82 1315.91,-134.4 1321.95,-125.69 1315.2,-123.82"/>
</g>
<!-- Node23&#45;&gt;Node20 -->
<g id="edge32" class="edge">
<title>Node23&#45;&gt;Node20</title>
<path fill="none" stroke="midnightblue" d="M1484.31,-130.41C1508.58,-120.03 1538.59,-107.2 1561.08,-97.58"/>
<polygon fill="midnightblue" stroke="midnightblue" points="1482.8,-127.25 1474.98,-134.4 1485.55,-133.68 1482.8,-127.25"/>
</g>
<!-- Node24 -->
<g id="node24" class="node">
<title>Node24</title>
<g id="a_node24"><a xlink:href="docker__commands_8cpp.html" target="_top" xlink:title="Implements Docker command classes for container operations.">
<polygon fill="white" stroke="black" points="1406.5,-67.5 1406.5,-97.5 1513.5,-97.5 1513.5,-67.5 1406.5,-67.5"/>
<text text-anchor="start" x="1414.5" y="-85.5" font-family="Helvetica,sans-Serif" font-size="10.00">runtime/src/docker</text>
<text text-anchor="middle" x="1460" y="-74.5" font-family="Helvetica,sans-Serif" font-size="10.00">_commands.cpp</text>
</a>
</g>
</g>
<!-- Node23&#45;&gt;Node24 -->
<g id="edge33" class="edge">
<title>Node23&#45;&gt;Node24</title>
<path fill="none" stroke="midnightblue" d="M1448.59,-124.7C1451.11,-115.59 1453.91,-105.49 1456.1,-97.58"/>
<polygon fill="midnightblue" stroke="midnightblue" points="1445.2,-123.82 1445.91,-134.4 1451.95,-125.69 1445.2,-123.82"/>
</g>
<!-- Node25&#45;&gt;Node20 -->
<g id="edge35" class="edge">
<title>Node25&#45;&gt;Node20</title>
<path fill="none" stroke="midnightblue" d="M1604.77,-124.7C1602.39,-115.59 1599.75,-105.49 1597.68,-97.58"/>
<polygon fill="midnightblue" stroke="midnightblue" points="1601.39,-125.61 1607.31,-134.4 1608.17,-123.84 1601.39,-125.61"/>
</g>
<!-- Node26 -->
<g id="node26" class="node">
<title>Node26</title>
<g id="a_node26"><a xlink:href="podman__api__commands_8cpp.html" target="_top" xlink:title="Implements Podman API command classes for managing containers via the Podman HTTP API over a Unix soc...">
<polygon fill="white" stroke="black" points="1674,-67.5 1674,-97.5 1790,-97.5 1790,-67.5 1674,-67.5"/>
<text text-anchor="start" x="1682" y="-85.5" font-family="Helvetica,sans-Serif" font-size="10.00">runtime/src/podman</text>
<text text-anchor="middle" x="1732" y="-74.5" font-family="Helvetica,sans-Serif" font-size="10.00">_api_commands.cpp</text>
</a>
</g>
</g>
<!-- Node25&#45;&gt;Node26 -->
<g id="edge36" class="edge">
<title>Node25&#45;&gt;Node26</title>
<path fill="none" stroke="midnightblue" d="M1646.23,-129.57C1665.26,-119.35 1688.37,-106.94 1705.8,-97.58"/>
<polygon fill="midnightblue" stroke="midnightblue" points="1644.41,-126.58 1637.26,-134.4 1647.72,-132.75 1644.41,-126.58"/>
</g>
<!-- Node27&#45;&gt;Node20 -->
<g id="edge38" class="edge">
<title>Node27&#45;&gt;Node20</title>
<path fill="none" stroke="midnightblue" d="M1702.97,-130.41C1678.86,-120.03 1649.05,-107.2 1626.7,-97.58"/>
<polygon fill="midnightblue" stroke="midnightblue" points="1701.67,-133.66 1712.24,-134.4 1704.43,-127.23 1701.67,-133.66"/>
</g>
<!-- Node28 -->
<g id="node28" class="node">
<title>Node28</title>
<g id="a_node28"><a xlink:href="podman__commands_8cpp.html" target="_top" xlink:title="Implements Podman command classes for container operations.">
<polygon fill="white" stroke="black" points="1808.5,-67.5 1808.5,-97.5 1923.5,-97.5 1923.5,-67.5 1808.5,-67.5"/>
<text text-anchor="start" x="1816.5" y="-85.5" font-family="Helvetica,sans-Serif" font-size="10.00">runtime/src/podman</text>
<text text-anchor="middle" x="1866" y="-74.5" font-family="Helvetica,sans-Serif" font-size="10.00">_commands.cpp</text>
</a>
</g>
</g>
<!-- Node27&#45;&gt;Node28 -->
<g id="edge39" class="edge">
<title>Node27&#45;&gt;Node28</title>
<path fill="none" stroke="midnightblue" d="M1780.23,-129.57C1799.26,-119.35 1822.37,-106.94 1839.8,-97.58"/>
<polygon fill="midnightblue" stroke="midnightblue" points="1778.41,-126.58 1771.26,-134.4 1781.72,-132.75 1778.41,-126.58"/>
</g>
<!-- Node29&#45;&gt;Node20 -->
<g id="edge41" class="edge">
<title>Node29&#45;&gt;Node20</title>
<path fill="none" stroke="midnightblue" d="M1811.48,-132.24C1763.77,-121.55 1701.98,-107.7 1656.46,-97.5"/>
<polygon fill="midnightblue" stroke="midnightblue" points="1810.91,-135.7 1821.43,-134.48 1812.44,-128.87 1810.91,-135.7"/>
</g>
<!-- Node30 -->
<g id="node30" class="node">
<title>Node30</title>
<g id="a_node30"><a xlink:href="podman__yaml__commands_8cpp.html" target="_top" xlink:title=" ">
<polygon fill="white" stroke="black" points="1942,-67.5 1942,-97.5 2068,-97.5 2068,-67.5 1942,-67.5"/>
<text text-anchor="start" x="1950" y="-85.5" font-family="Helvetica,sans-Serif" font-size="10.00">runtime/src/podman</text>
<text text-anchor="middle" x="2005" y="-74.5" font-family="Helvetica,sans-Serif" font-size="10.00">_yaml_commands.cpp</text>
</a>
</g>
</g>
<!-- Node29&#45;&gt;Node30 -->
<g id="edge42" class="edge">
<title>Node29&#45;&gt;Node30</title>
<path fill="none" stroke="midnightblue" d="M1919.23,-129.57C1938.26,-119.35 1961.37,-106.94 1978.8,-97.58"/>
<polygon fill="midnightblue" stroke="midnightblue" points="1917.41,-126.58 1910.26,-134.4 1920.72,-132.75 1917.41,-126.58"/>
</g>
<!-- Node31&#45;&gt;Node30 -->
<g id="edge46" class="edge">
<title>Node31&#45;&gt;Node30</title>
<path fill="none" stroke="midnightblue" d="M2033.52,-131.03C2027.23,-120.56 2019.34,-107.4 2013.45,-97.59"/>
<polygon fill="midnightblue" stroke="midnightblue" points="2030.59,-132.96 2038.74,-139.73 2036.6,-129.36 2030.59,-132.96"/>
</g>
<!-- Node32 -->
<g id="node32" class="node">
<title>Node32</title>
<g id="a_node32"><a xlink:href="yaml__generator_8cpp.html" target="_top" xlink:title=" ">
<polygon fill="white" stroke="black" points="2086.5,-73 2086.5,-92 2241.5,-92 2241.5,-73 2086.5,-73"/>
<text text-anchor="middle" x="2164" y="-80" font-family="Helvetica,sans-Serif" font-size="10.00">utils/src/yaml_generator.cpp</text>
</a>
</g>
</g>
<!-- Node31&#45;&gt;Node32 -->
<g id="edge47" class="edge">
<title>Node31&#45;&gt;Node32</title>
<path fill="none" stroke="midnightblue" d="M2069,-134.96C2092.79,-122.07 2127.87,-103.07 2148.07,-92.13"/>
<polygon fill="midnightblue" stroke="midnightblue" points="2067.31,-131.89 2060.18,-139.73 2070.64,-138.05 2067.31,-131.89"/>
</g>
</g>
</svg>
