<?xml version="1.0" encoding="UTF-8" standalone="no"?>
<!DOCTYPE svg PUBLIC "-//W3C//DTD SVG 1.1//EN"
 "http://www.w3.org/Graphics/SVG/1.1/DTD/svg11.dtd">
<!-- Generated by graphviz version 2.43.0 (0)
 -->
<!-- Title: executor/inc/container_request.hpp Pages: 1 -->
<svg width="545pt" height="296pt"
 viewBox="0.00 0.00 544.75 296.00" xmlns="http://www.w3.org/2000/svg" xmlns:xlink="http://www.w3.org/1999/xlink">
<g id="graph0" class="graph" transform="scale(1 1) rotate(0) translate(4 292)">
<title>executor/inc/container_request.hpp</title>
<polygon fill="white" stroke="transparent" points="-4,4 -4,-292 540.75,-292 540.75,4 -4,4"/>
<!-- Node1 -->
<g id="node1" class="node">
<title>Node1</title>
<g id="a_node1"><a xlink:title="Data structure for representing a container operation request.">
<polygon fill="#bfbfbf" stroke="black" points="139.5,-257.5 139.5,-287.5 264.5,-287.5 264.5,-257.5 139.5,-257.5"/>
<text text-anchor="start" x="147.5" y="-275.5" font-family="Helvetica,sans-Serif" font-size="10.00">executor/inc/container</text>
<text text-anchor="middle" x="202" y="-264.5" font-family="Helvetica,sans-Serif" font-size="10.00">_request.hpp</text>
</a>
</g>
</g>
<!-- Node2 -->
<g id="node2" class="node">
<title>Node2</title>
<g id="a_node2"><a xlink:href="container__service_8hpp.html" target="_top" xlink:title="Declares the ContainerServiceHandler class for business logic related to containers.">
<polygon fill="white" stroke="black" points="80,-190.5 80,-220.5 184,-220.5 184,-190.5 80,-190.5"/>
<text text-anchor="start" x="88" y="-208.5" font-family="Helvetica,sans-Serif" font-size="10.00">core/inc/container</text>
<text text-anchor="middle" x="132" y="-197.5" font-family="Helvetica,sans-Serif" font-size="10.00">_service.hpp</text>
</a>
</g>
</g>
<!-- Node1&#45;&gt;Node2 -->
<g id="edge1" class="edge">
<title>Node1&#45;&gt;Node2</title>
<path fill="none" stroke="midnightblue" d="M179.18,-250.31C168.68,-240.56 156.51,-229.26 147.16,-220.58"/>
<polygon fill="midnightblue" stroke="midnightblue" points="177.1,-253.16 186.81,-257.4 181.86,-248.03 177.1,-253.16"/>
</g>
<!-- Node5 -->
<g id="node5" class="node">
<title>Node5</title>
<g id="a_node5"><a xlink:href="request__executor_8hpp.html" target="_top" xlink:title="Declares the abstract RequestExecutor interface for executing requests.">
<polygon fill="white" stroke="black" points="214,-190.5 214,-220.5 330,-220.5 330,-190.5 214,-190.5"/>
<text text-anchor="start" x="222" y="-208.5" font-family="Helvetica,sans-Serif" font-size="10.00">executor/inc/request</text>
<text text-anchor="middle" x="272" y="-197.5" font-family="Helvetica,sans-Serif" font-size="10.00">_executor.hpp</text>
</a>
</g>
</g>
<!-- Node1&#45;&gt;Node5 -->
<g id="edge4" class="edge">
<title>Node1&#45;&gt;Node5</title>
<path fill="none" stroke="midnightblue" d="M224.82,-250.31C235.32,-240.56 247.49,-229.26 256.84,-220.58"/>
<polygon fill="midnightblue" stroke="midnightblue" points="222.14,-248.03 217.19,-257.4 226.9,-253.16 222.14,-248.03"/>
</g>
<!-- Node3 -->
<g id="node3" class="node">
<title>Node3</title>
<g id="a_node3"><a xlink:href="container__service_8cpp.html" target="_top" xlink:title="Implements the ContainerServiceHandler class for business logic related to containers.">
<polygon fill="white" stroke="black" points="0,-123.5 0,-153.5 104,-153.5 104,-123.5 0,-123.5"/>
<text text-anchor="start" x="8" y="-141.5" font-family="Helvetica,sans-Serif" font-size="10.00">core/src/container</text>
<text text-anchor="middle" x="52" y="-130.5" font-family="Helvetica,sans-Serif" font-size="10.00">_service.cpp</text>
</a>
</g>
</g>
<!-- Node2&#45;&gt;Node3 -->
<g id="edge2" class="edge">
<title>Node2&#45;&gt;Node3</title>
<path fill="none" stroke="midnightblue" d="M106.63,-183.88C94.47,-174.01 80.22,-162.43 69.32,-153.58"/>
<polygon fill="midnightblue" stroke="midnightblue" points="104.67,-186.81 114.64,-190.4 109.09,-181.37 104.67,-186.81"/>
</g>
<!-- Node4 -->
<g id="node4" class="node">
<title>Node4</title>
<g id="a_node4"><a xlink:href="json__request__executor_8cpp.html" target="_top" xlink:title="Implements the JsonRequestExecutorHandler class for executing JSON&#45;based requests.">
<polygon fill="white" stroke="black" points="48,-56.5 48,-86.5 190,-86.5 190,-56.5 48,-56.5"/>
<text text-anchor="start" x="56" y="-74.5" font-family="Helvetica,sans-Serif" font-size="10.00">executor/src/json_request</text>
<text text-anchor="middle" x="119" y="-63.5" font-family="Helvetica,sans-Serif" font-size="10.00">_executor.cpp</text>
</a>
</g>
</g>
<!-- Node2&#45;&gt;Node4 -->
<g id="edge3" class="edge">
<title>Node2&#45;&gt;Node4</title>
<path fill="none" stroke="midnightblue" d="M129.63,-180.39C126.92,-152.9 122.58,-108.89 120.38,-86.52"/>
<polygon fill="midnightblue" stroke="midnightblue" points="126.15,-180.76 130.61,-190.37 133.11,-180.08 126.15,-180.76"/>
</g>
<!-- Node6 -->
<g id="node6" class="node">
<title>Node6</title>
<g id="a_node6"><a xlink:href="mosquitto__mqtt__subscriber_8hpp.html" target="_top" xlink:title="Declares the MosquittoMqttSubscriber class for handling MQTT messages using Mosquitto.">
<polygon fill="white" stroke="black" points="392,-123.5 392,-153.5 522,-153.5 522,-123.5 392,-123.5"/>
<text text-anchor="start" x="400" y="-141.5" font-family="Helvetica,sans-Serif" font-size="10.00">api/inc/mosquitto_mqtt</text>
<text text-anchor="middle" x="457" y="-130.5" font-family="Helvetica,sans-Serif" font-size="10.00">_subscriber.hpp</text>
</a>
</g>
</g>
<!-- Node5&#45;&gt;Node6 -->
<g id="edge5" class="edge">
<title>Node5&#45;&gt;Node6</title>
<path fill="none" stroke="midnightblue" d="M321.94,-186.96C351.74,-176.48 389.07,-163.37 416.94,-153.58"/>
<polygon fill="midnightblue" stroke="midnightblue" points="320.42,-183.78 312.14,-190.4 322.74,-190.38 320.42,-183.78"/>
</g>
<!-- Node9 -->
<g id="node9" class="node">
<title>Node9</title>
<g id="a_node9"><a xlink:href="json__request__executor_8hpp.html" target="_top" xlink:title="Defines the JsonRequestExecutorHandler class for executing JSON&#45;based requests.">
<polygon fill="white" stroke="black" points="201,-123.5 201,-153.5 343,-153.5 343,-123.5 201,-123.5"/>
<text text-anchor="start" x="209" y="-141.5" font-family="Helvetica,sans-Serif" font-size="10.00">executor/inc/json_request</text>
<text text-anchor="middle" x="272" y="-130.5" font-family="Helvetica,sans-Serif" font-size="10.00">_executor.hpp</text>
</a>
</g>
</g>
<!-- Node5&#45;&gt;Node9 -->
<g id="edge8" class="edge">
<title>Node5&#45;&gt;Node9</title>
<path fill="none" stroke="midnightblue" d="M272,-180.11C272,-171.15 272,-161.32 272,-153.58"/>
<polygon fill="midnightblue" stroke="midnightblue" points="268.5,-180.4 272,-190.4 275.5,-180.4 268.5,-180.4"/>
</g>
<!-- Node7 -->
<g id="node7" class="node">
<title>Node7</title>
<g id="a_node7"><a xlink:href="mosquitto__mqtt__subscriber_8cpp.html" target="_top" xlink:title="Implements the MosquittoMqttSubscriber class for handling MQTT messages using Mosquitto.">
<polygon fill="white" stroke="black" points="392,-56.5 392,-86.5 522,-86.5 522,-56.5 392,-56.5"/>
<text text-anchor="start" x="400" y="-74.5" font-family="Helvetica,sans-Serif" font-size="10.00">api/src/mosquitto_mqtt</text>
<text text-anchor="middle" x="457" y="-63.5" font-family="Helvetica,sans-Serif" font-size="10.00">_subscriber.cpp</text>
</a>
</g>
</g>
<!-- Node6&#45;&gt;Node7 -->
<g id="edge6" class="edge">
<title>Node6&#45;&gt;Node7</title>
<path fill="none" stroke="midnightblue" d="M457,-113.11C457,-104.15 457,-94.32 457,-86.58"/>
<polygon fill="midnightblue" stroke="midnightblue" points="453.5,-113.4 457,-123.4 460.5,-113.4 453.5,-113.4"/>
</g>
<!-- Node8 -->
<g id="node8" class="node">
<title>Node8</title>
<g id="a_node8"><a xlink:href="main_8cpp.html" target="_top" xlink:title="Entry point for the Container Manager application.">
<polygon fill="white" stroke="black" points="343,-0.5 343,-19.5 405,-19.5 405,-0.5 343,-0.5"/>
<text text-anchor="middle" x="374" y="-7.5" font-family="Helvetica,sans-Serif" font-size="10.00">main.cpp</text>
</a>
</g>
</g>
<!-- Node6&#45;&gt;Node8 -->
<g id="edge7" class="edge">
<title>Node6&#45;&gt;Node8</title>
<path fill="none" stroke="midnightblue" d="M499.82,-118.19C512.14,-110.38 524.1,-100.06 531,-87 537.44,-74.82 539.29,-67 531,-56 515.9,-35.96 446.63,-22.12 405.31,-15.49"/>
<polygon fill="midnightblue" stroke="midnightblue" points="497.71,-115.37 490.85,-123.44 501.25,-121.41 497.71,-115.37"/>
</g>
<!-- Node9&#45;&gt;Node4 -->
<g id="edge12" class="edge">
<title>Node9&#45;&gt;Node4</title>
<path fill="none" stroke="midnightblue" d="M229.41,-119.41C204.98,-109.03 174.78,-96.2 152.13,-86.58"/>
<polygon fill="midnightblue" stroke="midnightblue" points="228.23,-122.71 238.8,-123.4 230.97,-116.26 228.23,-122.71"/>
</g>
<!-- Node9&#45;&gt;Node8 -->
<g id="edge13" class="edge">
<title>Node9&#45;&gt;Node8</title>
<path fill="none" stroke="midnightblue" d="M308.8,-118.18C321.64,-109.98 335.26,-99.41 345,-87 361.38,-66.11 369.34,-34.91 372.42,-19.82"/>
<polygon fill="midnightblue" stroke="midnightblue" points="306.81,-115.29 300.09,-123.48 310.45,-121.27 306.81,-115.29"/>
</g>
<!-- Node10 -->
<g id="node10" class="node">
<title>Node10</title>
<g id="a_node10"><a xlink:href="http__server_8hpp.html" target="_top" xlink:title="Defines the HttpServerHandler class for handling HTTP requests.">
<polygon fill="white" stroke="black" points="208,-62 208,-81 336,-81 336,-62 208,-62"/>
<text text-anchor="middle" x="272" y="-69" font-family="Helvetica,sans-Serif" font-size="10.00">api/inc/http_server.hpp</text>
</a>
</g>
</g>
<!-- Node9&#45;&gt;Node10 -->
<g id="edge9" class="edge">
<title>Node9&#45;&gt;Node10</title>
<path fill="none" stroke="midnightblue" d="M272,-113.25C272,-102.02 272,-89.38 272,-81.19"/>
<polygon fill="midnightblue" stroke="midnightblue" points="268.5,-113.4 272,-123.4 275.5,-113.4 268.5,-113.4"/>
</g>
<!-- Node10&#45;&gt;Node8 -->
<g id="edge11" class="edge">
<title>Node10&#45;&gt;Node8</title>
<path fill="none" stroke="midnightblue" d="M295.31,-56.9C315.04,-45.4 342.69,-29.27 359.41,-19.51"/>
<polygon fill="midnightblue" stroke="midnightblue" points="293.49,-53.91 286.61,-61.98 297.02,-59.96 293.49,-53.91"/>
</g>
<!-- Node11 -->
<g id="node11" class="node">
<title>Node11</title>
<g id="a_node11"><a xlink:href="http__server_8cpp.html" target="_top" xlink:title="Implements the HttpServerHandler class for handling HTTP requests.">
<polygon fill="white" stroke="black" points="197,-0.5 197,-19.5 325,-19.5 325,-0.5 197,-0.5"/>
<text text-anchor="middle" x="261" y="-7.5" font-family="Helvetica,sans-Serif" font-size="10.00">api/src/http_server.cpp</text>
</a>
</g>
</g>
<!-- Node10&#45;&gt;Node11 -->
<g id="edge10" class="edge">
<title>Node10&#45;&gt;Node11</title>
<path fill="none" stroke="midnightblue" d="M268.55,-51.82C266.55,-41 264.12,-27.9 262.57,-19.51"/>
<polygon fill="midnightblue" stroke="midnightblue" points="265.16,-52.78 270.42,-61.98 272.05,-51.51 265.16,-52.78"/>
</g>
</g>
</svg>
