<?xml version="1.0" encoding="UTF-8" standalone="no"?>
<!DOCTYPE svg PUBLIC "-//W3C//DTD SVG 1.1//EN"
 "http://www.w3.org/Graphics/SVG/1.1/DTD/svg11.dtd">
<!-- Generated by graphviz version 2.43.0 (0)
 -->
<!-- Title: core/src/container_service.cpp Pages: 1 -->
<!--zoomable 207 -->
<svg id="main" version="1.1" xmlns="http://www.w3.org/2000/svg" xmlns:xlink="http://www.w3.org/1999/xlink" xml:space="preserve" onload="init(evt)">
<style type="text/css"><![CDATA[
.edge:hover path { stroke: red; }
.edge:hover polygon { stroke: red; fill: red; }
]]></style>
<script type="text/javascript"><![CDATA[
var edges = document.getElementsByTagName('g');
if (edges && edges.length) {
  for (var i=0;i<edges.length;i++) {
    if (edges[i].id.substr(0,4)=='edge') {
      edges[i].setAttribute('class','edge');
    }
  }
}
]]></script>
        <defs>
                <circle id="rim" cx="0" cy="0" r="7"/>
                <circle id="rim2" cx="0" cy="0" r="3.5"/>
                <g id="zoomPlus">
                        <use xlink:href="#rim" fill="#404040">
                                <set attributeName="fill" to="#808080" begin="zoomplus.mouseover" end="zoomplus.mouseout"/>
                        </use>
                        <path d="M-4,0h8M0,-4v8" fill="none" stroke="white" stroke-width="1.5" pointer-events="none"/>
                </g>
                <g id="zoomMin">
                        <use xlink:href="#rim" fill="#404040">
                                <set attributeName="fill" to="#808080" begin="zoomminus.mouseover" end="zoomminus.mouseout"/>
                        </use>
                        <path d="M-4,0h8" fill="none" stroke="white" stroke-width="1.5" pointer-events="none"/>
                </g>
                <g id="dirArrow">
                        <path fill="none" stroke="white" stroke-width="1.5" d="M0,-3.0v7 M-2.5,-0.5L0,-3.0L2.5,-0.5"/>
                </g>
               <g id="resetDef">
                       <use xlink:href="#rim2" fill="#404040">
                               <set attributeName="fill" to="#808080" begin="reset.mouseover" end="reset.mouseout"/>
                       </use>
               </g>
        </defs>

<script type="text/javascript">
var viewWidth = 940;
var viewHeight = 207;
var sectionId = 'dynsection-0';
</script>
<script xlink:href="svgpan.js"/>
<svg id="graph" class="graph">
<g id="viewport">
<title>core/src/container_service.cpp</title>
<polygon fill="white" stroke="transparent" points="-4,4 -4,-203 935.62,-203 935.62,4 -4,4"/>
<!-- Node1 -->
<g id="node1" class="node">
<title>Node1</title>
<g id="a_node1"><a xlink:title="Implements the ContainerServiceHandler class for business logic related to containers.">
<polygon fill="#bfbfbf" stroke="black" points="366.12,-168.5 366.12,-198.5 470.12,-198.5 470.12,-168.5 366.12,-168.5"/>
<text text-anchor="start" x="374.12" y="-186.5" font-family="Helvetica,sans-Serif" font-size="10.00">core/src/container</text>
<text text-anchor="middle" x="418.12" y="-175.5" font-family="Helvetica,sans-Serif" font-size="10.00">_service.cpp</text>
</a>
</g>
</g>
<!-- Node2 -->
<g id="node2" class="node">
<title>Node2</title>
<g id="a_node2"><a xlink:href="container__service_8hpp.html" target="_top" xlink:title="Declares the ContainerServiceHandler class for business logic related to containers.">
<polygon fill="white" stroke="black" points="297.62,-112.5 297.62,-131.5 438.62,-131.5 438.62,-112.5 297.62,-112.5"/>
<text text-anchor="middle" x="368.12" y="-119.5" font-family="Helvetica,sans-Serif" font-size="10.00">inc/container_service.hpp</text>
</a>
</g>
</g>
<!-- Node1&#45;&gt;Node2 -->
<g id="edge1" class="edge">
<title>Node1&#45;&gt;Node2</title>
<path fill="none" stroke="midnightblue" d="M406.27,-168.4C399,-159.75 389.66,-148.64 382.04,-139.58"/>
<polygon fill="midnightblue" stroke="midnightblue" points="384.5,-137.06 375.39,-131.66 379.14,-141.57 384.5,-137.06"/>
</g>
<!-- Node3 -->
<g id="node3" class="node">
<title>Node3</title>
<g id="a_node3"><a xlink:title=" ">
<polygon fill="white" stroke="#bfbfbf" points="75.12,-0.5 75.12,-19.5 185.12,-19.5 185.12,-0.5 75.12,-0.5"/>
<text text-anchor="middle" x="130.12" y="-7.5" font-family="Helvetica,sans-Serif" font-size="10.00">nlohmann/json.hpp</text>
</a>
</g>
</g>
<!-- Node1&#45;&gt;Node3 -->
<g id="edge9" class="edge">
<title>Node1&#45;&gt;Node3</title>
<path fill="none" stroke="midnightblue" d="M366.01,-181.1C300.03,-177.86 183.76,-167.15 91.12,-132 48.12,-115.69 26.14,-116.37 4.12,-76 -12.29,-45.92 26.4,-29.34 65.12,-20.46"/>
<polygon fill="midnightblue" stroke="midnightblue" points="65.88,-23.88 74.93,-18.37 64.42,-17.03 65.88,-23.88"/>
</g>
<!-- Node4 -->
<g id="node4" class="node">
<title>Node4</title>
<g id="a_node4"><a xlink:href="database__interface_8hpp.html" target="_top" xlink:title="Abstract interface for database operations.">
<polygon fill="white" stroke="black" points="191.62,-56.5 191.62,-75.5 340.62,-75.5 340.62,-56.5 191.62,-56.5"/>
<text text-anchor="middle" x="266.12" y="-63.5" font-family="Helvetica,sans-Serif" font-size="10.00">inc/database_interface.hpp</text>
</a>
</g>
</g>
<!-- Node1&#45;&gt;Node4 -->
<g id="edge23" class="edge">
<title>Node1&#45;&gt;Node4</title>
<path fill="none" stroke="midnightblue" d="M365.85,-172.81C339.77,-165.55 309.52,-153.09 289.12,-132 277.03,-119.51 271.26,-100.28 268.52,-85.97"/>
<polygon fill="midnightblue" stroke="midnightblue" points="271.93,-85.11 266.92,-75.78 265.01,-86.2 271.93,-85.11"/>
</g>
<!-- Node6 -->
<g id="node6" class="node">
<title>Node6</title>
<g id="a_node6"><a xlink:href="container__request_8hpp.html" target="_top" xlink:title="Data structure for representing a container operation request.">
<polygon fill="white" stroke="black" points="396.62,-56.5 396.62,-75.5 539.62,-75.5 539.62,-56.5 396.62,-56.5"/>
<text text-anchor="middle" x="468.12" y="-63.5" font-family="Helvetica,sans-Serif" font-size="10.00">inc/container_request.hpp</text>
</a>
</g>
</g>
<!-- Node1&#45;&gt;Node6 -->
<g id="edge22" class="edge">
<title>Node1&#45;&gt;Node6</title>
<path fill="none" stroke="midnightblue" d="M427.73,-168.4C434.14,-158.53 442.41,-144.87 448.12,-132 454.84,-116.82 460.22,-98.7 463.69,-85.46"/>
<polygon fill="midnightblue" stroke="midnightblue" points="467.11,-86.2 466.15,-75.65 460.32,-84.5 467.11,-86.2"/>
</g>
<!-- Node7 -->
<g id="node7" class="node">
<title>Node7</title>
<g id="a_node7"><a xlink:title=" ">
<polygon fill="white" stroke="#bfbfbf" points="695.12,-112.5 695.12,-131.5 755.12,-131.5 755.12,-112.5 695.12,-112.5"/>
<text text-anchor="middle" x="725.12" y="-119.5" font-family="Helvetica,sans-Serif" font-size="10.00">iostream</text>
</a>
</g>
</g>
<!-- Node1&#45;&gt;Node7 -->
<g id="edge8" class="edge">
<title>Node1&#45;&gt;Node7</title>
<path fill="none" stroke="midnightblue" d="M470.55,-172.63C523.65,-162.58 608.15,-146.47 681.12,-132 682.36,-131.75 683.63,-131.5 684.91,-131.24"/>
<polygon fill="midnightblue" stroke="midnightblue" points="685.72,-134.65 694.83,-129.24 684.33,-127.79 685.72,-134.65"/>
</g>
<!-- Node8 -->
<g id="node8" class="node">
<title>Node8</title>
<g id="a_node8"><a xlink:href="common_8hpp.html" target="_top" xlink:title="Defines common constants, string views, and utility structures for the application.">
<polygon fill="white" stroke="black" points="762.12,-56.5 762.12,-75.5 860.12,-75.5 860.12,-56.5 762.12,-56.5"/>
<text text-anchor="middle" x="811.12" y="-63.5" font-family="Helvetica,sans-Serif" font-size="10.00">inc/common.hpp</text>
</a>
</g>
</g>
<!-- Node1&#45;&gt;Node8 -->
<g id="edge10" class="edge">
<title>Node1&#45;&gt;Node8</title>
<path fill="none" stroke="midnightblue" d="M470.4,-175.13C517.76,-167.49 588.98,-153.61 648.12,-132 666.04,-125.45 668.65,-119.7 686.12,-112 715.18,-99.19 749.15,-87.14 774.34,-78.74"/>
<polygon fill="midnightblue" stroke="midnightblue" points="775.47,-82.05 783.87,-75.59 773.28,-75.4 775.47,-82.05"/>
</g>
<!-- Node11 -->
<g id="node11" class="node">
<title>Node11</title>
<g id="a_node11"><a xlink:href="command__factory_8hpp.html" target="_top" xlink:title="Declares the CommandFactory class for creating command objects based on container requests.">
<polygon fill="white" stroke="black" points="497.12,-112.5 497.12,-131.5 639.12,-131.5 639.12,-112.5 497.12,-112.5"/>
<text text-anchor="middle" x="568.12" y="-119.5" font-family="Helvetica,sans-Serif" font-size="10.00">inc/command_factory.hpp</text>
</a>
</g>
</g>
<!-- Node1&#45;&gt;Node11 -->
<g id="edge14" class="edge">
<title>Node1&#45;&gt;Node11</title>
<path fill="none" stroke="midnightblue" d="M453.66,-168.4C478.94,-158.37 512.58,-145.03 536.84,-135.4"/>
<polygon fill="midnightblue" stroke="midnightblue" points="538.28,-138.6 546.29,-131.66 535.7,-132.09 538.28,-138.6"/>
</g>
<!-- Node14 -->
<g id="node14" class="node">
<title>Node14</title>
<g id="a_node14"><a xlink:href="redis__database_8hpp.html" target="_top" xlink:title="Declares the RedisDatabaseHandler class for Redis&#45;based database operations.">
<polygon fill="white" stroke="black" points="99.62,-112.5 99.62,-131.5 228.62,-131.5 228.62,-112.5 99.62,-112.5"/>
<text text-anchor="middle" x="164.12" y="-119.5" font-family="Helvetica,sans-Serif" font-size="10.00">inc/redis_database.hpp</text>
</a>
</g>
</g>
<!-- Node1&#45;&gt;Node14 -->
<g id="edge24" class="edge">
<title>Node1&#45;&gt;Node14</title>
<path fill="none" stroke="midnightblue" d="M366.1,-170.32C320.32,-159.59 254.29,-144.12 210.33,-133.83"/>
<polygon fill="midnightblue" stroke="midnightblue" points="211.01,-130.39 200.48,-131.52 209.42,-137.21 211.01,-130.39"/>
</g>
<!-- Node2&#45;&gt;Node3 -->
<g id="edge2" class="edge">
<title>Node2&#45;&gt;Node3</title>
<path fill="none" stroke="midnightblue" d="M368.38,-112.41C368.32,-98.44 366.03,-70.86 350.12,-56 328.01,-35.35 251.86,-23.2 195.32,-16.83"/>
<polygon fill="midnightblue" stroke="midnightblue" points="195.68,-13.35 185.36,-15.75 194.92,-20.31 195.68,-13.35"/>
</g>
<!-- Node2&#45;&gt;Node4 -->
<g id="edge3" class="edge">
<title>Node2&#45;&gt;Node4</title>
<path fill="none" stroke="midnightblue" d="M351.73,-112.32C335.44,-103.7 310.25,-90.36 291.4,-80.39"/>
<polygon fill="midnightblue" stroke="midnightblue" points="292.94,-77.24 282.46,-75.65 289.66,-83.43 292.94,-77.24"/>
</g>
<!-- Node2&#45;&gt;Node6 -->
<g id="edge6" class="edge">
<title>Node2&#45;&gt;Node6</title>
<path fill="none" stroke="midnightblue" d="M384.18,-112.32C400.07,-103.74 424.62,-90.49 443.07,-80.52"/>
<polygon fill="midnightblue" stroke="midnightblue" points="444.95,-83.49 452.09,-75.65 441.63,-77.33 444.95,-83.49"/>
</g>
<!-- Node4&#45;&gt;Node3 -->
<g id="edge5" class="edge">
<title>Node4&#45;&gt;Node3</title>
<path fill="none" stroke="midnightblue" d="M244.57,-56.44C222.08,-47.52 186.63,-33.44 161.14,-23.32"/>
<polygon fill="midnightblue" stroke="midnightblue" points="162.15,-19.95 151.56,-19.52 159.57,-26.46 162.15,-19.95"/>
</g>
<!-- Node5 -->
<g id="node5" class="node">
<title>Node5</title>
<g id="a_node5"><a xlink:title=" ">
<polygon fill="white" stroke="#bfbfbf" points="496.12,-0.5 496.12,-19.5 540.12,-19.5 540.12,-0.5 496.12,-0.5"/>
<text text-anchor="middle" x="518.12" y="-7.5" font-family="Helvetica,sans-Serif" font-size="10.00">string</text>
</a>
</g>
</g>
<!-- Node4&#45;&gt;Node5 -->
<g id="edge4" class="edge">
<title>Node4&#45;&gt;Node5</title>
<path fill="none" stroke="midnightblue" d="M306.05,-56.44C355.87,-45.77 440.1,-27.72 485.98,-17.89"/>
<polygon fill="midnightblue" stroke="midnightblue" points="486.93,-21.26 495.97,-15.75 485.46,-14.42 486.93,-21.26"/>
</g>
<!-- Node6&#45;&gt;Node5 -->
<g id="edge7" class="edge">
<title>Node6&#45;&gt;Node5</title>
<path fill="none" stroke="midnightblue" d="M476.37,-56.08C483.58,-48.3 494.23,-36.8 502.96,-27.37"/>
<polygon fill="midnightblue" stroke="midnightblue" points="505.79,-29.47 510.01,-19.75 500.65,-24.71 505.79,-29.47"/>
</g>
<!-- Node8&#45;&gt;Node5 -->
<g id="edge11" class="edge">
<title>Node8&#45;&gt;Node5</title>
<path fill="none" stroke="midnightblue" d="M764.69,-56.44C704.76,-45.4 602.02,-26.46 550.12,-16.9"/>
<polygon fill="midnightblue" stroke="midnightblue" points="550.62,-13.43 540.15,-15.06 549.35,-20.32 550.62,-13.43"/>
</g>
<!-- Node9 -->
<g id="node9" class="node">
<title>Node9</title>
<g id="a_node9"><a xlink:title=" ">
<polygon fill="white" stroke="#bfbfbf" points="858.62,-0.5 858.62,-19.5 931.62,-19.5 931.62,-0.5 858.62,-0.5"/>
<text text-anchor="middle" x="895.12" y="-7.5" font-family="Helvetica,sans-Serif" font-size="10.00">string_view</text>
</a>
</g>
</g>
<!-- Node8&#45;&gt;Node9 -->
<g id="edge12" class="edge">
<title>Node8&#45;&gt;Node9</title>
<path fill="none" stroke="midnightblue" d="M824.61,-56.32C837.71,-47.9 857.83,-34.97 873.22,-25.07"/>
<polygon fill="midnightblue" stroke="midnightblue" points="875.13,-28.01 881.65,-19.65 871.35,-22.12 875.13,-28.01"/>
</g>
<!-- Node10 -->
<g id="node10" class="node">
<title>Node10</title>
<g id="a_node10"><a xlink:title=" ">
<polygon fill="white" stroke="#bfbfbf" points="747.62,-0.5 747.62,-19.5 840.62,-19.5 840.62,-0.5 747.62,-0.5"/>
<text text-anchor="middle" x="794.12" y="-7.5" font-family="Helvetica,sans-Serif" font-size="10.00">unordered_map</text>
</a>
</g>
</g>
<!-- Node8&#45;&gt;Node10 -->
<g id="edge13" class="edge">
<title>Node8&#45;&gt;Node10</title>
<path fill="none" stroke="midnightblue" d="M808.31,-56.08C806.03,-48.85 802.74,-38.41 799.91,-29.4"/>
<polygon fill="midnightblue" stroke="midnightblue" points="803.21,-28.24 796.87,-19.75 796.53,-30.34 803.21,-28.24"/>
</g>
<!-- Node11&#45;&gt;Node5 -->
<g id="edge16" class="edge">
<title>Node11&#45;&gt;Node5</title>
<path fill="none" stroke="midnightblue" d="M566.49,-112.27C563.9,-99.48 558.2,-75.11 549.12,-56 544.39,-46.06 537.58,-35.88 531.54,-27.73"/>
<polygon fill="midnightblue" stroke="midnightblue" points="534.31,-25.58 525.44,-19.78 528.75,-29.85 534.31,-25.58"/>
</g>
<!-- Node11&#45;&gt;Node6 -->
<g id="edge21" class="edge">
<title>Node11&#45;&gt;Node6</title>
<path fill="none" stroke="midnightblue" d="M552.05,-112.32C536.16,-103.74 511.61,-90.49 493.16,-80.52"/>
<polygon fill="midnightblue" stroke="midnightblue" points="494.6,-77.33 484.14,-75.65 491.28,-83.49 494.6,-77.33"/>
</g>
<!-- Node11&#45;&gt;Node8 -->
<g id="edge20" class="edge">
<title>Node11&#45;&gt;Node8</title>
<path fill="none" stroke="midnightblue" d="M606.62,-112.44C648.92,-103.04 716.93,-87.93 762.79,-77.74"/>
<polygon fill="midnightblue" stroke="midnightblue" points="763.79,-81.1 772.79,-75.52 762.27,-74.27 763.79,-81.1"/>
</g>
<!-- Node12 -->
<g id="node12" class="node">
<title>Node12</title>
<g id="a_node12"><a xlink:title=" ">
<polygon fill="white" stroke="#bfbfbf" points="638.12,-0.5 638.12,-19.5 696.12,-19.5 696.12,-0.5 638.12,-0.5"/>
<text text-anchor="middle" x="667.12" y="-7.5" font-family="Helvetica,sans-Serif" font-size="10.00">memory</text>
</a>
</g>
</g>
<!-- Node11&#45;&gt;Node12 -->
<g id="edge15" class="edge">
<title>Node11&#45;&gt;Node12</title>
<path fill="none" stroke="midnightblue" d="M617.11,-112.44C655.11,-104.69 703.25,-92.04 715.12,-76 727.95,-58.65 708.03,-38.68 690.08,-25.51"/>
<polygon fill="midnightblue" stroke="midnightblue" points="691.8,-22.44 681.58,-19.62 687.81,-28.19 691.8,-22.44"/>
</g>
<!-- Node13 -->
<g id="node13" class="node">
<title>Node13</title>
<g id="a_node13"><a xlink:href="commands_8hpp.html" target="_top" xlink:title=" ">
<polygon fill="white" stroke="black" points="596.62,-56.5 596.62,-75.5 705.62,-75.5 705.62,-56.5 596.62,-56.5"/>
<text text-anchor="middle" x="651.12" y="-63.5" font-family="Helvetica,sans-Serif" font-size="10.00">inc/commands.hpp</text>
</a>
</g>
</g>
<!-- Node11&#45;&gt;Node13 -->
<g id="edge17" class="edge">
<title>Node11&#45;&gt;Node13</title>
<path fill="none" stroke="midnightblue" d="M581.45,-112.32C594.28,-103.98 613.9,-91.21 629.06,-81.35"/>
<polygon fill="midnightblue" stroke="midnightblue" points="631.34,-84.04 637.81,-75.65 627.52,-78.17 631.34,-84.04"/>
</g>
<!-- Node13&#45;&gt;Node5 -->
<g id="edge18" class="edge">
<title>Node13&#45;&gt;Node5</title>
<path fill="none" stroke="midnightblue" d="M630.04,-56.44C608.06,-47.52 573.38,-33.44 548.45,-23.32"/>
<polygon fill="midnightblue" stroke="midnightblue" points="549.67,-20.04 539.09,-19.52 547.04,-26.52 549.67,-20.04"/>
</g>
<!-- Node13&#45;&gt;Node12 -->
<g id="edge19" class="edge">
<title>Node13&#45;&gt;Node12</title>
<path fill="none" stroke="midnightblue" d="M653.76,-56.08C655.9,-48.85 658.99,-38.41 661.66,-29.4"/>
<polygon fill="midnightblue" stroke="midnightblue" points="665.04,-30.33 664.52,-19.75 658.33,-28.34 665.04,-30.33"/>
</g>
<!-- Node14&#45;&gt;Node3 -->
<g id="edge28" class="edge">
<title>Node14&#45;&gt;Node3</title>
<path fill="none" stroke="midnightblue" d="M99.32,-118.85C68,-114.14 32.98,-102.65 13.12,-76 -6.98,-49.04 33.04,-31.78 71.63,-21.88"/>
<polygon fill="midnightblue" stroke="midnightblue" points="72.48,-25.28 81.37,-19.52 70.83,-18.47 72.48,-25.28"/>
</g>
<!-- Node14&#45;&gt;Node4 -->
<g id="edge25" class="edge">
<title>Node14&#45;&gt;Node4</title>
<path fill="none" stroke="midnightblue" d="M180.5,-112.32C196.79,-103.7 221.98,-90.36 240.83,-80.39"/>
<polygon fill="midnightblue" stroke="midnightblue" points="242.57,-83.43 249.77,-75.65 239.29,-77.24 242.57,-83.43"/>
</g>
<!-- Node14&#45;&gt;Node5 -->
<g id="edge27" class="edge">
<title>Node14&#45;&gt;Node5</title>
<path fill="none" stroke="midnightblue" d="M163.88,-112.28C164.02,-98.11 166.53,-70.25 183.12,-56 228.08,-17.36 410.77,-11.68 485.76,-11"/>
<polygon fill="midnightblue" stroke="midnightblue" points="486.03,-14.5 496.01,-10.94 485.99,-7.5 486.03,-14.5"/>
</g>
<!-- Node15 -->
<g id="node15" class="node">
<title>Node15</title>
<g id="a_node15"><a xlink:title=" ">
<polygon fill="white" stroke="#bfbfbf" points="22.62,-56.5 22.62,-75.5 135.62,-75.5 135.62,-56.5 22.62,-56.5"/>
<text text-anchor="middle" x="79.12" y="-63.5" font-family="Helvetica,sans-Serif" font-size="10.00">cpp_redis/cpp_redis</text>
</a>
</g>
</g>
<!-- Node14&#45;&gt;Node15 -->
<g id="edge26" class="edge">
<title>Node14&#45;&gt;Node15</title>
<path fill="none" stroke="midnightblue" d="M150.46,-112.32C137.2,-103.9 116.85,-90.97 101.27,-81.07"/>
<polygon fill="midnightblue" stroke="midnightblue" points="103.06,-78.06 92.74,-75.65 99.3,-83.97 103.06,-78.06"/>
</g>
</g>
</svg>
        <g id="navigator" transform="translate(0 0)" fill="#404254">
                <rect fill="#f2f5e9" fill-opacity="0.5" stroke="#606060" stroke-width=".5" x="0" y="0" width="60" height="60"/>
                <use id="zoomplus" xlink:href="#zoomPlus" x="17" y="9" onmousedown="handleZoom(evt,'in')"/>
                <use id="zoomminus" xlink:href="#zoomMin" x="42" y="9" onmousedown="handleZoom(evt,'out')"/>
                <use id="reset" xlink:href="#resetDef" x="30" y="36" onmousedown="handleReset()"/>
                <g id="arrowUp" xlink:href="#dirArrow" transform="translate(30 24)" onmousedown="handlePan(0,-1)">
                  <use xlink:href="#rim" fill="#404040">
                        <set attributeName="fill" to="#808080" begin="arrowUp.mouseover" end="arrowUp.mouseout"/>
                  </use>
                  <path fill="none" stroke="white" stroke-width="1.5" d="M0,-3.0v7 M-2.5,-0.5L0,-3.0L2.5,-0.5"/>
                </g>
                <g id="arrowRight" xlink:href="#dirArrow" transform="rotate(90) translate(36 -43)" onmousedown="handlePan(1,0)">
                  <use xlink:href="#rim" fill="#404040">
                        <set attributeName="fill" to="#808080" begin="arrowRight.mouseover" end="arrowRight.mouseout"/>
                  </use>
                  <path fill="none" stroke="white" stroke-width="1.5" d="M0,-3.0v7 M-2.5,-0.5L0,-3.0L2.5,-0.5"/>
                </g>
                <g id="arrowDown" xlink:href="#dirArrow" transform="rotate(180) translate(-30 -48)" onmousedown="handlePan(0,1)">
                  <use xlink:href="#rim" fill="#404040">
                        <set attributeName="fill" to="#808080" begin="arrowDown.mouseover" end="arrowDown.mouseout"/>
                  </use>
                  <path fill="none" stroke="white" stroke-width="1.5" d="M0,-3.0v7 M-2.5,-0.5L0,-3.0L2.5,-0.5"/>
                </g>
                <g id="arrowLeft" xlink:href="#dirArrow" transform="rotate(270) translate(-36 17)" onmousedown="handlePan(-1,0)">
                  <use xlink:href="#rim" fill="#404040">
                        <set attributeName="fill" to="#808080" begin="arrowLeft.mouseover" end="arrowLeft.mouseout"/>
                  </use>
                  <path fill="none" stroke="white" stroke-width="1.5" d="M0,-3.0v7 M-2.5,-0.5L0,-3.0L2.5,-0.5"/>
                </g>
        </g>
        <svg viewBox="0 0 15 15" width="100%" height="30px" preserveAspectRatio="xMaxYMin meet">
         <g id="arrow_out" transform="scale(0.3 0.3)">
          <a xlink:href="container__service_8cpp__incl_org.svg" target="_base">
           <rect id="button" ry="5" rx="5" y="6" x="6" height="38" width="38"
                fill="#f2f5e9" fill-opacity="0.5" stroke="#606060" stroke-width="1.0"/>
           <path id="arrow"
             d="M 11.500037,31.436501 C 11.940474,20.09759 22.043105,11.32322 32.158766,21.979434 L 37.068811,17.246167 C 37.068811,17.246167 37.088388,32 37.088388,32 L 22.160133,31.978069 C 22.160133,31.978069 26.997745,27.140456 26.997745,27.140456 C 18.528582,18.264221 13.291696,25.230495 11.500037,31.436501 z"
             style="fill:#404040;"/>
          </a>
         </g>
        </svg>
</svg>
