<?xml version="1.0" encoding="UTF-8" standalone="no"?>
<!DOCTYPE svg PUBLIC "-//W3C//DTD SVG 1.1//EN"
 "http://www.w3.org/Graphics/SVG/1.1/DTD/svg11.dtd">
<!-- Generated by graphviz version 2.43.0 (0)
 -->
<!-- Title: core/src/container_service.cpp Pages: 1 -->
<!--zoomable 207 -->
<svg id="main" version="1.1" xmlns="http://www.w3.org/2000/svg" xmlns:xlink="http://www.w3.org/1999/xlink" xml:space="preserve" onload="init(evt)">
<style type="text/css"><![CDATA[
.edge:hover path { stroke: red; }
.edge:hover polygon { stroke: red; fill: red; }
]]></style>
<script type="text/javascript"><![CDATA[
var edges = document.getElementsByTagName('g');
if (edges && edges.length) {
  for (var i=0;i<edges.length;i++) {
    if (edges[i].id.substr(0,4)=='edge') {
      edges[i].setAttribute('class','edge');
    }
  }
}
]]></script>
        <defs>
                <circle id="rim" cx="0" cy="0" r="7"/>
                <circle id="rim2" cx="0" cy="0" r="3.5"/>
                <g id="zoomPlus">
                        <use xlink:href="#rim" fill="#404040">
                                <set attributeName="fill" to="#808080" begin="zoomplus.mouseover" end="zoomplus.mouseout"/>
                        </use>
                        <path d="M-4,0h8M0,-4v8" fill="none" stroke="white" stroke-width="1.5" pointer-events="none"/>
                </g>
                <g id="zoomMin">
                        <use xlink:href="#rim" fill="#404040">
                                <set attributeName="fill" to="#808080" begin="zoomminus.mouseover" end="zoomminus.mouseout"/>
                        </use>
                        <path d="M-4,0h8" fill="none" stroke="white" stroke-width="1.5" pointer-events="none"/>
                </g>
                <g id="dirArrow">
                        <path fill="none" stroke="white" stroke-width="1.5" d="M0,-3.0v7 M-2.5,-0.5L0,-3.0L2.5,-0.5"/>
                </g>
               <g id="resetDef">
                       <use xlink:href="#rim2" fill="#404040">
                               <set attributeName="fill" to="#808080" begin="reset.mouseover" end="reset.mouseout"/>
                       </use>
               </g>
        </defs>

<script type="text/javascript">
var viewWidth = 939;
var viewHeight = 207;
var sectionId = 'dynsection-0';
</script>
<script xlink:href="svgpan.js"/>
<svg id="graph" class="graph">
<g id="viewport">
<title>core/src/container_service.cpp</title>
<polygon fill="white" stroke="transparent" points="-4,4 -4,-203 934.54,-203 934.54,4 -4,4"/>
<!-- Node1 -->
<g id="node1" class="node">
<title>Node1</title>
<g id="a_node1"><a xlink:title="Implements the ContainerServiceHandler class for business logic related to containers.">
<polygon fill="#bfbfbf" stroke="black" points="365.04,-168.5 365.04,-198.5 469.04,-198.5 469.04,-168.5 365.04,-168.5"/>
<text text-anchor="start" x="373.04" y="-186.5" font-family="Helvetica,sans-Serif" font-size="10.00">core/src/container</text>
<text text-anchor="middle" x="417.04" y="-175.5" font-family="Helvetica,sans-Serif" font-size="10.00">_service.cpp</text>
</a>
</g>
</g>
<!-- Node2 -->
<g id="node2" class="node">
<title>Node2</title>
<g id="a_node2"><a xlink:href="container__service_8hpp.html" target="_top" xlink:title="Declares the ContainerServiceHandler class for business logic related to containers.">
<polygon fill="white" stroke="black" points="297.54,-112.5 297.54,-131.5 438.54,-131.5 438.54,-112.5 297.54,-112.5"/>
<text text-anchor="middle" x="368.04" y="-119.5" font-family="Helvetica,sans-Serif" font-size="10.00">inc/container_service.hpp</text>
</a>
</g>
</g>
<!-- Node1&#45;&gt;Node2 -->
<g id="edge1" class="edge">
<title>Node1&#45;&gt;Node2</title>
<path fill="none" stroke="midnightblue" d="M405.42,-168.4C398.3,-159.75 389.15,-148.64 381.69,-139.58"/>
<polygon fill="midnightblue" stroke="midnightblue" points="384.22,-137.15 375.17,-131.66 378.82,-141.6 384.22,-137.15"/>
</g>
<!-- Node3 -->
<g id="node3" class="node">
<title>Node3</title>
<g id="a_node3"><a xlink:title=" ">
<polygon fill="white" stroke="#bfbfbf" points="55.04,-0.5 55.04,-19.5 165.04,-19.5 165.04,-0.5 55.04,-0.5"/>
<text text-anchor="middle" x="110.04" y="-7.5" font-family="Helvetica,sans-Serif" font-size="10.00">nlohmann/json.hpp</text>
</a>
</g>
</g>
<!-- Node1&#45;&gt;Node3 -->
<g id="edge6" class="edge">
<title>Node1&#45;&gt;Node3</title>
<path fill="none" stroke="midnightblue" d="M364.81,-179.76C301.34,-175.17 191.75,-163.09 103.04,-132 55.33,-115.28 29.5,-119.67 4.04,-76 -11.51,-49.35 23.33,-32.2 57.14,-22.25"/>
<polygon fill="midnightblue" stroke="midnightblue" points="58.37,-25.54 67.08,-19.51 56.51,-18.79 58.37,-25.54"/>
</g>
<!-- Node4 -->
<g id="node4" class="node">
<title>Node4</title>
<g id="a_node4"><a xlink:href="container__request_8hpp.html" target="_top" xlink:title="Data structure for representing a container operation request.">
<polygon fill="white" stroke="black" points="395.54,-56.5 395.54,-75.5 538.54,-75.5 538.54,-56.5 395.54,-56.5"/>
<text text-anchor="middle" x="467.04" y="-63.5" font-family="Helvetica,sans-Serif" font-size="10.00">inc/container_request.hpp</text>
</a>
</g>
</g>
<!-- Node1&#45;&gt;Node4 -->
<g id="edge19" class="edge">
<title>Node1&#45;&gt;Node4</title>
<path fill="none" stroke="midnightblue" d="M427.05,-168.47C433.72,-158.64 442.28,-144.98 448.04,-132 454.74,-116.89 459.81,-98.76 463.02,-85.5"/>
<polygon fill="midnightblue" stroke="midnightblue" points="466.45,-86.2 465.27,-75.67 459.63,-84.63 466.45,-86.2"/>
</g>
<!-- Node6 -->
<g id="node6" class="node">
<title>Node6</title>
<g id="a_node6"><a xlink:title=" ">
<polygon fill="white" stroke="#bfbfbf" points="694.04,-112.5 694.04,-131.5 754.04,-131.5 754.04,-112.5 694.04,-112.5"/>
<text text-anchor="middle" x="724.04" y="-119.5" font-family="Helvetica,sans-Serif" font-size="10.00">iostream</text>
</a>
</g>
</g>
<!-- Node1&#45;&gt;Node6 -->
<g id="edge5" class="edge">
<title>Node1&#45;&gt;Node6</title>
<path fill="none" stroke="midnightblue" d="M469.47,-172.63C522.57,-162.58 607.07,-146.47 680.04,-132 681.28,-131.75 682.55,-131.5 683.83,-131.24"/>
<polygon fill="midnightblue" stroke="midnightblue" points="684.64,-134.65 693.75,-129.24 683.25,-127.79 684.64,-134.65"/>
</g>
<!-- Node7 -->
<g id="node7" class="node">
<title>Node7</title>
<g id="a_node7"><a xlink:href="common_8hpp.html" target="_top" xlink:title="Defines common constants, string views, and utility structures for the application.">
<polygon fill="white" stroke="black" points="761.04,-56.5 761.04,-75.5 859.04,-75.5 859.04,-56.5 761.04,-56.5"/>
<text text-anchor="middle" x="810.04" y="-63.5" font-family="Helvetica,sans-Serif" font-size="10.00">inc/common.hpp</text>
</a>
</g>
</g>
<!-- Node1&#45;&gt;Node7 -->
<g id="edge7" class="edge">
<title>Node1&#45;&gt;Node7</title>
<path fill="none" stroke="midnightblue" d="M469.32,-175.13C516.68,-167.49 587.9,-153.61 647.04,-132 664.96,-125.45 667.57,-119.7 685.04,-112 714.1,-99.19 748.07,-87.14 773.26,-78.74"/>
<polygon fill="midnightblue" stroke="midnightblue" points="774.39,-82.05 782.79,-75.59 772.2,-75.4 774.39,-82.05"/>
</g>
<!-- Node10 -->
<g id="node10" class="node">
<title>Node10</title>
<g id="a_node10"><a xlink:href="command__factory_8hpp.html" target="_top" xlink:title="Declares the CommandFactory class for creating command objects based on container requests.">
<polygon fill="white" stroke="black" points="496.04,-112.5 496.04,-131.5 638.04,-131.5 638.04,-112.5 496.04,-112.5"/>
<text text-anchor="middle" x="567.04" y="-119.5" font-family="Helvetica,sans-Serif" font-size="10.00">inc/command_factory.hpp</text>
</a>
</g>
</g>
<!-- Node1&#45;&gt;Node10 -->
<g id="edge11" class="edge">
<title>Node1&#45;&gt;Node10</title>
<path fill="none" stroke="midnightblue" d="M452.58,-168.4C477.86,-158.37 511.5,-145.03 535.76,-135.4"/>
<polygon fill="midnightblue" stroke="midnightblue" points="537.2,-138.6 545.21,-131.66 534.62,-132.09 537.2,-138.6"/>
</g>
<!-- Node13 -->
<g id="node13" class="node">
<title>Node13</title>
<g id="a_node13"><a xlink:href="database__interface_8hpp.html" target="_top" xlink:title="Abstract interface for database operations.">
<polygon fill="white" stroke="black" points="152.54,-56.5 152.54,-75.5 301.54,-75.5 301.54,-56.5 152.54,-56.5"/>
<text text-anchor="middle" x="227.04" y="-63.5" font-family="Helvetica,sans-Serif" font-size="10.00">inc/database_interface.hpp</text>
</a>
</g>
</g>
<!-- Node1&#45;&gt;Node13 -->
<g id="edge20" class="edge">
<title>Node1&#45;&gt;Node13</title>
<path fill="none" stroke="midnightblue" d="M367.18,-168.44C342.43,-160.1 312.82,-148.01 289.04,-132 269.32,-118.73 251.11,-98.23 239.6,-83.81"/>
<polygon fill="midnightblue" stroke="midnightblue" points="242.23,-81.49 233.34,-75.73 236.7,-85.78 242.23,-81.49"/>
</g>
<!-- Node14 -->
<g id="node14" class="node">
<title>Node14</title>
<g id="a_node14"><a xlink:href="redis__database_8hpp.html" target="_top" xlink:title="Declares the RedisDatabaseHandler class for Redis&#45;based database operations.">
<polygon fill="white" stroke="black" points="111.54,-112.5 111.54,-131.5 240.54,-131.5 240.54,-112.5 111.54,-112.5"/>
<text text-anchor="middle" x="176.04" y="-119.5" font-family="Helvetica,sans-Serif" font-size="10.00">inc/redis_database.hpp</text>
</a>
</g>
</g>
<!-- Node1&#45;&gt;Node14 -->
<g id="edge23" class="edge">
<title>Node1&#45;&gt;Node14</title>
<path fill="none" stroke="midnightblue" d="M364.74,-169.59C321.73,-158.97 261.44,-144.09 220.67,-134.02"/>
<polygon fill="midnightblue" stroke="midnightblue" points="221.3,-130.57 210.75,-131.57 219.62,-137.37 221.3,-130.57"/>
</g>
<!-- Node2&#45;&gt;Node3 -->
<g id="edge2" class="edge">
<title>Node2&#45;&gt;Node3</title>
<path fill="none" stroke="midnightblue" d="M362.97,-112.27C354.25,-98.1 335.04,-70.25 311.04,-56 269.7,-31.47 216.36,-20.29 175.01,-15.21"/>
<polygon fill="midnightblue" stroke="midnightblue" points="175.38,-11.73 165.04,-14.07 174.58,-18.68 175.38,-11.73"/>
</g>
<!-- Node2&#45;&gt;Node4 -->
<g id="edge3" class="edge">
<title>Node2&#45;&gt;Node4</title>
<path fill="none" stroke="midnightblue" d="M383.94,-112.32C399.67,-103.74 423.98,-90.49 442.24,-80.52"/>
<polygon fill="midnightblue" stroke="midnightblue" points="444.07,-83.52 451.17,-75.65 440.71,-77.37 444.07,-83.52"/>
</g>
<!-- Node5 -->
<g id="node5" class="node">
<title>Node5</title>
<g id="a_node5"><a xlink:title=" ">
<polygon fill="white" stroke="#bfbfbf" points="495.04,-0.5 495.04,-19.5 539.04,-19.5 539.04,-0.5 495.04,-0.5"/>
<text text-anchor="middle" x="517.04" y="-7.5" font-family="Helvetica,sans-Serif" font-size="10.00">string</text>
</a>
</g>
</g>
<!-- Node4&#45;&gt;Node5 -->
<g id="edge4" class="edge">
<title>Node4&#45;&gt;Node5</title>
<path fill="none" stroke="midnightblue" d="M475.29,-56.08C482.5,-48.3 493.15,-36.8 501.88,-27.37"/>
<polygon fill="midnightblue" stroke="midnightblue" points="504.71,-29.47 508.93,-19.75 499.57,-24.71 504.71,-29.47"/>
</g>
<!-- Node7&#45;&gt;Node5 -->
<g id="edge8" class="edge">
<title>Node7&#45;&gt;Node5</title>
<path fill="none" stroke="midnightblue" d="M763.61,-56.44C703.68,-45.4 600.94,-26.46 549.04,-16.9"/>
<polygon fill="midnightblue" stroke="midnightblue" points="549.54,-13.43 539.07,-15.06 548.27,-20.32 549.54,-13.43"/>
</g>
<!-- Node8 -->
<g id="node8" class="node">
<title>Node8</title>
<g id="a_node8"><a xlink:title=" ">
<polygon fill="white" stroke="#bfbfbf" points="857.54,-0.5 857.54,-19.5 930.54,-19.5 930.54,-0.5 857.54,-0.5"/>
<text text-anchor="middle" x="894.04" y="-7.5" font-family="Helvetica,sans-Serif" font-size="10.00">string_view</text>
</a>
</g>
</g>
<!-- Node7&#45;&gt;Node8 -->
<g id="edge9" class="edge">
<title>Node7&#45;&gt;Node8</title>
<path fill="none" stroke="midnightblue" d="M823.53,-56.32C836.64,-47.9 856.75,-34.97 872.14,-25.07"/>
<polygon fill="midnightblue" stroke="midnightblue" points="874.05,-28.01 880.57,-19.65 870.27,-22.12 874.05,-28.01"/>
</g>
<!-- Node9 -->
<g id="node9" class="node">
<title>Node9</title>
<g id="a_node9"><a xlink:title=" ">
<polygon fill="white" stroke="#bfbfbf" points="746.54,-0.5 746.54,-19.5 839.54,-19.5 839.54,-0.5 746.54,-0.5"/>
<text text-anchor="middle" x="793.04" y="-7.5" font-family="Helvetica,sans-Serif" font-size="10.00">unordered_map</text>
</a>
</g>
</g>
<!-- Node7&#45;&gt;Node9 -->
<g id="edge10" class="edge">
<title>Node7&#45;&gt;Node9</title>
<path fill="none" stroke="midnightblue" d="M807.23,-56.08C804.95,-48.85 801.66,-38.41 798.83,-29.4"/>
<polygon fill="midnightblue" stroke="midnightblue" points="802.13,-28.24 795.79,-19.75 795.46,-30.34 802.13,-28.24"/>
</g>
<!-- Node10&#45;&gt;Node4 -->
<g id="edge18" class="edge">
<title>Node10&#45;&gt;Node4</title>
<path fill="none" stroke="midnightblue" d="M550.97,-112.32C535.08,-103.74 510.53,-90.49 492.08,-80.52"/>
<polygon fill="midnightblue" stroke="midnightblue" points="493.52,-77.33 483.06,-75.65 490.2,-83.49 493.52,-77.33"/>
</g>
<!-- Node10&#45;&gt;Node5 -->
<g id="edge13" class="edge">
<title>Node10&#45;&gt;Node5</title>
<path fill="none" stroke="midnightblue" d="M565.41,-112.27C562.82,-99.48 557.12,-75.11 548.04,-56 543.31,-46.06 536.5,-35.88 530.46,-27.73"/>
<polygon fill="midnightblue" stroke="midnightblue" points="533.23,-25.58 524.36,-19.78 527.68,-29.85 533.23,-25.58"/>
</g>
<!-- Node10&#45;&gt;Node7 -->
<g id="edge17" class="edge">
<title>Node10&#45;&gt;Node7</title>
<path fill="none" stroke="midnightblue" d="M605.54,-112.44C647.84,-103.04 715.85,-87.93 761.71,-77.74"/>
<polygon fill="midnightblue" stroke="midnightblue" points="762.71,-81.1 771.71,-75.52 761.19,-74.27 762.71,-81.1"/>
</g>
<!-- Node11 -->
<g id="node11" class="node">
<title>Node11</title>
<g id="a_node11"><a xlink:title=" ">
<polygon fill="white" stroke="#bfbfbf" points="637.04,-0.5 637.04,-19.5 695.04,-19.5 695.04,-0.5 637.04,-0.5"/>
<text text-anchor="middle" x="666.04" y="-7.5" font-family="Helvetica,sans-Serif" font-size="10.00">memory</text>
</a>
</g>
</g>
<!-- Node10&#45;&gt;Node11 -->
<g id="edge12" class="edge">
<title>Node10&#45;&gt;Node11</title>
<path fill="none" stroke="midnightblue" d="M616.03,-112.44C654.03,-104.69 702.17,-92.04 714.04,-76 726.87,-58.65 706.95,-38.68 689,-25.51"/>
<polygon fill="midnightblue" stroke="midnightblue" points="690.72,-22.44 680.5,-19.62 686.74,-28.19 690.72,-22.44"/>
</g>
<!-- Node12 -->
<g id="node12" class="node">
<title>Node12</title>
<g id="a_node12"><a xlink:href="commands_8hpp.html" target="_top" xlink:title=" ">
<polygon fill="white" stroke="black" points="595.54,-56.5 595.54,-75.5 704.54,-75.5 704.54,-56.5 595.54,-56.5"/>
<text text-anchor="middle" x="650.04" y="-63.5" font-family="Helvetica,sans-Serif" font-size="10.00">inc/commands.hpp</text>
</a>
</g>
</g>
<!-- Node10&#45;&gt;Node12 -->
<g id="edge14" class="edge">
<title>Node10&#45;&gt;Node12</title>
<path fill="none" stroke="midnightblue" d="M580.37,-112.32C593.2,-103.98 612.82,-91.21 627.98,-81.35"/>
<polygon fill="midnightblue" stroke="midnightblue" points="630.26,-84.04 636.73,-75.65 626.44,-78.17 630.26,-84.04"/>
</g>
<!-- Node12&#45;&gt;Node5 -->
<g id="edge15" class="edge">
<title>Node12&#45;&gt;Node5</title>
<path fill="none" stroke="midnightblue" d="M628.96,-56.44C606.98,-47.52 572.3,-33.44 547.37,-23.32"/>
<polygon fill="midnightblue" stroke="midnightblue" points="548.59,-20.04 538.01,-19.52 545.96,-26.52 548.59,-20.04"/>
</g>
<!-- Node12&#45;&gt;Node11 -->
<g id="edge16" class="edge">
<title>Node12&#45;&gt;Node11</title>
<path fill="none" stroke="midnightblue" d="M652.68,-56.08C654.82,-48.85 657.91,-38.41 660.58,-29.4"/>
<polygon fill="midnightblue" stroke="midnightblue" points="663.96,-30.33 663.44,-19.75 657.25,-28.34 663.96,-30.33"/>
</g>
<!-- Node13&#45;&gt;Node3 -->
<g id="edge22" class="edge">
<title>Node13&#45;&gt;Node3</title>
<path fill="none" stroke="midnightblue" d="M208.5,-56.44C189.41,-47.64 159.46,-33.81 137.6,-23.72"/>
<polygon fill="midnightblue" stroke="midnightblue" points="139.03,-20.53 128.49,-19.52 136.1,-26.88 139.03,-20.53"/>
</g>
<!-- Node13&#45;&gt;Node5 -->
<g id="edge21" class="edge">
<title>Node13&#45;&gt;Node5</title>
<path fill="none" stroke="midnightblue" d="M272.99,-56.44C332.16,-45.43 433.48,-26.56 484.97,-16.97"/>
<polygon fill="midnightblue" stroke="midnightblue" points="485.68,-20.4 494.87,-15.13 484.4,-13.52 485.68,-20.4"/>
</g>
<!-- Node14&#45;&gt;Node3 -->
<g id="edge27" class="edge">
<title>Node14&#45;&gt;Node3</title>
<path fill="none" stroke="midnightblue" d="M117.16,-112.48C75.55,-105.11 24.97,-92.96 12.04,-76 -6.61,-51.55 30.61,-33.37 64.42,-22.54"/>
<polygon fill="midnightblue" stroke="midnightblue" points="65.72,-25.81 74.27,-19.55 63.69,-19.11 65.72,-25.81"/>
</g>
<!-- Node14&#45;&gt;Node5 -->
<g id="edge26" class="edge">
<title>Node14&#45;&gt;Node5</title>
<path fill="none" stroke="midnightblue" d="M202.51,-112.46C264.43,-92.49 418.5,-42.79 485.3,-21.24"/>
<polygon fill="midnightblue" stroke="midnightblue" points="486.43,-24.55 494.88,-18.15 484.28,-17.89 486.43,-24.55"/>
</g>
<!-- Node14&#45;&gt;Node13 -->
<g id="edge24" class="edge">
<title>Node14&#45;&gt;Node13</title>
<path fill="none" stroke="midnightblue" d="M184.46,-112.08C191.88,-104.22 202.89,-92.57 211.85,-83.08"/>
<polygon fill="midnightblue" stroke="midnightblue" points="214.45,-85.42 218.77,-75.75 209.36,-80.62 214.45,-85.42"/>
</g>
<!-- Node15 -->
<g id="node15" class="node">
<title>Node15</title>
<g id="a_node15"><a xlink:title=" ">
<polygon fill="white" stroke="#bfbfbf" points="21.54,-56.5 21.54,-75.5 134.54,-75.5 134.54,-56.5 21.54,-56.5"/>
<text text-anchor="middle" x="78.04" y="-63.5" font-family="Helvetica,sans-Serif" font-size="10.00">cpp_redis/cpp_redis</text>
</a>
</g>
</g>
<!-- Node14&#45;&gt;Node15 -->
<g id="edge25" class="edge">
<title>Node14&#45;&gt;Node15</title>
<path fill="none" stroke="midnightblue" d="M160.29,-112.32C144.72,-103.74 120.66,-90.49 102.58,-80.52"/>
<polygon fill="midnightblue" stroke="midnightblue" points="104.19,-77.42 93.74,-75.65 100.81,-83.55 104.19,-77.42"/>
</g>
</g>
</svg>
        <g id="navigator" transform="translate(0 0)" fill="#404254">
                <rect fill="#f2f5e9" fill-opacity="0.5" stroke="#606060" stroke-width=".5" x="0" y="0" width="60" height="60"/>
                <use id="zoomplus" xlink:href="#zoomPlus" x="17" y="9" onmousedown="handleZoom(evt,'in')"/>
                <use id="zoomminus" xlink:href="#zoomMin" x="42" y="9" onmousedown="handleZoom(evt,'out')"/>
                <use id="reset" xlink:href="#resetDef" x="30" y="36" onmousedown="handleReset()"/>
                <g id="arrowUp" xlink:href="#dirArrow" transform="translate(30 24)" onmousedown="handlePan(0,-1)">
                  <use xlink:href="#rim" fill="#404040">
                        <set attributeName="fill" to="#808080" begin="arrowUp.mouseover" end="arrowUp.mouseout"/>
                  </use>
                  <path fill="none" stroke="white" stroke-width="1.5" d="M0,-3.0v7 M-2.5,-0.5L0,-3.0L2.5,-0.5"/>
                </g>
                <g id="arrowRight" xlink:href="#dirArrow" transform="rotate(90) translate(36 -43)" onmousedown="handlePan(1,0)">
                  <use xlink:href="#rim" fill="#404040">
                        <set attributeName="fill" to="#808080" begin="arrowRight.mouseover" end="arrowRight.mouseout"/>
                  </use>
                  <path fill="none" stroke="white" stroke-width="1.5" d="M0,-3.0v7 M-2.5,-0.5L0,-3.0L2.5,-0.5"/>
                </g>
                <g id="arrowDown" xlink:href="#dirArrow" transform="rotate(180) translate(-30 -48)" onmousedown="handlePan(0,1)">
                  <use xlink:href="#rim" fill="#404040">
                        <set attributeName="fill" to="#808080" begin="arrowDown.mouseover" end="arrowDown.mouseout"/>
                  </use>
                  <path fill="none" stroke="white" stroke-width="1.5" d="M0,-3.0v7 M-2.5,-0.5L0,-3.0L2.5,-0.5"/>
                </g>
                <g id="arrowLeft" xlink:href="#dirArrow" transform="rotate(270) translate(-36 17)" onmousedown="handlePan(-1,0)">
                  <use xlink:href="#rim" fill="#404040">
                        <set attributeName="fill" to="#808080" begin="arrowLeft.mouseover" end="arrowLeft.mouseout"/>
                  </use>
                  <path fill="none" stroke="white" stroke-width="1.5" d="M0,-3.0v7 M-2.5,-0.5L0,-3.0L2.5,-0.5"/>
                </g>
        </g>
        <svg viewBox="0 0 15 15" width="100%" height="30px" preserveAspectRatio="xMaxYMin meet">
         <g id="arrow_out" transform="scale(0.3 0.3)">
          <a xlink:href="container__service_8cpp__incl_org.svg" target="_base">
           <rect id="button" ry="5" rx="5" y="6" x="6" height="38" width="38"
                fill="#f2f5e9" fill-opacity="0.5" stroke="#606060" stroke-width="1.0"/>
           <path id="arrow"
             d="M 11.500037,31.436501 C 11.940474,20.09759 22.043105,11.32322 32.158766,21.979434 L 37.068811,17.246167 C 37.068811,17.246167 37.088388,32 37.088388,32 L 22.160133,31.978069 C 22.160133,31.978069 26.997745,27.140456 26.997745,27.140456 C 18.528582,18.264221 13.291696,25.230495 11.500037,31.436501 z"
             style="fill:#404040;"/>
          </a>
         </g>
        </svg>
</svg>
