<?xml version="1.0" encoding="UTF-8" standalone="no"?>
<!DOCTYPE svg PUBLIC "-//W3C//DTD SVG 1.1//EN"
 "http://www.w3.org/Graphics/SVG/1.1/DTD/svg11.dtd">
<!-- Generated by graphviz version 2.43.0 (0)
 -->
<!-- Title: database/inc/database_interface.hpp Pages: 1 -->
<svg width="687pt" height="173pt"
 viewBox="0.00 0.00 686.50 173.00" xmlns="http://www.w3.org/2000/svg" xmlns:xlink="http://www.w3.org/1999/xlink">
<g id="graph0" class="graph" transform="scale(1 1) rotate(0) translate(4 169)">
<title>database/inc/database_interface.hpp</title>
<polygon fill="white" stroke="transparent" points="-4,4 -4,-169 682.5,-169 682.5,4 -4,4"/>
<!-- Node1 -->
<g id="node1" class="node">
<title>Node1</title>
<g id="a_node1"><a xlink:title="Abstract interface for database operations.">
<polygon fill="#bfbfbf" stroke="black" points="354.5,-134.5 354.5,-164.5 481.5,-164.5 481.5,-134.5 354.5,-134.5"/>
<text text-anchor="start" x="362.5" y="-152.5" font-family="Helvetica,sans-Serif" font-size="10.00">database/inc/database</text>
<text text-anchor="middle" x="418" y="-141.5" font-family="Helvetica,sans-Serif" font-size="10.00">_interface.hpp</text>
</a>
</g>
</g>
<!-- Node2 -->
<g id="node2" class="node">
<title>Node2</title>
<g id="a_node2"><a xlink:href="redis__database_8hpp.html" target="_top" xlink:title="Implements RedisDatabaseHandler for Redis&#45;based database operations.">
<polygon fill="white" stroke="black" points="325,-67.5 325,-97.5 431,-97.5 431,-67.5 325,-67.5"/>
<text text-anchor="start" x="333" y="-85.5" font-family="Helvetica,sans-Serif" font-size="10.00">database/inc/redis</text>
<text text-anchor="middle" x="378" y="-74.5" font-family="Helvetica,sans-Serif" font-size="10.00">_database.hpp</text>
</a>
</g>
</g>
<!-- Node1&#45;&gt;Node2 -->
<g id="edge1" class="edge">
<title>Node1&#45;&gt;Node2</title>
<path fill="none" stroke="midnightblue" d="M404.07,-125.87C398.28,-116.46 391.74,-105.83 386.66,-97.58"/>
<polygon fill="midnightblue" stroke="midnightblue" points="401.1,-127.71 409.32,-134.4 407.06,-124.05 401.1,-127.71"/>
</g>
<!-- Node4 -->
<g id="node4" class="node">
<title>Node4</title>
<g id="a_node4"><a xlink:href="json__request__executor_8cpp.html" target="_top" xlink:title=" ">
<polygon fill="white" stroke="black" points="0,-0.5 0,-30.5 142,-30.5 142,-0.5 0,-0.5"/>
<text text-anchor="start" x="8" y="-18.5" font-family="Helvetica,sans-Serif" font-size="10.00">executor/src/json_request</text>
<text text-anchor="middle" x="71" y="-7.5" font-family="Helvetica,sans-Serif" font-size="10.00">_executor.cpp</text>
</a>
</g>
</g>
<!-- Node1&#45;&gt;Node4 -->
<g id="edge7" class="edge">
<title>Node1&#45;&gt;Node4</title>
<path fill="none" stroke="midnightblue" d="M371.78,-130.92C302.14,-104.43 171.69,-54.8 107.95,-30.56"/>
<polygon fill="midnightblue" stroke="midnightblue" points="370.6,-134.21 381.19,-134.5 373.09,-127.67 370.6,-134.21"/>
</g>
<!-- Node5 -->
<g id="node5" class="node">
<title>Node5</title>
<g id="a_node5"><a xlink:href="docker__commands_8cpp.html" target="_top" xlink:title=" ">
<polygon fill="white" stroke="black" points="438.5,-0.5 438.5,-30.5 545.5,-30.5 545.5,-0.5 438.5,-0.5"/>
<text text-anchor="start" x="446.5" y="-18.5" font-family="Helvetica,sans-Serif" font-size="10.00">runtime/src/docker</text>
<text text-anchor="middle" x="492" y="-7.5" font-family="Helvetica,sans-Serif" font-size="10.00">_commands.cpp</text>
</a>
</g>
</g>
<!-- Node1&#45;&gt;Node5 -->
<g id="edge8" class="edge">
<title>Node1&#45;&gt;Node5</title>
<path fill="none" stroke="midnightblue" d="M430.91,-125.48C446.27,-98.07 471.43,-53.19 484.14,-30.52"/>
<polygon fill="midnightblue" stroke="midnightblue" points="427.76,-123.94 425.92,-134.37 433.86,-127.36 427.76,-123.94"/>
</g>
<!-- Node6 -->
<g id="node6" class="node">
<title>Node6</title>
<g id="a_node6"><a xlink:href="podman__commands_8cpp.html" target="_top" xlink:title=" ">
<polygon fill="white" stroke="black" points="563.5,-0.5 563.5,-30.5 678.5,-30.5 678.5,-0.5 563.5,-0.5"/>
<text text-anchor="start" x="571.5" y="-18.5" font-family="Helvetica,sans-Serif" font-size="10.00">runtime/src/podman</text>
<text text-anchor="middle" x="621" y="-7.5" font-family="Helvetica,sans-Serif" font-size="10.00">_commands.cpp</text>
</a>
</g>
</g>
<!-- Node1&#45;&gt;Node6 -->
<g id="edge9" class="edge">
<title>Node1&#45;&gt;Node6</title>
<path fill="none" stroke="midnightblue" d="M448.31,-128.79C489.76,-101.84 563.14,-54.13 599.43,-30.52"/>
<polygon fill="midnightblue" stroke="midnightblue" points="446.2,-125.99 439.72,-134.37 450.02,-131.86 446.2,-125.99"/>
</g>
<!-- Node3 -->
<g id="node3" class="node">
<title>Node3</title>
<g id="a_node3"><a xlink:href="redis__database_8cpp.html" target="_top" xlink:title=" ">
<polygon fill="white" stroke="black" points="314,-0.5 314,-30.5 420,-30.5 420,-0.5 314,-0.5"/>
<text text-anchor="start" x="322" y="-18.5" font-family="Helvetica,sans-Serif" font-size="10.00">database/src/redis</text>
<text text-anchor="middle" x="367" y="-7.5" font-family="Helvetica,sans-Serif" font-size="10.00">_database.cpp</text>
</a>
</g>
</g>
<!-- Node2&#45;&gt;Node3 -->
<g id="edge2" class="edge">
<title>Node2&#45;&gt;Node3</title>
<path fill="none" stroke="midnightblue" d="M373.92,-57.4C372.39,-48.37 370.71,-38.41 369.38,-30.58"/>
<polygon fill="midnightblue" stroke="midnightblue" points="370.49,-58.12 375.61,-67.4 377.4,-56.95 370.49,-58.12"/>
</g>
<!-- Node2&#45;&gt;Node4 -->
<g id="edge3" class="edge">
<title>Node2&#45;&gt;Node4</title>
<path fill="none" stroke="midnightblue" d="M314.82,-68.12C263.05,-57.16 190,-41.7 137.38,-30.55"/>
<polygon fill="midnightblue" stroke="midnightblue" points="314.37,-71.6 324.88,-70.25 315.82,-64.76 314.37,-71.6"/>
</g>
<!-- Node2&#45;&gt;Node5 -->
<g id="edge4" class="edge">
<title>Node2&#45;&gt;Node5</title>
<path fill="none" stroke="midnightblue" d="M411.68,-62.3C429.52,-52.12 451.04,-39.85 467.31,-30.58"/>
<polygon fill="midnightblue" stroke="midnightblue" points="409.69,-59.4 402.74,-67.4 413.16,-65.48 409.69,-59.4"/>
</g>
<!-- Node2&#45;&gt;Node6 -->
<g id="edge5" class="edge">
<title>Node2&#45;&gt;Node6</title>
<path fill="none" stroke="midnightblue" d="M440.25,-64.85C479.86,-54.25 530.61,-40.68 568.25,-30.61"/>
<polygon fill="midnightblue" stroke="midnightblue" points="439.18,-61.51 430.43,-67.48 440.99,-68.27 439.18,-61.51"/>
</g>
<!-- Node7 -->
<g id="node7" class="node">
<title>Node7</title>
<g id="a_node7"><a xlink:href="init__handler_8cpp.html" target="_top" xlink:title=" ">
<polygon fill="white" stroke="black" points="160,-6 160,-25 296,-25 296,-6 160,-6"/>
<text text-anchor="middle" x="228" y="-13" font-family="Helvetica,sans-Serif" font-size="10.00">utils/src/init_handler.cpp</text>
</a>
</g>
</g>
<!-- Node2&#45;&gt;Node7 -->
<g id="edge6" class="edge">
<title>Node2&#45;&gt;Node7</title>
<path fill="none" stroke="midnightblue" d="M335.99,-63.3C307.06,-50.76 269.96,-34.68 247.63,-25.01"/>
<polygon fill="midnightblue" stroke="midnightblue" points="334.89,-66.63 345.45,-67.4 337.67,-60.21 334.89,-66.63"/>
</g>
</g>
</svg>
