<?xml version="1.0" encoding="UTF-8" standalone="no"?>
<!DOCTYPE svg PUBLIC "-//W3C//DTD SVG 1.1//EN"
 "http://www.w3.org/Graphics/SVG/1.1/DTD/svg11.dtd">
<!-- Generated by graphviz version 2.43.0 (0)
 -->
<!-- Title: database/inc/database_interface.hpp Pages: 1 -->
<svg width="696pt" height="173pt"
 viewBox="0.00 0.00 695.50 173.00" xmlns="http://www.w3.org/2000/svg" xmlns:xlink="http://www.w3.org/1999/xlink">
<g id="graph0" class="graph" transform="scale(1 1) rotate(0) translate(4 169)">
<title>database/inc/database_interface.hpp</title>
<polygon fill="white" stroke="transparent" points="-4,4 -4,-169 691.5,-169 691.5,4 -4,4"/>
<!-- Node1 -->
<g id="node1" class="node">
<title>Node1</title>
<g id="a_node1"><a xlink:title="Abstract interface for database operations.">
<polygon fill="#bfbfbf" stroke="black" points="320.5,-134.5 320.5,-164.5 447.5,-164.5 447.5,-134.5 320.5,-134.5"/>
<text text-anchor="start" x="328.5" y="-152.5" font-family="Helvetica,sans-Serif" font-size="10.00">database/inc/database</text>
<text text-anchor="middle" x="384" y="-141.5" font-family="Helvetica,sans-Serif" font-size="10.00">_interface.hpp</text>
</a>
</g>
</g>
<!-- Node2 -->
<g id="node2" class="node">
<title>Node2</title>
<g id="a_node2"><a xlink:href="container__service_8cpp.html" target="_top" xlink:title="Implements the ContainerServiceHandler class for business logic related to containers.">
<polygon fill="white" stroke="black" points="0,-0.5 0,-30.5 104,-30.5 104,-0.5 0,-0.5"/>
<text text-anchor="start" x="8" y="-18.5" font-family="Helvetica,sans-Serif" font-size="10.00">core/src/container</text>
<text text-anchor="middle" x="52" y="-7.5" font-family="Helvetica,sans-Serif" font-size="10.00">_service.cpp</text>
</a>
</g>
</g>
<!-- Node1&#45;&gt;Node2 -->
<g id="edge1" class="edge">
<title>Node1&#45;&gt;Node2</title>
<path fill="none" stroke="midnightblue" d="M339.37,-130.76C272.64,-104.23 148.21,-54.75 87.35,-30.56"/>
<polygon fill="midnightblue" stroke="midnightblue" points="338.2,-134.06 348.78,-134.5 340.79,-127.55 338.2,-134.06"/>
</g>
<!-- Node3 -->
<g id="node3" class="node">
<title>Node3</title>
<g id="a_node3"><a xlink:href="redis__database_8hpp.html" target="_top" xlink:title="Declares the RedisDatabaseHandler class for Redis&#45;based database operations.">
<polygon fill="white" stroke="black" points="291,-67.5 291,-97.5 397,-97.5 397,-67.5 291,-67.5"/>
<text text-anchor="start" x="299" y="-85.5" font-family="Helvetica,sans-Serif" font-size="10.00">database/inc/redis</text>
<text text-anchor="middle" x="344" y="-74.5" font-family="Helvetica,sans-Serif" font-size="10.00">_database.hpp</text>
</a>
</g>
</g>
<!-- Node1&#45;&gt;Node3 -->
<g id="edge2" class="edge">
<title>Node1&#45;&gt;Node3</title>
<path fill="none" stroke="midnightblue" d="M370.07,-125.87C364.28,-116.46 357.74,-105.83 352.66,-97.58"/>
<polygon fill="midnightblue" stroke="midnightblue" points="367.1,-127.71 375.32,-134.4 373.06,-124.05 367.1,-127.71"/>
</g>
<!-- Node5 -->
<g id="node5" class="node">
<title>Node5</title>
<g id="a_node5"><a xlink:href="json__request__executor_8cpp.html" target="_top" xlink:title="Implements the JsonRequestExecutorHandler class for executing JSON&#45;based requests.">
<polygon fill="white" stroke="black" points="400,-0.5 400,-30.5 542,-30.5 542,-0.5 400,-0.5"/>
<text text-anchor="start" x="408" y="-18.5" font-family="Helvetica,sans-Serif" font-size="10.00">executor/src/json_request</text>
<text text-anchor="middle" x="471" y="-7.5" font-family="Helvetica,sans-Serif" font-size="10.00">_executor.cpp</text>
</a>
</g>
</g>
<!-- Node1&#45;&gt;Node5 -->
<g id="edge8" class="edge">
<title>Node1&#45;&gt;Node5</title>
<path fill="none" stroke="midnightblue" d="M398.94,-125.83C416.98,-98.47 446.76,-53.28 461.76,-30.52"/>
<polygon fill="midnightblue" stroke="midnightblue" points="395.89,-124.1 393.31,-134.37 401.74,-127.95 395.89,-124.1"/>
</g>
<!-- Node6 -->
<g id="node6" class="node">
<title>Node6</title>
<g id="a_node6"><a xlink:href="protobuf__request__executor_8cpp.html" target="_top" xlink:title="Implements the ProtoRequestExecutorHandler class for handling Protobuf&#45;based requests.">
<polygon fill="white" stroke="black" points="560.5,-0.5 560.5,-30.5 687.5,-30.5 687.5,-0.5 560.5,-0.5"/>
<text text-anchor="start" x="568.5" y="-18.5" font-family="Helvetica,sans-Serif" font-size="10.00">executor/src/protobuf</text>
<text text-anchor="middle" x="624" y="-7.5" font-family="Helvetica,sans-Serif" font-size="10.00">_request_executor.cpp</text>
</a>
</g>
</g>
<!-- Node1&#45;&gt;Node6 -->
<g id="edge9" class="edge">
<title>Node1&#45;&gt;Node6</title>
<path fill="none" stroke="midnightblue" d="M418.61,-129.47C467.39,-102.64 555.23,-54.32 598.5,-30.52"/>
<polygon fill="midnightblue" stroke="midnightblue" points="416.76,-126.49 409.68,-134.37 420.13,-132.62 416.76,-126.49"/>
</g>
<!-- Node3&#45;&gt;Node2 -->
<g id="edge3" class="edge">
<title>Node3&#45;&gt;Node2</title>
<path fill="none" stroke="midnightblue" d="M280.8,-68.01C234.33,-58.01 169.68,-43.93 113,-31 110.13,-30.35 107.2,-29.67 104.23,-28.98"/>
<polygon fill="midnightblue" stroke="midnightblue" points="280.21,-71.46 290.72,-70.14 281.68,-64.62 280.21,-71.46"/>
</g>
<!-- Node4 -->
<g id="node4" class="node">
<title>Node4</title>
<g id="a_node4"><a xlink:href="redis__database_8cpp.html" target="_top" xlink:title="Implements RedisDatabaseHandler for Redis&#45;based database operations.">
<polygon fill="white" stroke="black" points="276,-0.5 276,-30.5 382,-30.5 382,-0.5 276,-0.5"/>
<text text-anchor="start" x="284" y="-18.5" font-family="Helvetica,sans-Serif" font-size="10.00">database/src/redis</text>
<text text-anchor="middle" x="329" y="-7.5" font-family="Helvetica,sans-Serif" font-size="10.00">_database.cpp</text>
</a>
</g>
</g>
<!-- Node3&#45;&gt;Node4 -->
<g id="edge4" class="edge">
<title>Node3&#45;&gt;Node4</title>
<path fill="none" stroke="midnightblue" d="M338.44,-57.4C336.35,-48.37 334.06,-38.41 332.25,-30.58"/>
<polygon fill="midnightblue" stroke="midnightblue" points="335.09,-58.44 340.75,-67.4 341.91,-56.87 335.09,-58.44"/>
</g>
<!-- Node3&#45;&gt;Node5 -->
<g id="edge5" class="edge">
<title>Node3&#45;&gt;Node5</title>
<path fill="none" stroke="midnightblue" d="M380.7,-62.71C400.73,-52.46 425.12,-39.98 443.5,-30.58"/>
<polygon fill="midnightblue" stroke="midnightblue" points="378.86,-59.72 371.56,-67.4 382.05,-65.96 378.86,-59.72"/>
</g>
<!-- Node3&#45;&gt;Node6 -->
<g id="edge6" class="edge">
<title>Node3&#45;&gt;Node6</title>
<path fill="none" stroke="midnightblue" d="M407.35,-66.79C454.15,-55.93 517.49,-41.23 563.58,-30.53"/>
<polygon fill="midnightblue" stroke="midnightblue" points="406.27,-63.45 397.32,-69.12 407.86,-70.27 406.27,-63.45"/>
</g>
<!-- Node7 -->
<g id="node7" class="node">
<title>Node7</title>
<g id="a_node7"><a xlink:href="init__handler_8cpp.html" target="_top" xlink:title="Implements project&#45;wide initialization functions.">
<polygon fill="white" stroke="black" points="122,-6 122,-25 258,-25 258,-6 122,-6"/>
<text text-anchor="middle" x="190" y="-13" font-family="Helvetica,sans-Serif" font-size="10.00">utils/src/init_handler.cpp</text>
</a>
</g>
</g>
<!-- Node3&#45;&gt;Node7 -->
<g id="edge7" class="edge">
<title>Node3&#45;&gt;Node7</title>
<path fill="none" stroke="midnightblue" d="M301.26,-63.46C271.5,-50.9 233.18,-34.72 210.16,-25.01"/>
<polygon fill="midnightblue" stroke="midnightblue" points="300.01,-66.73 310.58,-67.4 302.73,-60.28 300.01,-66.73"/>
</g>
</g>
</svg>
