<?xml version="1.0" encoding="UTF-8" standalone="no"?>
<!DOCTYPE svg PUBLIC "-//W3C//DTD SVG 1.1//EN"
 "http://www.w3.org/Graphics/SVG/1.1/DTD/svg11.dtd">
<!-- Generated by graphviz version 2.43.0 (0)
 -->
<!-- Title: database/inc/database_interface.hpp Pages: 1 -->
<svg width="1202pt" height="240pt"
 viewBox="0.00 0.00 1201.91 240.00" xmlns="http://www.w3.org/2000/svg" xmlns:xlink="http://www.w3.org/1999/xlink">
<g id="graph0" class="graph" transform="scale(1 1) rotate(0) translate(4 236)">
<title>database/inc/database_interface.hpp</title>
<polygon fill="white" stroke="transparent" points="-4,4 -4,-236 1197.91,-236 1197.91,4 -4,4"/>
<!-- Node1 -->
<g id="node1" class="node">
<title>Node1</title>
<g id="a_node1"><a xlink:title="Abstract interface for database operations.">
<polygon fill="#bfbfbf" stroke="black" points="555.59,-201.5 555.59,-231.5 682.59,-231.5 682.59,-201.5 555.59,-201.5"/>
<text text-anchor="start" x="563.59" y="-219.5" font-family="Helvetica,sans-Serif" font-size="10.00">database/inc/database</text>
<text text-anchor="middle" x="619.09" y="-208.5" font-family="Helvetica,sans-Serif" font-size="10.00">_interface.hpp</text>
</a>
</g>
</g>
<!-- Node2 -->
<g id="node2" class="node">
<title>Node2</title>
<g id="a_node2"><a xlink:href="container__service_8hpp.html" target="_top" xlink:title="Declares the ContainerServiceHandler class for business logic related to containers.">
<polygon fill="white" stroke="black" points="616.09,-134.5 616.09,-164.5 720.09,-164.5 720.09,-134.5 616.09,-134.5"/>
<text text-anchor="start" x="624.09" y="-152.5" font-family="Helvetica,sans-Serif" font-size="10.00">core/inc/container</text>
<text text-anchor="middle" x="668.09" y="-141.5" font-family="Helvetica,sans-Serif" font-size="10.00">_service.hpp</text>
</a>
</g>
</g>
<!-- Node1&#45;&gt;Node2 -->
<g id="edge1" class="edge">
<title>Node1&#45;&gt;Node2</title>
<path fill="none" stroke="midnightblue" d="M635.93,-193.16C643.07,-183.68 651.19,-172.92 657.47,-164.58"/>
<polygon fill="midnightblue" stroke="midnightblue" points="632.94,-191.3 629.72,-201.4 638.53,-195.52 632.94,-191.3"/>
</g>
<!-- Node3 -->
<g id="node3" class="node">
<title>Node3</title>
<g id="a_node3"><a xlink:href="container__service_8cpp.html" target="_top" xlink:title="Implements the ContainerServiceHandler class for business logic related to containers.">
<polygon fill="white" stroke="black" points="343.09,-67.5 343.09,-97.5 447.09,-97.5 447.09,-67.5 343.09,-67.5"/>
<text text-anchor="start" x="351.09" y="-85.5" font-family="Helvetica,sans-Serif" font-size="10.00">core/src/container</text>
<text text-anchor="middle" x="395.09" y="-74.5" font-family="Helvetica,sans-Serif" font-size="10.00">_service.cpp</text>
</a>
</g>
</g>
<!-- Node1&#45;&gt;Node3 -->
<g id="edge12" class="edge">
<title>Node1&#45;&gt;Node3</title>
<path fill="none" stroke="midnightblue" d="M586.22,-196.13C540.58,-169.24 459.1,-121.22 418.89,-97.52"/>
<polygon fill="midnightblue" stroke="midnightblue" points="584.72,-199.31 595.11,-201.37 588.28,-193.28 584.72,-199.31"/>
</g>
<!-- Node4 -->
<g id="node4" class="node">
<title>Node4</title>
<g id="a_node4"><a xlink:href="json__request__executor_8hpp.html" target="_top" xlink:title="Declares the JsonRequestExecutorHandler class for executing JSON&#45;based requests.">
<polygon fill="white" stroke="black" points="503.09,-67.5 503.09,-97.5 645.09,-97.5 645.09,-67.5 503.09,-67.5"/>
<text text-anchor="start" x="511.09" y="-85.5" font-family="Helvetica,sans-Serif" font-size="10.00">executor/inc/json_request</text>
<text text-anchor="middle" x="574.09" y="-74.5" font-family="Helvetica,sans-Serif" font-size="10.00">_executor.hpp</text>
</a>
</g>
</g>
<!-- Node1&#45;&gt;Node4 -->
<g id="edge21" class="edge">
<title>Node1&#45;&gt;Node4</title>
<path fill="none" stroke="midnightblue" d="M610.99,-191.75C601.63,-164.29 586.52,-119.99 578.87,-97.52"/>
<polygon fill="midnightblue" stroke="midnightblue" points="607.73,-193.04 614.27,-201.37 614.36,-190.78 607.73,-193.04"/>
</g>
<!-- Node5 -->
<g id="node5" class="node">
<title>Node5</title>
<g id="a_node5"><a xlink:href="json__request__executor_8cpp.html" target="_top" xlink:title="JSON request executor for Container Manager.">
<polygon fill="white" stroke="black" points="205.09,-0.5 205.09,-30.5 347.09,-30.5 347.09,-0.5 205.09,-0.5"/>
<text text-anchor="start" x="213.09" y="-18.5" font-family="Helvetica,sans-Serif" font-size="10.00">executor/src/json_request</text>
<text text-anchor="middle" x="276.09" y="-7.5" font-family="Helvetica,sans-Serif" font-size="10.00">_executor.cpp</text>
</a>
</g>
</g>
<!-- Node1&#45;&gt;Node5 -->
<g id="edge23" class="edge">
<title>Node1&#45;&gt;Node5</title>
<path fill="none" stroke="midnightblue" d="M545.46,-214.2C394.96,-209.65 61.53,-189.27 6.09,-98 -1.07,-86.22 -2.72,-77.6 6.09,-67 30.91,-37.1 133.59,-24.8 204.91,-19.81"/>
<polygon fill="midnightblue" stroke="midnightblue" points="545.45,-217.7 555.54,-214.49 545.65,-210.7 545.45,-217.7"/>
</g>
<!-- Node7 -->
<g id="node7" class="node">
<title>Node7</title>
<g id="a_node7"><a xlink:href="protobuf__request__executor_8hpp.html" target="_top" xlink:title="Declares the ProtoRequestExecutorHandler class for handling Protobuf&#45;based requests.">
<polygon fill="white" stroke="black" points="861.09,-67.5 861.09,-97.5 989.09,-97.5 989.09,-67.5 861.09,-67.5"/>
<text text-anchor="start" x="869.09" y="-85.5" font-family="Helvetica,sans-Serif" font-size="10.00">executor/inc/protobuf</text>
<text text-anchor="middle" x="925.09" y="-74.5" font-family="Helvetica,sans-Serif" font-size="10.00">_request_executor.hpp</text>
</a>
</g>
</g>
<!-- Node1&#45;&gt;Node7 -->
<g id="edge22" class="edge">
<title>Node1&#45;&gt;Node7</title>
<path fill="none" stroke="midnightblue" d="M670.98,-198.11C697.33,-188.91 729.69,-177.05 758.09,-165 808.72,-143.52 865.99,-114.5 898.59,-97.51"/>
<polygon fill="midnightblue" stroke="midnightblue" points="669.5,-194.92 661.2,-201.5 671.79,-201.53 669.5,-194.92"/>
</g>
<!-- Node8 -->
<g id="node8" class="node">
<title>Node8</title>
<g id="a_node8"><a xlink:href="protobuf__request__executor_8cpp.html" target="_top" xlink:title="Protocol Buffers request executor for Container Manager.">
<polygon fill="white" stroke="black" points="861.59,-0.5 861.59,-30.5 988.59,-30.5 988.59,-0.5 861.59,-0.5"/>
<text text-anchor="start" x="869.59" y="-18.5" font-family="Helvetica,sans-Serif" font-size="10.00">executor/src/protobuf</text>
<text text-anchor="middle" x="925.09" y="-7.5" font-family="Helvetica,sans-Serif" font-size="10.00">_request_executor.cpp</text>
</a>
</g>
</g>
<!-- Node1&#45;&gt;Node8 -->
<g id="edge24" class="edge">
<title>Node1&#45;&gt;Node8</title>
<path fill="none" stroke="midnightblue" d="M692.76,-212.17C807.13,-206.25 1021.67,-191.9 1093.09,-165 1141.44,-146.79 1164.31,-143.87 1188.09,-98 1194.43,-85.77 1196.86,-77.62 1188.09,-67 1163.28,-36.98 1058.35,-24.63 988.76,-19.67"/>
<polygon fill="midnightblue" stroke="midnightblue" points="692.5,-208.68 682.69,-212.69 692.85,-215.67 692.5,-208.68"/>
</g>
<!-- Node9 -->
<g id="node9" class="node">
<title>Node9</title>
<g id="a_node9"><a xlink:href="container__service__test_8cpp.html" target="_top" xlink:title=" ">
<polygon fill="white" stroke="black" points="739.09,-67.5 739.09,-97.5 843.09,-97.5 843.09,-67.5 739.09,-67.5"/>
<text text-anchor="start" x="747.09" y="-85.5" font-family="Helvetica,sans-Serif" font-size="10.00">unitTest/container</text>
<text text-anchor="middle" x="791.09" y="-74.5" font-family="Helvetica,sans-Serif" font-size="10.00">_service_test.cpp</text>
</a>
</g>
</g>
<!-- Node1&#45;&gt;Node9 -->
<g id="edge25" class="edge">
<title>Node1&#45;&gt;Node9</title>
<path fill="none" stroke="midnightblue" d="M671.34,-197.68C690.68,-189.56 712.03,-178.66 729.09,-165 753.09,-145.77 772.96,-115.31 783.33,-97.58"/>
<polygon fill="midnightblue" stroke="midnightblue" points="670,-194.45 662.04,-201.44 672.62,-200.94 670,-194.45"/>
</g>
<!-- Node10 -->
<g id="node10" class="node">
<title>Node10</title>
<g id="a_node10"><a xlink:href="embedded__database_8hpp.html" target="_top" xlink:title="Declares the EmbeddedDatabaseHandler class for a lightweight, fixed&#45;size in&#45;memory database.">
<polygon fill="white" stroke="black" points="950.09,-134.5 950.09,-164.5 1084.09,-164.5 1084.09,-134.5 950.09,-134.5"/>
<text text-anchor="start" x="958.09" y="-152.5" font-family="Helvetica,sans-Serif" font-size="10.00">database/inc/embedded</text>
<text text-anchor="middle" x="1017.09" y="-141.5" font-family="Helvetica,sans-Serif" font-size="10.00">_database.hpp</text>
</a>
</g>
</g>
<!-- Node1&#45;&gt;Node10 -->
<g id="edge13" class="edge">
<title>Node1&#45;&gt;Node10</title>
<path fill="none" stroke="midnightblue" d="M692.71,-203.48C766.32,-191.45 878.54,-173.13 949.82,-161.49"/>
<polygon fill="midnightblue" stroke="midnightblue" points="691.9,-200.06 682.59,-205.13 693.02,-206.97 691.9,-200.06"/>
</g>
<!-- Node12 -->
<g id="node12" class="node">
<title>Node12</title>
<g id="a_node12"><a xlink:href="redis__database_8hpp.html" target="_top" xlink:title="Declares the RedisDatabaseHandler class for Redis&#45;based database operations.">
<polygon fill="white" stroke="black" points="144.09,-134.5 144.09,-164.5 250.09,-164.5 250.09,-134.5 144.09,-134.5"/>
<text text-anchor="start" x="152.09" y="-152.5" font-family="Helvetica,sans-Serif" font-size="10.00">database/inc/redis</text>
<text text-anchor="middle" x="197.09" y="-141.5" font-family="Helvetica,sans-Serif" font-size="10.00">_database.hpp</text>
</a>
</g>
</g>
<!-- Node1&#45;&gt;Node12 -->
<g id="edge16" class="edge">
<title>Node1&#45;&gt;Node12</title>
<path fill="none" stroke="midnightblue" d="M545.38,-207.14C472.4,-198.39 357.59,-183.39 259.09,-165 256.15,-164.45 253.15,-163.86 250.12,-163.24"/>
<polygon fill="midnightblue" stroke="midnightblue" points="545.06,-210.62 555.4,-208.33 545.88,-203.67 545.06,-210.62"/>
</g>
<!-- Node15 -->
<g id="node15" class="node">
<title>Node15</title>
<g id="a_node15"><a xlink:href="init__handler_8hpp.html" target="_top" xlink:title="Declares project&#45;wide initialization functions for the Container Manager application.">
<polygon fill="white" stroke="black" points="268.59,-140 268.59,-159 405.59,-159 405.59,-140 268.59,-140"/>
<text text-anchor="middle" x="337.09" y="-147" font-family="Helvetica,sans-Serif" font-size="10.00">utils/inc/init_handler.hpp</text>
</a>
</g>
</g>
<!-- Node1&#45;&gt;Node15 -->
<g id="edge26" class="edge">
<title>Node1&#45;&gt;Node15</title>
<path fill="none" stroke="midnightblue" d="M548.49,-199.23C493.12,-186.47 418.27,-169.21 374.09,-159.03"/>
<polygon fill="midnightblue" stroke="midnightblue" points="547.71,-202.64 558.24,-201.48 549.28,-195.82 547.71,-202.64"/>
</g>
<!-- Node2&#45;&gt;Node3 -->
<g id="edge2" class="edge">
<title>Node2&#45;&gt;Node3</title>
<path fill="none" stroke="midnightblue" d="M605.82,-133.68C557.89,-122.26 492.41,-106.67 447.22,-95.91"/>
<polygon fill="midnightblue" stroke="midnightblue" points="605.23,-137.13 615.77,-136.04 606.85,-130.32 605.23,-137.13"/>
</g>
<!-- Node2&#45;&gt;Node4 -->
<g id="edge3" class="edge">
<title>Node2&#45;&gt;Node4</title>
<path fill="none" stroke="midnightblue" d="M639.09,-128.45C624.63,-118.45 607.49,-106.6 594.44,-97.58"/>
<polygon fill="midnightblue" stroke="midnightblue" points="637.47,-131.59 647.69,-134.4 641.45,-125.83 637.47,-131.59"/>
</g>
<!-- Node2&#45;&gt;Node5 -->
<g id="edge8" class="edge">
<title>Node2&#45;&gt;Node5</title>
<path fill="none" stroke="midnightblue" d="M605.87,-136.83C571.61,-128.86 529.07,-116.36 494.09,-98 474.79,-87.87 475.43,-77.04 456.09,-67 422.24,-49.43 381.54,-37.35 347.42,-29.42"/>
<polygon fill="midnightblue" stroke="midnightblue" points="605.23,-140.28 615.76,-139.06 606.77,-133.45 605.23,-140.28"/>
</g>
<!-- Node6 -->
<g id="node6" class="node">
<title>Node6</title>
<g id="a_node6"><a xlink:href="main_8cpp.html" target="_top" xlink:title="Entry point for the Container Manager service.">
<polygon fill="white" stroke="black" points="592.09,-6 592.09,-25 654.09,-25 654.09,-6 592.09,-6"/>
<text text-anchor="middle" x="623.09" y="-13" font-family="Helvetica,sans-Serif" font-size="10.00">main.cpp</text>
</a>
</g>
</g>
<!-- Node2&#45;&gt;Node6 -->
<g id="edge10" class="edge">
<title>Node2&#45;&gt;Node6</title>
<path fill="none" stroke="midnightblue" d="M666.35,-124.27C664.58,-107.71 661.06,-85.51 654.09,-67 648.14,-51.21 637.09,-34.93 629.91,-25.26"/>
<polygon fill="midnightblue" stroke="midnightblue" points="662.87,-124.6 667.27,-134.23 669.84,-123.95 662.87,-124.6"/>
</g>
<!-- Node2&#45;&gt;Node7 -->
<g id="edge6" class="edge">
<title>Node2&#45;&gt;Node7</title>
<path fill="none" stroke="midnightblue" d="M730.05,-132.83C772.58,-122.07 828.53,-107.92 869.6,-97.53"/>
<polygon fill="midnightblue" stroke="midnightblue" points="728.93,-129.5 720.09,-135.35 730.65,-136.29 728.93,-129.5"/>
</g>
<!-- Node2&#45;&gt;Node8 -->
<g id="edge9" class="edge">
<title>Node2&#45;&gt;Node8</title>
<path fill="none" stroke="midnightblue" d="M679.96,-125.39C690.64,-106.88 708.03,-81.67 730.09,-67 769.25,-40.95 821.09,-28.33 861.47,-22.23"/>
<polygon fill="midnightblue" stroke="midnightblue" points="676.77,-123.92 675,-134.36 682.9,-127.3 676.77,-123.92"/>
</g>
<!-- Node2&#45;&gt;Node9 -->
<g id="edge11" class="edge">
<title>Node2&#45;&gt;Node9</title>
<path fill="none" stroke="midnightblue" d="M703.63,-129.71C723.03,-119.46 746.65,-106.98 764.45,-97.58"/>
<polygon fill="midnightblue" stroke="midnightblue" points="701.98,-126.63 694.78,-134.4 705.25,-132.82 701.98,-126.63"/>
</g>
<!-- Node4&#45;&gt;Node5 -->
<g id="edge4" class="edge">
<title>Node4&#45;&gt;Node5</title>
<path fill="none" stroke="midnightblue" d="M499.89,-65.32C450.91,-54.63 387.38,-40.77 340.52,-30.55"/>
<polygon fill="midnightblue" stroke="midnightblue" points="499.28,-68.76 509.79,-67.48 500.77,-61.93 499.28,-68.76"/>
</g>
<!-- Node4&#45;&gt;Node6 -->
<g id="edge5" class="edge">
<title>Node4&#45;&gt;Node6</title>
<path fill="none" stroke="midnightblue" d="M590.81,-59.32C599.64,-47.6 609.98,-33.88 616.53,-25.19"/>
<polygon fill="midnightblue" stroke="midnightblue" points="587.94,-57.3 584.72,-67.4 593.53,-61.52 587.94,-57.3"/>
</g>
<!-- Node7&#45;&gt;Node8 -->
<g id="edge7" class="edge">
<title>Node7&#45;&gt;Node8</title>
<path fill="none" stroke="midnightblue" d="M925.09,-57.11C925.09,-48.15 925.09,-38.32 925.09,-30.58"/>
<polygon fill="midnightblue" stroke="midnightblue" points="921.59,-57.4 925.09,-67.4 928.59,-57.4 921.59,-57.4"/>
</g>
<!-- Node10&#45;&gt;Node6 -->
<g id="edge15" class="edge">
<title>Node10&#45;&gt;Node6</title>
<path fill="none" stroke="midnightblue" d="M1018.27,-124.3C1017.77,-105.87 1013.81,-81.3 998.09,-67 972.72,-43.94 739.37,-24.91 654.1,-18.67"/>
<polygon fill="midnightblue" stroke="midnightblue" points="1014.77,-124.31 1018.23,-134.32 1021.77,-124.34 1014.77,-124.31"/>
</g>
<!-- Node11 -->
<g id="node11" class="node">
<title>Node11</title>
<g id="a_node11"><a xlink:href="embedded__database_8cpp.html" target="_top" xlink:title="Implements the EmbeddedDatabaseHandler class for a lightweight, fixed&#45;size in&#45;memory database.">
<polygon fill="white" stroke="black" points="1045.09,-67.5 1045.09,-97.5 1179.09,-97.5 1179.09,-67.5 1045.09,-67.5"/>
<text text-anchor="start" x="1053.09" y="-85.5" font-family="Helvetica,sans-Serif" font-size="10.00">database/src/embedded</text>
<text text-anchor="middle" x="1112.09" y="-74.5" font-family="Helvetica,sans-Serif" font-size="10.00">_database.cpp</text>
</a>
</g>
</g>
<!-- Node10&#45;&gt;Node11 -->
<g id="edge14" class="edge">
<title>Node10&#45;&gt;Node11</title>
<path fill="none" stroke="midnightblue" d="M1045.98,-128.73C1060.68,-118.68 1078.2,-106.68 1091.51,-97.58"/>
<polygon fill="midnightblue" stroke="midnightblue" points="1043.98,-125.86 1037.7,-134.4 1047.93,-131.64 1043.98,-125.86"/>
</g>
<!-- Node12&#45;&gt;Node3 -->
<g id="edge17" class="edge">
<title>Node12&#45;&gt;Node3</title>
<path fill="none" stroke="midnightblue" d="M249.7,-131.23C281.73,-120.71 322.13,-107.45 352.21,-97.58"/>
<polygon fill="midnightblue" stroke="midnightblue" points="248.46,-127.95 240.05,-134.4 250.64,-134.6 248.46,-127.95"/>
</g>
<!-- Node12&#45;&gt;Node5 -->
<g id="edge19" class="edge">
<title>Node12&#45;&gt;Node5</title>
<path fill="none" stroke="midnightblue" d="M133.6,-141.69C68.63,-132.19 -18.07,-110.92 18.09,-67 41.37,-38.72 136.87,-26.05 204.88,-20.53"/>
<polygon fill="midnightblue" stroke="midnightblue" points="133.43,-145.2 143.82,-143.12 134.4,-138.27 133.43,-145.2"/>
</g>
<!-- Node13 -->
<g id="node13" class="node">
<title>Node13</title>
<g id="a_node13"><a xlink:href="redis__database_8cpp.html" target="_top" xlink:title="Implements RedisDatabaseHandler for Redis&#45;based database operations.">
<polygon fill="white" stroke="black" points="27.09,-67.5 27.09,-97.5 133.09,-97.5 133.09,-67.5 27.09,-67.5"/>
<text text-anchor="start" x="35.09" y="-85.5" font-family="Helvetica,sans-Serif" font-size="10.00">database/src/redis</text>
<text text-anchor="middle" x="80.09" y="-74.5" font-family="Helvetica,sans-Serif" font-size="10.00">_database.cpp</text>
</a>
</g>
</g>
<!-- Node12&#45;&gt;Node13 -->
<g id="edge18" class="edge">
<title>Node12&#45;&gt;Node13</title>
<path fill="none" stroke="midnightblue" d="M162.77,-129.44C144.41,-119.24 122.2,-106.9 105.42,-97.58"/>
<polygon fill="midnightblue" stroke="midnightblue" points="161.26,-132.6 171.7,-134.4 164.66,-126.48 161.26,-132.6"/>
</g>
<!-- Node14 -->
<g id="node14" class="node">
<title>Node14</title>
<g id="a_node14"><a xlink:href="init__handler_8cpp.html" target="_top" xlink:title="Implements project&#45;wide initialization functions for the Container Manager application.">
<polygon fill="white" stroke="black" points="151.09,-73 151.09,-92 287.09,-92 287.09,-73 151.09,-73"/>
<text text-anchor="middle" x="219.09" y="-80" font-family="Helvetica,sans-Serif" font-size="10.00">utils/src/init_handler.cpp</text>
</a>
</g>
</g>
<!-- Node12&#45;&gt;Node14 -->
<g id="edge20" class="edge">
<title>Node12&#45;&gt;Node14</title>
<path fill="none" stroke="midnightblue" d="M205.18,-124.6C209.01,-113.28 213.35,-100.46 216.14,-92.19"/>
<polygon fill="midnightblue" stroke="midnightblue" points="201.75,-123.8 201.86,-134.4 208.38,-126.05 201.75,-123.8"/>
</g>
<!-- Node15&#45;&gt;Node6 -->
<g id="edge27" class="edge">
<title>Node15&#45;&gt;Node6</title>
<path fill="none" stroke="midnightblue" d="M330.04,-130.2C324.36,-112.02 319.47,-84.4 334.09,-67 366.77,-28.11 524.03,-19.16 591.84,-17.11"/>
<polygon fill="midnightblue" stroke="midnightblue" points="326.74,-131.37 333.34,-139.67 333.35,-129.07 326.74,-131.37"/>
</g>
<!-- Node15&#45;&gt;Node14 -->
<g id="edge28" class="edge">
<title>Node15&#45;&gt;Node14</title>
<path fill="none" stroke="midnightblue" d="M312.19,-134.79C288.81,-121.9 254.53,-103.02 234.75,-92.13"/>
<polygon fill="midnightblue" stroke="midnightblue" points="310.72,-137.97 321.17,-139.73 314.1,-131.84 310.72,-137.97"/>
</g>
</g>
</svg>
