<?xml version="1.0" encoding="UTF-8" standalone="no"?>
<!DOCTYPE svg PUBLIC "-//W3C//DTD SVG 1.1//EN"
 "http://www.w3.org/Graphics/SVG/1.1/DTD/svg11.dtd">
<!-- Generated by graphviz version 2.43.0 (0)
 -->
<!-- Title: database/inc/database_interface.hpp Pages: 1 -->
<!--zoomable 240 -->
<svg id="main" version="1.1" xmlns="http://www.w3.org/2000/svg" xmlns:xlink="http://www.w3.org/1999/xlink" xml:space="preserve" onload="init(evt)">
<style type="text/css"><![CDATA[
.edge:hover path { stroke: red; }
.edge:hover polygon { stroke: red; fill: red; }
]]></style>
<script type="text/javascript"><![CDATA[
var edges = document.getElementsByTagName('g');
if (edges && edges.length) {
  for (var i=0;i<edges.length;i++) {
    if (edges[i].id.substr(0,4)=='edge') {
      edges[i].setAttribute('class','edge');
    }
  }
}
]]></script>
        <defs>
                <circle id="rim" cx="0" cy="0" r="7"/>
                <circle id="rim2" cx="0" cy="0" r="3.5"/>
                <g id="zoomPlus">
                        <use xlink:href="#rim" fill="#404040">
                                <set attributeName="fill" to="#808080" begin="zoomplus.mouseover" end="zoomplus.mouseout"/>
                        </use>
                        <path d="M-4,0h8M0,-4v8" fill="none" stroke="white" stroke-width="1.5" pointer-events="none"/>
                </g>
                <g id="zoomMin">
                        <use xlink:href="#rim" fill="#404040">
                                <set attributeName="fill" to="#808080" begin="zoomminus.mouseover" end="zoomminus.mouseout"/>
                        </use>
                        <path d="M-4,0h8" fill="none" stroke="white" stroke-width="1.5" pointer-events="none"/>
                </g>
                <g id="dirArrow">
                        <path fill="none" stroke="white" stroke-width="1.5" d="M0,-3.0v7 M-2.5,-0.5L0,-3.0L2.5,-0.5"/>
                </g>
               <g id="resetDef">
                       <use xlink:href="#rim2" fill="#404040">
                               <set attributeName="fill" to="#808080" begin="reset.mouseover" end="reset.mouseout"/>
                       </use>
               </g>
        </defs>

<script type="text/javascript">
var viewWidth = 954;
var viewHeight = 240;
var sectionId = 'dynsection-1';
</script>
<script xlink:href="svgpan.js"/>
<svg id="graph" class="graph">
<g id="viewport">
<title>database/inc/database_interface.hpp</title>
<polygon fill="white" stroke="transparent" points="-4,4 -4,-236 949.52,-236 949.52,4 -4,4"/>
<!-- Node1 -->
<g id="node1" class="node">
<title>Node1</title>
<g id="a_node1"><a xlink:title="Abstract interface for database operations.">
<polygon fill="#bfbfbf" stroke="black" points="505.72,-201.5 505.72,-231.5 632.72,-231.5 632.72,-201.5 505.72,-201.5"/>
<text text-anchor="start" x="513.72" y="-219.5" font-family="Helvetica,sans-Serif" font-size="10.00">database/inc/database</text>
<text text-anchor="middle" x="569.22" y="-208.5" font-family="Helvetica,sans-Serif" font-size="10.00">_interface.hpp</text>
</a>
</g>
</g>
<!-- Node2 -->
<g id="node2" class="node">
<title>Node2</title>
<g id="a_node2"><a xlink:href="container__service_8hpp.html" target="_top" xlink:title="Declares the ContainerServiceHandler class for business logic related to containers.">
<polygon fill="white" stroke="black" points="647.22,-134.5 647.22,-164.5 751.22,-164.5 751.22,-134.5 647.22,-134.5"/>
<text text-anchor="start" x="655.22" y="-152.5" font-family="Helvetica,sans-Serif" font-size="10.00">core/inc/container</text>
<text text-anchor="middle" x="699.22" y="-141.5" font-family="Helvetica,sans-Serif" font-size="10.00">_service.hpp</text>
</a>
</g>
</g>
<!-- Node1&#45;&gt;Node2 -->
<g id="edge1" class="edge">
<title>Node1&#45;&gt;Node2</title>
<path fill="none" stroke="midnightblue" d="M606.52,-196.85C627.07,-186.58 652.17,-174.03 671.07,-164.58"/>
<polygon fill="midnightblue" stroke="midnightblue" points="604.81,-193.79 597.43,-201.4 607.94,-200.05 604.81,-193.79"/>
</g>
<!-- Node3 -->
<g id="node3" class="node">
<title>Node3</title>
<g id="a_node3"><a xlink:href="container__service_8cpp.html" target="_top" xlink:title="Implements the ContainerServiceHandler class for business logic related to containers.">
<polygon fill="white" stroke="black" points="407.22,-67.5 407.22,-97.5 511.22,-97.5 511.22,-67.5 407.22,-67.5"/>
<text text-anchor="start" x="415.22" y="-85.5" font-family="Helvetica,sans-Serif" font-size="10.00">core/src/container</text>
<text text-anchor="middle" x="459.22" y="-74.5" font-family="Helvetica,sans-Serif" font-size="10.00">_service.cpp</text>
</a>
</g>
</g>
<!-- Node1&#45;&gt;Node3 -->
<g id="edge11" class="edge">
<title>Node1&#45;&gt;Node3</title>
<path fill="none" stroke="midnightblue" d="M550.92,-193.54C528.18,-166.25 490.04,-120.48 470.91,-97.52"/>
<polygon fill="midnightblue" stroke="midnightblue" points="548.36,-195.93 557.45,-201.37 553.74,-191.45 548.36,-195.93"/>
</g>
<!-- Node4 -->
<g id="node4" class="node">
<title>Node4</title>
<g id="a_node4"><a xlink:href="json__request__executor_8hpp.html" target="_top" xlink:title="Declares the JsonRequestExecutorHandler class for executing JSON&#45;based requests.">
<polygon fill="white" stroke="black" points="529.22,-67.5 529.22,-97.5 671.22,-97.5 671.22,-67.5 529.22,-67.5"/>
<text text-anchor="start" x="537.22" y="-85.5" font-family="Helvetica,sans-Serif" font-size="10.00">executor/inc/json_request</text>
<text text-anchor="middle" x="600.22" y="-74.5" font-family="Helvetica,sans-Serif" font-size="10.00">_executor.hpp</text>
</a>
</g>
</g>
<!-- Node1&#45;&gt;Node4 -->
<g id="edge18" class="edge">
<title>Node1&#45;&gt;Node4</title>
<path fill="none" stroke="midnightblue" d="M574.88,-191.39C581.34,-163.9 591.68,-119.89 596.93,-97.52"/>
<polygon fill="midnightblue" stroke="midnightblue" points="571.42,-190.84 572.54,-201.37 578.23,-192.44 571.42,-190.84"/>
</g>
<!-- Node5 -->
<g id="node5" class="node">
<title>Node5</title>
<g id="a_node5"><a xlink:href="json__request__executor_8cpp.html" target="_top" xlink:title="Implements the JsonRequestExecutorHandler class for executing JSON&#45;based requests.">
<polygon fill="white" stroke="black" points="243.22,-0.5 243.22,-30.5 385.22,-30.5 385.22,-0.5 243.22,-0.5"/>
<text text-anchor="start" x="251.22" y="-18.5" font-family="Helvetica,sans-Serif" font-size="10.00">executor/src/json_request</text>
<text text-anchor="middle" x="314.22" y="-7.5" font-family="Helvetica,sans-Serif" font-size="10.00">_executor.cpp</text>
</a>
</g>
</g>
<!-- Node1&#45;&gt;Node5 -->
<g id="edge20" class="edge">
<title>Node1&#45;&gt;Node5</title>
<path fill="none" stroke="midnightblue" d="M495.37,-212.52C354.88,-205.01 58.41,-179.6 6.22,-98 -1.2,-86.39 -2.7,-77.5 6.22,-67 36,-31.95 161.71,-21.18 243.03,-17.9"/>
<polygon fill="midnightblue" stroke="midnightblue" points="495.45,-216.03 505.62,-213.05 495.82,-209.04 495.45,-216.03"/>
</g>
<!-- Node7 -->
<g id="node7" class="node">
<title>Node7</title>
<g id="a_node7"><a xlink:href="protobuf__request__executor_8hpp.html" target="_top" xlink:title="Declares the ProtoRequestExecutorHandler class for handling Protobuf&#45;based requests.">
<polygon fill="white" stroke="black" points="803.22,-67.5 803.22,-97.5 931.22,-97.5 931.22,-67.5 803.22,-67.5"/>
<text text-anchor="start" x="811.22" y="-85.5" font-family="Helvetica,sans-Serif" font-size="10.00">executor/inc/protobuf</text>
<text text-anchor="middle" x="867.22" y="-74.5" font-family="Helvetica,sans-Serif" font-size="10.00">_request_executor.hpp</text>
</a>
</g>
</g>
<!-- Node1&#45;&gt;Node7 -->
<g id="edge19" class="edge">
<title>Node1&#45;&gt;Node7</title>
<path fill="none" stroke="midnightblue" d="M643.01,-203.05C679.49,-195.16 723.47,-182.97 760.22,-165 796.72,-147.15 833.04,-115.92 852.56,-97.74"/>
<polygon fill="midnightblue" stroke="midnightblue" points="642,-199.69 632.93,-205.16 643.44,-206.54 642,-199.69"/>
</g>
<!-- Node8 -->
<g id="node8" class="node">
<title>Node8</title>
<g id="a_node8"><a xlink:href="protobuf__request__executor_8cpp.html" target="_top" xlink:title="Implements the ProtoRequestExecutorHandler class for handling Protobuf&#45;based requests.">
<polygon fill="white" stroke="black" points="803.72,-0.5 803.72,-30.5 930.72,-30.5 930.72,-0.5 803.72,-0.5"/>
<text text-anchor="start" x="811.72" y="-18.5" font-family="Helvetica,sans-Serif" font-size="10.00">executor/src/protobuf</text>
<text text-anchor="middle" x="867.22" y="-7.5" font-family="Helvetica,sans-Serif" font-size="10.00">_request_executor.cpp</text>
</a>
</g>
</g>
<!-- Node1&#45;&gt;Node8 -->
<g id="edge21" class="edge">
<title>Node1&#45;&gt;Node8</title>
<path fill="none" stroke="midnightblue" d="M642.76,-203.52C741.4,-185.68 907.98,-148.71 940.22,-98 947.61,-86.37 946.62,-79.2 940.22,-67 931.78,-50.89 915.61,-38.91 900.63,-30.66"/>
<polygon fill="midnightblue" stroke="midnightblue" points="642.07,-200.09 632.84,-205.29 643.3,-206.98 642.07,-200.09"/>
</g>
<!-- Node9 -->
<g id="node9" class="node">
<title>Node9</title>
<g id="a_node9"><a xlink:href="redis__database_8hpp.html" target="_top" xlink:title="Declares the RedisDatabaseHandler class for Redis&#45;based database operations.">
<polygon fill="white" stroke="black" points="160.22,-134.5 160.22,-164.5 266.22,-164.5 266.22,-134.5 160.22,-134.5"/>
<text text-anchor="start" x="168.22" y="-152.5" font-family="Helvetica,sans-Serif" font-size="10.00">database/inc/redis</text>
<text text-anchor="middle" x="213.22" y="-141.5" font-family="Helvetica,sans-Serif" font-size="10.00">_database.hpp</text>
</a>
</g>
</g>
<!-- Node1&#45;&gt;Node9 -->
<g id="edge12" class="edge">
<title>Node1&#45;&gt;Node9</title>
<path fill="none" stroke="midnightblue" d="M495.74,-202.08C427.44,-189.61 327.35,-171.34 266.45,-160.22"/>
<polygon fill="midnightblue" stroke="midnightblue" points="495.11,-205.53 505.58,-203.88 496.37,-198.64 495.11,-205.53"/>
</g>
<!-- Node12 -->
<g id="node12" class="node">
<title>Node12</title>
<g id="a_node12"><a xlink:href="init__handler_8hpp.html" target="_top" xlink:title="Declares project&#45;wide initialization functions for the Container Manager application.">
<polygon fill="white" stroke="black" points="310.72,-140 310.72,-159 447.72,-159 447.72,-140 310.72,-140"/>
<text text-anchor="middle" x="379.22" y="-147" font-family="Helvetica,sans-Serif" font-size="10.00">utils/inc/init_handler.hpp</text>
</a>
</g>
</g>
<!-- Node1&#45;&gt;Node12 -->
<g id="edge22" class="edge">
<title>Node1&#45;&gt;Node12</title>
<path fill="none" stroke="midnightblue" d="M518.38,-198.11C481.42,-185.46 432.98,-168.89 404.09,-159.01"/>
<polygon fill="midnightblue" stroke="midnightblue" points="517.4,-201.47 527.99,-201.4 519.67,-194.85 517.4,-201.47"/>
</g>
<!-- Node2&#45;&gt;Node3 -->
<g id="edge2" class="edge">
<title>Node2&#45;&gt;Node3</title>
<path fill="none" stroke="midnightblue" d="M637.74,-131.85C598.62,-121.25 548.49,-107.68 511.32,-97.61"/>
<polygon fill="midnightblue" stroke="midnightblue" points="636.87,-135.24 647.44,-134.48 638.7,-128.48 636.87,-135.24"/>
</g>
<!-- Node2&#45;&gt;Node4 -->
<g id="edge3" class="edge">
<title>Node2&#45;&gt;Node4</title>
<path fill="none" stroke="midnightblue" d="M669.12,-128.73C653.8,-118.68 635.53,-106.68 621.66,-97.58"/>
<polygon fill="midnightblue" stroke="midnightblue" points="667.46,-131.83 677.74,-134.4 671.3,-125.98 667.46,-131.83"/>
</g>
<!-- Node2&#45;&gt;Node5 -->
<g id="edge8" class="edge">
<title>Node2&#45;&gt;Node5</title>
<path fill="none" stroke="midnightblue" d="M700.4,-124.32C699.89,-105.89 695.93,-81.32 680.22,-67 669.44,-57.17 489,-35.79 385.58,-24.25"/>
<polygon fill="midnightblue" stroke="midnightblue" points="696.9,-124.32 700.36,-134.33 703.9,-124.34 696.9,-124.32"/>
</g>
<!-- Node6 -->
<g id="node6" class="node">
<title>Node6</title>
<g id="a_node6"><a xlink:href="main_8cpp.html" target="_top" xlink:title="Entry point for the Container Manager application.">
<polygon fill="white" stroke="black" points="458.22,-6 458.22,-25 520.22,-25 520.22,-6 458.22,-6"/>
<text text-anchor="middle" x="489.22" y="-13" font-family="Helvetica,sans-Serif" font-size="10.00">main.cpp</text>
</a>
</g>
</g>
<!-- Node2&#45;&gt;Node6 -->
<g id="edge10" class="edge">
<title>Node2&#45;&gt;Node6</title>
<path fill="none" stroke="midnightblue" d="M712.01,-125.34C719.92,-107.57 726.31,-83.37 713.22,-67 689.45,-37.27 576.46,-23.79 520.61,-18.86"/>
<polygon fill="midnightblue" stroke="midnightblue" points="708.8,-123.95 707.57,-134.47 715.09,-127.01 708.8,-123.95"/>
</g>
<!-- Node2&#45;&gt;Node7 -->
<g id="edge6" class="edge">
<title>Node2&#45;&gt;Node7</title>
<path fill="none" stroke="midnightblue" d="M745.28,-130.68C772.22,-120.26 805.76,-107.28 830.84,-97.58"/>
<polygon fill="midnightblue" stroke="midnightblue" points="743.74,-127.52 735.68,-134.4 746.26,-134.05 743.74,-127.52"/>
</g>
<!-- Node2&#45;&gt;Node8 -->
<g id="edge9" class="edge">
<title>Node2&#45;&gt;Node8</title>
<path fill="none" stroke="midnightblue" d="M722.13,-127.67C741.03,-110.77 768.78,-86.63 794.22,-67 811.06,-54.01 830.96,-40.35 845.72,-30.52"/>
<polygon fill="midnightblue" stroke="midnightblue" points="719.7,-125.15 714.61,-134.43 724.38,-130.35 719.7,-125.15"/>
</g>
<!-- Node4&#45;&gt;Node5 -->
<g id="edge4" class="edge">
<title>Node4&#45;&gt;Node5</title>
<path fill="none" stroke="midnightblue" d="M528.73,-65.25C481.85,-54.6 421.17,-40.81 376.31,-30.61"/>
<polygon fill="midnightblue" stroke="midnightblue" points="527.99,-68.67 538.52,-67.48 529.54,-61.85 527.99,-68.67"/>
</g>
<!-- Node4&#45;&gt;Node6 -->
<g id="edge5" class="edge">
<title>Node4&#45;&gt;Node6</title>
<path fill="none" stroke="midnightblue" d="M567.45,-62.31C546.3,-49.93 519.84,-34.43 503.75,-25.01"/>
<polygon fill="midnightblue" stroke="midnightblue" points="565.74,-65.36 576.14,-67.4 569.28,-59.32 565.74,-65.36"/>
</g>
<!-- Node7&#45;&gt;Node8 -->
<g id="edge7" class="edge">
<title>Node7&#45;&gt;Node8</title>
<path fill="none" stroke="midnightblue" d="M867.22,-57.11C867.22,-48.15 867.22,-38.32 867.22,-30.58"/>
<polygon fill="midnightblue" stroke="midnightblue" points="863.72,-57.4 867.22,-67.4 870.72,-57.4 863.72,-57.4"/>
</g>
<!-- Node9&#45;&gt;Node3 -->
<g id="edge13" class="edge">
<title>Node9&#45;&gt;Node3</title>
<path fill="none" stroke="midnightblue" d="M276.08,-131.89C316.66,-121.17 368.82,-107.39 407.09,-97.28"/>
<polygon fill="midnightblue" stroke="midnightblue" points="275.07,-128.54 266.3,-134.48 276.86,-135.31 275.07,-128.54"/>
</g>
<!-- Node9&#45;&gt;Node5 -->
<g id="edge15" class="edge">
<title>Node9&#45;&gt;Node5</title>
<path fill="none" stroke="midnightblue" d="M190.25,-126.91C174.96,-109.86 159.92,-85.89 173.22,-67 189.31,-44.14 216.75,-31.58 243.17,-24.69"/>
<polygon fill="midnightblue" stroke="midnightblue" points="187.76,-129.37 197.19,-134.21 192.84,-124.55 187.76,-129.37"/>
</g>
<!-- Node9&#45;&gt;Node6 -->
<g id="edge16" class="edge">
<title>Node9&#45;&gt;Node6</title>
<path fill="none" stroke="midnightblue" d="M202.99,-124.83C197.02,-106.93 192.98,-82.82 206.22,-67 210.28,-62.15 385.42,-33.31 458.11,-21.52"/>
<polygon fill="midnightblue" stroke="midnightblue" points="199.75,-126.14 206.52,-134.29 206.31,-123.7 199.75,-126.14"/>
</g>
<!-- Node10 -->
<g id="node10" class="node">
<title>Node10</title>
<g id="a_node10"><a xlink:href="redis__database_8cpp.html" target="_top" xlink:title="Implements RedisDatabaseHandler for Redis&#45;based database operations.">
<polygon fill="white" stroke="black" points="15.22,-67.5 15.22,-97.5 121.22,-97.5 121.22,-67.5 15.22,-67.5"/>
<text text-anchor="start" x="23.22" y="-85.5" font-family="Helvetica,sans-Serif" font-size="10.00">database/src/redis</text>
<text text-anchor="middle" x="68.22" y="-74.5" font-family="Helvetica,sans-Serif" font-size="10.00">_database.cpp</text>
</a>
</g>
</g>
<!-- Node9&#45;&gt;Node10 -->
<g id="edge14" class="edge">
<title>Node9&#45;&gt;Node10</title>
<path fill="none" stroke="midnightblue" d="M172.55,-130.27C149.46,-119.92 120.99,-107.15 99.62,-97.58"/>
<polygon fill="midnightblue" stroke="midnightblue" points="171.2,-133.5 181.76,-134.4 174.07,-127.11 171.2,-133.5"/>
</g>
<!-- Node11 -->
<g id="node11" class="node">
<title>Node11</title>
<g id="a_node11"><a xlink:href="init__handler_8cpp.html" target="_top" xlink:title="Implements project&#45;wide initialization functions for the Container Manager application.">
<polygon fill="white" stroke="black" points="215.22,-73 215.22,-92 351.22,-92 351.22,-73 215.22,-73"/>
<text text-anchor="middle" x="283.22" y="-80" font-family="Helvetica,sans-Serif" font-size="10.00">utils/src/init_handler.cpp</text>
</a>
</g>
</g>
<!-- Node9&#45;&gt;Node11 -->
<g id="edge17" class="edge">
<title>Node9&#45;&gt;Node11</title>
<path fill="none" stroke="midnightblue" d="M236.01,-127.34C248.87,-115.4 264.23,-101.14 273.86,-92.19"/>
<polygon fill="midnightblue" stroke="midnightblue" points="233.36,-125.03 228.41,-134.4 238.12,-130.16 233.36,-125.03"/>
</g>
<!-- Node12&#45;&gt;Node6 -->
<g id="edge23" class="edge">
<title>Node12&#45;&gt;Node6</title>
<path fill="none" stroke="midnightblue" d="M379.37,-129.7C380.42,-111.9 384.44,-85.26 398.22,-67 413.9,-46.23 440.73,-32.85 461.21,-25.12"/>
<polygon fill="midnightblue" stroke="midnightblue" points="375.87,-129.83 379.04,-139.94 382.86,-130.06 375.87,-129.83"/>
</g>
<!-- Node12&#45;&gt;Node11 -->
<g id="edge24" class="edge">
<title>Node12&#45;&gt;Node11</title>
<path fill="none" stroke="midnightblue" d="M357.95,-134.09C338.95,-121.24 311.77,-102.83 295.96,-92.13"/>
<polygon fill="midnightblue" stroke="midnightblue" points="356.03,-137.03 366.27,-139.73 359.96,-131.23 356.03,-137.03"/>
</g>
</g>
</svg>
        <g id="navigator" transform="translate(0 0)" fill="#404254">
                <rect fill="#f2f5e9" fill-opacity="0.5" stroke="#606060" stroke-width=".5" x="0" y="0" width="60" height="60"/>
                <use id="zoomplus" xlink:href="#zoomPlus" x="17" y="9" onmousedown="handleZoom(evt,'in')"/>
                <use id="zoomminus" xlink:href="#zoomMin" x="42" y="9" onmousedown="handleZoom(evt,'out')"/>
                <use id="reset" xlink:href="#resetDef" x="30" y="36" onmousedown="handleReset()"/>
                <g id="arrowUp" xlink:href="#dirArrow" transform="translate(30 24)" onmousedown="handlePan(0,-1)">
                  <use xlink:href="#rim" fill="#404040">
                        <set attributeName="fill" to="#808080" begin="arrowUp.mouseover" end="arrowUp.mouseout"/>
                  </use>
                  <path fill="none" stroke="white" stroke-width="1.5" d="M0,-3.0v7 M-2.5,-0.5L0,-3.0L2.5,-0.5"/>
                </g>
                <g id="arrowRight" xlink:href="#dirArrow" transform="rotate(90) translate(36 -43)" onmousedown="handlePan(1,0)">
                  <use xlink:href="#rim" fill="#404040">
                        <set attributeName="fill" to="#808080" begin="arrowRight.mouseover" end="arrowRight.mouseout"/>
                  </use>
                  <path fill="none" stroke="white" stroke-width="1.5" d="M0,-3.0v7 M-2.5,-0.5L0,-3.0L2.5,-0.5"/>
                </g>
                <g id="arrowDown" xlink:href="#dirArrow" transform="rotate(180) translate(-30 -48)" onmousedown="handlePan(0,1)">
                  <use xlink:href="#rim" fill="#404040">
                        <set attributeName="fill" to="#808080" begin="arrowDown.mouseover" end="arrowDown.mouseout"/>
                  </use>
                  <path fill="none" stroke="white" stroke-width="1.5" d="M0,-3.0v7 M-2.5,-0.5L0,-3.0L2.5,-0.5"/>
                </g>
                <g id="arrowLeft" xlink:href="#dirArrow" transform="rotate(270) translate(-36 17)" onmousedown="handlePan(-1,0)">
                  <use xlink:href="#rim" fill="#404040">
                        <set attributeName="fill" to="#808080" begin="arrowLeft.mouseover" end="arrowLeft.mouseout"/>
                  </use>
                  <path fill="none" stroke="white" stroke-width="1.5" d="M0,-3.0v7 M-2.5,-0.5L0,-3.0L2.5,-0.5"/>
                </g>
        </g>
        <svg viewBox="0 0 15 15" width="100%" height="30px" preserveAspectRatio="xMaxYMin meet">
         <g id="arrow_out" transform="scale(0.3 0.3)">
          <a xlink:href="database__interface_8hpp__dep__incl_org.svg" target="_base">
           <rect id="button" ry="5" rx="5" y="6" x="6" height="38" width="38"
                fill="#f2f5e9" fill-opacity="0.5" stroke="#606060" stroke-width="1.0"/>
           <path id="arrow"
             d="M 11.500037,31.436501 C 11.940474,20.09759 22.043105,11.32322 32.158766,21.979434 L 37.068811,17.246167 C 37.068811,17.246167 37.088388,32 37.088388,32 L 22.160133,31.978069 C 22.160133,31.978069 26.997745,27.140456 26.997745,27.140456 C 18.528582,18.264221 13.291696,25.230495 11.500037,31.436501 z"
             style="fill:#404040;"/>
          </a>
         </g>
        </svg>
</svg>
