<?xml version="1.0" encoding="UTF-8" standalone="no"?>
<!DOCTYPE svg PUBLIC "-//W3C//DTD SVG 1.1//EN"
 "http://www.w3.org/Graphics/SVG/1.1/DTD/svg11.dtd">
<!-- Generated by graphviz version 2.43.0 (0)
 -->
<!-- Title: database/inc/database_interface.hpp Pages: 1 -->
<svg width="833pt" height="173pt"
 viewBox="0.00 0.00 832.50 173.00" xmlns="http://www.w3.org/2000/svg" xmlns:xlink="http://www.w3.org/1999/xlink">
<g id="graph0" class="graph" transform="scale(1 1) rotate(0) translate(4 169)">
<title>database/inc/database_interface.hpp</title>
<polygon fill="white" stroke="transparent" points="-4,4 -4,-169 828.5,-169 828.5,4 -4,4"/>
<!-- Node1 -->
<g id="node1" class="node">
<title>Node1</title>
<g id="a_node1"><a xlink:title="Abstract interface for database operations.">
<polygon fill="#bfbfbf" stroke="black" points="342.5,-134.5 342.5,-164.5 469.5,-164.5 469.5,-134.5 342.5,-134.5"/>
<text text-anchor="start" x="350.5" y="-152.5" font-family="Helvetica,sans-Serif" font-size="10.00">database/inc/database</text>
<text text-anchor="middle" x="406" y="-141.5" font-family="Helvetica,sans-Serif" font-size="10.00">_interface.hpp</text>
</a>
</g>
</g>
<!-- Node2 -->
<g id="node2" class="node">
<title>Node2</title>
<g id="a_node2"><a xlink:href="redis__database_8hpp.html" target="_top" xlink:title="Implements RedisDatabaseHandler for Redis&#45;based database operations.">
<polygon fill="white" stroke="black" points="353,-67.5 353,-97.5 459,-97.5 459,-67.5 353,-67.5"/>
<text text-anchor="start" x="361" y="-85.5" font-family="Helvetica,sans-Serif" font-size="10.00">database/inc/redis</text>
<text text-anchor="middle" x="406" y="-74.5" font-family="Helvetica,sans-Serif" font-size="10.00">_database.hpp</text>
</a>
</g>
</g>
<!-- Node1&#45;&gt;Node2 -->
<g id="edge1" class="edge">
<title>Node1&#45;&gt;Node2</title>
<path fill="none" stroke="midnightblue" d="M406,-124.11C406,-115.15 406,-105.32 406,-97.58"/>
<polygon fill="midnightblue" stroke="midnightblue" points="402.5,-124.4 406,-134.4 409.5,-124.4 402.5,-124.4"/>
</g>
<!-- Node4 -->
<g id="node4" class="node">
<title>Node4</title>
<g id="a_node4"><a xlink:href="json__request__executor_8cpp.html" target="_top" xlink:title="Implements the JsonRequestExecutorHandler class for executing JSON&#45;based requests.">
<polygon fill="white" stroke="black" points="0,-0.5 0,-30.5 142,-30.5 142,-0.5 0,-0.5"/>
<text text-anchor="start" x="8" y="-18.5" font-family="Helvetica,sans-Serif" font-size="10.00">executor/src/json_request</text>
<text text-anchor="middle" x="71" y="-7.5" font-family="Helvetica,sans-Serif" font-size="10.00">_executor.cpp</text>
</a>
</g>
</g>
<!-- Node1&#45;&gt;Node4 -->
<g id="edge8" class="edge">
<title>Node1&#45;&gt;Node4</title>
<path fill="none" stroke="midnightblue" d="M360.97,-130.76C293.64,-104.23 168.08,-54.75 106.67,-30.56"/>
<polygon fill="midnightblue" stroke="midnightblue" points="359.88,-134.09 370.47,-134.5 362.45,-127.58 359.88,-134.09"/>
</g>
<!-- Node5 -->
<g id="node5" class="node">
<title>Node5</title>
<g id="a_node5"><a xlink:href="protobuf__request__executor_8cpp.html" target="_top" xlink:title="Implements the ProtoRequestExecutorHandler class for handling Protobuf&#45;based requests.">
<polygon fill="white" stroke="black" points="160.5,-0.5 160.5,-30.5 287.5,-30.5 287.5,-0.5 160.5,-0.5"/>
<text text-anchor="start" x="168.5" y="-18.5" font-family="Helvetica,sans-Serif" font-size="10.00">executor/src/protobuf</text>
<text text-anchor="middle" x="224" y="-7.5" font-family="Helvetica,sans-Serif" font-size="10.00">_request_executor.cpp</text>
</a>
</g>
</g>
<!-- Node1&#45;&gt;Node5 -->
<g id="edge9" class="edge">
<title>Node1&#45;&gt;Node5</title>
<path fill="none" stroke="midnightblue" d="M378.12,-128.28C340.83,-101.24 275.67,-53.98 243.34,-30.52"/>
<polygon fill="midnightblue" stroke="midnightblue" points="376.37,-131.34 386.52,-134.37 380.48,-125.67 376.37,-131.34"/>
</g>
<!-- Node6 -->
<g id="node6" class="node">
<title>Node6</title>
<g id="a_node6"><a xlink:href="docker__commands_8cpp.html" target="_top" xlink:title="Implements Docker command classes for container operations.">
<polygon fill="white" stroke="black" points="584.5,-0.5 584.5,-30.5 691.5,-30.5 691.5,-0.5 584.5,-0.5"/>
<text text-anchor="start" x="592.5" y="-18.5" font-family="Helvetica,sans-Serif" font-size="10.00">runtime/src/docker</text>
<text text-anchor="middle" x="638" y="-7.5" font-family="Helvetica,sans-Serif" font-size="10.00">_commands.cpp</text>
</a>
</g>
</g>
<!-- Node1&#45;&gt;Node6 -->
<g id="edge10" class="edge">
<title>Node1&#45;&gt;Node6</title>
<path fill="none" stroke="midnightblue" d="M439.75,-129.3C486.96,-102.44 571.61,-54.27 613.35,-30.52"/>
<polygon fill="midnightblue" stroke="midnightblue" points="437.79,-126.39 430.83,-134.37 441.25,-132.47 437.79,-126.39"/>
</g>
<!-- Node7 -->
<g id="node7" class="node">
<title>Node7</title>
<g id="a_node7"><a xlink:href="podman__commands_8cpp.html" target="_top" xlink:title="Implements Podman command classes for container operations.">
<polygon fill="white" stroke="black" points="709.5,-0.5 709.5,-30.5 824.5,-30.5 824.5,-0.5 709.5,-0.5"/>
<text text-anchor="start" x="717.5" y="-18.5" font-family="Helvetica,sans-Serif" font-size="10.00">runtime/src/podman</text>
<text text-anchor="middle" x="767" y="-7.5" font-family="Helvetica,sans-Serif" font-size="10.00">_commands.cpp</text>
</a>
</g>
</g>
<!-- Node1&#45;&gt;Node7 -->
<g id="edge11" class="edge">
<title>Node1&#45;&gt;Node7</title>
<path fill="none" stroke="midnightblue" d="M454.08,-130.92C526.53,-104.43 662.25,-54.8 728.56,-30.56"/>
<polygon fill="midnightblue" stroke="midnightblue" points="452.48,-127.78 444.29,-134.5 454.89,-134.35 452.48,-127.78"/>
</g>
<!-- Node3 -->
<g id="node3" class="node">
<title>Node3</title>
<g id="a_node3"><a xlink:href="redis__database_8cpp.html" target="_top" xlink:title="Implements RedisDatabaseHandler for Redis&#45;based database operations.">
<polygon fill="white" stroke="black" points="306,-0.5 306,-30.5 412,-30.5 412,-0.5 306,-0.5"/>
<text text-anchor="start" x="314" y="-18.5" font-family="Helvetica,sans-Serif" font-size="10.00">database/src/redis</text>
<text text-anchor="middle" x="359" y="-7.5" font-family="Helvetica,sans-Serif" font-size="10.00">_database.cpp</text>
</a>
</g>
</g>
<!-- Node2&#45;&gt;Node3 -->
<g id="edge2" class="edge">
<title>Node2&#45;&gt;Node3</title>
<path fill="none" stroke="midnightblue" d="M389.84,-59.16C382.99,-49.68 375.21,-38.92 369.18,-30.58"/>
<polygon fill="midnightblue" stroke="midnightblue" points="387.11,-61.34 395.8,-67.4 392.78,-57.24 387.11,-61.34"/>
</g>
<!-- Node2&#45;&gt;Node4 -->
<g id="edge3" class="edge">
<title>Node2&#45;&gt;Node4</title>
<path fill="none" stroke="midnightblue" d="M342.93,-69.26C285.82,-58.18 201.75,-41.87 142.23,-30.32"/>
<polygon fill="midnightblue" stroke="midnightblue" points="342.43,-72.73 352.92,-71.2 343.77,-65.86 342.43,-72.73"/>
</g>
<!-- Node2&#45;&gt;Node5 -->
<g id="edge4" class="edge">
<title>Node2&#45;&gt;Node5</title>
<path fill="none" stroke="midnightblue" d="M356.87,-63.96C327.56,-53.48 290.82,-40.37 263.41,-30.58"/>
<polygon fill="midnightblue" stroke="midnightblue" points="355.91,-67.33 366.51,-67.4 358.27,-60.74 355.91,-67.33"/>
</g>
<!-- Node2&#45;&gt;Node6 -->
<g id="edge5" class="edge">
<title>Node2&#45;&gt;Node6</title>
<path fill="none" stroke="midnightblue" d="M465.91,-64.71C503.66,-54.14 551.86,-40.63 587.63,-30.61"/>
<polygon fill="midnightblue" stroke="midnightblue" points="464.74,-61.41 456.05,-67.48 466.63,-68.15 464.74,-61.41"/>
</g>
<!-- Node2&#45;&gt;Node7 -->
<g id="edge6" class="edge">
<title>Node2&#45;&gt;Node7</title>
<path fill="none" stroke="midnightblue" d="M469.26,-71.44C528.89,-61.77 620.7,-46.38 700,-31 703.04,-30.41 706.15,-29.79 709.29,-29.15"/>
<polygon fill="midnightblue" stroke="midnightblue" points="468.55,-68.01 459.24,-73.06 469.67,-74.92 468.55,-68.01"/>
</g>
<!-- Node8 -->
<g id="node8" class="node">
<title>Node8</title>
<g id="a_node8"><a xlink:href="init__handler_8cpp.html" target="_top" xlink:title="Implements project&#45;wide initialization functions.">
<polygon fill="white" stroke="black" points="430,-6 430,-25 566,-25 566,-6 430,-6"/>
<text text-anchor="middle" x="498" y="-13" font-family="Helvetica,sans-Serif" font-size="10.00">utils/src/init_handler.cpp</text>
</a>
</g>
</g>
<!-- Node2&#45;&gt;Node8 -->
<g id="edge7" class="edge">
<title>Node2&#45;&gt;Node8</title>
<path fill="none" stroke="midnightblue" d="M434.58,-61.31C451.86,-49.1 472.98,-34.18 485.96,-25.01"/>
<polygon fill="midnightblue" stroke="midnightblue" points="432.11,-58.77 425.96,-67.4 436.15,-64.48 432.11,-58.77"/>
</g>
</g>
</svg>
