<?xml version="1.0" encoding="UTF-8" standalone="no"?>
<!DOCTYPE svg PUBLIC "-//W3C//DTD SVG 1.1//EN"
 "http://www.w3.org/Graphics/SVG/1.1/DTD/svg11.dtd">
<!-- Generated by graphviz version 2.43.0 (0)
 -->
<!-- Title: api/inc/dbus_consumer.hpp Pages: 1 -->
<svg width="781pt" height="196pt"
 viewBox="0.00 0.00 780.50 196.00" xmlns="http://www.w3.org/2000/svg" xmlns:xlink="http://www.w3.org/1999/xlink">
<g id="graph0" class="graph" transform="scale(1 1) rotate(0) translate(4 192)">
<title>api/inc/dbus_consumer.hpp</title>
<polygon fill="white" stroke="transparent" points="-4,4 -4,-192 776.5,-192 776.5,4 -4,4"/>
<!-- Node1 -->
<g id="node1" class="node">
<title>Node1</title>
<g id="a_node1"><a xlink:title="Defines the DBusConsumer class for receiving and processing JSON/Protobuf requests over D&#45;Bus.">
<polygon fill="#bfbfbf" stroke="black" points="131.5,-168.5 131.5,-187.5 280.5,-187.5 280.5,-168.5 131.5,-168.5"/>
<text text-anchor="middle" x="206" y="-175.5" font-family="Helvetica,sans-Serif" font-size="10.00">api/inc/dbus_consumer.hpp</text>
</a>
</g>
</g>
<!-- Node2 -->
<g id="node2" class="node">
<title>Node2</title>
<g id="a_node2"><a xlink:title=" ">
<polygon fill="white" stroke="#bfbfbf" points="0,-112.5 0,-131.5 50,-131.5 50,-112.5 0,-112.5"/>
<text text-anchor="middle" x="25" y="-119.5" font-family="Helvetica,sans-Serif" font-size="10.00">atomic</text>
</a>
</g>
</g>
<!-- Node1&#45;&gt;Node2 -->
<g id="edge1" class="edge">
<title>Node1&#45;&gt;Node2</title>
<path fill="none" stroke="midnightblue" d="M177.32,-168.44C145.52,-158.96 94.22,-143.65 60.06,-133.46"/>
<polygon fill="midnightblue" stroke="midnightblue" points="60.63,-129.98 50.05,-130.47 58.63,-136.69 60.63,-129.98"/>
</g>
<!-- Node3 -->
<g id="node3" class="node">
<title>Node3</title>
<g id="a_node3"><a xlink:title=" ">
<polygon fill="white" stroke="#bfbfbf" points="68,-112.5 68,-131.5 126,-131.5 126,-112.5 68,-112.5"/>
<text text-anchor="middle" x="97" y="-119.5" font-family="Helvetica,sans-Serif" font-size="10.00">memory</text>
</a>
</g>
</g>
<!-- Node1&#45;&gt;Node3 -->
<g id="edge2" class="edge">
<title>Node1&#45;&gt;Node3</title>
<path fill="none" stroke="midnightblue" d="M188.49,-168.32C170.93,-159.62 143.67,-146.12 123.47,-136.11"/>
<polygon fill="midnightblue" stroke="midnightblue" points="124.98,-132.96 114.47,-131.65 121.88,-139.23 124.98,-132.96"/>
</g>
<!-- Node4 -->
<g id="node4" class="node">
<title>Node4</title>
<g id="a_node4"><a xlink:title=" ">
<polygon fill="white" stroke="#bfbfbf" points="330,-0.5 330,-19.5 374,-19.5 374,-0.5 330,-0.5"/>
<text text-anchor="middle" x="352" y="-7.5" font-family="Helvetica,sans-Serif" font-size="10.00">string</text>
</a>
</g>
</g>
<!-- Node1&#45;&gt;Node4 -->
<g id="edge3" class="edge">
<title>Node1&#45;&gt;Node4</title>
<path fill="none" stroke="midnightblue" d="M195.94,-168.22C182.96,-155.78 163.17,-132.27 173,-112 200.74,-54.78 276.61,-28.28 320.15,-17.46"/>
<polygon fill="midnightblue" stroke="midnightblue" points="321.02,-20.85 329.96,-15.15 319.42,-14.04 321.02,-20.85"/>
</g>
<!-- Node5 -->
<g id="node5" class="node">
<title>Node5</title>
<g id="a_node5"><a xlink:title=" ">
<polygon fill="white" stroke="#bfbfbf" points="182,-112.5 182,-131.5 230,-131.5 230,-112.5 182,-112.5"/>
<text text-anchor="middle" x="206" y="-119.5" font-family="Helvetica,sans-Serif" font-size="10.00">thread</text>
</a>
</g>
</g>
<!-- Node1&#45;&gt;Node5 -->
<g id="edge4" class="edge">
<title>Node1&#45;&gt;Node5</title>
<path fill="none" stroke="midnightblue" d="M206,-168.08C206,-161.01 206,-150.86 206,-141.99"/>
<polygon fill="midnightblue" stroke="midnightblue" points="209.5,-141.75 206,-131.75 202.5,-141.75 209.5,-141.75"/>
</g>
<!-- Node6 -->
<g id="node6" class="node">
<title>Node6</title>
<g id="a_node6"><a xlink:href="common_8hpp.html" target="_top" xlink:title="Defines common constants, string views, and utility structures for the application.">
<polygon fill="white" stroke="black" points="248,-112.5 248,-131.5 346,-131.5 346,-112.5 248,-112.5"/>
<text text-anchor="middle" x="297" y="-119.5" font-family="Helvetica,sans-Serif" font-size="10.00">inc/common.hpp</text>
</a>
</g>
</g>
<!-- Node1&#45;&gt;Node6 -->
<g id="edge5" class="edge">
<title>Node1&#45;&gt;Node6</title>
<path fill="none" stroke="midnightblue" d="M220.62,-168.32C234.95,-159.82 257.01,-146.73 273.75,-136.8"/>
<polygon fill="midnightblue" stroke="midnightblue" points="275.6,-139.77 282.42,-131.65 272.03,-133.75 275.6,-139.77"/>
</g>
<!-- Node9 -->
<g id="node9" class="node">
<title>Node9</title>
<g id="a_node9"><a xlink:title=" ">
<polygon fill="white" stroke="#bfbfbf" points="364.5,-112.5 364.5,-131.5 501.5,-131.5 501.5,-112.5 364.5,-112.5"/>
<text text-anchor="middle" x="433" y="-119.5" font-family="Helvetica,sans-Serif" font-size="10.00">sdbus&#45;c++/sdbus&#45;c++.h</text>
</a>
</g>
</g>
<!-- Node1&#45;&gt;Node9 -->
<g id="edge9" class="edge">
<title>Node1&#45;&gt;Node9</title>
<path fill="none" stroke="midnightblue" d="M241.97,-168.44C281.32,-159.08 344.49,-144.06 387.31,-133.87"/>
<polygon fill="midnightblue" stroke="midnightblue" points="388.28,-137.24 397.2,-131.52 386.66,-130.43 388.28,-137.24"/>
</g>
<!-- Node10 -->
<g id="node10" class="node">
<title>Node10</title>
<g id="a_node10"><a xlink:href="request__executor_8hpp.html" target="_top" xlink:title="Declares the abstract RequestExecutor interface for executing requests.">
<polygon fill="white" stroke="black" points="520,-112.5 520,-131.5 660,-131.5 660,-112.5 520,-112.5"/>
<text text-anchor="middle" x="590" y="-119.5" font-family="Helvetica,sans-Serif" font-size="10.00">inc/request_executor.hpp</text>
</a>
</g>
</g>
<!-- Node1&#45;&gt;Node10 -->
<g id="edge10" class="edge">
<title>Node1&#45;&gt;Node10</title>
<path fill="none" stroke="midnightblue" d="M266.85,-168.44C335.52,-158.79 447.07,-143.1 519.49,-132.92"/>
<polygon fill="midnightblue" stroke="midnightblue" points="520.02,-136.37 529.44,-131.52 519.05,-129.44 520.02,-136.37"/>
</g>
<!-- Node6&#45;&gt;Node4 -->
<g id="edge6" class="edge">
<title>Node6&#45;&gt;Node4</title>
<path fill="none" stroke="midnightblue" d="M283.06,-112.32C265.07,-100 237.6,-76.64 251,-56 266.12,-32.72 296.38,-21.38 319.86,-15.92"/>
<polygon fill="midnightblue" stroke="midnightblue" points="320.68,-19.32 329.76,-13.86 319.26,-12.47 320.68,-19.32"/>
</g>
<!-- Node7 -->
<g id="node7" class="node">
<title>Node7</title>
<g id="a_node7"><a xlink:title=" ">
<polygon fill="white" stroke="#bfbfbf" points="260.5,-56.5 260.5,-75.5 333.5,-75.5 333.5,-56.5 260.5,-56.5"/>
<text text-anchor="middle" x="297" y="-63.5" font-family="Helvetica,sans-Serif" font-size="10.00">string_view</text>
</a>
</g>
</g>
<!-- Node6&#45;&gt;Node7 -->
<g id="edge7" class="edge">
<title>Node6&#45;&gt;Node7</title>
<path fill="none" stroke="midnightblue" d="M297,-112.08C297,-105.01 297,-94.86 297,-85.99"/>
<polygon fill="midnightblue" stroke="midnightblue" points="300.5,-85.75 297,-75.75 293.5,-85.75 300.5,-85.75"/>
</g>
<!-- Node8 -->
<g id="node8" class="node">
<title>Node8</title>
<g id="a_node8"><a xlink:title=" ">
<polygon fill="white" stroke="#bfbfbf" points="351.5,-56.5 351.5,-75.5 444.5,-75.5 444.5,-56.5 351.5,-56.5"/>
<text text-anchor="middle" x="398" y="-63.5" font-family="Helvetica,sans-Serif" font-size="10.00">unordered_map</text>
</a>
</g>
</g>
<!-- Node6&#45;&gt;Node8 -->
<g id="edge8" class="edge">
<title>Node6&#45;&gt;Node8</title>
<path fill="none" stroke="midnightblue" d="M313.23,-112.32C329.35,-103.7 354.3,-90.36 372.96,-80.39"/>
<polygon fill="midnightblue" stroke="midnightblue" points="374.64,-83.46 381.81,-75.65 371.34,-77.28 374.64,-83.46"/>
</g>
<!-- Node10&#45;&gt;Node4 -->
<g id="edge11" class="edge">
<title>Node10&#45;&gt;Node4</title>
<path fill="none" stroke="midnightblue" d="M570.73,-112.45C550.88,-103.57 519.11,-89.17 492,-76 474.48,-67.49 470.57,-64.41 453,-56 429.19,-44.6 401.82,-32.47 381.58,-23.67"/>
<polygon fill="midnightblue" stroke="midnightblue" points="382.84,-20.4 372.27,-19.64 380.06,-26.83 382.84,-20.4"/>
</g>
<!-- Node11 -->
<g id="node11" class="node">
<title>Node11</title>
<g id="a_node11"><a xlink:title=" ">
<polygon fill="white" stroke="#bfbfbf" points="501,-56.5 501,-75.5 611,-75.5 611,-56.5 501,-56.5"/>
<text text-anchor="middle" x="556" y="-63.5" font-family="Helvetica,sans-Serif" font-size="10.00">nlohmann/json.hpp</text>
</a>
</g>
</g>
<!-- Node10&#45;&gt;Node11 -->
<g id="edge12" class="edge">
<title>Node10&#45;&gt;Node11</title>
<path fill="none" stroke="midnightblue" d="M584.39,-112.08C579.63,-104.53 572.68,-93.49 566.85,-84.23"/>
<polygon fill="midnightblue" stroke="midnightblue" points="569.8,-82.35 561.51,-75.75 563.88,-86.08 569.8,-82.35"/>
</g>
<!-- Node12 -->
<g id="node12" class="node">
<title>Node12</title>
<g id="a_node12"><a xlink:href="container__request_8hpp.html" target="_top" xlink:title="Data structure for representing a container operation request.">
<polygon fill="white" stroke="black" points="629.5,-56.5 629.5,-75.5 772.5,-75.5 772.5,-56.5 629.5,-56.5"/>
<text text-anchor="middle" x="701" y="-63.5" font-family="Helvetica,sans-Serif" font-size="10.00">inc/container_request.hpp</text>
</a>
</g>
</g>
<!-- Node10&#45;&gt;Node12 -->
<g id="edge13" class="edge">
<title>Node10&#45;&gt;Node12</title>
<path fill="none" stroke="midnightblue" d="M607.83,-112.32C625.72,-103.62 653.48,-90.12 674.05,-80.11"/>
<polygon fill="midnightblue" stroke="midnightblue" points="675.75,-83.18 683.21,-75.65 672.69,-76.88 675.75,-83.18"/>
</g>
<!-- Node12&#45;&gt;Node4 -->
<g id="edge14" class="edge">
<title>Node12&#45;&gt;Node4</title>
<path fill="none" stroke="midnightblue" d="M645.7,-56.44C571.9,-45.03 443.63,-25.18 384.08,-15.96"/>
<polygon fill="midnightblue" stroke="midnightblue" points="384.54,-12.49 374.12,-14.42 383.47,-19.41 384.54,-12.49"/>
</g>
</g>
</svg>
