<?xml version="1.0" encoding="UTF-8" standalone="no"?>
<!DOCTYPE svg PUBLIC "-//W3C//DTD SVG 1.1//EN"
 "http://www.w3.org/Graphics/SVG/1.1/DTD/svg11.dtd">
<!-- Generated by graphviz version 2.43.0 (0)
 -->
<!-- Title: api/src/dbus_consumer.cpp Pages: 1 -->
<svg width="781pt" height="252pt"
 viewBox="0.00 0.00 780.50 252.00" xmlns="http://www.w3.org/2000/svg" xmlns:xlink="http://www.w3.org/1999/xlink">
<g id="graph0" class="graph" transform="scale(1 1) rotate(0) translate(4 248)">
<title>api/src/dbus_consumer.cpp</title>
<polygon fill="white" stroke="transparent" points="-4,4 -4,-248 776.5,-248 776.5,4 -4,4"/>
<!-- Node1 -->
<g id="node1" class="node">
<title>Node1</title>
<g id="a_node1"><a xlink:title="D&#45;Bus message consumer implementation for Container Manager.">
<polygon fill="#bfbfbf" stroke="black" points="559.5,-224.5 559.5,-243.5 708.5,-243.5 708.5,-224.5 559.5,-224.5"/>
<text text-anchor="middle" x="634" y="-231.5" font-family="Helvetica,sans-Serif" font-size="10.00">api/src/dbus_consumer.cpp</text>
</a>
</g>
</g>
<!-- Node2 -->
<g id="node2" class="node">
<title>Node2</title>
<g id="a_node2"><a xlink:href="dbus__consumer_8hpp.html" target="_top" xlink:title="Defines the DBusConsumer class for receiving and processing requests over D&#45;Bus.">
<polygon fill="white" stroke="black" points="186.5,-168.5 186.5,-187.5 317.5,-187.5 317.5,-168.5 186.5,-168.5"/>
<text text-anchor="middle" x="252" y="-175.5" font-family="Helvetica,sans-Serif" font-size="10.00">inc/dbus_consumer.hpp</text>
</a>
</g>
</g>
<!-- Node1&#45;&gt;Node2 -->
<g id="edge1" class="edge">
<title>Node1&#45;&gt;Node2</title>
<path fill="none" stroke="midnightblue" d="M573.47,-224.44C505.3,-214.81 394.64,-199.16 322.59,-188.98"/>
<polygon fill="midnightblue" stroke="midnightblue" points="322.64,-185.45 312.25,-187.52 321.66,-192.38 322.64,-185.45"/>
</g>
<!-- Node14 -->
<g id="node14" class="node">
<title>Node14</title>
<g id="a_node14"><a xlink:title=" ">
<polygon fill="white" stroke="#bfbfbf" points="678,-112.5 678,-131.5 738,-131.5 738,-112.5 678,-112.5"/>
<text text-anchor="middle" x="708" y="-119.5" font-family="Helvetica,sans-Serif" font-size="10.00">iostream</text>
</a>
</g>
</g>
<!-- Node1&#45;&gt;Node14 -->
<g id="edge16" class="edge">
<title>Node1&#45;&gt;Node14</title>
<path fill="none" stroke="midnightblue" d="M635.06,-224.33C637.01,-211.19 642.09,-185.89 654,-168 662.11,-155.82 674.47,-145.17 685.33,-137.3"/>
<polygon fill="midnightblue" stroke="midnightblue" points="687.34,-140.16 693.59,-131.6 683.37,-134.39 687.34,-140.16"/>
</g>
<!-- Node15 -->
<g id="node15" class="node">
<title>Node15</title>
<g id="a_node15"><a xlink:href="logging_8hpp.html" target="_top" xlink:title="Logging macros and configuration for the Container Manager.">
<polygon fill="white" stroke="black" points="662.5,-168.5 662.5,-187.5 753.5,-187.5 753.5,-168.5 662.5,-168.5"/>
<text text-anchor="middle" x="708" y="-175.5" font-family="Helvetica,sans-Serif" font-size="10.00">inc/logging.hpp</text>
</a>
</g>
</g>
<!-- Node1&#45;&gt;Node15 -->
<g id="edge17" class="edge">
<title>Node1&#45;&gt;Node15</title>
<path fill="none" stroke="midnightblue" d="M645.89,-224.32C657.15,-216.11 674.29,-203.6 687.71,-193.81"/>
<polygon fill="midnightblue" stroke="midnightblue" points="689.88,-196.56 695.89,-187.83 685.75,-190.9 689.88,-196.56"/>
</g>
<!-- Node3 -->
<g id="node3" class="node">
<title>Node3</title>
<g id="a_node3"><a xlink:title=" ">
<polygon fill="white" stroke="#bfbfbf" points="0,-112.5 0,-131.5 50,-131.5 50,-112.5 0,-112.5"/>
<text text-anchor="middle" x="25" y="-119.5" font-family="Helvetica,sans-Serif" font-size="10.00">atomic</text>
</a>
</g>
</g>
<!-- Node2&#45;&gt;Node3 -->
<g id="edge2" class="edge">
<title>Node2&#45;&gt;Node3</title>
<path fill="none" stroke="midnightblue" d="M213.84,-168.45C176.9,-160.1 119.09,-146.83 60.09,-132.22"/>
<polygon fill="midnightblue" stroke="midnightblue" points="60.78,-128.78 50.23,-129.77 59.09,-135.58 60.78,-128.78"/>
</g>
<!-- Node4 -->
<g id="node4" class="node">
<title>Node4</title>
<g id="a_node4"><a xlink:title=" ">
<polygon fill="white" stroke="#bfbfbf" points="68,-112.5 68,-131.5 126,-131.5 126,-112.5 68,-112.5"/>
<text text-anchor="middle" x="97" y="-119.5" font-family="Helvetica,sans-Serif" font-size="10.00">memory</text>
</a>
</g>
</g>
<!-- Node2&#45;&gt;Node4 -->
<g id="edge3" class="edge">
<title>Node2&#45;&gt;Node4</title>
<path fill="none" stroke="midnightblue" d="M227.44,-168.44C201.48,-159.4 160.33,-145.06 131.2,-134.92"/>
<polygon fill="midnightblue" stroke="midnightblue" points="132.04,-131.5 121.45,-131.52 129.74,-138.11 132.04,-131.5"/>
</g>
<!-- Node5 -->
<g id="node5" class="node">
<title>Node5</title>
<g id="a_node5"><a xlink:title=" ">
<polygon fill="white" stroke="#bfbfbf" points="330,-0.5 330,-19.5 374,-19.5 374,-0.5 330,-0.5"/>
<text text-anchor="middle" x="352" y="-7.5" font-family="Helvetica,sans-Serif" font-size="10.00">string</text>
</a>
</g>
</g>
<!-- Node2&#45;&gt;Node5 -->
<g id="edge4" class="edge">
<title>Node2&#45;&gt;Node5</title>
<path fill="none" stroke="midnightblue" d="M224.8,-168.38C197.17,-157.98 160.14,-138.53 173,-112 200.74,-54.78 276.61,-28.28 320.15,-17.46"/>
<polygon fill="midnightblue" stroke="midnightblue" points="321.02,-20.85 329.96,-15.15 319.42,-14.04 321.02,-20.85"/>
</g>
<!-- Node6 -->
<g id="node6" class="node">
<title>Node6</title>
<g id="a_node6"><a xlink:title=" ">
<polygon fill="white" stroke="#bfbfbf" points="182,-112.5 182,-131.5 230,-131.5 230,-112.5 182,-112.5"/>
<text text-anchor="middle" x="206" y="-119.5" font-family="Helvetica,sans-Serif" font-size="10.00">thread</text>
</a>
</g>
</g>
<!-- Node2&#45;&gt;Node6 -->
<g id="edge5" class="edge">
<title>Node2&#45;&gt;Node6</title>
<path fill="none" stroke="midnightblue" d="M244.4,-168.08C237.77,-160.3 227.98,-148.8 219.94,-139.37"/>
<polygon fill="midnightblue" stroke="midnightblue" points="222.6,-137.09 213.45,-131.75 217.27,-141.63 222.6,-137.09"/>
</g>
<!-- Node7 -->
<g id="node7" class="node">
<title>Node7</title>
<g id="a_node7"><a xlink:href="common_8hpp.html" target="_top" xlink:title="Defines common constants, string views, and utility structures for the application.">
<polygon fill="white" stroke="black" points="248,-112.5 248,-131.5 346,-131.5 346,-112.5 248,-112.5"/>
<text text-anchor="middle" x="297" y="-119.5" font-family="Helvetica,sans-Serif" font-size="10.00">inc/common.hpp</text>
</a>
</g>
</g>
<!-- Node2&#45;&gt;Node7 -->
<g id="edge6" class="edge">
<title>Node2&#45;&gt;Node7</title>
<path fill="none" stroke="midnightblue" d="M259.43,-168.08C265.85,-160.38 275.31,-149.03 283.12,-139.65"/>
<polygon fill="midnightblue" stroke="midnightblue" points="285.99,-141.67 289.71,-131.75 280.62,-137.19 285.99,-141.67"/>
</g>
<!-- Node10 -->
<g id="node10" class="node">
<title>Node10</title>
<g id="a_node10"><a xlink:title=" ">
<polygon fill="white" stroke="#bfbfbf" points="364.5,-112.5 364.5,-131.5 501.5,-131.5 501.5,-112.5 364.5,-112.5"/>
<text text-anchor="middle" x="433" y="-119.5" font-family="Helvetica,sans-Serif" font-size="10.00">sdbus&#45;c++/sdbus&#45;c++.h</text>
</a>
</g>
</g>
<!-- Node2&#45;&gt;Node10 -->
<g id="edge10" class="edge">
<title>Node2&#45;&gt;Node10</title>
<path fill="none" stroke="midnightblue" d="M280.68,-168.44C311.53,-159.24 360.73,-144.56 394.83,-134.39"/>
<polygon fill="midnightblue" stroke="midnightblue" points="395.87,-137.73 404.45,-131.52 393.87,-131.02 395.87,-137.73"/>
</g>
<!-- Node11 -->
<g id="node11" class="node">
<title>Node11</title>
<g id="a_node11"><a xlink:href="request__executor_8hpp.html" target="_top" xlink:title="Declares the abstract RequestExecutor interface for executing requests.">
<polygon fill="white" stroke="black" points="520,-112.5 520,-131.5 660,-131.5 660,-112.5 520,-112.5"/>
<text text-anchor="middle" x="590" y="-119.5" font-family="Helvetica,sans-Serif" font-size="10.00">inc/request_executor.hpp</text>
</a>
</g>
</g>
<!-- Node2&#45;&gt;Node11 -->
<g id="edge11" class="edge">
<title>Node2&#45;&gt;Node11</title>
<path fill="none" stroke="midnightblue" d="M305.56,-168.44C365.63,-158.85 462.99,-143.29 526.76,-133.1"/>
<polygon fill="midnightblue" stroke="midnightblue" points="527.37,-136.55 536.69,-131.52 526.27,-129.64 527.37,-136.55"/>
</g>
<!-- Node7&#45;&gt;Node5 -->
<g id="edge7" class="edge">
<title>Node7&#45;&gt;Node5</title>
<path fill="none" stroke="midnightblue" d="M283.06,-112.32C265.07,-100 237.6,-76.64 251,-56 266.12,-32.72 296.38,-21.38 319.86,-15.92"/>
<polygon fill="midnightblue" stroke="midnightblue" points="320.68,-19.32 329.76,-13.86 319.26,-12.47 320.68,-19.32"/>
</g>
<!-- Node8 -->
<g id="node8" class="node">
<title>Node8</title>
<g id="a_node8"><a xlink:title=" ">
<polygon fill="white" stroke="#bfbfbf" points="260.5,-56.5 260.5,-75.5 333.5,-75.5 333.5,-56.5 260.5,-56.5"/>
<text text-anchor="middle" x="297" y="-63.5" font-family="Helvetica,sans-Serif" font-size="10.00">string_view</text>
</a>
</g>
</g>
<!-- Node7&#45;&gt;Node8 -->
<g id="edge8" class="edge">
<title>Node7&#45;&gt;Node8</title>
<path fill="none" stroke="midnightblue" d="M297,-112.08C297,-105.01 297,-94.86 297,-85.99"/>
<polygon fill="midnightblue" stroke="midnightblue" points="300.5,-85.75 297,-75.75 293.5,-85.75 300.5,-85.75"/>
</g>
<!-- Node9 -->
<g id="node9" class="node">
<title>Node9</title>
<g id="a_node9"><a xlink:title=" ">
<polygon fill="white" stroke="#bfbfbf" points="351.5,-56.5 351.5,-75.5 444.5,-75.5 444.5,-56.5 351.5,-56.5"/>
<text text-anchor="middle" x="398" y="-63.5" font-family="Helvetica,sans-Serif" font-size="10.00">unordered_map</text>
</a>
</g>
</g>
<!-- Node7&#45;&gt;Node9 -->
<g id="edge9" class="edge">
<title>Node7&#45;&gt;Node9</title>
<path fill="none" stroke="midnightblue" d="M313.23,-112.32C329.35,-103.7 354.3,-90.36 372.96,-80.39"/>
<polygon fill="midnightblue" stroke="midnightblue" points="374.64,-83.46 381.81,-75.65 371.34,-77.28 374.64,-83.46"/>
</g>
<!-- Node11&#45;&gt;Node5 -->
<g id="edge12" class="edge">
<title>Node11&#45;&gt;Node5</title>
<path fill="none" stroke="midnightblue" d="M570.73,-112.45C550.88,-103.57 519.11,-89.17 492,-76 474.48,-67.49 470.57,-64.41 453,-56 429.19,-44.6 401.82,-32.47 381.58,-23.67"/>
<polygon fill="midnightblue" stroke="midnightblue" points="382.84,-20.4 372.27,-19.64 380.06,-26.83 382.84,-20.4"/>
</g>
<!-- Node12 -->
<g id="node12" class="node">
<title>Node12</title>
<g id="a_node12"><a xlink:title=" ">
<polygon fill="white" stroke="#bfbfbf" points="501,-56.5 501,-75.5 611,-75.5 611,-56.5 501,-56.5"/>
<text text-anchor="middle" x="556" y="-63.5" font-family="Helvetica,sans-Serif" font-size="10.00">nlohmann/json.hpp</text>
</a>
</g>
</g>
<!-- Node11&#45;&gt;Node12 -->
<g id="edge13" class="edge">
<title>Node11&#45;&gt;Node12</title>
<path fill="none" stroke="midnightblue" d="M584.39,-112.08C579.63,-104.53 572.68,-93.49 566.85,-84.23"/>
<polygon fill="midnightblue" stroke="midnightblue" points="569.8,-82.35 561.51,-75.75 563.88,-86.08 569.8,-82.35"/>
</g>
<!-- Node13 -->
<g id="node13" class="node">
<title>Node13</title>
<g id="a_node13"><a xlink:href="container__request_8hpp.html" target="_top" xlink:title="Data structure for representing a container operation request.">
<polygon fill="white" stroke="black" points="629.5,-56.5 629.5,-75.5 772.5,-75.5 772.5,-56.5 629.5,-56.5"/>
<text text-anchor="middle" x="701" y="-63.5" font-family="Helvetica,sans-Serif" font-size="10.00">inc/container_request.hpp</text>
</a>
</g>
</g>
<!-- Node11&#45;&gt;Node13 -->
<g id="edge14" class="edge">
<title>Node11&#45;&gt;Node13</title>
<path fill="none" stroke="midnightblue" d="M607.83,-112.32C625.72,-103.62 653.48,-90.12 674.05,-80.11"/>
<polygon fill="midnightblue" stroke="midnightblue" points="675.75,-83.18 683.21,-75.65 672.69,-76.88 675.75,-83.18"/>
</g>
<!-- Node13&#45;&gt;Node5 -->
<g id="edge15" class="edge">
<title>Node13&#45;&gt;Node5</title>
<path fill="none" stroke="midnightblue" d="M645.7,-56.44C571.9,-45.03 443.63,-25.18 384.08,-15.96"/>
<polygon fill="midnightblue" stroke="midnightblue" points="384.54,-12.49 374.12,-14.42 383.47,-19.41 384.54,-12.49"/>
</g>
<!-- Node15&#45;&gt;Node14 -->
<g id="edge18" class="edge">
<title>Node15&#45;&gt;Node14</title>
<path fill="none" stroke="midnightblue" d="M708,-168.08C708,-161.01 708,-150.86 708,-141.99"/>
<polygon fill="midnightblue" stroke="midnightblue" points="711.5,-141.75 708,-131.75 704.5,-141.75 711.5,-141.75"/>
</g>
</g>
</svg>
