<?xml version="1.0" encoding="UTF-8" standalone="no"?>
<!DOCTYPE svg PUBLIC "-//W3C//DTD SVG 1.1//EN"
 "http://www.w3.org/Graphics/SVG/1.1/DTD/svg11.dtd">
<!-- Generated by graphviz version 2.43.0 (0)
 -->
<!-- Title: api/src/dbus_consumer.cpp Pages: 1 -->
<!--zoomable 252 -->
<svg id="main" version="1.1" xmlns="http://www.w3.org/2000/svg" xmlns:xlink="http://www.w3.org/1999/xlink" xml:space="preserve" onload="init(evt)">
<style type="text/css"><![CDATA[
.edge:hover path { stroke: red; }
.edge:hover polygon { stroke: red; fill: red; }
]]></style>
<script type="text/javascript"><![CDATA[
var edges = document.getElementsByTagName('g');
if (edges && edges.length) {
  for (var i=0;i<edges.length;i++) {
    if (edges[i].id.substr(0,4)=='edge') {
      edges[i].setAttribute('class','edge');
    }
  }
}
]]></script>
        <defs>
                <circle id="rim" cx="0" cy="0" r="7"/>
                <circle id="rim2" cx="0" cy="0" r="3.5"/>
                <g id="zoomPlus">
                        <use xlink:href="#rim" fill="#404040">
                                <set attributeName="fill" to="#808080" begin="zoomplus.mouseover" end="zoomplus.mouseout"/>
                        </use>
                        <path d="M-4,0h8M0,-4v8" fill="none" stroke="white" stroke-width="1.5" pointer-events="none"/>
                </g>
                <g id="zoomMin">
                        <use xlink:href="#rim" fill="#404040">
                                <set attributeName="fill" to="#808080" begin="zoomminus.mouseover" end="zoomminus.mouseout"/>
                        </use>
                        <path d="M-4,0h8" fill="none" stroke="white" stroke-width="1.5" pointer-events="none"/>
                </g>
                <g id="dirArrow">
                        <path fill="none" stroke="white" stroke-width="1.5" d="M0,-3.0v7 M-2.5,-0.5L0,-3.0L2.5,-0.5"/>
                </g>
               <g id="resetDef">
                       <use xlink:href="#rim2" fill="#404040">
                               <set attributeName="fill" to="#808080" begin="reset.mouseover" end="reset.mouseout"/>
                       </use>
               </g>
        </defs>

<script type="text/javascript">
var viewWidth = 634;
var viewHeight = 252;
var sectionId = 'dynsection-0';
</script>
<script xlink:href="svgpan.js"/>
<svg id="graph" class="graph">
<g id="viewport">
<title>api/src/dbus_consumer.cpp</title>
<polygon fill="white" stroke="transparent" points="-4,4 -4,-248 629.5,-248 629.5,4 -4,4"/>
<!-- Node1 -->
<g id="node1" class="node">
<title>Node1</title>
<g id="a_node1"><a xlink:title="Implements the DbusConsumer class for receiving and processing JSON requests over D&#45;Bus.">
<polygon fill="#bfbfbf" stroke="black" points="165.5,-224.5 165.5,-243.5 314.5,-243.5 314.5,-224.5 165.5,-224.5"/>
<text text-anchor="middle" x="240" y="-231.5" font-family="Helvetica,sans-Serif" font-size="10.00">api/src/dbus_consumer.cpp</text>
</a>
</g>
</g>
<!-- Node2 -->
<g id="node2" class="node">
<title>Node2</title>
<g id="a_node2"><a xlink:href="dbus__consumer_8hpp.html" target="_top" xlink:title="Defines the DbusConsumer class for receiving and processing JSON requests over D&#45;Bus.">
<polygon fill="white" stroke="black" points="117.5,-168.5 117.5,-187.5 248.5,-187.5 248.5,-168.5 117.5,-168.5"/>
<text text-anchor="middle" x="183" y="-175.5" font-family="Helvetica,sans-Serif" font-size="10.00">inc/dbus_consumer.hpp</text>
</a>
</g>
</g>
<!-- Node1&#45;&gt;Node2 -->
<g id="edge1" class="edge">
<title>Node1&#45;&gt;Node2</title>
<path fill="none" stroke="midnightblue" d="M230.84,-224.32C222.5,-216.42 209.97,-204.55 199.82,-194.94"/>
<polygon fill="midnightblue" stroke="midnightblue" points="201.99,-192.17 192.32,-187.83 197.18,-197.25 201.99,-192.17"/>
</g>
<!-- Node12 -->
<g id="node12" class="node">
<title>Node12</title>
<g id="a_node12"><a xlink:title=" ">
<polygon fill="white" stroke="#bfbfbf" points="267,-168.5 267,-187.5 327,-187.5 327,-168.5 267,-168.5"/>
<text text-anchor="middle" x="297" y="-175.5" font-family="Helvetica,sans-Serif" font-size="10.00">iostream</text>
</a>
</g>
</g>
<!-- Node1&#45;&gt;Node12 -->
<g id="edge14" class="edge">
<title>Node1&#45;&gt;Node12</title>
<path fill="none" stroke="midnightblue" d="M249.16,-224.32C257.5,-216.42 270.03,-204.55 280.18,-194.94"/>
<polygon fill="midnightblue" stroke="midnightblue" points="282.82,-197.25 287.68,-187.83 278.01,-192.17 282.82,-197.25"/>
</g>
<!-- Node3 -->
<g id="node3" class="node">
<title>Node3</title>
<g id="a_node3"><a xlink:title=" ">
<polygon fill="white" stroke="#bfbfbf" points="0,-112.5 0,-131.5 58,-131.5 58,-112.5 0,-112.5"/>
<text text-anchor="middle" x="29" y="-119.5" font-family="Helvetica,sans-Serif" font-size="10.00">memory</text>
</a>
</g>
</g>
<!-- Node2&#45;&gt;Node3 -->
<g id="edge2" class="edge">
<title>Node2&#45;&gt;Node3</title>
<path fill="none" stroke="midnightblue" d="M158.6,-168.44C132.8,-159.4 91.92,-145.06 62.98,-134.92"/>
<polygon fill="midnightblue" stroke="midnightblue" points="63.88,-131.52 53.29,-131.52 61.57,-138.13 63.88,-131.52"/>
</g>
<!-- Node4 -->
<g id="node4" class="node">
<title>Node4</title>
<g id="a_node4"><a xlink:title=" ">
<polygon fill="white" stroke="#bfbfbf" points="239,-0.5 239,-19.5 283,-19.5 283,-0.5 239,-0.5"/>
<text text-anchor="middle" x="261" y="-7.5" font-family="Helvetica,sans-Serif" font-size="10.00">string</text>
</a>
</g>
</g>
<!-- Node2&#45;&gt;Node4 -->
<g id="edge3" class="edge">
<title>Node2&#45;&gt;Node4</title>
<path fill="none" stroke="midnightblue" d="M156.67,-168.46C128.86,-157.88 90.85,-138.02 105,-112 131.32,-63.61 191.93,-34.84 229.37,-21.04"/>
<polygon fill="midnightblue" stroke="midnightblue" points="230.56,-24.34 238.82,-17.7 228.22,-17.74 230.56,-24.34"/>
</g>
<!-- Node5 -->
<g id="node5" class="node">
<title>Node5</title>
<g id="a_node5"><a xlink:title=" ">
<polygon fill="white" stroke="#bfbfbf" points="114,-112.5 114,-131.5 162,-131.5 162,-112.5 114,-112.5"/>
<text text-anchor="middle" x="138" y="-119.5" font-family="Helvetica,sans-Serif" font-size="10.00">thread</text>
</a>
</g>
</g>
<!-- Node2&#45;&gt;Node5 -->
<g id="edge4" class="edge">
<title>Node2&#45;&gt;Node5</title>
<path fill="none" stroke="midnightblue" d="M175.57,-168.08C169.15,-160.38 159.69,-149.03 151.88,-139.65"/>
<polygon fill="midnightblue" stroke="midnightblue" points="154.38,-137.19 145.29,-131.75 149.01,-141.67 154.38,-137.19"/>
</g>
<!-- Node6 -->
<g id="node6" class="node">
<title>Node6</title>
<g id="a_node6"><a xlink:href="common_8hpp.html" target="_top" xlink:title="Defines common constants, string views, and utility structures for the application.">
<polygon fill="white" stroke="black" points="180,-112.5 180,-131.5 278,-131.5 278,-112.5 180,-112.5"/>
<text text-anchor="middle" x="229" y="-119.5" font-family="Helvetica,sans-Serif" font-size="10.00">inc/common.hpp</text>
</a>
</g>
</g>
<!-- Node2&#45;&gt;Node6 -->
<g id="edge5" class="edge">
<title>Node2&#45;&gt;Node6</title>
<path fill="none" stroke="midnightblue" d="M190.6,-168.08C197.23,-160.3 207.02,-148.8 215.06,-139.37"/>
<polygon fill="midnightblue" stroke="midnightblue" points="217.73,-141.63 221.55,-131.75 212.4,-137.09 217.73,-141.63"/>
</g>
<!-- Node8 -->
<g id="node8" class="node">
<title>Node8</title>
<g id="a_node8"><a xlink:title=" ">
<polygon fill="white" stroke="#bfbfbf" points="296.5,-112.5 296.5,-131.5 433.5,-131.5 433.5,-112.5 296.5,-112.5"/>
<text text-anchor="middle" x="365" y="-119.5" font-family="Helvetica,sans-Serif" font-size="10.00">sdbus&#45;c++/sdbus&#45;c++.h</text>
</a>
</g>
</g>
<!-- Node2&#45;&gt;Node8 -->
<g id="edge8" class="edge">
<title>Node2&#45;&gt;Node8</title>
<path fill="none" stroke="midnightblue" d="M211.84,-168.44C242.86,-159.24 292.33,-144.56 326.62,-134.39"/>
<polygon fill="midnightblue" stroke="midnightblue" points="327.71,-137.72 336.3,-131.52 325.71,-131.01 327.71,-137.72"/>
</g>
<!-- Node9 -->
<g id="node9" class="node">
<title>Node9</title>
<g id="a_node9"><a xlink:href="request__executor_8hpp.html" target="_top" xlink:title="Declares the abstract RequestExecutor interface for executing requests.">
<polygon fill="white" stroke="black" points="452,-112.5 452,-131.5 592,-131.5 592,-112.5 452,-112.5"/>
<text text-anchor="middle" x="522" y="-119.5" font-family="Helvetica,sans-Serif" font-size="10.00">inc/request_executor.hpp</text>
</a>
</g>
</g>
<!-- Node2&#45;&gt;Node9 -->
<g id="edge9" class="edge">
<title>Node2&#45;&gt;Node9</title>
<path fill="none" stroke="midnightblue" d="M236.72,-168.44C296.97,-158.85 394.61,-143.29 458.57,-133.1"/>
<polygon fill="midnightblue" stroke="midnightblue" points="459.21,-136.55 468.54,-131.52 458.11,-129.63 459.21,-136.55"/>
</g>
<!-- Node6&#45;&gt;Node4 -->
<g id="edge6" class="edge">
<title>Node6&#45;&gt;Node4</title>
<path fill="none" stroke="midnightblue" d="M223.9,-112.28C217.14,-99.51 206.94,-75.15 215,-56 220.03,-44.05 229.94,-33.69 239.29,-25.93"/>
<polygon fill="midnightblue" stroke="midnightblue" points="241.44,-28.69 247.21,-19.81 237.16,-23.15 241.44,-28.69"/>
</g>
<!-- Node7 -->
<g id="node7" class="node">
<title>Node7</title>
<g id="a_node7"><a xlink:title=" ">
<polygon fill="white" stroke="#bfbfbf" points="224.5,-56.5 224.5,-75.5 297.5,-75.5 297.5,-56.5 224.5,-56.5"/>
<text text-anchor="middle" x="261" y="-63.5" font-family="Helvetica,sans-Serif" font-size="10.00">string_view</text>
</a>
</g>
</g>
<!-- Node6&#45;&gt;Node7 -->
<g id="edge7" class="edge">
<title>Node6&#45;&gt;Node7</title>
<path fill="none" stroke="midnightblue" d="M234.28,-112.08C238.71,-104.61 245.16,-93.72 250.62,-84.52"/>
<polygon fill="midnightblue" stroke="midnightblue" points="253.73,-86.14 255.81,-75.75 247.71,-82.57 253.73,-86.14"/>
</g>
<!-- Node9&#45;&gt;Node4 -->
<g id="edge10" class="edge">
<title>Node9&#45;&gt;Node4</title>
<path fill="none" stroke="midnightblue" d="M464.12,-112.47C428.5,-105.74 382.62,-94.35 345,-76 318.75,-63.2 292.83,-41.35 276.87,-26.56"/>
<polygon fill="midnightblue" stroke="midnightblue" points="279.15,-23.9 269.49,-19.55 274.33,-28.97 279.15,-23.9"/>
</g>
<!-- Node10 -->
<g id="node10" class="node">
<title>Node10</title>
<g id="a_node10"><a xlink:title=" ">
<polygon fill="white" stroke="#bfbfbf" points="354,-56.5 354,-75.5 464,-75.5 464,-56.5 354,-56.5"/>
<text text-anchor="middle" x="409" y="-63.5" font-family="Helvetica,sans-Serif" font-size="10.00">nlohmann/json.hpp</text>
</a>
</g>
</g>
<!-- Node9&#45;&gt;Node10 -->
<g id="edge11" class="edge">
<title>Node9&#45;&gt;Node10</title>
<path fill="none" stroke="midnightblue" d="M504.09,-112.44C485.75,-103.68 456.99,-89.94 435.91,-79.86"/>
<polygon fill="midnightblue" stroke="midnightblue" points="437.35,-76.67 426.82,-75.52 434.33,-82.99 437.35,-76.67"/>
</g>
<!-- Node11 -->
<g id="node11" class="node">
<title>Node11</title>
<g id="a_node11"><a xlink:href="container__request_8hpp.html" target="_top" xlink:title="Data structure for representing a container operation request.">
<polygon fill="white" stroke="black" points="482.5,-56.5 482.5,-75.5 625.5,-75.5 625.5,-56.5 482.5,-56.5"/>
<text text-anchor="middle" x="554" y="-63.5" font-family="Helvetica,sans-Serif" font-size="10.00">inc/container_request.hpp</text>
</a>
</g>
</g>
<!-- Node9&#45;&gt;Node11 -->
<g id="edge12" class="edge">
<title>Node9&#45;&gt;Node11</title>
<path fill="none" stroke="midnightblue" d="M527.28,-112.08C531.71,-104.61 538.16,-93.72 543.62,-84.52"/>
<polygon fill="midnightblue" stroke="midnightblue" points="546.73,-86.14 548.81,-75.75 540.71,-82.57 546.73,-86.14"/>
</g>
<!-- Node11&#45;&gt;Node4 -->
<g id="edge13" class="edge">
<title>Node11&#45;&gt;Node4</title>
<path fill="none" stroke="midnightblue" d="M507.57,-56.44C447.64,-45.4 344.91,-26.46 293.01,-16.9"/>
<polygon fill="midnightblue" stroke="midnightblue" points="293.5,-13.43 283.03,-15.06 292.23,-20.32 293.5,-13.43"/>
</g>
</g>
</svg>
        <g id="navigator" transform="translate(0 0)" fill="#404254">
                <rect fill="#f2f5e9" fill-opacity="0.5" stroke="#606060" stroke-width=".5" x="0" y="0" width="60" height="60"/>
                <use id="zoomplus" xlink:href="#zoomPlus" x="17" y="9" onmousedown="handleZoom(evt,'in')"/>
                <use id="zoomminus" xlink:href="#zoomMin" x="42" y="9" onmousedown="handleZoom(evt,'out')"/>
                <use id="reset" xlink:href="#resetDef" x="30" y="36" onmousedown="handleReset()"/>
                <g id="arrowUp" xlink:href="#dirArrow" transform="translate(30 24)" onmousedown="handlePan(0,-1)">
                  <use xlink:href="#rim" fill="#404040">
                        <set attributeName="fill" to="#808080" begin="arrowUp.mouseover" end="arrowUp.mouseout"/>
                  </use>
                  <path fill="none" stroke="white" stroke-width="1.5" d="M0,-3.0v7 M-2.5,-0.5L0,-3.0L2.5,-0.5"/>
                </g>
                <g id="arrowRight" xlink:href="#dirArrow" transform="rotate(90) translate(36 -43)" onmousedown="handlePan(1,0)">
                  <use xlink:href="#rim" fill="#404040">
                        <set attributeName="fill" to="#808080" begin="arrowRight.mouseover" end="arrowRight.mouseout"/>
                  </use>
                  <path fill="none" stroke="white" stroke-width="1.5" d="M0,-3.0v7 M-2.5,-0.5L0,-3.0L2.5,-0.5"/>
                </g>
                <g id="arrowDown" xlink:href="#dirArrow" transform="rotate(180) translate(-30 -48)" onmousedown="handlePan(0,1)">
                  <use xlink:href="#rim" fill="#404040">
                        <set attributeName="fill" to="#808080" begin="arrowDown.mouseover" end="arrowDown.mouseout"/>
                  </use>
                  <path fill="none" stroke="white" stroke-width="1.5" d="M0,-3.0v7 M-2.5,-0.5L0,-3.0L2.5,-0.5"/>
                </g>
                <g id="arrowLeft" xlink:href="#dirArrow" transform="rotate(270) translate(-36 17)" onmousedown="handlePan(-1,0)">
                  <use xlink:href="#rim" fill="#404040">
                        <set attributeName="fill" to="#808080" begin="arrowLeft.mouseover" end="arrowLeft.mouseout"/>
                  </use>
                  <path fill="none" stroke="white" stroke-width="1.5" d="M0,-3.0v7 M-2.5,-0.5L0,-3.0L2.5,-0.5"/>
                </g>
        </g>
        <svg viewBox="0 0 15 15" width="100%" height="30px" preserveAspectRatio="xMaxYMin meet">
         <g id="arrow_out" transform="scale(0.3 0.3)">
          <a xlink:href="dbus__consumer_8cpp__incl_org.svg" target="_base">
           <rect id="button" ry="5" rx="5" y="6" x="6" height="38" width="38"
                fill="#f2f5e9" fill-opacity="0.5" stroke="#606060" stroke-width="1.0"/>
           <path id="arrow"
             d="M 11.500037,31.436501 C 11.940474,20.09759 22.043105,11.32322 32.158766,21.979434 L 37.068811,17.246167 C 37.068811,17.246167 37.088388,32 37.088388,32 L 22.160133,31.978069 C 22.160133,31.978069 26.997745,27.140456 26.997745,27.140456 C 18.528582,18.264221 13.291696,25.230495 11.500037,31.436501 z"
             style="fill:#404040;"/>
          </a>
         </g>
        </svg>
</svg>
