<?xml version="1.0" encoding="UTF-8" standalone="no"?>
<!DOCTYPE svg PUBLIC "-//W3C//DTD SVG 1.1//EN"
 "http://www.w3.org/Graphics/SVG/1.1/DTD/svg11.dtd">
<!-- Generated by graphviz version 2.43.0 (0)
 -->
<!-- Title: utils Pages: 1 -->
<svg width="228pt" height="148pt"
 viewBox="0.00 0.00 228.00 148.00" xmlns="http://www.w3.org/2000/svg" xmlns:xlink="http://www.w3.org/1999/xlink">
<g id="graph0" class="graph" transform="scale(1 1) rotate(0) translate(4 144)">
<title>utils</title>
<polygon fill="white" stroke="transparent" points="-4,4 -4,-144 224,-144 224,4 -4,4"/>
<g id="clust1" class="cluster">
<title>clusterdir_f08c1ffadff6e9e08f49766ff6ac3753</title>
<g id="a_clust1"><a xlink:href="dir_f08c1ffadff6e9e08f49766ff6ac3753.html" target="_top">
<polygon fill="#eeeeff" stroke="black" points="8,-8 8,-132 150,-132 150,-8 8,-8"/>
</a>
</g>
</g>
<!-- dir_f08c1ffadff6e9e08f49766ff6ac3753 -->
<g id="node1" class="node">
<title>dir_f08c1ffadff6e9e08f49766ff6ac3753</title>
<text text-anchor="middle" x="115" y="-103.5" font-family="Helvetica,sans-Serif" font-size="10.00">utils</text>
</g>
<!-- dir_8e032a88fd97b977b14fa9c66aef0e48 -->
<g id="node2" class="node">
<title>dir_8e032a88fd97b977b14fa9c66aef0e48</title>
<g id="a_node2"><a xlink:href="dir_8e032a88fd97b977b14fa9c66aef0e48.html" target="_top" xlink:title="inc">
<polygon fill="white" stroke="black" points="140,-52 86,-52 86,-16 140,-16 140,-52"/>
<text text-anchor="middle" x="113" y="-31.5" font-family="Helvetica,sans-Serif" font-size="10.00">inc</text>
</a>
</g>
</g>
<!-- dir_f8c6f0679b123304d35aae1bb0e284fb -->
<g id="node4" class="node">
<title>dir_f8c6f0679b123304d35aae1bb0e284fb</title>
<g id="a_node4"><a xlink:href="dir_f8c6f0679b123304d35aae1bb0e284fb.html" target="_top" xlink:title="database">
<polygon fill="white" stroke="red" points="220,-52 158,-52 158,-16 220,-16 220,-52"/>
<text text-anchor="middle" x="189" y="-31.5" font-family="Helvetica,sans-Serif" font-size="10.00">database</text>
</a>
</g>
</g>
<!-- dir_8e032a88fd97b977b14fa9c66aef0e48&#45;&gt;dir_f8c6f0679b123304d35aae1bb0e284fb -->
<g id="edge4" class="edge">
<title>dir_8e032a88fd97b977b14fa9c66aef0e48&#45;&gt;dir_f8c6f0679b123304d35aae1bb0e284fb</title>
<path fill="none" stroke="black" d="M140.02,-34C142.49,-34 144.97,-34 147.44,-34"/>
<polygon fill="black" stroke="black" points="147.62,-37.5 157.62,-34 147.62,-30.5 147.62,-37.5"/>
<g id="a_edge4&#45;headlabel"><a xlink:href="dir_000026_000010.html" target="_top" xlink:title="1">
<text text-anchor="middle" x="144.02" y="-37.84" font-family="Helvetica,sans-Serif" font-size="10.00">1</text>
</a>
</g>
</g>
<!-- dir_d6b47c55c117061889082b3039c4cfaf -->
<g id="node5" class="node">
<title>dir_d6b47c55c117061889082b3039c4cfaf</title>
<g id="a_node5"><a xlink:href="dir_d6b47c55c117061889082b3039c4cfaf.html" target="_top" xlink:title="executor">
<polygon fill="white" stroke="red" points="219.5,-124 160.5,-124 160.5,-88 219.5,-88 219.5,-124"/>
<text text-anchor="middle" x="190" y="-103.5" font-family="Helvetica,sans-Serif" font-size="10.00">executor</text>
</a>
</g>
</g>
<!-- dir_8e032a88fd97b977b14fa9c66aef0e48&#45;&gt;dir_d6b47c55c117061889082b3039c4cfaf -->
<g id="edge5" class="edge">
<title>dir_8e032a88fd97b977b14fa9c66aef0e48&#45;&gt;dir_d6b47c55c117061889082b3039c4cfaf</title>
<path fill="none" stroke="black" d="M125.92,-52.1C134.58,-60.8 146.19,-71.52 157.19,-81.03"/>
<polygon fill="black" stroke="black" points="155.16,-83.9 165.05,-87.7 159.69,-78.56 155.16,-83.9"/>
<g id="a_edge5&#45;headlabel"><a xlink:href="dir_000026_000013.html" target="_top" xlink:title="1">
<text text-anchor="middle" x="150.58" y="-81.24" font-family="Helvetica,sans-Serif" font-size="10.00">1</text>
</a>
</g>
</g>
<!-- dir_969e0ef425e5eabd9df1b99eb11357ce -->
<g id="node3" class="node">
<title>dir_969e0ef425e5eabd9df1b99eb11357ce</title>
<g id="a_node3"><a xlink:href="dir_969e0ef425e5eabd9df1b99eb11357ce.html" target="_top" xlink:title="src">
<polygon fill="white" stroke="black" points="70,-124 16,-124 16,-88 70,-88 70,-124"/>
<text text-anchor="middle" x="43" y="-103.5" font-family="Helvetica,sans-Serif" font-size="10.00">src</text>
</a>
</g>
</g>
<!-- dir_969e0ef425e5eabd9df1b99eb11357ce&#45;&gt;dir_8e032a88fd97b977b14fa9c66aef0e48 -->
<g id="edge3" class="edge">
<title>dir_969e0ef425e5eabd9df1b99eb11357ce&#45;&gt;dir_8e032a88fd97b977b14fa9c66aef0e48</title>
<path fill="none" stroke="black" d="M60.3,-87.7C68.86,-79.14 79.34,-68.66 88.7,-59.3"/>
<polygon fill="black" stroke="black" points="91.3,-61.65 95.9,-52.1 86.35,-56.7 91.3,-61.65"/>
<g id="a_edge3&#45;headlabel"><a xlink:href="dir_000027_000026.html" target="_top" xlink:title="7">
<text text-anchor="middle" x="90.77" y="-63.7" font-family="Helvetica,sans-Serif" font-size="10.00">7</text>
</a>
</g>
</g>
<!-- dir_969e0ef425e5eabd9df1b99eb11357ce&#45;&gt;dir_f8c6f0679b123304d35aae1bb0e284fb -->
<g id="edge2" class="edge">
<title>dir_969e0ef425e5eabd9df1b99eb11357ce&#45;&gt;dir_f8c6f0679b123304d35aae1bb0e284fb</title>
<path fill="none" stroke="black" d="M70.39,-91.98C90.77,-82.29 119.49,-68.59 148.66,-54.57"/>
<polygon fill="black" stroke="black" points="150.22,-57.7 157.71,-50.21 147.18,-51.39 150.22,-57.7"/>
<g id="a_edge2&#45;headlabel"><a xlink:href="dir_000027_000010.html" target="_top" xlink:title="1">
<text text-anchor="middle" x="148.21" y="-59.32" font-family="Helvetica,sans-Serif" font-size="10.00">1</text>
</a>
</g>
</g>
<!-- dir_f8c6f0679b123304d35aae1bb0e284fb&#45;&gt;dir_8e032a88fd97b977b14fa9c66aef0e48 -->
<g id="edge1" class="edge">
<title>dir_f8c6f0679b123304d35aae1bb0e284fb&#45;&gt;dir_8e032a88fd97b977b14fa9c66aef0e48</title>
<path fill="none" stroke="black" d="M157.62,-34C155.14,-34 152.67,-34 150.19,-34"/>
<polygon fill="black" stroke="black" points="150.02,-30.5 140.02,-34 150.02,-37.5 150.02,-30.5"/>
<g id="a_edge1&#45;headlabel"><a xlink:href="dir_000010_000026.html" target="_top" xlink:title="1">
<text text-anchor="middle" x="153.61" y="-25.16" font-family="Helvetica,sans-Serif" font-size="10.00">1</text>
</a>
</g>
</g>
<!-- dir_d6b47c55c117061889082b3039c4cfaf&#45;&gt;dir_8e032a88fd97b977b14fa9c66aef0e48 -->
<g id="edge7" class="edge">
<title>dir_d6b47c55c117061889082b3039c4cfaf&#45;&gt;dir_8e032a88fd97b977b14fa9c66aef0e48</title>
<path fill="none" stroke="black" d="M176.88,-87.7C168.18,-78.97 156.55,-68.24 145.56,-58.75"/>
<polygon fill="black" stroke="black" points="147.6,-55.9 137.71,-52.1 143.08,-61.24 147.6,-55.9"/>
<g id="a_edge7&#45;headlabel"><a xlink:href="dir_000013_000026.html" target="_top" xlink:title="4">
<text text-anchor="middle" x="152.18" y="-53.55" font-family="Helvetica,sans-Serif" font-size="10.00">4</text>
</a>
</g>
</g>
<!-- dir_d6b47c55c117061889082b3039c4cfaf&#45;&gt;dir_f8c6f0679b123304d35aae1bb0e284fb -->
<g id="edge6" class="edge">
<title>dir_d6b47c55c117061889082b3039c4cfaf&#45;&gt;dir_f8c6f0679b123304d35aae1bb0e284fb</title>
<path fill="none" stroke="black" d="M189.75,-87.7C189.64,-79.98 189.51,-70.71 189.39,-62.11"/>
<polygon fill="black" stroke="black" points="192.89,-62.05 189.24,-52.1 185.89,-62.15 192.89,-62.05"/>
<g id="a_edge6&#45;headlabel"><a xlink:href="dir_000013_000010.html" target="_top" xlink:title="5">
<text text-anchor="middle" x="195.78" y="-63.11" font-family="Helvetica,sans-Serif" font-size="10.00">5</text>
</a>
</g>
</g>
</g>
</svg>
