<?xml version="1.0" encoding="UTF-8" standalone="no"?>
<!DOCTYPE svg PUBLIC "-//W3C//DTD SVG 1.1//EN"
 "http://www.w3.org/Graphics/SVG/1.1/DTD/svg11.dtd">
<!-- Generated by graphviz version 2.43.0 (0)
 -->
<!-- Title: core/inc Pages: 1 -->
<svg width="139pt" height="295pt"
 viewBox="0.00 0.00 138.50 295.00" xmlns="http://www.w3.org/2000/svg" xmlns:xlink="http://www.w3.org/1999/xlink">
<g id="graph0" class="graph" transform="scale(1 1) rotate(0) translate(4 291)">
<title>core/inc</title>
<polygon fill="white" stroke="transparent" points="-4,4 -4,-291 134.5,-291 134.5,4 -4,4"/>
<g id="clust1" class="cluster">
<title>clusterdir_521dc20e1c32dad3a389d870e90503a0</title>
<g id="a_clust1"><a xlink:href="dir_521dc20e1c32dad3a389d870e90503a0.html" target="_top" xlink:title="core">
<polygon fill="#ddddee" stroke="black" points="8,-208 8,-279 78,-279 78,-208 8,-208"/>
<text text-anchor="middle" x="43" y="-267" font-family="Helvetica,sans-Serif" font-size="10.00">core</text>
</a>
</g>
</g>
<!-- dir_67d50c47b678e427d1ea4b25f05ca1f8 -->
<g id="node1" class="node">
<title>dir_67d50c47b678e427d1ea4b25f05ca1f8</title>
<g id="a_node1"><a xlink:href="dir_67d50c47b678e427d1ea4b25f05ca1f8.html" target="_top" xlink:title="inc">
<polygon fill="#eeeeff" stroke="black" points="70,-252 16,-252 16,-216 70,-216 70,-252"/>
<text text-anchor="middle" x="43" y="-231.5" font-family="Helvetica,sans-Serif" font-size="10.00">inc</text>
</a>
</g>
</g>
<!-- dir_f08c1ffadff6e9e08f49766ff6ac3753 -->
<g id="node2" class="node">
<title>dir_f08c1ffadff6e9e08f49766ff6ac3753</title>
<g id="a_node2"><a xlink:href="dir_f08c1ffadff6e9e08f49766ff6ac3753.html" target="_top" xlink:title="utils">
<polygon fill="white" stroke="red" points="80,-108 26,-108 26,-72 80,-72 80,-108"/>
<text text-anchor="middle" x="53" y="-87.5" font-family="Helvetica,sans-Serif" font-size="10.00">utils</text>
</a>
</g>
</g>
<!-- dir_67d50c47b678e427d1ea4b25f05ca1f8&#45;&gt;dir_f08c1ffadff6e9e08f49766ff6ac3753 -->
<g id="edge3" class="edge">
<title>dir_67d50c47b678e427d1ea4b25f05ca1f8&#45;&gt;dir_f08c1ffadff6e9e08f49766ff6ac3753</title>
<path fill="none" stroke="black" d="M44.21,-215.87C45.91,-191.67 49.04,-147.21 51.07,-118.39"/>
<polygon fill="black" stroke="black" points="54.58,-118.41 51.79,-108.19 47.6,-117.92 54.58,-118.41"/>
<g id="a_edge3&#45;headlabel"><a xlink:href="dir_000008_000025.html" target="_top" xlink:title="1">
<text text-anchor="middle" x="57.16" y="-119.7" font-family="Helvetica,sans-Serif" font-size="10.00">1</text>
</a>
</g>
</g>
<!-- dir_f8c6f0679b123304d35aae1bb0e284fb -->
<g id="node3" class="node">
<title>dir_f8c6f0679b123304d35aae1bb0e284fb</title>
<g id="a_node3"><a xlink:href="dir_f8c6f0679b123304d35aae1bb0e284fb.html" target="_top" xlink:title="database">
<polygon fill="white" stroke="red" points="84,-36 22,-36 22,0 84,0 84,-36"/>
<text text-anchor="middle" x="53" y="-15.5" font-family="Helvetica,sans-Serif" font-size="10.00">database</text>
</a>
</g>
</g>
<!-- dir_67d50c47b678e427d1ea4b25f05ca1f8&#45;&gt;dir_f8c6f0679b123304d35aae1bb0e284fb -->
<g id="edge4" class="edge">
<title>dir_67d50c47b678e427d1ea4b25f05ca1f8&#45;&gt;dir_f8c6f0679b123304d35aae1bb0e284fb</title>
<path fill="none" stroke="black" d="M35.16,-215.73C22.71,-185.86 1.35,-122.88 17,-72 20.01,-62.22 25.51,-52.62 31.32,-44.33"/>
<polygon fill="black" stroke="black" points="34.19,-46.33 37.39,-36.23 28.59,-42.13 34.19,-46.33"/>
<g id="a_edge4&#45;headlabel"><a xlink:href="dir_000008_000010.html" target="_top" xlink:title="1">
<text text-anchor="middle" x="34.31" y="-48.41" font-family="Helvetica,sans-Serif" font-size="10.00">1</text>
</a>
</g>
</g>
<!-- dir_d6b47c55c117061889082b3039c4cfaf -->
<g id="node4" class="node">
<title>dir_d6b47c55c117061889082b3039c4cfaf</title>
<g id="a_node4"><a xlink:href="dir_d6b47c55c117061889082b3039c4cfaf.html" target="_top" xlink:title="executor">
<polygon fill="white" stroke="red" points="130.5,-180 71.5,-180 71.5,-144 130.5,-144 130.5,-180"/>
<text text-anchor="middle" x="101" y="-159.5" font-family="Helvetica,sans-Serif" font-size="10.00">executor</text>
</a>
</g>
</g>
<!-- dir_67d50c47b678e427d1ea4b25f05ca1f8&#45;&gt;dir_d6b47c55c117061889082b3039c4cfaf -->
<g id="edge5" class="edge">
<title>dir_67d50c47b678e427d1ea4b25f05ca1f8&#45;&gt;dir_d6b47c55c117061889082b3039c4cfaf</title>
<path fill="none" stroke="black" d="M57.34,-215.7C64.29,-207.3 72.77,-197.07 80.4,-187.86"/>
<polygon fill="black" stroke="black" points="83.14,-190.04 86.83,-180.1 77.75,-185.57 83.14,-190.04"/>
<g id="a_edge5&#45;headlabel"><a xlink:href="dir_000008_000013.html" target="_top" xlink:title="1">
<text text-anchor="middle" x="83.04" y="-192.12" font-family="Helvetica,sans-Serif" font-size="10.00">1</text>
</a>
</g>
</g>
<!-- dir_f08c1ffadff6e9e08f49766ff6ac3753&#45;&gt;dir_f8c6f0679b123304d35aae1bb0e284fb -->
<g id="edge1" class="edge">
<title>dir_f08c1ffadff6e9e08f49766ff6ac3753&#45;&gt;dir_f8c6f0679b123304d35aae1bb0e284fb</title>
<path fill="none" stroke="black" d="M47.08,-71.7C46.29,-63.98 46.06,-54.71 46.4,-46.11"/>
<polygon fill="black" stroke="black" points="49.9,-46.32 47.1,-36.1 42.92,-45.84 49.9,-46.32"/>
<g id="a_edge1&#45;headlabel"><a xlink:href="dir_000025_000010.html" target="_top" xlink:title="2">
<text text-anchor="middle" x="52.48" y="-47.61" font-family="Helvetica,sans-Serif" font-size="10.00">2</text>
</a>
</g>
</g>
<!-- dir_f8c6f0679b123304d35aae1bb0e284fb&#45;&gt;dir_f08c1ffadff6e9e08f49766ff6ac3753 -->
<g id="edge2" class="edge">
<title>dir_f8c6f0679b123304d35aae1bb0e284fb&#45;&gt;dir_f08c1ffadff6e9e08f49766ff6ac3753</title>
<path fill="none" stroke="black" d="M58.9,-36.1C59.7,-43.79 59.94,-53.05 59.6,-61.67"/>
<polygon fill="black" stroke="black" points="56.11,-61.48 58.92,-71.7 63.09,-61.96 56.11,-61.48"/>
<g id="a_edge2&#45;headlabel"><a xlink:href="dir_000010_000025.html" target="_top" xlink:title="1">
<text text-anchor="middle" x="53.52" y="-55.2" font-family="Helvetica,sans-Serif" font-size="10.00">1</text>
</a>
</g>
</g>
<!-- dir_d6b47c55c117061889082b3039c4cfaf&#45;&gt;dir_f08c1ffadff6e9e08f49766ff6ac3753 -->
<g id="edge6" class="edge">
<title>dir_d6b47c55c117061889082b3039c4cfaf&#45;&gt;dir_f08c1ffadff6e9e08f49766ff6ac3753</title>
<path fill="none" stroke="black" d="M89.13,-143.7C83.5,-135.47 76.65,-125.48 70.43,-116.42"/>
<polygon fill="black" stroke="black" points="73.27,-114.37 64.73,-108.1 67.5,-118.33 73.27,-114.37"/>
<g id="a_edge6&#45;headlabel"><a xlink:href="dir_000013_000025.html" target="_top" xlink:title="4">
<text text-anchor="middle" x="77.65" y="-113.23" font-family="Helvetica,sans-Serif" font-size="10.00">4</text>
</a>
</g>
</g>
<!-- dir_d6b47c55c117061889082b3039c4cfaf&#45;&gt;dir_f8c6f0679b123304d35aae1bb0e284fb -->
<g id="edge7" class="edge">
<title>dir_d6b47c55c117061889082b3039c4cfaf&#45;&gt;dir_f8c6f0679b123304d35aae1bb0e284fb</title>
<path fill="none" stroke="black" d="M100.99,-143.69C100.46,-125.33 98.08,-95.74 89,-72 85.34,-62.44 79.66,-52.9 73.89,-44.61"/>
<polygon fill="black" stroke="black" points="76.65,-42.46 67.91,-36.47 71.01,-46.6 76.65,-42.46"/>
<g id="a_edge7&#45;headlabel"><a xlink:href="dir_000013_000010.html" target="_top" xlink:title="5">
<text text-anchor="middle" x="81.07" y="-41.18" font-family="Helvetica,sans-Serif" font-size="10.00">5</text>
</a>
</g>
</g>
</g>
</svg>
