<?xml version="1.0" encoding="UTF-8" standalone="no"?>
<!DOCTYPE svg PUBLIC "-//W3C//DTD SVG 1.1//EN"
 "http://www.w3.org/Graphics/SVG/1.1/DTD/svg11.dtd">
<!-- Generated by graphviz version 2.43.0 (0)
 -->
<!-- Title: executor/src Pages: 1 -->
<svg width="230pt" height="295pt"
 viewBox="0.00 0.00 230.00 295.00" xmlns="http://www.w3.org/2000/svg" xmlns:xlink="http://www.w3.org/1999/xlink">
<g id="graph0" class="graph" transform="scale(1 1) rotate(0) translate(4 291)">
<title>executor/src</title>
<polygon fill="white" stroke="transparent" points="-4,4 -4,-291 226,-291 226,4 -4,4"/>
<g id="clust1" class="cluster">
<title>clusterdir_7c2730fb8449c1fd3c0779d2ebca1b41</title>
<g id="a_clust1"><a xlink:href="dir_7c2730fb8449c1fd3c0779d2ebca1b41.html" target="_top" xlink:title="executor">
<polygon fill="#ddddee" stroke="black" points="91,-208 91,-279 161,-279 161,-208 91,-208"/>
<text text-anchor="middle" x="126" y="-267" font-family="Helvetica,sans-Serif" font-size="10.00">executor</text>
</a>
</g>
</g>
<!-- dir_fb1bafc4fab5556427f12e9eb41c74ae -->
<g id="node1" class="node">
<title>dir_fb1bafc4fab5556427f12e9eb41c74ae</title>
<g id="a_node1"><a xlink:href="dir_fb1bafc4fab5556427f12e9eb41c74ae.html" target="_top" xlink:title="src">
<polygon fill="#eeeeff" stroke="black" points="153,-252 99,-252 99,-216 153,-216 153,-252"/>
<text text-anchor="middle" x="126" y="-231.5" font-family="Helvetica,sans-Serif" font-size="10.00">src</text>
</a>
</g>
</g>
<!-- dir_46e3939a85035f9eacdef8d7cc3159ad -->
<g id="node2" class="node">
<title>dir_46e3939a85035f9eacdef8d7cc3159ad</title>
<g id="a_node2"><a xlink:href="dir_46e3939a85035f9eacdef8d7cc3159ad.html" target="_top" xlink:title="inc">
<polygon fill="none" stroke="black" points="54,-108 0,-108 0,-72 54,-72 54,-108"/>
<text text-anchor="middle" x="27" y="-87.5" font-family="Helvetica,sans-Serif" font-size="10.00">inc</text>
</a>
</g>
</g>
<!-- dir_fb1bafc4fab5556427f12e9eb41c74ae&#45;&gt;dir_46e3939a85035f9eacdef8d7cc3159ad -->
<g id="edge2" class="edge">
<title>dir_fb1bafc4fab5556427f12e9eb41c74ae&#45;&gt;dir_46e3939a85035f9eacdef8d7cc3159ad</title>
<path fill="none" stroke="black" d="M98.8,-228.08C72.97,-221.8 35.56,-208.18 18,-180 6.5,-161.54 10.27,-136.64 16.06,-117.87"/>
<polygon fill="black" stroke="black" points="19.45,-118.75 19.39,-108.15 12.83,-116.48 19.45,-118.75"/>
<g id="a_edge2&#45;headlabel"><a xlink:href="dir_000017_000014.html" target="_top" xlink:title="2">
<text text-anchor="middle" x="20.97" y="-120.57" font-family="Helvetica,sans-Serif" font-size="10.00">2</text>
</a>
</g>
</g>
<!-- dir_cbdb8362360e11eafe2fa3bc74cf0ffd -->
<g id="node3" class="node">
<title>dir_cbdb8362360e11eafe2fa3bc74cf0ffd</title>
<g id="a_node3"><a xlink:href="dir_cbdb8362360e11eafe2fa3bc74cf0ffd.html" target="_top" xlink:title="utils">
<polygon fill="white" stroke="red" points="191,-108 137,-108 137,-72 191,-72 191,-108"/>
<text text-anchor="middle" x="164" y="-87.5" font-family="Helvetica,sans-Serif" font-size="10.00">utils</text>
</a>
</g>
</g>
<!-- dir_fb1bafc4fab5556427f12e9eb41c74ae&#45;&gt;dir_cbdb8362360e11eafe2fa3bc74cf0ffd -->
<g id="edge3" class="edge">
<title>dir_fb1bafc4fab5556427f12e9eb41c74ae&#45;&gt;dir_cbdb8362360e11eafe2fa3bc74cf0ffd</title>
<path fill="none" stroke="black" d="M141.49,-215.74C149.22,-205.98 157.8,-193.14 162,-180 168.39,-160.04 168.57,-136.25 167.33,-118.29"/>
<polygon fill="black" stroke="black" points="170.8,-117.86 166.44,-108.2 163.83,-118.47 170.8,-117.86"/>
<g id="a_edge3&#45;headlabel"><a xlink:href="dir_000017_000021.html" target="_top" xlink:title="2">
<text text-anchor="middle" x="173.94" y="-118.69" font-family="Helvetica,sans-Serif" font-size="10.00">2</text>
</a>
</g>
</g>
<!-- dir_0fd6504613c9aa2fea1e8d6c11a26c90 -->
<g id="node4" class="node">
<title>dir_0fd6504613c9aa2fea1e8d6c11a26c90</title>
<g id="a_node4"><a xlink:href="dir_0fd6504613c9aa2fea1e8d6c11a26c90.html" target="_top" xlink:title="proto">
<polygon fill="white" stroke="red" points="153,-180 99,-180 99,-144 153,-144 153,-180"/>
<text text-anchor="middle" x="126" y="-159.5" font-family="Helvetica,sans-Serif" font-size="10.00">proto</text>
</a>
</g>
</g>
<!-- dir_fb1bafc4fab5556427f12e9eb41c74ae&#45;&gt;dir_0fd6504613c9aa2fea1e8d6c11a26c90 -->
<g id="edge4" class="edge">
<title>dir_fb1bafc4fab5556427f12e9eb41c74ae&#45;&gt;dir_0fd6504613c9aa2fea1e8d6c11a26c90</title>
<path fill="none" stroke="black" d="M126,-215.7C126,-207.98 126,-198.71 126,-190.11"/>
<polygon fill="black" stroke="black" points="129.5,-190.1 126,-180.1 122.5,-190.1 129.5,-190.1"/>
<g id="a_edge4&#45;headlabel"><a xlink:href="dir_000017_000015.html" target="_top" xlink:title="1">
<text text-anchor="middle" x="132.34" y="-191.2" font-family="Helvetica,sans-Serif" font-size="10.00">1</text>
</a>
</g>
</g>
<!-- dir_f32c53f2c0f0ccaeb11076e30674d5f4 -->
<g id="node5" class="node">
<title>dir_f32c53f2c0f0ccaeb11076e30674d5f4</title>
<g id="a_node5"><a xlink:href="dir_f32c53f2c0f0ccaeb11076e30674d5f4.html" target="_top" xlink:title="database">
<polygon fill="white" stroke="red" points="222,-36 160,-36 160,0 222,0 222,-36"/>
<text text-anchor="middle" x="191" y="-15.5" font-family="Helvetica,sans-Serif" font-size="10.00">database</text>
</a>
</g>
</g>
<!-- dir_fb1bafc4fab5556427f12e9eb41c74ae&#45;&gt;dir_f32c53f2c0f0ccaeb11076e30674d5f4 -->
<g id="edge5" class="edge">
<title>dir_fb1bafc4fab5556427f12e9eb41c74ae&#45;&gt;dir_f32c53f2c0f0ccaeb11076e30674d5f4</title>
<path fill="none" stroke="black" d="M147.71,-215.87C158.5,-206.34 170.91,-193.66 179,-180 203.91,-137.92 204.11,-120.73 200,-72 199.28,-63.5 197.93,-54.31 196.49,-46.01"/>
<polygon fill="black" stroke="black" points="199.91,-45.29 194.65,-36.09 193.03,-46.56 199.91,-45.29"/>
<g id="a_edge5&#45;headlabel"><a xlink:href="dir_000017_000010.html" target="_top" xlink:title="4">
<text text-anchor="middle" x="203.36" y="-45.81" font-family="Helvetica,sans-Serif" font-size="10.00">4</text>
</a>
</g>
</g>
<!-- dir_4270bfced15e0e73154b13468c7c9ad9 -->
<g id="node6" class="node">
<title>dir_4270bfced15e0e73154b13468c7c9ad9</title>
<g id="a_node6"><a xlink:href="dir_4270bfced15e0e73154b13468c7c9ad9.html" target="_top" xlink:title="core">
<polygon fill="white" stroke="red" points="81,-180 27,-180 27,-144 81,-144 81,-180"/>
<text text-anchor="middle" x="54" y="-159.5" font-family="Helvetica,sans-Serif" font-size="10.00">core</text>
</a>
</g>
</g>
<!-- dir_fb1bafc4fab5556427f12e9eb41c74ae&#45;&gt;dir_4270bfced15e0e73154b13468c7c9ad9 -->
<g id="edge6" class="edge">
<title>dir_fb1bafc4fab5556427f12e9eb41c74ae&#45;&gt;dir_4270bfced15e0e73154b13468c7c9ad9</title>
<path fill="none" stroke="black" d="M108.2,-215.7C99.4,-207.14 88.62,-196.66 79,-187.3"/>
<polygon fill="black" stroke="black" points="81.2,-184.57 71.59,-180.1 76.32,-189.58 81.2,-184.57"/>
<g id="a_edge6&#45;headlabel"><a xlink:href="dir_000017_000007.html" target="_top" xlink:title="2">
<text text-anchor="middle" x="85.76" y="-182.54" font-family="Helvetica,sans-Serif" font-size="10.00">2</text>
</a>
</g>
</g>
<!-- dir_cbdb8362360e11eafe2fa3bc74cf0ffd&#45;&gt;dir_f32c53f2c0f0ccaeb11076e30674d5f4 -->
<g id="edge1" class="edge">
<title>dir_cbdb8362360e11eafe2fa3bc74cf0ffd&#45;&gt;dir_f32c53f2c0f0ccaeb11076e30674d5f4</title>
<path fill="none" stroke="black" d="M170.67,-71.7C173.71,-63.81 177.38,-54.3 180.76,-45.55"/>
<polygon fill="black" stroke="black" points="184.07,-46.69 184.4,-36.1 177.54,-44.17 184.07,-46.69"/>
<g id="a_edge1&#45;headlabel"><a xlink:href="dir_000021_000010.html" target="_top" xlink:title="1">
<text text-anchor="middle" x="185.42" y="-48.57" font-family="Helvetica,sans-Serif" font-size="10.00">1</text>
</a>
</g>
</g>
<!-- dir_4270bfced15e0e73154b13468c7c9ad9&#45;&gt;dir_46e3939a85035f9eacdef8d7cc3159ad -->
<g id="edge7" class="edge">
<title>dir_4270bfced15e0e73154b13468c7c9ad9&#45;&gt;dir_46e3939a85035f9eacdef8d7cc3159ad</title>
<path fill="none" stroke="black" d="M47.33,-143.7C44.29,-135.81 40.62,-126.3 37.24,-117.55"/>
<polygon fill="black" stroke="black" points="40.46,-116.17 33.6,-108.1 33.93,-118.69 40.46,-116.17"/>
<g id="a_edge7&#45;headlabel"><a xlink:href="dir_000007_000014.html" target="_top" xlink:title="1">
<text text-anchor="middle" x="44.4" y="-116.01" font-family="Helvetica,sans-Serif" font-size="10.00">1</text>
</a>
</g>
</g>
<!-- dir_4270bfced15e0e73154b13468c7c9ad9&#45;&gt;dir_cbdb8362360e11eafe2fa3bc74cf0ffd -->
<g id="edge8" class="edge">
<title>dir_4270bfced15e0e73154b13468c7c9ad9&#45;&gt;dir_cbdb8362360e11eafe2fa3bc74cf0ffd</title>
<path fill="none" stroke="black" d="M80.91,-143.88C95.16,-134.81 112.85,-123.55 128.24,-113.76"/>
<polygon fill="black" stroke="black" points="130.43,-116.51 136.99,-108.19 126.67,-110.61 130.43,-116.51"/>
<g id="a_edge8&#45;headlabel"><a xlink:href="dir_000007_000021.html" target="_top" xlink:title="1">
<text text-anchor="middle" x="128.92" y="-118.34" font-family="Helvetica,sans-Serif" font-size="10.00">1</text>
</a>
</g>
</g>
</g>
</svg>
