<?xml version="1.0" encoding="UTF-8" standalone="no"?>
<!DOCTYPE svg PUBLIC "-//W3C//DTD SVG 1.1//EN"
 "http://www.w3.org/Graphics/SVG/1.1/DTD/svg11.dtd">
<!-- Generated by graphviz version 2.43.0 (0)
 -->
<!-- Title: runtime Pages: 1 -->
<svg width="168pt" height="276pt"
 viewBox="0.00 0.00 168.00 276.00" xmlns="http://www.w3.org/2000/svg" xmlns:xlink="http://www.w3.org/1999/xlink">
<g id="graph0" class="graph" transform="scale(1 1) rotate(0) translate(4 272)">
<title>runtime</title>
<polygon fill="white" stroke="transparent" points="-4,4 -4,-272 164,-272 164,4 -4,4"/>
<g id="clust1" class="cluster">
<title>clusterdir_c6f90d7b3aff386cab2eb5eb40ce2f26</title>
<g id="a_clust1"><a xlink:href="dir_c6f90d7b3aff386cab2eb5eb40ce2f26.html" target="_top">
<polygon fill="#eeeeff" stroke="black" points="8,-136 8,-260 152,-260 152,-136 8,-136"/>
</a>
</g>
</g>
<!-- dir_c6f90d7b3aff386cab2eb5eb40ce2f26 -->
<g id="node1" class="node">
<title>dir_c6f90d7b3aff386cab2eb5eb40ce2f26</title>
<text text-anchor="middle" x="116" y="-231.5" font-family="Helvetica,sans-Serif" font-size="10.00">runtime</text>
</g>
<!-- dir_c2d23aafdf04533449ab55d5abc8d9ae -->
<g id="node2" class="node">
<title>dir_c2d23aafdf04533449ab55d5abc8d9ae</title>
<g id="a_node2"><a xlink:href="dir_c2d23aafdf04533449ab55d5abc8d9ae.html" target="_top" xlink:title="inc">
<polygon fill="white" stroke="black" points="70,-180 16,-180 16,-144 70,-144 70,-180"/>
<text text-anchor="middle" x="43" y="-159.5" font-family="Helvetica,sans-Serif" font-size="10.00">inc</text>
</a>
</g>
</g>
<!-- dir_f08c1ffadff6e9e08f49766ff6ac3753 -->
<g id="node4" class="node">
<title>dir_f08c1ffadff6e9e08f49766ff6ac3753</title>
<g id="a_node4"><a xlink:href="dir_f08c1ffadff6e9e08f49766ff6ac3753.html" target="_top" xlink:title="utils">
<polygon fill="white" stroke="red" points="108,-108 54,-108 54,-72 108,-72 108,-108"/>
<text text-anchor="middle" x="81" y="-87.5" font-family="Helvetica,sans-Serif" font-size="10.00">utils</text>
</a>
</g>
</g>
<!-- dir_c2d23aafdf04533449ab55d5abc8d9ae&#45;&gt;dir_f08c1ffadff6e9e08f49766ff6ac3753 -->
<g id="edge5" class="edge">
<title>dir_c2d23aafdf04533449ab55d5abc8d9ae&#45;&gt;dir_f08c1ffadff6e9e08f49766ff6ac3753</title>
<path fill="none" stroke="black" d="M52.39,-143.7C56.76,-135.64 62.06,-125.89 66.9,-116.98"/>
<polygon fill="black" stroke="black" points="70.02,-118.56 71.71,-108.1 63.87,-115.22 70.02,-118.56"/>
<g id="a_edge5&#45;headlabel"><a xlink:href="dir_000019_000021.html" target="_top" xlink:title="1">
<text text-anchor="middle" x="70.8" y="-120.58" font-family="Helvetica,sans-Serif" font-size="10.00">1</text>
</a>
</g>
</g>
<!-- dir_1dbc2d7b85be1956d8759e1bd297c297 -->
<g id="node3" class="node">
<title>dir_1dbc2d7b85be1956d8759e1bd297c297</title>
<g id="a_node3"><a xlink:href="dir_1dbc2d7b85be1956d8759e1bd297c297.html" target="_top" xlink:title="src">
<polygon fill="white" stroke="black" points="70,-252 16,-252 16,-216 70,-216 70,-252"/>
<text text-anchor="middle" x="43" y="-231.5" font-family="Helvetica,sans-Serif" font-size="10.00">src</text>
</a>
</g>
</g>
<!-- dir_1dbc2d7b85be1956d8759e1bd297c297&#45;&gt;dir_c2d23aafdf04533449ab55d5abc8d9ae -->
<g id="edge4" class="edge">
<title>dir_1dbc2d7b85be1956d8759e1bd297c297&#45;&gt;dir_c2d23aafdf04533449ab55d5abc8d9ae</title>
<path fill="none" stroke="black" d="M43,-215.7C43,-207.98 43,-198.71 43,-190.11"/>
<polygon fill="black" stroke="black" points="46.5,-190.1 43,-180.1 39.5,-190.1 46.5,-190.1"/>
<g id="a_edge4&#45;headlabel"><a xlink:href="dir_000020_000019.html" target="_top" xlink:title="9">
<text text-anchor="middle" x="49.34" y="-191.2" font-family="Helvetica,sans-Serif" font-size="10.00">9</text>
</a>
</g>
</g>
<!-- dir_1dbc2d7b85be1956d8759e1bd297c297&#45;&gt;dir_f08c1ffadff6e9e08f49766ff6ac3753 -->
<g id="edge2" class="edge">
<title>dir_1dbc2d7b85be1956d8759e1bd297c297&#45;&gt;dir_f08c1ffadff6e9e08f49766ff6ac3753</title>
<path fill="none" stroke="black" d="M58.49,-215.74C66.22,-205.98 74.8,-193.14 79,-180 85.39,-160.04 85.57,-136.25 84.33,-118.29"/>
<polygon fill="black" stroke="black" points="87.8,-117.86 83.44,-108.2 80.83,-118.47 87.8,-117.86"/>
<g id="a_edge2&#45;headlabel"><a xlink:href="dir_000020_000021.html" target="_top" xlink:title="10">
<text text-anchor="middle" x="90.94" y="-118.69" font-family="Helvetica,sans-Serif" font-size="10.00">10</text>
</a>
</g>
</g>
<!-- dir_f8c6f0679b123304d35aae1bb0e284fb -->
<g id="node5" class="node">
<title>dir_f8c6f0679b123304d35aae1bb0e284fb</title>
<g id="a_node5"><a xlink:href="dir_f8c6f0679b123304d35aae1bb0e284fb.html" target="_top" xlink:title="database">
<polygon fill="white" stroke="red" points="139,-36 77,-36 77,0 139,0 139,-36"/>
<text text-anchor="middle" x="108" y="-15.5" font-family="Helvetica,sans-Serif" font-size="10.00">database</text>
</a>
</g>
</g>
<!-- dir_1dbc2d7b85be1956d8759e1bd297c297&#45;&gt;dir_f8c6f0679b123304d35aae1bb0e284fb -->
<g id="edge3" class="edge">
<title>dir_1dbc2d7b85be1956d8759e1bd297c297&#45;&gt;dir_f8c6f0679b123304d35aae1bb0e284fb</title>
<path fill="none" stroke="black" d="M63.96,-215.98C74.58,-206.4 86.9,-193.63 95,-180 120.03,-137.89 121.12,-120.81 117,-72 116.28,-63.5 114.93,-54.31 113.49,-46.01"/>
<polygon fill="black" stroke="black" points="116.91,-45.29 111.65,-36.09 110.03,-46.56 116.91,-45.29"/>
<g id="a_edge3&#45;headlabel"><a xlink:href="dir_000020_000010.html" target="_top" xlink:title="4">
<text text-anchor="middle" x="120.36" y="-45.81" font-family="Helvetica,sans-Serif" font-size="10.00">4</text>
</a>
</g>
</g>
<!-- dir_f08c1ffadff6e9e08f49766ff6ac3753&#45;&gt;dir_f8c6f0679b123304d35aae1bb0e284fb -->
<g id="edge1" class="edge">
<title>dir_f08c1ffadff6e9e08f49766ff6ac3753&#45;&gt;dir_f8c6f0679b123304d35aae1bb0e284fb</title>
<path fill="none" stroke="black" d="M87.67,-71.7C90.71,-63.81 94.38,-54.3 97.76,-45.55"/>
<polygon fill="black" stroke="black" points="101.07,-46.69 101.4,-36.1 94.54,-44.17 101.07,-46.69"/>
<g id="a_edge1&#45;headlabel"><a xlink:href="dir_000021_000010.html" target="_top" xlink:title="1">
<text text-anchor="middle" x="102.42" y="-48.57" font-family="Helvetica,sans-Serif" font-size="10.00">1</text>
</a>
</g>
</g>
</g>
</svg>
