<?xml version="1.0" encoding="UTF-8" standalone="no"?>
<!DOCTYPE svg PUBLIC "-//W3C//DTD SVG 1.1//EN"
 "http://www.w3.org/Graphics/SVG/1.1/DTD/svg11.dtd">
<!-- Generated by graphviz version 2.43.0 (0)
 -->
<!-- Title: unitTest Pages: 1 -->
<svg width="276pt" height="404pt"
 viewBox="0.00 0.00 275.99 404.00" xmlns="http://www.w3.org/2000/svg" xmlns:xlink="http://www.w3.org/1999/xlink">
<g id="graph0" class="graph" transform="scale(1 1) rotate(0) translate(4 400)">
<title>unitTest</title>
<polygon fill="white" stroke="transparent" points="-4,4 -4,-400 271.99,-400 271.99,4 -4,4"/>
<!-- dir_1e323566c9ac0e85ba594b702d644e87 -->
<g id="node1" class="node">
<title>dir_1e323566c9ac0e85ba594b702d644e87</title>
<g id="a_node1"><a xlink:href="dir_1e323566c9ac0e85ba594b702d644e87.html" target="_top" xlink:title="unitTest">
<polygon fill="#eeeeff" stroke="black" points="197.5,-396 142.5,-396 142.5,-360 197.5,-360 197.5,-396"/>
<text text-anchor="middle" x="170" y="-375.5" font-family="Helvetica,sans-Serif" font-size="10.00">unitTest</text>
</a>
</g>
</g>
<!-- dir_f08c1ffadff6e9e08f49766ff6ac3753 -->
<g id="node2" class="node">
<title>dir_f08c1ffadff6e9e08f49766ff6ac3753</title>
<g id="a_node2"><a xlink:href="dir_f08c1ffadff6e9e08f49766ff6ac3753.html" target="_top" xlink:title="utils">
<polygon fill="white" stroke="red" points="161,-108 107,-108 107,-72 161,-72 161,-108"/>
<text text-anchor="middle" x="134" y="-87.5" font-family="Helvetica,sans-Serif" font-size="10.00">utils</text>
</a>
</g>
</g>
<!-- dir_1e323566c9ac0e85ba594b702d644e87&#45;&gt;dir_f08c1ffadff6e9e08f49766ff6ac3753 -->
<g id="edge7" class="edge">
<title>dir_1e323566c9ac0e85ba594b702d644e87&#45;&gt;dir_f08c1ffadff6e9e08f49766ff6ac3753</title>
<path fill="none" stroke="black" d="M192.21,-359.79C226.13,-331.27 284.71,-271.81 263,-216 245.38,-170.7 201.4,-134.23 169.69,-112.63"/>
<polygon fill="black" stroke="black" points="171.37,-109.54 161.11,-106.93 167.51,-115.38 171.37,-109.54"/>
<g id="a_edge7&#45;headlabel"><a xlink:href="dir_000024_000025.html" target="_top" xlink:title="1">
<text text-anchor="middle" x="175.94" y="-106.66" font-family="Helvetica,sans-Serif" font-size="10.00">1</text>
</a>
</g>
</g>
<!-- dir_f8c6f0679b123304d35aae1bb0e284fb -->
<g id="node3" class="node">
<title>dir_f8c6f0679b123304d35aae1bb0e284fb</title>
<g id="a_node3"><a xlink:href="dir_f8c6f0679b123304d35aae1bb0e284fb.html" target="_top" xlink:title="database">
<polygon fill="white" stroke="red" points="110,-36 48,-36 48,0 110,0 110,-36"/>
<text text-anchor="middle" x="79" y="-15.5" font-family="Helvetica,sans-Serif" font-size="10.00">database</text>
</a>
</g>
</g>
<!-- dir_1e323566c9ac0e85ba594b702d644e87&#45;&gt;dir_f8c6f0679b123304d35aae1bb0e284fb -->
<g id="edge8" class="edge">
<title>dir_1e323566c9ac0e85ba594b702d644e87&#45;&gt;dir_f8c6f0679b123304d35aae1bb0e284fb</title>
<path fill="none" stroke="black" d="M142.31,-368.26C94.14,-351.12 0,-308.26 0,-235 0,-235 0,-235 0,-161 0,-115.24 31.72,-70.45 54.96,-43.78"/>
<polygon fill="black" stroke="black" points="57.78,-45.88 61.86,-36.11 52.57,-41.21 57.78,-45.88"/>
<g id="a_edge8&#45;headlabel"><a xlink:href="dir_000024_000010.html" target="_top" xlink:title="1">
<text text-anchor="middle" x="57.49" y="-47.96" font-family="Helvetica,sans-Serif" font-size="10.00">1</text>
</a>
</g>
</g>
<!-- dir_521dc20e1c32dad3a389d870e90503a0 -->
<g id="node4" class="node">
<title>dir_521dc20e1c32dad3a389d870e90503a0</title>
<g id="a_node4"><a xlink:href="dir_521dc20e1c32dad3a389d870e90503a0.html" target="_top" xlink:title="core">
<polygon fill="white" stroke="red" points="142,-324 88,-324 88,-288 142,-288 142,-324"/>
<text text-anchor="middle" x="115" y="-303.5" font-family="Helvetica,sans-Serif" font-size="10.00">core</text>
</a>
</g>
</g>
<!-- dir_1e323566c9ac0e85ba594b702d644e87&#45;&gt;dir_521dc20e1c32dad3a389d870e90503a0 -->
<g id="edge9" class="edge">
<title>dir_1e323566c9ac0e85ba594b702d644e87&#45;&gt;dir_521dc20e1c32dad3a389d870e90503a0</title>
<path fill="none" stroke="black" d="M156.4,-359.7C149.88,-351.39 141.93,-341.28 134.75,-332.14"/>
<polygon fill="black" stroke="black" points="137.37,-329.81 128.44,-324.1 131.87,-334.13 137.37,-329.81"/>
<g id="a_edge9&#45;headlabel"><a xlink:href="dir_000024_000007.html" target="_top" xlink:title="1">
<text text-anchor="middle" x="141.82" y="-328.38" font-family="Helvetica,sans-Serif" font-size="10.00">1</text>
</a>
</g>
</g>
<!-- dir_d6b47c55c117061889082b3039c4cfaf -->
<g id="node5" class="node">
<title>dir_d6b47c55c117061889082b3039c4cfaf</title>
<g id="a_node5"><a xlink:href="dir_d6b47c55c117061889082b3039c4cfaf.html" target="_top" xlink:title="executor">
<polygon fill="white" stroke="red" points="163.5,-180 104.5,-180 104.5,-144 163.5,-144 163.5,-180"/>
<text text-anchor="middle" x="134" y="-159.5" font-family="Helvetica,sans-Serif" font-size="10.00">executor</text>
</a>
</g>
</g>
<!-- dir_1e323566c9ac0e85ba594b702d644e87&#45;&gt;dir_d6b47c55c117061889082b3039c4cfaf -->
<g id="edge10" class="edge">
<title>dir_1e323566c9ac0e85ba594b702d644e87&#45;&gt;dir_d6b47c55c117061889082b3039c4cfaf</title>
<path fill="none" stroke="black" d="M168.37,-359.97C165.38,-330.46 158.38,-268.01 148,-216 146.3,-207.47 144.03,-198.27 141.81,-189.98"/>
<polygon fill="black" stroke="black" points="145.11,-188.77 139.08,-180.06 138.36,-190.63 145.11,-188.77"/>
<g id="a_edge10&#45;headlabel"><a xlink:href="dir_000024_000013.html" target="_top" xlink:title="1">
<text text-anchor="middle" x="148.8" y="-188.98" font-family="Helvetica,sans-Serif" font-size="10.00">1</text>
</a>
</g>
</g>
<!-- dir_c6f90d7b3aff386cab2eb5eb40ce2f26 -->
<g id="node6" class="node">
<title>dir_c6f90d7b3aff386cab2eb5eb40ce2f26</title>
<g id="a_node6"><a xlink:href="dir_c6f90d7b3aff386cab2eb5eb40ce2f26.html" target="_top" xlink:title="runtime">
<polygon fill="white" stroke="red" points="253.5,-252 198.5,-252 198.5,-216 253.5,-216 253.5,-252"/>
<text text-anchor="middle" x="226" y="-231.5" font-family="Helvetica,sans-Serif" font-size="10.00">runtime</text>
</a>
</g>
</g>
<!-- dir_1e323566c9ac0e85ba594b702d644e87&#45;&gt;dir_c6f90d7b3aff386cab2eb5eb40ce2f26 -->
<g id="edge11" class="edge">
<title>dir_1e323566c9ac0e85ba594b702d644e87&#45;&gt;dir_c6f90d7b3aff386cab2eb5eb40ce2f26</title>
<path fill="none" stroke="black" d="M176.75,-359.87C186.38,-335.46 204.14,-290.43 215.5,-261.64"/>
<polygon fill="black" stroke="black" points="218.81,-262.78 219.22,-252.19 212.3,-260.21 218.81,-262.78"/>
<g id="a_edge11&#45;headlabel"><a xlink:href="dir_000024_000018.html" target="_top" xlink:title="1">
<text text-anchor="middle" x="220.13" y="-264.66" font-family="Helvetica,sans-Serif" font-size="10.00">1</text>
</a>
</g>
</g>
<!-- dir_f08c1ffadff6e9e08f49766ff6ac3753&#45;&gt;dir_f8c6f0679b123304d35aae1bb0e284fb -->
<g id="edge1" class="edge">
<title>dir_f08c1ffadff6e9e08f49766ff6ac3753&#45;&gt;dir_f8c6f0679b123304d35aae1bb0e284fb</title>
<path fill="none" stroke="black" d="M114.49,-71.7C107.18,-63.47 99.13,-53.48 92.45,-44.42"/>
<polygon fill="black" stroke="black" points="95.19,-42.23 86.54,-36.1 89.48,-46.28 95.19,-42.23"/>
<g id="a_edge1&#45;headlabel"><a xlink:href="dir_000025_000010.html" target="_top" xlink:title="2">
<text text-anchor="middle" x="99.59" y="-41.01" font-family="Helvetica,sans-Serif" font-size="10.00">2</text>
</a>
</g>
</g>
<!-- dir_f8c6f0679b123304d35aae1bb0e284fb&#45;&gt;dir_f08c1ffadff6e9e08f49766ff6ac3753 -->
<g id="edge2" class="edge">
<title>dir_f8c6f0679b123304d35aae1bb0e284fb&#45;&gt;dir_f08c1ffadff6e9e08f49766ff6ac3753</title>
<path fill="none" stroke="black" d="M98.33,-36.1C105.63,-44.3 113.69,-54.28 120.38,-63.36"/>
<polygon fill="black" stroke="black" points="117.67,-65.58 126.32,-71.7 123.37,-61.52 117.67,-65.58"/>
<g id="a_edge2&#45;headlabel"><a xlink:href="dir_000010_000025.html" target="_top" xlink:title="1">
<text text-anchor="middle" x="113.27" y="-61.8" font-family="Helvetica,sans-Serif" font-size="10.00">1</text>
</a>
</g>
</g>
<!-- dir_521dc20e1c32dad3a389d870e90503a0&#45;&gt;dir_f08c1ffadff6e9e08f49766ff6ac3753 -->
<g id="edge3" class="edge">
<title>dir_521dc20e1c32dad3a389d870e90503a0&#45;&gt;dir_f08c1ffadff6e9e08f49766ff6ac3753</title>
<path fill="none" stroke="black" d="M108.02,-287.61C97.01,-257.56 78.48,-194.31 95,-144 98.31,-133.91 104.37,-124.15 110.73,-115.82"/>
<polygon fill="black" stroke="black" points="113.5,-117.97 117.11,-108.01 108.08,-113.54 113.5,-117.97"/>
<g id="a_edge3&#45;headlabel"><a xlink:href="dir_000007_000025.html" target="_top" xlink:title="2">
<text text-anchor="middle" x="113.42" y="-120.05" font-family="Helvetica,sans-Serif" font-size="10.00">2</text>
</a>
</g>
</g>
<!-- dir_521dc20e1c32dad3a389d870e90503a0&#45;&gt;dir_f8c6f0679b123304d35aae1bb0e284fb -->
<g id="edge4" class="edge">
<title>dir_521dc20e1c32dad3a389d870e90503a0&#45;&gt;dir_f8c6f0679b123304d35aae1bb0e284fb</title>
<path fill="none" stroke="black" d="M103.28,-287.68C97.21,-277.71 90.37,-264.67 87,-252 67.75,-179.71 72.13,-90.34 76.05,-46.25"/>
<polygon fill="black" stroke="black" points="79.56,-46.33 77.02,-36.05 72.59,-45.67 79.56,-46.33"/>
<g id="a_edge4&#45;headlabel"><a xlink:href="dir_000007_000010.html" target="_top" xlink:title="3">
<text text-anchor="middle" x="82.04" y="-47.68" font-family="Helvetica,sans-Serif" font-size="10.00">3</text>
</a>
</g>
</g>
<!-- dir_521dc20e1c32dad3a389d870e90503a0&#45;&gt;dir_d6b47c55c117061889082b3039c4cfaf -->
<g id="edge5" class="edge">
<title>dir_521dc20e1c32dad3a389d870e90503a0&#45;&gt;dir_d6b47c55c117061889082b3039c4cfaf</title>
<path fill="none" stroke="black" d="M112.71,-287.87C113.39,-263.56 119.09,-218.82 124.95,-190.01"/>
<polygon fill="black" stroke="black" points="128.38,-190.71 127.11,-180.19 121.55,-189.21 128.38,-190.71"/>
<g id="a_edge5&#45;headlabel"><a xlink:href="dir_000007_000013.html" target="_top" xlink:title="2">
<text text-anchor="middle" x="130.39" y="-192.33" font-family="Helvetica,sans-Serif" font-size="10.00">2</text>
</a>
</g>
</g>
<!-- dir_521dc20e1c32dad3a389d870e90503a0&#45;&gt;dir_c6f90d7b3aff386cab2eb5eb40ce2f26 -->
<g id="edge6" class="edge">
<title>dir_521dc20e1c32dad3a389d870e90503a0&#45;&gt;dir_c6f90d7b3aff386cab2eb5eb40ce2f26</title>
<path fill="none" stroke="black" d="M142.15,-287.88C156.53,-278.81 174.38,-267.55 189.91,-257.76"/>
<polygon fill="black" stroke="black" points="192.15,-260.48 198.74,-252.19 188.42,-254.56 192.15,-260.48"/>
<g id="a_edge6&#45;headlabel"><a xlink:href="dir_000007_000018.html" target="_top" xlink:title="1">
<text text-anchor="middle" x="190.62" y="-262.3" font-family="Helvetica,sans-Serif" font-size="10.00">1</text>
</a>
</g>
</g>
<!-- dir_d6b47c55c117061889082b3039c4cfaf&#45;&gt;dir_f08c1ffadff6e9e08f49766ff6ac3753 -->
<g id="edge12" class="edge">
<title>dir_d6b47c55c117061889082b3039c4cfaf&#45;&gt;dir_f08c1ffadff6e9e08f49766ff6ac3753</title>
<path fill="none" stroke="black" d="M134,-143.7C134,-135.98 134,-126.71 134,-118.11"/>
<polygon fill="black" stroke="black" points="137.5,-118.1 134,-108.1 130.5,-118.1 137.5,-118.1"/>
<g id="a_edge12&#45;headlabel"><a xlink:href="dir_000013_000025.html" target="_top" xlink:title="4">
<text text-anchor="middle" x="140.34" y="-119.2" font-family="Helvetica,sans-Serif" font-size="10.00">4</text>
</a>
</g>
</g>
<!-- dir_d6b47c55c117061889082b3039c4cfaf&#45;&gt;dir_f8c6f0679b123304d35aae1bb0e284fb -->
<g id="edge13" class="edge">
<title>dir_d6b47c55c117061889082b3039c4cfaf&#45;&gt;dir_f8c6f0679b123304d35aae1bb0e284fb</title>
<path fill="none" stroke="black" d="M119.84,-143.85C112.31,-133.93 103.5,-120.89 98,-108 89.59,-88.29 84.76,-64.49 82.07,-46.46"/>
<polygon fill="black" stroke="black" points="85.51,-45.76 80.7,-36.33 78.57,-46.71 85.51,-45.76"/>
<g id="a_edge13&#45;headlabel"><a xlink:href="dir_000013_000010.html" target="_top" xlink:title="5">
<text text-anchor="middle" x="88.81" y="-46.44" font-family="Helvetica,sans-Serif" font-size="10.00">5</text>
</a>
</g>
</g>
<!-- dir_d6b47c55c117061889082b3039c4cfaf&#45;&gt;dir_521dc20e1c32dad3a389d870e90503a0 -->
<g id="edge14" class="edge">
<title>dir_d6b47c55c117061889082b3039c4cfaf&#45;&gt;dir_521dc20e1c32dad3a389d870e90503a0</title>
<path fill="none" stroke="black" d="M136.29,-180.19C135.6,-204.53 129.89,-249.28 124.03,-278.06"/>
<polygon fill="black" stroke="black" points="120.6,-277.35 121.88,-287.87 127.44,-278.86 120.6,-277.35"/>
<g id="a_edge14&#45;headlabel"><a xlink:href="dir_000013_000007.html" target="_top" xlink:title="4">
<text text-anchor="middle" x="118.6" y="-270.73" font-family="Helvetica,sans-Serif" font-size="10.00">4</text>
</a>
</g>
</g>
<!-- dir_c6f90d7b3aff386cab2eb5eb40ce2f26&#45;&gt;dir_f08c1ffadff6e9e08f49766ff6ac3753 -->
<g id="edge15" class="edge">
<title>dir_c6f90d7b3aff386cab2eb5eb40ce2f26&#45;&gt;dir_f08c1ffadff6e9e08f49766ff6ac3753</title>
<path fill="none" stroke="black" d="M216.03,-215.7C205.47,-197.58 188.14,-168.43 172,-144 166.01,-134.93 159.17,-125.21 152.96,-116.6"/>
<polygon fill="black" stroke="black" points="155.72,-114.46 147.01,-108.43 150.06,-118.58 155.72,-114.46"/>
<g id="a_edge15&#45;headlabel"><a xlink:href="dir_000018_000025.html" target="_top" xlink:title="17">
<text text-anchor="middle" x="160.13" y="-113.19" font-family="Helvetica,sans-Serif" font-size="10.00">17</text>
</a>
</g>
</g>
<!-- dir_c6f90d7b3aff386cab2eb5eb40ce2f26&#45;&gt;dir_d6b47c55c117061889082b3039c4cfaf -->
<g id="edge16" class="edge">
<title>dir_c6f90d7b3aff386cab2eb5eb40ce2f26&#45;&gt;dir_d6b47c55c117061889082b3039c4cfaf</title>
<path fill="none" stroke="black" d="M203.26,-215.7C191.56,-206.8 177.14,-195.82 164.49,-186.2"/>
<polygon fill="black" stroke="black" points="166.56,-183.37 156.48,-180.1 162.32,-188.94 166.56,-183.37"/>
<g id="a_edge16&#45;headlabel"><a xlink:href="dir_000018_000013.html" target="_top" xlink:title="6">
<text text-anchor="middle" x="171.14" y="-180.79" font-family="Helvetica,sans-Serif" font-size="10.00">6</text>
</a>
</g>
</g>
</g>
</svg>
