<?xml version="1.0" encoding="UTF-8" standalone="no"?>
<!DOCTYPE svg PUBLIC "-//W3C//DTD SVG 1.1//EN"
 "http://www.w3.org/Graphics/SVG/1.1/DTD/svg11.dtd">
<!-- Generated by graphviz version 2.43.0 (0)
 -->
<!-- Title: core Pages: 1 -->
<svg width="299pt" height="204pt"
 viewBox="0.00 0.00 298.50 204.00" xmlns="http://www.w3.org/2000/svg" xmlns:xlink="http://www.w3.org/1999/xlink">
<g id="graph0" class="graph" transform="scale(1 1) rotate(0) translate(4 200)">
<title>core</title>
<polygon fill="white" stroke="transparent" points="-4,4 -4,-200 294.5,-200 294.5,4 -4,4"/>
<g id="clust1" class="cluster">
<title>clusterdir_4270bfced15e0e73154b13468c7c9ad9</title>
<g id="a_clust1"><a xlink:href="dir_4270bfced15e0e73154b13468c7c9ad9.html" target="_top">
<polygon fill="#eeeeff" stroke="black" points="8,-64 8,-188 150,-188 150,-64 8,-64"/>
</a>
</g>
</g>
<!-- dir_4270bfced15e0e73154b13468c7c9ad9 -->
<g id="node1" class="node">
<title>dir_4270bfced15e0e73154b13468c7c9ad9</title>
<text text-anchor="middle" x="115" y="-159.5" font-family="Helvetica,sans-Serif" font-size="10.00">core</text>
</g>
<!-- dir_7e868af64e31779987291c90ae140f88 -->
<g id="node2" class="node">
<title>dir_7e868af64e31779987291c90ae140f88</title>
<g id="a_node2"><a xlink:href="dir_7e868af64e31779987291c90ae140f88.html" target="_top" xlink:title="inc">
<polygon fill="white" stroke="black" points="78,-108 24,-108 24,-72 78,-72 78,-108"/>
<text text-anchor="middle" x="51" y="-87.5" font-family="Helvetica,sans-Serif" font-size="10.00">inc</text>
</a>
</g>
</g>
<!-- dir_7c2730fb8449c1fd3c0779d2ebca1b41 -->
<g id="node4" class="node">
<title>dir_7c2730fb8449c1fd3c0779d2ebca1b41</title>
<g id="a_node4"><a xlink:href="dir_7c2730fb8449c1fd3c0779d2ebca1b41.html" target="_top" xlink:title="executor">
<polygon fill="white" stroke="red" points="290.5,-108 231.5,-108 231.5,-72 290.5,-72 290.5,-108"/>
<text text-anchor="middle" x="261" y="-87.5" font-family="Helvetica,sans-Serif" font-size="10.00">executor</text>
</a>
</g>
</g>
<!-- dir_7e868af64e31779987291c90ae140f88&#45;&gt;dir_7c2730fb8449c1fd3c0779d2ebca1b41 -->
<g id="edge7" class="edge">
<title>dir_7e868af64e31779987291c90ae140f88&#45;&gt;dir_7c2730fb8449c1fd3c0779d2ebca1b41</title>
<path fill="none" stroke="black" d="M78.03,-104.81C110.77,-120.75 167.34,-141.82 214,-126 221.36,-123.5 228.48,-119.34 234.85,-114.71"/>
<polygon fill="black" stroke="black" points="237.36,-117.19 243.02,-108.23 233.01,-111.7 237.36,-117.19"/>
<g id="a_edge7&#45;headlabel"><a xlink:href="dir_000008_000013.html" target="_top" xlink:title="1">
<text text-anchor="middle" x="236.31" y="-119.14" font-family="Helvetica,sans-Serif" font-size="10.00">1</text>
</a>
</g>
</g>
<!-- dir_90fd98a0ba30abf7a6068a44995d2d6b -->
<g id="node3" class="node">
<title>dir_90fd98a0ba30abf7a6068a44995d2d6b</title>
<g id="a_node3"><a xlink:href="dir_90fd98a0ba30abf7a6068a44995d2d6b.html" target="_top" xlink:title="src">
<polygon fill="white" stroke="black" points="70,-180 16,-180 16,-144 70,-144 70,-180"/>
<text text-anchor="middle" x="43" y="-159.5" font-family="Helvetica,sans-Serif" font-size="10.00">src</text>
</a>
</g>
</g>
<!-- dir_90fd98a0ba30abf7a6068a44995d2d6b&#45;&gt;dir_7e868af64e31779987291c90ae140f88 -->
<g id="edge5" class="edge">
<title>dir_90fd98a0ba30abf7a6068a44995d2d6b&#45;&gt;dir_7e868af64e31779987291c90ae140f88</title>
<path fill="none" stroke="black" d="M44.98,-143.7C45.86,-135.98 46.92,-126.71 47.9,-118.11"/>
<polygon fill="black" stroke="black" points="51.39,-118.44 49.05,-108.1 44.43,-117.64 51.39,-118.44"/>
<g id="a_edge5&#45;headlabel"><a xlink:href="dir_000009_000008.html" target="_top" xlink:title="1">
<text text-anchor="middle" x="53.8" y="-119.83" font-family="Helvetica,sans-Serif" font-size="10.00">1</text>
</a>
</g>
</g>
<!-- dir_cbdb8362360e11eafe2fa3bc74cf0ffd -->
<g id="node5" class="node">
<title>dir_cbdb8362360e11eafe2fa3bc74cf0ffd</title>
<g id="a_node5"><a xlink:href="dir_cbdb8362360e11eafe2fa3bc74cf0ffd.html" target="_top" xlink:title="utils">
<polygon fill="white" stroke="red" points="213,-36 159,-36 159,0 213,0 213,-36"/>
<text text-anchor="middle" x="186" y="-15.5" font-family="Helvetica,sans-Serif" font-size="10.00">utils</text>
</a>
</g>
</g>
<!-- dir_90fd98a0ba30abf7a6068a44995d2d6b&#45;&gt;dir_cbdb8362360e11eafe2fa3bc74cf0ffd -->
<g id="edge3" class="edge">
<title>dir_90fd98a0ba30abf7a6068a44995d2d6b&#45;&gt;dir_cbdb8362360e11eafe2fa3bc74cf0ffd</title>
<path fill="none" stroke="black" d="M60.25,-143.87C85.48,-118.82 132.57,-72.05 161.42,-43.41"/>
<polygon fill="black" stroke="black" points="164.06,-45.72 168.69,-36.19 159.13,-40.75 164.06,-45.72"/>
<g id="a_edge3&#45;headlabel"><a xlink:href="dir_000009_000019.html" target="_top" xlink:title="1">
<text text-anchor="middle" x="163.51" y="-47.77" font-family="Helvetica,sans-Serif" font-size="10.00">1</text>
</a>
</g>
</g>
<!-- dir_cb031e414f281a658b23dddb30bb9d2c -->
<g id="node6" class="node">
<title>dir_cb031e414f281a658b23dddb30bb9d2c</title>
<g id="a_node6"><a xlink:href="dir_cb031e414f281a658b23dddb30bb9d2c.html" target="_top" xlink:title="runtime">
<polygon fill="white" stroke="red" points="213.5,-108 158.5,-108 158.5,-72 213.5,-72 213.5,-108"/>
<text text-anchor="middle" x="186" y="-87.5" font-family="Helvetica,sans-Serif" font-size="10.00">runtime</text>
</a>
</g>
</g>
<!-- dir_90fd98a0ba30abf7a6068a44995d2d6b&#45;&gt;dir_cb031e414f281a658b23dddb30bb9d2c -->
<g id="edge4" class="edge">
<title>dir_90fd98a0ba30abf7a6068a44995d2d6b&#45;&gt;dir_cb031e414f281a658b23dddb30bb9d2c</title>
<path fill="none" stroke="black" d="M70.22,-148.08C95.23,-136.2 130.76,-119.29 149.33,-110.23"/>
<polygon fill="black" stroke="black" points="151.04,-113.29 158.46,-105.73 147.94,-107.02 151.04,-113.29"/>
<g id="a_edge4&#45;headlabel"><a xlink:href="dir_000009_000016.html" target="_top" xlink:title="1">
<text text-anchor="middle" x="149.08" y="-114.93" font-family="Helvetica,sans-Serif" font-size="10.00">1</text>
</a>
</g>
</g>
<!-- dir_7c2730fb8449c1fd3c0779d2ebca1b41&#45;&gt;dir_7e868af64e31779987291c90ae140f88 -->
<g id="edge2" class="edge">
<title>dir_7c2730fb8449c1fd3c0779d2ebca1b41&#45;&gt;dir_7e868af64e31779987291c90ae140f88</title>
<path fill="none" stroke="black" d="M243.02,-108.23C234.89,-115.21 224.71,-122.37 214,-126 171.53,-140.4 120.86,-124.24 87.41,-109.2"/>
<polygon fill="black" stroke="black" points="88.57,-105.88 78.03,-104.81 85.6,-112.22 88.57,-105.88"/>
<g id="a_edge2&#45;headlabel"><a xlink:href="dir_000013_000008.html" target="_top" xlink:title="1">
<text text-anchor="middle" x="93.03" y="-102.34" font-family="Helvetica,sans-Serif" font-size="10.00">1</text>
</a>
</g>
</g>
<!-- dir_7c2730fb8449c1fd3c0779d2ebca1b41&#45;&gt;dir_cbdb8362360e11eafe2fa3bc74cf0ffd -->
<g id="edge1" class="edge">
<title>dir_7c2730fb8449c1fd3c0779d2ebca1b41&#45;&gt;dir_cbdb8362360e11eafe2fa3bc74cf0ffd</title>
<path fill="none" stroke="black" d="M242.46,-71.7C233.2,-63.05 221.84,-52.45 211.74,-43.03"/>
<polygon fill="black" stroke="black" points="214.02,-40.37 204.33,-36.1 209.25,-45.49 214.02,-40.37"/>
<g id="a_edge1&#45;headlabel"><a xlink:href="dir_000013_000019.html" target="_top" xlink:title="1">
<text text-anchor="middle" x="218.59" y="-38.25" font-family="Helvetica,sans-Serif" font-size="10.00">1</text>
</a>
</g>
</g>
<!-- dir_cb031e414f281a658b23dddb30bb9d2c&#45;&gt;dir_cbdb8362360e11eafe2fa3bc74cf0ffd -->
<g id="edge6" class="edge">
<title>dir_cb031e414f281a658b23dddb30bb9d2c&#45;&gt;dir_cbdb8362360e11eafe2fa3bc74cf0ffd</title>
<path fill="none" stroke="black" d="M186,-71.7C186,-63.98 186,-54.71 186,-46.11"/>
<polygon fill="black" stroke="black" points="189.5,-46.1 186,-36.1 182.5,-46.1 189.5,-46.1"/>
<g id="a_edge6&#45;headlabel"><a xlink:href="dir_000016_000019.html" target="_top" xlink:title="11">
<text text-anchor="middle" x="192.34" y="-47.2" font-family="Helvetica,sans-Serif" font-size="10.00">11</text>
</a>
</g>
</g>
</g>
</svg>
