<?xml version="1.0" encoding="UTF-8" standalone="no"?>
<!DOCTYPE svg PUBLIC "-//W3C//DTD SVG 1.1//EN"
 "http://www.w3.org/Graphics/SVG/1.1/DTD/svg11.dtd">
<!-- Generated by graphviz version 2.43.0 (0)
 -->
<!-- Title: executor Pages: 1 -->
<svg width="242pt" height="204pt"
 viewBox="0.00 0.00 241.67 204.00" xmlns="http://www.w3.org/2000/svg" xmlns:xlink="http://www.w3.org/1999/xlink">
<g id="graph0" class="graph" transform="scale(1 1) rotate(0) translate(4 200)">
<title>executor</title>
<polygon fill="white" stroke="transparent" points="-4,4 -4,-200 237.67,-200 237.67,4 -4,4"/>
<g id="clust1" class="cluster">
<title>clusterdir_d6b47c55c117061889082b3039c4cfaf</title>
<g id="a_clust1"><a xlink:href="dir_d6b47c55c117061889082b3039c4cfaf.html" target="_top">
<polygon fill="#eeeeff" stroke="black" points="77.67,-64 77.67,-188 225.67,-188 225.67,-64 77.67,-64"/>
</a>
</g>
</g>
<!-- dir_d6b47c55c117061889082b3039c4cfaf -->
<g id="node1" class="node">
<title>dir_d6b47c55c117061889082b3039c4cfaf</title>
<text text-anchor="middle" x="187.67" y="-159.5" font-family="Helvetica,sans-Serif" font-size="10.00">executor</text>
</g>
<!-- dir_0e2b23df43e6599042525cfec0ad0bb8 -->
<g id="node2" class="node">
<title>dir_0e2b23df43e6599042525cfec0ad0bb8</title>
<g id="a_node2"><a xlink:href="dir_0e2b23df43e6599042525cfec0ad0bb8.html" target="_top" xlink:title="inc">
<polygon fill="white" stroke="black" points="139.67,-108 85.67,-108 85.67,-72 139.67,-72 139.67,-108"/>
<text text-anchor="middle" x="112.67" y="-87.5" font-family="Helvetica,sans-Serif" font-size="10.00">inc</text>
</a>
</g>
</g>
<!-- dir_6934992e9a368eaba336ecc6a1d98046 -->
<g id="node3" class="node">
<title>dir_6934992e9a368eaba336ecc6a1d98046</title>
<g id="a_node3"><a xlink:href="dir_6934992e9a368eaba336ecc6a1d98046.html" target="_top" xlink:title="proto">
<polygon fill="white" stroke="red" points="211.67,-108 157.67,-108 157.67,-72 211.67,-72 211.67,-108"/>
<text text-anchor="middle" x="184.67" y="-87.5" font-family="Helvetica,sans-Serif" font-size="10.00">proto</text>
</a>
</g>
</g>
<!-- dir_01bb488ba2da569494bd6323304f0767 -->
<g id="node4" class="node">
<title>dir_01bb488ba2da569494bd6323304f0767</title>
<g id="a_node4"><a xlink:href="dir_01bb488ba2da569494bd6323304f0767.html" target="_top" xlink:title="src">
<polygon fill="white" stroke="black" points="139.67,-180 85.67,-180 85.67,-144 139.67,-144 139.67,-180"/>
<text text-anchor="middle" x="112.67" y="-159.5" font-family="Helvetica,sans-Serif" font-size="10.00">src</text>
</a>
</g>
</g>
<!-- dir_01bb488ba2da569494bd6323304f0767&#45;&gt;dir_0e2b23df43e6599042525cfec0ad0bb8 -->
<g id="edge9" class="edge">
<title>dir_01bb488ba2da569494bd6323304f0767&#45;&gt;dir_0e2b23df43e6599042525cfec0ad0bb8</title>
<path fill="none" stroke="black" d="M112.67,-143.7C112.67,-135.98 112.67,-126.71 112.67,-118.11"/>
<polygon fill="black" stroke="black" points="116.17,-118.1 112.67,-108.1 109.17,-118.1 116.17,-118.1"/>
<g id="a_edge9&#45;headlabel"><a xlink:href="dir_000017_000014.html" target="_top" xlink:title="2">
<text text-anchor="middle" x="119.01" y="-119.2" font-family="Helvetica,sans-Serif" font-size="10.00">2</text>
</a>
</g>
</g>
<!-- dir_01bb488ba2da569494bd6323304f0767&#45;&gt;dir_6934992e9a368eaba336ecc6a1d98046 -->
<g id="edge8" class="edge">
<title>dir_01bb488ba2da569494bd6323304f0767&#45;&gt;dir_6934992e9a368eaba336ecc6a1d98046</title>
<path fill="none" stroke="black" d="M130.47,-143.7C139.28,-135.14 150.06,-124.66 159.67,-115.3"/>
<polygon fill="black" stroke="black" points="162.35,-117.58 167.08,-108.1 157.47,-112.57 162.35,-117.58"/>
<g id="a_edge8&#45;headlabel"><a xlink:href="dir_000017_000015.html" target="_top" xlink:title="1">
<text text-anchor="middle" x="161.75" y="-119.63" font-family="Helvetica,sans-Serif" font-size="10.00">1</text>
</a>
</g>
</g>
<!-- dir_f08c1ffadff6e9e08f49766ff6ac3753 -->
<g id="node5" class="node">
<title>dir_f08c1ffadff6e9e08f49766ff6ac3753</title>
<g id="a_node5"><a xlink:href="dir_f08c1ffadff6e9e08f49766ff6ac3753.html" target="_top" xlink:title="utils">
<polygon fill="white" stroke="red" points="67.67,-108 13.67,-108 13.67,-72 67.67,-72 67.67,-108"/>
<text text-anchor="middle" x="40.67" y="-87.5" font-family="Helvetica,sans-Serif" font-size="10.00">utils</text>
</a>
</g>
</g>
<!-- dir_01bb488ba2da569494bd6323304f0767&#45;&gt;dir_f08c1ffadff6e9e08f49766ff6ac3753 -->
<g id="edge5" class="edge">
<title>dir_01bb488ba2da569494bd6323304f0767&#45;&gt;dir_f08c1ffadff6e9e08f49766ff6ac3753</title>
<path fill="none" stroke="black" d="M94.88,-143.7C86.07,-135.14 75.29,-124.66 65.67,-115.3"/>
<polygon fill="black" stroke="black" points="67.88,-112.57 58.27,-108.1 63,-117.58 67.88,-112.57"/>
<g id="a_edge5&#45;headlabel"><a xlink:href="dir_000017_000021.html" target="_top" xlink:title="2">
<text text-anchor="middle" x="72.43" y="-110.54" font-family="Helvetica,sans-Serif" font-size="10.00">2</text>
</a>
</g>
</g>
<!-- dir_f8c6f0679b123304d35aae1bb0e284fb -->
<g id="node6" class="node">
<title>dir_f8c6f0679b123304d35aae1bb0e284fb</title>
<g id="a_node6"><a xlink:href="dir_f8c6f0679b123304d35aae1bb0e284fb.html" target="_top" xlink:title="database">
<polygon fill="white" stroke="red" points="71.67,-36 9.67,-36 9.67,0 71.67,0 71.67,-36"/>
<text text-anchor="middle" x="40.67" y="-15.5" font-family="Helvetica,sans-Serif" font-size="10.00">database</text>
</a>
</g>
</g>
<!-- dir_01bb488ba2da569494bd6323304f0767&#45;&gt;dir_f8c6f0679b123304d35aae1bb0e284fb -->
<g id="edge6" class="edge">
<title>dir_01bb488ba2da569494bd6323304f0767&#45;&gt;dir_f8c6f0679b123304d35aae1bb0e284fb</title>
<path fill="none" stroke="black" d="M139.71,-148.6C170.92,-134.16 218.31,-111.79 220.67,-108 231.02,-91.4 232.71,-79.41 220.67,-64 203.77,-42.36 129.55,-29.58 81.85,-23.46"/>
<polygon fill="black" stroke="black" points="82.16,-19.98 71.81,-22.22 81.31,-26.92 82.16,-19.98"/>
<g id="a_edge6&#45;headlabel"><a xlink:href="dir_000017_000010.html" target="_top" xlink:title="4">
<text text-anchor="middle" x="86.08" y="-15.1" font-family="Helvetica,sans-Serif" font-size="10.00">4</text>
</a>
</g>
</g>
<!-- dir_521dc20e1c32dad3a389d870e90503a0 -->
<g id="node7" class="node">
<title>dir_521dc20e1c32dad3a389d870e90503a0</title>
<g id="a_node7"><a xlink:href="dir_521dc20e1c32dad3a389d870e90503a0.html" target="_top" xlink:title="core">
<polygon fill="white" stroke="red" points="67.67,-180 13.67,-180 13.67,-144 67.67,-144 67.67,-180"/>
<text text-anchor="middle" x="40.67" y="-159.5" font-family="Helvetica,sans-Serif" font-size="10.00">core</text>
</a>
</g>
</g>
<!-- dir_01bb488ba2da569494bd6323304f0767&#45;&gt;dir_521dc20e1c32dad3a389d870e90503a0 -->
<g id="edge7" class="edge">
<title>dir_01bb488ba2da569494bd6323304f0767&#45;&gt;dir_521dc20e1c32dad3a389d870e90503a0</title>
<path fill="none" stroke="black" d="M85.42,-162C82.97,-162 80.51,-162 78.05,-162"/>
<polygon fill="black" stroke="black" points="77.95,-158.5 67.95,-162 77.95,-165.5 77.95,-158.5"/>
<g id="a_edge7&#45;headlabel"><a xlink:href="dir_000017_000007.html" target="_top" xlink:title="2">
<text text-anchor="middle" x="81.55" y="-153.16" font-family="Helvetica,sans-Serif" font-size="10.00">2</text>
</a>
</g>
</g>
<!-- dir_f08c1ffadff6e9e08f49766ff6ac3753&#45;&gt;dir_f8c6f0679b123304d35aae1bb0e284fb -->
<g id="edge1" class="edge">
<title>dir_f08c1ffadff6e9e08f49766ff6ac3753&#45;&gt;dir_f8c6f0679b123304d35aae1bb0e284fb</title>
<path fill="none" stroke="black" d="M40.67,-71.7C40.67,-63.98 40.67,-54.71 40.67,-46.11"/>
<polygon fill="black" stroke="black" points="44.17,-46.1 40.67,-36.1 37.17,-46.1 44.17,-46.1"/>
<g id="a_edge1&#45;headlabel"><a xlink:href="dir_000021_000010.html" target="_top" xlink:title="1">
<text text-anchor="middle" x="47.01" y="-47.2" font-family="Helvetica,sans-Serif" font-size="10.00">1</text>
</a>
</g>
</g>
<!-- dir_521dc20e1c32dad3a389d870e90503a0&#45;&gt;dir_0e2b23df43e6599042525cfec0ad0bb8 -->
<g id="edge4" class="edge">
<title>dir_521dc20e1c32dad3a389d870e90503a0&#45;&gt;dir_0e2b23df43e6599042525cfec0ad0bb8</title>
<path fill="none" stroke="black" d="M58.47,-143.7C67.28,-135.14 78.06,-124.66 87.67,-115.3"/>
<polygon fill="black" stroke="black" points="90.35,-117.58 95.08,-108.1 85.47,-112.57 90.35,-117.58"/>
<g id="a_edge4&#45;headlabel"><a xlink:href="dir_000007_000014.html" target="_top" xlink:title="2">
<text text-anchor="middle" x="89.75" y="-119.63" font-family="Helvetica,sans-Serif" font-size="10.00">2</text>
</a>
</g>
</g>
<!-- dir_521dc20e1c32dad3a389d870e90503a0&#45;&gt;dir_f08c1ffadff6e9e08f49766ff6ac3753 -->
<g id="edge2" class="edge">
<title>dir_521dc20e1c32dad3a389d870e90503a0&#45;&gt;dir_f08c1ffadff6e9e08f49766ff6ac3753</title>
<path fill="none" stroke="black" d="M40.67,-143.7C40.67,-135.98 40.67,-126.71 40.67,-118.11"/>
<polygon fill="black" stroke="black" points="44.17,-118.1 40.67,-108.1 37.17,-118.1 44.17,-118.1"/>
<g id="a_edge2&#45;headlabel"><a xlink:href="dir_000007_000021.html" target="_top" xlink:title="1">
<text text-anchor="middle" x="47.01" y="-119.2" font-family="Helvetica,sans-Serif" font-size="10.00">1</text>
</a>
</g>
</g>
<!-- dir_521dc20e1c32dad3a389d870e90503a0&#45;&gt;dir_f8c6f0679b123304d35aae1bb0e284fb -->
<g id="edge3" class="edge">
<title>dir_521dc20e1c32dad3a389d870e90503a0&#45;&gt;dir_f8c6f0679b123304d35aae1bb0e284fb</title>
<path fill="none" stroke="black" d="M25.06,-143.77C17.3,-134.03 8.73,-121.18 4.67,-108 -1.07,-89.31 -1.8,-82.45 4.67,-64 7.18,-56.86 11.34,-50.01 15.97,-43.91"/>
<polygon fill="black" stroke="black" points="18.77,-46.01 22.46,-36.08 13.38,-41.55 18.77,-46.01"/>
<g id="a_edge3&#45;headlabel"><a xlink:href="dir_000007_000010.html" target="_top" xlink:title="2">
<text text-anchor="middle" x="18.66" y="-48.09" font-family="Helvetica,sans-Serif" font-size="10.00">2</text>
</a>
</g>
</g>
</g>
</svg>
