<?xml version="1.0" encoding="UTF-8" standalone="no"?>
<!DOCTYPE svg PUBLIC "-//W3C//DTD SVG 1.1//EN"
 "http://www.w3.org/Graphics/SVG/1.1/DTD/svg11.dtd">
<!-- Generated by graphviz version 2.43.0 (0)
 -->
<!-- Title: executor/src Pages: 1 -->
<svg width="175pt" height="295pt"
 viewBox="0.00 0.00 175.00 295.00" xmlns="http://www.w3.org/2000/svg" xmlns:xlink="http://www.w3.org/1999/xlink">
<g id="graph0" class="graph" transform="scale(1 1) rotate(0) translate(4 291)">
<title>executor/src</title>
<polygon fill="white" stroke="transparent" points="-4,4 -4,-291 171,-291 171,4 -4,4"/>
<g id="clust1" class="cluster">
<title>clusterdir_7c2730fb8449c1fd3c0779d2ebca1b41</title>
<g id="a_clust1"><a xlink:href="dir_7c2730fb8449c1fd3c0779d2ebca1b41.html" target="_top" xlink:title="executor">
<polygon fill="#ddddee" stroke="black" points="63,-208 63,-279 133,-279 133,-208 63,-208"/>
<text text-anchor="middle" x="98" y="-267" font-family="Helvetica,sans-Serif" font-size="10.00">executor</text>
</a>
</g>
</g>
<!-- dir_fb1bafc4fab5556427f12e9eb41c74ae -->
<g id="node1" class="node">
<title>dir_fb1bafc4fab5556427f12e9eb41c74ae</title>
<g id="a_node1"><a xlink:href="dir_fb1bafc4fab5556427f12e9eb41c74ae.html" target="_top" xlink:title="src">
<polygon fill="#eeeeff" stroke="black" points="125,-252 71,-252 71,-216 125,-216 125,-252"/>
<text text-anchor="middle" x="98" y="-231.5" font-family="Helvetica,sans-Serif" font-size="10.00">src</text>
</a>
</g>
</g>
<!-- dir_46e3939a85035f9eacdef8d7cc3159ad -->
<g id="node2" class="node">
<title>dir_46e3939a85035f9eacdef8d7cc3159ad</title>
<g id="a_node2"><a xlink:href="dir_46e3939a85035f9eacdef8d7cc3159ad.html" target="_top" xlink:title="inc">
<polygon fill="none" stroke="black" points="54,-108 0,-108 0,-72 54,-72 54,-108"/>
<text text-anchor="middle" x="27" y="-87.5" font-family="Helvetica,sans-Serif" font-size="10.00">inc</text>
</a>
</g>
</g>
<!-- dir_fb1bafc4fab5556427f12e9eb41c74ae&#45;&gt;dir_46e3939a85035f9eacdef8d7cc3159ad -->
<g id="edge2" class="edge">
<title>dir_fb1bafc4fab5556427f12e9eb41c74ae&#45;&gt;dir_46e3939a85035f9eacdef8d7cc3159ad</title>
<path fill="none" stroke="black" d="M70.91,-217.35C57.75,-208.22 43.06,-195.46 35,-180 25.11,-161.03 23.55,-136.66 24.22,-118.22"/>
<polygon fill="black" stroke="black" points="27.72,-118.33 24.83,-108.14 20.74,-117.91 27.72,-118.33"/>
<g id="a_edge2&#45;headlabel"><a xlink:href="dir_000015_000014.html" target="_top" xlink:title="1">
<text text-anchor="middle" x="30.34" y="-119.59" font-family="Helvetica,sans-Serif" font-size="10.00">1</text>
</a>
</g>
</g>
<!-- dir_cbdb8362360e11eafe2fa3bc74cf0ffd -->
<g id="node3" class="node">
<title>dir_cbdb8362360e11eafe2fa3bc74cf0ffd</title>
<g id="a_node3"><a xlink:href="dir_cbdb8362360e11eafe2fa3bc74cf0ffd.html" target="_top" xlink:title="utils">
<polygon fill="white" stroke="red" points="136,-108 82,-108 82,-72 136,-72 136,-108"/>
<text text-anchor="middle" x="109" y="-87.5" font-family="Helvetica,sans-Serif" font-size="10.00">utils</text>
</a>
</g>
</g>
<!-- dir_fb1bafc4fab5556427f12e9eb41c74ae&#45;&gt;dir_cbdb8362360e11eafe2fa3bc74cf0ffd -->
<g id="edge3" class="edge">
<title>dir_fb1bafc4fab5556427f12e9eb41c74ae&#45;&gt;dir_cbdb8362360e11eafe2fa3bc74cf0ffd</title>
<path fill="none" stroke="black" d="M101.56,-215.9C103.54,-205.56 105.85,-192.08 107,-180 108.97,-159.36 109.43,-135.91 109.41,-118.27"/>
<polygon fill="black" stroke="black" points="112.91,-118.08 109.35,-108.11 105.91,-118.13 112.91,-118.08"/>
<g id="a_edge3&#45;headlabel"><a xlink:href="dir_000015_000019.html" target="_top" xlink:title="1">
<text text-anchor="middle" x="115.77" y="-119.16" font-family="Helvetica,sans-Serif" font-size="10.00">1</text>
</a>
</g>
</g>
<!-- dir_f32c53f2c0f0ccaeb11076e30674d5f4 -->
<g id="node4" class="node">
<title>dir_f32c53f2c0f0ccaeb11076e30674d5f4</title>
<g id="a_node4"><a xlink:href="dir_f32c53f2c0f0ccaeb11076e30674d5f4.html" target="_top" xlink:title="database">
<polygon fill="white" stroke="red" points="167,-36 105,-36 105,0 167,0 167,-36"/>
<text text-anchor="middle" x="136" y="-15.5" font-family="Helvetica,sans-Serif" font-size="10.00">database</text>
</a>
</g>
</g>
<!-- dir_fb1bafc4fab5556427f12e9eb41c74ae&#45;&gt;dir_f32c53f2c0f0ccaeb11076e30674d5f4 -->
<g id="edge4" class="edge">
<title>dir_fb1bafc4fab5556427f12e9eb41c74ae&#45;&gt;dir_f32c53f2c0f0ccaeb11076e30674d5f4</title>
<path fill="none" stroke="black" d="M106.98,-215.61C112.06,-205.4 118.31,-192.15 123,-180 140.65,-134.31 149.12,-120.81 145,-72 144.28,-63.5 142.93,-54.31 141.49,-46.01"/>
<polygon fill="black" stroke="black" points="144.91,-45.29 139.65,-36.09 138.03,-46.56 144.91,-45.29"/>
<g id="a_edge4&#45;headlabel"><a xlink:href="dir_000015_000010.html" target="_top" xlink:title="2">
<text text-anchor="middle" x="148.36" y="-45.81" font-family="Helvetica,sans-Serif" font-size="10.00">2</text>
</a>
</g>
</g>
<!-- dir_4270bfced15e0e73154b13468c7c9ad9 -->
<g id="node5" class="node">
<title>dir_4270bfced15e0e73154b13468c7c9ad9</title>
<g id="a_node5"><a xlink:href="dir_4270bfced15e0e73154b13468c7c9ad9.html" target="_top" xlink:title="core">
<polygon fill="white" stroke="red" points="98,-180 44,-180 44,-144 98,-144 98,-180"/>
<text text-anchor="middle" x="71" y="-159.5" font-family="Helvetica,sans-Serif" font-size="10.00">core</text>
</a>
</g>
</g>
<!-- dir_fb1bafc4fab5556427f12e9eb41c74ae&#45;&gt;dir_4270bfced15e0e73154b13468c7c9ad9 -->
<g id="edge5" class="edge">
<title>dir_fb1bafc4fab5556427f12e9eb41c74ae&#45;&gt;dir_4270bfced15e0e73154b13468c7c9ad9</title>
<path fill="none" stroke="black" d="M91.33,-215.7C88.29,-207.81 84.62,-198.3 81.24,-189.55"/>
<polygon fill="black" stroke="black" points="84.46,-188.17 77.6,-180.1 77.93,-190.69 84.46,-188.17"/>
<g id="a_edge5&#45;headlabel"><a xlink:href="dir_000015_000007.html" target="_top" xlink:title="1">
<text text-anchor="middle" x="88.4" y="-188.01" font-family="Helvetica,sans-Serif" font-size="10.00">1</text>
</a>
</g>
</g>
<!-- dir_cbdb8362360e11eafe2fa3bc74cf0ffd&#45;&gt;dir_f32c53f2c0f0ccaeb11076e30674d5f4 -->
<g id="edge1" class="edge">
<title>dir_cbdb8362360e11eafe2fa3bc74cf0ffd&#45;&gt;dir_f32c53f2c0f0ccaeb11076e30674d5f4</title>
<path fill="none" stroke="black" d="M115.67,-71.7C118.71,-63.81 122.38,-54.3 125.76,-45.55"/>
<polygon fill="black" stroke="black" points="129.07,-46.69 129.4,-36.1 122.54,-44.17 129.07,-46.69"/>
<g id="a_edge1&#45;headlabel"><a xlink:href="dir_000019_000010.html" target="_top" xlink:title="1">
<text text-anchor="middle" x="130.42" y="-48.57" font-family="Helvetica,sans-Serif" font-size="10.00">1</text>
</a>
</g>
</g>
<!-- dir_4270bfced15e0e73154b13468c7c9ad9&#45;&gt;dir_46e3939a85035f9eacdef8d7cc3159ad -->
<g id="edge6" class="edge">
<title>dir_4270bfced15e0e73154b13468c7c9ad9&#45;&gt;dir_46e3939a85035f9eacdef8d7cc3159ad</title>
<path fill="none" stroke="black" d="M60.12,-143.7C55.01,-135.56 48.8,-125.69 43.16,-116.7"/>
<polygon fill="black" stroke="black" points="46.04,-114.71 37.75,-108.1 40.11,-118.43 46.04,-114.71"/>
<g id="a_edge6&#45;headlabel"><a xlink:href="dir_000007_000014.html" target="_top" xlink:title="1">
<text text-anchor="middle" x="50.35" y="-113.74" font-family="Helvetica,sans-Serif" font-size="10.00">1</text>
</a>
</g>
</g>
<!-- dir_4270bfced15e0e73154b13468c7c9ad9&#45;&gt;dir_cbdb8362360e11eafe2fa3bc74cf0ffd -->
<g id="edge7" class="edge">
<title>dir_4270bfced15e0e73154b13468c7c9ad9&#45;&gt;dir_cbdb8362360e11eafe2fa3bc74cf0ffd</title>
<path fill="none" stroke="black" d="M80.39,-143.7C84.76,-135.64 90.06,-125.89 94.9,-116.98"/>
<polygon fill="black" stroke="black" points="98.02,-118.56 99.71,-108.1 91.87,-115.22 98.02,-118.56"/>
<g id="a_edge7&#45;headlabel"><a xlink:href="dir_000007_000019.html" target="_top" xlink:title="1">
<text text-anchor="middle" x="98.8" y="-120.58" font-family="Helvetica,sans-Serif" font-size="10.00">1</text>
</a>
</g>
</g>
</g>
</svg>
