<?xml version="1.0" encoding="UTF-8" standalone="no"?>
<!DOCTYPE svg PUBLIC "-//W3C//DTD SVG 1.1//EN"
 "http://www.w3.org/Graphics/SVG/1.1/DTD/svg11.dtd">
<!-- Generated by graphviz version 2.43.0 (0)
 -->
<!-- Title: core Pages: 1 -->
<svg width="242pt" height="348pt"
 viewBox="0.00 0.00 242.24 348.00" xmlns="http://www.w3.org/2000/svg" xmlns:xlink="http://www.w3.org/1999/xlink">
<g id="graph0" class="graph" transform="scale(1 1) rotate(0) translate(4 344)">
<title>core</title>
<polygon fill="white" stroke="transparent" points="-4,4 -4,-344 238.24,-344 238.24,4 -4,4"/>
<g id="clust1" class="cluster">
<title>clusterdir_521dc20e1c32dad3a389d870e90503a0</title>
<g id="a_clust1"><a xlink:href="dir_521dc20e1c32dad3a389d870e90503a0.html" target="_top">
<polygon fill="#eeeeff" stroke="black" points="8,-208 8,-332 150,-332 150,-208 8,-208"/>
</a>
</g>
</g>
<!-- dir_521dc20e1c32dad3a389d870e90503a0 -->
<g id="node1" class="node">
<title>dir_521dc20e1c32dad3a389d870e90503a0</title>
<text text-anchor="middle" x="115" y="-303.5" font-family="Helvetica,sans-Serif" font-size="10.00">core</text>
</g>
<!-- dir_67d50c47b678e427d1ea4b25f05ca1f8 -->
<g id="node2" class="node">
<title>dir_67d50c47b678e427d1ea4b25f05ca1f8</title>
<g id="a_node2"><a xlink:href="dir_67d50c47b678e427d1ea4b25f05ca1f8.html" target="_top" xlink:title="inc">
<polygon fill="white" stroke="black" points="90,-252 36,-252 36,-216 90,-216 90,-252"/>
<text text-anchor="middle" x="63" y="-231.5" font-family="Helvetica,sans-Serif" font-size="10.00">inc</text>
</a>
</g>
</g>
<!-- dir_f08c1ffadff6e9e08f49766ff6ac3753 -->
<g id="node4" class="node">
<title>dir_f08c1ffadff6e9e08f49766ff6ac3753</title>
<g id="a_node4"><a xlink:href="dir_f08c1ffadff6e9e08f49766ff6ac3753.html" target="_top" xlink:title="utils">
<polygon fill="white" stroke="red" points="159,-108 105,-108 105,-72 159,-72 159,-108"/>
<text text-anchor="middle" x="132" y="-87.5" font-family="Helvetica,sans-Serif" font-size="10.00">utils</text>
</a>
</g>
</g>
<!-- dir_67d50c47b678e427d1ea4b25f05ca1f8&#45;&gt;dir_f08c1ffadff6e9e08f49766ff6ac3753 -->
<g id="edge3" class="edge">
<title>dir_67d50c47b678e427d1ea4b25f05ca1f8&#45;&gt;dir_f08c1ffadff6e9e08f49766ff6ac3753</title>
<path fill="none" stroke="black" d="M67.06,-215.97C71.82,-197.58 80.66,-167.72 93,-144 97.98,-134.42 104.6,-124.69 110.97,-116.23"/>
<polygon fill="black" stroke="black" points="113.81,-118.28 117.18,-108.24 108.28,-113.99 113.81,-118.28"/>
<g id="a_edge3&#45;headlabel"><a xlink:href="dir_000008_000022.html" target="_top" xlink:title="1">
<text text-anchor="middle" x="113.84" y="-120.37" font-family="Helvetica,sans-Serif" font-size="10.00">1</text>
</a>
</g>
</g>
<!-- dir_f8c6f0679b123304d35aae1bb0e284fb -->
<g id="node5" class="node">
<title>dir_f8c6f0679b123304d35aae1bb0e284fb</title>
<g id="a_node5"><a xlink:href="dir_f8c6f0679b123304d35aae1bb0e284fb.html" target="_top" xlink:title="database">
<polygon fill="white" stroke="red" points="108,-36 46,-36 46,0 108,0 108,-36"/>
<text text-anchor="middle" x="77" y="-15.5" font-family="Helvetica,sans-Serif" font-size="10.00">database</text>
</a>
</g>
</g>
<!-- dir_67d50c47b678e427d1ea4b25f05ca1f8&#45;&gt;dir_f8c6f0679b123304d35aae1bb0e284fb -->
<g id="edge4" class="edge">
<title>dir_67d50c47b678e427d1ea4b25f05ca1f8&#45;&gt;dir_f8c6f0679b123304d35aae1bb0e284fb</title>
<path fill="none" stroke="black" d="M64.12,-215.85C66.54,-178.83 72.28,-91.18 75.21,-46.39"/>
<polygon fill="black" stroke="black" points="78.71,-46.44 75.87,-36.23 71.73,-45.98 78.71,-46.44"/>
<g id="a_edge4&#45;headlabel"><a xlink:href="dir_000008_000010.html" target="_top" xlink:title="1">
<text text-anchor="middle" x="81.31" y="-47.71" font-family="Helvetica,sans-Serif" font-size="10.00">1</text>
</a>
</g>
</g>
<!-- dir_d6b47c55c117061889082b3039c4cfaf -->
<g id="node6" class="node">
<title>dir_d6b47c55c117061889082b3039c4cfaf</title>
<g id="a_node6"><a xlink:href="dir_d6b47c55c117061889082b3039c4cfaf.html" target="_top" xlink:title="executor">
<polygon fill="white" stroke="red" points="161.5,-180 102.5,-180 102.5,-144 161.5,-144 161.5,-180"/>
<text text-anchor="middle" x="132" y="-159.5" font-family="Helvetica,sans-Serif" font-size="10.00">executor</text>
</a>
</g>
</g>
<!-- dir_67d50c47b678e427d1ea4b25f05ca1f8&#45;&gt;dir_d6b47c55c117061889082b3039c4cfaf -->
<g id="edge5" class="edge">
<title>dir_67d50c47b678e427d1ea4b25f05ca1f8&#45;&gt;dir_d6b47c55c117061889082b3039c4cfaf</title>
<path fill="none" stroke="black" d="M74.14,-215.7C81.77,-207.05 92.04,-196.45 101.87,-187.03"/>
<polygon fill="black" stroke="black" points="104.35,-189.5 109.24,-180.1 99.56,-184.4 104.35,-189.5"/>
<g id="a_edge5&#45;headlabel"><a xlink:href="dir_000008_000013.html" target="_top" xlink:title="1">
<text text-anchor="middle" x="103.67" y="-191.53" font-family="Helvetica,sans-Serif" font-size="10.00">1</text>
</a>
</g>
</g>
<!-- dir_c6c08339cc9a26b214e74a0f6855d078 -->
<g id="node3" class="node">
<title>dir_c6c08339cc9a26b214e74a0f6855d078</title>
<g id="a_node3"><a xlink:href="dir_c6c08339cc9a26b214e74a0f6855d078.html" target="_top" xlink:title="src">
<polygon fill="white" stroke="black" points="70,-324 16,-324 16,-288 70,-288 70,-324"/>
<text text-anchor="middle" x="43" y="-303.5" font-family="Helvetica,sans-Serif" font-size="10.00">src</text>
</a>
</g>
</g>
<!-- dir_c6c08339cc9a26b214e74a0f6855d078&#45;&gt;dir_67d50c47b678e427d1ea4b25f05ca1f8 -->
<g id="edge8" class="edge">
<title>dir_c6c08339cc9a26b214e74a0f6855d078&#45;&gt;dir_67d50c47b678e427d1ea4b25f05ca1f8</title>
<path fill="none" stroke="black" d="M47.94,-287.7C50.17,-279.9 52.85,-270.51 55.33,-261.83"/>
<polygon fill="black" stroke="black" points="58.73,-262.68 58.11,-252.1 52,-260.76 58.73,-262.68"/>
<g id="a_edge8&#45;headlabel"><a xlink:href="dir_000009_000008.html" target="_top" xlink:title="1">
<text text-anchor="middle" x="60.47" y="-264.42" font-family="Helvetica,sans-Serif" font-size="10.00">1</text>
</a>
</g>
</g>
<!-- dir_c6c08339cc9a26b214e74a0f6855d078&#45;&gt;dir_f08c1ffadff6e9e08f49766ff6ac3753 -->
<g id="edge6" class="edge">
<title>dir_c6c08339cc9a26b214e74a0f6855d078&#45;&gt;dir_f08c1ffadff6e9e08f49766ff6ac3753</title>
<path fill="none" stroke="black" d="M70.28,-291.44C73.19,-290.2 76.14,-289.02 79,-288 141.13,-265.81 182.4,-304 223,-252 257.96,-207.23 201.14,-147.45 162.7,-114.78"/>
<polygon fill="black" stroke="black" points="164.74,-111.93 154.81,-108.24 160.27,-117.32 164.74,-111.93"/>
<g id="a_edge6&#45;headlabel"><a xlink:href="dir_000009_000022.html" target="_top" xlink:title="1">
<text text-anchor="middle" x="169.32" y="-109.54" font-family="Helvetica,sans-Serif" font-size="10.00">1</text>
</a>
</g>
</g>
<!-- dir_c6c08339cc9a26b214e74a0f6855d078&#45;&gt;dir_f8c6f0679b123304d35aae1bb0e284fb -->
<g id="edge7" class="edge">
<title>dir_c6c08339cc9a26b214e74a0f6855d078&#45;&gt;dir_f8c6f0679b123304d35aae1bb0e284fb</title>
<path fill="none" stroke="black" d="M36.35,-287.63C32.8,-277.42 28.8,-264.17 27,-252 24.14,-232.65 24.48,-227.39 27,-208 34.67,-149.03 55.26,-82.25 67.49,-45.97"/>
<polygon fill="black" stroke="black" points="70.93,-46.75 70.85,-36.16 64.3,-44.49 70.93,-46.75"/>
<g id="a_edge7&#45;headlabel"><a xlink:href="dir_000009_000010.html" target="_top" xlink:title="2">
<text text-anchor="middle" x="72.45" y="-48.57" font-family="Helvetica,sans-Serif" font-size="10.00">2</text>
</a>
</g>
</g>
<!-- dir_c6c08339cc9a26b214e74a0f6855d078&#45;&gt;dir_d6b47c55c117061889082b3039c4cfaf -->
<g id="edge9" class="edge">
<title>dir_c6c08339cc9a26b214e74a0f6855d078&#45;&gt;dir_d6b47c55c117061889082b3039c4cfaf</title>
<path fill="none" stroke="black" d="M65.57,-287.84C76.86,-278.3 90,-265.62 99,-252 111.59,-232.95 120.22,-208.44 125.49,-189.97"/>
<polygon fill="black" stroke="black" points="128.91,-190.71 128.14,-180.14 122.16,-188.89 128.91,-190.71"/>
<g id="a_edge9&#45;headlabel"><a xlink:href="dir_000009_000013.html" target="_top" xlink:title="1">
<text text-anchor="middle" x="130.72" y="-192.42" font-family="Helvetica,sans-Serif" font-size="10.00">1</text>
</a>
</g>
</g>
<!-- dir_c6f90d7b3aff386cab2eb5eb40ce2f26 -->
<g id="node7" class="node">
<title>dir_c6f90d7b3aff386cab2eb5eb40ce2f26</title>
<g id="a_node7"><a xlink:href="dir_c6f90d7b3aff386cab2eb5eb40ce2f26.html" target="_top" xlink:title="runtime">
<polygon fill="white" stroke="red" points="213.5,-252 158.5,-252 158.5,-216 213.5,-216 213.5,-252"/>
<text text-anchor="middle" x="186" y="-231.5" font-family="Helvetica,sans-Serif" font-size="10.00">runtime</text>
</a>
</g>
</g>
<!-- dir_c6c08339cc9a26b214e74a0f6855d078&#45;&gt;dir_c6f90d7b3aff386cab2eb5eb40ce2f26 -->
<g id="edge10" class="edge">
<title>dir_c6c08339cc9a26b214e74a0f6855d078&#45;&gt;dir_c6f90d7b3aff386cab2eb5eb40ce2f26</title>
<path fill="none" stroke="black" d="M70.22,-292.08C95.23,-280.2 130.76,-263.29 149.33,-254.23"/>
<polygon fill="black" stroke="black" points="151.04,-257.29 158.46,-249.73 147.94,-251.02 151.04,-257.29"/>
<g id="a_edge10&#45;headlabel"><a xlink:href="dir_000009_000018.html" target="_top" xlink:title="1">
<text text-anchor="middle" x="149.08" y="-258.93" font-family="Helvetica,sans-Serif" font-size="10.00">1</text>
</a>
</g>
</g>
<!-- dir_f08c1ffadff6e9e08f49766ff6ac3753&#45;&gt;dir_f8c6f0679b123304d35aae1bb0e284fb -->
<g id="edge1" class="edge">
<title>dir_f08c1ffadff6e9e08f49766ff6ac3753&#45;&gt;dir_f8c6f0679b123304d35aae1bb0e284fb</title>
<path fill="none" stroke="black" d="M112.49,-71.7C105.18,-63.47 97.13,-53.48 90.45,-44.42"/>
<polygon fill="black" stroke="black" points="93.19,-42.23 84.54,-36.1 87.48,-46.28 93.19,-42.23"/>
<g id="a_edge1&#45;headlabel"><a xlink:href="dir_000022_000010.html" target="_top" xlink:title="2">
<text text-anchor="middle" x="97.59" y="-41.01" font-family="Helvetica,sans-Serif" font-size="10.00">2</text>
</a>
</g>
</g>
<!-- dir_f8c6f0679b123304d35aae1bb0e284fb&#45;&gt;dir_f08c1ffadff6e9e08f49766ff6ac3753 -->
<g id="edge2" class="edge">
<title>dir_f8c6f0679b123304d35aae1bb0e284fb&#45;&gt;dir_f08c1ffadff6e9e08f49766ff6ac3753</title>
<path fill="none" stroke="black" d="M96.33,-36.1C103.63,-44.3 111.69,-54.28 118.38,-63.36"/>
<polygon fill="black" stroke="black" points="115.67,-65.58 124.32,-71.7 121.37,-61.52 115.67,-65.58"/>
<g id="a_edge2&#45;headlabel"><a xlink:href="dir_000010_000022.html" target="_top" xlink:title="1">
<text text-anchor="middle" x="111.27" y="-61.8" font-family="Helvetica,sans-Serif" font-size="10.00">1</text>
</a>
</g>
</g>
<!-- dir_d6b47c55c117061889082b3039c4cfaf&#45;&gt;dir_67d50c47b678e427d1ea4b25f05ca1f8 -->
<g id="edge13" class="edge">
<title>dir_d6b47c55c117061889082b3039c4cfaf&#45;&gt;dir_67d50c47b678e427d1ea4b25f05ca1f8</title>
<path fill="none" stroke="black" d="M121.04,-180.1C113.44,-188.72 103.19,-199.32 93.36,-208.76"/>
<polygon fill="black" stroke="black" points="90.86,-206.3 85.97,-215.7 95.66,-211.4 90.86,-206.3"/>
<g id="a_edge13&#45;headlabel"><a xlink:href="dir_000013_000008.html" target="_top" xlink:title="4">
<text text-anchor="middle" x="91.54" y="-199.27" font-family="Helvetica,sans-Serif" font-size="10.00">4</text>
</a>
</g>
</g>
<!-- dir_d6b47c55c117061889082b3039c4cfaf&#45;&gt;dir_f08c1ffadff6e9e08f49766ff6ac3753 -->
<g id="edge11" class="edge">
<title>dir_d6b47c55c117061889082b3039c4cfaf&#45;&gt;dir_f08c1ffadff6e9e08f49766ff6ac3753</title>
<path fill="none" stroke="black" d="M132,-143.7C132,-135.98 132,-126.71 132,-118.11"/>
<polygon fill="black" stroke="black" points="135.5,-118.1 132,-108.1 128.5,-118.1 135.5,-118.1"/>
<g id="a_edge11&#45;headlabel"><a xlink:href="dir_000013_000022.html" target="_top" xlink:title="6">
<text text-anchor="middle" x="138.34" y="-119.2" font-family="Helvetica,sans-Serif" font-size="10.00">6</text>
</a>
</g>
</g>
<!-- dir_d6b47c55c117061889082b3039c4cfaf&#45;&gt;dir_f8c6f0679b123304d35aae1bb0e284fb -->
<g id="edge12" class="edge">
<title>dir_d6b47c55c117061889082b3039c4cfaf&#45;&gt;dir_f8c6f0679b123304d35aae1bb0e284fb</title>
<path fill="none" stroke="black" d="M117.84,-143.85C110.31,-133.93 101.5,-120.89 96,-108 87.59,-88.29 82.76,-64.49 80.07,-46.46"/>
<polygon fill="black" stroke="black" points="83.51,-45.76 78.7,-36.33 76.57,-46.71 83.51,-45.76"/>
<g id="a_edge12&#45;headlabel"><a xlink:href="dir_000013_000010.html" target="_top" xlink:title="5">
<text text-anchor="middle" x="86.81" y="-46.44" font-family="Helvetica,sans-Serif" font-size="10.00">5</text>
</a>
</g>
</g>
<!-- dir_c6f90d7b3aff386cab2eb5eb40ce2f26&#45;&gt;dir_f08c1ffadff6e9e08f49766ff6ac3753 -->
<g id="edge14" class="edge">
<title>dir_c6f90d7b3aff386cab2eb5eb40ce2f26&#45;&gt;dir_f08c1ffadff6e9e08f49766ff6ac3753</title>
<path fill="none" stroke="black" d="M185.17,-215.97C183.77,-197.57 180.03,-167.71 170,-144 165.94,-134.4 159.89,-124.86 153.8,-116.56"/>
<polygon fill="black" stroke="black" points="156.41,-114.21 147.53,-108.43 150.87,-118.48 156.41,-114.21"/>
<g id="a_edge14&#45;headlabel"><a xlink:href="dir_000018_000022.html" target="_top" xlink:title="17">
<text text-anchor="middle" x="160.85" y="-112.82" font-family="Helvetica,sans-Serif" font-size="10.00">17</text>
</a>
</g>
</g>
<!-- dir_c6f90d7b3aff386cab2eb5eb40ce2f26&#45;&gt;dir_d6b47c55c117061889082b3039c4cfaf -->
<g id="edge15" class="edge">
<title>dir_c6f90d7b3aff386cab2eb5eb40ce2f26&#45;&gt;dir_d6b47c55c117061889082b3039c4cfaf</title>
<path fill="none" stroke="black" d="M172.65,-215.7C166.24,-207.39 158.44,-197.28 151.39,-188.14"/>
<polygon fill="black" stroke="black" points="154.07,-185.88 145.19,-180.1 148.53,-190.16 154.07,-185.88"/>
<g id="a_edge15&#45;headlabel"><a xlink:href="dir_000018_000013.html" target="_top" xlink:title="6">
<text text-anchor="middle" x="158.52" y="-184.5" font-family="Helvetica,sans-Serif" font-size="10.00">6</text>
</a>
</g>
</g>
</g>
</svg>
