<?xml version="1.0" encoding="UTF-8" standalone="no"?>
<!DOCTYPE svg PUBLIC "-//W3C//DTD SVG 1.1//EN"
 "http://www.w3.org/Graphics/SVG/1.1/DTD/svg11.dtd">
<!-- Generated by graphviz version 2.43.0 (0)
 -->
<!-- Title: executor/src Pages: 1 -->
<svg width="279pt" height="295pt"
 viewBox="0.00 0.00 279.34 295.00" xmlns="http://www.w3.org/2000/svg" xmlns:xlink="http://www.w3.org/1999/xlink">
<g id="graph0" class="graph" transform="scale(1 1) rotate(0) translate(4 291)">
<title>executor/src</title>
<polygon fill="white" stroke="transparent" points="-4,4 -4,-291 275.34,-291 275.34,4 -4,4"/>
<g id="clust1" class="cluster">
<title>clusterdir_d6b47c55c117061889082b3039c4cfaf</title>
<g id="a_clust1"><a xlink:href="dir_d6b47c55c117061889082b3039c4cfaf.html" target="_top" xlink:title="executor">
<polygon fill="#ddddee" stroke="black" points="94.32,-208 94.32,-279 164.32,-279 164.32,-208 94.32,-208"/>
<text text-anchor="middle" x="129.32" y="-267" font-family="Helvetica,sans-Serif" font-size="10.00">executor</text>
</a>
</g>
</g>
<!-- dir_01bb488ba2da569494bd6323304f0767 -->
<g id="node1" class="node">
<title>dir_01bb488ba2da569494bd6323304f0767</title>
<g id="a_node1"><a xlink:href="dir_01bb488ba2da569494bd6323304f0767.html" target="_top" xlink:title="src">
<polygon fill="#eeeeff" stroke="black" points="156.32,-252 102.32,-252 102.32,-216 156.32,-216 156.32,-252"/>
<text text-anchor="middle" x="129.32" y="-231.5" font-family="Helvetica,sans-Serif" font-size="10.00">src</text>
</a>
</g>
</g>
<!-- dir_f08c1ffadff6e9e08f49766ff6ac3753 -->
<g id="node2" class="node">
<title>dir_f08c1ffadff6e9e08f49766ff6ac3753</title>
<g id="a_node2"><a xlink:href="dir_f08c1ffadff6e9e08f49766ff6ac3753.html" target="_top" xlink:title="utils">
<polygon fill="white" stroke="red" points="133.32,-108 79.32,-108 79.32,-72 133.32,-72 133.32,-108"/>
<text text-anchor="middle" x="106.32" y="-87.5" font-family="Helvetica,sans-Serif" font-size="10.00">utils</text>
</a>
</g>
</g>
<!-- dir_01bb488ba2da569494bd6323304f0767&#45;&gt;dir_f08c1ffadff6e9e08f49766ff6ac3753 -->
<g id="edge8" class="edge">
<title>dir_01bb488ba2da569494bd6323304f0767&#45;&gt;dir_f08c1ffadff6e9e08f49766ff6ac3753</title>
<path fill="none" stroke="black" d="M126.54,-215.87C122.62,-191.67 115.42,-147.21 110.75,-118.39"/>
<polygon fill="black" stroke="black" points="114.15,-117.5 109.1,-108.19 107.24,-118.62 114.15,-117.5"/>
<g id="a_edge8&#45;headlabel"><a xlink:href="dir_000017_000025.html" target="_top" xlink:title="4">
<text text-anchor="middle" x="117.53" y="-118.1" font-family="Helvetica,sans-Serif" font-size="10.00">4</text>
</a>
</g>
</g>
<!-- dir_f8c6f0679b123304d35aae1bb0e284fb -->
<g id="node3" class="node">
<title>dir_f8c6f0679b123304d35aae1bb0e284fb</title>
<g id="a_node3"><a xlink:href="dir_f8c6f0679b123304d35aae1bb0e284fb.html" target="_top" xlink:title="database">
<polygon fill="white" stroke="red" points="137.32,-36 75.32,-36 75.32,0 137.32,0 137.32,-36"/>
<text text-anchor="middle" x="106.32" y="-15.5" font-family="Helvetica,sans-Serif" font-size="10.00">database</text>
</a>
</g>
</g>
<!-- dir_01bb488ba2da569494bd6323304f0767&#45;&gt;dir_f8c6f0679b123304d35aae1bb0e284fb -->
<g id="edge9" class="edge">
<title>dir_01bb488ba2da569494bd6323304f0767&#45;&gt;dir_f8c6f0679b123304d35aae1bb0e284fb</title>
<path fill="none" stroke="black" d="M102.12,-229.56C73.48,-224.32 29.77,-211.39 9.32,-180 -21.95,-132.01 35.25,-74.15 74.31,-42.5"/>
<polygon fill="black" stroke="black" points="76.66,-45.11 82.33,-36.16 72.32,-39.62 76.66,-45.11"/>
<g id="a_edge9&#45;headlabel"><a xlink:href="dir_000017_000010.html" target="_top" xlink:title="3">
<text text-anchor="middle" x="75.6" y="-47.07" font-family="Helvetica,sans-Serif" font-size="10.00">3</text>
</a>
</g>
</g>
<!-- dir_521dc20e1c32dad3a389d870e90503a0 -->
<g id="node4" class="node">
<title>dir_521dc20e1c32dad3a389d870e90503a0</title>
<g id="a_node4"><a xlink:href="dir_521dc20e1c32dad3a389d870e90503a0.html" target="_top" xlink:title="core">
<polygon fill="white" stroke="red" points="256.32,-180 202.32,-180 202.32,-144 256.32,-144 256.32,-180"/>
<text text-anchor="middle" x="229.32" y="-159.5" font-family="Helvetica,sans-Serif" font-size="10.00">core</text>
</a>
</g>
</g>
<!-- dir_01bb488ba2da569494bd6323304f0767&#45;&gt;dir_521dc20e1c32dad3a389d870e90503a0 -->
<g id="edge10" class="edge">
<title>dir_01bb488ba2da569494bd6323304f0767&#45;&gt;dir_521dc20e1c32dad3a389d870e90503a0</title>
<path fill="none" stroke="black" d="M153.78,-215.88C166.61,-206.89 182.51,-195.76 196.41,-186.03"/>
<polygon fill="black" stroke="black" points="198.57,-188.79 204.76,-180.19 194.56,-183.06 198.57,-188.79"/>
<g id="a_edge10&#45;headlabel"><a xlink:href="dir_000017_000007.html" target="_top" xlink:title="2">
<text text-anchor="middle" x="197.26" y="-190.68" font-family="Helvetica,sans-Serif" font-size="10.00">2</text>
</a>
</g>
</g>
<!-- dir_6934992e9a368eaba336ecc6a1d98046 -->
<g id="node5" class="node">
<title>dir_6934992e9a368eaba336ecc6a1d98046</title>
<g id="a_node5"><a xlink:href="dir_6934992e9a368eaba336ecc6a1d98046.html" target="_top" xlink:title="proto">
<polygon fill="white" stroke="red" points="184.32,-180 130.32,-180 130.32,-144 184.32,-144 184.32,-180"/>
<text text-anchor="middle" x="157.32" y="-159.5" font-family="Helvetica,sans-Serif" font-size="10.00">proto</text>
</a>
</g>
</g>
<!-- dir_01bb488ba2da569494bd6323304f0767&#45;&gt;dir_6934992e9a368eaba336ecc6a1d98046 -->
<g id="edge11" class="edge">
<title>dir_01bb488ba2da569494bd6323304f0767&#45;&gt;dir_6934992e9a368eaba336ecc6a1d98046</title>
<path fill="none" stroke="black" d="M136.24,-215.7C139.39,-207.81 143.19,-198.3 146.7,-189.55"/>
<polygon fill="black" stroke="black" points="150.01,-190.69 150.47,-180.1 143.51,-188.09 150.01,-190.69"/>
<g id="a_edge11&#45;headlabel"><a xlink:href="dir_000017_000015.html" target="_top" xlink:title="1">
<text text-anchor="middle" x="151.31" y="-192.58" font-family="Helvetica,sans-Serif" font-size="10.00">1</text>
</a>
</g>
</g>
<!-- dir_0e2b23df43e6599042525cfec0ad0bb8 -->
<g id="node6" class="node">
<title>dir_0e2b23df43e6599042525cfec0ad0bb8</title>
<g id="a_node6"><a xlink:href="dir_0e2b23df43e6599042525cfec0ad0bb8.html" target="_top" xlink:title="inc">
<polygon fill="none" stroke="black" points="256.32,-108 202.32,-108 202.32,-72 256.32,-72 256.32,-108"/>
<text text-anchor="middle" x="229.32" y="-87.5" font-family="Helvetica,sans-Serif" font-size="10.00">inc</text>
</a>
</g>
</g>
<!-- dir_01bb488ba2da569494bd6323304f0767&#45;&gt;dir_0e2b23df43e6599042525cfec0ad0bb8 -->
<g id="edge12" class="edge">
<title>dir_01bb488ba2da569494bd6323304f0767&#45;&gt;dir_0e2b23df43e6599042525cfec0ad0bb8</title>
<path fill="none" stroke="black" d="M156.53,-231.15C188.7,-227.34 240.93,-215.67 265.32,-180 278.77,-160.31 265.94,-134.83 252,-116.18"/>
<polygon fill="black" stroke="black" points="254.57,-113.79 245.61,-108.14 249.09,-118.14 254.57,-113.79"/>
<g id="a_edge12&#45;headlabel"><a xlink:href="dir_000017_000014.html" target="_top" xlink:title="2">
<text text-anchor="middle" x="259.03" y="-112.33" font-family="Helvetica,sans-Serif" font-size="10.00">2</text>
</a>
</g>
</g>
<!-- dir_781159eb54bc5a6fc531434f98d69498 -->
<g id="node7" class="node">
<title>dir_781159eb54bc5a6fc531434f98d69498</title>
<g id="a_node7"><a xlink:href="dir_781159eb54bc5a6fc531434f98d69498.html" target="_top" xlink:title="security">
<polygon fill="white" stroke="red" points="74.32,-180 18.32,-180 18.32,-144 74.32,-144 74.32,-180"/>
<text text-anchor="middle" x="46.32" y="-159.5" font-family="Helvetica,sans-Serif" font-size="10.00">security</text>
</a>
</g>
</g>
<!-- dir_01bb488ba2da569494bd6323304f0767&#45;&gt;dir_781159eb54bc5a6fc531434f98d69498 -->
<g id="edge13" class="edge">
<title>dir_01bb488ba2da569494bd6323304f0767&#45;&gt;dir_781159eb54bc5a6fc531434f98d69498</title>
<path fill="none" stroke="black" d="M108.8,-215.7C98.45,-206.97 85.73,-196.24 74.48,-186.75"/>
<polygon fill="black" stroke="black" points="76.5,-183.88 66.6,-180.1 71.98,-189.23 76.5,-183.88"/>
<g id="a_edge13&#45;headlabel"><a xlink:href="dir_000017_000021.html" target="_top" xlink:title="2">
<text text-anchor="middle" x="81.08" y="-181.52" font-family="Helvetica,sans-Serif" font-size="10.00">2</text>
</a>
</g>
</g>
<!-- dir_f08c1ffadff6e9e08f49766ff6ac3753&#45;&gt;dir_f8c6f0679b123304d35aae1bb0e284fb -->
<g id="edge1" class="edge">
<title>dir_f08c1ffadff6e9e08f49766ff6ac3753&#45;&gt;dir_f8c6f0679b123304d35aae1bb0e284fb</title>
<path fill="none" stroke="black" d="M100.4,-71.7C99.6,-63.98 99.38,-54.71 99.72,-46.11"/>
<polygon fill="black" stroke="black" points="103.21,-46.32 100.42,-36.1 96.23,-45.84 103.21,-46.32"/>
<g id="a_edge1&#45;headlabel"><a xlink:href="dir_000025_000010.html" target="_top" xlink:title="2">
<text text-anchor="middle" x="105.8" y="-47.61" font-family="Helvetica,sans-Serif" font-size="10.00">2</text>
</a>
</g>
</g>
<!-- dir_f8c6f0679b123304d35aae1bb0e284fb&#45;&gt;dir_f08c1ffadff6e9e08f49766ff6ac3753 -->
<g id="edge2" class="edge">
<title>dir_f8c6f0679b123304d35aae1bb0e284fb&#45;&gt;dir_f08c1ffadff6e9e08f49766ff6ac3753</title>
<path fill="none" stroke="black" d="M112.21,-36.1C113.02,-43.79 113.25,-53.05 112.92,-61.67"/>
<polygon fill="black" stroke="black" points="109.42,-61.48 112.23,-71.7 116.41,-61.96 109.42,-61.48"/>
<g id="a_edge2&#45;headlabel"><a xlink:href="dir_000010_000025.html" target="_top" xlink:title="1">
<text text-anchor="middle" x="106.84" y="-55.2" font-family="Helvetica,sans-Serif" font-size="10.00">1</text>
</a>
</g>
</g>
<!-- dir_521dc20e1c32dad3a389d870e90503a0&#45;&gt;dir_f08c1ffadff6e9e08f49766ff6ac3753 -->
<g id="edge3" class="edge">
<title>dir_521dc20e1c32dad3a389d870e90503a0&#45;&gt;dir_f08c1ffadff6e9e08f49766ff6ac3753</title>
<path fill="none" stroke="black" d="M202.02,-145.46C184.42,-135.45 161.35,-122.32 142.27,-111.46"/>
<polygon fill="black" stroke="black" points="143.96,-108.4 133.54,-106.49 140.5,-114.48 143.96,-108.4"/>
<g id="a_edge3&#45;headlabel"><a xlink:href="dir_000007_000025.html" target="_top" xlink:title="2">
<text text-anchor="middle" x="148.49" y="-105.21" font-family="Helvetica,sans-Serif" font-size="10.00">2</text>
</a>
</g>
</g>
<!-- dir_521dc20e1c32dad3a389d870e90503a0&#45;&gt;dir_f8c6f0679b123304d35aae1bb0e284fb -->
<g id="edge4" class="edge">
<title>dir_521dc20e1c32dad3a389d870e90503a0&#45;&gt;dir_f8c6f0679b123304d35aae1bb0e284fb</title>
<path fill="none" stroke="black" d="M214.48,-143.87C192.87,-118.92 152.61,-72.45 127.77,-43.77"/>
<polygon fill="black" stroke="black" points="130.4,-41.46 121.2,-36.19 125.11,-46.04 130.4,-41.46"/>
<g id="a_edge4&#45;headlabel"><a xlink:href="dir_000007_000010.html" target="_top" xlink:title="3">
<text text-anchor="middle" x="134.9" y="-39.81" font-family="Helvetica,sans-Serif" font-size="10.00">3</text>
</a>
</g>
</g>
<!-- dir_521dc20e1c32dad3a389d870e90503a0&#45;&gt;dir_0e2b23df43e6599042525cfec0ad0bb8 -->
<g id="edge5" class="edge">
<title>dir_521dc20e1c32dad3a389d870e90503a0&#45;&gt;dir_0e2b23df43e6599042525cfec0ad0bb8</title>
<path fill="none" stroke="black" d="M223.4,-143.7C222.6,-135.98 222.38,-126.71 222.72,-118.11"/>
<polygon fill="black" stroke="black" points="226.21,-118.32 223.42,-108.1 219.23,-117.84 226.21,-118.32"/>
<g id="a_edge5&#45;headlabel"><a xlink:href="dir_000007_000014.html" target="_top" xlink:title="2">
<text text-anchor="middle" x="228.8" y="-119.61" font-family="Helvetica,sans-Serif" font-size="10.00">2</text>
</a>
</g>
</g>
<!-- dir_0e2b23df43e6599042525cfec0ad0bb8&#45;&gt;dir_f8c6f0679b123304d35aae1bb0e284fb -->
<g id="edge6" class="edge">
<title>dir_0e2b23df43e6599042525cfec0ad0bb8&#45;&gt;dir_f8c6f0679b123304d35aae1bb0e284fb</title>
<path fill="none" stroke="black" d="M202.02,-73.46C185.35,-63.98 163.77,-51.7 145.33,-41.2"/>
<polygon fill="black" stroke="black" points="146.98,-38.12 136.56,-36.21 143.52,-44.2 146.98,-38.12"/>
<g id="a_edge6&#45;headlabel"><a xlink:href="dir_000014_000010.html" target="_top" xlink:title="2">
<text text-anchor="middle" x="151.51" y="-34.93" font-family="Helvetica,sans-Serif" font-size="10.00">2</text>
</a>
</g>
</g>
<!-- dir_0e2b23df43e6599042525cfec0ad0bb8&#45;&gt;dir_521dc20e1c32dad3a389d870e90503a0 -->
<g id="edge7" class="edge">
<title>dir_0e2b23df43e6599042525cfec0ad0bb8&#45;&gt;dir_521dc20e1c32dad3a389d870e90503a0</title>
<path fill="none" stroke="black" d="M235.21,-108.1C236.02,-115.79 236.25,-125.05 235.92,-133.67"/>
<polygon fill="black" stroke="black" points="232.42,-133.48 235.23,-143.7 239.41,-133.96 232.42,-133.48"/>
<g id="a_edge7&#45;headlabel"><a xlink:href="dir_000014_000007.html" target="_top" xlink:title="2">
<text text-anchor="middle" x="229.84" y="-127.2" font-family="Helvetica,sans-Serif" font-size="10.00">2</text>
</a>
</g>
</g>
<!-- dir_781159eb54bc5a6fc531434f98d69498&#45;&gt;dir_f08c1ffadff6e9e08f49766ff6ac3753 -->
<g id="edge14" class="edge">
<title>dir_781159eb54bc5a6fc531434f98d69498&#45;&gt;dir_f08c1ffadff6e9e08f49766ff6ac3753</title>
<path fill="none" stroke="black" d="M61.15,-143.7C68.34,-135.3 77.11,-125.07 85.01,-115.86"/>
<polygon fill="black" stroke="black" points="87.8,-117.97 91.65,-108.1 82.49,-113.42 87.8,-117.97"/>
<g id="a_edge14&#45;headlabel"><a xlink:href="dir_000021_000025.html" target="_top" xlink:title="4">
<text text-anchor="middle" x="87.62" y="-120.05" font-family="Helvetica,sans-Serif" font-size="10.00">4</text>
</a>
</g>
</g>
</g>
</svg>
