<?xml version="1.0" encoding="UTF-8" standalone="no"?>
<!DOCTYPE svg PUBLIC "-//W3C//DTD SVG 1.1//EN"
 "http://www.w3.org/Graphics/SVG/1.1/DTD/svg11.dtd">
<!-- Generated by graphviz version 2.43.0 (0)
 -->
<!-- Title: executor/src Pages: 1 -->
<svg width="216pt" height="295pt"
 viewBox="0.00 0.00 215.97 295.00" xmlns="http://www.w3.org/2000/svg" xmlns:xlink="http://www.w3.org/1999/xlink">
<g id="graph0" class="graph" transform="scale(1 1) rotate(0) translate(4 291)">
<title>executor/src</title>
<polygon fill="white" stroke="transparent" points="-4,4 -4,-291 211.97,-291 211.97,4 -4,4"/>
<g id="clust1" class="cluster">
<title>clusterdir_d6b47c55c117061889082b3039c4cfaf</title>
<g id="a_clust1"><a xlink:href="dir_d6b47c55c117061889082b3039c4cfaf.html" target="_top" xlink:title="executor">
<polygon fill="#ddddee" stroke="black" points="59.35,-208 59.35,-279 129.35,-279 129.35,-208 59.35,-208"/>
<text text-anchor="middle" x="94.35" y="-267" font-family="Helvetica,sans-Serif" font-size="10.00">executor</text>
</a>
</g>
</g>
<!-- dir_01bb488ba2da569494bd6323304f0767 -->
<g id="node1" class="node">
<title>dir_01bb488ba2da569494bd6323304f0767</title>
<g id="a_node1"><a xlink:href="dir_01bb488ba2da569494bd6323304f0767.html" target="_top" xlink:title="src">
<polygon fill="#eeeeff" stroke="black" points="121.35,-252 67.35,-252 67.35,-216 121.35,-216 121.35,-252"/>
<text text-anchor="middle" x="94.35" y="-231.5" font-family="Helvetica,sans-Serif" font-size="10.00">src</text>
</a>
</g>
</g>
<!-- dir_f08c1ffadff6e9e08f49766ff6ac3753 -->
<g id="node2" class="node">
<title>dir_f08c1ffadff6e9e08f49766ff6ac3753</title>
<g id="a_node2"><a xlink:href="dir_f08c1ffadff6e9e08f49766ff6ac3753.html" target="_top" xlink:title="utils">
<polygon fill="white" stroke="red" points="66.35,-108 12.35,-108 12.35,-72 66.35,-72 66.35,-108"/>
<text text-anchor="middle" x="39.35" y="-87.5" font-family="Helvetica,sans-Serif" font-size="10.00">utils</text>
</a>
</g>
</g>
<!-- dir_01bb488ba2da569494bd6323304f0767&#45;&gt;dir_f08c1ffadff6e9e08f49766ff6ac3753 -->
<g id="edge8" class="edge">
<title>dir_01bb488ba2da569494bd6323304f0767&#45;&gt;dir_f08c1ffadff6e9e08f49766ff6ac3753</title>
<path fill="none" stroke="black" d="M80.19,-215.85C72.66,-205.93 63.86,-192.89 58.35,-180 49.94,-160.29 45.11,-136.49 42.43,-118.46"/>
<polygon fill="black" stroke="black" points="45.86,-117.76 41.05,-108.33 38.93,-118.71 45.86,-117.76"/>
<g id="a_edge8&#45;headlabel"><a xlink:href="dir_000017_000021.html" target="_top" xlink:title="4">
<text text-anchor="middle" x="49.16" y="-118.44" font-family="Helvetica,sans-Serif" font-size="10.00">4</text>
</a>
</g>
</g>
<!-- dir_f8c6f0679b123304d35aae1bb0e284fb -->
<g id="node3" class="node">
<title>dir_f8c6f0679b123304d35aae1bb0e284fb</title>
<g id="a_node3"><a xlink:href="dir_f8c6f0679b123304d35aae1bb0e284fb.html" target="_top" xlink:title="database">
<polygon fill="white" stroke="red" points="70.35,-36 8.35,-36 8.35,0 70.35,0 70.35,-36"/>
<text text-anchor="middle" x="39.35" y="-15.5" font-family="Helvetica,sans-Serif" font-size="10.00">database</text>
</a>
</g>
</g>
<!-- dir_01bb488ba2da569494bd6323304f0767&#45;&gt;dir_f8c6f0679b123304d35aae1bb0e284fb -->
<g id="edge9" class="edge">
<title>dir_01bb488ba2da569494bd6323304f0767&#45;&gt;dir_f8c6f0679b123304d35aae1bb0e284fb</title>
<path fill="none" stroke="black" d="M75.13,-215.89C52.03,-193.76 14.94,-152.69 3.35,-108 -0.66,-92.51 -1.35,-87.29 3.35,-72 6.36,-62.22 11.86,-52.62 17.67,-44.33"/>
<polygon fill="black" stroke="black" points="20.55,-46.33 23.74,-36.23 14.95,-42.13 20.55,-46.33"/>
<g id="a_edge9&#45;headlabel"><a xlink:href="dir_000017_000010.html" target="_top" xlink:title="3">
<text text-anchor="middle" x="20.67" y="-48.41" font-family="Helvetica,sans-Serif" font-size="10.00">3</text>
</a>
</g>
</g>
<!-- dir_521dc20e1c32dad3a389d870e90503a0 -->
<g id="node4" class="node">
<title>dir_521dc20e1c32dad3a389d870e90503a0</title>
<g id="a_node4"><a xlink:href="dir_521dc20e1c32dad3a389d870e90503a0.html" target="_top" xlink:title="core">
<polygon fill="white" stroke="red" points="121.35,-180 67.35,-180 67.35,-144 121.35,-144 121.35,-180"/>
<text text-anchor="middle" x="94.35" y="-159.5" font-family="Helvetica,sans-Serif" font-size="10.00">core</text>
</a>
</g>
</g>
<!-- dir_01bb488ba2da569494bd6323304f0767&#45;&gt;dir_521dc20e1c32dad3a389d870e90503a0 -->
<g id="edge10" class="edge">
<title>dir_01bb488ba2da569494bd6323304f0767&#45;&gt;dir_521dc20e1c32dad3a389d870e90503a0</title>
<path fill="none" stroke="black" d="M94.35,-215.7C94.35,-207.98 94.35,-198.71 94.35,-190.11"/>
<polygon fill="black" stroke="black" points="97.85,-190.1 94.35,-180.1 90.85,-190.1 97.85,-190.1"/>
<g id="a_edge10&#45;headlabel"><a xlink:href="dir_000017_000007.html" target="_top" xlink:title="2">
<text text-anchor="middle" x="100.69" y="-191.2" font-family="Helvetica,sans-Serif" font-size="10.00">2</text>
</a>
</g>
</g>
<!-- dir_6934992e9a368eaba336ecc6a1d98046 -->
<g id="node5" class="node">
<title>dir_6934992e9a368eaba336ecc6a1d98046</title>
<g id="a_node5"><a xlink:href="dir_6934992e9a368eaba336ecc6a1d98046.html" target="_top" xlink:title="proto">
<polygon fill="white" stroke="red" points="193.35,-180 139.35,-180 139.35,-144 193.35,-144 193.35,-180"/>
<text text-anchor="middle" x="166.35" y="-159.5" font-family="Helvetica,sans-Serif" font-size="10.00">proto</text>
</a>
</g>
</g>
<!-- dir_01bb488ba2da569494bd6323304f0767&#45;&gt;dir_6934992e9a368eaba336ecc6a1d98046 -->
<g id="edge11" class="edge">
<title>dir_01bb488ba2da569494bd6323304f0767&#45;&gt;dir_6934992e9a368eaba336ecc6a1d98046</title>
<path fill="none" stroke="black" d="M112.15,-215.7C120.96,-207.14 131.74,-196.66 141.36,-187.3"/>
<polygon fill="black" stroke="black" points="144.03,-189.58 148.76,-180.1 139.15,-184.57 144.03,-189.58"/>
<g id="a_edge11&#45;headlabel"><a xlink:href="dir_000017_000015.html" target="_top" xlink:title="1">
<text text-anchor="middle" x="143.43" y="-191.63" font-family="Helvetica,sans-Serif" font-size="10.00">1</text>
</a>
</g>
</g>
<!-- dir_0e2b23df43e6599042525cfec0ad0bb8 -->
<g id="node6" class="node">
<title>dir_0e2b23df43e6599042525cfec0ad0bb8</title>
<g id="a_node6"><a xlink:href="dir_0e2b23df43e6599042525cfec0ad0bb8.html" target="_top" xlink:title="inc">
<polygon fill="none" stroke="black" points="176.35,-108 122.35,-108 122.35,-72 176.35,-72 176.35,-108"/>
<text text-anchor="middle" x="149.35" y="-87.5" font-family="Helvetica,sans-Serif" font-size="10.00">inc</text>
</a>
</g>
</g>
<!-- dir_01bb488ba2da569494bd6323304f0767&#45;&gt;dir_0e2b23df43e6599042525cfec0ad0bb8 -->
<g id="edge12" class="edge">
<title>dir_01bb488ba2da569494bd6323304f0767&#45;&gt;dir_0e2b23df43e6599042525cfec0ad0bb8</title>
<path fill="none" stroke="black" d="M121.56,-228.08C147.38,-221.8 184.79,-208.18 202.35,-180 210.82,-166.42 208.48,-158.78 202.35,-144 197.81,-133.03 189.77,-123.14 181.3,-114.96"/>
<polygon fill="black" stroke="black" points="183.6,-112.33 173.83,-108.23 178.92,-117.53 183.6,-112.33"/>
<g id="a_edge12&#45;headlabel"><a xlink:href="dir_000017_000014.html" target="_top" xlink:title="2">
<text text-anchor="middle" x="188.17" y="-110.12" font-family="Helvetica,sans-Serif" font-size="10.00">2</text>
</a>
</g>
</g>
<!-- dir_f08c1ffadff6e9e08f49766ff6ac3753&#45;&gt;dir_f8c6f0679b123304d35aae1bb0e284fb -->
<g id="edge1" class="edge">
<title>dir_f08c1ffadff6e9e08f49766ff6ac3753&#45;&gt;dir_f8c6f0679b123304d35aae1bb0e284fb</title>
<path fill="none" stroke="black" d="M33.44,-71.7C32.64,-63.98 32.42,-54.71 32.76,-46.11"/>
<polygon fill="black" stroke="black" points="36.25,-46.32 33.46,-36.1 29.27,-45.84 36.25,-46.32"/>
<g id="a_edge1&#45;headlabel"><a xlink:href="dir_000021_000010.html" target="_top" xlink:title="2">
<text text-anchor="middle" x="38.83" y="-47.61" font-family="Helvetica,sans-Serif" font-size="10.00">2</text>
</a>
</g>
</g>
<!-- dir_f8c6f0679b123304d35aae1bb0e284fb&#45;&gt;dir_f08c1ffadff6e9e08f49766ff6ac3753 -->
<g id="edge2" class="edge">
<title>dir_f8c6f0679b123304d35aae1bb0e284fb&#45;&gt;dir_f08c1ffadff6e9e08f49766ff6ac3753</title>
<path fill="none" stroke="black" d="M45.25,-36.1C46.06,-43.79 46.29,-53.05 45.96,-61.67"/>
<polygon fill="black" stroke="black" points="42.46,-61.48 45.27,-71.7 49.45,-61.96 42.46,-61.48"/>
<g id="a_edge2&#45;headlabel"><a xlink:href="dir_000010_000021.html" target="_top" xlink:title="1">
<text text-anchor="middle" x="39.88" y="-55.2" font-family="Helvetica,sans-Serif" font-size="10.00">1</text>
</a>
</g>
</g>
<!-- dir_521dc20e1c32dad3a389d870e90503a0&#45;&gt;dir_f08c1ffadff6e9e08f49766ff6ac3753 -->
<g id="edge3" class="edge">
<title>dir_521dc20e1c32dad3a389d870e90503a0&#45;&gt;dir_f08c1ffadff6e9e08f49766ff6ac3753</title>
<path fill="none" stroke="black" d="M80.76,-143.7C74.23,-135.39 66.29,-125.28 59.11,-116.14"/>
<polygon fill="black" stroke="black" points="61.72,-113.81 52.79,-108.1 56.22,-118.13 61.72,-113.81"/>
<g id="a_edge3&#45;headlabel"><a xlink:href="dir_000007_000021.html" target="_top" xlink:title="2">
<text text-anchor="middle" x="66.18" y="-112.38" font-family="Helvetica,sans-Serif" font-size="10.00">2</text>
</a>
</g>
</g>
<!-- dir_521dc20e1c32dad3a389d870e90503a0&#45;&gt;dir_f8c6f0679b123304d35aae1bb0e284fb -->
<g id="edge4" class="edge">
<title>dir_521dc20e1c32dad3a389d870e90503a0&#45;&gt;dir_f8c6f0679b123304d35aae1bb0e284fb</title>
<path fill="none" stroke="black" d="M92.66,-143.67C90.4,-125.29 85.47,-95.69 75.35,-72 71.27,-62.43 65.37,-52.78 59.52,-44.39"/>
<polygon fill="black" stroke="black" points="62.23,-42.17 53.52,-36.15 56.58,-46.29 62.23,-42.17"/>
<g id="a_edge4&#45;headlabel"><a xlink:href="dir_000007_000010.html" target="_top" xlink:title="3">
<text text-anchor="middle" x="66.65" y="-40.91" font-family="Helvetica,sans-Serif" font-size="10.00">3</text>
</a>
</g>
</g>
<!-- dir_521dc20e1c32dad3a389d870e90503a0&#45;&gt;dir_0e2b23df43e6599042525cfec0ad0bb8 -->
<g id="edge5" class="edge">
<title>dir_521dc20e1c32dad3a389d870e90503a0&#45;&gt;dir_0e2b23df43e6599042525cfec0ad0bb8</title>
<path fill="none" stroke="black" d="M102.03,-143.7C107.76,-135.3 115.61,-125.07 123.33,-115.86"/>
<polygon fill="black" stroke="black" points="126.14,-117.96 130.02,-108.1 120.84,-113.39 126.14,-117.96"/>
<g id="a_edge5&#45;headlabel"><a xlink:href="dir_000007_000014.html" target="_top" xlink:title="2">
<text text-anchor="middle" x="125.94" y="-120.04" font-family="Helvetica,sans-Serif" font-size="10.00">2</text>
</a>
</g>
</g>
<!-- dir_0e2b23df43e6599042525cfec0ad0bb8&#45;&gt;dir_f8c6f0679b123304d35aae1bb0e284fb -->
<g id="edge6" class="edge">
<title>dir_0e2b23df43e6599042525cfec0ad0bb8&#45;&gt;dir_f8c6f0679b123304d35aae1bb0e284fb</title>
<path fill="none" stroke="black" d="M122.45,-71.88C108.2,-62.81 90.51,-51.55 75.12,-41.76"/>
<polygon fill="black" stroke="black" points="76.68,-38.61 66.37,-36.19 72.92,-44.51 76.68,-38.61"/>
<g id="a_edge6&#45;headlabel"><a xlink:href="dir_000014_000010.html" target="_top" xlink:title="2">
<text text-anchor="middle" x="81.24" y="-35.64" font-family="Helvetica,sans-Serif" font-size="10.00">2</text>
</a>
</g>
</g>
<!-- dir_0e2b23df43e6599042525cfec0ad0bb8&#45;&gt;dir_521dc20e1c32dad3a389d870e90503a0 -->
<g id="edge7" class="edge">
<title>dir_0e2b23df43e6599042525cfec0ad0bb8&#45;&gt;dir_521dc20e1c32dad3a389d870e90503a0</title>
<path fill="none" stroke="black" d="M141.81,-108.1C136.12,-116.47 128.28,-126.69 120.56,-135.92"/>
<polygon fill="black" stroke="black" points="117.74,-133.84 113.87,-143.7 123.04,-138.4 117.74,-133.84"/>
<g id="a_edge7&#45;headlabel"><a xlink:href="dir_000014_000007.html" target="_top" xlink:title="2">
<text text-anchor="middle" x="117.93" y="-126.76" font-family="Helvetica,sans-Serif" font-size="10.00">2</text>
</a>
</g>
</g>
</g>
</svg>
