<?xml version="1.0" encoding="UTF-8" standalone="no"?>
<!DOCTYPE svg PUBLIC "-//W3C//DTD SVG 1.1//EN"
 "http://www.w3.org/Graphics/SVG/1.1/DTD/svg11.dtd">
<!-- Generated by graphviz version 2.43.0 (0)
 -->
<!-- Title: utils/src Pages: 1 -->
<svg width="142pt" height="151pt"
 viewBox="0.00 0.00 142.00 151.00" xmlns="http://www.w3.org/2000/svg" xmlns:xlink="http://www.w3.org/1999/xlink">
<g id="graph0" class="graph" transform="scale(1 1) rotate(0) translate(4 147)">
<title>utils/src</title>
<polygon fill="white" stroke="transparent" points="-4,4 -4,-147 138,-147 138,4 -4,4"/>
<g id="clust1" class="cluster">
<title>clusterdir_f08c1ffadff6e9e08f49766ff6ac3753</title>
<g id="a_clust1"><a xlink:href="dir_f08c1ffadff6e9e08f49766ff6ac3753.html" target="_top" xlink:title="utils">
<polygon fill="#ddddee" stroke="black" points="34,-64 34,-135 104,-135 104,-64 34,-64"/>
<text text-anchor="middle" x="69" y="-123" font-family="Helvetica,sans-Serif" font-size="10.00">utils</text>
</a>
</g>
</g>
<!-- dir_969e0ef425e5eabd9df1b99eb11357ce -->
<g id="node1" class="node">
<title>dir_969e0ef425e5eabd9df1b99eb11357ce</title>
<g id="a_node1"><a xlink:href="dir_969e0ef425e5eabd9df1b99eb11357ce.html" target="_top" xlink:title="src">
<polygon fill="#eeeeff" stroke="black" points="96,-108 42,-108 42,-72 96,-72 96,-108"/>
<text text-anchor="middle" x="69" y="-87.5" font-family="Helvetica,sans-Serif" font-size="10.00">src</text>
</a>
</g>
</g>
<!-- dir_f8c6f0679b123304d35aae1bb0e284fb -->
<g id="node2" class="node">
<title>dir_f8c6f0679b123304d35aae1bb0e284fb</title>
<g id="a_node2"><a xlink:href="dir_f8c6f0679b123304d35aae1bb0e284fb.html" target="_top" xlink:title="database">
<polygon fill="white" stroke="red" points="62,-36 0,-36 0,0 62,0 62,-36"/>
<text text-anchor="middle" x="31" y="-15.5" font-family="Helvetica,sans-Serif" font-size="10.00">database</text>
</a>
</g>
</g>
<!-- dir_969e0ef425e5eabd9df1b99eb11357ce&#45;&gt;dir_f8c6f0679b123304d35aae1bb0e284fb -->
<g id="edge1" class="edge">
<title>dir_969e0ef425e5eabd9df1b99eb11357ce&#45;&gt;dir_f8c6f0679b123304d35aae1bb0e284fb</title>
<path fill="none" stroke="black" d="M59.61,-71.7C55.24,-63.64 49.94,-53.89 45.1,-44.98"/>
<polygon fill="black" stroke="black" points="48.13,-43.22 40.29,-36.1 41.98,-46.56 48.13,-43.22"/>
<g id="a_edge1&#45;headlabel"><a xlink:href="dir_000023_000010.html" target="_top" xlink:title="1">
<text text-anchor="middle" x="52.34" y="-42.53" font-family="Helvetica,sans-Serif" font-size="10.00">1</text>
</a>
</g>
</g>
<!-- dir_8e032a88fd97b977b14fa9c66aef0e48 -->
<g id="node3" class="node">
<title>dir_8e032a88fd97b977b14fa9c66aef0e48</title>
<g id="a_node3"><a xlink:href="dir_8e032a88fd97b977b14fa9c66aef0e48.html" target="_top" xlink:title="inc">
<polygon fill="none" stroke="black" points="134,-36 80,-36 80,0 134,0 134,-36"/>
<text text-anchor="middle" x="107" y="-15.5" font-family="Helvetica,sans-Serif" font-size="10.00">inc</text>
</a>
</g>
</g>
<!-- dir_969e0ef425e5eabd9df1b99eb11357ce&#45;&gt;dir_8e032a88fd97b977b14fa9c66aef0e48 -->
<g id="edge2" class="edge">
<title>dir_969e0ef425e5eabd9df1b99eb11357ce&#45;&gt;dir_8e032a88fd97b977b14fa9c66aef0e48</title>
<path fill="none" stroke="black" d="M78.39,-71.7C82.76,-63.64 88.06,-53.89 92.9,-44.98"/>
<polygon fill="black" stroke="black" points="96.02,-46.56 97.71,-36.1 89.87,-43.22 96.02,-46.56"/>
<g id="a_edge2&#45;headlabel"><a xlink:href="dir_000023_000022.html" target="_top" xlink:title="3">
<text text-anchor="middle" x="96.8" y="-48.58" font-family="Helvetica,sans-Serif" font-size="10.00">3</text>
</a>
</g>
</g>
</g>
</svg>
