<?xml version="1.0" encoding="UTF-8" standalone="no"?>
<!DOCTYPE svg PUBLIC "-//W3C//DTD SVG 1.1//EN"
 "http://www.w3.org/Graphics/SVG/1.1/DTD/svg11.dtd">
<!-- Generated by graphviz version 2.43.0 (0)
 -->
<!-- Title: core/src Pages: 1 -->
<svg width="208pt" height="367pt"
 viewBox="0.00 0.00 207.85 367.00" xmlns="http://www.w3.org/2000/svg" xmlns:xlink="http://www.w3.org/1999/xlink">
<g id="graph0" class="graph" transform="scale(1 1) rotate(0) translate(4 363)">
<title>core/src</title>
<polygon fill="white" stroke="transparent" points="-4,4 -4,-363 203.85,-363 203.85,4 -4,4"/>
<g id="clust1" class="cluster">
<title>clusterdir_521dc20e1c32dad3a389d870e90503a0</title>
<g id="a_clust1"><a xlink:href="dir_521dc20e1c32dad3a389d870e90503a0.html" target="_top" xlink:title="core">
<polygon fill="#ddddee" stroke="black" points="26.85,-280 26.85,-351 96.85,-351 96.85,-280 26.85,-280"/>
<text text-anchor="middle" x="61.85" y="-339" font-family="Helvetica,sans-Serif" font-size="10.00">core</text>
</a>
</g>
</g>
<!-- dir_c6c08339cc9a26b214e74a0f6855d078 -->
<g id="node1" class="node">
<title>dir_c6c08339cc9a26b214e74a0f6855d078</title>
<g id="a_node1"><a xlink:href="dir_c6c08339cc9a26b214e74a0f6855d078.html" target="_top" xlink:title="src">
<polygon fill="#eeeeff" stroke="black" points="88.85,-324 34.85,-324 34.85,-288 88.85,-288 88.85,-324"/>
<text text-anchor="middle" x="61.85" y="-303.5" font-family="Helvetica,sans-Serif" font-size="10.00">src</text>
</a>
</g>
</g>
<!-- dir_f08c1ffadff6e9e08f49766ff6ac3753 -->
<g id="node2" class="node">
<title>dir_f08c1ffadff6e9e08f49766ff6ac3753</title>
<g id="a_node2"><a xlink:href="dir_f08c1ffadff6e9e08f49766ff6ac3753.html" target="_top" xlink:title="utils">
<polygon fill="white" stroke="red" points="85.85,-108 31.85,-108 31.85,-72 85.85,-72 85.85,-108"/>
<text text-anchor="middle" x="58.85" y="-87.5" font-family="Helvetica,sans-Serif" font-size="10.00">utils</text>
</a>
</g>
</g>
<!-- dir_c6c08339cc9a26b214e74a0f6855d078&#45;&gt;dir_f08c1ffadff6e9e08f49766ff6ac3753 -->
<g id="edge5" class="edge">
<title>dir_c6c08339cc9a26b214e74a0f6855d078&#45;&gt;dir_f08c1ffadff6e9e08f49766ff6ac3753</title>
<path fill="none" stroke="black" d="M45.82,-287.85C37.84,-278.12 29.03,-265.27 24.85,-252 10.25,-205.57 30.14,-149.63 45.09,-117.4"/>
<polygon fill="black" stroke="black" points="48.33,-118.73 49.52,-108.2 42.03,-115.69 48.33,-118.73"/>
<g id="a_edge5&#45;headlabel"><a xlink:href="dir_000009_000021.html" target="_top" xlink:title="1">
<text text-anchor="middle" x="49.33" y="-120.7" font-family="Helvetica,sans-Serif" font-size="10.00">1</text>
</a>
</g>
</g>
<!-- dir_f8c6f0679b123304d35aae1bb0e284fb -->
<g id="node3" class="node">
<title>dir_f8c6f0679b123304d35aae1bb0e284fb</title>
<g id="a_node3"><a xlink:href="dir_f8c6f0679b123304d35aae1bb0e284fb.html" target="_top" xlink:title="database">
<polygon fill="white" stroke="red" points="89.85,-36 27.85,-36 27.85,0 89.85,0 89.85,-36"/>
<text text-anchor="middle" x="58.85" y="-15.5" font-family="Helvetica,sans-Serif" font-size="10.00">database</text>
</a>
</g>
</g>
<!-- dir_c6c08339cc9a26b214e74a0f6855d078&#45;&gt;dir_f8c6f0679b123304d35aae1bb0e284fb -->
<g id="edge6" class="edge">
<title>dir_c6c08339cc9a26b214e74a0f6855d078&#45;&gt;dir_f8c6f0679b123304d35aae1bb0e284fb</title>
<path fill="none" stroke="black" d="M41.03,-287.62C31.4,-278.2 20.97,-265.7 15.85,-252 3.91,-220.03 -14.85,-184.8 22.85,-72 26.1,-62.29 31.66,-52.71 37.46,-44.43"/>
<polygon fill="black" stroke="black" points="40.34,-46.42 43.5,-36.31 34.72,-42.24 40.34,-46.42"/>
<g id="a_edge6&#45;headlabel"><a xlink:href="dir_000009_000010.html" target="_top" xlink:title="2">
<text text-anchor="middle" x="40.47" y="-48.5" font-family="Helvetica,sans-Serif" font-size="10.00">2</text>
</a>
</g>
</g>
<!-- dir_67d50c47b678e427d1ea4b25f05ca1f8 -->
<g id="node4" class="node">
<title>dir_67d50c47b678e427d1ea4b25f05ca1f8</title>
<g id="a_node4"><a xlink:href="dir_67d50c47b678e427d1ea4b25f05ca1f8.html" target="_top" xlink:title="inc">
<polygon fill="none" stroke="black" points="199.85,-252 145.85,-252 145.85,-216 199.85,-216 199.85,-252"/>
<text text-anchor="middle" x="172.85" y="-231.5" font-family="Helvetica,sans-Serif" font-size="10.00">inc</text>
</a>
</g>
</g>
<!-- dir_c6c08339cc9a26b214e74a0f6855d078&#45;&gt;dir_67d50c47b678e427d1ea4b25f05ca1f8 -->
<g id="edge7" class="edge">
<title>dir_c6c08339cc9a26b214e74a0f6855d078&#45;&gt;dir_67d50c47b678e427d1ea4b25f05ca1f8</title>
<path fill="none" stroke="black" d="M89.01,-287.88C103.39,-278.81 121.24,-267.55 136.76,-257.76"/>
<polygon fill="black" stroke="black" points="139,-260.48 145.6,-252.19 135.27,-254.56 139,-260.48"/>
<g id="a_edge7&#45;headlabel"><a xlink:href="dir_000009_000008.html" target="_top" xlink:title="1">
<text text-anchor="middle" x="137.48" y="-262.3" font-family="Helvetica,sans-Serif" font-size="10.00">1</text>
</a>
</g>
</g>
<!-- dir_d6b47c55c117061889082b3039c4cfaf -->
<g id="node5" class="node">
<title>dir_d6b47c55c117061889082b3039c4cfaf</title>
<g id="a_node5"><a xlink:href="dir_d6b47c55c117061889082b3039c4cfaf.html" target="_top" xlink:title="executor">
<polygon fill="white" stroke="red" points="145.35,-180 86.35,-180 86.35,-144 145.35,-144 145.35,-180"/>
<text text-anchor="middle" x="115.85" y="-159.5" font-family="Helvetica,sans-Serif" font-size="10.00">executor</text>
</a>
</g>
</g>
<!-- dir_c6c08339cc9a26b214e74a0f6855d078&#45;&gt;dir_d6b47c55c117061889082b3039c4cfaf -->
<g id="edge8" class="edge">
<title>dir_c6c08339cc9a26b214e74a0f6855d078&#45;&gt;dir_d6b47c55c117061889082b3039c4cfaf</title>
<path fill="none" stroke="black" d="M76.07,-287.87C83.61,-277.96 92.42,-264.92 97.85,-252 106.14,-232.29 110.7,-208.49 113.16,-190.46"/>
<polygon fill="black" stroke="black" points="116.65,-190.68 114.4,-180.33 109.71,-189.82 116.65,-190.68"/>
<g id="a_edge8&#45;headlabel"><a xlink:href="dir_000009_000013.html" target="_top" xlink:title="1">
<text text-anchor="middle" x="119.03" y="-192.09" font-family="Helvetica,sans-Serif" font-size="10.00">1</text>
</a>
</g>
</g>
<!-- dir_c6f90d7b3aff386cab2eb5eb40ce2f26 -->
<g id="node6" class="node">
<title>dir_c6f90d7b3aff386cab2eb5eb40ce2f26</title>
<g id="a_node6"><a xlink:href="dir_c6f90d7b3aff386cab2eb5eb40ce2f26.html" target="_top" xlink:title="runtime">
<polygon fill="white" stroke="red" points="89.35,-252 34.35,-252 34.35,-216 89.35,-216 89.35,-252"/>
<text text-anchor="middle" x="61.85" y="-231.5" font-family="Helvetica,sans-Serif" font-size="10.00">runtime</text>
</a>
</g>
</g>
<!-- dir_c6c08339cc9a26b214e74a0f6855d078&#45;&gt;dir_c6f90d7b3aff386cab2eb5eb40ce2f26 -->
<g id="edge9" class="edge">
<title>dir_c6c08339cc9a26b214e74a0f6855d078&#45;&gt;dir_c6f90d7b3aff386cab2eb5eb40ce2f26</title>
<path fill="none" stroke="black" d="M61.85,-287.7C61.85,-279.98 61.85,-270.71 61.85,-262.11"/>
<polygon fill="black" stroke="black" points="65.35,-262.1 61.85,-252.1 58.35,-262.1 65.35,-262.1"/>
<g id="a_edge9&#45;headlabel"><a xlink:href="dir_000009_000018.html" target="_top" xlink:title="1">
<text text-anchor="middle" x="68.19" y="-263.2" font-family="Helvetica,sans-Serif" font-size="10.00">1</text>
</a>
</g>
</g>
<!-- dir_f08c1ffadff6e9e08f49766ff6ac3753&#45;&gt;dir_f8c6f0679b123304d35aae1bb0e284fb -->
<g id="edge1" class="edge">
<title>dir_f08c1ffadff6e9e08f49766ff6ac3753&#45;&gt;dir_f8c6f0679b123304d35aae1bb0e284fb</title>
<path fill="none" stroke="black" d="M52.94,-71.7C52.14,-63.98 51.92,-54.71 52.26,-46.11"/>
<polygon fill="black" stroke="black" points="55.75,-46.32 52.96,-36.1 48.77,-45.84 55.75,-46.32"/>
<g id="a_edge1&#45;headlabel"><a xlink:href="dir_000021_000010.html" target="_top" xlink:title="2">
<text text-anchor="middle" x="58.33" y="-47.61" font-family="Helvetica,sans-Serif" font-size="10.00">2</text>
</a>
</g>
</g>
<!-- dir_f8c6f0679b123304d35aae1bb0e284fb&#45;&gt;dir_f08c1ffadff6e9e08f49766ff6ac3753 -->
<g id="edge2" class="edge">
<title>dir_f8c6f0679b123304d35aae1bb0e284fb&#45;&gt;dir_f08c1ffadff6e9e08f49766ff6ac3753</title>
<path fill="none" stroke="black" d="M64.75,-36.1C65.55,-43.79 65.79,-53.05 65.46,-61.67"/>
<polygon fill="black" stroke="black" points="61.96,-61.48 64.77,-71.7 68.95,-61.96 61.96,-61.48"/>
<g id="a_edge2&#45;headlabel"><a xlink:href="dir_000010_000021.html" target="_top" xlink:title="1">
<text text-anchor="middle" x="59.38" y="-55.2" font-family="Helvetica,sans-Serif" font-size="10.00">1</text>
</a>
</g>
</g>
<!-- dir_67d50c47b678e427d1ea4b25f05ca1f8&#45;&gt;dir_f8c6f0679b123304d35aae1bb0e284fb -->
<g id="edge3" class="edge">
<title>dir_67d50c47b678e427d1ea4b25f05ca1f8&#45;&gt;dir_f8c6f0679b123304d35aae1bb0e284fb</title>
<path fill="none" stroke="black" d="M170.97,-215.84C168.61,-197.6 163.75,-168.11 154.85,-144 142.19,-109.65 137.3,-100.92 114.85,-72 106.84,-61.67 96.79,-51.51 87.43,-42.89"/>
<polygon fill="black" stroke="black" points="89.56,-40.11 79.78,-36.05 84.89,-45.33 89.56,-40.11"/>
<g id="a_edge3&#45;headlabel"><a xlink:href="dir_000008_000010.html" target="_top" xlink:title="1">
<text text-anchor="middle" x="94.14" y="-37.89" font-family="Helvetica,sans-Serif" font-size="10.00">1</text>
</a>
</g>
</g>
<!-- dir_67d50c47b678e427d1ea4b25f05ca1f8&#45;&gt;dir_d6b47c55c117061889082b3039c4cfaf -->
<g id="edge4" class="edge">
<title>dir_67d50c47b678e427d1ea4b25f05ca1f8&#45;&gt;dir_d6b47c55c117061889082b3039c4cfaf</title>
<path fill="none" stroke="black" d="M152.85,-215.7C145.3,-207.47 136.97,-197.48 130.03,-188.42"/>
<polygon fill="black" stroke="black" points="132.65,-186.07 123.89,-180.1 127.02,-190.23 132.65,-186.07"/>
<g id="a_edge4&#45;headlabel"><a xlink:href="dir_000008_000013.html" target="_top" xlink:title="1">
<text text-anchor="middle" x="137.07" y="-184.77" font-family="Helvetica,sans-Serif" font-size="10.00">1</text>
</a>
</g>
</g>
<!-- dir_d6b47c55c117061889082b3039c4cfaf&#45;&gt;dir_f08c1ffadff6e9e08f49766ff6ac3753 -->
<g id="edge10" class="edge">
<title>dir_d6b47c55c117061889082b3039c4cfaf&#45;&gt;dir_f08c1ffadff6e9e08f49766ff6ac3753</title>
<path fill="none" stroke="black" d="M101.76,-143.7C94.93,-135.3 86.6,-125.07 79.1,-115.86"/>
<polygon fill="black" stroke="black" points="81.81,-113.65 72.78,-108.1 76.38,-118.07 81.81,-113.65"/>
<g id="a_edge10&#45;headlabel"><a xlink:href="dir_000013_000021.html" target="_top" xlink:title="2">
<text text-anchor="middle" x="86.28" y="-112.14" font-family="Helvetica,sans-Serif" font-size="10.00">2</text>
</a>
</g>
</g>
<!-- dir_d6b47c55c117061889082b3039c4cfaf&#45;&gt;dir_f8c6f0679b123304d35aae1bb0e284fb -->
<g id="edge11" class="edge">
<title>dir_d6b47c55c117061889082b3039c4cfaf&#45;&gt;dir_f8c6f0679b123304d35aae1bb0e284fb</title>
<path fill="none" stroke="black" d="M113.68,-143.68C110.93,-125.29 105.27,-95.69 94.85,-72 90.67,-62.48 84.74,-52.84 78.89,-44.44"/>
<polygon fill="black" stroke="black" points="81.62,-42.24 72.91,-36.2 75.95,-46.35 81.62,-42.24"/>
<g id="a_edge11&#45;headlabel"><a xlink:href="dir_000013_000010.html" target="_top" xlink:title="5">
<text text-anchor="middle" x="86.03" y="-40.98" font-family="Helvetica,sans-Serif" font-size="10.00">5</text>
</a>
</g>
</g>
<!-- dir_d6b47c55c117061889082b3039c4cfaf&#45;&gt;dir_67d50c47b678e427d1ea4b25f05ca1f8 -->
<g id="edge12" class="edge">
<title>dir_d6b47c55c117061889082b3039c4cfaf&#45;&gt;dir_67d50c47b678e427d1ea4b25f05ca1f8</title>
<path fill="none" stroke="black" d="M135.68,-180.1C143.29,-188.38 151.72,-198.49 158.72,-207.64"/>
<polygon fill="black" stroke="black" points="155.92,-209.74 164.68,-215.7 161.55,-205.58 155.92,-209.74"/>
<g id="a_edge12&#45;headlabel"><a xlink:href="dir_000013_000008.html" target="_top" xlink:title="4">
<text text-anchor="middle" x="151.5" y="-206.04" font-family="Helvetica,sans-Serif" font-size="10.00">4</text>
</a>
</g>
</g>
<!-- dir_c6f90d7b3aff386cab2eb5eb40ce2f26&#45;&gt;dir_f08c1ffadff6e9e08f49766ff6ac3753 -->
<g id="edge13" class="edge">
<title>dir_c6f90d7b3aff386cab2eb5eb40ce2f26&#45;&gt;dir_f08c1ffadff6e9e08f49766ff6ac3753</title>
<path fill="none" stroke="black" d="M61.49,-215.87C60.98,-191.67 60.04,-147.21 59.43,-118.39"/>
<polygon fill="black" stroke="black" points="62.93,-118.11 59.22,-108.19 55.93,-118.26 62.93,-118.11"/>
<g id="a_edge13&#45;headlabel"><a xlink:href="dir_000018_000021.html" target="_top" xlink:title="13">
<text text-anchor="middle" x="65.84" y="-119.15" font-family="Helvetica,sans-Serif" font-size="10.00">13</text>
</a>
</g>
</g>
<!-- dir_c6f90d7b3aff386cab2eb5eb40ce2f26&#45;&gt;dir_d6b47c55c117061889082b3039c4cfaf -->
<g id="edge14" class="edge">
<title>dir_c6f90d7b3aff386cab2eb5eb40ce2f26&#45;&gt;dir_d6b47c55c117061889082b3039c4cfaf</title>
<path fill="none" stroke="black" d="M75.2,-215.7C81.61,-207.39 89.41,-197.28 96.46,-188.14"/>
<polygon fill="black" stroke="black" points="99.32,-190.16 102.66,-180.1 93.78,-185.88 99.32,-190.16"/>
<g id="a_edge14&#45;headlabel"><a xlink:href="dir_000018_000013.html" target="_top" xlink:title="6">
<text text-anchor="middle" x="99.38" y="-192.24" font-family="Helvetica,sans-Serif" font-size="10.00">6</text>
</a>
</g>
</g>
</g>
</svg>
