<?xml version="1.0" encoding="UTF-8" standalone="no"?>
<!DOCTYPE svg PUBLIC "-//W3C//DTD SVG 1.1//EN"
 "http://www.w3.org/Graphics/SVG/1.1/DTD/svg11.dtd">
<!-- Generated by graphviz version 2.43.0 (0)
 -->
<!-- Title: executor/src Pages: 1 -->
<svg width="215pt" height="295pt"
 viewBox="0.00 0.00 215.23 295.00" xmlns="http://www.w3.org/2000/svg" xmlns:xlink="http://www.w3.org/1999/xlink">
<g id="graph0" class="graph" transform="scale(1 1) rotate(0) translate(4 291)">
<title>executor/src</title>
<polygon fill="white" stroke="transparent" points="-4,4 -4,-291 211.23,-291 211.23,4 -4,4"/>
<g id="clust1" class="cluster">
<title>clusterdir_d6b47c55c117061889082b3039c4cfaf</title>
<g id="a_clust1"><a xlink:href="dir_d6b47c55c117061889082b3039c4cfaf.html" target="_top" xlink:title="executor">
<polygon fill="#ddddee" stroke="black" points="50.23,-208 50.23,-279 120.23,-279 120.23,-208 50.23,-208"/>
<text text-anchor="middle" x="85.23" y="-267" font-family="Helvetica,sans-Serif" font-size="10.00">executor</text>
</a>
</g>
</g>
<!-- dir_01bb488ba2da569494bd6323304f0767 -->
<g id="node1" class="node">
<title>dir_01bb488ba2da569494bd6323304f0767</title>
<g id="a_node1"><a xlink:href="dir_01bb488ba2da569494bd6323304f0767.html" target="_top" xlink:title="src">
<polygon fill="#eeeeff" stroke="black" points="112.23,-252 58.23,-252 58.23,-216 112.23,-216 112.23,-252"/>
<text text-anchor="middle" x="85.23" y="-231.5" font-family="Helvetica,sans-Serif" font-size="10.00">src</text>
</a>
</g>
</g>
<!-- dir_f08c1ffadff6e9e08f49766ff6ac3753 -->
<g id="node2" class="node">
<title>dir_f08c1ffadff6e9e08f49766ff6ac3753</title>
<g id="a_node2"><a xlink:href="dir_f08c1ffadff6e9e08f49766ff6ac3753.html" target="_top" xlink:title="utils">
<polygon fill="white" stroke="red" points="66.23,-108 12.23,-108 12.23,-72 66.23,-72 66.23,-108"/>
<text text-anchor="middle" x="39.23" y="-87.5" font-family="Helvetica,sans-Serif" font-size="10.00">utils</text>
</a>
</g>
</g>
<!-- dir_01bb488ba2da569494bd6323304f0767&#45;&gt;dir_f08c1ffadff6e9e08f49766ff6ac3753 -->
<g id="edge5" class="edge">
<title>dir_01bb488ba2da569494bd6323304f0767&#45;&gt;dir_f08c1ffadff6e9e08f49766ff6ac3753</title>
<path fill="none" stroke="black" d="M70.2,-215.58C62.61,-205.78 54.01,-192.94 49.23,-180 41.91,-160.22 39.54,-136.42 38.93,-118.41"/>
<polygon fill="black" stroke="black" points="42.43,-118.23 38.75,-108.29 35.43,-118.35 42.43,-118.23"/>
<g id="a_edge5&#45;headlabel"><a xlink:href="dir_000017_000021.html" target="_top" xlink:title="2">
<text text-anchor="middle" x="45.33" y="-119.27" font-family="Helvetica,sans-Serif" font-size="10.00">2</text>
</a>
</g>
</g>
<!-- dir_f8c6f0679b123304d35aae1bb0e284fb -->
<g id="node3" class="node">
<title>dir_f8c6f0679b123304d35aae1bb0e284fb</title>
<g id="a_node3"><a xlink:href="dir_f8c6f0679b123304d35aae1bb0e284fb.html" target="_top" xlink:title="database">
<polygon fill="white" stroke="red" points="70.23,-36 8.23,-36 8.23,0 70.23,0 70.23,-36"/>
<text text-anchor="middle" x="39.23" y="-15.5" font-family="Helvetica,sans-Serif" font-size="10.00">database</text>
</a>
</g>
</g>
<!-- dir_01bb488ba2da569494bd6323304f0767&#45;&gt;dir_f8c6f0679b123304d35aae1bb0e284fb -->
<g id="edge6" class="edge">
<title>dir_01bb488ba2da569494bd6323304f0767&#45;&gt;dir_f8c6f0679b123304d35aae1bb0e284fb</title>
<path fill="none" stroke="black" d="M67.38,-215.94C57.67,-206.05 45.91,-193.01 37.23,-180 17.58,-150.57 10.97,-142.53 3.23,-108 -0.27,-92.39 -1.48,-87.29 3.23,-72 6.24,-62.22 11.73,-52.62 17.54,-44.33"/>
<polygon fill="black" stroke="black" points="20.42,-46.33 23.62,-36.23 14.82,-42.13 20.42,-46.33"/>
<g id="a_edge6&#45;headlabel"><a xlink:href="dir_000017_000010.html" target="_top" xlink:title="4">
<text text-anchor="middle" x="20.54" y="-48.41" font-family="Helvetica,sans-Serif" font-size="10.00">4</text>
</a>
</g>
</g>
<!-- dir_521dc20e1c32dad3a389d870e90503a0 -->
<g id="node4" class="node">
<title>dir_521dc20e1c32dad3a389d870e90503a0</title>
<g id="a_node4"><a xlink:href="dir_521dc20e1c32dad3a389d870e90503a0.html" target="_top" xlink:title="core">
<polygon fill="white" stroke="red" points="112.23,-180 58.23,-180 58.23,-144 112.23,-144 112.23,-180"/>
<text text-anchor="middle" x="85.23" y="-159.5" font-family="Helvetica,sans-Serif" font-size="10.00">core</text>
</a>
</g>
</g>
<!-- dir_01bb488ba2da569494bd6323304f0767&#45;&gt;dir_521dc20e1c32dad3a389d870e90503a0 -->
<g id="edge7" class="edge">
<title>dir_01bb488ba2da569494bd6323304f0767&#45;&gt;dir_521dc20e1c32dad3a389d870e90503a0</title>
<path fill="none" stroke="black" d="M85.23,-215.7C85.23,-207.98 85.23,-198.71 85.23,-190.11"/>
<polygon fill="black" stroke="black" points="88.73,-190.1 85.23,-180.1 81.73,-190.1 88.73,-190.1"/>
<g id="a_edge7&#45;headlabel"><a xlink:href="dir_000017_000007.html" target="_top" xlink:title="2">
<text text-anchor="middle" x="91.57" y="-191.2" font-family="Helvetica,sans-Serif" font-size="10.00">2</text>
</a>
</g>
</g>
<!-- dir_6934992e9a368eaba336ecc6a1d98046 -->
<g id="node5" class="node">
<title>dir_6934992e9a368eaba336ecc6a1d98046</title>
<g id="a_node5"><a xlink:href="dir_6934992e9a368eaba336ecc6a1d98046.html" target="_top" xlink:title="proto">
<polygon fill="white" stroke="red" points="184.23,-180 130.23,-180 130.23,-144 184.23,-144 184.23,-180"/>
<text text-anchor="middle" x="157.23" y="-159.5" font-family="Helvetica,sans-Serif" font-size="10.00">proto</text>
</a>
</g>
</g>
<!-- dir_01bb488ba2da569494bd6323304f0767&#45;&gt;dir_6934992e9a368eaba336ecc6a1d98046 -->
<g id="edge8" class="edge">
<title>dir_01bb488ba2da569494bd6323304f0767&#45;&gt;dir_6934992e9a368eaba336ecc6a1d98046</title>
<path fill="none" stroke="black" d="M103.02,-215.7C111.83,-207.14 122.61,-196.66 132.23,-187.3"/>
<polygon fill="black" stroke="black" points="134.9,-189.58 139.63,-180.1 130.02,-184.57 134.9,-189.58"/>
<g id="a_edge8&#45;headlabel"><a xlink:href="dir_000017_000015.html" target="_top" xlink:title="1">
<text text-anchor="middle" x="134.31" y="-191.63" font-family="Helvetica,sans-Serif" font-size="10.00">1</text>
</a>
</g>
</g>
<!-- dir_0e2b23df43e6599042525cfec0ad0bb8 -->
<g id="node6" class="node">
<title>dir_0e2b23df43e6599042525cfec0ad0bb8</title>
<g id="a_node6"><a xlink:href="dir_0e2b23df43e6599042525cfec0ad0bb8.html" target="_top" xlink:title="inc">
<polygon fill="none" stroke="black" points="207.23,-108 153.23,-108 153.23,-72 207.23,-72 207.23,-108"/>
<text text-anchor="middle" x="180.23" y="-87.5" font-family="Helvetica,sans-Serif" font-size="10.00">inc</text>
</a>
</g>
</g>
<!-- dir_01bb488ba2da569494bd6323304f0767&#45;&gt;dir_0e2b23df43e6599042525cfec0ad0bb8 -->
<g id="edge9" class="edge">
<title>dir_01bb488ba2da569494bd6323304f0767&#45;&gt;dir_0e2b23df43e6599042525cfec0ad0bb8</title>
<path fill="none" stroke="black" d="M112.43,-228.08C138.25,-221.8 175.66,-208.18 193.23,-180 204.85,-161.35 199.77,-136.32 192.83,-117.55"/>
<polygon fill="black" stroke="black" points="196.01,-116.06 189,-108.11 189.52,-118.69 196.01,-116.06"/>
<g id="a_edge9&#45;headlabel"><a xlink:href="dir_000017_000014.html" target="_top" xlink:title="2">
<text text-anchor="middle" x="199.99" y="-115.82" font-family="Helvetica,sans-Serif" font-size="10.00">2</text>
</a>
</g>
</g>
<!-- dir_f08c1ffadff6e9e08f49766ff6ac3753&#45;&gt;dir_f8c6f0679b123304d35aae1bb0e284fb -->
<g id="edge1" class="edge">
<title>dir_f08c1ffadff6e9e08f49766ff6ac3753&#45;&gt;dir_f8c6f0679b123304d35aae1bb0e284fb</title>
<path fill="none" stroke="black" d="M39.23,-71.7C39.23,-63.98 39.23,-54.71 39.23,-46.11"/>
<polygon fill="black" stroke="black" points="42.73,-46.1 39.23,-36.1 35.73,-46.1 42.73,-46.1"/>
<g id="a_edge1&#45;headlabel"><a xlink:href="dir_000021_000010.html" target="_top" xlink:title="1">
<text text-anchor="middle" x="45.57" y="-47.2" font-family="Helvetica,sans-Serif" font-size="10.00">1</text>
</a>
</g>
</g>
<!-- dir_521dc20e1c32dad3a389d870e90503a0&#45;&gt;dir_f08c1ffadff6e9e08f49766ff6ac3753 -->
<g id="edge2" class="edge">
<title>dir_521dc20e1c32dad3a389d870e90503a0&#45;&gt;dir_f08c1ffadff6e9e08f49766ff6ac3753</title>
<path fill="none" stroke="black" d="M73.86,-143.7C68.51,-135.56 62.02,-125.69 56.12,-116.7"/>
<polygon fill="black" stroke="black" points="58.88,-114.54 50.47,-108.1 53.03,-118.38 58.88,-114.54"/>
<g id="a_edge2&#45;headlabel"><a xlink:href="dir_000007_000021.html" target="_top" xlink:title="1">
<text text-anchor="middle" x="63.23" y="-113.48" font-family="Helvetica,sans-Serif" font-size="10.00">1</text>
</a>
</g>
</g>
<!-- dir_521dc20e1c32dad3a389d870e90503a0&#45;&gt;dir_f8c6f0679b123304d35aae1bb0e284fb -->
<g id="edge3" class="edge">
<title>dir_521dc20e1c32dad3a389d870e90503a0&#45;&gt;dir_f8c6f0679b123304d35aae1bb0e284fb</title>
<path fill="none" stroke="black" d="M85.71,-143.71C85.67,-125.35 84.02,-95.77 75.23,-72 71.68,-62.4 66.02,-52.85 60.24,-44.56"/>
<polygon fill="black" stroke="black" points="63,-42.4 54.25,-36.42 57.36,-46.55 63,-42.4"/>
<g id="a_edge3&#45;headlabel"><a xlink:href="dir_000007_000010.html" target="_top" xlink:title="2">
<text text-anchor="middle" x="67.42" y="-41.11" font-family="Helvetica,sans-Serif" font-size="10.00">2</text>
</a>
</g>
</g>
<!-- dir_521dc20e1c32dad3a389d870e90503a0&#45;&gt;dir_0e2b23df43e6599042525cfec0ad0bb8 -->
<g id="edge4" class="edge">
<title>dir_521dc20e1c32dad3a389d870e90503a0&#45;&gt;dir_0e2b23df43e6599042525cfec0ad0bb8</title>
<path fill="none" stroke="black" d="M108.71,-143.7C120.79,-134.8 135.68,-123.82 148.74,-114.2"/>
<polygon fill="black" stroke="black" points="151.04,-116.85 157.01,-108.1 146.89,-111.22 151.04,-116.85"/>
<g id="a_edge4&#45;headlabel"><a xlink:href="dir_000007_000014.html" target="_top" xlink:title="2">
<text text-anchor="middle" x="149.83" y="-118.77" font-family="Helvetica,sans-Serif" font-size="10.00">2</text>
</a>
</g>
</g>
</g>
</svg>
