<?xml version="1.0" encoding="UTF-8" standalone="no"?>
<!DOCTYPE svg PUBLIC "-//W3C//DTD SVG 1.1//EN"
 "http://www.w3.org/Graphics/SVG/1.1/DTD/svg11.dtd">
<!-- Generated by graphviz version 2.43.0 (0)
 -->
<!-- Title: core/src Pages: 1 -->
<svg width="216pt" height="367pt"
 viewBox="0.00 0.00 215.69 367.00" xmlns="http://www.w3.org/2000/svg" xmlns:xlink="http://www.w3.org/1999/xlink">
<g id="graph0" class="graph" transform="scale(1 1) rotate(0) translate(4 363)">
<title>core/src</title>
<polygon fill="white" stroke="transparent" points="-4,4 -4,-363 211.69,-363 211.69,4 -4,4"/>
<g id="clust1" class="cluster">
<title>clusterdir_521dc20e1c32dad3a389d870e90503a0</title>
<g id="a_clust1"><a xlink:href="dir_521dc20e1c32dad3a389d870e90503a0.html" target="_top" xlink:title="core">
<polygon fill="#ddddee" stroke="black" points="72.44,-280 72.44,-351 142.44,-351 142.44,-280 72.44,-280"/>
<text text-anchor="middle" x="107.44" y="-339" font-family="Helvetica,sans-Serif" font-size="10.00">core</text>
</a>
</g>
</g>
<!-- dir_c6c08339cc9a26b214e74a0f6855d078 -->
<g id="node1" class="node">
<title>dir_c6c08339cc9a26b214e74a0f6855d078</title>
<g id="a_node1"><a xlink:href="dir_c6c08339cc9a26b214e74a0f6855d078.html" target="_top" xlink:title="src">
<polygon fill="#eeeeff" stroke="black" points="134.44,-324 80.44,-324 80.44,-288 134.44,-288 134.44,-324"/>
<text text-anchor="middle" x="107.44" y="-303.5" font-family="Helvetica,sans-Serif" font-size="10.00">src</text>
</a>
</g>
</g>
<!-- dir_f08c1ffadff6e9e08f49766ff6ac3753 -->
<g id="node2" class="node">
<title>dir_f08c1ffadff6e9e08f49766ff6ac3753</title>
<g id="a_node2"><a xlink:href="dir_f08c1ffadff6e9e08f49766ff6ac3753.html" target="_top" xlink:title="utils">
<polygon fill="white" stroke="red" points="137.44,-108 83.44,-108 83.44,-72 137.44,-72 137.44,-108"/>
<text text-anchor="middle" x="110.44" y="-87.5" font-family="Helvetica,sans-Serif" font-size="10.00">utils</text>
</a>
</g>
</g>
<!-- dir_c6c08339cc9a26b214e74a0f6855d078&#45;&gt;dir_f08c1ffadff6e9e08f49766ff6ac3753 -->
<g id="edge6" class="edge">
<title>dir_c6c08339cc9a26b214e74a0f6855d078&#45;&gt;dir_f08c1ffadff6e9e08f49766ff6ac3753</title>
<path fill="none" stroke="black" d="M134.58,-297.58C156.4,-290.02 185.6,-275.94 199.44,-252 227.37,-203.67 175.68,-146.29 140.07,-114.74"/>
<polygon fill="black" stroke="black" points="142.16,-111.92 132.3,-108.04 137.59,-117.22 142.16,-111.92"/>
<g id="a_edge6&#45;headlabel"><a xlink:href="dir_000009_000025.html" target="_top" xlink:title="1">
<text text-anchor="middle" x="146.74" y="-109.62" font-family="Helvetica,sans-Serif" font-size="10.00">1</text>
</a>
</g>
</g>
<!-- dir_f8c6f0679b123304d35aae1bb0e284fb -->
<g id="node3" class="node">
<title>dir_f8c6f0679b123304d35aae1bb0e284fb</title>
<g id="a_node3"><a xlink:href="dir_f8c6f0679b123304d35aae1bb0e284fb.html" target="_top" xlink:title="database">
<polygon fill="white" stroke="red" points="86.44,-36 24.44,-36 24.44,0 86.44,0 86.44,-36"/>
<text text-anchor="middle" x="55.44" y="-15.5" font-family="Helvetica,sans-Serif" font-size="10.00">database</text>
</a>
</g>
</g>
<!-- dir_c6c08339cc9a26b214e74a0f6855d078&#45;&gt;dir_f8c6f0679b123304d35aae1bb0e284fb -->
<g id="edge7" class="edge">
<title>dir_c6c08339cc9a26b214e74a0f6855d078&#45;&gt;dir_f8c6f0679b123304d35aae1bb0e284fb</title>
<path fill="none" stroke="black" d="M80.15,-297.34C58.62,-289.7 30.02,-275.62 16.44,-252 -22.11,-184.94 17.3,-90.24 40.73,-45.01"/>
<polygon fill="black" stroke="black" points="43.85,-46.61 45.46,-36.14 37.67,-43.32 43.85,-46.61"/>
<g id="a_edge7&#45;headlabel"><a xlink:href="dir_000009_000010.html" target="_top" xlink:title="2">
<text text-anchor="middle" x="44.66" y="-48.62" font-family="Helvetica,sans-Serif" font-size="10.00">2</text>
</a>
</g>
</g>
<!-- dir_67d50c47b678e427d1ea4b25f05ca1f8 -->
<g id="node4" class="node">
<title>dir_67d50c47b678e427d1ea4b25f05ca1f8</title>
<g id="a_node4"><a xlink:href="dir_67d50c47b678e427d1ea4b25f05ca1f8.html" target="_top" xlink:title="inc">
<polygon fill="none" stroke="black" points="79.44,-252 25.44,-252 25.44,-216 79.44,-216 79.44,-252"/>
<text text-anchor="middle" x="52.44" y="-231.5" font-family="Helvetica,sans-Serif" font-size="10.00">inc</text>
</a>
</g>
</g>
<!-- dir_c6c08339cc9a26b214e74a0f6855d078&#45;&gt;dir_67d50c47b678e427d1ea4b25f05ca1f8 -->
<g id="edge8" class="edge">
<title>dir_c6c08339cc9a26b214e74a0f6855d078&#45;&gt;dir_67d50c47b678e427d1ea4b25f05ca1f8</title>
<path fill="none" stroke="black" d="M93.85,-287.7C87.32,-279.39 79.37,-269.28 72.19,-260.14"/>
<polygon fill="black" stroke="black" points="74.81,-257.81 65.88,-252.1 69.31,-262.13 74.81,-257.81"/>
<g id="a_edge8&#45;headlabel"><a xlink:href="dir_000009_000008.html" target="_top" xlink:title="1">
<text text-anchor="middle" x="79.26" y="-256.38" font-family="Helvetica,sans-Serif" font-size="10.00">1</text>
</a>
</g>
</g>
<!-- dir_d6b47c55c117061889082b3039c4cfaf -->
<g id="node5" class="node">
<title>dir_d6b47c55c117061889082b3039c4cfaf</title>
<g id="a_node5"><a xlink:href="dir_d6b47c55c117061889082b3039c4cfaf.html" target="_top" xlink:title="executor">
<polygon fill="white" stroke="red" points="139.94,-180 80.94,-180 80.94,-144 139.94,-144 139.94,-180"/>
<text text-anchor="middle" x="110.44" y="-159.5" font-family="Helvetica,sans-Serif" font-size="10.00">executor</text>
</a>
</g>
</g>
<!-- dir_c6c08339cc9a26b214e74a0f6855d078&#45;&gt;dir_d6b47c55c117061889082b3039c4cfaf -->
<g id="edge9" class="edge">
<title>dir_c6c08339cc9a26b214e74a0f6855d078&#45;&gt;dir_d6b47c55c117061889082b3039c4cfaf</title>
<path fill="none" stroke="black" d="M107.8,-287.87C108.31,-263.67 109.25,-219.21 109.86,-190.39"/>
<polygon fill="black" stroke="black" points="113.37,-190.26 110.08,-180.19 106.37,-190.11 113.37,-190.26"/>
<g id="a_edge9&#45;headlabel"><a xlink:href="dir_000009_000013.html" target="_top" xlink:title="1">
<text text-anchor="middle" x="116.13" y="-191.41" font-family="Helvetica,sans-Serif" font-size="10.00">1</text>
</a>
</g>
</g>
<!-- dir_c6f90d7b3aff386cab2eb5eb40ce2f26 -->
<g id="node6" class="node">
<title>dir_c6f90d7b3aff386cab2eb5eb40ce2f26</title>
<g id="a_node6"><a xlink:href="dir_c6f90d7b3aff386cab2eb5eb40ce2f26.html" target="_top" xlink:title="runtime">
<polygon fill="white" stroke="red" points="190.94,-252 135.94,-252 135.94,-216 190.94,-216 190.94,-252"/>
<text text-anchor="middle" x="163.44" y="-231.5" font-family="Helvetica,sans-Serif" font-size="10.00">runtime</text>
</a>
</g>
</g>
<!-- dir_c6c08339cc9a26b214e74a0f6855d078&#45;&gt;dir_c6f90d7b3aff386cab2eb5eb40ce2f26 -->
<g id="edge10" class="edge">
<title>dir_c6c08339cc9a26b214e74a0f6855d078&#45;&gt;dir_c6f90d7b3aff386cab2eb5eb40ce2f26</title>
<path fill="none" stroke="black" d="M121.28,-287.7C127.93,-279.39 136.02,-269.28 143.33,-260.14"/>
<polygon fill="black" stroke="black" points="146.24,-262.1 149.76,-252.1 140.78,-257.73 146.24,-262.1"/>
<g id="a_edge10&#45;headlabel"><a xlink:href="dir_000009_000018.html" target="_top" xlink:title="1">
<text text-anchor="middle" x="146.21" y="-264.18" font-family="Helvetica,sans-Serif" font-size="10.00">1</text>
</a>
</g>
</g>
<!-- dir_f08c1ffadff6e9e08f49766ff6ac3753&#45;&gt;dir_f8c6f0679b123304d35aae1bb0e284fb -->
<g id="edge1" class="edge">
<title>dir_f08c1ffadff6e9e08f49766ff6ac3753&#45;&gt;dir_f8c6f0679b123304d35aae1bb0e284fb</title>
<path fill="none" stroke="black" d="M90.93,-71.7C83.62,-63.47 75.57,-53.48 68.89,-44.42"/>
<polygon fill="black" stroke="black" points="71.63,-42.23 62.98,-36.1 65.92,-46.28 71.63,-42.23"/>
<g id="a_edge1&#45;headlabel"><a xlink:href="dir_000025_000010.html" target="_top" xlink:title="2">
<text text-anchor="middle" x="76.03" y="-41.01" font-family="Helvetica,sans-Serif" font-size="10.00">2</text>
</a>
</g>
</g>
<!-- dir_f8c6f0679b123304d35aae1bb0e284fb&#45;&gt;dir_f08c1ffadff6e9e08f49766ff6ac3753 -->
<g id="edge2" class="edge">
<title>dir_f8c6f0679b123304d35aae1bb0e284fb&#45;&gt;dir_f08c1ffadff6e9e08f49766ff6ac3753</title>
<path fill="none" stroke="black" d="M74.77,-36.1C82.07,-44.3 90.13,-54.28 96.83,-63.36"/>
<polygon fill="black" stroke="black" points="94.11,-65.58 102.76,-71.7 99.81,-61.52 94.11,-65.58"/>
<g id="a_edge2&#45;headlabel"><a xlink:href="dir_000010_000025.html" target="_top" xlink:title="1">
<text text-anchor="middle" x="89.71" y="-61.8" font-family="Helvetica,sans-Serif" font-size="10.00">1</text>
</a>
</g>
</g>
<!-- dir_67d50c47b678e427d1ea4b25f05ca1f8&#45;&gt;dir_f08c1ffadff6e9e08f49766ff6ac3753 -->
<g id="edge3" class="edge">
<title>dir_67d50c47b678e427d1ea4b25f05ca1f8&#45;&gt;dir_f08c1ffadff6e9e08f49766ff6ac3753</title>
<path fill="none" stroke="black" d="M53.92,-215.94C56.01,-197.51 60.82,-167.63 71.44,-144 75.8,-134.31 82.13,-124.66 88.44,-116.31"/>
<polygon fill="black" stroke="black" points="91.21,-118.45 94.66,-108.44 85.71,-114.11 91.21,-118.45"/>
<g id="a_edge3&#45;headlabel"><a xlink:href="dir_000008_000025.html" target="_top" xlink:title="1">
<text text-anchor="middle" x="91.21" y="-120.53" font-family="Helvetica,sans-Serif" font-size="10.00">1</text>
</a>
</g>
</g>
<!-- dir_67d50c47b678e427d1ea4b25f05ca1f8&#45;&gt;dir_f8c6f0679b123304d35aae1bb0e284fb -->
<g id="edge4" class="edge">
<title>dir_67d50c47b678e427d1ea4b25f05ca1f8&#45;&gt;dir_f8c6f0679b123304d35aae1bb0e284fb</title>
<path fill="none" stroke="black" d="M52.68,-215.85C53.2,-178.83 54.43,-91.18 55.06,-46.39"/>
<polygon fill="black" stroke="black" points="58.56,-46.28 55.2,-36.23 51.56,-46.18 58.56,-46.28"/>
<g id="a_edge4&#45;headlabel"><a xlink:href="dir_000008_000010.html" target="_top" xlink:title="1">
<text text-anchor="middle" x="61.35" y="-47.41" font-family="Helvetica,sans-Serif" font-size="10.00">1</text>
</a>
</g>
</g>
<!-- dir_67d50c47b678e427d1ea4b25f05ca1f8&#45;&gt;dir_d6b47c55c117061889082b3039c4cfaf -->
<g id="edge5" class="edge">
<title>dir_67d50c47b678e427d1ea4b25f05ca1f8&#45;&gt;dir_d6b47c55c117061889082b3039c4cfaf</title>
<path fill="none" stroke="black" d="M60.86,-215.7C67.01,-207.22 75.41,-196.86 83.6,-187.58"/>
<polygon fill="black" stroke="black" points="86.25,-189.86 90.37,-180.1 81.06,-185.16 86.25,-189.86"/>
<g id="a_edge5&#45;headlabel"><a xlink:href="dir_000008_000013.html" target="_top" xlink:title="1">
<text text-anchor="middle" x="85.94" y="-191.93" font-family="Helvetica,sans-Serif" font-size="10.00">1</text>
</a>
</g>
</g>
<!-- dir_d6b47c55c117061889082b3039c4cfaf&#45;&gt;dir_f08c1ffadff6e9e08f49766ff6ac3753 -->
<g id="edge11" class="edge">
<title>dir_d6b47c55c117061889082b3039c4cfaf&#45;&gt;dir_f08c1ffadff6e9e08f49766ff6ac3753</title>
<path fill="none" stroke="black" d="M110.44,-143.7C110.44,-135.98 110.44,-126.71 110.44,-118.11"/>
<polygon fill="black" stroke="black" points="113.94,-118.1 110.44,-108.1 106.94,-118.1 113.94,-118.1"/>
<g id="a_edge11&#45;headlabel"><a xlink:href="dir_000013_000025.html" target="_top" xlink:title="4">
<text text-anchor="middle" x="116.78" y="-119.2" font-family="Helvetica,sans-Serif" font-size="10.00">4</text>
</a>
</g>
</g>
<!-- dir_d6b47c55c117061889082b3039c4cfaf&#45;&gt;dir_f8c6f0679b123304d35aae1bb0e284fb -->
<g id="edge12" class="edge">
<title>dir_d6b47c55c117061889082b3039c4cfaf&#45;&gt;dir_f8c6f0679b123304d35aae1bb0e284fb</title>
<path fill="none" stroke="black" d="M96.28,-143.85C88.75,-133.93 79.94,-120.89 74.44,-108 66.03,-88.29 61.2,-64.49 58.51,-46.46"/>
<polygon fill="black" stroke="black" points="61.95,-45.76 57.14,-36.33 55.01,-46.71 61.95,-45.76"/>
<g id="a_edge12&#45;headlabel"><a xlink:href="dir_000013_000010.html" target="_top" xlink:title="5">
<text text-anchor="middle" x="65.25" y="-46.44" font-family="Helvetica,sans-Serif" font-size="10.00">5</text>
</a>
</g>
</g>
<!-- dir_d6b47c55c117061889082b3039c4cfaf&#45;&gt;dir_67d50c47b678e427d1ea4b25f05ca1f8 -->
<g id="edge13" class="edge">
<title>dir_d6b47c55c117061889082b3039c4cfaf&#45;&gt;dir_67d50c47b678e427d1ea4b25f05ca1f8</title>
<path fill="none" stroke="black" d="M102.16,-180.1C96.05,-188.55 87.67,-198.9 79.48,-208.2"/>
<polygon fill="black" stroke="black" points="76.81,-205.93 72.69,-215.7 82,-210.63 76.81,-205.93"/>
<g id="a_edge13&#45;headlabel"><a xlink:href="dir_000013_000008.html" target="_top" xlink:title="4">
<text text-anchor="middle" x="77.12" y="-198.86" font-family="Helvetica,sans-Serif" font-size="10.00">4</text>
</a>
</g>
</g>
<!-- dir_c6f90d7b3aff386cab2eb5eb40ce2f26&#45;&gt;dir_f08c1ffadff6e9e08f49766ff6ac3753 -->
<g id="edge14" class="edge">
<title>dir_c6f90d7b3aff386cab2eb5eb40ce2f26&#45;&gt;dir_f08c1ffadff6e9e08f49766ff6ac3753</title>
<path fill="none" stroke="black" d="M162.85,-215.97C161.7,-197.58 158.32,-167.72 148.44,-144 144.44,-134.38 138.4,-124.83 132.31,-116.54"/>
<polygon fill="black" stroke="black" points="134.91,-114.18 126.03,-108.4 129.37,-118.46 134.91,-114.18"/>
<g id="a_edge14&#45;headlabel"><a xlink:href="dir_000018_000025.html" target="_top" xlink:title="17">
<text text-anchor="middle" x="139.35" y="-112.79" font-family="Helvetica,sans-Serif" font-size="10.00">17</text>
</a>
</g>
</g>
<!-- dir_c6f90d7b3aff386cab2eb5eb40ce2f26&#45;&gt;dir_d6b47c55c117061889082b3039c4cfaf -->
<g id="edge15" class="edge">
<title>dir_c6f90d7b3aff386cab2eb5eb40ce2f26&#45;&gt;dir_d6b47c55c117061889082b3039c4cfaf</title>
<path fill="none" stroke="black" d="M150.34,-215.7C144.05,-207.39 136.39,-197.28 129.48,-188.14"/>
<polygon fill="black" stroke="black" points="132.22,-185.96 123.39,-180.1 126.64,-190.19 132.22,-185.96"/>
<g id="a_edge15&#45;headlabel"><a xlink:href="dir_000018_000013.html" target="_top" xlink:title="6">
<text text-anchor="middle" x="136.65" y="-184.62" font-family="Helvetica,sans-Serif" font-size="10.00">6</text>
</a>
</g>
</g>
</g>
</svg>
