<?xml version="1.0" encoding="UTF-8" standalone="no"?>
<!DOCTYPE svg PUBLIC "-//W3C//DTD SVG 1.1//EN"
 "http://www.w3.org/Graphics/SVG/1.1/DTD/svg11.dtd">
<!-- Generated by graphviz version 2.43.0 (0)
 -->
<!-- Title: api Pages: 1 -->
<svg width="194pt" height="276pt"
 viewBox="0.00 0.00 193.50 276.00" xmlns="http://www.w3.org/2000/svg" xmlns:xlink="http://www.w3.org/1999/xlink">
<g id="graph0" class="graph" transform="scale(1 1) rotate(0) translate(4 272)">
<title>api</title>
<polygon fill="white" stroke="transparent" points="-4,4 -4,-272 189.5,-272 189.5,4 -4,4"/>
<g id="clust1" class="cluster">
<title>clusterdir_0188a3e6da905bc60aceb35bf790b8c9</title>
<g id="a_clust1"><a xlink:href="dir_0188a3e6da905bc60aceb35bf790b8c9.html" target="_top">
<polygon fill="#eeeeff" stroke="black" points="35.5,-136 35.5,-260 177.5,-260 177.5,-136 35.5,-136"/>
</a>
</g>
</g>
<!-- dir_0188a3e6da905bc60aceb35bf790b8c9 -->
<g id="node1" class="node">
<title>dir_0188a3e6da905bc60aceb35bf790b8c9</title>
<text text-anchor="middle" x="142.5" y="-231.5" font-family="Helvetica,sans-Serif" font-size="10.00">api</text>
</g>
<!-- dir_d218fd71c02742082feaad64e43c1ecd -->
<g id="node2" class="node">
<title>dir_d218fd71c02742082feaad64e43c1ecd</title>
<g id="a_node2"><a xlink:href="dir_d218fd71c02742082feaad64e43c1ecd.html" target="_top" xlink:title="inc">
<polygon fill="white" stroke="black" points="97.5,-180 43.5,-180 43.5,-144 97.5,-144 97.5,-180"/>
<text text-anchor="middle" x="70.5" y="-159.5" font-family="Helvetica,sans-Serif" font-size="10.00">inc</text>
</a>
</g>
</g>
<!-- dir_7c2730fb8449c1fd3c0779d2ebca1b41 -->
<g id="node4" class="node">
<title>dir_7c2730fb8449c1fd3c0779d2ebca1b41</title>
<g id="a_node4"><a xlink:href="dir_7c2730fb8449c1fd3c0779d2ebca1b41.html" target="_top" xlink:title="executor">
<polygon fill="white" stroke="red" points="59,-108 0,-108 0,-72 59,-72 59,-108"/>
<text text-anchor="middle" x="29.5" y="-87.5" font-family="Helvetica,sans-Serif" font-size="10.00">executor</text>
</a>
</g>
</g>
<!-- dir_d218fd71c02742082feaad64e43c1ecd&#45;&gt;dir_7c2730fb8449c1fd3c0779d2ebca1b41 -->
<g id="edge4" class="edge">
<title>dir_d218fd71c02742082feaad64e43c1ecd&#45;&gt;dir_7c2730fb8449c1fd3c0779d2ebca1b41</title>
<path fill="none" stroke="black" d="M60.37,-143.7C55.65,-135.64 49.94,-125.89 44.72,-116.98"/>
<polygon fill="black" stroke="black" points="47.59,-114.96 39.52,-108.1 41.55,-118.5 47.59,-114.96"/>
<g id="a_edge4&#45;headlabel"><a xlink:href="dir_000001_000013.html" target="_top" xlink:title="4">
<text text-anchor="middle" x="51.86" y="-114.13" font-family="Helvetica,sans-Serif" font-size="10.00">4</text>
</a>
</g>
</g>
<!-- dir_cbdb8362360e11eafe2fa3bc74cf0ffd -->
<g id="node5" class="node">
<title>dir_cbdb8362360e11eafe2fa3bc74cf0ffd</title>
<g id="a_node5"><a xlink:href="dir_cbdb8362360e11eafe2fa3bc74cf0ffd.html" target="_top" xlink:title="utils">
<polygon fill="white" stroke="red" points="114.5,-36 60.5,-36 60.5,0 114.5,0 114.5,-36"/>
<text text-anchor="middle" x="87.5" y="-15.5" font-family="Helvetica,sans-Serif" font-size="10.00">utils</text>
</a>
</g>
</g>
<!-- dir_d218fd71c02742082feaad64e43c1ecd&#45;&gt;dir_cbdb8362360e11eafe2fa3bc74cf0ffd -->
<g id="edge5" class="edge">
<title>dir_d218fd71c02742082feaad64e43c1ecd&#45;&gt;dir_cbdb8362360e11eafe2fa3bc74cf0ffd</title>
<path fill="none" stroke="black" d="M72.55,-143.87C75.45,-119.67 80.77,-75.21 84.22,-46.39"/>
<polygon fill="black" stroke="black" points="87.73,-46.53 85.44,-36.19 80.78,-45.7 87.73,-46.53"/>
<g id="a_edge5&#45;headlabel"><a xlink:href="dir_000001_000021.html" target="_top" xlink:title="4">
<text text-anchor="middle" x="90.12" y="-47.94" font-family="Helvetica,sans-Serif" font-size="10.00">4</text>
</a>
</g>
</g>
<!-- dir_6be4c07e098dacc91071118ce4f28ca8 -->
<g id="node3" class="node">
<title>dir_6be4c07e098dacc91071118ce4f28ca8</title>
<g id="a_node3"><a xlink:href="dir_6be4c07e098dacc91071118ce4f28ca8.html" target="_top" xlink:title="src">
<polygon fill="white" stroke="black" points="97.5,-252 43.5,-252 43.5,-216 97.5,-216 97.5,-252"/>
<text text-anchor="middle" x="70.5" y="-231.5" font-family="Helvetica,sans-Serif" font-size="10.00">src</text>
</a>
</g>
</g>
<!-- dir_6be4c07e098dacc91071118ce4f28ca8&#45;&gt;dir_d218fd71c02742082feaad64e43c1ecd -->
<g id="edge3" class="edge">
<title>dir_6be4c07e098dacc91071118ce4f28ca8&#45;&gt;dir_d218fd71c02742082feaad64e43c1ecd</title>
<path fill="none" stroke="black" d="M70.5,-215.7C70.5,-207.98 70.5,-198.71 70.5,-190.11"/>
<polygon fill="black" stroke="black" points="74,-190.1 70.5,-180.1 67,-190.1 74,-190.1"/>
<g id="a_edge3&#45;headlabel"><a xlink:href="dir_000002_000001.html" target="_top" xlink:title="4">
<text text-anchor="middle" x="76.84" y="-191.2" font-family="Helvetica,sans-Serif" font-size="10.00">4</text>
</a>
</g>
</g>
<!-- dir_6be4c07e098dacc91071118ce4f28ca8&#45;&gt;dir_cbdb8362360e11eafe2fa3bc74cf0ffd -->
<g id="edge2" class="edge">
<title>dir_6be4c07e098dacc91071118ce4f28ca8&#45;&gt;dir_cbdb8362360e11eafe2fa3bc74cf0ffd</title>
<path fill="none" stroke="black" d="M86.11,-215.77C93.87,-206.03 102.45,-193.18 106.5,-180 120.53,-134.36 107.63,-78.51 97.32,-46.02"/>
<polygon fill="black" stroke="black" points="100.58,-44.73 94.1,-36.34 93.93,-46.93 100.58,-44.73"/>
<g id="a_edge2&#45;headlabel"><a xlink:href="dir_000002_000021.html" target="_top" xlink:title="1">
<text text-anchor="middle" x="104.4" y="-44.74" font-family="Helvetica,sans-Serif" font-size="10.00">1</text>
</a>
</g>
</g>
<!-- dir_7c2730fb8449c1fd3c0779d2ebca1b41&#45;&gt;dir_cbdb8362360e11eafe2fa3bc74cf0ffd -->
<g id="edge1" class="edge">
<title>dir_7c2730fb8449c1fd3c0779d2ebca1b41&#45;&gt;dir_cbdb8362360e11eafe2fa3bc74cf0ffd</title>
<path fill="none" stroke="black" d="M43.84,-71.7C50.79,-63.3 59.27,-53.07 66.9,-43.86"/>
<polygon fill="black" stroke="black" points="69.64,-46.04 73.33,-36.1 64.25,-41.57 69.64,-46.04"/>
<g id="a_edge1&#45;headlabel"><a xlink:href="dir_000013_000021.html" target="_top" xlink:title="2">
<text text-anchor="middle" x="69.54" y="-48.12" font-family="Helvetica,sans-Serif" font-size="10.00">2</text>
</a>
</g>
</g>
</g>
</svg>
