<?xml version="1.0" encoding="UTF-8" standalone="no"?>
<!DOCTYPE svg PUBLIC "-//W3C//DTD SVG 1.1//EN"
 "http://www.w3.org/Graphics/SVG/1.1/DTD/svg11.dtd">
<!-- Generated by graphviz version 2.43.0 (0)
 -->
<!-- Title: executor Pages: 1 -->
<svg width="228pt" height="222pt"
 viewBox="0.00 0.00 228.00 221.95" xmlns="http://www.w3.org/2000/svg" xmlns:xlink="http://www.w3.org/1999/xlink">
<g id="graph0" class="graph" transform="scale(1 1) rotate(0) translate(4 217.95)">
<title>executor</title>
<polygon fill="white" stroke="transparent" points="-4,4 -4,-217.95 224,-217.95 224,4 -4,4"/>
<g id="clust1" class="cluster">
<title>clusterdir_d6b47c55c117061889082b3039c4cfaf</title>
<g id="a_clust1"><a xlink:href="dir_d6b47c55c117061889082b3039c4cfaf.html" target="_top">
<polygon fill="#eeeeff" stroke="black" points="8,-64 8,-188 156,-188 156,-64 8,-64"/>
</a>
</g>
</g>
<!-- dir_d6b47c55c117061889082b3039c4cfaf -->
<g id="node1" class="node">
<title>dir_d6b47c55c117061889082b3039c4cfaf</title>
<text text-anchor="middle" x="118" y="-159.5" font-family="Helvetica,sans-Serif" font-size="10.00">executor</text>
</g>
<!-- dir_0e2b23df43e6599042525cfec0ad0bb8 -->
<g id="node2" class="node">
<title>dir_0e2b23df43e6599042525cfec0ad0bb8</title>
<g id="a_node2"><a xlink:href="dir_0e2b23df43e6599042525cfec0ad0bb8.html" target="_top" xlink:title="inc">
<polygon fill="white" stroke="black" points="147,-108 93,-108 93,-72 147,-72 147,-108"/>
<text text-anchor="middle" x="120" y="-87.5" font-family="Helvetica,sans-Serif" font-size="10.00">inc</text>
</a>
</g>
</g>
<!-- dir_6934992e9a368eaba336ecc6a1d98046 -->
<g id="node3" class="node">
<title>dir_6934992e9a368eaba336ecc6a1d98046</title>
<g id="a_node3"><a xlink:href="dir_6934992e9a368eaba336ecc6a1d98046.html" target="_top" xlink:title="proto">
<polygon fill="white" stroke="red" points="75,-108 21,-108 21,-72 75,-72 75,-108"/>
<text text-anchor="middle" x="48" y="-87.5" font-family="Helvetica,sans-Serif" font-size="10.00">proto</text>
</a>
</g>
</g>
<!-- dir_01bb488ba2da569494bd6323304f0767 -->
<g id="node4" class="node">
<title>dir_01bb488ba2da569494bd6323304f0767</title>
<g id="a_node4"><a xlink:href="dir_01bb488ba2da569494bd6323304f0767.html" target="_top" xlink:title="src">
<polygon fill="white" stroke="black" points="70,-180 16,-180 16,-144 70,-144 70,-180"/>
<text text-anchor="middle" x="43" y="-159.5" font-family="Helvetica,sans-Serif" font-size="10.00">src</text>
</a>
</g>
</g>
<!-- dir_01bb488ba2da569494bd6323304f0767&#45;&gt;dir_0e2b23df43e6599042525cfec0ad0bb8 -->
<g id="edge8" class="edge">
<title>dir_01bb488ba2da569494bd6323304f0767&#45;&gt;dir_0e2b23df43e6599042525cfec0ad0bb8</title>
<path fill="none" stroke="black" d="M62.03,-143.7C71.54,-135.05 83.21,-124.45 93.57,-115.03"/>
<polygon fill="black" stroke="black" points="96.14,-117.42 101.19,-108.1 91.43,-112.24 96.14,-117.42"/>
<g id="a_edge8&#45;headlabel"><a xlink:href="dir_000017_000014.html" target="_top" xlink:title="2">
<text text-anchor="middle" x="95.39" y="-119.44" font-family="Helvetica,sans-Serif" font-size="10.00">2</text>
</a>
</g>
</g>
<!-- dir_01bb488ba2da569494bd6323304f0767&#45;&gt;dir_6934992e9a368eaba336ecc6a1d98046 -->
<g id="edge7" class="edge">
<title>dir_01bb488ba2da569494bd6323304f0767&#45;&gt;dir_6934992e9a368eaba336ecc6a1d98046</title>
<path fill="none" stroke="black" d="M44.24,-143.7C44.79,-135.98 45.45,-126.71 46.06,-118.11"/>
<polygon fill="black" stroke="black" points="49.56,-118.33 46.78,-108.1 42.57,-117.83 49.56,-118.33"/>
<g id="a_edge7&#45;headlabel"><a xlink:href="dir_000017_000015.html" target="_top" xlink:title="1">
<text text-anchor="middle" x="52.13" y="-119.62" font-family="Helvetica,sans-Serif" font-size="10.00">1</text>
</a>
</g>
</g>
<!-- dir_f08c1ffadff6e9e08f49766ff6ac3753 -->
<g id="node5" class="node">
<title>dir_f08c1ffadff6e9e08f49766ff6ac3753</title>
<g id="a_node5"><a xlink:href="dir_f08c1ffadff6e9e08f49766ff6ac3753.html" target="_top" xlink:title="utils">
<polygon fill="white" stroke="red" points="219,-108 165,-108 165,-72 219,-72 219,-108"/>
<text text-anchor="middle" x="192" y="-87.5" font-family="Helvetica,sans-Serif" font-size="10.00">utils</text>
</a>
</g>
</g>
<!-- dir_01bb488ba2da569494bd6323304f0767&#45;&gt;dir_f08c1ffadff6e9e08f49766ff6ac3753 -->
<g id="edge4" class="edge">
<title>dir_01bb488ba2da569494bd6323304f0767&#45;&gt;dir_f08c1ffadff6e9e08f49766ff6ac3753</title>
<path fill="none" stroke="black" d="M70.07,-148.53C73.41,-147 76.78,-145.46 80,-144 112.58,-129.18 123.25,-125.69 155.61,-110.08"/>
<polygon fill="black" stroke="black" points="157.37,-113.11 164.83,-105.59 154.31,-106.82 157.37,-113.11"/>
<g id="a_edge4&#45;headlabel"><a xlink:href="dir_000017_000021.html" target="_top" xlink:title="2">
<text text-anchor="middle" x="155.38" y="-114.74" font-family="Helvetica,sans-Serif" font-size="10.00">2</text>
</a>
</g>
</g>
<!-- dir_f8c6f0679b123304d35aae1bb0e284fb -->
<g id="node6" class="node">
<title>dir_f8c6f0679b123304d35aae1bb0e284fb</title>
<g id="a_node6"><a xlink:href="dir_f8c6f0679b123304d35aae1bb0e284fb.html" target="_top" xlink:title="database">
<polygon fill="white" stroke="red" points="123,-36 61,-36 61,0 123,0 123,-36"/>
<text text-anchor="middle" x="92" y="-15.5" font-family="Helvetica,sans-Serif" font-size="10.00">database</text>
</a>
</g>
</g>
<!-- dir_01bb488ba2da569494bd6323304f0767&#45;&gt;dir_f8c6f0679b123304d35aae1bb0e284fb -->
<g id="edge5" class="edge">
<title>dir_01bb488ba2da569494bd6323304f0767&#45;&gt;dir_f8c6f0679b123304d35aae1bb0e284fb</title>
<path fill="none" stroke="black" d="M29.47,-143.94C15.26,-123.8 -3.08,-89.79 12,-64 20.73,-49.08 36.42,-38.72 51.62,-31.74"/>
<polygon fill="black" stroke="black" points="53.08,-34.92 60.94,-27.82 50.37,-28.47 53.08,-34.92"/>
<g id="a_edge5&#45;headlabel"><a xlink:href="dir_000017_000010.html" target="_top" xlink:title="4">
<text text-anchor="middle" x="50.87" y="-36.43" font-family="Helvetica,sans-Serif" font-size="10.00">4</text>
</a>
</g>
</g>
<!-- dir_521dc20e1c32dad3a389d870e90503a0 -->
<g id="node7" class="node">
<title>dir_521dc20e1c32dad3a389d870e90503a0</title>
<g id="a_node7"><a xlink:href="dir_521dc20e1c32dad3a389d870e90503a0.html" target="_top" xlink:title="core">
<polygon fill="white" stroke="red" points="220,-180 166,-180 166,-144 220,-144 220,-180"/>
<text text-anchor="middle" x="193" y="-159.5" font-family="Helvetica,sans-Serif" font-size="10.00">core</text>
</a>
</g>
</g>
<!-- dir_01bb488ba2da569494bd6323304f0767&#45;&gt;dir_521dc20e1c32dad3a389d870e90503a0 -->
<g id="edge6" class="edge">
<title>dir_01bb488ba2da569494bd6323304f0767&#45;&gt;dir_521dc20e1c32dad3a389d870e90503a0</title>
<path fill="none" stroke="black" d="M56.15,-180.05C64.37,-189.73 75.87,-200.73 89,-206 114.57,-216.26 125.67,-216.84 151,-206 160.13,-202.09 168.21,-195.13 174.79,-187.87"/>
<polygon fill="black" stroke="black" points="177.62,-189.94 181.32,-180.01 172.24,-185.47 177.62,-189.94"/>
<g id="a_edge6&#45;headlabel"><a xlink:href="dir_000017_000007.html" target="_top" xlink:title="2">
<text text-anchor="middle" x="177.51" y="-192.02" font-family="Helvetica,sans-Serif" font-size="10.00">2</text>
</a>
</g>
</g>
<!-- dir_f08c1ffadff6e9e08f49766ff6ac3753&#45;&gt;dir_f8c6f0679b123304d35aae1bb0e284fb -->
<g id="edge1" class="edge">
<title>dir_f08c1ffadff6e9e08f49766ff6ac3753&#45;&gt;dir_f8c6f0679b123304d35aae1bb0e284fb</title>
<path fill="none" stroke="black" d="M170.49,-71.82C167.01,-69.16 163.43,-66.47 160,-64 149.59,-56.51 138.03,-48.68 127.43,-41.69"/>
<polygon fill="black" stroke="black" points="129.09,-38.6 118.81,-36.05 125.26,-44.45 129.09,-38.6"/>
<g id="a_edge1&#45;headlabel"><a xlink:href="dir_000021_000010.html" target="_top" xlink:title="1">
<text text-anchor="middle" x="133.66" y="-35.69" font-family="Helvetica,sans-Serif" font-size="10.00">1</text>
</a>
</g>
</g>
<!-- dir_521dc20e1c32dad3a389d870e90503a0&#45;&gt;dir_0e2b23df43e6599042525cfec0ad0bb8 -->
<g id="edge3" class="edge">
<title>dir_521dc20e1c32dad3a389d870e90503a0&#45;&gt;dir_0e2b23df43e6599042525cfec0ad0bb8</title>
<path fill="none" stroke="black" d="M174.96,-143.7C165.94,-135.05 154.88,-124.45 145.06,-115.03"/>
<polygon fill="black" stroke="black" points="147.48,-112.5 137.84,-108.1 142.63,-117.55 147.48,-112.5"/>
<g id="a_edge3&#45;headlabel"><a xlink:href="dir_000007_000014.html" target="_top" xlink:title="1">
<text text-anchor="middle" x="152.04" y="-110.44" font-family="Helvetica,sans-Serif" font-size="10.00">1</text>
</a>
</g>
</g>
<!-- dir_521dc20e1c32dad3a389d870e90503a0&#45;&gt;dir_f08c1ffadff6e9e08f49766ff6ac3753 -->
<g id="edge2" class="edge">
<title>dir_521dc20e1c32dad3a389d870e90503a0&#45;&gt;dir_f08c1ffadff6e9e08f49766ff6ac3753</title>
<path fill="none" stroke="black" d="M192.75,-143.7C192.64,-135.98 192.51,-126.71 192.39,-118.11"/>
<polygon fill="black" stroke="black" points="195.89,-118.05 192.24,-108.1 188.89,-118.15 195.89,-118.05"/>
<g id="a_edge2&#45;headlabel"><a xlink:href="dir_000007_000021.html" target="_top" xlink:title="1">
<text text-anchor="middle" x="198.78" y="-119.11" font-family="Helvetica,sans-Serif" font-size="10.00">1</text>
</a>
</g>
</g>
</g>
</svg>
