<?xml version="1.0" encoding="UTF-8" standalone="no"?>
<!DOCTYPE svg PUBLIC "-//W3C//DTD SVG 1.1//EN"
 "http://www.w3.org/Graphics/SVG/1.1/DTD/svg11.dtd">
<!-- Generated by graphviz version 2.43.0 (0)
 -->
<!-- Title: utils Pages: 1 -->
<svg width="228pt" height="148pt"
 viewBox="0.00 0.00 228.00 148.00" xmlns="http://www.w3.org/2000/svg" xmlns:xlink="http://www.w3.org/1999/xlink">
<g id="graph0" class="graph" transform="scale(1 1) rotate(0) translate(4 144)">
<title>utils</title>
<polygon fill="white" stroke="transparent" points="-4,4 -4,-144 224,-144 224,4 -4,4"/>
<g id="clust1" class="cluster">
<title>clusterdir_f08c1ffadff6e9e08f49766ff6ac3753</title>
<g id="a_clust1"><a xlink:href="dir_f08c1ffadff6e9e08f49766ff6ac3753.html" target="_top">
<polygon fill="#eeeeff" stroke="black" points="8,-8 8,-132 150,-132 150,-8 8,-8"/>
</a>
</g>
</g>
<!-- dir_f08c1ffadff6e9e08f49766ff6ac3753 -->
<g id="node1" class="node">
<title>dir_f08c1ffadff6e9e08f49766ff6ac3753</title>
<text text-anchor="middle" x="115" y="-103.5" font-family="Helvetica,sans-Serif" font-size="10.00">utils</text>
</g>
<!-- dir_8e032a88fd97b977b14fa9c66aef0e48 -->
<g id="node2" class="node">
<title>dir_8e032a88fd97b977b14fa9c66aef0e48</title>
<g id="a_node2"><a xlink:href="dir_8e032a88fd97b977b14fa9c66aef0e48.html" target="_top" xlink:title="inc">
<polygon fill="white" stroke="black" points="105,-52 51,-52 51,-16 105,-16 105,-52"/>
<text text-anchor="middle" x="78" y="-31.5" font-family="Helvetica,sans-Serif" font-size="10.00">inc</text>
</a>
</g>
</g>
<!-- dir_f8c6f0679b123304d35aae1bb0e284fb -->
<g id="node4" class="node">
<title>dir_f8c6f0679b123304d35aae1bb0e284fb</title>
<g id="a_node4"><a xlink:href="dir_f8c6f0679b123304d35aae1bb0e284fb.html" target="_top" xlink:title="database">
<polygon fill="white" stroke="red" points="220,-52 158,-52 158,-16 220,-16 220,-52"/>
<text text-anchor="middle" x="189" y="-31.5" font-family="Helvetica,sans-Serif" font-size="10.00">database</text>
</a>
</g>
</g>
<!-- dir_8e032a88fd97b977b14fa9c66aef0e48&#45;&gt;dir_f8c6f0679b123304d35aae1bb0e284fb -->
<g id="edge4" class="edge">
<title>dir_8e032a88fd97b977b14fa9c66aef0e48&#45;&gt;dir_f8c6f0679b123304d35aae1bb0e284fb</title>
<path fill="none" stroke="black" d="M105.32,-34C119.43,-34 133.55,-34 147.67,-34"/>
<polygon fill="black" stroke="black" points="147.95,-37.5 157.95,-34 147.95,-30.5 147.95,-37.5"/>
<g id="a_edge4&#45;headlabel"><a xlink:href="dir_000026_000010.html" target="_top" xlink:title="1">
<text text-anchor="middle" x="144.35" y="-37.84" font-family="Helvetica,sans-Serif" font-size="10.00">1</text>
</a>
</g>
</g>
<!-- dir_969e0ef425e5eabd9df1b99eb11357ce -->
<g id="node3" class="node">
<title>dir_969e0ef425e5eabd9df1b99eb11357ce</title>
<g id="a_node3"><a xlink:href="dir_969e0ef425e5eabd9df1b99eb11357ce.html" target="_top" xlink:title="src">
<polygon fill="white" stroke="black" points="70,-124 16,-124 16,-88 70,-88 70,-124"/>
<text text-anchor="middle" x="43" y="-103.5" font-family="Helvetica,sans-Serif" font-size="10.00">src</text>
</a>
</g>
</g>
<!-- dir_969e0ef425e5eabd9df1b99eb11357ce&#45;&gt;dir_8e032a88fd97b977b14fa9c66aef0e48 -->
<g id="edge3" class="edge">
<title>dir_969e0ef425e5eabd9df1b99eb11357ce&#45;&gt;dir_8e032a88fd97b977b14fa9c66aef0e48</title>
<path fill="none" stroke="black" d="M51.65,-87.7C55.64,-79.73 60.45,-70.1 64.87,-61.26"/>
<polygon fill="black" stroke="black" points="68.11,-62.61 69.45,-52.1 61.85,-59.48 68.11,-62.61"/>
<g id="a_edge3&#45;headlabel"><a xlink:href="dir_000027_000026.html" target="_top" xlink:title="4">
<text text-anchor="middle" x="69.04" y="-64.6" font-family="Helvetica,sans-Serif" font-size="10.00">4</text>
</a>
</g>
</g>
<!-- dir_969e0ef425e5eabd9df1b99eb11357ce&#45;&gt;dir_f8c6f0679b123304d35aae1bb0e284fb -->
<g id="edge2" class="edge">
<title>dir_969e0ef425e5eabd9df1b99eb11357ce&#45;&gt;dir_f8c6f0679b123304d35aae1bb0e284fb</title>
<path fill="none" stroke="black" d="M70.39,-91.98C90.77,-82.29 119.49,-68.59 148.66,-54.57"/>
<polygon fill="black" stroke="black" points="150.22,-57.7 157.71,-50.21 147.18,-51.39 150.22,-57.7"/>
<g id="a_edge2&#45;headlabel"><a xlink:href="dir_000027_000010.html" target="_top" xlink:title="1">
<text text-anchor="middle" x="148.21" y="-59.32" font-family="Helvetica,sans-Serif" font-size="10.00">1</text>
</a>
</g>
</g>
<!-- dir_f8c6f0679b123304d35aae1bb0e284fb&#45;&gt;dir_8e032a88fd97b977b14fa9c66aef0e48 -->
<g id="edge1" class="edge">
<title>dir_f8c6f0679b123304d35aae1bb0e284fb&#45;&gt;dir_8e032a88fd97b977b14fa9c66aef0e48</title>
<path fill="none" stroke="black" d="M157.95,-34C143.83,-34 129.71,-34 115.6,-34"/>
<polygon fill="black" stroke="black" points="115.32,-30.5 105.32,-34 115.32,-37.5 115.32,-30.5"/>
<g id="a_edge1&#45;headlabel"><a xlink:href="dir_000010_000026.html" target="_top" xlink:title="1">
<text text-anchor="middle" x="118.91" y="-25.16" font-family="Helvetica,sans-Serif" font-size="10.00">1</text>
</a>
</g>
</g>
</g>
</svg>
