<?xml version="1.0" encoding="UTF-8" standalone="no"?>
<!DOCTYPE svg PUBLIC "-//W3C//DTD SVG 1.1//EN"
 "http://www.w3.org/Graphics/SVG/1.1/DTD/svg11.dtd">
<!-- Generated by graphviz version 2.43.0 (0)
 -->
<!-- Title: database Pages: 1 -->
<svg width="174pt" height="148pt"
 viewBox="0.00 0.00 174.00 148.00" xmlns="http://www.w3.org/2000/svg" xmlns:xlink="http://www.w3.org/1999/xlink">
<g id="graph0" class="graph" transform="scale(1 1) rotate(0) translate(4 144)">
<title>database</title>
<polygon fill="white" stroke="transparent" points="-4,4 -4,-144 170,-144 170,4 -4,4"/>
<g id="clust1" class="cluster">
<title>clusterdir_f8c6f0679b123304d35aae1bb0e284fb</title>
<g id="a_clust1"><a xlink:href="dir_f8c6f0679b123304d35aae1bb0e284fb.html" target="_top">
<polygon fill="#eeeeff" stroke="black" points="8,-8 8,-132 158,-132 158,-8 8,-8"/>
</a>
</g>
</g>
<!-- dir_f8c6f0679b123304d35aae1bb0e284fb -->
<g id="node1" class="node">
<title>dir_f8c6f0679b123304d35aae1bb0e284fb</title>
<text text-anchor="middle" x="119" y="-103.5" font-family="Helvetica,sans-Serif" font-size="10.00">database</text>
</g>
<!-- dir_bd5693d87b1a44b15a05065b7dccf9b8 -->
<g id="node2" class="node">
<title>dir_bd5693d87b1a44b15a05065b7dccf9b8</title>
<g id="a_node2"><a xlink:href="dir_bd5693d87b1a44b15a05065b7dccf9b8.html" target="_top" xlink:title="inc">
<polygon fill="white" stroke="black" points="70,-52 16,-52 16,-16 70,-16 70,-52"/>
<text text-anchor="middle" x="43" y="-31.5" font-family="Helvetica,sans-Serif" font-size="10.00">inc</text>
</a>
</g>
</g>
<!-- dir_a36bcc1171cf94859c32aa544a3bfadf -->
<g id="node3" class="node">
<title>dir_a36bcc1171cf94859c32aa544a3bfadf</title>
<g id="a_node3"><a xlink:href="dir_a36bcc1171cf94859c32aa544a3bfadf.html" target="_top" xlink:title="src">
<polygon fill="white" stroke="black" points="70,-124 16,-124 16,-88 70,-88 70,-124"/>
<text text-anchor="middle" x="43" y="-103.5" font-family="Helvetica,sans-Serif" font-size="10.00">src</text>
</a>
</g>
</g>
<!-- dir_a36bcc1171cf94859c32aa544a3bfadf&#45;&gt;dir_bd5693d87b1a44b15a05065b7dccf9b8 -->
<g id="edge1" class="edge">
<title>dir_a36bcc1171cf94859c32aa544a3bfadf&#45;&gt;dir_bd5693d87b1a44b15a05065b7dccf9b8</title>
<path fill="none" stroke="black" d="M43,-87.7C43,-79.98 43,-70.71 43,-62.11"/>
<polygon fill="black" stroke="black" points="46.5,-62.1 43,-52.1 39.5,-62.1 46.5,-62.1"/>
<g id="a_edge1&#45;headlabel"><a xlink:href="dir_000012_000011.html" target="_top" xlink:title="1">
<text text-anchor="middle" x="49.34" y="-63.2" font-family="Helvetica,sans-Serif" font-size="10.00">1</text>
</a>
</g>
</g>
</g>
</svg>
