<?xml version="1.0" encoding="UTF-8" standalone="no"?>
<!DOCTYPE svg PUBLIC "-//W3C//DTD SVG 1.1//EN"
 "http://www.w3.org/Graphics/SVG/1.1/DTD/svg11.dtd">
<!-- Generated by graphviz version 2.43.0 (0)
 -->
<!-- Title: runtime/src Pages: 1 -->
<svg width="129pt" height="295pt"
 viewBox="0.00 0.00 128.50 295.00" xmlns="http://www.w3.org/2000/svg" xmlns:xlink="http://www.w3.org/1999/xlink">
<g id="graph0" class="graph" transform="scale(1 1) rotate(0) translate(4 291)">
<title>runtime/src</title>
<polygon fill="white" stroke="transparent" points="-4,4 -4,-291 124.5,-291 124.5,4 -4,4"/>
<g id="clust1" class="cluster">
<title>clusterdir_c6f90d7b3aff386cab2eb5eb40ce2f26</title>
<g id="a_clust1"><a xlink:href="dir_c6f90d7b3aff386cab2eb5eb40ce2f26.html" target="_top" xlink:title="runtime">
<polygon fill="#ddddee" stroke="black" points="8,-208 8,-279 78,-279 78,-208 8,-208"/>
<text text-anchor="middle" x="43" y="-267" font-family="Helvetica,sans-Serif" font-size="10.00">runtime</text>
</a>
</g>
</g>
<!-- dir_1dbc2d7b85be1956d8759e1bd297c297 -->
<g id="node1" class="node">
<title>dir_1dbc2d7b85be1956d8759e1bd297c297</title>
<g id="a_node1"><a xlink:href="dir_1dbc2d7b85be1956d8759e1bd297c297.html" target="_top" xlink:title="src">
<polygon fill="#eeeeff" stroke="black" points="70,-252 16,-252 16,-216 70,-216 70,-252"/>
<text text-anchor="middle" x="43" y="-231.5" font-family="Helvetica,sans-Serif" font-size="10.00">src</text>
</a>
</g>
</g>
<!-- dir_f08c1ffadff6e9e08f49766ff6ac3753 -->
<g id="node2" class="node">
<title>dir_f08c1ffadff6e9e08f49766ff6ac3753</title>
<g id="a_node2"><a xlink:href="dir_f08c1ffadff6e9e08f49766ff6ac3753.html" target="_top" xlink:title="utils">
<polygon fill="white" stroke="red" points="60,-36 6,-36 6,0 60,0 60,-36"/>
<text text-anchor="middle" x="33" y="-15.5" font-family="Helvetica,sans-Serif" font-size="10.00">utils</text>
</a>
</g>
</g>
<!-- dir_1dbc2d7b85be1956d8759e1bd297c297&#45;&gt;dir_f08c1ffadff6e9e08f49766ff6ac3753 -->
<g id="edge1" class="edge">
<title>dir_1dbc2d7b85be1956d8759e1bd297c297&#45;&gt;dir_f08c1ffadff6e9e08f49766ff6ac3753</title>
<path fill="none" stroke="black" d="M27.39,-215.77C19.63,-206.03 11.05,-193.18 7,-180 -7.12,-134.09 8.89,-78.33 21.3,-45.93"/>
<polygon fill="black" stroke="black" points="24.7,-46.86 25.16,-36.27 18.2,-44.26 24.7,-46.86"/>
<g id="a_edge1&#45;headlabel"><a xlink:href="dir_000020_000021.html" target="_top" xlink:title="12">
<text text-anchor="middle" x="26" y="-48.75" font-family="Helvetica,sans-Serif" font-size="10.00">12</text>
</a>
</g>
</g>
<!-- dir_c2d23aafdf04533449ab55d5abc8d9ae -->
<g id="node3" class="node">
<title>dir_c2d23aafdf04533449ab55d5abc8d9ae</title>
<g id="a_node3"><a xlink:href="dir_c2d23aafdf04533449ab55d5abc8d9ae.html" target="_top" xlink:title="inc">
<polygon fill="none" stroke="black" points="70,-180 16,-180 16,-144 70,-144 70,-180"/>
<text text-anchor="middle" x="43" y="-159.5" font-family="Helvetica,sans-Serif" font-size="10.00">inc</text>
</a>
</g>
</g>
<!-- dir_1dbc2d7b85be1956d8759e1bd297c297&#45;&gt;dir_c2d23aafdf04533449ab55d5abc8d9ae -->
<g id="edge2" class="edge">
<title>dir_1dbc2d7b85be1956d8759e1bd297c297&#45;&gt;dir_c2d23aafdf04533449ab55d5abc8d9ae</title>
<path fill="none" stroke="black" d="M43,-215.7C43,-207.98 43,-198.71 43,-190.11"/>
<polygon fill="black" stroke="black" points="46.5,-190.1 43,-180.1 39.5,-190.1 46.5,-190.1"/>
<g id="a_edge2&#45;headlabel"><a xlink:href="dir_000020_000019.html" target="_top" xlink:title="9">
<text text-anchor="middle" x="49.34" y="-191.2" font-family="Helvetica,sans-Serif" font-size="10.00">9</text>
</a>
</g>
</g>
<!-- dir_d6b47c55c117061889082b3039c4cfaf -->
<g id="node4" class="node">
<title>dir_d6b47c55c117061889082b3039c4cfaf</title>
<g id="a_node4"><a xlink:href="dir_d6b47c55c117061889082b3039c4cfaf.html" target="_top" xlink:title="executor">
<polygon fill="white" stroke="red" points="120.5,-108 61.5,-108 61.5,-72 120.5,-72 120.5,-108"/>
<text text-anchor="middle" x="91" y="-87.5" font-family="Helvetica,sans-Serif" font-size="10.00">executor</text>
</a>
</g>
</g>
<!-- dir_1dbc2d7b85be1956d8759e1bd297c297&#45;&gt;dir_d6b47c55c117061889082b3039c4cfaf -->
<g id="edge3" class="edge">
<title>dir_1dbc2d7b85be1956d8759e1bd297c297&#45;&gt;dir_d6b47c55c117061889082b3039c4cfaf</title>
<path fill="none" stroke="black" d="M57.91,-215.53C65.47,-205.72 74.07,-192.88 79,-180 86.55,-160.25 89.47,-136.45 90.55,-118.43"/>
<polygon fill="black" stroke="black" points="94.05,-118.45 90.99,-108.31 87.06,-118.14 94.05,-118.45"/>
<g id="a_edge3&#45;headlabel"><a xlink:href="dir_000020_000013.html" target="_top" xlink:title="1">
<text text-anchor="middle" x="96.73" y="-119.67" font-family="Helvetica,sans-Serif" font-size="10.00">1</text>
</a>
</g>
</g>
<!-- dir_c2d23aafdf04533449ab55d5abc8d9ae&#45;&gt;dir_f08c1ffadff6e9e08f49766ff6ac3753 -->
<g id="edge4" class="edge">
<title>dir_c2d23aafdf04533449ab55d5abc8d9ae&#45;&gt;dir_f08c1ffadff6e9e08f49766ff6ac3753</title>
<path fill="none" stroke="black" d="M41.79,-143.87C40.09,-119.67 36.96,-75.21 34.93,-46.39"/>
<polygon fill="black" stroke="black" points="38.4,-45.92 34.21,-36.19 31.42,-46.41 38.4,-45.92"/>
<g id="a_edge4&#45;headlabel"><a xlink:href="dir_000019_000021.html" target="_top" xlink:title="5">
<text text-anchor="middle" x="41.49" y="-46.8" font-family="Helvetica,sans-Serif" font-size="10.00">5</text>
</a>
</g>
</g>
<!-- dir_c2d23aafdf04533449ab55d5abc8d9ae&#45;&gt;dir_d6b47c55c117061889082b3039c4cfaf -->
<g id="edge5" class="edge">
<title>dir_c2d23aafdf04533449ab55d5abc8d9ae&#45;&gt;dir_d6b47c55c117061889082b3039c4cfaf</title>
<path fill="none" stroke="black" d="M54.87,-143.7C60.5,-135.47 67.35,-125.48 73.57,-116.42"/>
<polygon fill="black" stroke="black" points="76.5,-118.33 79.27,-108.1 70.73,-114.37 76.5,-118.33"/>
<g id="a_edge5&#45;headlabel"><a xlink:href="dir_000019_000013.html" target="_top" xlink:title="5">
<text text-anchor="middle" x="76.81" y="-120.4" font-family="Helvetica,sans-Serif" font-size="10.00">5</text>
</a>
</g>
</g>
<!-- dir_d6b47c55c117061889082b3039c4cfaf&#45;&gt;dir_f08c1ffadff6e9e08f49766ff6ac3753 -->
<g id="edge6" class="edge">
<title>dir_d6b47c55c117061889082b3039c4cfaf&#45;&gt;dir_f08c1ffadff6e9e08f49766ff6ac3753</title>
<path fill="none" stroke="black" d="M76.66,-71.7C69.71,-63.3 61.23,-53.07 53.6,-43.86"/>
<polygon fill="black" stroke="black" points="56.25,-41.57 47.17,-36.1 50.86,-46.04 56.25,-41.57"/>
<g id="a_edge6&#45;headlabel"><a xlink:href="dir_000013_000021.html" target="_top" xlink:title="4">
<text text-anchor="middle" x="60.73" y="-40.03" font-family="Helvetica,sans-Serif" font-size="10.00">4</text>
</a>
</g>
</g>
</g>
</svg>
