<?xml version="1.0" encoding="UTF-8" standalone="no"?>
<!DOCTYPE svg PUBLIC "-//W3C//DTD SVG 1.1//EN"
 "http://www.w3.org/Graphics/SVG/1.1/DTD/svg11.dtd">
<!-- Generated by graphviz version 2.43.0 (0)
 -->
<!-- Title: core/src Pages: 1 -->
<svg width="163pt" height="223pt"
 viewBox="0.00 0.00 163.00 223.00" xmlns="http://www.w3.org/2000/svg" xmlns:xlink="http://www.w3.org/1999/xlink">
<g id="graph0" class="graph" transform="scale(1 1) rotate(0) translate(4 219)">
<title>core/src</title>
<polygon fill="white" stroke="transparent" points="-4,4 -4,-219 159,-219 159,4 -4,4"/>
<g id="clust1" class="cluster">
<title>clusterdir_4270bfced15e0e73154b13468c7c9ad9</title>
<g id="a_clust1"><a xlink:href="dir_4270bfced15e0e73154b13468c7c9ad9.html" target="_top" xlink:title="core">
<polygon fill="#ddddee" stroke="black" points="20,-136 20,-207 90,-207 90,-136 20,-136"/>
<text text-anchor="middle" x="55" y="-195" font-family="Helvetica,sans-Serif" font-size="10.00">core</text>
</a>
</g>
</g>
<!-- dir_90fd98a0ba30abf7a6068a44995d2d6b -->
<g id="node1" class="node">
<title>dir_90fd98a0ba30abf7a6068a44995d2d6b</title>
<g id="a_node1"><a xlink:href="dir_90fd98a0ba30abf7a6068a44995d2d6b.html" target="_top" xlink:title="src">
<polygon fill="#eeeeff" stroke="black" points="82,-180 28,-180 28,-144 82,-144 82,-180"/>
<text text-anchor="middle" x="55" y="-159.5" font-family="Helvetica,sans-Serif" font-size="10.00">src</text>
</a>
</g>
</g>
<!-- dir_cbdb8362360e11eafe2fa3bc74cf0ffd -->
<g id="node2" class="node">
<title>dir_cbdb8362360e11eafe2fa3bc74cf0ffd</title>
<g id="a_node2"><a xlink:href="dir_cbdb8362360e11eafe2fa3bc74cf0ffd.html" target="_top" xlink:title="utils">
<polygon fill="white" stroke="red" points="54,-36 0,-36 0,0 54,0 54,-36"/>
<text text-anchor="middle" x="27" y="-15.5" font-family="Helvetica,sans-Serif" font-size="10.00">utils</text>
</a>
</g>
</g>
<!-- dir_90fd98a0ba30abf7a6068a44995d2d6b&#45;&gt;dir_cbdb8362360e11eafe2fa3bc74cf0ffd -->
<g id="edge1" class="edge">
<title>dir_90fd98a0ba30abf7a6068a44995d2d6b&#45;&gt;dir_cbdb8362360e11eafe2fa3bc74cf0ffd</title>
<path fill="none" stroke="black" d="M39.39,-143.77C31.63,-134.03 23.05,-121.18 19,-108 12.79,-87.8 15.45,-63.89 19.31,-45.94"/>
<polygon fill="black" stroke="black" points="22.73,-46.67 21.66,-36.13 15.92,-45.04 22.73,-46.67"/>
<g id="a_edge1&#45;headlabel"><a xlink:href="dir_000009_000019.html" target="_top" xlink:title="1">
<text text-anchor="middle" x="24.66" y="-48.33" font-family="Helvetica,sans-Serif" font-size="10.00">1</text>
</a>
</g>
</g>
<!-- dir_cb031e414f281a658b23dddb30bb9d2c -->
<g id="node3" class="node">
<title>dir_cb031e414f281a658b23dddb30bb9d2c</title>
<g id="a_node3"><a xlink:href="dir_cb031e414f281a658b23dddb30bb9d2c.html" target="_top" xlink:title="runtime">
<polygon fill="white" stroke="red" points="82.5,-108 27.5,-108 27.5,-72 82.5,-72 82.5,-108"/>
<text text-anchor="middle" x="55" y="-87.5" font-family="Helvetica,sans-Serif" font-size="10.00">runtime</text>
</a>
</g>
</g>
<!-- dir_90fd98a0ba30abf7a6068a44995d2d6b&#45;&gt;dir_cb031e414f281a658b23dddb30bb9d2c -->
<g id="edge2" class="edge">
<title>dir_90fd98a0ba30abf7a6068a44995d2d6b&#45;&gt;dir_cb031e414f281a658b23dddb30bb9d2c</title>
<path fill="none" stroke="black" d="M55,-143.7C55,-135.98 55,-126.71 55,-118.11"/>
<polygon fill="black" stroke="black" points="58.5,-118.1 55,-108.1 51.5,-118.1 58.5,-118.1"/>
<g id="a_edge2&#45;headlabel"><a xlink:href="dir_000009_000016.html" target="_top" xlink:title="1">
<text text-anchor="middle" x="61.34" y="-119.2" font-family="Helvetica,sans-Serif" font-size="10.00">1</text>
</a>
</g>
</g>
<!-- dir_7e868af64e31779987291c90ae140f88 -->
<g id="node4" class="node">
<title>dir_7e868af64e31779987291c90ae140f88</title>
<g id="a_node4"><a xlink:href="dir_7e868af64e31779987291c90ae140f88.html" target="_top" xlink:title="inc">
<polygon fill="none" stroke="black" points="155,-108 101,-108 101,-72 155,-72 155,-108"/>
<text text-anchor="middle" x="128" y="-87.5" font-family="Helvetica,sans-Serif" font-size="10.00">inc</text>
</a>
</g>
</g>
<!-- dir_90fd98a0ba30abf7a6068a44995d2d6b&#45;&gt;dir_7e868af64e31779987291c90ae140f88 -->
<g id="edge3" class="edge">
<title>dir_90fd98a0ba30abf7a6068a44995d2d6b&#45;&gt;dir_7e868af64e31779987291c90ae140f88</title>
<path fill="none" stroke="black" d="M73.04,-143.7C82.06,-135.05 93.12,-124.45 102.94,-115.03"/>
<polygon fill="black" stroke="black" points="105.37,-117.55 110.16,-108.1 100.52,-112.5 105.37,-117.55"/>
<g id="a_edge3&#45;headlabel"><a xlink:href="dir_000009_000008.html" target="_top" xlink:title="1">
<text text-anchor="middle" x="104.74" y="-119.59" font-family="Helvetica,sans-Serif" font-size="10.00">1</text>
</a>
</g>
</g>
<!-- dir_cb031e414f281a658b23dddb30bb9d2c&#45;&gt;dir_cbdb8362360e11eafe2fa3bc74cf0ffd -->
<g id="edge4" class="edge">
<title>dir_cb031e414f281a658b23dddb30bb9d2c&#45;&gt;dir_cbdb8362360e11eafe2fa3bc74cf0ffd</title>
<path fill="none" stroke="black" d="M48.08,-71.7C44.93,-63.81 41.12,-54.3 37.62,-45.55"/>
<polygon fill="black" stroke="black" points="40.81,-44.09 33.84,-36.1 34.31,-46.69 40.81,-44.09"/>
<g id="a_edge4&#45;headlabel"><a xlink:href="dir_000016_000019.html" target="_top" xlink:title="11">
<text text-anchor="middle" x="44.78" y="-43.87" font-family="Helvetica,sans-Serif" font-size="10.00">11</text>
</a>
</g>
</g>
</g>
</svg>
