<?xml version="1.0" encoding="UTF-8" standalone="no"?>
<!DOCTYPE svg PUBLIC "-//W3C//DTD SVG 1.1//EN"
 "http://www.w3.org/Graphics/SVG/1.1/DTD/svg11.dtd">
<!-- Generated by graphviz version 2.43.0 (0)
 -->
<!-- Title: executor Pages: 1 -->
<svg width="281pt" height="276pt"
 viewBox="0.00 0.00 281.49 276.00" xmlns="http://www.w3.org/2000/svg" xmlns:xlink="http://www.w3.org/1999/xlink">
<g id="graph0" class="graph" transform="scale(1 1) rotate(0) translate(4 272)">
<title>executor</title>
<polygon fill="white" stroke="transparent" points="-4,4 -4,-272 277.49,-272 277.49,4 -4,4"/>
<g id="clust1" class="cluster">
<title>clusterdir_d6b47c55c117061889082b3039c4cfaf</title>
<g id="a_clust1"><a xlink:href="dir_d6b47c55c117061889082b3039c4cfaf.html" target="_top">
<polygon fill="#eeeeff" stroke="black" points="8,-136 8,-260 156,-260 156,-136 8,-136"/>
</a>
</g>
</g>
<!-- dir_d6b47c55c117061889082b3039c4cfaf -->
<g id="node1" class="node">
<title>dir_d6b47c55c117061889082b3039c4cfaf</title>
<text text-anchor="middle" x="118" y="-231.5" font-family="Helvetica,sans-Serif" font-size="10.00">executor</text>
</g>
<!-- dir_0e2b23df43e6599042525cfec0ad0bb8 -->
<g id="node2" class="node">
<title>dir_0e2b23df43e6599042525cfec0ad0bb8</title>
<g id="a_node2"><a xlink:href="dir_0e2b23df43e6599042525cfec0ad0bb8.html" target="_top" xlink:title="inc">
<polygon fill="white" stroke="black" points="70,-180 16,-180 16,-144 70,-144 70,-180"/>
<text text-anchor="middle" x="43" y="-159.5" font-family="Helvetica,sans-Serif" font-size="10.00">inc</text>
</a>
</g>
</g>
<!-- dir_f8c6f0679b123304d35aae1bb0e284fb -->
<g id="node6" class="node">
<title>dir_f8c6f0679b123304d35aae1bb0e284fb</title>
<g id="a_node6"><a xlink:href="dir_f8c6f0679b123304d35aae1bb0e284fb.html" target="_top" xlink:title="database">
<polygon fill="white" stroke="red" points="201,-108 139,-108 139,-72 201,-72 201,-108"/>
<text text-anchor="middle" x="170" y="-87.5" font-family="Helvetica,sans-Serif" font-size="10.00">database</text>
</a>
</g>
</g>
<!-- dir_0e2b23df43e6599042525cfec0ad0bb8&#45;&gt;dir_f8c6f0679b123304d35aae1bb0e284fb -->
<g id="edge6" class="edge">
<title>dir_0e2b23df43e6599042525cfec0ad0bb8&#45;&gt;dir_f8c6f0679b123304d35aae1bb0e284fb</title>
<path fill="none" stroke="black" d="M66.69,-143.82C70.73,-141.1 74.94,-138.4 79,-136 95.11,-126.49 113.51,-117.13 129.53,-109.43"/>
<polygon fill="black" stroke="black" points="131.12,-112.55 138.65,-105.1 128.12,-106.23 131.12,-112.55"/>
<g id="a_edge6&#45;headlabel"><a xlink:href="dir_000014_000010.html" target="_top" xlink:title="2">
<text text-anchor="middle" x="129.09" y="-114.16" font-family="Helvetica,sans-Serif" font-size="10.00">2</text>
</a>
</g>
</g>
<!-- dir_521dc20e1c32dad3a389d870e90503a0 -->
<g id="node7" class="node">
<title>dir_521dc20e1c32dad3a389d870e90503a0</title>
<g id="a_node7"><a xlink:href="dir_521dc20e1c32dad3a389d870e90503a0.html" target="_top" xlink:title="core">
<polygon fill="white" stroke="red" points="252,-180 198,-180 198,-144 252,-144 252,-180"/>
<text text-anchor="middle" x="225" y="-159.5" font-family="Helvetica,sans-Serif" font-size="10.00">core</text>
</a>
</g>
</g>
<!-- dir_0e2b23df43e6599042525cfec0ad0bb8&#45;&gt;dir_521dc20e1c32dad3a389d870e90503a0 -->
<g id="edge7" class="edge">
<title>dir_0e2b23df43e6599042525cfec0ad0bb8&#45;&gt;dir_521dc20e1c32dad3a389d870e90503a0</title>
<path fill="none" stroke="black" d="M60.08,-180.22C67.85,-187.2 77.62,-194.36 88,-198 124.49,-210.8 138.2,-209.87 175,-198 182.87,-195.46 190.55,-191.17 197.44,-186.42"/>
<polygon fill="black" stroke="black" points="199.78,-189.04 205.69,-180.25 195.58,-183.43 199.78,-189.04"/>
<g id="a_edge7&#45;headlabel"><a xlink:href="dir_000014_000007.html" target="_top" xlink:title="2">
<text text-anchor="middle" x="198.6" y="-190.97" font-family="Helvetica,sans-Serif" font-size="10.00">2</text>
</a>
</g>
</g>
<!-- dir_6934992e9a368eaba336ecc6a1d98046 -->
<g id="node3" class="node">
<title>dir_6934992e9a368eaba336ecc6a1d98046</title>
<g id="a_node3"><a xlink:href="dir_6934992e9a368eaba336ecc6a1d98046.html" target="_top" xlink:title="proto">
<polygon fill="white" stroke="red" points="142,-180 88,-180 88,-144 142,-144 142,-180"/>
<text text-anchor="middle" x="115" y="-159.5" font-family="Helvetica,sans-Serif" font-size="10.00">proto</text>
</a>
</g>
</g>
<!-- dir_01bb488ba2da569494bd6323304f0767 -->
<g id="node4" class="node">
<title>dir_01bb488ba2da569494bd6323304f0767</title>
<g id="a_node4"><a xlink:href="dir_01bb488ba2da569494bd6323304f0767.html" target="_top" xlink:title="src">
<polygon fill="white" stroke="black" points="70,-252 16,-252 16,-216 70,-216 70,-252"/>
<text text-anchor="middle" x="43" y="-231.5" font-family="Helvetica,sans-Serif" font-size="10.00">src</text>
</a>
</g>
</g>
<!-- dir_01bb488ba2da569494bd6323304f0767&#45;&gt;dir_0e2b23df43e6599042525cfec0ad0bb8 -->
<g id="edge12" class="edge">
<title>dir_01bb488ba2da569494bd6323304f0767&#45;&gt;dir_0e2b23df43e6599042525cfec0ad0bb8</title>
<path fill="none" stroke="black" d="M43,-215.7C43,-207.98 43,-198.71 43,-190.11"/>
<polygon fill="black" stroke="black" points="46.5,-190.1 43,-180.1 39.5,-190.1 46.5,-190.1"/>
<g id="a_edge12&#45;headlabel"><a xlink:href="dir_000017_000014.html" target="_top" xlink:title="2">
<text text-anchor="middle" x="49.34" y="-191.2" font-family="Helvetica,sans-Serif" font-size="10.00">2</text>
</a>
</g>
</g>
<!-- dir_01bb488ba2da569494bd6323304f0767&#45;&gt;dir_6934992e9a368eaba336ecc6a1d98046 -->
<g id="edge11" class="edge">
<title>dir_01bb488ba2da569494bd6323304f0767&#45;&gt;dir_6934992e9a368eaba336ecc6a1d98046</title>
<path fill="none" stroke="black" d="M60.8,-215.7C69.6,-207.14 80.38,-196.66 90,-187.3"/>
<polygon fill="black" stroke="black" points="92.68,-189.58 97.41,-180.1 87.8,-184.57 92.68,-189.58"/>
<g id="a_edge11&#45;headlabel"><a xlink:href="dir_000017_000015.html" target="_top" xlink:title="1">
<text text-anchor="middle" x="92.08" y="-191.63" font-family="Helvetica,sans-Serif" font-size="10.00">1</text>
</a>
</g>
</g>
<!-- dir_f08c1ffadff6e9e08f49766ff6ac3753 -->
<g id="node5" class="node">
<title>dir_f08c1ffadff6e9e08f49766ff6ac3753</title>
<g id="a_node5"><a xlink:href="dir_f08c1ffadff6e9e08f49766ff6ac3753.html" target="_top" xlink:title="utils">
<polygon fill="white" stroke="red" points="226,-36 172,-36 172,0 226,0 226,-36"/>
<text text-anchor="middle" x="199" y="-15.5" font-family="Helvetica,sans-Serif" font-size="10.00">utils</text>
</a>
</g>
</g>
<!-- dir_01bb488ba2da569494bd6323304f0767&#45;&gt;dir_f08c1ffadff6e9e08f49766ff6ac3753 -->
<g id="edge8" class="edge">
<title>dir_01bb488ba2da569494bd6323304f0767&#45;&gt;dir_f08c1ffadff6e9e08f49766ff6ac3753</title>
<path fill="none" stroke="black" d="M70.19,-219.64C73.45,-218.3 76.77,-217.05 80,-216 158.02,-190.7 208.97,-243.4 261,-180 294.6,-139.06 252.2,-77.86 222.77,-43.93"/>
<polygon fill="black" stroke="black" points="225.25,-41.45 215.98,-36.31 220.02,-46.11 225.25,-41.45"/>
<g id="a_edge8&#45;headlabel"><a xlink:href="dir_000017_000022.html" target="_top" xlink:title="6">
<text text-anchor="middle" x="229.76" y="-39.75" font-family="Helvetica,sans-Serif" font-size="10.00">6</text>
</a>
</g>
</g>
<!-- dir_01bb488ba2da569494bd6323304f0767&#45;&gt;dir_f8c6f0679b123304d35aae1bb0e284fb -->
<g id="edge9" class="edge">
<title>dir_01bb488ba2da569494bd6323304f0767&#45;&gt;dir_f8c6f0679b123304d35aae1bb0e284fb</title>
<path fill="none" stroke="black" d="M70.18,-220.39C101.26,-205.85 148.26,-183.51 151,-180 164.63,-162.53 169.03,-137.49 170.22,-118.41"/>
<polygon fill="black" stroke="black" points="173.72,-118.37 170.59,-108.25 166.73,-118.11 173.72,-118.37"/>
<g id="a_edge9&#45;headlabel"><a xlink:href="dir_000017_000010.html" target="_top" xlink:title="3">
<text text-anchor="middle" x="176.43" y="-119.57" font-family="Helvetica,sans-Serif" font-size="10.00">3</text>
</a>
</g>
</g>
<!-- dir_01bb488ba2da569494bd6323304f0767&#45;&gt;dir_521dc20e1c32dad3a389d870e90503a0 -->
<g id="edge10" class="edge">
<title>dir_01bb488ba2da569494bd6323304f0767&#45;&gt;dir_521dc20e1c32dad3a389d870e90503a0</title>
<path fill="none" stroke="black" d="M70.35,-220.07C73.58,-218.65 76.85,-217.26 80,-216 125.39,-197.77 138.28,-197.38 184,-180 185.4,-179.47 186.81,-178.92 188.25,-178.36"/>
<polygon fill="black" stroke="black" points="189.76,-181.53 197.74,-174.57 187.16,-175.03 189.76,-181.53"/>
<g id="a_edge10&#45;headlabel"><a xlink:href="dir_000017_000007.html" target="_top" xlink:title="2">
<text text-anchor="middle" x="187.47" y="-183" font-family="Helvetica,sans-Serif" font-size="10.00">2</text>
</a>
</g>
</g>
<!-- dir_f08c1ffadff6e9e08f49766ff6ac3753&#45;&gt;dir_f8c6f0679b123304d35aae1bb0e284fb -->
<g id="edge1" class="edge">
<title>dir_f08c1ffadff6e9e08f49766ff6ac3753&#45;&gt;dir_f8c6f0679b123304d35aae1bb0e284fb</title>
<path fill="none" stroke="black" d="M197.81,-36.1C195.35,-44.04 191.59,-53.67 187.54,-62.51"/>
<polygon fill="black" stroke="black" points="184.3,-61.17 183.08,-71.7 190.6,-64.23 184.3,-61.17"/>
<g id="a_edge1&#45;headlabel"><a xlink:href="dir_000022_000010.html" target="_top" xlink:title="2">
<text text-anchor="middle" x="183.32" y="-54.2" font-family="Helvetica,sans-Serif" font-size="10.00">2</text>
</a>
</g>
</g>
<!-- dir_f8c6f0679b123304d35aae1bb0e284fb&#45;&gt;dir_f08c1ffadff6e9e08f49766ff6ac3753 -->
<g id="edge2" class="edge">
<title>dir_f8c6f0679b123304d35aae1bb0e284fb&#45;&gt;dir_f08c1ffadff6e9e08f49766ff6ac3753</title>
<path fill="none" stroke="black" d="M171.25,-71.7C173.73,-63.73 177.51,-54.1 181.56,-45.26"/>
<polygon fill="black" stroke="black" points="184.79,-46.63 186.02,-36.1 178.49,-43.56 184.79,-46.63"/>
<g id="a_edge2&#45;headlabel"><a xlink:href="dir_000010_000022.html" target="_top" xlink:title="1">
<text text-anchor="middle" x="185.77" y="-48.6" font-family="Helvetica,sans-Serif" font-size="10.00">1</text>
</a>
</g>
</g>
<!-- dir_521dc20e1c32dad3a389d870e90503a0&#45;&gt;dir_0e2b23df43e6599042525cfec0ad0bb8 -->
<g id="edge5" class="edge">
<title>dir_521dc20e1c32dad3a389d870e90503a0&#45;&gt;dir_0e2b23df43e6599042525cfec0ad0bb8</title>
<path fill="none" stroke="black" d="M205.69,-180.25C197,-187.23 186.2,-194.39 175,-198 138.2,-209.87 124.49,-210.8 88,-198 80.86,-195.5 74.01,-191.33 67.91,-186.7"/>
<polygon fill="black" stroke="black" points="70.01,-183.9 60.08,-180.22 65.55,-189.29 70.01,-183.9"/>
<g id="a_edge5&#45;headlabel"><a xlink:href="dir_000007_000014.html" target="_top" xlink:title="2">
<text text-anchor="middle" x="74.59" y="-181.51" font-family="Helvetica,sans-Serif" font-size="10.00">2</text>
</a>
</g>
</g>
<!-- dir_521dc20e1c32dad3a389d870e90503a0&#45;&gt;dir_f08c1ffadff6e9e08f49766ff6ac3753 -->
<g id="edge3" class="edge">
<title>dir_521dc20e1c32dad3a389d870e90503a0&#45;&gt;dir_f08c1ffadff6e9e08f49766ff6ac3753</title>
<path fill="none" stroke="black" d="M222.31,-143.9C219.45,-125.96 214.69,-96.95 210,-72 208.41,-63.56 206.56,-54.39 204.83,-46.09"/>
<polygon fill="black" stroke="black" points="208.22,-45.22 202.73,-36.15 201.37,-46.66 208.22,-45.22"/>
<g id="a_edge3&#45;headlabel"><a xlink:href="dir_000007_000022.html" target="_top" xlink:title="2">
<text text-anchor="middle" x="211.74" y="-45.65" font-family="Helvetica,sans-Serif" font-size="10.00">2</text>
</a>
</g>
</g>
<!-- dir_521dc20e1c32dad3a389d870e90503a0&#45;&gt;dir_f8c6f0679b123304d35aae1bb0e284fb -->
<g id="edge4" class="edge">
<title>dir_521dc20e1c32dad3a389d870e90503a0&#45;&gt;dir_f8c6f0679b123304d35aae1bb0e284fb</title>
<path fill="none" stroke="black" d="M211.4,-143.7C204.88,-135.39 196.93,-125.28 189.75,-116.14"/>
<polygon fill="black" stroke="black" points="192.37,-113.81 183.44,-108.1 186.87,-118.13 192.37,-113.81"/>
<g id="a_edge4&#45;headlabel"><a xlink:href="dir_000007_000010.html" target="_top" xlink:title="3">
<text text-anchor="middle" x="196.82" y="-112.38" font-family="Helvetica,sans-Serif" font-size="10.00">3</text>
</a>
</g>
</g>
</g>
</svg>
