<?xml version="1.0" encoding="UTF-8" standalone="no"?>
<!DOCTYPE svg PUBLIC "-//W3C//DTD SVG 1.1//EN"
 "http://www.w3.org/Graphics/SVG/1.1/DTD/svg11.dtd">
<!-- Generated by graphviz version 2.43.0 (0)
 -->
<!-- Title: core/src Pages: 1 -->
<svg width="212pt" height="367pt"
 viewBox="0.00 0.00 211.61 367.00" xmlns="http://www.w3.org/2000/svg" xmlns:xlink="http://www.w3.org/1999/xlink">
<g id="graph0" class="graph" transform="scale(1 1) rotate(0) translate(4 363)">
<title>core/src</title>
<polygon fill="white" stroke="transparent" points="-4,4 -4,-363 207.61,-363 207.61,4 -4,4"/>
<g id="clust1" class="cluster">
<title>clusterdir_521dc20e1c32dad3a389d870e90503a0</title>
<g id="a_clust1"><a xlink:href="dir_521dc20e1c32dad3a389d870e90503a0.html" target="_top" xlink:title="core">
<polygon fill="#ddddee" stroke="black" points="30.61,-280 30.61,-351 100.61,-351 100.61,-280 30.61,-280"/>
<text text-anchor="middle" x="65.61" y="-339" font-family="Helvetica,sans-Serif" font-size="10.00">core</text>
</a>
</g>
</g>
<!-- dir_c6c08339cc9a26b214e74a0f6855d078 -->
<g id="node1" class="node">
<title>dir_c6c08339cc9a26b214e74a0f6855d078</title>
<g id="a_node1"><a xlink:href="dir_c6c08339cc9a26b214e74a0f6855d078.html" target="_top" xlink:title="src">
<polygon fill="#eeeeff" stroke="black" points="92.61,-324 38.61,-324 38.61,-288 92.61,-288 92.61,-324"/>
<text text-anchor="middle" x="65.61" y="-303.5" font-family="Helvetica,sans-Serif" font-size="10.00">src</text>
</a>
</g>
</g>
<!-- dir_f08c1ffadff6e9e08f49766ff6ac3753 -->
<g id="node2" class="node">
<title>dir_f08c1ffadff6e9e08f49766ff6ac3753</title>
<g id="a_node2"><a xlink:href="dir_f08c1ffadff6e9e08f49766ff6ac3753.html" target="_top" xlink:title="utils">
<polygon fill="white" stroke="red" points="89.61,-108 35.61,-108 35.61,-72 89.61,-72 89.61,-108"/>
<text text-anchor="middle" x="62.61" y="-87.5" font-family="Helvetica,sans-Serif" font-size="10.00">utils</text>
</a>
</g>
</g>
<!-- dir_c6c08339cc9a26b214e74a0f6855d078&#45;&gt;dir_f08c1ffadff6e9e08f49766ff6ac3753 -->
<g id="edge4" class="edge">
<title>dir_c6c08339cc9a26b214e74a0f6855d078&#45;&gt;dir_f08c1ffadff6e9e08f49766ff6ac3753</title>
<path fill="none" stroke="black" d="M49.57,-287.85C41.59,-278.12 32.78,-265.27 28.61,-252 14,-205.57 33.9,-149.63 48.84,-117.4"/>
<polygon fill="black" stroke="black" points="52.09,-118.73 53.27,-108.2 45.78,-115.69 52.09,-118.73"/>
<g id="a_edge4&#45;headlabel"><a xlink:href="dir_000009_000021.html" target="_top" xlink:title="1">
<text text-anchor="middle" x="53.08" y="-120.7" font-family="Helvetica,sans-Serif" font-size="10.00">1</text>
</a>
</g>
</g>
<!-- dir_f8c6f0679b123304d35aae1bb0e284fb -->
<g id="node3" class="node">
<title>dir_f8c6f0679b123304d35aae1bb0e284fb</title>
<g id="a_node3"><a xlink:href="dir_f8c6f0679b123304d35aae1bb0e284fb.html" target="_top" xlink:title="database">
<polygon fill="white" stroke="red" points="122.61,-36 60.61,-36 60.61,0 122.61,0 122.61,-36"/>
<text text-anchor="middle" x="91.61" y="-15.5" font-family="Helvetica,sans-Serif" font-size="10.00">database</text>
</a>
</g>
</g>
<!-- dir_c6c08339cc9a26b214e74a0f6855d078&#45;&gt;dir_f8c6f0679b123304d35aae1bb0e284fb -->
<g id="edge5" class="edge">
<title>dir_c6c08339cc9a26b214e74a0f6855d078&#45;&gt;dir_f8c6f0679b123304d35aae1bb0e284fb</title>
<path fill="none" stroke="black" d="M44.78,-287.62C35.15,-278.2 24.72,-265.7 19.61,-252 5.62,-214.55 -19.29,-162.88 26.61,-72 32.51,-60.31 42.29,-50.29 52.5,-42.21"/>
<polygon fill="black" stroke="black" points="54.74,-44.91 60.7,-36.15 50.58,-39.28 54.74,-44.91"/>
<g id="a_edge5&#45;headlabel"><a xlink:href="dir_000009_000010.html" target="_top" xlink:title="2">
<text text-anchor="middle" x="53.53" y="-46.83" font-family="Helvetica,sans-Serif" font-size="10.00">2</text>
</a>
</g>
</g>
<!-- dir_67d50c47b678e427d1ea4b25f05ca1f8 -->
<g id="node4" class="node">
<title>dir_67d50c47b678e427d1ea4b25f05ca1f8</title>
<g id="a_node4"><a xlink:href="dir_67d50c47b678e427d1ea4b25f05ca1f8.html" target="_top" xlink:title="inc">
<polygon fill="none" stroke="black" points="203.61,-252 149.61,-252 149.61,-216 203.61,-216 203.61,-252"/>
<text text-anchor="middle" x="176.61" y="-231.5" font-family="Helvetica,sans-Serif" font-size="10.00">inc</text>
</a>
</g>
</g>
<!-- dir_c6c08339cc9a26b214e74a0f6855d078&#45;&gt;dir_67d50c47b678e427d1ea4b25f05ca1f8 -->
<g id="edge6" class="edge">
<title>dir_c6c08339cc9a26b214e74a0f6855d078&#45;&gt;dir_67d50c47b678e427d1ea4b25f05ca1f8</title>
<path fill="none" stroke="black" d="M92.76,-287.88C107.14,-278.81 124.99,-267.55 140.52,-257.76"/>
<polygon fill="black" stroke="black" points="142.76,-260.48 149.35,-252.19 139.02,-254.56 142.76,-260.48"/>
<g id="a_edge6&#45;headlabel"><a xlink:href="dir_000009_000008.html" target="_top" xlink:title="1">
<text text-anchor="middle" x="141.23" y="-262.3" font-family="Helvetica,sans-Serif" font-size="10.00">1</text>
</a>
</g>
</g>
<!-- dir_d6b47c55c117061889082b3039c4cfaf -->
<g id="node5" class="node">
<title>dir_d6b47c55c117061889082b3039c4cfaf</title>
<g id="a_node5"><a xlink:href="dir_d6b47c55c117061889082b3039c4cfaf.html" target="_top" xlink:title="executor">
<polygon fill="white" stroke="red" points="149.11,-180 90.11,-180 90.11,-144 149.11,-144 149.11,-180"/>
<text text-anchor="middle" x="119.61" y="-159.5" font-family="Helvetica,sans-Serif" font-size="10.00">executor</text>
</a>
</g>
</g>
<!-- dir_c6c08339cc9a26b214e74a0f6855d078&#45;&gt;dir_d6b47c55c117061889082b3039c4cfaf -->
<g id="edge7" class="edge">
<title>dir_c6c08339cc9a26b214e74a0f6855d078&#45;&gt;dir_d6b47c55c117061889082b3039c4cfaf</title>
<path fill="none" stroke="black" d="M79.83,-287.87C87.37,-277.96 96.17,-264.92 101.61,-252 109.9,-232.29 114.45,-208.49 116.91,-190.46"/>
<polygon fill="black" stroke="black" points="120.41,-190.68 118.15,-180.33 113.46,-189.82 120.41,-190.68"/>
<g id="a_edge7&#45;headlabel"><a xlink:href="dir_000009_000013.html" target="_top" xlink:title="1">
<text text-anchor="middle" x="122.79" y="-192.09" font-family="Helvetica,sans-Serif" font-size="10.00">1</text>
</a>
</g>
</g>
<!-- dir_c6f90d7b3aff386cab2eb5eb40ce2f26 -->
<g id="node6" class="node">
<title>dir_c6f90d7b3aff386cab2eb5eb40ce2f26</title>
<g id="a_node6"><a xlink:href="dir_c6f90d7b3aff386cab2eb5eb40ce2f26.html" target="_top" xlink:title="runtime">
<polygon fill="white" stroke="red" points="93.11,-252 38.11,-252 38.11,-216 93.11,-216 93.11,-252"/>
<text text-anchor="middle" x="65.61" y="-231.5" font-family="Helvetica,sans-Serif" font-size="10.00">runtime</text>
</a>
</g>
</g>
<!-- dir_c6c08339cc9a26b214e74a0f6855d078&#45;&gt;dir_c6f90d7b3aff386cab2eb5eb40ce2f26 -->
<g id="edge8" class="edge">
<title>dir_c6c08339cc9a26b214e74a0f6855d078&#45;&gt;dir_c6f90d7b3aff386cab2eb5eb40ce2f26</title>
<path fill="none" stroke="black" d="M65.61,-287.7C65.61,-279.98 65.61,-270.71 65.61,-262.11"/>
<polygon fill="black" stroke="black" points="69.11,-262.1 65.61,-252.1 62.11,-262.1 69.11,-262.1"/>
<g id="a_edge8&#45;headlabel"><a xlink:href="dir_000009_000018.html" target="_top" xlink:title="1">
<text text-anchor="middle" x="71.95" y="-263.2" font-family="Helvetica,sans-Serif" font-size="10.00">1</text>
</a>
</g>
</g>
<!-- dir_f08c1ffadff6e9e08f49766ff6ac3753&#45;&gt;dir_f8c6f0679b123304d35aae1bb0e284fb -->
<g id="edge1" class="edge">
<title>dir_f08c1ffadff6e9e08f49766ff6ac3753&#45;&gt;dir_f8c6f0679b123304d35aae1bb0e284fb</title>
<path fill="none" stroke="black" d="M69.78,-71.7C73.04,-63.81 76.98,-54.3 80.61,-45.55"/>
<polygon fill="black" stroke="black" points="83.93,-46.68 84.52,-36.1 77.46,-44 83.93,-46.68"/>
<g id="a_edge1&#45;headlabel"><a xlink:href="dir_000021_000010.html" target="_top" xlink:title="2">
<text text-anchor="middle" x="85.17" y="-48.59" font-family="Helvetica,sans-Serif" font-size="10.00">2</text>
</a>
</g>
</g>
<!-- dir_67d50c47b678e427d1ea4b25f05ca1f8&#45;&gt;dir_f8c6f0679b123304d35aae1bb0e284fb -->
<g id="edge2" class="edge">
<title>dir_67d50c47b678e427d1ea4b25f05ca1f8&#45;&gt;dir_f8c6f0679b123304d35aae1bb0e284fb</title>
<path fill="none" stroke="black" d="M174.65,-215.87C172.23,-197.65 167.32,-168.17 158.61,-144 145.58,-107.85 123.54,-69.32 108.31,-44.75"/>
<polygon fill="black" stroke="black" points="111.13,-42.65 102.84,-36.05 105.2,-46.38 111.13,-42.65"/>
<g id="a_edge2&#45;headlabel"><a xlink:href="dir_000008_000010.html" target="_top" xlink:title="1">
<text text-anchor="middle" x="115.45" y="-41.68" font-family="Helvetica,sans-Serif" font-size="10.00">1</text>
</a>
</g>
</g>
<!-- dir_67d50c47b678e427d1ea4b25f05ca1f8&#45;&gt;dir_d6b47c55c117061889082b3039c4cfaf -->
<g id="edge3" class="edge">
<title>dir_67d50c47b678e427d1ea4b25f05ca1f8&#45;&gt;dir_d6b47c55c117061889082b3039c4cfaf</title>
<path fill="none" stroke="black" d="M156.6,-215.7C149.06,-207.47 140.72,-197.48 133.79,-188.42"/>
<polygon fill="black" stroke="black" points="136.4,-186.07 127.64,-180.1 130.77,-190.23 136.4,-186.07"/>
<g id="a_edge3&#45;headlabel"><a xlink:href="dir_000008_000013.html" target="_top" xlink:title="1">
<text text-anchor="middle" x="140.82" y="-184.77" font-family="Helvetica,sans-Serif" font-size="10.00">1</text>
</a>
</g>
</g>
<!-- dir_d6b47c55c117061889082b3039c4cfaf&#45;&gt;dir_f08c1ffadff6e9e08f49766ff6ac3753 -->
<g id="edge9" class="edge">
<title>dir_d6b47c55c117061889082b3039c4cfaf&#45;&gt;dir_f08c1ffadff6e9e08f49766ff6ac3753</title>
<path fill="none" stroke="black" d="M105.52,-143.7C98.68,-135.3 90.35,-125.07 82.85,-115.86"/>
<polygon fill="black" stroke="black" points="85.56,-113.65 76.53,-108.1 80.13,-118.07 85.56,-113.65"/>
<g id="a_edge9&#45;headlabel"><a xlink:href="dir_000013_000021.html" target="_top" xlink:title="2">
<text text-anchor="middle" x="90.03" y="-112.14" font-family="Helvetica,sans-Serif" font-size="10.00">2</text>
</a>
</g>
</g>
<!-- dir_d6b47c55c117061889082b3039c4cfaf&#45;&gt;dir_f8c6f0679b123304d35aae1bb0e284fb -->
<g id="edge10" class="edge">
<title>dir_d6b47c55c117061889082b3039c4cfaf&#45;&gt;dir_f8c6f0679b123304d35aae1bb0e284fb</title>
<path fill="none" stroke="black" d="M116.23,-143.87C111.44,-119.56 102.61,-74.82 96.93,-46.01"/>
<polygon fill="black" stroke="black" points="100.36,-45.32 95,-36.19 93.5,-46.68 100.36,-45.32"/>
<g id="a_edge10&#45;headlabel"><a xlink:href="dir_000013_000010.html" target="_top" xlink:title="5">
<text text-anchor="middle" x="103.85" y="-45.8" font-family="Helvetica,sans-Serif" font-size="10.00">5</text>
</a>
</g>
</g>
<!-- dir_d6b47c55c117061889082b3039c4cfaf&#45;&gt;dir_67d50c47b678e427d1ea4b25f05ca1f8 -->
<g id="edge11" class="edge">
<title>dir_d6b47c55c117061889082b3039c4cfaf&#45;&gt;dir_67d50c47b678e427d1ea4b25f05ca1f8</title>
<path fill="none" stroke="black" d="M139.43,-180.1C147.04,-188.38 155.47,-198.49 162.47,-207.64"/>
<polygon fill="black" stroke="black" points="159.67,-209.74 168.43,-215.7 165.3,-205.58 159.67,-209.74"/>
<g id="a_edge11&#45;headlabel"><a xlink:href="dir_000013_000008.html" target="_top" xlink:title="4">
<text text-anchor="middle" x="155.25" y="-206.04" font-family="Helvetica,sans-Serif" font-size="10.00">4</text>
</a>
</g>
</g>
<!-- dir_c6f90d7b3aff386cab2eb5eb40ce2f26&#45;&gt;dir_f08c1ffadff6e9e08f49766ff6ac3753 -->
<g id="edge12" class="edge">
<title>dir_c6f90d7b3aff386cab2eb5eb40ce2f26&#45;&gt;dir_f08c1ffadff6e9e08f49766ff6ac3753</title>
<path fill="none" stroke="black" d="M65.25,-215.87C64.73,-191.67 63.79,-147.21 63.19,-118.39"/>
<polygon fill="black" stroke="black" points="66.68,-118.11 62.97,-108.19 59.68,-118.26 66.68,-118.11"/>
<g id="a_edge12&#45;headlabel"><a xlink:href="dir_000018_000021.html" target="_top" xlink:title="13">
<text text-anchor="middle" x="69.6" y="-119.15" font-family="Helvetica,sans-Serif" font-size="10.00">13</text>
</a>
</g>
</g>
<!-- dir_c6f90d7b3aff386cab2eb5eb40ce2f26&#45;&gt;dir_d6b47c55c117061889082b3039c4cfaf -->
<g id="edge13" class="edge">
<title>dir_c6f90d7b3aff386cab2eb5eb40ce2f26&#45;&gt;dir_d6b47c55c117061889082b3039c4cfaf</title>
<path fill="none" stroke="black" d="M78.96,-215.7C85.36,-207.39 93.16,-197.28 100.21,-188.14"/>
<polygon fill="black" stroke="black" points="103.08,-190.16 106.41,-180.1 97.53,-185.88 103.08,-190.16"/>
<g id="a_edge13&#45;headlabel"><a xlink:href="dir_000018_000013.html" target="_top" xlink:title="6">
<text text-anchor="middle" x="103.13" y="-192.24" font-family="Helvetica,sans-Serif" font-size="10.00">6</text>
</a>
</g>
</g>
</g>
</svg>
