<?xml version="1.0" encoding="UTF-8" standalone="no"?>
<!DOCTYPE svg PUBLIC "-//W3C//DTD SVG 1.1//EN"
 "http://www.w3.org/Graphics/SVG/1.1/DTD/svg11.dtd">
<!-- Generated by graphviz version 2.43.0 (0)
 -->
<!-- Title: runtime Pages: 1 -->
<svg width="168pt" height="348pt"
 viewBox="0.00 0.00 168.00 348.00" xmlns="http://www.w3.org/2000/svg" xmlns:xlink="http://www.w3.org/1999/xlink">
<g id="graph0" class="graph" transform="scale(1 1) rotate(0) translate(4 344)">
<title>runtime</title>
<polygon fill="white" stroke="transparent" points="-4,4 -4,-344 164,-344 164,4 -4,4"/>
<g id="clust1" class="cluster">
<title>clusterdir_c6f90d7b3aff386cab2eb5eb40ce2f26</title>
<g id="a_clust1"><a xlink:href="dir_c6f90d7b3aff386cab2eb5eb40ce2f26.html" target="_top">
<polygon fill="#eeeeff" stroke="black" points="8,-208 8,-332 152,-332 152,-208 8,-208"/>
</a>
</g>
</g>
<!-- dir_c6f90d7b3aff386cab2eb5eb40ce2f26 -->
<g id="node1" class="node">
<title>dir_c6f90d7b3aff386cab2eb5eb40ce2f26</title>
<text text-anchor="middle" x="116" y="-303.5" font-family="Helvetica,sans-Serif" font-size="10.00">runtime</text>
</g>
<!-- dir_c2d23aafdf04533449ab55d5abc8d9ae -->
<g id="node2" class="node">
<title>dir_c2d23aafdf04533449ab55d5abc8d9ae</title>
<g id="a_node2"><a xlink:href="dir_c2d23aafdf04533449ab55d5abc8d9ae.html" target="_top" xlink:title="inc">
<polygon fill="white" stroke="black" points="70,-252 16,-252 16,-216 70,-216 70,-252"/>
<text text-anchor="middle" x="43" y="-231.5" font-family="Helvetica,sans-Serif" font-size="10.00">inc</text>
</a>
</g>
</g>
<!-- dir_f08c1ffadff6e9e08f49766ff6ac3753 -->
<g id="node4" class="node">
<title>dir_f08c1ffadff6e9e08f49766ff6ac3753</title>
<g id="a_node4"><a xlink:href="dir_f08c1ffadff6e9e08f49766ff6ac3753.html" target="_top" xlink:title="utils">
<polygon fill="white" stroke="red" points="55,-108 1,-108 1,-72 55,-72 55,-108"/>
<text text-anchor="middle" x="28" y="-87.5" font-family="Helvetica,sans-Serif" font-size="10.00">utils</text>
</a>
</g>
</g>
<!-- dir_c2d23aafdf04533449ab55d5abc8d9ae&#45;&gt;dir_f08c1ffadff6e9e08f49766ff6ac3753 -->
<g id="edge6" class="edge">
<title>dir_c2d23aafdf04533449ab55d5abc8d9ae&#45;&gt;dir_f08c1ffadff6e9e08f49766ff6ac3753</title>
<path fill="none" stroke="black" d="M41.19,-215.87C38.63,-191.67 33.94,-147.21 30.89,-118.39"/>
<polygon fill="black" stroke="black" points="34.35,-117.77 29.82,-108.19 27.39,-118.5 34.35,-117.77"/>
<g id="a_edge6&#45;headlabel"><a xlink:href="dir_000019_000021.html" target="_top" xlink:title="1">
<text text-anchor="middle" x="37.55" y="-118.54" font-family="Helvetica,sans-Serif" font-size="10.00">1</text>
</a>
</g>
</g>
<!-- dir_d6b47c55c117061889082b3039c4cfaf -->
<g id="node6" class="node">
<title>dir_d6b47c55c117061889082b3039c4cfaf</title>
<g id="a_node6"><a xlink:href="dir_d6b47c55c117061889082b3039c4cfaf.html" target="_top" xlink:title="executor">
<polygon fill="white" stroke="red" points="113.5,-180 54.5,-180 54.5,-144 113.5,-144 113.5,-180"/>
<text text-anchor="middle" x="84" y="-159.5" font-family="Helvetica,sans-Serif" font-size="10.00">executor</text>
</a>
</g>
</g>
<!-- dir_c2d23aafdf04533449ab55d5abc8d9ae&#45;&gt;dir_d6b47c55c117061889082b3039c4cfaf -->
<g id="edge7" class="edge">
<title>dir_c2d23aafdf04533449ab55d5abc8d9ae&#45;&gt;dir_d6b47c55c117061889082b3039c4cfaf</title>
<path fill="none" stroke="black" d="M53.13,-215.7C57.85,-207.64 63.56,-197.89 68.78,-188.98"/>
<polygon fill="black" stroke="black" points="71.95,-190.5 73.98,-180.1 65.91,-186.96 71.95,-190.5"/>
<g id="a_edge7&#45;headlabel"><a xlink:href="dir_000019_000013.html" target="_top" xlink:title="1">
<text text-anchor="middle" x="72.58" y="-192.54" font-family="Helvetica,sans-Serif" font-size="10.00">1</text>
</a>
</g>
</g>
<!-- dir_1dbc2d7b85be1956d8759e1bd297c297 -->
<g id="node3" class="node">
<title>dir_1dbc2d7b85be1956d8759e1bd297c297</title>
<g id="a_node3"><a xlink:href="dir_1dbc2d7b85be1956d8759e1bd297c297.html" target="_top" xlink:title="src">
<polygon fill="white" stroke="black" points="70,-324 16,-324 16,-288 70,-288 70,-324"/>
<text text-anchor="middle" x="43" y="-303.5" font-family="Helvetica,sans-Serif" font-size="10.00">src</text>
</a>
</g>
</g>
<!-- dir_1dbc2d7b85be1956d8759e1bd297c297&#45;&gt;dir_c2d23aafdf04533449ab55d5abc8d9ae -->
<g id="edge4" class="edge">
<title>dir_1dbc2d7b85be1956d8759e1bd297c297&#45;&gt;dir_c2d23aafdf04533449ab55d5abc8d9ae</title>
<path fill="none" stroke="black" d="M43,-287.7C43,-279.98 43,-270.71 43,-262.11"/>
<polygon fill="black" stroke="black" points="46.5,-262.1 43,-252.1 39.5,-262.1 46.5,-262.1"/>
<g id="a_edge4&#45;headlabel"><a xlink:href="dir_000020_000019.html" target="_top" xlink:title="9">
<text text-anchor="middle" x="49.34" y="-263.2" font-family="Helvetica,sans-Serif" font-size="10.00">9</text>
</a>
</g>
</g>
<!-- dir_1dbc2d7b85be1956d8759e1bd297c297&#45;&gt;dir_f08c1ffadff6e9e08f49766ff6ac3753 -->
<g id="edge2" class="edge">
<title>dir_1dbc2d7b85be1956d8759e1bd297c297&#45;&gt;dir_f08c1ffadff6e9e08f49766ff6ac3753</title>
<path fill="none" stroke="black" d="M27.39,-287.77C19.63,-278.03 11.05,-265.18 7,-252 -7.06,-206.29 6.74,-150.46 17.64,-118"/>
<polygon fill="black" stroke="black" points="21.03,-118.92 21.05,-108.32 14.43,-116.6 21.03,-118.92"/>
<g id="a_edge2&#45;headlabel"><a xlink:href="dir_000020_000021.html" target="_top" xlink:title="10">
<text text-anchor="middle" x="22.52" y="-120.75" font-family="Helvetica,sans-Serif" font-size="10.00">10</text>
</a>
</g>
</g>
<!-- dir_f8c6f0679b123304d35aae1bb0e284fb -->
<g id="node5" class="node">
<title>dir_f8c6f0679b123304d35aae1bb0e284fb</title>
<g id="a_node5"><a xlink:href="dir_f8c6f0679b123304d35aae1bb0e284fb.html" target="_top" xlink:title="database">
<polygon fill="white" stroke="red" points="115,-36 53,-36 53,0 115,0 115,-36"/>
<text text-anchor="middle" x="84" y="-15.5" font-family="Helvetica,sans-Serif" font-size="10.00">database</text>
</a>
</g>
</g>
<!-- dir_1dbc2d7b85be1956d8759e1bd297c297&#45;&gt;dir_f8c6f0679b123304d35aae1bb0e284fb -->
<g id="edge3" class="edge">
<title>dir_1dbc2d7b85be1956d8759e1bd297c297&#45;&gt;dir_f8c6f0679b123304d35aae1bb0e284fb</title>
<path fill="none" stroke="black" d="M64.04,-287.84C74.76,-278.22 87.33,-265.46 96,-252 114.5,-223.27 116.9,-213.63 123,-180 131.7,-132.04 111.79,-77.03 97.34,-45.31"/>
<polygon fill="black" stroke="black" points="100.49,-43.8 93.06,-36.25 94.16,-46.79 100.49,-43.8"/>
<g id="a_edge3&#45;headlabel"><a xlink:href="dir_000020_000010.html" target="_top" xlink:title="4">
<text text-anchor="middle" x="104.6" y="-43.34" font-family="Helvetica,sans-Serif" font-size="10.00">4</text>
</a>
</g>
</g>
<!-- dir_1dbc2d7b85be1956d8759e1bd297c297&#45;&gt;dir_d6b47c55c117061889082b3039c4cfaf -->
<g id="edge5" class="edge">
<title>dir_1dbc2d7b85be1956d8759e1bd297c297&#45;&gt;dir_d6b47c55c117061889082b3039c4cfaf</title>
<path fill="none" stroke="black" d="M58.32,-287.68C65.99,-277.91 74.58,-265.06 79,-252 85.73,-232.12 86.73,-208.32 86.19,-190.34"/>
<polygon fill="black" stroke="black" points="89.68,-190.06 85.7,-180.24 82.69,-190.4 89.68,-190.06"/>
<g id="a_edge5&#45;headlabel"><a xlink:href="dir_000020_000013.html" target="_top" xlink:title="1">
<text text-anchor="middle" x="92.69" y="-191.02" font-family="Helvetica,sans-Serif" font-size="10.00">1</text>
</a>
</g>
</g>
<!-- dir_f08c1ffadff6e9e08f49766ff6ac3753&#45;&gt;dir_f8c6f0679b123304d35aae1bb0e284fb -->
<g id="edge1" class="edge">
<title>dir_f08c1ffadff6e9e08f49766ff6ac3753&#45;&gt;dir_f8c6f0679b123304d35aae1bb0e284fb</title>
<path fill="none" stroke="black" d="M41.84,-71.7C48.49,-63.39 56.58,-53.28 63.89,-44.14"/>
<polygon fill="black" stroke="black" points="66.8,-46.1 70.32,-36.1 61.34,-41.73 66.8,-46.1"/>
<g id="a_edge1&#45;headlabel"><a xlink:href="dir_000021_000010.html" target="_top" xlink:title="1">
<text text-anchor="middle" x="66.77" y="-48.18" font-family="Helvetica,sans-Serif" font-size="10.00">1</text>
</a>
</g>
</g>
<!-- dir_d6b47c55c117061889082b3039c4cfaf&#45;&gt;dir_f08c1ffadff6e9e08f49766ff6ac3753 -->
<g id="edge8" class="edge">
<title>dir_d6b47c55c117061889082b3039c4cfaf&#45;&gt;dir_f08c1ffadff6e9e08f49766ff6ac3753</title>
<path fill="none" stroke="black" d="M70.16,-143.7C63.51,-135.39 55.42,-125.28 48.11,-116.14"/>
<polygon fill="black" stroke="black" points="50.66,-113.73 41.68,-108.1 45.2,-118.1 50.66,-113.73"/>
<g id="a_edge8&#45;headlabel"><a xlink:href="dir_000013_000021.html" target="_top" xlink:title="2">
<text text-anchor="middle" x="55.13" y="-112.26" font-family="Helvetica,sans-Serif" font-size="10.00">2</text>
</a>
</g>
</g>
<!-- dir_d6b47c55c117061889082b3039c4cfaf&#45;&gt;dir_f8c6f0679b123304d35aae1bb0e284fb -->
<g id="edge9" class="edge">
<title>dir_d6b47c55c117061889082b3039c4cfaf&#45;&gt;dir_f8c6f0679b123304d35aae1bb0e284fb</title>
<path fill="none" stroke="black" d="M84,-143.87C84,-119.67 84,-75.21 84,-46.39"/>
<polygon fill="black" stroke="black" points="87.5,-46.19 84,-36.19 80.5,-46.19 87.5,-46.19"/>
<g id="a_edge9&#45;headlabel"><a xlink:href="dir_000013_000010.html" target="_top" xlink:title="4">
<text text-anchor="middle" x="90.34" y="-47.28" font-family="Helvetica,sans-Serif" font-size="10.00">4</text>
</a>
</g>
</g>
</g>
</svg>
