<?xml version="1.0" encoding="UTF-8" standalone="no"?>
<!DOCTYPE svg PUBLIC "-//W3C//DTD SVG 1.1//EN"
 "http://www.w3.org/Graphics/SVG/1.1/DTD/svg11.dtd">
<!-- Generated by graphviz version 2.43.0 (0)
 -->
<!-- Title: utils/src Pages: 1 -->
<svg width="142pt" height="151pt"
 viewBox="0.00 0.00 142.00 151.00" xmlns="http://www.w3.org/2000/svg" xmlns:xlink="http://www.w3.org/1999/xlink">
<g id="graph0" class="graph" transform="scale(1 1) rotate(0) translate(4 147)">
<title>utils/src</title>
<polygon fill="white" stroke="transparent" points="-4,4 -4,-147 138,-147 138,4 -4,4"/>
<g id="clust1" class="cluster">
<title>clusterdir_cbdb8362360e11eafe2fa3bc74cf0ffd</title>
<g id="a_clust1"><a xlink:href="dir_cbdb8362360e11eafe2fa3bc74cf0ffd.html" target="_top" xlink:title="utils">
<polygon fill="#ddddee" stroke="black" points="30,-64 30,-135 100,-135 100,-64 30,-64"/>
<text text-anchor="middle" x="65" y="-123" font-family="Helvetica,sans-Serif" font-size="10.00">utils</text>
</a>
</g>
</g>
<!-- dir_3067f7d8f9aa80e9f740e3277c5af1f3 -->
<g id="node1" class="node">
<title>dir_3067f7d8f9aa80e9f740e3277c5af1f3</title>
<g id="a_node1"><a xlink:href="dir_3067f7d8f9aa80e9f740e3277c5af1f3.html" target="_top" xlink:title="src">
<polygon fill="#eeeeff" stroke="black" points="92,-108 38,-108 38,-72 92,-72 92,-108"/>
<text text-anchor="middle" x="65" y="-87.5" font-family="Helvetica,sans-Serif" font-size="10.00">src</text>
</a>
</g>
</g>
<!-- dir_f185c12169b0584861403140dc49fe3d -->
<g id="node2" class="node">
<title>dir_f185c12169b0584861403140dc49fe3d</title>
<g id="a_node2"><a xlink:href="dir_f185c12169b0584861403140dc49fe3d.html" target="_top" xlink:title="inc">
<polygon fill="none" stroke="black" points="54,-36 0,-36 0,0 54,0 54,-36"/>
<text text-anchor="middle" x="27" y="-15.5" font-family="Helvetica,sans-Serif" font-size="10.00">inc</text>
</a>
</g>
</g>
<!-- dir_3067f7d8f9aa80e9f740e3277c5af1f3&#45;&gt;dir_f185c12169b0584861403140dc49fe3d -->
<g id="edge1" class="edge">
<title>dir_3067f7d8f9aa80e9f740e3277c5af1f3&#45;&gt;dir_f185c12169b0584861403140dc49fe3d</title>
<path fill="none" stroke="black" d="M55.61,-71.7C51.24,-63.64 45.94,-53.89 41.1,-44.98"/>
<polygon fill="black" stroke="black" points="44.13,-43.22 36.29,-36.1 37.98,-46.56 44.13,-43.22"/>
<g id="a_edge1&#45;headlabel"><a xlink:href="dir_000021_000020.html" target="_top" xlink:title="3">
<text text-anchor="middle" x="48.34" y="-42.53" font-family="Helvetica,sans-Serif" font-size="10.00">3</text>
</a>
</g>
</g>
<!-- dir_f32c53f2c0f0ccaeb11076e30674d5f4 -->
<g id="node3" class="node">
<title>dir_f32c53f2c0f0ccaeb11076e30674d5f4</title>
<g id="a_node3"><a xlink:href="dir_f32c53f2c0f0ccaeb11076e30674d5f4.html" target="_top" xlink:title="database">
<polygon fill="white" stroke="red" points="134,-36 72,-36 72,0 134,0 134,-36"/>
<text text-anchor="middle" x="103" y="-15.5" font-family="Helvetica,sans-Serif" font-size="10.00">database</text>
</a>
</g>
</g>
<!-- dir_3067f7d8f9aa80e9f740e3277c5af1f3&#45;&gt;dir_f32c53f2c0f0ccaeb11076e30674d5f4 -->
<g id="edge2" class="edge">
<title>dir_3067f7d8f9aa80e9f740e3277c5af1f3&#45;&gt;dir_f32c53f2c0f0ccaeb11076e30674d5f4</title>
<path fill="none" stroke="black" d="M74.39,-71.7C78.76,-63.64 84.06,-53.89 88.9,-44.98"/>
<polygon fill="black" stroke="black" points="92.02,-46.56 93.71,-36.1 85.87,-43.22 92.02,-46.56"/>
<g id="a_edge2&#45;headlabel"><a xlink:href="dir_000021_000010.html" target="_top" xlink:title="1">
<text text-anchor="middle" x="92.8" y="-48.58" font-family="Helvetica,sans-Serif" font-size="10.00">1</text>
</a>
</g>
</g>
</g>
</svg>
