<?xml version="1.0" encoding="UTF-8" standalone="no"?>
<!DOCTYPE svg PUBLIC "-//W3C//DTD SVG 1.1//EN"
 "http://www.w3.org/Graphics/SVG/1.1/DTD/svg11.dtd">
<!-- Generated by graphviz version 2.43.0 (0)
 -->
<!-- Title: runtime Pages: 1 -->
<svg width="168pt" height="276pt"
 viewBox="0.00 0.00 168.00 276.00" xmlns="http://www.w3.org/2000/svg" xmlns:xlink="http://www.w3.org/1999/xlink">
<g id="graph0" class="graph" transform="scale(1 1) rotate(0) translate(4 272)">
<title>runtime</title>
<polygon fill="white" stroke="transparent" points="-4,4 -4,-272 164,-272 164,4 -4,4"/>
<g id="clust1" class="cluster">
<title>clusterdir_c6f90d7b3aff386cab2eb5eb40ce2f26</title>
<g id="a_clust1"><a xlink:href="dir_c6f90d7b3aff386cab2eb5eb40ce2f26.html" target="_top">
<polygon fill="#eeeeff" stroke="black" points="8,-136 8,-260 152,-260 152,-136 8,-136"/>
</a>
</g>
</g>
<!-- dir_c6f90d7b3aff386cab2eb5eb40ce2f26 -->
<g id="node1" class="node">
<title>dir_c6f90d7b3aff386cab2eb5eb40ce2f26</title>
<text text-anchor="middle" x="116" y="-231.5" font-family="Helvetica,sans-Serif" font-size="10.00">runtime</text>
</g>
<!-- dir_c2d23aafdf04533449ab55d5abc8d9ae -->
<g id="node2" class="node">
<title>dir_c2d23aafdf04533449ab55d5abc8d9ae</title>
<g id="a_node2"><a xlink:href="dir_c2d23aafdf04533449ab55d5abc8d9ae.html" target="_top" xlink:title="inc">
<polygon fill="white" stroke="black" points="70,-180 16,-180 16,-144 70,-144 70,-180"/>
<text text-anchor="middle" x="43" y="-159.5" font-family="Helvetica,sans-Serif" font-size="10.00">inc</text>
</a>
</g>
</g>
<!-- dir_f08c1ffadff6e9e08f49766ff6ac3753 -->
<g id="node4" class="node">
<title>dir_f08c1ffadff6e9e08f49766ff6ac3753</title>
<g id="a_node4"><a xlink:href="dir_f08c1ffadff6e9e08f49766ff6ac3753.html" target="_top" xlink:title="utils">
<polygon fill="white" stroke="red" points="115,-36 61,-36 61,0 115,0 115,-36"/>
<text text-anchor="middle" x="88" y="-15.5" font-family="Helvetica,sans-Serif" font-size="10.00">utils</text>
</a>
</g>
</g>
<!-- dir_c2d23aafdf04533449ab55d5abc8d9ae&#45;&gt;dir_f08c1ffadff6e9e08f49766ff6ac3753 -->
<g id="edge4" class="edge">
<title>dir_c2d23aafdf04533449ab55d5abc8d9ae&#45;&gt;dir_f08c1ffadff6e9e08f49766ff6ac3753</title>
<path fill="none" stroke="black" d="M41.37,-143.68C40.26,-125.3 40.32,-95.71 49,-72 52.65,-62.02 58.8,-52.3 65.14,-43.96"/>
<polygon fill="black" stroke="black" points="67.91,-46.11 71.47,-36.13 62.46,-41.71 67.91,-46.11"/>
<g id="a_edge4&#45;headlabel"><a xlink:href="dir_000019_000025.html" target="_top" xlink:title="5">
<text text-anchor="middle" x="67.86" y="-48.19" font-family="Helvetica,sans-Serif" font-size="10.00">5</text>
</a>
</g>
</g>
<!-- dir_d6b47c55c117061889082b3039c4cfaf -->
<g id="node5" class="node">
<title>dir_d6b47c55c117061889082b3039c4cfaf</title>
<g id="a_node5"><a xlink:href="dir_d6b47c55c117061889082b3039c4cfaf.html" target="_top" xlink:title="executor">
<polygon fill="white" stroke="red" points="117.5,-108 58.5,-108 58.5,-72 117.5,-72 117.5,-108"/>
<text text-anchor="middle" x="88" y="-87.5" font-family="Helvetica,sans-Serif" font-size="10.00">executor</text>
</a>
</g>
</g>
<!-- dir_c2d23aafdf04533449ab55d5abc8d9ae&#45;&gt;dir_d6b47c55c117061889082b3039c4cfaf -->
<g id="edge5" class="edge">
<title>dir_c2d23aafdf04533449ab55d5abc8d9ae&#45;&gt;dir_d6b47c55c117061889082b3039c4cfaf</title>
<path fill="none" stroke="black" d="M54.12,-143.7C59.36,-135.56 65.7,-125.69 71.48,-116.7"/>
<polygon fill="black" stroke="black" points="74.54,-118.41 77,-108.1 68.65,-114.62 74.54,-118.41"/>
<g id="a_edge5&#45;headlabel"><a xlink:href="dir_000019_000013.html" target="_top" xlink:title="5">
<text text-anchor="middle" x="74.99" y="-120.47" font-family="Helvetica,sans-Serif" font-size="10.00">5</text>
</a>
</g>
</g>
<!-- dir_1dbc2d7b85be1956d8759e1bd297c297 -->
<g id="node3" class="node">
<title>dir_1dbc2d7b85be1956d8759e1bd297c297</title>
<g id="a_node3"><a xlink:href="dir_1dbc2d7b85be1956d8759e1bd297c297.html" target="_top" xlink:title="src">
<polygon fill="white" stroke="black" points="70,-252 16,-252 16,-216 70,-216 70,-252"/>
<text text-anchor="middle" x="43" y="-231.5" font-family="Helvetica,sans-Serif" font-size="10.00">src</text>
</a>
</g>
</g>
<!-- dir_1dbc2d7b85be1956d8759e1bd297c297&#45;&gt;dir_c2d23aafdf04533449ab55d5abc8d9ae -->
<g id="edge2" class="edge">
<title>dir_1dbc2d7b85be1956d8759e1bd297c297&#45;&gt;dir_c2d23aafdf04533449ab55d5abc8d9ae</title>
<path fill="none" stroke="black" d="M43,-215.7C43,-207.98 43,-198.71 43,-190.11"/>
<polygon fill="black" stroke="black" points="46.5,-190.1 43,-180.1 39.5,-190.1 46.5,-190.1"/>
<g id="a_edge2&#45;headlabel"><a xlink:href="dir_000020_000019.html" target="_top" xlink:title="9">
<text text-anchor="middle" x="49.34" y="-191.2" font-family="Helvetica,sans-Serif" font-size="10.00">9</text>
</a>
</g>
</g>
<!-- dir_1dbc2d7b85be1956d8759e1bd297c297&#45;&gt;dir_f08c1ffadff6e9e08f49766ff6ac3753 -->
<g id="edge1" class="edge">
<title>dir_1dbc2d7b85be1956d8759e1bd297c297&#45;&gt;dir_f08c1ffadff6e9e08f49766ff6ac3753</title>
<path fill="none" stroke="black" d="M64.73,-215.9C75.83,-206.29 88.88,-193.52 98,-180 117.29,-151.4 120.44,-141.87 127,-108 130.04,-92.29 131.99,-87.2 127,-72 123.69,-61.91 117.63,-52.15 111.27,-43.82"/>
<polygon fill="black" stroke="black" points="113.92,-41.54 104.89,-36.01 108.5,-45.97 113.92,-41.54"/>
<g id="a_edge1&#45;headlabel"><a xlink:href="dir_000020_000025.html" target="_top" xlink:title="12">
<text text-anchor="middle" x="118.4" y="-40.03" font-family="Helvetica,sans-Serif" font-size="10.00">12</text>
</a>
</g>
</g>
<!-- dir_1dbc2d7b85be1956d8759e1bd297c297&#45;&gt;dir_d6b47c55c117061889082b3039c4cfaf -->
<g id="edge3" class="edge">
<title>dir_1dbc2d7b85be1956d8759e1bd297c297&#45;&gt;dir_d6b47c55c117061889082b3039c4cfaf</title>
<path fill="none" stroke="black" d="M58.08,-215.6C65.69,-205.8 74.29,-192.96 79,-180 86.2,-160.21 88.29,-136.41 88.68,-118.4"/>
<polygon fill="black" stroke="black" points="92.18,-118.3 88.72,-108.28 85.18,-118.27 92.18,-118.3"/>
<g id="a_edge3&#45;headlabel"><a xlink:href="dir_000020_000013.html" target="_top" xlink:title="1">
<text text-anchor="middle" x="95" y="-119.41" font-family="Helvetica,sans-Serif" font-size="10.00">1</text>
</a>
</g>
</g>
<!-- dir_d6b47c55c117061889082b3039c4cfaf&#45;&gt;dir_f08c1ffadff6e9e08f49766ff6ac3753 -->
<g id="edge6" class="edge">
<title>dir_d6b47c55c117061889082b3039c4cfaf&#45;&gt;dir_f08c1ffadff6e9e08f49766ff6ac3753</title>
<path fill="none" stroke="black" d="M88,-71.7C88,-63.98 88,-54.71 88,-46.11"/>
<polygon fill="black" stroke="black" points="91.5,-46.1 88,-36.1 84.5,-46.1 91.5,-46.1"/>
<g id="a_edge6&#45;headlabel"><a xlink:href="dir_000013_000025.html" target="_top" xlink:title="4">
<text text-anchor="middle" x="94.34" y="-47.2" font-family="Helvetica,sans-Serif" font-size="10.00">4</text>
</a>
</g>
</g>
</g>
</svg>
