<?xml version="1.0" encoding="UTF-8" standalone="no"?>
<!DOCTYPE svg PUBLIC "-//W3C//DTD SVG 1.1//EN"
 "http://www.w3.org/Graphics/SVG/1.1/DTD/svg11.dtd">
<!-- Generated by graphviz version 2.43.0 (0)
 -->
<!-- Title: core Pages: 1 -->
<svg width="278pt" height="348pt"
 viewBox="0.00 0.00 277.89 348.00" xmlns="http://www.w3.org/2000/svg" xmlns:xlink="http://www.w3.org/1999/xlink">
<g id="graph0" class="graph" transform="scale(1 1) rotate(0) translate(4 344)">
<title>core</title>
<polygon fill="white" stroke="transparent" points="-4,4 -4,-344 273.89,-344 273.89,4 -4,4"/>
<g id="clust1" class="cluster">
<title>clusterdir_521dc20e1c32dad3a389d870e90503a0</title>
<g id="a_clust1"><a xlink:href="dir_521dc20e1c32dad3a389d870e90503a0.html" target="_top">
<polygon fill="#eeeeff" stroke="black" points="8,-208 8,-332 150,-332 150,-208 8,-208"/>
</a>
</g>
</g>
<!-- dir_521dc20e1c32dad3a389d870e90503a0 -->
<g id="node1" class="node">
<title>dir_521dc20e1c32dad3a389d870e90503a0</title>
<text text-anchor="middle" x="115" y="-303.5" font-family="Helvetica,sans-Serif" font-size="10.00">core</text>
</g>
<!-- dir_67d50c47b678e427d1ea4b25f05ca1f8 -->
<g id="node2" class="node">
<title>dir_67d50c47b678e427d1ea4b25f05ca1f8</title>
<g id="a_node2"><a xlink:href="dir_67d50c47b678e427d1ea4b25f05ca1f8.html" target="_top" xlink:title="inc">
<polygon fill="white" stroke="black" points="99,-252 45,-252 45,-216 99,-216 99,-252"/>
<text text-anchor="middle" x="72" y="-231.5" font-family="Helvetica,sans-Serif" font-size="10.00">inc</text>
</a>
</g>
</g>
<!-- dir_f8c6f0679b123304d35aae1bb0e284fb -->
<g id="node5" class="node">
<title>dir_f8c6f0679b123304d35aae1bb0e284fb</title>
<g id="a_node5"><a xlink:href="dir_f8c6f0679b123304d35aae1bb0e284fb.html" target="_top" xlink:title="database">
<polygon fill="white" stroke="red" points="191,-36 129,-36 129,0 191,0 191,-36"/>
<text text-anchor="middle" x="160" y="-15.5" font-family="Helvetica,sans-Serif" font-size="10.00">database</text>
</a>
</g>
</g>
<!-- dir_67d50c47b678e427d1ea4b25f05ca1f8&#45;&gt;dir_f8c6f0679b123304d35aae1bb0e284fb -->
<g id="edge2" class="edge">
<title>dir_67d50c47b678e427d1ea4b25f05ca1f8&#45;&gt;dir_f8c6f0679b123304d35aae1bb0e284fb</title>
<path fill="none" stroke="black" d="M74.13,-215.85C76.75,-197.61 81.99,-168.13 91,-144 104.53,-107.76 127.21,-69.25 142.85,-44.71"/>
<polygon fill="black" stroke="black" points="145.98,-46.32 148.47,-36.02 140.1,-42.52 145.98,-46.32"/>
<g id="a_edge2&#45;headlabel"><a xlink:href="dir_000008_000010.html" target="_top" xlink:title="1">
<text text-anchor="middle" x="146.41" y="-48.38" font-family="Helvetica,sans-Serif" font-size="10.00">1</text>
</a>
</g>
</g>
<!-- dir_d6b47c55c117061889082b3039c4cfaf -->
<g id="node6" class="node">
<title>dir_d6b47c55c117061889082b3039c4cfaf</title>
<g id="a_node6"><a xlink:href="dir_d6b47c55c117061889082b3039c4cfaf.html" target="_top" xlink:title="executor">
<polygon fill="white" stroke="red" points="159.5,-180 100.5,-180 100.5,-144 159.5,-144 159.5,-180"/>
<text text-anchor="middle" x="130" y="-159.5" font-family="Helvetica,sans-Serif" font-size="10.00">executor</text>
</a>
</g>
</g>
<!-- dir_67d50c47b678e427d1ea4b25f05ca1f8&#45;&gt;dir_d6b47c55c117061889082b3039c4cfaf -->
<g id="edge3" class="edge">
<title>dir_67d50c47b678e427d1ea4b25f05ca1f8&#45;&gt;dir_d6b47c55c117061889082b3039c4cfaf</title>
<path fill="none" stroke="black" d="M80.42,-215.7C86.57,-207.22 94.96,-196.86 103.15,-187.58"/>
<polygon fill="black" stroke="black" points="105.81,-189.86 109.93,-180.1 100.62,-185.16 105.81,-189.86"/>
<g id="a_edge3&#45;headlabel"><a xlink:href="dir_000008_000013.html" target="_top" xlink:title="1">
<text text-anchor="middle" x="105.5" y="-191.93" font-family="Helvetica,sans-Serif" font-size="10.00">1</text>
</a>
</g>
</g>
<!-- dir_c6c08339cc9a26b214e74a0f6855d078 -->
<g id="node3" class="node">
<title>dir_c6c08339cc9a26b214e74a0f6855d078</title>
<g id="a_node3"><a xlink:href="dir_c6c08339cc9a26b214e74a0f6855d078.html" target="_top" xlink:title="src">
<polygon fill="white" stroke="black" points="70,-324 16,-324 16,-288 70,-288 70,-324"/>
<text text-anchor="middle" x="43" y="-303.5" font-family="Helvetica,sans-Serif" font-size="10.00">src</text>
</a>
</g>
</g>
<!-- dir_c6c08339cc9a26b214e74a0f6855d078&#45;&gt;dir_67d50c47b678e427d1ea4b25f05ca1f8 -->
<g id="edge6" class="edge">
<title>dir_c6c08339cc9a26b214e74a0f6855d078&#45;&gt;dir_67d50c47b678e427d1ea4b25f05ca1f8</title>
<path fill="none" stroke="black" d="M50.17,-287.7C53.43,-279.81 57.37,-270.3 61,-261.55"/>
<polygon fill="black" stroke="black" points="64.32,-262.68 64.91,-252.1 57.85,-260 64.32,-262.68"/>
<g id="a_edge6&#45;headlabel"><a xlink:href="dir_000009_000008.html" target="_top" xlink:title="1">
<text text-anchor="middle" x="65.57" y="-264.59" font-family="Helvetica,sans-Serif" font-size="10.00">1</text>
</a>
</g>
</g>
<!-- dir_f08c1ffadff6e9e08f49766ff6ac3753 -->
<g id="node4" class="node">
<title>dir_f08c1ffadff6e9e08f49766ff6ac3753</title>
<g id="a_node4"><a xlink:href="dir_f08c1ffadff6e9e08f49766ff6ac3753.html" target="_top" xlink:title="utils">
<polygon fill="white" stroke="red" points="214,-108 160,-108 160,-72 214,-72 214,-108"/>
<text text-anchor="middle" x="187" y="-87.5" font-family="Helvetica,sans-Serif" font-size="10.00">utils</text>
</a>
</g>
</g>
<!-- dir_c6c08339cc9a26b214e74a0f6855d078&#45;&gt;dir_f08c1ffadff6e9e08f49766ff6ac3753 -->
<g id="edge4" class="edge">
<title>dir_c6c08339cc9a26b214e74a0f6855d078&#45;&gt;dir_f08c1ffadff6e9e08f49766ff6ac3753</title>
<path fill="none" stroke="black" d="M70.28,-291.44C73.19,-290.2 76.14,-289.02 79,-288 141.13,-265.81 182.4,-304 223,-252 254.07,-212.21 225.29,-150.9 204.35,-116.55"/>
<polygon fill="black" stroke="black" points="207.27,-114.62 198.97,-108.03 201.35,-118.35 207.27,-114.62"/>
<g id="a_edge4&#45;headlabel"><a xlink:href="dir_000009_000021.html" target="_top" xlink:title="1">
<text text-anchor="middle" x="211.59" y="-113.64" font-family="Helvetica,sans-Serif" font-size="10.00">1</text>
</a>
</g>
</g>
<!-- dir_c6c08339cc9a26b214e74a0f6855d078&#45;&gt;dir_f8c6f0679b123304d35aae1bb0e284fb -->
<g id="edge5" class="edge">
<title>dir_c6c08339cc9a26b214e74a0f6855d078&#45;&gt;dir_f8c6f0679b123304d35aae1bb0e284fb</title>
<path fill="none" stroke="black" d="M70.25,-291.35C73.17,-290.13 76.12,-288.98 79,-288 149.63,-263.92 196.23,-310.15 243,-252 293.45,-189.28 264.73,-140.83 223,-72 216.1,-60.62 205.89,-50.51 195.68,-42.24"/>
<polygon fill="black" stroke="black" points="197.63,-39.33 187.56,-36.03 193.37,-44.89 197.63,-39.33"/>
<g id="a_edge5&#45;headlabel"><a xlink:href="dir_000009_000010.html" target="_top" xlink:title="2">
<text text-anchor="middle" x="202.21" y="-36.76" font-family="Helvetica,sans-Serif" font-size="10.00">2</text>
</a>
</g>
</g>
<!-- dir_c6c08339cc9a26b214e74a0f6855d078&#45;&gt;dir_d6b47c55c117061889082b3039c4cfaf -->
<g id="edge7" class="edge">
<title>dir_c6c08339cc9a26b214e74a0f6855d078&#45;&gt;dir_d6b47c55c117061889082b3039c4cfaf</title>
<path fill="none" stroke="black" d="M70.3,-288.75C83.54,-279.54 98.57,-266.88 108,-252 119.75,-233.45 125.22,-209.06 127.77,-190.5"/>
<polygon fill="black" stroke="black" points="131.28,-190.67 128.96,-180.33 124.32,-189.86 131.28,-190.67"/>
<g id="a_edge7&#45;headlabel"><a xlink:href="dir_000009_000013.html" target="_top" xlink:title="1">
<text text-anchor="middle" x="133.68" y="-192.07" font-family="Helvetica,sans-Serif" font-size="10.00">1</text>
</a>
</g>
</g>
<!-- dir_c6f90d7b3aff386cab2eb5eb40ce2f26 -->
<g id="node7" class="node">
<title>dir_c6f90d7b3aff386cab2eb5eb40ce2f26</title>
<g id="a_node7"><a xlink:href="dir_c6f90d7b3aff386cab2eb5eb40ce2f26.html" target="_top" xlink:title="runtime">
<polygon fill="white" stroke="red" points="213.5,-252 158.5,-252 158.5,-216 213.5,-216 213.5,-252"/>
<text text-anchor="middle" x="186" y="-231.5" font-family="Helvetica,sans-Serif" font-size="10.00">runtime</text>
</a>
</g>
</g>
<!-- dir_c6c08339cc9a26b214e74a0f6855d078&#45;&gt;dir_c6f90d7b3aff386cab2eb5eb40ce2f26 -->
<g id="edge8" class="edge">
<title>dir_c6c08339cc9a26b214e74a0f6855d078&#45;&gt;dir_c6f90d7b3aff386cab2eb5eb40ce2f26</title>
<path fill="none" stroke="black" d="M70.22,-292.08C95.23,-280.2 130.76,-263.29 149.33,-254.23"/>
<polygon fill="black" stroke="black" points="151.04,-257.29 158.46,-249.73 147.94,-251.02 151.04,-257.29"/>
<g id="a_edge8&#45;headlabel"><a xlink:href="dir_000009_000018.html" target="_top" xlink:title="1">
<text text-anchor="middle" x="149.08" y="-258.93" font-family="Helvetica,sans-Serif" font-size="10.00">1</text>
</a>
</g>
</g>
<!-- dir_f08c1ffadff6e9e08f49766ff6ac3753&#45;&gt;dir_f8c6f0679b123304d35aae1bb0e284fb -->
<g id="edge1" class="edge">
<title>dir_f08c1ffadff6e9e08f49766ff6ac3753&#45;&gt;dir_f8c6f0679b123304d35aae1bb0e284fb</title>
<path fill="none" stroke="black" d="M180.33,-71.7C177.29,-63.81 173.62,-54.3 170.24,-45.55"/>
<polygon fill="black" stroke="black" points="173.46,-44.17 166.6,-36.1 166.93,-46.69 173.46,-44.17"/>
<g id="a_edge1&#45;headlabel"><a xlink:href="dir_000021_000010.html" target="_top" xlink:title="2">
<text text-anchor="middle" x="177.4" y="-44.01" font-family="Helvetica,sans-Serif" font-size="10.00">2</text>
</a>
</g>
</g>
<!-- dir_d6b47c55c117061889082b3039c4cfaf&#45;&gt;dir_67d50c47b678e427d1ea4b25f05ca1f8 -->
<g id="edge11" class="edge">
<title>dir_d6b47c55c117061889082b3039c4cfaf&#45;&gt;dir_67d50c47b678e427d1ea4b25f05ca1f8</title>
<path fill="none" stroke="black" d="M121.72,-180.1C115.61,-188.55 107.23,-198.9 99.04,-208.2"/>
<polygon fill="black" stroke="black" points="96.37,-205.93 92.25,-215.7 101.56,-210.63 96.37,-205.93"/>
<g id="a_edge11&#45;headlabel"><a xlink:href="dir_000013_000008.html" target="_top" xlink:title="4">
<text text-anchor="middle" x="96.67" y="-198.86" font-family="Helvetica,sans-Serif" font-size="10.00">4</text>
</a>
</g>
</g>
<!-- dir_d6b47c55c117061889082b3039c4cfaf&#45;&gt;dir_f08c1ffadff6e9e08f49766ff6ac3753 -->
<g id="edge9" class="edge">
<title>dir_d6b47c55c117061889082b3039c4cfaf&#45;&gt;dir_f08c1ffadff6e9e08f49766ff6ac3753</title>
<path fill="none" stroke="black" d="M144.09,-143.7C150.92,-135.3 159.26,-125.07 166.76,-115.86"/>
<polygon fill="black" stroke="black" points="169.47,-118.07 173.07,-108.1 164.04,-113.65 169.47,-118.07"/>
<g id="a_edge9&#45;headlabel"><a xlink:href="dir_000013_000021.html" target="_top" xlink:title="2">
<text text-anchor="middle" x="169.4" y="-120.15" font-family="Helvetica,sans-Serif" font-size="10.00">2</text>
</a>
</g>
</g>
<!-- dir_d6b47c55c117061889082b3039c4cfaf&#45;&gt;dir_f8c6f0679b123304d35aae1bb0e284fb -->
<g id="edge10" class="edge">
<title>dir_d6b47c55c117061889082b3039c4cfaf&#45;&gt;dir_f8c6f0679b123304d35aae1bb0e284fb</title>
<path fill="none" stroke="black" d="M133.62,-143.87C138.75,-119.56 148.21,-74.82 154.29,-46.01"/>
<polygon fill="black" stroke="black" points="157.73,-46.7 156.37,-36.19 150.88,-45.25 157.73,-46.7"/>
<g id="a_edge10&#45;headlabel"><a xlink:href="dir_000013_000010.html" target="_top" xlink:title="5">
<text text-anchor="middle" x="159.76" y="-48.3" font-family="Helvetica,sans-Serif" font-size="10.00">5</text>
</a>
</g>
</g>
<!-- dir_c6f90d7b3aff386cab2eb5eb40ce2f26&#45;&gt;dir_f08c1ffadff6e9e08f49766ff6ac3753 -->
<g id="edge12" class="edge">
<title>dir_c6f90d7b3aff386cab2eb5eb40ce2f26&#45;&gt;dir_f08c1ffadff6e9e08f49766ff6ac3753</title>
<path fill="none" stroke="black" d="M186.12,-215.87C186.29,-191.67 186.6,-147.21 186.81,-118.39"/>
<polygon fill="black" stroke="black" points="190.31,-118.21 186.88,-108.19 183.31,-118.16 190.31,-118.21"/>
<g id="a_edge12&#45;headlabel"><a xlink:href="dir_000018_000021.html" target="_top" xlink:title="13">
<text text-anchor="middle" x="193.12" y="-119.33" font-family="Helvetica,sans-Serif" font-size="10.00">13</text>
</a>
</g>
</g>
<!-- dir_c6f90d7b3aff386cab2eb5eb40ce2f26&#45;&gt;dir_d6b47c55c117061889082b3039c4cfaf -->
<g id="edge13" class="edge">
<title>dir_c6f90d7b3aff386cab2eb5eb40ce2f26&#45;&gt;dir_d6b47c55c117061889082b3039c4cfaf</title>
<path fill="none" stroke="black" d="M172.16,-215.7C165.51,-207.39 157.42,-197.28 150.11,-188.14"/>
<polygon fill="black" stroke="black" points="152.66,-185.73 143.68,-180.1 147.2,-190.1 152.66,-185.73"/>
<g id="a_edge13&#45;headlabel"><a xlink:href="dir_000018_000013.html" target="_top" xlink:title="6">
<text text-anchor="middle" x="157.13" y="-184.26" font-family="Helvetica,sans-Serif" font-size="10.00">6</text>
</a>
</g>
</g>
</g>
</svg>
