<?xml version="1.0" encoding="UTF-8" standalone="no"?>
<!DOCTYPE svg PUBLIC "-//W3C//DTD SVG 1.1//EN"
 "http://www.w3.org/Graphics/SVG/1.1/DTD/svg11.dtd">
<!-- Generated by graphviz version 2.43.0 (0)
 -->
<!-- Title: executor Pages: 1 -->
<svg width="228pt" height="222pt"
 viewBox="0.00 0.00 228.00 221.95" xmlns="http://www.w3.org/2000/svg" xmlns:xlink="http://www.w3.org/1999/xlink">
<g id="graph0" class="graph" transform="scale(1 1) rotate(0) translate(4 217.95)">
<title>executor</title>
<polygon fill="white" stroke="transparent" points="-4,4 -4,-217.95 224,-217.95 224,4 -4,4"/>
<g id="clust1" class="cluster">
<title>clusterdir_7c2730fb8449c1fd3c0779d2ebca1b41</title>
<g id="a_clust1"><a xlink:href="dir_7c2730fb8449c1fd3c0779d2ebca1b41.html" target="_top">
<polygon fill="#eeeeff" stroke="black" points="8,-64 8,-188 156,-188 156,-64 8,-64"/>
</a>
</g>
</g>
<!-- dir_7c2730fb8449c1fd3c0779d2ebca1b41 -->
<g id="node1" class="node">
<title>dir_7c2730fb8449c1fd3c0779d2ebca1b41</title>
<text text-anchor="middle" x="118" y="-159.5" font-family="Helvetica,sans-Serif" font-size="10.00">executor</text>
</g>
<!-- dir_46e3939a85035f9eacdef8d7cc3159ad -->
<g id="node2" class="node">
<title>dir_46e3939a85035f9eacdef8d7cc3159ad</title>
<g id="a_node2"><a xlink:href="dir_46e3939a85035f9eacdef8d7cc3159ad.html" target="_top" xlink:title="inc">
<polygon fill="white" stroke="black" points="140,-108 86,-108 86,-72 140,-72 140,-108"/>
<text text-anchor="middle" x="113" y="-87.5" font-family="Helvetica,sans-Serif" font-size="10.00">inc</text>
</a>
</g>
</g>
<!-- dir_fb1bafc4fab5556427f12e9eb41c74ae -->
<g id="node3" class="node">
<title>dir_fb1bafc4fab5556427f12e9eb41c74ae</title>
<g id="a_node3"><a xlink:href="dir_fb1bafc4fab5556427f12e9eb41c74ae.html" target="_top" xlink:title="src">
<polygon fill="white" stroke="black" points="70,-180 16,-180 16,-144 70,-144 70,-180"/>
<text text-anchor="middle" x="43" y="-159.5" font-family="Helvetica,sans-Serif" font-size="10.00">src</text>
</a>
</g>
</g>
<!-- dir_fb1bafc4fab5556427f12e9eb41c74ae&#45;&gt;dir_46e3939a85035f9eacdef8d7cc3159ad -->
<g id="edge2" class="edge">
<title>dir_fb1bafc4fab5556427f12e9eb41c74ae&#45;&gt;dir_46e3939a85035f9eacdef8d7cc3159ad</title>
<path fill="none" stroke="black" d="M60.3,-143.7C68.86,-135.14 79.34,-124.66 88.7,-115.3"/>
<polygon fill="black" stroke="black" points="91.3,-117.65 95.9,-108.1 86.35,-112.7 91.3,-117.65"/>
<g id="a_edge2&#45;headlabel"><a xlink:href="dir_000015_000014.html" target="_top" xlink:title="1">
<text text-anchor="middle" x="90.77" y="-119.7" font-family="Helvetica,sans-Serif" font-size="10.00">1</text>
</a>
</g>
</g>
<!-- dir_cbdb8362360e11eafe2fa3bc74cf0ffd -->
<g id="node4" class="node">
<title>dir_cbdb8362360e11eafe2fa3bc74cf0ffd</title>
<g id="a_node4"><a xlink:href="dir_cbdb8362360e11eafe2fa3bc74cf0ffd.html" target="_top" xlink:title="utils">
<polygon fill="white" stroke="red" points="218,-108 164,-108 164,-72 218,-72 218,-108"/>
<text text-anchor="middle" x="191" y="-87.5" font-family="Helvetica,sans-Serif" font-size="10.00">utils</text>
</a>
</g>
</g>
<!-- dir_fb1bafc4fab5556427f12e9eb41c74ae&#45;&gt;dir_cbdb8362360e11eafe2fa3bc74cf0ffd -->
<g id="edge3" class="edge">
<title>dir_fb1bafc4fab5556427f12e9eb41c74ae&#45;&gt;dir_cbdb8362360e11eafe2fa3bc74cf0ffd</title>
<path fill="none" stroke="black" d="M70.07,-148.53C73.41,-147 76.78,-145.46 80,-144 112.44,-129.25 123.26,-125.91 154.34,-110.75"/>
<polygon fill="black" stroke="black" points="156.26,-113.7 163.68,-106.14 153.16,-107.42 156.26,-113.7"/>
<g id="a_edge3&#45;headlabel"><a xlink:href="dir_000015_000019.html" target="_top" xlink:title="1">
<text text-anchor="middle" x="154.29" y="-115.34" font-family="Helvetica,sans-Serif" font-size="10.00">1</text>
</a>
</g>
</g>
<!-- dir_f32c53f2c0f0ccaeb11076e30674d5f4 -->
<g id="node5" class="node">
<title>dir_f32c53f2c0f0ccaeb11076e30674d5f4</title>
<g id="a_node5"><a xlink:href="dir_f32c53f2c0f0ccaeb11076e30674d5f4.html" target="_top" xlink:title="database">
<polygon fill="white" stroke="red" points="153,-36 91,-36 91,0 153,0 153,-36"/>
<text text-anchor="middle" x="122" y="-15.5" font-family="Helvetica,sans-Serif" font-size="10.00">database</text>
</a>
</g>
</g>
<!-- dir_fb1bafc4fab5556427f12e9eb41c74ae&#45;&gt;dir_f32c53f2c0f0ccaeb11076e30674d5f4 -->
<g id="edge4" class="edge">
<title>dir_fb1bafc4fab5556427f12e9eb41c74ae&#45;&gt;dir_f32c53f2c0f0ccaeb11076e30674d5f4</title>
<path fill="none" stroke="black" d="M46.55,-143.85C51.27,-123.63 60.95,-89.53 77,-64 81.65,-56.6 87.72,-49.49 93.89,-43.18"/>
<polygon fill="black" stroke="black" points="96.36,-45.65 101.1,-36.18 91.49,-40.63 96.36,-45.65"/>
<g id="a_edge4&#45;headlabel"><a xlink:href="dir_000015_000010.html" target="_top" xlink:title="2">
<text text-anchor="middle" x="95.76" y="-47.69" font-family="Helvetica,sans-Serif" font-size="10.00">2</text>
</a>
</g>
</g>
<!-- dir_4270bfced15e0e73154b13468c7c9ad9 -->
<g id="node6" class="node">
<title>dir_4270bfced15e0e73154b13468c7c9ad9</title>
<g id="a_node6"><a xlink:href="dir_4270bfced15e0e73154b13468c7c9ad9.html" target="_top" xlink:title="core">
<polygon fill="white" stroke="red" points="220,-180 166,-180 166,-144 220,-144 220,-180"/>
<text text-anchor="middle" x="193" y="-159.5" font-family="Helvetica,sans-Serif" font-size="10.00">core</text>
</a>
</g>
</g>
<!-- dir_fb1bafc4fab5556427f12e9eb41c74ae&#45;&gt;dir_4270bfced15e0e73154b13468c7c9ad9 -->
<g id="edge5" class="edge">
<title>dir_fb1bafc4fab5556427f12e9eb41c74ae&#45;&gt;dir_4270bfced15e0e73154b13468c7c9ad9</title>
<path fill="none" stroke="black" d="M56.15,-180.05C64.37,-189.73 75.87,-200.73 89,-206 114.57,-216.26 125.67,-216.84 151,-206 160.13,-202.09 168.21,-195.13 174.79,-187.87"/>
<polygon fill="black" stroke="black" points="177.62,-189.94 181.32,-180.01 172.24,-185.47 177.62,-189.94"/>
<g id="a_edge5&#45;headlabel"><a xlink:href="dir_000015_000007.html" target="_top" xlink:title="1">
<text text-anchor="middle" x="177.51" y="-192.02" font-family="Helvetica,sans-Serif" font-size="10.00">1</text>
</a>
</g>
</g>
<!-- dir_cbdb8362360e11eafe2fa3bc74cf0ffd&#45;&gt;dir_f32c53f2c0f0ccaeb11076e30674d5f4 -->
<g id="edge1" class="edge">
<title>dir_cbdb8362360e11eafe2fa3bc74cf0ffd&#45;&gt;dir_f32c53f2c0f0ccaeb11076e30674d5f4</title>
<path fill="none" stroke="black" d="M173.94,-71.7C165.5,-63.14 155.18,-52.66 145.96,-43.3"/>
<polygon fill="black" stroke="black" points="148.37,-40.77 138.86,-36.1 143.39,-45.68 148.37,-40.77"/>
<g id="a_edge1&#45;headlabel"><a xlink:href="dir_000019_000010.html" target="_top" xlink:title="1">
<text text-anchor="middle" x="152.92" y="-38.84" font-family="Helvetica,sans-Serif" font-size="10.00">1</text>
</a>
</g>
</g>
<!-- dir_4270bfced15e0e73154b13468c7c9ad9&#45;&gt;dir_46e3939a85035f9eacdef8d7cc3159ad -->
<g id="edge6" class="edge">
<title>dir_4270bfced15e0e73154b13468c7c9ad9&#45;&gt;dir_46e3939a85035f9eacdef8d7cc3159ad</title>
<path fill="none" stroke="black" d="M173.22,-143.7C163.25,-134.97 150.99,-124.24 140.14,-114.75"/>
<polygon fill="black" stroke="black" points="142.38,-112.06 132.55,-108.1 137.77,-117.32 142.38,-112.06"/>
<g id="a_edge6&#45;headlabel"><a xlink:href="dir_000007_000014.html" target="_top" xlink:title="1">
<text text-anchor="middle" x="146.95" y="-109.79" font-family="Helvetica,sans-Serif" font-size="10.00">1</text>
</a>
</g>
</g>
<!-- dir_4270bfced15e0e73154b13468c7c9ad9&#45;&gt;dir_cbdb8362360e11eafe2fa3bc74cf0ffd -->
<g id="edge7" class="edge">
<title>dir_4270bfced15e0e73154b13468c7c9ad9&#45;&gt;dir_cbdb8362360e11eafe2fa3bc74cf0ffd</title>
<path fill="none" stroke="black" d="M192.51,-143.7C192.29,-135.98 192.02,-126.71 191.77,-118.11"/>
<polygon fill="black" stroke="black" points="195.27,-118 191.49,-108.1 188.28,-118.2 195.27,-118"/>
<g id="a_edge7&#45;headlabel"><a xlink:href="dir_000007_000019.html" target="_top" xlink:title="1">
<text text-anchor="middle" x="198.21" y="-119.01" font-family="Helvetica,sans-Serif" font-size="10.00">1</text>
</a>
</g>
</g>
</g>
</svg>
