<?xml version="1.0" encoding="UTF-8" standalone="no"?>
<!DOCTYPE svg PUBLIC "-//W3C//DTD SVG 1.1//EN"
 "http://www.w3.org/Graphics/SVG/1.1/DTD/svg11.dtd">
<!-- Generated by graphviz version 2.43.0 (0)
 -->
<!-- Title: runtime/src/docker_commands.cpp Pages: 1 -->
<!--zoomable 263 -->
<svg id="main" version="1.1" xmlns="http://www.w3.org/2000/svg" xmlns:xlink="http://www.w3.org/1999/xlink" xml:space="preserve" onload="init(evt)">
<style type="text/css"><![CDATA[
.edge:hover path { stroke: red; }
.edge:hover polygon { stroke: red; fill: red; }
]]></style>
<script type="text/javascript"><![CDATA[
var edges = document.getElementsByTagName('g');
if (edges && edges.length) {
  for (var i=0;i<edges.length;i++) {
    if (edges[i].id.substr(0,4)=='edge') {
      edges[i].setAttribute('class','edge');
    }
  }
}
]]></script>
        <defs>
                <circle id="rim" cx="0" cy="0" r="7"/>
                <circle id="rim2" cx="0" cy="0" r="3.5"/>
                <g id="zoomPlus">
                        <use xlink:href="#rim" fill="#404040">
                                <set attributeName="fill" to="#808080" begin="zoomplus.mouseover" end="zoomplus.mouseout"/>
                        </use>
                        <path d="M-4,0h8M0,-4v8" fill="none" stroke="white" stroke-width="1.5" pointer-events="none"/>
                </g>
                <g id="zoomMin">
                        <use xlink:href="#rim" fill="#404040">
                                <set attributeName="fill" to="#808080" begin="zoomminus.mouseover" end="zoomminus.mouseout"/>
                        </use>
                        <path d="M-4,0h8" fill="none" stroke="white" stroke-width="1.5" pointer-events="none"/>
                </g>
                <g id="dirArrow">
                        <path fill="none" stroke="white" stroke-width="1.5" d="M0,-3.0v7 M-2.5,-0.5L0,-3.0L2.5,-0.5"/>
                </g>
               <g id="resetDef">
                       <use xlink:href="#rim2" fill="#404040">
                               <set attributeName="fill" to="#808080" begin="reset.mouseover" end="reset.mouseout"/>
                       </use>
               </g>
        </defs>

<script type="text/javascript">
var viewWidth = 732;
var viewHeight = 263;
var sectionId = 'dynsection-0';
</script>
<script xlink:href="svgpan.js"/>
<svg id="graph" class="graph">
<g id="viewport">
<title>runtime/src/docker_commands.cpp</title>
<polygon fill="white" stroke="transparent" points="-4,4 -4,-259 727.58,-259 727.58,4 -4,4"/>
<!-- Node1 -->
<g id="node1" class="node">
<title>Node1</title>
<g id="a_node1"><a xlink:title="Implements Docker command classes for container operations.">
<polygon fill="#bfbfbf" stroke="black" points="296.08,-224.5 296.08,-254.5 403.08,-254.5 403.08,-224.5 296.08,-224.5"/>
<text text-anchor="start" x="304.08" y="-242.5" font-family="Helvetica,sans-Serif" font-size="10.00">runtime/src/docker</text>
<text text-anchor="middle" x="349.58" y="-231.5" font-family="Helvetica,sans-Serif" font-size="10.00">_commands.cpp</text>
</a>
</g>
</g>
<!-- Node2 -->
<g id="node2" class="node">
<title>Node2</title>
<g id="a_node2"><a xlink:href="docker__commands_8hpp.html" target="_top" xlink:title="Declares Docker command classes for container operations.">
<polygon fill="white" stroke="black" points="56.58,-168.5 56.58,-187.5 202.58,-187.5 202.58,-168.5 56.58,-168.5"/>
<text text-anchor="middle" x="129.58" y="-175.5" font-family="Helvetica,sans-Serif" font-size="10.00">inc/docker_commands.hpp</text>
</a>
</g>
</g>
<!-- Node1&#45;&gt;Node2 -->
<g id="edge1" class="edge">
<title>Node1&#45;&gt;Node2</title>
<path fill="none" stroke="midnightblue" d="M297.73,-224.47C258.94,-213.99 206.63,-199.84 170.71,-190.12"/>
<polygon fill="midnightblue" stroke="midnightblue" points="171.6,-186.74 161.04,-187.51 169.78,-193.5 171.6,-186.74"/>
</g>
<!-- Node8 -->
<g id="node8" class="node">
<title>Node8</title>
<g id="a_node8"><a xlink:title=" ">
<polygon fill="white" stroke="#bfbfbf" points="227.08,-168.5 227.08,-187.5 276.08,-187.5 276.08,-168.5 227.08,-168.5"/>
<text text-anchor="middle" x="251.58" y="-175.5" font-family="Helvetica,sans-Serif" font-size="10.00">cstdlib</text>
</a>
</g>
</g>
<!-- Node1&#45;&gt;Node8 -->
<g id="edge11" class="edge">
<title>Node1&#45;&gt;Node8</title>
<path fill="none" stroke="midnightblue" d="M326.36,-224.4C310.8,-214.95 290.39,-202.56 274.82,-193.11"/>
<polygon fill="midnightblue" stroke="midnightblue" points="276.21,-189.86 265.84,-187.66 272.58,-195.84 276.21,-189.86"/>
</g>
<!-- Node9 -->
<g id="node9" class="node">
<title>Node9</title>
<g id="a_node9"><a xlink:title=" ">
<polygon fill="white" stroke="#bfbfbf" points="294.58,-168.5 294.58,-187.5 404.58,-187.5 404.58,-168.5 294.58,-168.5"/>
<text text-anchor="middle" x="349.58" y="-175.5" font-family="Helvetica,sans-Serif" font-size="10.00">nlohmann/json.hpp</text>
</a>
</g>
</g>
<!-- Node1&#45;&gt;Node9 -->
<g id="edge12" class="edge">
<title>Node1&#45;&gt;Node9</title>
<path fill="none" stroke="midnightblue" d="M349.58,-224.4C349.58,-216.47 349.58,-206.46 349.58,-197.86"/>
<polygon fill="midnightblue" stroke="midnightblue" points="353.08,-197.66 349.58,-187.66 346.08,-197.66 353.08,-197.66"/>
</g>
<!-- Node10 -->
<g id="node10" class="node">
<title>Node10</title>
<g id="a_node10"><a xlink:href="common_8hpp.html" target="_top" xlink:title="Defines common constants, string views, and utility structures for the application.">
<polygon fill="white" stroke="black" points="422.58,-168.5 422.58,-187.5 520.58,-187.5 520.58,-168.5 422.58,-168.5"/>
<text text-anchor="middle" x="471.58" y="-175.5" font-family="Helvetica,sans-Serif" font-size="10.00">inc/common.hpp</text>
</a>
</g>
</g>
<!-- Node1&#45;&gt;Node10 -->
<g id="edge13" class="edge">
<title>Node1&#45;&gt;Node10</title>
<path fill="none" stroke="midnightblue" d="M378.5,-224.4C398.6,-214.59 425.2,-201.62 444.82,-192.05"/>
<polygon fill="midnightblue" stroke="midnightblue" points="446.38,-195.19 453.83,-187.66 443.31,-188.9 446.38,-195.19"/>
</g>
<!-- Node13 -->
<g id="node13" class="node">
<title>Node13</title>
<g id="a_node13"><a xlink:href="logging_8hpp.html" target="_top" xlink:title="Logging macros and configuration for the Container Manager.">
<polygon fill="white" stroke="black" points="587.08,-168.5 587.08,-187.5 678.08,-187.5 678.08,-168.5 587.08,-168.5"/>
<text text-anchor="middle" x="632.58" y="-175.5" font-family="Helvetica,sans-Serif" font-size="10.00">inc/logging.hpp</text>
</a>
</g>
</g>
<!-- Node1&#45;&gt;Node13 -->
<g id="edge17" class="edge">
<title>Node1&#45;&gt;Node13</title>
<path fill="none" stroke="midnightblue" d="M403.15,-227.24C454.57,-216.43 531.66,-200.22 582.04,-189.63"/>
<polygon fill="midnightblue" stroke="midnightblue" points="582.99,-193 592.06,-187.52 581.55,-186.15 582.99,-193"/>
</g>
<!-- Node3 -->
<g id="node3" class="node">
<title>Node3</title>
<g id="a_node3"><a xlink:title=" ">
<polygon fill="white" stroke="#bfbfbf" points="152.58,-0.5 152.58,-19.5 196.58,-19.5 196.58,-0.5 152.58,-0.5"/>
<text text-anchor="middle" x="174.58" y="-7.5" font-family="Helvetica,sans-Serif" font-size="10.00">string</text>
</a>
</g>
</g>
<!-- Node2&#45;&gt;Node3 -->
<g id="edge2" class="edge">
<title>Node2&#45;&gt;Node3</title>
<path fill="none" stroke="midnightblue" d="M108.26,-168.38C64.77,-149.55 -27.16,-102.72 8.58,-56 24.76,-34.86 98.93,-21.34 142.46,-15.08"/>
<polygon fill="midnightblue" stroke="midnightblue" points="143.13,-18.52 152.55,-13.68 142.17,-11.58 143.13,-18.52"/>
</g>
<!-- Node4 -->
<g id="node4" class="node">
<title>Node4</title>
<g id="a_node4"><a xlink:title=" ">
<polygon fill="white" stroke="#bfbfbf" points="17.58,-56.5 17.58,-75.5 75.58,-75.5 75.58,-56.5 17.58,-56.5"/>
<text text-anchor="middle" x="46.58" y="-63.5" font-family="Helvetica,sans-Serif" font-size="10.00">memory</text>
</a>
</g>
</g>
<!-- Node2&#45;&gt;Node4 -->
<g id="edge3" class="edge">
<title>Node2&#45;&gt;Node4</title>
<path fill="none" stroke="midnightblue" d="M111.27,-168.46C96.85,-160.83 77.28,-148.35 65.58,-132 55.85,-118.41 51.07,-99.86 48.74,-86.06"/>
<polygon fill="midnightblue" stroke="midnightblue" points="52.16,-85.21 47.31,-75.79 45.23,-86.18 52.16,-85.21"/>
</g>
<!-- Node5 -->
<g id="node5" class="node">
<title>Node5</title>
<g id="a_node5"><a xlink:href="commands_8hpp.html" target="_top" xlink:title="Declares the Command interface and Invoker class for the command pattern.">
<polygon fill="white" stroke="black" points="75.08,-112.5 75.08,-131.5 184.08,-131.5 184.08,-112.5 75.08,-112.5"/>
<text text-anchor="middle" x="129.58" y="-119.5" font-family="Helvetica,sans-Serif" font-size="10.00">inc/commands.hpp</text>
</a>
</g>
</g>
<!-- Node2&#45;&gt;Node5 -->
<g id="edge4" class="edge">
<title>Node2&#45;&gt;Node5</title>
<path fill="none" stroke="midnightblue" d="M129.58,-168.08C129.58,-161.01 129.58,-150.86 129.58,-141.99"/>
<polygon fill="midnightblue" stroke="midnightblue" points="133.08,-141.75 129.58,-131.75 126.08,-141.75 133.08,-141.75"/>
</g>
<!-- Node7 -->
<g id="node7" class="node">
<title>Node7</title>
<g id="a_node7"><a xlink:href="container__request_8hpp.html" target="_top" xlink:title="Data structure for representing a container operation request.">
<polygon fill="white" stroke="black" points="235.08,-56.5 235.08,-75.5 378.08,-75.5 378.08,-56.5 235.08,-56.5"/>
<text text-anchor="middle" x="306.58" y="-63.5" font-family="Helvetica,sans-Serif" font-size="10.00">inc/container_request.hpp</text>
</a>
</g>
</g>
<!-- Node2&#45;&gt;Node7 -->
<g id="edge9" class="edge">
<title>Node2&#45;&gt;Node7</title>
<path fill="none" stroke="midnightblue" d="M143.47,-168.37C173.98,-149.41 247.05,-104 284.15,-80.94"/>
<polygon fill="midnightblue" stroke="midnightblue" points="286.11,-83.84 292.76,-75.59 282.42,-77.9 286.11,-83.84"/>
</g>
<!-- Node5&#45;&gt;Node3 -->
<g id="edge5" class="edge">
<title>Node5&#45;&gt;Node3</title>
<path fill="none" stroke="midnightblue" d="M125.85,-112.13C121,-99.17 114.09,-74.58 122.58,-56 128.36,-43.36 139.64,-32.91 150.21,-25.27"/>
<polygon fill="midnightblue" stroke="midnightblue" points="152.43,-28 158.8,-19.53 148.54,-22.18 152.43,-28"/>
</g>
<!-- Node5&#45;&gt;Node4 -->
<g id="edge6" class="edge">
<title>Node5&#45;&gt;Node4</title>
<path fill="none" stroke="midnightblue" d="M116.25,-112.32C103.42,-103.98 83.8,-91.21 68.64,-81.35"/>
<polygon fill="midnightblue" stroke="midnightblue" points="70.18,-78.17 59.89,-75.65 66.36,-84.04 70.18,-78.17"/>
</g>
<!-- Node6 -->
<g id="node6" class="node">
<title>Node6</title>
<g id="a_node6"><a xlink:href="status_8hpp.html" target="_top" xlink:title="Defines status codes and a Status struct for standardized error handling.">
<polygon fill="white" stroke="black" points="132.08,-56.5 132.08,-75.5 217.08,-75.5 217.08,-56.5 132.08,-56.5"/>
<text text-anchor="middle" x="174.58" y="-63.5" font-family="Helvetica,sans-Serif" font-size="10.00">inc/status.hpp</text>
</a>
</g>
</g>
<!-- Node5&#45;&gt;Node6 -->
<g id="edge7" class="edge">
<title>Node5&#45;&gt;Node6</title>
<path fill="none" stroke="midnightblue" d="M137.01,-112.08C143.44,-104.38 152.89,-93.03 160.71,-83.65"/>
<polygon fill="midnightblue" stroke="midnightblue" points="163.58,-85.67 167.29,-75.75 158.2,-81.19 163.58,-85.67"/>
</g>
<!-- Node6&#45;&gt;Node3 -->
<g id="edge8" class="edge">
<title>Node6&#45;&gt;Node3</title>
<path fill="none" stroke="midnightblue" d="M174.58,-56.08C174.58,-49.01 174.58,-38.86 174.58,-29.99"/>
<polygon fill="midnightblue" stroke="midnightblue" points="178.08,-29.75 174.58,-19.75 171.08,-29.75 178.08,-29.75"/>
</g>
<!-- Node7&#45;&gt;Node3 -->
<g id="edge10" class="edge">
<title>Node7&#45;&gt;Node3</title>
<path fill="none" stroke="midnightblue" d="M285.67,-56.44C263.85,-47.52 229.43,-33.44 204.69,-23.32"/>
<polygon fill="midnightblue" stroke="midnightblue" points="205.98,-20.06 195.4,-19.52 203.33,-26.54 205.98,-20.06"/>
</g>
<!-- Node10&#45;&gt;Node3 -->
<g id="edge14" class="edge">
<title>Node10&#45;&gt;Node3</title>
<path fill="none" stroke="midnightblue" d="M460.74,-168.19C450.74,-159.67 435.93,-146.03 425.58,-132 403.06,-101.44 416.74,-79.06 386.58,-56 358.69,-34.67 258.78,-20.52 206.69,-14.42"/>
<polygon fill="midnightblue" stroke="midnightblue" points="206.98,-10.93 196.65,-13.28 206.19,-17.89 206.98,-10.93"/>
</g>
<!-- Node11 -->
<g id="node11" class="node">
<title>Node11</title>
<g id="a_node11"><a xlink:title=" ">
<polygon fill="white" stroke="#bfbfbf" points="435.08,-112.5 435.08,-131.5 508.08,-131.5 508.08,-112.5 435.08,-112.5"/>
<text text-anchor="middle" x="471.58" y="-119.5" font-family="Helvetica,sans-Serif" font-size="10.00">string_view</text>
</a>
</g>
</g>
<!-- Node10&#45;&gt;Node11 -->
<g id="edge15" class="edge">
<title>Node10&#45;&gt;Node11</title>
<path fill="none" stroke="midnightblue" d="M471.58,-168.08C471.58,-161.01 471.58,-150.86 471.58,-141.99"/>
<polygon fill="midnightblue" stroke="midnightblue" points="475.08,-141.75 471.58,-131.75 468.08,-141.75 475.08,-141.75"/>
</g>
<!-- Node12 -->
<g id="node12" class="node">
<title>Node12</title>
<g id="a_node12"><a xlink:title=" ">
<polygon fill="white" stroke="#bfbfbf" points="526.08,-112.5 526.08,-131.5 619.08,-131.5 619.08,-112.5 526.08,-112.5"/>
<text text-anchor="middle" x="572.58" y="-119.5" font-family="Helvetica,sans-Serif" font-size="10.00">unordered_map</text>
</a>
</g>
</g>
<!-- Node10&#45;&gt;Node12 -->
<g id="edge16" class="edge">
<title>Node10&#45;&gt;Node12</title>
<path fill="none" stroke="midnightblue" d="M487.81,-168.32C503.94,-159.7 528.88,-146.36 547.55,-136.39"/>
<polygon fill="midnightblue" stroke="midnightblue" points="549.23,-139.46 556.4,-131.65 545.93,-133.28 549.23,-139.46"/>
</g>
<!-- Node14 -->
<g id="node14" class="node">
<title>Node14</title>
<g id="a_node14"><a xlink:title=" ">
<polygon fill="white" stroke="#bfbfbf" points="637.58,-112.5 637.58,-131.5 723.58,-131.5 723.58,-112.5 637.58,-112.5"/>
<text text-anchor="middle" x="680.58" y="-119.5" font-family="Helvetica,sans-Serif" font-size="10.00">glog/logging.h</text>
</a>
</g>
</g>
<!-- Node13&#45;&gt;Node14 -->
<g id="edge18" class="edge">
<title>Node13&#45;&gt;Node14</title>
<path fill="none" stroke="midnightblue" d="M640.51,-168.08C647.43,-160.3 657.65,-148.8 666.04,-139.37"/>
<polygon fill="midnightblue" stroke="midnightblue" points="668.78,-141.55 672.81,-131.75 663.55,-136.9 668.78,-141.55"/>
</g>
</g>
</svg>
        <g id="navigator" transform="translate(0 0)" fill="#404254">
                <rect fill="#f2f5e9" fill-opacity="0.5" stroke="#606060" stroke-width=".5" x="0" y="0" width="60" height="60"/>
                <use id="zoomplus" xlink:href="#zoomPlus" x="17" y="9" onmousedown="handleZoom(evt,'in')"/>
                <use id="zoomminus" xlink:href="#zoomMin" x="42" y="9" onmousedown="handleZoom(evt,'out')"/>
                <use id="reset" xlink:href="#resetDef" x="30" y="36" onmousedown="handleReset()"/>
                <g id="arrowUp" xlink:href="#dirArrow" transform="translate(30 24)" onmousedown="handlePan(0,-1)">
                  <use xlink:href="#rim" fill="#404040">
                        <set attributeName="fill" to="#808080" begin="arrowUp.mouseover" end="arrowUp.mouseout"/>
                  </use>
                  <path fill="none" stroke="white" stroke-width="1.5" d="M0,-3.0v7 M-2.5,-0.5L0,-3.0L2.5,-0.5"/>
                </g>
                <g id="arrowRight" xlink:href="#dirArrow" transform="rotate(90) translate(36 -43)" onmousedown="handlePan(1,0)">
                  <use xlink:href="#rim" fill="#404040">
                        <set attributeName="fill" to="#808080" begin="arrowRight.mouseover" end="arrowRight.mouseout"/>
                  </use>
                  <path fill="none" stroke="white" stroke-width="1.5" d="M0,-3.0v7 M-2.5,-0.5L0,-3.0L2.5,-0.5"/>
                </g>
                <g id="arrowDown" xlink:href="#dirArrow" transform="rotate(180) translate(-30 -48)" onmousedown="handlePan(0,1)">
                  <use xlink:href="#rim" fill="#404040">
                        <set attributeName="fill" to="#808080" begin="arrowDown.mouseover" end="arrowDown.mouseout"/>
                  </use>
                  <path fill="none" stroke="white" stroke-width="1.5" d="M0,-3.0v7 M-2.5,-0.5L0,-3.0L2.5,-0.5"/>
                </g>
                <g id="arrowLeft" xlink:href="#dirArrow" transform="rotate(270) translate(-36 17)" onmousedown="handlePan(-1,0)">
                  <use xlink:href="#rim" fill="#404040">
                        <set attributeName="fill" to="#808080" begin="arrowLeft.mouseover" end="arrowLeft.mouseout"/>
                  </use>
                  <path fill="none" stroke="white" stroke-width="1.5" d="M0,-3.0v7 M-2.5,-0.5L0,-3.0L2.5,-0.5"/>
                </g>
        </g>
        <svg viewBox="0 0 15 15" width="100%" height="30px" preserveAspectRatio="xMaxYMin meet">
         <g id="arrow_out" transform="scale(0.3 0.3)">
          <a xlink:href="docker__commands_8cpp__incl_org.svg" target="_base">
           <rect id="button" ry="5" rx="5" y="6" x="6" height="38" width="38"
                fill="#f2f5e9" fill-opacity="0.5" stroke="#606060" stroke-width="1.0"/>
           <path id="arrow"
             d="M 11.500037,31.436501 C 11.940474,20.09759 22.043105,11.32322 32.158766,21.979434 L 37.068811,17.246167 C 37.068811,17.246167 37.088388,32 37.088388,32 L 22.160133,31.978069 C 22.160133,31.978069 26.997745,27.140456 26.997745,27.140456 C 18.528582,18.264221 13.291696,25.230495 11.500037,31.436501 z"
             style="fill:#404040;"/>
          </a>
         </g>
        </svg>
</svg>
