<?xml version="1.0" encoding="UTF-8" standalone="no"?>
<!DOCTYPE svg PUBLIC "-//W3C//DTD SVG 1.1//EN"
 "http://www.w3.org/Graphics/SVG/1.1/DTD/svg11.dtd">
<!-- Generated by graphviz version 2.43.0 (0)
 -->
<!-- Title: runtime/src/docker_commands.cpp Pages: 1 -->
<svg width="789pt" height="207pt"
 viewBox="0.00 0.00 788.50 207.00" xmlns="http://www.w3.org/2000/svg" xmlns:xlink="http://www.w3.org/1999/xlink">
<g id="graph0" class="graph" transform="scale(1 1) rotate(0) translate(4 203)">
<title>runtime/src/docker_commands.cpp</title>
<polygon fill="white" stroke="transparent" points="-4,4 -4,-203 784.5,-203 784.5,4 -4,4"/>
<!-- Node1 -->
<g id="node1" class="node">
<title>Node1</title>
<g id="a_node1"><a xlink:title="Implements Docker command classes for container operations.">
<polygon fill="#bfbfbf" stroke="black" points="464.5,-168.5 464.5,-198.5 571.5,-198.5 571.5,-168.5 464.5,-168.5"/>
<text text-anchor="start" x="472.5" y="-186.5" font-family="Helvetica,sans-Serif" font-size="10.00">runtime/src/docker</text>
<text text-anchor="middle" x="518" y="-175.5" font-family="Helvetica,sans-Serif" font-size="10.00">_commands.cpp</text>
</a>
</g>
</g>
<!-- Node2 -->
<g id="node2" class="node">
<title>Node2</title>
<g id="a_node2"><a xlink:href="docker__commands_8hpp.html" target="_top" xlink:title="Declares Docker command classes for container operations.">
<polygon fill="white" stroke="black" points="141,-112.5 141,-131.5 287,-131.5 287,-112.5 141,-112.5"/>
<text text-anchor="middle" x="214" y="-119.5" font-family="Helvetica,sans-Serif" font-size="10.00">inc/docker_commands.hpp</text>
</a>
</g>
</g>
<!-- Node1&#45;&gt;Node2 -->
<g id="edge1" class="edge">
<title>Node1&#45;&gt;Node2</title>
<path fill="none" stroke="midnightblue" d="M464.35,-172C408.99,-161.16 323.13,-144.36 267.73,-133.52"/>
<polygon fill="midnightblue" stroke="midnightblue" points="268.25,-130.05 257.76,-131.56 266.9,-136.92 268.25,-130.05"/>
</g>
<!-- Node7 -->
<g id="node7" class="node">
<title>Node7</title>
<g id="a_node7"><a xlink:title=" ">
<polygon fill="white" stroke="#bfbfbf" points="493.5,-112.5 493.5,-131.5 542.5,-131.5 542.5,-112.5 493.5,-112.5"/>
<text text-anchor="middle" x="518" y="-119.5" font-family="Helvetica,sans-Serif" font-size="10.00">cstdlib</text>
</a>
</g>
</g>
<!-- Node1&#45;&gt;Node7 -->
<g id="edge9" class="edge">
<title>Node1&#45;&gt;Node7</title>
<path fill="none" stroke="midnightblue" d="M518,-168.4C518,-160.47 518,-150.46 518,-141.86"/>
<polygon fill="midnightblue" stroke="midnightblue" points="521.5,-141.66 518,-131.66 514.5,-141.66 521.5,-141.66"/>
</g>
<!-- Node8 -->
<g id="node8" class="node">
<title>Node8</title>
<g id="a_node8"><a xlink:title=" ">
<polygon fill="white" stroke="#bfbfbf" points="561,-112.5 561,-131.5 671,-131.5 671,-112.5 561,-112.5"/>
<text text-anchor="middle" x="616" y="-119.5" font-family="Helvetica,sans-Serif" font-size="10.00">nlohmann/json.hpp</text>
</a>
</g>
</g>
<!-- Node1&#45;&gt;Node8 -->
<g id="edge10" class="edge">
<title>Node1&#45;&gt;Node8</title>
<path fill="none" stroke="midnightblue" d="M541.22,-168.4C556.79,-158.95 577.2,-146.56 592.76,-137.11"/>
<polygon fill="midnightblue" stroke="midnightblue" points="595.01,-139.84 601.74,-131.66 591.38,-133.86 595.01,-139.84"/>
</g>
<!-- Node9 -->
<g id="node9" class="node">
<title>Node9</title>
<g id="a_node9"><a xlink:href="common_8hpp.html" target="_top" xlink:title="Defines common constants, string views, and utility structures for the application.">
<polygon fill="white" stroke="black" points="377,-112.5 377,-131.5 475,-131.5 475,-112.5 377,-112.5"/>
<text text-anchor="middle" x="426" y="-119.5" font-family="Helvetica,sans-Serif" font-size="10.00">inc/common.hpp</text>
</a>
</g>
</g>
<!-- Node1&#45;&gt;Node9 -->
<g id="edge11" class="edge">
<title>Node1&#45;&gt;Node9</title>
<path fill="none" stroke="midnightblue" d="M496.2,-168.4C481.59,-158.95 462.43,-146.56 447.82,-137.11"/>
<polygon fill="midnightblue" stroke="midnightblue" points="449.68,-134.15 439.39,-131.66 445.88,-140.03 449.68,-134.15"/>
</g>
<!-- Node12 -->
<g id="node12" class="node">
<title>Node12</title>
<g id="a_node12"><a xlink:href="logging_8hpp.html" target="_top" xlink:title="Logging macros and configuration for the Container Manager.">
<polygon fill="white" stroke="black" points="689.5,-112.5 689.5,-131.5 780.5,-131.5 780.5,-112.5 689.5,-112.5"/>
<text text-anchor="middle" x="735" y="-119.5" font-family="Helvetica,sans-Serif" font-size="10.00">inc/logging.hpp</text>
</a>
</g>
</g>
<!-- Node1&#45;&gt;Node12 -->
<g id="edge15" class="edge">
<title>Node1&#45;&gt;Node12</title>
<path fill="none" stroke="midnightblue" d="M569.15,-168.47C607.24,-158.03 658.57,-143.96 693.98,-134.25"/>
<polygon fill="midnightblue" stroke="midnightblue" points="695.26,-137.53 703.98,-131.51 693.41,-130.78 695.26,-137.53"/>
</g>
<!-- Node3 -->
<g id="node3" class="node">
<title>Node3</title>
<g id="a_node3"><a xlink:title=" ">
<polygon fill="white" stroke="#bfbfbf" points="242,-0.5 242,-19.5 286,-19.5 286,-0.5 242,-0.5"/>
<text text-anchor="middle" x="264" y="-7.5" font-family="Helvetica,sans-Serif" font-size="10.00">string</text>
</a>
</g>
</g>
<!-- Node2&#45;&gt;Node3 -->
<g id="edge2" class="edge">
<title>Node2&#45;&gt;Node3</title>
<path fill="none" stroke="midnightblue" d="M244.25,-112.49C262.13,-105.73 283.3,-94.29 294,-76 303.35,-60.01 291.64,-40.6 280.23,-27.18"/>
<polygon fill="midnightblue" stroke="midnightblue" points="282.69,-24.68 273.35,-19.68 277.53,-29.41 282.69,-24.68"/>
</g>
<!-- Node4 -->
<g id="node4" class="node">
<title>Node4</title>
<g id="a_node4"><a xlink:title=" ">
<polygon fill="white" stroke="#bfbfbf" points="0,-0.5 0,-19.5 58,-19.5 58,-0.5 0,-0.5"/>
<text text-anchor="middle" x="29" y="-7.5" font-family="Helvetica,sans-Serif" font-size="10.00">memory</text>
</a>
</g>
</g>
<!-- Node2&#45;&gt;Node4 -->
<g id="edge3" class="edge">
<title>Node2&#45;&gt;Node4</title>
<path fill="none" stroke="midnightblue" d="M140.9,-114.81C87.98,-108.64 22.91,-96.96 6,-76 -5.33,-61.96 4.65,-41.92 14.78,-27.81"/>
<polygon fill="midnightblue" stroke="midnightblue" points="17.55,-29.95 20.92,-19.9 12.02,-25.66 17.55,-29.95"/>
</g>
<!-- Node5 -->
<g id="node5" class="node">
<title>Node5</title>
<g id="a_node5"><a xlink:href="commands_8hpp.html" target="_top" xlink:title=" ">
<polygon fill="white" stroke="black" points="15.5,-56.5 15.5,-75.5 124.5,-75.5 124.5,-56.5 15.5,-56.5"/>
<text text-anchor="middle" x="70" y="-63.5" font-family="Helvetica,sans-Serif" font-size="10.00">inc/commands.hpp</text>
</a>
</g>
</g>
<!-- Node2&#45;&gt;Node5 -->
<g id="edge4" class="edge">
<title>Node2&#45;&gt;Node5</title>
<path fill="none" stroke="midnightblue" d="M191.18,-112.44C167.17,-103.44 129.17,-89.19 102.13,-79.05"/>
<polygon fill="midnightblue" stroke="midnightblue" points="103.3,-75.75 92.71,-75.52 100.84,-82.3 103.3,-75.75"/>
</g>
<!-- Node6 -->
<g id="node6" class="node">
<title>Node6</title>
<g id="a_node6"><a xlink:href="container__request_8hpp.html" target="_top" xlink:title="Data structure for representing a container operation request.">
<polygon fill="white" stroke="black" points="142.5,-56.5 142.5,-75.5 285.5,-75.5 285.5,-56.5 142.5,-56.5"/>
<text text-anchor="middle" x="214" y="-63.5" font-family="Helvetica,sans-Serif" font-size="10.00">inc/container_request.hpp</text>
</a>
</g>
</g>
<!-- Node2&#45;&gt;Node6 -->
<g id="edge7" class="edge">
<title>Node2&#45;&gt;Node6</title>
<path fill="none" stroke="midnightblue" d="M214,-112.08C214,-105.01 214,-94.86 214,-85.99"/>
<polygon fill="midnightblue" stroke="midnightblue" points="217.5,-85.75 214,-75.75 210.5,-85.75 217.5,-85.75"/>
</g>
<!-- Node5&#45;&gt;Node3 -->
<g id="edge5" class="edge">
<title>Node5&#45;&gt;Node3</title>
<path fill="none" stroke="midnightblue" d="M100.74,-56.44C136.53,-46.48 195.36,-30.11 231.77,-19.97"/>
<polygon fill="midnightblue" stroke="midnightblue" points="233.16,-23.22 241.85,-17.16 231.28,-16.47 233.16,-23.22"/>
</g>
<!-- Node5&#45;&gt;Node4 -->
<g id="edge6" class="edge">
<title>Node5&#45;&gt;Node4</title>
<path fill="none" stroke="midnightblue" d="M63.23,-56.08C57.44,-48.46 48.94,-37.26 41.86,-27.94"/>
<polygon fill="midnightblue" stroke="midnightblue" points="44.48,-25.6 35.64,-19.75 38.9,-29.83 44.48,-25.6"/>
</g>
<!-- Node6&#45;&gt;Node3 -->
<g id="edge8" class="edge">
<title>Node6&#45;&gt;Node3</title>
<path fill="none" stroke="midnightblue" d="M222.26,-56.08C229.46,-48.3 240.11,-36.8 248.85,-27.37"/>
<polygon fill="midnightblue" stroke="midnightblue" points="251.67,-29.47 255.9,-19.75 246.53,-24.71 251.67,-29.47"/>
</g>
<!-- Node9&#45;&gt;Node3 -->
<g id="edge12" class="edge">
<title>Node9&#45;&gt;Node3</title>
<path fill="none" stroke="midnightblue" d="M432.62,-112.5C442.16,-99.13 457.26,-72.98 444,-56 426.02,-32.98 343.17,-19.99 296.39,-14.37"/>
<polygon fill="midnightblue" stroke="midnightblue" points="296.5,-10.86 286.16,-13.19 295.69,-17.82 296.5,-10.86"/>
</g>
<!-- Node10 -->
<g id="node10" class="node">
<title>Node10</title>
<g id="a_node10"><a xlink:title=" ">
<polygon fill="white" stroke="#bfbfbf" points="492.5,-56.5 492.5,-75.5 565.5,-75.5 565.5,-56.5 492.5,-56.5"/>
<text text-anchor="middle" x="529" y="-63.5" font-family="Helvetica,sans-Serif" font-size="10.00">string_view</text>
</a>
</g>
</g>
<!-- Node9&#45;&gt;Node10 -->
<g id="edge13" class="edge">
<title>Node9&#45;&gt;Node10</title>
<path fill="none" stroke="midnightblue" d="M442.55,-112.32C458.99,-103.7 484.43,-90.36 503.47,-80.39"/>
<polygon fill="midnightblue" stroke="midnightblue" points="505.26,-83.4 512.49,-75.65 502.01,-77.2 505.26,-83.4"/>
</g>
<!-- Node11 -->
<g id="node11" class="node">
<title>Node11</title>
<g id="a_node11"><a xlink:title=" ">
<polygon fill="white" stroke="#bfbfbf" points="342.5,-56.5 342.5,-75.5 435.5,-75.5 435.5,-56.5 342.5,-56.5"/>
<text text-anchor="middle" x="389" y="-63.5" font-family="Helvetica,sans-Serif" font-size="10.00">unordered_map</text>
</a>
</g>
</g>
<!-- Node9&#45;&gt;Node11 -->
<g id="edge14" class="edge">
<title>Node9&#45;&gt;Node11</title>
<path fill="none" stroke="midnightblue" d="M419.89,-112.08C414.72,-104.53 407.15,-93.49 400.81,-84.23"/>
<polygon fill="midnightblue" stroke="midnightblue" points="403.54,-82.02 395,-75.75 397.76,-85.98 403.54,-82.02"/>
</g>
<!-- Node13 -->
<g id="node13" class="node">
<title>Node13</title>
<g id="a_node13"><a xlink:title=" ">
<polygon fill="white" stroke="#bfbfbf" points="692,-56.5 692,-75.5 778,-75.5 778,-56.5 692,-56.5"/>
<text text-anchor="middle" x="735" y="-63.5" font-family="Helvetica,sans-Serif" font-size="10.00">glog/logging.h</text>
</a>
</g>
</g>
<!-- Node12&#45;&gt;Node13 -->
<g id="edge16" class="edge">
<title>Node12&#45;&gt;Node13</title>
<path fill="none" stroke="midnightblue" d="M735,-112.08C735,-105.01 735,-94.86 735,-85.99"/>
<polygon fill="midnightblue" stroke="midnightblue" points="738.5,-85.75 735,-75.75 731.5,-85.75 738.5,-85.75"/>
</g>
</g>
</svg>
