<?xml version="1.0" encoding="UTF-8" standalone="no"?>
<!DOCTYPE svg PUBLIC "-//W3C//DTD SVG 1.1//EN"
 "http://www.w3.org/Graphics/SVG/1.1/DTD/svg11.dtd">
<!-- Generated by graphviz version 2.43.0 (0)
 -->
<!-- Title: runtime/inc/docker_api_commands.hpp Pages: 1 -->
<svg width="369pt" height="207pt"
 viewBox="0.00 0.00 368.95 207.00" xmlns="http://www.w3.org/2000/svg" xmlns:xlink="http://www.w3.org/1999/xlink">
<g id="graph0" class="graph" transform="scale(1 1) rotate(0) translate(4 203)">
<title>runtime/inc/docker_api_commands.hpp</title>
<polygon fill="white" stroke="transparent" points="-4,4 -4,-203 364.95,-203 364.95,4 -4,4"/>
<!-- Node1 -->
<g id="node1" class="node">
<title>Node1</title>
<g id="a_node1"><a xlink:title="Declares command classes for managing containers via the Docker HTTP API over a Unix socket.">
<polygon fill="#bfbfbf" stroke="black" points="112,-168.5 112,-198.5 229,-198.5 229,-168.5 112,-168.5"/>
<text text-anchor="start" x="120" y="-186.5" font-family="Helvetica,sans-Serif" font-size="10.00">runtime/inc/docker</text>
<text text-anchor="middle" x="170.5" y="-175.5" font-family="Helvetica,sans-Serif" font-size="10.00">_api_commands.hpp</text>
</a>
</g>
</g>
<!-- Node2 -->
<g id="node2" class="node">
<title>Node2</title>
<g id="a_node2"><a xlink:title=" ">
<polygon fill="white" stroke="#bfbfbf" points="159.5,-0.5 159.5,-19.5 203.5,-19.5 203.5,-0.5 159.5,-0.5"/>
<text text-anchor="middle" x="181.5" y="-7.5" font-family="Helvetica,sans-Serif" font-size="10.00">string</text>
</a>
</g>
</g>
<!-- Node1&#45;&gt;Node2 -->
<g id="edge1" class="edge">
<title>Node1&#45;&gt;Node2</title>
<path fill="none" stroke="midnightblue" d="M229.35,-173.88C276.31,-165.66 336.61,-151.62 351.5,-132 394.16,-75.81 273.55,-35.09 213.38,-18.82"/>
<polygon fill="midnightblue" stroke="midnightblue" points="214.15,-15.4 203.59,-16.24 212.37,-22.17 214.15,-15.4"/>
</g>
<!-- Node3 -->
<g id="node3" class="node">
<title>Node3</title>
<g id="a_node3"><a xlink:title=" ">
<polygon fill="white" stroke="#bfbfbf" points="141.5,-56.5 141.5,-75.5 199.5,-75.5 199.5,-56.5 141.5,-56.5"/>
<text text-anchor="middle" x="170.5" y="-63.5" font-family="Helvetica,sans-Serif" font-size="10.00">memory</text>
</a>
</g>
</g>
<!-- Node1&#45;&gt;Node3 -->
<g id="edge2" class="edge">
<title>Node1&#45;&gt;Node3</title>
<path fill="none" stroke="midnightblue" d="M170.5,-168.34C170.5,-147.62 170.5,-109.02 170.5,-85.9"/>
<polygon fill="midnightblue" stroke="midnightblue" points="174,-85.67 170.5,-75.67 167,-85.67 174,-85.67"/>
</g>
<!-- Node4 -->
<g id="node4" class="node">
<title>Node4</title>
<g id="a_node4"><a xlink:href="status_8hpp.html" target="_top" xlink:title="Defines status codes and a Status struct for standardized error handling.">
<polygon fill="white" stroke="black" points="0,-56.5 0,-75.5 85,-75.5 85,-56.5 0,-56.5"/>
<text text-anchor="middle" x="42.5" y="-63.5" font-family="Helvetica,sans-Serif" font-size="10.00">inc/status.hpp</text>
</a>
</g>
</g>
<!-- Node1&#45;&gt;Node4 -->
<g id="edge3" class="edge">
<title>Node1&#45;&gt;Node4</title>
<path fill="none" stroke="midnightblue" d="M111.68,-178.27C80.03,-172.64 43.49,-160 23.5,-132 13.4,-117.85 21.31,-98.36 29.79,-84.42"/>
<polygon fill="midnightblue" stroke="midnightblue" points="32.91,-86.05 35.54,-75.79 27.08,-82.17 32.91,-86.05"/>
</g>
<!-- Node5 -->
<g id="node5" class="node">
<title>Node5</title>
<g id="a_node5"><a xlink:href="commands_8hpp.html" target="_top" xlink:title="Declares the Command interface and Invoker class for the command pattern.">
<polygon fill="white" stroke="black" points="33,-112.5 33,-131.5 142,-131.5 142,-112.5 33,-112.5"/>
<text text-anchor="middle" x="87.5" y="-119.5" font-family="Helvetica,sans-Serif" font-size="10.00">inc/commands.hpp</text>
</a>
</g>
</g>
<!-- Node1&#45;&gt;Node5 -->
<g id="edge5" class="edge">
<title>Node1&#45;&gt;Node5</title>
<path fill="none" stroke="midnightblue" d="M150.83,-168.4C137.9,-159.13 121.01,-147.03 107.93,-137.65"/>
<polygon fill="midnightblue" stroke="midnightblue" points="109.74,-134.64 99.58,-131.66 105.67,-140.33 109.74,-134.64"/>
</g>
<!-- Node6 -->
<g id="node6" class="node">
<title>Node6</title>
<g id="a_node6"><a xlink:href="container__request_8hpp.html" target="_top" xlink:title="Data structure for representing a container operation request.">
<polygon fill="white" stroke="black" points="199,-112.5 199,-131.5 342,-131.5 342,-112.5 199,-112.5"/>
<text text-anchor="middle" x="270.5" y="-119.5" font-family="Helvetica,sans-Serif" font-size="10.00">inc/container_request.hpp</text>
</a>
</g>
</g>
<!-- Node1&#45;&gt;Node6 -->
<g id="edge9" class="edge">
<title>Node1&#45;&gt;Node6</title>
<path fill="none" stroke="midnightblue" d="M194.2,-168.4C210.23,-158.86 231.3,-146.32 247.24,-136.84"/>
<polygon fill="midnightblue" stroke="midnightblue" points="249.14,-139.78 255.95,-131.66 245.57,-133.76 249.14,-139.78"/>
</g>
<!-- Node4&#45;&gt;Node2 -->
<g id="edge4" class="edge">
<title>Node4&#45;&gt;Node2</title>
<path fill="none" stroke="midnightblue" d="M64.52,-56.44C87.6,-47.48 124.06,-33.31 150.14,-23.18"/>
<polygon fill="midnightblue" stroke="midnightblue" points="151.52,-26.4 159.58,-19.52 148.99,-19.88 151.52,-26.4"/>
</g>
<!-- Node5&#45;&gt;Node2 -->
<g id="edge6" class="edge">
<title>Node5&#45;&gt;Node2</title>
<path fill="none" stroke="midnightblue" d="M92.75,-112.14C100.62,-99.19 116.27,-74.63 132.5,-56 141.77,-45.36 153.36,-34.62 162.94,-26.31"/>
<polygon fill="midnightblue" stroke="midnightblue" points="165.37,-28.83 170.73,-19.69 160.84,-23.49 165.37,-28.83"/>
</g>
<!-- Node5&#45;&gt;Node3 -->
<g id="edge7" class="edge">
<title>Node5&#45;&gt;Node3</title>
<path fill="none" stroke="midnightblue" d="M100.84,-112.32C113.66,-103.98 133.28,-91.21 148.44,-81.35"/>
<polygon fill="midnightblue" stroke="midnightblue" points="150.72,-84.04 157.2,-75.65 146.91,-78.17 150.72,-84.04"/>
</g>
<!-- Node5&#45;&gt;Node4 -->
<g id="edge8" class="edge">
<title>Node5&#45;&gt;Node4</title>
<path fill="none" stroke="midnightblue" d="M80.07,-112.08C73.65,-104.38 64.19,-93.03 56.38,-83.65"/>
<polygon fill="midnightblue" stroke="midnightblue" points="58.88,-81.19 49.79,-75.75 53.51,-85.67 58.88,-81.19"/>
</g>
<!-- Node6&#45;&gt;Node2 -->
<g id="edge10" class="edge">
<title>Node6&#45;&gt;Node2</title>
<path fill="none" stroke="midnightblue" d="M263.52,-112.37C248.76,-94.14 214.21,-51.43 194.99,-27.68"/>
<polygon fill="midnightblue" stroke="midnightblue" points="197.46,-25.16 188.45,-19.59 192.02,-29.57 197.46,-25.16"/>
</g>
</g>
</svg>
