<?xml version="1.0" encoding="UTF-8" standalone="no"?>
<!DOCTYPE svg PUBLIC "-//W3C//DTD SVG 1.1//EN"
 "http://www.w3.org/Graphics/SVG/1.1/DTD/svg11.dtd">
<!-- Generated by graphviz version 2.43.0 (0)
 -->
<!-- Title: runtime/src/docker_api_commands.cpp Pages: 1 -->
<svg width="409pt" height="207pt"
 viewBox="0.00 0.00 408.50 207.00" xmlns="http://www.w3.org/2000/svg" xmlns:xlink="http://www.w3.org/1999/xlink">
<g id="graph0" class="graph" transform="scale(1 1) rotate(0) translate(4 203)">
<title>runtime/src/docker_api_commands.cpp</title>
<polygon fill="white" stroke="transparent" points="-4,4 -4,-203 404.5,-203 404.5,4 -4,4"/>
<!-- Node1 -->
<g id="node1" class="node">
<title>Node1</title>
<g id="a_node1"><a xlink:title=" ">
<polygon fill="#bfbfbf" stroke="black" points="180.5,-168.5 180.5,-198.5 296.5,-198.5 296.5,-168.5 180.5,-168.5"/>
<text text-anchor="start" x="188.5" y="-186.5" font-family="Helvetica,sans-Serif" font-size="10.00">runtime/src/docker</text>
<text text-anchor="middle" x="238.5" y="-175.5" font-family="Helvetica,sans-Serif" font-size="10.00">_api_commands.cpp</text>
</a>
</g>
</g>
<!-- Node2 -->
<g id="node2" class="node">
<title>Node2</title>
<g id="a_node2"><a xlink:href="docker__api__commands_8hpp.html" target="_top" xlink:title=" ">
<polygon fill="white" stroke="black" points="0,-112.5 0,-131.5 167,-131.5 167,-112.5 0,-112.5"/>
<text text-anchor="middle" x="83.5" y="-119.5" font-family="Helvetica,sans-Serif" font-size="10.00">inc/docker_api_commands.hpp</text>
</a>
</g>
</g>
<!-- Node1&#45;&gt;Node2 -->
<g id="edge1" class="edge">
<title>Node1&#45;&gt;Node2</title>
<path fill="none" stroke="midnightblue" d="M201.77,-168.4C175.53,-158.33 140.57,-144.91 115.48,-135.28"/>
<polygon fill="midnightblue" stroke="midnightblue" points="116.64,-131.97 106.05,-131.66 114.14,-138.51 116.64,-131.97"/>
</g>
<!-- Node6 -->
<g id="node6" class="node">
<title>Node6</title>
<g id="a_node6"><a xlink:href="common_8hpp.html" target="_top" xlink:title="Defines common constants, string views, and utility structures for the application.">
<polygon fill="white" stroke="black" points="189.5,-112.5 189.5,-131.5 287.5,-131.5 287.5,-112.5 189.5,-112.5"/>
<text text-anchor="middle" x="238.5" y="-119.5" font-family="Helvetica,sans-Serif" font-size="10.00">inc/common.hpp</text>
</a>
</g>
</g>
<!-- Node1&#45;&gt;Node6 -->
<g id="edge7" class="edge">
<title>Node1&#45;&gt;Node6</title>
<path fill="none" stroke="midnightblue" d="M238.5,-168.4C238.5,-160.47 238.5,-150.46 238.5,-141.86"/>
<polygon fill="midnightblue" stroke="midnightblue" points="242,-141.66 238.5,-131.66 235,-141.66 242,-141.66"/>
</g>
<!-- Node8 -->
<g id="node8" class="node">
<title>Node8</title>
<g id="a_node8"><a xlink:href="logging_8hpp.html" target="_top" xlink:title="Logging macros and configuration for the Container Manager.">
<polygon fill="white" stroke="black" points="309,-112.5 309,-131.5 400,-131.5 400,-112.5 309,-112.5"/>
<text text-anchor="middle" x="354.5" y="-119.5" font-family="Helvetica,sans-Serif" font-size="10.00">inc/logging.hpp</text>
</a>
</g>
</g>
<!-- Node1&#45;&gt;Node8 -->
<g id="edge10" class="edge">
<title>Node1&#45;&gt;Node8</title>
<path fill="none" stroke="midnightblue" d="M265.99,-168.4C284.93,-158.68 309.94,-145.86 328.54,-136.31"/>
<polygon fill="midnightblue" stroke="midnightblue" points="330.32,-139.34 337.62,-131.66 327.13,-133.11 330.32,-139.34"/>
</g>
<!-- Node3 -->
<g id="node3" class="node">
<title>Node3</title>
<g id="a_node3"><a xlink:title=" ">
<polygon fill="white" stroke="#bfbfbf" points="134.5,-0.5 134.5,-19.5 178.5,-19.5 178.5,-0.5 134.5,-0.5"/>
<text text-anchor="middle" x="156.5" y="-7.5" font-family="Helvetica,sans-Serif" font-size="10.00">string</text>
</a>
</g>
</g>
<!-- Node2&#45;&gt;Node3 -->
<g id="edge2" class="edge">
<title>Node2&#45;&gt;Node3</title>
<path fill="none" stroke="midnightblue" d="M97.64,-112.34C109.61,-104.31 126.4,-91.32 136.5,-76 145.74,-61.98 150.88,-43.48 153.63,-29.81"/>
<polygon fill="midnightblue" stroke="midnightblue" points="157.13,-30.11 155.42,-19.66 150.24,-28.9 157.13,-30.11"/>
</g>
<!-- Node4 -->
<g id="node4" class="node">
<title>Node4</title>
<g id="a_node4"><a xlink:title=" ">
<polygon fill="white" stroke="#bfbfbf" points="3.5,-0.5 3.5,-19.5 61.5,-19.5 61.5,-0.5 3.5,-0.5"/>
<text text-anchor="middle" x="32.5" y="-7.5" font-family="Helvetica,sans-Serif" font-size="10.00">memory</text>
</a>
</g>
</g>
<!-- Node2&#45;&gt;Node4 -->
<g id="edge3" class="edge">
<title>Node2&#45;&gt;Node4</title>
<path fill="none" stroke="midnightblue" d="M56.57,-112.36C39.78,-105.41 19.52,-93.82 9.5,-76 0.92,-60.74 9.65,-41.7 18.71,-28.18"/>
<polygon fill="midnightblue" stroke="midnightblue" points="21.75,-29.96 24.83,-19.82 16.1,-25.82 21.75,-29.96"/>
</g>
<!-- Node5 -->
<g id="node5" class="node">
<title>Node5</title>
<g id="a_node5"><a xlink:href="commands_8hpp.html" target="_top" xlink:title=" ">
<polygon fill="white" stroke="black" points="19,-56.5 19,-75.5 128,-75.5 128,-56.5 19,-56.5"/>
<text text-anchor="middle" x="73.5" y="-63.5" font-family="Helvetica,sans-Serif" font-size="10.00">inc/commands.hpp</text>
</a>
</g>
</g>
<!-- Node2&#45;&gt;Node5 -->
<g id="edge4" class="edge">
<title>Node2&#45;&gt;Node5</title>
<path fill="none" stroke="midnightblue" d="M81.85,-112.08C80.52,-104.93 78.62,-94.64 76.96,-85.69"/>
<polygon fill="midnightblue" stroke="midnightblue" points="80.38,-84.95 75.12,-75.75 73.5,-86.22 80.38,-84.95"/>
</g>
<!-- Node5&#45;&gt;Node3 -->
<g id="edge5" class="edge">
<title>Node5&#45;&gt;Node3</title>
<path fill="none" stroke="midnightblue" d="M86.84,-56.32C99.66,-47.98 119.28,-35.21 134.44,-25.35"/>
<polygon fill="midnightblue" stroke="midnightblue" points="136.72,-28.04 143.2,-19.65 132.91,-22.17 136.72,-28.04"/>
</g>
<!-- Node5&#45;&gt;Node4 -->
<g id="edge6" class="edge">
<title>Node5&#45;&gt;Node4</title>
<path fill="none" stroke="midnightblue" d="M66.73,-56.08C60.94,-48.46 52.44,-37.26 45.36,-27.94"/>
<polygon fill="midnightblue" stroke="midnightblue" points="47.98,-25.6 39.14,-19.75 42.4,-29.83 47.98,-25.6"/>
</g>
<!-- Node6&#45;&gt;Node3 -->
<g id="edge8" class="edge">
<title>Node6&#45;&gt;Node3</title>
<path fill="none" stroke="midnightblue" d="M232.07,-112.37C218.47,-94.14 186.64,-51.43 168.93,-27.68"/>
<polygon fill="midnightblue" stroke="midnightblue" points="171.69,-25.52 162.9,-19.59 166.08,-29.7 171.69,-25.52"/>
</g>
<!-- Node7 -->
<g id="node7" class="node">
<title>Node7</title>
<g id="a_node7"><a xlink:title=" ">
<polygon fill="white" stroke="#bfbfbf" points="223,-56.5 223,-75.5 296,-75.5 296,-56.5 223,-56.5"/>
<text text-anchor="middle" x="259.5" y="-63.5" font-family="Helvetica,sans-Serif" font-size="10.00">string_view</text>
</a>
</g>
</g>
<!-- Node6&#45;&gt;Node7 -->
<g id="edge9" class="edge">
<title>Node6&#45;&gt;Node7</title>
<path fill="none" stroke="midnightblue" d="M241.97,-112.08C244.81,-104.77 248.93,-94.18 252.46,-85.1"/>
<polygon fill="midnightblue" stroke="midnightblue" points="255.73,-86.34 256.1,-75.75 249.21,-83.8 255.73,-86.34"/>
</g>
<!-- Node9 -->
<g id="node9" class="node">
<title>Node9</title>
<g id="a_node9"><a xlink:title=" ">
<polygon fill="white" stroke="#bfbfbf" points="314.5,-56.5 314.5,-75.5 400.5,-75.5 400.5,-56.5 314.5,-56.5"/>
<text text-anchor="middle" x="357.5" y="-63.5" font-family="Helvetica,sans-Serif" font-size="10.00">glog/logging.h</text>
</a>
</g>
</g>
<!-- Node8&#45;&gt;Node9 -->
<g id="edge11" class="edge">
<title>Node8&#45;&gt;Node9</title>
<path fill="none" stroke="midnightblue" d="M355,-112.08C355.39,-105.01 355.95,-94.86 356.45,-85.99"/>
<polygon fill="midnightblue" stroke="midnightblue" points="359.95,-85.93 357.01,-75.75 352.96,-85.54 359.95,-85.93"/>
</g>
</g>
</svg>
