<?xml version="1.0" encoding="UTF-8" standalone="no"?>
<!DOCTYPE svg PUBLIC "-//W3C//DTD SVG 1.1//EN"
 "http://www.w3.org/Graphics/SVG/1.1/DTD/svg11.dtd">
<!-- Generated by graphviz version 2.43.0 (0)
 -->
<!-- Title: runtime/src/docker_api_commands.cpp Pages: 1 -->
<svg width="918pt" height="263pt"
 viewBox="0.00 0.00 918.00 263.00" xmlns="http://www.w3.org/2000/svg" xmlns:xlink="http://www.w3.org/1999/xlink">
<g id="graph0" class="graph" transform="scale(1 1) rotate(0) translate(4 259)">
<title>runtime/src/docker_api_commands.cpp</title>
<polygon fill="white" stroke="transparent" points="-4,4 -4,-259 914,-259 914,4 -4,4"/>
<!-- Node1 -->
<g id="node1" class="node">
<title>Node1</title>
<g id="a_node1"><a xlink:title="Implements Docker API command classes for managing containers via the Docker HTTP API over a Unix soc...">
<polygon fill="#bfbfbf" stroke="black" points="647.5,-224.5 647.5,-254.5 763.5,-254.5 763.5,-224.5 647.5,-224.5"/>
<text text-anchor="start" x="655.5" y="-242.5" font-family="Helvetica,sans-Serif" font-size="10.00">runtime/src/docker</text>
<text text-anchor="middle" x="705.5" y="-231.5" font-family="Helvetica,sans-Serif" font-size="10.00">_api_commands.cpp</text>
</a>
</g>
</g>
<!-- Node2 -->
<g id="node2" class="node">
<title>Node2</title>
<g id="a_node2"><a xlink:href="docker__api__commands_8hpp.html" target="_top" xlink:title="Declares command classes for managing containers via the Docker HTTP API over a Unix socket.">
<polygon fill="white" stroke="black" points="165,-168.5 165,-187.5 332,-187.5 332,-168.5 165,-168.5"/>
<text text-anchor="middle" x="248.5" y="-175.5" font-family="Helvetica,sans-Serif" font-size="10.00">inc/docker_api_commands.hpp</text>
</a>
</g>
</g>
<!-- Node1&#45;&gt;Node2 -->
<g id="edge1" class="edge">
<title>Node1&#45;&gt;Node2</title>
<path fill="none" stroke="midnightblue" d="M647.16,-230.9C564.82,-220.18 414.48,-200.61 323.81,-188.8"/>
<polygon fill="midnightblue" stroke="midnightblue" points="324.24,-185.33 313.87,-187.51 323.33,-192.27 324.24,-185.33"/>
</g>
<!-- Node8 -->
<g id="node8" class="node">
<title>Node8</title>
<g id="a_node8"><a xlink:href="common_8hpp.html" target="_top" xlink:title="Defines common constants, string views, and utility structures for the application.">
<polygon fill="white" stroke="black" points="493.5,-168.5 493.5,-187.5 591.5,-187.5 591.5,-168.5 493.5,-168.5"/>
<text text-anchor="middle" x="542.5" y="-175.5" font-family="Helvetica,sans-Serif" font-size="10.00">inc/common.hpp</text>
</a>
</g>
</g>
<!-- Node1&#45;&gt;Node8 -->
<g id="edge12" class="edge">
<title>Node1&#45;&gt;Node8</title>
<path fill="none" stroke="midnightblue" d="M666.87,-224.4C639.16,-214.28 602.19,-200.79 575.78,-191.15"/>
<polygon fill="midnightblue" stroke="midnightblue" points="576.81,-187.8 566.22,-187.66 574.41,-194.37 576.81,-187.8"/>
</g>
<!-- Node11 -->
<g id="node11" class="node">
<title>Node11</title>
<g id="a_node11"><a xlink:href="logging_8hpp.html" target="_top" xlink:title="Logging macros and configuration for the Container Manager.">
<polygon fill="white" stroke="black" points="697,-168.5 697,-187.5 788,-187.5 788,-168.5 697,-168.5"/>
<text text-anchor="middle" x="742.5" y="-175.5" font-family="Helvetica,sans-Serif" font-size="10.00">inc/logging.hpp</text>
</a>
</g>
</g>
<!-- Node1&#45;&gt;Node11 -->
<g id="edge16" class="edge">
<title>Node1&#45;&gt;Node11</title>
<path fill="none" stroke="midnightblue" d="M714.27,-224.4C719.48,-216.02 726.13,-205.33 731.67,-196.42"/>
<polygon fill="midnightblue" stroke="midnightblue" points="734.81,-198 737.12,-187.66 728.86,-194.3 734.81,-198"/>
</g>
<!-- Node12 -->
<g id="node12" class="node">
<title>Node12</title>
<g id="a_node12"><a xlink:title=" ">
<polygon fill="white" stroke="#bfbfbf" points="749.5,-112.5 749.5,-131.5 809.5,-131.5 809.5,-112.5 749.5,-112.5"/>
<text text-anchor="middle" x="779.5" y="-119.5" font-family="Helvetica,sans-Serif" font-size="10.00">iostream</text>
</a>
</g>
</g>
<!-- Node1&#45;&gt;Node12 -->
<g id="edge20" class="edge">
<title>Node1&#45;&gt;Node12</title>
<path fill="none" stroke="midnightblue" d="M752.14,-224.36C769.54,-216.57 787.48,-204.93 797.5,-188 806.23,-173.24 799.08,-154.1 791.37,-140.41"/>
<polygon fill="midnightblue" stroke="midnightblue" points="794.11,-138.2 785.86,-131.56 788.17,-141.9 794.11,-138.2"/>
</g>
<!-- Node13 -->
<g id="node13" class="node">
<title>Node13</title>
<g id="a_node13"><a xlink:href="curl__handler_8hpp.html" target="_top" xlink:title=" ">
<polygon fill="white" stroke="black" points="533,-56.5 533,-75.5 648,-75.5 648,-56.5 533,-56.5"/>
<text text-anchor="middle" x="590.5" y="-63.5" font-family="Helvetica,sans-Serif" font-size="10.00">inc/curl_handler.hpp</text>
</a>
</g>
</g>
<!-- Node1&#45;&gt;Node13 -->
<g id="edge18" class="edge">
<title>Node1&#45;&gt;Node13</title>
<path fill="none" stroke="midnightblue" d="M700.15,-224.41C689.02,-195.5 663.18,-130.64 648.5,-112 638.95,-99.87 625.45,-89.15 613.88,-81.21"/>
<polygon fill="midnightblue" stroke="midnightblue" points="615.78,-78.28 605.5,-75.71 611.94,-84.13 615.78,-78.28"/>
</g>
<!-- Node14 -->
<g id="node14" class="node">
<title>Node14</title>
<g id="a_node14"><a xlink:title=" ">
<polygon fill="white" stroke="#bfbfbf" points="845,-168.5 845,-187.5 910,-187.5 910,-168.5 845,-168.5"/>
<text text-anchor="middle" x="877.5" y="-175.5" font-family="Helvetica,sans-Serif" font-size="10.00">curl/curl.h</text>
</a>
</g>
</g>
<!-- Node1&#45;&gt;Node14 -->
<g id="edge21" class="edge">
<title>Node1&#45;&gt;Node14</title>
<path fill="none" stroke="midnightblue" d="M746.26,-224.4C775.72,-214.21 815.09,-200.59 843,-190.93"/>
<polygon fill="midnightblue" stroke="midnightblue" points="844.42,-194.15 852.72,-187.57 842.13,-187.53 844.42,-194.15"/>
</g>
<!-- Node3 -->
<g id="node3" class="node">
<title>Node3</title>
<g id="a_node3"><a xlink:title=" ">
<polygon fill="white" stroke="#bfbfbf" points="317.5,-0.5 317.5,-19.5 361.5,-19.5 361.5,-0.5 317.5,-0.5"/>
<text text-anchor="middle" x="339.5" y="-7.5" font-family="Helvetica,sans-Serif" font-size="10.00">string</text>
</a>
</g>
</g>
<!-- Node2&#45;&gt;Node3 -->
<g id="edge2" class="edge">
<title>Node2&#45;&gt;Node3</title>
<path fill="none" stroke="midnightblue" d="M266.77,-168.35C294.99,-153.83 348.16,-121.6 369.5,-76 377.19,-59.56 366.35,-40.73 355.61,-27.58"/>
<polygon fill="midnightblue" stroke="midnightblue" points="358.02,-25.02 348.77,-19.84 352.77,-29.65 358.02,-25.02"/>
</g>
<!-- Node4 -->
<g id="node4" class="node">
<title>Node4</title>
<g id="a_node4"><a xlink:title=" ">
<polygon fill="white" stroke="#bfbfbf" points="141.5,-56.5 141.5,-75.5 199.5,-75.5 199.5,-56.5 141.5,-56.5"/>
<text text-anchor="middle" x="170.5" y="-63.5" font-family="Helvetica,sans-Serif" font-size="10.00">memory</text>
</a>
</g>
</g>
<!-- Node2&#45;&gt;Node4 -->
<g id="edge3" class="edge">
<title>Node2&#45;&gt;Node4</title>
<path fill="none" stroke="midnightblue" d="M242.26,-168.16C233.42,-155.66 216.74,-132.07 202.5,-112 195.9,-102.7 188.52,-92.32 182.52,-83.88"/>
<polygon fill="midnightblue" stroke="midnightblue" points="185.29,-81.74 176.64,-75.62 179.59,-85.8 185.29,-81.74"/>
</g>
<!-- Node5 -->
<g id="node5" class="node">
<title>Node5</title>
<g id="a_node5"><a xlink:href="status_8hpp.html" target="_top" xlink:title="Defines status codes and a Status struct for standardized error handling.">
<polygon fill="white" stroke="black" points="0,-56.5 0,-75.5 85,-75.5 85,-56.5 0,-56.5"/>
<text text-anchor="middle" x="42.5" y="-63.5" font-family="Helvetica,sans-Serif" font-size="10.00">inc/status.hpp</text>
</a>
</g>
</g>
<!-- Node2&#45;&gt;Node5 -->
<g id="edge4" class="edge">
<title>Node2&#45;&gt;Node5</title>
<path fill="none" stroke="midnightblue" d="M164.99,-169.74C134.23,-163.57 100.76,-152.34 75.5,-132 60.89,-120.24 52.13,-100.31 47.35,-85.61"/>
<polygon fill="midnightblue" stroke="midnightblue" points="50.6,-84.23 44.44,-75.61 43.88,-86.19 50.6,-84.23"/>
</g>
<!-- Node6 -->
<g id="node6" class="node">
<title>Node6</title>
<g id="a_node6"><a xlink:href="commands_8hpp.html" target="_top" xlink:title="Declares the Command interface and Invoker class for the command pattern.">
<polygon fill="white" stroke="black" points="85,-112.5 85,-131.5 194,-131.5 194,-112.5 85,-112.5"/>
<text text-anchor="middle" x="139.5" y="-119.5" font-family="Helvetica,sans-Serif" font-size="10.00">inc/commands.hpp</text>
</a>
</g>
</g>
<!-- Node2&#45;&gt;Node6 -->
<g id="edge6" class="edge">
<title>Node2&#45;&gt;Node6</title>
<path fill="none" stroke="midnightblue" d="M230.99,-168.32C213.43,-159.62 186.17,-146.12 165.97,-136.11"/>
<polygon fill="midnightblue" stroke="midnightblue" points="167.48,-132.96 156.97,-131.65 164.38,-139.23 167.48,-132.96"/>
</g>
<!-- Node7 -->
<g id="node7" class="node">
<title>Node7</title>
<g id="a_node7"><a xlink:href="container__request_8hpp.html" target="_top" xlink:title="Data structure for representing a container operation request.">
<polygon fill="white" stroke="black" points="218,-56.5 218,-75.5 361,-75.5 361,-56.5 218,-56.5"/>
<text text-anchor="middle" x="289.5" y="-63.5" font-family="Helvetica,sans-Serif" font-size="10.00">inc/container_request.hpp</text>
</a>
</g>
</g>
<!-- Node2&#45;&gt;Node7 -->
<g id="edge10" class="edge">
<title>Node2&#45;&gt;Node7</title>
<path fill="none" stroke="midnightblue" d="M251.72,-168.37C258.36,-150.54 273.74,-109.3 282.69,-85.27"/>
<polygon fill="midnightblue" stroke="midnightblue" points="286.08,-86.18 286.3,-75.59 279.53,-83.74 286.08,-86.18"/>
</g>
<!-- Node5&#45;&gt;Node3 -->
<g id="edge5" class="edge">
<title>Node5&#45;&gt;Node3</title>
<path fill="none" stroke="midnightblue" d="M85.05,-57.26C145.05,-46.35 253.2,-26.69 307.11,-16.89"/>
<polygon fill="midnightblue" stroke="midnightblue" points="307.93,-20.3 317.14,-15.07 306.68,-13.41 307.93,-20.3"/>
</g>
<!-- Node6&#45;&gt;Node3 -->
<g id="edge7" class="edge">
<title>Node6&#45;&gt;Node3</title>
<path fill="none" stroke="midnightblue" d="M135.04,-112.33C128.74,-98.73 119.39,-72.26 132.5,-56 154.09,-29.21 254.7,-17.54 307.29,-13.2"/>
<polygon fill="midnightblue" stroke="midnightblue" points="307.73,-16.68 317.43,-12.41 307.19,-9.7 307.73,-16.68"/>
</g>
<!-- Node6&#45;&gt;Node4 -->
<g id="edge8" class="edge">
<title>Node6&#45;&gt;Node4</title>
<path fill="none" stroke="midnightblue" d="M144.62,-112.08C148.91,-104.61 155.16,-93.72 160.44,-84.52"/>
<polygon fill="midnightblue" stroke="midnightblue" points="163.53,-86.17 165.48,-75.75 157.46,-82.68 163.53,-86.17"/>
</g>
<!-- Node6&#45;&gt;Node5 -->
<g id="edge9" class="edge">
<title>Node6&#45;&gt;Node5</title>
<path fill="none" stroke="midnightblue" d="M123.92,-112.32C108.5,-103.74 84.69,-90.49 66.79,-80.52"/>
<polygon fill="midnightblue" stroke="midnightblue" points="68.49,-77.46 58.05,-75.65 65.08,-83.58 68.49,-77.46"/>
</g>
<!-- Node7&#45;&gt;Node3 -->
<g id="edge11" class="edge">
<title>Node7&#45;&gt;Node3</title>
<path fill="none" stroke="midnightblue" d="M297.76,-56.08C304.96,-48.3 315.61,-36.8 324.35,-27.37"/>
<polygon fill="midnightblue" stroke="midnightblue" points="327.17,-29.47 331.4,-19.75 322.03,-24.71 327.17,-29.47"/>
</g>
<!-- Node8&#45;&gt;Node3 -->
<g id="edge13" class="edge">
<title>Node8&#45;&gt;Node3</title>
<path fill="none" stroke="midnightblue" d="M516.26,-168.42C495.88,-160.91 467.62,-148.61 446.5,-132 412.45,-105.23 414.59,-88.09 385.5,-56 376.31,-45.86 365.38,-35.12 356.48,-26.68"/>
<polygon fill="midnightblue" stroke="midnightblue" points="358.68,-23.94 348.99,-19.65 353.89,-29.04 358.68,-23.94"/>
</g>
<!-- Node9 -->
<g id="node9" class="node">
<title>Node9</title>
<g id="a_node9"><a xlink:title=" ">
<polygon fill="white" stroke="#bfbfbf" points="456,-112.5 456,-131.5 529,-131.5 529,-112.5 456,-112.5"/>
<text text-anchor="middle" x="492.5" y="-119.5" font-family="Helvetica,sans-Serif" font-size="10.00">string_view</text>
</a>
</g>
</g>
<!-- Node8&#45;&gt;Node9 -->
<g id="edge14" class="edge">
<title>Node8&#45;&gt;Node9</title>
<path fill="none" stroke="midnightblue" d="M534.24,-168.08C527.04,-160.3 516.39,-148.8 507.65,-139.37"/>
<polygon fill="midnightblue" stroke="midnightblue" points="509.97,-136.71 500.6,-131.75 504.83,-141.47 509.97,-136.71"/>
</g>
<!-- Node10 -->
<g id="node10" class="node">
<title>Node10</title>
<g id="a_node10"><a xlink:title=" ">
<polygon fill="white" stroke="#bfbfbf" points="547,-112.5 547,-131.5 640,-131.5 640,-112.5 547,-112.5"/>
<text text-anchor="middle" x="593.5" y="-119.5" font-family="Helvetica,sans-Serif" font-size="10.00">unordered_map</text>
</a>
</g>
</g>
<!-- Node8&#45;&gt;Node10 -->
<g id="edge15" class="edge">
<title>Node8&#45;&gt;Node10</title>
<path fill="none" stroke="midnightblue" d="M550.92,-168.08C558.35,-160.22 569.35,-148.57 578.31,-139.08"/>
<polygon fill="midnightblue" stroke="midnightblue" points="580.91,-141.42 585.24,-131.75 575.82,-136.62 580.91,-141.42"/>
</g>
<!-- Node11&#45;&gt;Node12 -->
<g id="edge17" class="edge">
<title>Node11&#45;&gt;Node12</title>
<path fill="none" stroke="midnightblue" d="M748.61,-168.08C753.78,-160.53 761.35,-149.49 767.69,-140.23"/>
<polygon fill="midnightblue" stroke="midnightblue" points="770.74,-141.98 773.5,-131.75 764.96,-138.02 770.74,-141.98"/>
</g>
<!-- Node13&#45;&gt;Node3 -->
<g id="edge19" class="edge">
<title>Node13&#45;&gt;Node3</title>
<path fill="none" stroke="midnightblue" d="M550.73,-56.44C501.1,-45.77 417.21,-27.72 371.51,-17.89"/>
<polygon fill="midnightblue" stroke="midnightblue" points="372.07,-14.43 361.56,-15.75 370.6,-21.27 372.07,-14.43"/>
</g>
</g>
</svg>
