<?xml version="1.0" encoding="UTF-8" standalone="no"?>
<!DOCTYPE svg PUBLIC "-//W3C//DTD SVG 1.1//EN"
 "http://www.w3.org/Graphics/SVG/1.1/DTD/svg11.dtd">
<!-- Generated by graphviz version 2.43.0 (0)
 -->
<!-- Title: runtime/inc/docker_commands.hpp Pages: 1 -->
<svg width="331pt" height="207pt"
 viewBox="0.00 0.00 330.98 207.00" xmlns="http://www.w3.org/2000/svg" xmlns:xlink="http://www.w3.org/1999/xlink">
<g id="graph0" class="graph" transform="scale(1 1) rotate(0) translate(4 203)">
<title>runtime/inc/docker_commands.hpp</title>
<polygon fill="white" stroke="transparent" points="-4,4 -4,-203 326.98,-203 326.98,4 -4,4"/>
<!-- Node1 -->
<g id="node1" class="node">
<title>Node1</title>
<g id="a_node1"><a xlink:title="Declares Docker command classes for container operations.">
<polygon fill="#bfbfbf" stroke="black" points="11.98,-168.5 11.98,-198.5 118.98,-198.5 118.98,-168.5 11.98,-168.5"/>
<text text-anchor="start" x="19.98" y="-186.5" font-family="Helvetica,sans-Serif" font-size="10.00">runtime/inc/docker</text>
<text text-anchor="middle" x="65.48" y="-175.5" font-family="Helvetica,sans-Serif" font-size="10.00">_commands.hpp</text>
</a>
</g>
</g>
<!-- Node2 -->
<g id="node2" class="node">
<title>Node2</title>
<g id="a_node2"><a xlink:title=" ">
<polygon fill="white" stroke="#bfbfbf" points="118.48,-0.5 118.48,-19.5 162.48,-19.5 162.48,-0.5 118.48,-0.5"/>
<text text-anchor="middle" x="140.48" y="-7.5" font-family="Helvetica,sans-Serif" font-size="10.00">string</text>
</a>
</g>
</g>
<!-- Node1&#45;&gt;Node2 -->
<g id="edge1" class="edge">
<title>Node1&#45;&gt;Node2</title>
<path fill="none" stroke="midnightblue" d="M49.97,-168.26C25.22,-143.79 -17.88,-92.83 8.48,-56 31.07,-24.42 77.16,-14.75 108.44,-11.93"/>
<polygon fill="midnightblue" stroke="midnightblue" points="108.7,-15.42 118.42,-11.21 108.2,-8.44 108.7,-15.42"/>
</g>
<!-- Node3 -->
<g id="node3" class="node">
<title>Node3</title>
<g id="a_node3"><a xlink:title=" ">
<polygon fill="white" stroke="#bfbfbf" points="17.48,-56.5 17.48,-75.5 75.48,-75.5 75.48,-56.5 17.48,-56.5"/>
<text text-anchor="middle" x="46.48" y="-63.5" font-family="Helvetica,sans-Serif" font-size="10.00">memory</text>
</a>
</g>
</g>
<!-- Node1&#45;&gt;Node3 -->
<g id="edge2" class="edge">
<title>Node1&#45;&gt;Node3</title>
<path fill="none" stroke="midnightblue" d="M57.84,-168.39C52.94,-158.52 47.04,-144.85 44.48,-132 41.4,-116.59 42.26,-98.71 43.69,-85.62"/>
<polygon fill="midnightblue" stroke="midnightblue" points="47.18,-85.88 45,-75.52 40.24,-84.98 47.18,-85.88"/>
</g>
<!-- Node4 -->
<g id="node4" class="node">
<title>Node4</title>
<g id="a_node4"><a xlink:href="commands_8hpp.html" target="_top" xlink:title="Declares the Command interface and Invoker class for the command pattern.">
<polygon fill="white" stroke="black" points="52.98,-112.5 52.98,-131.5 161.98,-131.5 161.98,-112.5 52.98,-112.5"/>
<text text-anchor="middle" x="107.48" y="-119.5" font-family="Helvetica,sans-Serif" font-size="10.00">inc/commands.hpp</text>
</a>
</g>
</g>
<!-- Node1&#45;&gt;Node4 -->
<g id="edge3" class="edge">
<title>Node1&#45;&gt;Node4</title>
<path fill="none" stroke="midnightblue" d="M75.43,-168.4C81.47,-159.84 89.21,-148.87 95.58,-139.86"/>
<polygon fill="midnightblue" stroke="midnightblue" points="98.46,-141.85 101.36,-131.66 92.74,-137.81 98.46,-141.85"/>
</g>
<!-- Node6 -->
<g id="node6" class="node">
<title>Node6</title>
<g id="a_node6"><a xlink:href="container__request_8hpp.html" target="_top" xlink:title="Data structure for representing a container operation request.">
<polygon fill="white" stroke="black" points="179.98,-112.5 179.98,-131.5 322.98,-131.5 322.98,-112.5 179.98,-112.5"/>
<text text-anchor="middle" x="251.48" y="-119.5" font-family="Helvetica,sans-Serif" font-size="10.00">inc/container_request.hpp</text>
</a>
</g>
</g>
<!-- Node1&#45;&gt;Node6 -->
<g id="edge8" class="edge">
<title>Node1&#45;&gt;Node6</title>
<path fill="none" stroke="midnightblue" d="M109.56,-168.4C141.7,-158.12 184.73,-144.35 214.96,-134.68"/>
<polygon fill="midnightblue" stroke="midnightblue" points="216.22,-137.95 224.68,-131.57 214.09,-131.28 216.22,-137.95"/>
</g>
<!-- Node4&#45;&gt;Node2 -->
<g id="edge4" class="edge">
<title>Node4&#45;&gt;Node2</title>
<path fill="none" stroke="midnightblue" d="M109.78,-112.13C113.07,-99.57 119.4,-75.94 125.48,-56 128.18,-47.13 131.41,-37.35 134.18,-29.18"/>
<polygon fill="midnightblue" stroke="midnightblue" points="137.54,-30.18 137.47,-19.58 130.91,-27.91 137.54,-30.18"/>
</g>
<!-- Node4&#45;&gt;Node3 -->
<g id="edge5" class="edge">
<title>Node4&#45;&gt;Node3</title>
<path fill="none" stroke="midnightblue" d="M97.68,-112.32C88.66,-104.34 75.07,-92.31 64.16,-82.65"/>
<polygon fill="midnightblue" stroke="midnightblue" points="66.26,-79.84 56.46,-75.83 61.62,-85.08 66.26,-79.84"/>
</g>
<!-- Node5 -->
<g id="node5" class="node">
<title>Node5</title>
<g id="a_node5"><a xlink:href="status_8hpp.html" target="_top" xlink:title="Defines status codes and a Status struct for standardized error handling.">
<polygon fill="white" stroke="black" points="133.98,-56.5 133.98,-75.5 218.98,-75.5 218.98,-56.5 133.98,-56.5"/>
<text text-anchor="middle" x="176.48" y="-63.5" font-family="Helvetica,sans-Serif" font-size="10.00">inc/status.hpp</text>
</a>
</g>
</g>
<!-- Node4&#45;&gt;Node5 -->
<g id="edge6" class="edge">
<title>Node4&#45;&gt;Node5</title>
<path fill="none" stroke="midnightblue" d="M118.56,-112.32C128.96,-104.18 144.74,-91.84 157.2,-82.09"/>
<polygon fill="midnightblue" stroke="midnightblue" points="159.47,-84.75 165.19,-75.83 155.16,-79.24 159.47,-84.75"/>
</g>
<!-- Node5&#45;&gt;Node2 -->
<g id="edge7" class="edge">
<title>Node5&#45;&gt;Node2</title>
<path fill="none" stroke="midnightblue" d="M170.53,-56.08C165.5,-48.53 158.14,-37.49 151.96,-28.23"/>
<polygon fill="midnightblue" stroke="midnightblue" points="154.77,-26.13 146.31,-19.75 148.95,-30.01 154.77,-26.13"/>
</g>
<!-- Node6&#45;&gt;Node2 -->
<g id="edge9" class="edge">
<title>Node6&#45;&gt;Node2</title>
<path fill="none" stroke="midnightblue" d="M250.48,-112.4C248.52,-98.9 242.98,-72.57 228.48,-56 213.63,-39.04 190.84,-27.63 172.17,-20.55"/>
<polygon fill="midnightblue" stroke="midnightblue" points="173.17,-17.19 162.58,-17.14 170.83,-23.79 173.17,-17.19"/>
</g>
</g>
</svg>
