<?xml version="1.0" encoding="UTF-8" standalone="no"?>
<!DOCTYPE svg PUBLIC "-//W3C//DTD SVG 1.1//EN"
 "http://www.w3.org/Graphics/SVG/1.1/DTD/svg11.dtd">
<!-- Generated by graphviz version 2.43.0 (0)
 -->
<!-- Title: runtime/src/docker_commands.cpp Pages: 1 -->
<svg width="1002pt" height="207pt"
 viewBox="0.00 0.00 1001.50 207.00" xmlns="http://www.w3.org/2000/svg" xmlns:xlink="http://www.w3.org/1999/xlink">
<g id="graph0" class="graph" transform="scale(1 1) rotate(0) translate(4 203)">
<title>runtime/src/docker_commands.cpp</title>
<polygon fill="white" stroke="transparent" points="-4,4 -4,-203 997.5,-203 997.5,4 -4,4"/>
<!-- Node1 -->
<g id="node1" class="node">
<title>Node1</title>
<g id="a_node1"><a xlink:title="Implements Docker command classes for container operations.">
<polygon fill="#bfbfbf" stroke="black" points="564.5,-168.5 564.5,-198.5 671.5,-198.5 671.5,-168.5 564.5,-168.5"/>
<text text-anchor="start" x="572.5" y="-186.5" font-family="Helvetica,sans-Serif" font-size="10.00">runtime/src/docker</text>
<text text-anchor="middle" x="618" y="-175.5" font-family="Helvetica,sans-Serif" font-size="10.00">_commands.cpp</text>
</a>
</g>
</g>
<!-- Node2 -->
<g id="node2" class="node">
<title>Node2</title>
<g id="a_node2"><a xlink:href="docker__commands_8hpp.html" target="_top" xlink:title="Declares Docker command classes for container operations.">
<polygon fill="white" stroke="black" points="39,-112.5 39,-131.5 185,-131.5 185,-112.5 39,-112.5"/>
<text text-anchor="middle" x="112" y="-119.5" font-family="Helvetica,sans-Serif" font-size="10.00">inc/docker_commands.hpp</text>
</a>
</g>
</g>
<!-- Node1&#45;&gt;Node2 -->
<g id="edge1" class="edge">
<title>Node1&#45;&gt;Node2</title>
<path fill="none" stroke="midnightblue" d="M564.33,-176.19C475.96,-165.8 299.24,-145.02 194.76,-132.73"/>
<polygon fill="midnightblue" stroke="midnightblue" points="194.91,-129.23 184.57,-131.53 194.1,-136.18 194.91,-129.23"/>
</g>
<!-- Node6 -->
<g id="node6" class="node">
<title>Node6</title>
<g id="a_node6"><a xlink:title=" ">
<polygon fill="white" stroke="#bfbfbf" points="835.5,-112.5 835.5,-131.5 884.5,-131.5 884.5,-112.5 835.5,-112.5"/>
<text text-anchor="middle" x="860" y="-119.5" font-family="Helvetica,sans-Serif" font-size="10.00">cstdlib</text>
</a>
</g>
</g>
<!-- Node1&#45;&gt;Node6 -->
<g id="edge7" class="edge">
<title>Node1&#45;&gt;Node6</title>
<path fill="none" stroke="midnightblue" d="M671.71,-169.3C718.59,-157.77 785.24,-141.38 825.38,-131.51"/>
<polygon fill="midnightblue" stroke="midnightblue" points="826.36,-134.88 835.23,-129.09 824.69,-128.08 826.36,-134.88"/>
</g>
<!-- Node7 -->
<g id="node7" class="node">
<title>Node7</title>
<g id="a_node7"><a xlink:title=" ">
<polygon fill="white" stroke="#bfbfbf" points="582,-0.5 582,-19.5 692,-19.5 692,-0.5 582,-0.5"/>
<text text-anchor="middle" x="637" y="-7.5" font-family="Helvetica,sans-Serif" font-size="10.00">nlohmann/json.hpp</text>
</a>
</g>
</g>
<!-- Node1&#45;&gt;Node7 -->
<g id="edge8" class="edge">
<title>Node1&#45;&gt;Node7</title>
<path fill="none" stroke="midnightblue" d="M662.73,-168.5C703.58,-153.06 761.52,-123.84 788,-76 808.95,-38.16 752.17,-22.34 702.35,-15.73"/>
<polygon fill="midnightblue" stroke="midnightblue" points="702.53,-12.23 692.18,-14.49 701.69,-19.18 702.53,-12.23"/>
</g>
<!-- Node8 -->
<g id="node8" class="node">
<title>Node8</title>
<g id="a_node8"><a xlink:href="common_8hpp.html" target="_top" xlink:title="Defines common constants, string views, and utility structures for the application.">
<polygon fill="white" stroke="black" points="287,-112.5 287,-131.5 385,-131.5 385,-112.5 287,-112.5"/>
<text text-anchor="middle" x="336" y="-119.5" font-family="Helvetica,sans-Serif" font-size="10.00">inc/common.hpp</text>
</a>
</g>
</g>
<!-- Node1&#45;&gt;Node8 -->
<g id="edge9" class="edge">
<title>Node1&#45;&gt;Node8</title>
<path fill="none" stroke="midnightblue" d="M564.29,-171.17C513.16,-160.38 436.78,-144.26 386.68,-133.69"/>
<polygon fill="midnightblue" stroke="midnightblue" points="387.22,-130.23 376.72,-131.59 385.78,-137.08 387.22,-130.23"/>
</g>
<!-- Node11 -->
<g id="node11" class="node">
<title>Node11</title>
<g id="a_node11"><a xlink:href="logging_8hpp.html" target="_top" xlink:title="Logging macros and configuration for the Container Manager.">
<polygon fill="white" stroke="black" points="902.5,-112.5 902.5,-131.5 993.5,-131.5 993.5,-112.5 902.5,-112.5"/>
<text text-anchor="middle" x="948" y="-119.5" font-family="Helvetica,sans-Serif" font-size="10.00">inc/logging.hpp</text>
</a>
</g>
</g>
<!-- Node1&#45;&gt;Node11 -->
<g id="edge13" class="edge">
<title>Node1&#45;&gt;Node11</title>
<path fill="none" stroke="midnightblue" d="M671.75,-172.81C732.48,-161.86 830.83,-144.13 892.33,-133.04"/>
<polygon fill="midnightblue" stroke="midnightblue" points="893.03,-136.47 902.25,-131.25 891.79,-129.58 893.03,-136.47"/>
</g>
<!-- Node13 -->
<g id="node13" class="node">
<title>Node13</title>
<g id="a_node13"><a xlink:href="database__interface_8hpp.html" target="_top" xlink:title="Abstract interface for database operations.">
<polygon fill="white" stroke="black" points="422.5,-56.5 422.5,-75.5 571.5,-75.5 571.5,-56.5 422.5,-56.5"/>
<text text-anchor="middle" x="497" y="-63.5" font-family="Helvetica,sans-Serif" font-size="10.00">inc/database_interface.hpp</text>
</a>
</g>
</g>
<!-- Node1&#45;&gt;Node13 -->
<g id="edge15" class="edge">
<title>Node1&#45;&gt;Node13</title>
<path fill="none" stroke="midnightblue" d="M592.74,-168.3C577.64,-159.1 558.6,-146.21 544,-132 529.24,-117.64 515.85,-98.18 507.17,-84.31"/>
<polygon fill="midnightblue" stroke="midnightblue" points="510.14,-82.45 501.96,-75.72 504.16,-86.09 510.14,-82.45"/>
</g>
<!-- Node14 -->
<g id="node14" class="node">
<title>Node14</title>
<g id="a_node14"><a xlink:href="redis__database_8hpp.html" target="_top" xlink:title="Implements RedisDatabaseHandler for Redis&#45;based database operations.">
<polygon fill="white" stroke="black" points="553.5,-112.5 553.5,-131.5 682.5,-131.5 682.5,-112.5 553.5,-112.5"/>
<text text-anchor="middle" x="618" y="-119.5" font-family="Helvetica,sans-Serif" font-size="10.00">inc/redis_database.hpp</text>
</a>
</g>
</g>
<!-- Node1&#45;&gt;Node14 -->
<g id="edge18" class="edge">
<title>Node1&#45;&gt;Node14</title>
<path fill="none" stroke="midnightblue" d="M618,-168.4C618,-160.47 618,-150.46 618,-141.86"/>
<polygon fill="midnightblue" stroke="midnightblue" points="621.5,-141.66 618,-131.66 614.5,-141.66 621.5,-141.66"/>
</g>
<!-- Node3 -->
<g id="node3" class="node">
<title>Node3</title>
<g id="a_node3"><a xlink:title=" ">
<polygon fill="white" stroke="#bfbfbf" points="281,-0.5 281,-19.5 325,-19.5 325,-0.5 281,-0.5"/>
<text text-anchor="middle" x="303" y="-7.5" font-family="Helvetica,sans-Serif" font-size="10.00">string</text>
</a>
</g>
</g>
<!-- Node2&#45;&gt;Node3 -->
<g id="edge2" class="edge">
<title>Node2&#45;&gt;Node3</title>
<path fill="none" stroke="midnightblue" d="M117.95,-112.13C127.69,-98.27 148.33,-71.44 172,-56 202.54,-36.07 242.86,-23.97 270.66,-17.4"/>
<polygon fill="midnightblue" stroke="midnightblue" points="271.67,-20.77 280.65,-15.16 270.13,-13.94 271.67,-20.77"/>
</g>
<!-- Node4 -->
<g id="node4" class="node">
<title>Node4</title>
<g id="a_node4"><a xlink:title=" ">
<polygon fill="white" stroke="#bfbfbf" points="0,-0.5 0,-19.5 58,-19.5 58,-0.5 0,-0.5"/>
<text text-anchor="middle" x="29" y="-7.5" font-family="Helvetica,sans-Serif" font-size="10.00">memory</text>
</a>
</g>
</g>
<!-- Node2&#45;&gt;Node4 -->
<g id="edge3" class="edge">
<title>Node2&#45;&gt;Node4</title>
<path fill="none" stroke="midnightblue" d="M62.23,-112.45C41.17,-106.1 18.63,-95.09 6,-76 -3.86,-61.1 5.6,-41.47 15.2,-27.7"/>
<polygon fill="midnightblue" stroke="midnightblue" points="18.09,-29.69 21.33,-19.6 12.51,-25.46 18.09,-29.69"/>
</g>
<!-- Node5 -->
<g id="node5" class="node">
<title>Node5</title>
<g id="a_node5"><a xlink:href="commands_8hpp.html" target="_top" xlink:title=" ">
<polygon fill="white" stroke="black" points="15.5,-56.5 15.5,-75.5 124.5,-75.5 124.5,-56.5 15.5,-56.5"/>
<text text-anchor="middle" x="70" y="-63.5" font-family="Helvetica,sans-Serif" font-size="10.00">inc/commands.hpp</text>
</a>
</g>
</g>
<!-- Node2&#45;&gt;Node5 -->
<g id="edge4" class="edge">
<title>Node2&#45;&gt;Node5</title>
<path fill="none" stroke="midnightblue" d="M105.06,-112.08C99.07,-104.38 90.25,-93.03 82.95,-83.65"/>
<polygon fill="midnightblue" stroke="midnightblue" points="85.71,-81.5 76.81,-75.75 80.18,-85.79 85.71,-81.5"/>
</g>
<!-- Node5&#45;&gt;Node3 -->
<g id="edge5" class="edge">
<title>Node5&#45;&gt;Node3</title>
<path fill="none" stroke="midnightblue" d="M106.92,-56.44C152.2,-45.95 228.22,-28.33 271.08,-18.4"/>
<polygon fill="midnightblue" stroke="midnightblue" points="272.03,-21.77 280.98,-16.1 270.44,-14.95 272.03,-21.77"/>
</g>
<!-- Node5&#45;&gt;Node4 -->
<g id="edge6" class="edge">
<title>Node5&#45;&gt;Node4</title>
<path fill="none" stroke="midnightblue" d="M63.23,-56.08C57.44,-48.46 48.94,-37.26 41.86,-27.94"/>
<polygon fill="midnightblue" stroke="midnightblue" points="44.48,-25.6 35.64,-19.75 38.9,-29.83 44.48,-25.6"/>
</g>
<!-- Node8&#45;&gt;Node3 -->
<g id="edge10" class="edge">
<title>Node8&#45;&gt;Node3</title>
<path fill="none" stroke="midnightblue" d="M333.27,-112.39C330.42,-103.34 325.83,-88.69 322,-76 317.28,-60.35 312.08,-42.52 308.32,-29.5"/>
<polygon fill="midnightblue" stroke="midnightblue" points="311.67,-28.49 305.53,-19.85 304.94,-30.42 311.67,-28.49"/>
</g>
<!-- Node9 -->
<g id="node9" class="node">
<title>Node9</title>
<g id="a_node9"><a xlink:title=" ">
<polygon fill="white" stroke="#bfbfbf" points="331.5,-56.5 331.5,-75.5 404.5,-75.5 404.5,-56.5 331.5,-56.5"/>
<text text-anchor="middle" x="368" y="-63.5" font-family="Helvetica,sans-Serif" font-size="10.00">string_view</text>
</a>
</g>
</g>
<!-- Node8&#45;&gt;Node9 -->
<g id="edge11" class="edge">
<title>Node8&#45;&gt;Node9</title>
<path fill="none" stroke="midnightblue" d="M341.28,-112.08C345.71,-104.61 352.16,-93.72 357.62,-84.52"/>
<polygon fill="midnightblue" stroke="midnightblue" points="360.73,-86.14 362.81,-75.75 354.71,-82.57 360.73,-86.14"/>
</g>
<!-- Node10 -->
<g id="node10" class="node">
<title>Node10</title>
<g id="a_node10"><a xlink:title=" ">
<polygon fill="white" stroke="#bfbfbf" points="181.5,-56.5 181.5,-75.5 274.5,-75.5 274.5,-56.5 181.5,-56.5"/>
<text text-anchor="middle" x="228" y="-63.5" font-family="Helvetica,sans-Serif" font-size="10.00">unordered_map</text>
</a>
</g>
</g>
<!-- Node8&#45;&gt;Node10 -->
<g id="edge12" class="edge">
<title>Node8&#45;&gt;Node10</title>
<path fill="none" stroke="midnightblue" d="M318.65,-112.32C301.33,-103.66 274.48,-90.24 254.5,-80.25"/>
<polygon fill="midnightblue" stroke="midnightblue" points="255.82,-77 245.31,-75.65 252.69,-83.26 255.82,-77"/>
</g>
<!-- Node12 -->
<g id="node12" class="node">
<title>Node12</title>
<g id="a_node12"><a xlink:title=" ">
<polygon fill="white" stroke="#bfbfbf" points="905,-56.5 905,-75.5 991,-75.5 991,-56.5 905,-56.5"/>
<text text-anchor="middle" x="948" y="-63.5" font-family="Helvetica,sans-Serif" font-size="10.00">glog/logging.h</text>
</a>
</g>
</g>
<!-- Node11&#45;&gt;Node12 -->
<g id="edge14" class="edge">
<title>Node11&#45;&gt;Node12</title>
<path fill="none" stroke="midnightblue" d="M948,-112.08C948,-105.01 948,-94.86 948,-85.99"/>
<polygon fill="midnightblue" stroke="midnightblue" points="951.5,-85.75 948,-75.75 944.5,-85.75 951.5,-85.75"/>
</g>
<!-- Node13&#45;&gt;Node3 -->
<g id="edge16" class="edge">
<title>Node13&#45;&gt;Node3</title>
<path fill="none" stroke="midnightblue" d="M466.26,-56.44C430.47,-46.48 371.64,-30.11 335.23,-19.97"/>
<polygon fill="midnightblue" stroke="midnightblue" points="335.72,-16.47 325.15,-17.16 333.84,-23.22 335.72,-16.47"/>
</g>
<!-- Node13&#45;&gt;Node7 -->
<g id="edge17" class="edge">
<title>Node13&#45;&gt;Node7</title>
<path fill="none" stroke="midnightblue" d="M519.18,-56.44C542.43,-47.48 579.15,-33.31 605.42,-23.18"/>
<polygon fill="midnightblue" stroke="midnightblue" points="606.85,-26.38 614.92,-19.52 604.33,-19.85 606.85,-26.38"/>
</g>
<!-- Node14&#45;&gt;Node3 -->
<g id="edge21" class="edge">
<title>Node14&#45;&gt;Node3</title>
<path fill="none" stroke="midnightblue" d="M615.53,-112.16C611.02,-97.84 600.05,-69.76 580,-56 540.71,-29.04 399.74,-17.01 335.41,-12.83"/>
<polygon fill="midnightblue" stroke="midnightblue" points="335.61,-9.34 325.41,-12.2 335.17,-16.32 335.61,-9.34"/>
</g>
<!-- Node14&#45;&gt;Node7 -->
<g id="edge22" class="edge">
<title>Node14&#45;&gt;Node7</title>
<path fill="none" stroke="midnightblue" d="M619.49,-112.37C622.56,-94.62 629.63,-53.67 633.79,-29.6"/>
<polygon fill="midnightblue" stroke="midnightblue" points="637.26,-30.04 635.52,-19.59 630.36,-28.85 637.26,-30.04"/>
</g>
<!-- Node14&#45;&gt;Node13 -->
<g id="edge19" class="edge">
<title>Node14&#45;&gt;Node13</title>
<path fill="none" stroke="midnightblue" d="M598.83,-112.44C579.09,-103.64 548.11,-89.81 525.51,-79.72"/>
<polygon fill="midnightblue" stroke="midnightblue" points="526.64,-76.4 516.08,-75.52 523.79,-82.79 526.64,-76.4"/>
</g>
<!-- Node15 -->
<g id="node15" class="node">
<title>Node15</title>
<g id="a_node15"><a xlink:title=" ">
<polygon fill="white" stroke="#bfbfbf" points="665.5,-56.5 665.5,-75.5 778.5,-75.5 778.5,-56.5 665.5,-56.5"/>
<text text-anchor="middle" x="722" y="-63.5" font-family="Helvetica,sans-Serif" font-size="10.00">cpp_redis/cpp_redis</text>
</a>
</g>
</g>
<!-- Node14&#45;&gt;Node15 -->
<g id="edge20" class="edge">
<title>Node14&#45;&gt;Node15</title>
<path fill="none" stroke="midnightblue" d="M634.71,-112.32C651.31,-103.7 677,-90.36 696.22,-80.39"/>
<polygon fill="midnightblue" stroke="midnightblue" points="698.07,-83.37 705.33,-75.65 694.84,-77.16 698.07,-83.37"/>
</g>
</g>
</svg>
