<?xml version="1.0" encoding="UTF-8" standalone="no"?>
<!DOCTYPE svg PUBLIC "-//W3C//DTD SVG 1.1//EN"
 "http://www.w3.org/Graphics/SVG/1.1/DTD/svg11.dtd">
<!-- Generated by graphviz version 2.43.0 (0)
 -->
<!-- Title: database/inc/embedded_database.hpp Pages: 1 -->
<svg width="453pt" height="151pt"
 viewBox="0.00 0.00 452.50 151.00" xmlns="http://www.w3.org/2000/svg" xmlns:xlink="http://www.w3.org/1999/xlink">
<g id="graph0" class="graph" transform="scale(1 1) rotate(0) translate(4 147)">
<title>database/inc/embedded_database.hpp</title>
<polygon fill="white" stroke="transparent" points="-4,4 -4,-147 448.5,-147 448.5,4 -4,4"/>
<!-- Node1 -->
<g id="node1" class="node">
<title>Node1</title>
<g id="a_node1"><a xlink:title="Declares the EmbeddedDatabaseHandler class for a lightweight, fixed&#45;size in&#45;memory database.">
<polygon fill="#bfbfbf" stroke="black" points="54,-112.5 54,-142.5 188,-142.5 188,-112.5 54,-112.5"/>
<text text-anchor="start" x="62" y="-130.5" font-family="Helvetica,sans-Serif" font-size="10.00">database/inc/embedded</text>
<text text-anchor="middle" x="121" y="-119.5" font-family="Helvetica,sans-Serif" font-size="10.00">_database.hpp</text>
</a>
</g>
</g>
<!-- Node2 -->
<g id="node2" class="node">
<title>Node2</title>
<g id="a_node2"><a xlink:title=" ">
<polygon fill="white" stroke="#bfbfbf" points="0,-56.5 0,-75.5 42,-75.5 42,-56.5 0,-56.5"/>
<text text-anchor="middle" x="21" y="-63.5" font-family="Helvetica,sans-Serif" font-size="10.00">array</text>
</a>
</g>
</g>
<!-- Node1&#45;&gt;Node2 -->
<g id="edge1" class="edge">
<title>Node1&#45;&gt;Node2</title>
<path fill="none" stroke="midnightblue" d="M97.3,-112.4C81.27,-102.86 60.2,-90.32 44.26,-80.84"/>
<polygon fill="midnightblue" stroke="midnightblue" points="45.93,-77.76 35.55,-75.66 42.36,-83.78 45.93,-77.76"/>
</g>
<!-- Node3 -->
<g id="node3" class="node">
<title>Node3</title>
<g id="a_node3"><a xlink:title=" ">
<polygon fill="white" stroke="#bfbfbf" points="35,-0.5 35,-19.5 145,-19.5 145,-0.5 35,-0.5"/>
<text text-anchor="middle" x="90" y="-7.5" font-family="Helvetica,sans-Serif" font-size="10.00">nlohmann/json.hpp</text>
</a>
</g>
</g>
<!-- Node1&#45;&gt;Node3 -->
<g id="edge2" class="edge">
<title>Node1&#45;&gt;Node3</title>
<path fill="none" stroke="midnightblue" d="M108.76,-112.12C101.46,-102.57 92.88,-89.36 89,-76 84.62,-60.91 85.3,-43.01 86.83,-29.82"/>
<polygon fill="midnightblue" stroke="midnightblue" points="90.34,-30.02 88.29,-19.63 83.41,-29.03 90.34,-30.02"/>
</g>
<!-- Node4 -->
<g id="node4" class="node">
<title>Node4</title>
<g id="a_node4"><a xlink:href="common_8hpp.html" target="_top" xlink:title="Defines common constants, string views, and utility structures for the application.">
<polygon fill="white" stroke="black" points="264,-56.5 264,-75.5 362,-75.5 362,-56.5 264,-56.5"/>
<text text-anchor="middle" x="313" y="-63.5" font-family="Helvetica,sans-Serif" font-size="10.00">inc/common.hpp</text>
</a>
</g>
</g>
<!-- Node1&#45;&gt;Node4 -->
<g id="edge3" class="edge">
<title>Node1&#45;&gt;Node4</title>
<path fill="none" stroke="midnightblue" d="M166.5,-112.4C199.82,-102.07 244.49,-88.23 275.71,-78.56"/>
<polygon fill="midnightblue" stroke="midnightblue" points="276.83,-81.87 285.34,-75.57 274.75,-75.19 276.83,-81.87"/>
</g>
<!-- Node8 -->
<g id="node8" class="node">
<title>Node8</title>
<g id="a_node8"><a xlink:href="database__interface_8hpp.html" target="_top" xlink:title="Abstract interface for database operations.">
<polygon fill="white" stroke="black" points="97.5,-56.5 97.5,-75.5 246.5,-75.5 246.5,-56.5 97.5,-56.5"/>
<text text-anchor="middle" x="172" y="-63.5" font-family="Helvetica,sans-Serif" font-size="10.00">inc/database_interface.hpp</text>
</a>
</g>
</g>
<!-- Node1&#45;&gt;Node8 -->
<g id="edge7" class="edge">
<title>Node1&#45;&gt;Node8</title>
<path fill="none" stroke="midnightblue" d="M133.09,-112.4C140.57,-103.66 150.22,-92.41 158.03,-83.3"/>
<polygon fill="midnightblue" stroke="midnightblue" points="160.73,-85.53 164.58,-75.66 155.41,-80.97 160.73,-85.53"/>
</g>
<!-- Node5 -->
<g id="node5" class="node">
<title>Node5</title>
<g id="a_node5"><a xlink:title=" ">
<polygon fill="white" stroke="#bfbfbf" points="166,-0.5 166,-19.5 210,-19.5 210,-0.5 166,-0.5"/>
<text text-anchor="middle" x="188" y="-7.5" font-family="Helvetica,sans-Serif" font-size="10.00">string</text>
</a>
</g>
</g>
<!-- Node4&#45;&gt;Node5 -->
<g id="edge4" class="edge">
<title>Node4&#45;&gt;Node5</title>
<path fill="none" stroke="midnightblue" d="M293.19,-56.44C272.71,-47.6 240.52,-33.69 217.14,-23.59"/>
<polygon fill="midnightblue" stroke="midnightblue" points="218.28,-20.27 207.71,-19.52 215.51,-26.7 218.28,-20.27"/>
</g>
<!-- Node6 -->
<g id="node6" class="node">
<title>Node6</title>
<g id="a_node6"><a xlink:title=" ">
<polygon fill="white" stroke="#bfbfbf" points="260.5,-0.5 260.5,-19.5 333.5,-19.5 333.5,-0.5 260.5,-0.5"/>
<text text-anchor="middle" x="297" y="-7.5" font-family="Helvetica,sans-Serif" font-size="10.00">string_view</text>
</a>
</g>
</g>
<!-- Node4&#45;&gt;Node6 -->
<g id="edge5" class="edge">
<title>Node4&#45;&gt;Node6</title>
<path fill="none" stroke="midnightblue" d="M310.36,-56.08C308.21,-48.85 305.12,-38.41 302.45,-29.4"/>
<polygon fill="midnightblue" stroke="midnightblue" points="305.79,-28.34 299.59,-19.75 299.08,-30.33 305.79,-28.34"/>
</g>
<!-- Node7 -->
<g id="node7" class="node">
<title>Node7</title>
<g id="a_node7"><a xlink:title=" ">
<polygon fill="white" stroke="#bfbfbf" points="351.5,-0.5 351.5,-19.5 444.5,-19.5 444.5,-0.5 351.5,-0.5"/>
<text text-anchor="middle" x="398" y="-7.5" font-family="Helvetica,sans-Serif" font-size="10.00">unordered_map</text>
</a>
</g>
</g>
<!-- Node4&#45;&gt;Node7 -->
<g id="edge6" class="edge">
<title>Node4&#45;&gt;Node7</title>
<path fill="none" stroke="midnightblue" d="M326.66,-56.32C339.92,-47.9 360.27,-34.97 375.85,-25.07"/>
<polygon fill="midnightblue" stroke="midnightblue" points="377.81,-27.97 384.38,-19.65 374.06,-22.06 377.81,-27.97"/>
</g>
<!-- Node8&#45;&gt;Node3 -->
<g id="edge9" class="edge">
<title>Node8&#45;&gt;Node3</title>
<path fill="none" stroke="midnightblue" d="M158.83,-56.32C146.15,-47.98 126.77,-35.21 111.79,-25.35"/>
<polygon fill="midnightblue" stroke="midnightblue" points="113.42,-22.23 103.14,-19.65 109.57,-28.08 113.42,-22.23"/>
</g>
<!-- Node8&#45;&gt;Node5 -->
<g id="edge8" class="edge">
<title>Node8&#45;&gt;Node5</title>
<path fill="none" stroke="midnightblue" d="M174.64,-56.08C176.79,-48.85 179.88,-38.41 182.55,-29.4"/>
<polygon fill="midnightblue" stroke="midnightblue" points="185.92,-30.33 185.41,-19.75 179.21,-28.34 185.92,-30.33"/>
</g>
</g>
</svg>
