<?xml version="1.0" encoding="UTF-8" standalone="no"?>
<!DOCTYPE svg PUBLIC "-//W3C//DTD SVG 1.1//EN"
 "http://www.w3.org/Graphics/SVG/1.1/DTD/svg11.dtd">
<!-- Generated by graphviz version 2.43.0 (0)
 -->
<!-- Title: api/src/grpc_server.cpp Pages: 1 -->
<!--zoomable 285 -->
<svg id="main" version="1.1" xmlns="http://www.w3.org/2000/svg" xmlns:xlink="http://www.w3.org/1999/xlink" xml:space="preserve" onload="init(evt)">
<style type="text/css"><![CDATA[
.edge:hover path { stroke: red; }
.edge:hover polygon { stroke: red; fill: red; }
]]></style>
<script type="text/javascript"><![CDATA[
var edges = document.getElementsByTagName('g');
if (edges && edges.length) {
  for (var i=0;i<edges.length;i++) {
    if (edges[i].id.substr(0,4)=='edge') {
      edges[i].setAttribute('class','edge');
    }
  }
}
]]></script>
        <defs>
                <circle id="rim" cx="0" cy="0" r="7"/>
                <circle id="rim2" cx="0" cy="0" r="3.5"/>
                <g id="zoomPlus">
                        <use xlink:href="#rim" fill="#404040">
                                <set attributeName="fill" to="#808080" begin="zoomplus.mouseover" end="zoomplus.mouseout"/>
                        </use>
                        <path d="M-4,0h8M0,-4v8" fill="none" stroke="white" stroke-width="1.5" pointer-events="none"/>
                </g>
                <g id="zoomMin">
                        <use xlink:href="#rim" fill="#404040">
                                <set attributeName="fill" to="#808080" begin="zoomminus.mouseover" end="zoomminus.mouseout"/>
                        </use>
                        <path d="M-4,0h8" fill="none" stroke="white" stroke-width="1.5" pointer-events="none"/>
                </g>
                <g id="dirArrow">
                        <path fill="none" stroke="white" stroke-width="1.5" d="M0,-3.0v7 M-2.5,-0.5L0,-3.0L2.5,-0.5"/>
                </g>
               <g id="resetDef">
                       <use xlink:href="#rim2" fill="#404040">
                               <set attributeName="fill" to="#808080" begin="reset.mouseover" end="reset.mouseout"/>
                       </use>
               </g>
        </defs>

<script type="text/javascript">
var viewWidth = 2695;
var viewHeight = 285;
var sectionId = 'dynsection-0';
</script>
<script xlink:href="svgpan.js"/>
<svg id="graph" class="graph">
<g id="viewport">
<title>api/src/grpc_server.cpp</title>
<polygon fill="white" stroke="transparent" points="-4,4 -4,-281 2691,-281 2691,4 -4,4"/>
<!-- Node1 -->
<g id="node1" class="node">
<title>Node1</title>
<g id="a_node1"><a xlink:title="Implements the GrpcServerHandler class for handling gRPC requests.">
<polygon fill="#bfbfbf" stroke="black" points="618,-257.5 618,-276.5 747,-276.5 747,-257.5 618,-257.5"/>
<text text-anchor="middle" x="682.5" y="-264.5" font-family="Helvetica,sans-Serif" font-size="10.00">api/src/grpc_server.cpp</text>
</a>
</g>
</g>
<!-- Node2 -->
<g id="node2" class="node">
<title>Node2</title>
<g id="a_node2"><a xlink:href="grpc__server_8hpp.html" target="_top" xlink:title="Defines the GrpcServerHandler class for handling gRPC requests.">
<polygon fill="white" stroke="black" points="574.5,-201.5 574.5,-220.5 686.5,-220.5 686.5,-201.5 574.5,-201.5"/>
<text text-anchor="middle" x="630.5" y="-208.5" font-family="Helvetica,sans-Serif" font-size="10.00">inc/grpc_server.hpp</text>
</a>
</g>
</g>
<!-- Node1&#45;&gt;Node2 -->
<g id="edge1" class="edge">
<title>Node1&#45;&gt;Node2</title>
<path fill="none" stroke="midnightblue" d="M673.91,-257.08C666.34,-249.22 655.12,-237.57 645.99,-228.08"/>
<polygon fill="midnightblue" stroke="midnightblue" points="648.38,-225.53 638.93,-220.75 643.34,-230.38 648.38,-225.53"/>
</g>
<!-- Node44 -->
<g id="node44" class="node">
<title>Node44</title>
<g id="a_node44"><a xlink:title=" ">
<polygon fill="white" stroke="#bfbfbf" points="704.5,-201.5 704.5,-220.5 764.5,-220.5 764.5,-201.5 704.5,-201.5"/>
<text text-anchor="middle" x="734.5" y="-208.5" font-family="Helvetica,sans-Serif" font-size="10.00">iostream</text>
</a>
</g>
</g>
<!-- Node1&#45;&gt;Node44 -->
<g id="edge50" class="edge">
<title>Node1&#45;&gt;Node44</title>
<path fill="none" stroke="midnightblue" d="M691.09,-257.08C698.66,-249.22 709.88,-237.57 719.01,-228.08"/>
<polygon fill="midnightblue" stroke="midnightblue" points="721.66,-230.38 726.07,-220.75 716.62,-225.53 721.66,-230.38"/>
</g>
<!-- Node3 -->
<g id="node3" class="node">
<title>Node3</title>
<g id="a_node3"><a xlink:title=" ">
<polygon fill="white" stroke="#bfbfbf" points="87.5,-140 87.5,-159 145.5,-159 145.5,-140 87.5,-140"/>
<text text-anchor="middle" x="116.5" y="-147" font-family="Helvetica,sans-Serif" font-size="10.00">memory</text>
</a>
</g>
</g>
<!-- Node2&#45;&gt;Node3 -->
<g id="edge2" class="edge">
<title>Node2&#45;&gt;Node3</title>
<path fill="none" stroke="midnightblue" d="M574.38,-209.57C484.56,-207.8 303.43,-199.78 154.5,-165 151.5,-164.3 148.42,-163.42 145.38,-162.44"/>
<polygon fill="midnightblue" stroke="midnightblue" points="146.5,-159.12 135.91,-159.06 144.15,-165.71 146.5,-159.12"/>
</g>
<!-- Node4 -->
<g id="node4" class="node">
<title>Node4</title>
<g id="a_node4"><a xlink:title=" ">
<polygon fill="white" stroke="#bfbfbf" points="390.5,-6 390.5,-25 434.5,-25 434.5,-6 390.5,-6"/>
<text text-anchor="middle" x="412.5" y="-13" font-family="Helvetica,sans-Serif" font-size="10.00">string</text>
</a>
</g>
</g>
<!-- Node2&#45;&gt;Node4 -->
<g id="edge3" class="edge">
<title>Node2&#45;&gt;Node4</title>
<path fill="none" stroke="midnightblue" d="M628.6,-201.17C622.81,-176.35 603.04,-105.22 559.5,-67 526.89,-38.37 477.24,-25.78 444.83,-20.38"/>
<polygon fill="midnightblue" stroke="midnightblue" points="444.96,-16.86 434.54,-18.81 443.9,-23.78 444.96,-16.86"/>
</g>
<!-- Node5 -->
<g id="node5" class="node">
<title>Node5</title>
<g id="a_node5"><a xlink:title=" ">
<polygon fill="white" stroke="#bfbfbf" points="606.5,-73 606.5,-92 654.5,-92 654.5,-73 606.5,-73"/>
<text text-anchor="middle" x="630.5" y="-80" font-family="Helvetica,sans-Serif" font-size="10.00">thread</text>
</a>
</g>
</g>
<!-- Node2&#45;&gt;Node5 -->
<g id="edge4" class="edge">
<title>Node2&#45;&gt;Node5</title>
<path fill="none" stroke="midnightblue" d="M630.5,-201.31C630.5,-180.99 630.5,-130.05 630.5,-102.28"/>
<polygon fill="midnightblue" stroke="midnightblue" points="634,-102.26 630.5,-92.26 627,-102.26 634,-102.26"/>
</g>
<!-- Node6 -->
<g id="node6" class="node">
<title>Node6</title>
<g id="a_node6"><a xlink:title=" ">
<polygon fill="white" stroke="#bfbfbf" points="672.5,-73 672.5,-92 722.5,-92 722.5,-73 672.5,-73"/>
<text text-anchor="middle" x="697.5" y="-80" font-family="Helvetica,sans-Serif" font-size="10.00">atomic</text>
</a>
</g>
</g>
<!-- Node2&#45;&gt;Node6 -->
<g id="edge5" class="edge">
<title>Node2&#45;&gt;Node6</title>
<path fill="none" stroke="midnightblue" d="M635.11,-201.31C646.01,-180.72 673.57,-128.69 688.14,-101.18"/>
<polygon fill="midnightblue" stroke="midnightblue" points="691.28,-102.73 692.86,-92.26 685.09,-99.45 691.28,-102.73"/>
</g>
<!-- Node7 -->
<g id="node7" class="node">
<title>Node7</title>
<g id="a_node7"><a xlink:title=" ">
<polygon fill="white" stroke="#bfbfbf" points="1815,-140 1815,-159 1910,-159 1910,-140 1815,-140"/>
<text text-anchor="middle" x="1862.5" y="-147" font-family="Helvetica,sans-Serif" font-size="10.00">grpcpp/grpcpp.h</text>
</a>
</g>
</g>
<!-- Node2&#45;&gt;Node7 -->
<g id="edge6" class="edge">
<title>Node2&#45;&gt;Node7</title>
<path fill="none" stroke="midnightblue" d="M686.83,-201.83C689.76,-201.52 692.66,-201.24 695.5,-201 1187.31,-159.09 1316.79,-234.25 1805.5,-165 1811.52,-164.15 1817.83,-162.9 1823.96,-161.5"/>
<polygon fill="midnightblue" stroke="midnightblue" points="1825.16,-164.81 1834.04,-159.03 1823.49,-158.01 1825.16,-164.81"/>
</g>
<!-- Node8 -->
<g id="node8" class="node">
<title>Node8</title>
<g id="a_node8"><a xlink:href="common_8hpp.html" target="_top" xlink:title="Defines common constants, string views, and utility structures for the application.">
<polygon fill="white" stroke="black" points="163.5,-140 163.5,-159 261.5,-159 261.5,-140 163.5,-140"/>
<text text-anchor="middle" x="212.5" y="-147" font-family="Helvetica,sans-Serif" font-size="10.00">inc/common.hpp</text>
</a>
</g>
</g>
<!-- Node2&#45;&gt;Node8 -->
<g id="edge7" class="edge">
<title>Node2&#45;&gt;Node8</title>
<path fill="none" stroke="midnightblue" d="M574.13,-201.98C495.16,-190.74 352.29,-170.4 271.79,-158.94"/>
<polygon fill="midnightblue" stroke="midnightblue" points="272.2,-155.46 261.81,-157.52 271.22,-162.39 272.2,-155.46"/>
</g>
<!-- Node11 -->
<g id="node11" class="node">
<title>Node11</title>
<g id="a_node11"><a xlink:href="threadpool_8hpp.html" target="_top" xlink:title="Declares the ThreadPool utility class for managing worker threads.">
<polygon fill="white" stroke="black" points="788,-140 788,-159 895,-159 895,-140 788,-140"/>
<text text-anchor="middle" x="841.5" y="-147" font-family="Helvetica,sans-Serif" font-size="10.00">inc/threadpool.hpp</text>
</a>
</g>
</g>
<!-- Node2&#45;&gt;Node11 -->
<g id="edge11" class="edge">
<title>Node2&#45;&gt;Node11</title>
<path fill="none" stroke="midnightblue" d="M660.73,-201.48C697.79,-191.03 760.69,-173.29 801.66,-161.73"/>
<polygon fill="midnightblue" stroke="midnightblue" points="802.65,-165.09 811.32,-159.01 800.75,-158.35 802.65,-165.09"/>
</g>
<!-- Node17 -->
<g id="node17" class="node">
<title>Node17</title>
<g id="a_node17"><a xlink:href="request__executor_8hpp.html" target="_top" xlink:title="Declares the abstract RequestExecutor interface for executing requests.">
<polygon fill="white" stroke="black" points="376.5,-140 376.5,-159 516.5,-159 516.5,-140 376.5,-140"/>
<text text-anchor="middle" x="446.5" y="-147" font-family="Helvetica,sans-Serif" font-size="10.00">inc/request_executor.hpp</text>
</a>
</g>
</g>
<!-- Node2&#45;&gt;Node17 -->
<g id="edge19" class="edge">
<title>Node2&#45;&gt;Node17</title>
<path fill="none" stroke="midnightblue" d="M604.14,-201.48C572.16,-191.14 518.12,-173.66 482.38,-162.1"/>
<polygon fill="midnightblue" stroke="midnightblue" points="483.41,-158.76 472.81,-159.01 481.25,-165.42 483.41,-158.76"/>
</g>
<!-- Node20 -->
<g id="node20" class="node">
<title>Node20</title>
<g id="a_node20"><a xlink:href="container__manager_8grpc_8pb_8h.html" target="_top" xlink:title=" ">
<polygon fill="white" stroke="black" points="1634.5,-134.5 1634.5,-164.5 1796.5,-164.5 1796.5,-134.5 1634.5,-134.5"/>
<text text-anchor="start" x="1642.5" y="-152.5" font-family="Helvetica,sans-Serif" font-size="10.00">executor/proto/generated</text>
<text text-anchor="middle" x="1715.5" y="-141.5" font-family="Helvetica,sans-Serif" font-size="10.00">/container_manager.grpc.pb.h</text>
</a>
</g>
</g>
<!-- Node2&#45;&gt;Node20 -->
<g id="edge24" class="edge">
<title>Node2&#45;&gt;Node20</title>
<path fill="none" stroke="midnightblue" d="M686.83,-201.89C689.76,-201.57 692.66,-201.27 695.5,-201 1037.28,-168.94 1445.53,-156.49 1624.2,-152.32"/>
<polygon fill="midnightblue" stroke="midnightblue" points="1624.42,-155.82 1634.34,-152.09 1624.26,-148.82 1624.42,-155.82"/>
</g>
<!-- Node8&#45;&gt;Node4 -->
<g id="edge8" class="edge">
<title>Node8&#45;&gt;Node4</title>
<path fill="none" stroke="midnightblue" d="M211.86,-139.8C211.15,-123.29 212.1,-87.25 231.5,-67 270.55,-26.23 339.5,-17.5 380.1,-16.13"/>
<polygon fill="midnightblue" stroke="midnightblue" points="380.33,-19.63 390.26,-15.92 380.19,-12.63 380.33,-19.63"/>
</g>
<!-- Node9 -->
<g id="node9" class="node">
<title>Node9</title>
<g id="a_node9"><a xlink:title=" ">
<polygon fill="white" stroke="#bfbfbf" points="111,-73 111,-92 184,-92 184,-73 111,-73"/>
<text text-anchor="middle" x="147.5" y="-80" font-family="Helvetica,sans-Serif" font-size="10.00">string_view</text>
</a>
</g>
</g>
<!-- Node8&#45;&gt;Node9 -->
<g id="edge9" class="edge">
<title>Node8&#45;&gt;Node9</title>
<path fill="none" stroke="midnightblue" d="M203.73,-139.73C193.4,-129.4 176.04,-112.04 163.33,-99.33"/>
<polygon fill="midnightblue" stroke="midnightblue" points="165.67,-96.72 156.13,-92.13 160.72,-101.67 165.67,-96.72"/>
</g>
<!-- Node10 -->
<g id="node10" class="node">
<title>Node10</title>
<g id="a_node10"><a xlink:title=" ">
<polygon fill="white" stroke="#bfbfbf" points="0,-73 0,-92 93,-92 93,-73 0,-73"/>
<text text-anchor="middle" x="46.5" y="-80" font-family="Helvetica,sans-Serif" font-size="10.00">unordered_map</text>
</a>
</g>
</g>
<!-- Node8&#45;&gt;Node10 -->
<g id="edge10" class="edge">
<title>Node8&#45;&gt;Node10</title>
<path fill="none" stroke="midnightblue" d="M190.46,-139.87C161.6,-128.57 110.85,-108.7 77.96,-95.82"/>
<polygon fill="midnightblue" stroke="midnightblue" points="78.96,-92.45 68.37,-92.06 76.41,-98.97 78.96,-92.45"/>
</g>
<!-- Node11&#45;&gt;Node5 -->
<g id="edge13" class="edge">
<title>Node11&#45;&gt;Node5</title>
<path fill="none" stroke="midnightblue" d="M805.92,-139.94C769.66,-130.87 712.01,-115.45 663.5,-98 661.84,-97.4 660.15,-96.76 658.44,-96.09"/>
<polygon fill="midnightblue" stroke="midnightblue" points="659.4,-92.7 648.82,-92.08 656.7,-99.16 659.4,-92.7"/>
</g>
<!-- Node11&#45;&gt;Node6 -->
<g id="edge18" class="edge">
<title>Node11&#45;&gt;Node6</title>
<path fill="none" stroke="midnightblue" d="M822.38,-139.87C797.74,-128.75 754.69,-109.32 726.14,-96.43"/>
<polygon fill="midnightblue" stroke="midnightblue" points="727.26,-93.09 716.7,-92.17 724.38,-99.47 727.26,-93.09"/>
</g>
<!-- Node12 -->
<g id="node12" class="node">
<title>Node12</title>
<g id="a_node12"><a xlink:title=" ">
<polygon fill="white" stroke="#bfbfbf" points="866,-73 866,-92 913,-92 913,-73 866,-73"/>
<text text-anchor="middle" x="889.5" y="-80" font-family="Helvetica,sans-Serif" font-size="10.00">vector</text>
</a>
</g>
</g>
<!-- Node11&#45;&gt;Node12 -->
<g id="edge12" class="edge">
<title>Node11&#45;&gt;Node12</title>
<path fill="none" stroke="midnightblue" d="M847.97,-139.73C855.39,-129.7 867.7,-113.01 877,-100.42"/>
<polygon fill="midnightblue" stroke="midnightblue" points="880,-102.25 883.13,-92.13 874.37,-98.09 880,-102.25"/>
</g>
<!-- Node13 -->
<g id="node13" class="node">
<title>Node13</title>
<g id="a_node13"><a xlink:title=" ">
<polygon fill="white" stroke="#bfbfbf" points="931,-73 931,-92 978,-92 978,-73 931,-73"/>
<text text-anchor="middle" x="954.5" y="-80" font-family="Helvetica,sans-Serif" font-size="10.00">queue</text>
</a>
</g>
</g>
<!-- Node11&#45;&gt;Node13 -->
<g id="edge14" class="edge">
<title>Node11&#45;&gt;Node13</title>
<path fill="none" stroke="midnightblue" d="M856.74,-139.73C875.72,-128.82 908.35,-110.05 930.65,-97.22"/>
<polygon fill="midnightblue" stroke="midnightblue" points="932.58,-100.15 939.5,-92.13 929.09,-94.08 932.58,-100.15"/>
</g>
<!-- Node14 -->
<g id="node14" class="node">
<title>Node14</title>
<g id="a_node14"><a xlink:title=" ">
<polygon fill="white" stroke="#bfbfbf" points="996.5,-73 996.5,-92 1044.5,-92 1044.5,-73 996.5,-73"/>
<text text-anchor="middle" x="1020.5" y="-80" font-family="Helvetica,sans-Serif" font-size="10.00">mutex</text>
</a>
</g>
</g>
<!-- Node11&#45;&gt;Node14 -->
<g id="edge15" class="edge">
<title>Node11&#45;&gt;Node14</title>
<path fill="none" stroke="midnightblue" d="M868.38,-139.93C897.85,-130.36 946.42,-114.1 987.5,-98 989.1,-97.37 990.74,-96.71 992.39,-96.03"/>
<polygon fill="midnightblue" stroke="midnightblue" points="993.93,-99.18 1001.76,-92.05 991.19,-92.74 993.93,-99.18"/>
</g>
<!-- Node15 -->
<g id="node15" class="node">
<title>Node15</title>
<g id="a_node15"><a xlink:title=" ">
<polygon fill="white" stroke="#bfbfbf" points="741,-73 741,-92 848,-92 848,-73 741,-73"/>
<text text-anchor="middle" x="794.5" y="-80" font-family="Helvetica,sans-Serif" font-size="10.00">condition_variable</text>
</a>
</g>
</g>
<!-- Node11&#45;&gt;Node15 -->
<g id="edge16" class="edge">
<title>Node11&#45;&gt;Node15</title>
<path fill="none" stroke="midnightblue" d="M835.16,-139.73C827.9,-129.7 815.84,-113.01 806.74,-100.42"/>
<polygon fill="midnightblue" stroke="midnightblue" points="809.43,-98.18 800.74,-92.13 803.76,-102.28 809.43,-98.18"/>
</g>
<!-- Node16 -->
<g id="node16" class="node">
<title>Node16</title>
<g id="a_node16"><a xlink:title=" ">
<polygon fill="white" stroke="#bfbfbf" points="1063,-73 1063,-92 1128,-92 1128,-73 1063,-73"/>
<text text-anchor="middle" x="1095.5" y="-80" font-family="Helvetica,sans-Serif" font-size="10.00">functional</text>
</a>
</g>
</g>
<!-- Node11&#45;&gt;Node16 -->
<g id="edge17" class="edge">
<title>Node11&#45;&gt;Node16</title>
<path fill="none" stroke="midnightblue" d="M882.85,-139.91C925.81,-130.7 994.83,-115.07 1053.5,-98 1056.44,-97.14 1059.48,-96.2 1062.52,-95.23"/>
<polygon fill="midnightblue" stroke="midnightblue" points="1063.7,-98.52 1072.08,-92.04 1061.49,-91.88 1063.7,-98.52"/>
</g>
<!-- Node17&#45;&gt;Node4 -->
<g id="edge20" class="edge">
<title>Node17&#45;&gt;Node4</title>
<path fill="none" stroke="midnightblue" d="M443.8,-139.97C440.66,-129.96 435.43,-112.85 431.5,-98 425.82,-76.55 420.15,-51.68 416.51,-35.11"/>
<polygon fill="midnightblue" stroke="midnightblue" points="419.88,-34.13 414.33,-25.11 413.04,-35.62 419.88,-34.13"/>
</g>
<!-- Node18 -->
<g id="node18" class="node">
<title>Node18</title>
<g id="a_node18"><a xlink:title=" ">
<polygon fill="white" stroke="#bfbfbf" points="440.5,-73 440.5,-92 550.5,-92 550.5,-73 440.5,-73"/>
<text text-anchor="middle" x="495.5" y="-80" font-family="Helvetica,sans-Serif" font-size="10.00">nlohmann/json.hpp</text>
</a>
</g>
</g>
<!-- Node17&#45;&gt;Node18 -->
<g id="edge21" class="edge">
<title>Node17&#45;&gt;Node18</title>
<path fill="none" stroke="midnightblue" d="M453.11,-139.73C460.68,-129.7 473.25,-113.01 482.74,-100.42"/>
<polygon fill="midnightblue" stroke="midnightblue" points="485.77,-102.22 489,-92.13 480.18,-98.01 485.77,-102.22"/>
</g>
<!-- Node19 -->
<g id="node19" class="node">
<title>Node19</title>
<g id="a_node19"><a xlink:href="container__request_8hpp.html" target="_top" xlink:title="Data structure for representing a container operation request.">
<polygon fill="white" stroke="black" points="241,-73 241,-92 384,-92 384,-73 241,-73"/>
<text text-anchor="middle" x="312.5" y="-80" font-family="Helvetica,sans-Serif" font-size="10.00">inc/container_request.hpp</text>
</a>
</g>
</g>
<!-- Node17&#45;&gt;Node19 -->
<g id="edge22" class="edge">
<title>Node17&#45;&gt;Node19</title>
<path fill="none" stroke="midnightblue" d="M428.71,-139.87C405.88,-128.8 366.07,-109.49 339.5,-96.6"/>
<polygon fill="midnightblue" stroke="midnightblue" points="340.89,-93.38 330.37,-92.17 337.84,-99.68 340.89,-93.38"/>
</g>
<!-- Node19&#45;&gt;Node4 -->
<g id="edge23" class="edge">
<title>Node19&#45;&gt;Node4</title>
<path fill="none" stroke="midnightblue" d="M325.99,-72.73C342.55,-61.96 370.88,-43.55 390.59,-30.74"/>
<polygon fill="midnightblue" stroke="midnightblue" points="392.75,-33.51 399.23,-25.13 388.94,-27.64 392.75,-33.51"/>
</g>
<!-- Node20&#45;&gt;Node16 -->
<g id="edge39" class="edge">
<title>Node20&#45;&gt;Node16</title>
<path fill="none" stroke="midnightblue" d="M1634.16,-147.65C1521.44,-145.06 1311.88,-135.13 1137.5,-98 1134,-97.25 1130.39,-96.3 1126.82,-95.24"/>
<polygon fill="midnightblue" stroke="midnightblue" points="1127.6,-91.82 1117.01,-92.06 1125.44,-98.48 1127.6,-91.82"/>
</g>
<!-- Node21 -->
<g id="node21" class="node">
<title>Node21</title>
<g id="a_node21"><a xlink:href="container__manager_8pb_8h.html" target="_top" xlink:title=" ">
<polygon fill="white" stroke="black" points="1420,-73 1420,-92 1555,-92 1555,-73 1420,-73"/>
<text text-anchor="middle" x="1487.5" y="-80" font-family="Helvetica,sans-Serif" font-size="10.00">container_manager.pb.h</text>
</a>
</g>
</g>
<!-- Node20&#45;&gt;Node21 -->
<g id="edge25" class="edge">
<title>Node20&#45;&gt;Node21</title>
<path fill="none" stroke="midnightblue" d="M1666.31,-134.48C1624.73,-122.62 1565.93,-105.86 1527.27,-94.84"/>
<polygon fill="midnightblue" stroke="midnightblue" points="1527.99,-91.4 1517.42,-92.03 1526.07,-98.14 1527.99,-91.4"/>
</g>
<!-- Node34 -->
<g id="node34" class="node">
<title>Node34</title>
<g id="a_node34"><a xlink:title=" ">
<polygon fill="white" stroke="#bfbfbf" points="1573,-67.5 1573,-97.5 1712,-97.5 1712,-67.5 1573,-67.5"/>
<text text-anchor="start" x="1581" y="-85.5" font-family="Helvetica,sans-Serif" font-size="10.00">grpcpp/impl/codegen</text>
<text text-anchor="middle" x="1642.5" y="-74.5" font-family="Helvetica,sans-Serif" font-size="10.00">/async_generic_service.h</text>
</a>
</g>
</g>
<!-- Node20&#45;&gt;Node34 -->
<g id="edge40" class="edge">
<title>Node20&#45;&gt;Node34</title>
<path fill="none" stroke="midnightblue" d="M1699.66,-134.4C1689.81,-125.62 1676.96,-114.18 1665.94,-104.37"/>
<polygon fill="midnightblue" stroke="midnightblue" points="1668.1,-101.61 1658.31,-97.58 1663.45,-106.84 1668.1,-101.61"/>
</g>
<!-- Node35 -->
<g id="node35" class="node">
<title>Node35</title>
<g id="a_node35"><a xlink:title=" ">
<polygon fill="white" stroke="#bfbfbf" points="1730,-67.5 1730,-97.5 1849,-97.5 1849,-67.5 1730,-67.5"/>
<text text-anchor="start" x="1738" y="-85.5" font-family="Helvetica,sans-Serif" font-size="10.00">grpcpp/impl/codegen</text>
<text text-anchor="middle" x="1789.5" y="-74.5" font-family="Helvetica,sans-Serif" font-size="10.00">/async_stream.h</text>
</a>
</g>
</g>
<!-- Node20&#45;&gt;Node35 -->
<g id="edge41" class="edge">
<title>Node20&#45;&gt;Node35</title>
<path fill="none" stroke="midnightblue" d="M1731.56,-134.4C1741.54,-125.62 1754.57,-114.18 1765.74,-104.37"/>
<polygon fill="midnightblue" stroke="midnightblue" points="1768.27,-106.81 1773.47,-97.58 1763.65,-101.55 1768.27,-106.81"/>
</g>
<!-- Node36 -->
<g id="node36" class="node">
<title>Node36</title>
<g id="a_node36"><a xlink:title=" ">
<polygon fill="white" stroke="#bfbfbf" points="1867,-67.5 1867,-97.5 1986,-97.5 1986,-67.5 1867,-67.5"/>
<text text-anchor="start" x="1875" y="-85.5" font-family="Helvetica,sans-Serif" font-size="10.00">grpcpp/impl/codegen</text>
<text text-anchor="middle" x="1926.5" y="-74.5" font-family="Helvetica,sans-Serif" font-size="10.00">/async_unary_call.h</text>
</a>
</g>
</g>
<!-- Node20&#45;&gt;Node36 -->
<g id="edge42" class="edge">
<title>Node20&#45;&gt;Node36</title>
<path fill="none" stroke="midnightblue" d="M1761.02,-134.48C1793.22,-124.56 1836.58,-111.2 1870.83,-100.65"/>
<polygon fill="midnightblue" stroke="midnightblue" points="1872.17,-103.9 1880.69,-97.61 1870.11,-97.21 1872.17,-103.9"/>
</g>
<!-- Node37 -->
<g id="node37" class="node">
<title>Node37</title>
<g id="a_node37"><a xlink:title=" ">
<polygon fill="white" stroke="#bfbfbf" points="2004,-67.5 2004,-97.5 2139,-97.5 2139,-67.5 2004,-67.5"/>
<text text-anchor="start" x="2012" y="-85.5" font-family="Helvetica,sans-Serif" font-size="10.00">grpcpp/impl/codegen</text>
<text text-anchor="middle" x="2071.5" y="-74.5" font-family="Helvetica,sans-Serif" font-size="10.00">/method_handler_impl.h</text>
</a>
</g>
</g>
<!-- Node20&#45;&gt;Node37 -->
<g id="edge43" class="edge">
<title>Node20&#45;&gt;Node37</title>
<path fill="none" stroke="midnightblue" d="M1794.59,-134.45C1848.17,-124.89 1920.87,-111.81 1993.69,-98.33"/>
<polygon fill="midnightblue" stroke="midnightblue" points="1994.77,-101.69 2003.96,-96.42 1993.49,-94.8 1994.77,-101.69"/>
</g>
<!-- Node38 -->
<g id="node38" class="node">
<title>Node38</title>
<g id="a_node38"><a xlink:title=" ">
<polygon fill="white" stroke="#bfbfbf" points="2157,-67.5 2157,-97.5 2276,-97.5 2276,-67.5 2157,-67.5"/>
<text text-anchor="start" x="2165" y="-85.5" font-family="Helvetica,sans-Serif" font-size="10.00">grpcpp/impl/codegen</text>
<text text-anchor="middle" x="2216.5" y="-74.5" font-family="Helvetica,sans-Serif" font-size="10.00">/proto_utils.h</text>
</a>
</g>
</g>
<!-- Node20&#45;&gt;Node38 -->
<g id="edge44" class="edge">
<title>Node20&#45;&gt;Node38</title>
<path fill="none" stroke="midnightblue" d="M1796.83,-135.32C1800.1,-134.86 1803.33,-134.42 1806.5,-134 1954.77,-114.4 1995.8,-121.64 2146.76,-98.18"/>
<polygon fill="midnightblue" stroke="midnightblue" points="2147.53,-101.6 2156.86,-96.59 2146.44,-94.69 2147.53,-101.6"/>
</g>
<!-- Node39 -->
<g id="node39" class="node">
<title>Node39</title>
<g id="a_node39"><a xlink:title=" ">
<polygon fill="white" stroke="#bfbfbf" points="2294,-67.5 2294,-97.5 2413,-97.5 2413,-67.5 2294,-67.5"/>
<text text-anchor="start" x="2302" y="-85.5" font-family="Helvetica,sans-Serif" font-size="10.00">grpcpp/impl/codegen</text>
<text text-anchor="middle" x="2353.5" y="-74.5" font-family="Helvetica,sans-Serif" font-size="10.00">/rpc_method.h</text>
</a>
</g>
</g>
<!-- Node20&#45;&gt;Node39 -->
<g id="edge45" class="edge">
<title>Node20&#45;&gt;Node39</title>
<path fill="none" stroke="midnightblue" d="M1796.82,-135.2C1800.09,-134.77 1803.32,-134.37 1806.5,-134 2015.23,-109.57 2072.4,-127.74 2283.7,-98.14"/>
<polygon fill="midnightblue" stroke="midnightblue" points="2284.47,-101.56 2293.88,-96.69 2283.48,-94.63 2284.47,-101.56"/>
</g>
<!-- Node40 -->
<g id="node40" class="node">
<title>Node40</title>
<g id="a_node40"><a xlink:title=" ">
<polygon fill="white" stroke="#bfbfbf" points="2431,-67.5 2431,-97.5 2550,-97.5 2550,-67.5 2431,-67.5"/>
<text text-anchor="start" x="2439" y="-85.5" font-family="Helvetica,sans-Serif" font-size="10.00">grpcpp/impl/codegen</text>
<text text-anchor="middle" x="2490.5" y="-74.5" font-family="Helvetica,sans-Serif" font-size="10.00">/service_type.h</text>
</a>
</g>
</g>
<!-- Node20&#45;&gt;Node40 -->
<g id="edge46" class="edge">
<title>Node20&#45;&gt;Node40</title>
<path fill="none" stroke="midnightblue" d="M1796.81,-135.13C1800.08,-134.73 1803.32,-134.35 1806.5,-134 2075.81,-104.75 2148.94,-133.97 2420.72,-98.11"/>
<polygon fill="midnightblue" stroke="midnightblue" points="2421.44,-101.54 2430.89,-96.75 2420.51,-94.6 2421.44,-101.54"/>
</g>
<!-- Node41 -->
<g id="node41" class="node">
<title>Node41</title>
<g id="a_node41"><a xlink:title=" ">
<polygon fill="white" stroke="#bfbfbf" points="2568,-67.5 2568,-97.5 2687,-97.5 2687,-67.5 2568,-67.5"/>
<text text-anchor="start" x="2576" y="-85.5" font-family="Helvetica,sans-Serif" font-size="10.00">grpcpp/impl/codegen</text>
<text text-anchor="middle" x="2627.5" y="-74.5" font-family="Helvetica,sans-Serif" font-size="10.00">/status.h</text>
</a>
</g>
</g>
<!-- Node20&#45;&gt;Node41 -->
<g id="edge47" class="edge">
<title>Node20&#45;&gt;Node41</title>
<path fill="none" stroke="midnightblue" d="M1796.81,-135.09C1800.08,-134.69 1803.32,-134.33 1806.5,-134 2136.36,-99.94 2225.41,-140.24 2557.49,-98.12"/>
<polygon fill="midnightblue" stroke="midnightblue" points="2558.42,-101.53 2567.89,-96.78 2557.53,-94.59 2558.42,-101.53"/>
</g>
<!-- Node42 -->
<g id="node42" class="node">
<title>Node42</title>
<g id="a_node42"><a xlink:title=" ">
<polygon fill="white" stroke="#bfbfbf" points="1146,-67.5 1146,-97.5 1265,-97.5 1265,-67.5 1146,-67.5"/>
<text text-anchor="start" x="1154" y="-85.5" font-family="Helvetica,sans-Serif" font-size="10.00">grpcpp/impl/codegen</text>
<text text-anchor="middle" x="1205.5" y="-74.5" font-family="Helvetica,sans-Serif" font-size="10.00">/stub_options.h</text>
</a>
</g>
</g>
<!-- Node20&#45;&gt;Node42 -->
<g id="edge48" class="edge">
<title>Node20&#45;&gt;Node42</title>
<path fill="none" stroke="midnightblue" d="M1634.31,-141.49C1547.85,-133.5 1406.83,-119 1275.52,-98.07"/>
<polygon fill="midnightblue" stroke="midnightblue" points="1275.7,-94.55 1265.28,-96.42 1274.59,-101.46 1275.7,-94.55"/>
</g>
<!-- Node43 -->
<g id="node43" class="node">
<title>Node43</title>
<g id="a_node43"><a xlink:title=" ">
<polygon fill="white" stroke="#bfbfbf" points="1283,-67.5 1283,-97.5 1402,-97.5 1402,-67.5 1283,-67.5"/>
<text text-anchor="start" x="1291" y="-85.5" font-family="Helvetica,sans-Serif" font-size="10.00">grpcpp/impl/codegen</text>
<text text-anchor="middle" x="1342.5" y="-74.5" font-family="Helvetica,sans-Serif" font-size="10.00">/sync_stream.h</text>
</a>
</g>
</g>
<!-- Node20&#45;&gt;Node43 -->
<g id="edge49" class="edge">
<title>Node20&#45;&gt;Node43</title>
<path fill="none" stroke="midnightblue" d="M1634.37,-135.98C1575.43,-126.67 1493.52,-113.26 1412.22,-98.09"/>
<polygon fill="midnightblue" stroke="midnightblue" points="1412.78,-94.63 1402.31,-96.23 1411.49,-101.51 1412.78,-94.63"/>
</g>
<!-- Node21&#45;&gt;Node4 -->
<g id="edge26" class="edge">
<title>Node21&#45;&gt;Node4</title>
<path fill="none" stroke="midnightblue" d="M1448.62,-72.93C1436.76,-70.63 1423.64,-68.39 1411.5,-67 1012.91,-21.28 908.93,-68.71 509.5,-31 487.86,-28.96 463.68,-25.35 444.88,-22.24"/>
<polygon fill="midnightblue" stroke="midnightblue" points="445.2,-18.74 434.76,-20.53 444.04,-25.65 445.2,-18.74"/>
</g>
<!-- Node22 -->
<g id="node22" class="node">
<title>Node22</title>
<g id="a_node22"><a xlink:title=" ">
<polygon fill="white" stroke="#bfbfbf" points="1995,-0.5 1995,-30.5 2118,-30.5 2118,-0.5 1995,-0.5"/>
<text text-anchor="start" x="2003" y="-18.5" font-family="Helvetica,sans-Serif" font-size="10.00">google/protobuf/stubs</text>
<text text-anchor="middle" x="2056.5" y="-7.5" font-family="Helvetica,sans-Serif" font-size="10.00">/common.h</text>
</a>
</g>
</g>
<!-- Node21&#45;&gt;Node22 -->
<g id="edge27" class="edge">
<title>Node21&#45;&gt;Node22</title>
<path fill="none" stroke="midnightblue" d="M1528.53,-72.98C1540.13,-70.79 1552.77,-68.6 1564.5,-67 1747.73,-42 1798.46,-57.57 1984.61,-31.17"/>
<polygon fill="midnightblue" stroke="midnightblue" points="1985.34,-34.6 1994.73,-29.71 1984.34,-27.67 1985.34,-34.6"/>
</g>
<!-- Node23 -->
<g id="node23" class="node">
<title>Node23</title>
<g id="a_node23"><a xlink:title=" ">
<polygon fill="white" stroke="#bfbfbf" points="2136.5,-0.5 2136.5,-30.5 2242.5,-30.5 2242.5,-0.5 2136.5,-0.5"/>
<text text-anchor="start" x="2144.5" y="-18.5" font-family="Helvetica,sans-Serif" font-size="10.00">google/protobuf/io</text>
<text text-anchor="middle" x="2189.5" y="-7.5" font-family="Helvetica,sans-Serif" font-size="10.00">/coded_stream.h</text>
</a>
</g>
</g>
<!-- Node21&#45;&gt;Node23 -->
<g id="edge28" class="edge">
<title>Node21&#45;&gt;Node23</title>
<path fill="none" stroke="midnightblue" d="M1527.72,-72.97C1539.52,-70.72 1552.49,-68.51 1564.5,-67 1810,-36.15 1877.69,-66.84 2126.12,-31.03"/>
<polygon fill="midnightblue" stroke="midnightblue" points="2126.79,-34.47 2136.17,-29.56 2125.77,-27.55 2126.79,-34.47"/>
</g>
<!-- Node24 -->
<g id="node24" class="node">
<title>Node24</title>
<g id="a_node24"><a xlink:title=" ">
<polygon fill="white" stroke="#bfbfbf" points="2260.5,-6 2260.5,-25 2394.5,-25 2394.5,-6 2260.5,-6"/>
<text text-anchor="middle" x="2327.5" y="-13" font-family="Helvetica,sans-Serif" font-size="10.00">google/protobuf/arena.h</text>
</a>
</g>
</g>
<!-- Node21&#45;&gt;Node24 -->
<g id="edge29" class="edge">
<title>Node21&#45;&gt;Node24</title>
<path fill="none" stroke="midnightblue" d="M1527.31,-72.95C1539.22,-70.68 1552.34,-68.46 1564.5,-67 1868.08,-30.63 1947.96,-67.74 2251.5,-31 2260.22,-29.94 2269.44,-28.48 2278.35,-26.89"/>
<polygon fill="midnightblue" stroke="midnightblue" points="2279.02,-30.32 2288.21,-25.05 2277.74,-23.44 2279.02,-30.32"/>
</g>
<!-- Node25 -->
<g id="node25" class="node">
<title>Node25</title>
<g id="a_node25"><a xlink:title=" ">
<polygon fill="white" stroke="#bfbfbf" points="519,-6 519,-25 680,-25 680,-6 519,-6"/>
<text text-anchor="middle" x="599.5" y="-13" font-family="Helvetica,sans-Serif" font-size="10.00">google/protobuf/arenastring.h</text>
</a>
</g>
</g>
<!-- Node21&#45;&gt;Node25 -->
<g id="edge30" class="edge">
<title>Node21&#45;&gt;Node25</title>
<path fill="none" stroke="midnightblue" d="M1448.22,-72.93C1436.46,-70.66 1423.5,-68.44 1411.5,-67 1092.49,-28.8 1009.03,-64.6 689.5,-31 678.65,-29.86 667.13,-28.28 656.07,-26.59"/>
<polygon fill="midnightblue" stroke="midnightblue" points="656.51,-23.11 646.08,-25 655.41,-30.03 656.51,-23.11"/>
</g>
<!-- Node26 -->
<g id="node26" class="node">
<title>Node26</title>
<g id="a_node26"><a xlink:title=" ">
<polygon fill="white" stroke="#bfbfbf" points="698.5,-0.5 698.5,-30.5 844.5,-30.5 844.5,-0.5 698.5,-0.5"/>
<text text-anchor="start" x="706.5" y="-18.5" font-family="Helvetica,sans-Serif" font-size="10.00">google/protobuf/generated</text>
<text text-anchor="middle" x="771.5" y="-7.5" font-family="Helvetica,sans-Serif" font-size="10.00">_message_table_driven.h</text>
</a>
</g>
</g>
<!-- Node21&#45;&gt;Node26 -->
<g id="edge31" class="edge">
<title>Node21&#45;&gt;Node26</title>
<path fill="none" stroke="midnightblue" d="M1447.81,-72.96C1436.16,-70.72 1423.36,-68.51 1411.5,-67 1168.22,-36.07 1101.98,-60.03 854.76,-31.06"/>
<polygon fill="midnightblue" stroke="midnightblue" points="855.1,-27.57 844.76,-29.87 854.27,-34.52 855.1,-27.57"/>
</g>
<!-- Node27 -->
<g id="node27" class="node">
<title>Node27</title>
<g id="a_node27"><a xlink:title=" ">
<polygon fill="white" stroke="#bfbfbf" points="862.5,-0.5 862.5,-30.5 1008.5,-30.5 1008.5,-0.5 862.5,-0.5"/>
<text text-anchor="start" x="870.5" y="-18.5" font-family="Helvetica,sans-Serif" font-size="10.00">google/protobuf/generated</text>
<text text-anchor="middle" x="935.5" y="-7.5" font-family="Helvetica,sans-Serif" font-size="10.00">_message_util.h</text>
</a>
</g>
</g>
<!-- Node21&#45;&gt;Node27 -->
<g id="edge32" class="edge">
<title>Node21&#45;&gt;Node27</title>
<path fill="none" stroke="midnightblue" d="M1446.6,-72.94C1435.27,-70.77 1422.94,-68.61 1411.5,-67 1240.61,-42.95 1193.52,-53.9 1018.82,-31.1"/>
<polygon fill="midnightblue" stroke="midnightblue" points="1019.14,-27.61 1008.77,-29.77 1018.22,-34.55 1019.14,-27.61"/>
</g>
<!-- Node28 -->
<g id="node28" class="node">
<title>Node28</title>
<g id="a_node28"><a xlink:title=" ">
<polygon fill="white" stroke="#bfbfbf" points="1026.5,-0.5 1026.5,-30.5 1156.5,-30.5 1156.5,-0.5 1026.5,-0.5"/>
<text text-anchor="start" x="1034.5" y="-18.5" font-family="Helvetica,sans-Serif" font-size="10.00">google/protobuf/inlined</text>
<text text-anchor="middle" x="1091.5" y="-7.5" font-family="Helvetica,sans-Serif" font-size="10.00">_string_field.h</text>
</a>
</g>
</g>
<!-- Node21&#45;&gt;Node28 -->
<g id="edge33" class="edge">
<title>Node21&#45;&gt;Node28</title>
<path fill="none" stroke="midnightblue" d="M1444.55,-72.97C1433.78,-70.93 1422.23,-68.81 1411.5,-67 1302.98,-48.68 1275,-49.45 1166.5,-31 1166.4,-30.98 1166.3,-30.97 1166.19,-30.95"/>
<polygon fill="midnightblue" stroke="midnightblue" points="1166.96,-27.53 1156.51,-29.25 1165.76,-34.42 1166.96,-27.53"/>
</g>
<!-- Node29 -->
<g id="node29" class="node">
<title>Node29</title>
<g id="a_node29"><a xlink:title=" ">
<polygon fill="white" stroke="#bfbfbf" points="1175,-6 1175,-25 1328,-25 1328,-6 1175,-6"/>
<text text-anchor="middle" x="1251.5" y="-13" font-family="Helvetica,sans-Serif" font-size="10.00">google/protobuf/metadata.h</text>
</a>
</g>
</g>
<!-- Node21&#45;&gt;Node29 -->
<g id="edge34" class="edge">
<title>Node21&#45;&gt;Node29</title>
<path fill="none" stroke="midnightblue" d="M1456.16,-72.87C1413.99,-61.25 1338.91,-40.58 1292.36,-27.75"/>
<polygon fill="midnightblue" stroke="midnightblue" points="1293.16,-24.34 1282.59,-25.06 1291.3,-31.09 1293.16,-24.34"/>
</g>
<!-- Node30 -->
<g id="node30" class="node">
<title>Node30</title>
<g id="a_node30"><a xlink:title=" ">
<polygon fill="white" stroke="#bfbfbf" points="1346.5,-6 1346.5,-25 1496.5,-25 1496.5,-6 1346.5,-6"/>
<text text-anchor="middle" x="1421.5" y="-13" font-family="Helvetica,sans-Serif" font-size="10.00">google/protobuf/message.h</text>
</a>
</g>
</g>
<!-- Node21&#45;&gt;Node30 -->
<g id="edge35" class="edge">
<title>Node21&#45;&gt;Node30</title>
<path fill="none" stroke="midnightblue" d="M1478.6,-72.73C1468.11,-62.4 1450.48,-45.04 1437.58,-32.33"/>
<polygon fill="midnightblue" stroke="midnightblue" points="1439.84,-29.65 1430.26,-25.13 1434.93,-34.64 1439.84,-29.65"/>
</g>
<!-- Node31 -->
<g id="node31" class="node">
<title>Node31</title>
<g id="a_node31"><a xlink:title=" ">
<polygon fill="white" stroke="#bfbfbf" points="1514.5,-0.5 1514.5,-30.5 1654.5,-30.5 1654.5,-0.5 1514.5,-0.5"/>
<text text-anchor="start" x="1522.5" y="-18.5" font-family="Helvetica,sans-Serif" font-size="10.00">google/protobuf/repeated</text>
<text text-anchor="middle" x="1584.5" y="-7.5" font-family="Helvetica,sans-Serif" font-size="10.00">_field.h</text>
</a>
</g>
</g>
<!-- Node21&#45;&gt;Node31 -->
<g id="edge36" class="edge">
<title>Node21&#45;&gt;Node31</title>
<path fill="none" stroke="midnightblue" d="M1500.58,-72.73C1514.45,-63.44 1536.8,-48.46 1554.96,-36.3"/>
<polygon fill="midnightblue" stroke="midnightblue" points="1557.12,-39.06 1563.47,-30.59 1553.22,-33.25 1557.12,-39.06"/>
</g>
<!-- Node32 -->
<g id="node32" class="node">
<title>Node32</title>
<g id="a_node32"><a xlink:title=" ">
<polygon fill="white" stroke="#bfbfbf" points="1673,-0.5 1673,-30.5 1818,-30.5 1818,-0.5 1673,-0.5"/>
<text text-anchor="start" x="1681" y="-18.5" font-family="Helvetica,sans-Serif" font-size="10.00">google/protobuf/extension</text>
<text text-anchor="middle" x="1745.5" y="-7.5" font-family="Helvetica,sans-Serif" font-size="10.00">_set.h</text>
</a>
</g>
</g>
<!-- Node21&#45;&gt;Node32 -->
<g id="edge37" class="edge">
<title>Node21&#45;&gt;Node32</title>
<path fill="none" stroke="midnightblue" d="M1521.49,-72.94C1561.65,-62.82 1629.35,-45.76 1679.84,-33.04"/>
<polygon fill="midnightblue" stroke="midnightblue" points="1680.85,-36.4 1689.7,-30.56 1679.14,-29.61 1680.85,-36.4"/>
</g>
<!-- Node33 -->
<g id="node33" class="node">
<title>Node33</title>
<g id="a_node33"><a xlink:title=" ">
<polygon fill="white" stroke="#bfbfbf" points="1836,-0.5 1836,-30.5 1977,-30.5 1977,-0.5 1836,-0.5"/>
<text text-anchor="start" x="1844" y="-18.5" font-family="Helvetica,sans-Serif" font-size="10.00">google/protobuf/unknown</text>
<text text-anchor="middle" x="1906.5" y="-7.5" font-family="Helvetica,sans-Serif" font-size="10.00">_field_set.h</text>
</a>
</g>
</g>
<!-- Node21&#45;&gt;Node33 -->
<g id="edge38" class="edge">
<title>Node21&#45;&gt;Node33</title>
<path fill="none" stroke="midnightblue" d="M1530.6,-72.99C1541.63,-70.92 1553.49,-68.79 1564.5,-67 1677.77,-48.59 1709.3,-49.58 1825.86,-31.22"/>
<polygon fill="midnightblue" stroke="midnightblue" points="1826.57,-34.65 1835.89,-29.62 1825.47,-27.74 1826.57,-34.65"/>
</g>
</g>
</svg>
        <g id="navigator" transform="translate(0 0)" fill="#404254">
                <rect fill="#f2f5e9" fill-opacity="0.5" stroke="#606060" stroke-width=".5" x="0" y="0" width="60" height="60"/>
                <use id="zoomplus" xlink:href="#zoomPlus" x="17" y="9" onmousedown="handleZoom(evt,'in')"/>
                <use id="zoomminus" xlink:href="#zoomMin" x="42" y="9" onmousedown="handleZoom(evt,'out')"/>
                <use id="reset" xlink:href="#resetDef" x="30" y="36" onmousedown="handleReset()"/>
                <g id="arrowUp" xlink:href="#dirArrow" transform="translate(30 24)" onmousedown="handlePan(0,-1)">
                  <use xlink:href="#rim" fill="#404040">
                        <set attributeName="fill" to="#808080" begin="arrowUp.mouseover" end="arrowUp.mouseout"/>
                  </use>
                  <path fill="none" stroke="white" stroke-width="1.5" d="M0,-3.0v7 M-2.5,-0.5L0,-3.0L2.5,-0.5"/>
                </g>
                <g id="arrowRight" xlink:href="#dirArrow" transform="rotate(90) translate(36 -43)" onmousedown="handlePan(1,0)">
                  <use xlink:href="#rim" fill="#404040">
                        <set attributeName="fill" to="#808080" begin="arrowRight.mouseover" end="arrowRight.mouseout"/>
                  </use>
                  <path fill="none" stroke="white" stroke-width="1.5" d="M0,-3.0v7 M-2.5,-0.5L0,-3.0L2.5,-0.5"/>
                </g>
                <g id="arrowDown" xlink:href="#dirArrow" transform="rotate(180) translate(-30 -48)" onmousedown="handlePan(0,1)">
                  <use xlink:href="#rim" fill="#404040">
                        <set attributeName="fill" to="#808080" begin="arrowDown.mouseover" end="arrowDown.mouseout"/>
                  </use>
                  <path fill="none" stroke="white" stroke-width="1.5" d="M0,-3.0v7 M-2.5,-0.5L0,-3.0L2.5,-0.5"/>
                </g>
                <g id="arrowLeft" xlink:href="#dirArrow" transform="rotate(270) translate(-36 17)" onmousedown="handlePan(-1,0)">
                  <use xlink:href="#rim" fill="#404040">
                        <set attributeName="fill" to="#808080" begin="arrowLeft.mouseover" end="arrowLeft.mouseout"/>
                  </use>
                  <path fill="none" stroke="white" stroke-width="1.5" d="M0,-3.0v7 M-2.5,-0.5L0,-3.0L2.5,-0.5"/>
                </g>
        </g>
        <svg viewBox="0 0 15 15" width="100%" height="30px" preserveAspectRatio="xMaxYMin meet">
         <g id="arrow_out" transform="scale(0.3 0.3)">
          <a xlink:href="grpc__server_8cpp__incl_org.svg" target="_base">
           <rect id="button" ry="5" rx="5" y="6" x="6" height="38" width="38"
                fill="#f2f5e9" fill-opacity="0.5" stroke="#606060" stroke-width="1.0"/>
           <path id="arrow"
             d="M 11.500037,31.436501 C 11.940474,20.09759 22.043105,11.32322 32.158766,21.979434 L 37.068811,17.246167 C 37.068811,17.246167 37.088388,32 37.088388,32 L 22.160133,31.978069 C 22.160133,31.978069 26.997745,27.140456 26.997745,27.140456 C 18.528582,18.264221 13.291696,25.230495 11.500037,31.436501 z"
             style="fill:#404040;"/>
          </a>
         </g>
        </svg>
</svg>
