<?xml version="1.0" encoding="UTF-8" standalone="no"?>
<!DOCTYPE svg PUBLIC "-//W3C//DTD SVG 1.1//EN"
 "http://www.w3.org/Graphics/SVG/1.1/DTD/svg11.dtd">
<!-- Generated by graphviz version 2.43.0 (0)
 -->
<!-- Title: api/inc/http_server.hpp Pages: 1 -->
<svg width="1213pt" height="196pt"
 viewBox="0.00 0.00 1212.50 196.00" xmlns="http://www.w3.org/2000/svg" xmlns:xlink="http://www.w3.org/1999/xlink">
<g id="graph0" class="graph" transform="scale(1 1) rotate(0) translate(4 192)">
<title>api/inc/http_server.hpp</title>
<polygon fill="white" stroke="transparent" points="-4,4 -4,-192 1208.5,-192 1208.5,4 -4,4"/>
<!-- Node1 -->
<g id="node1" class="node">
<title>Node1</title>
<g id="a_node1"><a xlink:title="Defines the HttpServerHandler class for handling HTTP requests.">
<polygon fill="#bfbfbf" stroke="black" points="127,-168.5 127,-187.5 255,-187.5 255,-168.5 127,-168.5"/>
<text text-anchor="middle" x="191" y="-175.5" font-family="Helvetica,sans-Serif" font-size="10.00">api/inc/http_server.hpp</text>
</a>
</g>
</g>
<!-- Node2 -->
<g id="node2" class="node">
<title>Node2</title>
<g id="a_node2"><a xlink:title=" ">
<polygon fill="white" stroke="#bfbfbf" points="0,-112.5 0,-131.5 58,-131.5 58,-112.5 0,-112.5"/>
<text text-anchor="middle" x="29" y="-119.5" font-family="Helvetica,sans-Serif" font-size="10.00">memory</text>
</a>
</g>
</g>
<!-- Node1&#45;&gt;Node2 -->
<g id="edge1" class="edge">
<title>Node1&#45;&gt;Node2</title>
<path fill="none" stroke="midnightblue" d="M165.33,-168.44C138.08,-159.36 94.82,-144.94 64.35,-134.78"/>
<polygon fill="midnightblue" stroke="midnightblue" points="65.14,-131.36 54.55,-131.52 62.93,-138 65.14,-131.36"/>
</g>
<!-- Node3 -->
<g id="node3" class="node">
<title>Node3</title>
<g id="a_node3"><a xlink:title=" ">
<polygon fill="white" stroke="#bfbfbf" points="492,-0.5 492,-19.5 536,-19.5 536,-0.5 492,-0.5"/>
<text text-anchor="middle" x="514" y="-7.5" font-family="Helvetica,sans-Serif" font-size="10.00">string</text>
</a>
</g>
</g>
<!-- Node1&#45;&gt;Node3 -->
<g id="edge2" class="edge">
<title>Node1&#45;&gt;Node3</title>
<path fill="none" stroke="midnightblue" d="M156.82,-168.49C138.01,-161.88 116.26,-150.6 105,-132 88.83,-105.29 125.78,-61.69 134,-56 190.07,-17.19 400.56,-11.69 481.77,-11.03"/>
<polygon fill="midnightblue" stroke="midnightblue" points="481.92,-14.53 491.9,-10.97 481.88,-7.53 481.92,-14.53"/>
</g>
<!-- Node4 -->
<g id="node4" class="node">
<title>Node4</title>
<g id="a_node4"><a xlink:title=" ">
<polygon fill="white" stroke="#bfbfbf" points="114.5,-112.5 114.5,-131.5 171.5,-131.5 171.5,-112.5 114.5,-112.5"/>
<text text-anchor="middle" x="143" y="-119.5" font-family="Helvetica,sans-Serif" font-size="10.00">httplib.h</text>
</a>
</g>
</g>
<!-- Node1&#45;&gt;Node4 -->
<g id="edge3" class="edge">
<title>Node1&#45;&gt;Node4</title>
<path fill="none" stroke="midnightblue" d="M183.07,-168.08C176.15,-160.3 165.93,-148.8 157.55,-139.37"/>
<polygon fill="midnightblue" stroke="midnightblue" points="160.04,-136.9 150.78,-131.75 154.81,-141.55 160.04,-136.9"/>
</g>
<!-- Node5 -->
<g id="node5" class="node">
<title>Node5</title>
<g id="a_node5"><a xlink:href="common_8hpp.html" target="_top" xlink:title="Defines common constants, string views, and utility structures for the application.">
<polygon fill="white" stroke="black" points="190,-112.5 190,-131.5 288,-131.5 288,-112.5 190,-112.5"/>
<text text-anchor="middle" x="239" y="-119.5" font-family="Helvetica,sans-Serif" font-size="10.00">inc/common.hpp</text>
</a>
</g>
</g>
<!-- Node1&#45;&gt;Node5 -->
<g id="edge4" class="edge">
<title>Node1&#45;&gt;Node5</title>
<path fill="none" stroke="midnightblue" d="M198.93,-168.08C205.85,-160.3 216.07,-148.8 224.45,-139.37"/>
<polygon fill="midnightblue" stroke="midnightblue" points="227.19,-141.55 231.22,-131.75 221.96,-136.9 227.19,-141.55"/>
</g>
<!-- Node8 -->
<g id="node8" class="node">
<title>Node8</title>
<g id="a_node8"><a xlink:href="threadpool_8hpp.html" target="_top" xlink:title="Declares the ThreadPool utility class for managing worker threads.">
<polygon fill="white" stroke="black" points="489.5,-112.5 489.5,-131.5 596.5,-131.5 596.5,-112.5 489.5,-112.5"/>
<text text-anchor="middle" x="543" y="-119.5" font-family="Helvetica,sans-Serif" font-size="10.00">inc/threadpool.hpp</text>
</a>
</g>
</g>
<!-- Node1&#45;&gt;Node8 -->
<g id="edge8" class="edge">
<title>Node1&#45;&gt;Node8</title>
<path fill="none" stroke="midnightblue" d="M246.78,-168.44C310.02,-158.74 412.94,-142.95 479.3,-132.77"/>
<polygon fill="midnightblue" stroke="midnightblue" points="479.86,-136.23 489.22,-131.25 478.8,-129.31 479.86,-136.23"/>
</g>
<!-- Node16 -->
<g id="node16" class="node">
<title>Node16</title>
<g id="a_node16"><a xlink:href="request__executor_8hpp.html" target="_top" xlink:title="Declares the abstract RequestExecutor interface for executing requests.">
<polygon fill="white" stroke="black" points="876,-112.5 876,-131.5 1016,-131.5 1016,-112.5 876,-112.5"/>
<text text-anchor="middle" x="946" y="-119.5" font-family="Helvetica,sans-Serif" font-size="10.00">inc/request_executor.hpp</text>
</a>
</g>
</g>
<!-- Node1&#45;&gt;Node16 -->
<g id="edge16" class="edge">
<title>Node1&#45;&gt;Node16</title>
<path fill="none" stroke="midnightblue" d="M255.05,-172.42C392.35,-162.6 714.81,-139.54 865.61,-128.75"/>
<polygon fill="midnightblue" stroke="midnightblue" points="866,-132.23 875.73,-128.03 865.5,-125.25 866,-132.23"/>
</g>
<!-- Node5&#45;&gt;Node3 -->
<g id="edge5" class="edge">
<title>Node5&#45;&gt;Node3</title>
<path fill="none" stroke="midnightblue" d="M205.78,-112.5C169.8,-101.75 120.38,-81.54 143,-56 165.33,-30.79 395.47,-16.87 481.65,-12.51"/>
<polygon fill="midnightblue" stroke="midnightblue" points="482.08,-16 491.89,-12.01 481.73,-9.01 482.08,-16"/>
</g>
<!-- Node6 -->
<g id="node6" class="node">
<title>Node6</title>
<g id="a_node6"><a xlink:title=" ">
<polygon fill="white" stroke="#bfbfbf" points="152.5,-56.5 152.5,-75.5 225.5,-75.5 225.5,-56.5 152.5,-56.5"/>
<text text-anchor="middle" x="189" y="-63.5" font-family="Helvetica,sans-Serif" font-size="10.00">string_view</text>
</a>
</g>
</g>
<!-- Node5&#45;&gt;Node6 -->
<g id="edge6" class="edge">
<title>Node5&#45;&gt;Node6</title>
<path fill="none" stroke="midnightblue" d="M230.74,-112.08C223.54,-104.3 212.89,-92.8 204.15,-83.37"/>
<polygon fill="midnightblue" stroke="midnightblue" points="206.47,-80.71 197.1,-75.75 201.33,-85.47 206.47,-80.71"/>
</g>
<!-- Node7 -->
<g id="node7" class="node">
<title>Node7</title>
<g id="a_node7"><a xlink:title=" ">
<polygon fill="white" stroke="#bfbfbf" points="243.5,-56.5 243.5,-75.5 336.5,-75.5 336.5,-56.5 243.5,-56.5"/>
<text text-anchor="middle" x="290" y="-63.5" font-family="Helvetica,sans-Serif" font-size="10.00">unordered_map</text>
</a>
</g>
</g>
<!-- Node5&#45;&gt;Node7 -->
<g id="edge7" class="edge">
<title>Node5&#45;&gt;Node7</title>
<path fill="none" stroke="midnightblue" d="M247.42,-112.08C254.85,-104.22 265.85,-92.57 274.81,-83.08"/>
<polygon fill="midnightblue" stroke="midnightblue" points="277.41,-85.42 281.74,-75.75 272.32,-80.62 277.41,-85.42"/>
</g>
<!-- Node9 -->
<g id="node9" class="node">
<title>Node9</title>
<g id="a_node9"><a xlink:title=" ">
<polygon fill="white" stroke="#bfbfbf" points="354.5,-56.5 354.5,-75.5 401.5,-75.5 401.5,-56.5 354.5,-56.5"/>
<text text-anchor="middle" x="378" y="-63.5" font-family="Helvetica,sans-Serif" font-size="10.00">vector</text>
</a>
</g>
</g>
<!-- Node8&#45;&gt;Node9 -->
<g id="edge9" class="edge">
<title>Node8&#45;&gt;Node9</title>
<path fill="none" stroke="midnightblue" d="M516.86,-112.44C488.24,-103.08 442.29,-88.04 411.16,-77.85"/>
<polygon fill="midnightblue" stroke="midnightblue" points="412.21,-74.51 401.62,-74.73 410.03,-81.17 412.21,-74.51"/>
</g>
<!-- Node10 -->
<g id="node10" class="node">
<title>Node10</title>
<g id="a_node10"><a xlink:title=" ">
<polygon fill="white" stroke="#bfbfbf" points="420,-56.5 420,-75.5 468,-75.5 468,-56.5 420,-56.5"/>
<text text-anchor="middle" x="444" y="-63.5" font-family="Helvetica,sans-Serif" font-size="10.00">thread</text>
</a>
</g>
</g>
<!-- Node8&#45;&gt;Node10 -->
<g id="edge10" class="edge">
<title>Node8&#45;&gt;Node10</title>
<path fill="none" stroke="midnightblue" d="M527.09,-112.32C511.36,-103.74 487.06,-90.49 468.79,-80.52"/>
<polygon fill="midnightblue" stroke="midnightblue" points="470.32,-77.37 459.87,-75.65 466.97,-83.52 470.32,-77.37"/>
</g>
<!-- Node11 -->
<g id="node11" class="node">
<title>Node11</title>
<g id="a_node11"><a xlink:title=" ">
<polygon fill="white" stroke="#bfbfbf" points="486.5,-56.5 486.5,-75.5 533.5,-75.5 533.5,-56.5 486.5,-56.5"/>
<text text-anchor="middle" x="510" y="-63.5" font-family="Helvetica,sans-Serif" font-size="10.00">queue</text>
</a>
</g>
</g>
<!-- Node8&#45;&gt;Node11 -->
<g id="edge11" class="edge">
<title>Node8&#45;&gt;Node11</title>
<path fill="none" stroke="midnightblue" d="M537.55,-112.08C532.99,-104.61 526.33,-93.72 520.71,-84.52"/>
<polygon fill="midnightblue" stroke="midnightblue" points="523.55,-82.46 515.35,-75.75 517.58,-86.11 523.55,-82.46"/>
</g>
<!-- Node12 -->
<g id="node12" class="node">
<title>Node12</title>
<g id="a_node12"><a xlink:title=" ">
<polygon fill="white" stroke="#bfbfbf" points="552,-56.5 552,-75.5 600,-75.5 600,-56.5 552,-56.5"/>
<text text-anchor="middle" x="576" y="-63.5" font-family="Helvetica,sans-Serif" font-size="10.00">mutex</text>
</a>
</g>
</g>
<!-- Node8&#45;&gt;Node12 -->
<g id="edge12" class="edge">
<title>Node8&#45;&gt;Node12</title>
<path fill="none" stroke="midnightblue" d="M548.45,-112.08C553.01,-104.61 559.67,-93.72 565.29,-84.52"/>
<polygon fill="midnightblue" stroke="midnightblue" points="568.42,-86.11 570.65,-75.75 562.45,-82.46 568.42,-86.11"/>
</g>
<!-- Node13 -->
<g id="node13" class="node">
<title>Node13</title>
<g id="a_node13"><a xlink:title=" ">
<polygon fill="white" stroke="#bfbfbf" points="618.5,-56.5 618.5,-75.5 725.5,-75.5 725.5,-56.5 618.5,-56.5"/>
<text text-anchor="middle" x="672" y="-63.5" font-family="Helvetica,sans-Serif" font-size="10.00">condition_variable</text>
</a>
</g>
</g>
<!-- Node8&#45;&gt;Node13 -->
<g id="edge13" class="edge">
<title>Node8&#45;&gt;Node13</title>
<path fill="none" stroke="midnightblue" d="M563.44,-112.44C584.67,-103.56 618.1,-89.56 642.25,-79.45"/>
<polygon fill="midnightblue" stroke="midnightblue" points="643.78,-82.61 651.66,-75.52 641.08,-76.15 643.78,-82.61"/>
</g>
<!-- Node14 -->
<g id="node14" class="node">
<title>Node14</title>
<g id="a_node14"><a xlink:title=" ">
<polygon fill="white" stroke="#bfbfbf" points="743.5,-56.5 743.5,-75.5 808.5,-75.5 808.5,-56.5 743.5,-56.5"/>
<text text-anchor="middle" x="776" y="-63.5" font-family="Helvetica,sans-Serif" font-size="10.00">functional</text>
</a>
</g>
</g>
<!-- Node8&#45;&gt;Node14 -->
<g id="edge14" class="edge">
<title>Node8&#45;&gt;Node14</title>
<path fill="none" stroke="midnightblue" d="M579.92,-112.44C621.7,-102.76 689.65,-87.01 733.58,-76.83"/>
<polygon fill="midnightblue" stroke="midnightblue" points="734.44,-80.23 743.39,-74.56 732.86,-73.41 734.44,-80.23"/>
</g>
<!-- Node15 -->
<g id="node15" class="node">
<title>Node15</title>
<g id="a_node15"><a xlink:title=" ">
<polygon fill="white" stroke="#bfbfbf" points="827,-56.5 827,-75.5 877,-75.5 877,-56.5 827,-56.5"/>
<text text-anchor="middle" x="852" y="-63.5" font-family="Helvetica,sans-Serif" font-size="10.00">atomic</text>
</a>
</g>
</g>
<!-- Node8&#45;&gt;Node15 -->
<g id="edge15" class="edge">
<title>Node8&#45;&gt;Node15</title>
<path fill="none" stroke="midnightblue" d="M596.52,-113.8C649.97,-106.27 734.66,-93.38 816.81,-76.09"/>
<polygon fill="midnightblue" stroke="midnightblue" points="817.76,-79.46 826.81,-73.96 816.3,-72.62 817.76,-79.46"/>
</g>
<!-- Node16&#45;&gt;Node3 -->
<g id="edge17" class="edge">
<title>Node16&#45;&gt;Node3</title>
<path fill="none" stroke="midnightblue" d="M940.99,-112.46C932.01,-98.04 911.7,-69.15 886,-56 826.95,-25.79 625.96,-15.16 546.6,-12.08"/>
<polygon fill="midnightblue" stroke="midnightblue" points="546.37,-8.57 536.24,-11.69 546.11,-15.56 546.37,-8.57"/>
</g>
<!-- Node17 -->
<g id="node17" class="node">
<title>Node17</title>
<g id="a_node17"><a xlink:title=" ">
<polygon fill="white" stroke="#bfbfbf" points="933,-56.5 933,-75.5 1043,-75.5 1043,-56.5 933,-56.5"/>
<text text-anchor="middle" x="988" y="-63.5" font-family="Helvetica,sans-Serif" font-size="10.00">nlohmann/json.hpp</text>
</a>
</g>
</g>
<!-- Node16&#45;&gt;Node17 -->
<g id="edge18" class="edge">
<title>Node16&#45;&gt;Node17</title>
<path fill="none" stroke="midnightblue" d="M952.94,-112.08C958.93,-104.38 967.75,-93.03 975.05,-83.65"/>
<polygon fill="midnightblue" stroke="midnightblue" points="977.82,-85.79 981.19,-75.75 972.29,-81.5 977.82,-85.79"/>
</g>
<!-- Node18 -->
<g id="node18" class="node">
<title>Node18</title>
<g id="a_node18"><a xlink:href="container__request_8hpp.html" target="_top" xlink:title="Data structure for representing a container operation request.">
<polygon fill="white" stroke="black" points="1061.5,-56.5 1061.5,-75.5 1204.5,-75.5 1204.5,-56.5 1061.5,-56.5"/>
<text text-anchor="middle" x="1133" y="-63.5" font-family="Helvetica,sans-Serif" font-size="10.00">inc/container_request.hpp</text>
</a>
</g>
</g>
<!-- Node16&#45;&gt;Node18 -->
<g id="edge19" class="edge">
<title>Node16&#45;&gt;Node18</title>
<path fill="none" stroke="midnightblue" d="M975.63,-112.44C1007.5,-103.24 1058.33,-88.56 1093.56,-78.39"/>
<polygon fill="midnightblue" stroke="midnightblue" points="1094.87,-81.65 1103.51,-75.52 1092.93,-74.93 1094.87,-81.65"/>
</g>
<!-- Node18&#45;&gt;Node3 -->
<g id="edge20" class="edge">
<title>Node18&#45;&gt;Node3</title>
<path fill="none" stroke="midnightblue" d="M1061.46,-56.94C1058.26,-56.62 1055.1,-56.3 1052,-56 860.3,-37.34 629.7,-19.64 546.18,-13.38"/>
<polygon fill="midnightblue" stroke="midnightblue" points="546.29,-9.88 536.06,-12.63 545.77,-16.86 546.29,-9.88"/>
</g>
</g>
</svg>
