<?xml version="1.0" encoding="UTF-8" standalone="no"?>
<!DOCTYPE svg PUBLIC "-//W3C//DTD SVG 1.1//EN"
 "http://www.w3.org/Graphics/SVG/1.1/DTD/svg11.dtd">
<!-- Generated by graphviz version 2.43.0 (0)
 -->
<!-- Title: api/src/http_server.cpp Pages: 1 -->
<svg width="1213pt" height="252pt"
 viewBox="0.00 0.00 1213.00 252.00" xmlns="http://www.w3.org/2000/svg" xmlns:xlink="http://www.w3.org/1999/xlink">
<g id="graph0" class="graph" transform="scale(1 1) rotate(0) translate(4 248)">
<title>api/src/http_server.cpp</title>
<polygon fill="white" stroke="transparent" points="-4,4 -4,-248 1209,-248 1209,4 -4,4"/>
<!-- Node1 -->
<g id="node1" class="node">
<title>Node1</title>
<g id="a_node1"><a xlink:title="Implements the HttpServerHandler class for handling HTTP requests.">
<polygon fill="#bfbfbf" stroke="black" points="1049,-224.5 1049,-243.5 1177,-243.5 1177,-224.5 1049,-224.5"/>
<text text-anchor="middle" x="1113" y="-231.5" font-family="Helvetica,sans-Serif" font-size="10.00">api/src/http_server.cpp</text>
</a>
</g>
</g>
<!-- Node2 -->
<g id="node2" class="node">
<title>Node2</title>
<g id="a_node2"><a xlink:href="http__server_8hpp.html" target="_top" xlink:title="Defines the HttpServerHandler class for handling HTTP requests.">
<polygon fill="white" stroke="black" points="345,-168.5 345,-187.5 455,-187.5 455,-168.5 345,-168.5"/>
<text text-anchor="middle" x="400" y="-175.5" font-family="Helvetica,sans-Serif" font-size="10.00">inc/http_server.hpp</text>
</a>
</g>
</g>
<!-- Node1&#45;&gt;Node2 -->
<g id="edge1" class="edge">
<title>Node1&#45;&gt;Node2</title>
<path fill="none" stroke="midnightblue" d="M1048.78,-228.14C913.84,-217.92 602.06,-194.3 465.77,-183.98"/>
<polygon fill="midnightblue" stroke="midnightblue" points="465.72,-180.47 455.48,-183.2 465.19,-187.45 465.72,-180.47"/>
</g>
<!-- Node17 -->
<g id="node17" class="node">
<title>Node17</title>
<g id="a_node17"><a xlink:title=" ">
<polygon fill="white" stroke="#bfbfbf" points="1095,-56.5 1095,-75.5 1205,-75.5 1205,-56.5 1095,-56.5"/>
<text text-anchor="middle" x="1150" y="-63.5" font-family="Helvetica,sans-Serif" font-size="10.00">nlohmann/json.hpp</text>
</a>
</g>
</g>
<!-- Node1&#45;&gt;Node17 -->
<g id="edge22" class="edge">
<title>Node1&#45;&gt;Node17</title>
<path fill="none" stroke="midnightblue" d="M1114.99,-224.08C1120.81,-197.95 1137.92,-121.21 1145.86,-85.58"/>
<polygon fill="midnightblue" stroke="midnightblue" points="1149.33,-86.09 1148.09,-75.57 1142.5,-84.57 1149.33,-86.09"/>
</g>
<!-- Node19 -->
<g id="node19" class="node">
<title>Node19</title>
<g id="a_node19"><a xlink:title=" ">
<polygon fill="white" stroke="#bfbfbf" points="1141.5,-168.5 1141.5,-187.5 1198.5,-187.5 1198.5,-168.5 1141.5,-168.5"/>
<text text-anchor="middle" x="1170" y="-175.5" font-family="Helvetica,sans-Serif" font-size="10.00">httplib.h</text>
</a>
</g>
</g>
<!-- Node1&#45;&gt;Node19 -->
<g id="edge21" class="edge">
<title>Node1&#45;&gt;Node19</title>
<path fill="none" stroke="midnightblue" d="M1122.16,-224.32C1130.5,-216.42 1143.03,-204.55 1153.18,-194.94"/>
<polygon fill="midnightblue" stroke="midnightblue" points="1155.82,-197.25 1160.68,-187.83 1151.01,-192.17 1155.82,-197.25"/>
</g>
<!-- Node3 -->
<g id="node3" class="node">
<title>Node3</title>
<g id="a_node3"><a xlink:title=" ">
<polygon fill="white" stroke="#bfbfbf" points="0,-112.5 0,-131.5 58,-131.5 58,-112.5 0,-112.5"/>
<text text-anchor="middle" x="29" y="-119.5" font-family="Helvetica,sans-Serif" font-size="10.00">memory</text>
</a>
</g>
</g>
<!-- Node2&#45;&gt;Node3 -->
<g id="edge2" class="edge">
<title>Node2&#45;&gt;Node3</title>
<path fill="none" stroke="midnightblue" d="M344.98,-170.64C279.67,-162.83 167.57,-148.54 72,-132 70.73,-131.78 69.44,-131.55 68.14,-131.31"/>
<polygon fill="midnightblue" stroke="midnightblue" points="68.57,-127.83 58.09,-129.38 67.25,-134.71 68.57,-127.83"/>
</g>
<!-- Node4 -->
<g id="node4" class="node">
<title>Node4</title>
<g id="a_node4"><a xlink:title=" ">
<polygon fill="white" stroke="#bfbfbf" points="492,-0.5 492,-19.5 536,-19.5 536,-0.5 492,-0.5"/>
<text text-anchor="middle" x="514" y="-7.5" font-family="Helvetica,sans-Serif" font-size="10.00">string</text>
</a>
</g>
</g>
<!-- Node2&#45;&gt;Node4 -->
<g id="edge3" class="edge">
<title>Node2&#45;&gt;Node4</title>
<path fill="none" stroke="midnightblue" d="M344.81,-171.57C249.39,-160.14 69.63,-128.44 134,-56 156.98,-30.14 394.17,-16.57 481.75,-12.41"/>
<polygon fill="midnightblue" stroke="midnightblue" points="482.07,-15.9 491.9,-11.94 481.74,-8.91 482.07,-15.9"/>
</g>
<!-- Node5 -->
<g id="node5" class="node">
<title>Node5</title>
<g id="a_node5"><a xlink:href="common_8hpp.html" target="_top" xlink:title="Defines common constants, string views, and utility structures for the application.">
<polygon fill="white" stroke="black" points="191,-112.5 191,-131.5 289,-131.5 289,-112.5 191,-112.5"/>
<text text-anchor="middle" x="240" y="-119.5" font-family="Helvetica,sans-Serif" font-size="10.00">inc/common.hpp</text>
</a>
</g>
</g>
<!-- Node2&#45;&gt;Node5 -->
<g id="edge4" class="edge">
<title>Node2&#45;&gt;Node5</title>
<path fill="none" stroke="midnightblue" d="M374.65,-168.44C347.73,-159.36 305,-144.94 274.91,-134.78"/>
<polygon fill="midnightblue" stroke="midnightblue" points="275.83,-131.4 265.23,-131.52 273.59,-138.03 275.83,-131.4"/>
</g>
<!-- Node8 -->
<g id="node8" class="node">
<title>Node8</title>
<g id="a_node8"><a xlink:href="threadpool_8hpp.html" target="_top" xlink:title="Declares the ThreadPool utility class for managing worker threads.">
<polygon fill="white" stroke="black" points="489.5,-112.5 489.5,-131.5 596.5,-131.5 596.5,-112.5 489.5,-112.5"/>
<text text-anchor="middle" x="543" y="-119.5" font-family="Helvetica,sans-Serif" font-size="10.00">inc/threadpool.hpp</text>
</a>
</g>
</g>
<!-- Node2&#45;&gt;Node8 -->
<g id="edge8" class="edge">
<title>Node2&#45;&gt;Node8</title>
<path fill="none" stroke="midnightblue" d="M422.66,-168.44C446.4,-159.48 483.91,-145.31 510.74,-135.18"/>
<polygon fill="midnightblue" stroke="midnightblue" points="512.33,-138.32 520.45,-131.52 509.86,-131.77 512.33,-138.32"/>
</g>
<!-- Node16 -->
<g id="node16" class="node">
<title>Node16</title>
<g id="a_node16"><a xlink:href="request__executor_8hpp.html" target="_top" xlink:title="Declares the abstract RequestExecutor interface for executing requests.">
<polygon fill="white" stroke="black" points="872,-112.5 872,-131.5 1012,-131.5 1012,-112.5 872,-112.5"/>
<text text-anchor="middle" x="942" y="-119.5" font-family="Helvetica,sans-Serif" font-size="10.00">inc/request_executor.hpp</text>
</a>
</g>
</g>
<!-- Node2&#45;&gt;Node16 -->
<g id="edge16" class="edge">
<title>Node2&#45;&gt;Node16</title>
<path fill="none" stroke="midnightblue" d="M455.2,-171.5C551.36,-161.92 749.96,-142.13 861.49,-131.02"/>
<polygon fill="midnightblue" stroke="midnightblue" points="862.07,-134.48 871.67,-130.01 861.37,-127.52 862.07,-134.48"/>
</g>
<!-- Node5&#45;&gt;Node4 -->
<g id="edge5" class="edge">
<title>Node5&#45;&gt;Node4</title>
<path fill="none" stroke="midnightblue" d="M206.13,-112.47C169.83,-101.76 120.28,-81.64 143,-56 165.33,-30.79 395.47,-16.87 481.65,-12.51"/>
<polygon fill="midnightblue" stroke="midnightblue" points="482.08,-16 491.89,-12.01 481.73,-9.01 482.08,-16"/>
</g>
<!-- Node6 -->
<g id="node6" class="node">
<title>Node6</title>
<g id="a_node6"><a xlink:title=" ">
<polygon fill="white" stroke="#bfbfbf" points="152.5,-56.5 152.5,-75.5 225.5,-75.5 225.5,-56.5 152.5,-56.5"/>
<text text-anchor="middle" x="189" y="-63.5" font-family="Helvetica,sans-Serif" font-size="10.00">string_view</text>
</a>
</g>
</g>
<!-- Node5&#45;&gt;Node6 -->
<g id="edge6" class="edge">
<title>Node5&#45;&gt;Node6</title>
<path fill="none" stroke="midnightblue" d="M231.58,-112.08C224.15,-104.22 213.15,-92.57 204.19,-83.08"/>
<polygon fill="midnightblue" stroke="midnightblue" points="206.68,-80.62 197.26,-75.75 201.59,-85.42 206.68,-80.62"/>
</g>
<!-- Node7 -->
<g id="node7" class="node">
<title>Node7</title>
<g id="a_node7"><a xlink:title=" ">
<polygon fill="white" stroke="#bfbfbf" points="243.5,-56.5 243.5,-75.5 336.5,-75.5 336.5,-56.5 243.5,-56.5"/>
<text text-anchor="middle" x="290" y="-63.5" font-family="Helvetica,sans-Serif" font-size="10.00">unordered_map</text>
</a>
</g>
</g>
<!-- Node5&#45;&gt;Node7 -->
<g id="edge7" class="edge">
<title>Node5&#45;&gt;Node7</title>
<path fill="none" stroke="midnightblue" d="M248.26,-112.08C255.46,-104.3 266.11,-92.8 274.85,-83.37"/>
<polygon fill="midnightblue" stroke="midnightblue" points="277.67,-85.47 281.9,-75.75 272.53,-80.71 277.67,-85.47"/>
</g>
<!-- Node9 -->
<g id="node9" class="node">
<title>Node9</title>
<g id="a_node9"><a xlink:title=" ">
<polygon fill="white" stroke="#bfbfbf" points="354.5,-56.5 354.5,-75.5 401.5,-75.5 401.5,-56.5 354.5,-56.5"/>
<text text-anchor="middle" x="378" y="-63.5" font-family="Helvetica,sans-Serif" font-size="10.00">vector</text>
</a>
</g>
</g>
<!-- Node8&#45;&gt;Node9 -->
<g id="edge9" class="edge">
<title>Node8&#45;&gt;Node9</title>
<path fill="none" stroke="midnightblue" d="M516.86,-112.44C488.24,-103.08 442.29,-88.04 411.16,-77.85"/>
<polygon fill="midnightblue" stroke="midnightblue" points="412.21,-74.51 401.62,-74.73 410.03,-81.17 412.21,-74.51"/>
</g>
<!-- Node10 -->
<g id="node10" class="node">
<title>Node10</title>
<g id="a_node10"><a xlink:title=" ">
<polygon fill="white" stroke="#bfbfbf" points="420,-56.5 420,-75.5 468,-75.5 468,-56.5 420,-56.5"/>
<text text-anchor="middle" x="444" y="-63.5" font-family="Helvetica,sans-Serif" font-size="10.00">thread</text>
</a>
</g>
</g>
<!-- Node8&#45;&gt;Node10 -->
<g id="edge10" class="edge">
<title>Node8&#45;&gt;Node10</title>
<path fill="none" stroke="midnightblue" d="M527.09,-112.32C511.36,-103.74 487.06,-90.49 468.79,-80.52"/>
<polygon fill="midnightblue" stroke="midnightblue" points="470.32,-77.37 459.87,-75.65 466.97,-83.52 470.32,-77.37"/>
</g>
<!-- Node11 -->
<g id="node11" class="node">
<title>Node11</title>
<g id="a_node11"><a xlink:title=" ">
<polygon fill="white" stroke="#bfbfbf" points="486.5,-56.5 486.5,-75.5 533.5,-75.5 533.5,-56.5 486.5,-56.5"/>
<text text-anchor="middle" x="510" y="-63.5" font-family="Helvetica,sans-Serif" font-size="10.00">queue</text>
</a>
</g>
</g>
<!-- Node8&#45;&gt;Node11 -->
<g id="edge11" class="edge">
<title>Node8&#45;&gt;Node11</title>
<path fill="none" stroke="midnightblue" d="M537.55,-112.08C532.99,-104.61 526.33,-93.72 520.71,-84.52"/>
<polygon fill="midnightblue" stroke="midnightblue" points="523.55,-82.46 515.35,-75.75 517.58,-86.11 523.55,-82.46"/>
</g>
<!-- Node12 -->
<g id="node12" class="node">
<title>Node12</title>
<g id="a_node12"><a xlink:title=" ">
<polygon fill="white" stroke="#bfbfbf" points="552,-56.5 552,-75.5 600,-75.5 600,-56.5 552,-56.5"/>
<text text-anchor="middle" x="576" y="-63.5" font-family="Helvetica,sans-Serif" font-size="10.00">mutex</text>
</a>
</g>
</g>
<!-- Node8&#45;&gt;Node12 -->
<g id="edge12" class="edge">
<title>Node8&#45;&gt;Node12</title>
<path fill="none" stroke="midnightblue" d="M548.45,-112.08C553.01,-104.61 559.67,-93.72 565.29,-84.52"/>
<polygon fill="midnightblue" stroke="midnightblue" points="568.42,-86.11 570.65,-75.75 562.45,-82.46 568.42,-86.11"/>
</g>
<!-- Node13 -->
<g id="node13" class="node">
<title>Node13</title>
<g id="a_node13"><a xlink:title=" ">
<polygon fill="white" stroke="#bfbfbf" points="618.5,-56.5 618.5,-75.5 725.5,-75.5 725.5,-56.5 618.5,-56.5"/>
<text text-anchor="middle" x="672" y="-63.5" font-family="Helvetica,sans-Serif" font-size="10.00">condition_variable</text>
</a>
</g>
</g>
<!-- Node8&#45;&gt;Node13 -->
<g id="edge13" class="edge">
<title>Node8&#45;&gt;Node13</title>
<path fill="none" stroke="midnightblue" d="M563.44,-112.44C584.67,-103.56 618.1,-89.56 642.25,-79.45"/>
<polygon fill="midnightblue" stroke="midnightblue" points="643.78,-82.61 651.66,-75.52 641.08,-76.15 643.78,-82.61"/>
</g>
<!-- Node14 -->
<g id="node14" class="node">
<title>Node14</title>
<g id="a_node14"><a xlink:title=" ">
<polygon fill="white" stroke="#bfbfbf" points="743.5,-56.5 743.5,-75.5 808.5,-75.5 808.5,-56.5 743.5,-56.5"/>
<text text-anchor="middle" x="776" y="-63.5" font-family="Helvetica,sans-Serif" font-size="10.00">functional</text>
</a>
</g>
</g>
<!-- Node8&#45;&gt;Node14 -->
<g id="edge14" class="edge">
<title>Node8&#45;&gt;Node14</title>
<path fill="none" stroke="midnightblue" d="M579.92,-112.44C621.7,-102.76 689.65,-87.01 733.58,-76.83"/>
<polygon fill="midnightblue" stroke="midnightblue" points="734.44,-80.23 743.39,-74.56 732.86,-73.41 734.44,-80.23"/>
</g>
<!-- Node15 -->
<g id="node15" class="node">
<title>Node15</title>
<g id="a_node15"><a xlink:title=" ">
<polygon fill="white" stroke="#bfbfbf" points="827,-56.5 827,-75.5 877,-75.5 877,-56.5 827,-56.5"/>
<text text-anchor="middle" x="852" y="-63.5" font-family="Helvetica,sans-Serif" font-size="10.00">atomic</text>
</a>
</g>
</g>
<!-- Node8&#45;&gt;Node15 -->
<g id="edge15" class="edge">
<title>Node8&#45;&gt;Node15</title>
<path fill="none" stroke="midnightblue" d="M596.52,-113.8C649.97,-106.27 734.66,-93.38 816.81,-76.09"/>
<polygon fill="midnightblue" stroke="midnightblue" points="817.76,-79.46 826.81,-73.96 816.3,-72.62 817.76,-79.46"/>
</g>
<!-- Node16&#45;&gt;Node4 -->
<g id="edge17" class="edge">
<title>Node16&#45;&gt;Node4</title>
<path fill="none" stroke="midnightblue" d="M937.48,-112.47C929.33,-98.06 910.71,-69.18 886,-56 827.48,-24.78 626.17,-14.75 546.67,-11.95"/>
<polygon fill="midnightblue" stroke="midnightblue" points="546.4,-8.44 536.29,-11.61 546.17,-15.44 546.4,-8.44"/>
</g>
<!-- Node16&#45;&gt;Node17 -->
<g id="edge18" class="edge">
<title>Node16&#45;&gt;Node17</title>
<path fill="none" stroke="midnightblue" d="M974.96,-112.44C1010.79,-103.14 1068.16,-88.25 1107.39,-78.06"/>
<polygon fill="midnightblue" stroke="midnightblue" points="1108.4,-81.42 1117.2,-75.52 1106.64,-74.64 1108.4,-81.42"/>
</g>
<!-- Node18 -->
<g id="node18" class="node">
<title>Node18</title>
<g id="a_node18"><a xlink:href="container__request_8hpp.html" target="_top" xlink:title="Data structure for representing a container operation request.">
<polygon fill="white" stroke="black" points="933.5,-56.5 933.5,-75.5 1076.5,-75.5 1076.5,-56.5 933.5,-56.5"/>
<text text-anchor="middle" x="1005" y="-63.5" font-family="Helvetica,sans-Serif" font-size="10.00">inc/container_request.hpp</text>
</a>
</g>
</g>
<!-- Node16&#45;&gt;Node18 -->
<g id="edge19" class="edge">
<title>Node16&#45;&gt;Node18</title>
<path fill="none" stroke="midnightblue" d="M952.12,-112.32C961.53,-104.26 975.74,-92.08 987.07,-82.37"/>
<polygon fill="midnightblue" stroke="midnightblue" points="989.38,-85 994.69,-75.83 984.82,-79.68 989.38,-85"/>
</g>
<!-- Node18&#45;&gt;Node4 -->
<g id="edge20" class="edge">
<title>Node18&#45;&gt;Node4</title>
<path fill="none" stroke="midnightblue" d="M933.34,-57.12C825.3,-45.24 625,-23.21 546.64,-14.59"/>
<polygon fill="midnightblue" stroke="midnightblue" points="546.73,-11.08 536.41,-13.46 545.97,-18.04 546.73,-11.08"/>
</g>
</g>
</svg>
