<?xml version="1.0" encoding="UTF-8" standalone="no"?>
<!DOCTYPE svg PUBLIC "-//W3C//DTD SVG 1.1//EN"
 "http://www.w3.org/Graphics/SVG/1.1/DTD/svg11.dtd">
<!-- Generated by graphviz version 2.43.0 (0)
 -->
<!-- Title: api/src/http_server.cpp Pages: 1 -->
<svg width="1018pt" height="308pt"
 viewBox="0.00 0.00 1017.72 308.00" xmlns="http://www.w3.org/2000/svg" xmlns:xlink="http://www.w3.org/1999/xlink">
<g id="graph0" class="graph" transform="scale(1 1) rotate(0) translate(4 304)">
<title>api/src/http_server.cpp</title>
<polygon fill="white" stroke="transparent" points="-4,4 -4,-304 1013.72,-304 1013.72,4 -4,4"/>
<!-- Node1 -->
<g id="node1" class="node">
<title>Node1</title>
<g id="a_node1"><a xlink:title="Implements the HttpServerHandler class for handling HTTP requests.">
<polygon fill="#bfbfbf" stroke="black" points="860.22,-280.5 860.22,-299.5 988.22,-299.5 988.22,-280.5 860.22,-280.5"/>
<text text-anchor="middle" x="924.22" y="-287.5" font-family="Helvetica,sans-Serif" font-size="10.00">api/src/http_server.cpp</text>
</a>
</g>
</g>
<!-- Node2 -->
<g id="node2" class="node">
<title>Node2</title>
<g id="a_node2"><a xlink:href="http__server_8hpp.html" target="_top" xlink:title="Defines the HttpServerHandler class for handling HTTP requests.">
<polygon fill="white" stroke="black" points="382.22,-224.5 382.22,-243.5 492.22,-243.5 492.22,-224.5 382.22,-224.5"/>
<text text-anchor="middle" x="437.22" y="-231.5" font-family="Helvetica,sans-Serif" font-size="10.00">inc/http_server.hpp</text>
</a>
</g>
</g>
<!-- Node1&#45;&gt;Node2 -->
<g id="edge1" class="edge">
<title>Node1&#45;&gt;Node2</title>
<path fill="none" stroke="midnightblue" d="M860.05,-281.88C767.2,-271.59 596.26,-252.63 502.68,-242.26"/>
<polygon fill="midnightblue" stroke="midnightblue" points="502.82,-238.75 492.49,-241.13 502.05,-245.71 502.82,-238.75"/>
</g>
<!-- Node18 -->
<g id="node18" class="node">
<title>Node18</title>
<g id="a_node18"><a xlink:title=" ">
<polygon fill="white" stroke="#bfbfbf" points="869.22,-56.5 869.22,-75.5 979.22,-75.5 979.22,-56.5 869.22,-56.5"/>
<text text-anchor="middle" x="924.22" y="-63.5" font-family="Helvetica,sans-Serif" font-size="10.00">nlohmann/json.hpp</text>
</a>
</g>
</g>
<!-- Node1&#45;&gt;Node18 -->
<g id="edge22" class="edge">
<title>Node1&#45;&gt;Node18</title>
<path fill="none" stroke="midnightblue" d="M924.22,-280.3C924.22,-247.63 924.22,-131.87 924.22,-85.96"/>
<polygon fill="midnightblue" stroke="midnightblue" points="927.72,-85.88 924.22,-75.88 920.72,-85.88 927.72,-85.88"/>
</g>
<!-- Node20 -->
<g id="node20" class="node">
<title>Node20</title>
<g id="a_node20"><a xlink:title=" ">
<polygon fill="white" stroke="#bfbfbf" points="952.72,-224.5 952.72,-243.5 1009.72,-243.5 1009.72,-224.5 952.72,-224.5"/>
<text text-anchor="middle" x="981.22" y="-231.5" font-family="Helvetica,sans-Serif" font-size="10.00">httplib.h</text>
</a>
</g>
</g>
<!-- Node1&#45;&gt;Node20 -->
<g id="edge21" class="edge">
<title>Node1&#45;&gt;Node20</title>
<path fill="none" stroke="midnightblue" d="M933.38,-280.32C941.72,-272.42 954.25,-260.55 964.4,-250.94"/>
<polygon fill="midnightblue" stroke="midnightblue" points="967.05,-253.25 971.9,-243.83 962.23,-248.17 967.05,-253.25"/>
</g>
<!-- Node3 -->
<g id="node3" class="node">
<title>Node3</title>
<g id="a_node3"><a xlink:title=" ">
<polygon fill="white" stroke="#bfbfbf" points="26.22,-168.5 26.22,-187.5 84.22,-187.5 84.22,-168.5 26.22,-168.5"/>
<text text-anchor="middle" x="55.22" y="-175.5" font-family="Helvetica,sans-Serif" font-size="10.00">memory</text>
</a>
</g>
</g>
<!-- Node2&#45;&gt;Node3 -->
<g id="edge2" class="edge">
<title>Node2&#45;&gt;Node3</title>
<path fill="none" stroke="midnightblue" d="M382.14,-227.55C316.05,-220.63 201.71,-207.4 94.62,-188.1"/>
<polygon fill="midnightblue" stroke="midnightblue" points="95.08,-184.63 84.62,-186.28 93.83,-191.51 95.08,-184.63"/>
</g>
<!-- Node4 -->
<g id="node4" class="node">
<title>Node4</title>
<g id="a_node4"><a xlink:href="common_8hpp.html" target="_top" xlink:title="Defines common constants, string views, and utility structures for the application.">
<polygon fill="white" stroke="black" points="102.22,-168.5 102.22,-187.5 200.22,-187.5 200.22,-168.5 102.22,-168.5"/>
<text text-anchor="middle" x="151.22" y="-175.5" font-family="Helvetica,sans-Serif" font-size="10.00">inc/common.hpp</text>
</a>
</g>
</g>
<!-- Node2&#45;&gt;Node4 -->
<g id="edge3" class="edge">
<title>Node2&#45;&gt;Node4</title>
<path fill="none" stroke="midnightblue" d="M391.9,-224.44C341.59,-214.94 260.38,-199.61 206.41,-189.42"/>
<polygon fill="midnightblue" stroke="midnightblue" points="206.8,-185.93 196.33,-187.52 205.5,-192.81 206.8,-185.93"/>
</g>
<!-- Node8 -->
<g id="node8" class="node">
<title>Node8</title>
<g id="a_node8"><a xlink:href="threadpool_8hpp.html" target="_top" xlink:title="Declares the ThreadPool utility class for managing worker threads.">
<polygon fill="white" stroke="black" points="383.72,-168.5 383.72,-187.5 490.72,-187.5 490.72,-168.5 383.72,-168.5"/>
<text text-anchor="middle" x="437.22" y="-175.5" font-family="Helvetica,sans-Serif" font-size="10.00">inc/threadpool.hpp</text>
</a>
</g>
</g>
<!-- Node2&#45;&gt;Node8 -->
<g id="edge7" class="edge">
<title>Node2&#45;&gt;Node8</title>
<path fill="none" stroke="midnightblue" d="M437.22,-224.08C437.22,-217.01 437.22,-206.86 437.22,-197.99"/>
<polygon fill="midnightblue" stroke="midnightblue" points="440.72,-197.75 437.22,-187.75 433.72,-197.75 440.72,-197.75"/>
</g>
<!-- Node16 -->
<g id="node16" class="node">
<title>Node16</title>
<g id="a_node16"><a xlink:href="json__request__executor_8hpp.html" target="_top" xlink:title="Defines the JsonRequestExecutorHandler class for executing JSON&#45;based requests.">
<polygon fill="white" stroke="black" points="619.72,-168.5 619.72,-187.5 784.72,-187.5 784.72,-168.5 619.72,-168.5"/>
<text text-anchor="middle" x="702.22" y="-175.5" font-family="Helvetica,sans-Serif" font-size="10.00">inc/json_request_executor.hpp</text>
</a>
</g>
</g>
<!-- Node2&#45;&gt;Node16 -->
<g id="edge15" class="edge">
<title>Node2&#45;&gt;Node16</title>
<path fill="none" stroke="midnightblue" d="M479.21,-224.44C525.63,-214.98 600.45,-199.74 650.46,-189.55"/>
<polygon fill="midnightblue" stroke="midnightblue" points="651.33,-192.94 660.43,-187.52 649.93,-186.08 651.33,-192.94"/>
</g>
<!-- Node5 -->
<g id="node5" class="node">
<title>Node5</title>
<g id="a_node5"><a xlink:title=" ">
<polygon fill="white" stroke="#bfbfbf" points="657.22,-0.5 657.22,-19.5 701.22,-19.5 701.22,-0.5 657.22,-0.5"/>
<text text-anchor="middle" x="679.22" y="-7.5" font-family="Helvetica,sans-Serif" font-size="10.00">string</text>
</a>
</g>
</g>
<!-- Node4&#45;&gt;Node5 -->
<g id="edge4" class="edge">
<title>Node4&#45;&gt;Node5</title>
<path fill="none" stroke="midnightblue" d="M102.23,-168.44C64.23,-160.69 16.09,-148.04 4.22,-132 -1.06,-124.85 -1.58,-118.73 4.22,-112 89.06,-13.53 524.19,-9.66 646.94,-10.56"/>
<polygon fill="midnightblue" stroke="midnightblue" points="647.15,-14.07 657.19,-10.66 647.22,-7.07 647.15,-14.07"/>
</g>
<!-- Node6 -->
<g id="node6" class="node">
<title>Node6</title>
<g id="a_node6"><a xlink:title=" ">
<polygon fill="white" stroke="#bfbfbf" points="13.72,-112.5 13.72,-131.5 86.72,-131.5 86.72,-112.5 13.72,-112.5"/>
<text text-anchor="middle" x="50.22" y="-119.5" font-family="Helvetica,sans-Serif" font-size="10.00">string_view</text>
</a>
</g>
</g>
<!-- Node4&#45;&gt;Node6 -->
<g id="edge5" class="edge">
<title>Node4&#45;&gt;Node6</title>
<path fill="none" stroke="midnightblue" d="M134.99,-168.32C118.87,-159.7 93.92,-146.36 75.26,-136.39"/>
<polygon fill="midnightblue" stroke="midnightblue" points="76.88,-133.28 66.41,-131.65 73.58,-139.46 76.88,-133.28"/>
</g>
<!-- Node7 -->
<g id="node7" class="node">
<title>Node7</title>
<g id="a_node7"><a xlink:title=" ">
<polygon fill="white" stroke="#bfbfbf" points="104.72,-112.5 104.72,-131.5 197.72,-131.5 197.72,-112.5 104.72,-112.5"/>
<text text-anchor="middle" x="151.22" y="-119.5" font-family="Helvetica,sans-Serif" font-size="10.00">unordered_map</text>
</a>
</g>
</g>
<!-- Node4&#45;&gt;Node7 -->
<g id="edge6" class="edge">
<title>Node4&#45;&gt;Node7</title>
<path fill="none" stroke="midnightblue" d="M151.22,-168.08C151.22,-161.01 151.22,-150.86 151.22,-141.99"/>
<polygon fill="midnightblue" stroke="midnightblue" points="154.72,-141.75 151.22,-131.75 147.72,-141.75 154.72,-141.75"/>
</g>
<!-- Node9 -->
<g id="node9" class="node">
<title>Node9</title>
<g id="a_node9"><a xlink:title=" ">
<polygon fill="white" stroke="#bfbfbf" points="215.72,-112.5 215.72,-131.5 262.72,-131.5 262.72,-112.5 215.72,-112.5"/>
<text text-anchor="middle" x="239.22" y="-119.5" font-family="Helvetica,sans-Serif" font-size="10.00">vector</text>
</a>
</g>
</g>
<!-- Node8&#45;&gt;Node9 -->
<g id="edge8" class="edge">
<title>Node8&#45;&gt;Node9</title>
<path fill="none" stroke="midnightblue" d="M405.85,-168.44C369.57,-158.55 310.08,-142.32 272.86,-132.17"/>
<polygon fill="midnightblue" stroke="midnightblue" points="273.56,-128.74 262.99,-129.48 271.72,-135.49 273.56,-128.74"/>
</g>
<!-- Node10 -->
<g id="node10" class="node">
<title>Node10</title>
<g id="a_node10"><a xlink:title=" ">
<polygon fill="white" stroke="#bfbfbf" points="281.22,-112.5 281.22,-131.5 329.22,-131.5 329.22,-112.5 281.22,-112.5"/>
<text text-anchor="middle" x="305.22" y="-119.5" font-family="Helvetica,sans-Serif" font-size="10.00">thread</text>
</a>
</g>
</g>
<!-- Node8&#45;&gt;Node10 -->
<g id="edge9" class="edge">
<title>Node8&#45;&gt;Node10</title>
<path fill="none" stroke="midnightblue" d="M416.31,-168.44C394.49,-159.52 360.07,-145.44 335.33,-135.32"/>
<polygon fill="midnightblue" stroke="midnightblue" points="336.62,-132.06 326.04,-131.52 333.97,-138.54 336.62,-132.06"/>
</g>
<!-- Node11 -->
<g id="node11" class="node">
<title>Node11</title>
<g id="a_node11"><a xlink:title=" ">
<polygon fill="white" stroke="#bfbfbf" points="347.72,-112.5 347.72,-131.5 394.72,-131.5 394.72,-112.5 347.72,-112.5"/>
<text text-anchor="middle" x="371.22" y="-119.5" font-family="Helvetica,sans-Serif" font-size="10.00">queue</text>
</a>
</g>
</g>
<!-- Node8&#45;&gt;Node11 -->
<g id="edge10" class="edge">
<title>Node8&#45;&gt;Node11</title>
<path fill="none" stroke="midnightblue" d="M426.62,-168.32C416.77,-160.26 401.87,-148.08 390.01,-138.37"/>
<polygon fill="midnightblue" stroke="midnightblue" points="391.98,-135.46 382.02,-131.83 387.54,-140.88 391.98,-135.46"/>
</g>
<!-- Node12 -->
<g id="node12" class="node">
<title>Node12</title>
<g id="a_node12"><a xlink:title=" ">
<polygon fill="white" stroke="#bfbfbf" points="413.22,-112.5 413.22,-131.5 461.22,-131.5 461.22,-112.5 413.22,-112.5"/>
<text text-anchor="middle" x="437.22" y="-119.5" font-family="Helvetica,sans-Serif" font-size="10.00">mutex</text>
</a>
</g>
</g>
<!-- Node8&#45;&gt;Node12 -->
<g id="edge11" class="edge">
<title>Node8&#45;&gt;Node12</title>
<path fill="none" stroke="midnightblue" d="M437.22,-168.08C437.22,-161.01 437.22,-150.86 437.22,-141.99"/>
<polygon fill="midnightblue" stroke="midnightblue" points="440.72,-141.75 437.22,-131.75 433.72,-141.75 440.72,-141.75"/>
</g>
<!-- Node13 -->
<g id="node13" class="node">
<title>Node13</title>
<g id="a_node13"><a xlink:title=" ">
<polygon fill="white" stroke="#bfbfbf" points="479.72,-112.5 479.72,-131.5 586.72,-131.5 586.72,-112.5 479.72,-112.5"/>
<text text-anchor="middle" x="533.22" y="-119.5" font-family="Helvetica,sans-Serif" font-size="10.00">condition_variable</text>
</a>
</g>
</g>
<!-- Node8&#45;&gt;Node13 -->
<g id="edge12" class="edge">
<title>Node8&#45;&gt;Node13</title>
<path fill="none" stroke="midnightblue" d="M452.65,-168.32C467.76,-159.82 491.04,-146.73 508.69,-136.8"/>
<polygon fill="midnightblue" stroke="midnightblue" points="510.84,-139.61 517.84,-131.65 507.4,-133.51 510.84,-139.61"/>
</g>
<!-- Node14 -->
<g id="node14" class="node">
<title>Node14</title>
<g id="a_node14"><a xlink:title=" ">
<polygon fill="white" stroke="#bfbfbf" points="604.72,-112.5 604.72,-131.5 669.72,-131.5 669.72,-112.5 604.72,-112.5"/>
<text text-anchor="middle" x="637.22" y="-119.5" font-family="Helvetica,sans-Serif" font-size="10.00">functional</text>
</a>
</g>
</g>
<!-- Node8&#45;&gt;Node14 -->
<g id="edge13" class="edge">
<title>Node8&#45;&gt;Node14</title>
<path fill="none" stroke="midnightblue" d="M468.91,-168.44C503.29,-159.16 558.3,-144.31 596.01,-134.13"/>
<polygon fill="midnightblue" stroke="midnightblue" points="596.94,-137.5 605.68,-131.52 595.11,-130.74 596.94,-137.5"/>
</g>
<!-- Node15 -->
<g id="node15" class="node">
<title>Node15</title>
<g id="a_node15"><a xlink:title=" ">
<polygon fill="white" stroke="#bfbfbf" points="688.22,-112.5 688.22,-131.5 738.22,-131.5 738.22,-112.5 688.22,-112.5"/>
<text text-anchor="middle" x="713.22" y="-119.5" font-family="Helvetica,sans-Serif" font-size="10.00">atomic</text>
</a>
</g>
</g>
<!-- Node8&#45;&gt;Node15 -->
<g id="edge14" class="edge">
<title>Node8&#45;&gt;Node15</title>
<path fill="none" stroke="midnightblue" d="M489.38,-168.46C536.34,-160.52 607.44,-147.84 678.06,-132.13"/>
<polygon fill="midnightblue" stroke="midnightblue" points="679.03,-135.5 688.02,-129.9 677.5,-128.67 679.03,-135.5"/>
</g>
<!-- Node17 -->
<g id="node17" class="node">
<title>Node17</title>
<g id="a_node17"><a xlink:href="request__executor_8hpp.html" target="_top" xlink:title="Declares the abstract RequestExecutor interface for executing requests.">
<polygon fill="white" stroke="black" points="756.22,-112.5 756.22,-131.5 896.22,-131.5 896.22,-112.5 756.22,-112.5"/>
<text text-anchor="middle" x="826.22" y="-119.5" font-family="Helvetica,sans-Serif" font-size="10.00">inc/request_executor.hpp</text>
</a>
</g>
</g>
<!-- Node16&#45;&gt;Node17 -->
<g id="edge16" class="edge">
<title>Node16&#45;&gt;Node17</title>
<path fill="none" stroke="midnightblue" d="M721.87,-168.44C742.19,-159.6 774.13,-145.69 797.32,-135.59"/>
<polygon fill="midnightblue" stroke="midnightblue" points="798.9,-138.72 806.67,-131.52 796.1,-132.3 798.9,-138.72"/>
</g>
<!-- Node17&#45;&gt;Node5 -->
<g id="edge17" class="edge">
<title>Node17&#45;&gt;Node5</title>
<path fill="none" stroke="midnightblue" d="M768.74,-112.42C744.4,-106.08 717.52,-95.08 699.22,-76 687.36,-63.63 682.52,-44.38 680.55,-30.04"/>
<polygon fill="midnightblue" stroke="midnightblue" points="684.01,-29.41 679.51,-19.81 677.04,-30.11 684.01,-29.41"/>
</g>
<!-- Node17&#45;&gt;Node18 -->
<g id="edge18" class="edge">
<title>Node17&#45;&gt;Node18</title>
<path fill="none" stroke="midnightblue" d="M841.97,-112.32C857.54,-103.74 881.6,-90.49 899.68,-80.52"/>
<polygon fill="midnightblue" stroke="midnightblue" points="901.45,-83.55 908.52,-75.65 898.07,-77.42 901.45,-83.55"/>
</g>
<!-- Node19 -->
<g id="node19" class="node">
<title>Node19</title>
<g id="a_node19"><a xlink:href="container__request_8hpp.html" target="_top" xlink:title="Data structure for representing a container operation request.">
<polygon fill="white" stroke="black" points="707.72,-56.5 707.72,-75.5 850.72,-75.5 850.72,-56.5 707.72,-56.5"/>
<text text-anchor="middle" x="779.22" y="-63.5" font-family="Helvetica,sans-Serif" font-size="10.00">inc/container_request.hpp</text>
</a>
</g>
</g>
<!-- Node17&#45;&gt;Node19 -->
<g id="edge19" class="edge">
<title>Node17&#45;&gt;Node19</title>
<path fill="none" stroke="midnightblue" d="M818.46,-112.08C811.69,-104.3 801.68,-92.8 793.47,-83.37"/>
<polygon fill="midnightblue" stroke="midnightblue" points="796.04,-81 786.84,-75.75 790.76,-85.59 796.04,-81"/>
</g>
<!-- Node19&#45;&gt;Node5 -->
<g id="edge20" class="edge">
<title>Node19&#45;&gt;Node5</title>
<path fill="none" stroke="midnightblue" d="M763.16,-56.32C747.26,-47.74 722.71,-34.49 704.26,-24.52"/>
<polygon fill="midnightblue" stroke="midnightblue" points="705.71,-21.33 695.25,-19.65 702.39,-27.49 705.71,-21.33"/>
</g>
</g>
</svg>
