<?xml version="1.0" encoding="UTF-8" standalone="no"?>
<!DOCTYPE svg PUBLIC "-//W3C//DTD SVG 1.1//EN"
 "http://www.w3.org/Graphics/SVG/1.1/DTD/svg11.dtd">
<!-- Generated by graphviz version 2.43.0 (0)
 -->
<!-- Title: api/src/http_server.cpp Pages: 1 -->
<!--zoomable 308 -->
<svg id="main" version="1.1" xmlns="http://www.w3.org/2000/svg" xmlns:xlink="http://www.w3.org/1999/xlink" xml:space="preserve" onload="init(evt)">
<style type="text/css"><![CDATA[
.edge:hover path { stroke: red; }
.edge:hover polygon { stroke: red; fill: red; }
]]></style>
<script type="text/javascript"><![CDATA[
var edges = document.getElementsByTagName('g');
if (edges && edges.length) {
  for (var i=0;i<edges.length;i++) {
    if (edges[i].id.substr(0,4)=='edge') {
      edges[i].setAttribute('class','edge');
    }
  }
}
]]></script>
        <defs>
                <circle id="rim" cx="0" cy="0" r="7"/>
                <circle id="rim2" cx="0" cy="0" r="3.5"/>
                <g id="zoomPlus">
                        <use xlink:href="#rim" fill="#404040">
                                <set attributeName="fill" to="#808080" begin="zoomplus.mouseover" end="zoomplus.mouseout"/>
                        </use>
                        <path d="M-4,0h8M0,-4v8" fill="none" stroke="white" stroke-width="1.5" pointer-events="none"/>
                </g>
                <g id="zoomMin">
                        <use xlink:href="#rim" fill="#404040">
                                <set attributeName="fill" to="#808080" begin="zoomminus.mouseover" end="zoomminus.mouseout"/>
                        </use>
                        <path d="M-4,0h8" fill="none" stroke="white" stroke-width="1.5" pointer-events="none"/>
                </g>
                <g id="dirArrow">
                        <path fill="none" stroke="white" stroke-width="1.5" d="M0,-3.0v7 M-2.5,-0.5L0,-3.0L2.5,-0.5"/>
                </g>
               <g id="resetDef">
                       <use xlink:href="#rim2" fill="#404040">
                               <set attributeName="fill" to="#808080" begin="reset.mouseover" end="reset.mouseout"/>
                       </use>
               </g>
        </defs>

<script type="text/javascript">
var viewWidth = 909;
var viewHeight = 308;
var sectionId = 'dynsection-0';
</script>
<script xlink:href="svgpan.js"/>
<svg id="graph" class="graph">
<g id="viewport">
<title>api/src/http_server.cpp</title>
<polygon fill="white" stroke="transparent" points="-4,4 -4,-304 905.11,-304 905.11,4 -4,4"/>
<!-- Node1 -->
<g id="node1" class="node">
<title>Node1</title>
<g id="a_node1"><a xlink:title="Implements the HttpServerHandler class for handling HTTP requests.">
<polygon fill="#bfbfbf" stroke="black" points="751.61,-280.5 751.61,-299.5 879.61,-299.5 879.61,-280.5 751.61,-280.5"/>
<text text-anchor="middle" x="815.61" y="-287.5" font-family="Helvetica,sans-Serif" font-size="10.00">api/src/http_server.cpp</text>
</a>
</g>
</g>
<!-- Node2 -->
<g id="node2" class="node">
<title>Node2</title>
<g id="a_node2"><a xlink:href="http__server_8hpp.html" target="_top" xlink:title="Defines the HttpServerHandler class for handling HTTP requests.">
<polygon fill="white" stroke="black" points="273.61,-224.5 273.61,-243.5 383.61,-243.5 383.61,-224.5 273.61,-224.5"/>
<text text-anchor="middle" x="328.61" y="-231.5" font-family="Helvetica,sans-Serif" font-size="10.00">inc/http_server.hpp</text>
</a>
</g>
</g>
<!-- Node1&#45;&gt;Node2 -->
<g id="edge1" class="edge">
<title>Node1&#45;&gt;Node2</title>
<path fill="none" stroke="midnightblue" d="M751.44,-281.88C658.59,-271.59 487.65,-252.63 394.07,-242.26"/>
<polygon fill="midnightblue" stroke="midnightblue" points="394.21,-238.75 383.88,-241.13 393.43,-245.71 394.21,-238.75"/>
</g>
<!-- Node17 -->
<g id="node17" class="node">
<title>Node17</title>
<g id="a_node17"><a xlink:title=" ">
<polygon fill="white" stroke="#bfbfbf" points="760.61,-56.5 760.61,-75.5 870.61,-75.5 870.61,-56.5 760.61,-56.5"/>
<text text-anchor="middle" x="815.61" y="-63.5" font-family="Helvetica,sans-Serif" font-size="10.00">nlohmann/json.hpp</text>
</a>
</g>
</g>
<!-- Node1&#45;&gt;Node17 -->
<g id="edge21" class="edge">
<title>Node1&#45;&gt;Node17</title>
<path fill="none" stroke="midnightblue" d="M815.61,-280.3C815.61,-247.63 815.61,-131.87 815.61,-85.96"/>
<polygon fill="midnightblue" stroke="midnightblue" points="819.11,-85.88 815.61,-75.88 812.11,-85.88 819.11,-85.88"/>
</g>
<!-- Node19 -->
<g id="node19" class="node">
<title>Node19</title>
<g id="a_node19"><a xlink:title=" ">
<polygon fill="white" stroke="#bfbfbf" points="844.11,-224.5 844.11,-243.5 901.11,-243.5 901.11,-224.5 844.11,-224.5"/>
<text text-anchor="middle" x="872.61" y="-231.5" font-family="Helvetica,sans-Serif" font-size="10.00">httplib.h</text>
</a>
</g>
</g>
<!-- Node1&#45;&gt;Node19 -->
<g id="edge20" class="edge">
<title>Node1&#45;&gt;Node19</title>
<path fill="none" stroke="midnightblue" d="M824.77,-280.32C833.11,-272.42 845.64,-260.55 855.79,-250.94"/>
<polygon fill="midnightblue" stroke="midnightblue" points="858.43,-253.25 863.29,-243.83 853.62,-248.17 858.43,-253.25"/>
</g>
<!-- Node3 -->
<g id="node3" class="node">
<title>Node3</title>
<g id="a_node3"><a xlink:title=" ">
<polygon fill="white" stroke="#bfbfbf" points="5.61,-168.5 5.61,-187.5 63.61,-187.5 63.61,-168.5 5.61,-168.5"/>
<text text-anchor="middle" x="34.61" y="-175.5" font-family="Helvetica,sans-Serif" font-size="10.00">memory</text>
</a>
</g>
</g>
<!-- Node2&#45;&gt;Node3 -->
<g id="edge2" class="edge">
<title>Node2&#45;&gt;Node3</title>
<path fill="none" stroke="midnightblue" d="M274.5,-224.43C224.8,-216.35 148.87,-203.47 73.73,-188.13"/>
<polygon fill="midnightblue" stroke="midnightblue" points="74.12,-184.64 63.62,-186.05 72.71,-191.5 74.12,-184.64"/>
</g>
<!-- Node4 -->
<g id="node4" class="node">
<title>Node4</title>
<g id="a_node4"><a xlink:href="common_8hpp.html" target="_top" xlink:title="Defines common constants, string views, and utility structures for the application.">
<polygon fill="white" stroke="black" points="81.61,-168.5 81.61,-187.5 179.61,-187.5 179.61,-168.5 81.61,-168.5"/>
<text text-anchor="middle" x="130.61" y="-175.5" font-family="Helvetica,sans-Serif" font-size="10.00">inc/common.hpp</text>
</a>
</g>
</g>
<!-- Node2&#45;&gt;Node4 -->
<g id="edge3" class="edge">
<title>Node2&#45;&gt;Node4</title>
<path fill="none" stroke="midnightblue" d="M297.24,-224.44C263.35,-215.2 209.21,-200.44 171.89,-190.26"/>
<polygon fill="midnightblue" stroke="midnightblue" points="172.41,-186.77 161.84,-187.52 170.57,-193.52 172.41,-186.77"/>
</g>
<!-- Node7 -->
<g id="node7" class="node">
<title>Node7</title>
<g id="a_node7"><a xlink:href="threadpool_8hpp.html" target="_top" xlink:title="Declares the ThreadPool utility class for managing worker threads.">
<polygon fill="white" stroke="black" points="275.11,-168.5 275.11,-187.5 382.11,-187.5 382.11,-168.5 275.11,-168.5"/>
<text text-anchor="middle" x="328.61" y="-175.5" font-family="Helvetica,sans-Serif" font-size="10.00">inc/threadpool.hpp</text>
</a>
</g>
</g>
<!-- Node2&#45;&gt;Node7 -->
<g id="edge6" class="edge">
<title>Node2&#45;&gt;Node7</title>
<path fill="none" stroke="midnightblue" d="M328.61,-224.08C328.61,-217.01 328.61,-206.86 328.61,-197.99"/>
<polygon fill="midnightblue" stroke="midnightblue" points="332.11,-197.75 328.61,-187.75 325.11,-197.75 332.11,-197.75"/>
</g>
<!-- Node15 -->
<g id="node15" class="node">
<title>Node15</title>
<g id="a_node15"><a xlink:href="json__request__executor_8hpp.html" target="_top" xlink:title="Defines the JsonRequestExecutorHandler class for executing JSON&#45;based requests.">
<polygon fill="white" stroke="black" points="511.11,-168.5 511.11,-187.5 676.11,-187.5 676.11,-168.5 511.11,-168.5"/>
<text text-anchor="middle" x="593.61" y="-175.5" font-family="Helvetica,sans-Serif" font-size="10.00">inc/json_request_executor.hpp</text>
</a>
</g>
</g>
<!-- Node2&#45;&gt;Node15 -->
<g id="edge14" class="edge">
<title>Node2&#45;&gt;Node15</title>
<path fill="none" stroke="midnightblue" d="M370.6,-224.44C417.02,-214.98 491.84,-199.74 541.85,-189.55"/>
<polygon fill="midnightblue" stroke="midnightblue" points="542.72,-192.94 551.82,-187.52 541.32,-186.08 542.72,-192.94"/>
</g>
<!-- Node5 -->
<g id="node5" class="node">
<title>Node5</title>
<g id="a_node5"><a xlink:title=" ">
<polygon fill="white" stroke="#bfbfbf" points="548.61,-0.5 548.61,-19.5 592.61,-19.5 592.61,-0.5 548.61,-0.5"/>
<text text-anchor="middle" x="570.61" y="-7.5" font-family="Helvetica,sans-Serif" font-size="10.00">string</text>
</a>
</g>
</g>
<!-- Node4&#45;&gt;Node5 -->
<g id="edge4" class="edge">
<title>Node4&#45;&gt;Node5</title>
<path fill="none" stroke="midnightblue" d="M81.27,-169.1C36.67,-159.87 -18.42,-141.92 6.61,-112 75.5,-29.68 429.07,-14.38 538.37,-11.6"/>
<polygon fill="midnightblue" stroke="midnightblue" points="538.55,-15.1 548.46,-11.36 538.38,-8.1 538.55,-15.1"/>
</g>
<!-- Node6 -->
<g id="node6" class="node">
<title>Node6</title>
<g id="a_node6"><a xlink:title=" ">
<polygon fill="white" stroke="#bfbfbf" points="16.11,-112.5 16.11,-131.5 89.11,-131.5 89.11,-112.5 16.11,-112.5"/>
<text text-anchor="middle" x="52.61" y="-119.5" font-family="Helvetica,sans-Serif" font-size="10.00">string_view</text>
</a>
</g>
</g>
<!-- Node4&#45;&gt;Node6 -->
<g id="edge5" class="edge">
<title>Node4&#45;&gt;Node6</title>
<path fill="none" stroke="midnightblue" d="M118.08,-168.32C106.03,-159.98 87.58,-147.21 73.34,-137.35"/>
<polygon fill="midnightblue" stroke="midnightblue" points="75.33,-134.47 65.11,-131.65 71.34,-140.22 75.33,-134.47"/>
</g>
<!-- Node8 -->
<g id="node8" class="node">
<title>Node8</title>
<g id="a_node8"><a xlink:title=" ">
<polygon fill="white" stroke="#bfbfbf" points="107.11,-112.5 107.11,-131.5 154.11,-131.5 154.11,-112.5 107.11,-112.5"/>
<text text-anchor="middle" x="130.61" y="-119.5" font-family="Helvetica,sans-Serif" font-size="10.00">vector</text>
</a>
</g>
</g>
<!-- Node7&#45;&gt;Node8 -->
<g id="edge7" class="edge">
<title>Node7&#45;&gt;Node8</title>
<path fill="none" stroke="midnightblue" d="M297.24,-168.44C260.96,-158.55 201.46,-142.32 164.25,-132.17"/>
<polygon fill="midnightblue" stroke="midnightblue" points="164.95,-128.74 154.38,-129.48 163.11,-135.49 164.95,-128.74"/>
</g>
<!-- Node9 -->
<g id="node9" class="node">
<title>Node9</title>
<g id="a_node9"><a xlink:title=" ">
<polygon fill="white" stroke="#bfbfbf" points="172.61,-112.5 172.61,-131.5 220.61,-131.5 220.61,-112.5 172.61,-112.5"/>
<text text-anchor="middle" x="196.61" y="-119.5" font-family="Helvetica,sans-Serif" font-size="10.00">thread</text>
</a>
</g>
</g>
<!-- Node7&#45;&gt;Node9 -->
<g id="edge8" class="edge">
<title>Node7&#45;&gt;Node9</title>
<path fill="none" stroke="midnightblue" d="M307.7,-168.44C285.88,-159.52 251.46,-145.44 226.72,-135.32"/>
<polygon fill="midnightblue" stroke="midnightblue" points="228.01,-132.06 217.43,-131.52 225.36,-138.54 228.01,-132.06"/>
</g>
<!-- Node10 -->
<g id="node10" class="node">
<title>Node10</title>
<g id="a_node10"><a xlink:title=" ">
<polygon fill="white" stroke="#bfbfbf" points="239.11,-112.5 239.11,-131.5 286.11,-131.5 286.11,-112.5 239.11,-112.5"/>
<text text-anchor="middle" x="262.61" y="-119.5" font-family="Helvetica,sans-Serif" font-size="10.00">queue</text>
</a>
</g>
</g>
<!-- Node7&#45;&gt;Node10 -->
<g id="edge9" class="edge">
<title>Node7&#45;&gt;Node10</title>
<path fill="none" stroke="midnightblue" d="M318.01,-168.32C308.16,-160.26 293.26,-148.08 281.4,-138.37"/>
<polygon fill="midnightblue" stroke="midnightblue" points="283.36,-135.46 273.41,-131.83 278.93,-140.88 283.36,-135.46"/>
</g>
<!-- Node11 -->
<g id="node11" class="node">
<title>Node11</title>
<g id="a_node11"><a xlink:title=" ">
<polygon fill="white" stroke="#bfbfbf" points="304.61,-112.5 304.61,-131.5 352.61,-131.5 352.61,-112.5 304.61,-112.5"/>
<text text-anchor="middle" x="328.61" y="-119.5" font-family="Helvetica,sans-Serif" font-size="10.00">mutex</text>
</a>
</g>
</g>
<!-- Node7&#45;&gt;Node11 -->
<g id="edge10" class="edge">
<title>Node7&#45;&gt;Node11</title>
<path fill="none" stroke="midnightblue" d="M328.61,-168.08C328.61,-161.01 328.61,-150.86 328.61,-141.99"/>
<polygon fill="midnightblue" stroke="midnightblue" points="332.11,-141.75 328.61,-131.75 325.11,-141.75 332.11,-141.75"/>
</g>
<!-- Node12 -->
<g id="node12" class="node">
<title>Node12</title>
<g id="a_node12"><a xlink:title=" ">
<polygon fill="white" stroke="#bfbfbf" points="371.11,-112.5 371.11,-131.5 478.11,-131.5 478.11,-112.5 371.11,-112.5"/>
<text text-anchor="middle" x="424.61" y="-119.5" font-family="Helvetica,sans-Serif" font-size="10.00">condition_variable</text>
</a>
</g>
</g>
<!-- Node7&#45;&gt;Node12 -->
<g id="edge11" class="edge">
<title>Node7&#45;&gt;Node12</title>
<path fill="none" stroke="midnightblue" d="M344.04,-168.32C359.15,-159.82 382.43,-146.73 400.08,-136.8"/>
<polygon fill="midnightblue" stroke="midnightblue" points="402.23,-139.61 409.23,-131.65 398.79,-133.51 402.23,-139.61"/>
</g>
<!-- Node13 -->
<g id="node13" class="node">
<title>Node13</title>
<g id="a_node13"><a xlink:title=" ">
<polygon fill="white" stroke="#bfbfbf" points="496.11,-112.5 496.11,-131.5 561.11,-131.5 561.11,-112.5 496.11,-112.5"/>
<text text-anchor="middle" x="528.61" y="-119.5" font-family="Helvetica,sans-Serif" font-size="10.00">functional</text>
</a>
</g>
</g>
<!-- Node7&#45;&gt;Node13 -->
<g id="edge12" class="edge">
<title>Node7&#45;&gt;Node13</title>
<path fill="none" stroke="midnightblue" d="M360.3,-168.44C394.68,-159.16 449.69,-144.31 487.4,-134.13"/>
<polygon fill="midnightblue" stroke="midnightblue" points="488.33,-137.5 497.07,-131.52 486.5,-130.74 488.33,-137.5"/>
</g>
<!-- Node14 -->
<g id="node14" class="node">
<title>Node14</title>
<g id="a_node14"><a xlink:title=" ">
<polygon fill="white" stroke="#bfbfbf" points="579.61,-112.5 579.61,-131.5 629.61,-131.5 629.61,-112.5 579.61,-112.5"/>
<text text-anchor="middle" x="604.61" y="-119.5" font-family="Helvetica,sans-Serif" font-size="10.00">atomic</text>
</a>
</g>
</g>
<!-- Node7&#45;&gt;Node14 -->
<g id="edge13" class="edge">
<title>Node7&#45;&gt;Node14</title>
<path fill="none" stroke="midnightblue" d="M380.77,-168.46C427.73,-160.52 498.83,-147.84 569.45,-132.13"/>
<polygon fill="midnightblue" stroke="midnightblue" points="570.42,-135.5 579.41,-129.9 568.89,-128.67 570.42,-135.5"/>
</g>
<!-- Node16 -->
<g id="node16" class="node">
<title>Node16</title>
<g id="a_node16"><a xlink:href="request__executor_8hpp.html" target="_top" xlink:title="Declares the abstract RequestExecutor interface for executing requests.">
<polygon fill="white" stroke="black" points="647.61,-112.5 647.61,-131.5 787.61,-131.5 787.61,-112.5 647.61,-112.5"/>
<text text-anchor="middle" x="717.61" y="-119.5" font-family="Helvetica,sans-Serif" font-size="10.00">inc/request_executor.hpp</text>
</a>
</g>
</g>
<!-- Node15&#45;&gt;Node16 -->
<g id="edge15" class="edge">
<title>Node15&#45;&gt;Node16</title>
<path fill="none" stroke="midnightblue" d="M613.26,-168.44C633.58,-159.6 665.51,-145.69 688.71,-135.59"/>
<polygon fill="midnightblue" stroke="midnightblue" points="690.28,-138.72 698.06,-131.52 687.49,-132.3 690.28,-138.72"/>
</g>
<!-- Node16&#45;&gt;Node5 -->
<g id="edge16" class="edge">
<title>Node16&#45;&gt;Node5</title>
<path fill="none" stroke="midnightblue" d="M660.13,-112.42C635.79,-106.08 608.91,-95.08 590.61,-76 578.75,-63.63 573.91,-44.38 571.94,-30.04"/>
<polygon fill="midnightblue" stroke="midnightblue" points="575.39,-29.41 570.9,-19.81 568.43,-30.11 575.39,-29.41"/>
</g>
<!-- Node16&#45;&gt;Node17 -->
<g id="edge17" class="edge">
<title>Node16&#45;&gt;Node17</title>
<path fill="none" stroke="midnightblue" d="M733.36,-112.32C748.93,-103.74 772.99,-90.49 791.07,-80.52"/>
<polygon fill="midnightblue" stroke="midnightblue" points="792.84,-83.55 799.91,-75.65 789.46,-77.42 792.84,-83.55"/>
</g>
<!-- Node18 -->
<g id="node18" class="node">
<title>Node18</title>
<g id="a_node18"><a xlink:href="container__request_8hpp.html" target="_top" xlink:title="Data structure for representing a container operation request.">
<polygon fill="white" stroke="black" points="599.11,-56.5 599.11,-75.5 742.11,-75.5 742.11,-56.5 599.11,-56.5"/>
<text text-anchor="middle" x="670.61" y="-63.5" font-family="Helvetica,sans-Serif" font-size="10.00">inc/container_request.hpp</text>
</a>
</g>
</g>
<!-- Node16&#45;&gt;Node18 -->
<g id="edge18" class="edge">
<title>Node16&#45;&gt;Node18</title>
<path fill="none" stroke="midnightblue" d="M709.85,-112.08C703.07,-104.3 693.07,-92.8 684.86,-83.37"/>
<polygon fill="midnightblue" stroke="midnightblue" points="687.43,-81 678.23,-75.75 682.15,-85.59 687.43,-81"/>
</g>
<!-- Node18&#45;&gt;Node5 -->
<g id="edge19" class="edge">
<title>Node18&#45;&gt;Node5</title>
<path fill="none" stroke="midnightblue" d="M654.54,-56.32C638.65,-47.74 614.1,-34.49 595.65,-24.52"/>
<polygon fill="midnightblue" stroke="midnightblue" points="597.1,-21.33 586.64,-19.65 593.77,-27.49 597.1,-21.33"/>
</g>
</g>
</svg>
        <g id="navigator" transform="translate(0 0)" fill="#404254">
                <rect fill="#f2f5e9" fill-opacity="0.5" stroke="#606060" stroke-width=".5" x="0" y="0" width="60" height="60"/>
                <use id="zoomplus" xlink:href="#zoomPlus" x="17" y="9" onmousedown="handleZoom(evt,'in')"/>
                <use id="zoomminus" xlink:href="#zoomMin" x="42" y="9" onmousedown="handleZoom(evt,'out')"/>
                <use id="reset" xlink:href="#resetDef" x="30" y="36" onmousedown="handleReset()"/>
                <g id="arrowUp" xlink:href="#dirArrow" transform="translate(30 24)" onmousedown="handlePan(0,-1)">
                  <use xlink:href="#rim" fill="#404040">
                        <set attributeName="fill" to="#808080" begin="arrowUp.mouseover" end="arrowUp.mouseout"/>
                  </use>
                  <path fill="none" stroke="white" stroke-width="1.5" d="M0,-3.0v7 M-2.5,-0.5L0,-3.0L2.5,-0.5"/>
                </g>
                <g id="arrowRight" xlink:href="#dirArrow" transform="rotate(90) translate(36 -43)" onmousedown="handlePan(1,0)">
                  <use xlink:href="#rim" fill="#404040">
                        <set attributeName="fill" to="#808080" begin="arrowRight.mouseover" end="arrowRight.mouseout"/>
                  </use>
                  <path fill="none" stroke="white" stroke-width="1.5" d="M0,-3.0v7 M-2.5,-0.5L0,-3.0L2.5,-0.5"/>
                </g>
                <g id="arrowDown" xlink:href="#dirArrow" transform="rotate(180) translate(-30 -48)" onmousedown="handlePan(0,1)">
                  <use xlink:href="#rim" fill="#404040">
                        <set attributeName="fill" to="#808080" begin="arrowDown.mouseover" end="arrowDown.mouseout"/>
                  </use>
                  <path fill="none" stroke="white" stroke-width="1.5" d="M0,-3.0v7 M-2.5,-0.5L0,-3.0L2.5,-0.5"/>
                </g>
                <g id="arrowLeft" xlink:href="#dirArrow" transform="rotate(270) translate(-36 17)" onmousedown="handlePan(-1,0)">
                  <use xlink:href="#rim" fill="#404040">
                        <set attributeName="fill" to="#808080" begin="arrowLeft.mouseover" end="arrowLeft.mouseout"/>
                  </use>
                  <path fill="none" stroke="white" stroke-width="1.5" d="M0,-3.0v7 M-2.5,-0.5L0,-3.0L2.5,-0.5"/>
                </g>
        </g>
        <svg viewBox="0 0 15 15" width="100%" height="30px" preserveAspectRatio="xMaxYMin meet">
         <g id="arrow_out" transform="scale(0.3 0.3)">
          <a xlink:href="http__server_8cpp__incl_org.svg" target="_base">
           <rect id="button" ry="5" rx="5" y="6" x="6" height="38" width="38"
                fill="#f2f5e9" fill-opacity="0.5" stroke="#606060" stroke-width="1.0"/>
           <path id="arrow"
             d="M 11.500037,31.436501 C 11.940474,20.09759 22.043105,11.32322 32.158766,21.979434 L 37.068811,17.246167 C 37.068811,17.246167 37.088388,32 37.088388,32 L 22.160133,31.978069 C 22.160133,31.978069 26.997745,27.140456 26.997745,27.140456 C 18.528582,18.264221 13.291696,25.230495 11.500037,31.436501 z"
             style="fill:#404040;"/>
          </a>
         </g>
        </svg>
</svg>
