<?xml version="1.0" encoding="UTF-8" standalone="no"?>
<!DOCTYPE svg PUBLIC "-//W3C//DTD SVG 1.1//EN"
 "http://www.w3.org/Graphics/SVG/1.1/DTD/svg11.dtd">
<!-- Generated by graphviz version 2.43.0 (0)
 -->
<!-- Title: Graphical Class Hierarchy Pages: 1 -->
<svg width="301pt" height="66pt"
 viewBox="0.00 0.00 301.00 66.00" xmlns="http://www.w3.org/2000/svg" xmlns:xlink="http://www.w3.org/1999/xlink">
<g id="graph0" class="graph" transform="scale(1 1) rotate(0) translate(4 62)">
<title>Graphical Class Hierarchy</title>
<polygon fill="white" stroke="transparent" points="-4,4 -4,-62 297,-62 297,4 -4,4"/>
<!-- Node0 -->
<g id="node1" class="node">
<title>Node0</title>
<g id="a_node1"><a xlink:href="classIDatabaseHandler.html" target="_top" xlink:title="Interface for database handlers supporting JSON storage and retrieval.">
<polygon fill="white" stroke="black" points="0,-19.5 0,-38.5 104,-38.5 104,-19.5 0,-19.5"/>
<text text-anchor="middle" x="52" y="-26.5" font-family="Helvetica,sans-Serif" font-size="10.00">IDatabaseHandler</text>
</a>
</g>
</g>
<!-- Node1 -->
<g id="node2" class="node">
<title>Node1</title>
<g id="a_node2"><a xlink:href="classEmbeddedDatabaseHandler.html" target="_top" xlink:title="Lightweight, fixed&#45;size in&#45;memory key&#45;value store for embedded systems.">
<polygon fill="white" stroke="black" points="140,-38.5 140,-57.5 293,-57.5 293,-38.5 140,-38.5"/>
<text text-anchor="middle" x="216.5" y="-45.5" font-family="Helvetica,sans-Serif" font-size="10.00">EmbeddedDatabaseHandler</text>
</a>
</g>
</g>
<!-- Node0&#45;&gt;Node1 -->
<g id="edge1" class="edge">
<title>Node0&#45;&gt;Node1</title>
<path fill="none" stroke="midnightblue" d="M114.37,-36.18C122.67,-37.15 131.27,-38.15 139.78,-39.15"/>
<polygon fill="midnightblue" stroke="midnightblue" points="114.75,-32.7 104.42,-35.01 113.94,-39.65 114.75,-32.7"/>
</g>
<!-- Node2 -->
<g id="node3" class="node">
<title>Node2</title>
<g id="a_node3"><a xlink:href="classRedisDatabaseHandler.html" target="_top" xlink:title="Class for interacting with a Redis database backend.">
<polygon fill="white" stroke="black" points="152.5,-0.5 152.5,-19.5 280.5,-19.5 280.5,-0.5 152.5,-0.5"/>
<text text-anchor="middle" x="216.5" y="-7.5" font-family="Helvetica,sans-Serif" font-size="10.00">RedisDatabaseHandler</text>
</a>
</g>
</g>
<!-- Node0&#45;&gt;Node2 -->
<g id="edge2" class="edge">
<title>Node0&#45;&gt;Node2</title>
<path fill="none" stroke="midnightblue" d="M114.63,-21.79C127,-20.35 140.02,-18.83 152.44,-17.37"/>
<polygon fill="midnightblue" stroke="midnightblue" points="113.94,-18.35 104.42,-22.99 114.75,-25.3 113.94,-18.35"/>
</g>
</g>
</svg>
