<?xml version="1.0" encoding="UTF-8" standalone="no"?>
<!DOCTYPE svg PUBLIC "-//W3C//DTD SVG 1.1//EN"
 "http://www.w3.org/Graphics/SVG/1.1/DTD/svg11.dtd">
<!-- Generated by graphviz version 2.43.0 (0)
 -->
<!-- Title: Graphical Class Hierarchy Pages: 1 -->
<svg width="290pt" height="104pt"
 viewBox="0.00 0.00 290.00 104.00" xmlns="http://www.w3.org/2000/svg" xmlns:xlink="http://www.w3.org/1999/xlink">
<g id="graph0" class="graph" transform="scale(1 1) rotate(0) translate(4 100)">
<title>Graphical Class Hierarchy</title>
<polygon fill="white" stroke="transparent" points="-4,4 -4,-100 286,-100 286,4 -4,4"/>
<!-- Node0 -->
<g id="node1" class="node">
<title>Node0</title>
<g id="a_node1"><a xlink:href="classISecurityProvider.html" target="_top" xlink:title="Abstract interface for security providers (encryption/decryption).">
<polygon fill="white" stroke="black" points="0,-38.5 0,-57.5 100,-57.5 100,-38.5 0,-38.5"/>
<text text-anchor="middle" x="50" y="-45.5" font-family="Helvetica,sans-Serif" font-size="10.00">ISecurityProvider</text>
</a>
</g>
</g>
<!-- Node1 -->
<g id="node2" class="node">
<title>Node1</title>
<g id="a_node2"><a xlink:href="classAesGcmSecurityProvider.html" target="_top" xlink:title="AES&#45;256&#45;GCM implementation for secure OTA payloads.">
<polygon fill="white" stroke="black" points="140.5,-76.5 140.5,-95.5 277.5,-95.5 277.5,-76.5 140.5,-76.5"/>
<text text-anchor="middle" x="209" y="-83.5" font-family="Helvetica,sans-Serif" font-size="10.00">AesGcmSecurityProvider</text>
</a>
</g>
</g>
<!-- Node0&#45;&gt;Node1 -->
<g id="edge1" class="edge">
<title>Node0&#45;&gt;Node1</title>
<path fill="none" stroke="midnightblue" d="M100.45,-59.97C122.45,-65.29 147.99,-71.48 168.67,-76.48"/>
<polygon fill="midnightblue" stroke="midnightblue" points="101.16,-56.54 90.62,-57.59 99.51,-63.34 101.16,-56.54"/>
</g>
<!-- Node2 -->
<g id="node3" class="node">
<title>Node2</title>
<g id="a_node3"><a xlink:href="classChaCha20SecurityProvider.html" target="_top" xlink:title="ChaCha20&#45;Poly1305 implementation for secure OTA payloads.">
<polygon fill="white" stroke="black" points="136,-38.5 136,-57.5 282,-57.5 282,-38.5 136,-38.5"/>
<text text-anchor="middle" x="209" y="-45.5" font-family="Helvetica,sans-Serif" font-size="10.00">ChaCha20SecurityProvider</text>
</a>
</g>
</g>
<!-- Node0&#45;&gt;Node2 -->
<g id="edge2" class="edge">
<title>Node0&#45;&gt;Node2</title>
<path fill="none" stroke="midnightblue" d="M110.28,-48C118.66,-48 127.35,-48 135.93,-48"/>
<polygon fill="midnightblue" stroke="midnightblue" points="110.25,-44.5 100.25,-48 110.24,-51.5 110.25,-44.5"/>
</g>
<!-- Node3 -->
<g id="node4" class="node">
<title>Node3</title>
<g id="a_node4"><a xlink:href="classNullSecurityProvider.html" target="_top" xlink:title="Null object pattern implementation &#45; no encryption/decryption.">
<polygon fill="white" stroke="black" points="151,-0.5 151,-19.5 267,-19.5 267,-0.5 151,-0.5"/>
<text text-anchor="middle" x="209" y="-7.5" font-family="Helvetica,sans-Serif" font-size="10.00">NullSecurityProvider</text>
</a>
</g>
</g>
<!-- Node0&#45;&gt;Node3 -->
<g id="edge3" class="edge">
<title>Node0&#45;&gt;Node3</title>
<path fill="none" stroke="midnightblue" d="M100.45,-36.03C122.45,-30.71 147.99,-24.52 168.67,-19.52"/>
<polygon fill="midnightblue" stroke="midnightblue" points="99.51,-32.66 90.62,-38.41 101.16,-39.46 99.51,-32.66"/>
</g>
</g>
</svg>
