<?xml version="1.0" encoding="UTF-8" standalone="no"?>
<!DOCTYPE svg PUBLIC "-//W3C//DTD SVG 1.1//EN"
 "http://www.w3.org/Graphics/SVG/1.1/DTD/svg11.dtd">
<!-- Generated by graphviz version 2.43.0 (0)
 -->
<!-- Title: Graphical Class Hierarchy Pages: 1 -->
<svg width="305pt" height="796pt"
 viewBox="0.00 0.00 305.00 795.50" xmlns="http://www.w3.org/2000/svg" xmlns:xlink="http://www.w3.org/1999/xlink">
<g id="graph0" class="graph" transform="scale(1 1) rotate(0) translate(4 791.5)">
<title>Graphical Class Hierarchy</title>
<polygon fill="white" stroke="transparent" points="-4,4 -4,-791.5 301,-791.5 301,4 -4,4"/>
<!-- Node0 -->
<g id="node1" class="node">
<title>Node0</title>
<g id="a_node1"><a xlink:href="classCommand.html" target="_top" xlink:title="Abstract base class for all commands.">
<polygon fill="white" stroke="black" points="0,-381.5 0,-400.5 67,-400.5 67,-381.5 0,-381.5"/>
<text text-anchor="middle" x="33.5" y="-388.5" font-family="Helvetica,sans-Serif" font-size="10.00">Command</text>
</a>
</g>
</g>
<!-- Node1 -->
<g id="node2" class="node">
<title>Node1</title>
<g id="a_node2"><a xlink:href="classDockerApiCreateContainerCommand.html" target="_top" xlink:title=" ">
<polygon fill="white" stroke="black" points="127,-757 127,-787 273,-787 273,-757 127,-757"/>
<text text-anchor="start" x="135" y="-775" font-family="Helvetica,sans-Serif" font-size="10.00">DockerApiCreateContainer</text>
<text text-anchor="middle" x="200" y="-764" font-family="Helvetica,sans-Serif" font-size="10.00">Command</text>
</a>
</g>
</g>
<!-- Node0&#45;&gt;Node1 -->
<g id="edge1" class="edge">
<title>Node0&#45;&gt;Node1</title>
<path fill="none" stroke="midnightblue" d="M35.56,-410.79C39.6,-478.37 56.16,-698.49 103,-748 109.61,-754.99 117.92,-760.07 126.88,-763.74"/>
<polygon fill="midnightblue" stroke="midnightblue" points="39.05,-410.45 34.99,-400.66 32.06,-410.84 39.05,-410.45"/>
</g>
<!-- Node2 -->
<g id="node3" class="node">
<title>Node2</title>
<g id="a_node3"><a xlink:href="classDockerApiRuntimeAvailableCommand.html" target="_top" xlink:title=" ">
<polygon fill="white" stroke="black" points="124,-708 124,-738 276,-738 276,-708 124,-708"/>
<text text-anchor="start" x="132" y="-726" font-family="Helvetica,sans-Serif" font-size="10.00">DockerApiRuntimeAvailable</text>
<text text-anchor="middle" x="200" y="-715" font-family="Helvetica,sans-Serif" font-size="10.00">Command</text>
</a>
</g>
</g>
<!-- Node0&#45;&gt;Node2 -->
<g id="edge2" class="edge">
<title>Node0&#45;&gt;Node2</title>
<path fill="none" stroke="midnightblue" d="M36.25,-410.72C42.05,-471.79 62.65,-656.2 103,-698 108.86,-704.07 116,-708.73 123.7,-712.31"/>
<polygon fill="midnightblue" stroke="midnightblue" points="39.71,-410.15 35.31,-400.52 32.74,-410.8 39.71,-410.15"/>
</g>
<!-- Node3 -->
<g id="node4" class="node">
<title>Node3</title>
<g id="a_node4"><a xlink:href="classDockerApiStartContainerCommand.html" target="_top" xlink:title=" ">
<polygon fill="white" stroke="black" points="106.5,-669.5 106.5,-688.5 293.5,-688.5 293.5,-669.5 106.5,-669.5"/>
<text text-anchor="middle" x="200" y="-676.5" font-family="Helvetica,sans-Serif" font-size="10.00">DockerApiStartContainerCommand</text>
</a>
</g>
</g>
<!-- Node0&#45;&gt;Node3 -->
<g id="edge3" class="edge">
<title>Node0&#45;&gt;Node3</title>
<path fill="none" stroke="midnightblue" d="M36.78,-410.54C43.7,-466.43 66.26,-625.19 103,-660 106.95,-663.74 111.41,-666.84 116.19,-669.41"/>
<polygon fill="midnightblue" stroke="midnightblue" points="40.24,-410.04 35.57,-400.53 33.29,-410.87 40.24,-410.04"/>
</g>
<!-- Node4 -->
<g id="node5" class="node">
<title>Node4</title>
<g id="a_node5"><a xlink:href="classDockerApiStopContainerCommand.html" target="_top" xlink:title=" ">
<polygon fill="white" stroke="black" points="107.5,-631.5 107.5,-650.5 292.5,-650.5 292.5,-631.5 107.5,-631.5"/>
<text text-anchor="middle" x="200" y="-638.5" font-family="Helvetica,sans-Serif" font-size="10.00">DockerApiStopContainerCommand</text>
</a>
</g>
</g>
<!-- Node0&#45;&gt;Node4 -->
<g id="edge4" class="edge">
<title>Node0&#45;&gt;Node4</title>
<path fill="none" stroke="midnightblue" d="M34.02,-410.87C34.1,-455.76 40.99,-565.5 103,-622 107.14,-625.78 111.82,-628.89 116.81,-631.46"/>
<polygon fill="midnightblue" stroke="midnightblue" points="37.52,-410.73 34.12,-400.7 30.52,-410.66 37.52,-410.73"/>
</g>
<!-- Node5 -->
<g id="node6" class="node">
<title>Node5</title>
<g id="a_node6"><a xlink:href="classDockerCreateContainerCommand.html" target="_top" xlink:title="Command to create a Docker container with specified parameters.">
<polygon fill="white" stroke="black" points="110,-593.5 110,-612.5 290,-612.5 290,-593.5 110,-593.5"/>
<text text-anchor="middle" x="200" y="-600.5" font-family="Helvetica,sans-Serif" font-size="10.00">DockerCreateContainerCommand</text>
</a>
</g>
</g>
<!-- Node0&#45;&gt;Node5 -->
<g id="edge5" class="edge">
<title>Node0&#45;&gt;Node5</title>
<path fill="none" stroke="midnightblue" d="M35.39,-411.07C38.28,-450.62 50.6,-538.72 103,-584 107.37,-587.78 112.27,-590.89 117.49,-593.44"/>
<polygon fill="midnightblue" stroke="midnightblue" points="38.87,-410.64 34.78,-400.86 31.88,-411.05 38.87,-410.64"/>
</g>
<!-- Node6 -->
<g id="node7" class="node">
<title>Node6</title>
<g id="a_node7"><a xlink:href="classDockerRemoveContainerCommand.html" target="_top" xlink:title="Command to remove a Docker container and clean up database state.">
<polygon fill="white" stroke="black" points="106,-555.5 106,-574.5 294,-574.5 294,-555.5 106,-555.5"/>
<text text-anchor="middle" x="200" y="-562.5" font-family="Helvetica,sans-Serif" font-size="10.00">DockerRemoveContainerCommand</text>
</a>
</g>
</g>
<!-- Node0&#45;&gt;Node6 -->
<g id="edge6" class="edge">
<title>Node0&#45;&gt;Node6</title>
<path fill="none" stroke="midnightblue" d="M37.31,-410.8C43.16,-444.21 59.87,-511.48 103,-546 107.77,-549.82 113.11,-552.95 118.74,-555.49"/>
<polygon fill="midnightblue" stroke="midnightblue" points="40.76,-410.19 35.72,-400.87 33.85,-411.3 40.76,-410.19"/>
</g>
<!-- Node7 -->
<g id="node8" class="node">
<title>Node7</title>
<g id="a_node8"><a xlink:href="classDockerRestartContainerCommand.html" target="_top" xlink:title="Command to restart a Docker container.">
<polygon fill="white" stroke="black" points="108.5,-517.5 108.5,-536.5 291.5,-536.5 291.5,-517.5 108.5,-517.5"/>
<text text-anchor="middle" x="200" y="-524.5" font-family="Helvetica,sans-Serif" font-size="10.00">DockerRestartContainerCommand</text>
</a>
</g>
</g>
<!-- Node0&#45;&gt;Node7 -->
<g id="edge7" class="edge">
<title>Node0&#45;&gt;Node7</title>
<path fill="none" stroke="midnightblue" d="M40.26,-410.41C49.18,-436.88 68.95,-483.78 103,-508 108.4,-511.84 114.38,-514.95 120.64,-517.47"/>
<polygon fill="midnightblue" stroke="midnightblue" points="43.55,-409.21 37.19,-400.74 36.88,-411.33 43.55,-409.21"/>
</g>
<!-- Node8 -->
<g id="node9" class="node">
<title>Node8</title>
<g id="a_node9"><a xlink:href="classDockerRuntimeAvailableCommand.html" target="_top" xlink:title="Command to check if Docker runtime is available.">
<polygon fill="white" stroke="black" points="106.5,-479.5 106.5,-498.5 293.5,-498.5 293.5,-479.5 106.5,-479.5"/>
<text text-anchor="middle" x="200" y="-486.5" font-family="Helvetica,sans-Serif" font-size="10.00">DockerRuntimeAvailableCommand</text>
</a>
</g>
</g>
<!-- Node0&#45;&gt;Node8 -->
<g id="edge8" class="edge">
<title>Node0&#45;&gt;Node8</title>
<path fill="none" stroke="midnightblue" d="M45.18,-409.23C56.94,-427.59 77.6,-455.26 103,-470 109.61,-473.84 116.87,-476.91 124.33,-479.38"/>
<polygon fill="midnightblue" stroke="midnightblue" points="48.09,-407.27 39.86,-400.59 42.13,-410.94 48.09,-407.27"/>
</g>
<!-- Node9 -->
<g id="node10" class="node">
<title>Node9</title>
<g id="a_node10"><a xlink:href="classDockerStartContainerCommand.html" target="_top" xlink:title="Command to start a Docker container.">
<polygon fill="white" stroke="black" points="114.5,-441.5 114.5,-460.5 285.5,-460.5 285.5,-441.5 114.5,-441.5"/>
<text text-anchor="middle" x="200" y="-448.5" font-family="Helvetica,sans-Serif" font-size="10.00">DockerStartContainerCommand</text>
</a>
</g>
</g>
<!-- Node0&#45;&gt;Node9 -->
<g id="edge9" class="edge">
<title>Node0&#45;&gt;Node9</title>
<path fill="none" stroke="midnightblue" d="M55.73,-406.32C68.78,-415.06 86.18,-425.53 103,-432 112.99,-435.84 123.88,-438.95 134.61,-441.44"/>
<polygon fill="midnightblue" stroke="midnightblue" points="57.66,-403.4 47.44,-400.61 53.69,-409.17 57.66,-403.4"/>
</g>
<!-- Node10 -->
<g id="node11" class="node">
<title>Node10</title>
<g id="a_node11"><a xlink:href="classDockerStopContainerCommand.html" target="_top" xlink:title="Command to stop a Docker container.">
<polygon fill="white" stroke="black" points="115,-403.5 115,-422.5 285,-422.5 285,-403.5 115,-403.5"/>
<text text-anchor="middle" x="200" y="-410.5" font-family="Helvetica,sans-Serif" font-size="10.00">DockerStopContainerCommand</text>
</a>
</g>
</g>
<!-- Node0&#45;&gt;Node10 -->
<g id="edge10" class="edge">
<title>Node0&#45;&gt;Node10</title>
<path fill="none" stroke="midnightblue" d="M77.6,-396.76C92.95,-398.82 110.67,-401.19 127.75,-403.47"/>
<polygon fill="midnightblue" stroke="midnightblue" points="77.77,-393.26 67.39,-395.4 76.84,-400.19 77.77,-393.26"/>
</g>
<!-- Node11 -->
<g id="node12" class="node">
<title>Node11</title>
<g id="a_node12"><a xlink:href="classPodmanApiCreateContainerCommand.html" target="_top" xlink:title=" ">
<polygon fill="white" stroke="black" points="124,-354 124,-384 276,-384 276,-354 124,-354"/>
<text text-anchor="start" x="132" y="-372" font-family="Helvetica,sans-Serif" font-size="10.00">PodmanApiCreateContainer</text>
<text text-anchor="middle" x="200" y="-361" font-family="Helvetica,sans-Serif" font-size="10.00">Command</text>
</a>
</g>
</g>
<!-- Node0&#45;&gt;Node11 -->
<g id="edge11" class="edge">
<title>Node0&#45;&gt;Node11</title>
<path fill="none" stroke="midnightblue" d="M77.39,-385.26C91.66,-383.35 108.01,-381.17 123.99,-379.03"/>
<polygon fill="midnightblue" stroke="midnightblue" points="76.84,-381.81 67.39,-386.6 77.77,-388.74 76.84,-381.81"/>
</g>
<!-- Node12 -->
<g id="node13" class="node">
<title>Node12</title>
<g id="a_node13"><a xlink:href="classPodmanApiRuntimeAvailableCommand.html" target="_top" xlink:title=" ">
<polygon fill="white" stroke="black" points="121,-305 121,-335 279,-335 279,-305 121,-305"/>
<text text-anchor="start" x="129" y="-323" font-family="Helvetica,sans-Serif" font-size="10.00">PodmanApiRuntimeAvailable</text>
<text text-anchor="middle" x="200" y="-312" font-family="Helvetica,sans-Serif" font-size="10.00">Command</text>
</a>
</g>
</g>
<!-- Node0&#45;&gt;Node12 -->
<g id="edge12" class="edge">
<title>Node0&#45;&gt;Node12</title>
<path fill="none" stroke="midnightblue" d="M54.64,-374.82C67.75,-364.98 85.59,-352.84 103,-345 111.48,-341.18 120.65,-337.86 129.85,-335"/>
<polygon fill="midnightblue" stroke="midnightblue" points="52.17,-372.31 46.38,-381.18 56.44,-377.85 52.17,-372.31"/>
</g>
<!-- Node13 -->
<g id="node14" class="node">
<title>Node13</title>
<g id="a_node14"><a xlink:href="classPodmanApiStartContainerCommand.html" target="_top" xlink:title=" ">
<polygon fill="white" stroke="black" points="103.5,-266.5 103.5,-285.5 296.5,-285.5 296.5,-266.5 103.5,-266.5"/>
<text text-anchor="middle" x="200" y="-273.5" font-family="Helvetica,sans-Serif" font-size="10.00">PodmanApiStartContainerCommand</text>
</a>
</g>
</g>
<!-- Node0&#45;&gt;Node13 -->
<g id="edge13" class="edge">
<title>Node0&#45;&gt;Node13</title>
<path fill="none" stroke="midnightblue" d="M42.83,-372.1C53.51,-350.2 74.14,-314.73 103,-296 109.71,-291.64 117.19,-288.21 124.94,-285.51"/>
<polygon fill="midnightblue" stroke="midnightblue" points="39.57,-370.82 38.52,-381.37 45.91,-373.78 39.57,-370.82"/>
</g>
<!-- Node14 -->
<g id="node15" class="node">
<title>Node14</title>
<g id="a_node15"><a xlink:href="classPodmanApiStopContainerCommand.html" target="_top" xlink:title=" ">
<polygon fill="white" stroke="black" points="104.5,-228.5 104.5,-247.5 295.5,-247.5 295.5,-228.5 104.5,-228.5"/>
<text text-anchor="middle" x="200" y="-235.5" font-family="Helvetica,sans-Serif" font-size="10.00">PodmanApiStopContainerCommand</text>
</a>
</g>
</g>
<!-- Node0&#45;&gt;Node14 -->
<g id="edge14" class="edge">
<title>Node0&#45;&gt;Node14</title>
<path fill="none" stroke="midnightblue" d="M38.77,-371.39C46.3,-341.7 64.91,-285.76 103,-257 108.02,-253.21 113.59,-250.12 119.45,-247.61"/>
<polygon fill="midnightblue" stroke="midnightblue" points="35.3,-370.84 36.4,-381.37 42.11,-372.45 35.3,-370.84"/>
</g>
<!-- Node15 -->
<g id="node16" class="node">
<title>Node15</title>
<g id="a_node16"><a xlink:href="classPodmanCreateContainerCommand.html" target="_top" xlink:title="Command to create a Podman container with specified parameters.">
<polygon fill="white" stroke="black" points="107,-190.5 107,-209.5 293,-209.5 293,-190.5 107,-190.5"/>
<text text-anchor="middle" x="200" y="-197.5" font-family="Helvetica,sans-Serif" font-size="10.00">PodmanCreateContainerCommand</text>
</a>
</g>
</g>
<!-- Node0&#45;&gt;Node15 -->
<g id="edge15" class="edge">
<title>Node0&#45;&gt;Node15</title>
<path fill="none" stroke="midnightblue" d="M36.35,-371.12C40.85,-334.91 55.72,-258.31 103,-219 107.57,-215.2 112.69,-212.08 118.12,-209.53"/>
<polygon fill="midnightblue" stroke="midnightblue" points="32.84,-371.04 35.23,-381.36 39.8,-371.81 32.84,-371.04"/>
</g>
<!-- Node16 -->
<g id="node17" class="node">
<title>Node16</title>
<g id="a_node17"><a xlink:href="classPodmanRemoveContainerCommand.html" target="_top" xlink:title="Command to remove a Podman container and clean up database state.">
<polygon fill="white" stroke="black" points="103,-152.5 103,-171.5 297,-171.5 297,-152.5 103,-152.5"/>
<text text-anchor="middle" x="200" y="-159.5" font-family="Helvetica,sans-Serif" font-size="10.00">PodmanRemoveContainerCommand</text>
</a>
</g>
</g>
<!-- Node0&#45;&gt;Node16 -->
<g id="edge16" class="edge">
<title>Node0&#45;&gt;Node16</title>
<path fill="none" stroke="midnightblue" d="M34.71,-371.21C36.29,-329.31 46.23,-231.34 103,-181 107.19,-177.28 111.9,-174.2 116.92,-171.67"/>
<polygon fill="midnightblue" stroke="midnightblue" points="31.21,-371.16 34.46,-381.25 38.21,-371.34 31.21,-371.16"/>
</g>
<!-- Node17 -->
<g id="node18" class="node">
<title>Node17</title>
<g id="a_node18"><a xlink:href="classPodmanRestartContainerCommand.html" target="_top" xlink:title="Command to restart a Podman container.">
<polygon fill="white" stroke="black" points="105.5,-114.5 105.5,-133.5 294.5,-133.5 294.5,-114.5 105.5,-114.5"/>
<text text-anchor="middle" x="200" y="-121.5" font-family="Helvetica,sans-Serif" font-size="10.00">PodmanRestartContainerCommand</text>
</a>
</g>
</g>
<!-- Node0&#45;&gt;Node17 -->
<g id="edge17" class="edge">
<title>Node0&#45;&gt;Node17</title>
<path fill="none" stroke="midnightblue" d="M37.26,-371.26C45.07,-318.23 69,-174.57 103,-143 106.98,-139.3 111.47,-136.23 116.28,-133.69"/>
<polygon fill="midnightblue" stroke="midnightblue" points="33.76,-370.99 35.8,-381.39 40.69,-371.99 33.76,-370.99"/>
</g>
<!-- Node18 -->
<g id="node19" class="node">
<title>Node18</title>
<g id="a_node19"><a xlink:href="classPodmanRuntimeAvailableCommand.html" target="_top" xlink:title="Command to check if Podman runtime is available.">
<polygon fill="white" stroke="black" points="103.5,-76.5 103.5,-95.5 296.5,-95.5 296.5,-76.5 103.5,-76.5"/>
<text text-anchor="middle" x="200" y="-83.5" font-family="Helvetica,sans-Serif" font-size="10.00">PodmanRuntimeAvailableCommand</text>
</a>
</g>
</g>
<!-- Node0&#45;&gt;Node18 -->
<g id="edge18" class="edge">
<title>Node0&#45;&gt;Node18</title>
<path fill="none" stroke="midnightblue" d="M36.47,-371.39C42.73,-313.07 64.09,-142.4 103,-105 106.92,-101.23 111.36,-98.11 116.13,-95.53"/>
<polygon fill="midnightblue" stroke="midnightblue" points="32.97,-371.18 35.42,-381.49 39.94,-371.9 32.97,-371.18"/>
</g>
<!-- Node19 -->
<g id="node20" class="node">
<title>Node19</title>
<g id="a_node20"><a xlink:href="classPodmanStartContainerCommand.html" target="_top" xlink:title="Command to start a Podman container.">
<polygon fill="white" stroke="black" points="111.5,-38.5 111.5,-57.5 288.5,-57.5 288.5,-38.5 111.5,-38.5"/>
<text text-anchor="middle" x="200" y="-45.5" font-family="Helvetica,sans-Serif" font-size="10.00">PodmanStartContainerCommand</text>
</a>
</g>
</g>
<!-- Node0&#45;&gt;Node19 -->
<g id="edge19" class="edge">
<title>Node0&#45;&gt;Node19</title>
<path fill="none" stroke="midnightblue" d="M35.91,-370.92C40.82,-307.03 59.28,-110.16 103,-67 106.75,-63.3 111,-60.22 115.57,-57.66"/>
<polygon fill="midnightblue" stroke="midnightblue" points="32.4,-371 35.15,-381.23 39.38,-371.52 32.4,-371"/>
</g>
<!-- Node20 -->
<g id="node21" class="node">
<title>Node20</title>
<g id="a_node21"><a xlink:href="classPodmanStopContainerCommand.html" target="_top" xlink:title="Command to stop a Podman container.">
<polygon fill="white" stroke="black" points="112,-0.5 112,-19.5 288,-19.5 288,-0.5 112,-0.5"/>
<text text-anchor="middle" x="200" y="-7.5" font-family="Helvetica,sans-Serif" font-size="10.00">PodmanStopContainerCommand</text>
</a>
</g>
</g>
<!-- Node0&#45;&gt;Node20 -->
<g id="edge20" class="edge">
<title>Node0&#45;&gt;Node20</title>
<path fill="none" stroke="midnightblue" d="M35.43,-370.84C39.03,-302.05 54.36,-78.05 103,-29 106.71,-25.26 110.93,-22.15 115.48,-19.56"/>
<polygon fill="midnightblue" stroke="midnightblue" points="31.92,-371 34.92,-381.16 38.91,-371.35 31.92,-371"/>
</g>
</g>
</svg>
