<?xml version="1.0" encoding="UTF-8" standalone="no"?>
<!DOCTYPE svg PUBLIC "-//W3C//DTD SVG 1.1//EN"
 "http://www.w3.org/Graphics/SVG/1.1/DTD/svg11.dtd">
<!-- Generated by graphviz version 2.43.0 (0)
 -->
<!-- Title: Graphical Class Hierarchy Pages: 1 -->
<svg width="305pt" height="894pt"
 viewBox="0.00 0.00 305.00 893.50" xmlns="http://www.w3.org/2000/svg" xmlns:xlink="http://www.w3.org/1999/xlink">
<g id="graph0" class="graph" transform="scale(1 1) rotate(0) translate(4 889.5)">
<title>Graphical Class Hierarchy</title>
<polygon fill="white" stroke="transparent" points="-4,4 -4,-889.5 301,-889.5 301,4 -4,4"/>
<!-- Node0 -->
<g id="node1" class="node">
<title>Node0</title>
<g id="a_node1"><a xlink:href="classCommand.html" target="_top" xlink:title="Abstract base class for all commands.">
<polygon fill="white" stroke="black" points="0,-422.5 0,-441.5 67,-441.5 67,-422.5 0,-422.5"/>
<text text-anchor="middle" x="33.5" y="-429.5" font-family="Helvetica,sans-Serif" font-size="10.00">Command</text>
</a>
</g>
</g>
<!-- Node1 -->
<g id="node2" class="node">
<title>Node1</title>
<g id="a_node2"><a xlink:href="classDockerApiCreateContainerCommand.html" target="_top" xlink:title="Command to create a Docker container via the Docker API.">
<polygon fill="white" stroke="black" points="127,-855 127,-885 273,-885 273,-855 127,-855"/>
<text text-anchor="start" x="135" y="-873" font-family="Helvetica,sans-Serif" font-size="10.00">DockerApiCreateContainer</text>
<text text-anchor="middle" x="200" y="-862" font-family="Helvetica,sans-Serif" font-size="10.00">Command</text>
</a>
</g>
</g>
<!-- Node0&#45;&gt;Node1 -->
<g id="edge1" class="edge">
<title>Node0&#45;&gt;Node1</title>
<path fill="none" stroke="midnightblue" d="M35,-451.98C37.26,-526.56 48.97,-787.41 103,-846 109.52,-853.07 117.78,-858.2 126.71,-861.89"/>
<polygon fill="midnightblue" stroke="midnightblue" points="38.49,-451.57 34.71,-441.67 31.49,-451.76 38.49,-451.57"/>
</g>
<!-- Node2 -->
<g id="node3" class="node">
<title>Node2</title>
<g id="a_node3"><a xlink:href="classDockerApiRemoveContainerCommand.html" target="_top" xlink:title="Command to remove a Docker container via the Docker API.">
<polygon fill="white" stroke="black" points="123,-806 123,-836 277,-836 277,-806 123,-806"/>
<text text-anchor="start" x="131" y="-824" font-family="Helvetica,sans-Serif" font-size="10.00">DockerApiRemoveContainer</text>
<text text-anchor="middle" x="200" y="-813" font-family="Helvetica,sans-Serif" font-size="10.00">Command</text>
</a>
</g>
</g>
<!-- Node0&#45;&gt;Node2 -->
<g id="edge2" class="edge">
<title>Node0&#45;&gt;Node2</title>
<path fill="none" stroke="midnightblue" d="M35.47,-451.78C39.24,-520.32 55.14,-746.21 103,-797 108.54,-802.88 115.28,-807.4 122.59,-810.88"/>
<polygon fill="midnightblue" stroke="midnightblue" points="38.95,-451.33 34.94,-441.53 31.96,-451.7 38.95,-451.33"/>
</g>
<!-- Node3 -->
<g id="node4" class="node">
<title>Node3</title>
<g id="a_node4"><a xlink:href="classDockerApiRestartContainerCommand.html" target="_top" xlink:title="Command to restart a Docker container via the Docker API.">
<polygon fill="white" stroke="black" points="125.5,-757 125.5,-787 274.5,-787 274.5,-757 125.5,-757"/>
<text text-anchor="start" x="133.5" y="-775" font-family="Helvetica,sans-Serif" font-size="10.00">DockerApiRestartContainer</text>
<text text-anchor="middle" x="200" y="-764" font-family="Helvetica,sans-Serif" font-size="10.00">Command</text>
</a>
</g>
</g>
<!-- Node0&#45;&gt;Node3 -->
<g id="edge3" class="edge">
<title>Node0&#45;&gt;Node3</title>
<path fill="none" stroke="midnightblue" d="M36.11,-451.92C41.56,-514.41 61.35,-705.02 103,-748 109.22,-754.42 116.87,-759.22 125.12,-762.79"/>
<polygon fill="midnightblue" stroke="midnightblue" points="39.58,-451.47 35.26,-441.8 32.61,-452.06 39.58,-451.47"/>
</g>
<!-- Node4 -->
<g id="node5" class="node">
<title>Node4</title>
<g id="a_node5"><a xlink:href="classDockerApiRuntimeAvailableCommand.html" target="_top" xlink:title="Command to check if Docker daemon is available via the API.">
<polygon fill="white" stroke="black" points="124,-708 124,-738 276,-738 276,-708 124,-708"/>
<text text-anchor="start" x="132" y="-726" font-family="Helvetica,sans-Serif" font-size="10.00">DockerApiRuntimeAvailable</text>
<text text-anchor="middle" x="200" y="-715" font-family="Helvetica,sans-Serif" font-size="10.00">Command</text>
</a>
</g>
</g>
<!-- Node0&#45;&gt;Node4 -->
<g id="edge4" class="edge">
<title>Node0&#45;&gt;Node4</title>
<path fill="none" stroke="midnightblue" d="M36.96,-451.59C44.3,-506.91 67.72,-662.62 103,-698 108.96,-703.98 116.15,-708.58 123.89,-712.12"/>
<polygon fill="midnightblue" stroke="midnightblue" points="40.43,-451.12 35.68,-441.66 33.49,-452.02 40.43,-451.12"/>
</g>
<!-- Node5 -->
<g id="node6" class="node">
<title>Node5</title>
<g id="a_node6"><a xlink:href="classDockerApiStartContainerCommand.html" target="_top" xlink:title="Command to start a Docker container via the Docker API.">
<polygon fill="white" stroke="black" points="106.5,-669.5 106.5,-688.5 293.5,-688.5 293.5,-669.5 106.5,-669.5"/>
<text text-anchor="middle" x="200" y="-676.5" font-family="Helvetica,sans-Serif" font-size="10.00">DockerApiStartContainerCommand</text>
</a>
</g>
</g>
<!-- Node0&#45;&gt;Node5 -->
<g id="edge5" class="edge">
<title>Node0&#45;&gt;Node5</title>
<path fill="none" stroke="midnightblue" d="M34.11,-451.62C34.38,-495.94 41.63,-604.28 103,-660 107.15,-663.77 111.83,-666.88 116.82,-669.45"/>
<polygon fill="midnightblue" stroke="midnightblue" points="37.61,-451.6 34.17,-441.58 30.61,-451.56 37.61,-451.6"/>
</g>
<!-- Node6 -->
<g id="node7" class="node">
<title>Node6</title>
<g id="a_node7"><a xlink:href="classDockerApiStopContainerCommand.html" target="_top" xlink:title="Command to stop a Docker container via the Docker API.">
<polygon fill="white" stroke="black" points="107.5,-631.5 107.5,-650.5 292.5,-650.5 292.5,-631.5 107.5,-631.5"/>
<text text-anchor="middle" x="200" y="-638.5" font-family="Helvetica,sans-Serif" font-size="10.00">DockerApiStopContainerCommand</text>
</a>
</g>
</g>
<!-- Node0&#45;&gt;Node6 -->
<g id="edge6" class="edge">
<title>Node0&#45;&gt;Node6</title>
<path fill="none" stroke="midnightblue" d="M35.49,-451.77C38.57,-490.72 51.21,-577.48 103,-622 107.38,-625.77 112.29,-628.87 117.51,-631.41"/>
<polygon fill="midnightblue" stroke="midnightblue" points="38.98,-451.46 34.83,-441.71 32,-451.92 38.98,-451.46"/>
</g>
<!-- Node7 -->
<g id="node8" class="node">
<title>Node7</title>
<g id="a_node8"><a xlink:href="classDockerCreateContainerCommand.html" target="_top" xlink:title="Command to create a Docker container with user&#45;defined parameters.">
<polygon fill="white" stroke="black" points="110,-593.5 110,-612.5 290,-612.5 290,-593.5 110,-593.5"/>
<text text-anchor="middle" x="200" y="-600.5" font-family="Helvetica,sans-Serif" font-size="10.00">DockerCreateContainerCommand</text>
</a>
</g>
</g>
<!-- Node0&#45;&gt;Node7 -->
<g id="edge7" class="edge">
<title>Node0&#45;&gt;Node7</title>
<path fill="none" stroke="midnightblue" d="M37.51,-451.86C43.61,-484.77 60.63,-550.34 103,-584 107.79,-587.8 113.13,-590.92 118.77,-593.45"/>
<polygon fill="midnightblue" stroke="midnightblue" points="40.91,-450.96 35.79,-441.68 34.01,-452.13 40.91,-450.96"/>
</g>
<!-- Node8 -->
<g id="node9" class="node">
<title>Node8</title>
<g id="a_node9"><a xlink:href="classDockerRemoveContainerCommand.html" target="_top" xlink:title="Command to remove a Docker container.">
<polygon fill="white" stroke="black" points="106,-555.5 106,-574.5 294,-574.5 294,-555.5 106,-555.5"/>
<text text-anchor="middle" x="200" y="-562.5" font-family="Helvetica,sans-Serif" font-size="10.00">DockerRemoveContainerCommand</text>
</a>
</g>
</g>
<!-- Node0&#45;&gt;Node8 -->
<g id="edge8" class="edge">
<title>Node0&#45;&gt;Node8</title>
<path fill="none" stroke="midnightblue" d="M40.67,-451.65C49.87,-477.58 69.77,-522.65 103,-546 108.42,-549.81 114.42,-552.9 120.69,-555.4"/>
<polygon fill="midnightblue" stroke="midnightblue" points="43.87,-450.2 37.37,-441.83 37.23,-452.42 43.87,-450.2"/>
</g>
<!-- Node9 -->
<g id="node10" class="node">
<title>Node9</title>
<g id="a_node10"><a xlink:href="classDockerRestartContainerCommand.html" target="_top" xlink:title="Command to restart a Docker container.">
<polygon fill="white" stroke="black" points="108.5,-517.5 108.5,-536.5 291.5,-536.5 291.5,-517.5 108.5,-517.5"/>
<text text-anchor="middle" x="200" y="-524.5" font-family="Helvetica,sans-Serif" font-size="10.00">DockerRestartContainerCommand</text>
</a>
</g>
</g>
<!-- Node0&#45;&gt;Node9 -->
<g id="edge9" class="edge">
<title>Node0&#45;&gt;Node9</title>
<path fill="none" stroke="midnightblue" d="M46.06,-450.58C58.06,-468.24 78.5,-494.09 103,-508 109.8,-511.86 117.25,-514.94 124.91,-517.41"/>
<polygon fill="midnightblue" stroke="midnightblue" points="48.68,-448.21 40.28,-441.75 42.82,-452.03 48.68,-448.21"/>
</g>
<!-- Node10 -->
<g id="node11" class="node">
<title>Node10</title>
<g id="a_node11"><a xlink:href="classDockerRuntimeAvailableCommand.html" target="_top" xlink:title="Command to check if Docker runtime is available.">
<polygon fill="white" stroke="black" points="106.5,-479.5 106.5,-498.5 293.5,-498.5 293.5,-479.5 106.5,-479.5"/>
<text text-anchor="middle" x="200" y="-486.5" font-family="Helvetica,sans-Serif" font-size="10.00">DockerRuntimeAvailableCommand</text>
</a>
</g>
</g>
<!-- Node0&#45;&gt;Node10 -->
<g id="edge10" class="edge">
<title>Node0&#45;&gt;Node10</title>
<path fill="none" stroke="midnightblue" d="M57.25,-446.98C70.19,-454.88 86.97,-464.13 103,-470 113.45,-473.83 124.84,-476.94 136,-479.45"/>
<polygon fill="midnightblue" stroke="midnightblue" points="58.9,-443.88 48.57,-441.53 55.18,-449.81 58.9,-443.88"/>
</g>
<!-- Node11 -->
<g id="node12" class="node">
<title>Node11</title>
<g id="a_node12"><a xlink:href="classDockerStartContainerCommand.html" target="_top" xlink:title="Command to start a Docker container.">
<polygon fill="white" stroke="black" points="114.5,-441.5 114.5,-460.5 285.5,-460.5 285.5,-441.5 114.5,-441.5"/>
<text text-anchor="middle" x="200" y="-448.5" font-family="Helvetica,sans-Serif" font-size="10.00">DockerStartContainerCommand</text>
</a>
</g>
</g>
<!-- Node0&#45;&gt;Node11 -->
<g id="edge11" class="edge">
<title>Node0&#45;&gt;Node11</title>
<path fill="none" stroke="midnightblue" d="M77.53,-436.97C89.53,-438.36 102.98,-439.91 116.44,-441.46"/>
<polygon fill="midnightblue" stroke="midnightblue" points="77.73,-433.47 67.39,-435.8 76.93,-440.42 77.73,-433.47"/>
</g>
<!-- Node12 -->
<g id="node13" class="node">
<title>Node12</title>
<g id="a_node13"><a xlink:href="classDockerStopContainerCommand.html" target="_top" xlink:title="Command to stop a Docker container.">
<polygon fill="white" stroke="black" points="115,-403.5 115,-422.5 285,-422.5 285,-403.5 115,-403.5"/>
<text text-anchor="middle" x="200" y="-410.5" font-family="Helvetica,sans-Serif" font-size="10.00">DockerStopContainerCommand</text>
</a>
</g>
</g>
<!-- Node0&#45;&gt;Node12 -->
<g id="edge12" class="edge">
<title>Node0&#45;&gt;Node12</title>
<path fill="none" stroke="midnightblue" d="M77.53,-427.03C89.53,-425.64 102.98,-424.09 116.44,-422.54"/>
<polygon fill="midnightblue" stroke="midnightblue" points="76.93,-423.58 67.39,-428.2 77.73,-430.53 76.93,-423.58"/>
</g>
<!-- Node13 -->
<g id="node14" class="node">
<title>Node13</title>
<g id="a_node14"><a xlink:href="classPodmanApiCreateContainerCommand.html" target="_top" xlink:title="Command to create a Podman container via the Podman API.">
<polygon fill="white" stroke="black" points="124,-354 124,-384 276,-384 276,-354 124,-354"/>
<text text-anchor="start" x="132" y="-372" font-family="Helvetica,sans-Serif" font-size="10.00">PodmanApiCreateContainer</text>
<text text-anchor="middle" x="200" y="-361" font-family="Helvetica,sans-Serif" font-size="10.00">Command</text>
</a>
</g>
</g>
<!-- Node0&#45;&gt;Node13 -->
<g id="edge13" class="edge">
<title>Node0&#45;&gt;Node13</title>
<path fill="none" stroke="midnightblue" d="M57.89,-417.09C70.8,-409.36 87.35,-400.26 103,-394 112.27,-390.29 122.27,-386.98 132.19,-384.07"/>
<polygon fill="midnightblue" stroke="midnightblue" points="55.9,-414.21 49.2,-422.41 59.55,-420.18 55.9,-414.21"/>
</g>
<!-- Node14 -->
<g id="node15" class="node">
<title>Node14</title>
<g id="a_node15"><a xlink:href="classPodmanApiRuntimeAvailableCommand.html" target="_top" xlink:title="Command to check if Podman daemon is available via the API.">
<polygon fill="white" stroke="black" points="121,-305 121,-335 279,-335 279,-305 121,-305"/>
<text text-anchor="start" x="129" y="-323" font-family="Helvetica,sans-Serif" font-size="10.00">PodmanApiRuntimeAvailable</text>
<text text-anchor="middle" x="200" y="-312" font-family="Helvetica,sans-Serif" font-size="10.00">Command</text>
</a>
</g>
</g>
<!-- Node0&#45;&gt;Node14 -->
<g id="edge14" class="edge">
<title>Node0&#45;&gt;Node14</title>
<path fill="none" stroke="midnightblue" d="M44.23,-413.46C55.65,-393.53 76.44,-362.38 103,-345 108.91,-341.13 115.39,-337.87 122.1,-335.1"/>
<polygon fill="midnightblue" stroke="midnightblue" points="41.02,-412.03 39.26,-422.48 47.15,-415.4 41.02,-412.03"/>
</g>
<!-- Node15 -->
<g id="node16" class="node">
<title>Node15</title>
<g id="a_node16"><a xlink:href="classPodmanApiStartContainerCommand.html" target="_top" xlink:title="Command to start a Podman container via the Podman API.">
<polygon fill="white" stroke="black" points="103.5,-266.5 103.5,-285.5 296.5,-285.5 296.5,-266.5 103.5,-266.5"/>
<text text-anchor="middle" x="200" y="-273.5" font-family="Helvetica,sans-Serif" font-size="10.00">PodmanApiStartContainerCommand</text>
</a>
</g>
</g>
<!-- Node0&#45;&gt;Node15 -->
<g id="edge15" class="edge">
<title>Node0&#45;&gt;Node15</title>
<path fill="none" stroke="midnightblue" d="M38.71,-412.15C46.18,-382.09 64.7,-325.41 103,-296 108.54,-291.75 114.76,-288.35 121.31,-285.63"/>
<polygon fill="midnightblue" stroke="midnightblue" points="35.22,-411.73 36.38,-422.26 42.04,-413.3 35.22,-411.73"/>
</g>
<!-- Node16 -->
<g id="node17" class="node">
<title>Node16</title>
<g id="a_node17"><a xlink:href="classPodmanApiStopContainerCommand.html" target="_top" xlink:title="Command to stop a Podman container via the Podman API.">
<polygon fill="white" stroke="black" points="104.5,-228.5 104.5,-247.5 295.5,-247.5 295.5,-228.5 104.5,-228.5"/>
<text text-anchor="middle" x="200" y="-235.5" font-family="Helvetica,sans-Serif" font-size="10.00">PodmanApiStopContainerCommand</text>
</a>
</g>
</g>
<!-- Node0&#45;&gt;Node16 -->
<g id="edge16" class="edge">
<title>Node0&#45;&gt;Node16</title>
<path fill="none" stroke="midnightblue" d="M36.24,-411.79C40.55,-374.96 55.12,-297.04 103,-257 107.56,-253.18 112.67,-250.06 118.09,-247.5"/>
<polygon fill="midnightblue" stroke="midnightblue" points="32.71,-411.9 35.17,-422.2 39.67,-412.61 32.71,-411.9"/>
</g>
<!-- Node17 -->
<g id="node18" class="node">
<title>Node17</title>
<g id="a_node18"><a xlink:href="classPodmanCreateContainerCommand.html" target="_top" xlink:title="Command to create a Podman container with user&#45;defined parameters.">
<polygon fill="white" stroke="black" points="107,-190.5 107,-209.5 293,-209.5 293,-190.5 107,-190.5"/>
<text text-anchor="middle" x="200" y="-197.5" font-family="Helvetica,sans-Serif" font-size="10.00">PodmanCreateContainerCommand</text>
</a>
</g>
</g>
<!-- Node0&#45;&gt;Node17 -->
<g id="edge17" class="edge">
<title>Node0&#45;&gt;Node17</title>
<path fill="none" stroke="midnightblue" d="M34.61,-411.94C36.01,-369.45 45.6,-270.11 103,-219 107.19,-215.27 111.89,-212.19 116.91,-209.65"/>
<polygon fill="midnightblue" stroke="midnightblue" points="31.11,-412.04 34.4,-422.11 38.11,-412.18 31.11,-412.04"/>
</g>
<!-- Node18 -->
<g id="node19" class="node">
<title>Node18</title>
<g id="a_node19"><a xlink:href="classPodmanRemoveContainerCommand.html" target="_top" xlink:title="Command to remove a Podman container.">
<polygon fill="white" stroke="black" points="103,-152.5 103,-171.5 297,-171.5 297,-152.5 103,-152.5"/>
<text text-anchor="middle" x="200" y="-159.5" font-family="Helvetica,sans-Serif" font-size="10.00">PodmanRemoveContainerCommand</text>
</a>
</g>
</g>
<!-- Node0&#45;&gt;Node18 -->
<g id="edge18" class="edge">
<title>Node0&#45;&gt;Node18</title>
<path fill="none" stroke="midnightblue" d="M37.17,-412.36C44.84,-358.97 68.59,-213.05 103,-181 106.98,-177.29 111.46,-174.22 116.26,-171.67"/>
<polygon fill="midnightblue" stroke="midnightblue" points="33.71,-411.88 35.78,-422.27 40.64,-412.86 33.71,-411.88"/>
</g>
<!-- Node19 -->
<g id="node20" class="node">
<title>Node19</title>
<g id="a_node20"><a xlink:href="classPodmanRestartContainerCommand.html" target="_top" xlink:title="Command to restart a Podman container.">
<polygon fill="white" stroke="black" points="105.5,-114.5 105.5,-133.5 294.5,-133.5 294.5,-114.5 105.5,-114.5"/>
<text text-anchor="middle" x="200" y="-121.5" font-family="Helvetica,sans-Serif" font-size="10.00">PodmanRestartContainerCommand</text>
</a>
</g>
</g>
<!-- Node0&#45;&gt;Node19 -->
<g id="edge19" class="edge">
<title>Node0&#45;&gt;Node19</title>
<path fill="none" stroke="midnightblue" d="M36.44,-412.19C42.61,-353.26 63.75,-180.81 103,-143 106.92,-139.23 111.35,-136.1 116.12,-133.52"/>
<polygon fill="midnightblue" stroke="midnightblue" points="32.93,-412.09 35.4,-422.39 39.89,-412.79 32.93,-412.09"/>
</g>
<!-- Node20 -->
<g id="node21" class="node">
<title>Node20</title>
<g id="a_node21"><a xlink:href="classPodmanRuntimeAvailableCommand.html" target="_top" xlink:title="Command to check if Podman runtime is available.">
<polygon fill="white" stroke="black" points="103.5,-76.5 103.5,-95.5 296.5,-95.5 296.5,-76.5 103.5,-76.5"/>
<text text-anchor="middle" x="200" y="-83.5" font-family="Helvetica,sans-Serif" font-size="10.00">PodmanRuntimeAvailableCommand</text>
</a>
</g>
</g>
<!-- Node0&#45;&gt;Node20 -->
<g id="edge20" class="edge">
<title>Node0&#45;&gt;Node20</title>
<path fill="none" stroke="midnightblue" d="M35.85,-412.16C40.62,-348.14 58.84,-148.68 103,-105 106.74,-101.3 110.99,-98.21 115.56,-95.65"/>
<polygon fill="midnightblue" stroke="midnightblue" points="32.34,-412.24 35.11,-422.47 39.32,-412.74 32.34,-412.24"/>
</g>
<!-- Node21 -->
<g id="node22" class="node">
<title>Node21</title>
<g id="a_node22"><a xlink:href="classPodmanStartContainerCommand.html" target="_top" xlink:title="Command to start a Podman container.">
<polygon fill="white" stroke="black" points="111.5,-38.5 111.5,-57.5 288.5,-57.5 288.5,-38.5 111.5,-38.5"/>
<text text-anchor="middle" x="200" y="-45.5" font-family="Helvetica,sans-Serif" font-size="10.00">PodmanStartContainerCommand</text>
</a>
</g>
</g>
<!-- Node0&#45;&gt;Node21 -->
<g id="edge21" class="edge">
<title>Node0&#45;&gt;Node21</title>
<path fill="none" stroke="midnightblue" d="M35.38,-412.13C38.86,-343.31 53.9,-116.59 103,-67 106.71,-63.26 110.92,-60.14 115.47,-57.56"/>
<polygon fill="midnightblue" stroke="midnightblue" points="31.87,-412.27 34.89,-422.43 38.86,-412.6 31.87,-412.27"/>
</g>
<!-- Node22 -->
<g id="node23" class="node">
<title>Node22</title>
<g id="a_node23"><a xlink:href="classPodmanStopContainerCommand.html" target="_top" xlink:title="Command to stop a Podman container.">
<polygon fill="white" stroke="black" points="112,-0.5 112,-19.5 288,-19.5 288,-0.5 112,-0.5"/>
<text text-anchor="middle" x="200" y="-7.5" font-family="Helvetica,sans-Serif" font-size="10.00">PodmanStopContainerCommand</text>
</a>
</g>
</g>
<!-- Node0&#45;&gt;Node22 -->
<g id="edge22" class="edge">
<title>Node0&#45;&gt;Node22</title>
<path fill="none" stroke="midnightblue" d="M35,-411.99C37.27,-338.44 48.97,-84.51 103,-29 106.56,-25.35 110.6,-22.29 114.96,-19.74"/>
<polygon fill="midnightblue" stroke="midnightblue" points="31.5,-412.09 34.71,-422.18 38.5,-412.29 31.5,-412.09"/>
</g>
</g>
</svg>
