<?xml version="1.0" encoding="UTF-8" standalone="no"?>
<!DOCTYPE svg PUBLIC "-//W3C//DTD SVG 1.1//EN"
 "http://www.w3.org/Graphics/SVG/1.1/DTD/svg11.dtd">
<!-- Generated by graphviz version 2.43.0 (0)
 -->
<!-- Title: Graphical Class Hierarchy Pages: 1 -->
<svg width="301pt" height="104pt"
 viewBox="0.00 0.00 301.00 104.00" xmlns="http://www.w3.org/2000/svg" xmlns:xlink="http://www.w3.org/1999/xlink">
<g id="graph0" class="graph" transform="scale(1 1) rotate(0) translate(4 100)">
<title>Graphical Class Hierarchy</title>
<polygon fill="white" stroke="transparent" points="-4,4 -4,-100 297,-100 297,4 -4,4"/>
<!-- Node0 -->
<g id="node1" class="node">
<title>Node0</title>
<g id="a_node1"><a xlink:href="classIDatabaseHandler.html" target="_top" xlink:title="Interface for database handlers supporting JSON storage and retrieval.">
<polygon fill="white" stroke="black" points="0,-38.5 0,-57.5 104,-57.5 104,-38.5 0,-38.5"/>
<text text-anchor="middle" x="52" y="-45.5" font-family="Helvetica,sans-Serif" font-size="10.00">IDatabaseHandler</text>
</a>
</g>
</g>
<!-- Node1 -->
<g id="node2" class="node">
<title>Node1</title>
<g id="a_node2"><a xlink:href="classEmbeddedDatabaseHandler.html" target="_top" xlink:title="Lightweight, fixed&#45;size in&#45;memory key&#45;value store for embedded systems.">
<polygon fill="white" stroke="black" points="140,-76.5 140,-95.5 293,-95.5 293,-76.5 140,-76.5"/>
<text text-anchor="middle" x="216.5" y="-83.5" font-family="Helvetica,sans-Serif" font-size="10.00">EmbeddedDatabaseHandler</text>
</a>
</g>
</g>
<!-- Node0&#45;&gt;Node1 -->
<g id="edge1" class="edge">
<title>Node0&#45;&gt;Node1</title>
<path fill="none" stroke="midnightblue" d="M103.87,-59.9C126.71,-65.24 153.3,-71.45 174.79,-76.48"/>
<polygon fill="midnightblue" stroke="midnightblue" points="104.54,-56.46 94.01,-57.59 102.95,-63.27 104.54,-56.46"/>
</g>
<!-- Node2 -->
<g id="node3" class="node">
<title>Node2</title>
<g id="a_node3"><a xlink:href="classMockDatabaseHandler.html" target="_top" xlink:title=" ">
<polygon fill="white" stroke="black" points="152.5,-38.5 152.5,-57.5 280.5,-57.5 280.5,-38.5 152.5,-38.5"/>
<text text-anchor="middle" x="216.5" y="-45.5" font-family="Helvetica,sans-Serif" font-size="10.00">MockDatabaseHandler</text>
</a>
</g>
</g>
<!-- Node0&#45;&gt;Node2 -->
<g id="edge2" class="edge">
<title>Node0&#45;&gt;Node2</title>
<path fill="none" stroke="midnightblue" d="M114.63,-48C127,-48 140.02,-48 152.44,-48"/>
<polygon fill="midnightblue" stroke="midnightblue" points="114.42,-44.5 104.42,-48 114.42,-51.5 114.42,-44.5"/>
</g>
<!-- Node3 -->
<g id="node4" class="node">
<title>Node3</title>
<g id="a_node4"><a xlink:href="classRedisDatabaseHandler.html" target="_top" xlink:title="Class for interacting with a Redis database backend.">
<polygon fill="white" stroke="black" points="152.5,-0.5 152.5,-19.5 280.5,-19.5 280.5,-0.5 152.5,-0.5"/>
<text text-anchor="middle" x="216.5" y="-7.5" font-family="Helvetica,sans-Serif" font-size="10.00">RedisDatabaseHandler</text>
</a>
</g>
</g>
<!-- Node0&#45;&gt;Node3 -->
<g id="edge3" class="edge">
<title>Node0&#45;&gt;Node3</title>
<path fill="none" stroke="midnightblue" d="M103.87,-36.1C126.71,-30.76 153.3,-24.55 174.79,-19.52"/>
<polygon fill="midnightblue" stroke="midnightblue" points="102.95,-32.73 94.01,-38.41 104.54,-39.54 102.95,-32.73"/>
</g>
</g>
</svg>
