<?xml version="1.0" encoding="UTF-8" standalone="no"?>
<!DOCTYPE svg PUBLIC "-//W3C//DTD SVG 1.1//EN"
 "http://www.w3.org/Graphics/SVG/1.1/DTD/svg11.dtd">
<!-- Generated by graphviz version 2.43.0 (0)
 -->
<!-- Title: Graphical Class Hierarchy Pages: 1 -->
<svg width="263pt" height="88pt"
 viewBox="0.00 0.00 263.00 88.00" xmlns="http://www.w3.org/2000/svg" xmlns:xlink="http://www.w3.org/1999/xlink">
<g id="graph0" class="graph" transform="scale(1 1) rotate(0) translate(4 84)">
<title>Graphical Class Hierarchy</title>
<polygon fill="white" stroke="transparent" points="-4,4 -4,-84 259,-84 259,4 -4,4"/>
<!-- Node13 -->
<g id="node1" class="node">
<title>Node13</title>
<g id="a_node1"><a xlink:title=" ">
<polygon fill="white" stroke="#bfbfbf" points="0,-30 0,-49 60,-49 60,-30 0,-30"/>
<text text-anchor="middle" x="30" y="-37" font-family="Helvetica,sans-Serif" font-size="10.00">Message</text>
</a>
</g>
</g>
<!-- Node0 -->
<g id="node2" class="node">
<title>Node0</title>
<g id="a_node2"><a xlink:href="classcontainermanager_1_1ContainerParameters.html" target="_top" xlink:title=" ">
<polygon fill="white" stroke="black" points="96,-49.5 96,-79.5 255,-79.5 255,-49.5 96,-49.5"/>
<text text-anchor="start" x="104" y="-67.5" font-family="Helvetica,sans-Serif" font-size="10.00">containermanager::Container</text>
<text text-anchor="middle" x="175.5" y="-56.5" font-family="Helvetica,sans-Serif" font-size="10.00">Parameters</text>
</a>
</g>
</g>
<!-- Node13&#45;&gt;Node0 -->
<g id="edge1" class="edge">
<title>Node13&#45;&gt;Node0</title>
<path fill="none" stroke="midnightblue" d="M69.92,-46.28C78.06,-47.7 86.91,-49.24 95.91,-50.81"/>
<polygon fill="midnightblue" stroke="midnightblue" points="70.49,-42.83 60.04,-44.56 69.29,-49.72 70.49,-42.83"/>
</g>
<!-- Node15 -->
<g id="node3" class="node">
<title>Node15</title>
<g id="a_node3"><a xlink:href="classcontainermanager_1_1ContainerRequest.html" target="_top" xlink:title=" ">
<polygon fill="white" stroke="black" points="96,-0.5 96,-30.5 255,-30.5 255,-0.5 96,-0.5"/>
<text text-anchor="start" x="104" y="-18.5" font-family="Helvetica,sans-Serif" font-size="10.00">containermanager::Container</text>
<text text-anchor="middle" x="175.5" y="-7.5" font-family="Helvetica,sans-Serif" font-size="10.00">Request</text>
</a>
</g>
</g>
<!-- Node13&#45;&gt;Node15 -->
<g id="edge2" class="edge">
<title>Node13&#45;&gt;Node15</title>
<path fill="none" stroke="midnightblue" d="M69.92,-32.99C78.06,-31.63 86.91,-30.15 95.91,-28.64"/>
<polygon fill="midnightblue" stroke="midnightblue" points="69.33,-29.54 60.04,-34.64 70.48,-36.45 69.33,-29.54"/>
</g>
</g>
</svg>
