<?xml version="1.0" encoding="UTF-8" standalone="no"?>
<!DOCTYPE svg PUBLIC "-//W3C//DTD SVG 1.1//EN"
 "http://www.w3.org/Graphics/SVG/1.1/DTD/svg11.dtd">
<!-- Generated by graphviz version 2.43.0 (0)
 -->
<!-- Title: utils/src/init_handler.cpp Pages: 1 -->
<svg width="745pt" height="196pt"
 viewBox="0.00 0.00 745.00 196.00" xmlns="http://www.w3.org/2000/svg" xmlns:xlink="http://www.w3.org/1999/xlink">
<g id="graph0" class="graph" transform="scale(1 1) rotate(0) translate(4 192)">
<title>utils/src/init_handler.cpp</title>
<polygon fill="white" stroke="transparent" points="-4,4 -4,-192 741,-192 741,4 -4,4"/>
<!-- Node1 -->
<g id="node1" class="node">
<title>Node1</title>
<g id="a_node1"><a xlink:title="Implements project&#45;wide initialization functions for the Container Manager application.">
<polygon fill="#bfbfbf" stroke="black" points="424.5,-168.5 424.5,-187.5 560.5,-187.5 560.5,-168.5 424.5,-168.5"/>
<text text-anchor="middle" x="492.5" y="-175.5" font-family="Helvetica,sans-Serif" font-size="10.00">utils/src/init_handler.cpp</text>
</a>
</g>
</g>
<!-- Node2 -->
<g id="node2" class="node">
<title>Node2</title>
<g id="a_node2"><a xlink:href="init__handler_8hpp.html" target="_top" xlink:title="Declares project&#45;wide initialization functions for the Container Manager application.">
<polygon fill="white" stroke="black" points="436,-112.5 436,-131.5 549,-131.5 549,-112.5 436,-112.5"/>
<text text-anchor="middle" x="492.5" y="-119.5" font-family="Helvetica,sans-Serif" font-size="10.00">inc/init_handler.hpp</text>
</a>
</g>
</g>
<!-- Node1&#45;&gt;Node2 -->
<g id="edge1" class="edge">
<title>Node1&#45;&gt;Node2</title>
<path fill="none" stroke="midnightblue" d="M492.5,-168.08C492.5,-161.01 492.5,-150.86 492.5,-141.99"/>
<polygon fill="midnightblue" stroke="midnightblue" points="496,-141.75 492.5,-131.75 489,-141.75 496,-141.75"/>
</g>
<!-- Node6 -->
<g id="node6" class="node">
<title>Node6</title>
<g id="a_node6"><a xlink:title=" ">
<polygon fill="white" stroke="#bfbfbf" points="567.5,-112.5 567.5,-131.5 653.5,-131.5 653.5,-112.5 567.5,-112.5"/>
<text text-anchor="middle" x="610.5" y="-119.5" font-family="Helvetica,sans-Serif" font-size="10.00">glog/logging.h</text>
</a>
</g>
</g>
<!-- Node1&#45;&gt;Node6 -->
<g id="edge5" class="edge">
<title>Node1&#45;&gt;Node6</title>
<path fill="none" stroke="midnightblue" d="M511.2,-168.44C530.44,-159.64 560.65,-145.81 582.7,-135.72"/>
<polygon fill="midnightblue" stroke="midnightblue" points="584.25,-138.86 591.89,-131.52 581.34,-132.5 584.25,-138.86"/>
</g>
<!-- Node7 -->
<g id="node7" class="node">
<title>Node7</title>
<g id="a_node7"><a xlink:title=" ">
<polygon fill="white" stroke="#bfbfbf" points="672,-112.5 672,-131.5 737,-131.5 737,-112.5 672,-112.5"/>
<text text-anchor="middle" x="704.5" y="-119.5" font-family="Helvetica,sans-Serif" font-size="10.00">mqueue.h</text>
</a>
</g>
</g>
<!-- Node1&#45;&gt;Node7 -->
<g id="edge6" class="edge">
<title>Node1&#45;&gt;Node7</title>
<path fill="none" stroke="midnightblue" d="M526.09,-168.44C562.9,-159.07 622.03,-144.01 662.03,-133.82"/>
<polygon fill="midnightblue" stroke="midnightblue" points="662.94,-137.2 671.76,-131.34 661.21,-130.42 662.94,-137.2"/>
</g>
<!-- Node8 -->
<g id="node8" class="node">
<title>Node8</title>
<g id="a_node8"><a xlink:href="common_8hpp.html" target="_top" xlink:title="Defines common constants, string views, and utility structures for the application.">
<polygon fill="white" stroke="black" points="144.5,-112.5 144.5,-131.5 242.5,-131.5 242.5,-112.5 144.5,-112.5"/>
<text text-anchor="middle" x="193.5" y="-119.5" font-family="Helvetica,sans-Serif" font-size="10.00">inc/common.hpp</text>
</a>
</g>
</g>
<!-- Node1&#45;&gt;Node8 -->
<g id="edge7" class="edge">
<title>Node1&#45;&gt;Node8</title>
<path fill="none" stroke="midnightblue" d="M445.12,-168.44C392.42,-158.92 307.27,-143.55 250.84,-133.36"/>
<polygon fill="midnightblue" stroke="midnightblue" points="251.12,-129.85 240.66,-131.52 249.87,-136.74 251.12,-129.85"/>
</g>
<!-- Node11 -->
<g id="node11" class="node">
<title>Node11</title>
<g id="a_node11"><a xlink:href="redis__database_8hpp.html" target="_top" xlink:title="Declares the RedisDatabaseHandler class for Redis&#45;based database operations.">
<polygon fill="white" stroke="black" points="289,-112.5 289,-131.5 418,-131.5 418,-112.5 289,-112.5"/>
<text text-anchor="middle" x="353.5" y="-119.5" font-family="Helvetica,sans-Serif" font-size="10.00">inc/redis_database.hpp</text>
</a>
</g>
</g>
<!-- Node1&#45;&gt;Node11 -->
<g id="edge11" class="edge">
<title>Node1&#45;&gt;Node11</title>
<path fill="none" stroke="midnightblue" d="M470.48,-168.44C447.4,-159.48 410.94,-145.31 384.86,-135.18"/>
<polygon fill="midnightblue" stroke="midnightblue" points="386.01,-131.88 375.42,-131.52 383.48,-138.4 386.01,-131.88"/>
</g>
<!-- Node3 -->
<g id="node3" class="node">
<title>Node3</title>
<g id="a_node3"><a xlink:href="database__interface_8hpp.html" target="_top" xlink:title="Abstract interface for database operations.">
<polygon fill="white" stroke="black" points="448,-56.5 448,-75.5 597,-75.5 597,-56.5 448,-56.5"/>
<text text-anchor="middle" x="522.5" y="-63.5" font-family="Helvetica,sans-Serif" font-size="10.00">inc/database_interface.hpp</text>
</a>
</g>
</g>
<!-- Node2&#45;&gt;Node3 -->
<g id="edge2" class="edge">
<title>Node2&#45;&gt;Node3</title>
<path fill="none" stroke="midnightblue" d="M497.45,-112.08C501.6,-104.61 507.65,-93.72 512.77,-84.52"/>
<polygon fill="midnightblue" stroke="midnightblue" points="515.84,-86.19 517.64,-75.75 509.72,-82.79 515.84,-86.19"/>
</g>
<!-- Node4 -->
<g id="node4" class="node">
<title>Node4</title>
<g id="a_node4"><a xlink:title=" ">
<polygon fill="white" stroke="#bfbfbf" points="228.5,-0.5 228.5,-19.5 272.5,-19.5 272.5,-0.5 228.5,-0.5"/>
<text text-anchor="middle" x="250.5" y="-7.5" font-family="Helvetica,sans-Serif" font-size="10.00">string</text>
</a>
</g>
</g>
<!-- Node3&#45;&gt;Node4 -->
<g id="edge3" class="edge">
<title>Node3&#45;&gt;Node4</title>
<path fill="none" stroke="midnightblue" d="M479.4,-56.44C424.69,-45.58 331.57,-27.09 282.67,-17.39"/>
<polygon fill="midnightblue" stroke="midnightblue" points="283.14,-13.91 272.65,-15.4 281.78,-20.78 283.14,-13.91"/>
</g>
<!-- Node5 -->
<g id="node5" class="node">
<title>Node5</title>
<g id="a_node5"><a xlink:title=" ">
<polygon fill="white" stroke="#bfbfbf" points="416.5,-0.5 416.5,-19.5 526.5,-19.5 526.5,-0.5 416.5,-0.5"/>
<text text-anchor="middle" x="471.5" y="-7.5" font-family="Helvetica,sans-Serif" font-size="10.00">nlohmann/json.hpp</text>
</a>
</g>
</g>
<!-- Node3&#45;&gt;Node5 -->
<g id="edge4" class="edge">
<title>Node3&#45;&gt;Node5</title>
<path fill="none" stroke="midnightblue" d="M514.08,-56.08C506.65,-48.22 495.65,-36.57 486.69,-27.08"/>
<polygon fill="midnightblue" stroke="midnightblue" points="489.18,-24.62 479.76,-19.75 484.09,-29.42 489.18,-24.62"/>
</g>
<!-- Node8&#45;&gt;Node4 -->
<g id="edge8" class="edge">
<title>Node8&#45;&gt;Node4</title>
<path fill="none" stroke="midnightblue" d="M197.97,-112.37C207.3,-94.38 228.97,-52.55 241.37,-28.63"/>
<polygon fill="midnightblue" stroke="midnightblue" points="244.55,-30.08 246.05,-19.59 238.34,-26.86 244.55,-30.08"/>
</g>
<!-- Node9 -->
<g id="node9" class="node">
<title>Node9</title>
<g id="a_node9"><a xlink:title=" ">
<polygon fill="white" stroke="#bfbfbf" points="111,-56.5 111,-75.5 184,-75.5 184,-56.5 111,-56.5"/>
<text text-anchor="middle" x="147.5" y="-63.5" font-family="Helvetica,sans-Serif" font-size="10.00">string_view</text>
</a>
</g>
</g>
<!-- Node8&#45;&gt;Node9 -->
<g id="edge9" class="edge">
<title>Node8&#45;&gt;Node9</title>
<path fill="none" stroke="midnightblue" d="M185.9,-112.08C179.27,-104.3 169.48,-92.8 161.44,-83.37"/>
<polygon fill="midnightblue" stroke="midnightblue" points="164.1,-81.09 154.95,-75.75 158.77,-85.63 164.1,-81.09"/>
</g>
<!-- Node10 -->
<g id="node10" class="node">
<title>Node10</title>
<g id="a_node10"><a xlink:title=" ">
<polygon fill="white" stroke="#bfbfbf" points="0,-56.5 0,-75.5 93,-75.5 93,-56.5 0,-56.5"/>
<text text-anchor="middle" x="46.5" y="-63.5" font-family="Helvetica,sans-Serif" font-size="10.00">unordered_map</text>
</a>
</g>
</g>
<!-- Node8&#45;&gt;Node10 -->
<g id="edge10" class="edge">
<title>Node8&#45;&gt;Node10</title>
<path fill="none" stroke="midnightblue" d="M170.21,-112.44C145.69,-103.44 106.9,-89.19 79.3,-79.05"/>
<polygon fill="midnightblue" stroke="midnightblue" points="80.28,-75.68 69.68,-75.52 77.86,-82.25 80.28,-75.68"/>
</g>
<!-- Node11&#45;&gt;Node3 -->
<g id="edge12" class="edge">
<title>Node11&#45;&gt;Node3</title>
<path fill="none" stroke="midnightblue" d="M380.28,-112.44C408.83,-103.32 454.23,-88.81 486.04,-78.65"/>
<polygon fill="midnightblue" stroke="midnightblue" points="487.39,-81.89 495.85,-75.52 485.26,-75.23 487.39,-81.89"/>
</g>
<!-- Node11&#45;&gt;Node4 -->
<g id="edge14" class="edge">
<title>Node11&#45;&gt;Node4</title>
<path fill="none" stroke="midnightblue" d="M325.58,-112.43C307.17,-105.42 283.89,-93.73 269.5,-76 258.74,-62.75 254.08,-43.62 252.05,-29.54"/>
<polygon fill="midnightblue" stroke="midnightblue" points="255.52,-29.09 250.93,-19.55 248.57,-29.87 255.52,-29.09"/>
</g>
<!-- Node11&#45;&gt;Node5 -->
<g id="edge15" class="edge">
<title>Node11&#45;&gt;Node5</title>
<path fill="none" stroke="midnightblue" d="M362.76,-112.37C382.66,-93.81 429.76,-49.91 454.94,-26.44"/>
<polygon fill="midnightblue" stroke="midnightblue" points="457.36,-28.97 462.28,-19.59 452.58,-23.85 457.36,-28.97"/>
</g>
<!-- Node12 -->
<g id="node12" class="node">
<title>Node12</title>
<g id="a_node12"><a xlink:title=" ">
<polygon fill="white" stroke="#bfbfbf" points="279,-56.5 279,-75.5 392,-75.5 392,-56.5 279,-56.5"/>
<text text-anchor="middle" x="335.5" y="-63.5" font-family="Helvetica,sans-Serif" font-size="10.00">cpp_redis/cpp_redis</text>
</a>
</g>
</g>
<!-- Node11&#45;&gt;Node12 -->
<g id="edge13" class="edge">
<title>Node11&#45;&gt;Node12</title>
<path fill="none" stroke="midnightblue" d="M350.53,-112.08C348.12,-104.85 344.64,-94.41 341.63,-85.4"/>
<polygon fill="midnightblue" stroke="midnightblue" points="344.9,-84.13 338.42,-75.75 338.26,-86.34 344.9,-84.13"/>
</g>
</g>
</svg>
