<?xml version="1.0" encoding="UTF-8" standalone="no"?>
<!DOCTYPE svg PUBLIC "-//W3C//DTD SVG 1.1//EN"
 "http://www.w3.org/Graphics/SVG/1.1/DTD/svg11.dtd">
<!-- Generated by graphviz version 2.43.0 (0)
 -->
<!-- Title: utils/inc/init_handler.hpp Pages: 1 -->
<svg width="224pt" height="84pt"
 viewBox="0.00 0.00 224.00 84.00" xmlns="http://www.w3.org/2000/svg" xmlns:xlink="http://www.w3.org/1999/xlink">
<g id="graph0" class="graph" transform="scale(1 1) rotate(0) translate(4 80)">
<title>utils/inc/init_handler.hpp</title>
<polygon fill="white" stroke="transparent" points="-4,4 -4,-80 220,-80 220,4 -4,4"/>
<!-- Node1 -->
<g id="node1" class="node">
<title>Node1</title>
<g id="a_node1"><a xlink:title="Declares project&#45;wide initialization functions.">
<polygon fill="#bfbfbf" stroke="black" points="20.5,-56.5 20.5,-75.5 157.5,-75.5 157.5,-56.5 20.5,-56.5"/>
<text text-anchor="middle" x="89" y="-63.5" font-family="Helvetica,sans-Serif" font-size="10.00">utils/inc/init_handler.hpp</text>
</a>
</g>
</g>
<!-- Node2 -->
<g id="node2" class="node">
<title>Node2</title>
<g id="a_node2"><a xlink:href="main_8cpp.html" target="_top" xlink:title="Entry point for the Container Manager application.">
<polygon fill="white" stroke="black" points="0,-0.5 0,-19.5 62,-19.5 62,-0.5 0,-0.5"/>
<text text-anchor="middle" x="31" y="-7.5" font-family="Helvetica,sans-Serif" font-size="10.00">main.cpp</text>
</a>
</g>
</g>
<!-- Node1&#45;&gt;Node2 -->
<g id="edge1" class="edge">
<title>Node1&#45;&gt;Node2</title>
<path fill="none" stroke="midnightblue" d="M72.09,-49.25C61.8,-39.67 49.03,-27.79 40.49,-19.83"/>
<polygon fill="midnightblue" stroke="midnightblue" points="69.98,-52.07 79.68,-56.32 74.75,-46.95 69.98,-52.07"/>
</g>
<!-- Node3 -->
<g id="node3" class="node">
<title>Node3</title>
<g id="a_node3"><a xlink:href="init__handler_8cpp.html" target="_top" xlink:title="Implements project&#45;wide initialization functions.">
<polygon fill="white" stroke="black" points="80,-0.5 80,-19.5 216,-19.5 216,-0.5 80,-0.5"/>
<text text-anchor="middle" x="148" y="-7.5" font-family="Helvetica,sans-Serif" font-size="10.00">utils/src/init_handler.cpp</text>
</a>
</g>
</g>
<!-- Node1&#45;&gt;Node3 -->
<g id="edge2" class="edge">
<title>Node1&#45;&gt;Node3</title>
<path fill="none" stroke="midnightblue" d="M105.89,-49.54C116.41,-39.91 129.57,-27.87 138.35,-19.83"/>
<polygon fill="midnightblue" stroke="midnightblue" points="103.49,-46.99 98.48,-56.32 108.22,-52.15 103.49,-46.99"/>
</g>
</g>
</svg>
