<?xml version="1.0" encoding="UTF-8" standalone="no"?>
<!DOCTYPE svg PUBLIC "-//W3C//DTD SVG 1.1//EN"
 "http://www.w3.org/Graphics/SVG/1.1/DTD/svg11.dtd">
<!-- Generated by graphviz version 2.43.0 (0)
 -->
<!-- Title: InitProject Pages: 1 -->
<svg width="475pt" height="164pt"
 viewBox="0.00 0.00 475.00 164.00" xmlns="http://www.w3.org/2000/svg" xmlns:xlink="http://www.w3.org/1999/xlink">
<g id="graph0" class="graph" transform="scale(1 1) rotate(0) translate(4 160)">
<title>InitProject</title>
<polygon fill="white" stroke="transparent" points="-4,4 -4,-160 471,-160 471,4 -4,4"/>
<!-- Node1 -->
<g id="node1" class="node">
<title>Node1</title>
<g id="a_node1"><a xlink:title="Initializes all enabled project subsystems.">
<polygon fill="#bfbfbf" stroke="black" points="0,-57.5 0,-76.5 66,-76.5 66,-57.5 0,-57.5"/>
<text text-anchor="middle" x="33" y="-64.5" font-family="Helvetica,sans-Serif" font-size="10.00">InitProject</text>
</a>
</g>
</g>
<!-- Node2 -->
<g id="node2" class="node">
<title>Node2</title>
<g id="a_node2"><a xlink:href="init__handler_8cpp.html#a3ca899cad245b508cfb58fd9230fa669" target="_top" xlink:title="Initializes and clears the database.">
<polygon fill="white" stroke="black" points="136,-114.5 136,-133.5 215,-133.5 215,-114.5 136,-114.5"/>
<text text-anchor="middle" x="175.5" y="-121.5" font-family="Helvetica,sans-Serif" font-size="10.00">InitDatabase</text>
</a>
</g>
</g>
<!-- Node1&#45;&gt;Node2 -->
<g id="edge1" class="edge">
<title>Node1&#45;&gt;Node2</title>
<path fill="none" stroke="midnightblue" d="M48.58,-76.58C62,-85.05 82.68,-97.22 102,-105 109.64,-108.08 117.93,-110.79 126.08,-113.14"/>
<polygon fill="midnightblue" stroke="midnightblue" points="125.34,-116.56 135.91,-115.82 127.18,-109.81 125.34,-116.56"/>
</g>
<!-- Node5 -->
<g id="node5" class="node">
<title>Node5</title>
<g id="a_node5"><a xlink:href="init__handler_8cpp.html#a9c6fd2b1fc6d60ab2f80b2799b0fa81e" target="_top" xlink:title="Initializes logging and clears the database before server startup.">
<polygon fill="white" stroke="black" points="140,-76.5 140,-95.5 211,-95.5 211,-76.5 140,-76.5"/>
<text text-anchor="middle" x="175.5" y="-83.5" font-family="Helvetica,sans-Serif" font-size="10.00">InitLogging</text>
</a>
</g>
</g>
<!-- Node1&#45;&gt;Node5 -->
<g id="edge4" class="edge">
<title>Node1&#45;&gt;Node5</title>
<path fill="none" stroke="midnightblue" d="M66.23,-71.36C85.09,-73.91 109.16,-77.16 129.82,-79.96"/>
<polygon fill="midnightblue" stroke="midnightblue" points="129.58,-83.46 139.96,-81.33 130.52,-76.52 129.58,-83.46"/>
</g>
<!-- Node6 -->
<g id="node6" class="node">
<title>Node6</title>
<g id="a_node6"><a xlink:href="init__handler_8cpp.html#ac622dccafc9db8b54a3d5ef6d98eed8e" target="_top" xlink:title="Clears the POSIX message queue.">
<polygon fill="white" stroke="black" points="122,-38.5 122,-57.5 229,-57.5 229,-38.5 122,-38.5"/>
<text text-anchor="middle" x="175.5" y="-45.5" font-family="Helvetica,sans-Serif" font-size="10.00">InitMessageQueue</text>
</a>
</g>
</g>
<!-- Node1&#45;&gt;Node6 -->
<g id="edge5" class="edge">
<title>Node1&#45;&gt;Node6</title>
<path fill="none" stroke="midnightblue" d="M66.23,-62.64C79.72,-60.82 95.89,-58.63 111.57,-56.51"/>
<polygon fill="midnightblue" stroke="midnightblue" points="112.33,-59.94 121.77,-55.13 111.39,-53 112.33,-59.94"/>
</g>
<!-- Node7 -->
<g id="node7" class="node">
<title>Node7</title>
<g id="a_node7"><a xlink:href="init__handler_8cpp.html#a57b18ca1632517db21aa1491c585762a" target="_top" xlink:title="Clears retained MQTT messages.">
<polygon fill="white" stroke="black" points="102,-0.5 102,-19.5 249,-19.5 249,-0.5 102,-0.5"/>
<text text-anchor="middle" x="175.5" y="-7.5" font-family="Helvetica,sans-Serif" font-size="10.00">InitMqttRetainedMessages</text>
</a>
</g>
</g>
<!-- Node1&#45;&gt;Node7 -->
<g id="edge6" class="edge">
<title>Node1&#45;&gt;Node7</title>
<path fill="none" stroke="midnightblue" d="M48.58,-57.42C62,-48.95 82.68,-36.78 102,-29 107.94,-26.61 114.28,-24.43 120.64,-22.48"/>
<polygon fill="midnightblue" stroke="midnightblue" points="121.97,-25.74 130.6,-19.59 120.02,-19.01 121.97,-25.74"/>
</g>
<!-- Node3 -->
<g id="node3" class="node">
<title>Node3</title>
<g id="a_node3"><a xlink:href="classIDatabaseHandler.html#a79f638c8332acdfb054d1f915f77c760" target="_top" xlink:title="Clears all data from the database.">
<polygon fill="white" stroke="black" points="285,-136.5 285,-155.5 467,-155.5 467,-136.5 285,-136.5"/>
<text text-anchor="middle" x="376" y="-143.5" font-family="Helvetica,sans-Serif" font-size="10.00">IDatabaseHandler::ClearDatabase</text>
</a>
</g>
</g>
<!-- Node2&#45;&gt;Node3 -->
<g id="edge2" class="edge">
<title>Node2&#45;&gt;Node3</title>
<path fill="none" stroke="midnightblue" d="M215.24,-128.29C233.62,-130.33 256.48,-132.86 279.1,-135.37"/>
<polygon fill="midnightblue" stroke="midnightblue" points="278.79,-138.86 289.11,-136.48 279.56,-131.9 278.79,-138.86"/>
</g>
<!-- Node4 -->
<g id="node4" class="node">
<title>Node4</title>
<g id="a_node4"><a xlink:href="classRedisDatabaseHandler.html#a07c65b208d5997ec20ed239dca4081ce" target="_top" xlink:title="Retrieves the singleton instance of the RedisDatabaseHandler.">
<polygon fill="white" stroke="black" points="312,-87 312,-117 440,-117 440,-87 312,-87"/>
<text text-anchor="start" x="320" y="-105" font-family="Helvetica,sans-Serif" font-size="10.00">RedisDatabaseHandler</text>
<text text-anchor="middle" x="376" y="-94" font-family="Helvetica,sans-Serif" font-size="10.00">::GetInstance</text>
</a>
</g>
</g>
<!-- Node2&#45;&gt;Node4 -->
<g id="edge3" class="edge">
<title>Node2&#45;&gt;Node4</title>
<path fill="none" stroke="midnightblue" d="M215.24,-119.71C239.77,-116.99 272.27,-113.39 301.54,-110.14"/>
<polygon fill="midnightblue" stroke="midnightblue" points="302.19,-113.59 311.75,-109.01 301.42,-106.63 302.19,-113.59"/>
</g>
</g>
</svg>
