<?xml version="1.0" encoding="UTF-8" standalone="no"?>
<!DOCTYPE svg PUBLIC "-//W3C//DTD SVG 1.1//EN"
 "http://www.w3.org/Graphics/SVG/1.1/DTD/svg11.dtd">
<!-- Generated by graphviz version 2.43.0 (0)
 -->
<!-- Title: utils/src/init_handler.cpp Pages: 1 -->
<svg width="848pt" height="196pt"
 viewBox="0.00 0.00 848.00 196.00" xmlns="http://www.w3.org/2000/svg" xmlns:xlink="http://www.w3.org/1999/xlink">
<g id="graph0" class="graph" transform="scale(1 1) rotate(0) translate(4 192)">
<title>utils/src/init_handler.cpp</title>
<polygon fill="white" stroke="transparent" points="-4,4 -4,-192 844,-192 844,4 -4,4"/>
<!-- Node1 -->
<g id="node1" class="node">
<title>Node1</title>
<g id="a_node1"><a xlink:title="Implements project&#45;wide initialization functions.">
<polygon fill="#bfbfbf" stroke="black" points="200.5,-168.5 200.5,-187.5 336.5,-187.5 336.5,-168.5 200.5,-168.5"/>
<text text-anchor="middle" x="268.5" y="-175.5" font-family="Helvetica,sans-Serif" font-size="10.00">utils/src/init_handler.cpp</text>
</a>
</g>
</g>
<!-- Node2 -->
<g id="node2" class="node">
<title>Node2</title>
<g id="a_node2"><a xlink:href="init__handler_8hpp.html" target="_top" xlink:title="Declares project&#45;wide initialization functions.">
<polygon fill="white" stroke="black" points="0,-112.5 0,-131.5 113,-131.5 113,-112.5 0,-112.5"/>
<text text-anchor="middle" x="56.5" y="-119.5" font-family="Helvetica,sans-Serif" font-size="10.00">inc/init_handler.hpp</text>
</a>
</g>
</g>
<!-- Node1&#45;&gt;Node2 -->
<g id="edge1" class="edge">
<title>Node1&#45;&gt;Node2</title>
<path fill="none" stroke="midnightblue" d="M234.91,-168.44C198.31,-159.12 139.66,-144.18 99.67,-134"/>
<polygon fill="midnightblue" stroke="midnightblue" points="100.49,-130.59 89.93,-131.52 98.76,-137.38 100.49,-130.59"/>
</g>
<!-- Node3 -->
<g id="node3" class="node">
<title>Node3</title>
<g id="a_node3"><a xlink:title=" ">
<polygon fill="white" stroke="#bfbfbf" points="131.5,-112.5 131.5,-131.5 217.5,-131.5 217.5,-112.5 131.5,-112.5"/>
<text text-anchor="middle" x="174.5" y="-119.5" font-family="Helvetica,sans-Serif" font-size="10.00">glog/logging.h</text>
</a>
</g>
</g>
<!-- Node1&#45;&gt;Node3 -->
<g id="edge2" class="edge">
<title>Node1&#45;&gt;Node3</title>
<path fill="none" stroke="midnightblue" d="M253.4,-168.32C238.6,-159.82 215.81,-146.73 198.52,-136.8"/>
<polygon fill="midnightblue" stroke="midnightblue" points="199.98,-133.6 189.57,-131.65 196.49,-139.67 199.98,-133.6"/>
</g>
<!-- Node4 -->
<g id="node4" class="node">
<title>Node4</title>
<g id="a_node4"><a xlink:title=" ">
<polygon fill="white" stroke="#bfbfbf" points="236,-112.5 236,-131.5 301,-131.5 301,-112.5 236,-112.5"/>
<text text-anchor="middle" x="268.5" y="-119.5" font-family="Helvetica,sans-Serif" font-size="10.00">mqueue.h</text>
</a>
</g>
</g>
<!-- Node1&#45;&gt;Node4 -->
<g id="edge3" class="edge">
<title>Node1&#45;&gt;Node4</title>
<path fill="none" stroke="midnightblue" d="M268.5,-168.08C268.5,-161.01 268.5,-150.86 268.5,-141.99"/>
<polygon fill="midnightblue" stroke="midnightblue" points="272,-141.75 268.5,-131.75 265,-141.75 272,-141.75"/>
</g>
<!-- Node5 -->
<g id="node5" class="node">
<title>Node5</title>
<g id="a_node5"><a xlink:href="common_8hpp.html" target="_top" xlink:title="Defines common constants, string views, and utility structures for the application.">
<polygon fill="white" stroke="black" points="319.5,-112.5 319.5,-131.5 417.5,-131.5 417.5,-112.5 319.5,-112.5"/>
<text text-anchor="middle" x="368.5" y="-119.5" font-family="Helvetica,sans-Serif" font-size="10.00">inc/common.hpp</text>
</a>
</g>
</g>
<!-- Node1&#45;&gt;Node5 -->
<g id="edge4" class="edge">
<title>Node1&#45;&gt;Node5</title>
<path fill="none" stroke="midnightblue" d="M284.57,-168.32C300.46,-159.74 325.01,-146.49 343.46,-136.52"/>
<polygon fill="midnightblue" stroke="midnightblue" points="345.34,-139.49 352.47,-131.65 342.01,-133.33 345.34,-139.49"/>
</g>
<!-- Node9 -->
<g id="node9" class="node">
<title>Node9</title>
<g id="a_node9"><a xlink:href="redis__database_8hpp.html" target="_top" xlink:title="Declares the RedisDatabaseHandler class for Redis&#45;based database operations.">
<polygon fill="white" stroke="black" points="532,-112.5 532,-131.5 661,-131.5 661,-112.5 532,-112.5"/>
<text text-anchor="middle" x="596.5" y="-119.5" font-family="Helvetica,sans-Serif" font-size="10.00">inc/redis_database.hpp</text>
</a>
</g>
</g>
<!-- Node1&#45;&gt;Node9 -->
<g id="edge8" class="edge">
<title>Node1&#45;&gt;Node9</title>
<path fill="none" stroke="midnightblue" d="M320.47,-168.44C378.65,-158.87 472.86,-143.36 534.75,-133.17"/>
<polygon fill="midnightblue" stroke="midnightblue" points="535.47,-136.59 544.77,-131.52 534.33,-129.69 535.47,-136.59"/>
</g>
<!-- Node6 -->
<g id="node6" class="node">
<title>Node6</title>
<g id="a_node6"><a xlink:title=" ">
<polygon fill="white" stroke="#bfbfbf" points="472.5,-0.5 472.5,-19.5 516.5,-19.5 516.5,-0.5 472.5,-0.5"/>
<text text-anchor="middle" x="494.5" y="-7.5" font-family="Helvetica,sans-Serif" font-size="10.00">string</text>
</a>
</g>
</g>
<!-- Node5&#45;&gt;Node6 -->
<g id="edge5" class="edge">
<title>Node5&#45;&gt;Node6</title>
<path fill="none" stroke="midnightblue" d="M334.36,-112.42C298.84,-101.87 251.16,-82.1 272.5,-56 296.12,-27.11 406.71,-16.33 462.35,-12.68"/>
<polygon fill="midnightblue" stroke="midnightblue" points="462.62,-16.17 472.39,-12.06 462.19,-9.18 462.62,-16.17"/>
</g>
<!-- Node7 -->
<g id="node7" class="node">
<title>Node7</title>
<g id="a_node7"><a xlink:title=" ">
<polygon fill="white" stroke="#bfbfbf" points="282,-56.5 282,-75.5 355,-75.5 355,-56.5 282,-56.5"/>
<text text-anchor="middle" x="318.5" y="-63.5" font-family="Helvetica,sans-Serif" font-size="10.00">string_view</text>
</a>
</g>
</g>
<!-- Node5&#45;&gt;Node7 -->
<g id="edge6" class="edge">
<title>Node5&#45;&gt;Node7</title>
<path fill="none" stroke="midnightblue" d="M360.24,-112.08C353.04,-104.3 342.39,-92.8 333.65,-83.37"/>
<polygon fill="midnightblue" stroke="midnightblue" points="335.97,-80.71 326.6,-75.75 330.83,-85.47 335.97,-80.71"/>
</g>
<!-- Node8 -->
<g id="node8" class="node">
<title>Node8</title>
<g id="a_node8"><a xlink:title=" ">
<polygon fill="white" stroke="#bfbfbf" points="373,-56.5 373,-75.5 466,-75.5 466,-56.5 373,-56.5"/>
<text text-anchor="middle" x="419.5" y="-63.5" font-family="Helvetica,sans-Serif" font-size="10.00">unordered_map</text>
</a>
</g>
</g>
<!-- Node5&#45;&gt;Node8 -->
<g id="edge7" class="edge">
<title>Node5&#45;&gt;Node8</title>
<path fill="none" stroke="midnightblue" d="M376.92,-112.08C384.35,-104.22 395.35,-92.57 404.31,-83.08"/>
<polygon fill="midnightblue" stroke="midnightblue" points="406.91,-85.42 411.24,-75.75 401.82,-80.62 406.91,-85.42"/>
</g>
<!-- Node9&#45;&gt;Node6 -->
<g id="edge13" class="edge">
<title>Node9&#45;&gt;Node6</title>
<path fill="none" stroke="midnightblue" d="M568.5,-112.5C550.05,-105.51 526.76,-93.83 512.5,-76 501.88,-62.72 497.52,-43.6 495.73,-29.53"/>
<polygon fill="midnightblue" stroke="midnightblue" points="499.21,-29.16 494.78,-19.54 492.24,-29.83 499.21,-29.16"/>
</g>
<!-- Node10 -->
<g id="node10" class="node">
<title>Node10</title>
<g id="a_node10"><a xlink:href="database__interface_8hpp.html" target="_top" xlink:title="Abstract interface for database operations.">
<polygon fill="white" stroke="black" points="522,-56.5 522,-75.5 671,-75.5 671,-56.5 522,-56.5"/>
<text text-anchor="middle" x="596.5" y="-63.5" font-family="Helvetica,sans-Serif" font-size="10.00">inc/database_interface.hpp</text>
</a>
</g>
</g>
<!-- Node9&#45;&gt;Node10 -->
<g id="edge9" class="edge">
<title>Node9&#45;&gt;Node10</title>
<path fill="none" stroke="midnightblue" d="M596.5,-112.08C596.5,-105.01 596.5,-94.86 596.5,-85.99"/>
<polygon fill="midnightblue" stroke="midnightblue" points="600,-85.75 596.5,-75.75 593,-85.75 600,-85.75"/>
</g>
<!-- Node11 -->
<g id="node11" class="node">
<title>Node11</title>
<g id="a_node11"><a xlink:title=" ">
<polygon fill="white" stroke="#bfbfbf" points="592.5,-0.5 592.5,-19.5 702.5,-19.5 702.5,-0.5 592.5,-0.5"/>
<text text-anchor="middle" x="647.5" y="-7.5" font-family="Helvetica,sans-Serif" font-size="10.00">nlohmann/json.hpp</text>
</a>
</g>
</g>
<!-- Node9&#45;&gt;Node11 -->
<g id="edge14" class="edge">
<title>Node9&#45;&gt;Node11</title>
<path fill="none" stroke="midnightblue" d="M628.68,-112.49C647.04,-105.8 668.52,-94.45 679.5,-76 689.09,-59.89 676.66,-40.5 664.61,-27.12"/>
<polygon fill="midnightblue" stroke="midnightblue" points="666.83,-24.38 657.35,-19.64 661.8,-29.25 666.83,-24.38"/>
</g>
<!-- Node12 -->
<g id="node12" class="node">
<title>Node12</title>
<g id="a_node12"><a xlink:title=" ">
<polygon fill="white" stroke="#bfbfbf" points="727,-56.5 727,-75.5 840,-75.5 840,-56.5 727,-56.5"/>
<text text-anchor="middle" x="783.5" y="-63.5" font-family="Helvetica,sans-Serif" font-size="10.00">cpp_redis/cpp_redis</text>
</a>
</g>
</g>
<!-- Node9&#45;&gt;Node12 -->
<g id="edge12" class="edge">
<title>Node9&#45;&gt;Node12</title>
<path fill="none" stroke="midnightblue" d="M626.13,-112.44C658,-103.24 708.83,-88.56 744.06,-78.39"/>
<polygon fill="midnightblue" stroke="midnightblue" points="745.37,-81.65 754.01,-75.52 743.43,-74.93 745.37,-81.65"/>
</g>
<!-- Node10&#45;&gt;Node6 -->
<g id="edge10" class="edge">
<title>Node10&#45;&gt;Node6</title>
<path fill="none" stroke="midnightblue" d="M580.11,-56.32C563.83,-47.7 538.63,-34.36 519.78,-24.39"/>
<polygon fill="midnightblue" stroke="midnightblue" points="521.32,-21.24 510.85,-19.65 518.05,-27.43 521.32,-21.24"/>
</g>
<!-- Node10&#45;&gt;Node11 -->
<g id="edge11" class="edge">
<title>Node10&#45;&gt;Node11</title>
<path fill="none" stroke="midnightblue" d="M604.92,-56.08C612.35,-48.22 623.35,-36.57 632.31,-27.08"/>
<polygon fill="midnightblue" stroke="midnightblue" points="634.91,-29.42 639.24,-19.75 629.82,-24.62 634.91,-29.42"/>
</g>
</g>
</svg>
