<?xml version="1.0" encoding="UTF-8" standalone="no"?>
<!DOCTYPE svg PUBLIC "-//W3C//DTD SVG 1.1//EN"
 "http://www.w3.org/Graphics/SVG/1.1/DTD/svg11.dtd">
<!-- Generated by graphviz version 2.43.0 (0)
 -->
<!-- Title: utils/src/init_handler.cpp Pages: 1 -->
<svg width="879pt" height="196pt"
 viewBox="0.00 0.00 879.00 196.00" xmlns="http://www.w3.org/2000/svg" xmlns:xlink="http://www.w3.org/1999/xlink">
<g id="graph0" class="graph" transform="scale(1 1) rotate(0) translate(4 192)">
<title>utils/src/init_handler.cpp</title>
<polygon fill="white" stroke="transparent" points="-4,4 -4,-192 875,-192 875,4 -4,4"/>
<!-- Node1 -->
<g id="node1" class="node">
<title>Node1</title>
<g id="a_node1"><a xlink:title="Implements project&#45;wide initialization functions.">
<polygon fill="#bfbfbf" stroke="black" points="244.5,-168.5 244.5,-187.5 380.5,-187.5 380.5,-168.5 244.5,-168.5"/>
<text text-anchor="middle" x="312.5" y="-175.5" font-family="Helvetica,sans-Serif" font-size="10.00">utils/src/init_handler.cpp</text>
</a>
</g>
</g>
<!-- Node2 -->
<g id="node2" class="node">
<title>Node2</title>
<g id="a_node2"><a xlink:href="init__handler_8hpp.html" target="_top" xlink:title="Declares project&#45;wide initialization functions.">
<polygon fill="white" stroke="black" points="0,-112.5 0,-131.5 113,-131.5 113,-112.5 0,-112.5"/>
<text text-anchor="middle" x="56.5" y="-119.5" font-family="Helvetica,sans-Serif" font-size="10.00">inc/init_handler.hpp</text>
</a>
</g>
</g>
<!-- Node1&#45;&gt;Node2 -->
<g id="edge1" class="edge">
<title>Node1&#45;&gt;Node2</title>
<path fill="none" stroke="midnightblue" d="M271.94,-168.44C227.18,-159 155.12,-143.8 106.8,-133.61"/>
<polygon fill="midnightblue" stroke="midnightblue" points="107.38,-130.16 96.87,-131.52 105.94,-137.01 107.38,-130.16"/>
</g>
<!-- Node3 -->
<g id="node3" class="node">
<title>Node3</title>
<g id="a_node3"><a xlink:title=" ">
<polygon fill="white" stroke="#bfbfbf" points="131.5,-112.5 131.5,-131.5 217.5,-131.5 217.5,-112.5 131.5,-112.5"/>
<text text-anchor="middle" x="174.5" y="-119.5" font-family="Helvetica,sans-Serif" font-size="10.00">glog/logging.h</text>
</a>
</g>
</g>
<!-- Node1&#45;&gt;Node3 -->
<g id="edge2" class="edge">
<title>Node1&#45;&gt;Node3</title>
<path fill="none" stroke="midnightblue" d="M290.63,-168.44C267.72,-159.48 231.52,-145.31 205.63,-135.18"/>
<polygon fill="midnightblue" stroke="midnightblue" points="206.85,-131.9 196.26,-131.52 204.3,-138.42 206.85,-131.9"/>
</g>
<!-- Node4 -->
<g id="node4" class="node">
<title>Node4</title>
<g id="a_node4"><a xlink:title=" ">
<polygon fill="white" stroke="#bfbfbf" points="236,-112.5 236,-131.5 301,-131.5 301,-112.5 236,-112.5"/>
<text text-anchor="middle" x="268.5" y="-119.5" font-family="Helvetica,sans-Serif" font-size="10.00">mqueue.h</text>
</a>
</g>
</g>
<!-- Node1&#45;&gt;Node4 -->
<g id="edge3" class="edge">
<title>Node1&#45;&gt;Node4</title>
<path fill="none" stroke="midnightblue" d="M305.23,-168.08C298.96,-160.38 289.71,-149.03 282.07,-139.65"/>
<polygon fill="midnightblue" stroke="midnightblue" points="284.66,-137.29 275.63,-131.75 279.23,-141.71 284.66,-137.29"/>
</g>
<!-- Node5 -->
<g id="node5" class="node">
<title>Node5</title>
<g id="a_node5"><a xlink:title=" ">
<polygon fill="white" stroke="#bfbfbf" points="319,-112.5 319,-131.5 394,-131.5 394,-112.5 319,-112.5"/>
<text text-anchor="middle" x="356.5" y="-119.5" font-family="Helvetica,sans-Serif" font-size="10.00">mosquitto.h</text>
</a>
</g>
</g>
<!-- Node1&#45;&gt;Node5 -->
<g id="edge4" class="edge">
<title>Node1&#45;&gt;Node5</title>
<path fill="none" stroke="midnightblue" d="M319.77,-168.08C326.04,-160.38 335.29,-149.03 342.93,-139.65"/>
<polygon fill="midnightblue" stroke="midnightblue" points="345.77,-141.71 349.37,-131.75 340.34,-137.29 345.77,-141.71"/>
</g>
<!-- Node6 -->
<g id="node6" class="node">
<title>Node6</title>
<g id="a_node6"><a xlink:href="common_8hpp.html" target="_top" xlink:title="Defines common constants, string views, and utility structures for the application.">
<polygon fill="white" stroke="black" points="411.5,-112.5 411.5,-131.5 509.5,-131.5 509.5,-112.5 411.5,-112.5"/>
<text text-anchor="middle" x="460.5" y="-119.5" font-family="Helvetica,sans-Serif" font-size="10.00">inc/common.hpp</text>
</a>
</g>
</g>
<!-- Node1&#45;&gt;Node6 -->
<g id="edge5" class="edge">
<title>Node1&#45;&gt;Node6</title>
<path fill="none" stroke="midnightblue" d="M335.95,-168.44C360.63,-159.44 399.69,-145.19 427.48,-135.05"/>
<polygon fill="midnightblue" stroke="midnightblue" points="428.96,-138.23 437.16,-131.52 426.56,-131.66 428.96,-138.23"/>
</g>
<!-- Node9 -->
<g id="node9" class="node">
<title>Node9</title>
<g id="a_node9"><a xlink:href="redis__database_8hpp.html" target="_top" xlink:title="Implements RedisDatabaseHandler for Redis&#45;based database operations.">
<polygon fill="white" stroke="black" points="563,-112.5 563,-131.5 692,-131.5 692,-112.5 563,-112.5"/>
<text text-anchor="middle" x="627.5" y="-119.5" font-family="Helvetica,sans-Serif" font-size="10.00">inc/redis_database.hpp</text>
</a>
</g>
</g>
<!-- Node1&#45;&gt;Node9 -->
<g id="edge8" class="edge">
<title>Node1&#45;&gt;Node9</title>
<path fill="none" stroke="midnightblue" d="M362.41,-168.44C418.17,-158.89 508.39,-143.42 567.83,-133.23"/>
<polygon fill="midnightblue" stroke="midnightblue" points="568.56,-136.66 577.82,-131.52 567.37,-129.76 568.56,-136.66"/>
</g>
<!-- Node7 -->
<g id="node7" class="node">
<title>Node7</title>
<g id="a_node7"><a xlink:title=" ">
<polygon fill="white" stroke="#bfbfbf" points="503.5,-0.5 503.5,-19.5 547.5,-19.5 547.5,-0.5 503.5,-0.5"/>
<text text-anchor="middle" x="525.5" y="-7.5" font-family="Helvetica,sans-Serif" font-size="10.00">string</text>
</a>
</g>
</g>
<!-- Node6&#45;&gt;Node7 -->
<g id="edge6" class="edge">
<title>Node6&#45;&gt;Node7</title>
<path fill="none" stroke="midnightblue" d="M446.77,-112.47C428.67,-100.13 400.67,-76.52 414.5,-56 431.96,-30.08 467.18,-19.08 493.28,-14.42"/>
<polygon fill="midnightblue" stroke="midnightblue" points="494.14,-17.83 503.49,-12.83 493.07,-10.92 494.14,-17.83"/>
</g>
<!-- Node8 -->
<g id="node8" class="node">
<title>Node8</title>
<g id="a_node8"><a xlink:title=" ">
<polygon fill="white" stroke="#bfbfbf" points="424,-56.5 424,-75.5 497,-75.5 497,-56.5 424,-56.5"/>
<text text-anchor="middle" x="460.5" y="-63.5" font-family="Helvetica,sans-Serif" font-size="10.00">string_view</text>
</a>
</g>
</g>
<!-- Node6&#45;&gt;Node8 -->
<g id="edge7" class="edge">
<title>Node6&#45;&gt;Node8</title>
<path fill="none" stroke="midnightblue" d="M460.5,-112.08C460.5,-105.01 460.5,-94.86 460.5,-85.99"/>
<polygon fill="midnightblue" stroke="midnightblue" points="464,-85.75 460.5,-75.75 457,-85.75 464,-85.75"/>
</g>
<!-- Node9&#45;&gt;Node7 -->
<g id="edge13" class="edge">
<title>Node9&#45;&gt;Node7</title>
<path fill="none" stroke="midnightblue" d="M599.5,-112.5C581.05,-105.51 557.76,-93.83 543.5,-76 532.88,-62.72 528.52,-43.6 526.73,-29.53"/>
<polygon fill="midnightblue" stroke="midnightblue" points="530.21,-29.16 525.78,-19.54 523.24,-29.83 530.21,-29.16"/>
</g>
<!-- Node10 -->
<g id="node10" class="node">
<title>Node10</title>
<g id="a_node10"><a xlink:href="database__interface_8hpp.html" target="_top" xlink:title="Abstract interface for database operations.">
<polygon fill="white" stroke="black" points="553,-56.5 553,-75.5 702,-75.5 702,-56.5 553,-56.5"/>
<text text-anchor="middle" x="627.5" y="-63.5" font-family="Helvetica,sans-Serif" font-size="10.00">inc/database_interface.hpp</text>
</a>
</g>
</g>
<!-- Node9&#45;&gt;Node10 -->
<g id="edge9" class="edge">
<title>Node9&#45;&gt;Node10</title>
<path fill="none" stroke="midnightblue" d="M627.5,-112.08C627.5,-105.01 627.5,-94.86 627.5,-85.99"/>
<polygon fill="midnightblue" stroke="midnightblue" points="631,-85.75 627.5,-75.75 624,-85.75 631,-85.75"/>
</g>
<!-- Node11 -->
<g id="node11" class="node">
<title>Node11</title>
<g id="a_node11"><a xlink:title=" ">
<polygon fill="white" stroke="#bfbfbf" points="623.5,-0.5 623.5,-19.5 733.5,-19.5 733.5,-0.5 623.5,-0.5"/>
<text text-anchor="middle" x="678.5" y="-7.5" font-family="Helvetica,sans-Serif" font-size="10.00">nlohmann/json.hpp</text>
</a>
</g>
</g>
<!-- Node9&#45;&gt;Node11 -->
<g id="edge14" class="edge">
<title>Node9&#45;&gt;Node11</title>
<path fill="none" stroke="midnightblue" d="M659.68,-112.49C678.04,-105.8 699.52,-94.45 710.5,-76 720.09,-59.89 707.66,-40.5 695.61,-27.12"/>
<polygon fill="midnightblue" stroke="midnightblue" points="697.83,-24.38 688.35,-19.64 692.8,-29.25 697.83,-24.38"/>
</g>
<!-- Node12 -->
<g id="node12" class="node">
<title>Node12</title>
<g id="a_node12"><a xlink:title=" ">
<polygon fill="white" stroke="#bfbfbf" points="758,-56.5 758,-75.5 871,-75.5 871,-56.5 758,-56.5"/>
<text text-anchor="middle" x="814.5" y="-63.5" font-family="Helvetica,sans-Serif" font-size="10.00">cpp_redis/cpp_redis</text>
</a>
</g>
</g>
<!-- Node9&#45;&gt;Node12 -->
<g id="edge12" class="edge">
<title>Node9&#45;&gt;Node12</title>
<path fill="none" stroke="midnightblue" d="M657.13,-112.44C689,-103.24 739.83,-88.56 775.06,-78.39"/>
<polygon fill="midnightblue" stroke="midnightblue" points="776.37,-81.65 785.01,-75.52 774.43,-74.93 776.37,-81.65"/>
</g>
<!-- Node10&#45;&gt;Node7 -->
<g id="edge10" class="edge">
<title>Node10&#45;&gt;Node7</title>
<path fill="none" stroke="midnightblue" d="M611.11,-56.32C594.83,-47.7 569.63,-34.36 550.78,-24.39"/>
<polygon fill="midnightblue" stroke="midnightblue" points="552.32,-21.24 541.85,-19.65 549.05,-27.43 552.32,-21.24"/>
</g>
<!-- Node10&#45;&gt;Node11 -->
<g id="edge11" class="edge">
<title>Node10&#45;&gt;Node11</title>
<path fill="none" stroke="midnightblue" d="M635.92,-56.08C643.35,-48.22 654.35,-36.57 663.31,-27.08"/>
<polygon fill="midnightblue" stroke="midnightblue" points="665.91,-29.42 670.24,-19.75 660.82,-24.62 665.91,-29.42"/>
</g>
</g>
</svg>
