<?xml version="1.0" encoding="UTF-8" standalone="no"?>
<!DOCTYPE svg PUBLIC "-//W3C//DTD SVG 1.1//EN"
 "http://www.w3.org/Graphics/SVG/1.1/DTD/svg11.dtd">
<!-- Generated by graphviz version 2.43.0 (0)
 -->
<!-- Title: utils/src/init_handler.cpp Pages: 1 -->
<svg width="703pt" height="196pt"
 viewBox="0.00 0.00 703.00 196.00" xmlns="http://www.w3.org/2000/svg" xmlns:xlink="http://www.w3.org/1999/xlink">
<g id="graph0" class="graph" transform="scale(1 1) rotate(0) translate(4 192)">
<title>utils/src/init_handler.cpp</title>
<polygon fill="white" stroke="transparent" points="-4,4 -4,-192 699,-192 699,4 -4,4"/>
<!-- Node1 -->
<g id="node1" class="node">
<title>Node1</title>
<g id="a_node1"><a xlink:title="Implements project&#45;wide initialization functions.">
<polygon fill="#bfbfbf" stroke="black" points="161.5,-168.5 161.5,-187.5 297.5,-187.5 297.5,-168.5 161.5,-168.5"/>
<text text-anchor="middle" x="229.5" y="-175.5" font-family="Helvetica,sans-Serif" font-size="10.00">utils/src/init_handler.cpp</text>
</a>
</g>
</g>
<!-- Node2 -->
<g id="node2" class="node">
<title>Node2</title>
<g id="a_node2"><a xlink:href="init__handler_8hpp.html" target="_top" xlink:title="Declares project&#45;wide initialization functions.">
<polygon fill="white" stroke="black" points="0,-112.5 0,-131.5 113,-131.5 113,-112.5 0,-112.5"/>
<text text-anchor="middle" x="56.5" y="-119.5" font-family="Helvetica,sans-Serif" font-size="10.00">inc/init_handler.hpp</text>
</a>
</g>
</g>
<!-- Node1&#45;&gt;Node2 -->
<g id="edge1" class="edge">
<title>Node1&#45;&gt;Node2</title>
<path fill="none" stroke="midnightblue" d="M202.09,-168.44C172.73,-159.28 125.98,-144.69 93.4,-134.52"/>
<polygon fill="midnightblue" stroke="midnightblue" points="94.37,-131.16 83.78,-131.52 92.29,-137.84 94.37,-131.16"/>
</g>
<!-- Node3 -->
<g id="node3" class="node">
<title>Node3</title>
<g id="a_node3"><a xlink:title=" ">
<polygon fill="white" stroke="#bfbfbf" points="131.5,-112.5 131.5,-131.5 217.5,-131.5 217.5,-112.5 131.5,-112.5"/>
<text text-anchor="middle" x="174.5" y="-119.5" font-family="Helvetica,sans-Serif" font-size="10.00">glog/logging.h</text>
</a>
</g>
</g>
<!-- Node1&#45;&gt;Node3 -->
<g id="edge2" class="edge">
<title>Node1&#45;&gt;Node3</title>
<path fill="none" stroke="midnightblue" d="M220.42,-168.08C212.33,-160.14 200.3,-148.34 190.59,-138.8"/>
<polygon fill="midnightblue" stroke="midnightblue" points="193,-136.26 183.41,-131.75 188.1,-141.25 193,-136.26"/>
</g>
<!-- Node4 -->
<g id="node4" class="node">
<title>Node4</title>
<g id="a_node4"><a xlink:href="common_8hpp.html" target="_top" xlink:title="Defines common constants, string views, and utility structures for the application.">
<polygon fill="white" stroke="black" points="235.5,-112.5 235.5,-131.5 333.5,-131.5 333.5,-112.5 235.5,-112.5"/>
<text text-anchor="middle" x="284.5" y="-119.5" font-family="Helvetica,sans-Serif" font-size="10.00">inc/common.hpp</text>
</a>
</g>
</g>
<!-- Node1&#45;&gt;Node4 -->
<g id="edge3" class="edge">
<title>Node1&#45;&gt;Node4</title>
<path fill="none" stroke="midnightblue" d="M238.58,-168.08C246.67,-160.14 258.7,-148.34 268.41,-138.8"/>
<polygon fill="midnightblue" stroke="midnightblue" points="270.9,-141.25 275.59,-131.75 266,-136.26 270.9,-141.25"/>
</g>
<!-- Node7 -->
<g id="node7" class="node">
<title>Node7</title>
<g id="a_node7"><a xlink:href="redis__database_8hpp.html" target="_top" xlink:title="Implements RedisDatabaseHandler for Redis&#45;based database operations.">
<polygon fill="white" stroke="black" points="387,-112.5 387,-131.5 516,-131.5 516,-112.5 387,-112.5"/>
<text text-anchor="middle" x="451.5" y="-119.5" font-family="Helvetica,sans-Serif" font-size="10.00">inc/redis_database.hpp</text>
</a>
</g>
</g>
<!-- Node1&#45;&gt;Node7 -->
<g id="edge6" class="edge">
<title>Node1&#45;&gt;Node7</title>
<path fill="none" stroke="midnightblue" d="M264.68,-168.44C303.08,-159.1 364.68,-144.12 406.56,-133.93"/>
<polygon fill="midnightblue" stroke="midnightblue" points="407.6,-137.28 416.49,-131.52 405.94,-130.48 407.6,-137.28"/>
</g>
<!-- Node5 -->
<g id="node5" class="node">
<title>Node5</title>
<g id="a_node5"><a xlink:title=" ">
<polygon fill="white" stroke="#bfbfbf" points="327.5,-0.5 327.5,-19.5 371.5,-19.5 371.5,-0.5 327.5,-0.5"/>
<text text-anchor="middle" x="349.5" y="-7.5" font-family="Helvetica,sans-Serif" font-size="10.00">string</text>
</a>
</g>
</g>
<!-- Node4&#45;&gt;Node5 -->
<g id="edge4" class="edge">
<title>Node4&#45;&gt;Node5</title>
<path fill="none" stroke="midnightblue" d="M270.77,-112.47C252.67,-100.13 224.67,-76.52 238.5,-56 255.96,-30.08 291.18,-19.08 317.28,-14.42"/>
<polygon fill="midnightblue" stroke="midnightblue" points="318.14,-17.83 327.49,-12.83 317.07,-10.92 318.14,-17.83"/>
</g>
<!-- Node6 -->
<g id="node6" class="node">
<title>Node6</title>
<g id="a_node6"><a xlink:title=" ">
<polygon fill="white" stroke="#bfbfbf" points="248,-56.5 248,-75.5 321,-75.5 321,-56.5 248,-56.5"/>
<text text-anchor="middle" x="284.5" y="-63.5" font-family="Helvetica,sans-Serif" font-size="10.00">string_view</text>
</a>
</g>
</g>
<!-- Node4&#45;&gt;Node6 -->
<g id="edge5" class="edge">
<title>Node4&#45;&gt;Node6</title>
<path fill="none" stroke="midnightblue" d="M284.5,-112.08C284.5,-105.01 284.5,-94.86 284.5,-85.99"/>
<polygon fill="midnightblue" stroke="midnightblue" points="288,-85.75 284.5,-75.75 281,-85.75 288,-85.75"/>
</g>
<!-- Node7&#45;&gt;Node5 -->
<g id="edge11" class="edge">
<title>Node7&#45;&gt;Node5</title>
<path fill="none" stroke="midnightblue" d="M423.5,-112.5C405.05,-105.51 381.76,-93.83 367.5,-76 356.88,-62.72 352.52,-43.6 350.73,-29.53"/>
<polygon fill="midnightblue" stroke="midnightblue" points="354.21,-29.16 349.78,-19.54 347.24,-29.83 354.21,-29.16"/>
</g>
<!-- Node8 -->
<g id="node8" class="node">
<title>Node8</title>
<g id="a_node8"><a xlink:href="database__interface_8hpp.html" target="_top" xlink:title="Abstract interface for database operations.">
<polygon fill="white" stroke="black" points="377,-56.5 377,-75.5 526,-75.5 526,-56.5 377,-56.5"/>
<text text-anchor="middle" x="451.5" y="-63.5" font-family="Helvetica,sans-Serif" font-size="10.00">inc/database_interface.hpp</text>
</a>
</g>
</g>
<!-- Node7&#45;&gt;Node8 -->
<g id="edge7" class="edge">
<title>Node7&#45;&gt;Node8</title>
<path fill="none" stroke="midnightblue" d="M451.5,-112.08C451.5,-105.01 451.5,-94.86 451.5,-85.99"/>
<polygon fill="midnightblue" stroke="midnightblue" points="455,-85.75 451.5,-75.75 448,-85.75 455,-85.75"/>
</g>
<!-- Node9 -->
<g id="node9" class="node">
<title>Node9</title>
<g id="a_node9"><a xlink:title=" ">
<polygon fill="white" stroke="#bfbfbf" points="447.5,-0.5 447.5,-19.5 557.5,-19.5 557.5,-0.5 447.5,-0.5"/>
<text text-anchor="middle" x="502.5" y="-7.5" font-family="Helvetica,sans-Serif" font-size="10.00">nlohmann/json.hpp</text>
</a>
</g>
</g>
<!-- Node7&#45;&gt;Node9 -->
<g id="edge12" class="edge">
<title>Node7&#45;&gt;Node9</title>
<path fill="none" stroke="midnightblue" d="M483.68,-112.49C502.04,-105.8 523.52,-94.45 534.5,-76 544.09,-59.89 531.66,-40.5 519.61,-27.12"/>
<polygon fill="midnightblue" stroke="midnightblue" points="521.83,-24.38 512.35,-19.64 516.8,-29.25 521.83,-24.38"/>
</g>
<!-- Node10 -->
<g id="node10" class="node">
<title>Node10</title>
<g id="a_node10"><a xlink:title=" ">
<polygon fill="white" stroke="#bfbfbf" points="582,-56.5 582,-75.5 695,-75.5 695,-56.5 582,-56.5"/>
<text text-anchor="middle" x="638.5" y="-63.5" font-family="Helvetica,sans-Serif" font-size="10.00">cpp_redis/cpp_redis</text>
</a>
</g>
</g>
<!-- Node7&#45;&gt;Node10 -->
<g id="edge10" class="edge">
<title>Node7&#45;&gt;Node10</title>
<path fill="none" stroke="midnightblue" d="M481.13,-112.44C513,-103.24 563.83,-88.56 599.06,-78.39"/>
<polygon fill="midnightblue" stroke="midnightblue" points="600.37,-81.65 609.01,-75.52 598.43,-74.93 600.37,-81.65"/>
</g>
<!-- Node8&#45;&gt;Node5 -->
<g id="edge8" class="edge">
<title>Node8&#45;&gt;Node5</title>
<path fill="none" stroke="midnightblue" d="M435.11,-56.32C418.83,-47.7 393.63,-34.36 374.78,-24.39"/>
<polygon fill="midnightblue" stroke="midnightblue" points="376.32,-21.24 365.85,-19.65 373.05,-27.43 376.32,-21.24"/>
</g>
<!-- Node8&#45;&gt;Node9 -->
<g id="edge9" class="edge">
<title>Node8&#45;&gt;Node9</title>
<path fill="none" stroke="midnightblue" d="M459.92,-56.08C467.35,-48.22 478.35,-36.57 487.31,-27.08"/>
<polygon fill="midnightblue" stroke="midnightblue" points="489.91,-29.42 494.24,-19.75 484.82,-24.62 489.91,-29.42"/>
</g>
</g>
</svg>
