<?xml version="1.0" encoding="UTF-8" standalone="no"?>
<!DOCTYPE svg PUBLIC "-//W3C//DTD SVG 1.1//EN"
 "http://www.w3.org/Graphics/SVG/1.1/DTD/svg11.dtd">
<!-- Generated by graphviz version 2.43.0 (0)
 -->
<!-- Title: executor/src/json_request_executor.cpp Pages: 1 -->
<svg width="1004pt" height="263pt"
 viewBox="0.00 0.00 1004.44 263.00" xmlns="http://www.w3.org/2000/svg" xmlns:xlink="http://www.w3.org/1999/xlink">
<g id="graph0" class="graph" transform="scale(1 1) rotate(0) translate(4 259)">
<title>executor/src/json_request_executor.cpp</title>
<polygon fill="white" stroke="transparent" points="-4,4 -4,-259 1000.44,-259 1000.44,4 -4,4"/>
<!-- Node1 -->
<g id="node1" class="node">
<title>Node1</title>
<g id="a_node1"><a xlink:title="JSON request executor for Container Manager.">
<polygon fill="#bfbfbf" stroke="black" points="442.94,-224.5 442.94,-254.5 584.94,-254.5 584.94,-224.5 442.94,-224.5"/>
<text text-anchor="start" x="450.94" y="-242.5" font-family="Helvetica,sans-Serif" font-size="10.00">executor/src/json_request</text>
<text text-anchor="middle" x="513.94" y="-231.5" font-family="Helvetica,sans-Serif" font-size="10.00">_executor.cpp</text>
</a>
</g>
</g>
<!-- Node2 -->
<g id="node2" class="node">
<title>Node2</title>
<g id="a_node2"><a xlink:href="json__request__executor_8hpp.html" target="_top" xlink:title="Declares the JsonRequestExecutorHandler class for executing JSON&#45;based requests.">
<polygon fill="white" stroke="black" points="222.44,-168.5 222.44,-187.5 387.44,-187.5 387.44,-168.5 222.44,-168.5"/>
<text text-anchor="middle" x="304.94" y="-175.5" font-family="Helvetica,sans-Serif" font-size="10.00">inc/json_request_executor.hpp</text>
</a>
</g>
</g>
<!-- Node1&#45;&gt;Node2 -->
<g id="edge1" class="edge">
<title>Node1&#45;&gt;Node2</title>
<path fill="none" stroke="midnightblue" d="M464.68,-224.47C427.99,-214.03 378.56,-199.96 344.45,-190.25"/>
<polygon fill="midnightblue" stroke="midnightblue" points="345.4,-186.88 334.82,-187.51 343.48,-193.61 345.4,-186.88"/>
</g>
<!-- Node5 -->
<g id="node5" class="node">
<title>Node5</title>
<g id="a_node5"><a xlink:title=" ">
<polygon fill="white" stroke="#bfbfbf" points="39.94,-0.5 39.94,-19.5 149.94,-19.5 149.94,-0.5 39.94,-0.5"/>
<text text-anchor="middle" x="94.94" y="-7.5" font-family="Helvetica,sans-Serif" font-size="10.00">nlohmann/json.hpp</text>
</a>
</g>
</g>
<!-- Node1&#45;&gt;Node5 -->
<g id="edge16" class="edge">
<title>Node1&#45;&gt;Node5</title>
<path fill="none" stroke="midnightblue" d="M442.72,-233.29C350.74,-225.78 196.27,-210.34 143.94,-188 70.34,-156.58 37.74,-148.07 2.94,-76 -9.32,-50.6 21.43,-33.19 50.62,-22.83"/>
<polygon fill="midnightblue" stroke="midnightblue" points="52,-26.06 60.39,-19.59 49.8,-19.42 52,-26.06"/>
</g>
<!-- Node7 -->
<g id="node7" class="node">
<title>Node7</title>
<g id="a_node7"><a xlink:href="database__interface_8hpp.html" target="_top" xlink:title="Abstract interface for database operations.">
<polygon fill="white" stroke="black" points="20.44,-56.5 20.44,-75.5 169.44,-75.5 169.44,-56.5 20.44,-56.5"/>
<text text-anchor="middle" x="94.94" y="-63.5" font-family="Helvetica,sans-Serif" font-size="10.00">inc/database_interface.hpp</text>
</a>
</g>
</g>
<!-- Node1&#45;&gt;Node7 -->
<g id="edge17" class="edge">
<title>Node1&#45;&gt;Node7</title>
<path fill="none" stroke="midnightblue" d="M442.79,-232.87C380.83,-226.49 289.21,-213.47 212.94,-188 161.66,-170.87 136.47,-175.93 104.94,-132 95.48,-118.81 93.44,-100.22 93.5,-86.3"/>
<polygon fill="midnightblue" stroke="midnightblue" points="97.02,-86.06 93.93,-75.92 90.02,-85.77 97.02,-86.06"/>
</g>
<!-- Node8 -->
<g id="node8" class="node">
<title>Node8</title>
<g id="a_node8"><a xlink:href="container__service_8hpp.html" target="_top" xlink:title="Declares the ContainerServiceHandler class for business logic related to containers.">
<polygon fill="white" stroke="black" points="290.44,-112.5 290.44,-131.5 431.44,-131.5 431.44,-112.5 290.44,-112.5"/>
<text text-anchor="middle" x="360.94" y="-119.5" font-family="Helvetica,sans-Serif" font-size="10.00">inc/container_service.hpp</text>
</a>
</g>
</g>
<!-- Node1&#45;&gt;Node8 -->
<g id="edge18" class="edge">
<title>Node1&#45;&gt;Node8</title>
<path fill="none" stroke="midnightblue" d="M495.18,-224.34C466.11,-202.39 410.45,-160.37 380.75,-137.95"/>
<polygon fill="midnightblue" stroke="midnightblue" points="382.52,-134.9 372.43,-131.67 378.3,-140.49 382.52,-134.9"/>
</g>
<!-- Node9 -->
<g id="node9" class="node">
<title>Node9</title>
<g id="a_node9"><a xlink:href="status_8hpp.html" target="_top" xlink:title="Defines status codes and a Status struct for standardized error handling.">
<polygon fill="white" stroke="black" points="594.44,-56.5 594.44,-75.5 679.44,-75.5 679.44,-56.5 594.44,-56.5"/>
<text text-anchor="middle" x="636.94" y="-63.5" font-family="Helvetica,sans-Serif" font-size="10.00">inc/status.hpp</text>
</a>
</g>
</g>
<!-- Node1&#45;&gt;Node9 -->
<g id="edge31" class="edge">
<title>Node1&#45;&gt;Node9</title>
<path fill="none" stroke="midnightblue" d="M524.01,-224.47C546.46,-193.17 600.54,-117.76 624.8,-83.93"/>
<polygon fill="midnightblue" stroke="midnightblue" points="627.82,-85.73 630.81,-75.56 622.13,-81.65 627.82,-85.73"/>
</g>
<!-- Node10 -->
<g id="node10" class="node">
<title>Node10</title>
<g id="a_node10"><a xlink:href="redis__database_8hpp.html" target="_top" xlink:title="Declares the RedisDatabaseHandler class for Redis&#45;based database operations.">
<polygon fill="white" stroke="black" points="449.44,-112.5 449.44,-131.5 578.44,-131.5 578.44,-112.5 449.44,-112.5"/>
<text text-anchor="middle" x="513.94" y="-119.5" font-family="Helvetica,sans-Serif" font-size="10.00">inc/redis_database.hpp</text>
</a>
</g>
</g>
<!-- Node1&#45;&gt;Node10 -->
<g id="edge19" class="edge">
<title>Node1&#45;&gt;Node10</title>
<path fill="none" stroke="midnightblue" d="M513.94,-224.34C513.94,-203.62 513.94,-165.02 513.94,-141.9"/>
<polygon fill="midnightblue" stroke="midnightblue" points="517.44,-141.67 513.94,-131.67 510.44,-141.67 517.44,-141.67"/>
</g>
<!-- Node12 -->
<g id="node12" class="node">
<title>Node12</title>
<g id="a_node12"><a xlink:href="aes__gcm__decrypt_8hpp.html" target="_top" xlink:title=" ">
<polygon fill="white" stroke="black" points="634.94,-168.5 634.94,-187.5 774.94,-187.5 774.94,-168.5 634.94,-168.5"/>
<text text-anchor="middle" x="704.94" y="-175.5" font-family="Helvetica,sans-Serif" font-size="10.00">inc/aes_gcm_decrypt.hpp</text>
</a>
</g>
</g>
<!-- Node1&#45;&gt;Node12 -->
<g id="edge24" class="edge">
<title>Node1&#45;&gt;Node12</title>
<path fill="none" stroke="midnightblue" d="M559.21,-224.4C592.36,-214.07 636.79,-200.23 667.85,-190.56"/>
<polygon fill="midnightblue" stroke="midnightblue" points="668.92,-193.89 677.43,-187.57 666.84,-187.2 668.92,-193.89"/>
</g>
<!-- Node14 -->
<g id="node14" class="node">
<title>Node14</title>
<g id="a_node14"><a xlink:href="common_8hpp.html" target="_top" xlink:title="Defines common constants, string views, and utility structures for the application.">
<polygon fill="white" stroke="black" points="792.94,-168.5 792.94,-187.5 890.94,-187.5 890.94,-168.5 792.94,-168.5"/>
<text text-anchor="middle" x="841.94" y="-175.5" font-family="Helvetica,sans-Serif" font-size="10.00">inc/common.hpp</text>
</a>
</g>
</g>
<!-- Node1&#45;&gt;Node14 -->
<g id="edge27" class="edge">
<title>Node1&#45;&gt;Node14</title>
<path fill="none" stroke="midnightblue" d="M585.12,-225.59C644.89,-214.75 729.2,-199.45 784.68,-189.39"/>
<polygon fill="midnightblue" stroke="midnightblue" points="785.48,-192.8 794.7,-187.57 784.23,-185.91 785.48,-192.8"/>
</g>
<!-- Node17 -->
<g id="node17" class="node">
<title>Node17</title>
<g id="a_node17"><a xlink:title=" ">
<polygon fill="white" stroke="#bfbfbf" points="908.94,-168.5 908.94,-187.5 968.94,-187.5 968.94,-168.5 908.94,-168.5"/>
<text text-anchor="middle" x="938.94" y="-175.5" font-family="Helvetica,sans-Serif" font-size="10.00">iostream</text>
</a>
</g>
</g>
<!-- Node1&#45;&gt;Node17 -->
<g id="edge32" class="edge">
<title>Node1&#45;&gt;Node17</title>
<path fill="none" stroke="midnightblue" d="M585.05,-231.28C660.54,-223.15 783.49,-208.56 898.72,-188.07"/>
<polygon fill="midnightblue" stroke="midnightblue" points="899.55,-191.48 908.77,-186.27 898.31,-184.59 899.55,-191.48"/>
</g>
<!-- Node3 -->
<g id="node3" class="node">
<title>Node3</title>
<g id="a_node3"><a xlink:href="request__executor_8hpp.html" target="_top" xlink:title="Declares the abstract RequestExecutor interface for executing requests.">
<polygon fill="white" stroke="black" points="131.94,-112.5 131.94,-131.5 271.94,-131.5 271.94,-112.5 131.94,-112.5"/>
<text text-anchor="middle" x="201.94" y="-119.5" font-family="Helvetica,sans-Serif" font-size="10.00">inc/request_executor.hpp</text>
</a>
</g>
</g>
<!-- Node2&#45;&gt;Node3 -->
<g id="edge2" class="edge">
<title>Node2&#45;&gt;Node3</title>
<path fill="none" stroke="midnightblue" d="M288.4,-168.32C271.95,-159.7 246.51,-146.36 227.48,-136.39"/>
<polygon fill="midnightblue" stroke="midnightblue" points="228.93,-133.2 218.45,-131.65 225.68,-139.4 228.93,-133.2"/>
</g>
<!-- Node2&#45;&gt;Node7 -->
<g id="edge7" class="edge">
<title>Node2&#45;&gt;Node7</title>
<path fill="none" stroke="midnightblue" d="M221.98,-172.45C188.04,-166.82 150.38,-155.26 122.94,-132 109.05,-120.22 101.86,-100.29 98.27,-85.6"/>
<polygon fill="midnightblue" stroke="midnightblue" points="101.65,-84.67 96.17,-75.61 94.8,-86.11 101.65,-84.67"/>
</g>
<!-- Node2&#45;&gt;Node8 -->
<g id="edge10" class="edge">
<title>Node2&#45;&gt;Node8</title>
<path fill="none" stroke="midnightblue" d="M313.94,-168.32C322.14,-160.42 334.45,-148.55 344.42,-138.94"/>
<polygon fill="midnightblue" stroke="midnightblue" points="347.01,-141.29 351.78,-131.83 342.16,-136.26 347.01,-141.29"/>
</g>
<!-- Node4 -->
<g id="node4" class="node">
<title>Node4</title>
<g id="a_node4"><a xlink:title=" ">
<polygon fill="white" stroke="#bfbfbf" points="614.94,-0.5 614.94,-19.5 658.94,-19.5 658.94,-0.5 614.94,-0.5"/>
<text text-anchor="middle" x="636.94" y="-7.5" font-family="Helvetica,sans-Serif" font-size="10.00">string</text>
</a>
</g>
</g>
<!-- Node3&#45;&gt;Node4 -->
<g id="edge3" class="edge">
<title>Node3&#45;&gt;Node4</title>
<path fill="none" stroke="midnightblue" d="M200.93,-112.3C199.82,-98.17 199.98,-70.36 215.94,-56 244.72,-30.11 511.15,-16.36 604.68,-12.3"/>
<polygon fill="midnightblue" stroke="midnightblue" points="604.85,-15.8 614.7,-11.87 604.56,-8.8 604.85,-15.8"/>
</g>
<!-- Node3&#45;&gt;Node5 -->
<g id="edge4" class="edge">
<title>Node3&#45;&gt;Node5</title>
<path fill="none" stroke="midnightblue" d="M131.74,-113.56C83.69,-106.86 26.04,-95.06 10.94,-76 -6.72,-53.69 27.43,-34.66 57.35,-23.06"/>
<polygon fill="midnightblue" stroke="midnightblue" points="58.67,-26.31 66.84,-19.56 56.25,-19.74 58.67,-26.31"/>
</g>
<!-- Node6 -->
<g id="node6" class="node">
<title>Node6</title>
<g id="a_node6"><a xlink:href="container__request_8hpp.html" target="_top" xlink:title="Data structure for representing a container operation request.">
<polygon fill="white" stroke="black" points="225.44,-56.5 225.44,-75.5 368.44,-75.5 368.44,-56.5 225.44,-56.5"/>
<text text-anchor="middle" x="296.94" y="-63.5" font-family="Helvetica,sans-Serif" font-size="10.00">inc/container_request.hpp</text>
</a>
</g>
</g>
<!-- Node3&#45;&gt;Node6 -->
<g id="edge5" class="edge">
<title>Node3&#45;&gt;Node6</title>
<path fill="none" stroke="midnightblue" d="M217.21,-112.32C232.17,-103.82 255.2,-90.73 272.67,-80.8"/>
<polygon fill="midnightblue" stroke="midnightblue" points="274.75,-83.64 281.72,-75.65 271.3,-77.55 274.75,-83.64"/>
</g>
<!-- Node6&#45;&gt;Node4 -->
<g id="edge6" class="edge">
<title>Node6&#45;&gt;Node4</title>
<path fill="none" stroke="midnightblue" d="M350.82,-56.44C422.21,-45.1 545.94,-25.45 604.47,-16.16"/>
<polygon fill="midnightblue" stroke="midnightblue" points="605.29,-19.57 614.61,-14.55 604.19,-12.66 605.29,-19.57"/>
</g>
<!-- Node7&#45;&gt;Node4 -->
<g id="edge8" class="edge">
<title>Node7&#45;&gt;Node4</title>
<path fill="none" stroke="midnightblue" d="M169.84,-57.32C174.27,-56.88 178.67,-56.43 182.94,-56 341.06,-40.08 530.19,-21.47 604.61,-14.17"/>
<polygon fill="midnightblue" stroke="midnightblue" points="605.13,-17.64 614.74,-13.18 604.44,-10.67 605.13,-17.64"/>
</g>
<!-- Node7&#45;&gt;Node5 -->
<g id="edge9" class="edge">
<title>Node7&#45;&gt;Node5</title>
<path fill="none" stroke="midnightblue" d="M94.94,-56.08C94.94,-49.01 94.94,-38.86 94.94,-29.99"/>
<polygon fill="midnightblue" stroke="midnightblue" points="98.44,-29.75 94.94,-19.75 91.44,-29.75 98.44,-29.75"/>
</g>
<!-- Node8&#45;&gt;Node5 -->
<g id="edge11" class="edge">
<title>Node8&#45;&gt;Node5</title>
<path fill="none" stroke="midnightblue" d="M367.32,-112.33C376.49,-98.73 390.82,-72.27 376.94,-56 349.67,-24.03 234.86,-14.67 160.4,-11.99"/>
<polygon fill="midnightblue" stroke="midnightblue" points="160.28,-8.49 150.18,-11.66 160.06,-15.48 160.28,-8.49"/>
</g>
<!-- Node8&#45;&gt;Node6 -->
<g id="edge15" class="edge">
<title>Node8&#45;&gt;Node6</title>
<path fill="none" stroke="midnightblue" d="M350.66,-112.32C341.11,-104.26 326.66,-92.08 315.16,-82.37"/>
<polygon fill="midnightblue" stroke="midnightblue" points="317.31,-79.61 307.41,-75.83 312.8,-84.96 317.31,-79.61"/>
</g>
<!-- Node8&#45;&gt;Node7 -->
<g id="edge14" class="edge">
<title>Node8&#45;&gt;Node7</title>
<path fill="none" stroke="midnightblue" d="M318.8,-112.44C272.2,-102.98 197.1,-87.74 146.9,-77.55"/>
<polygon fill="midnightblue" stroke="midnightblue" points="147.39,-74.08 136.9,-75.52 146,-80.94 147.39,-74.08"/>
</g>
<!-- Node8&#45;&gt;Node9 -->
<g id="edge12" class="edge">
<title>Node8&#45;&gt;Node9</title>
<path fill="none" stroke="midnightblue" d="M404.68,-112.44C453.41,-102.91 532.19,-87.49 584.28,-77.3"/>
<polygon fill="midnightblue" stroke="midnightblue" points="585.18,-80.69 594.32,-75.34 583.84,-73.82 585.18,-80.69"/>
</g>
<!-- Node9&#45;&gt;Node4 -->
<g id="edge13" class="edge">
<title>Node9&#45;&gt;Node4</title>
<path fill="none" stroke="midnightblue" d="M636.94,-56.08C636.94,-49.01 636.94,-38.86 636.94,-29.99"/>
<polygon fill="midnightblue" stroke="midnightblue" points="640.44,-29.75 636.94,-19.75 633.44,-29.75 640.44,-29.75"/>
</g>
<!-- Node10&#45;&gt;Node4 -->
<g id="edge22" class="edge">
<title>Node10&#45;&gt;Node4</title>
<path fill="none" stroke="midnightblue" d="M578.66,-112.6C622.33,-105.45 674.38,-93.52 687.94,-76 701.58,-58.4 679.93,-38.24 660.77,-25.1"/>
<polygon fill="midnightblue" stroke="midnightblue" points="662.57,-22.1 652.28,-19.59 658.76,-27.97 662.57,-22.1"/>
</g>
<!-- Node10&#45;&gt;Node5 -->
<g id="edge23" class="edge">
<title>Node10&#45;&gt;Node5</title>
<path fill="none" stroke="midnightblue" d="M501.65,-112.44C480.62,-98.26 435.96,-70.06 393.94,-56 316.02,-29.93 221.6,-18.91 159.99,-14.29"/>
<polygon fill="midnightblue" stroke="midnightblue" points="160.24,-10.8 150.01,-13.58 159.74,-17.78 160.24,-10.8"/>
</g>
<!-- Node10&#45;&gt;Node7 -->
<g id="edge20" class="edge">
<title>Node10&#45;&gt;Node7</title>
<path fill="none" stroke="midnightblue" d="M449.39,-112.68C374.33,-103.01 250.56,-87.06 170.92,-76.79"/>
<polygon fill="midnightblue" stroke="midnightblue" points="171.32,-73.31 160.95,-75.51 170.42,-80.26 171.32,-73.31"/>
</g>
<!-- Node11 -->
<g id="node11" class="node">
<title>Node11</title>
<g id="a_node11"><a xlink:title=" ">
<polygon fill="white" stroke="#bfbfbf" points="463.44,-56.5 463.44,-75.5 576.44,-75.5 576.44,-56.5 463.44,-56.5"/>
<text text-anchor="middle" x="519.94" y="-63.5" font-family="Helvetica,sans-Serif" font-size="10.00">cpp_redis/cpp_redis</text>
</a>
</g>
</g>
<!-- Node10&#45;&gt;Node11 -->
<g id="edge21" class="edge">
<title>Node10&#45;&gt;Node11</title>
<path fill="none" stroke="midnightblue" d="M514.94,-112.08C515.73,-104.93 516.87,-94.64 517.87,-85.69"/>
<polygon fill="midnightblue" stroke="midnightblue" points="521.35,-86.08 518.97,-75.75 514.39,-85.3 521.35,-86.08"/>
</g>
<!-- Node12&#45;&gt;Node4 -->
<g id="edge26" class="edge">
<title>Node12&#45;&gt;Node4</title>
<path fill="none" stroke="midnightblue" d="M710.33,-168.44C715.5,-159.68 722.96,-145.47 725.94,-132 733.53,-97.79 726.77,-83.41 704.94,-56 694.34,-42.68 678.69,-31.95 665.08,-24.31"/>
<polygon fill="midnightblue" stroke="midnightblue" points="666.55,-21.12 656.07,-19.52 663.26,-27.3 666.55,-21.12"/>
</g>
<!-- Node13 -->
<g id="node13" class="node">
<title>Node13</title>
<g id="a_node13"><a xlink:title=" ">
<polygon fill="white" stroke="#bfbfbf" points="670.44,-112.5 670.44,-131.5 717.44,-131.5 717.44,-112.5 670.44,-112.5"/>
<text text-anchor="middle" x="693.94" y="-119.5" font-family="Helvetica,sans-Serif" font-size="10.00">vector</text>
</a>
</g>
</g>
<!-- Node12&#45;&gt;Node13 -->
<g id="edge25" class="edge">
<title>Node12&#45;&gt;Node13</title>
<path fill="none" stroke="midnightblue" d="M703.13,-168.08C701.67,-160.93 699.57,-150.64 697.75,-141.69"/>
<polygon fill="midnightblue" stroke="midnightblue" points="701.15,-140.85 695.73,-131.75 694.29,-142.25 701.15,-140.85"/>
</g>
<!-- Node14&#45;&gt;Node4 -->
<g id="edge28" class="edge">
<title>Node14&#45;&gt;Node4</title>
<path fill="none" stroke="midnightblue" d="M834.43,-168.44C812.83,-143.96 750.5,-74.18 725.94,-56 708.22,-42.87 686.09,-31.67 668.33,-23.72"/>
<polygon fill="midnightblue" stroke="midnightblue" points="669.54,-20.43 658.98,-19.65 666.75,-26.85 669.54,-20.43"/>
</g>
<!-- Node15 -->
<g id="node15" class="node">
<title>Node15</title>
<g id="a_node15"><a xlink:title=" ">
<polygon fill="white" stroke="#bfbfbf" points="812.44,-112.5 812.44,-131.5 885.44,-131.5 885.44,-112.5 812.44,-112.5"/>
<text text-anchor="middle" x="848.94" y="-119.5" font-family="Helvetica,sans-Serif" font-size="10.00">string_view</text>
</a>
</g>
</g>
<!-- Node14&#45;&gt;Node15 -->
<g id="edge29" class="edge">
<title>Node14&#45;&gt;Node15</title>
<path fill="none" stroke="midnightblue" d="M843.1,-168.08C844.03,-160.93 845.36,-150.64 846.52,-141.69"/>
<polygon fill="midnightblue" stroke="midnightblue" points="850,-142.12 847.81,-131.75 843.05,-141.22 850,-142.12"/>
</g>
<!-- Node16 -->
<g id="node16" class="node">
<title>Node16</title>
<g id="a_node16"><a xlink:title=" ">
<polygon fill="white" stroke="#bfbfbf" points="903.44,-112.5 903.44,-131.5 996.44,-131.5 996.44,-112.5 903.44,-112.5"/>
<text text-anchor="middle" x="949.94" y="-119.5" font-family="Helvetica,sans-Serif" font-size="10.00">unordered_map</text>
</a>
</g>
</g>
<!-- Node14&#45;&gt;Node16 -->
<g id="edge30" class="edge">
<title>Node14&#45;&gt;Node16</title>
<path fill="none" stroke="midnightblue" d="M859.3,-168.32C876.62,-159.66 903.46,-146.24 923.45,-136.25"/>
<polygon fill="midnightblue" stroke="midnightblue" points="925.26,-139.26 932.64,-131.65 922.13,-133 925.26,-139.26"/>
</g>
</g>
</svg>
