<?xml version="1.0" encoding="UTF-8" standalone="no"?>
<!DOCTYPE svg PUBLIC "-//W3C//DTD SVG 1.1//EN"
 "http://www.w3.org/Graphics/SVG/1.1/DTD/svg11.dtd">
<!-- Generated by graphviz version 2.43.0 (0)
 -->
<!-- Title: executor/src/json_request_executor.cpp Pages: 1 -->
<svg width="1013pt" height="263pt"
 viewBox="0.00 0.00 1013.04 263.00" xmlns="http://www.w3.org/2000/svg" xmlns:xlink="http://www.w3.org/1999/xlink">
<g id="graph0" class="graph" transform="scale(1 1) rotate(0) translate(4 259)">
<title>executor/src/json_request_executor.cpp</title>
<polygon fill="white" stroke="transparent" points="-4,4 -4,-259 1009.04,-259 1009.04,4 -4,4"/>
<!-- Node1 -->
<g id="node1" class="node">
<title>Node1</title>
<g id="a_node1"><a xlink:title="Implementation of the JSON request executor for Container Manager.">
<polygon fill="#bfbfbf" stroke="black" points="479.04,-224.5 479.04,-254.5 621.04,-254.5 621.04,-224.5 479.04,-224.5"/>
<text text-anchor="start" x="487.04" y="-242.5" font-family="Helvetica,sans-Serif" font-size="10.00">executor/src/json_request</text>
<text text-anchor="middle" x="550.04" y="-231.5" font-family="Helvetica,sans-Serif" font-size="10.00">_executor.cpp</text>
</a>
</g>
</g>
<!-- Node2 -->
<g id="node2" class="node">
<title>Node2</title>
<g id="a_node2"><a xlink:href="json__request__executor_8hpp.html" target="_top" xlink:title="Declares the JsonRequestExecutorHandler class for executing JSON&#45;based requests.">
<polygon fill="white" stroke="black" points="301.54,-168.5 301.54,-187.5 466.54,-187.5 466.54,-168.5 301.54,-168.5"/>
<text text-anchor="middle" x="384.04" y="-175.5" font-family="Helvetica,sans-Serif" font-size="10.00">inc/json_request_executor.hpp</text>
</a>
</g>
</g>
<!-- Node1&#45;&gt;Node2 -->
<g id="edge1" class="edge">
<title>Node1&#45;&gt;Node2</title>
<path fill="none" stroke="midnightblue" d="M510.7,-224.4C482.48,-214.28 444.84,-200.79 417.94,-191.15"/>
<polygon fill="midnightblue" stroke="midnightblue" points="418.79,-187.74 408.2,-187.66 416.43,-194.33 418.79,-187.74"/>
</g>
<!-- Node5 -->
<g id="node5" class="node">
<title>Node5</title>
<g id="a_node5"><a xlink:title=" ">
<polygon fill="white" stroke="#bfbfbf" points="246.04,-0.5 246.04,-19.5 356.04,-19.5 356.04,-0.5 246.04,-0.5"/>
<text text-anchor="middle" x="301.04" y="-7.5" font-family="Helvetica,sans-Serif" font-size="10.00">nlohmann/json.hpp</text>
</a>
</g>
</g>
<!-- Node1&#45;&gt;Node5 -->
<g id="edge16" class="edge">
<title>Node1&#45;&gt;Node5</title>
<path fill="none" stroke="midnightblue" d="M478.93,-234.69C348.36,-226.1 78.31,-200.31 19.04,-132 -3.12,-106.45 -6.94,-81.71 15.04,-56 42.85,-23.48 160.15,-14.31 235.62,-11.82"/>
<polygon fill="midnightblue" stroke="midnightblue" points="236.09,-15.31 245.98,-11.51 235.88,-8.31 236.09,-15.31"/>
</g>
<!-- Node7 -->
<g id="node7" class="node">
<title>Node7</title>
<g id="a_node7"><a xlink:href="database__interface_8hpp.html" target="_top" xlink:title="Abstract interface for database operations.">
<polygon fill="white" stroke="black" points="226.54,-56.5 226.54,-75.5 375.54,-75.5 375.54,-56.5 226.54,-56.5"/>
<text text-anchor="middle" x="301.04" y="-63.5" font-family="Helvetica,sans-Serif" font-size="10.00">inc/database_interface.hpp</text>
</a>
</g>
</g>
<!-- Node1&#45;&gt;Node7 -->
<g id="edge17" class="edge">
<title>Node1&#45;&gt;Node7</title>
<path fill="none" stroke="midnightblue" d="M478.84,-234.47C410.82,-228.95 315.32,-216.28 292.04,-188 267.92,-158.7 282.21,-110.7 292.79,-84.85"/>
<polygon fill="midnightblue" stroke="midnightblue" points="296.07,-86.09 296.85,-75.52 289.65,-83.3 296.07,-86.09"/>
</g>
<!-- Node8 -->
<g id="node8" class="node">
<title>Node8</title>
<g id="a_node8"><a xlink:href="container__service_8hpp.html" target="_top" xlink:title="Declares the ContainerServiceHandler class for business logic related to containers.">
<polygon fill="white" stroke="black" points="326.54,-112.5 326.54,-131.5 467.54,-131.5 467.54,-112.5 326.54,-112.5"/>
<text text-anchor="middle" x="397.04" y="-119.5" font-family="Helvetica,sans-Serif" font-size="10.00">inc/container_service.hpp</text>
</a>
</g>
</g>
<!-- Node1&#45;&gt;Node8 -->
<g id="edge18" class="edge">
<title>Node1&#45;&gt;Node8</title>
<path fill="none" stroke="midnightblue" d="M536.8,-224.22C522.44,-209.2 498.43,-185.37 475.04,-168 458.83,-155.96 439.12,-144.61 423.56,-136.32"/>
<polygon fill="midnightblue" stroke="midnightblue" points="424.97,-133.11 414.49,-131.58 421.73,-139.31 424.97,-133.11"/>
</g>
<!-- Node9 -->
<g id="node9" class="node">
<title>Node9</title>
<g id="a_node9"><a xlink:href="status_8hpp.html" target="_top" xlink:title="Defines status codes and a Status struct for standardized error handling.">
<polygon fill="white" stroke="black" points="600.54,-56.5 600.54,-75.5 685.54,-75.5 685.54,-56.5 600.54,-56.5"/>
<text text-anchor="middle" x="643.04" y="-63.5" font-family="Helvetica,sans-Serif" font-size="10.00">inc/status.hpp</text>
</a>
</g>
</g>
<!-- Node1&#45;&gt;Node9 -->
<g id="edge28" class="edge">
<title>Node1&#45;&gt;Node9</title>
<path fill="none" stroke="midnightblue" d="M561.95,-224.21C577.82,-204.54 605.89,-167.53 623.04,-132 630.26,-117.05 635.58,-98.91 638.92,-85.6"/>
<polygon fill="midnightblue" stroke="midnightblue" points="642.35,-86.26 641.24,-75.72 635.54,-84.65 642.35,-86.26"/>
</g>
<!-- Node10 -->
<g id="node10" class="node">
<title>Node10</title>
<g id="a_node10"><a xlink:href="redis__database_8hpp.html" target="_top" xlink:title="Declares the RedisDatabaseHandler class for Redis&#45;based database operations.">
<polygon fill="white" stroke="black" points="485.54,-112.5 485.54,-131.5 614.54,-131.5 614.54,-112.5 485.54,-112.5"/>
<text text-anchor="middle" x="550.04" y="-119.5" font-family="Helvetica,sans-Serif" font-size="10.00">inc/redis_database.hpp</text>
</a>
</g>
</g>
<!-- Node1&#45;&gt;Node10 -->
<g id="edge19" class="edge">
<title>Node1&#45;&gt;Node10</title>
<path fill="none" stroke="midnightblue" d="M550.04,-224.34C550.04,-203.62 550.04,-165.02 550.04,-141.9"/>
<polygon fill="midnightblue" stroke="midnightblue" points="553.54,-141.67 550.04,-131.67 546.54,-141.67 553.54,-141.67"/>
</g>
<!-- Node12 -->
<g id="node12" class="node">
<title>Node12</title>
<g id="a_node12"><a xlink:href="common_8hpp.html" target="_top" xlink:title="Defines common constants, string views, and utility structures for the application.">
<polygon fill="white" stroke="black" points="829.04,-168.5 829.04,-187.5 927.04,-187.5 927.04,-168.5 829.04,-168.5"/>
<text text-anchor="middle" x="878.04" y="-175.5" font-family="Helvetica,sans-Serif" font-size="10.00">inc/common.hpp</text>
</a>
</g>
</g>
<!-- Node1&#45;&gt;Node12 -->
<g id="edge24" class="edge">
<title>Node1&#45;&gt;Node12</title>
<path fill="none" stroke="midnightblue" d="M621.21,-225.59C680.99,-214.75 765.3,-199.45 820.78,-189.39"/>
<polygon fill="midnightblue" stroke="midnightblue" points="821.58,-192.8 830.79,-187.57 820.33,-185.91 821.58,-192.8"/>
</g>
<!-- Node15 -->
<g id="node15" class="node">
<title>Node15</title>
<g id="a_node15"><a xlink:href="security__provider_8hpp.html" target="_top" xlink:title="Declares the ISecurityProvider abstract interface for encryption/decryption.">
<polygon fill="white" stroke="black" points="671.04,-168.5 671.04,-187.5 811.04,-187.5 811.04,-168.5 671.04,-168.5"/>
<text text-anchor="middle" x="741.04" y="-175.5" font-family="Helvetica,sans-Serif" font-size="10.00">inc/security_provider.hpp</text>
</a>
</g>
</g>
<!-- Node1&#45;&gt;Node15 -->
<g id="edge29" class="edge">
<title>Node1&#45;&gt;Node15</title>
<path fill="none" stroke="midnightblue" d="M595.31,-224.4C628.45,-214.07 672.89,-200.23 703.95,-190.56"/>
<polygon fill="midnightblue" stroke="midnightblue" points="705.02,-193.89 713.53,-187.57 702.94,-187.2 705.02,-193.89"/>
</g>
<!-- Node16 -->
<g id="node16" class="node">
<title>Node16</title>
<g id="a_node16"><a xlink:title=" ">
<polygon fill="white" stroke="#bfbfbf" points="945.04,-168.5 945.04,-187.5 1005.04,-187.5 1005.04,-168.5 945.04,-168.5"/>
<text text-anchor="middle" x="975.04" y="-175.5" font-family="Helvetica,sans-Serif" font-size="10.00">iostream</text>
</a>
</g>
</g>
<!-- Node1&#45;&gt;Node16 -->
<g id="edge31" class="edge">
<title>Node1&#45;&gt;Node16</title>
<path fill="none" stroke="midnightblue" d="M621.15,-231.28C696.64,-223.15 819.59,-208.56 934.82,-188.07"/>
<polygon fill="midnightblue" stroke="midnightblue" points="935.65,-191.48 944.87,-186.27 934.41,-184.59 935.65,-191.48"/>
</g>
<!-- Node3 -->
<g id="node3" class="node">
<title>Node3</title>
<g id="a_node3"><a xlink:href="request__executor_8hpp.html" target="_top" xlink:title="Declares the abstract RequestExecutor interface for executing requests.">
<polygon fill="white" stroke="black" points="28.04,-112.5 28.04,-131.5 168.04,-131.5 168.04,-112.5 28.04,-112.5"/>
<text text-anchor="middle" x="98.04" y="-119.5" font-family="Helvetica,sans-Serif" font-size="10.00">inc/request_executor.hpp</text>
</a>
</g>
</g>
<!-- Node2&#45;&gt;Node3 -->
<g id="edge2" class="edge">
<title>Node2&#45;&gt;Node3</title>
<path fill="none" stroke="midnightblue" d="M338.73,-168.44C288.42,-158.94 207.2,-143.61 153.23,-133.42"/>
<polygon fill="midnightblue" stroke="midnightblue" points="153.62,-129.93 143.15,-131.52 152.33,-136.81 153.62,-129.93"/>
</g>
<!-- Node2&#45;&gt;Node7 -->
<g id="edge7" class="edge">
<title>Node2&#45;&gt;Node7</title>
<path fill="none" stroke="midnightblue" d="M363.75,-168.35C348.64,-160.87 328.69,-148.65 317.04,-132 307.57,-118.46 303.69,-99.91 302.1,-86.09"/>
<polygon fill="midnightblue" stroke="midnightblue" points="305.56,-85.48 301.24,-75.81 298.59,-86.07 305.56,-85.48"/>
</g>
<!-- Node2&#45;&gt;Node8 -->
<g id="edge10" class="edge">
<title>Node2&#45;&gt;Node8</title>
<path fill="none" stroke="midnightblue" d="M386.19,-168.08C387.91,-160.93 390.39,-150.64 392.54,-141.69"/>
<polygon fill="midnightblue" stroke="midnightblue" points="396,-142.29 394.94,-131.75 389.19,-140.65 396,-142.29"/>
</g>
<!-- Node4 -->
<g id="node4" class="node">
<title>Node4</title>
<g id="a_node4"><a xlink:title=" ">
<polygon fill="white" stroke="#bfbfbf" points="621.04,-0.5 621.04,-19.5 665.04,-19.5 665.04,-0.5 621.04,-0.5"/>
<text text-anchor="middle" x="643.04" y="-7.5" font-family="Helvetica,sans-Serif" font-size="10.00">string</text>
</a>
</g>
</g>
<!-- Node3&#45;&gt;Node4 -->
<g id="edge3" class="edge">
<title>Node3&#45;&gt;Node4</title>
<path fill="none" stroke="midnightblue" d="M85.38,-112.34C67.66,-99.22 39.43,-73.94 56.04,-56 75.05,-35.48 490.72,-17.15 610.82,-12.27"/>
<polygon fill="midnightblue" stroke="midnightblue" points="611.01,-15.76 620.87,-11.86 610.73,-8.77 611.01,-15.76"/>
</g>
<!-- Node3&#45;&gt;Node5 -->
<g id="edge4" class="edge">
<title>Node3&#45;&gt;Node5</title>
<path fill="none" stroke="midnightblue" d="M74.4,-112.49C45.72,-100.91 3.5,-78.96 23.04,-56 49.83,-24.53 162.46,-15 235.89,-12.16"/>
<polygon fill="midnightblue" stroke="midnightblue" points="236.1,-15.65 245.97,-11.8 235.85,-8.66 236.1,-15.65"/>
</g>
<!-- Node6 -->
<g id="node6" class="node">
<title>Node6</title>
<g id="a_node6"><a xlink:href="container__request_8hpp.html" target="_top" xlink:title="Data structure for representing a container operation request.">
<polygon fill="white" stroke="black" points="65.54,-56.5 65.54,-75.5 208.54,-75.5 208.54,-56.5 65.54,-56.5"/>
<text text-anchor="middle" x="137.04" y="-63.5" font-family="Helvetica,sans-Serif" font-size="10.00">inc/container_request.hpp</text>
</a>
</g>
</g>
<!-- Node3&#45;&gt;Node6 -->
<g id="edge5" class="edge">
<title>Node3&#45;&gt;Node6</title>
<path fill="none" stroke="midnightblue" d="M104.48,-112.08C109.99,-104.46 118.07,-93.26 124.81,-83.94"/>
<polygon fill="midnightblue" stroke="midnightblue" points="127.71,-85.91 130.72,-75.75 122.03,-81.81 127.71,-85.91"/>
</g>
<!-- Node6&#45;&gt;Node4 -->
<g id="edge6" class="edge">
<title>Node6&#45;&gt;Node4</title>
<path fill="none" stroke="midnightblue" d="M208.57,-56.93C211.43,-56.61 214.26,-56.3 217.04,-56 364.01,-39.97 539.61,-21.7 610.75,-14.34"/>
<polygon fill="midnightblue" stroke="midnightblue" points="611.28,-17.8 620.86,-13.29 610.56,-10.84 611.28,-17.8"/>
</g>
<!-- Node7&#45;&gt;Node4 -->
<g id="edge8" class="edge">
<title>Node7&#45;&gt;Node4</title>
<path fill="none" stroke="midnightblue" d="M355.23,-56.44C427.22,-45.08 552.12,-25.36 610.81,-16.09"/>
<polygon fill="midnightblue" stroke="midnightblue" points="611.64,-19.5 620.98,-14.48 610.55,-12.59 611.64,-19.5"/>
</g>
<!-- Node7&#45;&gt;Node5 -->
<g id="edge9" class="edge">
<title>Node7&#45;&gt;Node5</title>
<path fill="none" stroke="midnightblue" d="M301.04,-56.08C301.04,-49.01 301.04,-38.86 301.04,-29.99"/>
<polygon fill="midnightblue" stroke="midnightblue" points="304.54,-29.75 301.04,-19.75 297.54,-29.75 304.54,-29.75"/>
</g>
<!-- Node8&#45;&gt;Node5 -->
<g id="edge11" class="edge">
<title>Node8&#45;&gt;Node5</title>
<path fill="none" stroke="midnightblue" d="M397.53,-112.07C397.8,-98.6 396.48,-72.85 384.04,-56 372.98,-41.01 355.37,-30.45 339.22,-23.36"/>
<polygon fill="midnightblue" stroke="midnightblue" points="340.51,-20.11 329.93,-19.57 337.87,-26.59 340.51,-20.11"/>
</g>
<!-- Node8&#45;&gt;Node6 -->
<g id="edge15" class="edge">
<title>Node8&#45;&gt;Node6</title>
<path fill="none" stroke="midnightblue" d="M355.85,-112.44C310.39,-103 237.2,-87.8 188.13,-77.61"/>
<polygon fill="midnightblue" stroke="midnightblue" points="188.55,-74.12 178.05,-75.52 187.13,-80.98 188.55,-74.12"/>
</g>
<!-- Node8&#45;&gt;Node7 -->
<g id="edge14" class="edge">
<title>Node8&#45;&gt;Node7</title>
<path fill="none" stroke="midnightblue" d="M381.62,-112.32C366.5,-103.82 343.23,-90.73 325.57,-80.8"/>
<polygon fill="midnightblue" stroke="midnightblue" points="326.86,-77.51 316.43,-75.65 323.43,-83.61 326.86,-77.51"/>
</g>
<!-- Node8&#45;&gt;Node9 -->
<g id="edge12" class="edge">
<title>Node8&#45;&gt;Node9</title>
<path fill="none" stroke="midnightblue" d="M436.02,-112.44C478.94,-103.02 547.99,-87.87 594.41,-77.68"/>
<polygon fill="midnightblue" stroke="midnightblue" points="595.23,-81.08 604.25,-75.52 593.73,-74.24 595.23,-81.08"/>
</g>
<!-- Node9&#45;&gt;Node4 -->
<g id="edge13" class="edge">
<title>Node9&#45;&gt;Node4</title>
<path fill="none" stroke="midnightblue" d="M643.04,-56.08C643.04,-49.01 643.04,-38.86 643.04,-29.99"/>
<polygon fill="midnightblue" stroke="midnightblue" points="646.54,-29.75 643.04,-19.75 639.54,-29.75 646.54,-29.75"/>
</g>
<!-- Node10&#45;&gt;Node4 -->
<g id="edge22" class="edge">
<title>Node10&#45;&gt;Node4</title>
<path fill="none" stroke="midnightblue" d="M614.88,-117.51C643.98,-112.31 675.81,-100.8 694.04,-76 707.16,-58.16 685.92,-38.2 666.98,-25.17"/>
<polygon fill="midnightblue" stroke="midnightblue" points="668.86,-22.22 658.57,-19.7 665.05,-28.08 668.86,-22.22"/>
</g>
<!-- Node10&#45;&gt;Node5 -->
<g id="edge23" class="edge">
<title>Node10&#45;&gt;Node5</title>
<path fill="none" stroke="midnightblue" d="M530.55,-112.37C502.4,-99.92 448.73,-76.18 403.04,-56 378.39,-45.11 350.39,-32.76 329.97,-23.75"/>
<polygon fill="midnightblue" stroke="midnightblue" points="331.16,-20.45 320.6,-19.62 328.34,-26.86 331.16,-20.45"/>
</g>
<!-- Node10&#45;&gt;Node7 -->
<g id="edge20" class="edge">
<title>Node10&#45;&gt;Node7</title>
<path fill="none" stroke="midnightblue" d="M510.59,-112.44C467.15,-103.02 397.26,-87.87 350.27,-77.68"/>
<polygon fill="midnightblue" stroke="midnightblue" points="350.83,-74.22 340.31,-75.52 349.34,-81.06 350.83,-74.22"/>
</g>
<!-- Node11 -->
<g id="node11" class="node">
<title>Node11</title>
<g id="a_node11"><a xlink:title=" ">
<polygon fill="white" stroke="#bfbfbf" points="469.54,-56.5 469.54,-75.5 582.54,-75.5 582.54,-56.5 469.54,-56.5"/>
<text text-anchor="middle" x="526.04" y="-63.5" font-family="Helvetica,sans-Serif" font-size="10.00">cpp_redis/cpp_redis</text>
</a>
</g>
</g>
<!-- Node10&#45;&gt;Node11 -->
<g id="edge21" class="edge">
<title>Node10&#45;&gt;Node11</title>
<path fill="none" stroke="midnightblue" d="M546.08,-112.08C542.83,-104.77 538.12,-94.18 534.09,-85.1"/>
<polygon fill="midnightblue" stroke="midnightblue" points="537.19,-83.47 529.93,-75.75 530.8,-86.31 537.19,-83.47"/>
</g>
<!-- Node12&#45;&gt;Node4 -->
<g id="edge25" class="edge">
<title>Node12&#45;&gt;Node4</title>
<path fill="none" stroke="midnightblue" d="M881.7,-168.15C886.6,-154.77 893.41,-129.15 882.04,-112 835.37,-41.61 728.86,-20.15 675.2,-13.7"/>
<polygon fill="midnightblue" stroke="midnightblue" points="675.52,-10.22 665.2,-12.61 674.76,-17.18 675.52,-10.22"/>
</g>
<!-- Node13 -->
<g id="node13" class="node">
<title>Node13</title>
<g id="a_node13"><a xlink:title=" ">
<polygon fill="white" stroke="#bfbfbf" points="930.54,-112.5 930.54,-131.5 1003.54,-131.5 1003.54,-112.5 930.54,-112.5"/>
<text text-anchor="middle" x="967.04" y="-119.5" font-family="Helvetica,sans-Serif" font-size="10.00">string_view</text>
</a>
</g>
</g>
<!-- Node12&#45;&gt;Node13 -->
<g id="edge26" class="edge">
<title>Node12&#45;&gt;Node13</title>
<path fill="none" stroke="midnightblue" d="M892.34,-168.32C906.23,-159.9 927.54,-146.97 943.85,-137.07"/>
<polygon fill="midnightblue" stroke="midnightblue" points="946.05,-139.83 952.78,-131.65 942.41,-133.85 946.05,-139.83"/>
</g>
<!-- Node14 -->
<g id="node14" class="node">
<title>Node14</title>
<g id="a_node14"><a xlink:title=" ">
<polygon fill="white" stroke="#bfbfbf" points="780.54,-112.5 780.54,-131.5 873.54,-131.5 873.54,-112.5 780.54,-112.5"/>
<text text-anchor="middle" x="827.04" y="-119.5" font-family="Helvetica,sans-Serif" font-size="10.00">unordered_map</text>
</a>
</g>
</g>
<!-- Node12&#45;&gt;Node14 -->
<g id="edge27" class="edge">
<title>Node12&#45;&gt;Node14</title>
<path fill="none" stroke="midnightblue" d="M869.62,-168.08C862.19,-160.22 851.19,-148.57 842.23,-139.08"/>
<polygon fill="midnightblue" stroke="midnightblue" points="844.72,-136.62 835.31,-131.75 839.63,-141.42 844.72,-136.62"/>
</g>
<!-- Node15&#45;&gt;Node4 -->
<g id="edge30" class="edge">
<title>Node15&#45;&gt;Node4</title>
<path fill="none" stroke="midnightblue" d="M740.98,-168.2C740.4,-146.95 736.38,-91.89 711.04,-56 701.43,-42.37 686.26,-31.76 672.69,-24.27"/>
<polygon fill="midnightblue" stroke="midnightblue" points="674.12,-21.07 663.63,-19.59 670.91,-27.29 674.12,-21.07"/>
</g>
</g>
</svg>
