<?xml version="1.0" encoding="UTF-8" standalone="no"?>
<!DOCTYPE svg PUBLIC "-//W3C//DTD SVG 1.1//EN"
 "http://www.w3.org/Graphics/SVG/1.1/DTD/svg11.dtd">
<!-- Generated by graphviz version 2.43.0 (0)
 -->
<!-- Title: executor/src/json_request_executor.cpp Pages: 1 -->
<svg width="877pt" height="263pt"
 viewBox="0.00 0.00 877.13 263.00" xmlns="http://www.w3.org/2000/svg" xmlns:xlink="http://www.w3.org/1999/xlink">
<g id="graph0" class="graph" transform="scale(1 1) rotate(0) translate(4 259)">
<title>executor/src/json_request_executor.cpp</title>
<polygon fill="white" stroke="transparent" points="-4,4 -4,-259 873.13,-259 873.13,4 -4,4"/>
<!-- Node1 -->
<g id="node1" class="node">
<title>Node1</title>
<g id="a_node1"><a xlink:title="Implements the JsonRequestExecutorHandler class for executing JSON&#45;based requests.">
<polygon fill="#bfbfbf" stroke="black" points="309.63,-224.5 309.63,-254.5 451.63,-254.5 451.63,-224.5 309.63,-224.5"/>
<text text-anchor="start" x="317.63" y="-242.5" font-family="Helvetica,sans-Serif" font-size="10.00">executor/src/json_request</text>
<text text-anchor="middle" x="380.63" y="-231.5" font-family="Helvetica,sans-Serif" font-size="10.00">_executor.cpp</text>
</a>
</g>
</g>
<!-- Node2 -->
<g id="node2" class="node">
<title>Node2</title>
<g id="a_node2"><a xlink:href="json__request__executor_8hpp.html" target="_top" xlink:title="Declares the JsonRequestExecutorHandler class for executing JSON&#45;based requests.">
<polygon fill="white" stroke="black" points="174.13,-168.5 174.13,-187.5 339.13,-187.5 339.13,-168.5 174.13,-168.5"/>
<text text-anchor="middle" x="256.63" y="-175.5" font-family="Helvetica,sans-Serif" font-size="10.00">inc/json_request_executor.hpp</text>
</a>
</g>
</g>
<!-- Node1&#45;&gt;Node2 -->
<g id="edge1" class="edge">
<title>Node1&#45;&gt;Node2</title>
<path fill="none" stroke="midnightblue" d="M351.25,-224.4C330.81,-214.59 303.77,-201.62 283.83,-192.05"/>
<polygon fill="midnightblue" stroke="midnightblue" points="285.21,-188.83 274.68,-187.66 282.18,-195.14 285.21,-188.83"/>
</g>
<!-- Node5 -->
<g id="node5" class="node">
<title>Node5</title>
<g id="a_node5"><a xlink:title=" ">
<polygon fill="white" stroke="#bfbfbf" points="151.63,-0.5 151.63,-19.5 261.63,-19.5 261.63,-0.5 151.63,-0.5"/>
<text text-anchor="middle" x="206.63" y="-7.5" font-family="Helvetica,sans-Serif" font-size="10.00">nlohmann/json.hpp</text>
</a>
</g>
</g>
<!-- Node1&#45;&gt;Node5 -->
<g id="edge14" class="edge">
<title>Node1&#45;&gt;Node5</title>
<path fill="none" stroke="midnightblue" d="M309.45,-229.37C210.21,-214.92 38.7,-183.05 5.63,-132 -5.82,-114.32 2.7,-71.27 17.63,-56 34.86,-38.38 93.99,-26.21 141.57,-19.02"/>
<polygon fill="midnightblue" stroke="midnightblue" points="142.15,-22.47 151.54,-17.56 141.13,-15.54 142.15,-22.47"/>
</g>
<!-- Node7 -->
<g id="node7" class="node">
<title>Node7</title>
<g id="a_node7"><a xlink:href="database__interface_8hpp.html" target="_top" xlink:title="Abstract interface for database operations.">
<polygon fill="white" stroke="black" points="272.13,-56.5 272.13,-75.5 421.13,-75.5 421.13,-56.5 272.13,-56.5"/>
<text text-anchor="middle" x="346.63" y="-63.5" font-family="Helvetica,sans-Serif" font-size="10.00">inc/database_interface.hpp</text>
</a>
</g>
</g>
<!-- Node1&#45;&gt;Node7 -->
<g id="edge15" class="edge">
<title>Node1&#45;&gt;Node7</title>
<path fill="none" stroke="midnightblue" d="M377.85,-224.47C371.75,-193.7 357.21,-120.33 350.34,-85.7"/>
<polygon fill="midnightblue" stroke="midnightblue" points="353.71,-84.69 348.33,-75.56 346.84,-86.05 353.71,-84.69"/>
</g>
<!-- Node8 -->
<g id="node8" class="node">
<title>Node8</title>
<g id="a_node8"><a xlink:href="container__service_8hpp.html" target="_top" xlink:title="Declares the ContainerServiceHandler class for business logic related to containers.">
<polygon fill="white" stroke="black" points="15.13,-112.5 15.13,-131.5 156.13,-131.5 156.13,-112.5 15.13,-112.5"/>
<text text-anchor="middle" x="85.63" y="-119.5" font-family="Helvetica,sans-Serif" font-size="10.00">inc/container_service.hpp</text>
</a>
</g>
</g>
<!-- Node1&#45;&gt;Node8 -->
<g id="edge16" class="edge">
<title>Node1&#45;&gt;Node8</title>
<path fill="none" stroke="midnightblue" d="M309.27,-230.21C265.78,-223.15 210.03,-210.44 164.63,-188 139.65,-175.65 115.61,-154.01 100.74,-139.12"/>
<polygon fill="midnightblue" stroke="midnightblue" points="102.96,-136.38 93.48,-131.64 97.93,-141.25 102.96,-136.38"/>
</g>
<!-- Node9 -->
<g id="node9" class="node">
<title>Node9</title>
<g id="a_node9"><a xlink:href="redis__database_8hpp.html" target="_top" xlink:title="Declares the RedisDatabaseHandler class for Redis&#45;based database operations.">
<polygon fill="white" stroke="black" points="409.13,-112.5 409.13,-131.5 538.13,-131.5 538.13,-112.5 409.13,-112.5"/>
<text text-anchor="middle" x="473.63" y="-119.5" font-family="Helvetica,sans-Serif" font-size="10.00">inc/redis_database.hpp</text>
</a>
</g>
</g>
<!-- Node1&#45;&gt;Node9 -->
<g id="edge17" class="edge">
<title>Node1&#45;&gt;Node9</title>
<path fill="none" stroke="midnightblue" d="M392.04,-224.34C409.25,-202.96 441.8,-162.53 460.16,-139.73"/>
<polygon fill="midnightblue" stroke="midnightblue" points="463.11,-141.65 466.65,-131.67 457.65,-137.26 463.11,-141.65"/>
</g>
<!-- Node11 -->
<g id="node11" class="node">
<title>Node11</title>
<g id="a_node11"><a xlink:href="common_8hpp.html" target="_top" xlink:title="Defines common constants, string views, and utility structures for the application.">
<polygon fill="white" stroke="black" points="607.63,-168.5 607.63,-187.5 705.63,-187.5 705.63,-168.5 607.63,-168.5"/>
<text text-anchor="middle" x="656.63" y="-175.5" font-family="Helvetica,sans-Serif" font-size="10.00">inc/common.hpp</text>
</a>
</g>
</g>
<!-- Node1&#45;&gt;Node11 -->
<g id="edge22" class="edge">
<title>Node1&#45;&gt;Node11</title>
<path fill="none" stroke="midnightblue" d="M445.69,-224.47C495.18,-213.81 562.23,-199.35 607.33,-189.63"/>
<polygon fill="midnightblue" stroke="midnightblue" points="608.14,-193.04 617.18,-187.51 606.66,-186.19 608.14,-193.04"/>
</g>
<!-- Node14 -->
<g id="node14" class="node">
<title>Node14</title>
<g id="a_node14"><a xlink:title=" ">
<polygon fill="white" stroke="#bfbfbf" points="723.63,-168.5 723.63,-187.5 783.63,-187.5 783.63,-168.5 723.63,-168.5"/>
<text text-anchor="middle" x="753.63" y="-175.5" font-family="Helvetica,sans-Serif" font-size="10.00">iostream</text>
</a>
</g>
</g>
<!-- Node1&#45;&gt;Node14 -->
<g id="edge26" class="edge">
<title>Node1&#45;&gt;Node14</title>
<path fill="none" stroke="midnightblue" d="M451.92,-229.34C517.48,-220.54 617.56,-206.18 713.57,-188.08"/>
<polygon fill="midnightblue" stroke="midnightblue" points="714.28,-191.51 723.45,-186.21 712.97,-184.64 714.28,-191.51"/>
</g>
<!-- Node3 -->
<g id="node3" class="node">
<title>Node3</title>
<g id="a_node3"><a xlink:href="request__executor_8hpp.html" target="_top" xlink:title="Declares the abstract RequestExecutor interface for executing requests.">
<polygon fill="white" stroke="black" points="174.63,-112.5 174.63,-131.5 314.63,-131.5 314.63,-112.5 174.63,-112.5"/>
<text text-anchor="middle" x="244.63" y="-119.5" font-family="Helvetica,sans-Serif" font-size="10.00">inc/request_executor.hpp</text>
</a>
</g>
</g>
<!-- Node2&#45;&gt;Node3 -->
<g id="edge2" class="edge">
<title>Node2&#45;&gt;Node3</title>
<path fill="none" stroke="midnightblue" d="M254.65,-168.08C253.06,-160.93 250.77,-150.64 248.79,-141.69"/>
<polygon fill="midnightblue" stroke="midnightblue" points="252.16,-140.75 246.58,-131.75 245.33,-142.27 252.16,-140.75"/>
</g>
<!-- Node2&#45;&gt;Node7 -->
<g id="edge7" class="edge">
<title>Node2&#45;&gt;Node7</title>
<path fill="none" stroke="midnightblue" d="M275.56,-168.48C290.52,-160.87 310.92,-148.39 323.63,-132 334.17,-118.42 340.12,-99.62 343.32,-85.73"/>
<polygon fill="midnightblue" stroke="midnightblue" points="346.77,-86.33 345.33,-75.84 339.91,-84.94 346.77,-86.33"/>
</g>
<!-- Node2&#45;&gt;Node8 -->
<g id="edge10" class="edge">
<title>Node2&#45;&gt;Node8</title>
<path fill="none" stroke="midnightblue" d="M229.54,-168.44C200.65,-159.32 154.71,-144.81 122.53,-134.65"/>
<polygon fill="midnightblue" stroke="midnightblue" points="123.19,-131.19 112.6,-131.52 121.08,-137.87 123.19,-131.19"/>
</g>
<!-- Node4 -->
<g id="node4" class="node">
<title>Node4</title>
<g id="a_node4"><a xlink:title=" ">
<polygon fill="white" stroke="#bfbfbf" points="324.63,-0.5 324.63,-19.5 368.63,-19.5 368.63,-0.5 324.63,-0.5"/>
<text text-anchor="middle" x="346.63" y="-7.5" font-family="Helvetica,sans-Serif" font-size="10.00">string</text>
</a>
</g>
</g>
<!-- Node3&#45;&gt;Node4 -->
<g id="edge3" class="edge">
<title>Node3&#45;&gt;Node4</title>
<path fill="none" stroke="midnightblue" d="M244.91,-112.46C245.77,-99.04 249.18,-72.83 262.63,-56 275.97,-39.32 297.22,-28.02 315.01,-20.91"/>
<polygon fill="midnightblue" stroke="midnightblue" points="316.31,-24.16 324.46,-17.39 313.87,-17.6 316.31,-24.16"/>
</g>
<!-- Node3&#45;&gt;Node5 -->
<g id="edge4" class="edge">
<title>Node3&#45;&gt;Node5</title>
<path fill="none" stroke="midnightblue" d="M241.65,-112.37C235.49,-94.54 221.24,-53.3 212.95,-29.27"/>
<polygon fill="midnightblue" stroke="midnightblue" points="216.17,-27.9 209.6,-19.59 209.56,-30.19 216.17,-27.9"/>
</g>
<!-- Node6 -->
<g id="node6" class="node">
<title>Node6</title>
<g id="a_node6"><a xlink:href="container__request_8hpp.html" target="_top" xlink:title="Data structure for representing a container operation request.">
<polygon fill="white" stroke="black" points="35.13,-56.5 35.13,-75.5 178.13,-75.5 178.13,-56.5 35.13,-56.5"/>
<text text-anchor="middle" x="106.63" y="-63.5" font-family="Helvetica,sans-Serif" font-size="10.00">inc/container_request.hpp</text>
</a>
</g>
</g>
<!-- Node3&#45;&gt;Node6 -->
<g id="edge5" class="edge">
<title>Node3&#45;&gt;Node6</title>
<path fill="none" stroke="midnightblue" d="M222.77,-112.44C199.85,-103.48 163.66,-89.31 137.77,-79.18"/>
<polygon fill="midnightblue" stroke="midnightblue" points="138.99,-75.9 128.4,-75.52 136.43,-82.42 138.99,-75.9"/>
</g>
<!-- Node6&#45;&gt;Node4 -->
<g id="edge6" class="edge">
<title>Node6&#45;&gt;Node4</title>
<path fill="none" stroke="midnightblue" d="M144.66,-56.44C191.65,-45.87 270.76,-28.07 314.73,-18.18"/>
<polygon fill="midnightblue" stroke="midnightblue" points="315.6,-21.57 324.59,-15.96 314.07,-14.74 315.6,-21.57"/>
</g>
<!-- Node7&#45;&gt;Node4 -->
<g id="edge8" class="edge">
<title>Node7&#45;&gt;Node4</title>
<path fill="none" stroke="midnightblue" d="M346.63,-56.08C346.63,-49.01 346.63,-38.86 346.63,-29.99"/>
<polygon fill="midnightblue" stroke="midnightblue" points="350.13,-29.75 346.63,-19.75 343.13,-29.75 350.13,-29.75"/>
</g>
<!-- Node7&#45;&gt;Node5 -->
<g id="edge9" class="edge">
<title>Node7&#45;&gt;Node5</title>
<path fill="none" stroke="midnightblue" d="M324.45,-56.44C301.2,-47.48 264.48,-33.31 238.22,-23.18"/>
<polygon fill="midnightblue" stroke="midnightblue" points="239.3,-19.85 228.71,-19.52 236.78,-26.38 239.3,-19.85"/>
</g>
<!-- Node8&#45;&gt;Node5 -->
<g id="edge11" class="edge">
<title>Node8&#45;&gt;Node5</title>
<path fill="none" stroke="midnightblue" d="M67.24,-112.37C43.98,-100.29 8.89,-77.41 25.63,-56 40.03,-37.58 95.78,-25.62 141.64,-18.7"/>
<polygon fill="midnightblue" stroke="midnightblue" points="142.17,-22.16 151.56,-17.25 141.16,-15.23 142.17,-22.16"/>
</g>
<!-- Node8&#45;&gt;Node6 -->
<g id="edge13" class="edge">
<title>Node8&#45;&gt;Node6</title>
<path fill="none" stroke="midnightblue" d="M89.1,-112.08C91.95,-104.77 96.06,-94.18 99.59,-85.1"/>
<polygon fill="midnightblue" stroke="midnightblue" points="102.87,-86.34 103.23,-75.75 96.34,-83.8 102.87,-86.34"/>
</g>
<!-- Node8&#45;&gt;Node7 -->
<g id="edge12" class="edge">
<title>Node8&#45;&gt;Node7</title>
<path fill="none" stroke="midnightblue" d="M126.99,-112.44C172.71,-102.98 246.4,-87.74 295.66,-77.55"/>
<polygon fill="midnightblue" stroke="midnightblue" points="296.39,-80.97 305.47,-75.52 294.97,-74.12 296.39,-80.97"/>
</g>
<!-- Node9&#45;&gt;Node4 -->
<g id="edge20" class="edge">
<title>Node9&#45;&gt;Node4</title>
<path fill="none" stroke="midnightblue" d="M469.56,-112.46C462.81,-99.05 448.21,-72.84 429.63,-56 414.61,-42.38 394.72,-31.42 378.18,-23.72"/>
<polygon fill="midnightblue" stroke="midnightblue" points="379.45,-20.45 368.89,-19.57 376.59,-26.84 379.45,-20.45"/>
</g>
<!-- Node9&#45;&gt;Node5 -->
<g id="edge21" class="edge">
<title>Node9&#45;&gt;Node5</title>
<path fill="none" stroke="midnightblue" d="M525.45,-112.49C570.37,-102.96 624.44,-84.94 598.63,-56 593.24,-49.96 381.94,-28.29 271.86,-17.38"/>
<polygon fill="midnightblue" stroke="midnightblue" points="272.15,-13.89 261.85,-16.39 271.46,-20.85 272.15,-13.89"/>
</g>
<!-- Node9&#45;&gt;Node7 -->
<g id="edge18" class="edge">
<title>Node9&#45;&gt;Node7</title>
<path fill="none" stroke="midnightblue" d="M453.51,-112.44C432.61,-103.56 399.7,-89.56 375.92,-79.45"/>
<polygon fill="midnightblue" stroke="midnightblue" points="377.23,-76.21 366.66,-75.52 374.5,-82.65 377.23,-76.21"/>
</g>
<!-- Node10 -->
<g id="node10" class="node">
<title>Node10</title>
<g id="a_node10"><a xlink:title=" ">
<polygon fill="white" stroke="#bfbfbf" points="477.13,-56.5 477.13,-75.5 590.13,-75.5 590.13,-56.5 477.13,-56.5"/>
<text text-anchor="middle" x="533.63" y="-63.5" font-family="Helvetica,sans-Serif" font-size="10.00">cpp_redis/cpp_redis</text>
</a>
</g>
</g>
<!-- Node9&#45;&gt;Node10 -->
<g id="edge19" class="edge">
<title>Node9&#45;&gt;Node10</title>
<path fill="none" stroke="midnightblue" d="M483.27,-112.32C492.14,-104.34 505.51,-92.31 516.24,-82.65"/>
<polygon fill="midnightblue" stroke="midnightblue" points="518.73,-85.13 523.82,-75.83 514.04,-79.92 518.73,-85.13"/>
</g>
<!-- Node11&#45;&gt;Node4 -->
<g id="edge23" class="edge">
<title>Node11&#45;&gt;Node4</title>
<path fill="none" stroke="midnightblue" d="M656.61,-168.35C656.06,-145.93 651.25,-85.65 616.63,-56 581.41,-25.82 442.91,-15.5 379.12,-12.3"/>
<polygon fill="midnightblue" stroke="midnightblue" points="378.99,-8.79 368.83,-11.82 378.66,-15.78 378.99,-8.79"/>
</g>
<!-- Node12 -->
<g id="node12" class="node">
<title>Node12</title>
<g id="a_node12"><a xlink:title=" ">
<polygon fill="white" stroke="#bfbfbf" points="685.13,-112.5 685.13,-131.5 758.13,-131.5 758.13,-112.5 685.13,-112.5"/>
<text text-anchor="middle" x="721.63" y="-119.5" font-family="Helvetica,sans-Serif" font-size="10.00">string_view</text>
</a>
</g>
</g>
<!-- Node11&#45;&gt;Node12 -->
<g id="edge24" class="edge">
<title>Node11&#45;&gt;Node12</title>
<path fill="none" stroke="midnightblue" d="M667.08,-168.32C676.78,-160.26 691.45,-148.08 703.13,-138.37"/>
<polygon fill="midnightblue" stroke="midnightblue" points="705.54,-140.92 711,-131.83 701.07,-135.53 705.54,-140.92"/>
</g>
<!-- Node13 -->
<g id="node13" class="node">
<title>Node13</title>
<g id="a_node13"><a xlink:title=" ">
<polygon fill="white" stroke="#bfbfbf" points="776.13,-112.5 776.13,-131.5 869.13,-131.5 869.13,-112.5 776.13,-112.5"/>
<text text-anchor="middle" x="822.63" y="-119.5" font-family="Helvetica,sans-Serif" font-size="10.00">unordered_map</text>
</a>
</g>
</g>
<!-- Node11&#45;&gt;Node13 -->
<g id="edge25" class="edge">
<title>Node11&#45;&gt;Node13</title>
<path fill="none" stroke="midnightblue" d="M682.94,-168.44C710.98,-159.32 755.58,-144.81 786.82,-134.65"/>
<polygon fill="midnightblue" stroke="midnightblue" points="788.03,-137.94 796.45,-131.52 785.86,-131.28 788.03,-137.94"/>
</g>
</g>
</svg>
