<?xml version="1.0" encoding="UTF-8" standalone="no"?>
<!DOCTYPE svg PUBLIC "-//W3C//DTD SVG 1.1//EN"
 "http://www.w3.org/Graphics/SVG/1.1/DTD/svg11.dtd">
<!-- Generated by graphviz version 2.43.0 (0)
 -->
<!-- Title: executor/src/json_request_executor.cpp Pages: 1 -->
<svg width="961pt" height="263pt"
 viewBox="0.00 0.00 961.00 263.00" xmlns="http://www.w3.org/2000/svg" xmlns:xlink="http://www.w3.org/1999/xlink">
<g id="graph0" class="graph" transform="scale(1 1) rotate(0) translate(4 259)">
<title>executor/src/json_request_executor.cpp</title>
<polygon fill="white" stroke="transparent" points="-4,4 -4,-259 957,-259 957,4 -4,4"/>
<!-- Node1 -->
<g id="node1" class="node">
<title>Node1</title>
<g id="a_node1"><a xlink:title="Implements the JsonRequestExecutorHandler class for executing JSON&#45;based requests.">
<polygon fill="#bfbfbf" stroke="black" points="410.5,-224.5 410.5,-254.5 552.5,-254.5 552.5,-224.5 410.5,-224.5"/>
<text text-anchor="start" x="418.5" y="-242.5" font-family="Helvetica,sans-Serif" font-size="10.00">executor/src/json_request</text>
<text text-anchor="middle" x="481.5" y="-231.5" font-family="Helvetica,sans-Serif" font-size="10.00">_executor.cpp</text>
</a>
</g>
</g>
<!-- Node2 -->
<g id="node2" class="node">
<title>Node2</title>
<g id="a_node2"><a xlink:href="json__request__executor_8hpp.html" target="_top" xlink:title="Defines the JsonRequestExecutorHandler class for executing JSON&#45;based requests.">
<polygon fill="white" stroke="black" points="510,-168.5 510,-187.5 675,-187.5 675,-168.5 510,-168.5"/>
<text text-anchor="middle" x="592.5" y="-175.5" font-family="Helvetica,sans-Serif" font-size="10.00">inc/json_request_executor.hpp</text>
</a>
</g>
</g>
<!-- Node1&#45;&gt;Node2 -->
<g id="edge1" class="edge">
<title>Node1&#45;&gt;Node2</title>
<path fill="none" stroke="midnightblue" d="M507.81,-224.4C525.76,-214.77 549.42,-202.09 567.17,-192.58"/>
<polygon fill="midnightblue" stroke="midnightblue" points="569.19,-195.47 576.35,-187.66 565.88,-189.3 569.19,-195.47"/>
</g>
<!-- Node5 -->
<g id="node5" class="node">
<title>Node5</title>
<g id="a_node5"><a xlink:title=" ">
<polygon fill="white" stroke="#bfbfbf" points="336.5,-56.5 336.5,-75.5 446.5,-75.5 446.5,-56.5 336.5,-56.5"/>
<text text-anchor="middle" x="391.5" y="-63.5" font-family="Helvetica,sans-Serif" font-size="10.00">nlohmann/json.hpp</text>
</a>
</g>
</g>
<!-- Node1&#45;&gt;Node5 -->
<g id="edge7" class="edge">
<title>Node1&#45;&gt;Node5</title>
<path fill="none" stroke="midnightblue" d="M467.79,-224.32C450,-205.07 419.39,-168.82 403.5,-132 397.17,-117.33 394.18,-99.39 392.76,-86.08"/>
<polygon fill="midnightblue" stroke="midnightblue" points="396.22,-85.44 391.88,-75.77 389.25,-86.03 396.22,-85.44"/>
</g>
<!-- Node7 -->
<g id="node7" class="node">
<title>Node7</title>
<g id="a_node7"><a xlink:href="database__interface_8hpp.html" target="_top" xlink:title="Abstract interface for database operations.">
<polygon fill="white" stroke="black" points="0,-112.5 0,-131.5 149,-131.5 149,-112.5 0,-112.5"/>
<text text-anchor="middle" x="74.5" y="-119.5" font-family="Helvetica,sans-Serif" font-size="10.00">inc/database_interface.hpp</text>
</a>
</g>
</g>
<!-- Node1&#45;&gt;Node7 -->
<g id="edge8" class="edge">
<title>Node1&#45;&gt;Node7</title>
<path fill="none" stroke="midnightblue" d="M410.33,-229.57C356.54,-221.7 281.32,-208.29 217.5,-188 174.49,-174.33 127.33,-151.17 99.36,-136.5"/>
<polygon fill="midnightblue" stroke="midnightblue" points="100.78,-133.29 90.3,-131.7 97.5,-139.48 100.78,-133.29"/>
</g>
<!-- Node8 -->
<g id="node8" class="node">
<title>Node8</title>
<g id="a_node8"><a xlink:href="container__service_8hpp.html" target="_top" xlink:title="Declares the ContainerServiceHandler class for business logic related to containers.">
<polygon fill="white" stroke="black" points="413,-112.5 413,-131.5 554,-131.5 554,-112.5 413,-112.5"/>
<text text-anchor="middle" x="483.5" y="-119.5" font-family="Helvetica,sans-Serif" font-size="10.00">inc/container_service.hpp</text>
</a>
</g>
</g>
<!-- Node1&#45;&gt;Node8 -->
<g id="edge11" class="edge">
<title>Node1&#45;&gt;Node8</title>
<path fill="none" stroke="midnightblue" d="M481.75,-224.34C482.1,-203.62 482.77,-165.02 483.17,-141.9"/>
<polygon fill="midnightblue" stroke="midnightblue" points="486.68,-141.73 483.35,-131.67 479.68,-141.61 486.68,-141.73"/>
</g>
<!-- Node9 -->
<g id="node9" class="node">
<title>Node9</title>
<g id="a_node9"><a xlink:href="redis__database_8hpp.html" target="_top" xlink:title="Implements RedisDatabaseHandler for Redis&#45;based database operations.">
<polygon fill="white" stroke="black" points="227,-168.5 227,-187.5 356,-187.5 356,-168.5 227,-168.5"/>
<text text-anchor="middle" x="291.5" y="-175.5" font-family="Helvetica,sans-Serif" font-size="10.00">inc/redis_database.hpp</text>
</a>
</g>
</g>
<!-- Node1&#45;&gt;Node9 -->
<g id="edge14" class="edge">
<title>Node1&#45;&gt;Node9</title>
<path fill="none" stroke="midnightblue" d="M436.47,-224.4C403.64,-214.12 359.68,-200.35 328.8,-190.68"/>
<polygon fill="midnightblue" stroke="midnightblue" points="329.46,-187.22 318.87,-187.57 327.37,-193.9 329.46,-187.22"/>
</g>
<!-- Node11 -->
<g id="node11" class="node">
<title>Node11</title>
<g id="a_node11"><a xlink:href="common_8hpp.html" target="_top" xlink:title="Defines common constants, string views, and utility structures for the application.">
<polygon fill="white" stroke="black" points="693.5,-168.5 693.5,-187.5 791.5,-187.5 791.5,-168.5 693.5,-168.5"/>
<text text-anchor="middle" x="742.5" y="-175.5" font-family="Helvetica,sans-Serif" font-size="10.00">inc/common.hpp</text>
</a>
</g>
</g>
<!-- Node1&#45;&gt;Node11 -->
<g id="edge19" class="edge">
<title>Node1&#45;&gt;Node11</title>
<path fill="none" stroke="midnightblue" d="M543.02,-224.47C589.62,-213.85 652.69,-199.47 695.34,-189.75"/>
<polygon fill="midnightblue" stroke="midnightblue" points="696.21,-193.14 705.19,-187.51 694.66,-186.32 696.21,-193.14"/>
</g>
<!-- Node14 -->
<g id="node14" class="node">
<title>Node14</title>
<g id="a_node14"><a xlink:title=" ">
<polygon fill="white" stroke="#bfbfbf" points="809.5,-168.5 809.5,-187.5 869.5,-187.5 869.5,-168.5 809.5,-168.5"/>
<text text-anchor="middle" x="839.5" y="-175.5" font-family="Helvetica,sans-Serif" font-size="10.00">iostream</text>
</a>
</g>
</g>
<!-- Node1&#45;&gt;Node14 -->
<g id="edge23" class="edge">
<title>Node1&#45;&gt;Node14</title>
<path fill="none" stroke="midnightblue" d="M552.7,-228.68C615.24,-219.73 708.87,-205.51 799.43,-188.1"/>
<polygon fill="midnightblue" stroke="midnightblue" points="800.16,-191.52 809.31,-186.19 798.83,-184.65 800.16,-191.52"/>
</g>
<!-- Node3 -->
<g id="node3" class="node">
<title>Node3</title>
<g id="a_node3"><a xlink:href="request__executor_8hpp.html" target="_top" xlink:title="Declares the abstract RequestExecutor interface for executing requests.">
<polygon fill="white" stroke="black" points="572.5,-112.5 572.5,-131.5 712.5,-131.5 712.5,-112.5 572.5,-112.5"/>
<text text-anchor="middle" x="642.5" y="-119.5" font-family="Helvetica,sans-Serif" font-size="10.00">inc/request_executor.hpp</text>
</a>
</g>
</g>
<!-- Node2&#45;&gt;Node3 -->
<g id="edge2" class="edge">
<title>Node2&#45;&gt;Node3</title>
<path fill="none" stroke="midnightblue" d="M600.76,-168.08C607.96,-160.3 618.61,-148.8 627.35,-139.37"/>
<polygon fill="midnightblue" stroke="midnightblue" points="630.17,-141.47 634.4,-131.75 625.03,-136.71 630.17,-141.47"/>
</g>
<!-- Node4 -->
<g id="node4" class="node">
<title>Node4</title>
<g id="a_node4"><a xlink:title=" ">
<polygon fill="white" stroke="#bfbfbf" points="517.5,-0.5 517.5,-19.5 561.5,-19.5 561.5,-0.5 517.5,-0.5"/>
<text text-anchor="middle" x="539.5" y="-7.5" font-family="Helvetica,sans-Serif" font-size="10.00">string</text>
</a>
</g>
</g>
<!-- Node3&#45;&gt;Node4 -->
<g id="edge3" class="edge">
<title>Node3&#45;&gt;Node4</title>
<path fill="none" stroke="midnightblue" d="M641.43,-112.47C639.36,-99.06 633.68,-72.86 619.5,-56 606.72,-40.81 587.44,-29.75 571.01,-22.39"/>
<polygon fill="midnightblue" stroke="midnightblue" points="572.31,-19.14 561.74,-18.49 569.59,-25.59 572.31,-19.14"/>
</g>
<!-- Node3&#45;&gt;Node5 -->
<g id="edge4" class="edge">
<title>Node3&#45;&gt;Node5</title>
<path fill="none" stroke="midnightblue" d="M602.73,-112.44C558.94,-103.02 488.49,-87.87 441.12,-77.68"/>
<polygon fill="midnightblue" stroke="midnightblue" points="441.6,-74.2 431.09,-75.52 440.13,-81.04 441.6,-74.2"/>
</g>
<!-- Node6 -->
<g id="node6" class="node">
<title>Node6</title>
<g id="a_node6"><a xlink:href="container__request_8hpp.html" target="_top" xlink:title="Data structure for representing a container operation request.">
<polygon fill="white" stroke="black" points="468,-56.5 468,-75.5 611,-75.5 611,-56.5 468,-56.5"/>
<text text-anchor="middle" x="539.5" y="-63.5" font-family="Helvetica,sans-Serif" font-size="10.00">inc/container_request.hpp</text>
</a>
</g>
</g>
<!-- Node3&#45;&gt;Node6 -->
<g id="edge5" class="edge">
<title>Node3&#45;&gt;Node6</title>
<path fill="none" stroke="midnightblue" d="M625.95,-112.32C609.51,-103.7 584.07,-90.36 565.03,-80.39"/>
<polygon fill="midnightblue" stroke="midnightblue" points="566.49,-77.2 556.01,-75.65 563.24,-83.4 566.49,-77.2"/>
</g>
<!-- Node6&#45;&gt;Node4 -->
<g id="edge6" class="edge">
<title>Node6&#45;&gt;Node4</title>
<path fill="none" stroke="midnightblue" d="M539.5,-56.08C539.5,-49.01 539.5,-38.86 539.5,-29.99"/>
<polygon fill="midnightblue" stroke="midnightblue" points="543,-29.75 539.5,-19.75 536,-29.75 543,-29.75"/>
</g>
<!-- Node7&#45;&gt;Node4 -->
<g id="edge9" class="edge">
<title>Node7&#45;&gt;Node4</title>
<path fill="none" stroke="midnightblue" d="M100.34,-112.4C141.2,-99.01 223.42,-72.98 294.5,-56 370.17,-37.93 460.47,-23.03 507.48,-15.77"/>
<polygon fill="midnightblue" stroke="midnightblue" points="508.02,-19.23 517.38,-14.26 506.96,-12.31 508.02,-19.23"/>
</g>
<!-- Node7&#45;&gt;Node5 -->
<g id="edge10" class="edge">
<title>Node7&#45;&gt;Node5</title>
<path fill="none" stroke="midnightblue" d="M124.73,-112.44C180.84,-102.89 271.63,-87.42 331.45,-77.23"/>
<polygon fill="midnightblue" stroke="midnightblue" points="332.24,-80.65 341.51,-75.52 331.06,-73.75 332.24,-80.65"/>
</g>
<!-- Node8&#45;&gt;Node5 -->
<g id="edge12" class="edge">
<title>Node8&#45;&gt;Node5</title>
<path fill="none" stroke="midnightblue" d="M468.72,-112.32C454.23,-103.82 431.93,-90.73 415.01,-80.8"/>
<polygon fill="midnightblue" stroke="midnightblue" points="416.64,-77.7 406.24,-75.65 413.1,-83.74 416.64,-77.7"/>
</g>
<!-- Node8&#45;&gt;Node6 -->
<g id="edge13" class="edge">
<title>Node8&#45;&gt;Node6</title>
<path fill="none" stroke="midnightblue" d="M492.5,-112.32C500.69,-104.42 513.01,-92.55 522.97,-82.94"/>
<polygon fill="midnightblue" stroke="midnightblue" points="525.57,-85.29 530.34,-75.83 520.71,-80.26 525.57,-85.29"/>
</g>
<!-- Node9&#45;&gt;Node4 -->
<g id="edge17" class="edge">
<title>Node9&#45;&gt;Node4</title>
<path fill="none" stroke="midnightblue" d="M291.29,-168.46C291.23,-146.31 294.32,-86.62 327.5,-56 353.37,-32.13 454.67,-19.11 507.33,-13.84"/>
<polygon fill="midnightblue" stroke="midnightblue" points="507.86,-17.3 517.47,-12.85 507.18,-10.33 507.86,-17.3"/>
</g>
<!-- Node9&#45;&gt;Node5 -->
<g id="edge18" class="edge">
<title>Node9&#45;&gt;Node5</title>
<path fill="none" stroke="midnightblue" d="M299.35,-168.37C316.07,-149.97 355.44,-106.67 376.91,-83.05"/>
<polygon fill="midnightblue" stroke="midnightblue" points="379.55,-85.35 383.69,-75.59 374.37,-80.64 379.55,-85.35"/>
</g>
<!-- Node9&#45;&gt;Node7 -->
<g id="edge15" class="edge">
<title>Node9&#45;&gt;Node7</title>
<path fill="none" stroke="midnightblue" d="M257.12,-168.44C219.58,-159.1 159.37,-144.12 118.43,-133.93"/>
<polygon fill="midnightblue" stroke="midnightblue" points="119.27,-130.53 108.72,-131.52 117.58,-137.33 119.27,-130.53"/>
</g>
<!-- Node10 -->
<g id="node10" class="node">
<title>Node10</title>
<g id="a_node10"><a xlink:title=" ">
<polygon fill="white" stroke="#bfbfbf" points="167,-112.5 167,-131.5 280,-131.5 280,-112.5 167,-112.5"/>
<text text-anchor="middle" x="223.5" y="-119.5" font-family="Helvetica,sans-Serif" font-size="10.00">cpp_redis/cpp_redis</text>
</a>
</g>
</g>
<!-- Node9&#45;&gt;Node10 -->
<g id="edge16" class="edge">
<title>Node9&#45;&gt;Node10</title>
<path fill="none" stroke="midnightblue" d="M280.57,-168.32C270.33,-160.18 254.78,-147.84 242.5,-138.09"/>
<polygon fill="midnightblue" stroke="midnightblue" points="244.63,-135.31 234.62,-131.83 240.28,-140.79 244.63,-135.31"/>
</g>
<!-- Node11&#45;&gt;Node4 -->
<g id="edge20" class="edge">
<title>Node11&#45;&gt;Node4</title>
<path fill="none" stroke="midnightblue" d="M741.49,-168.18C739.59,-154.85 734.43,-129.29 721.5,-112 683.7,-61.44 612.73,-32.85 571.47,-19.79"/>
<polygon fill="midnightblue" stroke="midnightblue" points="572.25,-16.37 561.66,-16.8 570.21,-23.07 572.25,-16.37"/>
</g>
<!-- Node12 -->
<g id="node12" class="node">
<title>Node12</title>
<g id="a_node12"><a xlink:title=" ">
<polygon fill="white" stroke="#bfbfbf" points="769,-112.5 769,-131.5 842,-131.5 842,-112.5 769,-112.5"/>
<text text-anchor="middle" x="805.5" y="-119.5" font-family="Helvetica,sans-Serif" font-size="10.00">string_view</text>
</a>
</g>
</g>
<!-- Node11&#45;&gt;Node12 -->
<g id="edge21" class="edge">
<title>Node11&#45;&gt;Node12</title>
<path fill="none" stroke="midnightblue" d="M752.62,-168.32C762.03,-160.26 776.24,-148.08 787.57,-138.37"/>
<polygon fill="midnightblue" stroke="midnightblue" points="789.88,-141 795.19,-131.83 785.32,-135.68 789.88,-141"/>
</g>
<!-- Node13 -->
<g id="node13" class="node">
<title>Node13</title>
<g id="a_node13"><a xlink:title=" ">
<polygon fill="white" stroke="#bfbfbf" points="860,-112.5 860,-131.5 953,-131.5 953,-112.5 860,-112.5"/>
<text text-anchor="middle" x="906.5" y="-119.5" font-family="Helvetica,sans-Serif" font-size="10.00">unordered_map</text>
</a>
</g>
</g>
<!-- Node11&#45;&gt;Node13 -->
<g id="edge22" class="edge">
<title>Node11&#45;&gt;Node13</title>
<path fill="none" stroke="midnightblue" d="M768.49,-168.44C796.2,-159.32 840.25,-144.81 871.12,-134.65"/>
<polygon fill="midnightblue" stroke="midnightblue" points="872.23,-137.97 880.64,-131.52 870.04,-131.32 872.23,-137.97"/>
</g>
</g>
</svg>
