<?xml version="1.0" encoding="UTF-8" standalone="no"?>
<!DOCTYPE svg PUBLIC "-//W3C//DTD SVG 1.1//EN"
 "http://www.w3.org/Graphics/SVG/1.1/DTD/svg11.dtd">
<!-- Generated by graphviz version 2.43.0 (0)
 -->
<!-- Title: executor/inc/json_request_executor.hpp Pages: 1 -->
<svg width="488pt" height="207pt"
 viewBox="0.00 0.00 488.34 207.00" xmlns="http://www.w3.org/2000/svg" xmlns:xlink="http://www.w3.org/1999/xlink">
<g id="graph0" class="graph" transform="scale(1 1) rotate(0) translate(4 203)">
<title>executor/inc/json_request_executor.hpp</title>
<polygon fill="white" stroke="transparent" points="-4,4 -4,-203 484.34,-203 484.34,4 -4,4"/>
<!-- Node1 -->
<g id="node1" class="node">
<title>Node1</title>
<g id="a_node1"><a xlink:title="Declares the JsonRequestExecutorHandler class for executing JSON&#45;based requests.">
<polygon fill="#bfbfbf" stroke="black" points="195.25,-168.5 195.25,-198.5 337.25,-198.5 337.25,-168.5 195.25,-168.5"/>
<text text-anchor="start" x="203.25" y="-186.5" font-family="Helvetica,sans-Serif" font-size="10.00">executor/inc/json_request</text>
<text text-anchor="middle" x="266.25" y="-175.5" font-family="Helvetica,sans-Serif" font-size="10.00">_executor.hpp</text>
</a>
</g>
</g>
<!-- Node2 -->
<g id="node2" class="node">
<title>Node2</title>
<g id="a_node2"><a xlink:href="request__executor_8hpp.html" target="_top" xlink:title="Declares the abstract RequestExecutor interface for executing requests.">
<polygon fill="white" stroke="black" points="31.25,-112.5 31.25,-131.5 171.25,-131.5 171.25,-112.5 31.25,-112.5"/>
<text text-anchor="middle" x="101.25" y="-119.5" font-family="Helvetica,sans-Serif" font-size="10.00">inc/request_executor.hpp</text>
</a>
</g>
</g>
<!-- Node1&#45;&gt;Node2 -->
<g id="edge1" class="edge">
<title>Node1&#45;&gt;Node2</title>
<path fill="none" stroke="midnightblue" d="M227.15,-168.4C199.1,-158.28 161.68,-144.79 134.95,-135.15"/>
<polygon fill="midnightblue" stroke="midnightblue" points="135.86,-131.76 125.26,-131.66 133.48,-138.34 135.86,-131.76"/>
</g>
<!-- Node6 -->
<g id="node6" class="node">
<title>Node6</title>
<g id="a_node6"><a xlink:href="database__interface_8hpp.html" target="_top" xlink:title="Abstract interface for database operations.">
<polygon fill="white" stroke="black" points="317.75,-56.5 317.75,-75.5 466.75,-75.5 466.75,-56.5 317.75,-56.5"/>
<text text-anchor="middle" x="392.25" y="-63.5" font-family="Helvetica,sans-Serif" font-size="10.00">inc/database_interface.hpp</text>
</a>
</g>
</g>
<!-- Node1&#45;&gt;Node6 -->
<g id="edge6" class="edge">
<title>Node1&#45;&gt;Node6</title>
<path fill="none" stroke="midnightblue" d="M293.65,-168.4C309.74,-159.32 329.87,-146.53 345.25,-132 360.23,-117.86 373.58,-98.37 382.2,-84.42"/>
<polygon fill="midnightblue" stroke="midnightblue" points="385.23,-86.17 387.36,-75.79 379.22,-82.58 385.23,-86.17"/>
</g>
<!-- Node7 -->
<g id="node7" class="node">
<title>Node7</title>
<g id="a_node7"><a xlink:href="container__service_8hpp.html" target="_top" xlink:title="Declares the ContainerServiceHandler class for business logic related to containers.">
<polygon fill="white" stroke="black" points="195.75,-112.5 195.75,-131.5 336.75,-131.5 336.75,-112.5 195.75,-112.5"/>
<text text-anchor="middle" x="266.25" y="-119.5" font-family="Helvetica,sans-Serif" font-size="10.00">inc/container_service.hpp</text>
</a>
</g>
</g>
<!-- Node1&#45;&gt;Node7 -->
<g id="edge9" class="edge">
<title>Node1&#45;&gt;Node7</title>
<path fill="none" stroke="midnightblue" d="M266.25,-168.4C266.25,-160.47 266.25,-150.46 266.25,-141.86"/>
<polygon fill="midnightblue" stroke="midnightblue" points="269.75,-141.66 266.25,-131.66 262.75,-141.66 269.75,-141.66"/>
</g>
<!-- Node3 -->
<g id="node3" class="node">
<title>Node3</title>
<g id="a_node3"><a xlink:title=" ">
<polygon fill="white" stroke="#bfbfbf" points="150.25,-0.5 150.25,-19.5 194.25,-19.5 194.25,-0.5 150.25,-0.5"/>
<text text-anchor="middle" x="172.25" y="-7.5" font-family="Helvetica,sans-Serif" font-size="10.00">string</text>
</a>
</g>
</g>
<!-- Node2&#45;&gt;Node3 -->
<g id="edge2" class="edge">
<title>Node2&#45;&gt;Node3</title>
<path fill="none" stroke="midnightblue" d="M66.78,-112.48C31.61,-102.1 -15.13,-82.6 5.25,-56 21.54,-34.75 96.15,-21.27 139.94,-15.05"/>
<polygon fill="midnightblue" stroke="midnightblue" points="140.66,-18.48 150.09,-13.66 139.71,-11.55 140.66,-18.48"/>
</g>
<!-- Node4 -->
<g id="node4" class="node">
<title>Node4</title>
<g id="a_node4"><a xlink:title=" ">
<polygon fill="white" stroke="#bfbfbf" points="337.25,-0.5 337.25,-19.5 447.25,-19.5 447.25,-0.5 337.25,-0.5"/>
<text text-anchor="middle" x="392.25" y="-7.5" font-family="Helvetica,sans-Serif" font-size="10.00">nlohmann/json.hpp</text>
</a>
</g>
</g>
<!-- Node2&#45;&gt;Node4 -->
<g id="edge3" class="edge">
<title>Node2&#45;&gt;Node4</title>
<path fill="none" stroke="midnightblue" d="M113.97,-112.33C137.33,-96.52 186.41,-63.91 205.25,-56 244.23,-39.64 290.39,-28.46 327.1,-21.33"/>
<polygon fill="midnightblue" stroke="midnightblue" points="328.01,-24.72 337.18,-19.43 326.71,-17.84 328.01,-24.72"/>
</g>
<!-- Node5 -->
<g id="node5" class="node">
<title>Node5</title>
<g id="a_node5"><a xlink:href="container__request_8hpp.html" target="_top" xlink:title="Data structure for representing a container operation request.">
<polygon fill="white" stroke="black" points="14.75,-56.5 14.75,-75.5 157.75,-75.5 157.75,-56.5 14.75,-56.5"/>
<text text-anchor="middle" x="86.25" y="-63.5" font-family="Helvetica,sans-Serif" font-size="10.00">inc/container_request.hpp</text>
</a>
</g>
</g>
<!-- Node2&#45;&gt;Node5 -->
<g id="edge4" class="edge">
<title>Node2&#45;&gt;Node5</title>
<path fill="none" stroke="midnightblue" d="M98.78,-112.08C96.77,-104.85 93.87,-94.41 91.36,-85.4"/>
<polygon fill="midnightblue" stroke="midnightblue" points="94.73,-84.45 88.69,-75.75 87.99,-86.32 94.73,-84.45"/>
</g>
<!-- Node5&#45;&gt;Node3 -->
<g id="edge5" class="edge">
<title>Node5&#45;&gt;Node3</title>
<path fill="none" stroke="midnightblue" d="M100.07,-56.32C113.49,-47.9 134.08,-34.97 149.84,-25.07"/>
<polygon fill="midnightblue" stroke="midnightblue" points="151.86,-27.94 158.47,-19.65 148.14,-22.01 151.86,-27.94"/>
</g>
<!-- Node6&#45;&gt;Node3 -->
<g id="edge7" class="edge">
<title>Node6&#45;&gt;Node3</title>
<path fill="none" stroke="midnightblue" d="M357.4,-56.44C315.38,-46.13 245.33,-28.94 204.51,-18.92"/>
<polygon fill="midnightblue" stroke="midnightblue" points="205.1,-15.46 194.55,-16.47 203.43,-22.26 205.1,-15.46"/>
</g>
<!-- Node6&#45;&gt;Node4 -->
<g id="edge8" class="edge">
<title>Node6&#45;&gt;Node4</title>
<path fill="none" stroke="midnightblue" d="M392.25,-56.08C392.25,-49.01 392.25,-38.86 392.25,-29.99"/>
<polygon fill="midnightblue" stroke="midnightblue" points="395.75,-29.75 392.25,-19.75 388.75,-29.75 395.75,-29.75"/>
</g>
<!-- Node7&#45;&gt;Node4 -->
<g id="edge10" class="edge">
<title>Node7&#45;&gt;Node4</title>
<path fill="none" stroke="midnightblue" d="M336.98,-115.17C390.61,-109.11 457.97,-97.4 475.25,-76 493.05,-53.96 459,-34.82 429.28,-23.12"/>
<polygon fill="midnightblue" stroke="midnightblue" points="430.45,-19.82 419.86,-19.59 428,-26.37 430.45,-19.82"/>
</g>
<!-- Node7&#45;&gt;Node5 -->
<g id="edge14" class="edge">
<title>Node7&#45;&gt;Node5</title>
<path fill="none" stroke="midnightblue" d="M237.73,-112.44C207.19,-103.28 158.55,-88.69 124.65,-78.52"/>
<polygon fill="midnightblue" stroke="midnightblue" points="125.23,-75.04 114.64,-75.52 123.22,-81.74 125.23,-75.04"/>
</g>
<!-- Node7&#45;&gt;Node6 -->
<g id="edge13" class="edge">
<title>Node7&#45;&gt;Node6</title>
<path fill="none" stroke="midnightblue" d="M286.22,-112.44C306.86,-103.6 339.32,-89.69 362.89,-79.59"/>
<polygon fill="midnightblue" stroke="midnightblue" points="364.57,-82.67 372.38,-75.52 361.81,-76.24 364.57,-82.67"/>
</g>
<!-- Node8 -->
<g id="node8" class="node">
<title>Node8</title>
<g id="a_node8"><a xlink:href="status_8hpp.html" target="_top" xlink:title="Defines status codes and a Status struct for standardized error handling.">
<polygon fill="white" stroke="black" points="214.75,-56.5 214.75,-75.5 299.75,-75.5 299.75,-56.5 214.75,-56.5"/>
<text text-anchor="middle" x="257.25" y="-63.5" font-family="Helvetica,sans-Serif" font-size="10.00">inc/status.hpp</text>
</a>
</g>
</g>
<!-- Node7&#45;&gt;Node8 -->
<g id="edge11" class="edge">
<title>Node7&#45;&gt;Node8</title>
<path fill="none" stroke="midnightblue" d="M264.77,-112.08C263.58,-104.93 261.86,-94.64 260.37,-85.69"/>
<polygon fill="midnightblue" stroke="midnightblue" points="263.81,-85.04 258.71,-75.75 256.9,-86.19 263.81,-85.04"/>
</g>
<!-- Node8&#45;&gt;Node3 -->
<g id="edge12" class="edge">
<title>Node8&#45;&gt;Node3</title>
<path fill="none" stroke="midnightblue" d="M243.6,-56.32C230.34,-47.9 209.99,-34.97 194.41,-25.07"/>
<polygon fill="midnightblue" stroke="midnightblue" points="196.2,-22.06 185.88,-19.65 192.44,-27.97 196.2,-22.06"/>
</g>
</g>
</svg>
