<?xml version="1.0" encoding="UTF-8" standalone="no"?>
<!DOCTYPE svg PUBLIC "-//W3C//DTD SVG 1.1//EN"
 "http://www.w3.org/Graphics/SVG/1.1/DTD/svg11.dtd">
<!-- Generated by graphviz version 2.43.0 (0)
 -->
<!-- Title: executor/src/json_request_executor.cpp Pages: 1 -->
<svg width="856pt" height="263pt"
 viewBox="0.00 0.00 855.86 263.00" xmlns="http://www.w3.org/2000/svg" xmlns:xlink="http://www.w3.org/1999/xlink">
<g id="graph0" class="graph" transform="scale(1 1) rotate(0) translate(4 259)">
<title>executor/src/json_request_executor.cpp</title>
<polygon fill="white" stroke="transparent" points="-4,4 -4,-259 851.86,-259 851.86,4 -4,4"/>
<!-- Node1 -->
<g id="node1" class="node">
<title>Node1</title>
<g id="a_node1"><a xlink:title="Implements the JsonRequestExecutorHandler class for executing JSON&#45;based requests.">
<polygon fill="#bfbfbf" stroke="black" points="353.36,-224.5 353.36,-254.5 495.36,-254.5 495.36,-224.5 353.36,-224.5"/>
<text text-anchor="start" x="361.36" y="-242.5" font-family="Helvetica,sans-Serif" font-size="10.00">executor/src/json_request</text>
<text text-anchor="middle" x="424.36" y="-231.5" font-family="Helvetica,sans-Serif" font-size="10.00">_executor.cpp</text>
</a>
</g>
</g>
<!-- Node2 -->
<g id="node2" class="node">
<title>Node2</title>
<g id="a_node2"><a xlink:href="json__request__executor_8hpp.html" target="_top" xlink:title="Declares the JsonRequestExecutorHandler class for executing JSON&#45;based requests.">
<polygon fill="white" stroke="black" points="157.86,-168.5 157.86,-187.5 322.86,-187.5 322.86,-168.5 157.86,-168.5"/>
<text text-anchor="middle" x="240.36" y="-175.5" font-family="Helvetica,sans-Serif" font-size="10.00">inc/json_request_executor.hpp</text>
</a>
</g>
</g>
<!-- Node1&#45;&gt;Node2 -->
<g id="edge1" class="edge">
<title>Node1&#45;&gt;Node2</title>
<path fill="none" stroke="midnightblue" d="M380.76,-224.4C348.96,-214.12 306.39,-200.35 276.49,-190.68"/>
<polygon fill="midnightblue" stroke="midnightblue" points="277.46,-187.32 266.87,-187.57 275.31,-193.98 277.46,-187.32"/>
</g>
<!-- Node5 -->
<g id="node5" class="node">
<title>Node5</title>
<g id="a_node5"><a xlink:title=" ">
<polygon fill="white" stroke="#bfbfbf" points="39.36,-0.5 39.36,-19.5 149.36,-19.5 149.36,-0.5 39.36,-0.5"/>
<text text-anchor="middle" x="94.36" y="-7.5" font-family="Helvetica,sans-Serif" font-size="10.00">nlohmann/json.hpp</text>
</a>
</g>
</g>
<!-- Node1&#45;&gt;Node5 -->
<g id="edge16" class="edge">
<title>Node1&#45;&gt;Node5</title>
<path fill="none" stroke="midnightblue" d="M353.3,-231.94C275.33,-223.87 155.86,-208.65 115.36,-188 52.37,-155.88 29.57,-141.27 2.36,-76 -8.39,-50.21 21.51,-32.97 50.03,-22.76"/>
<polygon fill="midnightblue" stroke="midnightblue" points="51.22,-26.05 59.59,-19.56 49,-19.41 51.22,-26.05"/>
</g>
<!-- Node7 -->
<g id="node7" class="node">
<title>Node7</title>
<g id="a_node7"><a xlink:href="database__interface_8hpp.html" target="_top" xlink:title="Abstract interface for database operations.">
<polygon fill="white" stroke="black" points="19.86,-56.5 19.86,-75.5 168.86,-75.5 168.86,-56.5 19.86,-56.5"/>
<text text-anchor="middle" x="94.36" y="-63.5" font-family="Helvetica,sans-Serif" font-size="10.00">inc/database_interface.hpp</text>
</a>
</g>
</g>
<!-- Node1&#45;&gt;Node7 -->
<g id="edge17" class="edge">
<title>Node1&#45;&gt;Node7</title>
<path fill="none" stroke="midnightblue" d="M353.28,-237.86C294.92,-234.54 211.83,-223.21 148.36,-188 118.93,-171.67 110.24,-163.1 97.36,-132 91.35,-117.47 90.99,-99.52 91.91,-86.17"/>
<polygon fill="midnightblue" stroke="midnightblue" points="95.43,-86.11 92.94,-75.82 88.47,-85.42 95.43,-86.11"/>
</g>
<!-- Node8 -->
<g id="node8" class="node">
<title>Node8</title>
<g id="a_node8"><a xlink:href="container__service_8hpp.html" target="_top" xlink:title="Declares the ContainerServiceHandler class for business logic related to containers.">
<polygon fill="white" stroke="black" points="279.86,-112.5 279.86,-131.5 420.86,-131.5 420.86,-112.5 279.86,-112.5"/>
<text text-anchor="middle" x="350.36" y="-119.5" font-family="Helvetica,sans-Serif" font-size="10.00">inc/container_service.hpp</text>
</a>
</g>
</g>
<!-- Node1&#45;&gt;Node8 -->
<g id="edge18" class="edge">
<title>Node1&#45;&gt;Node8</title>
<path fill="none" stroke="midnightblue" d="M415.29,-224.34C401.71,-203.15 376.15,-163.24 361.47,-140.34"/>
<polygon fill="midnightblue" stroke="midnightblue" points="364.26,-138.2 355.92,-131.67 358.37,-141.98 364.26,-138.2"/>
</g>
<!-- Node9 -->
<g id="node9" class="node">
<title>Node9</title>
<g id="a_node9"><a xlink:href="status_8hpp.html" target="_top" xlink:title="Defines status codes and a Status struct for standardized error handling.">
<polygon fill="white" stroke="black" points="423.86,-56.5 423.86,-75.5 508.86,-75.5 508.86,-56.5 423.86,-56.5"/>
<text text-anchor="middle" x="466.36" y="-63.5" font-family="Helvetica,sans-Serif" font-size="10.00">inc/status.hpp</text>
</a>
</g>
</g>
<!-- Node1&#45;&gt;Node9 -->
<g id="edge28" class="edge">
<title>Node1&#45;&gt;Node9</title>
<path fill="none" stroke="midnightblue" d="M427.8,-224.47C435.33,-193.7 453.3,-120.33 461.78,-85.7"/>
<polygon fill="midnightblue" stroke="midnightblue" points="465.29,-86.11 464.27,-75.56 458.49,-84.44 465.29,-86.11"/>
</g>
<!-- Node10 -->
<g id="node10" class="node">
<title>Node10</title>
<g id="a_node10"><a xlink:href="redis__database_8hpp.html" target="_top" xlink:title="Declares the RedisDatabaseHandler class for Redis&#45;based database operations.">
<polygon fill="white" stroke="black" points="477.86,-112.5 477.86,-131.5 606.86,-131.5 606.86,-112.5 477.86,-112.5"/>
<text text-anchor="middle" x="542.36" y="-119.5" font-family="Helvetica,sans-Serif" font-size="10.00">inc/redis_database.hpp</text>
</a>
</g>
</g>
<!-- Node1&#45;&gt;Node10 -->
<g id="edge19" class="edge">
<title>Node1&#45;&gt;Node10</title>
<path fill="none" stroke="midnightblue" d="M438.83,-224.34C460.96,-202.68 503.08,-161.45 526.19,-138.83"/>
<polygon fill="midnightblue" stroke="midnightblue" points="528.81,-141.17 533.51,-131.67 523.91,-136.16 528.81,-141.17"/>
</g>
<!-- Node12 -->
<g id="node12" class="node">
<title>Node12</title>
<g id="a_node12"><a xlink:href="common_8hpp.html" target="_top" xlink:title="Defines common constants, string views, and utility structures for the application.">
<polygon fill="white" stroke="black" points="622.36,-168.5 622.36,-187.5 720.36,-187.5 720.36,-168.5 622.36,-168.5"/>
<text text-anchor="middle" x="671.36" y="-175.5" font-family="Helvetica,sans-Serif" font-size="10.00">inc/common.hpp</text>
</a>
</g>
</g>
<!-- Node1&#45;&gt;Node12 -->
<g id="edge24" class="edge">
<title>Node1&#45;&gt;Node12</title>
<path fill="none" stroke="midnightblue" d="M482.59,-224.47C526.5,-213.9 585.87,-199.59 626.22,-189.87"/>
<polygon fill="midnightblue" stroke="midnightblue" points="627.15,-193.25 636.05,-187.51 625.51,-186.45 627.15,-193.25"/>
</g>
<!-- Node15 -->
<g id="node15" class="node">
<title>Node15</title>
<g id="a_node15"><a xlink:title=" ">
<polygon fill="white" stroke="#bfbfbf" points="738.36,-168.5 738.36,-187.5 798.36,-187.5 798.36,-168.5 738.36,-168.5"/>
<text text-anchor="middle" x="768.36" y="-175.5" font-family="Helvetica,sans-Serif" font-size="10.00">iostream</text>
</a>
</g>
</g>
<!-- Node1&#45;&gt;Node15 -->
<g id="edge29" class="edge">
<title>Node1&#45;&gt;Node15</title>
<path fill="none" stroke="midnightblue" d="M495.46,-228.02C555.12,-218.93 642.8,-204.88 728.3,-188.12"/>
<polygon fill="midnightblue" stroke="midnightblue" points="729.04,-191.54 738.17,-186.16 727.68,-184.67 729.04,-191.54"/>
</g>
<!-- Node3 -->
<g id="node3" class="node">
<title>Node3</title>
<g id="a_node3"><a xlink:href="request__executor_8hpp.html" target="_top" xlink:title="Declares the abstract RequestExecutor interface for executing requests.">
<polygon fill="white" stroke="black" points="121.36,-112.5 121.36,-131.5 261.36,-131.5 261.36,-112.5 121.36,-112.5"/>
<text text-anchor="middle" x="191.36" y="-119.5" font-family="Helvetica,sans-Serif" font-size="10.00">inc/request_executor.hpp</text>
</a>
</g>
</g>
<!-- Node2&#45;&gt;Node3 -->
<g id="edge2" class="edge">
<title>Node2&#45;&gt;Node3</title>
<path fill="none" stroke="midnightblue" d="M232.27,-168.08C225.21,-160.3 214.78,-148.8 206.21,-139.37"/>
<polygon fill="midnightblue" stroke="midnightblue" points="208.62,-136.8 199.3,-131.75 203.43,-141.51 208.62,-136.8"/>
</g>
<!-- Node2&#45;&gt;Node7 -->
<g id="edge7" class="edge">
<title>Node2&#45;&gt;Node7</title>
<path fill="none" stroke="midnightblue" d="M180.87,-168.43C156.65,-162.1 130.21,-151.11 112.36,-132 100.76,-119.58 96.53,-100.34 95.04,-86.01"/>
<polygon fill="midnightblue" stroke="midnightblue" points="98.51,-85.54 94.34,-75.8 91.53,-86.01 98.51,-85.54"/>
</g>
<!-- Node2&#45;&gt;Node8 -->
<g id="edge10" class="edge">
<title>Node2&#45;&gt;Node8</title>
<path fill="none" stroke="midnightblue" d="M258.04,-168.32C275.76,-159.62 303.27,-146.12 323.65,-136.11"/>
<polygon fill="midnightblue" stroke="midnightblue" points="325.3,-139.2 332.73,-131.65 322.21,-132.92 325.3,-139.2"/>
</g>
<!-- Node4 -->
<g id="node4" class="node">
<title>Node4</title>
<g id="a_node4"><a xlink:title=" ">
<polygon fill="white" stroke="#bfbfbf" points="378.36,-0.5 378.36,-19.5 422.36,-19.5 422.36,-0.5 378.36,-0.5"/>
<text text-anchor="middle" x="400.36" y="-7.5" font-family="Helvetica,sans-Serif" font-size="10.00">string</text>
</a>
</g>
</g>
<!-- Node3&#45;&gt;Node4 -->
<g id="edge3" class="edge">
<title>Node3&#45;&gt;Node4</title>
<path fill="none" stroke="midnightblue" d="M197.2,-112.5C207.14,-98.65 228.68,-71.24 253.36,-56 289.38,-33.77 337.18,-21.81 368.34,-15.93"/>
<polygon fill="midnightblue" stroke="midnightblue" points="369.01,-19.37 378.24,-14.16 367.78,-12.48 369.01,-19.37"/>
</g>
<!-- Node3&#45;&gt;Node5 -->
<g id="edge4" class="edge">
<title>Node3&#45;&gt;Node5</title>
<path fill="none" stroke="midnightblue" d="M121.19,-112.5C76.39,-105.47 24.22,-93.73 10.36,-76 -7.16,-53.59 26.96,-34.58 56.83,-23.01"/>
<polygon fill="midnightblue" stroke="midnightblue" points="58.13,-26.26 66.31,-19.52 55.71,-19.69 58.13,-26.26"/>
</g>
<!-- Node6 -->
<g id="node6" class="node">
<title>Node6</title>
<g id="a_node6"><a xlink:href="container__request_8hpp.html" target="_top" xlink:title="Data structure for representing a container operation request.">
<polygon fill="white" stroke="black" points="262.86,-56.5 262.86,-75.5 405.86,-75.5 405.86,-56.5 262.86,-56.5"/>
<text text-anchor="middle" x="334.36" y="-63.5" font-family="Helvetica,sans-Serif" font-size="10.00">inc/container_request.hpp</text>
</a>
</g>
</g>
<!-- Node3&#45;&gt;Node6 -->
<g id="edge5" class="edge">
<title>Node3&#45;&gt;Node6</title>
<path fill="none" stroke="midnightblue" d="M214.02,-112.44C237.76,-103.48 275.27,-89.31 302.1,-79.18"/>
<polygon fill="midnightblue" stroke="midnightblue" points="303.69,-82.32 311.81,-75.52 301.22,-75.77 303.69,-82.32"/>
</g>
<!-- Node6&#45;&gt;Node4 -->
<g id="edge6" class="edge">
<title>Node6&#45;&gt;Node4</title>
<path fill="none" stroke="midnightblue" d="M344.97,-56.32C354.82,-48.26 369.71,-36.08 381.58,-26.37"/>
<polygon fill="midnightblue" stroke="midnightblue" points="384.04,-28.88 389.57,-19.83 379.61,-23.46 384.04,-28.88"/>
</g>
<!-- Node7&#45;&gt;Node4 -->
<g id="edge8" class="edge">
<title>Node7&#45;&gt;Node4</title>
<path fill="none" stroke="midnightblue" d="M142.85,-56.44C205.89,-45.32 314.27,-26.19 368.09,-16.7"/>
<polygon fill="midnightblue" stroke="midnightblue" points="368.86,-20.11 378.1,-14.93 367.64,-13.22 368.86,-20.11"/>
</g>
<!-- Node7&#45;&gt;Node5 -->
<g id="edge9" class="edge">
<title>Node7&#45;&gt;Node5</title>
<path fill="none" stroke="midnightblue" d="M94.36,-56.08C94.36,-49.01 94.36,-38.86 94.36,-29.99"/>
<polygon fill="midnightblue" stroke="midnightblue" points="97.86,-29.75 94.36,-19.75 90.86,-29.75 97.86,-29.75"/>
</g>
<!-- Node8&#45;&gt;Node5 -->
<g id="edge11" class="edge">
<title>Node8&#45;&gt;Node5</title>
<path fill="none" stroke="midnightblue" d="M330.28,-112.37C285.32,-93.05 176.42,-46.26 123.8,-23.65"/>
<polygon fill="midnightblue" stroke="midnightblue" points="124.93,-20.32 114.36,-19.59 122.16,-26.76 124.93,-20.32"/>
</g>
<!-- Node8&#45;&gt;Node6 -->
<g id="edge15" class="edge">
<title>Node8&#45;&gt;Node6</title>
<path fill="none" stroke="midnightblue" d="M347.72,-112.08C345.58,-104.85 342.48,-94.41 339.81,-85.4"/>
<polygon fill="midnightblue" stroke="midnightblue" points="343.15,-84.34 336.96,-75.75 336.44,-86.33 343.15,-84.34"/>
</g>
<!-- Node8&#45;&gt;Node7 -->
<g id="edge14" class="edge">
<title>Node8&#45;&gt;Node7</title>
<path fill="none" stroke="midnightblue" d="M309.8,-112.44C265.05,-103 192.98,-87.8 144.67,-77.61"/>
<polygon fill="midnightblue" stroke="midnightblue" points="145.24,-74.16 134.74,-75.52 143.8,-81.01 145.24,-74.16"/>
</g>
<!-- Node8&#45;&gt;Node9 -->
<g id="edge12" class="edge">
<title>Node8&#45;&gt;Node9</title>
<path fill="none" stroke="midnightblue" d="M368.74,-112.44C387.58,-103.68 417.09,-89.94 438.74,-79.86"/>
<polygon fill="midnightblue" stroke="midnightblue" points="440.48,-82.91 448.07,-75.52 437.53,-76.56 440.48,-82.91"/>
</g>
<!-- Node9&#45;&gt;Node4 -->
<g id="edge13" class="edge">
<title>Node9&#45;&gt;Node4</title>
<path fill="none" stroke="midnightblue" d="M455.76,-56.32C445.91,-48.26 431.01,-36.08 419.15,-26.37"/>
<polygon fill="midnightblue" stroke="midnightblue" points="421.12,-23.46 411.16,-19.83 416.68,-28.88 421.12,-23.46"/>
</g>
<!-- Node10&#45;&gt;Node4 -->
<g id="edge22" class="edge">
<title>Node10&#45;&gt;Node4</title>
<path fill="none" stroke="midnightblue" d="M547.07,-112.46C553.76,-99.03 563.89,-72.81 551.36,-56 524.18,-19.53 468.59,-11.45 432.98,-10.27"/>
<polygon fill="midnightblue" stroke="midnightblue" points="432.67,-6.76 422.62,-10.1 432.56,-13.76 432.67,-6.76"/>
</g>
<!-- Node10&#45;&gt;Node5 -->
<g id="edge23" class="edge">
<title>Node10&#45;&gt;Node5</title>
<path fill="none" stroke="midnightblue" d="M541.78,-112.15C540.32,-97.8 535.2,-69.7 517.36,-56 489.64,-34.71 271.53,-20.3 159.83,-14.23"/>
<polygon fill="midnightblue" stroke="midnightblue" points="159.86,-10.73 149.69,-13.69 159.49,-17.72 159.86,-10.73"/>
</g>
<!-- Node10&#45;&gt;Node7 -->
<g id="edge20" class="edge">
<title>Node10&#45;&gt;Node7</title>
<path fill="none" stroke="midnightblue" d="M477.7,-113.21C397.75,-103.57 261.66,-87.16 174.98,-76.72"/>
<polygon fill="midnightblue" stroke="midnightblue" points="175.27,-73.23 164.92,-75.5 174.43,-80.18 175.27,-73.23"/>
</g>
<!-- Node11 -->
<g id="node11" class="node">
<title>Node11</title>
<g id="a_node11"><a xlink:title=" ">
<polygon fill="white" stroke="#bfbfbf" points="603.86,-56.5 603.86,-75.5 716.86,-75.5 716.86,-56.5 603.86,-56.5"/>
<text text-anchor="middle" x="660.36" y="-63.5" font-family="Helvetica,sans-Serif" font-size="10.00">cpp_redis/cpp_redis</text>
</a>
</g>
</g>
<!-- Node10&#45;&gt;Node11 -->
<g id="edge21" class="edge">
<title>Node10&#45;&gt;Node11</title>
<path fill="none" stroke="midnightblue" d="M561.06,-112.44C580.31,-103.64 610.52,-89.81 632.56,-79.72"/>
<polygon fill="midnightblue" stroke="midnightblue" points="634.12,-82.86 641.75,-75.52 631.2,-76.5 634.12,-82.86"/>
</g>
<!-- Node12&#45;&gt;Node4 -->
<g id="edge25" class="edge">
<title>Node12&#45;&gt;Node4</title>
<path fill="none" stroke="midnightblue" d="M688.56,-168.39C701.61,-160.79 718.6,-148.39 726.36,-132 740.83,-101.48 748.55,-81.47 726.36,-56 688.44,-12.48 507.28,-9.63 432.63,-10.36"/>
<polygon fill="midnightblue" stroke="midnightblue" points="432.37,-6.86 422.42,-10.48 432.46,-13.86 432.37,-6.86"/>
</g>
<!-- Node13 -->
<g id="node13" class="node">
<title>Node13</title>
<g id="a_node13"><a xlink:title=" ">
<polygon fill="white" stroke="#bfbfbf" points="774.86,-112.5 774.86,-131.5 847.86,-131.5 847.86,-112.5 774.86,-112.5"/>
<text text-anchor="middle" x="811.36" y="-119.5" font-family="Helvetica,sans-Serif" font-size="10.00">string_view</text>
</a>
</g>
</g>
<!-- Node12&#45;&gt;Node13 -->
<g id="edge26" class="edge">
<title>Node12&#45;&gt;Node13</title>
<path fill="none" stroke="midnightblue" d="M693.55,-168.44C716.79,-159.48 753.51,-145.31 779.78,-135.18"/>
<polygon fill="midnightblue" stroke="midnightblue" points="781.21,-138.38 789.28,-131.52 778.69,-131.85 781.21,-138.38"/>
</g>
<!-- Node14 -->
<g id="node14" class="node">
<title>Node14</title>
<g id="a_node14"><a xlink:title=" ">
<polygon fill="white" stroke="#bfbfbf" points="624.86,-112.5 624.86,-131.5 717.86,-131.5 717.86,-112.5 624.86,-112.5"/>
<text text-anchor="middle" x="671.36" y="-119.5" font-family="Helvetica,sans-Serif" font-size="10.00">unordered_map</text>
</a>
</g>
</g>
<!-- Node12&#45;&gt;Node14 -->
<g id="edge27" class="edge">
<title>Node12&#45;&gt;Node14</title>
<path fill="none" stroke="midnightblue" d="M671.36,-168.08C671.36,-161.01 671.36,-150.86 671.36,-141.99"/>
<polygon fill="midnightblue" stroke="midnightblue" points="674.86,-141.75 671.36,-131.75 667.86,-141.75 674.86,-141.75"/>
</g>
</g>
</svg>
