<?xml version="1.0" encoding="UTF-8" standalone="no"?>
<!DOCTYPE svg PUBLIC "-//W3C//DTD SVG 1.1//EN"
 "http://www.w3.org/Graphics/SVG/1.1/DTD/svg11.dtd">
<!-- Generated by graphviz version 2.43.0 (0)
 -->
<!-- Title: executor/inc/json_request_executor.hpp Pages: 1 -->
<svg width="434pt" height="207pt"
 viewBox="0.00 0.00 433.50 207.00" xmlns="http://www.w3.org/2000/svg" xmlns:xlink="http://www.w3.org/1999/xlink">
<g id="graph0" class="graph" transform="scale(1 1) rotate(0) translate(4 203)">
<title>executor/inc/json_request_executor.hpp</title>
<polygon fill="white" stroke="transparent" points="-4,4 -4,-203 429.5,-203 429.5,4 -4,4"/>
<!-- Node1 -->
<g id="node1" class="node">
<title>Node1</title>
<g id="a_node1"><a xlink:title="Declares the JsonRequestExecutorHandler class for executing JSON&#45;based requests.">
<polygon fill="#bfbfbf" stroke="black" points="178,-168.5 178,-198.5 320,-198.5 320,-168.5 178,-168.5"/>
<text text-anchor="start" x="186" y="-186.5" font-family="Helvetica,sans-Serif" font-size="10.00">executor/inc/json_request</text>
<text text-anchor="middle" x="249" y="-175.5" font-family="Helvetica,sans-Serif" font-size="10.00">_executor.hpp</text>
</a>
</g>
</g>
<!-- Node2 -->
<g id="node2" class="node">
<title>Node2</title>
<g id="a_node2"><a xlink:href="request__executor_8hpp.html" target="_top" xlink:title="Declares the abstract RequestExecutor interface for executing requests.">
<polygon fill="white" stroke="black" points="0,-112.5 0,-131.5 140,-131.5 140,-112.5 0,-112.5"/>
<text text-anchor="middle" x="70" y="-119.5" font-family="Helvetica,sans-Serif" font-size="10.00">inc/request_executor.hpp</text>
</a>
</g>
</g>
<!-- Node1&#45;&gt;Node2 -->
<g id="edge1" class="edge">
<title>Node1&#45;&gt;Node2</title>
<path fill="none" stroke="midnightblue" d="M206.58,-168.4C175.78,-158.16 134.59,-144.47 105.52,-134.81"/>
<polygon fill="midnightblue" stroke="midnightblue" points="106.38,-131.4 95.78,-131.57 104.17,-138.05 106.38,-131.4"/>
</g>
<!-- Node6 -->
<g id="node6" class="node">
<title>Node6</title>
<g id="a_node6"><a xlink:href="database__interface_8hpp.html" target="_top" xlink:title="Abstract interface for database operations.">
<polygon fill="white" stroke="black" points="276.5,-56.5 276.5,-75.5 425.5,-75.5 425.5,-56.5 276.5,-56.5"/>
<text text-anchor="middle" x="351" y="-63.5" font-family="Helvetica,sans-Serif" font-size="10.00">inc/database_interface.hpp</text>
</a>
</g>
</g>
<!-- Node1&#45;&gt;Node6 -->
<g id="edge6" class="edge">
<title>Node1&#45;&gt;Node6</title>
<path fill="none" stroke="midnightblue" d="M281.62,-168.42C297.85,-159.95 316.6,-147.74 329,-132 339.58,-118.56 345.22,-99.74 348.12,-85.81"/>
<polygon fill="midnightblue" stroke="midnightblue" points="351.58,-86.35 349.91,-75.88 344.69,-85.1 351.58,-86.35"/>
</g>
<!-- Node7 -->
<g id="node7" class="node">
<title>Node7</title>
<g id="a_node7"><a xlink:href="container__service_8hpp.html" target="_top" xlink:title="Declares the ContainerServiceHandler class for business logic related to containers.">
<polygon fill="white" stroke="black" points="178.5,-112.5 178.5,-131.5 319.5,-131.5 319.5,-112.5 178.5,-112.5"/>
<text text-anchor="middle" x="249" y="-119.5" font-family="Helvetica,sans-Serif" font-size="10.00">inc/container_service.hpp</text>
</a>
</g>
</g>
<!-- Node1&#45;&gt;Node7 -->
<g id="edge9" class="edge">
<title>Node1&#45;&gt;Node7</title>
<path fill="none" stroke="midnightblue" d="M249,-168.4C249,-160.47 249,-150.46 249,-141.86"/>
<polygon fill="midnightblue" stroke="midnightblue" points="252.5,-141.66 249,-131.66 245.5,-141.66 252.5,-141.66"/>
</g>
<!-- Node3 -->
<g id="node3" class="node">
<title>Node3</title>
<g id="a_node3"><a xlink:title=" ">
<polygon fill="white" stroke="#bfbfbf" points="127,-0.5 127,-19.5 171,-19.5 171,-0.5 127,-0.5"/>
<text text-anchor="middle" x="149" y="-7.5" font-family="Helvetica,sans-Serif" font-size="10.00">string</text>
</a>
</g>
</g>
<!-- Node2&#45;&gt;Node3 -->
<g id="edge2" class="edge">
<title>Node2&#45;&gt;Node3</title>
<path fill="none" stroke="midnightblue" d="M59.15,-112.26C44.6,-99.46 22.02,-75.07 35,-56 53.17,-29.29 89.9,-18.43 116.77,-14.02"/>
<polygon fill="midnightblue" stroke="midnightblue" points="117.47,-17.45 126.88,-12.58 116.49,-10.52 117.47,-17.45"/>
</g>
<!-- Node4 -->
<g id="node4" class="node">
<title>Node4</title>
<g id="a_node4"><a xlink:title=" ">
<polygon fill="white" stroke="#bfbfbf" points="194,-0.5 194,-19.5 304,-19.5 304,-0.5 194,-0.5"/>
<text text-anchor="middle" x="249" y="-7.5" font-family="Helvetica,sans-Serif" font-size="10.00">nlohmann/json.hpp</text>
</a>
</g>
</g>
<!-- Node2&#45;&gt;Node4 -->
<g id="edge3" class="edge">
<title>Node2&#45;&gt;Node4</title>
<path fill="none" stroke="midnightblue" d="M66.58,-112.35C61.84,-98.78 55.2,-72.37 68,-56 75.81,-46.01 141.88,-31.39 191.96,-21.55"/>
<polygon fill="midnightblue" stroke="midnightblue" points="192.91,-24.93 202.06,-19.59 191.57,-18.06 192.91,-24.93"/>
</g>
<!-- Node5 -->
<g id="node5" class="node">
<title>Node5</title>
<g id="a_node5"><a xlink:href="container__request_8hpp.html" target="_top" xlink:title="Data structure for representing a container operation request.">
<polygon fill="white" stroke="black" points="77.5,-56.5 77.5,-75.5 220.5,-75.5 220.5,-56.5 77.5,-56.5"/>
<text text-anchor="middle" x="149" y="-63.5" font-family="Helvetica,sans-Serif" font-size="10.00">inc/container_request.hpp</text>
</a>
</g>
</g>
<!-- Node2&#45;&gt;Node5 -->
<g id="edge4" class="edge">
<title>Node2&#45;&gt;Node5</title>
<path fill="none" stroke="midnightblue" d="M82.69,-112.32C94.9,-103.98 113.58,-91.21 128,-81.35"/>
<polygon fill="midnightblue" stroke="midnightblue" points="130.06,-84.19 136.34,-75.65 126.11,-78.41 130.06,-84.19"/>
</g>
<!-- Node5&#45;&gt;Node3 -->
<g id="edge5" class="edge">
<title>Node5&#45;&gt;Node3</title>
<path fill="none" stroke="midnightblue" d="M149,-56.08C149,-49.01 149,-38.86 149,-29.99"/>
<polygon fill="midnightblue" stroke="midnightblue" points="152.5,-29.75 149,-19.75 145.5,-29.75 152.5,-29.75"/>
</g>
<!-- Node6&#45;&gt;Node3 -->
<g id="edge7" class="edge">
<title>Node6&#45;&gt;Node3</title>
<path fill="none" stroke="midnightblue" d="M318.99,-56.44C281.27,-46.36 218.94,-29.7 181.15,-19.6"/>
<polygon fill="midnightblue" stroke="midnightblue" points="181.75,-16.13 171.19,-16.93 179.94,-22.89 181.75,-16.13"/>
</g>
<!-- Node6&#45;&gt;Node4 -->
<g id="edge8" class="edge">
<title>Node6&#45;&gt;Node4</title>
<path fill="none" stroke="midnightblue" d="M334.61,-56.32C318.33,-47.7 293.13,-34.36 274.28,-24.39"/>
<polygon fill="midnightblue" stroke="midnightblue" points="275.82,-21.24 265.35,-19.65 272.55,-27.43 275.82,-21.24"/>
</g>
<!-- Node7&#45;&gt;Node4 -->
<g id="edge10" class="edge">
<title>Node7&#45;&gt;Node4</title>
<path fill="none" stroke="midnightblue" d="M249,-112.37C249,-94.62 249,-53.67 249,-29.6"/>
<polygon fill="midnightblue" stroke="midnightblue" points="252.5,-29.59 249,-19.59 245.5,-29.59 252.5,-29.59"/>
</g>
<!-- Node7&#45;&gt;Node5 -->
<g id="edge12" class="edge">
<title>Node7&#45;&gt;Node5</title>
<path fill="none" stroke="midnightblue" d="M232.93,-112.32C217.04,-103.74 192.49,-90.49 174.04,-80.52"/>
<polygon fill="midnightblue" stroke="midnightblue" points="175.49,-77.33 165.03,-75.65 172.16,-83.49 175.49,-77.33"/>
</g>
<!-- Node7&#45;&gt;Node6 -->
<g id="edge11" class="edge">
<title>Node7&#45;&gt;Node6</title>
<path fill="none" stroke="midnightblue" d="M265.39,-112.32C281.67,-103.7 306.87,-90.36 325.72,-80.39"/>
<polygon fill="midnightblue" stroke="midnightblue" points="327.45,-83.43 334.65,-75.65 324.18,-77.24 327.45,-83.43"/>
</g>
</g>
</svg>
