<?xml version="1.0" encoding="UTF-8" standalone="no"?>
<!DOCTYPE svg PUBLIC "-//W3C//DTD SVG 1.1//EN"
 "http://www.w3.org/Graphics/SVG/1.1/DTD/svg11.dtd">
<!-- Generated by graphviz version 2.43.0 (0)
 -->
<!-- Title: main Pages: 1 -->
<svg width="416pt" height="100pt"
 viewBox="0.00 0.00 416.00 99.50" xmlns="http://www.w3.org/2000/svg" xmlns:xlink="http://www.w3.org/1999/xlink">
<g id="graph0" class="graph" transform="scale(1 1) rotate(0) translate(4 95.5)">
<title>main</title>
<polygon fill="white" stroke="transparent" points="-4,4 -4,-95.5 412,-95.5 412,4 -4,4"/>
<!-- Node1 -->
<g id="node1" class="node">
<title>Node1</title>
<g id="a_node1"><a xlink:title=" ">
<polygon fill="#bfbfbf" stroke="black" points="0,-28 0,-47 41,-47 41,-28 0,-28"/>
<text text-anchor="middle" x="20.5" y="-35" font-family="Helvetica,sans-Serif" font-size="10.00">main</text>
</a>
</g>
</g>
<!-- Node2 -->
<g id="node2" class="node">
<title>Node2</title>
<g id="a_node2"><a xlink:href="init__handler_8hpp.html#ad98029164064eb3e856369697d9cc015" target="_top" xlink:title="Initializes logging and clears the database before server startup.">
<polygon fill="white" stroke="black" points="100.5,-50 100.5,-69 166.5,-69 166.5,-50 100.5,-50"/>
<text text-anchor="middle" x="133.5" y="-57" font-family="Helvetica,sans-Serif" font-size="10.00">InitProject</text>
</a>
</g>
</g>
<!-- Node1&#45;&gt;Node2 -->
<g id="edge1" class="edge">
<title>Node1&#45;&gt;Node2</title>
<path fill="none" stroke="midnightblue" d="M41.09,-41.38C54.59,-44.06 73.07,-47.72 89.87,-51.05"/>
<polygon fill="midnightblue" stroke="midnightblue" points="89.57,-54.56 100.06,-53.07 90.94,-47.69 89.57,-54.56"/>
</g>
<!-- Node5 -->
<g id="node5" class="node">
<title>Node5</title>
<g id="a_node5"><a xlink:href="classHttpServerHandler.html#aae9b51422a14fe6f1f3a1872da1ff823" target="_top" xlink:title="Starts the HTTP server on the specified port.">
<polygon fill="white" stroke="black" points="77,-0.5 77,-30.5 190,-30.5 190,-0.5 77,-0.5"/>
<text text-anchor="start" x="85" y="-18.5" font-family="Helvetica,sans-Serif" font-size="10.00">HttpServerHandler::</text>
<text text-anchor="middle" x="133.5" y="-7.5" font-family="Helvetica,sans-Serif" font-size="10.00">Start</text>
</a>
</g>
</g>
<!-- Node1&#45;&gt;Node5 -->
<g id="edge4" class="edge">
<title>Node1&#45;&gt;Node5</title>
<path fill="none" stroke="midnightblue" d="M41.09,-33.62C48.57,-32.13 57.58,-30.35 66.99,-28.48"/>
<polygon fill="midnightblue" stroke="midnightblue" points="67.76,-31.9 76.89,-26.52 66.4,-25.03 67.76,-31.9"/>
</g>
<!-- Node3 -->
<g id="node3" class="node">
<title>Node3</title>
<g id="a_node3"><a xlink:href="classIDatabaseHandler.html#a79f638c8332acdfb054d1f915f77c760" target="_top" xlink:title="Clears all data from the database.">
<polygon fill="white" stroke="black" points="226,-72 226,-91 408,-91 408,-72 226,-72"/>
<text text-anchor="middle" x="317" y="-79" font-family="Helvetica,sans-Serif" font-size="10.00">IDatabaseHandler::ClearDatabase</text>
</a>
</g>
</g>
<!-- Node2&#45;&gt;Node3 -->
<g id="edge2" class="edge">
<title>Node2&#45;&gt;Node3</title>
<path fill="none" stroke="midnightblue" d="M166.53,-63.38C183.65,-65.46 205.66,-68.13 227.49,-70.77"/>
<polygon fill="midnightblue" stroke="midnightblue" points="227.15,-74.26 237.49,-71.98 227.99,-67.31 227.15,-74.26"/>
</g>
<!-- Node4 -->
<g id="node4" class="node">
<title>Node4</title>
<g id="a_node4"><a xlink:href="classRedisDatabaseHandler.html#a07c65b208d5997ec20ed239dca4081ce" target="_top" xlink:title="Retrieves the singleton instance of the RedisDatabaseHandler.">
<polygon fill="white" stroke="black" points="253,-22.5 253,-52.5 381,-52.5 381,-22.5 253,-22.5"/>
<text text-anchor="start" x="261" y="-40.5" font-family="Helvetica,sans-Serif" font-size="10.00">RedisDatabaseHandler</text>
<text text-anchor="middle" x="317" y="-29.5" font-family="Helvetica,sans-Serif" font-size="10.00">::GetInstance</text>
</a>
</g>
</g>
<!-- Node2&#45;&gt;Node4 -->
<g id="edge3" class="edge">
<title>Node2&#45;&gt;Node4</title>
<path fill="none" stroke="midnightblue" d="M166.53,-55.62C187.65,-53.06 216.2,-49.6 242.69,-46.39"/>
<polygon fill="midnightblue" stroke="midnightblue" points="243.21,-49.85 252.72,-45.17 242.37,-42.9 243.21,-49.85"/>
</g>
</g>
</svg>
