<?xml version="1.0" encoding="UTF-8" standalone="no"?>
<!DOCTYPE svg PUBLIC "-//W3C//DTD SVG 1.1//EN"
 "http://www.w3.org/Graphics/SVG/1.1/DTD/svg11.dtd">
<!-- Generated by graphviz version 2.43.0 (0)
 -->
<!-- Title: main.cpp Pages: 1 -->
<!--zoomable 319 -->
<svg id="main" version="1.1" xmlns="http://www.w3.org/2000/svg" xmlns:xlink="http://www.w3.org/1999/xlink" xml:space="preserve" onload="init(evt)">
<style type="text/css"><![CDATA[
.edge:hover path { stroke: red; }
.edge:hover polygon { stroke: red; fill: red; }
]]></style>
<script type="text/javascript"><![CDATA[
var edges = document.getElementsByTagName('g');
if (edges && edges.length) {
  for (var i=0;i<edges.length;i++) {
    if (edges[i].id.substr(0,4)=='edge') {
      edges[i].setAttribute('class','edge');
    }
  }
}
]]></script>
        <defs>
                <circle id="rim" cx="0" cy="0" r="7"/>
                <circle id="rim2" cx="0" cy="0" r="3.5"/>
                <g id="zoomPlus">
                        <use xlink:href="#rim" fill="#404040">
                                <set attributeName="fill" to="#808080" begin="zoomplus.mouseover" end="zoomplus.mouseout"/>
                        </use>
                        <path d="M-4,0h8M0,-4v8" fill="none" stroke="white" stroke-width="1.5" pointer-events="none"/>
                </g>
                <g id="zoomMin">
                        <use xlink:href="#rim" fill="#404040">
                                <set attributeName="fill" to="#808080" begin="zoomminus.mouseover" end="zoomminus.mouseout"/>
                        </use>
                        <path d="M-4,0h8" fill="none" stroke="white" stroke-width="1.5" pointer-events="none"/>
                </g>
                <g id="dirArrow">
                        <path fill="none" stroke="white" stroke-width="1.5" d="M0,-3.0v7 M-2.5,-0.5L0,-3.0L2.5,-0.5"/>
                </g>
               <g id="resetDef">
                       <use xlink:href="#rim2" fill="#404040">
                               <set attributeName="fill" to="#808080" begin="reset.mouseover" end="reset.mouseout"/>
                       </use>
               </g>
        </defs>

<script type="text/javascript">
var viewWidth = 1413;
var viewHeight = 319;
var sectionId = 'dynsection-0';
</script>
<script xlink:href="svgpan.js"/>
<svg id="graph" class="graph">
<g id="viewport">
<title>main.cpp</title>
<polygon fill="white" stroke="transparent" points="-4,4 -4,-315 1409,-315 1409,4 -4,4"/>
<!-- Node1 -->
<g id="node1" class="node">
<title>Node1</title>
<g id="a_node1"><a xlink:title="Entry point for the Container Manager application.">
<polygon fill="#bfbfbf" stroke="black" points="838.5,-291.5 838.5,-310.5 900.5,-310.5 900.5,-291.5 838.5,-291.5"/>
<text text-anchor="middle" x="869.5" y="-298.5" font-family="Helvetica,sans-Serif" font-size="10.00">main.cpp</text>
</a>
</g>
</g>
<!-- Node2 -->
<g id="node2" class="node">
<title>Node2</title>
<g id="a_node2"><a xlink:title=" ">
<polygon fill="white" stroke="#bfbfbf" points="850.5,-112.5 850.5,-131.5 908.5,-131.5 908.5,-112.5 850.5,-112.5"/>
<text text-anchor="middle" x="879.5" y="-119.5" font-family="Helvetica,sans-Serif" font-size="10.00">memory</text>
</a>
</g>
</g>
<!-- Node1&#45;&gt;Node2 -->
<g id="edge1" class="edge">
<title>Node1&#45;&gt;Node2</title>
<path fill="none" stroke="midnightblue" d="M858.6,-291.2C833.42,-269.77 775.33,-213.32 801.5,-168 810.18,-152.98 825.99,-142.52 841.12,-135.5"/>
<polygon fill="midnightblue" stroke="midnightblue" points="842.55,-138.69 850.38,-131.56 839.81,-132.25 842.55,-138.69"/>
</g>
<!-- Node3 -->
<g id="node3" class="node">
<title>Node3</title>
<g id="a_node3"><a xlink:title=" ">
<polygon fill="white" stroke="#bfbfbf" points="547.5,-235.5 547.5,-254.5 633.5,-254.5 633.5,-235.5 547.5,-235.5"/>
<text text-anchor="middle" x="590.5" y="-242.5" font-family="Helvetica,sans-Serif" font-size="10.00">glog/logging.h</text>
</a>
</g>
</g>
<!-- Node1&#45;&gt;Node3 -->
<g id="edge2" class="edge">
<title>Node1&#45;&gt;Node3</title>
<path fill="none" stroke="midnightblue" d="M838.31,-293.96C791.22,-284.85 701.4,-267.46 643.8,-256.32"/>
<polygon fill="midnightblue" stroke="midnightblue" points="644.28,-252.84 633.79,-254.38 642.95,-259.72 644.28,-252.84"/>
</g>
<!-- Node4 -->
<g id="node4" class="node">
<title>Node4</title>
<g id="a_node4"><a xlink:href="common_8hpp.html" target="_top" xlink:title="Defines common constants, string views, and utility structures for the application.">
<polygon fill="white" stroke="black" points="734.5,-112.5 734.5,-131.5 832.5,-131.5 832.5,-112.5 734.5,-112.5"/>
<text text-anchor="middle" x="783.5" y="-119.5" font-family="Helvetica,sans-Serif" font-size="10.00">inc/common.hpp</text>
</a>
</g>
</g>
<!-- Node1&#45;&gt;Node4 -->
<g id="edge3" class="edge">
<title>Node1&#45;&gt;Node4</title>
<path fill="none" stroke="midnightblue" d="M838.41,-297.19C789.93,-292.08 699.84,-279.48 680.5,-255 646.48,-211.94 718.66,-160.6 758.9,-136.61"/>
<polygon fill="midnightblue" stroke="midnightblue" points="760.77,-139.57 767.66,-131.52 757.25,-133.52 760.77,-139.57"/>
</g>
<!-- Node7 -->
<g id="node7" class="node">
<title>Node7</title>
<g id="a_node7"><a xlink:href="http__server_8hpp.html" target="_top" xlink:title="Defines the HttpServerHandler class for handling HTTP requests.">
<polygon fill="white" stroke="black" points="689.5,-235.5 689.5,-254.5 799.5,-254.5 799.5,-235.5 689.5,-235.5"/>
<text text-anchor="middle" x="744.5" y="-242.5" font-family="Helvetica,sans-Serif" font-size="10.00">inc/http_server.hpp</text>
</a>
</g>
</g>
<!-- Node1&#45;&gt;Node7 -->
<g id="edge6" class="edge">
<title>Node1&#45;&gt;Node7</title>
<path fill="none" stroke="midnightblue" d="M849.69,-291.44C829.21,-282.6 797.02,-268.69 773.64,-258.59"/>
<polygon fill="midnightblue" stroke="midnightblue" points="774.78,-255.27 764.21,-254.52 772.01,-261.7 774.78,-255.27"/>
</g>
<!-- Node16 -->
<g id="node16" class="node">
<title>Node16</title>
<g id="a_node16"><a xlink:href="json__request__executor_8hpp.html" target="_top" xlink:title="Defines the JsonRequestExecutorHandler class for executing JSON&#45;based requests.">
<polygon fill="white" stroke="black" points="974,-174 974,-193 1139,-193 1139,-174 974,-174"/>
<text text-anchor="middle" x="1056.5" y="-181" font-family="Helvetica,sans-Serif" font-size="10.00">inc/json_request_executor.hpp</text>
</a>
</g>
</g>
<!-- Node1&#45;&gt;Node16 -->
<g id="edge31" class="edge">
<title>Node1&#45;&gt;Node16</title>
<path fill="none" stroke="midnightblue" d="M900.54,-293.45C927.14,-286.81 965.61,-274.66 994.5,-255 1015.68,-240.59 1034.22,-217.3 1045.38,-201.47"/>
<polygon fill="midnightblue" stroke="midnightblue" points="1048.32,-203.37 1051.06,-193.13 1042.54,-199.42 1048.32,-203.37"/>
</g>
<!-- Node20 -->
<g id="node20" class="node">
<title>Node20</title>
<g id="a_node20"><a xlink:href="init__handler_8hpp.html" target="_top" xlink:title="Declares project&#45;wide initialization functions.">
<polygon fill="white" stroke="black" points="856,-235.5 856,-254.5 969,-254.5 969,-235.5 856,-235.5"/>
<text text-anchor="middle" x="912.5" y="-242.5" font-family="Helvetica,sans-Serif" font-size="10.00">inc/init_handler.hpp</text>
</a>
</g>
</g>
<!-- Node1&#45;&gt;Node20 -->
<g id="edge23" class="edge">
<title>Node1&#45;&gt;Node20</title>
<path fill="none" stroke="midnightblue" d="M876.6,-291.08C882.74,-283.38 891.77,-272.03 899.24,-262.65"/>
<polygon fill="midnightblue" stroke="midnightblue" points="902.04,-264.75 905.53,-254.75 896.56,-260.39 902.04,-264.75"/>
</g>
<!-- Node21 -->
<g id="node21" class="node">
<title>Node21</title>
<g id="a_node21"><a xlink:href="dbus__consumer_8hpp.html" target="_top" xlink:title="Defines the DbusConsumer class for receiving and processing JSON requests over D&#45;Bus.">
<polygon fill="white" stroke="black" points="502,-174 502,-193 633,-193 633,-174 502,-174"/>
<text text-anchor="middle" x="567.5" y="-181" font-family="Helvetica,sans-Serif" font-size="10.00">inc/dbus_consumer.hpp</text>
</a>
</g>
</g>
<!-- Node1&#45;&gt;Node21 -->
<g id="edge24" class="edge">
<title>Node1&#45;&gt;Node21</title>
<path fill="none" stroke="midnightblue" d="M838.34,-300.71C763.58,-301.67 577.31,-299.45 538.5,-255 524.84,-239.36 538.83,-216.4 551.7,-200.97"/>
<polygon fill="midnightblue" stroke="midnightblue" points="554.52,-203.07 558.55,-193.27 549.29,-198.42 554.52,-203.07"/>
</g>
<!-- Node23 -->
<g id="node23" class="node">
<title>Node23</title>
<g id="a_node23"><a xlink:href="protobuf__request__executor_8hpp.html" target="_top" xlink:title="Defines the ProtoRequestExecutorHandler class for handling Protobuf&#45;based requests.">
<polygon fill="white" stroke="black" points="1288,-168.5 1288,-198.5 1405,-198.5 1405,-168.5 1288,-168.5"/>
<text text-anchor="start" x="1296" y="-186.5" font-family="Helvetica,sans-Serif" font-size="10.00">inc/protobuf_request</text>
<text text-anchor="middle" x="1346.5" y="-175.5" font-family="Helvetica,sans-Serif" font-size="10.00">_executor.hpp</text>
</a>
</g>
</g>
<!-- Node1&#45;&gt;Node23 -->
<g id="edge32" class="edge">
<title>Node1&#45;&gt;Node23</title>
<path fill="none" stroke="midnightblue" d="M900.79,-292.79C938.81,-284 1004.92,-268.63 1061.5,-255 1136.8,-236.86 1223.13,-215.42 1280.85,-200.98"/>
<polygon fill="midnightblue" stroke="midnightblue" points="1281.73,-204.37 1290.58,-198.55 1280.03,-197.58 1281.73,-204.37"/>
</g>
<!-- Node24 -->
<g id="node24" class="node">
<title>Node24</title>
<g id="a_node24"><a xlink:href="mosquitto__mqtt__subscriber_8hpp.html" target="_top" xlink:title="Declares the MosquittoMqttSubscriber class for handling MQTT messages using Mosquitto.">
<polygon fill="white" stroke="black" points="1157.5,-168.5 1157.5,-198.5 1269.5,-198.5 1269.5,-168.5 1157.5,-168.5"/>
<text text-anchor="start" x="1165.5" y="-186.5" font-family="Helvetica,sans-Serif" font-size="10.00">inc/mosquitto_mqtt</text>
<text text-anchor="middle" x="1213.5" y="-175.5" font-family="Helvetica,sans-Serif" font-size="10.00">_subscriber.hpp</text>
</a>
</g>
</g>
<!-- Node1&#45;&gt;Node24 -->
<g id="edge36" class="edge">
<title>Node1&#45;&gt;Node24</title>
<path fill="none" stroke="midnightblue" d="M900.04,-291.49C930.66,-282.81 979.08,-268.72 1020.5,-255 1071.23,-238.19 1128.67,-216.92 1167.61,-202.15"/>
<polygon fill="midnightblue" stroke="midnightblue" points="1168.99,-205.37 1177.09,-198.55 1166.5,-198.83 1168.99,-205.37"/>
</g>
<!-- Node26 -->
<g id="node26" class="node">
<title>Node26</title>
<g id="a_node26"><a xlink:href="posix__message__queue__consumer_8hpp.html" target="_top" xlink:title="Declares the MessageQueueConsumer class for handling messages from a POSIX message queue.">
<polygon fill="white" stroke="black" points="811,-168.5 811,-198.5 956,-198.5 956,-168.5 811,-168.5"/>
<text text-anchor="start" x="819" y="-186.5" font-family="Helvetica,sans-Serif" font-size="10.00">inc/posix_message_queue</text>
<text text-anchor="middle" x="883.5" y="-175.5" font-family="Helvetica,sans-Serif" font-size="10.00">_consumer.hpp</text>
</a>
</g>
</g>
<!-- Node1&#45;&gt;Node26 -->
<g id="edge41" class="edge">
<title>Node1&#45;&gt;Node26</title>
<path fill="none" stroke="midnightblue" d="M900.52,-296.38C925.97,-291.59 960.49,-280.52 977.5,-255 992.39,-232.66 967.12,-214.66 939.05,-202.43"/>
<polygon fill="midnightblue" stroke="midnightblue" points="940.06,-199.06 929.48,-198.51 937.41,-205.54 940.06,-199.06"/>
</g>
<!-- Node5 -->
<g id="node5" class="node">
<title>Node5</title>
<g id="a_node5"><a xlink:title=" ">
<polygon fill="white" stroke="#bfbfbf" points="952.5,-0.5 952.5,-19.5 996.5,-19.5 996.5,-0.5 952.5,-0.5"/>
<text text-anchor="middle" x="974.5" y="-7.5" font-family="Helvetica,sans-Serif" font-size="10.00">string</text>
</a>
</g>
</g>
<!-- Node4&#45;&gt;Node5 -->
<g id="edge4" class="edge">
<title>Node4&#45;&gt;Node5</title>
<path fill="none" stroke="midnightblue" d="M798.49,-112.37C831.54,-93.33 910.92,-47.62 950.8,-24.65"/>
<polygon fill="midnightblue" stroke="midnightblue" points="952.66,-27.62 959.58,-19.59 949.17,-21.55 952.66,-27.62"/>
</g>
<!-- Node6 -->
<g id="node6" class="node">
<title>Node6</title>
<g id="a_node6"><a xlink:title=" ">
<polygon fill="white" stroke="#bfbfbf" points="747,-56.5 747,-75.5 820,-75.5 820,-56.5 747,-56.5"/>
<text text-anchor="middle" x="783.5" y="-63.5" font-family="Helvetica,sans-Serif" font-size="10.00">string_view</text>
</a>
</g>
</g>
<!-- Node4&#45;&gt;Node6 -->
<g id="edge5" class="edge">
<title>Node4&#45;&gt;Node6</title>
<path fill="none" stroke="midnightblue" d="M783.5,-112.08C783.5,-105.01 783.5,-94.86 783.5,-85.99"/>
<polygon fill="midnightblue" stroke="midnightblue" points="787,-85.75 783.5,-75.75 780,-85.75 787,-85.75"/>
</g>
<!-- Node7&#45;&gt;Node2 -->
<g id="edge7" class="edge">
<title>Node7&#45;&gt;Node2</title>
<path fill="none" stroke="midnightblue" d="M744.91,-235.3C746.08,-219.82 750.66,-187.31 768.5,-168 778.79,-156.86 813.36,-143.82 841.23,-134.64"/>
<polygon fill="midnightblue" stroke="midnightblue" points="842.31,-137.97 850.75,-131.57 840.16,-131.31 842.31,-137.97"/>
</g>
<!-- Node7&#45;&gt;Node4 -->
<g id="edge8" class="edge">
<title>Node7&#45;&gt;Node4</title>
<path fill="none" stroke="midnightblue" d="M739.58,-235.14C732.16,-220.51 720.02,-190.65 730.5,-168 736.42,-155.21 747.97,-144.72 758.78,-137.1"/>
<polygon fill="midnightblue" stroke="midnightblue" points="760.71,-140.02 767.17,-131.61 756.88,-134.16 760.71,-140.02"/>
</g>
<!-- Node8 -->
<g id="node8" class="node">
<title>Node8</title>
<g id="a_node8"><a xlink:href="threadpool_8hpp.html" target="_top" xlink:title="Declares the ThreadPool utility class for managing worker threads.">
<polygon fill="white" stroke="black" points="220,-174 220,-193 327,-193 327,-174 220,-174"/>
<text text-anchor="middle" x="273.5" y="-181" font-family="Helvetica,sans-Serif" font-size="10.00">inc/threadpool.hpp</text>
</a>
</g>
</g>
<!-- Node7&#45;&gt;Node8 -->
<g id="edge9" class="edge">
<title>Node7&#45;&gt;Node8</title>
<path fill="none" stroke="midnightblue" d="M689.09,-237C601.19,-225.9 430.28,-204.31 337.37,-192.57"/>
<polygon fill="midnightblue" stroke="midnightblue" points="337.61,-189.07 327.25,-191.29 336.74,-196.02 337.61,-189.07"/>
</g>
<!-- Node7&#45;&gt;Node16 -->
<g id="edge17" class="edge">
<title>Node7&#45;&gt;Node16</title>
<path fill="none" stroke="midnightblue" d="M789.2,-235.48C845.27,-224.78 941.36,-206.46 1001.77,-194.94"/>
<polygon fill="midnightblue" stroke="midnightblue" points="1002.71,-198.32 1011.88,-193.01 1001.4,-191.44 1002.71,-198.32"/>
</g>
<!-- Node9 -->
<g id="node9" class="node">
<title>Node9</title>
<g id="a_node9"><a xlink:title=" ">
<polygon fill="white" stroke="#bfbfbf" points="152,-112.5 152,-131.5 199,-131.5 199,-112.5 152,-112.5"/>
<text text-anchor="middle" x="175.5" y="-119.5" font-family="Helvetica,sans-Serif" font-size="10.00">vector</text>
</a>
</g>
</g>
<!-- Node8&#45;&gt;Node9 -->
<g id="edge10" class="edge">
<title>Node8&#45;&gt;Node9</title>
<path fill="none" stroke="midnightblue" d="M259.46,-173.98C243.45,-164.25 217.05,-148.23 198.13,-136.74"/>
<polygon fill="midnightblue" stroke="midnightblue" points="199.88,-133.71 189.51,-131.51 196.25,-139.69 199.88,-133.71"/>
</g>
<!-- Node10 -->
<g id="node10" class="node">
<title>Node10</title>
<g id="a_node10"><a xlink:title=" ">
<polygon fill="white" stroke="#bfbfbf" points="474.5,-112.5 474.5,-131.5 522.5,-131.5 522.5,-112.5 474.5,-112.5"/>
<text text-anchor="middle" x="498.5" y="-119.5" font-family="Helvetica,sans-Serif" font-size="10.00">thread</text>
</a>
</g>
</g>
<!-- Node8&#45;&gt;Node10 -->
<g id="edge11" class="edge">
<title>Node8&#45;&gt;Node10</title>
<path fill="none" stroke="midnightblue" d="M305.94,-173.92C343.95,-163.88 408.79,-146.74 464.5,-132 464.6,-131.97 464.7,-131.95 464.8,-131.92"/>
<polygon fill="midnightblue" stroke="midnightblue" points="465.58,-135.33 474.35,-129.39 463.79,-128.57 465.58,-135.33"/>
</g>
<!-- Node11 -->
<g id="node11" class="node">
<title>Node11</title>
<g id="a_node11"><a xlink:title=" ">
<polygon fill="white" stroke="#bfbfbf" points="217,-112.5 217,-131.5 264,-131.5 264,-112.5 217,-112.5"/>
<text text-anchor="middle" x="240.5" y="-119.5" font-family="Helvetica,sans-Serif" font-size="10.00">queue</text>
</a>
</g>
</g>
<!-- Node8&#45;&gt;Node11 -->
<g id="edge12" class="edge">
<title>Node8&#45;&gt;Node11</title>
<path fill="none" stroke="midnightblue" d="M268.77,-173.98C263.92,-165.23 256.23,-151.37 250.1,-140.31"/>
<polygon fill="midnightblue" stroke="midnightblue" points="253.13,-138.56 245.22,-131.51 247.01,-141.95 253.13,-138.56"/>
</g>
<!-- Node12 -->
<g id="node12" class="node">
<title>Node12</title>
<g id="a_node12"><a xlink:title=" ">
<polygon fill="white" stroke="#bfbfbf" points="282.5,-112.5 282.5,-131.5 330.5,-131.5 330.5,-112.5 282.5,-112.5"/>
<text text-anchor="middle" x="306.5" y="-119.5" font-family="Helvetica,sans-Serif" font-size="10.00">mutex</text>
</a>
</g>
</g>
<!-- Node8&#45;&gt;Node12 -->
<g id="edge13" class="edge">
<title>Node8&#45;&gt;Node12</title>
<path fill="none" stroke="midnightblue" d="M278.23,-173.98C283.08,-165.23 290.77,-151.37 296.9,-140.31"/>
<polygon fill="midnightblue" stroke="midnightblue" points="299.99,-141.95 301.78,-131.51 293.87,-138.56 299.99,-141.95"/>
</g>
<!-- Node13 -->
<g id="node13" class="node">
<title>Node13</title>
<g id="a_node13"><a xlink:title=" ">
<polygon fill="white" stroke="#bfbfbf" points="349,-112.5 349,-131.5 456,-131.5 456,-112.5 349,-112.5"/>
<text text-anchor="middle" x="402.5" y="-119.5" font-family="Helvetica,sans-Serif" font-size="10.00">condition_variable</text>
</a>
</g>
</g>
<!-- Node8&#45;&gt;Node13 -->
<g id="edge14" class="edge">
<title>Node8&#45;&gt;Node13</title>
<path fill="none" stroke="midnightblue" d="M291.98,-173.98C313.63,-163.99 349.71,-147.35 374.73,-135.81"/>
<polygon fill="midnightblue" stroke="midnightblue" points="376.44,-138.88 384.05,-131.51 373.51,-132.52 376.44,-138.88"/>
</g>
<!-- Node14 -->
<g id="node14" class="node">
<title>Node14</title>
<g id="a_node14"><a xlink:title=" ">
<polygon fill="white" stroke="#bfbfbf" points="0,-112.5 0,-131.5 65,-131.5 65,-112.5 0,-112.5"/>
<text text-anchor="middle" x="32.5" y="-119.5" font-family="Helvetica,sans-Serif" font-size="10.00">functional</text>
</a>
</g>
</g>
<!-- Node8&#45;&gt;Node14 -->
<g id="edge15" class="edge">
<title>Node8&#45;&gt;Node14</title>
<path fill="none" stroke="midnightblue" d="M238.97,-173.98C195.68,-163.29 121.51,-144.97 74.84,-133.45"/>
<polygon fill="midnightblue" stroke="midnightblue" points="75.58,-130.03 65.04,-131.03 73.91,-136.83 75.58,-130.03"/>
</g>
<!-- Node15 -->
<g id="node15" class="node">
<title>Node15</title>
<g id="a_node15"><a xlink:title=" ">
<polygon fill="white" stroke="#bfbfbf" points="83.5,-112.5 83.5,-131.5 133.5,-131.5 133.5,-112.5 83.5,-112.5"/>
<text text-anchor="middle" x="108.5" y="-119.5" font-family="Helvetica,sans-Serif" font-size="10.00">atomic</text>
</a>
</g>
</g>
<!-- Node8&#45;&gt;Node15 -->
<g id="edge16" class="edge">
<title>Node8&#45;&gt;Node15</title>
<path fill="none" stroke="midnightblue" d="M249.86,-173.98C221.56,-163.77 173.97,-146.61 141.91,-135.05"/>
<polygon fill="midnightblue" stroke="midnightblue" points="142.69,-131.61 132.1,-131.51 140.32,-138.19 142.69,-131.61"/>
</g>
<!-- Node17 -->
<g id="node17" class="node">
<title>Node17</title>
<g id="a_node17"><a xlink:href="request__executor_8hpp.html" target="_top" xlink:title="Declares the abstract RequestExecutor interface for executing requests.">
<polygon fill="white" stroke="black" points="988.5,-112.5 988.5,-131.5 1128.5,-131.5 1128.5,-112.5 988.5,-112.5"/>
<text text-anchor="middle" x="1058.5" y="-119.5" font-family="Helvetica,sans-Serif" font-size="10.00">inc/request_executor.hpp</text>
</a>
</g>
</g>
<!-- Node16&#45;&gt;Node17 -->
<g id="edge18" class="edge">
<title>Node16&#45;&gt;Node17</title>
<path fill="none" stroke="midnightblue" d="M1056.79,-173.98C1057.07,-165.58 1057.51,-152.48 1057.87,-141.66"/>
<polygon fill="midnightblue" stroke="midnightblue" points="1061.38,-141.62 1058.21,-131.51 1054.38,-141.39 1061.38,-141.62"/>
</g>
<!-- Node17&#45;&gt;Node5 -->
<g id="edge19" class="edge">
<title>Node17&#45;&gt;Node5</title>
<path fill="none" stroke="midnightblue" d="M1039.6,-112.37C1024.98,-104.77 1005.3,-92.36 993.5,-76 983.72,-62.44 978.94,-43.89 976.63,-30.08"/>
<polygon fill="midnightblue" stroke="midnightblue" points="980.04,-29.23 975.21,-19.8 973.11,-30.19 980.04,-29.23"/>
</g>
<!-- Node18 -->
<g id="node18" class="node">
<title>Node18</title>
<g id="a_node18"><a xlink:title=" ">
<polygon fill="white" stroke="#bfbfbf" points="1164.5,-56.5 1164.5,-75.5 1274.5,-75.5 1274.5,-56.5 1164.5,-56.5"/>
<text text-anchor="middle" x="1219.5" y="-63.5" font-family="Helvetica,sans-Serif" font-size="10.00">nlohmann/json.hpp</text>
</a>
</g>
</g>
<!-- Node17&#45;&gt;Node18 -->
<g id="edge20" class="edge">
<title>Node17&#45;&gt;Node18</title>
<path fill="none" stroke="midnightblue" d="M1084.01,-112.44C1111.1,-103.36 1154.09,-88.94 1184.37,-78.78"/>
<polygon fill="midnightblue" stroke="midnightblue" points="1185.74,-82.01 1194.11,-75.52 1183.51,-75.38 1185.74,-82.01"/>
</g>
<!-- Node19 -->
<g id="node19" class="node">
<title>Node19</title>
<g id="a_node19"><a xlink:href="container__request_8hpp.html" target="_top" xlink:title="Data structure for representing a container operation request.">
<polygon fill="white" stroke="black" points="1003,-56.5 1003,-75.5 1146,-75.5 1146,-56.5 1003,-56.5"/>
<text text-anchor="middle" x="1074.5" y="-63.5" font-family="Helvetica,sans-Serif" font-size="10.00">inc/container_request.hpp</text>
</a>
</g>
</g>
<!-- Node17&#45;&gt;Node19 -->
<g id="edge21" class="edge">
<title>Node17&#45;&gt;Node19</title>
<path fill="none" stroke="midnightblue" d="M1061.14,-112.08C1063.29,-104.85 1066.38,-94.41 1069.05,-85.4"/>
<polygon fill="midnightblue" stroke="midnightblue" points="1072.42,-86.33 1071.91,-75.75 1065.71,-84.34 1072.42,-86.33"/>
</g>
<!-- Node19&#45;&gt;Node5 -->
<g id="edge22" class="edge">
<title>Node19&#45;&gt;Node5</title>
<path fill="none" stroke="midnightblue" d="M1058.43,-56.32C1042.54,-47.74 1017.99,-34.49 999.54,-24.52"/>
<polygon fill="midnightblue" stroke="midnightblue" points="1000.99,-21.33 990.53,-19.65 997.66,-27.49 1000.99,-21.33"/>
</g>
<!-- Node21&#45;&gt;Node2 -->
<g id="edge25" class="edge">
<title>Node21&#45;&gt;Node2</title>
<path fill="none" stroke="midnightblue" d="M617.9,-173.99C670.88,-164.88 756.89,-149.58 840.56,-132.11"/>
<polygon fill="midnightblue" stroke="midnightblue" points="841.42,-135.51 850.49,-130.03 839.98,-128.66 841.42,-135.51"/>
</g>
<!-- Node21&#45;&gt;Node4 -->
<g id="edge28" class="edge">
<title>Node21&#45;&gt;Node4</title>
<path fill="none" stroke="midnightblue" d="M598.45,-173.98C636.38,-163.53 700.78,-145.79 742.72,-134.23"/>
<polygon fill="midnightblue" stroke="midnightblue" points="743.9,-137.54 752.61,-131.51 742.04,-130.79 743.9,-137.54"/>
</g>
<!-- Node21&#45;&gt;Node5 -->
<g id="edge26" class="edge">
<title>Node21&#45;&gt;Node5</title>
<path fill="none" stroke="midnightblue" d="M564.82,-173.67C561.02,-159.22 555.92,-130.29 569.5,-112 614.5,-51.4 854.43,-22.55 942.26,-13.9"/>
<polygon fill="midnightblue" stroke="midnightblue" points="942.81,-17.36 952.43,-12.92 942.14,-10.4 942.81,-17.36"/>
</g>
<!-- Node21&#45;&gt;Node10 -->
<g id="edge27" class="edge">
<title>Node21&#45;&gt;Node10</title>
<path fill="none" stroke="midnightblue" d="M557.61,-173.98C546.85,-164.7 529.43,-149.67 516.28,-138.33"/>
<polygon fill="midnightblue" stroke="midnightblue" points="518.23,-135.39 508.37,-131.51 513.66,-140.69 518.23,-135.39"/>
</g>
<!-- Node21&#45;&gt;Node17 -->
<g id="edge30" class="edge">
<title>Node21&#45;&gt;Node17</title>
<path fill="none" stroke="midnightblue" d="M633.21,-174.54C722.55,-163.71 882.22,-144.36 978.45,-132.7"/>
<polygon fill="midnightblue" stroke="midnightblue" points="978.92,-136.17 988.42,-131.49 978.07,-129.22 978.92,-136.17"/>
</g>
<!-- Node22 -->
<g id="node22" class="node">
<title>Node22</title>
<g id="a_node22"><a xlink:title=" ">
<polygon fill="white" stroke="#bfbfbf" points="579,-112.5 579,-131.5 716,-131.5 716,-112.5 579,-112.5"/>
<text text-anchor="middle" x="647.5" y="-119.5" font-family="Helvetica,sans-Serif" font-size="10.00">sdbus&#45;c++/sdbus&#45;c++.h</text>
</a>
</g>
</g>
<!-- Node21&#45;&gt;Node22 -->
<g id="edge29" class="edge">
<title>Node21&#45;&gt;Node22</title>
<path fill="none" stroke="midnightblue" d="M578.96,-173.98C591.67,-164.52 612.41,-149.1 627.75,-137.69"/>
<polygon fill="midnightblue" stroke="midnightblue" points="630.12,-140.29 636.06,-131.51 625.95,-134.67 630.12,-140.29"/>
</g>
<!-- Node23&#45;&gt;Node5 -->
<g id="edge34" class="edge">
<title>Node23&#45;&gt;Node5</title>
<path fill="none" stroke="midnightblue" d="M1346.13,-168.45C1344.6,-141.89 1337.22,-84.43 1302.5,-56 1257.68,-19.29 1080.06,-12.49 1006.58,-11.26"/>
<polygon fill="midnightblue" stroke="midnightblue" points="1006.57,-7.76 996.52,-11.12 1006.47,-14.76 1006.57,-7.76"/>
</g>
<!-- Node23&#45;&gt;Node17 -->
<g id="edge33" class="edge">
<title>Node23&#45;&gt;Node17</title>
<path fill="none" stroke="midnightblue" d="M1287.9,-169.97C1284.72,-169.3 1281.57,-168.64 1278.5,-168 1221.15,-156.02 1155.31,-142.6 1110.72,-133.55"/>
<polygon fill="midnightblue" stroke="midnightblue" points="1111.19,-130.08 1100.7,-131.52 1109.8,-136.94 1111.19,-130.08"/>
</g>
<!-- Node23&#45;&gt;Node18 -->
<g id="edge35" class="edge">
<title>Node23&#45;&gt;Node18</title>
<path fill="none" stroke="midnightblue" d="M1330.93,-168.34C1307,-146.58 1261.39,-105.09 1236.58,-82.54"/>
<polygon fill="midnightblue" stroke="midnightblue" points="1238.79,-79.81 1229.03,-75.67 1234.08,-84.99 1238.79,-79.81"/>
</g>
<!-- Node24&#45;&gt;Node2 -->
<g id="edge38" class="edge">
<title>Node24&#45;&gt;Node2</title>
<path fill="none" stroke="midnightblue" d="M1157.37,-169.97C1154.03,-169.29 1150.72,-168.62 1147.5,-168 1066.47,-152.31 971.03,-137.05 918.71,-128.96"/>
<polygon fill="midnightblue" stroke="midnightblue" points="918.95,-125.45 908.54,-127.39 917.89,-132.37 918.95,-125.45"/>
</g>
<!-- Node24&#45;&gt;Node5 -->
<g id="edge39" class="edge">
<title>Node24&#45;&gt;Node5</title>
<path fill="none" stroke="midnightblue" d="M1231.75,-168.41C1261.59,-143.73 1314.53,-91.88 1283.5,-56 1248,-14.95 1079.01,-10.59 1007.06,-10.63"/>
<polygon fill="midnightblue" stroke="midnightblue" points="1006.76,-7.13 996.78,-10.67 1006.79,-14.13 1006.76,-7.13"/>
</g>
<!-- Node24&#45;&gt;Node17 -->
<g id="edge40" class="edge">
<title>Node24&#45;&gt;Node17</title>
<path fill="none" stroke="midnightblue" d="M1176.77,-168.4C1150.53,-158.33 1115.57,-144.91 1090.48,-135.28"/>
<polygon fill="midnightblue" stroke="midnightblue" points="1091.64,-131.97 1081.05,-131.66 1089.14,-138.51 1091.64,-131.97"/>
</g>
<!-- Node25 -->
<g id="node25" class="node">
<title>Node25</title>
<g id="a_node25"><a xlink:title=" ">
<polygon fill="white" stroke="#bfbfbf" points="1149,-112.5 1149,-131.5 1236,-131.5 1236,-112.5 1149,-112.5"/>
<text text-anchor="middle" x="1192.5" y="-119.5" font-family="Helvetica,sans-Serif" font-size="10.00">mosquittopp.h</text>
</a>
</g>
</g>
<!-- Node24&#45;&gt;Node25 -->
<g id="edge37" class="edge">
<title>Node24&#45;&gt;Node25</title>
<path fill="none" stroke="midnightblue" d="M1208.52,-168.4C1205.66,-160.29 1202.03,-150.01 1198.95,-141.28"/>
<polygon fill="midnightblue" stroke="midnightblue" points="1202.18,-139.92 1195.56,-131.66 1195.58,-142.25 1202.18,-139.92"/>
</g>
<!-- Node26&#45;&gt;Node2 -->
<g id="edge42" class="edge">
<title>Node26&#45;&gt;Node2</title>
<path fill="none" stroke="midnightblue" d="M882.55,-168.4C882.02,-160.47 881.35,-150.46 880.77,-141.86"/>
<polygon fill="midnightblue" stroke="midnightblue" points="884.24,-141.4 880.08,-131.66 877.26,-141.87 884.24,-141.4"/>
</g>
<!-- Node26&#45;&gt;Node4 -->
<g id="edge45" class="edge">
<title>Node26&#45;&gt;Node4</title>
<path fill="none" stroke="midnightblue" d="M859.8,-168.4C843.77,-158.86 822.7,-146.32 806.76,-136.84"/>
<polygon fill="midnightblue" stroke="midnightblue" points="808.43,-133.76 798.05,-131.66 804.86,-139.78 808.43,-133.76"/>
</g>
<!-- Node26&#45;&gt;Node5 -->
<g id="edge43" class="edge">
<title>Node26&#45;&gt;Node5</title>
<path fill="none" stroke="midnightblue" d="M893.92,-168.29C900.98,-158.37 910.3,-144.68 917.5,-132 937.57,-96.64 956.85,-53.05 967.03,-29.02"/>
<polygon fill="midnightblue" stroke="midnightblue" points="970.29,-30.31 970.93,-19.74 963.83,-27.6 970.29,-30.31"/>
</g>
<!-- Node26&#45;&gt;Node10 -->
<g id="edge44" class="edge">
<title>Node26&#45;&gt;Node10</title>
<path fill="none" stroke="midnightblue" d="M810.63,-171.24C727.38,-158.37 594.66,-137.86 532.59,-128.27"/>
<polygon fill="midnightblue" stroke="midnightblue" points="532.97,-124.79 522.55,-126.72 531.9,-131.7 532.97,-124.79"/>
</g>
<!-- Node26&#45;&gt;Node17 -->
<g id="edge46" class="edge">
<title>Node26&#45;&gt;Node17</title>
<path fill="none" stroke="midnightblue" d="M924.97,-168.4C955.08,-158.16 995.35,-144.47 1023.77,-134.81"/>
<polygon fill="midnightblue" stroke="midnightblue" points="1024.95,-138.1 1033.29,-131.57 1022.7,-131.48 1024.95,-138.1"/>
</g>
</g>
</svg>
        <g id="navigator" transform="translate(0 0)" fill="#404254">
                <rect fill="#f2f5e9" fill-opacity="0.5" stroke="#606060" stroke-width=".5" x="0" y="0" width="60" height="60"/>
                <use id="zoomplus" xlink:href="#zoomPlus" x="17" y="9" onmousedown="handleZoom(evt,'in')"/>
                <use id="zoomminus" xlink:href="#zoomMin" x="42" y="9" onmousedown="handleZoom(evt,'out')"/>
                <use id="reset" xlink:href="#resetDef" x="30" y="36" onmousedown="handleReset()"/>
                <g id="arrowUp" xlink:href="#dirArrow" transform="translate(30 24)" onmousedown="handlePan(0,-1)">
                  <use xlink:href="#rim" fill="#404040">
                        <set attributeName="fill" to="#808080" begin="arrowUp.mouseover" end="arrowUp.mouseout"/>
                  </use>
                  <path fill="none" stroke="white" stroke-width="1.5" d="M0,-3.0v7 M-2.5,-0.5L0,-3.0L2.5,-0.5"/>
                </g>
                <g id="arrowRight" xlink:href="#dirArrow" transform="rotate(90) translate(36 -43)" onmousedown="handlePan(1,0)">
                  <use xlink:href="#rim" fill="#404040">
                        <set attributeName="fill" to="#808080" begin="arrowRight.mouseover" end="arrowRight.mouseout"/>
                  </use>
                  <path fill="none" stroke="white" stroke-width="1.5" d="M0,-3.0v7 M-2.5,-0.5L0,-3.0L2.5,-0.5"/>
                </g>
                <g id="arrowDown" xlink:href="#dirArrow" transform="rotate(180) translate(-30 -48)" onmousedown="handlePan(0,1)">
                  <use xlink:href="#rim" fill="#404040">
                        <set attributeName="fill" to="#808080" begin="arrowDown.mouseover" end="arrowDown.mouseout"/>
                  </use>
                  <path fill="none" stroke="white" stroke-width="1.5" d="M0,-3.0v7 M-2.5,-0.5L0,-3.0L2.5,-0.5"/>
                </g>
                <g id="arrowLeft" xlink:href="#dirArrow" transform="rotate(270) translate(-36 17)" onmousedown="handlePan(-1,0)">
                  <use xlink:href="#rim" fill="#404040">
                        <set attributeName="fill" to="#808080" begin="arrowLeft.mouseover" end="arrowLeft.mouseout"/>
                  </use>
                  <path fill="none" stroke="white" stroke-width="1.5" d="M0,-3.0v7 M-2.5,-0.5L0,-3.0L2.5,-0.5"/>
                </g>
        </g>
        <svg viewBox="0 0 15 15" width="100%" height="30px" preserveAspectRatio="xMaxYMin meet">
         <g id="arrow_out" transform="scale(0.3 0.3)">
          <a xlink:href="main_8cpp__incl_org.svg" target="_base">
           <rect id="button" ry="5" rx="5" y="6" x="6" height="38" width="38"
                fill="#f2f5e9" fill-opacity="0.5" stroke="#606060" stroke-width="1.0"/>
           <path id="arrow"
             d="M 11.500037,31.436501 C 11.940474,20.09759 22.043105,11.32322 32.158766,21.979434 L 37.068811,17.246167 C 37.068811,17.246167 37.088388,32 37.088388,32 L 22.160133,31.978069 C 22.160133,31.978069 26.997745,27.140456 26.997745,27.140456 C 18.528582,18.264221 13.291696,25.230495 11.500037,31.436501 z"
             style="fill:#404040;"/>
          </a>
         </g>
        </svg>
</svg>
