<?xml version="1.0" encoding="UTF-8" standalone="no"?>
<!DOCTYPE svg PUBLIC "-//W3C//DTD SVG 1.1//EN"
 "http://www.w3.org/Graphics/SVG/1.1/DTD/svg11.dtd">
<!-- Generated by graphviz version 2.43.0 (0)
 -->
<!-- Title: main.cpp Pages: 1 -->
<svg width="867pt" height="308pt"
 viewBox="0.00 0.00 866.70 308.00" xmlns="http://www.w3.org/2000/svg" xmlns:xlink="http://www.w3.org/1999/xlink">
<g id="graph0" class="graph" transform="scale(1 1) rotate(0) translate(4 304)">
<title>main.cpp</title>
<polygon fill="white" stroke="transparent" points="-4,4 -4,-304 862.7,-304 862.7,4 -4,4"/>
<!-- Node1 -->
<g id="node1" class="node">
<title>Node1</title>
<g id="a_node1"><a xlink:title="Entry point for the Container Manager application.">
<polygon fill="#bfbfbf" stroke="black" points="254.2,-280.5 254.2,-299.5 316.2,-299.5 316.2,-280.5 254.2,-280.5"/>
<text text-anchor="middle" x="285.2" y="-287.5" font-family="Helvetica,sans-Serif" font-size="10.00">main.cpp</text>
</a>
</g>
</g>
<!-- Node2 -->
<g id="node2" class="node">
<title>Node2</title>
<g id="a_node2"><a xlink:title=" ">
<polygon fill="white" stroke="#bfbfbf" points="47.2,-168.5 47.2,-187.5 105.2,-187.5 105.2,-168.5 47.2,-168.5"/>
<text text-anchor="middle" x="76.2" y="-175.5" font-family="Helvetica,sans-Serif" font-size="10.00">memory</text>
</a>
</g>
</g>
<!-- Node1&#45;&gt;Node2 -->
<g id="edge1" class="edge">
<title>Node1&#45;&gt;Node2</title>
<path fill="none" stroke="midnightblue" d="M254.09,-287.4C217.99,-284.12 158.16,-274.18 117.2,-244 101.12,-232.16 89.83,-211.94 83.22,-197.2"/>
<polygon fill="midnightblue" stroke="midnightblue" points="86.31,-195.51 79.24,-187.62 79.85,-198.2 86.31,-195.51"/>
</g>
<!-- Node3 -->
<g id="node3" class="node">
<title>Node3</title>
<g id="a_node3"><a xlink:title=" ">
<polygon fill="white" stroke="#bfbfbf" points="126.2,-224.5 126.2,-243.5 212.2,-243.5 212.2,-224.5 126.2,-224.5"/>
<text text-anchor="middle" x="169.2" y="-231.5" font-family="Helvetica,sans-Serif" font-size="10.00">glog/logging.h</text>
</a>
</g>
</g>
<!-- Node1&#45;&gt;Node3 -->
<g id="edge2" class="edge">
<title>Node1&#45;&gt;Node3</title>
<path fill="none" stroke="midnightblue" d="M266.82,-280.44C247.98,-271.68 218.47,-257.94 196.82,-247.86"/>
<polygon fill="midnightblue" stroke="midnightblue" points="198.04,-244.56 187.49,-243.52 195.08,-250.91 198.04,-244.56"/>
</g>
<!-- Node4 -->
<g id="node4" class="node">
<title>Node4</title>
<g id="a_node4"><a xlink:href="http__server_8hpp.html" target="_top" xlink:title="Defines the HttpServerHandler class for handling HTTP requests.">
<polygon fill="white" stroke="black" points="230.2,-224.5 230.2,-243.5 340.2,-243.5 340.2,-224.5 230.2,-224.5"/>
<text text-anchor="middle" x="285.2" y="-231.5" font-family="Helvetica,sans-Serif" font-size="10.00">inc/http_server.hpp</text>
</a>
</g>
</g>
<!-- Node1&#45;&gt;Node4 -->
<g id="edge3" class="edge">
<title>Node1&#45;&gt;Node4</title>
<path fill="none" stroke="midnightblue" d="M285.2,-280.08C285.2,-273.01 285.2,-262.86 285.2,-253.99"/>
<polygon fill="midnightblue" stroke="midnightblue" points="288.7,-253.75 285.2,-243.75 281.7,-253.75 288.7,-253.75"/>
</g>
<!-- Node16 -->
<g id="node16" class="node">
<title>Node16</title>
<g id="a_node16"><a xlink:href="json__request__executor_8hpp.html" target="_top" xlink:title="Defines the JsonRequestExecutorHandler class for executing JSON&#45;based requests.">
<polygon fill="white" stroke="black" points="364.7,-168.5 364.7,-187.5 529.7,-187.5 529.7,-168.5 364.7,-168.5"/>
<text text-anchor="middle" x="447.2" y="-175.5" font-family="Helvetica,sans-Serif" font-size="10.00">inc/json_request_executor.hpp</text>
</a>
</g>
</g>
<!-- Node1&#45;&gt;Node16 -->
<g id="edge23" class="edge">
<title>Node1&#45;&gt;Node16</title>
<path fill="none" stroke="midnightblue" d="M297.91,-280.37C325.71,-261.49 392.14,-216.38 426.23,-193.24"/>
<polygon fill="midnightblue" stroke="midnightblue" points="428.24,-196.1 434.55,-187.59 424.31,-190.31 428.24,-196.1"/>
</g>
<!-- Node20 -->
<g id="node20" class="node">
<title>Node20</title>
<g id="a_node20"><a xlink:href="init__handler_8hpp.html" target="_top" xlink:title="Declares project&#45;wide initialization functions.">
<polygon fill="white" stroke="black" points="396.7,-224.5 396.7,-243.5 509.7,-243.5 509.7,-224.5 396.7,-224.5"/>
<text text-anchor="middle" x="453.2" y="-231.5" font-family="Helvetica,sans-Serif" font-size="10.00">inc/init_handler.hpp</text>
</a>
</g>
</g>
<!-- Node1&#45;&gt;Node20 -->
<g id="edge22" class="edge">
<title>Node1&#45;&gt;Node20</title>
<path fill="none" stroke="midnightblue" d="M311.82,-280.44C340.21,-271.32 385.34,-256.81 416.95,-246.65"/>
<polygon fill="midnightblue" stroke="midnightblue" points="418.26,-249.91 426.7,-243.52 416.11,-243.24 418.26,-249.91"/>
</g>
<!-- Node4&#45;&gt;Node2 -->
<g id="edge4" class="edge">
<title>Node4&#45;&gt;Node2</title>
<path fill="none" stroke="midnightblue" d="M252.08,-224.44C214.92,-214.84 154.68,-199.28 115.25,-189.09"/>
<polygon fill="midnightblue" stroke="midnightblue" points="116.01,-185.67 105.45,-186.56 114.26,-192.45 116.01,-185.67"/>
</g>
<!-- Node5 -->
<g id="node5" class="node">
<title>Node5</title>
<g id="a_node5"><a xlink:href="common_8hpp.html" target="_top" xlink:title="Defines common constants, string views, and utility structures for the application.">
<polygon fill="white" stroke="black" points="123.2,-168.5 123.2,-187.5 221.2,-187.5 221.2,-168.5 123.2,-168.5"/>
<text text-anchor="middle" x="172.2" y="-175.5" font-family="Helvetica,sans-Serif" font-size="10.00">inc/common.hpp</text>
</a>
</g>
</g>
<!-- Node4&#45;&gt;Node5 -->
<g id="edge5" class="edge">
<title>Node4&#45;&gt;Node5</title>
<path fill="none" stroke="midnightblue" d="M267.3,-224.44C248.95,-215.68 220.19,-201.94 199.11,-191.86"/>
<polygon fill="midnightblue" stroke="midnightblue" points="200.55,-188.67 190.02,-187.52 197.54,-194.99 200.55,-188.67"/>
</g>
<!-- Node8 -->
<g id="node8" class="node">
<title>Node8</title>
<g id="a_node8"><a xlink:href="threadpool_8hpp.html" target="_top" xlink:title="Declares the ThreadPool utility class for managing worker threads.">
<polygon fill="white" stroke="black" points="239.7,-168.5 239.7,-187.5 346.7,-187.5 346.7,-168.5 239.7,-168.5"/>
<text text-anchor="middle" x="293.2" y="-175.5" font-family="Helvetica,sans-Serif" font-size="10.00">inc/threadpool.hpp</text>
</a>
</g>
</g>
<!-- Node4&#45;&gt;Node8 -->
<g id="edge8" class="edge">
<title>Node4&#45;&gt;Node8</title>
<path fill="none" stroke="midnightblue" d="M286.52,-224.08C287.58,-216.93 289.11,-206.64 290.43,-197.69"/>
<polygon fill="midnightblue" stroke="midnightblue" points="293.9,-198.16 291.9,-187.75 286.98,-197.13 293.9,-198.16"/>
</g>
<!-- Node4&#45;&gt;Node16 -->
<g id="edge16" class="edge">
<title>Node4&#45;&gt;Node16</title>
<path fill="none" stroke="midnightblue" d="M310.87,-224.44C338.12,-215.36 381.38,-200.94 411.85,-190.78"/>
<polygon fill="midnightblue" stroke="midnightblue" points="413.27,-194 421.65,-187.52 411.06,-187.36 413.27,-194"/>
</g>
<!-- Node6 -->
<g id="node6" class="node">
<title>Node6</title>
<g id="a_node6"><a xlink:title=" ">
<polygon fill="white" stroke="#bfbfbf" points="537.2,-0.5 537.2,-19.5 581.2,-19.5 581.2,-0.5 537.2,-0.5"/>
<text text-anchor="middle" x="559.2" y="-7.5" font-family="Helvetica,sans-Serif" font-size="10.00">string</text>
</a>
</g>
</g>
<!-- Node5&#45;&gt;Node6 -->
<g id="edge6" class="edge">
<title>Node5&#45;&gt;Node6</title>
<path fill="none" stroke="midnightblue" d="M129.87,-168.45C82.69,-158.49 11.97,-142.12 4.2,-132 -1.21,-124.95 -1.49,-118.82 4.2,-112 71.76,-31.03 418.41,-14.81 526.78,-11.71"/>
<polygon fill="midnightblue" stroke="midnightblue" points="527.18,-15.2 537.08,-11.43 526.99,-8.2 527.18,-15.2"/>
</g>
<!-- Node7 -->
<g id="node7" class="node">
<title>Node7</title>
<g id="a_node7"><a xlink:title=" ">
<polygon fill="white" stroke="#bfbfbf" points="13.7,-112.5 13.7,-131.5 86.7,-131.5 86.7,-112.5 13.7,-112.5"/>
<text text-anchor="middle" x="50.2" y="-119.5" font-family="Helvetica,sans-Serif" font-size="10.00">string_view</text>
</a>
</g>
</g>
<!-- Node5&#45;&gt;Node7 -->
<g id="edge7" class="edge">
<title>Node5&#45;&gt;Node7</title>
<path fill="none" stroke="midnightblue" d="M152.87,-168.44C132.88,-159.6 101.46,-145.69 78.64,-135.59"/>
<polygon fill="midnightblue" stroke="midnightblue" points="80,-132.36 69.44,-131.52 77.17,-138.76 80,-132.36"/>
</g>
<!-- Node9 -->
<g id="node9" class="node">
<title>Node9</title>
<g id="a_node9"><a xlink:title=" ">
<polygon fill="white" stroke="#bfbfbf" points="104.7,-112.5 104.7,-131.5 151.7,-131.5 151.7,-112.5 104.7,-112.5"/>
<text text-anchor="middle" x="128.2" y="-119.5" font-family="Helvetica,sans-Serif" font-size="10.00">vector</text>
</a>
</g>
</g>
<!-- Node8&#45;&gt;Node9 -->
<g id="edge9" class="edge">
<title>Node8&#45;&gt;Node9</title>
<path fill="none" stroke="midnightblue" d="M267.06,-168.44C238.44,-159.08 192.49,-144.04 161.36,-133.85"/>
<polygon fill="midnightblue" stroke="midnightblue" points="162.41,-130.51 151.82,-130.73 160.23,-137.17 162.41,-130.51"/>
</g>
<!-- Node10 -->
<g id="node10" class="node">
<title>Node10</title>
<g id="a_node10"><a xlink:title=" ">
<polygon fill="white" stroke="#bfbfbf" points="170.2,-112.5 170.2,-131.5 218.2,-131.5 218.2,-112.5 170.2,-112.5"/>
<text text-anchor="middle" x="194.2" y="-119.5" font-family="Helvetica,sans-Serif" font-size="10.00">thread</text>
</a>
</g>
</g>
<!-- Node8&#45;&gt;Node10 -->
<g id="edge10" class="edge">
<title>Node8&#45;&gt;Node10</title>
<path fill="none" stroke="midnightblue" d="M277.29,-168.32C261.56,-159.74 237.26,-146.49 218.99,-136.52"/>
<polygon fill="midnightblue" stroke="midnightblue" points="220.52,-133.37 210.07,-131.65 217.17,-139.52 220.52,-133.37"/>
</g>
<!-- Node11 -->
<g id="node11" class="node">
<title>Node11</title>
<g id="a_node11"><a xlink:title=" ">
<polygon fill="white" stroke="#bfbfbf" points="236.7,-112.5 236.7,-131.5 283.7,-131.5 283.7,-112.5 236.7,-112.5"/>
<text text-anchor="middle" x="260.2" y="-119.5" font-family="Helvetica,sans-Serif" font-size="10.00">queue</text>
</a>
</g>
</g>
<!-- Node8&#45;&gt;Node11 -->
<g id="edge11" class="edge">
<title>Node8&#45;&gt;Node11</title>
<path fill="none" stroke="midnightblue" d="M287.75,-168.08C283.19,-160.61 276.53,-149.72 270.91,-140.52"/>
<polygon fill="midnightblue" stroke="midnightblue" points="273.75,-138.46 265.55,-131.75 267.78,-142.11 273.75,-138.46"/>
</g>
<!-- Node12 -->
<g id="node12" class="node">
<title>Node12</title>
<g id="a_node12"><a xlink:title=" ">
<polygon fill="white" stroke="#bfbfbf" points="302.2,-112.5 302.2,-131.5 350.2,-131.5 350.2,-112.5 302.2,-112.5"/>
<text text-anchor="middle" x="326.2" y="-119.5" font-family="Helvetica,sans-Serif" font-size="10.00">mutex</text>
</a>
</g>
</g>
<!-- Node8&#45;&gt;Node12 -->
<g id="edge12" class="edge">
<title>Node8&#45;&gt;Node12</title>
<path fill="none" stroke="midnightblue" d="M298.65,-168.08C303.21,-160.61 309.87,-149.72 315.49,-140.52"/>
<polygon fill="midnightblue" stroke="midnightblue" points="318.62,-142.11 320.85,-131.75 312.65,-138.46 318.62,-142.11"/>
</g>
<!-- Node13 -->
<g id="node13" class="node">
<title>Node13</title>
<g id="a_node13"><a xlink:title=" ">
<polygon fill="white" stroke="#bfbfbf" points="368.7,-112.5 368.7,-131.5 475.7,-131.5 475.7,-112.5 368.7,-112.5"/>
<text text-anchor="middle" x="422.2" y="-119.5" font-family="Helvetica,sans-Serif" font-size="10.00">condition_variable</text>
</a>
</g>
</g>
<!-- Node8&#45;&gt;Node13 -->
<g id="edge13" class="edge">
<title>Node8&#45;&gt;Node13</title>
<path fill="none" stroke="midnightblue" d="M313.64,-168.44C334.87,-159.56 368.3,-145.56 392.46,-135.45"/>
<polygon fill="midnightblue" stroke="midnightblue" points="393.98,-138.61 401.86,-131.52 391.28,-132.15 393.98,-138.61"/>
</g>
<!-- Node14 -->
<g id="node14" class="node">
<title>Node14</title>
<g id="a_node14"><a xlink:title=" ">
<polygon fill="white" stroke="#bfbfbf" points="493.7,-112.5 493.7,-131.5 558.7,-131.5 558.7,-112.5 493.7,-112.5"/>
<text text-anchor="middle" x="526.2" y="-119.5" font-family="Helvetica,sans-Serif" font-size="10.00">functional</text>
</a>
</g>
</g>
<!-- Node8&#45;&gt;Node14 -->
<g id="edge14" class="edge">
<title>Node8&#45;&gt;Node14</title>
<path fill="none" stroke="midnightblue" d="M330.12,-168.44C371.91,-158.76 439.85,-143.01 483.78,-132.83"/>
<polygon fill="midnightblue" stroke="midnightblue" points="484.64,-136.23 493.59,-130.56 483.06,-129.41 484.64,-136.23"/>
</g>
<!-- Node15 -->
<g id="node15" class="node">
<title>Node15</title>
<g id="a_node15"><a xlink:title=" ">
<polygon fill="white" stroke="#bfbfbf" points="577.2,-112.5 577.2,-131.5 627.2,-131.5 627.2,-112.5 577.2,-112.5"/>
<text text-anchor="middle" x="602.2" y="-119.5" font-family="Helvetica,sans-Serif" font-size="10.00">atomic</text>
</a>
</g>
</g>
<!-- Node8&#45;&gt;Node15 -->
<g id="edge15" class="edge">
<title>Node8&#45;&gt;Node15</title>
<path fill="none" stroke="midnightblue" d="M346.81,-168.86C410.24,-159.12 513.09,-142.99 566.93,-132.07"/>
<polygon fill="midnightblue" stroke="midnightblue" points="567.94,-135.43 577.01,-129.96 566.51,-128.58 567.94,-135.43"/>
</g>
<!-- Node17 -->
<g id="node17" class="node">
<title>Node17</title>
<g id="a_node17"><a xlink:href="request__executor_8hpp.html" target="_top" xlink:title="Declares the abstract RequestExecutor interface for executing requests.">
<polygon fill="white" stroke="black" points="645.2,-112.5 645.2,-131.5 785.2,-131.5 785.2,-112.5 645.2,-112.5"/>
<text text-anchor="middle" x="715.2" y="-119.5" font-family="Helvetica,sans-Serif" font-size="10.00">inc/request_executor.hpp</text>
</a>
</g>
</g>
<!-- Node16&#45;&gt;Node17 -->
<g id="edge17" class="edge">
<title>Node16&#45;&gt;Node17</title>
<path fill="none" stroke="midnightblue" d="M489.67,-168.44C536.61,-158.98 612.28,-143.74 662.85,-133.55"/>
<polygon fill="midnightblue" stroke="midnightblue" points="663.82,-136.92 672.93,-131.52 662.44,-130.06 663.82,-136.92"/>
</g>
<!-- Node17&#45;&gt;Node6 -->
<g id="edge18" class="edge">
<title>Node17&#45;&gt;Node6</title>
<path fill="none" stroke="midnightblue" d="M648.57,-112.49C623.56,-106.17 596.74,-95.16 578.2,-76 566.33,-63.73 561.81,-44.47 560.13,-30.1"/>
<polygon fill="midnightblue" stroke="midnightblue" points="563.59,-29.53 559.29,-19.84 556.61,-30.09 563.59,-29.53"/>
</g>
<!-- Node18 -->
<g id="node18" class="node">
<title>Node18</title>
<g id="a_node18"><a xlink:title=" ">
<polygon fill="white" stroke="#bfbfbf" points="587.2,-56.5 587.2,-75.5 697.2,-75.5 697.2,-56.5 587.2,-56.5"/>
<text text-anchor="middle" x="642.2" y="-63.5" font-family="Helvetica,sans-Serif" font-size="10.00">nlohmann/json.hpp</text>
</a>
</g>
</g>
<!-- Node17&#45;&gt;Node18 -->
<g id="edge19" class="edge">
<title>Node17&#45;&gt;Node18</title>
<path fill="none" stroke="midnightblue" d="M703.47,-112.32C692.36,-104.11 675.46,-91.6 662.22,-81.81"/>
<polygon fill="midnightblue" stroke="midnightblue" points="664.26,-78.97 654.14,-75.83 660.1,-84.59 664.26,-78.97"/>
</g>
<!-- Node19 -->
<g id="node19" class="node">
<title>Node19</title>
<g id="a_node19"><a xlink:href="container__request_8hpp.html" target="_top" xlink:title="Data structure for representing a container operation request.">
<polygon fill="white" stroke="black" points="715.7,-56.5 715.7,-75.5 858.7,-75.5 858.7,-56.5 715.7,-56.5"/>
<text text-anchor="middle" x="787.2" y="-63.5" font-family="Helvetica,sans-Serif" font-size="10.00">inc/container_request.hpp</text>
</a>
</g>
</g>
<!-- Node17&#45;&gt;Node19 -->
<g id="edge20" class="edge">
<title>Node17&#45;&gt;Node19</title>
<path fill="none" stroke="midnightblue" d="M726.77,-112.32C737.62,-104.18 754.08,-91.84 767.08,-82.09"/>
<polygon fill="midnightblue" stroke="midnightblue" points="769.52,-84.63 775.42,-75.83 765.32,-79.03 769.52,-84.63"/>
</g>
<!-- Node19&#45;&gt;Node6 -->
<g id="edge21" class="edge">
<title>Node19&#45;&gt;Node6</title>
<path fill="none" stroke="midnightblue" d="M751.07,-56.44C707.09,-46.03 633.47,-28.59 591.36,-18.62"/>
<polygon fill="midnightblue" stroke="midnightblue" points="591.91,-15.15 581.37,-16.25 590.29,-21.96 591.91,-15.15"/>
</g>
</g>
</svg>
