<?xml version="1.0" encoding="UTF-8" standalone="no"?>
<!DOCTYPE svg PUBLIC "-//W3C//DTD SVG 1.1//EN"
 "http://www.w3.org/Graphics/SVG/1.1/DTD/svg11.dtd">
<!-- Generated by graphviz version 2.43.0 (0)
 -->
<!-- Title: main Pages: 1 -->
<svg width="621pt" height="233pt"
 viewBox="0.00 0.00 621.00 233.00" xmlns="http://www.w3.org/2000/svg" xmlns:xlink="http://www.w3.org/1999/xlink">
<g id="graph0" class="graph" transform="scale(1 1) rotate(0) translate(4 229)">
<title>main</title>
<polygon fill="white" stroke="transparent" points="-4,4 -4,-229 617,-229 617,4 -4,4"/>
<!-- Node1 -->
<g id="node1" class="node">
<title>Node1</title>
<g id="a_node1"><a xlink:title="Main entry point for the Container Manager application.">
<polygon fill="#bfbfbf" stroke="black" points="0,-66.5 0,-85.5 41,-85.5 41,-66.5 0,-66.5"/>
<text text-anchor="middle" x="20.5" y="-73.5" font-family="Helvetica,sans-Serif" font-size="10.00">main</text>
</a>
</g>
</g>
<!-- Node2 -->
<g id="node2" class="node">
<title>Node2</title>
<g id="a_node2"><a xlink:href="init__handler_8hpp.html#ad98029164064eb3e856369697d9cc015" target="_top" xlink:title="Initializes all enabled project subsystems.">
<polygon fill="white" stroke="black" points="111.5,-126.5 111.5,-145.5 177.5,-145.5 177.5,-126.5 111.5,-126.5"/>
<text text-anchor="middle" x="144.5" y="-133.5" font-family="Helvetica,sans-Serif" font-size="10.00">InitProject</text>
</a>
</g>
</g>
<!-- Node1&#45;&gt;Node2 -->
<g id="edge1" class="edge">
<title>Node1&#45;&gt;Node2</title>
<path fill="none" stroke="midnightblue" d="M32.21,-85.75C42.86,-94.98 60.02,-108.64 77,-117 84.67,-120.77 93.21,-123.92 101.55,-126.49"/>
<polygon fill="midnightblue" stroke="midnightblue" points="100.6,-129.86 111.18,-129.25 102.53,-123.13 100.6,-129.86"/>
</g>
<!-- Node9 -->
<g id="node9" class="node">
<title>Node9</title>
<g id="a_node9"><a xlink:href="main_8cpp.html#a7972e8125628180f0e4d04a8f805ced6" target="_top" xlink:title="Signal handler for graceful shutdown.">
<polygon fill="white" stroke="black" points="102,-88.5 102,-107.5 187,-107.5 187,-88.5 102,-88.5"/>
<text text-anchor="middle" x="144.5" y="-95.5" font-family="Helvetica,sans-Serif" font-size="10.00">SignalHandler</text>
</a>
</g>
</g>
<!-- Node1&#45;&gt;Node9 -->
<g id="edge8" class="edge">
<title>Node1&#45;&gt;Node9</title>
<path fill="none" stroke="midnightblue" d="M41.1,-79.53C54.91,-82.03 74.08,-85.48 92.1,-88.73"/>
<polygon fill="midnightblue" stroke="midnightblue" points="91.5,-92.18 101.96,-90.51 92.74,-85.29 91.5,-92.18"/>
</g>
<!-- Node10 -->
<g id="node10" class="node">
<title>Node10</title>
<g id="a_node10"><a xlink:href="classHttpServerHandler.html#aa6719e2ab219e695c6762836bc9b9506" target="_top" xlink:title="Starts the HTTP server on the specified host and port.">
<polygon fill="white" stroke="black" points="88,-39 88,-69 201,-69 201,-39 88,-39"/>
<text text-anchor="start" x="96" y="-57" font-family="Helvetica,sans-Serif" font-size="10.00">HttpServerHandler::</text>
<text text-anchor="middle" x="144.5" y="-46" font-family="Helvetica,sans-Serif" font-size="10.00">Start</text>
</a>
</g>
</g>
<!-- Node1&#45;&gt;Node10 -->
<g id="edge9" class="edge">
<title>Node1&#45;&gt;Node10</title>
<path fill="none" stroke="midnightblue" d="M41.1,-72.47C51.25,-70.64 64.28,-68.29 77.63,-65.88"/>
<polygon fill="midnightblue" stroke="midnightblue" points="78.64,-69.25 87.86,-64.03 77.4,-62.36 78.64,-69.25"/>
</g>
<!-- Node11 -->
<g id="node11" class="node">
<title>Node11</title>
<g id="a_node11"><a xlink:href="classHttpServerHandler.html#af722b87666008983f00f817bbb367f26" target="_top" xlink:title="Stops the HTTP server if it is running.">
<polygon fill="white" stroke="black" points="77,-0.5 77,-19.5 212,-19.5 212,-0.5 77,-0.5"/>
<text text-anchor="middle" x="144.5" y="-7.5" font-family="Helvetica,sans-Serif" font-size="10.00">HttpServerHandler::Stop</text>
</a>
</g>
</g>
<!-- Node1&#45;&gt;Node11 -->
<g id="edge10" class="edge">
<title>Node1&#45;&gt;Node11</title>
<path fill="none" stroke="midnightblue" d="M30.4,-66.32C40.66,-55.7 58.51,-38.87 77,-29 81.21,-26.75 85.72,-24.74 90.34,-22.95"/>
<polygon fill="midnightblue" stroke="midnightblue" points="91.62,-26.21 99.88,-19.58 89.29,-19.61 91.62,-26.21"/>
</g>
<!-- Node3 -->
<g id="node3" class="node">
<title>Node3</title>
<g id="a_node3"><a xlink:href="init__handler_8cpp.html#a3ca899cad245b508cfb58fd9230fa669" target="_top" xlink:title="Initializes and clears the database.">
<polygon fill="white" stroke="black" points="282,-183.5 282,-202.5 361,-202.5 361,-183.5 282,-183.5"/>
<text text-anchor="middle" x="321.5" y="-190.5" font-family="Helvetica,sans-Serif" font-size="10.00">InitDatabase</text>
</a>
</g>
</g>
<!-- Node2&#45;&gt;Node3 -->
<g id="edge2" class="edge">
<title>Node2&#45;&gt;Node3</title>
<path fill="none" stroke="midnightblue" d="M169.29,-145.58C189.92,-153.7 220.67,-165.38 248,-174 255.76,-176.45 264.06,-178.84 272.17,-181.05"/>
<polygon fill="midnightblue" stroke="midnightblue" points="271.35,-184.45 281.92,-183.64 273.16,-177.69 271.35,-184.45"/>
</g>
<!-- Node6 -->
<g id="node6" class="node">
<title>Node6</title>
<g id="a_node6"><a xlink:href="init__handler_8cpp.html#a9c6fd2b1fc6d60ab2f80b2799b0fa81e" target="_top" xlink:title="Initializes logging using Google glog.">
<polygon fill="white" stroke="black" points="286,-145.5 286,-164.5 357,-164.5 357,-145.5 286,-145.5"/>
<text text-anchor="middle" x="321.5" y="-152.5" font-family="Helvetica,sans-Serif" font-size="10.00">InitLogging</text>
</a>
</g>
</g>
<!-- Node2&#45;&gt;Node6 -->
<g id="edge5" class="edge">
<title>Node2&#45;&gt;Node6</title>
<path fill="none" stroke="midnightblue" d="M177.6,-139.48C205.17,-142.48 245.21,-146.83 275.89,-150.16"/>
<polygon fill="midnightblue" stroke="midnightblue" points="275.59,-153.64 285.91,-151.24 276.35,-146.69 275.59,-153.64"/>
</g>
<!-- Node7 -->
<g id="node7" class="node">
<title>Node7</title>
<g id="a_node7"><a xlink:href="init__handler_8cpp.html#ac622dccafc9db8b54a3d5ef6d98eed8e" target="_top" xlink:title="Clears the POSIX message queue at startup.">
<polygon fill="white" stroke="black" points="268,-107.5 268,-126.5 375,-126.5 375,-107.5 268,-107.5"/>
<text text-anchor="middle" x="321.5" y="-114.5" font-family="Helvetica,sans-Serif" font-size="10.00">InitMessageQueue</text>
</a>
</g>
</g>
<!-- Node2&#45;&gt;Node7 -->
<g id="edge6" class="edge">
<title>Node2&#45;&gt;Node7</title>
<path fill="none" stroke="midnightblue" d="M177.6,-132.52C200,-130.08 230.62,-126.76 257.78,-123.81"/>
<polygon fill="midnightblue" stroke="midnightblue" points="258.43,-127.26 267.99,-122.7 257.67,-120.3 258.43,-127.26"/>
</g>
<!-- Node8 -->
<g id="node8" class="node">
<title>Node8</title>
<g id="a_node8"><a xlink:href="init__handler_8cpp.html#a57b18ca1632517db21aa1491c585762a" target="_top" xlink:title="Stub for clearing retained MQTT messages when MQTT is disabled.">
<polygon fill="white" stroke="black" points="248,-69.5 248,-88.5 395,-88.5 395,-69.5 248,-69.5"/>
<text text-anchor="middle" x="321.5" y="-76.5" font-family="Helvetica,sans-Serif" font-size="10.00">InitMqttRetainedMessages</text>
</a>
</g>
</g>
<!-- Node2&#45;&gt;Node8 -->
<g id="edge7" class="edge">
<title>Node2&#45;&gt;Node8</title>
<path fill="none" stroke="midnightblue" d="M177.75,-128.23C188.78,-125.2 201.08,-121.39 212,-117 228.79,-110.26 231.14,-104.56 248,-98 254.27,-95.56 260.97,-93.33 267.67,-91.32"/>
<polygon fill="midnightblue" stroke="midnightblue" points="268.77,-94.65 277.43,-88.55 266.85,-87.92 268.77,-94.65"/>
</g>
<!-- Node4 -->
<g id="node4" class="node">
<title>Node4</title>
<g id="a_node4"><a xlink:href="classIDatabaseHandler.html#a79f638c8332acdfb054d1f915f77c760" target="_top" xlink:title="Clears all data from the database.">
<polygon fill="white" stroke="black" points="431,-205.5 431,-224.5 613,-224.5 613,-205.5 431,-205.5"/>
<text text-anchor="middle" x="522" y="-212.5" font-family="Helvetica,sans-Serif" font-size="10.00">IDatabaseHandler::ClearDatabase</text>
</a>
</g>
</g>
<!-- Node3&#45;&gt;Node4 -->
<g id="edge3" class="edge">
<title>Node3&#45;&gt;Node4</title>
<path fill="none" stroke="midnightblue" d="M361.24,-197.29C379.62,-199.33 402.48,-201.86 425.1,-204.37"/>
<polygon fill="midnightblue" stroke="midnightblue" points="424.79,-207.86 435.11,-205.48 425.56,-200.9 424.79,-207.86"/>
</g>
<!-- Node5 -->
<g id="node5" class="node">
<title>Node5</title>
<g id="a_node5"><a xlink:href="classRedisDatabaseHandler.html#a07c65b208d5997ec20ed239dca4081ce" target="_top" xlink:title="Retrieves the singleton instance of the RedisDatabaseHandler.">
<polygon fill="white" stroke="black" points="458,-156 458,-186 586,-186 586,-156 458,-156"/>
<text text-anchor="start" x="466" y="-174" font-family="Helvetica,sans-Serif" font-size="10.00">RedisDatabaseHandler</text>
<text text-anchor="middle" x="522" y="-163" font-family="Helvetica,sans-Serif" font-size="10.00">::GetInstance</text>
</a>
</g>
</g>
<!-- Node3&#45;&gt;Node5 -->
<g id="edge4" class="edge">
<title>Node3&#45;&gt;Node5</title>
<path fill="none" stroke="midnightblue" d="M361.24,-188.71C385.77,-185.99 418.27,-182.39 447.54,-179.14"/>
<polygon fill="midnightblue" stroke="midnightblue" points="448.19,-182.59 457.75,-178.01 447.42,-175.63 448.19,-182.59"/>
</g>
</g>
</svg>
