<?xml version="1.0" encoding="UTF-8" standalone="no"?>
<!DOCTYPE svg PUBLIC "-//W3C//DTD SVG 1.1//EN"
 "http://www.w3.org/Graphics/SVG/1.1/DTD/svg11.dtd">
<!-- Generated by graphviz version 2.43.0 (0)
 -->
<!-- Title: main.cpp Pages: 1 -->
<!--zoomable 319 -->
<svg id="main" version="1.1" xmlns="http://www.w3.org/2000/svg" xmlns:xlink="http://www.w3.org/1999/xlink" xml:space="preserve" onload="init(evt)">
<style type="text/css"><![CDATA[
.edge:hover path { stroke: red; }
.edge:hover polygon { stroke: red; fill: red; }
]]></style>
<script type="text/javascript"><![CDATA[
var edges = document.getElementsByTagName('g');
if (edges && edges.length) {
  for (var i=0;i<edges.length;i++) {
    if (edges[i].id.substr(0,4)=='edge') {
      edges[i].setAttribute('class','edge');
    }
  }
}
]]></script>
        <defs>
                <circle id="rim" cx="0" cy="0" r="7"/>
                <circle id="rim2" cx="0" cy="0" r="3.5"/>
                <g id="zoomPlus">
                        <use xlink:href="#rim" fill="#404040">
                                <set attributeName="fill" to="#808080" begin="zoomplus.mouseover" end="zoomplus.mouseout"/>
                        </use>
                        <path d="M-4,0h8M0,-4v8" fill="none" stroke="white" stroke-width="1.5" pointer-events="none"/>
                </g>
                <g id="zoomMin">
                        <use xlink:href="#rim" fill="#404040">
                                <set attributeName="fill" to="#808080" begin="zoomminus.mouseover" end="zoomminus.mouseout"/>
                        </use>
                        <path d="M-4,0h8" fill="none" stroke="white" stroke-width="1.5" pointer-events="none"/>
                </g>
                <g id="dirArrow">
                        <path fill="none" stroke="white" stroke-width="1.5" d="M0,-3.0v7 M-2.5,-0.5L0,-3.0L2.5,-0.5"/>
                </g>
               <g id="resetDef">
                       <use xlink:href="#rim2" fill="#404040">
                               <set attributeName="fill" to="#808080" begin="reset.mouseover" end="reset.mouseout"/>
                       </use>
               </g>
        </defs>

<script type="text/javascript">
var viewWidth = 807;
var viewHeight = 319;
var sectionId = 'dynsection-0';
</script>
<script xlink:href="svgpan.js"/>
<svg id="graph" class="graph">
<g id="viewport">
<title>main.cpp</title>
<polygon fill="white" stroke="transparent" points="-4,4 -4,-315 803.45,-315 803.45,4 -4,4"/>
<!-- Node1 -->
<g id="node1" class="node">
<title>Node1</title>
<g id="a_node1"><a xlink:title="Entry point for the Container Manager application.">
<polygon fill="#bfbfbf" stroke="black" points="354.16,-291.5 354.16,-310.5 416.16,-310.5 416.16,-291.5 354.16,-291.5"/>
<text text-anchor="middle" x="385.16" y="-298.5" font-family="Helvetica,sans-Serif" font-size="10.00">main.cpp</text>
</a>
</g>
</g>
<!-- Node2 -->
<g id="node2" class="node">
<title>Node2</title>
<g id="a_node2"><a xlink:title=" ">
<polygon fill="white" stroke="#bfbfbf" points="185.16,-168.5 185.16,-187.5 243.16,-187.5 243.16,-168.5 185.16,-168.5"/>
<text text-anchor="middle" x="214.16" y="-175.5" font-family="Helvetica,sans-Serif" font-size="10.00">memory</text>
</a>
</g>
</g>
<!-- Node1&#45;&gt;Node2 -->
<g id="edge1" class="edge">
<title>Node1&#45;&gt;Node2</title>
<path fill="none" stroke="midnightblue" d="M370.79,-291.38C356.28,-282.57 333.34,-268.33 314.16,-255 285,-234.73 252.46,-209.48 232.65,-193.8"/>
<polygon fill="midnightblue" stroke="midnightblue" points="234.75,-191 224.74,-187.52 230.39,-196.48 234.75,-191"/>
</g>
<!-- Node3 -->
<g id="node3" class="node">
<title>Node3</title>
<g id="a_node3"><a xlink:title=" ">
<polygon fill="white" stroke="#bfbfbf" points="496.16,-230 496.16,-249 582.16,-249 582.16,-230 496.16,-230"/>
<text text-anchor="middle" x="539.16" y="-237" font-family="Helvetica,sans-Serif" font-size="10.00">glog/logging.h</text>
</a>
</g>
</g>
<!-- Node1&#45;&gt;Node3 -->
<g id="edge2" class="edge">
<title>Node1&#45;&gt;Node3</title>
<path fill="none" stroke="midnightblue" d="M407.23,-291.48C433.53,-281.31 477.68,-264.26 507.59,-252.7"/>
<polygon fill="midnightblue" stroke="midnightblue" points="509.07,-255.88 517.14,-249.01 506.55,-249.35 509.07,-255.88"/>
</g>
<!-- Node4 -->
<g id="node4" class="node">
<title>Node4</title>
<g id="a_node4"><a xlink:href="common_8hpp.html" target="_top" xlink:title="Defines common constants, string views, and utility structures for the application.">
<polygon fill="white" stroke="black" points="634.16,-168.5 634.16,-187.5 732.16,-187.5 732.16,-168.5 634.16,-168.5"/>
<text text-anchor="middle" x="683.16" y="-175.5" font-family="Helvetica,sans-Serif" font-size="10.00">inc/common.hpp</text>
</a>
</g>
</g>
<!-- Node1&#45;&gt;Node4 -->
<g id="edge3" class="edge">
<title>Node1&#45;&gt;Node4</title>
<path fill="none" stroke="midnightblue" d="M398.11,-291.3C411.17,-282.42 431.84,-268.13 449.16,-255 466.53,-241.83 467.58,-233.58 487.16,-224 530.39,-202.85 583.88,-191.43 624.05,-185.4"/>
<polygon fill="midnightblue" stroke="midnightblue" points="624.56,-188.86 633.97,-183.98 623.57,-181.93 624.56,-188.86"/>
</g>
<!-- Node7 -->
<g id="node7" class="node">
<title>Node7</title>
<g id="a_node7"><a xlink:href="http__server_8hpp.html" target="_top" xlink:title="Defines the HttpServerHandler class for handling HTTP requests.">
<polygon fill="white" stroke="black" points="330.16,-230 330.16,-249 440.16,-249 440.16,-230 330.16,-230"/>
<text text-anchor="middle" x="385.16" y="-237" font-family="Helvetica,sans-Serif" font-size="10.00">inc/http_server.hpp</text>
</a>
</g>
</g>
<!-- Node1&#45;&gt;Node7 -->
<g id="edge6" class="edge">
<title>Node1&#45;&gt;Node7</title>
<path fill="none" stroke="midnightblue" d="M385.16,-291.48C385.16,-283.08 385.16,-269.98 385.16,-259.16"/>
<polygon fill="midnightblue" stroke="midnightblue" points="388.66,-259.01 385.16,-249.01 381.66,-259.01 388.66,-259.01"/>
</g>
<!-- Node16 -->
<g id="node16" class="node">
<title>Node16</title>
<g id="a_node16"><a xlink:href="json__request__executor_8hpp.html" target="_top" xlink:title="Defines the JsonRequestExecutorHandler class for executing JSON&#45;based requests.">
<polygon fill="white" stroke="black" points="261.66,-168.5 261.66,-187.5 426.66,-187.5 426.66,-168.5 261.66,-168.5"/>
<text text-anchor="middle" x="344.16" y="-175.5" font-family="Helvetica,sans-Serif" font-size="10.00">inc/json_request_executor.hpp</text>
</a>
</g>
</g>
<!-- Node1&#45;&gt;Node16 -->
<g id="edge24" class="edge">
<title>Node1&#45;&gt;Node16</title>
<path fill="none" stroke="midnightblue" d="M363.68,-291.36C348.77,-284.09 330.05,-272.12 321.16,-255 311.38,-236.16 321.69,-212.47 331.47,-196.6"/>
<polygon fill="midnightblue" stroke="midnightblue" points="334.67,-198.1 337.29,-187.84 328.84,-194.22 334.67,-198.1"/>
</g>
<!-- Node20 -->
<g id="node20" class="node">
<title>Node20</title>
<g id="a_node20"><a xlink:href="init__handler_8hpp.html" target="_top" xlink:title="Declares project&#45;wide initialization functions.">
<polygon fill="white" stroke="black" points="600.66,-230 600.66,-249 713.66,-249 713.66,-230 600.66,-230"/>
<text text-anchor="middle" x="657.16" y="-237" font-family="Helvetica,sans-Serif" font-size="10.00">inc/init_handler.hpp</text>
</a>
</g>
</g>
<!-- Node1&#45;&gt;Node20 -->
<g id="edge23" class="edge">
<title>Node1&#45;&gt;Node20</title>
<path fill="none" stroke="midnightblue" d="M416.23,-293.23C456.55,-284.43 529.12,-268.59 591.16,-255 596.82,-253.76 602.74,-252.46 608.62,-251.17"/>
<polygon fill="midnightblue" stroke="midnightblue" points="609.41,-254.58 618.43,-249.02 607.91,-247.74 609.41,-254.58"/>
</g>
<!-- Node21 -->
<g id="node21" class="node">
<title>Node21</title>
<g id="a_node21"><a xlink:href="mosquitto__mqtt__subscriber_8hpp.html" target="_top" xlink:title="Declares the MosquittoMqttSubscriber class for handling MQTT messages using Mosquitto.">
<polygon fill="white" stroke="black" points="67.16,-224.5 67.16,-254.5 179.16,-254.5 179.16,-224.5 67.16,-224.5"/>
<text text-anchor="start" x="75.16" y="-242.5" font-family="Helvetica,sans-Serif" font-size="10.00">inc/mosquitto_mqtt</text>
<text text-anchor="middle" x="123.16" y="-231.5" font-family="Helvetica,sans-Serif" font-size="10.00">_subscriber.hpp</text>
</a>
</g>
</g>
<!-- Node1&#45;&gt;Node21 -->
<g id="edge25" class="edge">
<title>Node1&#45;&gt;Node21</title>
<path fill="none" stroke="midnightblue" d="M354.08,-292.94C313.65,-283.76 241.96,-267.48 189.15,-255.48"/>
<polygon fill="midnightblue" stroke="midnightblue" points="189.71,-252.02 179.18,-253.22 188.16,-258.85 189.71,-252.02"/>
</g>
<!-- Node5 -->
<g id="node5" class="node">
<title>Node5</title>
<g id="a_node5"><a xlink:title=" ">
<polygon fill="white" stroke="#bfbfbf" points="113.16,-0.5 113.16,-19.5 157.16,-19.5 157.16,-0.5 113.16,-0.5"/>
<text text-anchor="middle" x="135.16" y="-7.5" font-family="Helvetica,sans-Serif" font-size="10.00">string</text>
</a>
</g>
</g>
<!-- Node4&#45;&gt;Node5 -->
<g id="edge4" class="edge">
<title>Node4&#45;&gt;Node5</title>
<path fill="none" stroke="midnightblue" d="M725.12,-168.45C765.36,-158.4 816.78,-139.52 793.16,-112 710.78,-16.01 288.21,-10.33 167.44,-10.7"/>
<polygon fill="midnightblue" stroke="midnightblue" points="167.33,-7.2 157.34,-10.75 167.36,-14.2 167.33,-7.2"/>
</g>
<!-- Node6 -->
<g id="node6" class="node">
<title>Node6</title>
<g id="a_node6"><a xlink:title=" ">
<polygon fill="white" stroke="#bfbfbf" points="710.66,-112.5 710.66,-131.5 783.66,-131.5 783.66,-112.5 710.66,-112.5"/>
<text text-anchor="middle" x="747.16" y="-119.5" font-family="Helvetica,sans-Serif" font-size="10.00">string_view</text>
</a>
</g>
</g>
<!-- Node4&#45;&gt;Node6 -->
<g id="edge5" class="edge">
<title>Node4&#45;&gt;Node6</title>
<path fill="none" stroke="midnightblue" d="M693.45,-168.32C703,-160.26 717.44,-148.08 728.95,-138.37"/>
<polygon fill="midnightblue" stroke="midnightblue" points="731.31,-140.96 736.69,-131.83 726.79,-135.61 731.31,-140.96"/>
</g>
<!-- Node7&#45;&gt;Node2 -->
<g id="edge7" class="edge">
<title>Node7&#45;&gt;Node2</title>
<path fill="none" stroke="midnightblue" d="M360.66,-229.98C331.2,-219.72 281.58,-202.46 248.36,-190.9"/>
<polygon fill="midnightblue" stroke="midnightblue" points="249.21,-187.49 238.62,-187.51 246.91,-194.1 249.21,-187.49"/>
</g>
<!-- Node7&#45;&gt;Node4 -->
<g id="edge8" class="edge">
<title>Node7&#45;&gt;Node4</title>
<path fill="none" stroke="midnightblue" d="M425.28,-229.98C434.75,-227.99 444.81,-225.9 454.16,-224 513.9,-211.85 582.52,-198.44 628.95,-189.45"/>
<polygon fill="midnightblue" stroke="midnightblue" points="629.65,-192.88 638.8,-187.54 628.32,-186 629.65,-192.88"/>
</g>
<!-- Node8 -->
<g id="node8" class="node">
<title>Node8</title>
<g id="a_node8"><a xlink:href="threadpool_8hpp.html" target="_top" xlink:title="Declares the ThreadPool utility class for managing worker threads.">
<polygon fill="white" stroke="black" points="444.66,-168.5 444.66,-187.5 551.66,-187.5 551.66,-168.5 444.66,-168.5"/>
<text text-anchor="middle" x="498.16" y="-175.5" font-family="Helvetica,sans-Serif" font-size="10.00">inc/threadpool.hpp</text>
</a>
</g>
</g>
<!-- Node7&#45;&gt;Node8 -->
<g id="edge9" class="edge">
<title>Node7&#45;&gt;Node8</title>
<path fill="none" stroke="midnightblue" d="M401.35,-229.98C420.07,-220.12 451.09,-203.79 472.96,-192.27"/>
<polygon fill="midnightblue" stroke="midnightblue" points="474.79,-195.27 482,-187.51 471.52,-189.07 474.79,-195.27"/>
</g>
<!-- Node7&#45;&gt;Node16 -->
<g id="edge17" class="edge">
<title>Node7&#45;&gt;Node16</title>
<path fill="none" stroke="midnightblue" d="M379.29,-229.98C373.2,-221.14 363.52,-207.09 355.86,-195.98"/>
<polygon fill="midnightblue" stroke="midnightblue" points="358.58,-193.76 350.03,-187.51 352.82,-197.73 358.58,-193.76"/>
</g>
<!-- Node9 -->
<g id="node9" class="node">
<title>Node9</title>
<g id="a_node9"><a xlink:title=" ">
<polygon fill="white" stroke="#bfbfbf" points="578.66,-112.5 578.66,-131.5 625.66,-131.5 625.66,-112.5 578.66,-112.5"/>
<text text-anchor="middle" x="602.16" y="-119.5" font-family="Helvetica,sans-Serif" font-size="10.00">vector</text>
</a>
</g>
</g>
<!-- Node8&#45;&gt;Node9 -->
<g id="edge10" class="edge">
<title>Node8&#45;&gt;Node9</title>
<path fill="none" stroke="midnightblue" d="M514.87,-168.32C531.48,-159.7 557.17,-146.36 576.38,-136.39"/>
<polygon fill="midnightblue" stroke="midnightblue" points="578.23,-139.37 585.5,-131.65 575.01,-133.16 578.23,-139.37"/>
</g>
<!-- Node10 -->
<g id="node10" class="node">
<title>Node10</title>
<g id="a_node10"><a xlink:title=" ">
<polygon fill="white" stroke="#bfbfbf" points="644.16,-112.5 644.16,-131.5 692.16,-131.5 692.16,-112.5 644.16,-112.5"/>
<text text-anchor="middle" x="668.16" y="-119.5" font-family="Helvetica,sans-Serif" font-size="10.00">thread</text>
</a>
</g>
</g>
<!-- Node8&#45;&gt;Node10 -->
<g id="edge11" class="edge">
<title>Node8&#45;&gt;Node10</title>
<path fill="none" stroke="midnightblue" d="M525.1,-168.44C554.67,-159.05 602.19,-143.96 634.27,-133.77"/>
<polygon fill="midnightblue" stroke="midnightblue" points="635.63,-137.01 644.1,-130.64 633.51,-130.34 635.63,-137.01"/>
</g>
<!-- Node11 -->
<g id="node11" class="node">
<title>Node11</title>
<g id="a_node11"><a xlink:title=" ">
<polygon fill="white" stroke="#bfbfbf" points="169.66,-112.5 169.66,-131.5 216.66,-131.5 216.66,-112.5 169.66,-112.5"/>
<text text-anchor="middle" x="193.16" y="-119.5" font-family="Helvetica,sans-Serif" font-size="10.00">queue</text>
</a>
</g>
</g>
<!-- Node8&#45;&gt;Node11 -->
<g id="edge12" class="edge">
<title>Node8&#45;&gt;Node11</title>
<path fill="none" stroke="midnightblue" d="M444.55,-168.8C381.75,-159.08 280.46,-143.04 226.93,-131.93"/>
<polygon fill="midnightblue" stroke="midnightblue" points="227.4,-128.45 216.88,-129.78 225.93,-135.3 227.4,-128.45"/>
</g>
<!-- Node12 -->
<g id="node12" class="node">
<title>Node12</title>
<g id="a_node12"><a xlink:title=" ">
<polygon fill="white" stroke="#bfbfbf" points="235.16,-112.5 235.16,-131.5 283.16,-131.5 283.16,-112.5 235.16,-112.5"/>
<text text-anchor="middle" x="259.16" y="-119.5" font-family="Helvetica,sans-Serif" font-size="10.00">mutex</text>
</a>
</g>
</g>
<!-- Node8&#45;&gt;Node12 -->
<g id="edge13" class="edge">
<title>Node8&#45;&gt;Node12</title>
<path fill="none" stroke="midnightblue" d="M456.2,-168.49C416.59,-160.31 355.31,-147.28 293.24,-132.17"/>
<polygon fill="midnightblue" stroke="midnightblue" points="293.82,-128.71 283.28,-129.73 292.16,-135.51 293.82,-128.71"/>
</g>
<!-- Node13 -->
<g id="node13" class="node">
<title>Node13</title>
<g id="a_node13"><a xlink:title=" ">
<polygon fill="white" stroke="#bfbfbf" points="301.66,-112.5 301.66,-131.5 408.66,-131.5 408.66,-112.5 301.66,-112.5"/>
<text text-anchor="middle" x="355.16" y="-119.5" font-family="Helvetica,sans-Serif" font-size="10.00">condition_variable</text>
</a>
</g>
</g>
<!-- Node8&#45;&gt;Node13 -->
<g id="edge14" class="edge">
<title>Node8&#45;&gt;Node13</title>
<path fill="none" stroke="midnightblue" d="M475.5,-168.44C451.76,-159.48 414.25,-145.31 387.42,-135.18"/>
<polygon fill="midnightblue" stroke="midnightblue" points="388.31,-131.77 377.72,-131.52 385.83,-138.32 388.31,-131.77"/>
</g>
<!-- Node14 -->
<g id="node14" class="node">
<title>Node14</title>
<g id="a_node14"><a xlink:title=" ">
<polygon fill="white" stroke="#bfbfbf" points="426.66,-112.5 426.66,-131.5 491.66,-131.5 491.66,-112.5 426.66,-112.5"/>
<text text-anchor="middle" x="459.16" y="-119.5" font-family="Helvetica,sans-Serif" font-size="10.00">functional</text>
</a>
</g>
</g>
<!-- Node8&#45;&gt;Node14 -->
<g id="edge15" class="edge">
<title>Node8&#45;&gt;Node14</title>
<path fill="none" stroke="midnightblue" d="M491.72,-168.08C486.21,-160.46 478.13,-149.26 471.4,-139.94"/>
<polygon fill="midnightblue" stroke="midnightblue" points="474.18,-137.81 465.48,-131.75 468.5,-141.91 474.18,-137.81"/>
</g>
<!-- Node15 -->
<g id="node15" class="node">
<title>Node15</title>
<g id="a_node15"><a xlink:title=" ">
<polygon fill="white" stroke="#bfbfbf" points="510.16,-112.5 510.16,-131.5 560.16,-131.5 560.16,-112.5 510.16,-112.5"/>
<text text-anchor="middle" x="535.16" y="-119.5" font-family="Helvetica,sans-Serif" font-size="10.00">atomic</text>
</a>
</g>
</g>
<!-- Node8&#45;&gt;Node15 -->
<g id="edge16" class="edge">
<title>Node8&#45;&gt;Node15</title>
<path fill="none" stroke="midnightblue" d="M504.27,-168.08C509.45,-160.53 517.01,-149.49 523.36,-140.23"/>
<polygon fill="midnightblue" stroke="midnightblue" points="526.4,-141.98 529.17,-131.75 520.63,-138.02 526.4,-141.98"/>
</g>
<!-- Node17 -->
<g id="node17" class="node">
<title>Node17</title>
<g id="a_node17"><a xlink:href="request__executor_8hpp.html" target="_top" xlink:title="Declares the abstract RequestExecutor interface for executing requests.">
<polygon fill="white" stroke="black" points="11.16,-112.5 11.16,-131.5 151.16,-131.5 151.16,-112.5 11.16,-112.5"/>
<text text-anchor="middle" x="81.16" y="-119.5" font-family="Helvetica,sans-Serif" font-size="10.00">inc/request_executor.hpp</text>
</a>
</g>
</g>
<!-- Node16&#45;&gt;Node17 -->
<g id="edge18" class="edge">
<title>Node16&#45;&gt;Node17</title>
<path fill="none" stroke="midnightblue" d="M302.49,-168.44C256.42,-158.98 182.17,-143.74 132.53,-133.55"/>
<polygon fill="midnightblue" stroke="midnightblue" points="133.14,-130.1 122.64,-131.52 131.73,-136.96 133.14,-130.1"/>
</g>
<!-- Node17&#45;&gt;Node5 -->
<g id="edge19" class="edge">
<title>Node17&#45;&gt;Node5</title>
<path fill="none" stroke="midnightblue" d="M68.8,-112.37C52.53,-99.92 27.39,-76.18 40.16,-56 53.9,-34.3 81.23,-22.86 103.07,-16.96"/>
<polygon fill="midnightblue" stroke="midnightblue" points="104.07,-20.32 112.96,-14.55 102.41,-13.51 104.07,-20.32"/>
</g>
<!-- Node18 -->
<g id="node18" class="node">
<title>Node18</title>
<g id="a_node18"><a xlink:title=" ">
<polygon fill="white" stroke="#bfbfbf" points="49.16,-56.5 49.16,-75.5 159.16,-75.5 159.16,-56.5 49.16,-56.5"/>
<text text-anchor="middle" x="104.16" y="-63.5" font-family="Helvetica,sans-Serif" font-size="10.00">nlohmann/json.hpp</text>
</a>
</g>
</g>
<!-- Node17&#45;&gt;Node18 -->
<g id="edge20" class="edge">
<title>Node17&#45;&gt;Node18</title>
<path fill="none" stroke="midnightblue" d="M84.96,-112.08C88.08,-104.77 92.59,-94.18 96.45,-85.1"/>
<polygon fill="midnightblue" stroke="midnightblue" points="99.74,-86.32 100.44,-75.75 93.3,-83.58 99.74,-86.32"/>
</g>
<!-- Node19 -->
<g id="node19" class="node">
<title>Node19</title>
<g id="a_node19"><a xlink:href="container__request_8hpp.html" target="_top" xlink:title="Data structure for representing a container operation request.">
<polygon fill="white" stroke="black" points="177.66,-56.5 177.66,-75.5 320.66,-75.5 320.66,-56.5 177.66,-56.5"/>
<text text-anchor="middle" x="249.16" y="-63.5" font-family="Helvetica,sans-Serif" font-size="10.00">inc/container_request.hpp</text>
</a>
</g>
</g>
<!-- Node17&#45;&gt;Node19 -->
<g id="edge21" class="edge">
<title>Node17&#45;&gt;Node19</title>
<path fill="none" stroke="midnightblue" d="M107.78,-112.44C136.17,-103.32 181.3,-88.81 212.92,-78.65"/>
<polygon fill="midnightblue" stroke="midnightblue" points="214.22,-81.91 222.67,-75.52 212.08,-75.24 214.22,-81.91"/>
</g>
<!-- Node19&#45;&gt;Node5 -->
<g id="edge22" class="edge">
<title>Node19&#45;&gt;Node5</title>
<path fill="none" stroke="midnightblue" d="M231.1,-56.44C212.59,-47.68 183.58,-33.94 162.31,-23.86"/>
<polygon fill="midnightblue" stroke="midnightblue" points="163.68,-20.63 153.14,-19.52 160.68,-26.96 163.68,-20.63"/>
</g>
<!-- Node21&#45;&gt;Node2 -->
<g id="edge27" class="edge">
<title>Node21&#45;&gt;Node2</title>
<path fill="none" stroke="midnightblue" d="M144.73,-224.4C159.04,-215.04 177.78,-202.79 192.17,-193.38"/>
<polygon fill="midnightblue" stroke="midnightblue" points="194.47,-196.06 200.92,-187.66 190.64,-190.2 194.47,-196.06"/>
</g>
<!-- Node21&#45;&gt;Node5 -->
<g id="edge28" class="edge">
<title>Node21&#45;&gt;Node5</title>
<path fill="none" stroke="midnightblue" d="M91.18,-224.33C50.99,-204.16 -11.21,-163.79 2.16,-112 9.28,-84.46 12.16,-75.19 33.16,-56 53.02,-37.85 81.38,-26.15 103.16,-19.24"/>
<polygon fill="midnightblue" stroke="midnightblue" points="104.38,-22.53 112.95,-16.31 102.37,-15.82 104.38,-22.53"/>
</g>
<!-- Node21&#45;&gt;Node17 -->
<g id="edge29" class="edge">
<title>Node21&#45;&gt;Node17</title>
<path fill="none" stroke="midnightblue" d="M101.47,-224.47C89.82,-215.58 76.57,-202.95 70.16,-188 63.76,-173.06 67.85,-154.69 72.76,-141.29"/>
<polygon fill="midnightblue" stroke="midnightblue" points="76.11,-142.36 76.69,-131.78 69.63,-139.69 76.11,-142.36"/>
</g>
<!-- Node22 -->
<g id="node22" class="node">
<title>Node22</title>
<g id="a_node22"><a xlink:title=" ">
<polygon fill="white" stroke="#bfbfbf" points="79.66,-168.5 79.66,-187.5 166.66,-187.5 166.66,-168.5 79.66,-168.5"/>
<text text-anchor="middle" x="123.16" y="-175.5" font-family="Helvetica,sans-Serif" font-size="10.00">mosquittopp.h</text>
</a>
</g>
</g>
<!-- Node21&#45;&gt;Node22 -->
<g id="edge26" class="edge">
<title>Node21&#45;&gt;Node22</title>
<path fill="none" stroke="midnightblue" d="M123.16,-224.4C123.16,-216.47 123.16,-206.46 123.16,-197.86"/>
<polygon fill="midnightblue" stroke="midnightblue" points="126.66,-197.66 123.16,-187.66 119.66,-197.66 126.66,-197.66"/>
</g>
</g>
</svg>
        <g id="navigator" transform="translate(0 0)" fill="#404254">
                <rect fill="#f2f5e9" fill-opacity="0.5" stroke="#606060" stroke-width=".5" x="0" y="0" width="60" height="60"/>
                <use id="zoomplus" xlink:href="#zoomPlus" x="17" y="9" onmousedown="handleZoom(evt,'in')"/>
                <use id="zoomminus" xlink:href="#zoomMin" x="42" y="9" onmousedown="handleZoom(evt,'out')"/>
                <use id="reset" xlink:href="#resetDef" x="30" y="36" onmousedown="handleReset()"/>
                <g id="arrowUp" xlink:href="#dirArrow" transform="translate(30 24)" onmousedown="handlePan(0,-1)">
                  <use xlink:href="#rim" fill="#404040">
                        <set attributeName="fill" to="#808080" begin="arrowUp.mouseover" end="arrowUp.mouseout"/>
                  </use>
                  <path fill="none" stroke="white" stroke-width="1.5" d="M0,-3.0v7 M-2.5,-0.5L0,-3.0L2.5,-0.5"/>
                </g>
                <g id="arrowRight" xlink:href="#dirArrow" transform="rotate(90) translate(36 -43)" onmousedown="handlePan(1,0)">
                  <use xlink:href="#rim" fill="#404040">
                        <set attributeName="fill" to="#808080" begin="arrowRight.mouseover" end="arrowRight.mouseout"/>
                  </use>
                  <path fill="none" stroke="white" stroke-width="1.5" d="M0,-3.0v7 M-2.5,-0.5L0,-3.0L2.5,-0.5"/>
                </g>
                <g id="arrowDown" xlink:href="#dirArrow" transform="rotate(180) translate(-30 -48)" onmousedown="handlePan(0,1)">
                  <use xlink:href="#rim" fill="#404040">
                        <set attributeName="fill" to="#808080" begin="arrowDown.mouseover" end="arrowDown.mouseout"/>
                  </use>
                  <path fill="none" stroke="white" stroke-width="1.5" d="M0,-3.0v7 M-2.5,-0.5L0,-3.0L2.5,-0.5"/>
                </g>
                <g id="arrowLeft" xlink:href="#dirArrow" transform="rotate(270) translate(-36 17)" onmousedown="handlePan(-1,0)">
                  <use xlink:href="#rim" fill="#404040">
                        <set attributeName="fill" to="#808080" begin="arrowLeft.mouseover" end="arrowLeft.mouseout"/>
                  </use>
                  <path fill="none" stroke="white" stroke-width="1.5" d="M0,-3.0v7 M-2.5,-0.5L0,-3.0L2.5,-0.5"/>
                </g>
        </g>
        <svg viewBox="0 0 15 15" width="100%" height="30px" preserveAspectRatio="xMaxYMin meet">
         <g id="arrow_out" transform="scale(0.3 0.3)">
          <a xlink:href="main_8cpp__incl_org.svg" target="_base">
           <rect id="button" ry="5" rx="5" y="6" x="6" height="38" width="38"
                fill="#f2f5e9" fill-opacity="0.5" stroke="#606060" stroke-width="1.0"/>
           <path id="arrow"
             d="M 11.500037,31.436501 C 11.940474,20.09759 22.043105,11.32322 32.158766,21.979434 L 37.068811,17.246167 C 37.068811,17.246167 37.088388,32 37.088388,32 L 22.160133,31.978069 C 22.160133,31.978069 26.997745,27.140456 26.997745,27.140456 C 18.528582,18.264221 13.291696,25.230495 11.500037,31.436501 z"
             style="fill:#404040;"/>
          </a>
         </g>
        </svg>
</svg>
