<?xml version="1.0" encoding="UTF-8" standalone="no"?>
<!DOCTYPE svg PUBLIC "-//W3C//DTD SVG 1.1//EN"
 "http://www.w3.org/Graphics/SVG/1.1/DTD/svg11.dtd">
<!-- Generated by graphviz version 2.43.0 (0)
 -->
<!-- Title: main.cpp Pages: 1 -->
<svg width="782pt" height="252pt"
 viewBox="0.00 0.00 781.50 252.00" xmlns="http://www.w3.org/2000/svg" xmlns:xlink="http://www.w3.org/1999/xlink">
<g id="graph0" class="graph" transform="scale(1 1) rotate(0) translate(4 248)">
<title>main.cpp</title>
<polygon fill="white" stroke="transparent" points="-4,4 -4,-248 777.5,-248 777.5,4 -4,4"/>
<!-- Node1 -->
<g id="node1" class="node">
<title>Node1</title>
<g id="a_node1"><a xlink:title="Entry point for the Container Manager application.">
<polygon fill="#bfbfbf" stroke="black" points="220,-224.5 220,-243.5 282,-243.5 282,-224.5 220,-224.5"/>
<text text-anchor="middle" x="251" y="-231.5" font-family="Helvetica,sans-Serif" font-size="10.00">main.cpp</text>
</a>
</g>
</g>
<!-- Node2 -->
<g id="node2" class="node">
<title>Node2</title>
<g id="a_node2"><a xlink:title=" ">
<polygon fill="white" stroke="#bfbfbf" points="0,-168.5 0,-187.5 58,-187.5 58,-168.5 0,-168.5"/>
<text text-anchor="middle" x="29" y="-175.5" font-family="Helvetica,sans-Serif" font-size="10.00">memory</text>
</a>
</g>
</g>
<!-- Node1&#45;&gt;Node2 -->
<g id="edge1" class="edge">
<title>Node1&#45;&gt;Node2</title>
<path fill="none" stroke="midnightblue" d="M219.66,-225.38C179.83,-215.69 111.07,-198.96 67.91,-188.47"/>
<polygon fill="midnightblue" stroke="midnightblue" points="68.6,-185.03 58.06,-186.07 66.95,-191.83 68.6,-185.03"/>
</g>
<!-- Node3 -->
<g id="node3" class="node">
<title>Node3</title>
<g id="a_node3"><a xlink:title=" ">
<polygon fill="white" stroke="#bfbfbf" points="76,-168.5 76,-187.5 124,-187.5 124,-168.5 76,-168.5"/>
<text text-anchor="middle" x="100" y="-175.5" font-family="Helvetica,sans-Serif" font-size="10.00">thread</text>
</a>
</g>
</g>
<!-- Node1&#45;&gt;Node3 -->
<g id="edge2" class="edge">
<title>Node1&#45;&gt;Node3</title>
<path fill="none" stroke="midnightblue" d="M227.07,-224.44C201.78,-215.4 161.7,-201.06 133.32,-190.92"/>
<polygon fill="midnightblue" stroke="midnightblue" points="134.41,-187.59 123.81,-187.52 132.05,-194.18 134.41,-187.59"/>
</g>
<!-- Node4 -->
<g id="node4" class="node">
<title>Node4</title>
<g id="a_node4"><a xlink:title=" ">
<polygon fill="white" stroke="#bfbfbf" points="142.5,-168.5 142.5,-187.5 189.5,-187.5 189.5,-168.5 142.5,-168.5"/>
<text text-anchor="middle" x="166" y="-175.5" font-family="Helvetica,sans-Serif" font-size="10.00">vector</text>
</a>
</g>
</g>
<!-- Node1&#45;&gt;Node4 -->
<g id="edge3" class="edge">
<title>Node1&#45;&gt;Node4</title>
<path fill="none" stroke="midnightblue" d="M237.34,-224.32C224.08,-215.9 203.73,-202.97 188.15,-193.07"/>
<polygon fill="midnightblue" stroke="midnightblue" points="189.94,-190.06 179.62,-187.65 186.19,-195.97 189.94,-190.06"/>
</g>
<!-- Node5 -->
<g id="node5" class="node">
<title>Node5</title>
<g id="a_node5"><a xlink:title=" ">
<polygon fill="white" stroke="#bfbfbf" points="208,-168.5 208,-187.5 294,-187.5 294,-168.5 208,-168.5"/>
<text text-anchor="middle" x="251" y="-175.5" font-family="Helvetica,sans-Serif" font-size="10.00">glog/logging.h</text>
</a>
</g>
</g>
<!-- Node1&#45;&gt;Node5 -->
<g id="edge4" class="edge">
<title>Node1&#45;&gt;Node5</title>
<path fill="none" stroke="midnightblue" d="M251,-224.08C251,-217.01 251,-206.86 251,-197.99"/>
<polygon fill="midnightblue" stroke="midnightblue" points="254.5,-197.75 251,-187.75 247.5,-197.75 254.5,-197.75"/>
</g>
<!-- Node6 -->
<g id="node6" class="node">
<title>Node6</title>
<g id="a_node6"><a xlink:href="common_8hpp.html" target="_top" xlink:title="Defines common constants, string views, and utility structures for the application.">
<polygon fill="white" stroke="black" points="312,-168.5 312,-187.5 410,-187.5 410,-168.5 312,-168.5"/>
<text text-anchor="middle" x="361" y="-175.5" font-family="Helvetica,sans-Serif" font-size="10.00">inc/common.hpp</text>
</a>
</g>
</g>
<!-- Node1&#45;&gt;Node6 -->
<g id="edge5" class="edge">
<title>Node1&#45;&gt;Node6</title>
<path fill="none" stroke="midnightblue" d="M268.67,-224.32C286.39,-215.62 313.9,-202.12 334.29,-192.11"/>
<polygon fill="midnightblue" stroke="midnightblue" points="335.94,-195.2 343.37,-187.65 332.85,-188.92 335.94,-195.2"/>
</g>
<!-- Node10 -->
<g id="node10" class="node">
<title>Node10</title>
<g id="a_node10"><a xlink:href="init__handler_8hpp.html" target="_top" xlink:title="Declares project&#45;wide initialization functions.">
<polygon fill="white" stroke="black" points="428.5,-168.5 428.5,-187.5 541.5,-187.5 541.5,-168.5 428.5,-168.5"/>
<text text-anchor="middle" x="485" y="-175.5" font-family="Helvetica,sans-Serif" font-size="10.00">inc/init_handler.hpp</text>
</a>
</g>
</g>
<!-- Node1&#45;&gt;Node10 -->
<g id="edge9" class="edge">
<title>Node1&#45;&gt;Node10</title>
<path fill="none" stroke="midnightblue" d="M282.07,-225.83C322.03,-216.61 391.79,-200.51 438.19,-189.8"/>
<polygon fill="midnightblue" stroke="midnightblue" points="439.05,-193.2 448.01,-187.54 437.47,-186.38 439.05,-193.2"/>
</g>
<!-- Node11 -->
<g id="node11" class="node">
<title>Node11</title>
<g id="a_node11"><a xlink:href="json__request__executor_8hpp.html" target="_top" xlink:title="Defines the JsonRequestExecutorHandler class for executing JSON&#45;based requests.">
<polygon fill="white" stroke="black" points="559.5,-168.5 559.5,-187.5 724.5,-187.5 724.5,-168.5 559.5,-168.5"/>
<text text-anchor="middle" x="642" y="-175.5" font-family="Helvetica,sans-Serif" font-size="10.00">inc/json_request_executor.hpp</text>
</a>
</g>
</g>
<!-- Node1&#45;&gt;Node11 -->
<g id="edge10" class="edge">
<title>Node1&#45;&gt;Node11</title>
<path fill="none" stroke="midnightblue" d="M282.01,-228.72C343.95,-220.16 484.41,-200.76 570.42,-188.89"/>
<polygon fill="midnightblue" stroke="midnightblue" points="570.94,-192.35 580.37,-187.51 569.99,-185.41 570.94,-192.35"/>
</g>
<!-- Node7 -->
<g id="node7" class="node">
<title>Node7</title>
<g id="a_node7"><a xlink:title=" ">
<polygon fill="white" stroke="#bfbfbf" points="452,-0.5 452,-19.5 496,-19.5 496,-0.5 452,-0.5"/>
<text text-anchor="middle" x="474" y="-7.5" font-family="Helvetica,sans-Serif" font-size="10.00">string</text>
</a>
</g>
</g>
<!-- Node6&#45;&gt;Node7 -->
<g id="edge6" class="edge">
<title>Node6&#45;&gt;Node7</title>
<path fill="none" stroke="midnightblue" d="M350.26,-168.19C336.43,-155.72 315.34,-132.17 326,-112 350.44,-65.74 406.65,-36.67 442.33,-22.17"/>
<polygon fill="midnightblue" stroke="midnightblue" points="443.77,-25.36 451.81,-18.46 441.22,-18.85 443.77,-25.36"/>
</g>
<!-- Node8 -->
<g id="node8" class="node">
<title>Node8</title>
<g id="a_node8"><a xlink:title=" ">
<polygon fill="white" stroke="#bfbfbf" points="335.5,-112.5 335.5,-131.5 408.5,-131.5 408.5,-112.5 335.5,-112.5"/>
<text text-anchor="middle" x="372" y="-119.5" font-family="Helvetica,sans-Serif" font-size="10.00">string_view</text>
</a>
</g>
</g>
<!-- Node6&#45;&gt;Node8 -->
<g id="edge7" class="edge">
<title>Node6&#45;&gt;Node8</title>
<path fill="none" stroke="midnightblue" d="M362.82,-168.08C364.27,-160.93 366.37,-150.64 368.19,-141.69"/>
<polygon fill="midnightblue" stroke="midnightblue" points="371.65,-142.25 370.22,-131.75 364.79,-140.85 371.65,-142.25"/>
</g>
<!-- Node9 -->
<g id="node9" class="node">
<title>Node9</title>
<g id="a_node9"><a xlink:title=" ">
<polygon fill="white" stroke="#bfbfbf" points="426.5,-112.5 426.5,-131.5 519.5,-131.5 519.5,-112.5 426.5,-112.5"/>
<text text-anchor="middle" x="473" y="-119.5" font-family="Helvetica,sans-Serif" font-size="10.00">unordered_map</text>
</a>
</g>
</g>
<!-- Node6&#45;&gt;Node9 -->
<g id="edge8" class="edge">
<title>Node6&#45;&gt;Node9</title>
<path fill="none" stroke="midnightblue" d="M378.99,-168.32C397.04,-159.62 425.05,-146.12 445.8,-136.11"/>
<polygon fill="midnightblue" stroke="midnightblue" points="447.56,-139.15 455.05,-131.65 444.52,-132.84 447.56,-139.15"/>
</g>
<!-- Node12 -->
<g id="node12" class="node">
<title>Node12</title>
<g id="a_node12"><a xlink:href="request__executor_8hpp.html" target="_top" xlink:title="Declares the abstract RequestExecutor interface for executing requests.">
<polygon fill="white" stroke="black" points="560,-112.5 560,-131.5 700,-131.5 700,-112.5 560,-112.5"/>
<text text-anchor="middle" x="630" y="-119.5" font-family="Helvetica,sans-Serif" font-size="10.00">inc/request_executor.hpp</text>
</a>
</g>
</g>
<!-- Node11&#45;&gt;Node12 -->
<g id="edge11" class="edge">
<title>Node11&#45;&gt;Node12</title>
<path fill="none" stroke="midnightblue" d="M640.02,-168.08C638.43,-160.93 636.14,-150.64 634.15,-141.69"/>
<polygon fill="midnightblue" stroke="midnightblue" points="637.53,-140.75 631.94,-131.75 630.7,-142.27 637.53,-140.75"/>
</g>
<!-- Node12&#45;&gt;Node7 -->
<g id="edge12" class="edge">
<title>Node12&#45;&gt;Node7</title>
<path fill="none" stroke="midnightblue" d="M563.37,-112.49C538.36,-106.17 511.54,-95.16 493,-76 481.13,-63.73 476.61,-44.47 474.93,-30.1"/>
<polygon fill="midnightblue" stroke="midnightblue" points="478.39,-29.53 474.09,-19.84 471.41,-30.09 478.39,-29.53"/>
</g>
<!-- Node13 -->
<g id="node13" class="node">
<title>Node13</title>
<g id="a_node13"><a xlink:title=" ">
<polygon fill="white" stroke="#bfbfbf" points="502,-56.5 502,-75.5 612,-75.5 612,-56.5 502,-56.5"/>
<text text-anchor="middle" x="557" y="-63.5" font-family="Helvetica,sans-Serif" font-size="10.00">nlohmann/json.hpp</text>
</a>
</g>
</g>
<!-- Node12&#45;&gt;Node13 -->
<g id="edge13" class="edge">
<title>Node12&#45;&gt;Node13</title>
<path fill="none" stroke="midnightblue" d="M618.27,-112.32C607.16,-104.11 590.26,-91.6 577.02,-81.81"/>
<polygon fill="midnightblue" stroke="midnightblue" points="579.06,-78.97 568.94,-75.83 574.9,-84.59 579.06,-78.97"/>
</g>
<!-- Node14 -->
<g id="node14" class="node">
<title>Node14</title>
<g id="a_node14"><a xlink:href="container__request_8hpp.html" target="_top" xlink:title="Data structure for representing a container operation request.">
<polygon fill="white" stroke="black" points="630.5,-56.5 630.5,-75.5 773.5,-75.5 773.5,-56.5 630.5,-56.5"/>
<text text-anchor="middle" x="702" y="-63.5" font-family="Helvetica,sans-Serif" font-size="10.00">inc/container_request.hpp</text>
</a>
</g>
</g>
<!-- Node12&#45;&gt;Node14 -->
<g id="edge14" class="edge">
<title>Node12&#45;&gt;Node14</title>
<path fill="none" stroke="midnightblue" d="M641.57,-112.32C652.42,-104.18 668.88,-91.84 681.88,-82.09"/>
<polygon fill="midnightblue" stroke="midnightblue" points="684.32,-84.63 690.22,-75.83 680.12,-79.03 684.32,-84.63"/>
</g>
<!-- Node14&#45;&gt;Node7 -->
<g id="edge15" class="edge">
<title>Node14&#45;&gt;Node7</title>
<path fill="none" stroke="midnightblue" d="M665.87,-56.44C621.89,-46.03 548.27,-28.59 506.16,-18.62"/>
<polygon fill="midnightblue" stroke="midnightblue" points="506.71,-15.15 496.17,-16.25 505.09,-21.96 506.71,-15.15"/>
</g>
</g>
</svg>
