<?xml version="1.0" encoding="UTF-8" standalone="no"?>
<!DOCTYPE svg PUBLIC "-//W3C//DTD SVG 1.1//EN"
 "http://www.w3.org/Graphics/SVG/1.1/DTD/svg11.dtd">
<!-- Generated by graphviz version 2.43.0 (0)
 -->
<!-- Title: main Pages: 1 -->
<svg width="599pt" height="164pt"
 viewBox="0.00 0.00 599.00 164.00" xmlns="http://www.w3.org/2000/svg" xmlns:xlink="http://www.w3.org/1999/xlink">
<g id="graph0" class="graph" transform="scale(1 1) rotate(0) translate(4 160)">
<title>main</title>
<polygon fill="white" stroke="transparent" points="-4,4 -4,-160 595,-160 595,4 -4,4"/>
<!-- Node1 -->
<g id="node1" class="node">
<title>Node1</title>
<g id="a_node1"><a xlink:title=" ">
<polygon fill="#bfbfbf" stroke="black" points="0,-35.5 0,-54.5 41,-54.5 41,-35.5 0,-35.5"/>
<text text-anchor="middle" x="20.5" y="-42.5" font-family="Helvetica,sans-Serif" font-size="10.00">main</text>
</a>
</g>
</g>
<!-- Node2 -->
<g id="node2" class="node">
<title>Node2</title>
<g id="a_node2"><a xlink:href="init__handler_8hpp.html#ad98029164064eb3e856369697d9cc015" target="_top" xlink:title="Initializes all enabled project subsystems.">
<polygon fill="white" stroke="black" points="100.5,-57.5 100.5,-76.5 166.5,-76.5 166.5,-57.5 100.5,-57.5"/>
<text text-anchor="middle" x="133.5" y="-64.5" font-family="Helvetica,sans-Serif" font-size="10.00">InitProject</text>
</a>
</g>
</g>
<!-- Node1&#45;&gt;Node2 -->
<g id="edge1" class="edge">
<title>Node1&#45;&gt;Node2</title>
<path fill="none" stroke="midnightblue" d="M41.09,-48.88C54.59,-51.56 73.07,-55.22 89.87,-58.55"/>
<polygon fill="midnightblue" stroke="midnightblue" points="89.57,-62.06 100.06,-60.57 90.94,-55.19 89.57,-62.06"/>
</g>
<!-- Node9 -->
<g id="node9" class="node">
<title>Node9</title>
<g id="a_node9"><a xlink:href="classHttpServerHandler.html#aa6719e2ab219e695c6762836bc9b9506" target="_top" xlink:title="Starts the HTTP server on the specified port.">
<polygon fill="white" stroke="black" points="77,-8 77,-38 190,-38 190,-8 77,-8"/>
<text text-anchor="start" x="85" y="-26" font-family="Helvetica,sans-Serif" font-size="10.00">HttpServerHandler::</text>
<text text-anchor="middle" x="133.5" y="-15" font-family="Helvetica,sans-Serif" font-size="10.00">Start</text>
</a>
</g>
</g>
<!-- Node1&#45;&gt;Node9 -->
<g id="edge8" class="edge">
<title>Node1&#45;&gt;Node9</title>
<path fill="none" stroke="midnightblue" d="M41.09,-41.12C48.57,-39.63 57.58,-37.85 66.99,-35.98"/>
<polygon fill="midnightblue" stroke="midnightblue" points="67.76,-39.4 76.89,-34.02 66.4,-32.53 67.76,-39.4"/>
</g>
<!-- Node3 -->
<g id="node3" class="node">
<title>Node3</title>
<g id="a_node3"><a xlink:href="init__handler_8cpp.html#a3ca899cad245b508cfb58fd9230fa669" target="_top" xlink:title="Initializes and clears the database.">
<polygon fill="white" stroke="black" points="260,-114.5 260,-133.5 339,-133.5 339,-114.5 260,-114.5"/>
<text text-anchor="middle" x="299.5" y="-121.5" font-family="Helvetica,sans-Serif" font-size="10.00">InitDatabase</text>
</a>
</g>
</g>
<!-- Node2&#45;&gt;Node3 -->
<g id="edge2" class="edge">
<title>Node2&#45;&gt;Node3</title>
<path fill="none" stroke="midnightblue" d="M155.27,-76.59C173.61,-84.82 201.22,-96.65 226,-105 233.71,-107.6 241.99,-110.06 250.09,-112.3"/>
<polygon fill="midnightblue" stroke="midnightblue" points="249.27,-115.7 259.83,-114.92 251.08,-108.94 249.27,-115.7"/>
</g>
<!-- Node6 -->
<g id="node6" class="node">
<title>Node6</title>
<g id="a_node6"><a xlink:href="init__handler_8cpp.html#a9c6fd2b1fc6d60ab2f80b2799b0fa81e" target="_top" xlink:title="Initializes logging and clears the database before server startup.">
<polygon fill="white" stroke="black" points="264,-76.5 264,-95.5 335,-95.5 335,-76.5 264,-76.5"/>
<text text-anchor="middle" x="299.5" y="-83.5" font-family="Helvetica,sans-Serif" font-size="10.00">InitLogging</text>
</a>
</g>
</g>
<!-- Node2&#45;&gt;Node6 -->
<g id="edge5" class="edge">
<title>Node2&#45;&gt;Node6</title>
<path fill="none" stroke="midnightblue" d="M166.51,-70.71C191.31,-73.58 225.97,-77.6 253.55,-80.79"/>
<polygon fill="midnightblue" stroke="midnightblue" points="253.4,-84.3 263.74,-81.97 254.2,-77.34 253.4,-84.3"/>
</g>
<!-- Node7 -->
<g id="node7" class="node">
<title>Node7</title>
<g id="a_node7"><a xlink:href="init__handler_8cpp.html#ac622dccafc9db8b54a3d5ef6d98eed8e" target="_top" xlink:title="Clears the POSIX message queue.">
<polygon fill="white" stroke="black" points="246,-38.5 246,-57.5 353,-57.5 353,-38.5 246,-38.5"/>
<text text-anchor="middle" x="299.5" y="-45.5" font-family="Helvetica,sans-Serif" font-size="10.00">InitMessageQueue</text>
</a>
</g>
</g>
<!-- Node2&#45;&gt;Node7 -->
<g id="edge6" class="edge">
<title>Node2&#45;&gt;Node7</title>
<path fill="none" stroke="midnightblue" d="M166.51,-63.29C186.25,-61 212.24,-57.99 235.93,-55.25"/>
<polygon fill="midnightblue" stroke="midnightblue" points="236.39,-58.72 245.92,-54.09 235.58,-51.77 236.39,-58.72"/>
</g>
<!-- Node8 -->
<g id="node8" class="node">
<title>Node8</title>
<g id="a_node8"><a xlink:href="init__handler_8cpp.html#a57b18ca1632517db21aa1491c585762a" target="_top" xlink:title="Clears retained MQTT messages.">
<polygon fill="white" stroke="black" points="226,-0.5 226,-19.5 373,-19.5 373,-0.5 226,-0.5"/>
<text text-anchor="middle" x="299.5" y="-7.5" font-family="Helvetica,sans-Serif" font-size="10.00">InitMqttRetainedMessages</text>
</a>
</g>
</g>
<!-- Node2&#45;&gt;Node8 -->
<g id="edge7" class="edge">
<title>Node2&#45;&gt;Node8</title>
<path fill="none" stroke="midnightblue" d="M162.98,-57.46C171.73,-54.34 181.34,-50.71 190,-47 206.44,-39.96 209.26,-35.3 226,-29 232.38,-26.6 239.19,-24.38 245.98,-22.38"/>
<polygon fill="midnightblue" stroke="midnightblue" points="247.19,-25.68 255.87,-19.6 245.29,-18.94 247.19,-25.68"/>
</g>
<!-- Node4 -->
<g id="node4" class="node">
<title>Node4</title>
<g id="a_node4"><a xlink:href="classIDatabaseHandler.html#a79f638c8332acdfb054d1f915f77c760" target="_top" xlink:title="Clears all data from the database.">
<polygon fill="white" stroke="black" points="409,-136.5 409,-155.5 591,-155.5 591,-136.5 409,-136.5"/>
<text text-anchor="middle" x="500" y="-143.5" font-family="Helvetica,sans-Serif" font-size="10.00">IDatabaseHandler::ClearDatabase</text>
</a>
</g>
</g>
<!-- Node3&#45;&gt;Node4 -->
<g id="edge3" class="edge">
<title>Node3&#45;&gt;Node4</title>
<path fill="none" stroke="midnightblue" d="M339.24,-128.29C357.62,-130.33 380.48,-132.86 403.1,-135.37"/>
<polygon fill="midnightblue" stroke="midnightblue" points="402.79,-138.86 413.11,-136.48 403.56,-131.9 402.79,-138.86"/>
</g>
<!-- Node5 -->
<g id="node5" class="node">
<title>Node5</title>
<g id="a_node5"><a xlink:href="classRedisDatabaseHandler.html#a07c65b208d5997ec20ed239dca4081ce" target="_top" xlink:title="Retrieves the singleton instance of the RedisDatabaseHandler.">
<polygon fill="white" stroke="black" points="436,-87 436,-117 564,-117 564,-87 436,-87"/>
<text text-anchor="start" x="444" y="-105" font-family="Helvetica,sans-Serif" font-size="10.00">RedisDatabaseHandler</text>
<text text-anchor="middle" x="500" y="-94" font-family="Helvetica,sans-Serif" font-size="10.00">::GetInstance</text>
</a>
</g>
</g>
<!-- Node3&#45;&gt;Node5 -->
<g id="edge4" class="edge">
<title>Node3&#45;&gt;Node5</title>
<path fill="none" stroke="midnightblue" d="M339.24,-119.71C363.77,-116.99 396.27,-113.39 425.54,-110.14"/>
<polygon fill="midnightblue" stroke="midnightblue" points="426.19,-113.59 435.75,-109.01 425.42,-106.63 426.19,-113.59"/>
</g>
</g>
</svg>
