<?xml version="1.0" encoding="UTF-8" standalone="no"?>
<!DOCTYPE svg PUBLIC "-//W3C//DTD SVG 1.1//EN"
 "http://www.w3.org/Graphics/SVG/1.1/DTD/svg11.dtd">
<!-- Generated by graphviz version 2.43.0 (0)
 -->
<!-- Title: main.cpp Pages: 1 -->
<svg width="998pt" height="252pt"
 viewBox="0.00 0.00 997.50 252.00" xmlns="http://www.w3.org/2000/svg" xmlns:xlink="http://www.w3.org/1999/xlink">
<g id="graph0" class="graph" transform="scale(1 1) rotate(0) translate(4 248)">
<title>main.cpp</title>
<polygon fill="white" stroke="transparent" points="-4,4 -4,-248 993.5,-248 993.5,4 -4,4"/>
<!-- Node1 -->
<g id="node1" class="node">
<title>Node1</title>
<g id="a_node1"><a xlink:title="Entry point for the Container Manager application.">
<polygon fill="#bfbfbf" stroke="black" points="308,-224.5 308,-243.5 370,-243.5 370,-224.5 308,-224.5"/>
<text text-anchor="middle" x="339" y="-231.5" font-family="Helvetica,sans-Serif" font-size="10.00">main.cpp</text>
</a>
</g>
</g>
<!-- Node2 -->
<g id="node2" class="node">
<title>Node2</title>
<g id="a_node2"><a xlink:title=" ">
<polygon fill="white" stroke="#bfbfbf" points="0,-168.5 0,-187.5 58,-187.5 58,-168.5 0,-168.5"/>
<text text-anchor="middle" x="29" y="-175.5" font-family="Helvetica,sans-Serif" font-size="10.00">memory</text>
</a>
</g>
</g>
<!-- Node1&#45;&gt;Node2 -->
<g id="edge1" class="edge">
<title>Node1&#45;&gt;Node2</title>
<path fill="none" stroke="midnightblue" d="M307.87,-228.56C258.93,-221.43 160.82,-206.51 67.85,-188.06"/>
<polygon fill="midnightblue" stroke="midnightblue" points="68.49,-184.62 58,-186.08 67.12,-191.48 68.49,-184.62"/>
</g>
<!-- Node3 -->
<g id="node3" class="node">
<title>Node3</title>
<g id="a_node3"><a xlink:title=" ">
<polygon fill="white" stroke="#bfbfbf" points="76,-168.5 76,-187.5 124,-187.5 124,-168.5 76,-168.5"/>
<text text-anchor="middle" x="100" y="-175.5" font-family="Helvetica,sans-Serif" font-size="10.00">thread</text>
</a>
</g>
</g>
<!-- Node1&#45;&gt;Node3 -->
<g id="edge2" class="edge">
<title>Node1&#45;&gt;Node3</title>
<path fill="none" stroke="midnightblue" d="M307.83,-226.71C269.27,-218.81 201.43,-204.56 134.05,-188.16"/>
<polygon fill="midnightblue" stroke="midnightblue" points="134.66,-184.71 124.11,-185.73 132.99,-191.51 134.66,-184.71"/>
</g>
<!-- Node4 -->
<g id="node4" class="node">
<title>Node4</title>
<g id="a_node4"><a xlink:title=" ">
<polygon fill="white" stroke="#bfbfbf" points="142.5,-168.5 142.5,-187.5 189.5,-187.5 189.5,-168.5 142.5,-168.5"/>
<text text-anchor="middle" x="166" y="-175.5" font-family="Helvetica,sans-Serif" font-size="10.00">vector</text>
</a>
</g>
</g>
<!-- Node1&#45;&gt;Node4 -->
<g id="edge3" class="edge">
<title>Node1&#45;&gt;Node4</title>
<path fill="none" stroke="midnightblue" d="M311.59,-224.44C281.11,-214.93 231.88,-199.56 199.23,-189.37"/>
<polygon fill="midnightblue" stroke="midnightblue" points="200.26,-186.03 189.67,-186.39 198.17,-192.71 200.26,-186.03"/>
</g>
<!-- Node5 -->
<g id="node5" class="node">
<title>Node5</title>
<g id="a_node5"><a xlink:title=" ">
<polygon fill="white" stroke="#bfbfbf" points="208,-168.5 208,-187.5 258,-187.5 258,-168.5 208,-168.5"/>
<text text-anchor="middle" x="233" y="-175.5" font-family="Helvetica,sans-Serif" font-size="10.00">atomic</text>
</a>
</g>
</g>
<!-- Node1&#45;&gt;Node5 -->
<g id="edge4" class="edge">
<title>Node1&#45;&gt;Node5</title>
<path fill="none" stroke="midnightblue" d="M321.97,-224.32C304.97,-215.66 278.62,-202.24 259.01,-192.25"/>
<polygon fill="midnightblue" stroke="midnightblue" points="260.49,-189.08 249.99,-187.65 257.31,-195.31 260.49,-189.08"/>
</g>
<!-- Node6 -->
<g id="node6" class="node">
<title>Node6</title>
<g id="a_node6"><a xlink:title=" ">
<polygon fill="white" stroke="#bfbfbf" points="276.5,-168.5 276.5,-187.5 327.5,-187.5 327.5,-168.5 276.5,-168.5"/>
<text text-anchor="middle" x="302" y="-175.5" font-family="Helvetica,sans-Serif" font-size="10.00">csignal</text>
</a>
</g>
</g>
<!-- Node1&#45;&gt;Node6 -->
<g id="edge5" class="edge">
<title>Node1&#45;&gt;Node6</title>
<path fill="none" stroke="midnightblue" d="M332.89,-224.08C327.72,-216.53 320.15,-205.49 313.81,-196.23"/>
<polygon fill="midnightblue" stroke="midnightblue" points="316.54,-194.02 308,-187.75 310.76,-197.98 316.54,-194.02"/>
</g>
<!-- Node7 -->
<g id="node7" class="node">
<title>Node7</title>
<g id="a_node7"><a xlink:title=" ">
<polygon fill="white" stroke="#bfbfbf" points="346,-168.5 346,-187.5 406,-187.5 406,-168.5 346,-168.5"/>
<text text-anchor="middle" x="376" y="-175.5" font-family="Helvetica,sans-Serif" font-size="10.00">iostream</text>
</a>
</g>
</g>
<!-- Node1&#45;&gt;Node7 -->
<g id="edge6" class="edge">
<title>Node1&#45;&gt;Node7</title>
<path fill="none" stroke="midnightblue" d="M345.11,-224.08C350.28,-216.53 357.85,-205.49 364.19,-196.23"/>
<polygon fill="midnightblue" stroke="midnightblue" points="367.24,-197.98 370,-187.75 361.46,-194.02 367.24,-197.98"/>
</g>
<!-- Node8 -->
<g id="node8" class="node">
<title>Node8</title>
<g id="a_node8"><a xlink:title=" ">
<polygon fill="white" stroke="#bfbfbf" points="424,-168.5 424,-187.5 510,-187.5 510,-168.5 424,-168.5"/>
<text text-anchor="middle" x="467" y="-175.5" font-family="Helvetica,sans-Serif" font-size="10.00">glog/logging.h</text>
</a>
</g>
</g>
<!-- Node1&#45;&gt;Node8 -->
<g id="edge7" class="edge">
<title>Node1&#45;&gt;Node8</title>
<path fill="none" stroke="midnightblue" d="M359.28,-224.44C380.35,-215.56 413.52,-201.56 437.49,-191.45"/>
<polygon fill="midnightblue" stroke="midnightblue" points="438.96,-194.63 446.81,-187.52 436.24,-188.18 438.96,-194.63"/>
</g>
<!-- Node9 -->
<g id="node9" class="node">
<title>Node9</title>
<g id="a_node9"><a xlink:href="common_8hpp.html" target="_top" xlink:title="Defines common constants, string views, and utility structures for the application.">
<polygon fill="white" stroke="black" points="528,-168.5 528,-187.5 626,-187.5 626,-168.5 528,-168.5"/>
<text text-anchor="middle" x="577" y="-175.5" font-family="Helvetica,sans-Serif" font-size="10.00">inc/common.hpp</text>
</a>
</g>
</g>
<!-- Node1&#45;&gt;Node9 -->
<g id="edge8" class="edge">
<title>Node1&#45;&gt;Node9</title>
<path fill="none" stroke="midnightblue" d="M370.11,-225.94C410.61,-216.75 481.8,-200.6 529.18,-189.85"/>
<polygon fill="midnightblue" stroke="midnightblue" points="530.22,-193.2 539.2,-187.58 528.68,-186.38 530.22,-193.2"/>
</g>
<!-- Node13 -->
<g id="node13" class="node">
<title>Node13</title>
<g id="a_node13"><a xlink:href="init__handler_8hpp.html" target="_top" xlink:title="Declares project&#45;wide initialization functions.">
<polygon fill="white" stroke="black" points="644.5,-168.5 644.5,-187.5 757.5,-187.5 757.5,-168.5 644.5,-168.5"/>
<text text-anchor="middle" x="701" y="-175.5" font-family="Helvetica,sans-Serif" font-size="10.00">inc/init_handler.hpp</text>
</a>
</g>
</g>
<!-- Node1&#45;&gt;Node13 -->
<g id="edge12" class="edge">
<title>Node1&#45;&gt;Node13</title>
<path fill="none" stroke="midnightblue" d="M370.18,-228.35C428.53,-219.65 555.41,-200.72 633.98,-189"/>
<polygon fill="midnightblue" stroke="midnightblue" points="634.88,-192.4 644.26,-187.46 633.85,-185.48 634.88,-192.4"/>
</g>
<!-- Node14 -->
<g id="node14" class="node">
<title>Node14</title>
<g id="a_node14"><a xlink:href="json__request__executor_8hpp.html" target="_top" xlink:title="Defines the JsonRequestExecutorHandler class for executing JSON&#45;based requests.">
<polygon fill="white" stroke="black" points="775.5,-168.5 775.5,-187.5 940.5,-187.5 940.5,-168.5 775.5,-168.5"/>
<text text-anchor="middle" x="858" y="-175.5" font-family="Helvetica,sans-Serif" font-size="10.00">inc/json_request_executor.hpp</text>
</a>
</g>
</g>
<!-- Node1&#45;&gt;Node14 -->
<g id="edge13" class="edge">
<title>Node1&#45;&gt;Node14</title>
<path fill="none" stroke="midnightblue" d="M370.3,-229.74C447.07,-221.76 647.07,-200.95 765.75,-188.6"/>
<polygon fill="midnightblue" stroke="midnightblue" points="766.33,-192.06 775.92,-187.54 765.61,-185.09 766.33,-192.06"/>
</g>
<!-- Node10 -->
<g id="node10" class="node">
<title>Node10</title>
<g id="a_node10"><a xlink:title=" ">
<polygon fill="white" stroke="#bfbfbf" points="668,-0.5 668,-19.5 712,-19.5 712,-0.5 668,-0.5"/>
<text text-anchor="middle" x="690" y="-7.5" font-family="Helvetica,sans-Serif" font-size="10.00">string</text>
</a>
</g>
</g>
<!-- Node9&#45;&gt;Node10 -->
<g id="edge9" class="edge">
<title>Node9&#45;&gt;Node10</title>
<path fill="none" stroke="midnightblue" d="M566.26,-168.19C552.43,-155.72 531.34,-132.17 542,-112 566.44,-65.74 622.65,-36.67 658.33,-22.17"/>
<polygon fill="midnightblue" stroke="midnightblue" points="659.77,-25.36 667.81,-18.46 657.22,-18.85 659.77,-25.36"/>
</g>
<!-- Node11 -->
<g id="node11" class="node">
<title>Node11</title>
<g id="a_node11"><a xlink:title=" ">
<polygon fill="white" stroke="#bfbfbf" points="551.5,-112.5 551.5,-131.5 624.5,-131.5 624.5,-112.5 551.5,-112.5"/>
<text text-anchor="middle" x="588" y="-119.5" font-family="Helvetica,sans-Serif" font-size="10.00">string_view</text>
</a>
</g>
</g>
<!-- Node9&#45;&gt;Node11 -->
<g id="edge10" class="edge">
<title>Node9&#45;&gt;Node11</title>
<path fill="none" stroke="midnightblue" d="M578.82,-168.08C580.27,-160.93 582.37,-150.64 584.19,-141.69"/>
<polygon fill="midnightblue" stroke="midnightblue" points="587.65,-142.25 586.22,-131.75 580.79,-140.85 587.65,-142.25"/>
</g>
<!-- Node12 -->
<g id="node12" class="node">
<title>Node12</title>
<g id="a_node12"><a xlink:title=" ">
<polygon fill="white" stroke="#bfbfbf" points="642.5,-112.5 642.5,-131.5 735.5,-131.5 735.5,-112.5 642.5,-112.5"/>
<text text-anchor="middle" x="689" y="-119.5" font-family="Helvetica,sans-Serif" font-size="10.00">unordered_map</text>
</a>
</g>
</g>
<!-- Node9&#45;&gt;Node12 -->
<g id="edge11" class="edge">
<title>Node9&#45;&gt;Node12</title>
<path fill="none" stroke="midnightblue" d="M594.99,-168.32C613.04,-159.62 641.05,-146.12 661.8,-136.11"/>
<polygon fill="midnightblue" stroke="midnightblue" points="663.56,-139.15 671.05,-131.65 660.52,-132.84 663.56,-139.15"/>
</g>
<!-- Node15 -->
<g id="node15" class="node">
<title>Node15</title>
<g id="a_node15"><a xlink:href="request__executor_8hpp.html" target="_top" xlink:title="Declares the abstract RequestExecutor interface for executing requests.">
<polygon fill="white" stroke="black" points="776,-112.5 776,-131.5 916,-131.5 916,-112.5 776,-112.5"/>
<text text-anchor="middle" x="846" y="-119.5" font-family="Helvetica,sans-Serif" font-size="10.00">inc/request_executor.hpp</text>
</a>
</g>
</g>
<!-- Node14&#45;&gt;Node15 -->
<g id="edge14" class="edge">
<title>Node14&#45;&gt;Node15</title>
<path fill="none" stroke="midnightblue" d="M856.02,-168.08C854.43,-160.93 852.14,-150.64 850.15,-141.69"/>
<polygon fill="midnightblue" stroke="midnightblue" points="853.53,-140.75 847.94,-131.75 846.7,-142.27 853.53,-140.75"/>
</g>
<!-- Node15&#45;&gt;Node10 -->
<g id="edge15" class="edge">
<title>Node15&#45;&gt;Node10</title>
<path fill="none" stroke="midnightblue" d="M779.37,-112.49C754.36,-106.17 727.54,-95.16 709,-76 697.13,-63.73 692.61,-44.47 690.93,-30.1"/>
<polygon fill="midnightblue" stroke="midnightblue" points="694.39,-29.53 690.09,-19.84 687.41,-30.09 694.39,-29.53"/>
</g>
<!-- Node16 -->
<g id="node16" class="node">
<title>Node16</title>
<g id="a_node16"><a xlink:title=" ">
<polygon fill="white" stroke="#bfbfbf" points="718,-56.5 718,-75.5 828,-75.5 828,-56.5 718,-56.5"/>
<text text-anchor="middle" x="773" y="-63.5" font-family="Helvetica,sans-Serif" font-size="10.00">nlohmann/json.hpp</text>
</a>
</g>
</g>
<!-- Node15&#45;&gt;Node16 -->
<g id="edge16" class="edge">
<title>Node15&#45;&gt;Node16</title>
<path fill="none" stroke="midnightblue" d="M834.27,-112.32C823.16,-104.11 806.26,-91.6 793.02,-81.81"/>
<polygon fill="midnightblue" stroke="midnightblue" points="795.06,-78.97 784.94,-75.83 790.9,-84.59 795.06,-78.97"/>
</g>
<!-- Node17 -->
<g id="node17" class="node">
<title>Node17</title>
<g id="a_node17"><a xlink:href="container__request_8hpp.html" target="_top" xlink:title="Data structure for representing a container operation request.">
<polygon fill="white" stroke="black" points="846.5,-56.5 846.5,-75.5 989.5,-75.5 989.5,-56.5 846.5,-56.5"/>
<text text-anchor="middle" x="918" y="-63.5" font-family="Helvetica,sans-Serif" font-size="10.00">inc/container_request.hpp</text>
</a>
</g>
</g>
<!-- Node15&#45;&gt;Node17 -->
<g id="edge17" class="edge">
<title>Node15&#45;&gt;Node17</title>
<path fill="none" stroke="midnightblue" d="M857.57,-112.32C868.42,-104.18 884.88,-91.84 897.88,-82.09"/>
<polygon fill="midnightblue" stroke="midnightblue" points="900.32,-84.63 906.22,-75.83 896.12,-79.03 900.32,-84.63"/>
</g>
<!-- Node17&#45;&gt;Node10 -->
<g id="edge18" class="edge">
<title>Node17&#45;&gt;Node10</title>
<path fill="none" stroke="midnightblue" d="M881.87,-56.44C837.89,-46.03 764.27,-28.59 722.16,-18.62"/>
<polygon fill="midnightblue" stroke="midnightblue" points="722.71,-15.15 712.17,-16.25 721.09,-21.96 722.71,-15.15"/>
</g>
</g>
</svg>
