<?xml version="1.0" encoding="UTF-8" standalone="no"?>
<!DOCTYPE svg PUBLIC "-//W3C//DTD SVG 1.1//EN"
 "http://www.w3.org/Graphics/SVG/1.1/DTD/svg11.dtd">
<!-- Generated by graphviz version 2.43.0 (0)
 -->
<!-- Title: main.cpp Pages: 1 -->
<!--zoomable 252 -->
<svg id="main" version="1.1" xmlns="http://www.w3.org/2000/svg" xmlns:xlink="http://www.w3.org/1999/xlink" xml:space="preserve" onload="init(evt)">
<style type="text/css"><![CDATA[
.edge:hover path { stroke: red; }
.edge:hover polygon { stroke: red; fill: red; }
]]></style>
<script type="text/javascript"><![CDATA[
var edges = document.getElementsByTagName('g');
if (edges && edges.length) {
  for (var i=0;i<edges.length;i++) {
    if (edges[i].id.substr(0,4)=='edge') {
      edges[i].setAttribute('class','edge');
    }
  }
}
]]></script>
        <defs>
                <circle id="rim" cx="0" cy="0" r="7"/>
                <circle id="rim2" cx="0" cy="0" r="3.5"/>
                <g id="zoomPlus">
                        <use xlink:href="#rim" fill="#404040">
                                <set attributeName="fill" to="#808080" begin="zoomplus.mouseover" end="zoomplus.mouseout"/>
                        </use>
                        <path d="M-4,0h8M0,-4v8" fill="none" stroke="white" stroke-width="1.5" pointer-events="none"/>
                </g>
                <g id="zoomMin">
                        <use xlink:href="#rim" fill="#404040">
                                <set attributeName="fill" to="#808080" begin="zoomminus.mouseover" end="zoomminus.mouseout"/>
                        </use>
                        <path d="M-4,0h8" fill="none" stroke="white" stroke-width="1.5" pointer-events="none"/>
                </g>
                <g id="dirArrow">
                        <path fill="none" stroke="white" stroke-width="1.5" d="M0,-3.0v7 M-2.5,-0.5L0,-3.0L2.5,-0.5"/>
                </g>
               <g id="resetDef">
                       <use xlink:href="#rim2" fill="#404040">
                               <set attributeName="fill" to="#808080" begin="reset.mouseover" end="reset.mouseout"/>
                       </use>
               </g>
        </defs>

<script type="text/javascript">
var viewWidth = 1308;
var viewHeight = 252;
var sectionId = 'dynsection-0';
</script>
<script xlink:href="svgpan.js"/>
<svg id="graph" class="graph">
<g id="viewport">
<title>main.cpp</title>
<polygon fill="white" stroke="transparent" points="-4,4 -4,-248 1304,-248 1304,4 -4,4"/>
<!-- Node1 -->
<g id="node1" class="node">
<title>Node1</title>
<g id="a_node1"><a xlink:title="Entry point for the Container Manager service.">
<polygon fill="#bfbfbf" stroke="black" points="436,-224.5 436,-243.5 498,-243.5 498,-224.5 436,-224.5"/>
<text text-anchor="middle" x="467" y="-231.5" font-family="Helvetica,sans-Serif" font-size="10.00">main.cpp</text>
</a>
</g>
</g>
<!-- Node2 -->
<g id="node2" class="node">
<title>Node2</title>
<g id="a_node2"><a xlink:title=" ">
<polygon fill="white" stroke="#bfbfbf" points="0,-168.5 0,-187.5 58,-187.5 58,-168.5 0,-168.5"/>
<text text-anchor="middle" x="29" y="-175.5" font-family="Helvetica,sans-Serif" font-size="10.00">memory</text>
</a>
</g>
</g>
<!-- Node1&#45;&gt;Node2 -->
<g id="edge1" class="edge">
<title>Node1&#45;&gt;Node2</title>
<path fill="none" stroke="midnightblue" d="M435.95,-230.79C370.05,-225.82 211.17,-212.4 68.62,-188.1"/>
<polygon fill="midnightblue" stroke="midnightblue" points="68.84,-184.58 58.39,-186.33 67.64,-191.48 68.84,-184.58"/>
</g>
<!-- Node3 -->
<g id="node3" class="node">
<title>Node3</title>
<g id="a_node3"><a xlink:title=" ">
<polygon fill="white" stroke="#bfbfbf" points="76,-168.5 76,-187.5 124,-187.5 124,-168.5 76,-168.5"/>
<text text-anchor="middle" x="100" y="-175.5" font-family="Helvetica,sans-Serif" font-size="10.00">thread</text>
</a>
</g>
</g>
<!-- Node1&#45;&gt;Node3 -->
<g id="edge2" class="edge">
<title>Node1&#45;&gt;Node3</title>
<path fill="none" stroke="midnightblue" d="M435.92,-230.2C378.24,-224.7 250.62,-211.15 133.88,-187.94"/>
<polygon fill="midnightblue" stroke="midnightblue" points="134.56,-184.5 124.06,-185.96 133.17,-191.37 134.56,-184.5"/>
</g>
<!-- Node4 -->
<g id="node4" class="node">
<title>Node4</title>
<g id="a_node4"><a xlink:title=" ">
<polygon fill="white" stroke="#bfbfbf" points="142.5,-168.5 142.5,-187.5 189.5,-187.5 189.5,-168.5 142.5,-168.5"/>
<text text-anchor="middle" x="166" y="-175.5" font-family="Helvetica,sans-Serif" font-size="10.00">vector</text>
</a>
</g>
</g>
<!-- Node1&#45;&gt;Node4 -->
<g id="edge3" class="edge">
<title>Node1&#45;&gt;Node4</title>
<path fill="none" stroke="midnightblue" d="M435.86,-228.8C387.46,-222.06 291.1,-207.74 199.69,-187.96"/>
<polygon fill="midnightblue" stroke="midnightblue" points="200.24,-184.49 189.72,-185.77 198.74,-191.33 200.24,-184.49"/>
</g>
<!-- Node5 -->
<g id="node5" class="node">
<title>Node5</title>
<g id="a_node5"><a xlink:title=" ">
<polygon fill="white" stroke="#bfbfbf" points="208,-168.5 208,-187.5 258,-187.5 258,-168.5 208,-168.5"/>
<text text-anchor="middle" x="233" y="-175.5" font-family="Helvetica,sans-Serif" font-size="10.00">atomic</text>
</a>
</g>
</g>
<!-- Node1&#45;&gt;Node5 -->
<g id="edge4" class="edge">
<title>Node1&#45;&gt;Node5</title>
<path fill="none" stroke="midnightblue" d="M435.74,-226.35C398.23,-218.28 333.21,-204.03 268.23,-188.23"/>
<polygon fill="midnightblue" stroke="midnightblue" points="268.77,-184.76 258.22,-185.79 267.11,-191.56 268.77,-184.76"/>
</g>
<!-- Node6 -->
<g id="node6" class="node">
<title>Node6</title>
<g id="a_node6"><a xlink:title=" ">
<polygon fill="white" stroke="#bfbfbf" points="276.5,-168.5 276.5,-187.5 327.5,-187.5 327.5,-168.5 276.5,-168.5"/>
<text text-anchor="middle" x="302" y="-175.5" font-family="Helvetica,sans-Serif" font-size="10.00">csignal</text>
</a>
</g>
</g>
<!-- Node1&#45;&gt;Node6 -->
<g id="edge5" class="edge">
<title>Node1&#45;&gt;Node6</title>
<path fill="none" stroke="midnightblue" d="M440.86,-224.44C412.89,-215.29 368.39,-200.73 337.33,-190.56"/>
<polygon fill="midnightblue" stroke="midnightblue" points="338.34,-187.21 327.75,-187.43 336.17,-193.86 338.34,-187.21"/>
</g>
<!-- Node7 -->
<g id="node7" class="node">
<title>Node7</title>
<g id="a_node7"><a xlink:title=" ">
<polygon fill="white" stroke="#bfbfbf" points="346,-168.5 346,-187.5 406,-187.5 406,-168.5 346,-168.5"/>
<text text-anchor="middle" x="376" y="-175.5" font-family="Helvetica,sans-Serif" font-size="10.00">iostream</text>
</a>
</g>
</g>
<!-- Node1&#45;&gt;Node7 -->
<g id="edge6" class="edge">
<title>Node1&#45;&gt;Node7</title>
<path fill="none" stroke="midnightblue" d="M452.38,-224.32C438.05,-215.82 415.99,-202.73 399.25,-192.8"/>
<polygon fill="midnightblue" stroke="midnightblue" points="400.97,-189.75 390.58,-187.65 397.4,-195.77 400.97,-189.75"/>
</g>
<!-- Node8 -->
<g id="node8" class="node">
<title>Node8</title>
<g id="a_node8"><a xlink:title=" ">
<polygon fill="white" stroke="#bfbfbf" points="424,-168.5 424,-187.5 510,-187.5 510,-168.5 424,-168.5"/>
<text text-anchor="middle" x="467" y="-175.5" font-family="Helvetica,sans-Serif" font-size="10.00">glog/logging.h</text>
</a>
</g>
</g>
<!-- Node1&#45;&gt;Node8 -->
<g id="edge7" class="edge">
<title>Node1&#45;&gt;Node8</title>
<path fill="none" stroke="midnightblue" d="M467,-224.08C467,-217.01 467,-206.86 467,-197.99"/>
<polygon fill="midnightblue" stroke="midnightblue" points="470.5,-197.75 467,-187.75 463.5,-197.75 470.5,-197.75"/>
</g>
<!-- Node9 -->
<g id="node9" class="node">
<title>Node9</title>
<g id="a_node9"><a xlink:href="common_8hpp.html" target="_top" xlink:title="Defines common constants, string views, and utility structures for the application.">
<polygon fill="white" stroke="black" points="439,-56.5 439,-75.5 537,-75.5 537,-56.5 439,-56.5"/>
<text text-anchor="middle" x="488" y="-63.5" font-family="Helvetica,sans-Serif" font-size="10.00">inc/common.hpp</text>
</a>
</g>
</g>
<!-- Node1&#45;&gt;Node9 -->
<g id="edge8" class="edge">
<title>Node1&#45;&gt;Node9</title>
<path fill="none" stroke="midnightblue" d="M482.78,-224.47C495.2,-216.77 511.61,-204.18 519,-188 522.7,-179.92 522.09,-176.33 519,-168 511.65,-148.21 495.35,-151.79 488,-132 482.48,-117.12 483.02,-98.98 484.63,-85.64"/>
<polygon fill="midnightblue" stroke="midnightblue" points="488.1,-86.16 486.13,-75.75 481.17,-85.11 488.1,-86.16"/>
</g>
<!-- Node13 -->
<g id="node13" class="node">
<title>Node13</title>
<g id="a_node13"><a xlink:href="init__handler_8hpp.html" target="_top" xlink:title="Declares project&#45;wide initialization functions for the Container Manager application.">
<polygon fill="white" stroke="black" points="672.5,-112.5 672.5,-131.5 785.5,-131.5 785.5,-112.5 672.5,-112.5"/>
<text text-anchor="middle" x="729" y="-119.5" font-family="Helvetica,sans-Serif" font-size="10.00">inc/init_handler.hpp</text>
</a>
</g>
</g>
<!-- Node1&#45;&gt;Node13 -->
<g id="edge12" class="edge">
<title>Node1&#45;&gt;Node13</title>
<path fill="none" stroke="midnightblue" d="M487.56,-224.37C533.67,-205.01 645.48,-158.06 699.21,-135.51"/>
<polygon fill="midnightblue" stroke="midnightblue" points="700.67,-138.69 708.54,-131.59 697.96,-132.24 700.67,-138.69"/>
</g>
<!-- Node16 -->
<g id="node16" class="node">
<title>Node16</title>
<g id="a_node16"><a xlink:href="container__service_8hpp.html" target="_top" xlink:title="Declares the ContainerServiceHandler class for business logic related to containers.">
<polygon fill="white" stroke="black" points="842.5,-112.5 842.5,-131.5 983.5,-131.5 983.5,-112.5 842.5,-112.5"/>
<text text-anchor="middle" x="913" y="-119.5" font-family="Helvetica,sans-Serif" font-size="10.00">inc/container_service.hpp</text>
</a>
</g>
</g>
<!-- Node1&#45;&gt;Node16 -->
<g id="edge16" class="edge">
<title>Node1&#45;&gt;Node16</title>
<path fill="none" stroke="midnightblue" d="M498.01,-225.35C575.52,-206.23 777.96,-156.31 868.32,-134.02"/>
<polygon fill="midnightblue" stroke="midnightblue" points="869.38,-137.36 878.25,-131.57 867.71,-130.57 869.38,-137.36"/>
</g>
<!-- Node19 -->
<g id="node19" class="node">
<title>Node19</title>
<g id="a_node19"><a xlink:href="json__request__executor_8hpp.html" target="_top" xlink:title="Declares the JsonRequestExecutorHandler class for executing JSON&#45;based requests.">
<polygon fill="white" stroke="black" points="821.5,-168.5 821.5,-187.5 986.5,-187.5 986.5,-168.5 821.5,-168.5"/>
<text text-anchor="middle" x="904" y="-175.5" font-family="Helvetica,sans-Serif" font-size="10.00">inc/json_request_executor.hpp</text>
</a>
</g>
</g>
<!-- Node1&#45;&gt;Node19 -->
<g id="edge23" class="edge">
<title>Node1&#45;&gt;Node19</title>
<path fill="none" stroke="midnightblue" d="M498.08,-229.16C565.5,-220.83 726.98,-200.87 824.74,-188.79"/>
<polygon fill="midnightblue" stroke="midnightblue" points="825.37,-192.24 834.87,-187.54 824.51,-185.3 825.37,-192.24"/>
</g>
<!-- Node21 -->
<g id="node21" class="node">
<title>Node21</title>
<g id="a_node21"><a xlink:href="null__security__provider_8hpp.html" target="_top" xlink:title="Declares the NullSecurityProvider class for the &quot;no encryption&quot; case.">
<polygon fill="white" stroke="black" points="1081.5,-168.5 1081.5,-187.5 1244.5,-187.5 1244.5,-168.5 1081.5,-168.5"/>
<text text-anchor="middle" x="1163" y="-175.5" font-family="Helvetica,sans-Serif" font-size="10.00">inc/null_security_provider.hpp</text>
</a>
</g>
</g>
<!-- Node1&#45;&gt;Node21 -->
<g id="edge30" class="edge">
<title>Node1&#45;&gt;Node21</title>
<path fill="none" stroke="midnightblue" d="M498.26,-230.57C598.36,-222.81 913.65,-198.35 1071.33,-186.11"/>
<polygon fill="midnightblue" stroke="midnightblue" points="1071.79,-189.59 1081.49,-185.32 1071.25,-182.61 1071.79,-189.59"/>
</g>
<!-- Node23 -->
<g id="node23" class="node">
<title>Node23</title>
<g id="a_node23"><a xlink:href="embedded__database_8hpp.html" target="_top" xlink:title="Declares the EmbeddedDatabaseHandler class for a lightweight, fixed&#45;size in&#45;memory database.">
<polygon fill="white" stroke="black" points="497.5,-112.5 497.5,-131.5 654.5,-131.5 654.5,-112.5 497.5,-112.5"/>
<text text-anchor="middle" x="576" y="-119.5" font-family="Helvetica,sans-Serif" font-size="10.00">inc/embedded_database.hpp</text>
</a>
</g>
</g>
<!-- Node1&#45;&gt;Node23 -->
<g id="edge33" class="edge">
<title>Node1&#45;&gt;Node23</title>
<path fill="none" stroke="midnightblue" d="M494.06,-224.49C512.63,-217.4 536.61,-205.59 552,-188 563.5,-174.86 569.68,-155.71 572.87,-141.6"/>
<polygon fill="midnightblue" stroke="midnightblue" points="576.34,-142.07 574.83,-131.58 569.47,-140.72 576.34,-142.07"/>
</g>
<!-- Node10 -->
<g id="node10" class="node">
<title>Node10</title>
<g id="a_node10"><a xlink:title=" ">
<polygon fill="white" stroke="#bfbfbf" points="946,-0.5 946,-19.5 990,-19.5 990,-0.5 946,-0.5"/>
<text text-anchor="middle" x="968" y="-7.5" font-family="Helvetica,sans-Serif" font-size="10.00">string</text>
</a>
</g>
</g>
<!-- Node9&#45;&gt;Node10 -->
<g id="edge9" class="edge">
<title>Node9&#45;&gt;Node10</title>
<path fill="none" stroke="midnightblue" d="M537.02,-57.22C540.06,-56.8 543.07,-56.38 546,-56 691.23,-37 865.38,-20.37 935.96,-13.89"/>
<polygon fill="midnightblue" stroke="midnightblue" points="936.35,-17.37 945.99,-12.97 935.71,-10.4 936.35,-17.37"/>
</g>
<!-- Node11 -->
<g id="node11" class="node">
<title>Node11</title>
<g id="a_node11"><a xlink:title=" ">
<polygon fill="white" stroke="#bfbfbf" points="401.5,-0.5 401.5,-19.5 474.5,-19.5 474.5,-0.5 401.5,-0.5"/>
<text text-anchor="middle" x="438" y="-7.5" font-family="Helvetica,sans-Serif" font-size="10.00">string_view</text>
</a>
</g>
</g>
<!-- Node9&#45;&gt;Node11 -->
<g id="edge10" class="edge">
<title>Node9&#45;&gt;Node11</title>
<path fill="none" stroke="midnightblue" d="M479.74,-56.08C472.54,-48.3 461.89,-36.8 453.15,-27.37"/>
<polygon fill="midnightblue" stroke="midnightblue" points="455.47,-24.71 446.1,-19.75 450.33,-29.47 455.47,-24.71"/>
</g>
<!-- Node12 -->
<g id="node12" class="node">
<title>Node12</title>
<g id="a_node12"><a xlink:title=" ">
<polygon fill="white" stroke="#bfbfbf" points="492.5,-0.5 492.5,-19.5 585.5,-19.5 585.5,-0.5 492.5,-0.5"/>
<text text-anchor="middle" x="539" y="-7.5" font-family="Helvetica,sans-Serif" font-size="10.00">unordered_map</text>
</a>
</g>
</g>
<!-- Node9&#45;&gt;Node12 -->
<g id="edge11" class="edge">
<title>Node9&#45;&gt;Node12</title>
<path fill="none" stroke="midnightblue" d="M496.42,-56.08C503.85,-48.22 514.85,-36.57 523.81,-27.08"/>
<polygon fill="midnightblue" stroke="midnightblue" points="526.41,-29.42 530.74,-19.75 521.32,-24.62 526.41,-29.42"/>
</g>
<!-- Node14 -->
<g id="node14" class="node">
<title>Node14</title>
<g id="a_node14"><a xlink:href="database__interface_8hpp.html" target="_top" xlink:title="Abstract interface for database operations.">
<polygon fill="white" stroke="black" points="654.5,-56.5 654.5,-75.5 803.5,-75.5 803.5,-56.5 654.5,-56.5"/>
<text text-anchor="middle" x="729" y="-63.5" font-family="Helvetica,sans-Serif" font-size="10.00">inc/database_interface.hpp</text>
</a>
</g>
</g>
<!-- Node13&#45;&gt;Node14 -->
<g id="edge13" class="edge">
<title>Node13&#45;&gt;Node14</title>
<path fill="none" stroke="midnightblue" d="M729,-112.08C729,-105.01 729,-94.86 729,-85.99"/>
<polygon fill="midnightblue" stroke="midnightblue" points="732.5,-85.75 729,-75.75 725.5,-85.75 732.5,-85.75"/>
</g>
<!-- Node14&#45;&gt;Node10 -->
<g id="edge14" class="edge">
<title>Node14&#45;&gt;Node10</title>
<path fill="none" stroke="midnightblue" d="M766.87,-56.44C813.54,-45.9 892.03,-28.16 935.89,-18.26"/>
<polygon fill="midnightblue" stroke="midnightblue" points="936.75,-21.65 945.73,-16.03 935.21,-14.82 936.75,-21.65"/>
</g>
<!-- Node15 -->
<g id="node15" class="node">
<title>Node15</title>
<g id="a_node15"><a xlink:title=" ">
<polygon fill="white" stroke="#bfbfbf" points="713,-0.5 713,-19.5 823,-19.5 823,-0.5 713,-0.5"/>
<text text-anchor="middle" x="768" y="-7.5" font-family="Helvetica,sans-Serif" font-size="10.00">nlohmann/json.hpp</text>
</a>
</g>
</g>
<!-- Node14&#45;&gt;Node15 -->
<g id="edge15" class="edge">
<title>Node14&#45;&gt;Node15</title>
<path fill="none" stroke="midnightblue" d="M735.44,-56.08C740.95,-48.46 749.03,-37.26 755.76,-27.94"/>
<polygon fill="midnightblue" stroke="midnightblue" points="758.66,-29.91 761.68,-19.75 752.99,-25.81 758.66,-29.91"/>
</g>
<!-- Node16&#45;&gt;Node14 -->
<g id="edge20" class="edge">
<title>Node16&#45;&gt;Node14</title>
<path fill="none" stroke="midnightblue" d="M883.84,-112.44C852.49,-103.24 802.47,-88.56 767.8,-78.39"/>
<polygon fill="midnightblue" stroke="midnightblue" points="768.6,-74.97 758.02,-75.52 766.63,-81.69 768.6,-74.97"/>
</g>
<!-- Node16&#45;&gt;Node15 -->
<g id="edge17" class="edge">
<title>Node16&#45;&gt;Node15</title>
<path fill="none" stroke="midnightblue" d="M900.32,-112.22C887.5,-103.28 867.18,-88.93 850,-76 827.75,-59.25 802.75,-39.26 786.27,-25.91"/>
<polygon fill="midnightblue" stroke="midnightblue" points="788.45,-23.17 778.48,-19.59 784.04,-28.61 788.45,-23.17"/>
</g>
<!-- Node17 -->
<g id="node17" class="node">
<title>Node17</title>
<g id="a_node17"><a xlink:href="status_8hpp.html" target="_top" xlink:title="Defines status codes and a Status struct for standardized error handling.">
<polygon fill="white" stroke="black" points="859.5,-56.5 859.5,-75.5 944.5,-75.5 944.5,-56.5 859.5,-56.5"/>
<text text-anchor="middle" x="902" y="-63.5" font-family="Helvetica,sans-Serif" font-size="10.00">inc/status.hpp</text>
</a>
</g>
</g>
<!-- Node16&#45;&gt;Node17 -->
<g id="edge18" class="edge">
<title>Node16&#45;&gt;Node17</title>
<path fill="none" stroke="midnightblue" d="M911.18,-112.08C909.73,-104.93 907.63,-94.64 905.81,-85.69"/>
<polygon fill="midnightblue" stroke="midnightblue" points="909.21,-84.85 903.78,-75.75 902.35,-86.25 909.21,-84.85"/>
</g>
<!-- Node18 -->
<g id="node18" class="node">
<title>Node18</title>
<g id="a_node18"><a xlink:href="container__request_8hpp.html" target="_top" xlink:title="Data structure for representing a container operation request.">
<polygon fill="white" stroke="black" points="962.5,-56.5 962.5,-75.5 1105.5,-75.5 1105.5,-56.5 962.5,-56.5"/>
<text text-anchor="middle" x="1034" y="-63.5" font-family="Helvetica,sans-Serif" font-size="10.00">inc/container_request.hpp</text>
</a>
</g>
</g>
<!-- Node16&#45;&gt;Node18 -->
<g id="edge21" class="edge">
<title>Node16&#45;&gt;Node18</title>
<path fill="none" stroke="midnightblue" d="M932.17,-112.44C951.91,-103.64 982.89,-89.81 1005.49,-79.72"/>
<polygon fill="midnightblue" stroke="midnightblue" points="1007.21,-82.79 1014.92,-75.52 1004.36,-76.4 1007.21,-82.79"/>
</g>
<!-- Node17&#45;&gt;Node10 -->
<g id="edge19" class="edge">
<title>Node17&#45;&gt;Node10</title>
<path fill="none" stroke="midnightblue" d="M912.6,-56.32C922.46,-48.26 937.35,-36.08 949.22,-26.37"/>
<polygon fill="midnightblue" stroke="midnightblue" points="951.68,-28.88 957.2,-19.83 947.25,-23.46 951.68,-28.88"/>
</g>
<!-- Node18&#45;&gt;Node10 -->
<g id="edge22" class="edge">
<title>Node18&#45;&gt;Node10</title>
<path fill="none" stroke="midnightblue" d="M1023.4,-56.32C1013.54,-48.26 998.65,-36.08 986.78,-26.37"/>
<polygon fill="midnightblue" stroke="midnightblue" points="988.75,-23.46 978.8,-19.83 984.32,-28.88 988.75,-23.46"/>
</g>
<!-- Node19&#45;&gt;Node14 -->
<g id="edge28" class="edge">
<title>Node19&#45;&gt;Node14</title>
<path fill="none" stroke="midnightblue" d="M890.27,-168.37C860.11,-149.41 787.86,-104 751.18,-80.94"/>
<polygon fill="midnightblue" stroke="midnightblue" points="753,-77.95 742.67,-75.59 749.27,-83.88 753,-77.95"/>
</g>
<!-- Node19&#45;&gt;Node16 -->
<g id="edge29" class="edge">
<title>Node19&#45;&gt;Node16</title>
<path fill="none" stroke="midnightblue" d="M905.49,-168.08C906.68,-160.93 908.39,-150.64 909.88,-141.69"/>
<polygon fill="midnightblue" stroke="midnightblue" points="913.35,-142.19 911.54,-131.75 906.45,-141.04 913.35,-142.19"/>
</g>
<!-- Node20 -->
<g id="node20" class="node">
<title>Node20</title>
<g id="a_node20"><a xlink:href="request__executor_8hpp.html" target="_top" xlink:title="Declares the abstract RequestExecutor interface for executing requests.">
<polygon fill="white" stroke="black" points="1002,-112.5 1002,-131.5 1142,-131.5 1142,-112.5 1002,-112.5"/>
<text text-anchor="middle" x="1072" y="-119.5" font-family="Helvetica,sans-Serif" font-size="10.00">inc/request_executor.hpp</text>
</a>
</g>
</g>
<!-- Node19&#45;&gt;Node20 -->
<g id="edge24" class="edge">
<title>Node19&#45;&gt;Node20</title>
<path fill="none" stroke="midnightblue" d="M930.62,-168.44C959.01,-159.32 1004.14,-144.81 1035.75,-134.65"/>
<polygon fill="midnightblue" stroke="midnightblue" points="1037.06,-137.91 1045.5,-131.52 1034.91,-131.24 1037.06,-137.91"/>
</g>
<!-- Node20&#45;&gt;Node10 -->
<g id="edge25" class="edge">
<title>Node20&#45;&gt;Node10</title>
<path fill="none" stroke="midnightblue" d="M1096.62,-112.4C1125.28,-101.04 1166.48,-79.67 1148,-56 1130.02,-32.98 1047.17,-19.99 1000.39,-14.37"/>
<polygon fill="midnightblue" stroke="midnightblue" points="1000.5,-10.86 990.16,-13.19 999.69,-17.82 1000.5,-10.86"/>
</g>
<!-- Node20&#45;&gt;Node15 -->
<g id="edge26" class="edge">
<title>Node20&#45;&gt;Node15</title>
<path fill="none" stroke="midnightblue" d="M1084.54,-112.45C1102.1,-99.47 1130.14,-74.37 1114,-56 1095.8,-35.28 928.39,-21.27 833.28,-14.9"/>
<polygon fill="midnightblue" stroke="midnightblue" points="833.39,-11.4 823.18,-14.24 832.93,-18.39 833.39,-11.4"/>
</g>
<!-- Node20&#45;&gt;Node18 -->
<g id="edge27" class="edge">
<title>Node20&#45;&gt;Node18</title>
<path fill="none" stroke="midnightblue" d="M1065.73,-112.08C1060.36,-104.46 1052.48,-93.26 1045.92,-83.94"/>
<polygon fill="midnightblue" stroke="midnightblue" points="1048.78,-81.91 1040.16,-75.75 1043.05,-85.94 1048.78,-81.91"/>
</g>
<!-- Node22 -->
<g id="node22" class="node">
<title>Node22</title>
<g id="a_node22"><a xlink:href="security__provider_8hpp.html" target="_top" xlink:title="Declares the ISecurityProvider abstract interface for encryption/decryption.">
<polygon fill="white" stroke="black" points="1160,-112.5 1160,-131.5 1300,-131.5 1300,-112.5 1160,-112.5"/>
<text text-anchor="middle" x="1230" y="-119.5" font-family="Helvetica,sans-Serif" font-size="10.00">inc/security_provider.hpp</text>
</a>
</g>
</g>
<!-- Node21&#45;&gt;Node22 -->
<g id="edge31" class="edge">
<title>Node21&#45;&gt;Node22</title>
<path fill="none" stroke="midnightblue" d="M1173.76,-168.32C1183.77,-160.26 1198.89,-148.08 1210.93,-138.37"/>
<polygon fill="midnightblue" stroke="midnightblue" points="1213.45,-140.83 1219.04,-131.83 1209.06,-135.38 1213.45,-140.83"/>
</g>
<!-- Node22&#45;&gt;Node10 -->
<g id="edge32" class="edge">
<title>Node22&#45;&gt;Node10</title>
<path fill="none" stroke="midnightblue" d="M1223.78,-112.3C1213.18,-98.18 1190.23,-70.39 1164,-56 1111.31,-27.1 1040.87,-16.72 1000.37,-13.02"/>
<polygon fill="midnightblue" stroke="midnightblue" points="1000.52,-9.52 990.26,-12.18 999.94,-16.5 1000.52,-9.52"/>
</g>
<!-- Node23&#45;&gt;Node9 -->
<g id="edge36" class="edge">
<title>Node23&#45;&gt;Node9</title>
<path fill="none" stroke="midnightblue" d="M561.86,-112.32C548.13,-103.9 527.06,-90.97 510.94,-81.07"/>
<polygon fill="midnightblue" stroke="midnightblue" points="512.46,-77.9 502.1,-75.65 508.8,-83.87 512.46,-77.9"/>
</g>
<!-- Node23&#45;&gt;Node14 -->
<g id="edge37" class="edge">
<title>Node23&#45;&gt;Node14</title>
<path fill="none" stroke="midnightblue" d="M600.24,-112.44C625.87,-103.4 666.49,-89.06 695.24,-78.92"/>
<polygon fill="midnightblue" stroke="midnightblue" points="696.61,-82.15 704.87,-75.52 694.28,-75.54 696.61,-82.15"/>
</g>
<!-- Node23&#45;&gt;Node15 -->
<g id="edge35" class="edge">
<title>Node23&#45;&gt;Node15</title>
<path fill="none" stroke="midnightblue" d="M583.19,-112.24C594.86,-98.53 619.23,-71.91 645,-56 669.4,-40.93 699.61,-29.79 723.99,-22.36"/>
<polygon fill="midnightblue" stroke="midnightblue" points="725.1,-25.68 733.7,-19.5 723.12,-18.97 725.1,-25.68"/>
</g>
<!-- Node24 -->
<g id="node24" class="node">
<title>Node24</title>
<g id="a_node24"><a xlink:title=" ">
<polygon fill="white" stroke="#bfbfbf" points="555,-56.5 555,-75.5 597,-75.5 597,-56.5 555,-56.5"/>
<text text-anchor="middle" x="576" y="-63.5" font-family="Helvetica,sans-Serif" font-size="10.00">array</text>
</a>
</g>
</g>
<!-- Node23&#45;&gt;Node24 -->
<g id="edge34" class="edge">
<title>Node23&#45;&gt;Node24</title>
<path fill="none" stroke="midnightblue" d="M576,-112.08C576,-105.01 576,-94.86 576,-85.99"/>
<polygon fill="midnightblue" stroke="midnightblue" points="579.5,-85.75 576,-75.75 572.5,-85.75 579.5,-85.75"/>
</g>
</g>
</svg>
        <g id="navigator" transform="translate(0 0)" fill="#404254">
                <rect fill="#f2f5e9" fill-opacity="0.5" stroke="#606060" stroke-width=".5" x="0" y="0" width="60" height="60"/>
                <use id="zoomplus" xlink:href="#zoomPlus" x="17" y="9" onmousedown="handleZoom(evt,'in')"/>
                <use id="zoomminus" xlink:href="#zoomMin" x="42" y="9" onmousedown="handleZoom(evt,'out')"/>
                <use id="reset" xlink:href="#resetDef" x="30" y="36" onmousedown="handleReset()"/>
                <g id="arrowUp" xlink:href="#dirArrow" transform="translate(30 24)" onmousedown="handlePan(0,-1)">
                  <use xlink:href="#rim" fill="#404040">
                        <set attributeName="fill" to="#808080" begin="arrowUp.mouseover" end="arrowUp.mouseout"/>
                  </use>
                  <path fill="none" stroke="white" stroke-width="1.5" d="M0,-3.0v7 M-2.5,-0.5L0,-3.0L2.5,-0.5"/>
                </g>
                <g id="arrowRight" xlink:href="#dirArrow" transform="rotate(90) translate(36 -43)" onmousedown="handlePan(1,0)">
                  <use xlink:href="#rim" fill="#404040">
                        <set attributeName="fill" to="#808080" begin="arrowRight.mouseover" end="arrowRight.mouseout"/>
                  </use>
                  <path fill="none" stroke="white" stroke-width="1.5" d="M0,-3.0v7 M-2.5,-0.5L0,-3.0L2.5,-0.5"/>
                </g>
                <g id="arrowDown" xlink:href="#dirArrow" transform="rotate(180) translate(-30 -48)" onmousedown="handlePan(0,1)">
                  <use xlink:href="#rim" fill="#404040">
                        <set attributeName="fill" to="#808080" begin="arrowDown.mouseover" end="arrowDown.mouseout"/>
                  </use>
                  <path fill="none" stroke="white" stroke-width="1.5" d="M0,-3.0v7 M-2.5,-0.5L0,-3.0L2.5,-0.5"/>
                </g>
                <g id="arrowLeft" xlink:href="#dirArrow" transform="rotate(270) translate(-36 17)" onmousedown="handlePan(-1,0)">
                  <use xlink:href="#rim" fill="#404040">
                        <set attributeName="fill" to="#808080" begin="arrowLeft.mouseover" end="arrowLeft.mouseout"/>
                  </use>
                  <path fill="none" stroke="white" stroke-width="1.5" d="M0,-3.0v7 M-2.5,-0.5L0,-3.0L2.5,-0.5"/>
                </g>
        </g>
        <svg viewBox="0 0 15 15" width="100%" height="30px" preserveAspectRatio="xMaxYMin meet">
         <g id="arrow_out" transform="scale(0.3 0.3)">
          <a xlink:href="main_8cpp__incl_org.svg" target="_base">
           <rect id="button" ry="5" rx="5" y="6" x="6" height="38" width="38"
                fill="#f2f5e9" fill-opacity="0.5" stroke="#606060" stroke-width="1.0"/>
           <path id="arrow"
             d="M 11.500037,31.436501 C 11.940474,20.09759 22.043105,11.32322 32.158766,21.979434 L 37.068811,17.246167 C 37.068811,17.246167 37.088388,32 37.088388,32 L 22.160133,31.978069 C 22.160133,31.978069 26.997745,27.140456 26.997745,27.140456 C 18.528582,18.264221 13.291696,25.230495 11.500037,31.436501 z"
             style="fill:#404040;"/>
          </a>
         </g>
        </svg>
</svg>
