<?xml version="1.0" encoding="UTF-8" standalone="no"?>
<!DOCTYPE svg PUBLIC "-//W3C//DTD SVG 1.1//EN"
 "http://www.w3.org/Graphics/SVG/1.1/DTD/svg11.dtd">
<!-- Generated by graphviz version 2.43.0 (0)
 -->
<!-- Title: main.cpp Pages: 1 -->
<!--zoomable 252 -->
<svg id="main" version="1.1" xmlns="http://www.w3.org/2000/svg" xmlns:xlink="http://www.w3.org/1999/xlink" xml:space="preserve" onload="init(evt)">
<style type="text/css"><![CDATA[
.edge:hover path { stroke: red; }
.edge:hover polygon { stroke: red; fill: red; }
]]></style>
<script type="text/javascript"><![CDATA[
var edges = document.getElementsByTagName('g');
if (edges && edges.length) {
  for (var i=0;i<edges.length;i++) {
    if (edges[i].id.substr(0,4)=='edge') {
      edges[i].setAttribute('class','edge');
    }
  }
}
]]></script>
        <defs>
                <circle id="rim" cx="0" cy="0" r="7"/>
                <circle id="rim2" cx="0" cy="0" r="3.5"/>
                <g id="zoomPlus">
                        <use xlink:href="#rim" fill="#404040">
                                <set attributeName="fill" to="#808080" begin="zoomplus.mouseover" end="zoomplus.mouseout"/>
                        </use>
                        <path d="M-4,0h8M0,-4v8" fill="none" stroke="white" stroke-width="1.5" pointer-events="none"/>
                </g>
                <g id="zoomMin">
                        <use xlink:href="#rim" fill="#404040">
                                <set attributeName="fill" to="#808080" begin="zoomminus.mouseover" end="zoomminus.mouseout"/>
                        </use>
                        <path d="M-4,0h8" fill="none" stroke="white" stroke-width="1.5" pointer-events="none"/>
                </g>
                <g id="dirArrow">
                        <path fill="none" stroke="white" stroke-width="1.5" d="M0,-3.0v7 M-2.5,-0.5L0,-3.0L2.5,-0.5"/>
                </g>
               <g id="resetDef">
                       <use xlink:href="#rim2" fill="#404040">
                               <set attributeName="fill" to="#808080" begin="reset.mouseover" end="reset.mouseout"/>
                       </use>
               </g>
        </defs>

<script type="text/javascript">
var viewWidth = 1201;
var viewHeight = 252;
var sectionId = 'dynsection-0';
</script>
<script xlink:href="svgpan.js"/>
<svg id="graph" class="graph">
<g id="viewport">
<title>main.cpp</title>
<polygon fill="white" stroke="transparent" points="-4,4 -4,-248 1197,-248 1197,4 -4,4"/>
<!-- Node1 -->
<g id="node1" class="node">
<title>Node1</title>
<g id="a_node1"><a xlink:title="Entry point for the Container Manager application.">
<polygon fill="#bfbfbf" stroke="black" points="390,-224.5 390,-243.5 452,-243.5 452,-224.5 390,-224.5"/>
<text text-anchor="middle" x="421" y="-231.5" font-family="Helvetica,sans-Serif" font-size="10.00">main.cpp</text>
</a>
</g>
</g>
<!-- Node2 -->
<g id="node2" class="node">
<title>Node2</title>
<g id="a_node2"><a xlink:title=" ">
<polygon fill="white" stroke="#bfbfbf" points="0,-168.5 0,-187.5 58,-187.5 58,-168.5 0,-168.5"/>
<text text-anchor="middle" x="29" y="-175.5" font-family="Helvetica,sans-Serif" font-size="10.00">memory</text>
</a>
</g>
</g>
<!-- Node1&#45;&gt;Node2 -->
<g id="edge1" class="edge">
<title>Node1&#45;&gt;Node2</title>
<path fill="none" stroke="midnightblue" d="M389.58,-230.14C329.21,-224.39 192.71,-210.23 68.46,-188.1"/>
<polygon fill="midnightblue" stroke="midnightblue" points="68.86,-184.62 58.39,-186.29 67.61,-191.51 68.86,-184.62"/>
</g>
<!-- Node3 -->
<g id="node3" class="node">
<title>Node3</title>
<g id="a_node3"><a xlink:title=" ">
<polygon fill="white" stroke="#bfbfbf" points="76,-168.5 76,-187.5 124,-187.5 124,-168.5 76,-168.5"/>
<text text-anchor="middle" x="100" y="-175.5" font-family="Helvetica,sans-Serif" font-size="10.00">thread</text>
</a>
</g>
</g>
<!-- Node1&#45;&gt;Node3 -->
<g id="edge2" class="edge">
<title>Node1&#45;&gt;Node3</title>
<path fill="none" stroke="midnightblue" d="M389.68,-229.27C338.27,-222.89 232.64,-208.74 133.91,-187.99"/>
<polygon fill="midnightblue" stroke="midnightblue" points="134.58,-184.56 124.07,-185.9 133.13,-191.4 134.58,-184.56"/>
</g>
<!-- Node4 -->
<g id="node4" class="node">
<title>Node4</title>
<g id="a_node4"><a xlink:title=" ">
<polygon fill="white" stroke="#bfbfbf" points="142.5,-168.5 142.5,-187.5 189.5,-187.5 189.5,-168.5 142.5,-168.5"/>
<text text-anchor="middle" x="166" y="-175.5" font-family="Helvetica,sans-Serif" font-size="10.00">vector</text>
</a>
</g>
</g>
<!-- Node1&#45;&gt;Node4 -->
<g id="edge3" class="edge">
<title>Node1&#45;&gt;Node4</title>
<path fill="none" stroke="midnightblue" d="M389.97,-227.38C348.77,-219.78 273.55,-205.39 199.68,-188.03"/>
<polygon fill="midnightblue" stroke="midnightblue" points="200.28,-184.58 189.74,-185.68 198.67,-191.39 200.28,-184.58"/>
</g>
<!-- Node5 -->
<g id="node5" class="node">
<title>Node5</title>
<g id="a_node5"><a xlink:title=" ">
<polygon fill="white" stroke="#bfbfbf" points="208,-168.5 208,-187.5 258,-187.5 258,-168.5 208,-168.5"/>
<text text-anchor="middle" x="233" y="-175.5" font-family="Helvetica,sans-Serif" font-size="10.00">atomic</text>
</a>
</g>
</g>
<!-- Node1&#45;&gt;Node5 -->
<g id="edge4" class="edge">
<title>Node1&#45;&gt;Node5</title>
<path fill="none" stroke="midnightblue" d="M391.21,-224.44C357.76,-214.83 303.52,-199.26 268.05,-189.07"/>
<polygon fill="midnightblue" stroke="midnightblue" points="268.72,-185.62 258.14,-186.22 266.78,-192.35 268.72,-185.62"/>
</g>
<!-- Node6 -->
<g id="node6" class="node">
<title>Node6</title>
<g id="a_node6"><a xlink:title=" ">
<polygon fill="white" stroke="#bfbfbf" points="276.5,-168.5 276.5,-187.5 327.5,-187.5 327.5,-168.5 276.5,-168.5"/>
<text text-anchor="middle" x="302" y="-175.5" font-family="Helvetica,sans-Serif" font-size="10.00">csignal</text>
</a>
</g>
</g>
<!-- Node1&#45;&gt;Node6 -->
<g id="edge5" class="edge">
<title>Node1&#45;&gt;Node6</title>
<path fill="none" stroke="midnightblue" d="M402.14,-224.44C382.73,-215.64 352.27,-201.81 330.04,-191.72"/>
<polygon fill="midnightblue" stroke="midnightblue" points="331.32,-188.46 320.77,-187.52 328.43,-194.84 331.32,-188.46"/>
</g>
<!-- Node7 -->
<g id="node7" class="node">
<title>Node7</title>
<g id="a_node7"><a xlink:title=" ">
<polygon fill="white" stroke="#bfbfbf" points="346,-168.5 346,-187.5 406,-187.5 406,-168.5 346,-168.5"/>
<text text-anchor="middle" x="376" y="-175.5" font-family="Helvetica,sans-Serif" font-size="10.00">iostream</text>
</a>
</g>
</g>
<!-- Node1&#45;&gt;Node7 -->
<g id="edge6" class="edge">
<title>Node1&#45;&gt;Node7</title>
<path fill="none" stroke="midnightblue" d="M413.57,-224.08C407.15,-216.38 397.69,-205.03 389.88,-195.65"/>
<polygon fill="midnightblue" stroke="midnightblue" points="392.38,-193.19 383.29,-187.75 387.01,-197.67 392.38,-193.19"/>
</g>
<!-- Node8 -->
<g id="node8" class="node">
<title>Node8</title>
<g id="a_node8"><a xlink:title=" ">
<polygon fill="white" stroke="#bfbfbf" points="424,-168.5 424,-187.5 510,-187.5 510,-168.5 424,-168.5"/>
<text text-anchor="middle" x="467" y="-175.5" font-family="Helvetica,sans-Serif" font-size="10.00">glog/logging.h</text>
</a>
</g>
</g>
<!-- Node1&#45;&gt;Node8 -->
<g id="edge7" class="edge">
<title>Node1&#45;&gt;Node8</title>
<path fill="none" stroke="midnightblue" d="M428.6,-224.08C435.23,-216.3 445.02,-204.8 453.06,-195.37"/>
<polygon fill="midnightblue" stroke="midnightblue" points="455.73,-197.63 459.55,-187.75 450.4,-193.09 455.73,-197.63"/>
</g>
<!-- Node9 -->
<g id="node9" class="node">
<title>Node9</title>
<g id="a_node9"><a xlink:href="common_8hpp.html" target="_top" xlink:title="Defines common constants, string views, and utility structures for the application.">
<polygon fill="white" stroke="black" points="492,-56.5 492,-75.5 590,-75.5 590,-56.5 492,-56.5"/>
<text text-anchor="middle" x="541" y="-63.5" font-family="Helvetica,sans-Serif" font-size="10.00">inc/common.hpp</text>
</a>
</g>
</g>
<!-- Node1&#45;&gt;Node9 -->
<g id="edge8" class="edge">
<title>Node1&#45;&gt;Node9</title>
<path fill="none" stroke="midnightblue" d="M452.29,-226.67C474.33,-220.55 502.7,-209 519,-188 531.19,-172.3 537.29,-115.42 539.7,-85.57"/>
<polygon fill="midnightblue" stroke="midnightblue" points="543.19,-85.84 540.46,-75.6 536.21,-85.31 543.19,-85.84"/>
</g>
<!-- Node13 -->
<g id="node13" class="node">
<title>Node13</title>
<g id="a_node13"><a xlink:href="init__handler_8hpp.html" target="_top" xlink:title="Declares project&#45;wide initialization functions for the Container Manager application.">
<polygon fill="white" stroke="black" points="723.5,-112.5 723.5,-131.5 836.5,-131.5 836.5,-112.5 723.5,-112.5"/>
<text text-anchor="middle" x="780" y="-119.5" font-family="Helvetica,sans-Serif" font-size="10.00">inc/init_handler.hpp</text>
</a>
</g>
</g>
<!-- Node1&#45;&gt;Node13 -->
<g id="edge12" class="edge">
<title>Node1&#45;&gt;Node13</title>
<path fill="none" stroke="midnightblue" d="M452.18,-224.56C484.31,-215.77 535.81,-201.43 580,-188 638.29,-170.29 705.56,-148.05 745.34,-134.71"/>
<polygon fill="midnightblue" stroke="midnightblue" points="746.48,-138.02 754.84,-131.52 744.25,-131.39 746.48,-138.02"/>
</g>
<!-- Node16 -->
<g id="node16" class="node">
<title>Node16</title>
<g id="a_node16"><a xlink:href="container__service_8hpp.html" target="_top" xlink:title="Declares the ContainerServiceHandler class for business logic related to containers.">
<polygon fill="white" stroke="black" points="893.5,-112.5 893.5,-131.5 1034.5,-131.5 1034.5,-112.5 893.5,-112.5"/>
<text text-anchor="middle" x="964" y="-119.5" font-family="Helvetica,sans-Serif" font-size="10.00">inc/container_service.hpp</text>
</a>
</g>
</g>
<!-- Node1&#45;&gt;Node16 -->
<g id="edge16" class="edge">
<title>Node1&#45;&gt;Node16</title>
<path fill="none" stroke="midnightblue" d="M452.3,-232.49C560.43,-230.46 913.72,-221.3 951,-188 963.72,-176.64 966.07,-156.64 965.79,-141.82"/>
<polygon fill="midnightblue" stroke="midnightblue" points="969.28,-141.5 965.2,-131.72 962.29,-141.91 969.28,-141.5"/>
</g>
<!-- Node18 -->
<g id="node18" class="node">
<title>Node18</title>
<g id="a_node18"><a xlink:href="json__request__executor_8hpp.html" target="_top" xlink:title="Declares the JsonRequestExecutorHandler class for executing JSON&#45;based requests.">
<polygon fill="white" stroke="black" points="776.5,-168.5 776.5,-187.5 941.5,-187.5 941.5,-168.5 776.5,-168.5"/>
<text text-anchor="middle" x="859" y="-175.5" font-family="Helvetica,sans-Serif" font-size="10.00">inc/json_request_executor.hpp</text>
</a>
</g>
</g>
<!-- Node1&#45;&gt;Node18 -->
<g id="edge21" class="edge">
<title>Node1&#45;&gt;Node18</title>
<path fill="none" stroke="midnightblue" d="M452.15,-229.16C519.72,-220.83 681.58,-200.87 779.55,-188.79"/>
<polygon fill="midnightblue" stroke="midnightblue" points="780.21,-192.24 789.71,-187.54 779.36,-185.29 780.21,-192.24"/>
</g>
<!-- Node20 -->
<g id="node20" class="node">
<title>Node20</title>
<g id="a_node20"><a xlink:href="embedded__database_8hpp.html" target="_top" xlink:title="Declares the EmbeddedDatabaseHandler class for a lightweight, fixed&#45;size in&#45;memory database.">
<polygon fill="white" stroke="black" points="548.5,-112.5 548.5,-131.5 705.5,-131.5 705.5,-112.5 548.5,-112.5"/>
<text text-anchor="middle" x="627" y="-119.5" font-family="Helvetica,sans-Serif" font-size="10.00">inc/embedded_database.hpp</text>
</a>
</g>
</g>
<!-- Node1&#45;&gt;Node20 -->
<g id="edge28" class="edge">
<title>Node1&#45;&gt;Node20</title>
<path fill="none" stroke="midnightblue" d="M452.07,-225.92C479.55,-218.85 520.12,-206.36 552,-188 575.18,-174.65 597.83,-153.59 612.07,-139.08"/>
<polygon fill="midnightblue" stroke="midnightblue" points="614.67,-141.42 619.06,-131.78 609.61,-136.58 614.67,-141.42"/>
</g>
<!-- Node10 -->
<g id="node10" class="node">
<title>Node10</title>
<g id="a_node10"><a xlink:title=" ">
<polygon fill="white" stroke="#bfbfbf" points="936,-0.5 936,-19.5 980,-19.5 980,-0.5 936,-0.5"/>
<text text-anchor="middle" x="958" y="-7.5" font-family="Helvetica,sans-Serif" font-size="10.00">string</text>
</a>
</g>
</g>
<!-- Node9&#45;&gt;Node10 -->
<g id="edge9" class="edge">
<title>Node9&#45;&gt;Node10</title>
<path fill="none" stroke="midnightblue" d="M590.03,-57.29C593.07,-56.84 596.07,-56.41 599,-56 719.25,-39.14 862.61,-22.08 925.6,-14.74"/>
<polygon fill="midnightblue" stroke="midnightblue" points="926.17,-18.2 935.7,-13.56 925.37,-11.24 926.17,-18.2"/>
</g>
<!-- Node11 -->
<g id="node11" class="node">
<title>Node11</title>
<g id="a_node11"><a xlink:title=" ">
<polygon fill="white" stroke="#bfbfbf" points="454.5,-0.5 454.5,-19.5 527.5,-19.5 527.5,-0.5 454.5,-0.5"/>
<text text-anchor="middle" x="491" y="-7.5" font-family="Helvetica,sans-Serif" font-size="10.00">string_view</text>
</a>
</g>
</g>
<!-- Node9&#45;&gt;Node11 -->
<g id="edge10" class="edge">
<title>Node9&#45;&gt;Node11</title>
<path fill="none" stroke="midnightblue" d="M532.74,-56.08C525.54,-48.3 514.89,-36.8 506.15,-27.37"/>
<polygon fill="midnightblue" stroke="midnightblue" points="508.47,-24.71 499.1,-19.75 503.33,-29.47 508.47,-24.71"/>
</g>
<!-- Node12 -->
<g id="node12" class="node">
<title>Node12</title>
<g id="a_node12"><a xlink:title=" ">
<polygon fill="white" stroke="#bfbfbf" points="545.5,-0.5 545.5,-19.5 638.5,-19.5 638.5,-0.5 545.5,-0.5"/>
<text text-anchor="middle" x="592" y="-7.5" font-family="Helvetica,sans-Serif" font-size="10.00">unordered_map</text>
</a>
</g>
</g>
<!-- Node9&#45;&gt;Node12 -->
<g id="edge11" class="edge">
<title>Node9&#45;&gt;Node12</title>
<path fill="none" stroke="midnightblue" d="M549.42,-56.08C556.85,-48.22 567.85,-36.57 576.81,-27.08"/>
<polygon fill="midnightblue" stroke="midnightblue" points="579.41,-29.42 583.74,-19.75 574.32,-24.62 579.41,-29.42"/>
</g>
<!-- Node14 -->
<g id="node14" class="node">
<title>Node14</title>
<g id="a_node14"><a xlink:href="database__interface_8hpp.html" target="_top" xlink:title="Abstract interface for database operations.">
<polygon fill="white" stroke="black" points="708.5,-56.5 708.5,-75.5 857.5,-75.5 857.5,-56.5 708.5,-56.5"/>
<text text-anchor="middle" x="783" y="-63.5" font-family="Helvetica,sans-Serif" font-size="10.00">inc/database_interface.hpp</text>
</a>
</g>
</g>
<!-- Node13&#45;&gt;Node14 -->
<g id="edge13" class="edge">
<title>Node13&#45;&gt;Node14</title>
<path fill="none" stroke="midnightblue" d="M780.5,-112.08C780.89,-105.01 781.45,-94.86 781.95,-85.99"/>
<polygon fill="midnightblue" stroke="midnightblue" points="785.45,-85.93 782.51,-75.75 778.46,-85.54 785.45,-85.93"/>
</g>
<!-- Node14&#45;&gt;Node10 -->
<g id="edge14" class="edge">
<title>Node14&#45;&gt;Node10</title>
<path fill="none" stroke="midnightblue" d="M810.73,-56.44C842.17,-46.74 893.34,-30.95 926.33,-20.77"/>
<polygon fill="midnightblue" stroke="midnightblue" points="927.42,-24.1 935.94,-17.81 925.35,-17.41 927.42,-24.1"/>
</g>
<!-- Node15 -->
<g id="node15" class="node">
<title>Node15</title>
<g id="a_node15"><a xlink:title=" ">
<polygon fill="white" stroke="#bfbfbf" points="755,-0.5 755,-19.5 865,-19.5 865,-0.5 755,-0.5"/>
<text text-anchor="middle" x="810" y="-7.5" font-family="Helvetica,sans-Serif" font-size="10.00">nlohmann/json.hpp</text>
</a>
</g>
</g>
<!-- Node14&#45;&gt;Node15 -->
<g id="edge15" class="edge">
<title>Node14&#45;&gt;Node15</title>
<path fill="none" stroke="midnightblue" d="M787.46,-56.08C791.15,-48.69 796.52,-37.95 801.09,-28.81"/>
<polygon fill="midnightblue" stroke="midnightblue" points="804.28,-30.26 805.62,-19.75 798.02,-27.13 804.28,-30.26"/>
</g>
<!-- Node16&#45;&gt;Node14 -->
<g id="edge18" class="edge">
<title>Node16&#45;&gt;Node14</title>
<path fill="none" stroke="midnightblue" d="M935.32,-112.44C904.47,-103.24 855.27,-88.56 821.17,-78.39"/>
<polygon fill="midnightblue" stroke="midnightblue" points="822.13,-75.02 811.55,-75.52 820.13,-81.73 822.13,-75.02"/>
</g>
<!-- Node16&#45;&gt;Node15 -->
<g id="edge17" class="edge">
<title>Node16&#45;&gt;Node15</title>
<path fill="none" stroke="midnightblue" d="M951.92,-112.37C925.6,-93.57 862.88,-48.77 830.35,-25.53"/>
<polygon fill="midnightblue" stroke="midnightblue" points="832.2,-22.56 822.03,-19.59 828.13,-28.25 832.2,-22.56"/>
</g>
<!-- Node17 -->
<g id="node17" class="node">
<title>Node17</title>
<g id="a_node17"><a xlink:href="container__request_8hpp.html" target="_top" xlink:title="Data structure for representing a container operation request.">
<polygon fill="white" stroke="black" points="913.5,-56.5 913.5,-75.5 1056.5,-75.5 1056.5,-56.5 913.5,-56.5"/>
<text text-anchor="middle" x="985" y="-63.5" font-family="Helvetica,sans-Serif" font-size="10.00">inc/container_request.hpp</text>
</a>
</g>
</g>
<!-- Node16&#45;&gt;Node17 -->
<g id="edge19" class="edge">
<title>Node16&#45;&gt;Node17</title>
<path fill="none" stroke="midnightblue" d="M967.47,-112.08C970.31,-104.77 974.43,-94.18 977.96,-85.1"/>
<polygon fill="midnightblue" stroke="midnightblue" points="981.23,-86.34 981.6,-75.75 974.71,-83.8 981.23,-86.34"/>
</g>
<!-- Node17&#45;&gt;Node10 -->
<g id="edge20" class="edge">
<title>Node17&#45;&gt;Node10</title>
<path fill="none" stroke="midnightblue" d="M980.54,-56.08C976.85,-48.69 971.48,-37.95 966.91,-28.81"/>
<polygon fill="midnightblue" stroke="midnightblue" points="969.98,-27.13 962.38,-19.75 963.72,-30.26 969.98,-27.13"/>
</g>
<!-- Node18&#45;&gt;Node14 -->
<g id="edge26" class="edge">
<title>Node18&#45;&gt;Node14</title>
<path fill="none" stroke="midnightblue" d="M859.22,-168.26C859.15,-155.02 857.37,-129.59 846,-112 837.37,-98.65 823.26,-88.03 810.58,-80.46"/>
<polygon fill="midnightblue" stroke="midnightblue" points="812.14,-77.33 801.7,-75.5 808.73,-83.44 812.14,-77.33"/>
</g>
<!-- Node18&#45;&gt;Node16 -->
<g id="edge27" class="edge">
<title>Node18&#45;&gt;Node16</title>
<path fill="none" stroke="midnightblue" d="M875.87,-168.32C892.71,-159.66 918.81,-146.24 938.24,-136.25"/>
<polygon fill="midnightblue" stroke="midnightblue" points="939.88,-139.34 947.17,-131.65 936.68,-133.12 939.88,-139.34"/>
</g>
<!-- Node19 -->
<g id="node19" class="node">
<title>Node19</title>
<g id="a_node19"><a xlink:href="request__executor_8hpp.html" target="_top" xlink:title="Declares the abstract RequestExecutor interface for executing requests.">
<polygon fill="white" stroke="black" points="1053,-112.5 1053,-131.5 1193,-131.5 1193,-112.5 1053,-112.5"/>
<text text-anchor="middle" x="1123" y="-119.5" font-family="Helvetica,sans-Serif" font-size="10.00">inc/request_executor.hpp</text>
</a>
</g>
</g>
<!-- Node18&#45;&gt;Node19 -->
<g id="edge22" class="edge">
<title>Node18&#45;&gt;Node19</title>
<path fill="none" stroke="midnightblue" d="M900.83,-168.44C947.08,-158.98 1021.61,-143.74 1071.44,-133.55"/>
<polygon fill="midnightblue" stroke="midnightblue" points="1072.27,-136.95 1081.36,-131.52 1070.87,-130.09 1072.27,-136.95"/>
</g>
<!-- Node19&#45;&gt;Node10 -->
<g id="edge23" class="edge">
<title>Node19&#45;&gt;Node10</title>
<path fill="none" stroke="midnightblue" d="M1122.17,-112.1C1120.4,-98.18 1115,-71.3 1099,-56 1069.3,-27.6 1021.68,-17.12 990.12,-13.26"/>
<polygon fill="midnightblue" stroke="midnightblue" points="990.4,-9.77 980.09,-12.18 989.66,-16.73 990.4,-9.77"/>
</g>
<!-- Node19&#45;&gt;Node15 -->
<g id="edge24" class="edge">
<title>Node19&#45;&gt;Node15</title>
<path fill="none" stroke="midnightblue" d="M1118,-112.15C1109.4,-97.8 1090.33,-69.69 1066,-56 1034.13,-38.07 940,-24.81 875.22,-17.49"/>
<polygon fill="midnightblue" stroke="midnightblue" points="875.41,-13.99 865.09,-16.36 874.64,-20.94 875.41,-13.99"/>
</g>
<!-- Node19&#45;&gt;Node17 -->
<g id="edge25" class="edge">
<title>Node19&#45;&gt;Node17</title>
<path fill="none" stroke="midnightblue" d="M1101.13,-112.44C1078.22,-103.48 1042.02,-89.31 1016.13,-79.18"/>
<polygon fill="midnightblue" stroke="midnightblue" points="1017.35,-75.9 1006.76,-75.52 1014.8,-82.42 1017.35,-75.9"/>
</g>
<!-- Node20&#45;&gt;Node9 -->
<g id="edge31" class="edge">
<title>Node20&#45;&gt;Node9</title>
<path fill="none" stroke="midnightblue" d="M613.18,-112.32C599.77,-103.9 579.18,-90.97 563.41,-81.07"/>
<polygon fill="midnightblue" stroke="midnightblue" points="565.11,-78.01 554.78,-75.65 561.39,-83.94 565.11,-78.01"/>
</g>
<!-- Node20&#45;&gt;Node14 -->
<g id="edge32" class="edge">
<title>Node20&#45;&gt;Node14</title>
<path fill="none" stroke="midnightblue" d="M651.72,-112.44C677.85,-103.4 719.26,-89.06 748.58,-78.92"/>
<polygon fill="midnightblue" stroke="midnightblue" points="750.09,-82.1 758.4,-75.52 747.8,-75.48 750.09,-82.1"/>
</g>
<!-- Node20&#45;&gt;Node15 -->
<g id="edge30" class="edge">
<title>Node20&#45;&gt;Node15</title>
<path fill="none" stroke="midnightblue" d="M634.79,-112.39C647.39,-98.88 673.51,-72.53 700,-56 722.47,-41.98 750.05,-30.71 771.98,-22.95"/>
<polygon fill="midnightblue" stroke="midnightblue" points="773.3,-26.2 781.62,-19.64 771.02,-19.58 773.3,-26.2"/>
</g>
<!-- Node21 -->
<g id="node21" class="node">
<title>Node21</title>
<g id="a_node21"><a xlink:title=" ">
<polygon fill="white" stroke="#bfbfbf" points="608,-56.5 608,-75.5 650,-75.5 650,-56.5 608,-56.5"/>
<text text-anchor="middle" x="629" y="-63.5" font-family="Helvetica,sans-Serif" font-size="10.00">array</text>
</a>
</g>
</g>
<!-- Node20&#45;&gt;Node21 -->
<g id="edge29" class="edge">
<title>Node20&#45;&gt;Node21</title>
<path fill="none" stroke="midnightblue" d="M627.33,-112.08C627.59,-105.01 627.97,-94.86 628.3,-85.99"/>
<polygon fill="midnightblue" stroke="midnightblue" points="631.8,-85.87 628.68,-75.75 624.81,-85.61 631.8,-85.87"/>
</g>
</g>
</svg>
        <g id="navigator" transform="translate(0 0)" fill="#404254">
                <rect fill="#f2f5e9" fill-opacity="0.5" stroke="#606060" stroke-width=".5" x="0" y="0" width="60" height="60"/>
                <use id="zoomplus" xlink:href="#zoomPlus" x="17" y="9" onmousedown="handleZoom(evt,'in')"/>
                <use id="zoomminus" xlink:href="#zoomMin" x="42" y="9" onmousedown="handleZoom(evt,'out')"/>
                <use id="reset" xlink:href="#resetDef" x="30" y="36" onmousedown="handleReset()"/>
                <g id="arrowUp" xlink:href="#dirArrow" transform="translate(30 24)" onmousedown="handlePan(0,-1)">
                  <use xlink:href="#rim" fill="#404040">
                        <set attributeName="fill" to="#808080" begin="arrowUp.mouseover" end="arrowUp.mouseout"/>
                  </use>
                  <path fill="none" stroke="white" stroke-width="1.5" d="M0,-3.0v7 M-2.5,-0.5L0,-3.0L2.5,-0.5"/>
                </g>
                <g id="arrowRight" xlink:href="#dirArrow" transform="rotate(90) translate(36 -43)" onmousedown="handlePan(1,0)">
                  <use xlink:href="#rim" fill="#404040">
                        <set attributeName="fill" to="#808080" begin="arrowRight.mouseover" end="arrowRight.mouseout"/>
                  </use>
                  <path fill="none" stroke="white" stroke-width="1.5" d="M0,-3.0v7 M-2.5,-0.5L0,-3.0L2.5,-0.5"/>
                </g>
                <g id="arrowDown" xlink:href="#dirArrow" transform="rotate(180) translate(-30 -48)" onmousedown="handlePan(0,1)">
                  <use xlink:href="#rim" fill="#404040">
                        <set attributeName="fill" to="#808080" begin="arrowDown.mouseover" end="arrowDown.mouseout"/>
                  </use>
                  <path fill="none" stroke="white" stroke-width="1.5" d="M0,-3.0v7 M-2.5,-0.5L0,-3.0L2.5,-0.5"/>
                </g>
                <g id="arrowLeft" xlink:href="#dirArrow" transform="rotate(270) translate(-36 17)" onmousedown="handlePan(-1,0)">
                  <use xlink:href="#rim" fill="#404040">
                        <set attributeName="fill" to="#808080" begin="arrowLeft.mouseover" end="arrowLeft.mouseout"/>
                  </use>
                  <path fill="none" stroke="white" stroke-width="1.5" d="M0,-3.0v7 M-2.5,-0.5L0,-3.0L2.5,-0.5"/>
                </g>
        </g>
        <svg viewBox="0 0 15 15" width="100%" height="30px" preserveAspectRatio="xMaxYMin meet">
         <g id="arrow_out" transform="scale(0.3 0.3)">
          <a xlink:href="main_8cpp__incl_org.svg" target="_base">
           <rect id="button" ry="5" rx="5" y="6" x="6" height="38" width="38"
                fill="#f2f5e9" fill-opacity="0.5" stroke="#606060" stroke-width="1.0"/>
           <path id="arrow"
             d="M 11.500037,31.436501 C 11.940474,20.09759 22.043105,11.32322 32.158766,21.979434 L 37.068811,17.246167 C 37.068811,17.246167 37.088388,32 37.088388,32 L 22.160133,31.978069 C 22.160133,31.978069 26.997745,27.140456 26.997745,27.140456 C 18.528582,18.264221 13.291696,25.230495 11.500037,31.436501 z"
             style="fill:#404040;"/>
          </a>
         </g>
        </svg>
</svg>
