<?xml version="1.0" encoding="UTF-8" standalone="no"?>
<!DOCTYPE svg PUBLIC "-//W3C//DTD SVG 1.1//EN"
 "http://www.w3.org/Graphics/SVG/1.1/DTD/svg11.dtd">
<!-- Generated by graphviz version 2.43.0 (0)
 -->
<!-- Title: main.cpp Pages: 1 -->
<!--zoomable 252 -->
<svg id="main" version="1.1" xmlns="http://www.w3.org/2000/svg" xmlns:xlink="http://www.w3.org/1999/xlink" xml:space="preserve" onload="init(evt)">
<style type="text/css"><![CDATA[
.edge:hover path { stroke: red; }
.edge:hover polygon { stroke: red; fill: red; }
]]></style>
<script type="text/javascript"><![CDATA[
var edges = document.getElementsByTagName('g');
if (edges && edges.length) {
  for (var i=0;i<edges.length;i++) {
    if (edges[i].id.substr(0,4)=='edge') {
      edges[i].setAttribute('class','edge');
    }
  }
}
]]></script>
        <defs>
                <circle id="rim" cx="0" cy="0" r="7"/>
                <circle id="rim2" cx="0" cy="0" r="3.5"/>
                <g id="zoomPlus">
                        <use xlink:href="#rim" fill="#404040">
                                <set attributeName="fill" to="#808080" begin="zoomplus.mouseover" end="zoomplus.mouseout"/>
                        </use>
                        <path d="M-4,0h8M0,-4v8" fill="none" stroke="white" stroke-width="1.5" pointer-events="none"/>
                </g>
                <g id="zoomMin">
                        <use xlink:href="#rim" fill="#404040">
                                <set attributeName="fill" to="#808080" begin="zoomminus.mouseover" end="zoomminus.mouseout"/>
                        </use>
                        <path d="M-4,0h8" fill="none" stroke="white" stroke-width="1.5" pointer-events="none"/>
                </g>
                <g id="dirArrow">
                        <path fill="none" stroke="white" stroke-width="1.5" d="M0,-3.0v7 M-2.5,-0.5L0,-3.0L2.5,-0.5"/>
                </g>
               <g id="resetDef">
                       <use xlink:href="#rim2" fill="#404040">
                               <set attributeName="fill" to="#808080" begin="reset.mouseover" end="reset.mouseout"/>
                       </use>
               </g>
        </defs>

<script type="text/javascript">
var viewWidth = 1203;
var viewHeight = 252;
var sectionId = 'dynsection-0';
</script>
<script xlink:href="svgpan.js"/>
<svg id="graph" class="graph">
<g id="viewport">
<title>main.cpp</title>
<polygon fill="white" stroke="transparent" points="-4,4 -4,-248 1198.5,-248 1198.5,4 -4,4"/>
<!-- Node1 -->
<g id="node1" class="node">
<title>Node1</title>
<g id="a_node1"><a xlink:title="Entry point for the Container Manager application.">
<polygon fill="#bfbfbf" stroke="black" points="390,-224.5 390,-243.5 452,-243.5 452,-224.5 390,-224.5"/>
<text text-anchor="middle" x="421" y="-231.5" font-family="Helvetica,sans-Serif" font-size="10.00">main.cpp</text>
</a>
</g>
</g>
<!-- Node2 -->
<g id="node2" class="node">
<title>Node2</title>
<g id="a_node2"><a xlink:title=" ">
<polygon fill="white" stroke="#bfbfbf" points="0,-168.5 0,-187.5 58,-187.5 58,-168.5 0,-168.5"/>
<text text-anchor="middle" x="29" y="-175.5" font-family="Helvetica,sans-Serif" font-size="10.00">memory</text>
</a>
</g>
</g>
<!-- Node1&#45;&gt;Node2 -->
<g id="edge1" class="edge">
<title>Node1&#45;&gt;Node2</title>
<path fill="none" stroke="midnightblue" d="M389.58,-230.14C329.21,-224.39 192.71,-210.23 68.46,-188.1"/>
<polygon fill="midnightblue" stroke="midnightblue" points="68.86,-184.62 58.39,-186.29 67.61,-191.51 68.86,-184.62"/>
</g>
<!-- Node3 -->
<g id="node3" class="node">
<title>Node3</title>
<g id="a_node3"><a xlink:title=" ">
<polygon fill="white" stroke="#bfbfbf" points="76,-168.5 76,-187.5 124,-187.5 124,-168.5 76,-168.5"/>
<text text-anchor="middle" x="100" y="-175.5" font-family="Helvetica,sans-Serif" font-size="10.00">thread</text>
</a>
</g>
</g>
<!-- Node1&#45;&gt;Node3 -->
<g id="edge2" class="edge">
<title>Node1&#45;&gt;Node3</title>
<path fill="none" stroke="midnightblue" d="M389.68,-229.27C338.27,-222.89 232.64,-208.74 133.91,-187.99"/>
<polygon fill="midnightblue" stroke="midnightblue" points="134.58,-184.56 124.07,-185.9 133.13,-191.4 134.58,-184.56"/>
</g>
<!-- Node4 -->
<g id="node4" class="node">
<title>Node4</title>
<g id="a_node4"><a xlink:title=" ">
<polygon fill="white" stroke="#bfbfbf" points="142.5,-168.5 142.5,-187.5 189.5,-187.5 189.5,-168.5 142.5,-168.5"/>
<text text-anchor="middle" x="166" y="-175.5" font-family="Helvetica,sans-Serif" font-size="10.00">vector</text>
</a>
</g>
</g>
<!-- Node1&#45;&gt;Node4 -->
<g id="edge3" class="edge">
<title>Node1&#45;&gt;Node4</title>
<path fill="none" stroke="midnightblue" d="M389.97,-227.38C348.77,-219.78 273.55,-205.39 199.68,-188.03"/>
<polygon fill="midnightblue" stroke="midnightblue" points="200.28,-184.58 189.74,-185.68 198.67,-191.39 200.28,-184.58"/>
</g>
<!-- Node5 -->
<g id="node5" class="node">
<title>Node5</title>
<g id="a_node5"><a xlink:title=" ">
<polygon fill="white" stroke="#bfbfbf" points="208,-168.5 208,-187.5 258,-187.5 258,-168.5 208,-168.5"/>
<text text-anchor="middle" x="233" y="-175.5" font-family="Helvetica,sans-Serif" font-size="10.00">atomic</text>
</a>
</g>
</g>
<!-- Node1&#45;&gt;Node5 -->
<g id="edge4" class="edge">
<title>Node1&#45;&gt;Node5</title>
<path fill="none" stroke="midnightblue" d="M391.21,-224.44C357.76,-214.83 303.52,-199.26 268.05,-189.07"/>
<polygon fill="midnightblue" stroke="midnightblue" points="268.72,-185.62 258.14,-186.22 266.78,-192.35 268.72,-185.62"/>
</g>
<!-- Node6 -->
<g id="node6" class="node">
<title>Node6</title>
<g id="a_node6"><a xlink:title=" ">
<polygon fill="white" stroke="#bfbfbf" points="276.5,-168.5 276.5,-187.5 327.5,-187.5 327.5,-168.5 276.5,-168.5"/>
<text text-anchor="middle" x="302" y="-175.5" font-family="Helvetica,sans-Serif" font-size="10.00">csignal</text>
</a>
</g>
</g>
<!-- Node1&#45;&gt;Node6 -->
<g id="edge5" class="edge">
<title>Node1&#45;&gt;Node6</title>
<path fill="none" stroke="midnightblue" d="M402.14,-224.44C382.73,-215.64 352.27,-201.81 330.04,-191.72"/>
<polygon fill="midnightblue" stroke="midnightblue" points="331.32,-188.46 320.77,-187.52 328.43,-194.84 331.32,-188.46"/>
</g>
<!-- Node7 -->
<g id="node7" class="node">
<title>Node7</title>
<g id="a_node7"><a xlink:title=" ">
<polygon fill="white" stroke="#bfbfbf" points="346,-168.5 346,-187.5 406,-187.5 406,-168.5 346,-168.5"/>
<text text-anchor="middle" x="376" y="-175.5" font-family="Helvetica,sans-Serif" font-size="10.00">iostream</text>
</a>
</g>
</g>
<!-- Node1&#45;&gt;Node7 -->
<g id="edge6" class="edge">
<title>Node1&#45;&gt;Node7</title>
<path fill="none" stroke="midnightblue" d="M413.57,-224.08C407.15,-216.38 397.69,-205.03 389.88,-195.65"/>
<polygon fill="midnightblue" stroke="midnightblue" points="392.38,-193.19 383.29,-187.75 387.01,-197.67 392.38,-193.19"/>
</g>
<!-- Node8 -->
<g id="node8" class="node">
<title>Node8</title>
<g id="a_node8"><a xlink:title=" ">
<polygon fill="white" stroke="#bfbfbf" points="424,-168.5 424,-187.5 510,-187.5 510,-168.5 424,-168.5"/>
<text text-anchor="middle" x="467" y="-175.5" font-family="Helvetica,sans-Serif" font-size="10.00">glog/logging.h</text>
</a>
</g>
</g>
<!-- Node1&#45;&gt;Node8 -->
<g id="edge7" class="edge">
<title>Node1&#45;&gt;Node8</title>
<path fill="none" stroke="midnightblue" d="M428.6,-224.08C435.23,-216.3 445.02,-204.8 453.06,-195.37"/>
<polygon fill="midnightblue" stroke="midnightblue" points="455.73,-197.63 459.55,-187.75 450.4,-193.09 455.73,-197.63"/>
</g>
<!-- Node9 -->
<g id="node9" class="node">
<title>Node9</title>
<g id="a_node9"><a xlink:href="common_8hpp.html" target="_top" xlink:title="Defines common constants, string views, and utility structures for the application.">
<polygon fill="white" stroke="black" points="965,-168.5 965,-187.5 1063,-187.5 1063,-168.5 965,-168.5"/>
<text text-anchor="middle" x="1014" y="-175.5" font-family="Helvetica,sans-Serif" font-size="10.00">inc/common.hpp</text>
</a>
</g>
</g>
<!-- Node1&#45;&gt;Node9 -->
<g id="edge8" class="edge">
<title>Node1&#45;&gt;Node9</title>
<path fill="none" stroke="midnightblue" d="M452.05,-230.17C546.27,-221.59 830.09,-195.75 954.49,-184.42"/>
<polygon fill="midnightblue" stroke="midnightblue" points="954.95,-187.89 964.59,-183.5 954.32,-180.92 954.95,-187.89"/>
</g>
<!-- Node13 -->
<g id="node13" class="node">
<title>Node13</title>
<g id="a_node13"><a xlink:href="init__handler_8hpp.html" target="_top" xlink:title="Declares project&#45;wide initialization functions for the Container Manager application.">
<polygon fill="white" stroke="black" points="484.5,-112.5 484.5,-131.5 597.5,-131.5 597.5,-112.5 484.5,-112.5"/>
<text text-anchor="middle" x="541" y="-119.5" font-family="Helvetica,sans-Serif" font-size="10.00">inc/init_handler.hpp</text>
</a>
</g>
</g>
<!-- Node1&#45;&gt;Node13 -->
<g id="edge12" class="edge">
<title>Node1&#45;&gt;Node13</title>
<path fill="none" stroke="midnightblue" d="M452.13,-229.86C478.97,-225.36 516.42,-214.45 536,-188 545.78,-174.79 546.07,-155.66 544.5,-141.57"/>
<polygon fill="midnightblue" stroke="midnightblue" points="547.94,-140.92 542.98,-131.56 541.02,-141.97 547.94,-140.92"/>
</g>
<!-- Node16 -->
<g id="node16" class="node">
<title>Node16</title>
<g id="a_node16"><a xlink:href="redis__database_8hpp.html" target="_top" xlink:title="Declares the RedisDatabaseHandler class for Redis&#45;based database operations.">
<polygon fill="white" stroke="black" points="337.5,-112.5 337.5,-131.5 466.5,-131.5 466.5,-112.5 337.5,-112.5"/>
<text text-anchor="middle" x="402" y="-119.5" font-family="Helvetica,sans-Serif" font-size="10.00">inc/redis_database.hpp</text>
</a>
</g>
</g>
<!-- Node1&#45;&gt;Node16 -->
<g id="edge16" class="edge">
<title>Node1&#45;&gt;Node16</title>
<path fill="none" stroke="midnightblue" d="M452.15,-225.95C487.81,-216.34 538.88,-196.95 519,-168 507.83,-151.73 489.89,-141.34 471.37,-134.71"/>
<polygon fill="midnightblue" stroke="midnightblue" points="472.27,-131.32 461.68,-131.57 470.11,-137.98 472.27,-131.32"/>
</g>
<!-- Node18 -->
<g id="node18" class="node">
<title>Node18</title>
<g id="a_node18"><a xlink:href="container__service_8hpp.html" target="_top" xlink:title="Declares the ContainerServiceHandler class for business logic related to containers.">
<polygon fill="white" stroke="black" points="654.5,-112.5 654.5,-131.5 795.5,-131.5 795.5,-112.5 654.5,-112.5"/>
<text text-anchor="middle" x="725" y="-119.5" font-family="Helvetica,sans-Serif" font-size="10.00">inc/container_service.hpp</text>
</a>
</g>
</g>
<!-- Node1&#45;&gt;Node18 -->
<g id="edge21" class="edge">
<title>Node1&#45;&gt;Node18</title>
<path fill="none" stroke="midnightblue" d="M447.09,-224.49C473.98,-215.64 517.06,-201.26 554,-188 603.11,-170.37 659.61,-148.6 693.79,-135.26"/>
<polygon fill="midnightblue" stroke="midnightblue" points="695.19,-138.47 703.23,-131.57 692.64,-131.95 695.19,-138.47"/>
</g>
<!-- Node20 -->
<g id="node20" class="node">
<title>Node20</title>
<g id="a_node20"><a xlink:href="json__request__executor_8hpp.html" target="_top" xlink:title="Declares the JsonRequestExecutorHandler class for executing JSON&#45;based requests.">
<polygon fill="white" stroke="black" points="642.5,-168.5 642.5,-187.5 807.5,-187.5 807.5,-168.5 642.5,-168.5"/>
<text text-anchor="middle" x="725" y="-175.5" font-family="Helvetica,sans-Serif" font-size="10.00">inc/json_request_executor.hpp</text>
</a>
</g>
</g>
<!-- Node1&#45;&gt;Node20 -->
<g id="edge26" class="edge">
<title>Node1&#45;&gt;Node20</title>
<path fill="none" stroke="midnightblue" d="M452.1,-227.47C502.59,-218.51 603.17,-200.64 667.11,-189.28"/>
<polygon fill="midnightblue" stroke="midnightblue" points="667.81,-192.71 677.04,-187.52 666.59,-185.82 667.81,-192.71"/>
</g>
<!-- Node10 -->
<g id="node10" class="node">
<title>Node10</title>
<g id="a_node10"><a xlink:title=" ">
<polygon fill="white" stroke="#bfbfbf" points="784,-0.5 784,-19.5 828,-19.5 828,-0.5 784,-0.5"/>
<text text-anchor="middle" x="806" y="-7.5" font-family="Helvetica,sans-Serif" font-size="10.00">string</text>
</a>
</g>
</g>
<!-- Node9&#45;&gt;Node10 -->
<g id="edge9" class="edge">
<title>Node9&#45;&gt;Node10</title>
<path fill="none" stroke="midnightblue" d="M1010.67,-168.28C1001.8,-146.22 975.5,-87.7 935,-56 906.51,-33.71 866.18,-22 838.23,-16.19"/>
<polygon fill="midnightblue" stroke="midnightblue" points="838.66,-12.7 828.17,-14.23 837.32,-19.58 838.66,-12.7"/>
</g>
<!-- Node11 -->
<g id="node11" class="node">
<title>Node11</title>
<g id="a_node11"><a xlink:title=" ">
<polygon fill="white" stroke="#bfbfbf" points="1010.5,-112.5 1010.5,-131.5 1083.5,-131.5 1083.5,-112.5 1010.5,-112.5"/>
<text text-anchor="middle" x="1047" y="-119.5" font-family="Helvetica,sans-Serif" font-size="10.00">string_view</text>
</a>
</g>
</g>
<!-- Node9&#45;&gt;Node11 -->
<g id="edge10" class="edge">
<title>Node9&#45;&gt;Node11</title>
<path fill="none" stroke="midnightblue" d="M1019.45,-168.08C1024.01,-160.61 1030.67,-149.72 1036.29,-140.52"/>
<polygon fill="midnightblue" stroke="midnightblue" points="1039.42,-142.11 1041.65,-131.75 1033.45,-138.46 1039.42,-142.11"/>
</g>
<!-- Node12 -->
<g id="node12" class="node">
<title>Node12</title>
<g id="a_node12"><a xlink:title=" ">
<polygon fill="white" stroke="#bfbfbf" points="1101.5,-112.5 1101.5,-131.5 1194.5,-131.5 1194.5,-112.5 1101.5,-112.5"/>
<text text-anchor="middle" x="1148" y="-119.5" font-family="Helvetica,sans-Serif" font-size="10.00">unordered_map</text>
</a>
</g>
</g>
<!-- Node9&#45;&gt;Node12 -->
<g id="edge11" class="edge">
<title>Node9&#45;&gt;Node12</title>
<path fill="none" stroke="midnightblue" d="M1035.23,-168.44C1057.38,-159.52 1092.32,-145.44 1117.44,-135.32"/>
<polygon fill="midnightblue" stroke="midnightblue" points="1118.9,-138.5 1126.87,-131.52 1116.28,-132.01 1118.9,-138.5"/>
</g>
<!-- Node14 -->
<g id="node14" class="node">
<title>Node14</title>
<g id="a_node14"><a xlink:href="database__interface_8hpp.html" target="_top" xlink:title="Abstract interface for database operations.">
<polygon fill="white" stroke="black" points="529.5,-56.5 529.5,-75.5 678.5,-75.5 678.5,-56.5 529.5,-56.5"/>
<text text-anchor="middle" x="604" y="-63.5" font-family="Helvetica,sans-Serif" font-size="10.00">inc/database_interface.hpp</text>
</a>
</g>
</g>
<!-- Node13&#45;&gt;Node14 -->
<g id="edge13" class="edge">
<title>Node13&#45;&gt;Node14</title>
<path fill="none" stroke="midnightblue" d="M551.12,-112.32C560.53,-104.26 574.74,-92.08 586.07,-82.37"/>
<polygon fill="midnightblue" stroke="midnightblue" points="588.38,-85 593.69,-75.83 583.82,-79.68 588.38,-85"/>
</g>
<!-- Node14&#45;&gt;Node10 -->
<g id="edge14" class="edge">
<title>Node14&#45;&gt;Node10</title>
<path fill="none" stroke="midnightblue" d="M636.01,-56.44C673.73,-46.36 736.06,-29.7 773.85,-19.6"/>
<polygon fill="midnightblue" stroke="midnightblue" points="775.06,-22.89 783.81,-16.93 773.25,-16.13 775.06,-22.89"/>
</g>
<!-- Node15 -->
<g id="node15" class="node">
<title>Node15</title>
<g id="a_node15"><a xlink:title=" ">
<polygon fill="white" stroke="#bfbfbf" points="600,-0.5 600,-19.5 710,-19.5 710,-0.5 600,-0.5"/>
<text text-anchor="middle" x="655" y="-7.5" font-family="Helvetica,sans-Serif" font-size="10.00">nlohmann/json.hpp</text>
</a>
</g>
</g>
<!-- Node14&#45;&gt;Node15 -->
<g id="edge15" class="edge">
<title>Node14&#45;&gt;Node15</title>
<path fill="none" stroke="midnightblue" d="M612.42,-56.08C619.85,-48.22 630.85,-36.57 639.81,-27.08"/>
<polygon fill="midnightblue" stroke="midnightblue" points="642.41,-29.42 646.74,-19.75 637.32,-24.62 642.41,-29.42"/>
</g>
<!-- Node16&#45;&gt;Node10 -->
<g id="edge19" class="edge">
<title>Node16&#45;&gt;Node10</title>
<path fill="none" stroke="midnightblue" d="M396.14,-112.21C387.76,-98.44 374.85,-71.76 389,-56 390.61,-54.2 676.31,-24.44 773.82,-14.33"/>
<polygon fill="midnightblue" stroke="midnightblue" points="774.39,-17.79 783.97,-13.28 773.67,-10.83 774.39,-17.79"/>
</g>
<!-- Node16&#45;&gt;Node14 -->
<g id="edge17" class="edge">
<title>Node16&#45;&gt;Node14</title>
<path fill="none" stroke="midnightblue" d="M434.01,-112.44C468.73,-103.16 524.29,-88.31 562.38,-78.13"/>
<polygon fill="midnightblue" stroke="midnightblue" points="563.39,-81.48 572.14,-75.52 561.58,-74.72 563.39,-81.48"/>
</g>
<!-- Node16&#45;&gt;Node15 -->
<g id="edge20" class="edge">
<title>Node16&#45;&gt;Node15</title>
<path fill="none" stroke="midnightblue" d="M388.27,-112.42C369.43,-99.61 339.68,-74.96 356,-56 385.5,-21.73 510.69,-13.21 589.43,-11.29"/>
<polygon fill="midnightblue" stroke="midnightblue" points="589.82,-14.79 599.74,-11.08 589.67,-7.79 589.82,-14.79"/>
</g>
<!-- Node17 -->
<g id="node17" class="node">
<title>Node17</title>
<g id="a_node17"><a xlink:title=" ">
<polygon fill="white" stroke="#bfbfbf" points="398.5,-56.5 398.5,-75.5 511.5,-75.5 511.5,-56.5 398.5,-56.5"/>
<text text-anchor="middle" x="455" y="-63.5" font-family="Helvetica,sans-Serif" font-size="10.00">cpp_redis/cpp_redis</text>
</a>
</g>
</g>
<!-- Node16&#45;&gt;Node17 -->
<g id="edge18" class="edge">
<title>Node16&#45;&gt;Node17</title>
<path fill="none" stroke="midnightblue" d="M410.75,-112.08C418.47,-104.22 429.9,-92.57 439.22,-83.08"/>
<polygon fill="midnightblue" stroke="midnightblue" points="441.9,-85.34 446.41,-75.75 436.91,-80.44 441.9,-85.34"/>
</g>
<!-- Node18&#45;&gt;Node14 -->
<g id="edge23" class="edge">
<title>Node18&#45;&gt;Node14</title>
<path fill="none" stroke="midnightblue" d="M705.83,-112.44C686.09,-103.64 655.11,-89.81 632.51,-79.72"/>
<polygon fill="midnightblue" stroke="midnightblue" points="633.64,-76.4 623.08,-75.52 630.79,-82.79 633.64,-76.4"/>
</g>
<!-- Node18&#45;&gt;Node15 -->
<g id="edge22" class="edge">
<title>Node18&#45;&gt;Node15</title>
<path fill="none" stroke="midnightblue" d="M720.51,-112.4C713.84,-99.78 700.71,-75.61 688,-56 681.81,-46.45 674.35,-36.18 668.09,-27.87"/>
<polygon fill="midnightblue" stroke="midnightblue" points="670.74,-25.57 661.88,-19.75 665.17,-29.82 670.74,-25.57"/>
</g>
<!-- Node19 -->
<g id="node19" class="node">
<title>Node19</title>
<g id="a_node19"><a xlink:href="container__request_8hpp.html" target="_top" xlink:title="Data structure for representing a container operation request.">
<polygon fill="white" stroke="black" points="734.5,-56.5 734.5,-75.5 877.5,-75.5 877.5,-56.5 734.5,-56.5"/>
<text text-anchor="middle" x="806" y="-63.5" font-family="Helvetica,sans-Serif" font-size="10.00">inc/container_request.hpp</text>
</a>
</g>
</g>
<!-- Node18&#45;&gt;Node19 -->
<g id="edge24" class="edge">
<title>Node18&#45;&gt;Node19</title>
<path fill="none" stroke="midnightblue" d="M738.01,-112.32C750.53,-103.98 769.68,-91.21 784.47,-81.35"/>
<polygon fill="midnightblue" stroke="midnightblue" points="786.64,-84.11 793.02,-75.65 782.76,-78.29 786.64,-84.11"/>
</g>
<!-- Node19&#45;&gt;Node10 -->
<g id="edge25" class="edge">
<title>Node19&#45;&gt;Node10</title>
<path fill="none" stroke="midnightblue" d="M806,-56.08C806,-49.01 806,-38.86 806,-29.99"/>
<polygon fill="midnightblue" stroke="midnightblue" points="809.5,-29.75 806,-19.75 802.5,-29.75 809.5,-29.75"/>
</g>
<!-- Node20&#45;&gt;Node14 -->
<g id="edge31" class="edge">
<title>Node20&#45;&gt;Node14</title>
<path fill="none" stroke="midnightblue" d="M704.09,-168.46C687.05,-160.75 663.09,-148.16 646,-132 631.55,-118.33 619.76,-98.73 612.39,-84.63"/>
<polygon fill="midnightblue" stroke="midnightblue" points="615.43,-82.88 607.84,-75.5 609.17,-86.01 615.43,-82.88"/>
</g>
<!-- Node20&#45;&gt;Node18 -->
<g id="edge32" class="edge">
<title>Node20&#45;&gt;Node18</title>
<path fill="none" stroke="midnightblue" d="M725,-168.08C725,-161.01 725,-150.86 725,-141.99"/>
<polygon fill="midnightblue" stroke="midnightblue" points="728.5,-141.75 725,-131.75 721.5,-141.75 728.5,-141.75"/>
</g>
<!-- Node21 -->
<g id="node21" class="node">
<title>Node21</title>
<g id="a_node21"><a xlink:href="request__executor_8hpp.html" target="_top" xlink:title="Declares the abstract RequestExecutor interface for executing requests.">
<polygon fill="white" stroke="black" points="814,-112.5 814,-131.5 954,-131.5 954,-112.5 814,-112.5"/>
<text text-anchor="middle" x="884" y="-119.5" font-family="Helvetica,sans-Serif" font-size="10.00">inc/request_executor.hpp</text>
</a>
</g>
</g>
<!-- Node20&#45;&gt;Node21 -->
<g id="edge27" class="edge">
<title>Node20&#45;&gt;Node21</title>
<path fill="none" stroke="midnightblue" d="M750.19,-168.44C776.94,-159.36 819.4,-144.94 849.31,-134.78"/>
<polygon fill="midnightblue" stroke="midnightblue" points="850.58,-138.05 858.92,-131.52 848.33,-131.42 850.58,-138.05"/>
</g>
<!-- Node21&#45;&gt;Node10 -->
<g id="edge28" class="edge">
<title>Node21&#45;&gt;Node10</title>
<path fill="none" stroke="midnightblue" d="M895.09,-112.29C909.96,-99.53 933.06,-75.2 920,-56 901.83,-29.29 865.1,-18.43 838.23,-14.02"/>
<polygon fill="midnightblue" stroke="midnightblue" points="838.51,-10.52 828.12,-12.58 837.53,-17.45 838.51,-10.52"/>
</g>
<!-- Node21&#45;&gt;Node15 -->
<g id="edge29" class="edge">
<title>Node21&#45;&gt;Node15</title>
<path fill="none" stroke="midnightblue" d="M887.72,-112.27C892.89,-98.6 900.22,-72.04 887,-56 866.21,-30.79 781.47,-19.53 720.42,-14.62"/>
<polygon fill="midnightblue" stroke="midnightblue" points="720.31,-11.1 710.07,-13.83 719.78,-18.08 720.31,-11.1"/>
</g>
<!-- Node21&#45;&gt;Node19 -->
<g id="edge30" class="edge">
<title>Node21&#45;&gt;Node19</title>
<path fill="none" stroke="midnightblue" d="M871.47,-112.32C859.41,-103.98 840.97,-91.21 826.73,-81.35"/>
<polygon fill="midnightblue" stroke="midnightblue" points="828.72,-78.47 818.5,-75.65 824.73,-84.22 828.72,-78.47"/>
</g>
</g>
</svg>
        <g id="navigator" transform="translate(0 0)" fill="#404254">
                <rect fill="#f2f5e9" fill-opacity="0.5" stroke="#606060" stroke-width=".5" x="0" y="0" width="60" height="60"/>
                <use id="zoomplus" xlink:href="#zoomPlus" x="17" y="9" onmousedown="handleZoom(evt,'in')"/>
                <use id="zoomminus" xlink:href="#zoomMin" x="42" y="9" onmousedown="handleZoom(evt,'out')"/>
                <use id="reset" xlink:href="#resetDef" x="30" y="36" onmousedown="handleReset()"/>
                <g id="arrowUp" xlink:href="#dirArrow" transform="translate(30 24)" onmousedown="handlePan(0,-1)">
                  <use xlink:href="#rim" fill="#404040">
                        <set attributeName="fill" to="#808080" begin="arrowUp.mouseover" end="arrowUp.mouseout"/>
                  </use>
                  <path fill="none" stroke="white" stroke-width="1.5" d="M0,-3.0v7 M-2.5,-0.5L0,-3.0L2.5,-0.5"/>
                </g>
                <g id="arrowRight" xlink:href="#dirArrow" transform="rotate(90) translate(36 -43)" onmousedown="handlePan(1,0)">
                  <use xlink:href="#rim" fill="#404040">
                        <set attributeName="fill" to="#808080" begin="arrowRight.mouseover" end="arrowRight.mouseout"/>
                  </use>
                  <path fill="none" stroke="white" stroke-width="1.5" d="M0,-3.0v7 M-2.5,-0.5L0,-3.0L2.5,-0.5"/>
                </g>
                <g id="arrowDown" xlink:href="#dirArrow" transform="rotate(180) translate(-30 -48)" onmousedown="handlePan(0,1)">
                  <use xlink:href="#rim" fill="#404040">
                        <set attributeName="fill" to="#808080" begin="arrowDown.mouseover" end="arrowDown.mouseout"/>
                  </use>
                  <path fill="none" stroke="white" stroke-width="1.5" d="M0,-3.0v7 M-2.5,-0.5L0,-3.0L2.5,-0.5"/>
                </g>
                <g id="arrowLeft" xlink:href="#dirArrow" transform="rotate(270) translate(-36 17)" onmousedown="handlePan(-1,0)">
                  <use xlink:href="#rim" fill="#404040">
                        <set attributeName="fill" to="#808080" begin="arrowLeft.mouseover" end="arrowLeft.mouseout"/>
                  </use>
                  <path fill="none" stroke="white" stroke-width="1.5" d="M0,-3.0v7 M-2.5,-0.5L0,-3.0L2.5,-0.5"/>
                </g>
        </g>
        <svg viewBox="0 0 15 15" width="100%" height="30px" preserveAspectRatio="xMaxYMin meet">
         <g id="arrow_out" transform="scale(0.3 0.3)">
          <a xlink:href="main_8cpp__incl_org.svg" target="_base">
           <rect id="button" ry="5" rx="5" y="6" x="6" height="38" width="38"
                fill="#f2f5e9" fill-opacity="0.5" stroke="#606060" stroke-width="1.0"/>
           <path id="arrow"
             d="M 11.500037,31.436501 C 11.940474,20.09759 22.043105,11.32322 32.158766,21.979434 L 37.068811,17.246167 C 37.068811,17.246167 37.088388,32 37.088388,32 L 22.160133,31.978069 C 22.160133,31.978069 26.997745,27.140456 26.997745,27.140456 C 18.528582,18.264221 13.291696,25.230495 11.500037,31.436501 z"
             style="fill:#404040;"/>
          </a>
         </g>
        </svg>
</svg>
