<?xml version="1.0" encoding="UTF-8" standalone="no"?>
<!DOCTYPE svg PUBLIC "-//W3C//DTD SVG 1.1//EN"
 "http://www.w3.org/Graphics/SVG/1.1/DTD/svg11.dtd">
<!-- Generated by graphviz version 2.43.0 (0)
 -->
<!-- Title: api/inc/messagequeue_consumer.hpp Pages: 1 -->
<svg width="214pt" height="106pt"
 viewBox="0.00 0.00 214.00 106.00" xmlns="http://www.w3.org/2000/svg" xmlns:xlink="http://www.w3.org/1999/xlink">
<g id="graph0" class="graph" transform="scale(1 1) rotate(0) translate(4 102)">
<title>api/inc/messagequeue_consumer.hpp</title>
<polygon fill="white" stroke="transparent" points="-4,4 -4,-102 210,-102 210,4 -4,4"/>
<!-- Node1 -->
<g id="node1" class="node">
<title>Node1</title>
<g id="a_node1"><a xlink:title="Declares the MessageQueueConsumer class for handling messages from a POSIX message queue.">
<polygon fill="#bfbfbf" stroke="black" points="56,-67.5 56,-97.5 182,-97.5 182,-67.5 56,-67.5"/>
<text text-anchor="start" x="64" y="-85.5" font-family="Helvetica,sans-Serif" font-size="10.00">api/inc/messagequeue</text>
<text text-anchor="middle" x="119" y="-74.5" font-family="Helvetica,sans-Serif" font-size="10.00">_consumer.hpp</text>
</a>
</g>
</g>
<!-- Node2 -->
<g id="node2" class="node">
<title>Node2</title>
<g id="a_node2"><a xlink:href="messagequeue__consumer_8cpp.html" target="_top" xlink:title="Implements the MessageQueueConsumer class for handling messages from a POSIX message queue.">
<polygon fill="white" stroke="black" points="0,-0.5 0,-30.5 126,-30.5 126,-0.5 0,-0.5"/>
<text text-anchor="start" x="8" y="-18.5" font-family="Helvetica,sans-Serif" font-size="10.00">api/src/messagequeue</text>
<text text-anchor="middle" x="63" y="-7.5" font-family="Helvetica,sans-Serif" font-size="10.00">_consumer.cpp</text>
</a>
</g>
</g>
<!-- Node1&#45;&gt;Node2 -->
<g id="edge1" class="edge">
<title>Node1&#45;&gt;Node2</title>
<path fill="none" stroke="midnightblue" d="M100.25,-59.74C91.96,-50.12 82.46,-39.09 75.13,-30.58"/>
<polygon fill="midnightblue" stroke="midnightblue" points="97.67,-62.1 106.85,-67.4 102.97,-57.54 97.67,-62.1"/>
</g>
<!-- Node3 -->
<g id="node3" class="node">
<title>Node3</title>
<g id="a_node3"><a xlink:href="main_8cpp.html" target="_top" xlink:title="Entry point for the Container Manager application.">
<polygon fill="white" stroke="black" points="144,-6 144,-25 206,-25 206,-6 144,-6"/>
<text text-anchor="middle" x="175" y="-13" font-family="Helvetica,sans-Serif" font-size="10.00">main.cpp</text>
</a>
</g>
</g>
<!-- Node1&#45;&gt;Node3 -->
<g id="edge2" class="edge">
<title>Node1&#45;&gt;Node3</title>
<path fill="none" stroke="midnightblue" d="M137.82,-59.66C147.98,-47.86 159.95,-33.97 167.51,-25.19"/>
<polygon fill="midnightblue" stroke="midnightblue" points="135.03,-57.54 131.15,-67.4 140.33,-62.1 135.03,-57.54"/>
</g>
</g>
</svg>
