<?xml version="1.0" encoding="UTF-8" standalone="no"?>
<!DOCTYPE svg PUBLIC "-//W3C//DTD SVG 1.1//EN"
 "http://www.w3.org/Graphics/SVG/1.1/DTD/svg11.dtd">
<!-- Generated by graphviz version 2.43.0 (0)
 -->
<!-- Title: api/inc/message_queue_consumer.hpp Pages: 1 -->
<svg width="599pt" height="207pt"
 viewBox="0.00 0.00 598.50 207.00" xmlns="http://www.w3.org/2000/svg" xmlns:xlink="http://www.w3.org/1999/xlink">
<g id="graph0" class="graph" transform="scale(1 1) rotate(0) translate(4 203)">
<title>api/inc/message_queue_consumer.hpp</title>
<polygon fill="white" stroke="transparent" points="-4,4 -4,-203 594.5,-203 594.5,4 -4,4"/>
<!-- Node1 -->
<g id="node1" class="node">
<title>Node1</title>
<g id="a_node1"><a xlink:title="Declares the MessageQueueConsumer class for handling messages from a POSIX message queue.">
<polygon fill="#bfbfbf" stroke="black" points="72.5,-168.5 72.5,-198.5 203.5,-198.5 203.5,-168.5 72.5,-168.5"/>
<text text-anchor="start" x="80.5" y="-186.5" font-family="Helvetica,sans-Serif" font-size="10.00">api/inc/message_queue</text>
<text text-anchor="middle" x="138" y="-175.5" font-family="Helvetica,sans-Serif" font-size="10.00">_consumer.hpp</text>
</a>
</g>
</g>
<!-- Node2 -->
<g id="node2" class="node">
<title>Node2</title>
<g id="a_node2"><a xlink:title=" ">
<polygon fill="white" stroke="#bfbfbf" points="0,-112.5 0,-131.5 58,-131.5 58,-112.5 0,-112.5"/>
<text text-anchor="middle" x="29" y="-119.5" font-family="Helvetica,sans-Serif" font-size="10.00">memory</text>
</a>
</g>
</g>
<!-- Node1&#45;&gt;Node2 -->
<g id="edge1" class="edge">
<title>Node1&#45;&gt;Node2</title>
<path fill="none" stroke="midnightblue" d="M112.17,-168.4C94.53,-158.77 71.3,-146.09 53.87,-136.58"/>
<polygon fill="midnightblue" stroke="midnightblue" points="55.31,-133.38 44.86,-131.66 51.96,-139.52 55.31,-133.38"/>
</g>
<!-- Node3 -->
<g id="node3" class="node">
<title>Node3</title>
<g id="a_node3"><a xlink:title=" ">
<polygon fill="white" stroke="#bfbfbf" points="204,-0.5 204,-19.5 248,-19.5 248,-0.5 204,-0.5"/>
<text text-anchor="middle" x="226" y="-7.5" font-family="Helvetica,sans-Serif" font-size="10.00">string</text>
</a>
</g>
</g>
<!-- Node1&#45;&gt;Node3 -->
<g id="edge2" class="edge">
<title>Node1&#45;&gt;Node3</title>
<path fill="none" stroke="midnightblue" d="M123.69,-168.46C111.02,-154.23 95.84,-131.58 105,-112 124.25,-70.85 169.43,-40.59 198.8,-24.41"/>
<polygon fill="midnightblue" stroke="midnightblue" points="200.55,-27.44 207.73,-19.65 197.26,-21.26 200.55,-27.44"/>
</g>
<!-- Node4 -->
<g id="node4" class="node">
<title>Node4</title>
<g id="a_node4"><a xlink:title=" ">
<polygon fill="white" stroke="#bfbfbf" points="114,-112.5 114,-131.5 162,-131.5 162,-112.5 114,-112.5"/>
<text text-anchor="middle" x="138" y="-119.5" font-family="Helvetica,sans-Serif" font-size="10.00">thread</text>
</a>
</g>
</g>
<!-- Node1&#45;&gt;Node4 -->
<g id="edge3" class="edge">
<title>Node1&#45;&gt;Node4</title>
<path fill="none" stroke="midnightblue" d="M138,-168.4C138,-160.47 138,-150.46 138,-141.86"/>
<polygon fill="midnightblue" stroke="midnightblue" points="141.5,-141.66 138,-131.66 134.5,-141.66 141.5,-141.66"/>
</g>
<!-- Node5 -->
<g id="node5" class="node">
<title>Node5</title>
<g id="a_node5"><a xlink:href="common_8hpp.html" target="_top" xlink:title="Defines common constants, string views, and utility structures for the application.">
<polygon fill="white" stroke="black" points="180,-112.5 180,-131.5 278,-131.5 278,-112.5 180,-112.5"/>
<text text-anchor="middle" x="229" y="-119.5" font-family="Helvetica,sans-Serif" font-size="10.00">inc/common.hpp</text>
</a>
</g>
</g>
<!-- Node1&#45;&gt;Node5 -->
<g id="edge4" class="edge">
<title>Node1&#45;&gt;Node5</title>
<path fill="none" stroke="midnightblue" d="M159.57,-168.4C173.88,-159.04 192.61,-146.79 207.01,-137.38"/>
<polygon fill="midnightblue" stroke="midnightblue" points="209.3,-140.06 215.76,-131.66 205.47,-134.2 209.3,-140.06"/>
</g>
<!-- Node7 -->
<g id="node7" class="node">
<title>Node7</title>
<g id="a_node7"><a xlink:href="request__executor_8hpp.html" target="_top" xlink:title="Declares the abstract RequestExecutor interface for executing requests.">
<polygon fill="white" stroke="black" points="301,-112.5 301,-131.5 441,-131.5 441,-112.5 301,-112.5"/>
<text text-anchor="middle" x="371" y="-119.5" font-family="Helvetica,sans-Serif" font-size="10.00">inc/request_executor.hpp</text>
</a>
</g>
</g>
<!-- Node1&#45;&gt;Node7 -->
<g id="edge7" class="edge">
<title>Node1&#45;&gt;Node7</title>
<path fill="none" stroke="midnightblue" d="M192.92,-168.47C234.17,-157.94 289.88,-143.72 327.93,-134"/>
<polygon fill="midnightblue" stroke="midnightblue" points="328.87,-137.37 337.69,-131.51 327.13,-130.59 328.87,-137.37"/>
</g>
<!-- Node5&#45;&gt;Node3 -->
<g id="edge5" class="edge">
<title>Node5&#45;&gt;Node3</title>
<path fill="none" stroke="midnightblue" d="M214.34,-112.4C202.59,-104.58 186.97,-91.86 180,-76 171.74,-57.2 188.54,-38.34 204.11,-25.82"/>
<polygon fill="midnightblue" stroke="midnightblue" points="206.56,-28.35 212.46,-19.55 202.36,-22.75 206.56,-28.35"/>
</g>
<!-- Node6 -->
<g id="node6" class="node">
<title>Node6</title>
<g id="a_node6"><a xlink:title=" ">
<polygon fill="white" stroke="#bfbfbf" points="189.5,-56.5 189.5,-75.5 262.5,-75.5 262.5,-56.5 189.5,-56.5"/>
<text text-anchor="middle" x="226" y="-63.5" font-family="Helvetica,sans-Serif" font-size="10.00">string_view</text>
</a>
</g>
</g>
<!-- Node5&#45;&gt;Node6 -->
<g id="edge6" class="edge">
<title>Node5&#45;&gt;Node6</title>
<path fill="none" stroke="midnightblue" d="M228.5,-112.08C228.11,-105.01 227.55,-94.86 227.05,-85.99"/>
<polygon fill="midnightblue" stroke="midnightblue" points="230.54,-85.54 226.49,-75.75 223.55,-85.93 230.54,-85.54"/>
</g>
<!-- Node7&#45;&gt;Node3 -->
<g id="edge8" class="edge">
<title>Node7&#45;&gt;Node3</title>
<path fill="none" stroke="midnightblue" d="M359.25,-112.45C346.92,-103.46 327.01,-88.85 310,-76 287.57,-59.06 262.07,-39.24 245.11,-25.99"/>
<polygon fill="midnightblue" stroke="midnightblue" points="247.11,-23.11 237.08,-19.7 242.8,-28.62 247.11,-23.11"/>
</g>
<!-- Node8 -->
<g id="node8" class="node">
<title>Node8</title>
<g id="a_node8"><a xlink:title=" ">
<polygon fill="white" stroke="#bfbfbf" points="319,-56.5 319,-75.5 429,-75.5 429,-56.5 319,-56.5"/>
<text text-anchor="middle" x="374" y="-63.5" font-family="Helvetica,sans-Serif" font-size="10.00">nlohmann/json.hpp</text>
</a>
</g>
</g>
<!-- Node7&#45;&gt;Node8 -->
<g id="edge9" class="edge">
<title>Node7&#45;&gt;Node8</title>
<path fill="none" stroke="midnightblue" d="M371.5,-112.08C371.89,-105.01 372.45,-94.86 372.95,-85.99"/>
<polygon fill="midnightblue" stroke="midnightblue" points="376.45,-85.93 373.51,-75.75 369.46,-85.54 376.45,-85.93"/>
</g>
<!-- Node9 -->
<g id="node9" class="node">
<title>Node9</title>
<g id="a_node9"><a xlink:href="container__request_8hpp.html" target="_top" xlink:title="Data structure for representing a container operation request.">
<polygon fill="white" stroke="black" points="447.5,-56.5 447.5,-75.5 590.5,-75.5 590.5,-56.5 447.5,-56.5"/>
<text text-anchor="middle" x="519" y="-63.5" font-family="Helvetica,sans-Serif" font-size="10.00">inc/container_request.hpp</text>
</a>
</g>
</g>
<!-- Node7&#45;&gt;Node9 -->
<g id="edge10" class="edge">
<title>Node7&#45;&gt;Node9</title>
<path fill="none" stroke="midnightblue" d="M394.45,-112.44C419.13,-103.44 458.19,-89.19 485.98,-79.05"/>
<polygon fill="midnightblue" stroke="midnightblue" points="487.46,-82.23 495.66,-75.52 485.06,-75.66 487.46,-82.23"/>
</g>
<!-- Node9&#45;&gt;Node3 -->
<g id="edge11" class="edge">
<title>Node9&#45;&gt;Node3</title>
<path fill="none" stroke="midnightblue" d="M472.57,-56.44C412.64,-45.4 309.91,-26.46 258.01,-16.9"/>
<polygon fill="midnightblue" stroke="midnightblue" points="258.5,-13.43 248.03,-15.06 257.23,-20.32 258.5,-13.43"/>
</g>
</g>
</svg>
