<?xml version="1.0" encoding="UTF-8" standalone="no"?>
<!DOCTYPE svg PUBLIC "-//W3C//DTD SVG 1.1//EN"
 "http://www.w3.org/Graphics/SVG/1.1/DTD/svg11.dtd">
<!-- Generated by graphviz version 2.43.0 (0)
 -->
<!-- Title: api/inc/messagequeue_consumer.hpp Pages: 1 -->
<svg width="453pt" height="207pt"
 viewBox="0.00 0.00 452.50 207.00" xmlns="http://www.w3.org/2000/svg" xmlns:xlink="http://www.w3.org/1999/xlink">
<g id="graph0" class="graph" transform="scale(1 1) rotate(0) translate(4 203)">
<title>api/inc/messagequeue_consumer.hpp</title>
<polygon fill="white" stroke="transparent" points="-4,4 -4,-203 448.5,-203 448.5,4 -4,4"/>
<!-- Node1 -->
<g id="node1" class="node">
<title>Node1</title>
<g id="a_node1"><a xlink:title="Declares the MessageQueueConsumer class for handling messages from a POSIX message queue.">
<polygon fill="#bfbfbf" stroke="black" points="49,-168.5 49,-198.5 175,-198.5 175,-168.5 49,-168.5"/>
<text text-anchor="start" x="57" y="-186.5" font-family="Helvetica,sans-Serif" font-size="10.00">api/inc/messagequeue</text>
<text text-anchor="middle" x="112" y="-175.5" font-family="Helvetica,sans-Serif" font-size="10.00">_consumer.hpp</text>
</a>
</g>
</g>
<!-- Node2 -->
<g id="node2" class="node">
<title>Node2</title>
<g id="a_node2"><a xlink:title=" ">
<polygon fill="white" stroke="#bfbfbf" points="0,-112.5 0,-131.5 58,-131.5 58,-112.5 0,-112.5"/>
<text text-anchor="middle" x="29" y="-119.5" font-family="Helvetica,sans-Serif" font-size="10.00">memory</text>
</a>
</g>
</g>
<!-- Node1&#45;&gt;Node2 -->
<g id="edge1" class="edge">
<title>Node1&#45;&gt;Node2</title>
<path fill="none" stroke="midnightblue" d="M92.33,-168.4C79.4,-159.13 62.51,-147.03 49.43,-137.65"/>
<polygon fill="midnightblue" stroke="midnightblue" points="51.24,-134.64 41.08,-131.66 47.17,-140.33 51.24,-134.64"/>
</g>
<!-- Node3 -->
<g id="node3" class="node">
<title>Node3</title>
<g id="a_node3"><a xlink:title=" ">
<polygon fill="white" stroke="#bfbfbf" points="123,-0.5 123,-19.5 167,-19.5 167,-0.5 123,-0.5"/>
<text text-anchor="middle" x="145" y="-7.5" font-family="Helvetica,sans-Serif" font-size="10.00">string</text>
</a>
</g>
</g>
<!-- Node1&#45;&gt;Node3 -->
<g id="edge2" class="edge">
<title>Node1&#45;&gt;Node3</title>
<path fill="none" stroke="midnightblue" d="M109.52,-168.41C107.87,-158.31 105.85,-144.36 105,-132 104.39,-123.13 103.33,-120.73 105,-112 110.84,-81.4 125.8,-48.23 135.68,-28.55"/>
<polygon fill="midnightblue" stroke="midnightblue" points="138.83,-30.07 140.3,-19.58 132.61,-26.86 138.83,-30.07"/>
</g>
<!-- Node4 -->
<g id="node4" class="node">
<title>Node4</title>
<g id="a_node4"><a xlink:title=" ">
<polygon fill="white" stroke="#bfbfbf" points="114,-112.5 114,-131.5 162,-131.5 162,-112.5 114,-112.5"/>
<text text-anchor="middle" x="138" y="-119.5" font-family="Helvetica,sans-Serif" font-size="10.00">thread</text>
</a>
</g>
</g>
<!-- Node1&#45;&gt;Node4 -->
<g id="edge3" class="edge">
<title>Node1&#45;&gt;Node4</title>
<path fill="none" stroke="midnightblue" d="M118.16,-168.4C121.74,-160.2 126.3,-149.78 130.14,-140.99"/>
<polygon fill="midnightblue" stroke="midnightblue" points="133.42,-142.22 134.22,-131.66 127.01,-139.42 133.42,-142.22"/>
</g>
<!-- Node5 -->
<g id="node5" class="node">
<title>Node5</title>
<g id="a_node5"><a xlink:href="request__executor_8hpp.html" target="_top" xlink:title="Declares the abstract RequestExecutor interface for executing requests.">
<polygon fill="white" stroke="black" points="180,-112.5 180,-131.5 320,-131.5 320,-112.5 180,-112.5"/>
<text text-anchor="middle" x="250" y="-119.5" font-family="Helvetica,sans-Serif" font-size="10.00">inc/request_executor.hpp</text>
</a>
</g>
</g>
<!-- Node1&#45;&gt;Node5 -->
<g id="edge4" class="edge">
<title>Node1&#45;&gt;Node5</title>
<path fill="none" stroke="midnightblue" d="M144.7,-168.4C167.75,-158.46 198.36,-145.26 220.63,-135.66"/>
<polygon fill="midnightblue" stroke="midnightblue" points="222.12,-138.83 229.92,-131.66 219.35,-132.4 222.12,-138.83"/>
</g>
<!-- Node5&#45;&gt;Node3 -->
<g id="edge5" class="edge">
<title>Node5&#45;&gt;Node3</title>
<path fill="none" stroke="midnightblue" d="M221.01,-112.44C202.23,-105.49 178.63,-93.86 164,-76 153.18,-62.8 148.52,-43.66 146.52,-29.57"/>
<polygon fill="midnightblue" stroke="midnightblue" points="149.99,-29.12 145.41,-19.56 143.03,-29.89 149.99,-29.12"/>
</g>
<!-- Node6 -->
<g id="node6" class="node">
<title>Node6</title>
<g id="a_node6"><a xlink:title=" ">
<polygon fill="white" stroke="#bfbfbf" points="173,-56.5 173,-75.5 283,-75.5 283,-56.5 173,-56.5"/>
<text text-anchor="middle" x="228" y="-63.5" font-family="Helvetica,sans-Serif" font-size="10.00">nlohmann/json.hpp</text>
</a>
</g>
</g>
<!-- Node5&#45;&gt;Node6 -->
<g id="edge6" class="edge">
<title>Node5&#45;&gt;Node6</title>
<path fill="none" stroke="midnightblue" d="M246.37,-112.08C243.39,-104.77 239.07,-94.18 235.38,-85.1"/>
<polygon fill="midnightblue" stroke="midnightblue" points="238.58,-83.69 231.57,-75.75 232.1,-86.33 238.58,-83.69"/>
</g>
<!-- Node7 -->
<g id="node7" class="node">
<title>Node7</title>
<g id="a_node7"><a xlink:href="container__request_8hpp.html" target="_top" xlink:title="Data structure for representing a container operation request.">
<polygon fill="white" stroke="black" points="301.5,-56.5 301.5,-75.5 444.5,-75.5 444.5,-56.5 301.5,-56.5"/>
<text text-anchor="middle" x="373" y="-63.5" font-family="Helvetica,sans-Serif" font-size="10.00">inc/container_request.hpp</text>
</a>
</g>
</g>
<!-- Node5&#45;&gt;Node7 -->
<g id="edge7" class="edge">
<title>Node5&#45;&gt;Node7</title>
<path fill="none" stroke="midnightblue" d="M269.49,-112.44C289.64,-103.6 321.32,-89.69 344.33,-79.59"/>
<polygon fill="midnightblue" stroke="midnightblue" points="345.85,-82.74 353.6,-75.52 343.04,-76.33 345.85,-82.74"/>
</g>
<!-- Node7&#45;&gt;Node3 -->
<g id="edge8" class="edge">
<title>Node7&#45;&gt;Node3</title>
<path fill="none" stroke="midnightblue" d="M336.87,-56.44C292.89,-46.03 219.27,-28.59 177.16,-18.62"/>
<polygon fill="midnightblue" stroke="midnightblue" points="177.71,-15.15 167.17,-16.25 176.09,-21.96 177.71,-15.15"/>
</g>
</g>
</svg>
