<?xml version="1.0" encoding="UTF-8" standalone="no"?>
<!DOCTYPE svg PUBLIC "-//W3C//DTD SVG 1.1//EN"
 "http://www.w3.org/Graphics/SVG/1.1/DTD/svg11.dtd">
<!-- Generated by graphviz version 2.43.0 (0)
 -->
<!-- Title: api/src/message_queue_consumer.cpp Pages: 1 -->
<svg width="730pt" height="263pt"
 viewBox="0.00 0.00 729.50 263.00" xmlns="http://www.w3.org/2000/svg" xmlns:xlink="http://www.w3.org/1999/xlink">
<g id="graph0" class="graph" transform="scale(1 1) rotate(0) translate(4 259)">
<title>api/src/message_queue_consumer.cpp</title>
<polygon fill="white" stroke="transparent" points="-4,4 -4,-259 725.5,-259 725.5,4 -4,4"/>
<!-- Node1 -->
<g id="node1" class="node">
<title>Node1</title>
<g id="a_node1"><a xlink:title="Implements the MessageQueueConsumer class for handling messages from a POSIX message queue.">
<polygon fill="#bfbfbf" stroke="black" points="400.5,-224.5 400.5,-254.5 531.5,-254.5 531.5,-224.5 400.5,-224.5"/>
<text text-anchor="start" x="408.5" y="-242.5" font-family="Helvetica,sans-Serif" font-size="10.00">api/src/message_queue</text>
<text text-anchor="middle" x="466" y="-231.5" font-family="Helvetica,sans-Serif" font-size="10.00">_consumer.cpp</text>
</a>
</g>
</g>
<!-- Node2 -->
<g id="node2" class="node">
<title>Node2</title>
<g id="a_node2"><a xlink:href="message__queue__consumer_8hpp.html" target="_top" xlink:title="Declares the MessageQueueConsumer class for handling messages from a POSIX message queue.">
<polygon fill="white" stroke="black" points="110,-168.5 110,-187.5 298,-187.5 298,-168.5 110,-168.5"/>
<text text-anchor="middle" x="204" y="-175.5" font-family="Helvetica,sans-Serif" font-size="10.00">inc/message_queue_consumer.hpp</text>
</a>
</g>
</g>
<!-- Node1&#45;&gt;Node2 -->
<g id="edge1" class="edge">
<title>Node1&#45;&gt;Node2</title>
<path fill="none" stroke="midnightblue" d="M404.24,-224.47C357.46,-213.85 294.15,-199.47 251.34,-189.75"/>
<polygon fill="midnightblue" stroke="midnightblue" points="251.98,-186.31 241.46,-187.51 250.43,-193.13 251.98,-186.31"/>
</g>
<!-- Node6 -->
<g id="node6" class="node">
<title>Node6</title>
<g id="a_node6"><a xlink:href="common_8hpp.html" target="_top" xlink:title="Defines common constants, string views, and utility structures for the application.">
<polygon fill="white" stroke="black" points="401,-112.5 401,-131.5 499,-131.5 499,-112.5 401,-112.5"/>
<text text-anchor="middle" x="450" y="-119.5" font-family="Helvetica,sans-Serif" font-size="10.00">inc/common.hpp</text>
</a>
</g>
</g>
<!-- Node1&#45;&gt;Node6 -->
<g id="edge18" class="edge">
<title>Node1&#45;&gt;Node6</title>
<path fill="none" stroke="midnightblue" d="M450.74,-224.17C441.94,-214.83 431.72,-201.84 427,-188 421.46,-171.77 429.32,-153.36 437.32,-140.28"/>
<polygon fill="midnightblue" stroke="midnightblue" points="440.33,-142.07 442.98,-131.81 434.51,-138.18 440.33,-142.07"/>
</g>
<!-- Node9 -->
<g id="node9" class="node">
<title>Node9</title>
<g id="a_node9"><a xlink:title=" ">
<polygon fill="white" stroke="#bfbfbf" points="314,-56.5 314,-75.5 424,-75.5 424,-56.5 314,-56.5"/>
<text text-anchor="middle" x="369" y="-63.5" font-family="Helvetica,sans-Serif" font-size="10.00">nlohmann/json.hpp</text>
</a>
</g>
</g>
<!-- Node1&#45;&gt;Node9 -->
<g id="edge16" class="edge">
<title>Node1&#45;&gt;Node9</title>
<path fill="none" stroke="midnightblue" d="M451.58,-224.29C442.19,-214.59 430.06,-201.16 421,-188 398.19,-154.86 382.17,-110.11 374.38,-85.37"/>
<polygon fill="midnightblue" stroke="midnightblue" points="377.73,-84.35 371.47,-75.8 371.03,-86.39 377.73,-84.35"/>
</g>
<!-- Node11 -->
<g id="node11" class="node">
<title>Node11</title>
<g id="a_node11"><a xlink:title=" ">
<polygon fill="white" stroke="#bfbfbf" points="436,-168.5 436,-187.5 496,-187.5 496,-168.5 436,-168.5"/>
<text text-anchor="middle" x="466" y="-175.5" font-family="Helvetica,sans-Serif" font-size="10.00">iostream</text>
</a>
</g>
</g>
<!-- Node1&#45;&gt;Node11 -->
<g id="edge13" class="edge">
<title>Node1&#45;&gt;Node11</title>
<path fill="none" stroke="midnightblue" d="M466,-224.4C466,-216.47 466,-206.46 466,-197.86"/>
<polygon fill="midnightblue" stroke="midnightblue" points="469.5,-197.66 466,-187.66 462.5,-197.66 469.5,-197.66"/>
</g>
<!-- Node12 -->
<g id="node12" class="node">
<title>Node12</title>
<g id="a_node12"><a xlink:title=" ">
<polygon fill="white" stroke="#bfbfbf" points="514,-168.5 514,-187.5 564,-187.5 564,-168.5 514,-168.5"/>
<text text-anchor="middle" x="539" y="-175.5" font-family="Helvetica,sans-Serif" font-size="10.00">cstring</text>
</a>
</g>
</g>
<!-- Node1&#45;&gt;Node12 -->
<g id="edge14" class="edge">
<title>Node1&#45;&gt;Node12</title>
<path fill="none" stroke="midnightblue" d="M483.3,-224.4C494.45,-215.31 508.95,-203.49 520.36,-194.19"/>
<polygon fill="midnightblue" stroke="midnightblue" points="522.84,-196.69 528.38,-187.66 518.42,-191.26 522.84,-196.69"/>
</g>
<!-- Node13 -->
<g id="node13" class="node">
<title>Node13</title>
<g id="a_node13"><a xlink:title=" ">
<polygon fill="white" stroke="#bfbfbf" points="582,-168.5 582,-187.5 638,-187.5 638,-168.5 582,-168.5"/>
<text text-anchor="middle" x="610" y="-175.5" font-family="Helvetica,sans-Serif" font-size="10.00">unistd.h</text>
</a>
</g>
</g>
<!-- Node1&#45;&gt;Node13 -->
<g id="edge15" class="edge">
<title>Node1&#45;&gt;Node13</title>
<path fill="none" stroke="midnightblue" d="M500.13,-224.4C524.29,-214.42 556.4,-201.15 579.67,-191.53"/>
<polygon fill="midnightblue" stroke="midnightblue" points="581.14,-194.71 589.05,-187.66 578.47,-188.24 581.14,-194.71"/>
</g>
<!-- Node14 -->
<g id="node14" class="node">
<title>Node14</title>
<g id="a_node14"><a xlink:title=" ">
<polygon fill="white" stroke="#bfbfbf" points="656.5,-168.5 656.5,-187.5 721.5,-187.5 721.5,-168.5 656.5,-168.5"/>
<text text-anchor="middle" x="689" y="-175.5" font-family="Helvetica,sans-Serif" font-size="10.00">mqueue.h</text>
</a>
</g>
</g>
<!-- Node1&#45;&gt;Node14 -->
<g id="edge17" class="edge">
<title>Node1&#45;&gt;Node14</title>
<path fill="none" stroke="midnightblue" d="M518.57,-224.47C557.88,-213.99 610.91,-199.84 647.32,-190.12"/>
<polygon fill="midnightblue" stroke="midnightblue" points="648.36,-193.47 657.12,-187.51 646.55,-186.7 648.36,-193.47"/>
</g>
<!-- Node3 -->
<g id="node3" class="node">
<title>Node3</title>
<g id="a_node3"><a xlink:title=" ">
<polygon fill="white" stroke="#bfbfbf" points="0,-112.5 0,-131.5 58,-131.5 58,-112.5 0,-112.5"/>
<text text-anchor="middle" x="29" y="-119.5" font-family="Helvetica,sans-Serif" font-size="10.00">memory</text>
</a>
</g>
</g>
<!-- Node2&#45;&gt;Node3 -->
<g id="edge2" class="edge">
<title>Node2&#45;&gt;Node3</title>
<path fill="none" stroke="midnightblue" d="M176.27,-168.44C146.57,-159.28 99.28,-144.69 66.33,-134.52"/>
<polygon fill="midnightblue" stroke="midnightblue" points="67.19,-131.12 56.6,-131.52 65.12,-137.81 67.19,-131.12"/>
</g>
<!-- Node4 -->
<g id="node4" class="node">
<title>Node4</title>
<g id="a_node4"><a xlink:title=" ">
<polygon fill="white" stroke="#bfbfbf" points="214,-0.5 214,-19.5 258,-19.5 258,-0.5 214,-0.5"/>
<text text-anchor="middle" x="236" y="-7.5" font-family="Helvetica,sans-Serif" font-size="10.00">string</text>
</a>
</g>
</g>
<!-- Node2&#45;&gt;Node4 -->
<g id="edge3" class="edge">
<title>Node2&#45;&gt;Node4</title>
<path fill="none" stroke="midnightblue" d="M181.01,-168.42C164.05,-161.06 141.5,-148.94 127,-132 104.13,-105.29 84.57,-84.62 105,-56 127.25,-24.84 172.5,-15.03 203.53,-12.07"/>
<polygon fill="midnightblue" stroke="midnightblue" points="204.15,-15.53 213.85,-11.28 203.62,-8.55 204.15,-15.53"/>
</g>
<!-- Node5 -->
<g id="node5" class="node">
<title>Node5</title>
<g id="a_node5"><a xlink:title=" ">
<polygon fill="white" stroke="#bfbfbf" points="136,-112.5 136,-131.5 184,-131.5 184,-112.5 136,-112.5"/>
<text text-anchor="middle" x="160" y="-119.5" font-family="Helvetica,sans-Serif" font-size="10.00">thread</text>
</a>
</g>
</g>
<!-- Node2&#45;&gt;Node5 -->
<g id="edge4" class="edge">
<title>Node2&#45;&gt;Node5</title>
<path fill="none" stroke="midnightblue" d="M196.73,-168.08C190.46,-160.38 181.21,-149.03 173.57,-139.65"/>
<polygon fill="midnightblue" stroke="midnightblue" points="176.16,-137.29 167.13,-131.75 170.73,-141.71 176.16,-137.29"/>
</g>
<!-- Node2&#45;&gt;Node6 -->
<g id="edge5" class="edge">
<title>Node2&#45;&gt;Node6</title>
<path fill="none" stroke="midnightblue" d="M242.98,-168.44C285.89,-159.02 354.95,-143.87 401.37,-133.68"/>
<polygon fill="midnightblue" stroke="midnightblue" points="402.19,-137.08 411.2,-131.52 400.69,-130.24 402.19,-137.08"/>
</g>
<!-- Node8 -->
<g id="node8" class="node">
<title>Node8</title>
<g id="a_node8"><a xlink:href="request__executor_8hpp.html" target="_top" xlink:title="Declares the abstract RequestExecutor interface for executing requests.">
<polygon fill="white" stroke="black" points="202,-112.5 202,-131.5 342,-131.5 342,-112.5 202,-112.5"/>
<text text-anchor="middle" x="272" y="-119.5" font-family="Helvetica,sans-Serif" font-size="10.00">inc/request_executor.hpp</text>
</a>
</g>
</g>
<!-- Node2&#45;&gt;Node8 -->
<g id="edge8" class="edge">
<title>Node2&#45;&gt;Node8</title>
<path fill="none" stroke="midnightblue" d="M214.93,-168.32C225.17,-160.18 240.72,-147.84 253,-138.09"/>
<polygon fill="midnightblue" stroke="midnightblue" points="255.22,-140.79 260.88,-131.83 250.87,-135.31 255.22,-140.79"/>
</g>
<!-- Node6&#45;&gt;Node4 -->
<g id="edge6" class="edge">
<title>Node6&#45;&gt;Node4</title>
<path fill="none" stroke="midnightblue" d="M450.38,-112.46C450.49,-98.57 448.58,-71.1 433,-56 409.82,-33.54 318.19,-20.12 268.48,-14.35"/>
<polygon fill="midnightblue" stroke="midnightblue" points="268.59,-10.84 258.26,-13.2 267.81,-17.79 268.59,-10.84"/>
</g>
<!-- Node7 -->
<g id="node7" class="node">
<title>Node7</title>
<g id="a_node7"><a xlink:title=" ">
<polygon fill="white" stroke="#bfbfbf" points="480.5,-56.5 480.5,-75.5 553.5,-75.5 553.5,-56.5 480.5,-56.5"/>
<text text-anchor="middle" x="517" y="-63.5" font-family="Helvetica,sans-Serif" font-size="10.00">string_view</text>
</a>
</g>
</g>
<!-- Node6&#45;&gt;Node7 -->
<g id="edge7" class="edge">
<title>Node6&#45;&gt;Node7</title>
<path fill="none" stroke="midnightblue" d="M460.76,-112.32C470.77,-104.26 485.89,-92.08 497.93,-82.37"/>
<polygon fill="midnightblue" stroke="midnightblue" points="500.45,-84.83 506.04,-75.83 496.06,-79.38 500.45,-84.83"/>
</g>
<!-- Node8&#45;&gt;Node4 -->
<g id="edge9" class="edge">
<title>Node8&#45;&gt;Node4</title>
<path fill="none" stroke="midnightblue" d="M272.74,-112.29C273.51,-99.54 273.79,-75.21 267,-56 263.33,-45.62 256.62,-35.41 250.38,-27.34"/>
<polygon fill="midnightblue" stroke="midnightblue" points="253.01,-25.03 243.95,-19.52 247.6,-29.47 253.01,-25.03"/>
</g>
<!-- Node8&#45;&gt;Node9 -->
<g id="edge10" class="edge">
<title>Node8&#45;&gt;Node9</title>
<path fill="none" stroke="midnightblue" d="M287.58,-112.32C303,-103.74 326.81,-90.49 344.71,-80.52"/>
<polygon fill="midnightblue" stroke="midnightblue" points="346.42,-83.58 353.45,-75.65 343.01,-77.46 346.42,-83.58"/>
</g>
<!-- Node10 -->
<g id="node10" class="node">
<title>Node10</title>
<g id="a_node10"><a xlink:href="container__request_8hpp.html" target="_top" xlink:title="Data structure for representing a container operation request.">
<polygon fill="white" stroke="black" points="114.5,-56.5 114.5,-75.5 257.5,-75.5 257.5,-56.5 114.5,-56.5"/>
<text text-anchor="middle" x="186" y="-63.5" font-family="Helvetica,sans-Serif" font-size="10.00">inc/container_request.hpp</text>
</a>
</g>
</g>
<!-- Node8&#45;&gt;Node10 -->
<g id="edge11" class="edge">
<title>Node8&#45;&gt;Node10</title>
<path fill="none" stroke="midnightblue" d="M258.18,-112.32C244.77,-103.9 224.18,-90.97 208.41,-81.07"/>
<polygon fill="midnightblue" stroke="midnightblue" points="210.11,-78.01 199.78,-75.65 206.39,-83.94 210.11,-78.01"/>
</g>
<!-- Node10&#45;&gt;Node4 -->
<g id="edge12" class="edge">
<title>Node10&#45;&gt;Node4</title>
<path fill="none" stroke="midnightblue" d="M194.26,-56.08C201.46,-48.3 212.11,-36.8 220.85,-27.37"/>
<polygon fill="midnightblue" stroke="midnightblue" points="223.67,-29.47 227.9,-19.75 218.53,-24.71 223.67,-29.47"/>
</g>
</g>
</svg>
