<?xml version="1.0" encoding="UTF-8" standalone="no"?>
<!DOCTYPE svg PUBLIC "-//W3C//DTD SVG 1.1//EN"
 "http://www.w3.org/Graphics/SVG/1.1/DTD/svg11.dtd">
<!-- Generated by graphviz version 2.43.0 (0)
 -->
<!-- Title: api/src/mosquitto_mqtt_subscriber.cpp Pages: 1 -->
<svg width="538pt" height="274pt"
 viewBox="0.00 0.00 537.50 274.00" xmlns="http://www.w3.org/2000/svg" xmlns:xlink="http://www.w3.org/1999/xlink">
<g id="graph0" class="graph" transform="scale(1 1) rotate(0) translate(4 270)">
<title>api/src/mosquitto_mqtt_subscriber.cpp</title>
<polygon fill="white" stroke="transparent" points="-4,4 -4,-270 533.5,-270 533.5,4 -4,4"/>
<!-- Node1 -->
<g id="node1" class="node">
<title>Node1</title>
<g id="a_node1"><a xlink:title="Implements the MosquittoMqttSubscriber class for handling MQTT messages using Mosquitto.">
<polygon fill="#bfbfbf" stroke="black" points="375.5,-235.5 375.5,-265.5 505.5,-265.5 505.5,-235.5 375.5,-235.5"/>
<text text-anchor="start" x="383.5" y="-253.5" font-family="Helvetica,sans-Serif" font-size="10.00">api/src/mosquitto_mqtt</text>
<text text-anchor="middle" x="440.5" y="-242.5" font-family="Helvetica,sans-Serif" font-size="10.00">_subscriber.cpp</text>
</a>
</g>
</g>
<!-- Node2 -->
<g id="node2" class="node">
<title>Node2</title>
<g id="a_node2"><a xlink:href="mosquitto__mqtt__subscriber_8hpp.html" target="_top" xlink:title="Declares the MosquittoMqttSubscriber class for handling MQTT messages using Mosquitto.">
<polygon fill="white" stroke="black" points="135.5,-168.5 135.5,-198.5 247.5,-198.5 247.5,-168.5 135.5,-168.5"/>
<text text-anchor="start" x="143.5" y="-186.5" font-family="Helvetica,sans-Serif" font-size="10.00">inc/mosquitto_mqtt</text>
<text text-anchor="middle" x="191.5" y="-175.5" font-family="Helvetica,sans-Serif" font-size="10.00">_subscriber.hpp</text>
</a>
</g>
</g>
<!-- Node1&#45;&gt;Node2 -->
<g id="edge1" class="edge">
<title>Node1&#45;&gt;Node2</title>
<path fill="none" stroke="midnightblue" d="M386.78,-235.48C348.21,-225.41 296.08,-211.8 255.38,-201.17"/>
<polygon fill="midnightblue" stroke="midnightblue" points="256.12,-197.75 245.56,-198.61 254.35,-204.52 256.12,-197.75"/>
</g>
<!-- Node7 -->
<g id="node7" class="node">
<title>Node7</title>
<g id="a_node7"><a xlink:title=" ">
<polygon fill="white" stroke="#bfbfbf" points="419.5,-56.5 419.5,-75.5 529.5,-75.5 529.5,-56.5 419.5,-56.5"/>
<text text-anchor="middle" x="474.5" y="-63.5" font-family="Helvetica,sans-Serif" font-size="10.00">nlohmann/json.hpp</text>
</a>
</g>
</g>
<!-- Node1&#45;&gt;Node7 -->
<g id="edge11" class="edge">
<title>Node1&#45;&gt;Node7</title>
<path fill="none" stroke="midnightblue" d="M443.11,-235.48C449.17,-202.96 464.19,-122.34 471.02,-85.68"/>
<polygon fill="midnightblue" stroke="midnightblue" points="474.47,-86.29 472.86,-75.82 467.58,-85.01 474.47,-86.29"/>
</g>
<!-- Node9 -->
<g id="node9" class="node">
<title>Node9</title>
<g id="a_node9"><a xlink:title=" ">
<polygon fill="white" stroke="#bfbfbf" points="468.5,-174 468.5,-193 528.5,-193 528.5,-174 468.5,-174"/>
<text text-anchor="middle" x="498.5" y="-181" font-family="Helvetica,sans-Serif" font-size="10.00">iostream</text>
</a>
</g>
</g>
<!-- Node1&#45;&gt;Node9 -->
<g id="edge10" class="edge">
<title>Node1&#45;&gt;Node9</title>
<path fill="none" stroke="midnightblue" d="M453.09,-235.4C462.13,-225.26 474.35,-211.57 483.83,-200.94"/>
<polygon fill="midnightblue" stroke="midnightblue" points="486.7,-202.99 490.74,-193.19 481.47,-198.33 486.7,-202.99"/>
</g>
<!-- Node3 -->
<g id="node3" class="node">
<title>Node3</title>
<g id="a_node3"><a xlink:title=" ">
<polygon fill="white" stroke="#bfbfbf" points="0,-112.5 0,-131.5 87,-131.5 87,-112.5 0,-112.5"/>
<text text-anchor="middle" x="43.5" y="-119.5" font-family="Helvetica,sans-Serif" font-size="10.00">mosquittopp.h</text>
</a>
</g>
</g>
<!-- Node2&#45;&gt;Node3 -->
<g id="edge2" class="edge">
<title>Node2&#45;&gt;Node3</title>
<path fill="none" stroke="midnightblue" d="M156.43,-168.4C131.48,-158.37 98.29,-145.03 74.36,-135.4"/>
<polygon fill="midnightblue" stroke="midnightblue" points="75.62,-132.14 65.04,-131.66 73.01,-138.64 75.62,-132.14"/>
</g>
<!-- Node4 -->
<g id="node4" class="node">
<title>Node4</title>
<g id="a_node4"><a xlink:title=" ">
<polygon fill="white" stroke="#bfbfbf" points="105.5,-112.5 105.5,-131.5 163.5,-131.5 163.5,-112.5 105.5,-112.5"/>
<text text-anchor="middle" x="134.5" y="-119.5" font-family="Helvetica,sans-Serif" font-size="10.00">memory</text>
</a>
</g>
</g>
<!-- Node2&#45;&gt;Node4 -->
<g id="edge3" class="edge">
<title>Node2&#45;&gt;Node4</title>
<path fill="none" stroke="midnightblue" d="M177.99,-168.4C169.54,-159.58 158.62,-148.18 149.84,-139.02"/>
<polygon fill="midnightblue" stroke="midnightblue" points="152.24,-136.46 142.79,-131.66 147.18,-141.3 152.24,-136.46"/>
</g>
<!-- Node5 -->
<g id="node5" class="node">
<title>Node5</title>
<g id="a_node5"><a xlink:title=" ">
<polygon fill="white" stroke="#bfbfbf" points="207.5,-0.5 207.5,-19.5 251.5,-19.5 251.5,-0.5 207.5,-0.5"/>
<text text-anchor="middle" x="229.5" y="-7.5" font-family="Helvetica,sans-Serif" font-size="10.00">string</text>
</a>
</g>
</g>
<!-- Node2&#45;&gt;Node5 -->
<g id="edge4" class="edge">
<title>Node2&#45;&gt;Node5</title>
<path fill="none" stroke="midnightblue" d="M194.61,-168.47C201.43,-137.7 217.68,-64.33 225.36,-29.7"/>
<polygon fill="midnightblue" stroke="midnightblue" points="228.86,-30.08 227.6,-19.56 222.02,-28.57 228.86,-30.08"/>
</g>
<!-- Node6 -->
<g id="node6" class="node">
<title>Node6</title>
<g id="a_node6"><a xlink:href="request__executor_8hpp.html" target="_top" xlink:title="Declares the abstract RequestExecutor interface for executing requests.">
<polygon fill="white" stroke="black" points="239.5,-112.5 239.5,-131.5 379.5,-131.5 379.5,-112.5 239.5,-112.5"/>
<text text-anchor="middle" x="309.5" y="-119.5" font-family="Helvetica,sans-Serif" font-size="10.00">inc/request_executor.hpp</text>
</a>
</g>
</g>
<!-- Node2&#45;&gt;Node6 -->
<g id="edge5" class="edge">
<title>Node2&#45;&gt;Node6</title>
<path fill="none" stroke="midnightblue" d="M219.46,-168.4C238.82,-158.64 264.41,-145.74 283.36,-136.18"/>
<polygon fill="midnightblue" stroke="midnightblue" points="284.98,-139.29 292.33,-131.66 281.83,-133.04 284.98,-139.29"/>
</g>
<!-- Node6&#45;&gt;Node5 -->
<g id="edge6" class="edge">
<title>Node6&#45;&gt;Node5</title>
<path fill="none" stroke="midnightblue" d="M292.32,-112.41C278.55,-104.68 259.73,-92.07 248.5,-76 238.93,-62.3 234.13,-43.76 231.75,-29.99"/>
<polygon fill="midnightblue" stroke="midnightblue" points="235.17,-29.15 230.27,-19.76 228.24,-30.15 235.17,-29.15"/>
</g>
<!-- Node6&#45;&gt;Node7 -->
<g id="edge7" class="edge">
<title>Node6&#45;&gt;Node7</title>
<path fill="none" stroke="midnightblue" d="M335.64,-112.44C363.52,-103.32 407.85,-88.81 438.9,-78.65"/>
<polygon fill="midnightblue" stroke="midnightblue" points="440.06,-81.95 448.48,-75.52 437.88,-75.3 440.06,-81.95"/>
</g>
<!-- Node8 -->
<g id="node8" class="node">
<title>Node8</title>
<g id="a_node8"><a xlink:href="container__request_8hpp.html" target="_top" xlink:title="Data structure for representing a container operation request.">
<polygon fill="white" stroke="black" points="258,-56.5 258,-75.5 401,-75.5 401,-56.5 258,-56.5"/>
<text text-anchor="middle" x="329.5" y="-63.5" font-family="Helvetica,sans-Serif" font-size="10.00">inc/container_request.hpp</text>
</a>
</g>
</g>
<!-- Node6&#45;&gt;Node8 -->
<g id="edge8" class="edge">
<title>Node6&#45;&gt;Node8</title>
<path fill="none" stroke="midnightblue" d="M312.8,-112.08C315.48,-104.85 319.35,-94.41 322.69,-85.4"/>
<polygon fill="midnightblue" stroke="midnightblue" points="326.07,-86.34 326.26,-75.75 319.5,-83.91 326.07,-86.34"/>
</g>
<!-- Node8&#45;&gt;Node5 -->
<g id="edge9" class="edge">
<title>Node8&#45;&gt;Node5</title>
<path fill="none" stroke="midnightblue" d="M313.43,-56.32C297.54,-47.74 272.99,-34.49 254.54,-24.52"/>
<polygon fill="midnightblue" stroke="midnightblue" points="255.99,-21.33 245.53,-19.65 252.66,-27.49 255.99,-21.33"/>
</g>
</g>
</svg>
