<?xml version="1.0" encoding="UTF-8" standalone="no"?>
<!DOCTYPE svg PUBLIC "-//W3C//DTD SVG 1.1//EN"
 "http://www.w3.org/Graphics/SVG/1.1/DTD/svg11.dtd">
<!-- Generated by graphviz version 2.43.0 (0)
 -->
<!-- Title: api/inc/mosquitto_mqtt_subscriber.hpp Pages: 1 -->
<svg width="559pt" height="207pt"
 viewBox="0.00 0.00 559.00 207.00" xmlns="http://www.w3.org/2000/svg" xmlns:xlink="http://www.w3.org/1999/xlink">
<g id="graph0" class="graph" transform="scale(1 1) rotate(0) translate(4 203)">
<title>api/inc/mosquitto_mqtt_subscriber.hpp</title>
<polygon fill="white" stroke="transparent" points="-4,4 -4,-203 555,-203 555,4 -4,4"/>
<!-- Node1 -->
<g id="node1" class="node">
<title>Node1</title>
<g id="a_node1"><a xlink:title="Declares the MosquittoMqttSubscriber class for handling MQTT messages using Mosquitto.">
<polygon fill="#bfbfbf" stroke="black" points="126.5,-168.5 126.5,-198.5 256.5,-198.5 256.5,-168.5 126.5,-168.5"/>
<text text-anchor="start" x="134.5" y="-186.5" font-family="Helvetica,sans-Serif" font-size="10.00">api/inc/mosquitto_mqtt</text>
<text text-anchor="middle" x="191.5" y="-175.5" font-family="Helvetica,sans-Serif" font-size="10.00">_subscriber.hpp</text>
</a>
</g>
</g>
<!-- Node2 -->
<g id="node2" class="node">
<title>Node2</title>
<g id="a_node2"><a xlink:title=" ">
<polygon fill="white" stroke="#bfbfbf" points="0,-112.5 0,-131.5 87,-131.5 87,-112.5 0,-112.5"/>
<text text-anchor="middle" x="43.5" y="-119.5" font-family="Helvetica,sans-Serif" font-size="10.00">mosquittopp.h</text>
</a>
</g>
</g>
<!-- Node1&#45;&gt;Node2 -->
<g id="edge1" class="edge">
<title>Node1&#45;&gt;Node2</title>
<path fill="none" stroke="midnightblue" d="M156.43,-168.4C131.48,-158.37 98.29,-145.03 74.36,-135.4"/>
<polygon fill="midnightblue" stroke="midnightblue" points="75.62,-132.14 65.04,-131.66 73.01,-138.64 75.62,-132.14"/>
</g>
<!-- Node3 -->
<g id="node3" class="node">
<title>Node3</title>
<g id="a_node3"><a xlink:title=" ">
<polygon fill="white" stroke="#bfbfbf" points="105.5,-112.5 105.5,-131.5 163.5,-131.5 163.5,-112.5 105.5,-112.5"/>
<text text-anchor="middle" x="134.5" y="-119.5" font-family="Helvetica,sans-Serif" font-size="10.00">memory</text>
</a>
</g>
</g>
<!-- Node1&#45;&gt;Node3 -->
<g id="edge2" class="edge">
<title>Node1&#45;&gt;Node3</title>
<path fill="none" stroke="midnightblue" d="M177.99,-168.4C169.54,-159.58 158.62,-148.18 149.84,-139.02"/>
<polygon fill="midnightblue" stroke="midnightblue" points="152.24,-136.46 142.79,-131.66 147.18,-141.3 152.24,-136.46"/>
</g>
<!-- Node4 -->
<g id="node4" class="node">
<title>Node4</title>
<g id="a_node4"><a xlink:title=" ">
<polygon fill="white" stroke="#bfbfbf" points="229.5,-0.5 229.5,-19.5 273.5,-19.5 273.5,-0.5 229.5,-0.5"/>
<text text-anchor="middle" x="251.5" y="-7.5" font-family="Helvetica,sans-Serif" font-size="10.00">string</text>
</a>
</g>
</g>
<!-- Node1&#45;&gt;Node4 -->
<g id="edge3" class="edge">
<title>Node1&#45;&gt;Node4</title>
<path fill="none" stroke="midnightblue" d="M194.78,-168.3C198.23,-153.96 204.03,-131.22 210.5,-112 220.47,-82.35 234.66,-48.88 243.46,-28.89"/>
<polygon fill="midnightblue" stroke="midnightblue" points="246.76,-30.07 247.63,-19.51 240.37,-27.23 246.76,-30.07"/>
</g>
<!-- Node5 -->
<g id="node5" class="node">
<title>Node5</title>
<g id="a_node5"><a xlink:title=" ">
<polygon fill="white" stroke="#bfbfbf" points="219.5,-112.5 219.5,-131.5 269.5,-131.5 269.5,-112.5 219.5,-112.5"/>
<text text-anchor="middle" x="244.5" y="-119.5" font-family="Helvetica,sans-Serif" font-size="10.00">atomic</text>
</a>
</g>
</g>
<!-- Node1&#45;&gt;Node5 -->
<g id="edge4" class="edge">
<title>Node1&#45;&gt;Node5</title>
<path fill="none" stroke="midnightblue" d="M204.06,-168.4C211.84,-159.66 221.86,-148.41 229.98,-139.3"/>
<polygon fill="midnightblue" stroke="midnightblue" points="232.75,-141.45 236.79,-131.66 227.52,-136.8 232.75,-141.45"/>
</g>
<!-- Node6 -->
<g id="node6" class="node">
<title>Node6</title>
<g id="a_node6"><a xlink:href="request__executor_8hpp.html" target="_top" xlink:title="Declares the abstract RequestExecutor interface for executing requests.">
<polygon fill="white" stroke="black" points="287.5,-112.5 287.5,-131.5 427.5,-131.5 427.5,-112.5 287.5,-112.5"/>
<text text-anchor="middle" x="357.5" y="-119.5" font-family="Helvetica,sans-Serif" font-size="10.00">inc/request_executor.hpp</text>
</a>
</g>
</g>
<!-- Node1&#45;&gt;Node6 -->
<g id="edge5" class="edge">
<title>Node1&#45;&gt;Node6</title>
<path fill="none" stroke="midnightblue" d="M230.84,-168.4C259.06,-158.28 296.71,-144.79 323.6,-135.15"/>
<polygon fill="midnightblue" stroke="midnightblue" points="325.11,-138.33 333.35,-131.66 322.75,-131.74 325.11,-138.33"/>
</g>
<!-- Node6&#45;&gt;Node4 -->
<g id="edge6" class="edge">
<title>Node6&#45;&gt;Node4</title>
<path fill="none" stroke="midnightblue" d="M327.76,-112.37C308.84,-105.44 285.2,-93.85 270.5,-76 259.65,-62.82 254.99,-43.69 253,-29.59"/>
<polygon fill="midnightblue" stroke="midnightblue" points="256.47,-29.13 251.9,-19.57 249.51,-29.89 256.47,-29.13"/>
</g>
<!-- Node7 -->
<g id="node7" class="node">
<title>Node7</title>
<g id="a_node7"><a xlink:title=" ">
<polygon fill="white" stroke="#bfbfbf" points="279.5,-56.5 279.5,-75.5 389.5,-75.5 389.5,-56.5 279.5,-56.5"/>
<text text-anchor="middle" x="334.5" y="-63.5" font-family="Helvetica,sans-Serif" font-size="10.00">nlohmann/json.hpp</text>
</a>
</g>
</g>
<!-- Node6&#45;&gt;Node7 -->
<g id="edge7" class="edge">
<title>Node6&#45;&gt;Node7</title>
<path fill="none" stroke="midnightblue" d="M353.7,-112.08C350.59,-104.77 346.08,-94.18 342.21,-85.1"/>
<polygon fill="midnightblue" stroke="midnightblue" points="345.37,-83.58 338.23,-75.75 338.93,-86.32 345.37,-83.58"/>
</g>
<!-- Node8 -->
<g id="node8" class="node">
<title>Node8</title>
<g id="a_node8"><a xlink:href="container__request_8hpp.html" target="_top" xlink:title="Data structure for representing a container operation request.">
<polygon fill="white" stroke="black" points="408,-56.5 408,-75.5 551,-75.5 551,-56.5 408,-56.5"/>
<text text-anchor="middle" x="479.5" y="-63.5" font-family="Helvetica,sans-Serif" font-size="10.00">inc/container_request.hpp</text>
</a>
</g>
</g>
<!-- Node6&#45;&gt;Node8 -->
<g id="edge8" class="edge">
<title>Node6&#45;&gt;Node8</title>
<path fill="none" stroke="midnightblue" d="M376.83,-112.44C396.82,-103.6 428.24,-89.69 451.06,-79.59"/>
<polygon fill="midnightblue" stroke="midnightblue" points="452.53,-82.76 460.26,-75.52 449.7,-76.36 452.53,-82.76"/>
</g>
<!-- Node8&#45;&gt;Node4 -->
<g id="edge9" class="edge">
<title>Node8&#45;&gt;Node4</title>
<path fill="none" stroke="midnightblue" d="M443.37,-56.44C399.39,-46.03 325.77,-28.59 283.66,-18.62"/>
<polygon fill="midnightblue" stroke="midnightblue" points="284.21,-15.15 273.67,-16.25 282.59,-21.96 284.21,-15.15"/>
</g>
</g>
</svg>
