<?xml version="1.0" encoding="UTF-8" standalone="no"?>
<!DOCTYPE svg PUBLIC "-//W3C//DTD SVG 1.1//EN"
 "http://www.w3.org/Graphics/SVG/1.1/DTD/svg11.dtd">
<!-- Generated by graphviz version 2.43.0 (0)
 -->
<!-- Title: api/src/mosquitto_mqtt_subscriber.cpp Pages: 1 -->
<!--zoomable 274 -->
<svg id="main" version="1.1" xmlns="http://www.w3.org/2000/svg" xmlns:xlink="http://www.w3.org/1999/xlink" xml:space="preserve" onload="init(evt)">
<style type="text/css"><![CDATA[
.edge:hover path { stroke: red; }
.edge:hover polygon { stroke: red; fill: red; }
]]></style>
<script type="text/javascript"><![CDATA[
var edges = document.getElementsByTagName('g');
if (edges && edges.length) {
  for (var i=0;i<edges.length;i++) {
    if (edges[i].id.substr(0,4)=='edge') {
      edges[i].setAttribute('class','edge');
    }
  }
}
]]></script>
        <defs>
                <circle id="rim" cx="0" cy="0" r="7"/>
                <circle id="rim2" cx="0" cy="0" r="3.5"/>
                <g id="zoomPlus">
                        <use xlink:href="#rim" fill="#404040">
                                <set attributeName="fill" to="#808080" begin="zoomplus.mouseover" end="zoomplus.mouseout"/>
                        </use>
                        <path d="M-4,0h8M0,-4v8" fill="none" stroke="white" stroke-width="1.5" pointer-events="none"/>
                </g>
                <g id="zoomMin">
                        <use xlink:href="#rim" fill="#404040">
                                <set attributeName="fill" to="#808080" begin="zoomminus.mouseover" end="zoomminus.mouseout"/>
                        </use>
                        <path d="M-4,0h8" fill="none" stroke="white" stroke-width="1.5" pointer-events="none"/>
                </g>
                <g id="dirArrow">
                        <path fill="none" stroke="white" stroke-width="1.5" d="M0,-3.0v7 M-2.5,-0.5L0,-3.0L2.5,-0.5"/>
                </g>
               <g id="resetDef">
                       <use xlink:href="#rim2" fill="#404040">
                               <set attributeName="fill" to="#808080" begin="reset.mouseover" end="reset.mouseout"/>
                       </use>
               </g>
        </defs>

<script type="text/javascript">
var viewWidth = 561;
var viewHeight = 274;
var sectionId = 'dynsection-0';
</script>
<script xlink:href="svgpan.js"/>
<svg id="graph" class="graph">
<g id="viewport">
<title>api/src/mosquitto_mqtt_subscriber.cpp</title>
<polygon fill="white" stroke="transparent" points="-4,4 -4,-270 556.5,-270 556.5,4 -4,4"/>
<!-- Node1 -->
<g id="node1" class="node">
<title>Node1</title>
<g id="a_node1"><a xlink:title="Implements the MosquittoMqttSubscriber class for handling MQTT messages using Mosquitto.">
<polygon fill="#bfbfbf" stroke="black" points="399.5,-235.5 399.5,-265.5 529.5,-265.5 529.5,-235.5 399.5,-235.5"/>
<text text-anchor="start" x="407.5" y="-253.5" font-family="Helvetica,sans-Serif" font-size="10.00">api/src/mosquitto_mqtt</text>
<text text-anchor="middle" x="464.5" y="-242.5" font-family="Helvetica,sans-Serif" font-size="10.00">_subscriber.cpp</text>
</a>
</g>
</g>
<!-- Node2 -->
<g id="node2" class="node">
<title>Node2</title>
<g id="a_node2"><a xlink:href="mosquitto__mqtt__subscriber_8hpp.html" target="_top" xlink:title="Declares the MosquittoMqttSubscriber class for handling MQTT messages using Mosquitto.">
<polygon fill="white" stroke="black" points="162.5,-168.5 162.5,-198.5 274.5,-198.5 274.5,-168.5 162.5,-168.5"/>
<text text-anchor="start" x="170.5" y="-186.5" font-family="Helvetica,sans-Serif" font-size="10.00">inc/mosquitto_mqtt</text>
<text text-anchor="middle" x="218.5" y="-175.5" font-family="Helvetica,sans-Serif" font-size="10.00">_subscriber.hpp</text>
</a>
</g>
</g>
<!-- Node1&#45;&gt;Node2 -->
<g id="edge1" class="edge">
<title>Node1&#45;&gt;Node2</title>
<path fill="none" stroke="midnightblue" d="M411.42,-235.48C373.32,-225.41 321.82,-211.8 281.61,-201.17"/>
<polygon fill="midnightblue" stroke="midnightblue" points="282.47,-197.78 271.9,-198.61 280.68,-204.55 282.47,-197.78"/>
</g>
<!-- Node8 -->
<g id="node8" class="node">
<title>Node8</title>
<g id="a_node8"><a xlink:title=" ">
<polygon fill="white" stroke="#bfbfbf" points="419.5,-56.5 419.5,-75.5 529.5,-75.5 529.5,-56.5 419.5,-56.5"/>
<text text-anchor="middle" x="474.5" y="-63.5" font-family="Helvetica,sans-Serif" font-size="10.00">nlohmann/json.hpp</text>
</a>
</g>
</g>
<!-- Node1&#45;&gt;Node8 -->
<g id="edge12" class="edge">
<title>Node1&#45;&gt;Node8</title>
<path fill="none" stroke="midnightblue" d="M465.27,-235.48C467.04,-203.1 471.43,-123.04 473.45,-86.16"/>
<polygon fill="midnightblue" stroke="midnightblue" points="476.96,-86 474.02,-75.82 469.97,-85.61 476.96,-86"/>
</g>
<!-- Node10 -->
<g id="node10" class="node">
<title>Node10</title>
<g id="a_node10"><a xlink:title=" ">
<polygon fill="white" stroke="#bfbfbf" points="492.5,-174 492.5,-193 552.5,-193 552.5,-174 492.5,-174"/>
<text text-anchor="middle" x="522.5" y="-181" font-family="Helvetica,sans-Serif" font-size="10.00">iostream</text>
</a>
</g>
</g>
<!-- Node1&#45;&gt;Node10 -->
<g id="edge11" class="edge">
<title>Node1&#45;&gt;Node10</title>
<path fill="none" stroke="midnightblue" d="M477.09,-235.4C486.13,-225.26 498.35,-211.57 507.83,-200.94"/>
<polygon fill="midnightblue" stroke="midnightblue" points="510.7,-202.99 514.74,-193.19 505.47,-198.33 510.7,-202.99"/>
</g>
<!-- Node3 -->
<g id="node3" class="node">
<title>Node3</title>
<g id="a_node3"><a xlink:title=" ">
<polygon fill="white" stroke="#bfbfbf" points="0,-112.5 0,-131.5 87,-131.5 87,-112.5 0,-112.5"/>
<text text-anchor="middle" x="43.5" y="-119.5" font-family="Helvetica,sans-Serif" font-size="10.00">mosquittopp.h</text>
</a>
</g>
</g>
<!-- Node2&#45;&gt;Node3 -->
<g id="edge2" class="edge">
<title>Node2&#45;&gt;Node3</title>
<path fill="none" stroke="midnightblue" d="M177.03,-168.4C146.92,-158.16 106.65,-144.47 78.23,-134.81"/>
<polygon fill="midnightblue" stroke="midnightblue" points="79.3,-131.48 68.71,-131.57 77.05,-138.1 79.3,-131.48"/>
</g>
<!-- Node4 -->
<g id="node4" class="node">
<title>Node4</title>
<g id="a_node4"><a xlink:title=" ">
<polygon fill="white" stroke="#bfbfbf" points="105.5,-112.5 105.5,-131.5 163.5,-131.5 163.5,-112.5 105.5,-112.5"/>
<text text-anchor="middle" x="134.5" y="-119.5" font-family="Helvetica,sans-Serif" font-size="10.00">memory</text>
</a>
</g>
</g>
<!-- Node2&#45;&gt;Node4 -->
<g id="edge3" class="edge">
<title>Node2&#45;&gt;Node4</title>
<path fill="none" stroke="midnightblue" d="M198.59,-168.4C185.51,-159.13 168.42,-147.03 155.18,-137.65"/>
<polygon fill="midnightblue" stroke="midnightblue" points="156.91,-134.58 146.72,-131.66 152.86,-140.29 156.91,-134.58"/>
</g>
<!-- Node5 -->
<g id="node5" class="node">
<title>Node5</title>
<g id="a_node5"><a xlink:title=" ">
<polygon fill="white" stroke="#bfbfbf" points="207.5,-0.5 207.5,-19.5 251.5,-19.5 251.5,-0.5 207.5,-0.5"/>
<text text-anchor="middle" x="229.5" y="-7.5" font-family="Helvetica,sans-Serif" font-size="10.00">string</text>
</a>
</g>
</g>
<!-- Node2&#45;&gt;Node5 -->
<g id="edge4" class="edge">
<title>Node2&#45;&gt;Node5</title>
<path fill="none" stroke="midnightblue" d="M215.66,-168.42C213.78,-158.33 211.48,-144.39 210.5,-132 207.62,-95.4 217.27,-53.13 223.85,-29.49"/>
<polygon fill="midnightblue" stroke="midnightblue" points="227.25,-30.33 226.69,-19.75 220.53,-28.37 227.25,-30.33"/>
</g>
<!-- Node6 -->
<g id="node6" class="node">
<title>Node6</title>
<g id="a_node6"><a xlink:title=" ">
<polygon fill="white" stroke="#bfbfbf" points="219.5,-112.5 219.5,-131.5 269.5,-131.5 269.5,-112.5 219.5,-112.5"/>
<text text-anchor="middle" x="244.5" y="-119.5" font-family="Helvetica,sans-Serif" font-size="10.00">atomic</text>
</a>
</g>
</g>
<!-- Node2&#45;&gt;Node6 -->
<g id="edge5" class="edge">
<title>Node2&#45;&gt;Node6</title>
<path fill="none" stroke="midnightblue" d="M224.66,-168.4C228.24,-160.2 232.8,-149.78 236.64,-140.99"/>
<polygon fill="midnightblue" stroke="midnightblue" points="239.92,-142.22 240.72,-131.66 233.51,-139.42 239.92,-142.22"/>
</g>
<!-- Node7 -->
<g id="node7" class="node">
<title>Node7</title>
<g id="a_node7"><a xlink:href="request__executor_8hpp.html" target="_top" xlink:title="Declares the abstract RequestExecutor interface for executing requests.">
<polygon fill="white" stroke="black" points="287.5,-112.5 287.5,-131.5 427.5,-131.5 427.5,-112.5 287.5,-112.5"/>
<text text-anchor="middle" x="357.5" y="-119.5" font-family="Helvetica,sans-Serif" font-size="10.00">inc/request_executor.hpp</text>
</a>
</g>
</g>
<!-- Node2&#45;&gt;Node7 -->
<g id="edge6" class="edge">
<title>Node2&#45;&gt;Node7</title>
<path fill="none" stroke="midnightblue" d="M251.44,-168.4C274.66,-158.46 305.49,-145.26 327.92,-135.66"/>
<polygon fill="midnightblue" stroke="midnightblue" points="329.46,-138.81 337.27,-131.66 326.7,-132.38 329.46,-138.81"/>
</g>
<!-- Node7&#45;&gt;Node5 -->
<g id="edge7" class="edge">
<title>Node7&#45;&gt;Node5</title>
<path fill="none" stroke="midnightblue" d="M313.71,-112.43C291.36,-105.94 265.4,-94.81 248.5,-76 237.09,-63.3 232.51,-44.1 230.69,-29.86"/>
<polygon fill="midnightblue" stroke="midnightblue" points="234.15,-29.34 229.73,-19.71 227.18,-30 234.15,-29.34"/>
</g>
<!-- Node7&#45;&gt;Node8 -->
<g id="edge8" class="edge">
<title>Node7&#45;&gt;Node8</title>
<path fill="none" stroke="midnightblue" d="M376.04,-112.44C395.12,-103.64 425.07,-89.81 446.94,-79.72"/>
<polygon fill="midnightblue" stroke="midnightblue" points="448.43,-82.88 456.05,-75.52 445.5,-76.53 448.43,-82.88"/>
</g>
<!-- Node9 -->
<g id="node9" class="node">
<title>Node9</title>
<g id="a_node9"><a xlink:href="container__request_8hpp.html" target="_top" xlink:title="Data structure for representing a container operation request.">
<polygon fill="white" stroke="black" points="258,-56.5 258,-75.5 401,-75.5 401,-56.5 258,-56.5"/>
<text text-anchor="middle" x="329.5" y="-63.5" font-family="Helvetica,sans-Serif" font-size="10.00">inc/container_request.hpp</text>
</a>
</g>
</g>
<!-- Node7&#45;&gt;Node9 -->
<g id="edge9" class="edge">
<title>Node7&#45;&gt;Node9</title>
<path fill="none" stroke="midnightblue" d="M352.88,-112.08C349.04,-104.69 343.48,-93.95 338.74,-84.81"/>
<polygon fill="midnightblue" stroke="midnightblue" points="341.75,-83.02 334.04,-75.75 335.53,-86.24 341.75,-83.02"/>
</g>
<!-- Node9&#45;&gt;Node5 -->
<g id="edge10" class="edge">
<title>Node9&#45;&gt;Node5</title>
<path fill="none" stroke="midnightblue" d="M313.43,-56.32C297.54,-47.74 272.99,-34.49 254.54,-24.52"/>
<polygon fill="midnightblue" stroke="midnightblue" points="255.99,-21.33 245.53,-19.65 252.66,-27.49 255.99,-21.33"/>
</g>
</g>
</svg>
        <g id="navigator" transform="translate(0 0)" fill="#404254">
                <rect fill="#f2f5e9" fill-opacity="0.5" stroke="#606060" stroke-width=".5" x="0" y="0" width="60" height="60"/>
                <use id="zoomplus" xlink:href="#zoomPlus" x="17" y="9" onmousedown="handleZoom(evt,'in')"/>
                <use id="zoomminus" xlink:href="#zoomMin" x="42" y="9" onmousedown="handleZoom(evt,'out')"/>
                <use id="reset" xlink:href="#resetDef" x="30" y="36" onmousedown="handleReset()"/>
                <g id="arrowUp" xlink:href="#dirArrow" transform="translate(30 24)" onmousedown="handlePan(0,-1)">
                  <use xlink:href="#rim" fill="#404040">
                        <set attributeName="fill" to="#808080" begin="arrowUp.mouseover" end="arrowUp.mouseout"/>
                  </use>
                  <path fill="none" stroke="white" stroke-width="1.5" d="M0,-3.0v7 M-2.5,-0.5L0,-3.0L2.5,-0.5"/>
                </g>
                <g id="arrowRight" xlink:href="#dirArrow" transform="rotate(90) translate(36 -43)" onmousedown="handlePan(1,0)">
                  <use xlink:href="#rim" fill="#404040">
                        <set attributeName="fill" to="#808080" begin="arrowRight.mouseover" end="arrowRight.mouseout"/>
                  </use>
                  <path fill="none" stroke="white" stroke-width="1.5" d="M0,-3.0v7 M-2.5,-0.5L0,-3.0L2.5,-0.5"/>
                </g>
                <g id="arrowDown" xlink:href="#dirArrow" transform="rotate(180) translate(-30 -48)" onmousedown="handlePan(0,1)">
                  <use xlink:href="#rim" fill="#404040">
                        <set attributeName="fill" to="#808080" begin="arrowDown.mouseover" end="arrowDown.mouseout"/>
                  </use>
                  <path fill="none" stroke="white" stroke-width="1.5" d="M0,-3.0v7 M-2.5,-0.5L0,-3.0L2.5,-0.5"/>
                </g>
                <g id="arrowLeft" xlink:href="#dirArrow" transform="rotate(270) translate(-36 17)" onmousedown="handlePan(-1,0)">
                  <use xlink:href="#rim" fill="#404040">
                        <set attributeName="fill" to="#808080" begin="arrowLeft.mouseover" end="arrowLeft.mouseout"/>
                  </use>
                  <path fill="none" stroke="white" stroke-width="1.5" d="M0,-3.0v7 M-2.5,-0.5L0,-3.0L2.5,-0.5"/>
                </g>
        </g>
        <svg viewBox="0 0 15 15" width="100%" height="30px" preserveAspectRatio="xMaxYMin meet">
         <g id="arrow_out" transform="scale(0.3 0.3)">
          <a xlink:href="mosquitto__mqtt__subscriber_8cpp__incl_org.svg" target="_base">
           <rect id="button" ry="5" rx="5" y="6" x="6" height="38" width="38"
                fill="#f2f5e9" fill-opacity="0.5" stroke="#606060" stroke-width="1.0"/>
           <path id="arrow"
             d="M 11.500037,31.436501 C 11.940474,20.09759 22.043105,11.32322 32.158766,21.979434 L 37.068811,17.246167 C 37.068811,17.246167 37.088388,32 37.088388,32 L 22.160133,31.978069 C 22.160133,31.978069 26.997745,27.140456 26.997745,27.140456 C 18.528582,18.264221 13.291696,25.230495 11.500037,31.436501 z"
             style="fill:#404040;"/>
          </a>
         </g>
        </svg>
</svg>
