<?xml version="1.0" encoding="UTF-8" standalone="no"?>
<!DOCTYPE svg PUBLIC "-//W3C//DTD SVG 1.1//EN"
 "http://www.w3.org/Graphics/SVG/1.1/DTD/svg11.dtd">
<!-- Generated by graphviz version 2.43.0 (0)
 -->
<!-- Title: api/inc/mosquitto_mqtt_subscriber.hpp Pages: 1 -->
<svg width="537pt" height="207pt"
 viewBox="0.00 0.00 537.00 207.00" xmlns="http://www.w3.org/2000/svg" xmlns:xlink="http://www.w3.org/1999/xlink">
<g id="graph0" class="graph" transform="scale(1 1) rotate(0) translate(4 203)">
<title>api/inc/mosquitto_mqtt_subscriber.hpp</title>
<polygon fill="white" stroke="transparent" points="-4,4 -4,-203 533,-203 533,4 -4,4"/>
<!-- Node1 -->
<g id="node1" class="node">
<title>Node1</title>
<g id="a_node1"><a xlink:title="Declares the MosquittoMqttSubscriber class for handling MQTT messages using Mosquitto.">
<polygon fill="#bfbfbf" stroke="black" points="97.5,-168.5 97.5,-198.5 227.5,-198.5 227.5,-168.5 97.5,-168.5"/>
<text text-anchor="start" x="105.5" y="-186.5" font-family="Helvetica,sans-Serif" font-size="10.00">api/inc/mosquitto_mqtt</text>
<text text-anchor="middle" x="162.5" y="-175.5" font-family="Helvetica,sans-Serif" font-size="10.00">_subscriber.hpp</text>
</a>
</g>
</g>
<!-- Node2 -->
<g id="node2" class="node">
<title>Node2</title>
<g id="a_node2"><a xlink:title=" ">
<polygon fill="white" stroke="#bfbfbf" points="0,-112.5 0,-131.5 87,-131.5 87,-112.5 0,-112.5"/>
<text text-anchor="middle" x="43.5" y="-119.5" font-family="Helvetica,sans-Serif" font-size="10.00">mosquittopp.h</text>
</a>
</g>
</g>
<!-- Node1&#45;&gt;Node2 -->
<g id="edge1" class="edge">
<title>Node1&#45;&gt;Node2</title>
<path fill="none" stroke="midnightblue" d="M134.3,-168.4C114.78,-158.64 88.97,-145.74 69.87,-136.18"/>
<polygon fill="midnightblue" stroke="midnightblue" points="71.33,-133 60.82,-131.66 68.19,-139.26 71.33,-133"/>
</g>
<!-- Node3 -->
<g id="node3" class="node">
<title>Node3</title>
<g id="a_node3"><a xlink:title=" ">
<polygon fill="white" stroke="#bfbfbf" points="105.5,-112.5 105.5,-131.5 163.5,-131.5 163.5,-112.5 105.5,-112.5"/>
<text text-anchor="middle" x="134.5" y="-119.5" font-family="Helvetica,sans-Serif" font-size="10.00">memory</text>
</a>
</g>
</g>
<!-- Node1&#45;&gt;Node3 -->
<g id="edge2" class="edge">
<title>Node1&#45;&gt;Node3</title>
<path fill="none" stroke="midnightblue" d="M155.86,-168.4C151.96,-160.11 147,-149.55 142.83,-140.71"/>
<polygon fill="midnightblue" stroke="midnightblue" points="146,-139.22 138.57,-131.66 139.67,-142.2 146,-139.22"/>
</g>
<!-- Node4 -->
<g id="node4" class="node">
<title>Node4</title>
<g id="a_node4"><a xlink:title=" ">
<polygon fill="white" stroke="#bfbfbf" points="207.5,-0.5 207.5,-19.5 251.5,-19.5 251.5,-0.5 207.5,-0.5"/>
<text text-anchor="middle" x="229.5" y="-7.5" font-family="Helvetica,sans-Serif" font-size="10.00">string</text>
</a>
</g>
</g>
<!-- Node1&#45;&gt;Node4 -->
<g id="edge3" class="edge">
<title>Node1&#45;&gt;Node4</title>
<path fill="none" stroke="midnightblue" d="M167.98,-168.47C180.05,-137.57 208.92,-63.69 222.37,-29.25"/>
<polygon fill="midnightblue" stroke="midnightblue" points="225.78,-30.15 226.16,-19.56 219.26,-27.6 225.78,-30.15"/>
</g>
<!-- Node5 -->
<g id="node5" class="node">
<title>Node5</title>
<g id="a_node5"><a xlink:href="request__executor_8hpp.html" target="_top" xlink:title="Declares the abstract RequestExecutor interface for executing requests.">
<polygon fill="white" stroke="black" points="230.5,-112.5 230.5,-131.5 370.5,-131.5 370.5,-112.5 230.5,-112.5"/>
<text text-anchor="middle" x="300.5" y="-119.5" font-family="Helvetica,sans-Serif" font-size="10.00">inc/request_executor.hpp</text>
</a>
</g>
</g>
<!-- Node1&#45;&gt;Node5 -->
<g id="edge4" class="edge">
<title>Node1&#45;&gt;Node5</title>
<path fill="none" stroke="midnightblue" d="M195.2,-168.4C218.25,-158.46 248.86,-145.26 271.13,-135.66"/>
<polygon fill="midnightblue" stroke="midnightblue" points="272.62,-138.83 280.42,-131.66 269.85,-132.4 272.62,-138.83"/>
</g>
<!-- Node5&#45;&gt;Node4 -->
<g id="edge5" class="edge">
<title>Node5&#45;&gt;Node4</title>
<path fill="none" stroke="midnightblue" d="M286.58,-112.31C274.8,-104.27 258.31,-91.27 248.5,-76 239.47,-61.93 234.61,-43.44 232.07,-29.78"/>
<polygon fill="midnightblue" stroke="midnightblue" points="235.48,-28.96 230.45,-19.64 228.57,-30.07 235.48,-28.96"/>
</g>
<!-- Node6 -->
<g id="node6" class="node">
<title>Node6</title>
<g id="a_node6"><a xlink:title=" ">
<polygon fill="white" stroke="#bfbfbf" points="257.5,-56.5 257.5,-75.5 367.5,-75.5 367.5,-56.5 257.5,-56.5"/>
<text text-anchor="middle" x="312.5" y="-63.5" font-family="Helvetica,sans-Serif" font-size="10.00">nlohmann/json.hpp</text>
</a>
</g>
</g>
<!-- Node5&#45;&gt;Node6 -->
<g id="edge6" class="edge">
<title>Node5&#45;&gt;Node6</title>
<path fill="none" stroke="midnightblue" d="M302.48,-112.08C304.07,-104.93 306.36,-94.64 308.35,-85.69"/>
<polygon fill="midnightblue" stroke="midnightblue" points="311.8,-86.27 310.56,-75.75 304.97,-84.75 311.8,-86.27"/>
</g>
<!-- Node7 -->
<g id="node7" class="node">
<title>Node7</title>
<g id="a_node7"><a xlink:href="container__request_8hpp.html" target="_top" xlink:title="Data structure for representing a container operation request.">
<polygon fill="white" stroke="black" points="386,-56.5 386,-75.5 529,-75.5 529,-56.5 386,-56.5"/>
<text text-anchor="middle" x="457.5" y="-63.5" font-family="Helvetica,sans-Serif" font-size="10.00">inc/container_request.hpp</text>
</a>
</g>
</g>
<!-- Node5&#45;&gt;Node7 -->
<g id="edge7" class="edge">
<title>Node5&#45;&gt;Node7</title>
<path fill="none" stroke="midnightblue" d="M325.38,-112.44C351.79,-103.36 393.72,-88.94 423.24,-78.78"/>
<polygon fill="midnightblue" stroke="midnightblue" points="424.42,-82.08 432.74,-75.52 422.14,-75.46 424.42,-82.08"/>
</g>
<!-- Node7&#45;&gt;Node4 -->
<g id="edge8" class="edge">
<title>Node7&#45;&gt;Node4</title>
<path fill="none" stroke="midnightblue" d="M421.37,-56.44C377.39,-46.03 303.77,-28.59 261.66,-18.62"/>
<polygon fill="midnightblue" stroke="midnightblue" points="262.21,-15.15 251.67,-16.25 260.59,-21.96 262.21,-15.15"/>
</g>
</g>
</svg>
