<?xml version="1.0" encoding="UTF-8" standalone="no"?>
<!DOCTYPE svg PUBLIC "-//W3C//DTD SVG 1.1//EN"
 "http://www.w3.org/Graphics/SVG/1.1/DTD/svg11.dtd">
<!-- Generated by graphviz version 2.43.0 (0)
 -->
<!-- Title: api/inc/mosquitto_mqtt_subscriber.hpp Pages: 1 -->
<svg width="218pt" height="106pt"
 viewBox="0.00 0.00 218.00 106.00" xmlns="http://www.w3.org/2000/svg" xmlns:xlink="http://www.w3.org/1999/xlink">
<g id="graph0" class="graph" transform="scale(1 1) rotate(0) translate(4 102)">
<title>api/inc/mosquitto_mqtt_subscriber.hpp</title>
<polygon fill="white" stroke="transparent" points="-4,4 -4,-102 214,-102 214,4 -4,4"/>
<!-- Node1 -->
<g id="node1" class="node">
<title>Node1</title>
<g id="a_node1"><a xlink:title="Declares the MosquittoMqttSubscriber class for handling MQTT messages using Mosquitto.">
<polygon fill="#bfbfbf" stroke="black" points="57,-67.5 57,-97.5 187,-97.5 187,-67.5 57,-67.5"/>
<text text-anchor="start" x="65" y="-85.5" font-family="Helvetica,sans-Serif" font-size="10.00">api/inc/mosquitto_mqtt</text>
<text text-anchor="middle" x="122" y="-74.5" font-family="Helvetica,sans-Serif" font-size="10.00">_subscriber.hpp</text>
</a>
</g>
</g>
<!-- Node2 -->
<g id="node2" class="node">
<title>Node2</title>
<g id="a_node2"><a xlink:href="mosquitto__mqtt__subscriber_8cpp.html" target="_top" xlink:title="Implements the MosquittoMqttSubscriber class for handling MQTT messages using Mosquitto.">
<polygon fill="white" stroke="black" points="0,-0.5 0,-30.5 130,-30.5 130,-0.5 0,-0.5"/>
<text text-anchor="start" x="8" y="-18.5" font-family="Helvetica,sans-Serif" font-size="10.00">api/src/mosquitto_mqtt</text>
<text text-anchor="middle" x="65" y="-7.5" font-family="Helvetica,sans-Serif" font-size="10.00">_subscriber.cpp</text>
</a>
</g>
</g>
<!-- Node1&#45;&gt;Node2 -->
<g id="edge1" class="edge">
<title>Node1&#45;&gt;Node2</title>
<path fill="none" stroke="midnightblue" d="M102.91,-59.74C94.48,-50.12 84.81,-39.09 77.34,-30.58"/>
<polygon fill="midnightblue" stroke="midnightblue" points="100.41,-62.18 109.63,-67.4 105.67,-57.57 100.41,-62.18"/>
</g>
<!-- Node3 -->
<g id="node3" class="node">
<title>Node3</title>
<g id="a_node3"><a xlink:href="main_8cpp.html" target="_top" xlink:title="Entry point for the Container Manager application.">
<polygon fill="white" stroke="black" points="148,-6 148,-25 210,-25 210,-6 148,-6"/>
<text text-anchor="middle" x="179" y="-13" font-family="Helvetica,sans-Serif" font-size="10.00">main.cpp</text>
</a>
</g>
</g>
<!-- Node1&#45;&gt;Node3 -->
<g id="edge2" class="edge">
<title>Node1&#45;&gt;Node3</title>
<path fill="none" stroke="midnightblue" d="M141.15,-59.66C151.5,-47.86 163.68,-33.97 171.38,-25.19"/>
<polygon fill="midnightblue" stroke="midnightblue" points="138.33,-57.57 134.37,-67.4 143.59,-62.18 138.33,-57.57"/>
</g>
</g>
</svg>
