<?xml version="1.0" encoding="UTF-8" standalone="no"?>
<!DOCTYPE svg PUBLIC "-//W3C//DTD SVG 1.1//EN"
 "http://www.w3.org/Graphics/SVG/1.1/DTD/svg11.dtd">
<!-- Generated by graphviz version 2.43.0 (0)
 -->
<!-- Title: protobuf_container_5fmanager_2eproto::protobuf_AssignDescriptorsOnce Pages: 1 -->
<svg width="904pt" height="182pt"
 viewBox="0.00 0.00 904.00 181.50" xmlns="http://www.w3.org/2000/svg" xmlns:xlink="http://www.w3.org/1999/xlink">
<g id="graph0" class="graph" transform="scale(1 1) rotate(0) translate(4 177.5)">
<title>protobuf_container_5fmanager_2eproto::protobuf_AssignDescriptorsOnce</title>
<polygon fill="white" stroke="transparent" points="-4,4 -4,-177.5 900,-177.5 900,4 -4,4"/>
<!-- Node1 -->
<g id="node1" class="node">
<title>Node1</title>
<g id="a_node1"><a xlink:title=" ">
<polygon fill="#bfbfbf" stroke="black" points="0,-29.5 0,-70.5 176,-70.5 176,-29.5 0,-29.5"/>
<text text-anchor="start" x="8" y="-58.5" font-family="Helvetica,sans-Serif" font-size="10.00">protobuf_container</text>
<text text-anchor="start" x="8" y="-47.5" font-family="Helvetica,sans-Serif" font-size="10.00">_5fmanager_2eproto::</text>
<text text-anchor="middle" x="88" y="-36.5" font-family="Helvetica,sans-Serif" font-size="10.00">protobuf_AssignDescriptorsOnce</text>
</a>
</g>
</g>
<!-- Node2 -->
<g id="node2" class="node">
<title>Node2</title>
<g id="a_node2"><a xlink:href="namespaceprotobuf__container__5fmanager__2eproto.html#a0ee348abc5f8f24a77a8606492ccac72" target="_top" xlink:title=" ">
<polygon fill="white" stroke="black" points="212,-54.5 212,-95.5 363,-95.5 363,-54.5 212,-54.5"/>
<text text-anchor="start" x="220" y="-83.5" font-family="Helvetica,sans-Serif" font-size="10.00">protobuf_container</text>
<text text-anchor="start" x="220" y="-72.5" font-family="Helvetica,sans-Serif" font-size="10.00">_5fmanager_2eproto::</text>
<text text-anchor="middle" x="287.5" y="-61.5" font-family="Helvetica,sans-Serif" font-size="10.00">protobuf_AssignDescriptors</text>
</a>
</g>
</g>
<!-- Node1&#45;&gt;Node2 -->
<g id="edge1" class="edge">
<title>Node1&#45;&gt;Node2</title>
<path fill="none" stroke="midnightblue" d="M176.2,-61.04C184.65,-62.11 193.21,-63.19 201.64,-64.26"/>
<polygon fill="midnightblue" stroke="midnightblue" points="201.47,-67.76 211.83,-65.55 202.35,-60.82 201.47,-67.76"/>
</g>
<!-- Node3 -->
<g id="node3" class="node">
<title>Node3</title>
<g id="a_node3"><a xlink:href="namespaceprotobuf__container__5fmanager__2eproto.html#aa46eb85aa98c9a7df47e2ae1eb3c4730" target="_top" xlink:title=" ">
<polygon fill="white" stroke="black" points="399,-55.5 399,-96.5 523,-96.5 523,-55.5 399,-55.5"/>
<text text-anchor="start" x="407" y="-84.5" font-family="Helvetica,sans-Serif" font-size="10.00">protobuf_container</text>
<text text-anchor="start" x="407" y="-73.5" font-family="Helvetica,sans-Serif" font-size="10.00">_5fmanager_2eproto::</text>
<text text-anchor="middle" x="461" y="-62.5" font-family="Helvetica,sans-Serif" font-size="10.00">AddDescriptors</text>
</a>
</g>
</g>
<!-- Node2&#45;&gt;Node3 -->
<g id="edge2" class="edge">
<title>Node2&#45;&gt;Node3</title>
<path fill="none" stroke="midnightblue" d="M363.22,-75.44C371.69,-75.49 380.31,-75.54 388.74,-75.58"/>
<polygon fill="midnightblue" stroke="midnightblue" points="388.87,-79.09 398.89,-75.64 388.91,-72.09 388.87,-79.09"/>
</g>
<!-- Node4 -->
<g id="node4" class="node">
<title>Node4</title>
<g id="a_node4"><a xlink:href="namespaceprotobuf__container__5fmanager__2eproto.html#a1fdf8c59b31bd00c1839ab68bd8994a7" target="_top" xlink:title=" ">
<polygon fill="white" stroke="black" points="559,-57.5 559,-98.5 683,-98.5 683,-57.5 559,-57.5"/>
<text text-anchor="start" x="567" y="-86.5" font-family="Helvetica,sans-Serif" font-size="10.00">protobuf_container</text>
<text text-anchor="start" x="567" y="-75.5" font-family="Helvetica,sans-Serif" font-size="10.00">_5fmanager_2eproto::</text>
<text text-anchor="middle" x="621" y="-64.5" font-family="Helvetica,sans-Serif" font-size="10.00">AddDescriptorsImpl</text>
</a>
</g>
</g>
<!-- Node3&#45;&gt;Node4 -->
<g id="edge3" class="edge">
<title>Node3&#45;&gt;Node4</title>
<path fill="none" stroke="midnightblue" d="M523.09,-76.77C531.51,-76.88 540.23,-76.99 548.81,-77.1"/>
<polygon fill="midnightblue" stroke="midnightblue" points="548.77,-80.6 558.82,-77.23 548.86,-73.6 548.77,-80.6"/>
</g>
<!-- Node5 -->
<g id="node5" class="node">
<title>Node5</title>
<g id="a_node5"><a xlink:href="namespaceprotobuf__container__5fmanager__2eproto.html#aacd277bc73f14bedf6baff131999e32a" target="_top" xlink:title=" ">
<polygon fill="white" stroke="black" points="719,-121 719,-173 896,-173 896,-121 719,-121"/>
<text text-anchor="start" x="727" y="-161" font-family="Helvetica,sans-Serif" font-size="10.00">protobuf_container</text>
<text text-anchor="start" x="727" y="-150" font-family="Helvetica,sans-Serif" font-size="10.00">_5fmanager_2eproto::</text>
<text text-anchor="start" x="727" y="-139" font-family="Helvetica,sans-Serif" font-size="10.00">GOOGLE_PROTOBUF_ATTRIBUTE</text>
<text text-anchor="middle" x="807.5" y="-128" font-family="Helvetica,sans-Serif" font-size="10.00">_SECTION_VARIABLE</text>
</a>
</g>
</g>
<!-- Node4&#45;&gt;Node5 -->
<g id="edge4" class="edge">
<title>Node4&#45;&gt;Node5</title>
<path fill="none" stroke="midnightblue" d="M676.86,-98.52C692.72,-104.45 710.36,-111.05 727.39,-117.41"/>
<polygon fill="midnightblue" stroke="midnightblue" points="726.18,-120.7 736.77,-120.92 728.63,-114.14 726.18,-120.7"/>
</g>
<!-- Node6 -->
<g id="node6" class="node">
<title>Node6</title>
<g id="a_node6"><a xlink:href="namespaceprotobuf__container__5fmanager__2eproto.html#a9046149bfa99ddca358e06cdd5040987" target="_top" xlink:title=" ">
<polygon fill="white" stroke="black" points="745.5,-60.5 745.5,-101.5 869.5,-101.5 869.5,-60.5 745.5,-60.5"/>
<text text-anchor="start" x="753.5" y="-89.5" font-family="Helvetica,sans-Serif" font-size="10.00">protobuf_container</text>
<text text-anchor="start" x="753.5" y="-78.5" font-family="Helvetica,sans-Serif" font-size="10.00">_5fmanager_2eproto::</text>
<text text-anchor="middle" x="807.5" y="-67.5" font-family="Helvetica,sans-Serif" font-size="10.00">InitDefaults</text>
</a>
</g>
</g>
<!-- Node4&#45;&gt;Node6 -->
<g id="edge5" class="edge">
<title>Node4&#45;&gt;Node6</title>
<path fill="none" stroke="midnightblue" d="M683.18,-78.99C699.93,-79.27 718.22,-79.56 735.47,-79.85"/>
<polygon fill="midnightblue" stroke="midnightblue" points="735.43,-83.34 745.49,-80.01 735.54,-76.35 735.43,-83.34"/>
</g>
<!-- Node7 -->
<g id="node7" class="node">
<title>Node7</title>
<g id="a_node7"><a xlink:href="namespaceprotobuf__container__5fmanager__2eproto.html#a43d9c82ec9dc3a58cbb8eae25c7aed5f" target="_top" xlink:title=" ">
<polygon fill="white" stroke="black" points="742,-0.5 742,-41.5 873,-41.5 873,-0.5 742,-0.5"/>
<text text-anchor="start" x="750" y="-29.5" font-family="Helvetica,sans-Serif" font-size="10.00">protobuf_container</text>
<text text-anchor="start" x="750" y="-18.5" font-family="Helvetica,sans-Serif" font-size="10.00">_5fmanager_2eproto::</text>
<text text-anchor="middle" x="807.5" y="-7.5" font-family="Helvetica,sans-Serif" font-size="10.00">protobuf_RegisterTypes</text>
</a>
</g>
</g>
<!-- Node4&#45;&gt;Node7 -->
<g id="edge6" class="edge">
<title>Node4&#45;&gt;Node7</title>
<path fill="none" stroke="midnightblue" d="M683.18,-59.1C698.73,-54.3 715.61,-49.08 731.75,-44.09"/>
<polygon fill="midnightblue" stroke="midnightblue" points="733.17,-47.32 741.69,-41.02 731.1,-40.63 733.17,-47.32"/>
</g>
<!-- Node7&#45;&gt;Node1 -->
<g id="edge7" class="edge">
<title>Node7&#45;&gt;Node1</title>
<path fill="none" stroke="midnightblue" d="M741.84,-23.6C632.65,-28 404.75,-37.19 212,-45 203.64,-45.34 194.95,-45.69 186.24,-46.04"/>
<polygon fill="midnightblue" stroke="midnightblue" points="185.87,-42.56 176.02,-46.46 186.15,-49.55 185.87,-42.56"/>
</g>
</g>
</svg>
