<?xml version="1.0" encoding="UTF-8" standalone="no"?>
<!DOCTYPE svg PUBLIC "-//W3C//DTD SVG 1.1//EN"
 "http://www.w3.org/Graphics/SVG/1.1/DTD/svg11.dtd">
<!-- Generated by graphviz version 2.43.0 (0)
 -->
<!-- Title: protobuf_container_5fmanager_2eproto::protobuf_AssignDescriptors Pages: 1 -->
<svg width="1068pt" height="277pt"
 viewBox="0.00 0.00 1068.00 277.00" xmlns="http://www.w3.org/2000/svg" xmlns:xlink="http://www.w3.org/1999/xlink">
<g id="graph0" class="graph" transform="scale(1 1) rotate(0) translate(4 273)">
<title>protobuf_container_5fmanager_2eproto::protobuf_AssignDescriptors</title>
<polygon fill="white" stroke="transparent" points="-4,4 -4,-273 1064,-273 1064,4 -4,4"/>
<!-- Node1 -->
<g id="node1" class="node">
<title>Node1</title>
<g id="a_node1"><a xlink:title=" ">
<polygon fill="#bfbfbf" stroke="black" points="909,-34 909,-75 1060,-75 1060,-34 909,-34"/>
<text text-anchor="start" x="917" y="-63" font-family="Helvetica,sans-Serif" font-size="10.00">protobuf_container</text>
<text text-anchor="start" x="917" y="-52" font-family="Helvetica,sans-Serif" font-size="10.00">_5fmanager_2eproto::</text>
<text text-anchor="middle" x="984.5" y="-41" font-family="Helvetica,sans-Serif" font-size="10.00">protobuf_AssignDescriptors</text>
</a>
</g>
</g>
<!-- Node2 -->
<g id="node2" class="node">
<title>Node2</title>
<g id="a_node2"><a xlink:href="namespaceprotobuf__container__5fmanager__2eproto.html#ab04c51c0072a4e45767b6a95c90b5b75" target="_top" xlink:title=" ">
<polygon fill="white" stroke="black" points="697,-110 697,-151 873,-151 873,-110 697,-110"/>
<text text-anchor="start" x="705" y="-139" font-family="Helvetica,sans-Serif" font-size="10.00">protobuf_container</text>
<text text-anchor="start" x="705" y="-128" font-family="Helvetica,sans-Serif" font-size="10.00">_5fmanager_2eproto::</text>
<text text-anchor="middle" x="785" y="-117" font-family="Helvetica,sans-Serif" font-size="10.00">protobuf_AssignDescriptorsOnce</text>
</a>
</g>
</g>
<!-- Node1&#45;&gt;Node2 -->
<g id="edge1" class="edge">
<title>Node1&#45;&gt;Node2</title>
<path fill="none" stroke="midnightblue" d="M920.62,-78.7C894.51,-88.74 864.52,-100.28 839.49,-109.92"/>
<polygon fill="midnightblue" stroke="midnightblue" points="921.98,-81.92 930.05,-75.07 919.46,-75.39 921.98,-81.92"/>
</g>
<!-- Node3 -->
<g id="node3" class="node">
<title>Node3</title>
<g id="a_node3"><a xlink:href="classcontainermanager_1_1ContainerParameters.html#a29590b6735a1f6df1fcb37f9496ce2f7" target="_top" xlink:title=" ">
<polygon fill="white" stroke="black" points="502,-238.5 502,-268.5 661,-268.5 661,-238.5 502,-238.5"/>
<text text-anchor="start" x="510" y="-256.5" font-family="Helvetica,sans-Serif" font-size="10.00">containermanager::Container</text>
<text text-anchor="middle" x="581.5" y="-245.5" font-family="Helvetica,sans-Serif" font-size="10.00">Parameters::descriptor</text>
</a>
</g>
</g>
<!-- Node2&#45;&gt;Node3 -->
<g id="edge2" class="edge">
<title>Node2&#45;&gt;Node3</title>
<path fill="none" stroke="midnightblue" d="M756.05,-158.24C732.47,-180.29 696.91,-210.48 661,-229.5 654.7,-232.84 647.87,-235.78 640.95,-238.37"/>
<polygon fill="midnightblue" stroke="midnightblue" points="758.73,-160.53 763.57,-151.11 753.91,-155.45 758.73,-160.53"/>
</g>
<!-- Node4 -->
<g id="node4" class="node">
<title>Node4</title>
<g id="a_node4"><a xlink:href="classcontainermanager_1_1ContainerRequest.html#ad421f0c7a4f285c1d10b8f12a07829fd" target="_top" xlink:title=" ">
<polygon fill="white" stroke="black" points="502,-189.5 502,-219.5 661,-219.5 661,-189.5 502,-189.5"/>
<text text-anchor="start" x="510" y="-207.5" font-family="Helvetica,sans-Serif" font-size="10.00">containermanager::Container</text>
<text text-anchor="middle" x="581.5" y="-196.5" font-family="Helvetica,sans-Serif" font-size="10.00">Request::descriptor</text>
</a>
</g>
</g>
<!-- Node2&#45;&gt;Node4 -->
<g id="edge3" class="edge">
<title>Node2&#45;&gt;Node4</title>
<path fill="none" stroke="midnightblue" d="M726.94,-154.93C706.32,-163.43 682.76,-172.77 661,-180.5 652.41,-183.55 643.2,-186.58 634.23,-189.4"/>
<polygon fill="midnightblue" stroke="midnightblue" points="728.29,-158.16 736.19,-151.1 725.61,-151.69 728.29,-158.16"/>
</g>
<!-- Node5 -->
<g id="node5" class="node">
<title>Node5</title>
<g id="a_node5"><a xlink:href="classcontainermanager_1_1ContainerParameters.html#ab92d4d1f1a07768698521d2a69b5433c" target="_top" xlink:title=" ">
<polygon fill="white" stroke="black" points="502,-140.5 502,-170.5 661,-170.5 661,-140.5 502,-140.5"/>
<text text-anchor="start" x="510" y="-158.5" font-family="Helvetica,sans-Serif" font-size="10.00">containermanager::Container</text>
<text text-anchor="middle" x="581.5" y="-147.5" font-family="Helvetica,sans-Serif" font-size="10.00">Parameters::GetMetadata</text>
</a>
</g>
</g>
<!-- Node2&#45;&gt;Node5 -->
<g id="edge4" class="edge">
<title>Node2&#45;&gt;Node5</title>
<path fill="none" stroke="midnightblue" d="M686.78,-142.56C678.23,-143.62 669.65,-144.69 661.28,-145.73"/>
<polygon fill="midnightblue" stroke="midnightblue" points="687.3,-146.02 696.79,-141.32 686.44,-139.08 687.3,-146.02"/>
</g>
<!-- Node6 -->
<g id="node6" class="node">
<title>Node6</title>
<g id="a_node6"><a xlink:href="classcontainermanager_1_1ContainerRequest.html#ad8b3c1cc0d32bd4a2bbaaa475045754f" target="_top" xlink:title=" ">
<polygon fill="white" stroke="black" points="502,-91.5 502,-121.5 661,-121.5 661,-91.5 502,-91.5"/>
<text text-anchor="start" x="510" y="-109.5" font-family="Helvetica,sans-Serif" font-size="10.00">containermanager::Container</text>
<text text-anchor="middle" x="581.5" y="-98.5" font-family="Helvetica,sans-Serif" font-size="10.00">Request::GetMetadata</text>
</a>
</g>
</g>
<!-- Node2&#45;&gt;Node6 -->
<g id="edge5" class="edge">
<title>Node2&#45;&gt;Node6</title>
<path fill="none" stroke="midnightblue" d="M686.78,-118.92C678.23,-117.9 669.65,-116.88 661.28,-115.88"/>
<polygon fill="midnightblue" stroke="midnightblue" points="686.45,-122.41 696.79,-120.11 687.28,-115.45 686.45,-122.41"/>
</g>
<!-- Node7 -->
<g id="node7" class="node">
<title>Node7</title>
<g id="a_node7"><a xlink:href="namespaceprotobuf__container__5fmanager__2eproto.html#a43d9c82ec9dc3a58cbb8eae25c7aed5f" target="_top" xlink:title=" ">
<polygon fill="white" stroke="black" points="516,-31 516,-72 647,-72 647,-31 516,-31"/>
<text text-anchor="start" x="524" y="-60" font-family="Helvetica,sans-Serif" font-size="10.00">protobuf_container</text>
<text text-anchor="start" x="524" y="-49" font-family="Helvetica,sans-Serif" font-size="10.00">_5fmanager_2eproto::</text>
<text text-anchor="middle" x="581.5" y="-38" font-family="Helvetica,sans-Serif" font-size="10.00">protobuf_RegisterTypes</text>
</a>
</g>
</g>
<!-- Node2&#45;&gt;Node7 -->
<g id="edge6" class="edge">
<title>Node2&#45;&gt;Node7</title>
<path fill="none" stroke="midnightblue" d="M721.95,-106.17C694.11,-95.26 661.61,-82.52 635,-72.08"/>
<polygon fill="midnightblue" stroke="midnightblue" points="721,-109.56 731.58,-109.95 723.55,-103.04 721,-109.56"/>
</g>
<!-- Node8 -->
<g id="node8" class="node">
<title>Node8</title>
<g id="a_node8"><a xlink:href="namespaceprotobuf__container__5fmanager__2eproto.html#a1fdf8c59b31bd00c1839ab68bd8994a7" target="_top" xlink:title=" ">
<polygon fill="white" stroke="black" points="342,-31 342,-72 466,-72 466,-31 342,-31"/>
<text text-anchor="start" x="350" y="-60" font-family="Helvetica,sans-Serif" font-size="10.00">protobuf_container</text>
<text text-anchor="start" x="350" y="-49" font-family="Helvetica,sans-Serif" font-size="10.00">_5fmanager_2eproto::</text>
<text text-anchor="middle" x="404" y="-38" font-family="Helvetica,sans-Serif" font-size="10.00">AddDescriptorsImpl</text>
</a>
</g>
</g>
<!-- Node7&#45;&gt;Node8 -->
<g id="edge7" class="edge">
<title>Node7&#45;&gt;Node8</title>
<path fill="none" stroke="midnightblue" d="M505.26,-51.5C492.19,-51.5 478.73,-51.5 466.09,-51.5"/>
<polygon fill="midnightblue" stroke="midnightblue" points="505.65,-55 515.65,-51.5 505.65,-48 505.65,-55"/>
</g>
<!-- Node9 -->
<g id="node9" class="node">
<title>Node9</title>
<g id="a_node9"><a xlink:href="namespaceprotobuf__container__5fmanager__2eproto.html#aa46eb85aa98c9a7df47e2ae1eb3c4730" target="_top" xlink:title=" ">
<polygon fill="white" stroke="black" points="182,-6 182,-47 306,-47 306,-6 182,-6"/>
<text text-anchor="start" x="190" y="-35" font-family="Helvetica,sans-Serif" font-size="10.00">protobuf_container</text>
<text text-anchor="start" x="190" y="-24" font-family="Helvetica,sans-Serif" font-size="10.00">_5fmanager_2eproto::</text>
<text text-anchor="middle" x="244" y="-13" font-family="Helvetica,sans-Serif" font-size="10.00">AddDescriptors</text>
</a>
</g>
</g>
<!-- Node8&#45;&gt;Node9 -->
<g id="edge8" class="edge">
<title>Node8&#45;&gt;Node9</title>
<path fill="none" stroke="midnightblue" d="M331.91,-40.25C323.33,-38.89 314.61,-37.51 306.18,-36.18"/>
<polygon fill="midnightblue" stroke="midnightblue" points="331.49,-43.73 341.91,-41.83 332.58,-36.81 331.49,-43.73"/>
</g>
<!-- Node9&#45;&gt;Node1 -->
<g id="edge9" class="edge">
<title>Node9&#45;&gt;Node1</title>
<path fill="none" stroke="midnightblue" d="M316.19,-22.41C324.88,-22.03 333.64,-21.72 342,-21.5 483.73,-17.85 519.41,-14.27 661,-21.5 746.16,-25.85 843.47,-36.61 908.73,-44.67"/>
<polygon fill="midnightblue" stroke="midnightblue" points="315.87,-18.92 306.04,-22.87 316.19,-25.91 315.87,-18.92"/>
</g>
<!-- Node10 -->
<g id="node10" class="node">
<title>Node10</title>
<g id="a_node10"><a xlink:href="structprotobuf__container__5fmanager__2eproto_1_1StaticDescriptorInitializer.html#af07c031db7d4f3e7017db34e2bd48ee4" target="_top" xlink:title=" ">
<polygon fill="white" stroke="black" points="0,-0.5 0,-52.5 146,-52.5 146,-0.5 0,-0.5"/>
<text text-anchor="start" x="8" y="-40.5" font-family="Helvetica,sans-Serif" font-size="10.00">protobuf_container</text>
<text text-anchor="start" x="8" y="-29.5" font-family="Helvetica,sans-Serif" font-size="10.00">_5fmanager_2eproto::</text>
<text text-anchor="start" x="8" y="-18.5" font-family="Helvetica,sans-Serif" font-size="10.00">StaticDescriptorInitializer</text>
<text text-anchor="middle" x="73" y="-7.5" font-family="Helvetica,sans-Serif" font-size="10.00">::StaticDescriptorInitializer</text>
</a>
</g>
</g>
<!-- Node9&#45;&gt;Node10 -->
<g id="edge10" class="edge">
<title>Node9&#45;&gt;Node10</title>
<path fill="none" stroke="midnightblue" d="M171.76,-26.5C163.29,-26.5 154.63,-26.5 146.15,-26.5"/>
<polygon fill="midnightblue" stroke="midnightblue" points="171.99,-30 181.99,-26.5 171.99,-23 171.99,-30"/>
</g>
</g>
</svg>
