<?xml version="1.0" encoding="UTF-8" standalone="no"?>
<!DOCTYPE svg PUBLIC "-//W3C//DTD SVG 1.1//EN"
 "http://www.w3.org/Graphics/SVG/1.1/DTD/svg11.dtd">
<!-- Generated by graphviz version 2.43.0 (0)
 -->
<!-- Title: protobuf_container_5fmanager_2eproto::protobuf_RegisterTypes Pages: 1 -->
<!--zoomable 122 -->
<svg id="main" version="1.1" xmlns="http://www.w3.org/2000/svg" xmlns:xlink="http://www.w3.org/1999/xlink" xml:space="preserve" onload="init(evt)">
<style type="text/css"><![CDATA[
.edge:hover path { stroke: red; }
.edge:hover polygon { stroke: red; fill: red; }
]]></style>
<script type="text/javascript"><![CDATA[
var edges = document.getElementsByTagName('g');
if (edges && edges.length) {
  for (var i=0;i<edges.length;i++) {
    if (edges[i].id.substr(0,4)=='edge') {
      edges[i].setAttribute('class','edge');
    }
  }
}
]]></script>
        <defs>
                <circle id="rim" cx="0" cy="0" r="7"/>
                <circle id="rim2" cx="0" cy="0" r="3.5"/>
                <g id="zoomPlus">
                        <use xlink:href="#rim" fill="#404040">
                                <set attributeName="fill" to="#808080" begin="zoomplus.mouseover" end="zoomplus.mouseout"/>
                        </use>
                        <path d="M-4,0h8M0,-4v8" fill="none" stroke="white" stroke-width="1.5" pointer-events="none"/>
                </g>
                <g id="zoomMin">
                        <use xlink:href="#rim" fill="#404040">
                                <set attributeName="fill" to="#808080" begin="zoomminus.mouseover" end="zoomminus.mouseout"/>
                        </use>
                        <path d="M-4,0h8" fill="none" stroke="white" stroke-width="1.5" pointer-events="none"/>
                </g>
                <g id="dirArrow">
                        <path fill="none" stroke="white" stroke-width="1.5" d="M0,-3.0v7 M-2.5,-0.5L0,-3.0L2.5,-0.5"/>
                </g>
               <g id="resetDef">
                       <use xlink:href="#rim2" fill="#404040">
                               <set attributeName="fill" to="#808080" begin="reset.mouseover" end="reset.mouseout"/>
                       </use>
               </g>
        </defs>

<script type="text/javascript">
var viewWidth = 1071;
var viewHeight = 122;
var sectionId = 'dynsection-10';
</script>
<script xlink:href="svgpan.js"/>
<svg id="graph" class="graph">
<g id="viewport">
<title>protobuf_container_5fmanager_2eproto::protobuf_RegisterTypes</title>
<polygon fill="white" stroke="transparent" points="-4,4 -4,-117.5 1067,-117.5 1067,4 -4,4"/>
<!-- Node1 -->
<g id="node1" class="node">
<title>Node1</title>
<g id="a_node1"><a xlink:title=" ">
<polygon fill="#bfbfbf" stroke="black" points="0,-33.5 0,-74.5 131,-74.5 131,-33.5 0,-33.5"/>
<text text-anchor="start" x="8" y="-62.5" font-family="Helvetica,sans-Serif" font-size="10.00">protobuf_container</text>
<text text-anchor="start" x="8" y="-51.5" font-family="Helvetica,sans-Serif" font-size="10.00">_5fmanager_2eproto::</text>
<text text-anchor="middle" x="65.5" y="-40.5" font-family="Helvetica,sans-Serif" font-size="10.00">protobuf_RegisterTypes</text>
</a>
</g>
</g>
<!-- Node2 -->
<g id="node2" class="node">
<title>Node2</title>
<g id="a_node2"><a xlink:href="namespaceprotobuf__container__5fmanager__2eproto.html#ab04c51c0072a4e45767b6a95c90b5b75" target="_top" xlink:title=" ">
<polygon fill="white" stroke="black" points="167,-58.5 167,-99.5 343,-99.5 343,-58.5 167,-58.5"/>
<text text-anchor="start" x="175" y="-87.5" font-family="Helvetica,sans-Serif" font-size="10.00">protobuf_container</text>
<text text-anchor="start" x="175" y="-76.5" font-family="Helvetica,sans-Serif" font-size="10.00">_5fmanager_2eproto::</text>
<text text-anchor="middle" x="255" y="-65.5" font-family="Helvetica,sans-Serif" font-size="10.00">protobuf_AssignDescriptorsOnce</text>
</a>
</g>
</g>
<!-- Node1&#45;&gt;Node2 -->
<g id="edge1" class="edge">
<title>Node1&#45;&gt;Node2</title>
<path fill="none" stroke="midnightblue" d="M131.03,-62.6C139.33,-63.71 147.96,-64.86 156.64,-66.02"/>
<polygon fill="midnightblue" stroke="midnightblue" points="156.46,-69.53 166.83,-67.38 157.39,-62.59 156.46,-69.53"/>
</g>
<!-- Node3 -->
<g id="node3" class="node">
<title>Node3</title>
<g id="a_node3"><a xlink:href="namespaceprotobuf__container__5fmanager__2eproto.html#a0ee348abc5f8f24a77a8606492ccac72" target="_top" xlink:title=" ">
<polygon fill="white" stroke="black" points="379,-58.5 379,-99.5 530,-99.5 530,-58.5 379,-58.5"/>
<text text-anchor="start" x="387" y="-87.5" font-family="Helvetica,sans-Serif" font-size="10.00">protobuf_container</text>
<text text-anchor="start" x="387" y="-76.5" font-family="Helvetica,sans-Serif" font-size="10.00">_5fmanager_2eproto::</text>
<text text-anchor="middle" x="454.5" y="-65.5" font-family="Helvetica,sans-Serif" font-size="10.00">protobuf_AssignDescriptors</text>
</a>
</g>
</g>
<!-- Node2&#45;&gt;Node3 -->
<g id="edge2" class="edge">
<title>Node2&#45;&gt;Node3</title>
<path fill="none" stroke="midnightblue" d="M343.2,-79C351.65,-79 360.21,-79 368.64,-79"/>
<polygon fill="midnightblue" stroke="midnightblue" points="368.83,-82.5 378.83,-79 368.83,-75.5 368.83,-82.5"/>
</g>
<!-- Node4 -->
<g id="node4" class="node">
<title>Node4</title>
<g id="a_node4"><a xlink:href="namespaceprotobuf__container__5fmanager__2eproto.html#aa46eb85aa98c9a7df47e2ae1eb3c4730" target="_top" xlink:title=" ">
<polygon fill="white" stroke="black" points="566,-58.5 566,-99.5 690,-99.5 690,-58.5 566,-58.5"/>
<text text-anchor="start" x="574" y="-87.5" font-family="Helvetica,sans-Serif" font-size="10.00">protobuf_container</text>
<text text-anchor="start" x="574" y="-76.5" font-family="Helvetica,sans-Serif" font-size="10.00">_5fmanager_2eproto::</text>
<text text-anchor="middle" x="628" y="-65.5" font-family="Helvetica,sans-Serif" font-size="10.00">AddDescriptors</text>
</a>
</g>
</g>
<!-- Node3&#45;&gt;Node4 -->
<g id="edge3" class="edge">
<title>Node3&#45;&gt;Node4</title>
<path fill="none" stroke="midnightblue" d="M530.22,-79C538.69,-79 547.31,-79 555.74,-79"/>
<polygon fill="midnightblue" stroke="midnightblue" points="555.89,-82.5 565.89,-79 555.89,-75.5 555.89,-82.5"/>
</g>
<!-- Node5 -->
<g id="node5" class="node">
<title>Node5</title>
<g id="a_node5"><a xlink:href="namespaceprotobuf__container__5fmanager__2eproto.html#a1fdf8c59b31bd00c1839ab68bd8994a7" target="_top" xlink:title=" ">
<polygon fill="white" stroke="black" points="726,-33.5 726,-74.5 850,-74.5 850,-33.5 726,-33.5"/>
<text text-anchor="start" x="734" y="-62.5" font-family="Helvetica,sans-Serif" font-size="10.00">protobuf_container</text>
<text text-anchor="start" x="734" y="-51.5" font-family="Helvetica,sans-Serif" font-size="10.00">_5fmanager_2eproto::</text>
<text text-anchor="middle" x="788" y="-40.5" font-family="Helvetica,sans-Serif" font-size="10.00">AddDescriptorsImpl</text>
</a>
</g>
</g>
<!-- Node4&#45;&gt;Node5 -->
<g id="edge4" class="edge">
<title>Node4&#45;&gt;Node5</title>
<path fill="none" stroke="midnightblue" d="M690.09,-69.33C698.51,-68 707.23,-66.62 715.81,-65.26"/>
<polygon fill="midnightblue" stroke="midnightblue" points="716.48,-68.7 725.82,-63.68 715.39,-61.79 716.48,-68.7"/>
</g>
<!-- Node5&#45;&gt;Node1 -->
<g id="edge7" class="edge">
<title>Node5&#45;&gt;Node1</title>
<path fill="none" stroke="midnightblue" d="M725.96,-50.37C714.04,-49.8 701.63,-49.3 690,-49 457.63,-43.02 399.37,-43.22 167,-49 158.65,-49.21 149.92,-49.51 141.23,-49.87"/>
<polygon fill="midnightblue" stroke="midnightblue" points="140.93,-46.38 131.09,-50.31 141.23,-53.37 140.93,-46.38"/>
</g>
<!-- Node6 -->
<g id="node6" class="node">
<title>Node6</title>
<g id="a_node6"><a xlink:href="namespaceprotobuf__container__5fmanager__2eproto.html#aacd277bc73f14bedf6baff131999e32a" target="_top" xlink:title=" ">
<polygon fill="white" stroke="black" points="886,-61 886,-113 1063,-113 1063,-61 886,-61"/>
<text text-anchor="start" x="894" y="-101" font-family="Helvetica,sans-Serif" font-size="10.00">protobuf_container</text>
<text text-anchor="start" x="894" y="-90" font-family="Helvetica,sans-Serif" font-size="10.00">_5fmanager_2eproto::</text>
<text text-anchor="start" x="894" y="-79" font-family="Helvetica,sans-Serif" font-size="10.00">GOOGLE_PROTOBUF_ATTRIBUTE</text>
<text text-anchor="middle" x="974.5" y="-68" font-family="Helvetica,sans-Serif" font-size="10.00">_SECTION_VARIABLE</text>
</a>
</g>
</g>
<!-- Node5&#45;&gt;Node6 -->
<g id="edge5" class="edge">
<title>Node5&#45;&gt;Node6</title>
<path fill="none" stroke="midnightblue" d="M850.18,-64.94C858.49,-66.43 867.17,-67.98 875.93,-69.55"/>
<polygon fill="midnightblue" stroke="midnightblue" points="875.36,-73 885.82,-71.32 876.59,-66.11 875.36,-73"/>
</g>
<!-- Node7 -->
<g id="node7" class="node">
<title>Node7</title>
<g id="a_node7"><a xlink:href="namespaceprotobuf__container__5fmanager__2eproto.html#a9046149bfa99ddca358e06cdd5040987" target="_top" xlink:title=" ">
<polygon fill="white" stroke="black" points="912.5,-0.5 912.5,-41.5 1036.5,-41.5 1036.5,-0.5 912.5,-0.5"/>
<text text-anchor="start" x="920.5" y="-29.5" font-family="Helvetica,sans-Serif" font-size="10.00">protobuf_container</text>
<text text-anchor="start" x="920.5" y="-18.5" font-family="Helvetica,sans-Serif" font-size="10.00">_5fmanager_2eproto::</text>
<text text-anchor="middle" x="974.5" y="-7.5" font-family="Helvetica,sans-Serif" font-size="10.00">InitDefaults</text>
</a>
</g>
</g>
<!-- Node5&#45;&gt;Node7 -->
<g id="edge6" class="edge">
<title>Node5&#45;&gt;Node7</title>
<path fill="none" stroke="midnightblue" d="M850.18,-43.06C866.93,-40.06 885.22,-36.79 902.47,-33.7"/>
<polygon fill="midnightblue" stroke="midnightblue" points="903.26,-37.12 912.49,-31.91 902.03,-30.23 903.26,-37.12"/>
</g>
</g>
</svg>
        <g id="navigator" transform="translate(0 0)" fill="#404254">
                <rect fill="#f2f5e9" fill-opacity="0.5" stroke="#606060" stroke-width=".5" x="0" y="0" width="60" height="60"/>
                <use id="zoomplus" xlink:href="#zoomPlus" x="17" y="9" onmousedown="handleZoom(evt,'in')"/>
                <use id="zoomminus" xlink:href="#zoomMin" x="42" y="9" onmousedown="handleZoom(evt,'out')"/>
                <use id="reset" xlink:href="#resetDef" x="30" y="36" onmousedown="handleReset()"/>
                <g id="arrowUp" xlink:href="#dirArrow" transform="translate(30 24)" onmousedown="handlePan(0,-1)">
                  <use xlink:href="#rim" fill="#404040">
                        <set attributeName="fill" to="#808080" begin="arrowUp.mouseover" end="arrowUp.mouseout"/>
                  </use>
                  <path fill="none" stroke="white" stroke-width="1.5" d="M0,-3.0v7 M-2.5,-0.5L0,-3.0L2.5,-0.5"/>
                </g>
                <g id="arrowRight" xlink:href="#dirArrow" transform="rotate(90) translate(36 -43)" onmousedown="handlePan(1,0)">
                  <use xlink:href="#rim" fill="#404040">
                        <set attributeName="fill" to="#808080" begin="arrowRight.mouseover" end="arrowRight.mouseout"/>
                  </use>
                  <path fill="none" stroke="white" stroke-width="1.5" d="M0,-3.0v7 M-2.5,-0.5L0,-3.0L2.5,-0.5"/>
                </g>
                <g id="arrowDown" xlink:href="#dirArrow" transform="rotate(180) translate(-30 -48)" onmousedown="handlePan(0,1)">
                  <use xlink:href="#rim" fill="#404040">
                        <set attributeName="fill" to="#808080" begin="arrowDown.mouseover" end="arrowDown.mouseout"/>
                  </use>
                  <path fill="none" stroke="white" stroke-width="1.5" d="M0,-3.0v7 M-2.5,-0.5L0,-3.0L2.5,-0.5"/>
                </g>
                <g id="arrowLeft" xlink:href="#dirArrow" transform="rotate(270) translate(-36 17)" onmousedown="handlePan(-1,0)">
                  <use xlink:href="#rim" fill="#404040">
                        <set attributeName="fill" to="#808080" begin="arrowLeft.mouseover" end="arrowLeft.mouseout"/>
                  </use>
                  <path fill="none" stroke="white" stroke-width="1.5" d="M0,-3.0v7 M-2.5,-0.5L0,-3.0L2.5,-0.5"/>
                </g>
        </g>
        <svg viewBox="0 0 15 15" width="100%" height="30px" preserveAspectRatio="xMaxYMin meet">
         <g id="arrow_out" transform="scale(0.3 0.3)">
          <a xlink:href="namespaceprotobuf__container__5fmanager__2eproto_a43d9c82ec9dc3a58cbb8eae25c7aed5f_cgraph_org.svg" target="_base">
           <rect id="button" ry="5" rx="5" y="6" x="6" height="38" width="38"
                fill="#f2f5e9" fill-opacity="0.5" stroke="#606060" stroke-width="1.0"/>
           <path id="arrow"
             d="M 11.500037,31.436501 C 11.940474,20.09759 22.043105,11.32322 32.158766,21.979434 L 37.068811,17.246167 C 37.068811,17.246167 37.088388,32 37.088388,32 L 22.160133,31.978069 C 22.160133,31.978069 26.997745,27.140456 26.997745,27.140456 C 18.528582,18.264221 13.291696,25.230495 11.500037,31.436501 z"
             style="fill:#404040;"/>
          </a>
         </g>
        </svg>
</svg>
