<?xml version="1.0" encoding="UTF-8" standalone="no"?>
<!DOCTYPE svg PUBLIC "-//W3C//DTD SVG 1.1//EN"
 "http://www.w3.org/Graphics/SVG/1.1/DTD/svg11.dtd">
<!-- Generated by graphviz version 2.43.0 (0)
 -->
<!-- Title: protobuf_container_5fmanager_2eproto::protobuf_AssignDescriptorsOnce Pages: 1 -->
<svg width="886pt" height="304pt"
 viewBox="0.00 0.00 886.00 304.31" xmlns="http://www.w3.org/2000/svg" xmlns:xlink="http://www.w3.org/1999/xlink">
<g id="graph0" class="graph" transform="scale(1 1) rotate(0) translate(4 300.31)">
<title>protobuf_container_5fmanager_2eproto::protobuf_AssignDescriptorsOnce</title>
<polygon fill="white" stroke="transparent" points="-4,4 -4,-300.31 882,-300.31 882,4 -4,4"/>
<!-- Node1 -->
<g id="node1" class="node">
<title>Node1</title>
<g id="a_node1"><a xlink:title=" ">
<polygon fill="#bfbfbf" stroke="black" points="702,-137.31 702,-178.31 878,-178.31 878,-137.31 702,-137.31"/>
<text text-anchor="start" x="710" y="-166.31" font-family="Helvetica,sans-Serif" font-size="10.00">protobuf_container</text>
<text text-anchor="start" x="710" y="-155.31" font-family="Helvetica,sans-Serif" font-size="10.00">_5fmanager_2eproto::</text>
<text text-anchor="middle" x="790" y="-144.31" font-family="Helvetica,sans-Serif" font-size="10.00">protobuf_AssignDescriptorsOnce</text>
</a>
</g>
</g>
<!-- Node2 -->
<g id="node2" class="node">
<title>Node2</title>
<g id="a_node2"><a xlink:href="classcontainermanager_1_1ContainerParameters.html#a29590b6735a1f6df1fcb37f9496ce2f7" target="_top" xlink:title=" ">
<polygon fill="white" stroke="black" points="507,-265.81 507,-295.81 666,-295.81 666,-265.81 507,-265.81"/>
<text text-anchor="start" x="515" y="-283.81" font-family="Helvetica,sans-Serif" font-size="10.00">containermanager::Container</text>
<text text-anchor="middle" x="586.5" y="-272.81" font-family="Helvetica,sans-Serif" font-size="10.00">Parameters::descriptor</text>
</a>
</g>
</g>
<!-- Node1&#45;&gt;Node2 -->
<g id="edge1" class="edge">
<title>Node1&#45;&gt;Node2</title>
<path fill="none" stroke="midnightblue" d="M761.05,-185.56C737.47,-207.6 701.91,-237.79 666,-256.81 659.7,-260.15 652.87,-263.1 645.95,-265.68"/>
<polygon fill="midnightblue" stroke="midnightblue" points="763.73,-187.84 768.57,-178.42 758.91,-182.76 763.73,-187.84"/>
</g>
<!-- Node3 -->
<g id="node3" class="node">
<title>Node3</title>
<g id="a_node3"><a xlink:href="classcontainermanager_1_1ContainerRequest.html#ad421f0c7a4f285c1d10b8f12a07829fd" target="_top" xlink:title=" ">
<polygon fill="white" stroke="black" points="507,-216.81 507,-246.81 666,-246.81 666,-216.81 507,-216.81"/>
<text text-anchor="start" x="515" y="-234.81" font-family="Helvetica,sans-Serif" font-size="10.00">containermanager::Container</text>
<text text-anchor="middle" x="586.5" y="-223.81" font-family="Helvetica,sans-Serif" font-size="10.00">Request::descriptor</text>
</a>
</g>
</g>
<!-- Node1&#45;&gt;Node3 -->
<g id="edge2" class="edge">
<title>Node1&#45;&gt;Node3</title>
<path fill="none" stroke="midnightblue" d="M731.94,-182.25C711.32,-190.75 687.76,-200.08 666,-207.81 657.41,-210.87 648.2,-213.89 639.23,-216.71"/>
<polygon fill="midnightblue" stroke="midnightblue" points="733.29,-185.47 741.19,-178.41 730.61,-179.01 733.29,-185.47"/>
</g>
<!-- Node4 -->
<g id="node4" class="node">
<title>Node4</title>
<g id="a_node4"><a xlink:href="classcontainermanager_1_1ContainerParameters.html#ab92d4d1f1a07768698521d2a69b5433c" target="_top" xlink:title=" ">
<polygon fill="white" stroke="black" points="507,-167.81 507,-197.81 666,-197.81 666,-167.81 507,-167.81"/>
<text text-anchor="start" x="515" y="-185.81" font-family="Helvetica,sans-Serif" font-size="10.00">containermanager::Container</text>
<text text-anchor="middle" x="586.5" y="-174.81" font-family="Helvetica,sans-Serif" font-size="10.00">Parameters::GetMetadata</text>
</a>
</g>
</g>
<!-- Node1&#45;&gt;Node4 -->
<g id="edge3" class="edge">
<title>Node1&#45;&gt;Node4</title>
<path fill="none" stroke="midnightblue" d="M691.78,-169.87C683.23,-170.93 674.65,-172 666.28,-173.04"/>
<polygon fill="midnightblue" stroke="midnightblue" points="692.3,-173.34 701.79,-168.63 691.44,-166.39 692.3,-173.34"/>
</g>
<!-- Node5 -->
<g id="node5" class="node">
<title>Node5</title>
<g id="a_node5"><a xlink:href="classcontainermanager_1_1ContainerRequest.html#ad8b3c1cc0d32bd4a2bbaaa475045754f" target="_top" xlink:title=" ">
<polygon fill="white" stroke="black" points="507,-118.81 507,-148.81 666,-148.81 666,-118.81 507,-118.81"/>
<text text-anchor="start" x="515" y="-136.81" font-family="Helvetica,sans-Serif" font-size="10.00">containermanager::Container</text>
<text text-anchor="middle" x="586.5" y="-125.81" font-family="Helvetica,sans-Serif" font-size="10.00">Request::GetMetadata</text>
</a>
</g>
</g>
<!-- Node1&#45;&gt;Node5 -->
<g id="edge4" class="edge">
<title>Node1&#45;&gt;Node5</title>
<path fill="none" stroke="midnightblue" d="M691.78,-146.23C683.23,-145.21 674.65,-144.19 666.28,-143.19"/>
<polygon fill="midnightblue" stroke="midnightblue" points="691.45,-149.72 701.79,-147.42 692.28,-142.77 691.45,-149.72"/>
</g>
<!-- Node6 -->
<g id="node6" class="node">
<title>Node6</title>
<g id="a_node6"><a xlink:href="namespaceprotobuf__container__5fmanager__2eproto.html#a43d9c82ec9dc3a58cbb8eae25c7aed5f" target="_top" xlink:title=" ">
<polygon fill="white" stroke="black" points="521,-58.31 521,-99.31 652,-99.31 652,-58.31 521,-58.31"/>
<text text-anchor="start" x="529" y="-87.31" font-family="Helvetica,sans-Serif" font-size="10.00">protobuf_container</text>
<text text-anchor="start" x="529" y="-76.31" font-family="Helvetica,sans-Serif" font-size="10.00">_5fmanager_2eproto::</text>
<text text-anchor="middle" x="586.5" y="-65.31" font-family="Helvetica,sans-Serif" font-size="10.00">protobuf_RegisterTypes</text>
</a>
</g>
</g>
<!-- Node1&#45;&gt;Node6 -->
<g id="edge5" class="edge">
<title>Node1&#45;&gt;Node6</title>
<path fill="none" stroke="midnightblue" d="M726.95,-133.48C699.11,-122.57 666.61,-109.83 640,-99.4"/>
<polygon fill="midnightblue" stroke="midnightblue" points="726,-136.87 736.58,-137.26 728.55,-130.35 726,-136.87"/>
</g>
<!-- Node7 -->
<g id="node7" class="node">
<title>Node7</title>
<g id="a_node7"><a xlink:href="namespaceprotobuf__container__5fmanager__2eproto.html#a1fdf8c59b31bd00c1839ab68bd8994a7" target="_top" xlink:title=" ">
<polygon fill="white" stroke="black" points="347,-58.31 347,-99.31 471,-99.31 471,-58.31 347,-58.31"/>
<text text-anchor="start" x="355" y="-87.31" font-family="Helvetica,sans-Serif" font-size="10.00">protobuf_container</text>
<text text-anchor="start" x="355" y="-76.31" font-family="Helvetica,sans-Serif" font-size="10.00">_5fmanager_2eproto::</text>
<text text-anchor="middle" x="409" y="-65.31" font-family="Helvetica,sans-Serif" font-size="10.00">AddDescriptorsImpl</text>
</a>
</g>
</g>
<!-- Node6&#45;&gt;Node7 -->
<g id="edge6" class="edge">
<title>Node6&#45;&gt;Node7</title>
<path fill="none" stroke="midnightblue" d="M510.26,-78.81C497.19,-78.81 483.73,-78.81 471.09,-78.81"/>
<polygon fill="midnightblue" stroke="midnightblue" points="510.65,-82.31 520.65,-78.81 510.65,-75.31 510.65,-82.31"/>
</g>
<!-- Node8 -->
<g id="node8" class="node">
<title>Node8</title>
<g id="a_node8"><a xlink:href="namespaceprotobuf__container__5fmanager__2eproto.html#aa46eb85aa98c9a7df47e2ae1eb3c4730" target="_top" xlink:title=" ">
<polygon fill="white" stroke="black" points="187,-58.31 187,-99.31 311,-99.31 311,-58.31 187,-58.31"/>
<text text-anchor="start" x="195" y="-87.31" font-family="Helvetica,sans-Serif" font-size="10.00">protobuf_container</text>
<text text-anchor="start" x="195" y="-76.31" font-family="Helvetica,sans-Serif" font-size="10.00">_5fmanager_2eproto::</text>
<text text-anchor="middle" x="249" y="-65.31" font-family="Helvetica,sans-Serif" font-size="10.00">AddDescriptors</text>
</a>
</g>
</g>
<!-- Node7&#45;&gt;Node8 -->
<g id="edge7" class="edge">
<title>Node7&#45;&gt;Node8</title>
<path fill="none" stroke="midnightblue" d="M336.63,-78.81C328.14,-78.81 319.52,-78.81 311.18,-78.81"/>
<polygon fill="midnightblue" stroke="midnightblue" points="336.91,-82.31 346.91,-78.81 336.91,-75.31 336.91,-82.31"/>
</g>
<!-- Node9 -->
<g id="node9" class="node">
<title>Node9</title>
<g id="a_node9"><a xlink:href="namespaceprotobuf__container__5fmanager__2eproto.html#a0ee348abc5f8f24a77a8606492ccac72" target="_top" xlink:title=" ">
<polygon fill="white" stroke="black" points="0,-9.31 0,-50.31 151,-50.31 151,-9.31 0,-9.31"/>
<text text-anchor="start" x="8" y="-38.31" font-family="Helvetica,sans-Serif" font-size="10.00">protobuf_container</text>
<text text-anchor="start" x="8" y="-27.31" font-family="Helvetica,sans-Serif" font-size="10.00">_5fmanager_2eproto::</text>
<text text-anchor="middle" x="75.5" y="-16.31" font-family="Helvetica,sans-Serif" font-size="10.00">protobuf_AssignDescriptors</text>
</a>
</g>
</g>
<!-- Node8&#45;&gt;Node9 -->
<g id="edge8" class="edge">
<title>Node8&#45;&gt;Node9</title>
<path fill="none" stroke="midnightblue" d="M176.85,-58.48C167.42,-55.79 157.75,-53.03 148.31,-50.33"/>
<polygon fill="midnightblue" stroke="midnightblue" points="175.99,-61.88 186.57,-61.26 177.92,-55.15 175.99,-61.88"/>
</g>
<!-- Node10 -->
<g id="node10" class="node">
<title>Node10</title>
<g id="a_node10"><a xlink:href="structprotobuf__container__5fmanager__2eproto_1_1StaticDescriptorInitializer.html#af07c031db7d4f3e7017db34e2bd48ee4" target="_top" xlink:title=" ">
<polygon fill="white" stroke="black" points="2.5,-69.81 2.5,-121.81 148.5,-121.81 148.5,-69.81 2.5,-69.81"/>
<text text-anchor="start" x="10.5" y="-109.81" font-family="Helvetica,sans-Serif" font-size="10.00">protobuf_container</text>
<text text-anchor="start" x="10.5" y="-98.81" font-family="Helvetica,sans-Serif" font-size="10.00">_5fmanager_2eproto::</text>
<text text-anchor="start" x="10.5" y="-87.81" font-family="Helvetica,sans-Serif" font-size="10.00">StaticDescriptorInitializer</text>
<text text-anchor="middle" x="75.5" y="-76.81" font-family="Helvetica,sans-Serif" font-size="10.00">::StaticDescriptorInitializer</text>
</a>
</g>
</g>
<!-- Node8&#45;&gt;Node10 -->
<g id="edge10" class="edge">
<title>Node8&#45;&gt;Node10</title>
<path fill="none" stroke="midnightblue" d="M176.34,-85.91C167.17,-86.82 157.78,-87.75 148.61,-88.66"/>
<polygon fill="midnightblue" stroke="midnightblue" points="176.96,-89.37 186.57,-84.9 176.27,-82.4 176.96,-89.37"/>
</g>
<!-- Node9&#45;&gt;Node1 -->
<g id="edge9" class="edge">
<title>Node9&#45;&gt;Node1</title>
<path fill="none" stroke="midnightblue" d="M161.49,-15.07C279.44,1.56 497.28,18.32 666,-48.81 712.13,-67.17 752.37,-110.92 773.42,-137.07"/>
<polygon fill="midnightblue" stroke="midnightblue" points="160.84,-11.63 151.44,-16.53 161.84,-18.56 160.84,-11.63"/>
</g>
</g>
</svg>
