<?xml version="1.0" encoding="UTF-8" standalone="no"?>
<!DOCTYPE svg PUBLIC "-//W3C//DTD SVG 1.1//EN"
 "http://www.w3.org/Graphics/SVG/1.1/DTD/svg11.dtd">
<!-- Generated by graphviz version 2.43.0 (0)
 -->
<!-- Title: protobuf_container_5fmanager_2eproto::protobuf_AssignDescriptors Pages: 1 -->
<svg width="904pt" height="207pt"
 viewBox="0.00 0.00 904.00 206.50" xmlns="http://www.w3.org/2000/svg" xmlns:xlink="http://www.w3.org/1999/xlink">
<g id="graph0" class="graph" transform="scale(1 1) rotate(0) translate(4 202.5)">
<title>protobuf_container_5fmanager_2eproto::protobuf_AssignDescriptors</title>
<polygon fill="white" stroke="transparent" points="-4,4 -4,-202.5 900,-202.5 900,4 -4,4"/>
<!-- Node1 -->
<g id="node1" class="node">
<title>Node1</title>
<g id="a_node1"><a xlink:title=" ">
<polygon fill="#bfbfbf" stroke="black" points="0,-0.5 0,-41.5 151,-41.5 151,-0.5 0,-0.5"/>
<text text-anchor="start" x="8" y="-29.5" font-family="Helvetica,sans-Serif" font-size="10.00">protobuf_container</text>
<text text-anchor="start" x="8" y="-18.5" font-family="Helvetica,sans-Serif" font-size="10.00">_5fmanager_2eproto::</text>
<text text-anchor="middle" x="75.5" y="-7.5" font-family="Helvetica,sans-Serif" font-size="10.00">protobuf_AssignDescriptors</text>
</a>
</g>
</g>
<!-- Node2 -->
<g id="node2" class="node">
<title>Node2</title>
<g id="a_node2"><a xlink:href="namespaceprotobuf__container__5fmanager__2eproto.html#aa46eb85aa98c9a7df47e2ae1eb3c4730" target="_top" xlink:title=" ">
<polygon fill="white" stroke="black" points="187,-25.5 187,-66.5 311,-66.5 311,-25.5 187,-25.5"/>
<text text-anchor="start" x="195" y="-54.5" font-family="Helvetica,sans-Serif" font-size="10.00">protobuf_container</text>
<text text-anchor="start" x="195" y="-43.5" font-family="Helvetica,sans-Serif" font-size="10.00">_5fmanager_2eproto::</text>
<text text-anchor="middle" x="249" y="-32.5" font-family="Helvetica,sans-Serif" font-size="10.00">AddDescriptors</text>
</a>
</g>
</g>
<!-- Node1&#45;&gt;Node2 -->
<g id="edge1" class="edge">
<title>Node1&#45;&gt;Node2</title>
<path fill="none" stroke="midnightblue" d="M151.22,-31.89C159.69,-33.13 168.31,-34.38 176.74,-35.61"/>
<polygon fill="midnightblue" stroke="midnightblue" points="176.49,-39.11 186.89,-37.09 177.5,-32.19 176.49,-39.11"/>
</g>
<!-- Node3 -->
<g id="node3" class="node">
<title>Node3</title>
<g id="a_node3"><a xlink:href="namespaceprotobuf__container__5fmanager__2eproto.html#a1fdf8c59b31bd00c1839ab68bd8994a7" target="_top" xlink:title=" ">
<polygon fill="white" stroke="black" points="347,-55.5 347,-96.5 471,-96.5 471,-55.5 347,-55.5"/>
<text text-anchor="start" x="355" y="-84.5" font-family="Helvetica,sans-Serif" font-size="10.00">protobuf_container</text>
<text text-anchor="start" x="355" y="-73.5" font-family="Helvetica,sans-Serif" font-size="10.00">_5fmanager_2eproto::</text>
<text text-anchor="middle" x="409" y="-62.5" font-family="Helvetica,sans-Serif" font-size="10.00">AddDescriptorsImpl</text>
</a>
</g>
</g>
<!-- Node2&#45;&gt;Node3 -->
<g id="edge2" class="edge">
<title>Node2&#45;&gt;Node3</title>
<path fill="none" stroke="midnightblue" d="M311.09,-57.6C319.51,-59.2 328.23,-60.85 336.81,-62.48"/>
<polygon fill="midnightblue" stroke="midnightblue" points="336.34,-65.96 346.82,-64.38 337.64,-59.08 336.34,-65.96"/>
</g>
<!-- Node4 -->
<g id="node4" class="node">
<title>Node4</title>
<g id="a_node4"><a xlink:href="namespaceprotobuf__container__5fmanager__2eproto.html#aacd277bc73f14bedf6baff131999e32a" target="_top" xlink:title=" ">
<polygon fill="white" stroke="black" points="507,-146 507,-198 684,-198 684,-146 507,-146"/>
<text text-anchor="start" x="515" y="-186" font-family="Helvetica,sans-Serif" font-size="10.00">protobuf_container</text>
<text text-anchor="start" x="515" y="-175" font-family="Helvetica,sans-Serif" font-size="10.00">_5fmanager_2eproto::</text>
<text text-anchor="start" x="515" y="-164" font-family="Helvetica,sans-Serif" font-size="10.00">GOOGLE_PROTOBUF_ATTRIBUTE</text>
<text text-anchor="middle" x="595.5" y="-153" font-family="Helvetica,sans-Serif" font-size="10.00">_SECTION_VARIABLE</text>
</a>
</g>
</g>
<!-- Node3&#45;&gt;Node4 -->
<g id="edge3" class="edge">
<title>Node3&#45;&gt;Node4</title>
<path fill="none" stroke="midnightblue" d="M440.27,-96.51C459.04,-108.77 483.9,-124.2 507,-136 510.7,-137.89 514.53,-139.76 518.42,-141.59"/>
<polygon fill="midnightblue" stroke="midnightblue" points="517.03,-144.81 527.58,-145.8 519.95,-138.44 517.03,-144.81"/>
</g>
<!-- Node5 -->
<g id="node5" class="node">
<title>Node5</title>
<g id="a_node5"><a xlink:href="namespaceprotobuf__container__5fmanager__2eproto.html#a9046149bfa99ddca358e06cdd5040987" target="_top" xlink:title=" ">
<polygon fill="white" stroke="black" points="533.5,-85.5 533.5,-126.5 657.5,-126.5 657.5,-85.5 533.5,-85.5"/>
<text text-anchor="start" x="541.5" y="-114.5" font-family="Helvetica,sans-Serif" font-size="10.00">protobuf_container</text>
<text text-anchor="start" x="541.5" y="-103.5" font-family="Helvetica,sans-Serif" font-size="10.00">_5fmanager_2eproto::</text>
<text text-anchor="middle" x="595.5" y="-92.5" font-family="Helvetica,sans-Serif" font-size="10.00">InitDefaults</text>
</a>
</g>
</g>
<!-- Node3&#45;&gt;Node5 -->
<g id="edge4" class="edge">
<title>Node3&#45;&gt;Node5</title>
<path fill="none" stroke="midnightblue" d="M471.18,-85.95C487.93,-88.67 506.22,-91.65 523.47,-94.45"/>
<polygon fill="midnightblue" stroke="midnightblue" points="523.05,-97.93 533.49,-96.08 524.18,-91.02 523.05,-97.93"/>
</g>
<!-- Node6 -->
<g id="node6" class="node">
<title>Node6</title>
<g id="a_node6"><a xlink:href="namespaceprotobuf__container__5fmanager__2eproto.html#a43d9c82ec9dc3a58cbb8eae25c7aed5f" target="_top" xlink:title=" ">
<polygon fill="white" stroke="black" points="530,-25.5 530,-66.5 661,-66.5 661,-25.5 530,-25.5"/>
<text text-anchor="start" x="538" y="-54.5" font-family="Helvetica,sans-Serif" font-size="10.00">protobuf_container</text>
<text text-anchor="start" x="538" y="-43.5" font-family="Helvetica,sans-Serif" font-size="10.00">_5fmanager_2eproto::</text>
<text text-anchor="middle" x="595.5" y="-32.5" font-family="Helvetica,sans-Serif" font-size="10.00">protobuf_RegisterTypes</text>
</a>
</g>
</g>
<!-- Node3&#45;&gt;Node6 -->
<g id="edge5" class="edge">
<title>Node3&#45;&gt;Node6</title>
<path fill="none" stroke="midnightblue" d="M471.18,-66.05C486.73,-63.52 503.61,-60.78 519.75,-58.15"/>
<polygon fill="midnightblue" stroke="midnightblue" points="520.38,-61.6 529.69,-56.54 519.25,-54.69 520.38,-61.6"/>
</g>
<!-- Node7 -->
<g id="node7" class="node">
<title>Node7</title>
<g id="a_node7"><a xlink:href="namespaceprotobuf__container__5fmanager__2eproto.html#ab04c51c0072a4e45767b6a95c90b5b75" target="_top" xlink:title=" ">
<polygon fill="white" stroke="black" points="720,-0.5 720,-41.5 896,-41.5 896,-0.5 720,-0.5"/>
<text text-anchor="start" x="728" y="-29.5" font-family="Helvetica,sans-Serif" font-size="10.00">protobuf_container</text>
<text text-anchor="start" x="728" y="-18.5" font-family="Helvetica,sans-Serif" font-size="10.00">_5fmanager_2eproto::</text>
<text text-anchor="middle" x="808" y="-7.5" font-family="Helvetica,sans-Serif" font-size="10.00">protobuf_AssignDescriptorsOnce</text>
</a>
</g>
</g>
<!-- Node6&#45;&gt;Node7 -->
<g id="edge6" class="edge">
<title>Node6&#45;&gt;Node7</title>
<path fill="none" stroke="midnightblue" d="M661.09,-38.33C676.4,-36.51 693.07,-34.53 709.49,-32.58"/>
<polygon fill="midnightblue" stroke="midnightblue" points="710.14,-36.03 719.66,-31.37 709.32,-29.08 710.14,-36.03"/>
</g>
<!-- Node7&#45;&gt;Node1 -->
<g id="edge7" class="edge">
<title>Node7&#45;&gt;Node1</title>
<path fill="none" stroke="midnightblue" d="M719.99,-17.02C707.91,-16.6 695.65,-16.24 684,-16 463.16,-11.51 407.83,-11.01 187,-16 178.65,-16.19 169.95,-16.46 161.26,-16.77"/>
<polygon fill="midnightblue" stroke="midnightblue" points="160.94,-13.28 151.08,-17.17 161.21,-20.28 160.94,-13.28"/>
</g>
</g>
</svg>
