<?xml version="1.0" encoding="UTF-8" standalone="no"?>
<!DOCTYPE svg PUBLIC "-//W3C//DTD SVG 1.1//EN"
 "http://www.w3.org/Graphics/SVG/1.1/DTD/svg11.dtd">
<!-- Generated by graphviz version 2.43.0 (0)
 -->
<!-- Title: protobuf_container_5fmanager_2eproto::AddDescriptorsImpl Pages: 1 -->
<svg width="886pt" height="251pt"
 viewBox="0.00 0.00 886.00 250.50" xmlns="http://www.w3.org/2000/svg" xmlns:xlink="http://www.w3.org/1999/xlink">
<g id="graph0" class="graph" transform="scale(1 1) rotate(0) translate(4 246.5)">
<title>protobuf_container_5fmanager_2eproto::AddDescriptorsImpl</title>
<polygon fill="white" stroke="transparent" points="-4,4 -4,-246.5 882,-246.5 882,4 -4,4"/>
<!-- Node1 -->
<g id="node1" class="node">
<title>Node1</title>
<g id="a_node1"><a xlink:title=" ">
<polygon fill="#bfbfbf" stroke="black" points="754,-19.5 754,-60.5 878,-60.5 878,-19.5 754,-19.5"/>
<text text-anchor="start" x="762" y="-48.5" font-family="Helvetica,sans-Serif" font-size="10.00">protobuf_container</text>
<text text-anchor="start" x="762" y="-37.5" font-family="Helvetica,sans-Serif" font-size="10.00">_5fmanager_2eproto::</text>
<text text-anchor="middle" x="816" y="-26.5" font-family="Helvetica,sans-Serif" font-size="10.00">AddDescriptorsImpl</text>
</a>
</g>
</g>
<!-- Node2 -->
<g id="node2" class="node">
<title>Node2</title>
<g id="a_node2"><a xlink:href="namespaceprotobuf__container__5fmanager__2eproto.html#aa46eb85aa98c9a7df47e2ae1eb3c4730" target="_top" xlink:title=" ">
<polygon fill="white" stroke="black" points="594,-47.5 594,-88.5 718,-88.5 718,-47.5 594,-47.5"/>
<text text-anchor="start" x="602" y="-76.5" font-family="Helvetica,sans-Serif" font-size="10.00">protobuf_container</text>
<text text-anchor="start" x="602" y="-65.5" font-family="Helvetica,sans-Serif" font-size="10.00">_5fmanager_2eproto::</text>
<text text-anchor="middle" x="656" y="-54.5" font-family="Helvetica,sans-Serif" font-size="10.00">AddDescriptors</text>
</a>
</g>
</g>
<!-- Node1&#45;&gt;Node2 -->
<g id="edge1" class="edge">
<title>Node1&#45;&gt;Node2</title>
<path fill="none" stroke="midnightblue" d="M743.91,-52.6C735.33,-54.12 726.61,-55.66 718.18,-57.16"/>
<polygon fill="midnightblue" stroke="midnightblue" points="744.68,-56.02 753.91,-50.83 743.46,-49.12 744.68,-56.02"/>
</g>
<!-- Node3 -->
<g id="node3" class="node">
<title>Node3</title>
<g id="a_node3"><a xlink:href="namespaceprotobuf__container__5fmanager__2eproto.html#a0ee348abc5f8f24a77a8606492ccac72" target="_top" xlink:title=" ">
<polygon fill="white" stroke="black" points="407,-113.5 407,-154.5 558,-154.5 558,-113.5 407,-113.5"/>
<text text-anchor="start" x="415" y="-142.5" font-family="Helvetica,sans-Serif" font-size="10.00">protobuf_container</text>
<text text-anchor="start" x="415" y="-131.5" font-family="Helvetica,sans-Serif" font-size="10.00">_5fmanager_2eproto::</text>
<text text-anchor="middle" x="482.5" y="-120.5" font-family="Helvetica,sans-Serif" font-size="10.00">protobuf_AssignDescriptors</text>
</a>
</g>
</g>
<!-- Node2&#45;&gt;Node3 -->
<g id="edge2" class="edge">
<title>Node2&#45;&gt;Node3</title>
<path fill="none" stroke="midnightblue" d="M592.31,-92.13C574.09,-99.14 554.37,-106.73 536.79,-113.49"/>
<polygon fill="midnightblue" stroke="midnightblue" points="593.6,-95.38 601.68,-88.52 591.09,-88.85 593.6,-95.38"/>
</g>
<!-- Node10 -->
<g id="node10" class="node">
<title>Node10</title>
<g id="a_node10"><a xlink:href="structprotobuf__container__5fmanager__2eproto_1_1StaticDescriptorInitializer.html#af07c031db7d4f3e7017db34e2bd48ee4" target="_top" xlink:title=" ">
<polygon fill="white" stroke="black" points="409.5,-42 409.5,-94 555.5,-94 555.5,-42 409.5,-42"/>
<text text-anchor="start" x="417.5" y="-82" font-family="Helvetica,sans-Serif" font-size="10.00">protobuf_container</text>
<text text-anchor="start" x="417.5" y="-71" font-family="Helvetica,sans-Serif" font-size="10.00">_5fmanager_2eproto::</text>
<text text-anchor="start" x="417.5" y="-60" font-family="Helvetica,sans-Serif" font-size="10.00">StaticDescriptorInitializer</text>
<text text-anchor="middle" x="482.5" y="-49" font-family="Helvetica,sans-Serif" font-size="10.00">::StaticDescriptorInitializer</text>
</a>
</g>
</g>
<!-- Node2&#45;&gt;Node10 -->
<g id="edge10" class="edge">
<title>Node2&#45;&gt;Node10</title>
<path fill="none" stroke="midnightblue" d="M583.34,-68C574.17,-68 564.78,-68 555.61,-68"/>
<polygon fill="midnightblue" stroke="midnightblue" points="583.57,-71.5 593.57,-68 583.57,-64.5 583.57,-71.5"/>
</g>
<!-- Node4 -->
<g id="node4" class="node">
<title>Node4</title>
<g id="a_node4"><a xlink:href="namespaceprotobuf__container__5fmanager__2eproto.html#ab04c51c0072a4e45767b6a95c90b5b75" target="_top" xlink:title=" ">
<polygon fill="white" stroke="black" points="195,-110.5 195,-151.5 371,-151.5 371,-110.5 195,-110.5"/>
<text text-anchor="start" x="203" y="-139.5" font-family="Helvetica,sans-Serif" font-size="10.00">protobuf_container</text>
<text text-anchor="start" x="203" y="-128.5" font-family="Helvetica,sans-Serif" font-size="10.00">_5fmanager_2eproto::</text>
<text text-anchor="middle" x="283" y="-117.5" font-family="Helvetica,sans-Serif" font-size="10.00">protobuf_AssignDescriptorsOnce</text>
</a>
</g>
</g>
<!-- Node3&#45;&gt;Node4 -->
<g id="edge3" class="edge">
<title>Node3&#45;&gt;Node4</title>
<path fill="none" stroke="midnightblue" d="M396.59,-132.71C388.13,-132.58 379.53,-132.45 371.04,-132.32"/>
<polygon fill="midnightblue" stroke="midnightblue" points="396.78,-136.21 406.83,-132.87 396.89,-129.21 396.78,-136.21"/>
</g>
<!-- Node5 -->
<g id="node5" class="node">
<title>Node5</title>
<g id="a_node5"><a xlink:href="classcontainermanager_1_1ContainerParameters.html#a29590b6735a1f6df1fcb37f9496ce2f7" target="_top" xlink:title=" ">
<polygon fill="white" stroke="black" points="0,-212 0,-242 159,-242 159,-212 0,-212"/>
<text text-anchor="start" x="8" y="-230" font-family="Helvetica,sans-Serif" font-size="10.00">containermanager::Container</text>
<text text-anchor="middle" x="79.5" y="-219" font-family="Helvetica,sans-Serif" font-size="10.00">Parameters::descriptor</text>
</a>
</g>
</g>
<!-- Node4&#45;&gt;Node5 -->
<g id="edge4" class="edge">
<title>Node4&#45;&gt;Node5</title>
<path fill="none" stroke="midnightblue" d="M242.81,-157.11C219.25,-172 188.24,-190.18 159,-203 151.56,-206.26 143.54,-209.26 135.57,-211.95"/>
<polygon fill="midnightblue" stroke="midnightblue" points="244.92,-159.92 251.46,-151.58 241.15,-154.02 244.92,-159.92"/>
</g>
<!-- Node6 -->
<g id="node6" class="node">
<title>Node6</title>
<g id="a_node6"><a xlink:href="classcontainermanager_1_1ContainerRequest.html#ad421f0c7a4f285c1d10b8f12a07829fd" target="_top" xlink:title=" ">
<polygon fill="white" stroke="black" points="0,-163 0,-193 159,-193 159,-163 0,-163"/>
<text text-anchor="start" x="8" y="-181" font-family="Helvetica,sans-Serif" font-size="10.00">containermanager::Container</text>
<text text-anchor="middle" x="79.5" y="-170" font-family="Helvetica,sans-Serif" font-size="10.00">Request::descriptor</text>
</a>
</g>
</g>
<!-- Node4&#45;&gt;Node6 -->
<g id="edge5" class="edge">
<title>Node4&#45;&gt;Node6</title>
<path fill="none" stroke="midnightblue" d="M184.96,-153.63C171.42,-156.79 157.8,-159.97 145.06,-162.94"/>
<polygon fill="midnightblue" stroke="midnightblue" points="185.85,-157.02 194.79,-151.34 184.26,-150.2 185.85,-157.02"/>
</g>
<!-- Node7 -->
<g id="node7" class="node">
<title>Node7</title>
<g id="a_node7"><a xlink:href="classcontainermanager_1_1ContainerParameters.html#ab92d4d1f1a07768698521d2a69b5433c" target="_top" xlink:title=" ">
<polygon fill="white" stroke="black" points="0,-114 0,-144 159,-144 159,-114 0,-114"/>
<text text-anchor="start" x="8" y="-132" font-family="Helvetica,sans-Serif" font-size="10.00">containermanager::Container</text>
<text text-anchor="middle" x="79.5" y="-121" font-family="Helvetica,sans-Serif" font-size="10.00">Parameters::GetMetadata</text>
</a>
</g>
</g>
<!-- Node4&#45;&gt;Node7 -->
<g id="edge6" class="edge">
<title>Node4&#45;&gt;Node7</title>
<path fill="none" stroke="midnightblue" d="M184.78,-130.04C176.23,-129.95 167.65,-129.87 159.28,-129.78"/>
<polygon fill="midnightblue" stroke="midnightblue" points="184.76,-133.53 194.79,-130.13 184.83,-126.54 184.76,-133.53"/>
</g>
<!-- Node8 -->
<g id="node8" class="node">
<title>Node8</title>
<g id="a_node8"><a xlink:href="classcontainermanager_1_1ContainerRequest.html#ad8b3c1cc0d32bd4a2bbaaa475045754f" target="_top" xlink:title=" ">
<polygon fill="white" stroke="black" points="0,-65 0,-95 159,-95 159,-65 0,-65"/>
<text text-anchor="start" x="8" y="-83" font-family="Helvetica,sans-Serif" font-size="10.00">containermanager::Container</text>
<text text-anchor="middle" x="79.5" y="-72" font-family="Helvetica,sans-Serif" font-size="10.00">Request::GetMetadata</text>
</a>
</g>
</g>
<!-- Node4&#45;&gt;Node8 -->
<g id="edge7" class="edge">
<title>Node4&#45;&gt;Node8</title>
<path fill="none" stroke="midnightblue" d="M190.83,-107.92C173.6,-103.56 155.99,-99.11 140.05,-95.07"/>
<polygon fill="midnightblue" stroke="midnightblue" points="190.36,-111.42 200.91,-110.48 192.08,-104.63 190.36,-111.42"/>
</g>
<!-- Node9 -->
<g id="node9" class="node">
<title>Node9</title>
<g id="a_node9"><a xlink:href="namespaceprotobuf__container__5fmanager__2eproto.html#a43d9c82ec9dc3a58cbb8eae25c7aed5f" target="_top" xlink:title=" ">
<polygon fill="white" stroke="black" points="14,-0.5 14,-41.5 145,-41.5 145,-0.5 14,-0.5"/>
<text text-anchor="start" x="22" y="-29.5" font-family="Helvetica,sans-Serif" font-size="10.00">protobuf_container</text>
<text text-anchor="start" x="22" y="-18.5" font-family="Helvetica,sans-Serif" font-size="10.00">_5fmanager_2eproto::</text>
<text text-anchor="middle" x="79.5" y="-7.5" font-family="Helvetica,sans-Serif" font-size="10.00">protobuf_RegisterTypes</text>
</a>
</g>
</g>
<!-- Node4&#45;&gt;Node9 -->
<g id="edge8" class="edge">
<title>Node4&#45;&gt;Node9</title>
<path fill="none" stroke="midnightblue" d="M242.08,-104.86C218.37,-89.8 187.47,-70.95 159,-56 149.49,-51.01 139.12,-46.05 129.12,-41.51"/>
<polygon fill="midnightblue" stroke="midnightblue" points="240.48,-108 250.79,-110.44 244.25,-102.1 240.48,-108"/>
</g>
<!-- Node9&#45;&gt;Node1 -->
<g id="edge9" class="edge">
<title>Node9&#45;&gt;Node1</title>
<path fill="none" stroke="midnightblue" d="M155.65,-22.84C249.71,-25.15 415.77,-29.28 558,-33 625.04,-34.76 701.92,-36.86 753.99,-38.3"/>
<polygon fill="midnightblue" stroke="midnightblue" points="155.46,-19.33 145.38,-22.59 155.29,-26.33 155.46,-19.33"/>
</g>
</g>
</svg>
