<?xml version="1.0" encoding="UTF-8" standalone="no"?>
<!DOCTYPE svg PUBLIC "-//W3C//DTD SVG 1.1//EN"
 "http://www.w3.org/Graphics/SVG/1.1/DTD/svg11.dtd">
<!-- Generated by graphviz version 2.43.0 (0)
 -->
<!-- Title: protobuf_container_5fmanager_2eproto::AddDescriptorsImpl Pages: 1 -->
<svg width="904pt" height="226pt"
 viewBox="0.00 0.00 904.00 225.87" xmlns="http://www.w3.org/2000/svg" xmlns:xlink="http://www.w3.org/1999/xlink">
<g id="graph0" class="graph" transform="scale(1 1) rotate(0) translate(4 221.87)">
<title>protobuf_container_5fmanager_2eproto::AddDescriptorsImpl</title>
<polygon fill="white" stroke="transparent" points="-4,4 -4,-221.87 900,-221.87 900,4 -4,4"/>
<!-- Node1 -->
<g id="node1" class="node">
<title>Node1</title>
<g id="a_node1"><a xlink:title=" ">
<polygon fill="#bfbfbf" stroke="black" points="0,-74.87 0,-115.87 124,-115.87 124,-74.87 0,-74.87"/>
<text text-anchor="start" x="8" y="-103.87" font-family="Helvetica,sans-Serif" font-size="10.00">protobuf_container</text>
<text text-anchor="start" x="8" y="-92.87" font-family="Helvetica,sans-Serif" font-size="10.00">_5fmanager_2eproto::</text>
<text text-anchor="middle" x="62" y="-81.87" font-family="Helvetica,sans-Serif" font-size="10.00">AddDescriptorsImpl</text>
</a>
</g>
</g>
<!-- Node2 -->
<g id="node2" class="node">
<title>Node2</title>
<g id="a_node2"><a xlink:href="namespaceprotobuf__container__5fmanager__2eproto.html#aacd277bc73f14bedf6baff131999e32a" target="_top" xlink:title=" ">
<polygon fill="white" stroke="black" points="160,-165.37 160,-217.37 337,-217.37 337,-165.37 160,-165.37"/>
<text text-anchor="start" x="168" y="-205.37" font-family="Helvetica,sans-Serif" font-size="10.00">protobuf_container</text>
<text text-anchor="start" x="168" y="-194.37" font-family="Helvetica,sans-Serif" font-size="10.00">_5fmanager_2eproto::</text>
<text text-anchor="start" x="168" y="-183.37" font-family="Helvetica,sans-Serif" font-size="10.00">GOOGLE_PROTOBUF_ATTRIBUTE</text>
<text text-anchor="middle" x="248.5" y="-172.37" font-family="Helvetica,sans-Serif" font-size="10.00">_SECTION_VARIABLE</text>
</a>
</g>
</g>
<!-- Node1&#45;&gt;Node2 -->
<g id="edge1" class="edge">
<title>Node1&#45;&gt;Node2</title>
<path fill="none" stroke="midnightblue" d="M93.27,-115.88C112.04,-128.14 136.9,-143.58 160,-155.37 163.7,-157.26 167.53,-159.13 171.42,-160.97"/>
<polygon fill="midnightblue" stroke="midnightblue" points="170.03,-164.18 180.58,-165.17 172.95,-157.82 170.03,-164.18"/>
</g>
<!-- Node3 -->
<g id="node3" class="node">
<title>Node3</title>
<g id="a_node3"><a xlink:href="namespaceprotobuf__container__5fmanager__2eproto.html#a9046149bfa99ddca358e06cdd5040987" target="_top" xlink:title=" ">
<polygon fill="white" stroke="black" points="186.5,-104.87 186.5,-145.87 310.5,-145.87 310.5,-104.87 186.5,-104.87"/>
<text text-anchor="start" x="194.5" y="-133.87" font-family="Helvetica,sans-Serif" font-size="10.00">protobuf_container</text>
<text text-anchor="start" x="194.5" y="-122.87" font-family="Helvetica,sans-Serif" font-size="10.00">_5fmanager_2eproto::</text>
<text text-anchor="middle" x="248.5" y="-111.87" font-family="Helvetica,sans-Serif" font-size="10.00">InitDefaults</text>
</a>
</g>
</g>
<!-- Node1&#45;&gt;Node3 -->
<g id="edge2" class="edge">
<title>Node1&#45;&gt;Node3</title>
<path fill="none" stroke="midnightblue" d="M124.18,-105.32C140.93,-108.04 159.22,-111.02 176.47,-113.82"/>
<polygon fill="midnightblue" stroke="midnightblue" points="176.05,-117.3 186.49,-115.45 177.18,-110.39 176.05,-117.3"/>
</g>
<!-- Node4 -->
<g id="node4" class="node">
<title>Node4</title>
<g id="a_node4"><a xlink:href="namespaceprotobuf__container__5fmanager__2eproto.html#a43d9c82ec9dc3a58cbb8eae25c7aed5f" target="_top" xlink:title=" ">
<polygon fill="white" stroke="black" points="183,-44.87 183,-85.87 314,-85.87 314,-44.87 183,-44.87"/>
<text text-anchor="start" x="191" y="-73.87" font-family="Helvetica,sans-Serif" font-size="10.00">protobuf_container</text>
<text text-anchor="start" x="191" y="-62.87" font-family="Helvetica,sans-Serif" font-size="10.00">_5fmanager_2eproto::</text>
<text text-anchor="middle" x="248.5" y="-51.87" font-family="Helvetica,sans-Serif" font-size="10.00">protobuf_RegisterTypes</text>
</a>
</g>
</g>
<!-- Node1&#45;&gt;Node4 -->
<g id="edge3" class="edge">
<title>Node1&#45;&gt;Node4</title>
<path fill="none" stroke="midnightblue" d="M124.18,-85.42C139.73,-82.9 156.61,-80.15 172.75,-77.53"/>
<polygon fill="midnightblue" stroke="midnightblue" points="173.38,-80.97 182.69,-75.91 172.25,-74.06 173.38,-80.97"/>
</g>
<!-- Node5 -->
<g id="node5" class="node">
<title>Node5</title>
<g id="a_node5"><a xlink:href="namespaceprotobuf__container__5fmanager__2eproto.html#ab04c51c0072a4e45767b6a95c90b5b75" target="_top" xlink:title=" ">
<polygon fill="white" stroke="black" points="373,-44.87 373,-85.87 549,-85.87 549,-44.87 373,-44.87"/>
<text text-anchor="start" x="381" y="-73.87" font-family="Helvetica,sans-Serif" font-size="10.00">protobuf_container</text>
<text text-anchor="start" x="381" y="-62.87" font-family="Helvetica,sans-Serif" font-size="10.00">_5fmanager_2eproto::</text>
<text text-anchor="middle" x="461" y="-51.87" font-family="Helvetica,sans-Serif" font-size="10.00">protobuf_AssignDescriptorsOnce</text>
</a>
</g>
</g>
<!-- Node4&#45;&gt;Node5 -->
<g id="edge4" class="edge">
<title>Node4&#45;&gt;Node5</title>
<path fill="none" stroke="midnightblue" d="M314.09,-65.37C329.4,-65.37 346.07,-65.37 362.49,-65.37"/>
<polygon fill="midnightblue" stroke="midnightblue" points="362.66,-68.87 372.66,-65.37 362.66,-61.87 362.66,-68.87"/>
</g>
<!-- Node6 -->
<g id="node6" class="node">
<title>Node6</title>
<g id="a_node6"><a xlink:href="namespaceprotobuf__container__5fmanager__2eproto.html#a0ee348abc5f8f24a77a8606492ccac72" target="_top" xlink:title=" ">
<polygon fill="white" stroke="black" points="585,-44.87 585,-85.87 736,-85.87 736,-44.87 585,-44.87"/>
<text text-anchor="start" x="593" y="-73.87" font-family="Helvetica,sans-Serif" font-size="10.00">protobuf_container</text>
<text text-anchor="start" x="593" y="-62.87" font-family="Helvetica,sans-Serif" font-size="10.00">_5fmanager_2eproto::</text>
<text text-anchor="middle" x="660.5" y="-51.87" font-family="Helvetica,sans-Serif" font-size="10.00">protobuf_AssignDescriptors</text>
</a>
</g>
</g>
<!-- Node5&#45;&gt;Node6 -->
<g id="edge5" class="edge">
<title>Node5&#45;&gt;Node6</title>
<path fill="none" stroke="midnightblue" d="M549.2,-65.37C557.65,-65.37 566.21,-65.37 574.64,-65.37"/>
<polygon fill="midnightblue" stroke="midnightblue" points="574.83,-68.87 584.83,-65.37 574.83,-61.87 574.83,-68.87"/>
</g>
<!-- Node7 -->
<g id="node7" class="node">
<title>Node7</title>
<g id="a_node7"><a xlink:href="namespaceprotobuf__container__5fmanager__2eproto.html#aa46eb85aa98c9a7df47e2ae1eb3c4730" target="_top" xlink:title=" ">
<polygon fill="white" stroke="black" points="772,-19.87 772,-60.87 896,-60.87 896,-19.87 772,-19.87"/>
<text text-anchor="start" x="780" y="-48.87" font-family="Helvetica,sans-Serif" font-size="10.00">protobuf_container</text>
<text text-anchor="start" x="780" y="-37.87" font-family="Helvetica,sans-Serif" font-size="10.00">_5fmanager_2eproto::</text>
<text text-anchor="middle" x="834" y="-26.87" font-family="Helvetica,sans-Serif" font-size="10.00">AddDescriptors</text>
</a>
</g>
</g>
<!-- Node6&#45;&gt;Node7 -->
<g id="edge6" class="edge">
<title>Node6&#45;&gt;Node7</title>
<path fill="none" stroke="midnightblue" d="M736.22,-54.48C744.69,-53.25 753.31,-51.99 761.74,-50.76"/>
<polygon fill="midnightblue" stroke="midnightblue" points="762.5,-54.19 771.89,-49.28 761.49,-47.26 762.5,-54.19"/>
</g>
<!-- Node7&#45;&gt;Node1 -->
<g id="edge7" class="edge">
<title>Node7&#45;&gt;Node1</title>
<path fill="none" stroke="midnightblue" d="M771.6,-28.65C651.4,-8.13 377.76,26.53 160,-35.37 136.76,-41.98 113.63,-55.92 95.79,-68.7"/>
<polygon fill="midnightblue" stroke="midnightblue" points="93.44,-66.09 87.48,-74.85 97.61,-71.72 93.44,-66.09"/>
</g>
</g>
</svg>
