<?xml version="1.0" encoding="UTF-8" standalone="no"?>
<!DOCTYPE svg PUBLIC "-//W3C//DTD SVG 1.1//EN"
 "http://www.w3.org/Graphics/SVG/1.1/DTD/svg11.dtd">
<!-- Generated by graphviz version 2.43.0 (0)
 -->
<!-- Title: security/inc/null_security_provider.hpp Pages: 1 -->
<svg width="148pt" height="151pt"
 viewBox="0.00 0.00 148.00 151.00" xmlns="http://www.w3.org/2000/svg" xmlns:xlink="http://www.w3.org/1999/xlink">
<g id="graph0" class="graph" transform="scale(1 1) rotate(0) translate(4 147)">
<title>security/inc/null_security_provider.hpp</title>
<polygon fill="white" stroke="transparent" points="-4,4 -4,-147 144,-147 144,4 -4,4"/>
<!-- Node1 -->
<g id="node1" class="node">
<title>Node1</title>
<g id="a_node1"><a xlink:title="Declares the NullSecurityProvider class for the &quot;no encryption&quot; case.">
<polygon fill="#bfbfbf" stroke="black" points="1,-112.5 1,-142.5 139,-142.5 139,-112.5 1,-112.5"/>
<text text-anchor="start" x="9" y="-130.5" font-family="Helvetica,sans-Serif" font-size="10.00">security/inc/null_security</text>
<text text-anchor="middle" x="70" y="-119.5" font-family="Helvetica,sans-Serif" font-size="10.00">_provider.hpp</text>
</a>
</g>
</g>
<!-- Node2 -->
<g id="node2" class="node">
<title>Node2</title>
<g id="a_node2"><a xlink:href="security__provider_8hpp.html" target="_top" xlink:title="Declares the ISecurityProvider abstract interface for encryption/decryption.">
<polygon fill="white" stroke="black" points="0,-56.5 0,-75.5 140,-75.5 140,-56.5 0,-56.5"/>
<text text-anchor="middle" x="70" y="-63.5" font-family="Helvetica,sans-Serif" font-size="10.00">inc/security_provider.hpp</text>
</a>
</g>
</g>
<!-- Node1&#45;&gt;Node2 -->
<g id="edge1" class="edge">
<title>Node1&#45;&gt;Node2</title>
<path fill="none" stroke="midnightblue" d="M70,-112.4C70,-104.47 70,-94.46 70,-85.86"/>
<polygon fill="midnightblue" stroke="midnightblue" points="73.5,-85.66 70,-75.66 66.5,-85.66 73.5,-85.66"/>
</g>
<!-- Node3 -->
<g id="node3" class="node">
<title>Node3</title>
<g id="a_node3"><a xlink:title=" ">
<polygon fill="white" stroke="#bfbfbf" points="48,-0.5 48,-19.5 92,-19.5 92,-0.5 48,-0.5"/>
<text text-anchor="middle" x="70" y="-7.5" font-family="Helvetica,sans-Serif" font-size="10.00">string</text>
</a>
</g>
</g>
<!-- Node2&#45;&gt;Node3 -->
<g id="edge2" class="edge">
<title>Node2&#45;&gt;Node3</title>
<path fill="none" stroke="midnightblue" d="M70,-56.08C70,-49.01 70,-38.86 70,-29.99"/>
<polygon fill="midnightblue" stroke="midnightblue" points="73.5,-29.75 70,-19.75 66.5,-29.75 73.5,-29.75"/>
</g>
</g>
</svg>
