<?xml version="1.0" encoding="UTF-8" standalone="no"?>
<!DOCTYPE svg PUBLIC "-//W3C//DTD SVG 1.1//EN"
 "http://www.w3.org/Graphics/SVG/1.1/DTD/svg11.dtd">
<!-- Generated by graphviz version 2.43.0 (0)
 -->
<!-- Title: security/inc/null_security_provider.hpp Pages: 1 -->
<svg width="226pt" height="106pt"
 viewBox="0.00 0.00 226.00 106.00" xmlns="http://www.w3.org/2000/svg" xmlns:xlink="http://www.w3.org/1999/xlink">
<g id="graph0" class="graph" transform="scale(1 1) rotate(0) translate(4 102)">
<title>security/inc/null_security_provider.hpp</title>
<polygon fill="white" stroke="transparent" points="-4,4 -4,-102 222,-102 222,4 -4,4"/>
<!-- Node1 -->
<g id="node1" class="node">
<title>Node1</title>
<g id="a_node1"><a xlink:title="Declares the NullSecurityProvider class for the &quot;no encryption&quot; case.">
<polygon fill="#bfbfbf" stroke="black" points="21,-67.5 21,-97.5 159,-97.5 159,-67.5 21,-67.5"/>
<text text-anchor="start" x="29" y="-85.5" font-family="Helvetica,sans-Serif" font-size="10.00">security/inc/null_security</text>
<text text-anchor="middle" x="90" y="-74.5" font-family="Helvetica,sans-Serif" font-size="10.00">_provider.hpp</text>
</a>
</g>
</g>
<!-- Node2 -->
<g id="node2" class="node">
<title>Node2</title>
<g id="a_node2"><a xlink:href="main_8cpp.html" target="_top" xlink:title="Entry point for the Container Manager service.">
<polygon fill="white" stroke="black" points="0,-6 0,-25 62,-25 62,-6 0,-6"/>
<text text-anchor="middle" x="31" y="-13" font-family="Helvetica,sans-Serif" font-size="10.00">main.cpp</text>
</a>
</g>
</g>
<!-- Node1&#45;&gt;Node2 -->
<g id="edge1" class="edge">
<title>Node1&#45;&gt;Node2</title>
<path fill="none" stroke="midnightblue" d="M70.17,-59.66C59.47,-47.86 46.85,-33.97 38.89,-25.19"/>
<polygon fill="midnightblue" stroke="midnightblue" points="67.89,-62.34 77.2,-67.4 73.07,-57.64 67.89,-62.34"/>
</g>
<!-- Node3 -->
<g id="node3" class="node">
<title>Node3</title>
<g id="a_node3"><a xlink:href="null__security__provider_8cpp.html" target="_top" xlink:title="Implementation of the NullSecurityProvider class for the &quot;no encryption&quot; case.">
<polygon fill="white" stroke="black" points="80,-0.5 80,-30.5 218,-30.5 218,-0.5 80,-0.5"/>
<text text-anchor="start" x="88" y="-18.5" font-family="Helvetica,sans-Serif" font-size="10.00">security/src/null_security</text>
<text text-anchor="middle" x="149" y="-7.5" font-family="Helvetica,sans-Serif" font-size="10.00">_provider.cpp</text>
</a>
</g>
</g>
<!-- Node1&#45;&gt;Node3 -->
<g id="edge2" class="edge">
<title>Node1&#45;&gt;Node3</title>
<path fill="none" stroke="midnightblue" d="M109.75,-59.74C118.48,-50.12 128.5,-39.09 136.22,-30.58"/>
<polygon fill="midnightblue" stroke="midnightblue" points="106.93,-57.64 102.8,-67.4 112.11,-62.34 106.93,-57.64"/>
</g>
</g>
</svg>
