<?xml version="1.0" encoding="UTF-8" standalone="no"?>
<!DOCTYPE svg PUBLIC "-//W3C//DTD SVG 1.1//EN"
 "http://www.w3.org/Graphics/SVG/1.1/DTD/svg11.dtd">
<!-- Generated by graphviz version 2.43.0 (0)
 -->
<!-- Title: security/src/null_security_provider.cpp Pages: 1 -->
<svg width="171pt" height="207pt"
 viewBox="0.00 0.00 171.00 207.00" xmlns="http://www.w3.org/2000/svg" xmlns:xlink="http://www.w3.org/1999/xlink">
<g id="graph0" class="graph" transform="scale(1 1) rotate(0) translate(4 203)">
<title>security/src/null_security_provider.cpp</title>
<polygon fill="white" stroke="transparent" points="-4,4 -4,-203 167,-203 167,4 -4,4"/>
<!-- Node1 -->
<g id="node1" class="node">
<title>Node1</title>
<g id="a_node1"><a xlink:title="Implementation of the NullSecurityProvider class for the &quot;no encryption&quot; case.">
<polygon fill="#bfbfbf" stroke="black" points="12.5,-168.5 12.5,-198.5 150.5,-198.5 150.5,-168.5 12.5,-168.5"/>
<text text-anchor="start" x="20.5" y="-186.5" font-family="Helvetica,sans-Serif" font-size="10.00">security/src/null_security</text>
<text text-anchor="middle" x="81.5" y="-175.5" font-family="Helvetica,sans-Serif" font-size="10.00">_provider.cpp</text>
</a>
</g>
</g>
<!-- Node2 -->
<g id="node2" class="node">
<title>Node2</title>
<g id="a_node2"><a xlink:href="null__security__provider_8hpp.html" target="_top" xlink:title="Declares the NullSecurityProvider class for the &quot;no encryption&quot; case.">
<polygon fill="white" stroke="black" points="0,-112.5 0,-131.5 163,-131.5 163,-112.5 0,-112.5"/>
<text text-anchor="middle" x="81.5" y="-119.5" font-family="Helvetica,sans-Serif" font-size="10.00">inc/null_security_provider.hpp</text>
</a>
</g>
</g>
<!-- Node1&#45;&gt;Node2 -->
<g id="edge1" class="edge">
<title>Node1&#45;&gt;Node2</title>
<path fill="none" stroke="midnightblue" d="M81.5,-168.4C81.5,-160.47 81.5,-150.46 81.5,-141.86"/>
<polygon fill="midnightblue" stroke="midnightblue" points="85,-141.66 81.5,-131.66 78,-141.66 85,-141.66"/>
</g>
<!-- Node3 -->
<g id="node3" class="node">
<title>Node3</title>
<g id="a_node3"><a xlink:href="security__provider_8hpp.html" target="_top" xlink:title="Declares the ISecurityProvider abstract interface for encryption/decryption.">
<polygon fill="white" stroke="black" points="11.5,-56.5 11.5,-75.5 151.5,-75.5 151.5,-56.5 11.5,-56.5"/>
<text text-anchor="middle" x="81.5" y="-63.5" font-family="Helvetica,sans-Serif" font-size="10.00">inc/security_provider.hpp</text>
</a>
</g>
</g>
<!-- Node2&#45;&gt;Node3 -->
<g id="edge2" class="edge">
<title>Node2&#45;&gt;Node3</title>
<path fill="none" stroke="midnightblue" d="M81.5,-112.08C81.5,-105.01 81.5,-94.86 81.5,-85.99"/>
<polygon fill="midnightblue" stroke="midnightblue" points="85,-85.75 81.5,-75.75 78,-85.75 85,-85.75"/>
</g>
<!-- Node4 -->
<g id="node4" class="node">
<title>Node4</title>
<g id="a_node4"><a xlink:title=" ">
<polygon fill="white" stroke="#bfbfbf" points="59.5,-0.5 59.5,-19.5 103.5,-19.5 103.5,-0.5 59.5,-0.5"/>
<text text-anchor="middle" x="81.5" y="-7.5" font-family="Helvetica,sans-Serif" font-size="10.00">string</text>
</a>
</g>
</g>
<!-- Node3&#45;&gt;Node4 -->
<g id="edge3" class="edge">
<title>Node3&#45;&gt;Node4</title>
<path fill="none" stroke="midnightblue" d="M81.5,-56.08C81.5,-49.01 81.5,-38.86 81.5,-29.99"/>
<polygon fill="midnightblue" stroke="midnightblue" points="85,-29.75 81.5,-19.75 78,-29.75 85,-29.75"/>
</g>
</g>
</svg>
