<?xml version="1.0" encoding="UTF-8" standalone="no"?>
<!DOCTYPE svg PUBLIC "-//W3C//DTD SVG 1.1//EN"
 "http://www.w3.org/Graphics/SVG/1.1/DTD/svg11.dtd">
<!-- Generated by graphviz version 2.43.0 (0)
 -->
<!-- Title: runtime/src/podman_commands.cpp Pages: 1 -->
<svg width="732pt" height="263pt"
 viewBox="0.00 0.00 731.83 263.00" xmlns="http://www.w3.org/2000/svg" xmlns:xlink="http://www.w3.org/1999/xlink">
<g id="graph0" class="graph" transform="scale(1 1) rotate(0) translate(4 259)">
<title>runtime/src/podman_commands.cpp</title>
<polygon fill="white" stroke="transparent" points="-4,4 -4,-259 727.83,-259 727.83,4 -4,4"/>
<!-- Node1 -->
<g id="node1" class="node">
<title>Node1</title>
<g id="a_node1"><a xlink:title="Implements Podman command classes for container operations.">
<polygon fill="#bfbfbf" stroke="black" points="292.33,-224.5 292.33,-254.5 407.33,-254.5 407.33,-224.5 292.33,-224.5"/>
<text text-anchor="start" x="300.33" y="-242.5" font-family="Helvetica,sans-Serif" font-size="10.00">runtime/src/podman</text>
<text text-anchor="middle" x="349.83" y="-231.5" font-family="Helvetica,sans-Serif" font-size="10.00">_commands.cpp</text>
</a>
</g>
</g>
<!-- Node2 -->
<g id="node2" class="node">
<title>Node2</title>
<g id="a_node2"><a xlink:href="podman__commands_8hpp.html" target="_top" xlink:title="Declares Podman command classes for container operations.">
<polygon fill="white" stroke="black" points="54.83,-168.5 54.83,-187.5 208.83,-187.5 208.83,-168.5 54.83,-168.5"/>
<text text-anchor="middle" x="131.83" y="-175.5" font-family="Helvetica,sans-Serif" font-size="10.00">inc/podman_commands.hpp</text>
</a>
</g>
</g>
<!-- Node1&#45;&gt;Node2 -->
<g id="edge1" class="edge">
<title>Node1&#45;&gt;Node2</title>
<path fill="none" stroke="midnightblue" d="M298.45,-224.47C260.18,-214.03 208.62,-199.96 173.04,-190.25"/>
<polygon fill="midnightblue" stroke="midnightblue" points="173.57,-186.76 163,-187.51 171.72,-193.52 173.57,-186.76"/>
</g>
<!-- Node8 -->
<g id="node8" class="node">
<title>Node8</title>
<g id="a_node8"><a xlink:title=" ">
<polygon fill="white" stroke="#bfbfbf" points="227.33,-168.5 227.33,-187.5 276.33,-187.5 276.33,-168.5 227.33,-168.5"/>
<text text-anchor="middle" x="251.83" y="-175.5" font-family="Helvetica,sans-Serif" font-size="10.00">cstdlib</text>
</a>
</g>
</g>
<!-- Node1&#45;&gt;Node8 -->
<g id="edge12" class="edge">
<title>Node1&#45;&gt;Node8</title>
<path fill="none" stroke="midnightblue" d="M326.61,-224.4C311.05,-214.95 290.63,-202.56 275.07,-193.11"/>
<polygon fill="midnightblue" stroke="midnightblue" points="276.46,-189.86 266.09,-187.66 272.82,-195.84 276.46,-189.86"/>
</g>
<!-- Node9 -->
<g id="node9" class="node">
<title>Node9</title>
<g id="a_node9"><a xlink:title=" ">
<polygon fill="white" stroke="#bfbfbf" points="294.83,-168.5 294.83,-187.5 404.83,-187.5 404.83,-168.5 294.83,-168.5"/>
<text text-anchor="middle" x="349.83" y="-175.5" font-family="Helvetica,sans-Serif" font-size="10.00">nlohmann/json.hpp</text>
</a>
</g>
</g>
<!-- Node1&#45;&gt;Node9 -->
<g id="edge13" class="edge">
<title>Node1&#45;&gt;Node9</title>
<path fill="none" stroke="midnightblue" d="M349.83,-224.4C349.83,-216.47 349.83,-206.46 349.83,-197.86"/>
<polygon fill="midnightblue" stroke="midnightblue" points="353.33,-197.66 349.83,-187.66 346.33,-197.66 353.33,-197.66"/>
</g>
<!-- Node10 -->
<g id="node10" class="node">
<title>Node10</title>
<g id="a_node10"><a xlink:href="common_8hpp.html" target="_top" xlink:title="Defines common constants, string views, and utility structures for the application.">
<polygon fill="white" stroke="black" points="422.83,-168.5 422.83,-187.5 520.83,-187.5 520.83,-168.5 422.83,-168.5"/>
<text text-anchor="middle" x="471.83" y="-175.5" font-family="Helvetica,sans-Serif" font-size="10.00">inc/common.hpp</text>
</a>
</g>
</g>
<!-- Node1&#45;&gt;Node10 -->
<g id="edge14" class="edge">
<title>Node1&#45;&gt;Node10</title>
<path fill="none" stroke="midnightblue" d="M378.74,-224.4C398.85,-214.59 425.45,-201.62 445.07,-192.05"/>
<polygon fill="midnightblue" stroke="midnightblue" points="446.63,-195.19 454.08,-187.66 443.56,-188.9 446.63,-195.19"/>
</g>
<!-- Node13 -->
<g id="node13" class="node">
<title>Node13</title>
<g id="a_node13"><a xlink:href="logging_8hpp.html" target="_top" xlink:title="Logging macros and configuration for the Container Manager.">
<polygon fill="white" stroke="black" points="587.33,-168.5 587.33,-187.5 678.33,-187.5 678.33,-168.5 587.33,-168.5"/>
<text text-anchor="middle" x="632.83" y="-175.5" font-family="Helvetica,sans-Serif" font-size="10.00">inc/logging.hpp</text>
</a>
</g>
</g>
<!-- Node1&#45;&gt;Node13 -->
<g id="edge18" class="edge">
<title>Node1&#45;&gt;Node13</title>
<path fill="none" stroke="midnightblue" d="M407.44,-226.39C458.74,-215.6 533.06,-199.98 582.14,-189.66"/>
<polygon fill="midnightblue" stroke="midnightblue" points="583.15,-193.02 592.22,-187.54 581.71,-186.17 583.15,-193.02"/>
</g>
<!-- Node3 -->
<g id="node3" class="node">
<title>Node3</title>
<g id="a_node3"><a xlink:title=" ">
<polygon fill="white" stroke="#bfbfbf" points="108.83,-0.5 108.83,-19.5 152.83,-19.5 152.83,-0.5 108.83,-0.5"/>
<text text-anchor="middle" x="130.83" y="-7.5" font-family="Helvetica,sans-Serif" font-size="10.00">string</text>
</a>
</g>
</g>
<!-- Node2&#45;&gt;Node3 -->
<g id="edge2" class="edge">
<title>Node2&#45;&gt;Node3</title>
<path fill="none" stroke="midnightblue" d="M109.7,-168.42C65.61,-150.04 -26.12,-104.57 7.83,-56 28.14,-26.95 69.31,-16.59 98.41,-12.94"/>
<polygon fill="midnightblue" stroke="midnightblue" points="98.95,-16.4 108.53,-11.87 98.22,-9.44 98.95,-16.4"/>
</g>
<!-- Node4 -->
<g id="node4" class="node">
<title>Node4</title>
<g id="a_node4"><a xlink:title=" ">
<polygon fill="white" stroke="#bfbfbf" points="158.83,-56.5 158.83,-75.5 216.83,-75.5 216.83,-56.5 158.83,-56.5"/>
<text text-anchor="middle" x="187.83" y="-63.5" font-family="Helvetica,sans-Serif" font-size="10.00">memory</text>
</a>
</g>
</g>
<!-- Node2&#45;&gt;Node4 -->
<g id="edge3" class="edge">
<title>Node2&#45;&gt;Node4</title>
<path fill="none" stroke="midnightblue" d="M152.05,-168.49C166.6,-161.17 185.13,-149.06 193.83,-132 201.22,-117.5 198.43,-98.81 194.56,-85.2"/>
<polygon fill="midnightblue" stroke="midnightblue" points="197.84,-83.96 191.39,-75.55 191.19,-86.14 197.84,-83.96"/>
</g>
<!-- Node5 -->
<g id="node5" class="node">
<title>Node5</title>
<g id="a_node5"><a xlink:href="status_8hpp.html" target="_top" xlink:title="Defines status codes and a Status struct for standardized error handling.">
<polygon fill="white" stroke="black" points="17.33,-56.5 17.33,-75.5 102.33,-75.5 102.33,-56.5 17.33,-56.5"/>
<text text-anchor="middle" x="59.83" y="-63.5" font-family="Helvetica,sans-Serif" font-size="10.00">inc/status.hpp</text>
</a>
</g>
</g>
<!-- Node2&#45;&gt;Node5 -->
<g id="edge4" class="edge">
<title>Node2&#45;&gt;Node5</title>
<path fill="none" stroke="midnightblue" d="M111.19,-168.45C96.23,-161.1 76.93,-148.99 66.83,-132 58.59,-118.13 57.34,-99.61 57.86,-85.89"/>
<polygon fill="midnightblue" stroke="midnightblue" points="61.37,-85.93 58.6,-75.7 54.39,-85.42 61.37,-85.93"/>
</g>
<!-- Node6 -->
<g id="node6" class="node">
<title>Node6</title>
<g id="a_node6"><a xlink:href="commands_8hpp.html" target="_top" xlink:title="Declares the Command interface and Invoker class for the command pattern.">
<polygon fill="white" stroke="black" points="76.33,-112.5 76.33,-131.5 185.33,-131.5 185.33,-112.5 76.33,-112.5"/>
<text text-anchor="middle" x="130.83" y="-119.5" font-family="Helvetica,sans-Serif" font-size="10.00">inc/commands.hpp</text>
</a>
</g>
</g>
<!-- Node2&#45;&gt;Node6 -->
<g id="edge6" class="edge">
<title>Node2&#45;&gt;Node6</title>
<path fill="none" stroke="midnightblue" d="M131.67,-168.08C131.54,-161.01 131.35,-150.86 131.18,-141.99"/>
<polygon fill="midnightblue" stroke="midnightblue" points="134.68,-141.68 130.99,-131.75 127.68,-141.81 134.68,-141.68"/>
</g>
<!-- Node7 -->
<g id="node7" class="node">
<title>Node7</title>
<g id="a_node7"><a xlink:href="container__request_8hpp.html" target="_top" xlink:title="Data structure for representing a container operation request.">
<polygon fill="white" stroke="black" points="235.33,-56.5 235.33,-75.5 378.33,-75.5 378.33,-56.5 235.33,-56.5"/>
<text text-anchor="middle" x="306.83" y="-63.5" font-family="Helvetica,sans-Serif" font-size="10.00">inc/container_request.hpp</text>
</a>
</g>
</g>
<!-- Node2&#45;&gt;Node7 -->
<g id="edge10" class="edge">
<title>Node2&#45;&gt;Node7</title>
<path fill="none" stroke="midnightblue" d="M147.78,-168.39C163.89,-159.58 189.39,-145.34 210.83,-132 237.54,-115.39 267.41,-94.84 286.63,-81.35"/>
<polygon fill="midnightblue" stroke="midnightblue" points="288.75,-84.14 294.91,-75.51 284.72,-78.41 288.75,-84.14"/>
</g>
<!-- Node5&#45;&gt;Node3 -->
<g id="edge5" class="edge">
<title>Node5&#45;&gt;Node3</title>
<path fill="none" stroke="midnightblue" d="M71.24,-56.32C81.94,-48.18 98.17,-35.84 110.99,-26.09"/>
<polygon fill="midnightblue" stroke="midnightblue" points="113.38,-28.67 119.22,-19.83 109.14,-23.1 113.38,-28.67"/>
</g>
<!-- Node6&#45;&gt;Node3 -->
<g id="edge7" class="edge">
<title>Node6&#45;&gt;Node3</title>
<path fill="none" stroke="midnightblue" d="M130.83,-112.37C130.83,-94.62 130.83,-53.67 130.83,-29.6"/>
<polygon fill="midnightblue" stroke="midnightblue" points="134.33,-29.59 130.83,-19.59 127.33,-29.59 134.33,-29.59"/>
</g>
<!-- Node6&#45;&gt;Node4 -->
<g id="edge8" class="edge">
<title>Node6&#45;&gt;Node4</title>
<path fill="none" stroke="midnightblue" d="M139.99,-112.32C148.33,-104.42 160.86,-92.55 171.01,-82.94"/>
<polygon fill="midnightblue" stroke="midnightblue" points="173.65,-85.25 178.51,-75.83 168.84,-80.17 173.65,-85.25"/>
</g>
<!-- Node6&#45;&gt;Node5 -->
<g id="edge9" class="edge">
<title>Node6&#45;&gt;Node5</title>
<path fill="none" stroke="midnightblue" d="M119.42,-112.32C108.72,-104.18 92.49,-91.84 79.67,-82.09"/>
<polygon fill="midnightblue" stroke="midnightblue" points="81.53,-79.1 71.45,-75.83 77.29,-84.67 81.53,-79.1"/>
</g>
<!-- Node7&#45;&gt;Node3 -->
<g id="edge11" class="edge">
<title>Node7&#45;&gt;Node3</title>
<path fill="none" stroke="midnightblue" d="M278.94,-56.44C247.32,-46.74 195.86,-30.95 162.68,-20.77"/>
<polygon fill="midnightblue" stroke="midnightblue" points="163.6,-17.39 153.02,-17.81 161.55,-24.09 163.6,-17.39"/>
</g>
<!-- Node10&#45;&gt;Node3 -->
<g id="edge15" class="edge">
<title>Node10&#45;&gt;Node3</title>
<path fill="none" stroke="midnightblue" d="M460.99,-168.19C450.99,-159.67 436.17,-146.03 425.83,-132 403.3,-101.44 417.39,-78.53 386.83,-56 351.8,-30.17 224.19,-17.71 163.42,-13.15"/>
<polygon fill="midnightblue" stroke="midnightblue" points="163.46,-9.64 153.24,-12.41 162.96,-16.62 163.46,-9.64"/>
</g>
<!-- Node11 -->
<g id="node11" class="node">
<title>Node11</title>
<g id="a_node11"><a xlink:title=" ">
<polygon fill="white" stroke="#bfbfbf" points="435.33,-112.5 435.33,-131.5 508.33,-131.5 508.33,-112.5 435.33,-112.5"/>
<text text-anchor="middle" x="471.83" y="-119.5" font-family="Helvetica,sans-Serif" font-size="10.00">string_view</text>
</a>
</g>
</g>
<!-- Node10&#45;&gt;Node11 -->
<g id="edge16" class="edge">
<title>Node10&#45;&gt;Node11</title>
<path fill="none" stroke="midnightblue" d="M471.83,-168.08C471.83,-161.01 471.83,-150.86 471.83,-141.99"/>
<polygon fill="midnightblue" stroke="midnightblue" points="475.33,-141.75 471.83,-131.75 468.33,-141.75 475.33,-141.75"/>
</g>
<!-- Node12 -->
<g id="node12" class="node">
<title>Node12</title>
<g id="a_node12"><a xlink:title=" ">
<polygon fill="white" stroke="#bfbfbf" points="526.33,-112.5 526.33,-131.5 619.33,-131.5 619.33,-112.5 526.33,-112.5"/>
<text text-anchor="middle" x="572.83" y="-119.5" font-family="Helvetica,sans-Serif" font-size="10.00">unordered_map</text>
</a>
</g>
</g>
<!-- Node10&#45;&gt;Node12 -->
<g id="edge17" class="edge">
<title>Node10&#45;&gt;Node12</title>
<path fill="none" stroke="midnightblue" d="M488.06,-168.32C504.18,-159.7 529.13,-146.36 547.8,-136.39"/>
<polygon fill="midnightblue" stroke="midnightblue" points="549.48,-139.46 556.64,-131.65 546.18,-133.28 549.48,-139.46"/>
</g>
<!-- Node14 -->
<g id="node14" class="node">
<title>Node14</title>
<g id="a_node14"><a xlink:title=" ">
<polygon fill="white" stroke="#bfbfbf" points="637.83,-112.5 637.83,-131.5 723.83,-131.5 723.83,-112.5 637.83,-112.5"/>
<text text-anchor="middle" x="680.83" y="-119.5" font-family="Helvetica,sans-Serif" font-size="10.00">glog/logging.h</text>
</a>
</g>
</g>
<!-- Node13&#45;&gt;Node14 -->
<g id="edge19" class="edge">
<title>Node13&#45;&gt;Node14</title>
<path fill="none" stroke="midnightblue" d="M640.76,-168.08C647.68,-160.3 657.9,-148.8 666.28,-139.37"/>
<polygon fill="midnightblue" stroke="midnightblue" points="669.03,-141.55 673.05,-131.75 663.79,-136.9 669.03,-141.55"/>
</g>
</g>
</svg>
