<?xml version="1.0" encoding="UTF-8" standalone="no"?>
<!DOCTYPE svg PUBLIC "-//W3C//DTD SVG 1.1//EN"
 "http://www.w3.org/Graphics/SVG/1.1/DTD/svg11.dtd">
<!-- Generated by graphviz version 2.43.0 (0)
 -->
<!-- Title: runtime/inc/podman_api_commands.hpp Pages: 1 -->
<svg width="142pt" height="151pt"
 viewBox="0.00 0.00 141.87 151.00" xmlns="http://www.w3.org/2000/svg" xmlns:xlink="http://www.w3.org/1999/xlink">
<g id="graph0" class="graph" transform="scale(1 1) rotate(0) translate(4 147)">
<title>runtime/inc/podman_api_commands.hpp</title>
<polygon fill="white" stroke="transparent" points="-4,4 -4,-147 137.87,-147 137.87,4 -4,4"/>
<!-- Node1 -->
<g id="node1" class="node">
<title>Node1</title>
<g id="a_node1"><a xlink:title="Declares command classes for managing containers via the Podman HTTP API over a Unix socket.">
<polygon fill="#bfbfbf" stroke="black" points="8.37,-112.5 8.37,-142.5 125.37,-142.5 125.37,-112.5 8.37,-112.5"/>
<text text-anchor="start" x="16.37" y="-130.5" font-family="Helvetica,sans-Serif" font-size="10.00">runtime/inc/podman</text>
<text text-anchor="middle" x="66.87" y="-119.5" font-family="Helvetica,sans-Serif" font-size="10.00">_api_commands.hpp</text>
</a>
</g>
</g>
<!-- Node2 -->
<g id="node2" class="node">
<title>Node2</title>
<g id="a_node2"><a xlink:title=" ">
<polygon fill="white" stroke="#bfbfbf" points="6.87,-0.5 6.87,-19.5 50.87,-19.5 50.87,-0.5 6.87,-0.5"/>
<text text-anchor="middle" x="28.87" y="-7.5" font-family="Helvetica,sans-Serif" font-size="10.00">string</text>
</a>
</g>
</g>
<!-- Node1&#45;&gt;Node2 -->
<g id="edge1" class="edge">
<title>Node1&#45;&gt;Node2</title>
<path fill="none" stroke="midnightblue" d="M39.15,-112.46C25.54,-103.94 10.47,-91.67 2.87,-76 -4.88,-60.01 4.71,-41.07 14.36,-27.78"/>
<polygon fill="midnightblue" stroke="midnightblue" points="17.38,-29.6 20.84,-19.58 11.89,-25.26 17.38,-29.6"/>
</g>
<!-- Node3 -->
<g id="node3" class="node">
<title>Node3</title>
<g id="a_node3"><a xlink:title=" ">
<polygon fill="white" stroke="#bfbfbf" points="75.87,-0.5 75.87,-19.5 133.87,-19.5 133.87,-0.5 75.87,-0.5"/>
<text text-anchor="middle" x="104.87" y="-7.5" font-family="Helvetica,sans-Serif" font-size="10.00">memory</text>
</a>
</g>
</g>
<!-- Node1&#45;&gt;Node3 -->
<g id="edge2" class="edge">
<title>Node1&#45;&gt;Node3</title>
<path fill="none" stroke="midnightblue" d="M94.6,-112.46C108.21,-103.94 123.28,-91.67 130.87,-76 138.63,-60.01 129.04,-41.07 119.39,-27.78"/>
<polygon fill="midnightblue" stroke="midnightblue" points="121.86,-25.26 112.91,-19.58 116.36,-29.6 121.86,-25.26"/>
</g>
<!-- Node4 -->
<g id="node4" class="node">
<title>Node4</title>
<g id="a_node4"><a xlink:href="commands_8hpp.html" target="_top" xlink:title=" ">
<polygon fill="white" stroke="black" points="12.37,-56.5 12.37,-75.5 121.37,-75.5 121.37,-56.5 12.37,-56.5"/>
<text text-anchor="middle" x="66.87" y="-63.5" font-family="Helvetica,sans-Serif" font-size="10.00">inc/commands.hpp</text>
</a>
</g>
</g>
<!-- Node1&#45;&gt;Node4 -->
<g id="edge3" class="edge">
<title>Node1&#45;&gt;Node4</title>
<path fill="none" stroke="midnightblue" d="M66.87,-112.4C66.87,-104.47 66.87,-94.46 66.87,-85.86"/>
<polygon fill="midnightblue" stroke="midnightblue" points="70.37,-85.66 66.87,-75.66 63.37,-85.66 70.37,-85.66"/>
</g>
<!-- Node4&#45;&gt;Node2 -->
<g id="edge4" class="edge">
<title>Node4&#45;&gt;Node2</title>
<path fill="none" stroke="midnightblue" d="M60.6,-56.08C55.23,-48.46 47.36,-37.26 40.79,-27.94"/>
<polygon fill="midnightblue" stroke="midnightblue" points="43.65,-25.91 35.03,-19.75 37.92,-29.94 43.65,-25.91"/>
</g>
<!-- Node4&#45;&gt;Node3 -->
<g id="edge5" class="edge">
<title>Node4&#45;&gt;Node3</title>
<path fill="none" stroke="midnightblue" d="M73.15,-56.08C78.52,-48.46 86.39,-37.26 92.95,-27.94"/>
<polygon fill="midnightblue" stroke="midnightblue" points="95.82,-29.94 98.72,-19.75 90.1,-25.91 95.82,-29.94"/>
</g>
</g>
</svg>
