<?xml version="1.0" encoding="UTF-8" standalone="no"?>
<!DOCTYPE svg PUBLIC "-//W3C//DTD SVG 1.1//EN"
 "http://www.w3.org/Graphics/SVG/1.1/DTD/svg11.dtd">
<!-- Generated by graphviz version 2.43.0 (0)
 -->
<!-- Title: runtime/src/podman_api_commands.cpp Pages: 1 -->
<svg width="516pt" height="207pt"
 viewBox="0.00 0.00 516.00 207.00" xmlns="http://www.w3.org/2000/svg" xmlns:xlink="http://www.w3.org/1999/xlink">
<g id="graph0" class="graph" transform="scale(1 1) rotate(0) translate(4 203)">
<title>runtime/src/podman_api_commands.cpp</title>
<polygon fill="white" stroke="transparent" points="-4,4 -4,-203 512,-203 512,4 -4,4"/>
<!-- Node1 -->
<g id="node1" class="node">
<title>Node1</title>
<g id="a_node1"><a xlink:title=" ">
<polygon fill="#bfbfbf" stroke="black" points="261,-168.5 261,-198.5 377,-198.5 377,-168.5 261,-168.5"/>
<text text-anchor="start" x="269" y="-186.5" font-family="Helvetica,sans-Serif" font-size="10.00">runtime/src/podman</text>
<text text-anchor="middle" x="319" y="-175.5" font-family="Helvetica,sans-Serif" font-size="10.00">_api_commands.cpp</text>
</a>
</g>
</g>
<!-- Node2 -->
<g id="node2" class="node">
<title>Node2</title>
<g id="a_node2"><a xlink:href="podman__api__commands_8hpp.html" target="_top" xlink:title=" ">
<polygon fill="white" stroke="black" points="25,-112.5 25,-131.5 199,-131.5 199,-112.5 25,-112.5"/>
<text text-anchor="middle" x="112" y="-119.5" font-family="Helvetica,sans-Serif" font-size="10.00">inc/podman_api_commands.hpp</text>
</a>
</g>
</g>
<!-- Node1&#45;&gt;Node2 -->
<g id="edge1" class="edge">
<title>Node1&#45;&gt;Node2</title>
<path fill="none" stroke="midnightblue" d="M270.21,-168.47C234.03,-158.08 185.33,-144.08 151.56,-134.37"/>
<polygon fill="midnightblue" stroke="midnightblue" points="152.17,-130.91 141.59,-131.51 150.24,-137.63 152.17,-130.91"/>
</g>
<!-- Node6 -->
<g id="node6" class="node">
<title>Node6</title>
<g id="a_node6"><a xlink:href="common_8hpp.html" target="_top" xlink:title="Defines common constants, string views, and utility structures for the application.">
<polygon fill="white" stroke="black" points="270,-112.5 270,-131.5 368,-131.5 368,-112.5 270,-112.5"/>
<text text-anchor="middle" x="319" y="-119.5" font-family="Helvetica,sans-Serif" font-size="10.00">inc/common.hpp</text>
</a>
</g>
</g>
<!-- Node1&#45;&gt;Node6 -->
<g id="edge7" class="edge">
<title>Node1&#45;&gt;Node6</title>
<path fill="none" stroke="midnightblue" d="M319,-168.4C319,-160.47 319,-150.46 319,-141.86"/>
<polygon fill="midnightblue" stroke="midnightblue" points="322.5,-141.66 319,-131.66 315.5,-141.66 322.5,-141.66"/>
</g>
<!-- Node9 -->
<g id="node9" class="node">
<title>Node9</title>
<g id="a_node9"><a xlink:href="logging_8hpp.html" target="_top" xlink:title="Logging macros and configuration for the Container Manager.">
<polygon fill="white" stroke="black" points="402.5,-112.5 402.5,-131.5 493.5,-131.5 493.5,-112.5 402.5,-112.5"/>
<text text-anchor="middle" x="448" y="-119.5" font-family="Helvetica,sans-Serif" font-size="10.00">inc/logging.hpp</text>
</a>
</g>
</g>
<!-- Node1&#45;&gt;Node9 -->
<g id="edge11" class="edge">
<title>Node1&#45;&gt;Node9</title>
<path fill="none" stroke="midnightblue" d="M349.57,-168.4C370.93,-158.55 399.22,-145.5 419.98,-135.92"/>
<polygon fill="midnightblue" stroke="midnightblue" points="421.61,-139.02 429.23,-131.66 418.68,-132.67 421.61,-139.02"/>
</g>
<!-- Node3 -->
<g id="node3" class="node">
<title>Node3</title>
<g id="a_node3"><a xlink:title=" ">
<polygon fill="white" stroke="#bfbfbf" points="131,-0.5 131,-19.5 175,-19.5 175,-0.5 131,-0.5"/>
<text text-anchor="middle" x="153" y="-7.5" font-family="Helvetica,sans-Serif" font-size="10.00">string</text>
</a>
</g>
</g>
<!-- Node2&#45;&gt;Node3 -->
<g id="edge2" class="edge">
<title>Node2&#45;&gt;Node3</title>
<path fill="none" stroke="midnightblue" d="M116.55,-112.19C121.08,-103.23 128.04,-88.87 133,-76 138.97,-60.51 144.41,-42.42 148.11,-29.27"/>
<polygon fill="midnightblue" stroke="midnightblue" points="151.51,-30.11 150.78,-19.54 144.76,-28.26 151.51,-30.11"/>
</g>
<!-- Node4 -->
<g id="node4" class="node">
<title>Node4</title>
<g id="a_node4"><a xlink:title=" ">
<polygon fill="white" stroke="#bfbfbf" points="0,-0.5 0,-19.5 58,-19.5 58,-0.5 0,-0.5"/>
<text text-anchor="middle" x="29" y="-7.5" font-family="Helvetica,sans-Serif" font-size="10.00">memory</text>
</a>
</g>
</g>
<!-- Node2&#45;&gt;Node4 -->
<g id="edge3" class="edge">
<title>Node2&#45;&gt;Node4</title>
<path fill="none" stroke="midnightblue" d="M62.23,-112.45C41.17,-106.1 18.63,-95.09 6,-76 -3.86,-61.1 5.6,-41.47 15.2,-27.7"/>
<polygon fill="midnightblue" stroke="midnightblue" points="18.09,-29.69 21.33,-19.6 12.51,-25.46 18.09,-29.69"/>
</g>
<!-- Node5 -->
<g id="node5" class="node">
<title>Node5</title>
<g id="a_node5"><a xlink:href="commands_8hpp.html" target="_top" xlink:title=" ">
<polygon fill="white" stroke="black" points="15.5,-56.5 15.5,-75.5 124.5,-75.5 124.5,-56.5 15.5,-56.5"/>
<text text-anchor="middle" x="70" y="-63.5" font-family="Helvetica,sans-Serif" font-size="10.00">inc/commands.hpp</text>
</a>
</g>
</g>
<!-- Node2&#45;&gt;Node5 -->
<g id="edge4" class="edge">
<title>Node2&#45;&gt;Node5</title>
<path fill="none" stroke="midnightblue" d="M105.06,-112.08C99.07,-104.38 90.25,-93.03 82.95,-83.65"/>
<polygon fill="midnightblue" stroke="midnightblue" points="85.71,-81.5 76.81,-75.75 80.18,-85.79 85.71,-81.5"/>
</g>
<!-- Node5&#45;&gt;Node3 -->
<g id="edge5" class="edge">
<title>Node5&#45;&gt;Node3</title>
<path fill="none" stroke="midnightblue" d="M83.34,-56.32C96.16,-47.98 115.78,-35.21 130.94,-25.35"/>
<polygon fill="midnightblue" stroke="midnightblue" points="133.22,-28.04 139.7,-19.65 129.41,-22.17 133.22,-28.04"/>
</g>
<!-- Node5&#45;&gt;Node4 -->
<g id="edge6" class="edge">
<title>Node5&#45;&gt;Node4</title>
<path fill="none" stroke="midnightblue" d="M63.23,-56.08C57.44,-48.46 48.94,-37.26 41.86,-27.94"/>
<polygon fill="midnightblue" stroke="midnightblue" points="44.48,-25.6 35.64,-19.75 38.9,-29.83 44.48,-25.6"/>
</g>
<!-- Node6&#45;&gt;Node3 -->
<g id="edge8" class="edge">
<title>Node6&#45;&gt;Node3</title>
<path fill="none" stroke="midnightblue" d="M335.48,-112.46C357.18,-100.11 390.74,-76.49 374,-56 350.5,-27.23 240.4,-16.38 185,-12.7"/>
<polygon fill="midnightblue" stroke="midnightblue" points="185.21,-9.21 175.01,-12.07 184.77,-16.19 185.21,-9.21"/>
</g>
<!-- Node7 -->
<g id="node7" class="node">
<title>Node7</title>
<g id="a_node7"><a xlink:title=" ">
<polygon fill="white" stroke="#bfbfbf" points="181.5,-56.5 181.5,-75.5 254.5,-75.5 254.5,-56.5 181.5,-56.5"/>
<text text-anchor="middle" x="218" y="-63.5" font-family="Helvetica,sans-Serif" font-size="10.00">string_view</text>
</a>
</g>
</g>
<!-- Node6&#45;&gt;Node7 -->
<g id="edge9" class="edge">
<title>Node6&#45;&gt;Node7</title>
<path fill="none" stroke="midnightblue" d="M302.77,-112.32C286.65,-103.7 261.7,-90.36 243.04,-80.39"/>
<polygon fill="midnightblue" stroke="midnightblue" points="244.66,-77.28 234.19,-75.65 241.36,-83.46 244.66,-77.28"/>
</g>
<!-- Node8 -->
<g id="node8" class="node">
<title>Node8</title>
<g id="a_node8"><a xlink:title=" ">
<polygon fill="white" stroke="#bfbfbf" points="272.5,-56.5 272.5,-75.5 365.5,-75.5 365.5,-56.5 272.5,-56.5"/>
<text text-anchor="middle" x="319" y="-63.5" font-family="Helvetica,sans-Serif" font-size="10.00">unordered_map</text>
</a>
</g>
</g>
<!-- Node6&#45;&gt;Node8 -->
<g id="edge10" class="edge">
<title>Node6&#45;&gt;Node8</title>
<path fill="none" stroke="midnightblue" d="M319,-112.08C319,-105.01 319,-94.86 319,-85.99"/>
<polygon fill="midnightblue" stroke="midnightblue" points="322.5,-85.75 319,-75.75 315.5,-85.75 322.5,-85.75"/>
</g>
<!-- Node10 -->
<g id="node10" class="node">
<title>Node10</title>
<g id="a_node10"><a xlink:title=" ">
<polygon fill="white" stroke="#bfbfbf" points="422,-56.5 422,-75.5 508,-75.5 508,-56.5 422,-56.5"/>
<text text-anchor="middle" x="465" y="-63.5" font-family="Helvetica,sans-Serif" font-size="10.00">glog/logging.h</text>
</a>
</g>
</g>
<!-- Node9&#45;&gt;Node10 -->
<g id="edge12" class="edge">
<title>Node9&#45;&gt;Node10</title>
<path fill="none" stroke="midnightblue" d="M450.81,-112.08C453.08,-104.85 456.37,-94.41 459.21,-85.4"/>
<polygon fill="midnightblue" stroke="midnightblue" points="462.58,-86.34 462.25,-75.75 455.9,-84.24 462.58,-86.34"/>
</g>
</g>
</svg>
