<?xml version="1.0" encoding="UTF-8" standalone="no"?>
<!DOCTYPE svg PUBLIC "-//W3C//DTD SVG 1.1//EN"
 "http://www.w3.org/Graphics/SVG/1.1/DTD/svg11.dtd">
<!-- Generated by graphviz version 2.43.0 (0)
 -->
<!-- Title: runtime/src/podman_api_commands.cpp Pages: 1 -->
<svg width="695pt" height="207pt"
 viewBox="0.00 0.00 694.50 207.00" xmlns="http://www.w3.org/2000/svg" xmlns:xlink="http://www.w3.org/1999/xlink">
<g id="graph0" class="graph" transform="scale(1 1) rotate(0) translate(4 203)">
<title>runtime/src/podman_api_commands.cpp</title>
<polygon fill="white" stroke="transparent" points="-4,4 -4,-203 690.5,-203 690.5,4 -4,4"/>
<!-- Node1 -->
<g id="node1" class="node">
<title>Node1</title>
<g id="a_node1"><a xlink:title="Implements Podman API command classes for managing containers via the Podman HTTP API over a Unix soc...">
<polygon fill="#bfbfbf" stroke="black" points="420,-168.5 420,-198.5 536,-198.5 536,-168.5 420,-168.5"/>
<text text-anchor="start" x="428" y="-186.5" font-family="Helvetica,sans-Serif" font-size="10.00">runtime/src/podman</text>
<text text-anchor="middle" x="478" y="-175.5" font-family="Helvetica,sans-Serif" font-size="10.00">_api_commands.cpp</text>
</a>
</g>
</g>
<!-- Node2 -->
<g id="node2" class="node">
<title>Node2</title>
<g id="a_node2"><a xlink:href="podman__api__commands_8hpp.html" target="_top" xlink:title="Declares command classes for managing containers via the Podman HTTP API over a Unix socket.">
<polygon fill="white" stroke="black" points="23,-112.5 23,-131.5 197,-131.5 197,-112.5 23,-112.5"/>
<text text-anchor="middle" x="110" y="-119.5" font-family="Helvetica,sans-Serif" font-size="10.00">inc/podman_api_commands.hpp</text>
</a>
</g>
</g>
<!-- Node1&#45;&gt;Node2 -->
<g id="edge1" class="edge">
<title>Node1&#45;&gt;Node2</title>
<path fill="none" stroke="midnightblue" d="M419.69,-173.07C352.27,-162.17 241.74,-144.3 172.57,-133.12"/>
<polygon fill="midnightblue" stroke="midnightblue" points="173.1,-129.66 162.67,-131.52 171.99,-136.57 173.1,-129.66"/>
</g>
<!-- Node6 -->
<g id="node6" class="node">
<title>Node6</title>
<g id="a_node6"><a xlink:href="common_8hpp.html" target="_top" xlink:title="Defines common constants, string views, and utility structures for the application.">
<polygon fill="white" stroke="black" points="231,-112.5 231,-131.5 329,-131.5 329,-112.5 231,-112.5"/>
<text text-anchor="middle" x="280" y="-119.5" font-family="Helvetica,sans-Serif" font-size="10.00">inc/common.hpp</text>
</a>
</g>
</g>
<!-- Node1&#45;&gt;Node6 -->
<g id="edge7" class="edge">
<title>Node1&#45;&gt;Node6</title>
<path fill="none" stroke="midnightblue" d="M431.33,-168.47C396.87,-158.12 350.54,-144.2 318.26,-134.5"/>
<polygon fill="midnightblue" stroke="midnightblue" points="318.89,-131.03 308.31,-131.51 316.88,-137.74 318.89,-131.03"/>
</g>
<!-- Node9 -->
<g id="node9" class="node">
<title>Node9</title>
<g id="a_node9"><a xlink:href="logging_8hpp.html" target="_top" xlink:title="Logging macros and configuration for the Container Manager.">
<polygon fill="white" stroke="black" points="395.5,-112.5 395.5,-131.5 486.5,-131.5 486.5,-112.5 395.5,-112.5"/>
<text text-anchor="middle" x="441" y="-119.5" font-family="Helvetica,sans-Serif" font-size="10.00">inc/logging.hpp</text>
</a>
</g>
</g>
<!-- Node1&#45;&gt;Node9 -->
<g id="edge11" class="edge">
<title>Node1&#45;&gt;Node9</title>
<path fill="none" stroke="midnightblue" d="M469.23,-168.4C464.02,-160.02 457.37,-149.33 451.83,-140.42"/>
<polygon fill="midnightblue" stroke="midnightblue" points="454.64,-138.3 446.38,-131.66 448.69,-142 454.64,-138.3"/>
</g>
<!-- Node11 -->
<g id="node11" class="node">
<title>Node11</title>
<g id="a_node11"><a xlink:href="curl__handler_8hpp.html" target="_top" xlink:title=" ">
<polygon fill="white" stroke="black" points="526.5,-56.5 526.5,-75.5 641.5,-75.5 641.5,-56.5 526.5,-56.5"/>
<text text-anchor="middle" x="584" y="-63.5" font-family="Helvetica,sans-Serif" font-size="10.00">inc/curl_handler.hpp</text>
</a>
</g>
</g>
<!-- Node1&#45;&gt;Node11 -->
<g id="edge13" class="edge">
<title>Node1&#45;&gt;Node11</title>
<path fill="none" stroke="midnightblue" d="M488.09,-168.43C498.84,-153.78 516.65,-130.45 534,-112 543.78,-101.6 555.61,-90.88 565.31,-82.51"/>
<polygon fill="midnightblue" stroke="midnightblue" points="567.83,-84.96 573.19,-75.82 563.3,-79.63 567.83,-84.96"/>
</g>
<!-- Node12 -->
<g id="node12" class="node">
<title>Node12</title>
<g id="a_node12"><a xlink:title=" ">
<polygon fill="white" stroke="#bfbfbf" points="543,-112.5 543,-131.5 603,-131.5 603,-112.5 543,-112.5"/>
<text text-anchor="middle" x="573" y="-119.5" font-family="Helvetica,sans-Serif" font-size="10.00">iostream</text>
</a>
</g>
</g>
<!-- Node1&#45;&gt;Node12 -->
<g id="edge15" class="edge">
<title>Node1&#45;&gt;Node12</title>
<path fill="none" stroke="midnightblue" d="M500.51,-168.4C515.6,-158.95 535.39,-146.56 550.47,-137.11"/>
<polygon fill="midnightblue" stroke="midnightblue" points="552.56,-139.93 559.18,-131.66 548.84,-134 552.56,-139.93"/>
</g>
<!-- Node13 -->
<g id="node13" class="node">
<title>Node13</title>
<g id="a_node13"><a xlink:title=" ">
<polygon fill="white" stroke="#bfbfbf" points="621.5,-112.5 621.5,-131.5 686.5,-131.5 686.5,-112.5 621.5,-112.5"/>
<text text-anchor="middle" x="654" y="-119.5" font-family="Helvetica,sans-Serif" font-size="10.00">curl/curl.h</text>
</a>
</g>
</g>
<!-- Node1&#45;&gt;Node13 -->
<g id="edge16" class="edge">
<title>Node1&#45;&gt;Node13</title>
<path fill="none" stroke="midnightblue" d="M519.71,-168.4C549.99,-158.16 590.49,-144.47 619.07,-134.81"/>
<polygon fill="midnightblue" stroke="midnightblue" points="620.3,-138.09 628.65,-131.57 618.05,-131.46 620.3,-138.09"/>
</g>
<!-- Node3 -->
<g id="node3" class="node">
<title>Node3</title>
<g id="a_node3"><a xlink:title=" ">
<polygon fill="white" stroke="#bfbfbf" points="150,-0.5 150,-19.5 194,-19.5 194,-0.5 150,-0.5"/>
<text text-anchor="middle" x="172" y="-7.5" font-family="Helvetica,sans-Serif" font-size="10.00">string</text>
</a>
</g>
</g>
<!-- Node2&#45;&gt;Node3 -->
<g id="edge2" class="edge">
<title>Node2&#45;&gt;Node3</title>
<path fill="none" stroke="midnightblue" d="M114.87,-112.37C125.05,-94.3 148.79,-52.18 162.24,-28.31"/>
<polygon fill="midnightblue" stroke="midnightblue" points="165.3,-30.02 167.16,-19.59 159.2,-26.58 165.3,-30.02"/>
</g>
<!-- Node4 -->
<g id="node4" class="node">
<title>Node4</title>
<g id="a_node4"><a xlink:title=" ">
<polygon fill="white" stroke="#bfbfbf" points="0,-0.5 0,-19.5 58,-19.5 58,-0.5 0,-0.5"/>
<text text-anchor="middle" x="29" y="-7.5" font-family="Helvetica,sans-Serif" font-size="10.00">memory</text>
</a>
</g>
</g>
<!-- Node2&#45;&gt;Node4 -->
<g id="edge3" class="edge">
<title>Node2&#45;&gt;Node4</title>
<path fill="none" stroke="midnightblue" d="M61.95,-112.46C41.06,-106.1 18.53,-95.07 6,-76 -3.81,-61.06 5.64,-41.44 15.23,-27.68"/>
<polygon fill="midnightblue" stroke="midnightblue" points="18.11,-29.68 21.35,-19.59 12.52,-25.45 18.11,-29.68"/>
</g>
<!-- Node5 -->
<g id="node5" class="node">
<title>Node5</title>
<g id="a_node5"><a xlink:href="commands_8hpp.html" target="_top" xlink:title=" ">
<polygon fill="white" stroke="black" points="15.5,-56.5 15.5,-75.5 124.5,-75.5 124.5,-56.5 15.5,-56.5"/>
<text text-anchor="middle" x="70" y="-63.5" font-family="Helvetica,sans-Serif" font-size="10.00">inc/commands.hpp</text>
</a>
</g>
</g>
<!-- Node2&#45;&gt;Node5 -->
<g id="edge4" class="edge">
<title>Node2&#45;&gt;Node5</title>
<path fill="none" stroke="midnightblue" d="M103.39,-112.08C97.74,-104.46 89.46,-93.26 82.55,-83.94"/>
<polygon fill="midnightblue" stroke="midnightblue" points="85.25,-81.7 76.48,-75.75 79.62,-85.87 85.25,-81.7"/>
</g>
<!-- Node5&#45;&gt;Node3 -->
<g id="edge5" class="edge">
<title>Node5&#45;&gt;Node3</title>
<path fill="none" stroke="midnightblue" d="M86.39,-56.32C102.67,-47.7 127.87,-34.36 146.72,-24.39"/>
<polygon fill="midnightblue" stroke="midnightblue" points="148.45,-27.43 155.65,-19.65 145.18,-21.24 148.45,-27.43"/>
</g>
<!-- Node5&#45;&gt;Node4 -->
<g id="edge6" class="edge">
<title>Node5&#45;&gt;Node4</title>
<path fill="none" stroke="midnightblue" d="M63.23,-56.08C57.44,-48.46 48.94,-37.26 41.86,-27.94"/>
<polygon fill="midnightblue" stroke="midnightblue" points="44.48,-25.6 35.64,-19.75 38.9,-29.83 44.48,-25.6"/>
</g>
<!-- Node6&#45;&gt;Node3 -->
<g id="edge8" class="edge">
<title>Node6&#45;&gt;Node3</title>
<path fill="none" stroke="midnightblue" d="M261.95,-112.45C246.74,-104.58 225.1,-91.75 210,-76 196.88,-62.31 186.43,-43.27 179.84,-29.34"/>
<polygon fill="midnightblue" stroke="midnightblue" points="182.86,-27.53 175.56,-19.85 176.48,-30.4 182.86,-27.53"/>
</g>
<!-- Node7 -->
<g id="node7" class="node">
<title>Node7</title>
<g id="a_node7"><a xlink:title=" ">
<polygon fill="white" stroke="#bfbfbf" points="219.5,-56.5 219.5,-75.5 292.5,-75.5 292.5,-56.5 219.5,-56.5"/>
<text text-anchor="middle" x="256" y="-63.5" font-family="Helvetica,sans-Serif" font-size="10.00">string_view</text>
</a>
</g>
</g>
<!-- Node6&#45;&gt;Node7 -->
<g id="edge9" class="edge">
<title>Node6&#45;&gt;Node7</title>
<path fill="none" stroke="midnightblue" d="M276.04,-112.08C272.79,-104.77 268.08,-94.18 264.05,-85.1"/>
<polygon fill="midnightblue" stroke="midnightblue" points="267.15,-83.47 259.89,-75.75 260.75,-86.31 267.15,-83.47"/>
</g>
<!-- Node8 -->
<g id="node8" class="node">
<title>Node8</title>
<g id="a_node8"><a xlink:title=" ">
<polygon fill="white" stroke="#bfbfbf" points="310.5,-56.5 310.5,-75.5 403.5,-75.5 403.5,-56.5 310.5,-56.5"/>
<text text-anchor="middle" x="357" y="-63.5" font-family="Helvetica,sans-Serif" font-size="10.00">unordered_map</text>
</a>
</g>
</g>
<!-- Node6&#45;&gt;Node8 -->
<g id="edge10" class="edge">
<title>Node6&#45;&gt;Node8</title>
<path fill="none" stroke="midnightblue" d="M292.37,-112.32C304.16,-104.06 322.13,-91.45 336.14,-81.63"/>
<polygon fill="midnightblue" stroke="midnightblue" points="338.48,-84.26 344.66,-75.65 334.46,-78.53 338.48,-84.26"/>
</g>
<!-- Node10 -->
<g id="node10" class="node">
<title>Node10</title>
<g id="a_node10"><a xlink:title=" ">
<polygon fill="white" stroke="#bfbfbf" points="422,-56.5 422,-75.5 508,-75.5 508,-56.5 422,-56.5"/>
<text text-anchor="middle" x="465" y="-63.5" font-family="Helvetica,sans-Serif" font-size="10.00">glog/logging.h</text>
</a>
</g>
</g>
<!-- Node9&#45;&gt;Node10 -->
<g id="edge12" class="edge">
<title>Node9&#45;&gt;Node10</title>
<path fill="none" stroke="midnightblue" d="M444.96,-112.08C448.21,-104.77 452.92,-94.18 456.95,-85.1"/>
<polygon fill="midnightblue" stroke="midnightblue" points="460.25,-86.31 461.11,-75.75 453.85,-83.47 460.25,-86.31"/>
</g>
<!-- Node11&#45;&gt;Node3 -->
<g id="edge14" class="edge">
<title>Node11&#45;&gt;Node3</title>
<path fill="none" stroke="midnightblue" d="M526.26,-57.23C523.13,-56.81 520.03,-56.4 517,-56 402.04,-40.78 265.49,-23.08 204.37,-15.18"/>
<polygon fill="midnightblue" stroke="midnightblue" points="204.57,-11.68 194.2,-13.87 203.67,-18.62 204.57,-11.68"/>
</g>
</g>
</svg>
