<?xml version="1.0" encoding="UTF-8" standalone="no"?>
<!DOCTYPE svg PUBLIC "-//W3C//DTD SVG 1.1//EN"
 "http://www.w3.org/Graphics/SVG/1.1/DTD/svg11.dtd">
<!-- Generated by graphviz version 2.43.0 (0)
 -->
<!-- Title: api/src/posix_message_queue_consumer.cpp Pages: 1 -->
<svg width="801pt" height="274pt"
 viewBox="0.00 0.00 800.50 274.00" xmlns="http://www.w3.org/2000/svg" xmlns:xlink="http://www.w3.org/1999/xlink">
<g id="graph0" class="graph" transform="scale(1 1) rotate(0) translate(4 270)">
<title>api/src/posix_message_queue_consumer.cpp</title>
<polygon fill="white" stroke="transparent" points="-4,4 -4,-270 796.5,-270 796.5,4 -4,4"/>
<!-- Node1 -->
<g id="node1" class="node">
<title>Node1</title>
<g id="a_node1"><a xlink:title="Implements the MessageQueueConsumer class for handling messages from a POSIX message queue.">
<polygon fill="#bfbfbf" stroke="black" points="435,-235.5 435,-265.5 563,-265.5 563,-235.5 435,-235.5"/>
<text text-anchor="start" x="443" y="-253.5" font-family="Helvetica,sans-Serif" font-size="10.00">api/src/posix_message</text>
<text text-anchor="middle" x="499" y="-242.5" font-family="Helvetica,sans-Serif" font-size="10.00">_queue_consumer.cpp</text>
</a>
</g>
</g>
<!-- Node2 -->
<g id="node2" class="node">
<title>Node2</title>
<g id="a_node2"><a xlink:href="posix__message__queue__consumer_8hpp.html" target="_top" xlink:title="Declares the MessageQueueConsumer class for handling messages from a POSIX message queue.">
<polygon fill="white" stroke="black" points="243.5,-168.5 243.5,-198.5 388.5,-198.5 388.5,-168.5 243.5,-168.5"/>
<text text-anchor="start" x="251.5" y="-186.5" font-family="Helvetica,sans-Serif" font-size="10.00">inc/posix_message_queue</text>
<text text-anchor="middle" x="316" y="-175.5" font-family="Helvetica,sans-Serif" font-size="10.00">_consumer.hpp</text>
</a>
</g>
</g>
<!-- Node1&#45;&gt;Node2 -->
<g id="edge1" class="edge">
<title>Node1&#45;&gt;Node2</title>
<path fill="none" stroke="midnightblue" d="M459.29,-235.4C431.71,-225.6 394.78,-212.48 365.31,-202.02"/>
<polygon fill="midnightblue" stroke="midnightblue" points="366.23,-198.63 355.63,-198.58 363.88,-205.22 366.23,-198.63"/>
</g>
<!-- Node7 -->
<g id="node7" class="node">
<title>Node7</title>
<g id="a_node7"><a xlink:href="common_8hpp.html" target="_top" xlink:title="Defines common constants, string views, and utility structures for the application.">
<polygon fill="white" stroke="black" points="461,-112.5 461,-131.5 559,-131.5 559,-112.5 461,-112.5"/>
<text text-anchor="middle" x="510" y="-119.5" font-family="Helvetica,sans-Serif" font-size="10.00">inc/common.hpp</text>
</a>
</g>
</g>
<!-- Node1&#45;&gt;Node7 -->
<g id="edge21" class="edge">
<title>Node1&#45;&gt;Node7</title>
<path fill="none" stroke="midnightblue" d="M471.7,-235.36C458.3,-226.81 443.46,-214.54 436,-199 430.04,-186.58 429.25,-180.01 436,-168 444.22,-153.38 459.33,-142.95 473.76,-135.85"/>
<polygon fill="midnightblue" stroke="midnightblue" points="475.4,-138.95 483.07,-131.64 472.52,-132.57 475.4,-138.95"/>
</g>
<!-- Node11 -->
<g id="node11" class="node">
<title>Node11</title>
<g id="a_node11"><a xlink:title=" ">
<polygon fill="white" stroke="#bfbfbf" points="0,-56.5 0,-75.5 110,-75.5 110,-56.5 0,-56.5"/>
<text text-anchor="middle" x="55" y="-63.5" font-family="Helvetica,sans-Serif" font-size="10.00">nlohmann/json.hpp</text>
</a>
</g>
</g>
<!-- Node1&#45;&gt;Node11 -->
<g id="edge19" class="edge">
<title>Node1&#45;&gt;Node11</title>
<path fill="none" stroke="midnightblue" d="M434.88,-242.88C320.9,-229.59 90.77,-195.37 46,-132 36.47,-118.51 40.62,-99.44 46.02,-85.44"/>
<polygon fill="midnightblue" stroke="midnightblue" points="49.39,-86.47 50.18,-75.91 42.97,-83.67 49.39,-86.47"/>
</g>
<!-- Node13 -->
<g id="node13" class="node">
<title>Node13</title>
<g id="a_node13"><a xlink:title=" ">
<polygon fill="white" stroke="#bfbfbf" points="445,-174 445,-193 489,-193 489,-174 445,-174"/>
<text text-anchor="middle" x="467" y="-181" font-family="Helvetica,sans-Serif" font-size="10.00">ctime</text>
</a>
</g>
</g>
<!-- Node1&#45;&gt;Node13 -->
<g id="edge15" class="edge">
<title>Node1&#45;&gt;Node13</title>
<path fill="none" stroke="midnightblue" d="M492.06,-235.4C487.26,-225.66 480.86,-212.65 475.72,-202.21"/>
<polygon fill="midnightblue" stroke="midnightblue" points="478.84,-200.62 471.28,-193.19 472.56,-203.71 478.84,-200.62"/>
</g>
<!-- Node14 -->
<g id="node14" class="node">
<title>Node14</title>
<g id="a_node14"><a xlink:title=" ">
<polygon fill="white" stroke="#bfbfbf" points="507,-174 507,-193 557,-193 557,-174 507,-174"/>
<text text-anchor="middle" x="532" y="-181" font-family="Helvetica,sans-Serif" font-size="10.00">cstring</text>
</a>
</g>
</g>
<!-- Node1&#45;&gt;Node14 -->
<g id="edge16" class="edge">
<title>Node1&#45;&gt;Node14</title>
<path fill="none" stroke="midnightblue" d="M506.16,-235.4C511.1,-225.66 517.71,-212.65 523.01,-202.21"/>
<polygon fill="midnightblue" stroke="midnightblue" points="526.18,-203.7 527.59,-193.19 519.94,-200.53 526.18,-203.7"/>
</g>
<!-- Node15 -->
<g id="node15" class="node">
<title>Node15</title>
<g id="a_node15"><a xlink:title=" ">
<polygon fill="white" stroke="#bfbfbf" points="575,-174 575,-193 635,-193 635,-174 575,-174"/>
<text text-anchor="middle" x="605" y="-181" font-family="Helvetica,sans-Serif" font-size="10.00">iostream</text>
</a>
</g>
</g>
<!-- Node1&#45;&gt;Node15 -->
<g id="edge17" class="edge">
<title>Node1&#45;&gt;Node15</title>
<path fill="none" stroke="midnightblue" d="M522,-235.4C539.94,-224.39 564.72,-209.2 582.52,-198.28"/>
<polygon fill="midnightblue" stroke="midnightblue" points="584.43,-201.22 591.13,-193.01 580.77,-195.25 584.43,-201.22"/>
</g>
<!-- Node16 -->
<g id="node16" class="node">
<title>Node16</title>
<g id="a_node16"><a xlink:title=" ">
<polygon fill="white" stroke="#bfbfbf" points="653,-174 653,-193 709,-193 709,-174 653,-174"/>
<text text-anchor="middle" x="681" y="-181" font-family="Helvetica,sans-Serif" font-size="10.00">unistd.h</text>
</a>
</g>
</g>
<!-- Node1&#45;&gt;Node16 -->
<g id="edge18" class="edge">
<title>Node1&#45;&gt;Node16</title>
<path fill="none" stroke="midnightblue" d="M540.72,-235.45C569.77,-225.54 609.37,-211.81 644,-199 645.89,-198.3 647.84,-197.57 649.79,-196.83"/>
<polygon fill="midnightblue" stroke="midnightblue" points="651.46,-199.94 659.53,-193.07 648.94,-193.4 651.46,-199.94"/>
</g>
<!-- Node17 -->
<g id="node17" class="node">
<title>Node17</title>
<g id="a_node17"><a xlink:title=" ">
<polygon fill="white" stroke="#bfbfbf" points="727.5,-174 727.5,-193 792.5,-193 792.5,-174 727.5,-174"/>
<text text-anchor="middle" x="760" y="-181" font-family="Helvetica,sans-Serif" font-size="10.00">mqueue.h</text>
</a>
</g>
</g>
<!-- Node1&#45;&gt;Node17 -->
<g id="edge20" class="edge">
<title>Node1&#45;&gt;Node17</title>
<path fill="none" stroke="midnightblue" d="M563.18,-236.57C607.08,-227.27 666.43,-213.8 718,-199 720.94,-198.15 723.99,-197.22 727.03,-196.25"/>
<polygon fill="midnightblue" stroke="midnightblue" points="728.21,-199.55 736.59,-193.07 726,-192.9 728.21,-199.55"/>
</g>
<!-- Node3 -->
<g id="node3" class="node">
<title>Node3</title>
<g id="a_node3"><a xlink:title=" ">
<polygon fill="white" stroke="#bfbfbf" points="393,-112.5 393,-131.5 443,-131.5 443,-112.5 393,-112.5"/>
<text text-anchor="middle" x="418" y="-119.5" font-family="Helvetica,sans-Serif" font-size="10.00">atomic</text>
</a>
</g>
</g>
<!-- Node2&#45;&gt;Node3 -->
<g id="edge2" class="edge">
<title>Node2&#45;&gt;Node3</title>
<path fill="none" stroke="midnightblue" d="M340.17,-168.4C356.52,-158.86 378.01,-146.32 394.27,-136.84"/>
<polygon fill="midnightblue" stroke="midnightblue" points="396.28,-139.72 403.16,-131.66 392.76,-133.67 396.28,-139.72"/>
</g>
<!-- Node4 -->
<g id="node4" class="node">
<title>Node4</title>
<g id="a_node4"><a xlink:title=" ">
<polygon fill="white" stroke="#bfbfbf" points="121,-112.5 121,-131.5 179,-131.5 179,-112.5 121,-112.5"/>
<text text-anchor="middle" x="150" y="-119.5" font-family="Helvetica,sans-Serif" font-size="10.00">memory</text>
</a>
</g>
</g>
<!-- Node2&#45;&gt;Node4 -->
<g id="edge3" class="edge">
<title>Node2&#45;&gt;Node4</title>
<path fill="none" stroke="midnightblue" d="M276.66,-168.4C248.44,-158.28 210.79,-144.79 183.9,-135.15"/>
<polygon fill="midnightblue" stroke="midnightblue" points="184.75,-131.74 174.15,-131.66 182.39,-138.33 184.75,-131.74"/>
</g>
<!-- Node5 -->
<g id="node5" class="node">
<title>Node5</title>
<g id="a_node5"><a xlink:title=" ">
<polygon fill="white" stroke="#bfbfbf" points="293,-0.5 293,-19.5 337,-19.5 337,-0.5 293,-0.5"/>
<text text-anchor="middle" x="315" y="-7.5" font-family="Helvetica,sans-Serif" font-size="10.00">string</text>
</a>
</g>
</g>
<!-- Node2&#45;&gt;Node5 -->
<g id="edge4" class="edge">
<title>Node2&#45;&gt;Node5</title>
<path fill="none" stroke="midnightblue" d="M327.17,-168.43C334.09,-158.79 342.33,-145.37 346,-132 354.95,-99.43 356.03,-88.25 346,-56 342.77,-45.62 336.22,-35.52 329.98,-27.53"/>
<polygon fill="midnightblue" stroke="midnightblue" points="332.58,-25.19 323.48,-19.77 327.21,-29.68 332.58,-25.19"/>
</g>
<!-- Node6 -->
<g id="node6" class="node">
<title>Node6</title>
<g id="a_node6"><a xlink:title=" ">
<polygon fill="white" stroke="#bfbfbf" points="55,-112.5 55,-131.5 103,-131.5 103,-112.5 55,-112.5"/>
<text text-anchor="middle" x="79" y="-119.5" font-family="Helvetica,sans-Serif" font-size="10.00">thread</text>
</a>
</g>
</g>
<!-- Node2&#45;&gt;Node6 -->
<g id="edge5" class="edge">
<title>Node2&#45;&gt;Node6</title>
<path fill="none" stroke="midnightblue" d="M257.87,-168.5C219.32,-159.12 167.37,-146.32 112.96,-132.21"/>
<polygon fill="midnightblue" stroke="midnightblue" points="113.69,-128.78 103.13,-129.65 111.93,-135.56 113.69,-128.78"/>
</g>
<!-- Node2&#45;&gt;Node7 -->
<g id="edge6" class="edge">
<title>Node2&#45;&gt;Node7</title>
<path fill="none" stroke="midnightblue" d="M361.98,-168.4C395.64,-158.07 440.78,-144.23 472.32,-134.56"/>
<polygon fill="midnightblue" stroke="midnightblue" points="473.52,-137.85 482.05,-131.57 471.47,-131.16 473.52,-137.85"/>
</g>
<!-- Node10 -->
<g id="node10" class="node">
<title>Node10</title>
<g id="a_node10"><a xlink:href="request__executor_8hpp.html" target="_top" xlink:title="Declares the abstract RequestExecutor interface for executing requests.">
<polygon fill="white" stroke="black" points="197,-112.5 197,-131.5 337,-131.5 337,-112.5 197,-112.5"/>
<text text-anchor="middle" x="267" y="-119.5" font-family="Helvetica,sans-Serif" font-size="10.00">inc/request_executor.hpp</text>
</a>
</g>
</g>
<!-- Node2&#45;&gt;Node10 -->
<g id="edge10" class="edge">
<title>Node2&#45;&gt;Node10</title>
<path fill="none" stroke="midnightblue" d="M304.39,-168.4C297.27,-159.75 288.12,-148.64 280.65,-139.58"/>
<polygon fill="midnightblue" stroke="midnightblue" points="283.19,-137.15 274.13,-131.66 277.79,-141.6 283.19,-137.15"/>
</g>
<!-- Node7&#45;&gt;Node5 -->
<g id="edge7" class="edge">
<title>Node7&#45;&gt;Node5</title>
<path fill="none" stroke="midnightblue" d="M534.7,-112.41C564.04,-100.9 606.69,-79.21 587,-56 556.57,-20.13 412.52,-12.81 347.26,-11.35"/>
<polygon fill="midnightblue" stroke="midnightblue" points="347.2,-7.85 337.13,-11.16 347.06,-14.85 347.2,-7.85"/>
</g>
<!-- Node8 -->
<g id="node8" class="node">
<title>Node8</title>
<g id="a_node8"><a xlink:title=" ">
<polygon fill="white" stroke="#bfbfbf" points="393.5,-56.5 393.5,-75.5 466.5,-75.5 466.5,-56.5 393.5,-56.5"/>
<text text-anchor="middle" x="430" y="-63.5" font-family="Helvetica,sans-Serif" font-size="10.00">string_view</text>
</a>
</g>
</g>
<!-- Node7&#45;&gt;Node8 -->
<g id="edge8" class="edge">
<title>Node7&#45;&gt;Node8</title>
<path fill="none" stroke="midnightblue" d="M497.15,-112.32C484.78,-103.98 465.87,-91.21 451.26,-81.35"/>
<polygon fill="midnightblue" stroke="midnightblue" points="453.07,-78.35 442.82,-75.65 449.15,-84.15 453.07,-78.35"/>
</g>
<!-- Node9 -->
<g id="node9" class="node">
<title>Node9</title>
<g id="a_node9"><a xlink:title=" ">
<polygon fill="white" stroke="#bfbfbf" points="484.5,-56.5 484.5,-75.5 577.5,-75.5 577.5,-56.5 484.5,-56.5"/>
<text text-anchor="middle" x="531" y="-63.5" font-family="Helvetica,sans-Serif" font-size="10.00">unordered_map</text>
</a>
</g>
</g>
<!-- Node7&#45;&gt;Node9 -->
<g id="edge9" class="edge">
<title>Node7&#45;&gt;Node9</title>
<path fill="none" stroke="midnightblue" d="M513.47,-112.08C516.31,-104.77 520.43,-94.18 523.96,-85.1"/>
<polygon fill="midnightblue" stroke="midnightblue" points="527.23,-86.34 527.6,-75.75 520.71,-83.8 527.23,-86.34"/>
</g>
<!-- Node10&#45;&gt;Node5 -->
<g id="edge11" class="edge">
<title>Node10&#45;&gt;Node5</title>
<path fill="none" stroke="midnightblue" d="M239.39,-112.44C209.12,-101.57 167.09,-81.16 185,-56 207,-25.11 251.72,-15.23 282.51,-12.18"/>
<polygon fill="midnightblue" stroke="midnightblue" points="283.07,-15.64 292.76,-11.36 282.52,-8.66 283.07,-15.64"/>
</g>
<!-- Node10&#45;&gt;Node11 -->
<g id="edge12" class="edge">
<title>Node10&#45;&gt;Node11</title>
<path fill="none" stroke="midnightblue" d="M233.41,-112.44C196.81,-103.12 138.16,-88.18 98.17,-78"/>
<polygon fill="midnightblue" stroke="midnightblue" points="98.99,-74.59 88.43,-75.52 97.26,-81.38 98.99,-74.59"/>
</g>
<!-- Node12 -->
<g id="node12" class="node">
<title>Node12</title>
<g id="a_node12"><a xlink:href="container__request_8hpp.html" target="_top" xlink:title="Data structure for representing a container operation request.">
<polygon fill="white" stroke="black" points="193.5,-56.5 193.5,-75.5 336.5,-75.5 336.5,-56.5 193.5,-56.5"/>
<text text-anchor="middle" x="265" y="-63.5" font-family="Helvetica,sans-Serif" font-size="10.00">inc/container_request.hpp</text>
</a>
</g>
</g>
<!-- Node10&#45;&gt;Node12 -->
<g id="edge13" class="edge">
<title>Node10&#45;&gt;Node12</title>
<path fill="none" stroke="midnightblue" d="M266.67,-112.08C266.41,-105.01 266.03,-94.86 265.7,-85.99"/>
<polygon fill="midnightblue" stroke="midnightblue" points="269.19,-85.61 265.32,-75.75 262.2,-85.87 269.19,-85.61"/>
</g>
<!-- Node12&#45;&gt;Node5 -->
<g id="edge14" class="edge">
<title>Node12&#45;&gt;Node5</title>
<path fill="none" stroke="midnightblue" d="M273.26,-56.08C280.46,-48.3 291.11,-36.8 299.85,-27.37"/>
<polygon fill="midnightblue" stroke="midnightblue" points="302.67,-29.47 306.9,-19.75 297.53,-24.71 302.67,-29.47"/>
</g>
</g>
</svg>
