<?xml version="1.0" encoding="UTF-8" standalone="no"?>
<!DOCTYPE svg PUBLIC "-//W3C//DTD SVG 1.1//EN"
 "http://www.w3.org/Graphics/SVG/1.1/DTD/svg11.dtd">
<!-- Generated by graphviz version 2.43.0 (0)
 -->
<!-- Title: api/src/posix_message_queue_consumer.cpp Pages: 1 -->
<svg width="730pt" height="274pt"
 viewBox="0.00 0.00 729.50 274.00" xmlns="http://www.w3.org/2000/svg" xmlns:xlink="http://www.w3.org/1999/xlink">
<g id="graph0" class="graph" transform="scale(1 1) rotate(0) translate(4 270)">
<title>api/src/posix_message_queue_consumer.cpp</title>
<polygon fill="white" stroke="transparent" points="-4,4 -4,-270 725.5,-270 725.5,4 -4,4"/>
<!-- Node1 -->
<g id="node1" class="node">
<title>Node1</title>
<g id="a_node1"><a xlink:title="Implements the MessageQueueConsumer class for handling messages from a POSIX message queue.">
<polygon fill="#bfbfbf" stroke="black" points="402,-235.5 402,-265.5 530,-265.5 530,-235.5 402,-235.5"/>
<text text-anchor="start" x="410" y="-253.5" font-family="Helvetica,sans-Serif" font-size="10.00">api/src/posix_message</text>
<text text-anchor="middle" x="466" y="-242.5" font-family="Helvetica,sans-Serif" font-size="10.00">_queue_consumer.cpp</text>
</a>
</g>
</g>
<!-- Node2 -->
<g id="node2" class="node">
<title>Node2</title>
<g id="a_node2"><a xlink:href="posix__message__queue__consumer_8hpp.html" target="_top" xlink:title="Declares the MessageQueueConsumer class for handling messages from a POSIX message queue.">
<polygon fill="white" stroke="black" points="142.5,-168.5 142.5,-198.5 287.5,-198.5 287.5,-168.5 142.5,-168.5"/>
<text text-anchor="start" x="150.5" y="-186.5" font-family="Helvetica,sans-Serif" font-size="10.00">inc/posix_message_queue</text>
<text text-anchor="middle" x="215" y="-175.5" font-family="Helvetica,sans-Serif" font-size="10.00">_consumer.hpp</text>
</a>
</g>
</g>
<!-- Node1&#45;&gt;Node2 -->
<g id="edge1" class="edge">
<title>Node1&#45;&gt;Node2</title>
<path fill="none" stroke="midnightblue" d="M411.85,-235.48C372.97,-225.41 320.42,-211.8 279.39,-201.17"/>
<polygon fill="midnightblue" stroke="midnightblue" points="280.05,-197.73 269.49,-198.61 278.29,-204.51 280.05,-197.73"/>
</g>
<!-- Node6 -->
<g id="node6" class="node">
<title>Node6</title>
<g id="a_node6"><a xlink:href="common_8hpp.html" target="_top" xlink:title="Defines common constants, string views, and utility structures for the application.">
<polygon fill="white" stroke="black" points="401,-112.5 401,-131.5 499,-131.5 499,-112.5 401,-112.5"/>
<text text-anchor="middle" x="450" y="-119.5" font-family="Helvetica,sans-Serif" font-size="10.00">inc/common.hpp</text>
</a>
</g>
</g>
<!-- Node1&#45;&gt;Node6 -->
<g id="edge18" class="edge">
<title>Node1&#45;&gt;Node6</title>
<path fill="none" stroke="midnightblue" d="M450.74,-235.17C441.94,-225.83 431.72,-212.84 427,-199 420.22,-179.12 429.66,-155.98 438.41,-140.5"/>
<polygon fill="midnightblue" stroke="midnightblue" points="441.41,-142.32 443.62,-131.96 435.43,-138.67 441.41,-142.32"/>
</g>
<!-- Node9 -->
<g id="node9" class="node">
<title>Node9</title>
<g id="a_node9"><a xlink:title=" ">
<polygon fill="white" stroke="#bfbfbf" points="314,-56.5 314,-75.5 424,-75.5 424,-56.5 314,-56.5"/>
<text text-anchor="middle" x="369" y="-63.5" font-family="Helvetica,sans-Serif" font-size="10.00">nlohmann/json.hpp</text>
</a>
</g>
</g>
<!-- Node1&#45;&gt;Node9 -->
<g id="edge16" class="edge">
<title>Node1&#45;&gt;Node9</title>
<path fill="none" stroke="midnightblue" d="M450.43,-235.16C440.74,-225.61 428.54,-212.4 420,-199 396.32,-161.84 380.78,-111.95 373.61,-85.41"/>
<polygon fill="midnightblue" stroke="midnightblue" points="376.95,-84.37 371.04,-75.57 370.18,-86.13 376.95,-84.37"/>
</g>
<!-- Node11 -->
<g id="node11" class="node">
<title>Node11</title>
<g id="a_node11"><a xlink:title=" ">
<polygon fill="white" stroke="#bfbfbf" points="436,-174 436,-193 496,-193 496,-174 436,-174"/>
<text text-anchor="middle" x="466" y="-181" font-family="Helvetica,sans-Serif" font-size="10.00">iostream</text>
</a>
</g>
</g>
<!-- Node1&#45;&gt;Node11 -->
<g id="edge13" class="edge">
<title>Node1&#45;&gt;Node11</title>
<path fill="none" stroke="midnightblue" d="M466,-235.4C466,-226.06 466,-213.71 466,-203.52"/>
<polygon fill="midnightblue" stroke="midnightblue" points="469.5,-203.19 466,-193.19 462.5,-203.19 469.5,-203.19"/>
</g>
<!-- Node12 -->
<g id="node12" class="node">
<title>Node12</title>
<g id="a_node12"><a xlink:title=" ">
<polygon fill="white" stroke="#bfbfbf" points="514,-174 514,-193 564,-193 564,-174 514,-174"/>
<text text-anchor="middle" x="539" y="-181" font-family="Helvetica,sans-Serif" font-size="10.00">cstring</text>
</a>
</g>
</g>
<!-- Node1&#45;&gt;Node12 -->
<g id="edge14" class="edge">
<title>Node1&#45;&gt;Node12</title>
<path fill="none" stroke="midnightblue" d="M481.84,-235.4C493.56,-224.96 509.52,-210.75 521.59,-200"/>
<polygon fill="midnightblue" stroke="midnightblue" points="524.09,-202.46 529.24,-193.19 519.44,-197.23 524.09,-202.46"/>
</g>
<!-- Node13 -->
<g id="node13" class="node">
<title>Node13</title>
<g id="a_node13"><a xlink:title=" ">
<polygon fill="white" stroke="#bfbfbf" points="582,-174 582,-193 638,-193 638,-174 582,-174"/>
<text text-anchor="middle" x="610" y="-181" font-family="Helvetica,sans-Serif" font-size="10.00">unistd.h</text>
</a>
</g>
</g>
<!-- Node1&#45;&gt;Node13 -->
<g id="edge15" class="edge">
<title>Node1&#45;&gt;Node13</title>
<path fill="none" stroke="midnightblue" d="M497.25,-235.4C522.4,-224.04 557.45,-208.22 581.77,-197.24"/>
<polygon fill="midnightblue" stroke="midnightblue" points="583.48,-200.31 591.15,-193.01 580.6,-193.93 583.48,-200.31"/>
</g>
<!-- Node14 -->
<g id="node14" class="node">
<title>Node14</title>
<g id="a_node14"><a xlink:title=" ">
<polygon fill="white" stroke="#bfbfbf" points="656.5,-174 656.5,-193 721.5,-193 721.5,-174 656.5,-174"/>
<text text-anchor="middle" x="689" y="-181" font-family="Helvetica,sans-Serif" font-size="10.00">mqueue.h</text>
</a>
</g>
</g>
<!-- Node1&#45;&gt;Node14 -->
<g id="edge17" class="edge">
<title>Node1&#45;&gt;Node14</title>
<path fill="none" stroke="midnightblue" d="M519.71,-235.43C555.85,-225.73 604.49,-212.26 647,-199 649.76,-198.14 652.62,-197.22 655.48,-196.28"/>
<polygon fill="midnightblue" stroke="midnightblue" points="656.74,-199.54 665.1,-193.03 654.5,-192.91 656.74,-199.54"/>
</g>
<!-- Node3 -->
<g id="node3" class="node">
<title>Node3</title>
<g id="a_node3"><a xlink:title=" ">
<polygon fill="white" stroke="#bfbfbf" points="0,-112.5 0,-131.5 58,-131.5 58,-112.5 0,-112.5"/>
<text text-anchor="middle" x="29" y="-119.5" font-family="Helvetica,sans-Serif" font-size="10.00">memory</text>
</a>
</g>
</g>
<!-- Node2&#45;&gt;Node3 -->
<g id="edge2" class="edge">
<title>Node2&#45;&gt;Node3</title>
<path fill="none" stroke="midnightblue" d="M170.92,-168.4C138.78,-158.12 95.74,-144.35 65.52,-134.68"/>
<polygon fill="midnightblue" stroke="midnightblue" points="66.38,-131.28 55.79,-131.57 64.25,-137.95 66.38,-131.28"/>
</g>
<!-- Node4 -->
<g id="node4" class="node">
<title>Node4</title>
<g id="a_node4"><a xlink:title=" ">
<polygon fill="white" stroke="#bfbfbf" points="214,-0.5 214,-19.5 258,-19.5 258,-0.5 214,-0.5"/>
<text text-anchor="middle" x="236" y="-7.5" font-family="Helvetica,sans-Serif" font-size="10.00">string</text>
</a>
</g>
</g>
<!-- Node2&#45;&gt;Node4 -->
<g id="edge3" class="edge">
<title>Node2&#45;&gt;Node4</title>
<path fill="none" stroke="midnightblue" d="M178.57,-168.43C161.01,-160.1 140.81,-148 127,-132 104.02,-105.38 84.57,-84.62 105,-56 127.25,-24.84 172.5,-15.03 203.53,-12.07"/>
<polygon fill="midnightblue" stroke="midnightblue" points="204.15,-15.53 213.85,-11.28 203.62,-8.55 204.15,-15.53"/>
</g>
<!-- Node5 -->
<g id="node5" class="node">
<title>Node5</title>
<g id="a_node5"><a xlink:title=" ">
<polygon fill="white" stroke="#bfbfbf" points="136,-112.5 136,-131.5 184,-131.5 184,-112.5 136,-112.5"/>
<text text-anchor="middle" x="160" y="-119.5" font-family="Helvetica,sans-Serif" font-size="10.00">thread</text>
</a>
</g>
</g>
<!-- Node2&#45;&gt;Node5 -->
<g id="edge4" class="edge">
<title>Node2&#45;&gt;Node5</title>
<path fill="none" stroke="midnightblue" d="M201.97,-168.4C193.81,-159.58 183.28,-148.18 174.81,-139.02"/>
<polygon fill="midnightblue" stroke="midnightblue" points="177.36,-136.63 168,-131.66 172.22,-141.38 177.36,-136.63"/>
</g>
<!-- Node2&#45;&gt;Node6 -->
<g id="edge5" class="edge">
<title>Node2&#45;&gt;Node6</title>
<path fill="none" stroke="midnightblue" d="M270.39,-168.47C312,-157.94 368.18,-143.72 406.56,-134"/>
<polygon fill="midnightblue" stroke="midnightblue" points="407.57,-137.35 416.4,-131.51 405.85,-130.57 407.57,-137.35"/>
</g>
<!-- Node8 -->
<g id="node8" class="node">
<title>Node8</title>
<g id="a_node8"><a xlink:href="request__executor_8hpp.html" target="_top" xlink:title="Declares the abstract RequestExecutor interface for executing requests.">
<polygon fill="white" stroke="black" points="202,-112.5 202,-131.5 342,-131.5 342,-112.5 202,-112.5"/>
<text text-anchor="middle" x="272" y="-119.5" font-family="Helvetica,sans-Serif" font-size="10.00">inc/request_executor.hpp</text>
</a>
</g>
</g>
<!-- Node2&#45;&gt;Node8 -->
<g id="edge8" class="edge">
<title>Node2&#45;&gt;Node8</title>
<path fill="none" stroke="midnightblue" d="M228.51,-168.4C236.96,-159.58 247.88,-148.18 256.66,-139.02"/>
<polygon fill="midnightblue" stroke="midnightblue" points="259.32,-141.3 263.71,-131.66 254.26,-136.46 259.32,-141.3"/>
</g>
<!-- Node6&#45;&gt;Node4 -->
<g id="edge6" class="edge">
<title>Node6&#45;&gt;Node4</title>
<path fill="none" stroke="midnightblue" d="M450.38,-112.46C450.49,-98.57 448.58,-71.1 433,-56 409.82,-33.54 318.19,-20.12 268.48,-14.35"/>
<polygon fill="midnightblue" stroke="midnightblue" points="268.59,-10.84 258.26,-13.2 267.81,-17.79 268.59,-10.84"/>
</g>
<!-- Node7 -->
<g id="node7" class="node">
<title>Node7</title>
<g id="a_node7"><a xlink:title=" ">
<polygon fill="white" stroke="#bfbfbf" points="480.5,-56.5 480.5,-75.5 553.5,-75.5 553.5,-56.5 480.5,-56.5"/>
<text text-anchor="middle" x="517" y="-63.5" font-family="Helvetica,sans-Serif" font-size="10.00">string_view</text>
</a>
</g>
</g>
<!-- Node6&#45;&gt;Node7 -->
<g id="edge7" class="edge">
<title>Node6&#45;&gt;Node7</title>
<path fill="none" stroke="midnightblue" d="M460.76,-112.32C470.77,-104.26 485.89,-92.08 497.93,-82.37"/>
<polygon fill="midnightblue" stroke="midnightblue" points="500.45,-84.83 506.04,-75.83 496.06,-79.38 500.45,-84.83"/>
</g>
<!-- Node8&#45;&gt;Node4 -->
<g id="edge9" class="edge">
<title>Node8&#45;&gt;Node4</title>
<path fill="none" stroke="midnightblue" d="M272.74,-112.29C273.51,-99.54 273.79,-75.21 267,-56 263.33,-45.62 256.62,-35.41 250.38,-27.34"/>
<polygon fill="midnightblue" stroke="midnightblue" points="253.01,-25.03 243.95,-19.52 247.6,-29.47 253.01,-25.03"/>
</g>
<!-- Node8&#45;&gt;Node9 -->
<g id="edge10" class="edge">
<title>Node8&#45;&gt;Node9</title>
<path fill="none" stroke="midnightblue" d="M287.58,-112.32C303,-103.74 326.81,-90.49 344.71,-80.52"/>
<polygon fill="midnightblue" stroke="midnightblue" points="346.42,-83.58 353.45,-75.65 343.01,-77.46 346.42,-83.58"/>
</g>
<!-- Node10 -->
<g id="node10" class="node">
<title>Node10</title>
<g id="a_node10"><a xlink:href="container__request_8hpp.html" target="_top" xlink:title="Data structure for representing a container operation request.">
<polygon fill="white" stroke="black" points="114.5,-56.5 114.5,-75.5 257.5,-75.5 257.5,-56.5 114.5,-56.5"/>
<text text-anchor="middle" x="186" y="-63.5" font-family="Helvetica,sans-Serif" font-size="10.00">inc/container_request.hpp</text>
</a>
</g>
</g>
<!-- Node8&#45;&gt;Node10 -->
<g id="edge11" class="edge">
<title>Node8&#45;&gt;Node10</title>
<path fill="none" stroke="midnightblue" d="M258.18,-112.32C244.77,-103.9 224.18,-90.97 208.41,-81.07"/>
<polygon fill="midnightblue" stroke="midnightblue" points="210.11,-78.01 199.78,-75.65 206.39,-83.94 210.11,-78.01"/>
</g>
<!-- Node10&#45;&gt;Node4 -->
<g id="edge12" class="edge">
<title>Node10&#45;&gt;Node4</title>
<path fill="none" stroke="midnightblue" d="M194.26,-56.08C201.46,-48.3 212.11,-36.8 220.85,-27.37"/>
<polygon fill="midnightblue" stroke="midnightblue" points="223.67,-29.47 227.9,-19.75 218.53,-24.71 223.67,-29.47"/>
</g>
</g>
</svg>
