<?xml version="1.0" encoding="UTF-8" standalone="no"?>
<!DOCTYPE svg PUBLIC "-//W3C//DTD SVG 1.1//EN"
 "http://www.w3.org/Graphics/SVG/1.1/DTD/svg11.dtd">
<!-- Generated by graphviz version 2.43.0 (0)
 -->
<!-- Title: api/src/posix_message_queue_consumer.cpp Pages: 1 -->
<svg width="741pt" height="274pt"
 viewBox="0.00 0.00 740.50 274.00" xmlns="http://www.w3.org/2000/svg" xmlns:xlink="http://www.w3.org/1999/xlink">
<g id="graph0" class="graph" transform="scale(1 1) rotate(0) translate(4 270)">
<title>api/src/posix_message_queue_consumer.cpp</title>
<polygon fill="white" stroke="transparent" points="-4,4 -4,-270 736.5,-270 736.5,4 -4,4"/>
<!-- Node1 -->
<g id="node1" class="node">
<title>Node1</title>
<g id="a_node1"><a xlink:title="Implements the MessageQueueConsumer class for handling messages from a POSIX message queue.">
<polygon fill="#bfbfbf" stroke="black" points="413,-235.5 413,-265.5 541,-265.5 541,-235.5 413,-235.5"/>
<text text-anchor="start" x="421" y="-253.5" font-family="Helvetica,sans-Serif" font-size="10.00">api/src/posix_message</text>
<text text-anchor="middle" x="477" y="-242.5" font-family="Helvetica,sans-Serif" font-size="10.00">_queue_consumer.cpp</text>
</a>
</g>
</g>
<!-- Node2 -->
<g id="node2" class="node">
<title>Node2</title>
<g id="a_node2"><a xlink:href="posix__message__queue__consumer_8hpp.html" target="_top" xlink:title="Declares the MessageQueueConsumer class for handling messages from a POSIX message queue.">
<polygon fill="white" stroke="black" points="245.5,-168.5 245.5,-198.5 390.5,-198.5 390.5,-168.5 245.5,-168.5"/>
<text text-anchor="start" x="253.5" y="-186.5" font-family="Helvetica,sans-Serif" font-size="10.00">inc/posix_message_queue</text>
<text text-anchor="middle" x="318" y="-175.5" font-family="Helvetica,sans-Serif" font-size="10.00">_consumer.hpp</text>
</a>
</g>
</g>
<!-- Node1&#45;&gt;Node2 -->
<g id="edge1" class="edge">
<title>Node1&#45;&gt;Node2</title>
<path fill="none" stroke="midnightblue" d="M442.5,-235.4C418.85,-225.73 387.28,-212.82 361.85,-202.43"/>
<polygon fill="midnightblue" stroke="midnightblue" points="363.01,-199.12 352.43,-198.58 360.37,-205.6 363.01,-199.12"/>
</g>
<!-- Node6 -->
<g id="node6" class="node">
<title>Node6</title>
<g id="a_node6"><a xlink:href="common_8hpp.html" target="_top" xlink:title="Defines common constants, string views, and utility structures for the application.">
<polygon fill="white" stroke="black" points="403,-112.5 403,-131.5 501,-131.5 501,-112.5 403,-112.5"/>
<text text-anchor="middle" x="452" y="-119.5" font-family="Helvetica,sans-Serif" font-size="10.00">inc/common.hpp</text>
</a>
</g>
</g>
<!-- Node1&#45;&gt;Node6 -->
<g id="edge19" class="edge">
<title>Node1&#45;&gt;Node6</title>
<path fill="none" stroke="midnightblue" d="M461.74,-235.17C452.94,-225.83 442.72,-212.84 438,-199 431.45,-179.81 437.51,-156.79 443.58,-141.15"/>
<polygon fill="midnightblue" stroke="midnightblue" points="446.93,-142.21 447.62,-131.64 440.49,-139.47 446.93,-142.21"/>
</g>
<!-- Node10 -->
<g id="node10" class="node">
<title>Node10</title>
<g id="a_node10"><a xlink:title=" ">
<polygon fill="white" stroke="#bfbfbf" points="0,-56.5 0,-75.5 110,-75.5 110,-56.5 0,-56.5"/>
<text text-anchor="middle" x="55" y="-63.5" font-family="Helvetica,sans-Serif" font-size="10.00">nlohmann/json.hpp</text>
</a>
</g>
</g>
<!-- Node1&#45;&gt;Node10 -->
<g id="edge17" class="edge">
<title>Node1&#45;&gt;Node10</title>
<path fill="none" stroke="midnightblue" d="M412.82,-241.42C305.49,-226.4 97.26,-190.3 56,-132 46.53,-118.62 47.48,-99.51 50.08,-85.47"/>
<polygon fill="midnightblue" stroke="midnightblue" points="53.54,-86.04 52.35,-75.51 46.72,-84.48 53.54,-86.04"/>
</g>
<!-- Node12 -->
<g id="node12" class="node">
<title>Node12</title>
<g id="a_node12"><a xlink:title=" ">
<polygon fill="white" stroke="#bfbfbf" points="447,-174 447,-193 507,-193 507,-174 447,-174"/>
<text text-anchor="middle" x="477" y="-181" font-family="Helvetica,sans-Serif" font-size="10.00">iostream</text>
</a>
</g>
</g>
<!-- Node1&#45;&gt;Node12 -->
<g id="edge14" class="edge">
<title>Node1&#45;&gt;Node12</title>
<path fill="none" stroke="midnightblue" d="M477,-235.4C477,-226.06 477,-213.71 477,-203.52"/>
<polygon fill="midnightblue" stroke="midnightblue" points="480.5,-203.19 477,-193.19 473.5,-203.19 480.5,-203.19"/>
</g>
<!-- Node13 -->
<g id="node13" class="node">
<title>Node13</title>
<g id="a_node13"><a xlink:title=" ">
<polygon fill="white" stroke="#bfbfbf" points="525,-174 525,-193 575,-193 575,-174 525,-174"/>
<text text-anchor="middle" x="550" y="-181" font-family="Helvetica,sans-Serif" font-size="10.00">cstring</text>
</a>
</g>
</g>
<!-- Node1&#45;&gt;Node13 -->
<g id="edge15" class="edge">
<title>Node1&#45;&gt;Node13</title>
<path fill="none" stroke="midnightblue" d="M492.84,-235.4C504.56,-224.96 520.52,-210.75 532.59,-200"/>
<polygon fill="midnightblue" stroke="midnightblue" points="535.09,-202.46 540.24,-193.19 530.44,-197.23 535.09,-202.46"/>
</g>
<!-- Node14 -->
<g id="node14" class="node">
<title>Node14</title>
<g id="a_node14"><a xlink:title=" ">
<polygon fill="white" stroke="#bfbfbf" points="593,-174 593,-193 649,-193 649,-174 593,-174"/>
<text text-anchor="middle" x="621" y="-181" font-family="Helvetica,sans-Serif" font-size="10.00">unistd.h</text>
</a>
</g>
</g>
<!-- Node1&#45;&gt;Node14 -->
<g id="edge16" class="edge">
<title>Node1&#45;&gt;Node14</title>
<path fill="none" stroke="midnightblue" d="M508.25,-235.4C533.4,-224.04 568.45,-208.22 592.77,-197.24"/>
<polygon fill="midnightblue" stroke="midnightblue" points="594.48,-200.31 602.15,-193.01 591.6,-193.93 594.48,-200.31"/>
</g>
<!-- Node15 -->
<g id="node15" class="node">
<title>Node15</title>
<g id="a_node15"><a xlink:title=" ">
<polygon fill="white" stroke="#bfbfbf" points="667.5,-174 667.5,-193 732.5,-193 732.5,-174 667.5,-174"/>
<text text-anchor="middle" x="700" y="-181" font-family="Helvetica,sans-Serif" font-size="10.00">mqueue.h</text>
</a>
</g>
</g>
<!-- Node1&#45;&gt;Node15 -->
<g id="edge18" class="edge">
<title>Node1&#45;&gt;Node15</title>
<path fill="none" stroke="midnightblue" d="M530.71,-235.43C566.85,-225.73 615.49,-212.26 658,-199 660.76,-198.14 663.62,-197.22 666.48,-196.28"/>
<polygon fill="midnightblue" stroke="midnightblue" points="667.74,-199.54 676.1,-193.03 665.5,-192.91 667.74,-199.54"/>
</g>
<!-- Node3 -->
<g id="node3" class="node">
<title>Node3</title>
<g id="a_node3"><a xlink:title=" ">
<polygon fill="white" stroke="#bfbfbf" points="289,-112.5 289,-131.5 347,-131.5 347,-112.5 289,-112.5"/>
<text text-anchor="middle" x="318" y="-119.5" font-family="Helvetica,sans-Serif" font-size="10.00">memory</text>
</a>
</g>
</g>
<!-- Node2&#45;&gt;Node3 -->
<g id="edge2" class="edge">
<title>Node2&#45;&gt;Node3</title>
<path fill="none" stroke="midnightblue" d="M318,-168.4C318,-160.47 318,-150.46 318,-141.86"/>
<polygon fill="midnightblue" stroke="midnightblue" points="321.5,-141.66 318,-131.66 314.5,-141.66 321.5,-141.66"/>
</g>
<!-- Node4 -->
<g id="node4" class="node">
<title>Node4</title>
<g id="a_node4"><a xlink:title=" ">
<polygon fill="white" stroke="#bfbfbf" points="313,-0.5 313,-19.5 357,-19.5 357,-0.5 313,-0.5"/>
<text text-anchor="middle" x="335" y="-7.5" font-family="Helvetica,sans-Serif" font-size="10.00">string</text>
</a>
</g>
</g>
<!-- Node2&#45;&gt;Node4 -->
<g id="edge3" class="edge">
<title>Node2&#45;&gt;Node4</title>
<path fill="none" stroke="midnightblue" d="M332.88,-168.1C341.45,-158.73 351.41,-145.74 356,-132 367.83,-96.59 353.66,-53.02 343.51,-29.01"/>
<polygon fill="midnightblue" stroke="midnightblue" points="346.64,-27.43 339.37,-19.73 340.25,-30.29 346.64,-27.43"/>
</g>
<!-- Node5 -->
<g id="node5" class="node">
<title>Node5</title>
<g id="a_node5"><a xlink:title=" ">
<polygon fill="white" stroke="#bfbfbf" points="223,-112.5 223,-131.5 271,-131.5 271,-112.5 223,-112.5"/>
<text text-anchor="middle" x="247" y="-119.5" font-family="Helvetica,sans-Serif" font-size="10.00">thread</text>
</a>
</g>
</g>
<!-- Node2&#45;&gt;Node5 -->
<g id="edge4" class="edge">
<title>Node2&#45;&gt;Node5</title>
<path fill="none" stroke="midnightblue" d="M301.17,-168.4C290.33,-159.31 276.22,-147.49 265.13,-138.19"/>
<polygon fill="midnightblue" stroke="midnightblue" points="267.24,-135.4 257.33,-131.66 262.75,-140.76 267.24,-135.4"/>
</g>
<!-- Node2&#45;&gt;Node6 -->
<g id="edge5" class="edge">
<title>Node2&#45;&gt;Node6</title>
<path fill="none" stroke="midnightblue" d="M349.76,-168.4C372.04,-158.51 401.59,-145.38 423.19,-135.79"/>
<polygon fill="midnightblue" stroke="midnightblue" points="424.78,-138.91 432.5,-131.66 421.94,-132.52 424.78,-138.91"/>
</g>
<!-- Node9 -->
<g id="node9" class="node">
<title>Node9</title>
<g id="a_node9"><a xlink:href="request__executor_8hpp.html" target="_top" xlink:title="Declares the abstract RequestExecutor interface for executing requests.">
<polygon fill="white" stroke="black" points="65,-112.5 65,-131.5 205,-131.5 205,-112.5 65,-112.5"/>
<text text-anchor="middle" x="135" y="-119.5" font-family="Helvetica,sans-Serif" font-size="10.00">inc/request_executor.hpp</text>
</a>
</g>
</g>
<!-- Node2&#45;&gt;Node9 -->
<g id="edge9" class="edge">
<title>Node2&#45;&gt;Node9</title>
<path fill="none" stroke="midnightblue" d="M274.63,-168.4C243.01,-158.12 200.67,-144.35 170.93,-134.68"/>
<polygon fill="midnightblue" stroke="midnightblue" points="171.95,-131.33 161.36,-131.57 169.79,-137.99 171.95,-131.33"/>
</g>
<!-- Node6&#45;&gt;Node4 -->
<g id="edge6" class="edge">
<title>Node6&#45;&gt;Node4</title>
<path fill="none" stroke="midnightblue" d="M444.12,-112.3C432.46,-99.56 409.74,-75.24 389,-56 377.82,-45.63 364.68,-34.65 354.16,-26.14"/>
<polygon fill="midnightblue" stroke="midnightblue" points="356.04,-23.16 346.05,-19.64 351.66,-28.62 356.04,-23.16"/>
</g>
<!-- Node7 -->
<g id="node7" class="node">
<title>Node7</title>
<g id="a_node7"><a xlink:title=" ">
<polygon fill="white" stroke="#bfbfbf" points="441.5,-56.5 441.5,-75.5 514.5,-75.5 514.5,-56.5 441.5,-56.5"/>
<text text-anchor="middle" x="478" y="-63.5" font-family="Helvetica,sans-Serif" font-size="10.00">string_view</text>
</a>
</g>
</g>
<!-- Node6&#45;&gt;Node7 -->
<g id="edge7" class="edge">
<title>Node6&#45;&gt;Node7</title>
<path fill="none" stroke="midnightblue" d="M456.29,-112.08C459.85,-104.69 465.02,-93.95 469.42,-84.81"/>
<polygon fill="midnightblue" stroke="midnightblue" points="472.6,-86.28 473.79,-75.75 466.29,-83.24 472.6,-86.28"/>
</g>
<!-- Node8 -->
<g id="node8" class="node">
<title>Node8</title>
<g id="a_node8"><a xlink:title=" ">
<polygon fill="white" stroke="#bfbfbf" points="532.5,-56.5 532.5,-75.5 625.5,-75.5 625.5,-56.5 532.5,-56.5"/>
<text text-anchor="middle" x="579" y="-63.5" font-family="Helvetica,sans-Serif" font-size="10.00">unordered_map</text>
</a>
</g>
</g>
<!-- Node6&#45;&gt;Node8 -->
<g id="edge8" class="edge">
<title>Node6&#45;&gt;Node8</title>
<path fill="none" stroke="midnightblue" d="M472.12,-112.44C493.02,-103.56 525.93,-89.56 549.72,-79.45"/>
<polygon fill="midnightblue" stroke="midnightblue" points="551.14,-82.65 558.97,-75.52 548.4,-76.21 551.14,-82.65"/>
</g>
<!-- Node9&#45;&gt;Node4 -->
<g id="edge10" class="edge">
<title>Node9&#45;&gt;Node4</title>
<path fill="none" stroke="midnightblue" d="M139.28,-112.45C146.68,-98.53 163.19,-71.02 185,-56 220.8,-31.33 270.41,-19.92 302.6,-14.83"/>
<polygon fill="midnightblue" stroke="midnightblue" points="303.42,-18.25 312.81,-13.34 302.41,-11.33 303.42,-18.25"/>
</g>
<!-- Node9&#45;&gt;Node10 -->
<g id="edge11" class="edge">
<title>Node9&#45;&gt;Node10</title>
<path fill="none" stroke="midnightblue" d="M122.15,-112.32C109.78,-103.98 90.87,-91.21 76.26,-81.35"/>
<polygon fill="midnightblue" stroke="midnightblue" points="78.07,-78.35 67.82,-75.65 74.15,-84.15 78.07,-78.35"/>
</g>
<!-- Node11 -->
<g id="node11" class="node">
<title>Node11</title>
<g id="a_node11"><a xlink:href="container__request_8hpp.html" target="_top" xlink:title="Data structure for representing a container operation request.">
<polygon fill="white" stroke="black" points="193.5,-56.5 193.5,-75.5 336.5,-75.5 336.5,-56.5 193.5,-56.5"/>
<text text-anchor="middle" x="265" y="-63.5" font-family="Helvetica,sans-Serif" font-size="10.00">inc/container_request.hpp</text>
</a>
</g>
</g>
<!-- Node9&#45;&gt;Node11 -->
<g id="edge12" class="edge">
<title>Node9&#45;&gt;Node11</title>
<path fill="none" stroke="midnightblue" d="M155.6,-112.44C176.99,-103.56 210.68,-89.56 235.02,-79.45"/>
<polygon fill="midnightblue" stroke="midnightblue" points="236.61,-82.58 244.5,-75.52 233.92,-76.12 236.61,-82.58"/>
</g>
<!-- Node11&#45;&gt;Node4 -->
<g id="edge13" class="edge">
<title>Node11&#45;&gt;Node4</title>
<path fill="none" stroke="midnightblue" d="M276.25,-56.32C286.8,-48.18 302.8,-35.84 315.44,-26.09"/>
<polygon fill="midnightblue" stroke="midnightblue" points="317.77,-28.71 323.55,-19.83 313.49,-23.17 317.77,-28.71"/>
</g>
</g>
</svg>
