<?xml version="1.0" encoding="UTF-8" standalone="no"?>
<!DOCTYPE svg PUBLIC "-//W3C//DTD SVG 1.1//EN"
 "http://www.w3.org/Graphics/SVG/1.1/DTD/svg11.dtd">
<!-- Generated by graphviz version 2.43.0 (0)
 -->
<!-- Title: api/inc/posix_message_queue_consumer.hpp Pages: 1 -->
<svg width="741pt" height="207pt"
 viewBox="0.00 0.00 740.50 207.00" xmlns="http://www.w3.org/2000/svg" xmlns:xlink="http://www.w3.org/1999/xlink">
<g id="graph0" class="graph" transform="scale(1 1) rotate(0) translate(4 203)">
<title>api/inc/posix_message_queue_consumer.hpp</title>
<polygon fill="white" stroke="transparent" points="-4,4 -4,-203 736.5,-203 736.5,4 -4,4"/>
<!-- Node1 -->
<g id="node1" class="node">
<title>Node1</title>
<g id="a_node1"><a xlink:title="Declares the MessageQueueConsumer class for handling messages from a POSIX message queue.">
<polygon fill="#bfbfbf" stroke="black" points="116,-168.5 116,-198.5 244,-198.5 244,-168.5 116,-168.5"/>
<text text-anchor="start" x="124" y="-186.5" font-family="Helvetica,sans-Serif" font-size="10.00">api/inc/posix_message</text>
<text text-anchor="middle" x="180" y="-175.5" font-family="Helvetica,sans-Serif" font-size="10.00">_queue_consumer.hpp</text>
</a>
</g>
</g>
<!-- Node2 -->
<g id="node2" class="node">
<title>Node2</title>
<g id="a_node2"><a xlink:title=" ">
<polygon fill="white" stroke="#bfbfbf" points="0,-112.5 0,-131.5 50,-131.5 50,-112.5 0,-112.5"/>
<text text-anchor="middle" x="25" y="-119.5" font-family="Helvetica,sans-Serif" font-size="10.00">atomic</text>
</a>
</g>
</g>
<!-- Node1&#45;&gt;Node2 -->
<g id="edge1" class="edge">
<title>Node1&#45;&gt;Node2</title>
<path fill="none" stroke="midnightblue" d="M143.27,-168.4C117.03,-158.33 82.07,-144.91 56.98,-135.28"/>
<polygon fill="midnightblue" stroke="midnightblue" points="58.14,-131.97 47.55,-131.66 55.64,-138.51 58.14,-131.97"/>
</g>
<!-- Node3 -->
<g id="node3" class="node">
<title>Node3</title>
<g id="a_node3"><a xlink:title=" ">
<polygon fill="white" stroke="#bfbfbf" points="68,-112.5 68,-131.5 126,-131.5 126,-112.5 68,-112.5"/>
<text text-anchor="middle" x="97" y="-119.5" font-family="Helvetica,sans-Serif" font-size="10.00">memory</text>
</a>
</g>
</g>
<!-- Node1&#45;&gt;Node3 -->
<g id="edge2" class="edge">
<title>Node1&#45;&gt;Node3</title>
<path fill="none" stroke="midnightblue" d="M160.33,-168.4C147.4,-159.13 130.51,-147.03 117.43,-137.65"/>
<polygon fill="midnightblue" stroke="midnightblue" points="119.24,-134.64 109.08,-131.66 115.17,-140.33 119.24,-134.64"/>
</g>
<!-- Node4 -->
<g id="node4" class="node">
<title>Node4</title>
<g id="a_node4"><a xlink:title=" ">
<polygon fill="white" stroke="#bfbfbf" points="290,-0.5 290,-19.5 334,-19.5 334,-0.5 290,-0.5"/>
<text text-anchor="middle" x="312" y="-7.5" font-family="Helvetica,sans-Serif" font-size="10.00">string</text>
</a>
</g>
</g>
<!-- Node1&#45;&gt;Node4 -->
<g id="edge3" class="edge">
<title>Node1&#45;&gt;Node4</title>
<path fill="none" stroke="midnightblue" d="M177.52,-168.41C175.87,-158.31 173.85,-144.36 173,-132 170.49,-95.61 176.82,-80.33 204,-56 225.62,-36.65 256.75,-24.88 280.03,-18.26"/>
<polygon fill="midnightblue" stroke="midnightblue" points="281.04,-21.61 289.8,-15.65 279.23,-14.85 281.04,-21.61"/>
</g>
<!-- Node5 -->
<g id="node5" class="node">
<title>Node5</title>
<g id="a_node5"><a xlink:title=" ">
<polygon fill="white" stroke="#bfbfbf" points="182,-112.5 182,-131.5 230,-131.5 230,-112.5 182,-112.5"/>
<text text-anchor="middle" x="206" y="-119.5" font-family="Helvetica,sans-Serif" font-size="10.00">thread</text>
</a>
</g>
</g>
<!-- Node1&#45;&gt;Node5 -->
<g id="edge4" class="edge">
<title>Node1&#45;&gt;Node5</title>
<path fill="none" stroke="midnightblue" d="M186.16,-168.4C189.74,-160.2 194.3,-149.78 198.14,-140.99"/>
<polygon fill="midnightblue" stroke="midnightblue" points="201.42,-142.22 202.22,-131.66 195.01,-139.42 201.42,-142.22"/>
</g>
<!-- Node6 -->
<g id="node6" class="node">
<title>Node6</title>
<g id="a_node6"><a xlink:href="common_8hpp.html" target="_top" xlink:title="Defines common constants, string views, and utility structures for the application.">
<polygon fill="white" stroke="black" points="248,-112.5 248,-131.5 346,-131.5 346,-112.5 248,-112.5"/>
<text text-anchor="middle" x="297" y="-119.5" font-family="Helvetica,sans-Serif" font-size="10.00">inc/common.hpp</text>
</a>
</g>
</g>
<!-- Node1&#45;&gt;Node6 -->
<g id="edge5" class="edge">
<title>Node1&#45;&gt;Node6</title>
<path fill="none" stroke="midnightblue" d="M207.73,-168.4C226.83,-158.68 252.06,-145.86 270.82,-136.31"/>
<polygon fill="midnightblue" stroke="midnightblue" points="272.65,-139.31 279.98,-131.66 269.48,-133.07 272.65,-139.31"/>
</g>
<!-- Node9 -->
<g id="node9" class="node">
<title>Node9</title>
<g id="a_node9"><a xlink:href="request__executor_8hpp.html" target="_top" xlink:title="Declares the abstract RequestExecutor interface for executing requests.">
<polygon fill="white" stroke="black" points="405,-112.5 405,-131.5 545,-131.5 545,-112.5 405,-112.5"/>
<text text-anchor="middle" x="475" y="-119.5" font-family="Helvetica,sans-Serif" font-size="10.00">inc/request_executor.hpp</text>
</a>
</g>
</g>
<!-- Node1&#45;&gt;Node9 -->
<g id="edge9" class="edge">
<title>Node1&#45;&gt;Node9</title>
<path fill="none" stroke="midnightblue" d="M244.01,-169.59C297.44,-158.81 372.65,-143.64 422.57,-133.58"/>
<polygon fill="midnightblue" stroke="midnightblue" points="423.39,-136.98 432.51,-131.57 422.01,-130.12 423.39,-136.98"/>
</g>
<!-- Node6&#45;&gt;Node4 -->
<g id="edge6" class="edge">
<title>Node6&#45;&gt;Node4</title>
<path fill="none" stroke="midnightblue" d="M267.15,-112.49C236.01,-102.01 193.93,-82.29 211,-56 226.12,-32.72 256.38,-21.38 279.86,-15.92"/>
<polygon fill="midnightblue" stroke="midnightblue" points="280.68,-19.32 289.76,-13.86 279.26,-12.47 280.68,-19.32"/>
</g>
<!-- Node7 -->
<g id="node7" class="node">
<title>Node7</title>
<g id="a_node7"><a xlink:title=" ">
<polygon fill="white" stroke="#bfbfbf" points="220.5,-56.5 220.5,-75.5 293.5,-75.5 293.5,-56.5 220.5,-56.5"/>
<text text-anchor="middle" x="257" y="-63.5" font-family="Helvetica,sans-Serif" font-size="10.00">string_view</text>
</a>
</g>
</g>
<!-- Node6&#45;&gt;Node7 -->
<g id="edge7" class="edge">
<title>Node6&#45;&gt;Node7</title>
<path fill="none" stroke="midnightblue" d="M290.39,-112.08C284.74,-104.46 276.46,-93.26 269.55,-83.94"/>
<polygon fill="midnightblue" stroke="midnightblue" points="272.25,-81.7 263.48,-75.75 266.62,-85.87 272.25,-81.7"/>
</g>
<!-- Node8 -->
<g id="node8" class="node">
<title>Node8</title>
<g id="a_node8"><a xlink:title=" ">
<polygon fill="white" stroke="#bfbfbf" points="311.5,-56.5 311.5,-75.5 404.5,-75.5 404.5,-56.5 311.5,-56.5"/>
<text text-anchor="middle" x="358" y="-63.5" font-family="Helvetica,sans-Serif" font-size="10.00">unordered_map</text>
</a>
</g>
</g>
<!-- Node6&#45;&gt;Node8 -->
<g id="edge8" class="edge">
<title>Node6&#45;&gt;Node8</title>
<path fill="none" stroke="midnightblue" d="M306.8,-112.32C315.82,-104.34 329.41,-92.31 340.32,-82.65"/>
<polygon fill="midnightblue" stroke="midnightblue" points="342.85,-85.08 348.02,-75.83 338.21,-79.84 342.85,-85.08"/>
</g>
<!-- Node9&#45;&gt;Node4 -->
<g id="edge10" class="edge">
<title>Node9&#45;&gt;Node4</title>
<path fill="none" stroke="midnightblue" d="M468.61,-112.39C458.22,-98.88 436.45,-72.53 413,-56 391.7,-40.98 364.58,-29.23 343.81,-21.51"/>
<polygon fill="midnightblue" stroke="midnightblue" points="344.77,-18.14 334.17,-18.05 342.4,-24.73 344.77,-18.14"/>
</g>
<!-- Node10 -->
<g id="node10" class="node">
<title>Node10</title>
<g id="a_node10"><a xlink:title=" ">
<polygon fill="white" stroke="#bfbfbf" points="461,-56.5 461,-75.5 571,-75.5 571,-56.5 461,-56.5"/>
<text text-anchor="middle" x="516" y="-63.5" font-family="Helvetica,sans-Serif" font-size="10.00">nlohmann/json.hpp</text>
</a>
</g>
</g>
<!-- Node9&#45;&gt;Node10 -->
<g id="edge11" class="edge">
<title>Node9&#45;&gt;Node10</title>
<path fill="none" stroke="midnightblue" d="M481.77,-112.08C487.56,-104.46 496.06,-93.26 503.14,-83.94"/>
<polygon fill="midnightblue" stroke="midnightblue" points="506.1,-85.83 509.36,-75.75 500.52,-81.6 506.1,-85.83"/>
</g>
<!-- Node11 -->
<g id="node11" class="node">
<title>Node11</title>
<g id="a_node11"><a xlink:href="container__request_8hpp.html" target="_top" xlink:title="Data structure for representing a container operation request.">
<polygon fill="white" stroke="black" points="589.5,-56.5 589.5,-75.5 732.5,-75.5 732.5,-56.5 589.5,-56.5"/>
<text text-anchor="middle" x="661" y="-63.5" font-family="Helvetica,sans-Serif" font-size="10.00">inc/container_request.hpp</text>
</a>
</g>
</g>
<!-- Node9&#45;&gt;Node11 -->
<g id="edge12" class="edge">
<title>Node9&#45;&gt;Node11</title>
<path fill="none" stroke="midnightblue" d="M504.47,-112.44C536.17,-103.24 586.73,-88.56 621.77,-78.39"/>
<polygon fill="midnightblue" stroke="midnightblue" points="623.04,-81.67 631.67,-75.52 621.09,-74.94 623.04,-81.67"/>
</g>
<!-- Node11&#45;&gt;Node4 -->
<g id="edge13" class="edge">
<title>Node11&#45;&gt;Node4</title>
<path fill="none" stroke="midnightblue" d="M605.7,-56.44C531.9,-45.03 403.63,-25.18 344.08,-15.96"/>
<polygon fill="midnightblue" stroke="midnightblue" points="344.54,-12.49 334.12,-14.42 343.47,-19.41 344.54,-12.49"/>
</g>
</g>
</svg>
