<?xml version="1.0" encoding="UTF-8" standalone="no"?>
<!DOCTYPE svg PUBLIC "-//W3C//DTD SVG 1.1//EN"
 "http://www.w3.org/Graphics/SVG/1.1/DTD/svg11.dtd">
<!-- Generated by graphviz version 2.43.0 (0)
 -->
<!-- Title: executor/src/protobuf_request_executor.cpp Pages: 1 -->
<svg width="2628pt" height="285pt"
 viewBox="0.00 0.00 2627.65 285.00" xmlns="http://www.w3.org/2000/svg" xmlns:xlink="http://www.w3.org/1999/xlink">
<g id="graph0" class="graph" transform="scale(1 1) rotate(0) translate(4 281)">
<title>executor/src/protobuf_request_executor.cpp</title>
<polygon fill="white" stroke="transparent" points="-4,4 -4,-281 2623.65,-281 2623.65,4 -4,4"/>
<!-- Node1 -->
<g id="node1" class="node">
<title>Node1</title>
<g id="a_node1"><a xlink:title="Implements the ProtoRequestExecutorHandler class for handling Protobuf&#45;based requests.">
<polygon fill="#bfbfbf" stroke="black" points="153.5,-246.5 153.5,-276.5 280.5,-276.5 280.5,-246.5 153.5,-246.5"/>
<text text-anchor="start" x="161.5" y="-264.5" font-family="Helvetica,sans-Serif" font-size="10.00">executor/src/protobuf</text>
<text text-anchor="middle" x="217" y="-253.5" font-family="Helvetica,sans-Serif" font-size="10.00">_request_executor.cpp</text>
</a>
</g>
</g>
<!-- Node2 -->
<g id="node2" class="node">
<title>Node2</title>
<g id="a_node2"><a xlink:href="protobuf__request__executor_8hpp.html" target="_top" xlink:title="Declares the ProtoRequestExecutorHandler class for handling Protobuf&#45;based requests.">
<polygon fill="white" stroke="black" points="115.5,-179.5 115.5,-209.5 232.5,-209.5 232.5,-179.5 115.5,-179.5"/>
<text text-anchor="start" x="123.5" y="-197.5" font-family="Helvetica,sans-Serif" font-size="10.00">inc/protobuf_request</text>
<text text-anchor="middle" x="174" y="-186.5" font-family="Helvetica,sans-Serif" font-size="10.00">_executor.hpp</text>
</a>
</g>
</g>
<!-- Node1&#45;&gt;Node2 -->
<g id="edge1" class="edge">
<title>Node1&#45;&gt;Node2</title>
<path fill="none" stroke="midnightblue" d="M207.67,-246.4C202.2,-238.13 195.17,-227.51 188.95,-218.1"/>
<polygon fill="midnightblue" stroke="midnightblue" points="191.75,-215.99 183.31,-209.58 185.91,-219.85 191.75,-215.99"/>
</g>
<!-- Node4 -->
<g id="node4" class="node">
<title>Node4</title>
<g id="a_node4"><a xlink:title=" ">
<polygon fill="white" stroke="#bfbfbf" points="0,-0.5 0,-19.5 110,-19.5 110,-0.5 0,-0.5"/>
<text text-anchor="middle" x="55" y="-7.5" font-family="Helvetica,sans-Serif" font-size="10.00">nlohmann/json.hpp</text>
</a>
</g>
</g>
<!-- Node1&#45;&gt;Node4 -->
<g id="edge36" class="edge">
<title>Node1&#45;&gt;Node4</title>
<path fill="none" stroke="midnightblue" d="M161.96,-246.37C113.51,-230.46 46.92,-199.18 22,-143 17.2,-132.18 21.06,-67.87 25,-56 28.43,-45.66 34.92,-35.45 40.98,-27.37"/>
<polygon fill="midnightblue" stroke="midnightblue" points="43.73,-29.54 47.23,-19.55 38.26,-25.18 43.73,-29.54"/>
</g>
<!-- Node7 -->
<g id="node7" class="node">
<title>Node7</title>
<g id="a_node7"><a xlink:href="database__interface_8hpp.html" target="_top" xlink:title="Abstract interface for database operations.">
<polygon fill="white" stroke="black" points="82.5,-56.5 82.5,-75.5 231.5,-75.5 231.5,-56.5 82.5,-56.5"/>
<text text-anchor="middle" x="157" y="-63.5" font-family="Helvetica,sans-Serif" font-size="10.00">inc/database_interface.hpp</text>
</a>
</g>
</g>
<!-- Node1&#45;&gt;Node7 -->
<g id="edge30" class="edge">
<title>Node1&#45;&gt;Node7</title>
<path fill="none" stroke="midnightblue" d="M225.96,-246.1C231.5,-236.33 238.1,-222.88 241,-210 244.03,-196.56 243.88,-192.47 241,-179 234.18,-147.09 230.71,-138 211,-112 202.04,-100.18 189.42,-89.44 178.63,-81.42"/>
<polygon fill="midnightblue" stroke="midnightblue" points="180.65,-78.56 170.48,-75.61 176.59,-84.26 180.65,-78.56"/>
</g>
<!-- Node8 -->
<g id="node8" class="node">
<title>Node8</title>
<g id="a_node8"><a xlink:href="container__service_8hpp.html" target="_top" xlink:title="Declares the ContainerServiceHandler class for business logic related to containers.">
<polygon fill="white" stroke="black" points="45.5,-118 45.5,-137 186.5,-137 186.5,-118 45.5,-118"/>
<text text-anchor="middle" x="116" y="-125" font-family="Helvetica,sans-Serif" font-size="10.00">inc/container_service.hpp</text>
</a>
</g>
</g>
<!-- Node1&#45;&gt;Node8 -->
<g id="edge31" class="edge">
<title>Node1&#45;&gt;Node8</title>
<path fill="none" stroke="midnightblue" d="M155.18,-246.47C136.13,-238.94 117.23,-227.45 106,-210 93.8,-191.04 100.49,-164.4 107.39,-146.8"/>
<polygon fill="midnightblue" stroke="midnightblue" points="110.8,-147.73 111.54,-137.17 104.37,-144.96 110.8,-147.73"/>
</g>
<!-- Node9 -->
<g id="node9" class="node">
<title>Node9</title>
<g id="a_node9"><a xlink:href="container__manager_8pb_8h.html" target="_top" xlink:title=" ">
<polygon fill="white" stroke="black" points="1380.5,-185 1380.5,-204 1515.5,-204 1515.5,-185 1380.5,-185"/>
<text text-anchor="middle" x="1448" y="-192" font-family="Helvetica,sans-Serif" font-size="10.00">container_manager.pb.h</text>
</a>
</g>
</g>
<!-- Node1&#45;&gt;Node9 -->
<g id="edge16" class="edge">
<title>Node1&#45;&gt;Node9</title>
<path fill="none" stroke="midnightblue" d="M280.59,-257.14C487.88,-246.2 1143.67,-211.57 1370.17,-199.61"/>
<polygon fill="midnightblue" stroke="midnightblue" points="1370.5,-203.1 1380.3,-199.07 1370.13,-196.11 1370.5,-203.1"/>
</g>
<!-- Node22 -->
<g id="node22" class="node">
<title>Node22</title>
<g id="a_node22"><a xlink:href="common_8hpp.html" target="_top" xlink:title="Defines common constants, string views, and utility structures for the application.">
<polygon fill="white" stroke="black" points="2456,-185 2456,-204 2554,-204 2554,-185 2456,-185"/>
<text text-anchor="middle" x="2505" y="-192" font-family="Helvetica,sans-Serif" font-size="10.00">inc/common.hpp</text>
</a>
</g>
</g>
<!-- Node1&#45;&gt;Node22 -->
<g id="edge32" class="edge">
<title>Node1&#45;&gt;Node22</title>
<path fill="none" stroke="midnightblue" d="M280.58,-258.69C610.62,-249.32 2125.51,-206.28 2445.53,-197.19"/>
<polygon fill="midnightblue" stroke="midnightblue" points="2445.63,-200.69 2455.52,-196.91 2445.43,-193.69 2445.63,-200.69"/>
</g>
<!-- Node3 -->
<g id="node3" class="node">
<title>Node3</title>
<g id="a_node3"><a xlink:title=" ">
<polygon fill="white" stroke="#bfbfbf" points="456,-0.5 456,-19.5 500,-19.5 500,-0.5 456,-0.5"/>
<text text-anchor="middle" x="478" y="-7.5" font-family="Helvetica,sans-Serif" font-size="10.00">string</text>
</a>
</g>
</g>
<!-- Node2&#45;&gt;Node3 -->
<g id="edge2" class="edge">
<title>Node2&#45;&gt;Node3</title>
<path fill="none" stroke="midnightblue" d="M232.62,-189.09C300.82,-182.81 407.95,-169.07 438,-143 471.21,-114.19 477.36,-58.79 478.18,-29.78"/>
<polygon fill="midnightblue" stroke="midnightblue" points="481.68,-29.77 478.28,-19.74 474.68,-29.71 481.68,-29.77"/>
</g>
<!-- Node2&#45;&gt;Node4 -->
<g id="edge3" class="edge">
<title>Node2&#45;&gt;Node4</title>
<path fill="none" stroke="midnightblue" d="M115.16,-187.52C86.27,-181.28 53.9,-168.62 36,-143 11.77,-108.34 31.79,-55.93 45.25,-28.76"/>
<polygon fill="midnightblue" stroke="midnightblue" points="48.47,-30.15 49.98,-19.67 42.26,-26.92 48.47,-30.15"/>
</g>
<!-- Node5 -->
<g id="node5" class="node">
<title>Node5</title>
<g id="a_node5"><a xlink:href="request__executor_8hpp.html" target="_top" xlink:title="Declares the abstract RequestExecutor interface for executing requests.">
<polygon fill="white" stroke="black" points="289,-118 289,-137 429,-137 429,-118 289,-118"/>
<text text-anchor="middle" x="359" y="-125" font-family="Helvetica,sans-Serif" font-size="10.00">inc/request_executor.hpp</text>
</a>
</g>
</g>
<!-- Node2&#45;&gt;Node5 -->
<g id="edge4" class="edge">
<title>Node2&#45;&gt;Node5</title>
<path fill="none" stroke="midnightblue" d="M214.14,-179.4C247.32,-167.74 293.9,-151.37 325.2,-140.38"/>
<polygon fill="midnightblue" stroke="midnightblue" points="326.51,-143.62 334.79,-137.01 324.19,-137.02 326.51,-143.62"/>
</g>
<!-- Node2&#45;&gt;Node7 -->
<g id="edge9" class="edge">
<title>Node2&#45;&gt;Node7</title>
<path fill="none" stroke="midnightblue" d="M182.73,-179.4C191.75,-162.95 203.43,-135.05 195,-112 190.94,-100.91 182.81,-90.67 175.11,-82.76"/>
<polygon fill="midnightblue" stroke="midnightblue" points="177.36,-80.07 167.71,-75.7 172.53,-85.14 177.36,-80.07"/>
</g>
<!-- Node2&#45;&gt;Node8 -->
<g id="edge12" class="edge">
<title>Node2&#45;&gt;Node8</title>
<path fill="none" stroke="midnightblue" d="M161.41,-179.4C152.37,-169.26 140.15,-155.57 130.67,-144.94"/>
<polygon fill="midnightblue" stroke="midnightblue" points="133.03,-142.33 123.76,-137.19 127.8,-146.99 133.03,-142.33"/>
</g>
<!-- Node5&#45;&gt;Node3 -->
<g id="edge5" class="edge">
<title>Node5&#45;&gt;Node3</title>
<path fill="none" stroke="midnightblue" d="M377.55,-117.96C394.97,-109.26 420.97,-94.44 439,-76 452.47,-62.22 463.29,-42.93 470.09,-28.95"/>
<polygon fill="midnightblue" stroke="midnightblue" points="473.27,-30.4 474.3,-19.86 466.92,-27.46 473.27,-30.4"/>
</g>
<!-- Node5&#45;&gt;Node4 -->
<g id="edge6" class="edge">
<title>Node5&#45;&gt;Node4</title>
<path fill="none" stroke="midnightblue" d="M345.64,-117.9C319.38,-101.11 261.68,-64.83 240,-56 200.68,-39.99 154.26,-28.72 117.75,-21.46"/>
<polygon fill="midnightblue" stroke="midnightblue" points="118.21,-17.98 107.73,-19.52 116.88,-24.86 118.21,-17.98"/>
</g>
<!-- Node6 -->
<g id="node6" class="node">
<title>Node6</title>
<g id="a_node6"><a xlink:href="container__request_8hpp.html" target="_top" xlink:title="Data structure for representing a container operation request.">
<polygon fill="white" stroke="black" points="287.5,-56.5 287.5,-75.5 430.5,-75.5 430.5,-56.5 287.5,-56.5"/>
<text text-anchor="middle" x="359" y="-63.5" font-family="Helvetica,sans-Serif" font-size="10.00">inc/container_request.hpp</text>
</a>
</g>
</g>
<!-- Node5&#45;&gt;Node6 -->
<g id="edge7" class="edge">
<title>Node5&#45;&gt;Node6</title>
<path fill="none" stroke="midnightblue" d="M359,-117.98C359,-109.58 359,-96.48 359,-85.66"/>
<polygon fill="midnightblue" stroke="midnightblue" points="362.5,-85.51 359,-75.51 355.5,-85.51 362.5,-85.51"/>
</g>
<!-- Node6&#45;&gt;Node3 -->
<g id="edge8" class="edge">
<title>Node6&#45;&gt;Node3</title>
<path fill="none" stroke="midnightblue" d="M377.86,-56.44C397.27,-47.64 427.73,-33.81 449.96,-23.72"/>
<polygon fill="midnightblue" stroke="midnightblue" points="451.57,-26.84 459.23,-19.52 448.68,-20.46 451.57,-26.84"/>
</g>
<!-- Node7&#45;&gt;Node3 -->
<g id="edge10" class="edge">
<title>Node7&#45;&gt;Node3</title>
<path fill="none" stroke="midnightblue" d="M207.86,-56.44C274.63,-45.21 389.87,-25.82 445.76,-16.42"/>
<polygon fill="midnightblue" stroke="midnightblue" points="446.51,-19.85 455.79,-14.74 445.35,-12.94 446.51,-19.85"/>
</g>
<!-- Node7&#45;&gt;Node4 -->
<g id="edge11" class="edge">
<title>Node7&#45;&gt;Node4</title>
<path fill="none" stroke="midnightblue" d="M140.61,-56.32C124.33,-47.7 99.13,-34.36 80.28,-24.39"/>
<polygon fill="midnightblue" stroke="midnightblue" points="81.82,-21.24 71.35,-19.65 78.55,-27.43 81.82,-21.24"/>
</g>
<!-- Node8&#45;&gt;Node4 -->
<g id="edge13" class="edge">
<title>Node8&#45;&gt;Node4</title>
<path fill="none" stroke="midnightblue" d="M106.4,-117.74C96.64,-108.32 81.74,-92.48 73,-76 65.28,-61.45 60.61,-43.27 57.97,-29.84"/>
<polygon fill="midnightblue" stroke="midnightblue" points="61.39,-29.1 56.21,-19.86 54.5,-30.32 61.39,-29.1"/>
</g>
<!-- Node8&#45;&gt;Node6 -->
<g id="edge15" class="edge">
<title>Node8&#45;&gt;Node6</title>
<path fill="none" stroke="midnightblue" d="M150.82,-117.98C193.85,-107.44 267.17,-89.49 314.31,-77.94"/>
<polygon fill="midnightblue" stroke="midnightblue" points="315.37,-81.29 324.25,-75.51 313.7,-74.49 315.37,-81.29"/>
</g>
<!-- Node8&#45;&gt;Node7 -->
<g id="edge14" class="edge">
<title>Node8&#45;&gt;Node7</title>
<path fill="none" stroke="midnightblue" d="M121.87,-117.98C127.96,-109.14 137.64,-95.09 145.3,-83.98"/>
<polygon fill="midnightblue" stroke="midnightblue" points="148.34,-85.73 151.14,-75.51 142.58,-81.76 148.34,-85.73"/>
</g>
<!-- Node9&#45;&gt;Node3 -->
<g id="edge17" class="edge">
<title>Node9&#45;&gt;Node3</title>
<path fill="none" stroke="midnightblue" d="M1503.99,-184.98C1563.16,-173.74 1643.4,-150.7 1608,-112 1531.91,-28.81 688.06,-13.64 510.62,-11.36"/>
<polygon fill="midnightblue" stroke="midnightblue" points="510.41,-7.86 500.36,-11.23 510.32,-14.85 510.41,-7.86"/>
</g>
<!-- Node10 -->
<g id="node10" class="node">
<title>Node10</title>
<g id="a_node10"><a xlink:title=" ">
<polygon fill="white" stroke="#bfbfbf" points="1656.5,-112.5 1656.5,-142.5 1779.5,-142.5 1779.5,-112.5 1656.5,-112.5"/>
<text text-anchor="start" x="1664.5" y="-130.5" font-family="Helvetica,sans-Serif" font-size="10.00">google/protobuf/stubs</text>
<text text-anchor="middle" x="1718" y="-119.5" font-family="Helvetica,sans-Serif" font-size="10.00">/common.h</text>
</a>
</g>
</g>
<!-- Node9&#45;&gt;Node10 -->
<g id="edge18" class="edge">
<title>Node9&#45;&gt;Node10</title>
<path fill="none" stroke="midnightblue" d="M1483.58,-184.94C1525.68,-174.8 1596.75,-157.69 1649.62,-144.96"/>
<polygon fill="midnightblue" stroke="midnightblue" points="1650.7,-148.3 1659.6,-142.56 1649.06,-141.5 1650.7,-148.3"/>
</g>
<!-- Node11 -->
<g id="node11" class="node">
<title>Node11</title>
<g id="a_node11"><a xlink:title=" ">
<polygon fill="white" stroke="#bfbfbf" points="1798,-112.5 1798,-142.5 1904,-142.5 1904,-112.5 1798,-112.5"/>
<text text-anchor="start" x="1806" y="-130.5" font-family="Helvetica,sans-Serif" font-size="10.00">google/protobuf/io</text>
<text text-anchor="middle" x="1851" y="-119.5" font-family="Helvetica,sans-Serif" font-size="10.00">/coded_stream.h</text>
</a>
</g>
</g>
<!-- Node9&#45;&gt;Node11 -->
<g id="edge19" class="edge">
<title>Node9&#45;&gt;Node11</title>
<path fill="none" stroke="midnightblue" d="M1515.68,-185.05C1582.26,-176.37 1687.02,-161.74 1787.74,-142.95"/>
<polygon fill="midnightblue" stroke="midnightblue" points="1788.61,-146.35 1797.79,-141.06 1787.31,-139.47 1788.61,-146.35"/>
</g>
<!-- Node12 -->
<g id="node12" class="node">
<title>Node12</title>
<g id="a_node12"><a xlink:title=" ">
<polygon fill="white" stroke="#bfbfbf" points="1922,-118 1922,-137 2056,-137 2056,-118 1922,-118"/>
<text text-anchor="middle" x="1989" y="-125" font-family="Helvetica,sans-Serif" font-size="10.00">google/protobuf/arena.h</text>
</a>
</g>
</g>
<!-- Node9&#45;&gt;Node12 -->
<g id="edge20" class="edge">
<title>Node9&#45;&gt;Node12</title>
<path fill="none" stroke="midnightblue" d="M1515.6,-187.87C1606.29,-179.94 1772.25,-164.03 1913,-143 1921.03,-141.8 1929.5,-140.36 1937.76,-138.86"/>
<polygon fill="midnightblue" stroke="midnightblue" points="1938.5,-142.28 1947.69,-137.01 1937.21,-135.4 1938.5,-142.28"/>
</g>
<!-- Node13 -->
<g id="node13" class="node">
<title>Node13</title>
<g id="a_node13"><a xlink:title=" ">
<polygon fill="white" stroke="#bfbfbf" points="2074.5,-118 2074.5,-137 2235.5,-137 2235.5,-118 2074.5,-118"/>
<text text-anchor="middle" x="2155" y="-125" font-family="Helvetica,sans-Serif" font-size="10.00">google/protobuf/arenastring.h</text>
</a>
</g>
</g>
<!-- Node9&#45;&gt;Node13 -->
<g id="edge21" class="edge">
<title>Node9&#45;&gt;Node13</title>
<path fill="none" stroke="midnightblue" d="M1515.74,-189.69C1629.49,-182.91 1866.02,-167.14 2065,-143 2075.24,-141.76 2086.1,-140.21 2096.6,-138.59"/>
<polygon fill="midnightblue" stroke="midnightblue" points="2097.19,-142.04 2106.52,-137.02 2096.1,-135.12 2097.19,-142.04"/>
</g>
<!-- Node14 -->
<g id="node14" class="node">
<title>Node14</title>
<g id="a_node14"><a xlink:title=" ">
<polygon fill="white" stroke="#bfbfbf" points="2254,-112.5 2254,-142.5 2400,-142.5 2400,-112.5 2254,-112.5"/>
<text text-anchor="start" x="2262" y="-130.5" font-family="Helvetica,sans-Serif" font-size="10.00">google/protobuf/generated</text>
<text text-anchor="middle" x="2327" y="-119.5" font-family="Helvetica,sans-Serif" font-size="10.00">_message_table_driven.h</text>
</a>
</g>
</g>
<!-- Node9&#45;&gt;Node14 -->
<g id="edge22" class="edge">
<title>Node9&#45;&gt;Node14</title>
<path fill="none" stroke="midnightblue" d="M1515.58,-191.71C1651.45,-187.57 1967.51,-175.2 2243.53,-142.95"/>
<polygon fill="midnightblue" stroke="midnightblue" points="2244.22,-146.39 2253.74,-141.75 2243.4,-139.44 2244.22,-146.39"/>
</g>
<!-- Node15 -->
<g id="node15" class="node">
<title>Node15</title>
<g id="a_node15"><a xlink:title=" ">
<polygon fill="white" stroke="#bfbfbf" points="485,-112.5 485,-142.5 631,-142.5 631,-112.5 485,-112.5"/>
<text text-anchor="start" x="493" y="-130.5" font-family="Helvetica,sans-Serif" font-size="10.00">google/protobuf/generated</text>
<text text-anchor="middle" x="558" y="-119.5" font-family="Helvetica,sans-Serif" font-size="10.00">_message_util.h</text>
</a>
</g>
</g>
<!-- Node9&#45;&gt;Node15 -->
<g id="edge23" class="edge">
<title>Node9&#45;&gt;Node15</title>
<path fill="none" stroke="midnightblue" d="M1380.46,-191.85C1243.07,-187.93 921.03,-175.89 641.19,-143.05"/>
<polygon fill="midnightblue" stroke="midnightblue" points="641.6,-139.58 631.26,-141.88 640.78,-146.53 641.6,-139.58"/>
</g>
<!-- Node16 -->
<g id="node16" class="node">
<title>Node16</title>
<g id="a_node16"><a xlink:title=" ">
<polygon fill="white" stroke="#bfbfbf" points="649,-112.5 649,-142.5 779,-142.5 779,-112.5 649,-112.5"/>
<text text-anchor="start" x="657" y="-130.5" font-family="Helvetica,sans-Serif" font-size="10.00">google/protobuf/inlined</text>
<text text-anchor="middle" x="714" y="-119.5" font-family="Helvetica,sans-Serif" font-size="10.00">_string_field.h</text>
</a>
</g>
</g>
<!-- Node9&#45;&gt;Node16 -->
<g id="edge24" class="edge">
<title>Node9&#45;&gt;Node16</title>
<path fill="none" stroke="midnightblue" d="M1380.27,-190.94C1262.21,-185.9 1010.98,-172.63 789.49,-143.1"/>
<polygon fill="midnightblue" stroke="midnightblue" points="789.68,-139.59 779.3,-141.73 788.74,-146.53 789.68,-139.59"/>
</g>
<!-- Node17 -->
<g id="node17" class="node">
<title>Node17</title>
<g id="a_node17"><a xlink:title=" ">
<polygon fill="white" stroke="#bfbfbf" points="797.5,-118 797.5,-137 950.5,-137 950.5,-118 797.5,-118"/>
<text text-anchor="middle" x="874" y="-125" font-family="Helvetica,sans-Serif" font-size="10.00">google/protobuf/metadata.h</text>
</a>
</g>
</g>
<!-- Node9&#45;&gt;Node17 -->
<g id="edge25" class="edge">
<title>Node9&#45;&gt;Node17</title>
<path fill="none" stroke="midnightblue" d="M1380.34,-187.88C1285.98,-179.72 1109.6,-163.33 960,-143 950.65,-141.73 940.75,-140.22 931.13,-138.66"/>
<polygon fill="midnightblue" stroke="midnightblue" points="931.67,-135.2 921.23,-137.02 930.53,-142.11 931.67,-135.2"/>
</g>
<!-- Node18 -->
<g id="node18" class="node">
<title>Node18</title>
<g id="a_node18"><a xlink:title=" ">
<polygon fill="white" stroke="#bfbfbf" points="969,-118 969,-137 1119,-137 1119,-118 969,-118"/>
<text text-anchor="middle" x="1044" y="-125" font-family="Helvetica,sans-Serif" font-size="10.00">google/protobuf/message.h</text>
</a>
</g>
</g>
<!-- Node9&#45;&gt;Node18 -->
<g id="edge26" class="edge">
<title>Node9&#45;&gt;Node18</title>
<path fill="none" stroke="midnightblue" d="M1392.46,-184.98C1328.61,-175.14 1220.67,-158.31 1128,-143 1119.81,-141.65 1111.19,-140.19 1102.7,-138.74"/>
<polygon fill="midnightblue" stroke="midnightblue" points="1103.29,-135.29 1092.84,-137.05 1102.1,-142.19 1103.29,-135.29"/>
</g>
<!-- Node19 -->
<g id="node19" class="node">
<title>Node19</title>
<g id="a_node19"><a xlink:title=" ">
<polygon fill="white" stroke="#bfbfbf" points="1137,-112.5 1137,-142.5 1277,-142.5 1277,-112.5 1137,-112.5"/>
<text text-anchor="start" x="1145" y="-130.5" font-family="Helvetica,sans-Serif" font-size="10.00">google/protobuf/repeated</text>
<text text-anchor="middle" x="1207" y="-119.5" font-family="Helvetica,sans-Serif" font-size="10.00">_field.h</text>
</a>
</g>
</g>
<!-- Node9&#45;&gt;Node19 -->
<g id="edge27" class="edge">
<title>Node9&#45;&gt;Node19</title>
<path fill="none" stroke="midnightblue" d="M1416,-184.87C1378.58,-174.78 1315.8,-157.84 1268.79,-145.16"/>
<polygon fill="midnightblue" stroke="midnightblue" points="1269.58,-141.75 1259.01,-142.53 1267.76,-148.51 1269.58,-141.75"/>
</g>
<!-- Node20 -->
<g id="node20" class="node">
<title>Node20</title>
<g id="a_node20"><a xlink:title=" ">
<polygon fill="white" stroke="#bfbfbf" points="1295.5,-112.5 1295.5,-142.5 1440.5,-142.5 1440.5,-112.5 1295.5,-112.5"/>
<text text-anchor="start" x="1303.5" y="-130.5" font-family="Helvetica,sans-Serif" font-size="10.00">google/protobuf/extension</text>
<text text-anchor="middle" x="1368" y="-119.5" font-family="Helvetica,sans-Serif" font-size="10.00">_set.h</text>
</a>
</g>
</g>
<!-- Node9&#45;&gt;Node20 -->
<g id="edge28" class="edge">
<title>Node9&#45;&gt;Node20</title>
<path fill="none" stroke="midnightblue" d="M1437.21,-184.73C1425.98,-175.61 1408,-161 1393.19,-148.96"/>
<polygon fill="midnightblue" stroke="midnightblue" points="1395.31,-146.18 1385.34,-142.59 1390.89,-151.61 1395.31,-146.18"/>
</g>
<!-- Node21 -->
<g id="node21" class="node">
<title>Node21</title>
<g id="a_node21"><a xlink:title=" ">
<polygon fill="white" stroke="#bfbfbf" points="1458.5,-112.5 1458.5,-142.5 1599.5,-142.5 1599.5,-112.5 1458.5,-112.5"/>
<text text-anchor="start" x="1466.5" y="-130.5" font-family="Helvetica,sans-Serif" font-size="10.00">google/protobuf/unknown</text>
<text text-anchor="middle" x="1529" y="-119.5" font-family="Helvetica,sans-Serif" font-size="10.00">_field_set.h</text>
</a>
</g>
</g>
<!-- Node9&#45;&gt;Node21 -->
<g id="edge29" class="edge">
<title>Node9&#45;&gt;Node21</title>
<path fill="none" stroke="midnightblue" d="M1458.92,-184.73C1470.29,-175.61 1488.5,-161 1503.5,-148.96"/>
<polygon fill="midnightblue" stroke="midnightblue" points="1505.83,-151.58 1511.44,-142.59 1501.45,-146.12 1505.83,-151.58"/>
</g>
<!-- Node22&#45;&gt;Node3 -->
<g id="edge33" class="edge">
<title>Node22&#45;&gt;Node3</title>
<path fill="none" stroke="midnightblue" d="M2533.33,-184.95C2574.13,-171.3 2641.47,-142.95 2612,-112 2436.63,72.17 1723.02,-67.99 1469,-56 1092.43,-38.23 635.3,-17.95 510.69,-12.44"/>
<polygon fill="midnightblue" stroke="midnightblue" points="510.47,-8.93 500.33,-11.98 510.16,-15.92 510.47,-8.93"/>
</g>
<!-- Node23 -->
<g id="node23" class="node">
<title>Node23</title>
<g id="a_node23"><a xlink:title=" ">
<polygon fill="white" stroke="#bfbfbf" points="2418.5,-118 2418.5,-137 2491.5,-137 2491.5,-118 2418.5,-118"/>
<text text-anchor="middle" x="2455" y="-125" font-family="Helvetica,sans-Serif" font-size="10.00">string_view</text>
</a>
</g>
</g>
<!-- Node22&#45;&gt;Node23 -->
<g id="edge34" class="edge">
<title>Node22&#45;&gt;Node23</title>
<path fill="none" stroke="midnightblue" d="M2498.26,-184.73C2490.46,-174.6 2477.45,-157.69 2467.74,-145.06"/>
<polygon fill="midnightblue" stroke="midnightblue" points="2470.51,-142.92 2461.64,-137.13 2464.96,-147.19 2470.51,-142.92"/>
</g>
<!-- Node24 -->
<g id="node24" class="node">
<title>Node24</title>
<g id="a_node24"><a xlink:title=" ">
<polygon fill="white" stroke="#bfbfbf" points="2509.5,-118 2509.5,-137 2602.5,-137 2602.5,-118 2509.5,-118"/>
<text text-anchor="middle" x="2556" y="-125" font-family="Helvetica,sans-Serif" font-size="10.00">unordered_map</text>
</a>
</g>
</g>
<!-- Node22&#45;&gt;Node24 -->
<g id="edge35" class="edge">
<title>Node22&#45;&gt;Node24</title>
<path fill="none" stroke="midnightblue" d="M2511.88,-184.73C2519.83,-174.6 2533.1,-157.69 2543.01,-145.06"/>
<polygon fill="midnightblue" stroke="midnightblue" points="2545.81,-147.16 2549.23,-137.13 2540.3,-142.83 2545.81,-147.16"/>
</g>
</g>
</svg>
