<?xml version="1.0" encoding="UTF-8" standalone="no"?>
<!DOCTYPE svg PUBLIC "-//W3C//DTD SVG 1.1//EN"
 "http://www.w3.org/Graphics/SVG/1.1/DTD/svg11.dtd">
<!-- Generated by graphviz version 2.43.0 (0)
 -->
<!-- Title: executor/inc/protobuf_request_executor.hpp Pages: 1 -->
<svg width="216pt" height="106pt"
 viewBox="0.00 0.00 215.50 106.00" xmlns="http://www.w3.org/2000/svg" xmlns:xlink="http://www.w3.org/1999/xlink">
<g id="graph0" class="graph" transform="scale(1 1) rotate(0) translate(4 102)">
<title>executor/inc/protobuf_request_executor.hpp</title>
<polygon fill="white" stroke="transparent" points="-4,4 -4,-102 211.5,-102 211.5,4 -4,4"/>
<!-- Node1 -->
<g id="node1" class="node">
<title>Node1</title>
<g id="a_node1"><a xlink:title="Defines the ProtoRequestExecutorHandler class for handling Protobuf&#45;based requests.">
<polygon fill="#bfbfbf" stroke="black" points="55.5,-67.5 55.5,-97.5 183.5,-97.5 183.5,-67.5 55.5,-67.5"/>
<text text-anchor="start" x="63.5" y="-85.5" font-family="Helvetica,sans-Serif" font-size="10.00">executor/inc/protobuf</text>
<text text-anchor="middle" x="119.5" y="-74.5" font-family="Helvetica,sans-Serif" font-size="10.00">_request_executor.hpp</text>
</a>
</g>
</g>
<!-- Node2 -->
<g id="node2" class="node">
<title>Node2</title>
<g id="a_node2"><a xlink:href="protobuf__request__executor_8cpp.html" target="_top" xlink:title="Implements the ProtoRequestExecutorHandler class for handling Protobuf&#45;based requests.">
<polygon fill="white" stroke="black" points="0,-0.5 0,-30.5 127,-30.5 127,-0.5 0,-0.5"/>
<text text-anchor="start" x="8" y="-18.5" font-family="Helvetica,sans-Serif" font-size="10.00">executor/src/protobuf</text>
<text text-anchor="middle" x="63.5" y="-7.5" font-family="Helvetica,sans-Serif" font-size="10.00">_request_executor.cpp</text>
</a>
</g>
</g>
<!-- Node1&#45;&gt;Node2 -->
<g id="edge1" class="edge">
<title>Node1&#45;&gt;Node2</title>
<path fill="none" stroke="midnightblue" d="M100.75,-59.74C92.46,-50.12 82.96,-39.09 75.63,-30.58"/>
<polygon fill="midnightblue" stroke="midnightblue" points="98.17,-62.1 107.35,-67.4 103.47,-57.54 98.17,-62.1"/>
</g>
<!-- Node3 -->
<g id="node3" class="node">
<title>Node3</title>
<g id="a_node3"><a xlink:href="main_8cpp.html" target="_top" xlink:title="Entry point for the Container Manager application.">
<polygon fill="white" stroke="black" points="145.5,-6 145.5,-25 207.5,-25 207.5,-6 145.5,-6"/>
<text text-anchor="middle" x="176.5" y="-13" font-family="Helvetica,sans-Serif" font-size="10.00">main.cpp</text>
</a>
</g>
</g>
<!-- Node1&#45;&gt;Node3 -->
<g id="edge2" class="edge">
<title>Node1&#45;&gt;Node3</title>
<path fill="none" stroke="midnightblue" d="M138.65,-59.66C149,-47.86 161.18,-33.97 168.88,-25.19"/>
<polygon fill="midnightblue" stroke="midnightblue" points="135.83,-57.57 131.87,-67.4 141.09,-62.18 135.83,-57.57"/>
</g>
</g>
</svg>
