<?xml version="1.0" encoding="UTF-8" standalone="no"?>
<!DOCTYPE svg PUBLIC "-//W3C//DTD SVG 1.1//EN"
 "http://www.w3.org/Graphics/SVG/1.1/DTD/svg11.dtd">
<!-- Generated by graphviz version 2.43.0 (0)
 -->
<!-- Title: executor/src/protobuf_request_executor.cpp Pages: 1 -->
<!--zoomable 285 -->
<svg id="main" version="1.1" xmlns="http://www.w3.org/2000/svg" xmlns:xlink="http://www.w3.org/1999/xlink" xml:space="preserve" onload="init(evt)">
<style type="text/css"><![CDATA[
.edge:hover path { stroke: red; }
.edge:hover polygon { stroke: red; fill: red; }
]]></style>
<script type="text/javascript"><![CDATA[
var edges = document.getElementsByTagName('g');
if (edges && edges.length) {
  for (var i=0;i<edges.length;i++) {
    if (edges[i].id.substr(0,4)=='edge') {
      edges[i].setAttribute('class','edge');
    }
  }
}
]]></script>
        <defs>
                <circle id="rim" cx="0" cy="0" r="7"/>
                <circle id="rim2" cx="0" cy="0" r="3.5"/>
                <g id="zoomPlus">
                        <use xlink:href="#rim" fill="#404040">
                                <set attributeName="fill" to="#808080" begin="zoomplus.mouseover" end="zoomplus.mouseout"/>
                        </use>
                        <path d="M-4,0h8M0,-4v8" fill="none" stroke="white" stroke-width="1.5" pointer-events="none"/>
                </g>
                <g id="zoomMin">
                        <use xlink:href="#rim" fill="#404040">
                                <set attributeName="fill" to="#808080" begin="zoomminus.mouseover" end="zoomminus.mouseout"/>
                        </use>
                        <path d="M-4,0h8" fill="none" stroke="white" stroke-width="1.5" pointer-events="none"/>
                </g>
                <g id="dirArrow">
                        <path fill="none" stroke="white" stroke-width="1.5" d="M0,-3.0v7 M-2.5,-0.5L0,-3.0L2.5,-0.5"/>
                </g>
               <g id="resetDef">
                       <use xlink:href="#rim2" fill="#404040">
                               <set attributeName="fill" to="#808080" begin="reset.mouseover" end="reset.mouseout"/>
                       </use>
               </g>
        </defs>

<script type="text/javascript">
var viewWidth = 2829;
var viewHeight = 285;
var sectionId = 'dynsection-0';
</script>
<script xlink:href="svgpan.js"/>
<svg id="graph" class="graph">
<g id="viewport">
<title>executor/src/protobuf_request_executor.cpp</title>
<polygon fill="white" stroke="transparent" points="-4,4 -4,-281 2824.5,-281 2824.5,4 -4,4"/>
<!-- Node1 -->
<g id="node1" class="node">
<title>Node1</title>
<g id="a_node1"><a xlink:title="Protocol Buffers request executor for Container Manager.">
<polygon fill="#bfbfbf" stroke="black" points="407.5,-246.5 407.5,-276.5 534.5,-276.5 534.5,-246.5 407.5,-246.5"/>
<text text-anchor="start" x="415.5" y="-264.5" font-family="Helvetica,sans-Serif" font-size="10.00">executor/src/protobuf</text>
<text text-anchor="middle" x="471" y="-253.5" font-family="Helvetica,sans-Serif" font-size="10.00">_request_executor.cpp</text>
</a>
</g>
</g>
<!-- Node2 -->
<g id="node2" class="node">
<title>Node2</title>
<g id="a_node2"><a xlink:href="protobuf__request__executor_8hpp.html" target="_top" xlink:title="Declares the ProtoRequestExecutorHandler class for handling Protobuf&#45;based requests.">
<polygon fill="white" stroke="black" points="215.5,-179.5 215.5,-209.5 332.5,-209.5 332.5,-179.5 215.5,-179.5"/>
<text text-anchor="start" x="223.5" y="-197.5" font-family="Helvetica,sans-Serif" font-size="10.00">inc/protobuf_request</text>
<text text-anchor="middle" x="274" y="-186.5" font-family="Helvetica,sans-Serif" font-size="10.00">_executor.hpp</text>
</a>
</g>
</g>
<!-- Node1&#45;&gt;Node2 -->
<g id="edge1" class="edge">
<title>Node1&#45;&gt;Node2</title>
<path fill="none" stroke="midnightblue" d="M428.25,-246.4C398.31,-236.52 358.11,-223.25 326.26,-212.74"/>
<polygon fill="midnightblue" stroke="midnightblue" points="327.26,-209.39 316.66,-209.58 325.06,-216.03 327.26,-209.39"/>
</g>
<!-- Node4 -->
<g id="node4" class="node">
<title>Node4</title>
<g id="a_node4"><a xlink:title=" ">
<polygon fill="white" stroke="#bfbfbf" points="0,-0.5 0,-19.5 110,-19.5 110,-0.5 0,-0.5"/>
<text text-anchor="middle" x="55" y="-7.5" font-family="Helvetica,sans-Serif" font-size="10.00">nlohmann/json.hpp</text>
</a>
</g>
</g>
<!-- Node1&#45;&gt;Node4 -->
<g id="edge42" class="edge">
<title>Node1&#45;&gt;Node4</title>
<path fill="none" stroke="midnightblue" d="M407.18,-255.3C329.27,-248.07 202.84,-233.17 162,-210 94.24,-171.55 75.73,-149.17 49,-76 43.53,-61.03 45.88,-42.89 49.11,-29.59"/>
<polygon fill="midnightblue" stroke="midnightblue" points="52.55,-30.29 51.88,-19.72 45.81,-28.4 52.55,-30.29"/>
</g>
<!-- Node7 -->
<g id="node7" class="node">
<title>Node7</title>
<g id="a_node7"><a xlink:href="database__interface_8hpp.html" target="_top" xlink:title="Abstract interface for database operations.">
<polygon fill="white" stroke="black" points="82.5,-56.5 82.5,-75.5 231.5,-75.5 231.5,-56.5 82.5,-56.5"/>
<text text-anchor="middle" x="157" y="-63.5" font-family="Helvetica,sans-Serif" font-size="10.00">inc/database_interface.hpp</text>
</a>
</g>
</g>
<!-- Node1&#45;&gt;Node7 -->
<g id="edge32" class="edge">
<title>Node1&#45;&gt;Node7</title>
<path fill="none" stroke="midnightblue" d="M407.33,-259.82C351.01,-256.65 268.34,-245.57 206,-210 171.54,-190.33 161.01,-180.12 147,-143 139.9,-124.18 144.66,-101.1 149.76,-85.34"/>
<polygon fill="midnightblue" stroke="midnightblue" points="153.12,-86.34 153.2,-75.75 146.53,-83.98 153.12,-86.34"/>
</g>
<!-- Node8 -->
<g id="node8" class="node">
<title>Node8</title>
<g id="a_node8"><a xlink:href="container__service_8hpp.html" target="_top" xlink:title="Declares the ContainerServiceHandler class for business logic related to containers.">
<polygon fill="white" stroke="black" points="326.5,-118 326.5,-137 467.5,-137 467.5,-118 326.5,-118"/>
<text text-anchor="middle" x="397" y="-125" font-family="Helvetica,sans-Serif" font-size="10.00">inc/container_service.hpp</text>
</a>
</g>
</g>
<!-- Node1&#45;&gt;Node8 -->
<g id="edge33" class="edge">
<title>Node1&#45;&gt;Node8</title>
<path fill="none" stroke="midnightblue" d="M463.08,-246.37C449.46,-222.08 421.63,-172.44 406.81,-146"/>
<polygon fill="midnightblue" stroke="midnightblue" points="409.76,-144.11 401.82,-137.1 403.66,-147.53 409.76,-144.11"/>
</g>
<!-- Node9 -->
<g id="node9" class="node">
<title>Node9</title>
<g id="a_node9"><a xlink:href="status_8hpp.html" target="_top" xlink:title="Defines status codes and a Status struct for standardized error handling.">
<polygon fill="white" stroke="black" points="486.5,-56.5 486.5,-75.5 571.5,-75.5 571.5,-56.5 486.5,-56.5"/>
<text text-anchor="middle" x="529" y="-63.5" font-family="Helvetica,sans-Serif" font-size="10.00">inc/status.hpp</text>
</a>
</g>
</g>
<!-- Node1&#45;&gt;Node9 -->
<g id="edge38" class="edge">
<title>Node1&#45;&gt;Node9</title>
<path fill="none" stroke="midnightblue" d="M475.26,-246.27C485.6,-211.8 511.97,-123.81 523.48,-85.4"/>
<polygon fill="midnightblue" stroke="midnightblue" points="526.91,-86.16 526.43,-75.58 520.21,-84.15 526.91,-86.16"/>
</g>
<!-- Node10 -->
<g id="node10" class="node">
<title>Node10</title>
<g id="a_node10"><a xlink:href="container__manager_8pb_8h.html" target="_top" xlink:title=" ">
<polygon fill="white" stroke="black" points="1494.5,-185 1494.5,-204 1629.5,-204 1629.5,-185 1494.5,-185"/>
<text text-anchor="middle" x="1562" y="-192" font-family="Helvetica,sans-Serif" font-size="10.00">container_manager.pb.h</text>
</a>
</g>
</g>
<!-- Node1&#45;&gt;Node10 -->
<g id="edge18" class="edge">
<title>Node1&#45;&gt;Node10</title>
<path fill="none" stroke="midnightblue" d="M534.77,-256.7C723.47,-245.46 1278.66,-212.38 1484.26,-200.13"/>
<polygon fill="midnightblue" stroke="midnightblue" points="1484.6,-203.62 1494.37,-199.53 1484.18,-196.63 1484.6,-203.62"/>
</g>
<!-- Node23 -->
<g id="node23" class="node">
<title>Node23</title>
<g id="a_node23"><a xlink:href="common_8hpp.html" target="_top" xlink:title="Defines common constants, string views, and utility structures for the application.">
<polygon fill="white" stroke="black" points="2596,-185 2596,-204 2694,-204 2694,-185 2596,-185"/>
<text text-anchor="middle" x="2645" y="-192" font-family="Helvetica,sans-Serif" font-size="10.00">inc/common.hpp</text>
</a>
</g>
</g>
<!-- Node1&#45;&gt;Node23 -->
<g id="edge34" class="edge">
<title>Node1&#45;&gt;Node23</title>
<path fill="none" stroke="midnightblue" d="M534.59,-258.6C853.7,-249.06 2277.32,-206.49 2585.88,-197.27"/>
<polygon fill="midnightblue" stroke="midnightblue" points="2586.07,-200.76 2595.96,-196.97 2585.86,-193.77 2586.07,-200.76"/>
</g>
<!-- Node26 -->
<g id="node26" class="node">
<title>Node26</title>
<g id="a_node26"><a xlink:href="aes__gcm__decrypt_8hpp.html" target="_top" xlink:title=" ">
<polygon fill="white" stroke="black" points="524,-185 524,-204 664,-204 664,-185 524,-185"/>
<text text-anchor="middle" x="594" y="-192" font-family="Helvetica,sans-Serif" font-size="10.00">inc/aes_gcm_decrypt.hpp</text>
</a>
</g>
</g>
<!-- Node1&#45;&gt;Node26 -->
<g id="edge39" class="edge">
<title>Node1&#45;&gt;Node26</title>
<path fill="none" stroke="midnightblue" d="M497.69,-246.4C518.89,-235.19 548.32,-219.64 569.05,-208.69"/>
<polygon fill="midnightblue" stroke="midnightblue" points="570.7,-211.77 577.9,-204.01 567.43,-205.58 570.7,-211.77"/>
</g>
<!-- Node3 -->
<g id="node3" class="node">
<title>Node3</title>
<g id="a_node3"><a xlink:title=" ">
<polygon fill="white" stroke="#bfbfbf" points="542,-0.5 542,-19.5 586,-19.5 586,-0.5 542,-0.5"/>
<text text-anchor="middle" x="564" y="-7.5" font-family="Helvetica,sans-Serif" font-size="10.00">string</text>
</a>
</g>
</g>
<!-- Node2&#45;&gt;Node3 -->
<g id="edge2" class="edge">
<title>Node2&#45;&gt;Node3</title>
<path fill="none" stroke="midnightblue" d="M332.67,-184.09C373.9,-176.23 429.72,-163.04 476,-143 526.46,-121.15 553.68,-124.27 580,-76 588.06,-61.22 581.88,-42.36 574.99,-28.76"/>
<polygon fill="midnightblue" stroke="midnightblue" points="577.98,-26.94 570.04,-19.93 571.87,-30.36 577.98,-26.94"/>
</g>
<!-- Node2&#45;&gt;Node4 -->
<g id="edge3" class="edge">
<title>Node2&#45;&gt;Node4</title>
<path fill="none" stroke="midnightblue" d="M215.36,-180.75C162.74,-165.74 89.14,-134.98 58,-76 50.5,-61.8 50.41,-43.32 51.8,-29.7"/>
<polygon fill="midnightblue" stroke="midnightblue" points="55.3,-29.98 53.2,-19.6 48.36,-29.02 55.3,-29.98"/>
</g>
<!-- Node5 -->
<g id="node5" class="node">
<title>Node5</title>
<g id="a_node5"><a xlink:href="request__executor_8hpp.html" target="_top" xlink:title="Declares the abstract RequestExecutor interface for executing requests.">
<polygon fill="white" stroke="black" points="168,-118 168,-137 308,-137 308,-118 168,-118"/>
<text text-anchor="middle" x="238" y="-125" font-family="Helvetica,sans-Serif" font-size="10.00">inc/request_executor.hpp</text>
</a>
</g>
</g>
<!-- Node2&#45;&gt;Node5 -->
<g id="edge4" class="edge">
<title>Node2&#45;&gt;Node5</title>
<path fill="none" stroke="midnightblue" d="M266.19,-179.4C260.8,-169.66 253.59,-156.65 247.81,-146.21"/>
<polygon fill="midnightblue" stroke="midnightblue" points="250.72,-144.25 242.82,-137.19 244.6,-147.64 250.72,-144.25"/>
</g>
<!-- Node2&#45;&gt;Node7 -->
<g id="edge9" class="edge">
<title>Node2&#45;&gt;Node7</title>
<path fill="none" stroke="midnightblue" d="M215.4,-181.67C194.03,-174.25 171.95,-162.28 159,-143 147.76,-126.27 149.22,-102.44 152.23,-85.95"/>
<polygon fill="midnightblue" stroke="midnightblue" points="155.71,-86.39 154.42,-75.88 148.87,-84.9 155.71,-86.39"/>
</g>
<!-- Node2&#45;&gt;Node8 -->
<g id="edge12" class="edge">
<title>Node2&#45;&gt;Node8</title>
<path fill="none" stroke="midnightblue" d="M300.69,-179.4C321.89,-168.19 351.32,-152.64 372.05,-141.69"/>
<polygon fill="midnightblue" stroke="midnightblue" points="373.7,-144.77 380.9,-137.01 370.43,-138.58 373.7,-144.77"/>
</g>
<!-- Node5&#45;&gt;Node3 -->
<g id="edge5" class="edge">
<title>Node5&#45;&gt;Node3</title>
<path fill="none" stroke="midnightblue" d="M244.67,-117.91C256.99,-102.73 284.88,-71.31 316,-56 387.51,-20.82 482.8,-12.92 531.84,-11.29"/>
<polygon fill="midnightblue" stroke="midnightblue" points="531.95,-14.79 541.86,-11.02 531.77,-7.79 531.95,-14.79"/>
</g>
<!-- Node5&#45;&gt;Node4 -->
<g id="edge6" class="edge">
<title>Node5&#45;&gt;Node4</title>
<path fill="none" stroke="midnightblue" d="M167.76,-120.46C134.95,-114.15 97.76,-101.44 73,-76 61.14,-63.82 56.94,-44.55 55.53,-30.15"/>
<polygon fill="midnightblue" stroke="midnightblue" points="59.01,-29.64 54.9,-19.87 52.02,-30.06 59.01,-29.64"/>
</g>
<!-- Node6 -->
<g id="node6" class="node">
<title>Node6</title>
<g id="a_node6"><a xlink:href="container__request_8hpp.html" target="_top" xlink:title="Data structure for representing a container operation request.">
<polygon fill="white" stroke="black" points="325.5,-56.5 325.5,-75.5 468.5,-75.5 468.5,-56.5 325.5,-56.5"/>
<text text-anchor="middle" x="397" y="-63.5" font-family="Helvetica,sans-Serif" font-size="10.00">inc/container_request.hpp</text>
</a>
</g>
</g>
<!-- Node5&#45;&gt;Node6 -->
<g id="edge7" class="edge">
<title>Node5&#45;&gt;Node6</title>
<path fill="none" stroke="midnightblue" d="M260.78,-117.98C288.05,-107.77 333.91,-90.61 364.8,-79.05"/>
<polygon fill="midnightblue" stroke="midnightblue" points="366.12,-82.29 374.26,-75.51 363.67,-75.74 366.12,-82.29"/>
</g>
<!-- Node6&#45;&gt;Node3 -->
<g id="edge8" class="edge">
<title>Node6&#45;&gt;Node3</title>
<path fill="none" stroke="midnightblue" d="M423.46,-56.44C453.01,-46.89 500.8,-31.44 532.31,-21.25"/>
<polygon fill="midnightblue" stroke="midnightblue" points="533.49,-24.54 541.93,-18.14 531.34,-17.88 533.49,-24.54"/>
</g>
<!-- Node7&#45;&gt;Node3 -->
<g id="edge10" class="edge">
<title>Node7&#45;&gt;Node3</title>
<path fill="none" stroke="midnightblue" d="M221.49,-56.44C309.79,-44.73 464.97,-24.14 531.84,-15.27"/>
<polygon fill="midnightblue" stroke="midnightblue" points="532.34,-18.73 541.79,-13.95 531.42,-11.79 532.34,-18.73"/>
</g>
<!-- Node7&#45;&gt;Node4 -->
<g id="edge11" class="edge">
<title>Node7&#45;&gt;Node4</title>
<path fill="none" stroke="midnightblue" d="M140.61,-56.32C124.33,-47.7 99.13,-34.36 80.28,-24.39"/>
<polygon fill="midnightblue" stroke="midnightblue" points="81.82,-21.24 71.35,-19.65 78.55,-27.43 81.82,-21.24"/>
</g>
<!-- Node8&#45;&gt;Node4 -->
<g id="edge13" class="edge">
<title>Node8&#45;&gt;Node4</title>
<path fill="none" stroke="midnightblue" d="M380.45,-117.85C352.26,-103.39 292.85,-74.12 240,-56 197.27,-41.35 147.45,-29.52 110.28,-21.67"/>
<polygon fill="midnightblue" stroke="midnightblue" points="110.65,-18.17 100.14,-19.56 109.22,-25.02 110.65,-18.17"/>
</g>
<!-- Node8&#45;&gt;Node6 -->
<g id="edge17" class="edge">
<title>Node8&#45;&gt;Node6</title>
<path fill="none" stroke="midnightblue" d="M397,-117.98C397,-109.58 397,-96.48 397,-85.66"/>
<polygon fill="midnightblue" stroke="midnightblue" points="400.5,-85.51 397,-75.51 393.5,-85.51 400.5,-85.51"/>
</g>
<!-- Node8&#45;&gt;Node7 -->
<g id="edge16" class="edge">
<title>Node8&#45;&gt;Node7</title>
<path fill="none" stroke="midnightblue" d="M362.61,-117.98C320.11,-107.44 247.7,-89.49 201.13,-77.94"/>
<polygon fill="midnightblue" stroke="midnightblue" points="201.87,-74.52 191.32,-75.51 200.19,-81.31 201.87,-74.52"/>
</g>
<!-- Node8&#45;&gt;Node9 -->
<g id="edge14" class="edge">
<title>Node8&#45;&gt;Node9</title>
<path fill="none" stroke="midnightblue" d="M415.91,-117.98C438.16,-107.95 475.31,-91.2 500.93,-79.65"/>
<polygon fill="midnightblue" stroke="midnightblue" points="502.44,-82.81 510.12,-75.51 499.57,-76.43 502.44,-82.81"/>
</g>
<!-- Node9&#45;&gt;Node3 -->
<g id="edge15" class="edge">
<title>Node9&#45;&gt;Node3</title>
<path fill="none" stroke="midnightblue" d="M534.78,-56.08C539.67,-48.53 546.83,-37.49 552.83,-28.23"/>
<polygon fill="midnightblue" stroke="midnightblue" points="555.83,-30.05 558.33,-19.75 549.95,-26.24 555.83,-30.05"/>
</g>
<!-- Node10&#45;&gt;Node3 -->
<g id="edge19" class="edge">
<title>Node10&#45;&gt;Node3</title>
<path fill="none" stroke="midnightblue" d="M1629.8,-192.57C1847.93,-189.26 2519.28,-176.38 2551,-143 2560.49,-133.01 2560.49,-121.99 2551,-112 2480.73,-38.07 848.08,-14.58 596.44,-11.39"/>
<polygon fill="midnightblue" stroke="midnightblue" points="596.18,-7.89 586.14,-11.26 596.1,-14.89 596.18,-7.89"/>
</g>
<!-- Node11 -->
<g id="node11" class="node">
<title>Node11</title>
<g id="a_node11"><a xlink:title=" ">
<polygon fill="white" stroke="#bfbfbf" points="1146.5,-112.5 1146.5,-142.5 1269.5,-142.5 1269.5,-112.5 1146.5,-112.5"/>
<text text-anchor="start" x="1154.5" y="-130.5" font-family="Helvetica,sans-Serif" font-size="10.00">google/protobuf/stubs</text>
<text text-anchor="middle" x="1208" y="-119.5" font-family="Helvetica,sans-Serif" font-size="10.00">/common.h</text>
</a>
</g>
</g>
<!-- Node10&#45;&gt;Node11 -->
<g id="edge20" class="edge">
<title>Node10&#45;&gt;Node11</title>
<path fill="none" stroke="midnightblue" d="M1512.09,-184.98C1457.54,-175.58 1367.31,-159.78 1279.43,-143.05"/>
<polygon fill="midnightblue" stroke="midnightblue" points="1280.03,-139.61 1269.56,-141.17 1278.72,-146.48 1280.03,-139.61"/>
</g>
<!-- Node12 -->
<g id="node12" class="node">
<title>Node12</title>
<g id="a_node12"><a xlink:title=" ">
<polygon fill="white" stroke="#bfbfbf" points="1288,-112.5 1288,-142.5 1394,-142.5 1394,-112.5 1288,-112.5"/>
<text text-anchor="start" x="1296" y="-130.5" font-family="Helvetica,sans-Serif" font-size="10.00">google/protobuf/io</text>
<text text-anchor="middle" x="1341" y="-119.5" font-family="Helvetica,sans-Serif" font-size="10.00">/coded_stream.h</text>
</a>
</g>
</g>
<!-- Node10&#45;&gt;Node12 -->
<g id="edge21" class="edge">
<title>Node10&#45;&gt;Node12</title>
<path fill="none" stroke="midnightblue" d="M1532.65,-184.87C1498.56,-174.84 1441.49,-158.06 1398.47,-145.4"/>
<polygon fill="midnightblue" stroke="midnightblue" points="1399.28,-141.99 1388.7,-142.53 1397.3,-148.71 1399.28,-141.99"/>
</g>
<!-- Node13 -->
<g id="node13" class="node">
<title>Node13</title>
<g id="a_node13"><a xlink:title=" ">
<polygon fill="white" stroke="#bfbfbf" points="1412,-118 1412,-137 1546,-137 1546,-118 1412,-118"/>
<text text-anchor="middle" x="1479" y="-125" font-family="Helvetica,sans-Serif" font-size="10.00">google/protobuf/arena.h</text>
</a>
</g>
</g>
<!-- Node10&#45;&gt;Node13 -->
<g id="edge22" class="edge">
<title>Node10&#45;&gt;Node13</title>
<path fill="none" stroke="midnightblue" d="M1550.81,-184.73C1537.37,-174.21 1514.6,-156.38 1498.3,-143.62"/>
<polygon fill="midnightblue" stroke="midnightblue" points="1500.05,-140.54 1490.02,-137.13 1495.73,-146.05 1500.05,-140.54"/>
</g>
<!-- Node14 -->
<g id="node14" class="node">
<title>Node14</title>
<g id="a_node14"><a xlink:title=" ">
<polygon fill="white" stroke="#bfbfbf" points="1564.5,-118 1564.5,-137 1725.5,-137 1725.5,-118 1564.5,-118"/>
<text text-anchor="middle" x="1645" y="-125" font-family="Helvetica,sans-Serif" font-size="10.00">google/protobuf/arenastring.h</text>
</a>
</g>
</g>
<!-- Node10&#45;&gt;Node14 -->
<g id="edge23" class="edge">
<title>Node10&#45;&gt;Node14</title>
<path fill="none" stroke="midnightblue" d="M1573.19,-184.73C1586.63,-174.21 1609.4,-156.38 1625.7,-143.62"/>
<polygon fill="midnightblue" stroke="midnightblue" points="1628.27,-146.05 1633.98,-137.13 1623.95,-140.54 1628.27,-146.05"/>
</g>
<!-- Node15 -->
<g id="node15" class="node">
<title>Node15</title>
<g id="a_node15"><a xlink:title=" ">
<polygon fill="white" stroke="#bfbfbf" points="1744,-112.5 1744,-142.5 1890,-142.5 1890,-112.5 1744,-112.5"/>
<text text-anchor="start" x="1752" y="-130.5" font-family="Helvetica,sans-Serif" font-size="10.00">google/protobuf/generated</text>
<text text-anchor="middle" x="1817" y="-119.5" font-family="Helvetica,sans-Serif" font-size="10.00">_message_table_driven.h</text>
</a>
</g>
</g>
<!-- Node10&#45;&gt;Node15 -->
<g id="edge24" class="edge">
<title>Node10&#45;&gt;Node15</title>
<path fill="none" stroke="midnightblue" d="M1595.6,-184.94C1635.28,-174.82 1702.2,-157.76 1752.1,-145.04"/>
<polygon fill="midnightblue" stroke="midnightblue" points="1753.02,-148.42 1761.84,-142.56 1751.29,-141.64 1753.02,-148.42"/>
</g>
<!-- Node16 -->
<g id="node16" class="node">
<title>Node16</title>
<g id="a_node16"><a xlink:title=" ">
<polygon fill="white" stroke="#bfbfbf" points="1908,-112.5 1908,-142.5 2054,-142.5 2054,-112.5 1908,-112.5"/>
<text text-anchor="start" x="1916" y="-130.5" font-family="Helvetica,sans-Serif" font-size="10.00">google/protobuf/generated</text>
<text text-anchor="middle" x="1981" y="-119.5" font-family="Helvetica,sans-Serif" font-size="10.00">_message_util.h</text>
</a>
</g>
</g>
<!-- Node10&#45;&gt;Node16 -->
<g id="edge25" class="edge">
<title>Node10&#45;&gt;Node16</title>
<path fill="none" stroke="midnightblue" d="M1622.04,-184.99C1687.39,-175.62 1795.22,-159.83 1897.79,-143.17"/>
<polygon fill="midnightblue" stroke="midnightblue" points="1898.39,-146.62 1907.7,-141.56 1897.27,-139.71 1898.39,-146.62"/>
</g>
<!-- Node17 -->
<g id="node17" class="node">
<title>Node17</title>
<g id="a_node17"><a xlink:title=" ">
<polygon fill="white" stroke="#bfbfbf" points="2072,-112.5 2072,-142.5 2202,-142.5 2202,-112.5 2072,-112.5"/>
<text text-anchor="start" x="2080" y="-130.5" font-family="Helvetica,sans-Serif" font-size="10.00">google/protobuf/inlined</text>
<text text-anchor="middle" x="2137" y="-119.5" font-family="Helvetica,sans-Serif" font-size="10.00">_string_field.h</text>
</a>
</g>
</g>
<!-- Node10&#45;&gt;Node17 -->
<g id="edge26" class="edge">
<title>Node10&#45;&gt;Node17</title>
<path fill="none" stroke="midnightblue" d="M1629.51,-188.7C1723.98,-181.54 1901.18,-166.49 2061.63,-143.12"/>
<polygon fill="midnightblue" stroke="midnightblue" points="2062.3,-146.56 2071.69,-141.64 2061.28,-139.63 2062.3,-146.56"/>
</g>
<!-- Node18 -->
<g id="node18" class="node">
<title>Node18</title>
<g id="a_node18"><a xlink:title=" ">
<polygon fill="white" stroke="#bfbfbf" points="2220.5,-118 2220.5,-137 2373.5,-137 2373.5,-118 2220.5,-118"/>
<text text-anchor="middle" x="2297" y="-125" font-family="Helvetica,sans-Serif" font-size="10.00">google/protobuf/metadata.h</text>
</a>
</g>
</g>
<!-- Node10&#45;&gt;Node18 -->
<g id="edge27" class="edge">
<title>Node10&#45;&gt;Node18</title>
<path fill="none" stroke="midnightblue" d="M1629.94,-190.22C1748.29,-184.05 1999.84,-168.96 2211,-143 2220.81,-141.79 2231.2,-140.26 2241.25,-138.65"/>
<polygon fill="midnightblue" stroke="midnightblue" points="2241.84,-142.09 2251.14,-137.01 2240.7,-135.19 2241.84,-142.09"/>
</g>
<!-- Node19 -->
<g id="node19" class="node">
<title>Node19</title>
<g id="a_node19"><a xlink:title=" ">
<polygon fill="white" stroke="#bfbfbf" points="2392,-118 2392,-137 2542,-137 2542,-118 2392,-118"/>
<text text-anchor="middle" x="2467" y="-125" font-family="Helvetica,sans-Serif" font-size="10.00">google/protobuf/message.h</text>
</a>
</g>
</g>
<!-- Node10&#45;&gt;Node19 -->
<g id="edge28" class="edge">
<title>Node10&#45;&gt;Node19</title>
<path fill="none" stroke="midnightblue" d="M1629.53,-191.85C1770.15,-187.86 2104.46,-175.51 2383,-143 2392.71,-141.87 2403,-140.35 2412.93,-138.73"/>
<polygon fill="midnightblue" stroke="midnightblue" points="2413.82,-142.13 2423.1,-137.01 2412.66,-135.23 2413.82,-142.13"/>
</g>
<!-- Node20 -->
<g id="node20" class="node">
<title>Node20</title>
<g id="a_node20"><a xlink:title=" ">
<polygon fill="white" stroke="#bfbfbf" points="666,-112.5 666,-142.5 806,-142.5 806,-112.5 666,-112.5"/>
<text text-anchor="start" x="674" y="-130.5" font-family="Helvetica,sans-Serif" font-size="10.00">google/protobuf/repeated</text>
<text text-anchor="middle" x="736" y="-119.5" font-family="Helvetica,sans-Serif" font-size="10.00">_field.h</text>
</a>
</g>
</g>
<!-- Node10&#45;&gt;Node20 -->
<g id="edge29" class="edge">
<title>Node10&#45;&gt;Node20</title>
<path fill="none" stroke="midnightblue" d="M1494.38,-191.45C1364.88,-186.98 1072.78,-174.23 816.43,-142.94"/>
<polygon fill="midnightblue" stroke="midnightblue" points="816.53,-139.43 806.17,-141.68 815.67,-146.37 816.53,-139.43"/>
</g>
<!-- Node21 -->
<g id="node21" class="node">
<title>Node21</title>
<g id="a_node21"><a xlink:title=" ">
<polygon fill="white" stroke="#bfbfbf" points="824.5,-112.5 824.5,-142.5 969.5,-142.5 969.5,-112.5 824.5,-112.5"/>
<text text-anchor="start" x="832.5" y="-130.5" font-family="Helvetica,sans-Serif" font-size="10.00">google/protobuf/extension</text>
<text text-anchor="middle" x="897" y="-119.5" font-family="Helvetica,sans-Serif" font-size="10.00">_set.h</text>
</a>
</g>
</g>
<!-- Node10&#45;&gt;Node21 -->
<g id="edge30" class="edge">
<title>Node10&#45;&gt;Node21</title>
<path fill="none" stroke="midnightblue" d="M1494.46,-189.6C1387.49,-182.99 1172.36,-167.96 979.85,-143.03"/>
<polygon fill="midnightblue" stroke="midnightblue" points="980.19,-139.55 969.83,-141.72 979.29,-146.49 980.19,-139.55"/>
</g>
<!-- Node22 -->
<g id="node22" class="node">
<title>Node22</title>
<g id="a_node22"><a xlink:title=" ">
<polygon fill="white" stroke="#bfbfbf" points="987.5,-112.5 987.5,-142.5 1128.5,-142.5 1128.5,-112.5 987.5,-112.5"/>
<text text-anchor="start" x="995.5" y="-130.5" font-family="Helvetica,sans-Serif" font-size="10.00">google/protobuf/unknown</text>
<text text-anchor="middle" x="1058" y="-119.5" font-family="Helvetica,sans-Serif" font-size="10.00">_field_set.h</text>
</a>
</g>
</g>
<!-- Node10&#45;&gt;Node22 -->
<g id="edge31" class="edge">
<title>Node10&#45;&gt;Node22</title>
<path fill="none" stroke="midnightblue" d="M1494.27,-186.72C1412.56,-178.24 1270.79,-162.63 1138.92,-143.08"/>
<polygon fill="midnightblue" stroke="midnightblue" points="1139.04,-139.56 1128.63,-141.54 1138.01,-146.48 1139.04,-139.56"/>
</g>
<!-- Node23&#45;&gt;Node3 -->
<g id="edge35" class="edge">
<title>Node23&#45;&gt;Node3</title>
<path fill="none" stroke="midnightblue" d="M2639.65,-184.9C2628.58,-167.91 2601.37,-130.09 2568,-112 2445.69,-45.68 2398.39,-70.33 2260,-56 1919.82,-20.77 801.25,-12.43 596.38,-11.18"/>
<polygon fill="midnightblue" stroke="midnightblue" points="596.29,-7.68 586.27,-11.12 596.25,-14.68 596.29,-7.68"/>
</g>
<!-- Node24 -->
<g id="node24" class="node">
<title>Node24</title>
<g id="a_node24"><a xlink:title=" ">
<polygon fill="white" stroke="#bfbfbf" points="2747.5,-118 2747.5,-137 2820.5,-137 2820.5,-118 2747.5,-118"/>
<text text-anchor="middle" x="2784" y="-125" font-family="Helvetica,sans-Serif" font-size="10.00">string_view</text>
</a>
</g>
</g>
<!-- Node23&#45;&gt;Node24 -->
<g id="edge36" class="edge">
<title>Node23&#45;&gt;Node24</title>
<path fill="none" stroke="midnightblue" d="M2663.46,-184.87C2687.24,-173.75 2728.79,-154.32 2756.35,-141.43"/>
<polygon fill="midnightblue" stroke="midnightblue" points="2757.89,-144.57 2765.47,-137.17 2754.92,-138.23 2757.89,-144.57"/>
</g>
<!-- Node25 -->
<g id="node25" class="node">
<title>Node25</title>
<g id="a_node25"><a xlink:title=" ">
<polygon fill="white" stroke="#bfbfbf" points="2636.5,-118 2636.5,-137 2729.5,-137 2729.5,-118 2636.5,-118"/>
<text text-anchor="middle" x="2683" y="-125" font-family="Helvetica,sans-Serif" font-size="10.00">unordered_map</text>
</a>
</g>
</g>
<!-- Node23&#45;&gt;Node25 -->
<g id="edge37" class="edge">
<title>Node23&#45;&gt;Node25</title>
<path fill="none" stroke="midnightblue" d="M2650.12,-184.73C2655.94,-174.79 2665.56,-158.34 2672.89,-145.79"/>
<polygon fill="midnightblue" stroke="midnightblue" points="2675.93,-147.53 2677.96,-137.13 2669.89,-143.99 2675.93,-147.53"/>
</g>
<!-- Node26&#45;&gt;Node3 -->
<g id="edge41" class="edge">
<title>Node26&#45;&gt;Node3</title>
<path fill="none" stroke="midnightblue" d="M599.95,-184.67C606.11,-174.95 615.34,-158.62 619,-143 627.82,-105.29 631.32,-90.64 614,-56 607.88,-43.76 596.89,-33.29 586.76,-25.55"/>
<polygon fill="midnightblue" stroke="midnightblue" points="588.76,-22.67 578.59,-19.7 584.68,-28.36 588.76,-22.67"/>
</g>
<!-- Node27 -->
<g id="node27" class="node">
<title>Node27</title>
<g id="a_node27"><a xlink:title=" ">
<polygon fill="white" stroke="#bfbfbf" points="562.5,-118 562.5,-137 609.5,-137 609.5,-118 562.5,-118"/>
<text text-anchor="middle" x="586" y="-125" font-family="Helvetica,sans-Serif" font-size="10.00">vector</text>
</a>
</g>
</g>
<!-- Node26&#45;&gt;Node27 -->
<g id="edge40" class="edge">
<title>Node26&#45;&gt;Node27</title>
<path fill="none" stroke="midnightblue" d="M592.92,-184.73C591.75,-175.18 589.83,-159.62 588.31,-147.28"/>
<polygon fill="midnightblue" stroke="midnightblue" points="591.76,-146.62 587.06,-137.13 584.81,-147.48 591.76,-146.62"/>
</g>
</g>
</svg>
        <g id="navigator" transform="translate(0 0)" fill="#404254">
                <rect fill="#f2f5e9" fill-opacity="0.5" stroke="#606060" stroke-width=".5" x="0" y="0" width="60" height="60"/>
                <use id="zoomplus" xlink:href="#zoomPlus" x="17" y="9" onmousedown="handleZoom(evt,'in')"/>
                <use id="zoomminus" xlink:href="#zoomMin" x="42" y="9" onmousedown="handleZoom(evt,'out')"/>
                <use id="reset" xlink:href="#resetDef" x="30" y="36" onmousedown="handleReset()"/>
                <g id="arrowUp" xlink:href="#dirArrow" transform="translate(30 24)" onmousedown="handlePan(0,-1)">
                  <use xlink:href="#rim" fill="#404040">
                        <set attributeName="fill" to="#808080" begin="arrowUp.mouseover" end="arrowUp.mouseout"/>
                  </use>
                  <path fill="none" stroke="white" stroke-width="1.5" d="M0,-3.0v7 M-2.5,-0.5L0,-3.0L2.5,-0.5"/>
                </g>
                <g id="arrowRight" xlink:href="#dirArrow" transform="rotate(90) translate(36 -43)" onmousedown="handlePan(1,0)">
                  <use xlink:href="#rim" fill="#404040">
                        <set attributeName="fill" to="#808080" begin="arrowRight.mouseover" end="arrowRight.mouseout"/>
                  </use>
                  <path fill="none" stroke="white" stroke-width="1.5" d="M0,-3.0v7 M-2.5,-0.5L0,-3.0L2.5,-0.5"/>
                </g>
                <g id="arrowDown" xlink:href="#dirArrow" transform="rotate(180) translate(-30 -48)" onmousedown="handlePan(0,1)">
                  <use xlink:href="#rim" fill="#404040">
                        <set attributeName="fill" to="#808080" begin="arrowDown.mouseover" end="arrowDown.mouseout"/>
                  </use>
                  <path fill="none" stroke="white" stroke-width="1.5" d="M0,-3.0v7 M-2.5,-0.5L0,-3.0L2.5,-0.5"/>
                </g>
                <g id="arrowLeft" xlink:href="#dirArrow" transform="rotate(270) translate(-36 17)" onmousedown="handlePan(-1,0)">
                  <use xlink:href="#rim" fill="#404040">
                        <set attributeName="fill" to="#808080" begin="arrowLeft.mouseover" end="arrowLeft.mouseout"/>
                  </use>
                  <path fill="none" stroke="white" stroke-width="1.5" d="M0,-3.0v7 M-2.5,-0.5L0,-3.0L2.5,-0.5"/>
                </g>
        </g>
        <svg viewBox="0 0 15 15" width="100%" height="30px" preserveAspectRatio="xMaxYMin meet">
         <g id="arrow_out" transform="scale(0.3 0.3)">
          <a xlink:href="protobuf__request__executor_8cpp__incl_org.svg" target="_base">
           <rect id="button" ry="5" rx="5" y="6" x="6" height="38" width="38"
                fill="#f2f5e9" fill-opacity="0.5" stroke="#606060" stroke-width="1.0"/>
           <path id="arrow"
             d="M 11.500037,31.436501 C 11.940474,20.09759 22.043105,11.32322 32.158766,21.979434 L 37.068811,17.246167 C 37.068811,17.246167 37.088388,32 37.088388,32 L 22.160133,31.978069 C 22.160133,31.978069 26.997745,27.140456 26.997745,27.140456 C 18.528582,18.264221 13.291696,25.230495 11.500037,31.436501 z"
             style="fill:#404040;"/>
          </a>
         </g>
        </svg>
</svg>
