<?xml version="1.0" encoding="UTF-8" standalone="no"?>
<!DOCTYPE svg PUBLIC "-//W3C//DTD SVG 1.1//EN"
 "http://www.w3.org/Graphics/SVG/1.1/DTD/svg11.dtd">
<!-- Generated by graphviz version 2.43.0 (0)
 -->
<!-- Title: executor/inc/protobuf_request_executor.hpp Pages: 1 -->
<svg width="311pt" height="207pt"
 viewBox="0.00 0.00 311.44 207.00" xmlns="http://www.w3.org/2000/svg" xmlns:xlink="http://www.w3.org/1999/xlink">
<g id="graph0" class="graph" transform="scale(1 1) rotate(0) translate(4 203)">
<title>executor/inc/protobuf_request_executor.hpp</title>
<polygon fill="white" stroke="transparent" points="-4,4 -4,-203 307.44,-203 307.44,4 -4,4"/>
<!-- Node1 -->
<g id="node1" class="node">
<title>Node1</title>
<g id="a_node1"><a xlink:title="Defines the ProtoRequestExecutorHandler class for handling Protobuf&#45;based requests.">
<polygon fill="#bfbfbf" stroke="black" points="166.15,-168.5 166.15,-198.5 294.15,-198.5 294.15,-168.5 166.15,-168.5"/>
<text text-anchor="start" x="174.15" y="-186.5" font-family="Helvetica,sans-Serif" font-size="10.00">executor/inc/protobuf</text>
<text text-anchor="middle" x="230.15" y="-175.5" font-family="Helvetica,sans-Serif" font-size="10.00">_request_executor.hpp</text>
</a>
</g>
</g>
<!-- Node2 -->
<g id="node2" class="node">
<title>Node2</title>
<g id="a_node2"><a xlink:href="request__executor_8hpp.html" target="_top" xlink:title="Declares the abstract RequestExecutor interface for executing requests.">
<polygon fill="white" stroke="black" points="39.15,-112.5 39.15,-131.5 179.15,-131.5 179.15,-112.5 39.15,-112.5"/>
<text text-anchor="middle" x="109.15" y="-119.5" font-family="Helvetica,sans-Serif" font-size="10.00">inc/request_executor.hpp</text>
</a>
</g>
</g>
<!-- Node1&#45;&gt;Node2 -->
<g id="edge1" class="edge">
<title>Node1&#45;&gt;Node2</title>
<path fill="none" stroke="midnightblue" d="M201.47,-168.4C181.62,-158.64 155.39,-145.74 135.96,-136.18"/>
<polygon fill="midnightblue" stroke="midnightblue" points="137.27,-132.93 126.75,-131.66 134.18,-139.21 137.27,-132.93"/>
</g>
<!-- Node3 -->
<g id="node3" class="node">
<title>Node3</title>
<g id="a_node3"><a xlink:title=" ">
<polygon fill="white" stroke="#bfbfbf" points="63.15,-0.5 63.15,-19.5 107.15,-19.5 107.15,-0.5 63.15,-0.5"/>
<text text-anchor="middle" x="85.15" y="-7.5" font-family="Helvetica,sans-Serif" font-size="10.00">string</text>
</a>
</g>
</g>
<!-- Node1&#45;&gt;Node3 -->
<g id="edge6" class="edge">
<title>Node1&#45;&gt;Node3</title>
<path fill="none" stroke="midnightblue" d="M247.01,-168.48C274.56,-143.89 323.37,-92.19 294.15,-56 272.33,-28.99 170.76,-17.42 117.67,-13.15"/>
<polygon fill="midnightblue" stroke="midnightblue" points="117.66,-9.64 107.43,-12.37 117.13,-16.62 117.66,-9.64"/>
</g>
<!-- Node4 -->
<g id="node4" class="node">
<title>Node4</title>
<g id="a_node4"><a xlink:title=" ">
<polygon fill="white" stroke="#bfbfbf" points="175.15,-56.5 175.15,-75.5 285.15,-75.5 285.15,-56.5 175.15,-56.5"/>
<text text-anchor="middle" x="230.15" y="-63.5" font-family="Helvetica,sans-Serif" font-size="10.00">nlohmann/json.hpp</text>
</a>
</g>
</g>
<!-- Node1&#45;&gt;Node4 -->
<g id="edge7" class="edge">
<title>Node1&#45;&gt;Node4</title>
<path fill="none" stroke="midnightblue" d="M230.15,-168.34C230.15,-147.62 230.15,-109.02 230.15,-85.9"/>
<polygon fill="midnightblue" stroke="midnightblue" points="233.65,-85.67 230.15,-75.67 226.65,-85.67 233.65,-85.67"/>
</g>
<!-- Node2&#45;&gt;Node3 -->
<g id="edge2" class="edge">
<title>Node2&#45;&gt;Node3</title>
<path fill="none" stroke="midnightblue" d="M60.38,-112.5C39.36,-106.15 16.76,-95.12 4.15,-76 -11.81,-51.79 24.24,-32.35 53.26,-21.24"/>
<polygon fill="midnightblue" stroke="midnightblue" points="54.54,-24.49 62.75,-17.79 52.16,-17.91 54.54,-24.49"/>
</g>
<!-- Node2&#45;&gt;Node4 -->
<g id="edge3" class="edge">
<title>Node2&#45;&gt;Node4</title>
<path fill="none" stroke="midnightblue" d="M128.32,-112.44C148.06,-103.64 179.03,-89.81 201.64,-79.72"/>
<polygon fill="midnightblue" stroke="midnightblue" points="203.36,-82.79 211.06,-75.52 200.51,-76.4 203.36,-82.79"/>
</g>
<!-- Node5 -->
<g id="node5" class="node">
<title>Node5</title>
<g id="a_node5"><a xlink:href="container__request_8hpp.html" target="_top" xlink:title="Data structure for representing a container operation request.">
<polygon fill="white" stroke="black" points="13.65,-56.5 13.65,-75.5 156.65,-75.5 156.65,-56.5 13.65,-56.5"/>
<text text-anchor="middle" x="85.15" y="-63.5" font-family="Helvetica,sans-Serif" font-size="10.00">inc/container_request.hpp</text>
</a>
</g>
</g>
<!-- Node2&#45;&gt;Node5 -->
<g id="edge4" class="edge">
<title>Node2&#45;&gt;Node5</title>
<path fill="none" stroke="midnightblue" d="M105.18,-112.08C101.93,-104.77 97.23,-94.18 93.19,-85.1"/>
<polygon fill="midnightblue" stroke="midnightblue" points="96.3,-83.47 89.04,-75.75 89.9,-86.31 96.3,-83.47"/>
</g>
<!-- Node5&#45;&gt;Node3 -->
<g id="edge5" class="edge">
<title>Node5&#45;&gt;Node3</title>
<path fill="none" stroke="midnightblue" d="M85.15,-56.08C85.15,-49.01 85.15,-38.86 85.15,-29.99"/>
<polygon fill="midnightblue" stroke="midnightblue" points="88.65,-29.75 85.15,-19.75 81.65,-29.75 88.65,-29.75"/>
</g>
</g>
</svg>
