<?xml version="1.0" encoding="UTF-8" standalone="no"?>
<!DOCTYPE svg PUBLIC "-//W3C//DTD SVG 1.1//EN"
 "http://www.w3.org/Graphics/SVG/1.1/DTD/svg11.dtd">
<!-- Generated by graphviz version 2.43.0 (0)
 -->
<!-- Title: executor/inc/protobuf_request_executor.hpp Pages: 1 -->
<!--zoomable 207 -->
<svg id="main" version="1.1" xmlns="http://www.w3.org/2000/svg" xmlns:xlink="http://www.w3.org/1999/xlink" xml:space="preserve" onload="init(evt)">
<style type="text/css"><![CDATA[
.edge:hover path { stroke: red; }
.edge:hover polygon { stroke: red; fill: red; }
]]></style>
<script type="text/javascript"><![CDATA[
var edges = document.getElementsByTagName('g');
if (edges && edges.length) {
  for (var i=0;i<edges.length;i++) {
    if (edges[i].id.substr(0,4)=='edge') {
      edges[i].setAttribute('class','edge');
    }
  }
}
]]></script>
        <defs>
                <circle id="rim" cx="0" cy="0" r="7"/>
                <circle id="rim2" cx="0" cy="0" r="3.5"/>
                <g id="zoomPlus">
                        <use xlink:href="#rim" fill="#404040">
                                <set attributeName="fill" to="#808080" begin="zoomplus.mouseover" end="zoomplus.mouseout"/>
                        </use>
                        <path d="M-4,0h8M0,-4v8" fill="none" stroke="white" stroke-width="1.5" pointer-events="none"/>
                </g>
                <g id="zoomMin">
                        <use xlink:href="#rim" fill="#404040">
                                <set attributeName="fill" to="#808080" begin="zoomminus.mouseover" end="zoomminus.mouseout"/>
                        </use>
                        <path d="M-4,0h8" fill="none" stroke="white" stroke-width="1.5" pointer-events="none"/>
                </g>
                <g id="dirArrow">
                        <path fill="none" stroke="white" stroke-width="1.5" d="M0,-3.0v7 M-2.5,-0.5L0,-3.0L2.5,-0.5"/>
                </g>
               <g id="resetDef">
                       <use xlink:href="#rim2" fill="#404040">
                               <set attributeName="fill" to="#808080" begin="reset.mouseover" end="reset.mouseout"/>
                       </use>
               </g>
        </defs>

<script type="text/javascript">
var viewWidth = 518;
var viewHeight = 207;
var sectionId = 'dynsection-0';
</script>
<script xlink:href="svgpan.js"/>
<svg id="graph" class="graph">
<g id="viewport">
<title>executor/inc/protobuf_request_executor.hpp</title>
<polygon fill="white" stroke="transparent" points="-4,4 -4,-203 514.17,-203 514.17,4 -4,4"/>
<!-- Node1 -->
<g id="node1" class="node">
<title>Node1</title>
<g id="a_node1"><a xlink:title="Declares the ProtoRequestExecutorHandler class for handling Protobuf&#45;based requests.">
<polygon fill="#bfbfbf" stroke="black" points="214.17,-168.5 214.17,-198.5 342.17,-198.5 342.17,-168.5 214.17,-168.5"/>
<text text-anchor="start" x="222.17" y="-186.5" font-family="Helvetica,sans-Serif" font-size="10.00">executor/inc/protobuf</text>
<text text-anchor="middle" x="278.17" y="-175.5" font-family="Helvetica,sans-Serif" font-size="10.00">_request_executor.hpp</text>
</a>
</g>
</g>
<!-- Node2 -->
<g id="node2" class="node">
<title>Node2</title>
<g id="a_node2"><a xlink:title=" ">
<polygon fill="white" stroke="#bfbfbf" points="76.17,-0.5 76.17,-19.5 120.17,-19.5 120.17,-0.5 76.17,-0.5"/>
<text text-anchor="middle" x="98.17" y="-7.5" font-family="Helvetica,sans-Serif" font-size="10.00">string</text>
</a>
</g>
</g>
<!-- Node1&#45;&gt;Node2 -->
<g id="edge1" class="edge">
<title>Node1&#45;&gt;Node2</title>
<path fill="none" stroke="midnightblue" d="M214.01,-177.35C148.26,-170.78 51.96,-157.12 25.17,-132 0.05,-108.45 -7.8,-85.37 10.17,-56 22.35,-36.09 46.43,-24.63 66.32,-18.27"/>
<polygon fill="midnightblue" stroke="midnightblue" points="67.35,-21.62 75.97,-15.46 65.39,-14.89 67.35,-21.62"/>
</g>
<!-- Node3 -->
<g id="node3" class="node">
<title>Node3</title>
<g id="a_node3"><a xlink:title=" ">
<polygon fill="white" stroke="#bfbfbf" points="400.17,-0.5 400.17,-19.5 510.17,-19.5 510.17,-0.5 400.17,-0.5"/>
<text text-anchor="middle" x="455.17" y="-7.5" font-family="Helvetica,sans-Serif" font-size="10.00">nlohmann/json.hpp</text>
</a>
</g>
</g>
<!-- Node1&#45;&gt;Node3 -->
<g id="edge2" class="edge">
<title>Node1&#45;&gt;Node3</title>
<path fill="none" stroke="midnightblue" d="M342.28,-171.62C395.8,-158.78 468.86,-131.68 504.17,-76 515.75,-57.74 495.99,-38.1 478.22,-25.24"/>
<polygon fill="midnightblue" stroke="midnightblue" points="480.03,-22.24 469.79,-19.51 476.09,-28.03 480.03,-22.24"/>
</g>
<!-- Node4 -->
<g id="node4" class="node">
<title>Node4</title>
<g id="a_node4"><a xlink:href="request__executor_8hpp.html" target="_top" xlink:title="Declares the abstract RequestExecutor interface for executing requests.">
<polygon fill="white" stroke="black" points="34.17,-112.5 34.17,-131.5 174.17,-131.5 174.17,-112.5 34.17,-112.5"/>
<text text-anchor="middle" x="104.17" y="-119.5" font-family="Helvetica,sans-Serif" font-size="10.00">inc/request_executor.hpp</text>
</a>
</g>
</g>
<!-- Node1&#45;&gt;Node4 -->
<g id="edge3" class="edge">
<title>Node1&#45;&gt;Node4</title>
<path fill="none" stroke="midnightblue" d="M236.93,-168.4C207,-158.16 166.95,-144.47 138.7,-134.81"/>
<polygon fill="midnightblue" stroke="midnightblue" points="139.83,-131.49 129.23,-131.57 137.56,-138.12 139.83,-131.49"/>
</g>
<!-- Node6 -->
<g id="node6" class="node">
<title>Node6</title>
<g id="a_node6"><a xlink:href="database__interface_8hpp.html" target="_top" xlink:title="Abstract interface for database operations.">
<polygon fill="white" stroke="black" points="329.67,-56.5 329.67,-75.5 478.67,-75.5 478.67,-56.5 329.67,-56.5"/>
<text text-anchor="middle" x="404.17" y="-63.5" font-family="Helvetica,sans-Serif" font-size="10.00">inc/database_interface.hpp</text>
</a>
</g>
</g>
<!-- Node1&#45;&gt;Node6 -->
<g id="edge8" class="edge">
<title>Node1&#45;&gt;Node6</title>
<path fill="none" stroke="midnightblue" d="M306.35,-168.31C322.6,-159.29 342.8,-146.58 358.17,-132 372.86,-118.07 385.79,-98.8 394.18,-84.87"/>
<polygon fill="midnightblue" stroke="midnightblue" points="397.44,-86.22 399.43,-75.81 391.39,-82.7 397.44,-86.22"/>
</g>
<!-- Node7 -->
<g id="node7" class="node">
<title>Node7</title>
<g id="a_node7"><a xlink:href="container__service_8hpp.html" target="_top" xlink:title="Declares the ContainerServiceHandler class for business logic related to containers.">
<polygon fill="white" stroke="black" points="207.67,-112.5 207.67,-131.5 348.67,-131.5 348.67,-112.5 207.67,-112.5"/>
<text text-anchor="middle" x="278.17" y="-119.5" font-family="Helvetica,sans-Serif" font-size="10.00">inc/container_service.hpp</text>
</a>
</g>
</g>
<!-- Node1&#45;&gt;Node7 -->
<g id="edge11" class="edge">
<title>Node1&#45;&gt;Node7</title>
<path fill="none" stroke="midnightblue" d="M278.17,-168.4C278.17,-160.47 278.17,-150.46 278.17,-141.86"/>
<polygon fill="midnightblue" stroke="midnightblue" points="281.67,-141.66 278.17,-131.66 274.67,-141.66 281.67,-141.66"/>
</g>
<!-- Node4&#45;&gt;Node2 -->
<g id="edge4" class="edge">
<title>Node4&#45;&gt;Node2</title>
<path fill="none" stroke="midnightblue" d="M69.15,-112.45C50.23,-105.84 28.48,-94.59 17.17,-76 2.16,-51.34 37.61,-32.1 66.28,-21.15"/>
<polygon fill="midnightblue" stroke="midnightblue" points="67.82,-24.31 76.04,-17.62 65.44,-17.72 67.82,-24.31"/>
</g>
<!-- Node4&#45;&gt;Node3 -->
<g id="edge5" class="edge">
<title>Node4&#45;&gt;Node3</title>
<path fill="none" stroke="midnightblue" d="M118.13,-112.26C143.78,-96.34 197.64,-63.56 218.17,-56 274.3,-35.32 341.58,-23.71 390.09,-17.48"/>
<polygon fill="midnightblue" stroke="midnightblue" points="390.65,-20.94 400.14,-16.24 389.79,-13.99 390.65,-20.94"/>
</g>
<!-- Node5 -->
<g id="node5" class="node">
<title>Node5</title>
<g id="a_node5"><a xlink:href="container__request_8hpp.html" target="_top" xlink:title="Data structure for representing a container operation request.">
<polygon fill="white" stroke="black" points="26.67,-56.5 26.67,-75.5 169.67,-75.5 169.67,-56.5 26.67,-56.5"/>
<text text-anchor="middle" x="98.17" y="-63.5" font-family="Helvetica,sans-Serif" font-size="10.00">inc/container_request.hpp</text>
</a>
</g>
</g>
<!-- Node4&#45;&gt;Node5 -->
<g id="edge6" class="edge">
<title>Node4&#45;&gt;Node5</title>
<path fill="none" stroke="midnightblue" d="M103.18,-112.08C102.38,-104.93 101.24,-94.64 100.24,-85.69"/>
<polygon fill="midnightblue" stroke="midnightblue" points="103.72,-85.3 99.14,-75.75 96.77,-86.08 103.72,-85.3"/>
</g>
<!-- Node5&#45;&gt;Node2 -->
<g id="edge7" class="edge">
<title>Node5&#45;&gt;Node2</title>
<path fill="none" stroke="midnightblue" d="M98.17,-56.08C98.17,-49.01 98.17,-38.86 98.17,-29.99"/>
<polygon fill="midnightblue" stroke="midnightblue" points="101.67,-29.75 98.17,-19.75 94.67,-29.75 101.67,-29.75"/>
</g>
<!-- Node6&#45;&gt;Node2 -->
<g id="edge9" class="edge">
<title>Node6&#45;&gt;Node2</title>
<path fill="none" stroke="midnightblue" d="M355.68,-56.44C292.64,-45.32 184.26,-26.19 130.44,-16.7"/>
<polygon fill="midnightblue" stroke="midnightblue" points="130.89,-13.22 120.44,-14.93 129.67,-20.11 130.89,-13.22"/>
</g>
<!-- Node6&#45;&gt;Node3 -->
<g id="edge10" class="edge">
<title>Node6&#45;&gt;Node3</title>
<path fill="none" stroke="midnightblue" d="M412.59,-56.08C420.02,-48.22 431.02,-36.57 439.98,-27.08"/>
<polygon fill="midnightblue" stroke="midnightblue" points="442.58,-29.42 446.9,-19.75 437.49,-24.62 442.58,-29.42"/>
</g>
<!-- Node7&#45;&gt;Node3 -->
<g id="edge12" class="edge">
<title>Node7&#45;&gt;Node3</title>
<path fill="none" stroke="midnightblue" d="M348.68,-115.28C402.66,-109.26 470.73,-97.57 488.17,-76 500.39,-60.89 486.07,-40.52 472.66,-26.63"/>
<polygon fill="midnightblue" stroke="midnightblue" points="475.09,-24.12 465.48,-19.66 470.22,-29.14 475.09,-24.12"/>
</g>
<!-- Node7&#45;&gt;Node5 -->
<g id="edge16" class="edge">
<title>Node7&#45;&gt;Node5</title>
<path fill="none" stroke="midnightblue" d="M249.65,-112.44C219.1,-103.28 170.46,-88.69 136.56,-78.52"/>
<polygon fill="midnightblue" stroke="midnightblue" points="137.14,-75.04 126.56,-75.52 135.13,-81.74 137.14,-75.04"/>
</g>
<!-- Node7&#45;&gt;Node6 -->
<g id="edge15" class="edge">
<title>Node7&#45;&gt;Node6</title>
<path fill="none" stroke="midnightblue" d="M298.13,-112.44C318.78,-103.6 351.23,-89.69 374.8,-79.59"/>
<polygon fill="midnightblue" stroke="midnightblue" points="376.48,-82.67 384.3,-75.52 373.73,-76.24 376.48,-82.67"/>
</g>
<!-- Node8 -->
<g id="node8" class="node">
<title>Node8</title>
<g id="a_node8"><a xlink:href="status_8hpp.html" target="_top" xlink:title="Defines status codes and a Status struct for standardized error handling.">
<polygon fill="white" stroke="black" points="226.67,-56.5 226.67,-75.5 311.67,-75.5 311.67,-56.5 226.67,-56.5"/>
<text text-anchor="middle" x="269.17" y="-63.5" font-family="Helvetica,sans-Serif" font-size="10.00">inc/status.hpp</text>
</a>
</g>
</g>
<!-- Node7&#45;&gt;Node8 -->
<g id="edge13" class="edge">
<title>Node7&#45;&gt;Node8</title>
<path fill="none" stroke="midnightblue" d="M276.68,-112.08C275.49,-104.93 273.77,-94.64 272.28,-85.69"/>
<polygon fill="midnightblue" stroke="midnightblue" points="275.72,-85.04 270.63,-75.75 268.82,-86.19 275.72,-85.04"/>
</g>
<!-- Node8&#45;&gt;Node2 -->
<g id="edge14" class="edge">
<title>Node8&#45;&gt;Node2</title>
<path fill="none" stroke="midnightblue" d="M242.07,-56.44C211.65,-46.84 162.33,-31.26 130.07,-21.07"/>
<polygon fill="midnightblue" stroke="midnightblue" points="130.83,-17.64 120.24,-17.97 128.72,-24.32 130.83,-17.64"/>
</g>
</g>
</svg>
        <g id="navigator" transform="translate(0 0)" fill="#404254">
                <rect fill="#f2f5e9" fill-opacity="0.5" stroke="#606060" stroke-width=".5" x="0" y="0" width="60" height="60"/>
                <use id="zoomplus" xlink:href="#zoomPlus" x="17" y="9" onmousedown="handleZoom(evt,'in')"/>
                <use id="zoomminus" xlink:href="#zoomMin" x="42" y="9" onmousedown="handleZoom(evt,'out')"/>
                <use id="reset" xlink:href="#resetDef" x="30" y="36" onmousedown="handleReset()"/>
                <g id="arrowUp" xlink:href="#dirArrow" transform="translate(30 24)" onmousedown="handlePan(0,-1)">
                  <use xlink:href="#rim" fill="#404040">
                        <set attributeName="fill" to="#808080" begin="arrowUp.mouseover" end="arrowUp.mouseout"/>
                  </use>
                  <path fill="none" stroke="white" stroke-width="1.5" d="M0,-3.0v7 M-2.5,-0.5L0,-3.0L2.5,-0.5"/>
                </g>
                <g id="arrowRight" xlink:href="#dirArrow" transform="rotate(90) translate(36 -43)" onmousedown="handlePan(1,0)">
                  <use xlink:href="#rim" fill="#404040">
                        <set attributeName="fill" to="#808080" begin="arrowRight.mouseover" end="arrowRight.mouseout"/>
                  </use>
                  <path fill="none" stroke="white" stroke-width="1.5" d="M0,-3.0v7 M-2.5,-0.5L0,-3.0L2.5,-0.5"/>
                </g>
                <g id="arrowDown" xlink:href="#dirArrow" transform="rotate(180) translate(-30 -48)" onmousedown="handlePan(0,1)">
                  <use xlink:href="#rim" fill="#404040">
                        <set attributeName="fill" to="#808080" begin="arrowDown.mouseover" end="arrowDown.mouseout"/>
                  </use>
                  <path fill="none" stroke="white" stroke-width="1.5" d="M0,-3.0v7 M-2.5,-0.5L0,-3.0L2.5,-0.5"/>
                </g>
                <g id="arrowLeft" xlink:href="#dirArrow" transform="rotate(270) translate(-36 17)" onmousedown="handlePan(-1,0)">
                  <use xlink:href="#rim" fill="#404040">
                        <set attributeName="fill" to="#808080" begin="arrowLeft.mouseover" end="arrowLeft.mouseout"/>
                  </use>
                  <path fill="none" stroke="white" stroke-width="1.5" d="M0,-3.0v7 M-2.5,-0.5L0,-3.0L2.5,-0.5"/>
                </g>
        </g>
        <svg viewBox="0 0 15 15" width="100%" height="30px" preserveAspectRatio="xMaxYMin meet">
         <g id="arrow_out" transform="scale(0.3 0.3)">
          <a xlink:href="protobuf__request__executor_8hpp__incl_org.svg" target="_base">
           <rect id="button" ry="5" rx="5" y="6" x="6" height="38" width="38"
                fill="#f2f5e9" fill-opacity="0.5" stroke="#606060" stroke-width="1.0"/>
           <path id="arrow"
             d="M 11.500037,31.436501 C 11.940474,20.09759 22.043105,11.32322 32.158766,21.979434 L 37.068811,17.246167 C 37.068811,17.246167 37.088388,32 37.088388,32 L 22.160133,31.978069 C 22.160133,31.978069 26.997745,27.140456 26.997745,27.140456 C 18.528582,18.264221 13.291696,25.230495 11.500037,31.436501 z"
             style="fill:#404040;"/>
          </a>
         </g>
        </svg>
</svg>
