<?xml version="1.0" encoding="UTF-8" standalone="no"?>
<!DOCTYPE svg PUBLIC "-//W3C//DTD SVG 1.1//EN"
 "http://www.w3.org/Graphics/SVG/1.1/DTD/svg11.dtd">
<!-- Generated by graphviz version 2.43.0 (0)
 -->
<!-- Title: executor/src/protobuf_request_executor.cpp Pages: 1 -->
<svg width="2707pt" height="285pt"
 viewBox="0.00 0.00 2707.36 285.00" xmlns="http://www.w3.org/2000/svg" xmlns:xlink="http://www.w3.org/1999/xlink">
<g id="graph0" class="graph" transform="scale(1 1) rotate(0) translate(4 281)">
<title>executor/src/protobuf_request_executor.cpp</title>
<polygon fill="white" stroke="transparent" points="-4,4 -4,-281 2703.36,-281 2703.36,4 -4,4"/>
<!-- Node1 -->
<g id="node1" class="node">
<title>Node1</title>
<g id="a_node1"><a xlink:title="Implements the ProtoRequestExecutorHandler class for handling Protobuf&#45;based requests.">
<polygon fill="#bfbfbf" stroke="black" points="354.36,-246.5 354.36,-276.5 481.36,-276.5 481.36,-246.5 354.36,-246.5"/>
<text text-anchor="start" x="362.36" y="-264.5" font-family="Helvetica,sans-Serif" font-size="10.00">executor/src/protobuf</text>
<text text-anchor="middle" x="417.86" y="-253.5" font-family="Helvetica,sans-Serif" font-size="10.00">_request_executor.cpp</text>
</a>
</g>
</g>
<!-- Node2 -->
<g id="node2" class="node">
<title>Node2</title>
<g id="a_node2"><a xlink:href="protobuf__request__executor_8hpp.html" target="_top" xlink:title="Declares the ProtoRequestExecutorHandler class for handling Protobuf&#45;based requests.">
<polygon fill="white" stroke="black" points="156.36,-179.5 156.36,-209.5 273.36,-209.5 273.36,-179.5 156.36,-179.5"/>
<text text-anchor="start" x="164.36" y="-197.5" font-family="Helvetica,sans-Serif" font-size="10.00">inc/protobuf_request</text>
<text text-anchor="middle" x="214.86" y="-186.5" font-family="Helvetica,sans-Serif" font-size="10.00">_executor.hpp</text>
</a>
</g>
</g>
<!-- Node1&#45;&gt;Node2 -->
<g id="edge1" class="edge">
<title>Node1&#45;&gt;Node2</title>
<path fill="none" stroke="midnightblue" d="M373.81,-246.4C342.96,-236.52 301.54,-223.25 268.71,-212.74"/>
<polygon fill="midnightblue" stroke="midnightblue" points="269.41,-209.29 258.82,-209.58 267.28,-215.96 269.41,-209.29"/>
</g>
<!-- Node4 -->
<g id="node4" class="node">
<title>Node4</title>
<g id="a_node4"><a xlink:title=" ">
<polygon fill="white" stroke="#bfbfbf" points="38.86,-0.5 38.86,-19.5 148.86,-19.5 148.86,-0.5 38.86,-0.5"/>
<text text-anchor="middle" x="93.86" y="-7.5" font-family="Helvetica,sans-Serif" font-size="10.00">nlohmann/json.hpp</text>
</a>
</g>
</g>
<!-- Node1&#45;&gt;Node4 -->
<g id="edge39" class="edge">
<title>Node1&#45;&gt;Node4</title>
<path fill="none" stroke="midnightblue" d="M354.14,-259.13C291.66,-255.67 194.96,-244.55 118.86,-210 47.14,-177.44 21.19,-152.61 2.86,-76 0.79,-67.36 -1.83,-63.55 2.86,-56 12.58,-40.36 29.52,-29.98 46.18,-23.19"/>
<polygon fill="midnightblue" stroke="midnightblue" points="47.73,-26.35 55.89,-19.59 45.3,-19.78 47.73,-26.35"/>
</g>
<!-- Node7 -->
<g id="node7" class="node">
<title>Node7</title>
<g id="a_node7"><a xlink:href="database__interface_8hpp.html" target="_top" xlink:title="Abstract interface for database operations.">
<polygon fill="white" stroke="black" points="19.36,-56.5 19.36,-75.5 168.36,-75.5 168.36,-56.5 19.36,-56.5"/>
<text text-anchor="middle" x="93.86" y="-63.5" font-family="Helvetica,sans-Serif" font-size="10.00">inc/database_interface.hpp</text>
</a>
</g>
</g>
<!-- Node1&#45;&gt;Node7 -->
<g id="edge32" class="edge">
<title>Node1&#45;&gt;Node7</title>
<path fill="none" stroke="midnightblue" d="M354.27,-255.6C284.43,-249.04 178.04,-235.19 146.86,-210 108.51,-179.01 97.91,-117.45 94.98,-86.18"/>
<polygon fill="midnightblue" stroke="midnightblue" points="98.44,-85.51 94.19,-75.81 91.46,-86.04 98.44,-85.51"/>
</g>
<!-- Node8 -->
<g id="node8" class="node">
<title>Node8</title>
<g id="a_node8"><a xlink:href="container__service_8hpp.html" target="_top" xlink:title="Declares the ContainerServiceHandler class for business logic related to containers.">
<polygon fill="white" stroke="black" points="347.36,-118 347.36,-137 488.36,-137 488.36,-118 347.36,-118"/>
<text text-anchor="middle" x="417.86" y="-125" font-family="Helvetica,sans-Serif" font-size="10.00">inc/container_service.hpp</text>
</a>
</g>
</g>
<!-- Node1&#45;&gt;Node8 -->
<g id="edge33" class="edge">
<title>Node1&#45;&gt;Node8</title>
<path fill="none" stroke="midnightblue" d="M417.86,-246.37C417.86,-222.5 417.86,-174.18 417.86,-147.41"/>
<polygon fill="midnightblue" stroke="midnightblue" points="421.36,-147.1 417.86,-137.1 414.36,-147.1 421.36,-147.1"/>
</g>
<!-- Node9 -->
<g id="node9" class="node">
<title>Node9</title>
<g id="a_node9"><a xlink:href="status_8hpp.html" target="_top" xlink:title="Defines status codes and a Status struct for standardized error handling.">
<polygon fill="white" stroke="black" points="499.36,-56.5 499.36,-75.5 584.36,-75.5 584.36,-56.5 499.36,-56.5"/>
<text text-anchor="middle" x="541.86" y="-63.5" font-family="Helvetica,sans-Serif" font-size="10.00">inc/status.hpp</text>
</a>
</g>
</g>
<!-- Node1&#45;&gt;Node9 -->
<g id="edge38" class="edge">
<title>Node1&#45;&gt;Node9</title>
<path fill="none" stroke="midnightblue" d="M427.86,-246.2C443.12,-224.26 472.97,-180.83 496.86,-143 509.35,-123.22 522.94,-100.02 531.88,-84.5"/>
<polygon fill="midnightblue" stroke="midnightblue" points="535.09,-85.95 537.02,-75.53 529.01,-82.46 535.09,-85.95"/>
</g>
<!-- Node10 -->
<g id="node10" class="node">
<title>Node10</title>
<g id="a_node10"><a xlink:href="container__manager_8pb_8h.html" target="_top" xlink:title=" ">
<polygon fill="white" stroke="black" points="1425.36,-185 1425.36,-204 1560.36,-204 1560.36,-185 1425.36,-185"/>
<text text-anchor="middle" x="1492.86" y="-192" font-family="Helvetica,sans-Serif" font-size="10.00">container_manager.pb.h</text>
</a>
</g>
</g>
<!-- Node1&#45;&gt;Node10 -->
<g id="edge18" class="edge">
<title>Node1&#45;&gt;Node10</title>
<path fill="none" stroke="midnightblue" d="M481.49,-256.65C667.89,-245.38 1212.32,-212.46 1415.34,-200.19"/>
<polygon fill="midnightblue" stroke="midnightblue" points="1415.56,-203.68 1425.33,-199.58 1415.14,-196.69 1415.56,-203.68"/>
</g>
<!-- Node23 -->
<g id="node23" class="node">
<title>Node23</title>
<g id="a_node23"><a xlink:href="common_8hpp.html" target="_top" xlink:title="Defines common constants, string views, and utility structures for the application.">
<polygon fill="white" stroke="black" points="2469.86,-185 2469.86,-204 2567.86,-204 2567.86,-185 2469.86,-185"/>
<text text-anchor="middle" x="2518.86" y="-192" font-family="Helvetica,sans-Serif" font-size="10.00">inc/common.hpp</text>
</a>
</g>
</g>
<!-- Node1&#45;&gt;Node23 -->
<g id="edge34" class="edge">
<title>Node1&#45;&gt;Node23</title>
<path fill="none" stroke="midnightblue" d="M481.6,-258.53C793.68,-248.87 2157.7,-206.67 2459.57,-197.33"/>
<polygon fill="midnightblue" stroke="midnightblue" points="2459.97,-200.82 2469.86,-197.02 2459.76,-193.83 2459.97,-200.82"/>
</g>
<!-- Node3 -->
<g id="node3" class="node">
<title>Node3</title>
<g id="a_node3"><a xlink:title=" ">
<polygon fill="white" stroke="#bfbfbf" points="387.86,-0.5 387.86,-19.5 431.86,-19.5 431.86,-0.5 387.86,-0.5"/>
<text text-anchor="middle" x="409.86" y="-7.5" font-family="Helvetica,sans-Serif" font-size="10.00">string</text>
</a>
</g>
</g>
<!-- Node2&#45;&gt;Node3 -->
<g id="edge2" class="edge">
<title>Node2&#45;&gt;Node3</title>
<path fill="none" stroke="midnightblue" d="M200.6,-179.24C185.54,-162.39 165.78,-133.88 179.86,-112 223.8,-43.72 325.47,-21.34 377.67,-14.2"/>
<polygon fill="midnightblue" stroke="midnightblue" points="378.23,-17.66 387.72,-12.94 377.36,-10.72 378.23,-17.66"/>
</g>
<!-- Node2&#45;&gt;Node4 -->
<g id="edge3" class="edge">
<title>Node2&#45;&gt;Node4</title>
<path fill="none" stroke="midnightblue" d="M160.23,-179.44C110.83,-163.47 41.19,-132.04 9.86,-76 -3.5,-52.1 26.9,-34.06 54.79,-23.12"/>
<polygon fill="midnightblue" stroke="midnightblue" points="56.31,-26.29 64.48,-19.55 53.88,-19.72 56.31,-26.29"/>
</g>
<!-- Node5 -->
<g id="node5" class="node">
<title>Node5</title>
<g id="a_node5"><a xlink:href="request__executor_8hpp.html" target="_top" xlink:title="Declares the abstract RequestExecutor interface for executing requests.">
<polygon fill="white" stroke="black" points="188.86,-118 188.86,-137 328.86,-137 328.86,-118 188.86,-118"/>
<text text-anchor="middle" x="258.86" y="-125" font-family="Helvetica,sans-Serif" font-size="10.00">inc/request_executor.hpp</text>
</a>
</g>
</g>
<!-- Node2&#45;&gt;Node5 -->
<g id="edge4" class="edge">
<title>Node2&#45;&gt;Node5</title>
<path fill="none" stroke="midnightblue" d="M224.41,-179.4C231.13,-169.46 240.17,-156.11 247.31,-145.57"/>
<polygon fill="midnightblue" stroke="midnightblue" points="250.27,-147.44 252.98,-137.19 244.47,-143.51 250.27,-147.44"/>
</g>
<!-- Node2&#45;&gt;Node7 -->
<g id="edge9" class="edge">
<title>Node2&#45;&gt;Node7</title>
<path fill="none" stroke="midnightblue" d="M192.29,-179.45C178.31,-170.12 160.48,-157.03 146.86,-143 129.42,-125.03 113.59,-100.81 103.86,-84.58"/>
<polygon fill="midnightblue" stroke="midnightblue" points="106.7,-82.51 98.64,-75.64 100.66,-86.04 106.7,-82.51"/>
</g>
<!-- Node2&#45;&gt;Node8 -->
<g id="edge12" class="edge">
<title>Node2&#45;&gt;Node8</title>
<path fill="none" stroke="midnightblue" d="M258.91,-179.4C295.63,-167.64 347.31,-151.09 381.66,-140.09"/>
<polygon fill="midnightblue" stroke="midnightblue" points="382.84,-143.39 391.29,-137.01 380.7,-136.72 382.84,-143.39"/>
</g>
<!-- Node5&#45;&gt;Node3 -->
<g id="edge5" class="edge">
<title>Node5&#45;&gt;Node3</title>
<path fill="none" stroke="midnightblue" d="M265.96,-117.91C277.92,-103.81 303.28,-75.36 328.86,-56 345.37,-43.5 365.76,-32.19 381.95,-24.04"/>
<polygon fill="midnightblue" stroke="midnightblue" points="383.51,-27.17 390.94,-19.62 380.42,-20.89 383.51,-27.17"/>
</g>
<!-- Node5&#45;&gt;Node4 -->
<g id="edge6" class="edge">
<title>Node5&#45;&gt;Node4</title>
<path fill="none" stroke="midnightblue" d="M249.8,-117.56C235.22,-103.45 205.31,-75.6 176.86,-56 159.26,-43.87 138.06,-32.42 121.48,-24.11"/>
<polygon fill="midnightblue" stroke="midnightblue" points="122.84,-20.87 112.32,-19.59 119.75,-27.15 122.84,-20.87"/>
</g>
<!-- Node6 -->
<g id="node6" class="node">
<title>Node6</title>
<g id="a_node6"><a xlink:href="container__request_8hpp.html" target="_top" xlink:title="Data structure for representing a container operation request.">
<polygon fill="white" stroke="black" points="338.36,-56.5 338.36,-75.5 481.36,-75.5 481.36,-56.5 338.36,-56.5"/>
<text text-anchor="middle" x="409.86" y="-63.5" font-family="Helvetica,sans-Serif" font-size="10.00">inc/container_request.hpp</text>
</a>
</g>
</g>
<!-- Node5&#45;&gt;Node6 -->
<g id="edge7" class="edge">
<title>Node5&#45;&gt;Node6</title>
<path fill="none" stroke="midnightblue" d="M280.5,-117.98C306.29,-107.81 349.57,-90.76 378.9,-79.2"/>
<polygon fill="midnightblue" stroke="midnightblue" points="380.25,-82.43 388.27,-75.51 377.68,-75.92 380.25,-82.43"/>
</g>
<!-- Node6&#45;&gt;Node3 -->
<g id="edge8" class="edge">
<title>Node6&#45;&gt;Node3</title>
<path fill="none" stroke="midnightblue" d="M409.86,-56.08C409.86,-49.01 409.86,-38.86 409.86,-29.99"/>
<polygon fill="midnightblue" stroke="midnightblue" points="413.36,-29.75 409.86,-19.75 406.36,-29.75 413.36,-29.75"/>
</g>
<!-- Node7&#45;&gt;Node3 -->
<g id="edge10" class="edge">
<title>Node7&#45;&gt;Node3</title>
<path fill="none" stroke="midnightblue" d="M143.93,-56.44C209.49,-45.24 322.55,-25.92 377.71,-16.49"/>
<polygon fill="midnightblue" stroke="midnightblue" points="378.36,-19.93 387.62,-14.8 377.18,-13.03 378.36,-19.93"/>
</g>
<!-- Node7&#45;&gt;Node4 -->
<g id="edge11" class="edge">
<title>Node7&#45;&gt;Node4</title>
<path fill="none" stroke="midnightblue" d="M93.86,-56.08C93.86,-49.01 93.86,-38.86 93.86,-29.99"/>
<polygon fill="midnightblue" stroke="midnightblue" points="97.36,-29.75 93.86,-19.75 90.36,-29.75 97.36,-29.75"/>
</g>
<!-- Node8&#45;&gt;Node4 -->
<g id="edge13" class="edge">
<title>Node8&#45;&gt;Node4</title>
<path fill="none" stroke="midnightblue" d="M393.77,-117.91C336.72,-97.57 193.22,-46.42 127.58,-23.02"/>
<polygon fill="midnightblue" stroke="midnightblue" points="128.7,-19.7 118.11,-19.64 126.35,-26.3 128.7,-19.7"/>
</g>
<!-- Node8&#45;&gt;Node6 -->
<g id="edge17" class="edge">
<title>Node8&#45;&gt;Node6</title>
<path fill="none" stroke="midnightblue" d="M416.72,-117.98C415.59,-109.58 413.83,-96.48 412.37,-85.66"/>
<polygon fill="midnightblue" stroke="midnightblue" points="415.81,-84.95 411.01,-75.51 408.87,-85.89 415.81,-84.95"/>
</g>
<!-- Node8&#45;&gt;Node7 -->
<g id="edge16" class="edge">
<title>Node8&#45;&gt;Node7</title>
<path fill="none" stroke="midnightblue" d="M371.44,-117.98C313.1,-107.26 213.02,-88.88 150.31,-77.37"/>
<polygon fill="midnightblue" stroke="midnightblue" points="150.66,-73.87 140.2,-75.51 149.4,-80.76 150.66,-73.87"/>
</g>
<!-- Node8&#45;&gt;Node9 -->
<g id="edge14" class="edge">
<title>Node8&#45;&gt;Node9</title>
<path fill="none" stroke="midnightblue" d="M435.63,-117.98C456.35,-108.03 490.81,-91.49 514.85,-79.96"/>
<polygon fill="midnightblue" stroke="midnightblue" points="516.63,-82.99 524.13,-75.51 513.6,-76.68 516.63,-82.99"/>
</g>
<!-- Node9&#45;&gt;Node3 -->
<g id="edge15" class="edge">
<title>Node9&#45;&gt;Node3</title>
<path fill="none" stroke="midnightblue" d="M520.95,-56.44C499.13,-47.52 464.71,-33.44 439.97,-23.32"/>
<polygon fill="midnightblue" stroke="midnightblue" points="441.26,-20.06 430.68,-19.52 438.61,-26.54 441.26,-20.06"/>
</g>
<!-- Node10&#45;&gt;Node3 -->
<g id="edge19" class="edge">
<title>Node10&#45;&gt;Node3</title>
<path fill="none" stroke="midnightblue" d="M1560.39,-192.38C1770.44,-188.55 2400.01,-174.5 2429.86,-143 2439.34,-133 2439.36,-121.98 2429.86,-112 2358.32,-36.8 695.28,-14.35 442.06,-11.36"/>
<polygon fill="midnightblue" stroke="midnightblue" points="442.07,-7.86 432.03,-11.24 441.99,-14.86 442.07,-7.86"/>
</g>
<!-- Node11 -->
<g id="node11" class="node">
<title>Node11</title>
<g id="a_node11"><a xlink:title=" ">
<polygon fill="white" stroke="#bfbfbf" points="1365.36,-112.5 1365.36,-142.5 1488.36,-142.5 1488.36,-112.5 1365.36,-112.5"/>
<text text-anchor="start" x="1373.36" y="-130.5" font-family="Helvetica,sans-Serif" font-size="10.00">google/protobuf/stubs</text>
<text text-anchor="middle" x="1426.86" y="-119.5" font-family="Helvetica,sans-Serif" font-size="10.00">/common.h</text>
</a>
</g>
</g>
<!-- Node10&#45;&gt;Node11 -->
<g id="edge20" class="edge">
<title>Node10&#45;&gt;Node11</title>
<path fill="none" stroke="midnightblue" d="M1483.96,-184.73C1474.87,-175.78 1460.41,-161.54 1448.32,-149.63"/>
<polygon fill="midnightblue" stroke="midnightblue" points="1450.75,-147.11 1441.17,-142.59 1445.84,-152.1 1450.75,-147.11"/>
</g>
<!-- Node12 -->
<g id="node12" class="node">
<title>Node12</title>
<g id="a_node12"><a xlink:title=" ">
<polygon fill="white" stroke="#bfbfbf" points="1506.86,-112.5 1506.86,-142.5 1612.86,-142.5 1612.86,-112.5 1506.86,-112.5"/>
<text text-anchor="start" x="1514.86" y="-130.5" font-family="Helvetica,sans-Serif" font-size="10.00">google/protobuf/io</text>
<text text-anchor="middle" x="1559.86" y="-119.5" font-family="Helvetica,sans-Serif" font-size="10.00">/coded_stream.h</text>
</a>
</g>
</g>
<!-- Node10&#45;&gt;Node12 -->
<g id="edge21" class="edge">
<title>Node10&#45;&gt;Node12</title>
<path fill="none" stroke="midnightblue" d="M1501.9,-184.73C1511.13,-175.78 1525.8,-161.54 1538.08,-149.63"/>
<polygon fill="midnightblue" stroke="midnightblue" points="1540.6,-152.06 1545.34,-142.59 1535.72,-147.04 1540.6,-152.06"/>
</g>
<!-- Node13 -->
<g id="node13" class="node">
<title>Node13</title>
<g id="a_node13"><a xlink:title=" ">
<polygon fill="white" stroke="#bfbfbf" points="1630.86,-118 1630.86,-137 1764.86,-137 1764.86,-118 1630.86,-118"/>
<text text-anchor="middle" x="1697.86" y="-125" font-family="Helvetica,sans-Serif" font-size="10.00">google/protobuf/arena.h</text>
</a>
</g>
</g>
<!-- Node10&#45;&gt;Node13 -->
<g id="edge22" class="edge">
<title>Node10&#45;&gt;Node13</title>
<path fill="none" stroke="midnightblue" d="M1520.08,-184.87C1556.33,-173.38 1620.57,-153.01 1661.09,-140.16"/>
<polygon fill="midnightblue" stroke="midnightblue" points="1662.38,-143.42 1670.85,-137.06 1660.26,-136.75 1662.38,-143.42"/>
</g>
<!-- Node14 -->
<g id="node14" class="node">
<title>Node14</title>
<g id="a_node14"><a xlink:title=" ">
<polygon fill="white" stroke="#bfbfbf" points="1783.36,-118 1783.36,-137 1944.36,-137 1944.36,-118 1783.36,-118"/>
<text text-anchor="middle" x="1863.86" y="-125" font-family="Helvetica,sans-Serif" font-size="10.00">google/protobuf/arenastring.h</text>
</a>
</g>
</g>
<!-- Node10&#45;&gt;Node14 -->
<g id="edge23" class="edge">
<title>Node10&#45;&gt;Node14</title>
<path fill="none" stroke="midnightblue" d="M1541.75,-184.94C1609.68,-173.03 1732.47,-151.52 1805.24,-138.77"/>
<polygon fill="midnightblue" stroke="midnightblue" points="1805.92,-142.21 1815.17,-137.03 1804.71,-135.31 1805.92,-142.21"/>
</g>
<!-- Node15 -->
<g id="node15" class="node">
<title>Node15</title>
<g id="a_node15"><a xlink:title=" ">
<polygon fill="white" stroke="#bfbfbf" points="1962.86,-112.5 1962.86,-142.5 2108.86,-142.5 2108.86,-112.5 1962.86,-112.5"/>
<text text-anchor="start" x="1970.86" y="-130.5" font-family="Helvetica,sans-Serif" font-size="10.00">google/protobuf/generated</text>
<text text-anchor="middle" x="2035.86" y="-119.5" font-family="Helvetica,sans-Serif" font-size="10.00">_message_table_driven.h</text>
</a>
</g>
</g>
<!-- Node10&#45;&gt;Node15 -->
<g id="edge24" class="edge">
<title>Node10&#45;&gt;Node15</title>
<path fill="none" stroke="midnightblue" d="M1560.45,-187.44C1648.27,-179.26 1806.55,-163.48 1952.54,-142.98"/>
<polygon fill="midnightblue" stroke="midnightblue" points="1953.17,-146.43 1962.58,-141.56 1952.19,-139.5 1953.17,-146.43"/>
</g>
<!-- Node16 -->
<g id="node16" class="node">
<title>Node16</title>
<g id="a_node16"><a xlink:title=" ">
<polygon fill="white" stroke="#bfbfbf" points="2126.86,-112.5 2126.86,-142.5 2272.86,-142.5 2272.86,-112.5 2126.86,-112.5"/>
<text text-anchor="start" x="2134.86" y="-130.5" font-family="Helvetica,sans-Serif" font-size="10.00">google/protobuf/generated</text>
<text text-anchor="middle" x="2199.86" y="-119.5" font-family="Helvetica,sans-Serif" font-size="10.00">_message_util.h</text>
</a>
</g>
</g>
<!-- Node10&#45;&gt;Node16 -->
<g id="edge25" class="edge">
<title>Node10&#45;&gt;Node16</title>
<path fill="none" stroke="midnightblue" d="M1560.6,-190.13C1673.68,-184.03 1908.24,-169.43 2116.39,-143.11"/>
<polygon fill="midnightblue" stroke="midnightblue" points="2117.12,-146.55 2126.6,-141.81 2116.23,-139.6 2117.12,-146.55"/>
</g>
<!-- Node17 -->
<g id="node17" class="node">
<title>Node17</title>
<g id="a_node17"><a xlink:title=" ">
<polygon fill="white" stroke="#bfbfbf" points="2290.86,-112.5 2290.86,-142.5 2420.86,-142.5 2420.86,-112.5 2290.86,-112.5"/>
<text text-anchor="start" x="2298.86" y="-130.5" font-family="Helvetica,sans-Serif" font-size="10.00">google/protobuf/inlined</text>
<text text-anchor="middle" x="2355.86" y="-119.5" font-family="Helvetica,sans-Serif" font-size="10.00">_string_field.h</text>
</a>
</g>
</g>
<!-- Node10&#45;&gt;Node17 -->
<g id="edge26" class="edge">
<title>Node10&#45;&gt;Node17</title>
<path fill="none" stroke="midnightblue" d="M1560.43,-192.12C1695.49,-188.73 2008.49,-177.65 2280.5,-143.06"/>
<polygon fill="midnightblue" stroke="midnightblue" points="2281.09,-146.52 2290.57,-141.77 2280.2,-139.57 2281.09,-146.52"/>
</g>
<!-- Node18 -->
<g id="node18" class="node">
<title>Node18</title>
<g id="a_node18"><a xlink:title=" ">
<polygon fill="white" stroke="#bfbfbf" points="545.36,-118 545.36,-137 698.36,-137 698.36,-118 545.36,-118"/>
<text text-anchor="middle" x="621.86" y="-125" font-family="Helvetica,sans-Serif" font-size="10.00">google/protobuf/metadata.h</text>
</a>
</g>
</g>
<!-- Node10&#45;&gt;Node18 -->
<g id="edge27" class="edge">
<title>Node10&#45;&gt;Node18</title>
<path fill="none" stroke="midnightblue" d="M1425.19,-191.49C1288.99,-186.93 972.22,-173.71 707.86,-143 697.94,-141.85 687.41,-140.32 677.26,-138.7"/>
<polygon fill="midnightblue" stroke="midnightblue" points="677.7,-135.23 667.26,-137.05 676.56,-142.13 677.7,-135.23"/>
</g>
<!-- Node19 -->
<g id="node19" class="node">
<title>Node19</title>
<g id="a_node19"><a xlink:title=" ">
<polygon fill="white" stroke="#bfbfbf" points="716.86,-118 716.86,-137 866.86,-137 866.86,-118 716.86,-118"/>
<text text-anchor="middle" x="791.86" y="-125" font-family="Helvetica,sans-Serif" font-size="10.00">google/protobuf/message.h</text>
</a>
</g>
</g>
<!-- Node10&#45;&gt;Node19 -->
<g id="edge28" class="edge">
<title>Node10&#45;&gt;Node19</title>
<path fill="none" stroke="midnightblue" d="M1425.1,-189.94C1311.29,-183.51 1074.71,-168.25 875.86,-143 866.49,-141.81 856.57,-140.31 846.96,-138.73"/>
<polygon fill="midnightblue" stroke="midnightblue" points="847.53,-135.28 837.09,-137.07 846.37,-142.18 847.53,-135.28"/>
</g>
<!-- Node20 -->
<g id="node20" class="node">
<title>Node20</title>
<g id="a_node20"><a xlink:title=" ">
<polygon fill="white" stroke="#bfbfbf" points="884.86,-112.5 884.86,-142.5 1024.86,-142.5 1024.86,-112.5 884.86,-112.5"/>
<text text-anchor="start" x="892.86" y="-130.5" font-family="Helvetica,sans-Serif" font-size="10.00">google/protobuf/repeated</text>
<text text-anchor="middle" x="954.86" y="-119.5" font-family="Helvetica,sans-Serif" font-size="10.00">_field.h</text>
</a>
</g>
</g>
<!-- Node10&#45;&gt;Node20 -->
<g id="edge29" class="edge">
<title>Node10&#45;&gt;Node20</title>
<path fill="none" stroke="midnightblue" d="M1425.01,-187.57C1337.28,-179.57 1179.56,-164.01 1034.97,-143.1"/>
<polygon fill="midnightblue" stroke="midnightblue" points="1035.43,-139.63 1025.03,-141.65 1034.42,-146.56 1035.43,-139.63"/>
</g>
<!-- Node21 -->
<g id="node21" class="node">
<title>Node21</title>
<g id="a_node21"><a xlink:title=" ">
<polygon fill="white" stroke="#bfbfbf" points="1043.36,-112.5 1043.36,-142.5 1188.36,-142.5 1188.36,-112.5 1043.36,-112.5"/>
<text text-anchor="start" x="1051.36" y="-130.5" font-family="Helvetica,sans-Serif" font-size="10.00">google/protobuf/extension</text>
<text text-anchor="middle" x="1115.86" y="-119.5" font-family="Helvetica,sans-Serif" font-size="10.00">_set.h</text>
</a>
</g>
</g>
<!-- Node10&#45;&gt;Node21 -->
<g id="edge30" class="edge">
<title>Node10&#45;&gt;Node21</title>
<path fill="none" stroke="midnightblue" d="M1442.03,-184.96C1385.13,-175.36 1289.87,-159.22 1198.67,-143.31"/>
<polygon fill="midnightblue" stroke="midnightblue" points="1199.17,-139.84 1188.71,-141.57 1197.96,-146.74 1199.17,-139.84"/>
</g>
<!-- Node22 -->
<g id="node22" class="node">
<title>Node22</title>
<g id="a_node22"><a xlink:title=" ">
<polygon fill="white" stroke="#bfbfbf" points="1206.36,-112.5 1206.36,-142.5 1347.36,-142.5 1347.36,-112.5 1206.36,-112.5"/>
<text text-anchor="start" x="1214.36" y="-130.5" font-family="Helvetica,sans-Serif" font-size="10.00">google/protobuf/unknown</text>
<text text-anchor="middle" x="1276.86" y="-119.5" font-family="Helvetica,sans-Serif" font-size="10.00">_field_set.h</text>
</a>
</g>
</g>
<!-- Node10&#45;&gt;Node22 -->
<g id="edge31" class="edge">
<title>Node10&#45;&gt;Node22</title>
<path fill="none" stroke="midnightblue" d="M1464.18,-184.87C1430.93,-174.86 1375.31,-158.13 1333.3,-145.48"/>
<polygon fill="midnightblue" stroke="midnightblue" points="1334.06,-142.06 1323.48,-142.53 1332.05,-148.76 1334.06,-142.06"/>
</g>
<!-- Node23&#45;&gt;Node3 -->
<g id="edge35" class="edge">
<title>Node23&#45;&gt;Node3</title>
<path fill="none" stroke="midnightblue" d="M2514.11,-184.9C2504.23,-167.89 2479.7,-130.04 2447.86,-112 2324.91,-42.32 2275.45,-70.33 2134.86,-56 1788.44,-20.7 648.75,-12.4 442.13,-11.18"/>
<polygon fill="midnightblue" stroke="midnightblue" points="441.97,-7.67 431.95,-11.12 441.93,-14.67 441.97,-7.67"/>
</g>
<!-- Node24 -->
<g id="node24" class="node">
<title>Node24</title>
<g id="a_node24"><a xlink:title=" ">
<polygon fill="white" stroke="#bfbfbf" points="2515.36,-118 2515.36,-137 2588.36,-137 2588.36,-118 2515.36,-118"/>
<text text-anchor="middle" x="2551.86" y="-125" font-family="Helvetica,sans-Serif" font-size="10.00">string_view</text>
</a>
</g>
</g>
<!-- Node23&#45;&gt;Node24 -->
<g id="edge36" class="edge">
<title>Node23&#45;&gt;Node24</title>
<path fill="none" stroke="midnightblue" d="M2523.31,-184.73C2528.31,-174.89 2536.55,-158.66 2542.9,-146.16"/>
<polygon fill="midnightblue" stroke="midnightblue" points="2546.08,-147.63 2547.48,-137.13 2539.83,-144.46 2546.08,-147.63"/>
</g>
<!-- Node25 -->
<g id="node25" class="node">
<title>Node25</title>
<g id="a_node25"><a xlink:title=" ">
<polygon fill="white" stroke="#bfbfbf" points="2606.36,-118 2606.36,-137 2699.36,-137 2699.36,-118 2606.36,-118"/>
<text text-anchor="middle" x="2652.86" y="-125" font-family="Helvetica,sans-Serif" font-size="10.00">unordered_map</text>
</a>
</g>
</g>
<!-- Node23&#45;&gt;Node25 -->
<g id="edge37" class="edge">
<title>Node23&#45;&gt;Node25</title>
<path fill="none" stroke="midnightblue" d="M2536.66,-184.87C2559.48,-173.8 2599.29,-154.49 2625.86,-141.6"/>
<polygon fill="midnightblue" stroke="midnightblue" points="2627.52,-144.68 2634.99,-137.17 2624.47,-138.38 2627.52,-144.68"/>
</g>
</g>
</svg>
