<?xml version="1.0" encoding="UTF-8" standalone="no"?>
<!DOCTYPE svg PUBLIC "-//W3C//DTD SVG 1.1//EN"
 "http://www.w3.org/Graphics/SVG/1.1/DTD/svg11.dtd">
<!-- Generated by graphviz version 2.43.0 (0)
 -->
<!-- Title: executor/src/protobuf_request_executor.cpp Pages: 1 -->
<svg width="2969pt" height="285pt"
 viewBox="0.00 0.00 2969.00 285.00" xmlns="http://www.w3.org/2000/svg" xmlns:xlink="http://www.w3.org/1999/xlink">
<g id="graph0" class="graph" transform="scale(1 1) rotate(0) translate(4 281)">
<title>executor/src/protobuf_request_executor.cpp</title>
<polygon fill="white" stroke="transparent" points="-4,4 -4,-281 2965,-281 2965,4 -4,4"/>
<!-- Node1 -->
<g id="node1" class="node">
<title>Node1</title>
<g id="a_node1"><a xlink:title="Implements the ProtoRequestExecutorHandler class for handling Protobuf&#45;based requests.">
<polygon fill="#bfbfbf" stroke="black" points="420,-246.5 420,-276.5 547,-276.5 547,-246.5 420,-246.5"/>
<text text-anchor="start" x="428" y="-264.5" font-family="Helvetica,sans-Serif" font-size="10.00">executor/src/protobuf</text>
<text text-anchor="middle" x="483.5" y="-253.5" font-family="Helvetica,sans-Serif" font-size="10.00">_request_executor.cpp</text>
</a>
</g>
</g>
<!-- Node2 -->
<g id="node2" class="node">
<title>Node2</title>
<g id="a_node2"><a xlink:href="protobuf__request__executor_8hpp.html" target="_top" xlink:title="Defines the ProtoRequestExecutorHandler class for handling Protobuf&#45;based requests.">
<polygon fill="white" stroke="black" points="573,-179.5 573,-209.5 690,-209.5 690,-179.5 573,-179.5"/>
<text text-anchor="start" x="581" y="-197.5" font-family="Helvetica,sans-Serif" font-size="10.00">inc/protobuf_request</text>
<text text-anchor="middle" x="631.5" y="-186.5" font-family="Helvetica,sans-Serif" font-size="10.00">_executor.hpp</text>
</a>
</g>
</g>
<!-- Node1&#45;&gt;Node2 -->
<g id="edge1" class="edge">
<title>Node1&#45;&gt;Node2</title>
<path fill="none" stroke="midnightblue" d="M515.61,-246.4C537.43,-236.81 566.49,-224.05 590.06,-213.7"/>
<polygon fill="midnightblue" stroke="midnightblue" points="591.7,-216.8 599.45,-209.58 588.89,-210.39 591.7,-216.8"/>
</g>
<!-- Node5 -->
<g id="node5" class="node">
<title>Node5</title>
<g id="a_node5"><a xlink:title=" ">
<polygon fill="white" stroke="#bfbfbf" points="388.5,-56.5 388.5,-75.5 498.5,-75.5 498.5,-56.5 388.5,-56.5"/>
<text text-anchor="middle" x="443.5" y="-63.5" font-family="Helvetica,sans-Serif" font-size="10.00">nlohmann/json.hpp</text>
</a>
</g>
</g>
<!-- Node1&#45;&gt;Node5 -->
<g id="edge38" class="edge">
<title>Node1&#45;&gt;Node5</title>
<path fill="none" stroke="midnightblue" d="M469.67,-246.46C450.44,-225.84 416.51,-185.22 403.5,-143 399.44,-129.83 398.6,-124.88 403.5,-112 407.84,-100.6 416.53,-90.24 424.71,-82.34"/>
<polygon fill="midnightblue" stroke="midnightblue" points="427.14,-84.86 432.23,-75.57 422.46,-79.66 427.14,-84.86"/>
</g>
<!-- Node7 -->
<g id="node7" class="node">
<title>Node7</title>
<g id="a_node7"><a xlink:href="container__manager_8pb_8h.html" target="_top" xlink:title=" ">
<polygon fill="white" stroke="black" points="1576,-185 1576,-204 1711,-204 1711,-185 1576,-185"/>
<text text-anchor="middle" x="1643.5" y="-192" font-family="Helvetica,sans-Serif" font-size="10.00">container_manager.pb.h</text>
</a>
</g>
</g>
<!-- Node1&#45;&gt;Node7 -->
<g id="edge9" class="edge">
<title>Node1&#45;&gt;Node7</title>
<path fill="none" stroke="midnightblue" d="M547.1,-256.94C745,-245.85 1349.51,-211.97 1565.64,-199.86"/>
<polygon fill="midnightblue" stroke="midnightblue" points="1565.85,-203.36 1575.64,-199.3 1565.46,-196.37 1565.85,-203.36"/>
</g>
<!-- Node20 -->
<g id="node20" class="node">
<title>Node20</title>
<g id="a_node20"><a xlink:href="database__interface_8hpp.html" target="_top" xlink:title="Abstract interface for database operations.">
<polygon fill="white" stroke="black" points="0,-118 0,-137 149,-137 149,-118 0,-118"/>
<text text-anchor="middle" x="74.5" y="-125" font-family="Helvetica,sans-Serif" font-size="10.00">inc/database_interface.hpp</text>
</a>
</g>
</g>
<!-- Node1&#45;&gt;Node20 -->
<g id="edge23" class="edge">
<title>Node1&#45;&gt;Node20</title>
<path fill="none" stroke="midnightblue" d="M419.85,-254.39C364.95,-247.73 284.22,-234.57 217.5,-210 170.97,-192.86 121.81,-161.51 94.97,-143.09"/>
<polygon fill="midnightblue" stroke="midnightblue" points="96.65,-140 86.45,-137.15 92.65,-145.74 96.65,-140"/>
</g>
<!-- Node21 -->
<g id="node21" class="node">
<title>Node21</title>
<g id="a_node21"><a xlink:href="container__service_8hpp.html" target="_top" xlink:title="Declares the ContainerServiceHandler class for business logic related to containers.">
<polygon fill="white" stroke="black" points="413,-118 413,-137 554,-137 554,-118 413,-118"/>
<text text-anchor="middle" x="483.5" y="-125" font-family="Helvetica,sans-Serif" font-size="10.00">inc/container_service.hpp</text>
</a>
</g>
</g>
<!-- Node1&#45;&gt;Node21 -->
<g id="edge26" class="edge">
<title>Node1&#45;&gt;Node21</title>
<path fill="none" stroke="midnightblue" d="M483.5,-246.37C483.5,-222.5 483.5,-174.18 483.5,-147.41"/>
<polygon fill="midnightblue" stroke="midnightblue" points="487,-147.1 483.5,-137.1 480,-147.1 487,-147.1"/>
</g>
<!-- Node22 -->
<g id="node22" class="node">
<title>Node22</title>
<g id="a_node22"><a xlink:href="redis__database_8hpp.html" target="_top" xlink:title="Declares the RedisDatabaseHandler class for Redis&#45;based database operations.">
<polygon fill="white" stroke="black" points="227,-185 227,-204 356,-204 356,-185 227,-185"/>
<text text-anchor="middle" x="291.5" y="-192" font-family="Helvetica,sans-Serif" font-size="10.00">inc/redis_database.hpp</text>
</a>
</g>
</g>
<!-- Node1&#45;&gt;Node22 -->
<g id="edge29" class="edge">
<title>Node1&#45;&gt;Node22</title>
<path fill="none" stroke="midnightblue" d="M441.84,-246.4C407.26,-234.69 358.64,-218.23 326.16,-207.23"/>
<polygon fill="midnightblue" stroke="midnightblue" points="327.22,-203.9 316.63,-204.01 324.98,-210.53 327.22,-203.9"/>
</g>
<!-- Node24 -->
<g id="node24" class="node">
<title>Node24</title>
<g id="a_node24"><a xlink:href="common_8hpp.html" target="_top" xlink:title="Defines common constants, string views, and utility structures for the application.">
<polygon fill="white" stroke="black" points="2731.5,-185 2731.5,-204 2829.5,-204 2829.5,-185 2731.5,-185"/>
<text text-anchor="middle" x="2780.5" y="-192" font-family="Helvetica,sans-Serif" font-size="10.00">inc/common.hpp</text>
</a>
</g>
</g>
<!-- Node1&#45;&gt;Node24 -->
<g id="edge34" class="edge">
<title>Node1&#45;&gt;Node24</title>
<path fill="none" stroke="midnightblue" d="M547.03,-258.7C877.91,-249.34 2400.97,-206.24 2721.28,-197.18"/>
<polygon fill="midnightblue" stroke="midnightblue" points="2721.39,-200.67 2731.29,-196.89 2721.19,-193.68 2721.39,-200.67"/>
</g>
<!-- Node3 -->
<g id="node3" class="node">
<title>Node3</title>
<g id="a_node3"><a xlink:href="request__executor_8hpp.html" target="_top" xlink:title="Declares the abstract RequestExecutor interface for executing requests.">
<polygon fill="white" stroke="black" points="610.5,-118 610.5,-137 750.5,-137 750.5,-118 610.5,-118"/>
<text text-anchor="middle" x="680.5" y="-125" font-family="Helvetica,sans-Serif" font-size="10.00">inc/request_executor.hpp</text>
</a>
</g>
</g>
<!-- Node2&#45;&gt;Node3 -->
<g id="edge2" class="edge">
<title>Node2&#45;&gt;Node3</title>
<path fill="none" stroke="midnightblue" d="M642.13,-179.4C649.7,-169.36 659.89,-155.84 667.87,-145.25"/>
<polygon fill="midnightblue" stroke="midnightblue" points="670.72,-147.29 673.95,-137.19 665.13,-143.07 670.72,-147.29"/>
</g>
<!-- Node4 -->
<g id="node4" class="node">
<title>Node4</title>
<g id="a_node4"><a xlink:title=" ">
<polygon fill="white" stroke="#bfbfbf" points="688.5,-0.5 688.5,-19.5 732.5,-19.5 732.5,-0.5 688.5,-0.5"/>
<text text-anchor="middle" x="710.5" y="-7.5" font-family="Helvetica,sans-Serif" font-size="10.00">string</text>
</a>
</g>
</g>
<!-- Node2&#45;&gt;Node4 -->
<g id="edge7" class="edge">
<title>Node2&#45;&gt;Node4</title>
<path fill="none" stroke="midnightblue" d="M690.15,-185.35C715.93,-178.53 743.84,-166.01 759.5,-143 784.94,-105.62 748.03,-53.34 725.59,-27.21"/>
<polygon fill="midnightblue" stroke="midnightblue" points="728.18,-24.84 718.92,-19.7 722.94,-29.5 728.18,-24.84"/>
</g>
<!-- Node2&#45;&gt;Node5 -->
<g id="edge8" class="edge">
<title>Node2&#45;&gt;Node5</title>
<path fill="none" stroke="midnightblue" d="M622.91,-179.5C611.26,-161.57 588.85,-130.61 562.5,-112 540.56,-96.5 512.6,-85.57 489.3,-78.37"/>
<polygon fill="midnightblue" stroke="midnightblue" points="490.22,-74.99 479.63,-75.51 488.23,-81.7 490.22,-74.99"/>
</g>
<!-- Node3&#45;&gt;Node4 -->
<g id="edge3" class="edge">
<title>Node3&#45;&gt;Node4</title>
<path fill="none" stroke="midnightblue" d="M682.75,-117.82C687.6,-99.17 699.09,-54.94 705.66,-29.63"/>
<polygon fill="midnightblue" stroke="midnightblue" points="709.09,-30.34 708.22,-19.78 702.32,-28.58 709.09,-30.34"/>
</g>
<!-- Node3&#45;&gt;Node5 -->
<g id="edge4" class="edge">
<title>Node3&#45;&gt;Node5</title>
<path fill="none" stroke="midnightblue" d="M646.54,-117.98C604.66,-107.46 533.37,-89.56 487.37,-78.01"/>
<polygon fill="midnightblue" stroke="midnightblue" points="487.94,-74.55 477.39,-75.51 486.24,-81.34 487.94,-74.55"/>
</g>
<!-- Node6 -->
<g id="node6" class="node">
<title>Node6</title>
<g id="a_node6"><a xlink:href="container__request_8hpp.html" target="_top" xlink:title="Data structure for representing a container operation request.">
<polygon fill="white" stroke="black" points="539,-56.5 539,-75.5 682,-75.5 682,-56.5 539,-56.5"/>
<text text-anchor="middle" x="610.5" y="-63.5" font-family="Helvetica,sans-Serif" font-size="10.00">inc/container_request.hpp</text>
</a>
</g>
</g>
<!-- Node3&#45;&gt;Node6 -->
<g id="edge5" class="edge">
<title>Node3&#45;&gt;Node6</title>
<path fill="none" stroke="midnightblue" d="M670.47,-117.98C659.45,-108.61 641.54,-93.38 628.16,-82.01"/>
<polygon fill="midnightblue" stroke="midnightblue" points="630.4,-79.32 620.51,-75.51 625.86,-84.65 630.4,-79.32"/>
</g>
<!-- Node6&#45;&gt;Node4 -->
<g id="edge6" class="edge">
<title>Node6&#45;&gt;Node4</title>
<path fill="none" stroke="midnightblue" d="M626.57,-56.32C642.46,-47.74 667.01,-34.49 685.46,-24.52"/>
<polygon fill="midnightblue" stroke="midnightblue" points="687.34,-27.49 694.47,-19.65 684.01,-21.33 687.34,-27.49"/>
</g>
<!-- Node7&#45;&gt;Node4 -->
<g id="edge10" class="edge">
<title>Node7&#45;&gt;Node4</title>
<path fill="none" stroke="midnightblue" d="M1575.75,-192.43C1393.15,-189.11 900.16,-177.07 835.5,-143 792.08,-120.12 802.12,-90.79 767.5,-56 756.41,-44.86 742.61,-33.9 731.36,-25.58"/>
<polygon fill="midnightblue" stroke="midnightblue" points="733.14,-22.55 722.99,-19.53 729.04,-28.22 733.14,-22.55"/>
</g>
<!-- Node8 -->
<g id="node8" class="node">
<title>Node8</title>
<g id="a_node8"><a xlink:title=" ">
<polygon fill="white" stroke="#bfbfbf" points="1813,-112.5 1813,-142.5 1936,-142.5 1936,-112.5 1813,-112.5"/>
<text text-anchor="start" x="1821" y="-130.5" font-family="Helvetica,sans-Serif" font-size="10.00">google/protobuf/stubs</text>
<text text-anchor="middle" x="1874.5" y="-119.5" font-family="Helvetica,sans-Serif" font-size="10.00">/common.h</text>
</a>
</g>
</g>
<!-- Node7&#45;&gt;Node8 -->
<g id="edge11" class="edge">
<title>Node7&#45;&gt;Node8</title>
<path fill="none" stroke="midnightblue" d="M1674.18,-184.87C1709.96,-174.8 1769.97,-157.91 1814.99,-145.24"/>
<polygon fill="midnightblue" stroke="midnightblue" points="1815.97,-148.61 1824.65,-142.53 1814.07,-141.87 1815.97,-148.61"/>
</g>
<!-- Node9 -->
<g id="node9" class="node">
<title>Node9</title>
<g id="a_node9"><a xlink:title=" ">
<polygon fill="white" stroke="#bfbfbf" points="1954.5,-112.5 1954.5,-142.5 2060.5,-142.5 2060.5,-112.5 1954.5,-112.5"/>
<text text-anchor="start" x="1962.5" y="-130.5" font-family="Helvetica,sans-Serif" font-size="10.00">google/protobuf/io</text>
<text text-anchor="middle" x="2007.5" y="-119.5" font-family="Helvetica,sans-Serif" font-size="10.00">/coded_stream.h</text>
</a>
</g>
</g>
<!-- Node7&#45;&gt;Node9 -->
<g id="edge12" class="edge">
<title>Node7&#45;&gt;Node9</title>
<path fill="none" stroke="midnightblue" d="M1700.55,-184.97C1759.09,-175.99 1853.03,-160.92 1944.31,-142.96"/>
<polygon fill="midnightblue" stroke="midnightblue" points="1945.14,-146.36 1954.27,-140.99 1943.78,-139.5 1945.14,-146.36"/>
</g>
<!-- Node10 -->
<g id="node10" class="node">
<title>Node10</title>
<g id="a_node10"><a xlink:title=" ">
<polygon fill="white" stroke="#bfbfbf" points="2078.5,-118 2078.5,-137 2212.5,-137 2212.5,-118 2078.5,-118"/>
<text text-anchor="middle" x="2145.5" y="-125" font-family="Helvetica,sans-Serif" font-size="10.00">google/protobuf/arena.h</text>
</a>
</g>
</g>
<!-- Node7&#45;&gt;Node10 -->
<g id="edge13" class="edge">
<title>Node7&#45;&gt;Node10</title>
<path fill="none" stroke="midnightblue" d="M1711.21,-186.96C1795.41,-178.49 1943.45,-162.47 2069.5,-143 2077.34,-141.79 2085.61,-140.36 2093.69,-138.89"/>
<polygon fill="midnightblue" stroke="midnightblue" points="2094.59,-142.28 2103.78,-137.01 2093.31,-135.4 2094.59,-142.28"/>
</g>
<!-- Node11 -->
<g id="node11" class="node">
<title>Node11</title>
<g id="a_node11"><a xlink:title=" ">
<polygon fill="white" stroke="#bfbfbf" points="2231,-118 2231,-137 2392,-137 2392,-118 2231,-118"/>
<text text-anchor="middle" x="2311.5" y="-125" font-family="Helvetica,sans-Serif" font-size="10.00">google/protobuf/arenastring.h</text>
</a>
</g>
</g>
<!-- Node7&#45;&gt;Node11 -->
<g id="edge14" class="edge">
<title>Node7&#45;&gt;Node11</title>
<path fill="none" stroke="midnightblue" d="M1711.3,-189.18C1819.44,-181.93 2037.57,-165.82 2221.5,-143 2231.51,-141.76 2242.12,-140.23 2252.4,-138.65"/>
<polygon fill="midnightblue" stroke="midnightblue" points="2253.21,-142.06 2262.55,-137.05 2252.12,-135.15 2253.21,-142.06"/>
</g>
<!-- Node12 -->
<g id="node12" class="node">
<title>Node12</title>
<g id="a_node12"><a xlink:title=" ">
<polygon fill="white" stroke="#bfbfbf" points="2410.5,-112.5 2410.5,-142.5 2556.5,-142.5 2556.5,-112.5 2410.5,-112.5"/>
<text text-anchor="start" x="2418.5" y="-130.5" font-family="Helvetica,sans-Serif" font-size="10.00">google/protobuf/generated</text>
<text text-anchor="middle" x="2483.5" y="-119.5" font-family="Helvetica,sans-Serif" font-size="10.00">_message_table_driven.h</text>
</a>
</g>
</g>
<!-- Node7&#45;&gt;Node12 -->
<g id="edge15" class="edge">
<title>Node7&#45;&gt;Node12</title>
<path fill="none" stroke="midnightblue" d="M1711.07,-191.4C1841.99,-186.82 2139.45,-173.83 2400.2,-142.93"/>
<polygon fill="midnightblue" stroke="midnightblue" points="2400.73,-146.4 2410.24,-141.73 2399.9,-139.45 2400.73,-146.4"/>
</g>
<!-- Node13 -->
<g id="node13" class="node">
<title>Node13</title>
<g id="a_node13"><a xlink:title=" ">
<polygon fill="white" stroke="#bfbfbf" points="2574.5,-112.5 2574.5,-142.5 2720.5,-142.5 2720.5,-112.5 2574.5,-112.5"/>
<text text-anchor="start" x="2582.5" y="-130.5" font-family="Helvetica,sans-Serif" font-size="10.00">google/protobuf/generated</text>
<text text-anchor="middle" x="2647.5" y="-119.5" font-family="Helvetica,sans-Serif" font-size="10.00">_message_util.h</text>
</a>
</g>
</g>
<!-- Node7&#45;&gt;Node13 -->
<g id="edge16" class="edge">
<title>Node7&#45;&gt;Node13</title>
<path fill="none" stroke="midnightblue" d="M1711.12,-192.58C1862.32,-189.91 2239.36,-179.93 2564.17,-143.06"/>
<polygon fill="midnightblue" stroke="midnightblue" points="2564.71,-146.52 2574.25,-141.9 2563.91,-139.56 2564.71,-146.52"/>
</g>
<!-- Node14 -->
<g id="node14" class="node">
<title>Node14</title>
<g id="a_node14"><a xlink:title=" ">
<polygon fill="white" stroke="#bfbfbf" points="844.5,-112.5 844.5,-142.5 974.5,-142.5 974.5,-112.5 844.5,-112.5"/>
<text text-anchor="start" x="852.5" y="-130.5" font-family="Helvetica,sans-Serif" font-size="10.00">google/protobuf/inlined</text>
<text text-anchor="middle" x="909.5" y="-119.5" font-family="Helvetica,sans-Serif" font-size="10.00">_string_field.h</text>
</a>
</g>
</g>
<!-- Node7&#45;&gt;Node14 -->
<g id="edge17" class="edge">
<title>Node7&#45;&gt;Node14</title>
<path fill="none" stroke="midnightblue" d="M1575.77,-190.94C1457.71,-185.9 1206.48,-172.63 984.99,-143.1"/>
<polygon fill="midnightblue" stroke="midnightblue" points="985.18,-139.59 974.8,-141.73 984.24,-146.53 985.18,-139.59"/>
</g>
<!-- Node15 -->
<g id="node15" class="node">
<title>Node15</title>
<g id="a_node15"><a xlink:title=" ">
<polygon fill="white" stroke="#bfbfbf" points="993,-118 993,-137 1146,-137 1146,-118 993,-118"/>
<text text-anchor="middle" x="1069.5" y="-125" font-family="Helvetica,sans-Serif" font-size="10.00">google/protobuf/metadata.h</text>
</a>
</g>
</g>
<!-- Node7&#45;&gt;Node15 -->
<g id="edge18" class="edge">
<title>Node7&#45;&gt;Node15</title>
<path fill="none" stroke="midnightblue" d="M1575.84,-187.88C1481.48,-179.72 1305.1,-163.33 1155.5,-143 1146.15,-141.73 1136.25,-140.22 1126.63,-138.66"/>
<polygon fill="midnightblue" stroke="midnightblue" points="1127.17,-135.2 1116.73,-137.02 1126.03,-142.11 1127.17,-135.2"/>
</g>
<!-- Node16 -->
<g id="node16" class="node">
<title>Node16</title>
<g id="a_node16"><a xlink:title=" ">
<polygon fill="white" stroke="#bfbfbf" points="1164.5,-118 1164.5,-137 1314.5,-137 1314.5,-118 1164.5,-118"/>
<text text-anchor="middle" x="1239.5" y="-125" font-family="Helvetica,sans-Serif" font-size="10.00">google/protobuf/message.h</text>
</a>
</g>
</g>
<!-- Node7&#45;&gt;Node16 -->
<g id="edge19" class="edge">
<title>Node7&#45;&gt;Node16</title>
<path fill="none" stroke="midnightblue" d="M1587.96,-184.98C1524.11,-175.14 1416.17,-158.31 1323.5,-143 1315.31,-141.65 1306.69,-140.19 1298.2,-138.74"/>
<polygon fill="midnightblue" stroke="midnightblue" points="1298.79,-135.29 1288.34,-137.05 1297.6,-142.19 1298.79,-135.29"/>
</g>
<!-- Node17 -->
<g id="node17" class="node">
<title>Node17</title>
<g id="a_node17"><a xlink:title=" ">
<polygon fill="white" stroke="#bfbfbf" points="1332.5,-112.5 1332.5,-142.5 1472.5,-142.5 1472.5,-112.5 1332.5,-112.5"/>
<text text-anchor="start" x="1340.5" y="-130.5" font-family="Helvetica,sans-Serif" font-size="10.00">google/protobuf/repeated</text>
<text text-anchor="middle" x="1402.5" y="-119.5" font-family="Helvetica,sans-Serif" font-size="10.00">_field.h</text>
</a>
</g>
</g>
<!-- Node7&#45;&gt;Node17 -->
<g id="edge20" class="edge">
<title>Node7&#45;&gt;Node17</title>
<path fill="none" stroke="midnightblue" d="M1611.5,-184.87C1574.08,-174.78 1511.3,-157.84 1464.29,-145.16"/>
<polygon fill="midnightblue" stroke="midnightblue" points="1465.08,-141.75 1454.51,-142.53 1463.26,-148.51 1465.08,-141.75"/>
</g>
<!-- Node18 -->
<g id="node18" class="node">
<title>Node18</title>
<g id="a_node18"><a xlink:title=" ">
<polygon fill="white" stroke="#bfbfbf" points="1491,-112.5 1491,-142.5 1636,-142.5 1636,-112.5 1491,-112.5"/>
<text text-anchor="start" x="1499" y="-130.5" font-family="Helvetica,sans-Serif" font-size="10.00">google/protobuf/extension</text>
<text text-anchor="middle" x="1563.5" y="-119.5" font-family="Helvetica,sans-Serif" font-size="10.00">_set.h</text>
</a>
</g>
</g>
<!-- Node7&#45;&gt;Node18 -->
<g id="edge21" class="edge">
<title>Node7&#45;&gt;Node18</title>
<path fill="none" stroke="midnightblue" d="M1632.71,-184.73C1621.48,-175.61 1603.5,-161 1588.69,-148.96"/>
<polygon fill="midnightblue" stroke="midnightblue" points="1590.81,-146.18 1580.84,-142.59 1586.39,-151.61 1590.81,-146.18"/>
</g>
<!-- Node19 -->
<g id="node19" class="node">
<title>Node19</title>
<g id="a_node19"><a xlink:title=" ">
<polygon fill="white" stroke="#bfbfbf" points="1654,-112.5 1654,-142.5 1795,-142.5 1795,-112.5 1654,-112.5"/>
<text text-anchor="start" x="1662" y="-130.5" font-family="Helvetica,sans-Serif" font-size="10.00">google/protobuf/unknown</text>
<text text-anchor="middle" x="1724.5" y="-119.5" font-family="Helvetica,sans-Serif" font-size="10.00">_field_set.h</text>
</a>
</g>
</g>
<!-- Node7&#45;&gt;Node19 -->
<g id="edge22" class="edge">
<title>Node7&#45;&gt;Node19</title>
<path fill="none" stroke="midnightblue" d="M1654.42,-184.73C1665.79,-175.61 1684,-161 1699,-148.96"/>
<polygon fill="midnightblue" stroke="midnightblue" points="1701.33,-151.58 1706.94,-142.59 1696.95,-146.12 1701.33,-151.58"/>
</g>
<!-- Node20&#45;&gt;Node4 -->
<g id="edge24" class="edge">
<title>Node20&#45;&gt;Node4</title>
<path fill="none" stroke="midnightblue" d="M96.27,-117.89C135.32,-102.82 220.15,-71.76 294.5,-56 435.43,-26.12 607.67,-15.53 678.12,-12.27"/>
<polygon fill="midnightblue" stroke="midnightblue" points="678.32,-15.77 688.15,-11.83 678.01,-8.77 678.32,-15.77"/>
</g>
<!-- Node20&#45;&gt;Node5 -->
<g id="edge25" class="edge">
<title>Node20&#45;&gt;Node5</title>
<path fill="none" stroke="midnightblue" d="M122.75,-117.93C134.14,-115.94 146.24,-113.87 157.5,-112 233.16,-99.44 320.24,-85.87 378.24,-76.95"/>
<polygon fill="midnightblue" stroke="midnightblue" points="379.01,-80.37 388.36,-75.39 377.95,-73.45 379.01,-80.37"/>
</g>
<!-- Node21&#45;&gt;Node5 -->
<g id="edge27" class="edge">
<title>Node21&#45;&gt;Node5</title>
<path fill="none" stroke="midnightblue" d="M477.77,-117.98C471.83,-109.14 462.38,-95.09 454.91,-83.98"/>
<polygon fill="midnightblue" stroke="midnightblue" points="457.7,-81.86 449.22,-75.51 451.89,-85.76 457.7,-81.86"/>
</g>
<!-- Node21&#45;&gt;Node6 -->
<g id="edge28" class="edge">
<title>Node21&#45;&gt;Node6</title>
<path fill="none" stroke="midnightblue" d="M501.7,-117.98C523.01,-107.99 558.53,-91.35 583.16,-79.81"/>
<polygon fill="midnightblue" stroke="midnightblue" points="584.77,-82.92 592.34,-75.51 581.8,-76.58 584.77,-82.92"/>
</g>
<!-- Node22&#45;&gt;Node4 -->
<g id="edge32" class="edge">
<title>Node22&#45;&gt;Node4</title>
<path fill="none" stroke="midnightblue" d="M293.88,-184.98C301.42,-159.75 327.44,-85.43 379.5,-56 430.16,-27.36 604.83,-15.97 677.93,-12.38"/>
<polygon fill="midnightblue" stroke="midnightblue" points="678.53,-15.86 688.35,-11.89 678.2,-8.87 678.53,-15.86"/>
</g>
<!-- Node22&#45;&gt;Node5 -->
<g id="edge33" class="edge">
<title>Node22&#45;&gt;Node5</title>
<path fill="none" stroke="midnightblue" d="M298.52,-184.96C311.62,-169.34 341.16,-135.57 370.5,-112 385.35,-100.07 403.6,-88.82 418.13,-80.56"/>
<polygon fill="midnightblue" stroke="midnightblue" points="420.04,-83.5 427.07,-75.58 416.63,-77.38 420.04,-83.5"/>
</g>
<!-- Node22&#45;&gt;Node20 -->
<g id="edge30" class="edge">
<title>Node22&#45;&gt;Node20</title>
<path fill="none" stroke="midnightblue" d="M262.68,-184.87C224.15,-173.33 155.74,-152.84 112.88,-140"/>
<polygon fill="midnightblue" stroke="midnightblue" points="113.67,-136.58 103.09,-137.06 111.66,-143.29 113.67,-136.58"/>
</g>
<!-- Node23 -->
<g id="node23" class="node">
<title>Node23</title>
<g id="a_node23"><a xlink:title=" ">
<polygon fill="white" stroke="#bfbfbf" points="167,-118 167,-137 280,-137 280,-118 167,-118"/>
<text text-anchor="middle" x="223.5" y="-125" font-family="Helvetica,sans-Serif" font-size="10.00">cpp_redis/cpp_redis</text>
</a>
</g>
</g>
<!-- Node22&#45;&gt;Node23 -->
<g id="edge31" class="edge">
<title>Node22&#45;&gt;Node23</title>
<path fill="none" stroke="midnightblue" d="M282.33,-184.73C271.52,-174.4 253.35,-157.04 240.06,-144.33"/>
<polygon fill="midnightblue" stroke="midnightblue" points="242.17,-141.51 232.53,-137.13 237.34,-146.57 242.17,-141.51"/>
</g>
<!-- Node24&#45;&gt;Node4 -->
<g id="edge35" class="edge">
<title>Node24&#45;&gt;Node4</title>
<path fill="none" stroke="midnightblue" d="M2778.06,-184.9C2772.62,-167.54 2757.71,-128.56 2729.5,-112 2551.03,-7.23 987.49,-9.78 742.68,-10.83"/>
<polygon fill="midnightblue" stroke="midnightblue" points="742.63,-7.33 732.65,-10.88 742.66,-14.33 742.63,-7.33"/>
</g>
<!-- Node25 -->
<g id="node25" class="node">
<title>Node25</title>
<g id="a_node25"><a xlink:title=" ">
<polygon fill="white" stroke="#bfbfbf" points="2777,-118 2777,-137 2850,-137 2850,-118 2777,-118"/>
<text text-anchor="middle" x="2813.5" y="-125" font-family="Helvetica,sans-Serif" font-size="10.00">string_view</text>
</a>
</g>
</g>
<!-- Node24&#45;&gt;Node25 -->
<g id="edge36" class="edge">
<title>Node24&#45;&gt;Node25</title>
<path fill="none" stroke="midnightblue" d="M2784.95,-184.73C2789.95,-174.89 2798.19,-158.66 2804.53,-146.16"/>
<polygon fill="midnightblue" stroke="midnightblue" points="2807.71,-147.63 2809.12,-137.13 2801.47,-144.46 2807.71,-147.63"/>
</g>
<!-- Node26 -->
<g id="node26" class="node">
<title>Node26</title>
<g id="a_node26"><a xlink:title=" ">
<polygon fill="white" stroke="#bfbfbf" points="2868,-118 2868,-137 2961,-137 2961,-118 2868,-118"/>
<text text-anchor="middle" x="2914.5" y="-125" font-family="Helvetica,sans-Serif" font-size="10.00">unordered_map</text>
</a>
</g>
</g>
<!-- Node24&#45;&gt;Node26 -->
<g id="edge37" class="edge">
<title>Node24&#45;&gt;Node26</title>
<path fill="none" stroke="midnightblue" d="M2798.29,-184.87C2821.12,-173.8 2860.93,-154.49 2887.5,-141.6"/>
<polygon fill="midnightblue" stroke="midnightblue" points="2889.16,-144.68 2896.63,-137.17 2886.11,-138.38 2889.16,-144.68"/>
</g>
</g>
</svg>
