<?xml version="1.0" encoding="UTF-8" standalone="no"?>
<!DOCTYPE svg PUBLIC "-//W3C//DTD SVG 1.1//EN"
 "http://www.w3.org/Graphics/SVG/1.1/DTD/svg11.dtd">
<!-- Generated by graphviz version 2.43.0 (0)
 -->
<!-- Title: executor/src/protobuf_request_executor.cpp Pages: 1 -->
<!--zoomable 285 -->
<svg id="main" version="1.1" xmlns="http://www.w3.org/2000/svg" xmlns:xlink="http://www.w3.org/1999/xlink" xml:space="preserve" onload="init(evt)">
<style type="text/css"><![CDATA[
.edge:hover path { stroke: red; }
.edge:hover polygon { stroke: red; fill: red; }
]]></style>
<script type="text/javascript"><![CDATA[
var edges = document.getElementsByTagName('g');
if (edges && edges.length) {
  for (var i=0;i<edges.length;i++) {
    if (edges[i].id.substr(0,4)=='edge') {
      edges[i].setAttribute('class','edge');
    }
  }
}
]]></script>
        <defs>
                <circle id="rim" cx="0" cy="0" r="7"/>
                <circle id="rim2" cx="0" cy="0" r="3.5"/>
                <g id="zoomPlus">
                        <use xlink:href="#rim" fill="#404040">
                                <set attributeName="fill" to="#808080" begin="zoomplus.mouseover" end="zoomplus.mouseout"/>
                        </use>
                        <path d="M-4,0h8M0,-4v8" fill="none" stroke="white" stroke-width="1.5" pointer-events="none"/>
                </g>
                <g id="zoomMin">
                        <use xlink:href="#rim" fill="#404040">
                                <set attributeName="fill" to="#808080" begin="zoomminus.mouseover" end="zoomminus.mouseout"/>
                        </use>
                        <path d="M-4,0h8" fill="none" stroke="white" stroke-width="1.5" pointer-events="none"/>
                </g>
                <g id="dirArrow">
                        <path fill="none" stroke="white" stroke-width="1.5" d="M0,-3.0v7 M-2.5,-0.5L0,-3.0L2.5,-0.5"/>
                </g>
               <g id="resetDef">
                       <use xlink:href="#rim2" fill="#404040">
                               <set attributeName="fill" to="#808080" begin="reset.mouseover" end="reset.mouseout"/>
                       </use>
               </g>
        </defs>

<script type="text/javascript">
var viewWidth = 2738;
var viewHeight = 285;
var sectionId = 'dynsection-0';
</script>
<script xlink:href="svgpan.js"/>
<svg id="graph" class="graph">
<g id="viewport">
<title>executor/src/protobuf_request_executor.cpp</title>
<polygon fill="white" stroke="transparent" points="-4,4 -4,-281 2734.32,-281 2734.32,4 -4,4"/>
<!-- Node1 -->
<g id="node1" class="node">
<title>Node1</title>
<g id="a_node1"><a xlink:title="Protocol Buffers request executor for Container Manager.">
<polygon fill="#bfbfbf" stroke="black" points="446.32,-246.5 446.32,-276.5 573.32,-276.5 573.32,-246.5 446.32,-246.5"/>
<text text-anchor="start" x="454.32" y="-264.5" font-family="Helvetica,sans-Serif" font-size="10.00">executor/src/protobuf</text>
<text text-anchor="middle" x="509.82" y="-253.5" font-family="Helvetica,sans-Serif" font-size="10.00">_request_executor.cpp</text>
</a>
</g>
</g>
<!-- Node2 -->
<g id="node2" class="node">
<title>Node2</title>
<g id="a_node2"><a xlink:href="protobuf__request__executor_8hpp.html" target="_top" xlink:title="Declares the ProtoRequestExecutorHandler class for handling Protobuf&#45;based requests.">
<polygon fill="white" stroke="black" points="191.32,-179.5 191.32,-209.5 308.32,-209.5 308.32,-179.5 191.32,-179.5"/>
<text text-anchor="start" x="199.32" y="-197.5" font-family="Helvetica,sans-Serif" font-size="10.00">inc/protobuf_request</text>
<text text-anchor="middle" x="249.82" y="-186.5" font-family="Helvetica,sans-Serif" font-size="10.00">_executor.hpp</text>
</a>
</g>
</g>
<!-- Node1&#45;&gt;Node2 -->
<g id="edge1" class="edge">
<title>Node1&#45;&gt;Node2</title>
<path fill="none" stroke="midnightblue" d="M453.73,-246.48C413.29,-236.37 358.56,-222.68 315.98,-212.04"/>
<polygon fill="midnightblue" stroke="midnightblue" points="316.82,-208.64 306.27,-209.61 315.12,-215.43 316.82,-208.64"/>
</g>
<!-- Node4 -->
<g id="node4" class="node">
<title>Node4</title>
<g id="a_node4"><a xlink:title=" ">
<polygon fill="white" stroke="#bfbfbf" points="38.82,-0.5 38.82,-19.5 148.82,-19.5 148.82,-0.5 38.82,-0.5"/>
<text text-anchor="middle" x="93.82" y="-7.5" font-family="Helvetica,sans-Serif" font-size="10.00">nlohmann/json.hpp</text>
</a>
</g>
</g>
<!-- Node1&#45;&gt;Node4 -->
<g id="edge41" class="edge">
<title>Node1&#45;&gt;Node4</title>
<path fill="none" stroke="midnightblue" d="M446.23,-261C369.07,-259.6 236.25,-250.71 130.82,-210 53.99,-180.33 20.53,-156.43 2.82,-76 0.91,-67.32 -1.87,-63.55 2.82,-56 12.54,-40.36 29.48,-29.98 46.14,-23.19"/>
<polygon fill="midnightblue" stroke="midnightblue" points="47.69,-26.35 55.85,-19.59 45.26,-19.78 47.69,-26.35"/>
</g>
<!-- Node7 -->
<g id="node7" class="node">
<title>Node7</title>
<g id="a_node7"><a xlink:href="database__interface_8hpp.html" target="_top" xlink:title="Abstract interface for database operations.">
<polygon fill="white" stroke="black" points="19.32,-56.5 19.32,-75.5 168.32,-75.5 168.32,-56.5 19.32,-56.5"/>
<text text-anchor="middle" x="93.82" y="-63.5" font-family="Helvetica,sans-Serif" font-size="10.00">inc/database_interface.hpp</text>
</a>
</g>
</g>
<!-- Node1&#45;&gt;Node7 -->
<g id="edge32" class="edge">
<title>Node1&#45;&gt;Node7</title>
<path fill="none" stroke="midnightblue" d="M446.09,-255.12C364.25,-247.45 227.33,-231.85 181.82,-210 142.12,-190.94 130.38,-181.4 108.82,-143 98.86,-125.26 95.44,-101.95 94.3,-85.84"/>
<polygon fill="midnightblue" stroke="midnightblue" points="97.78,-85.4 93.82,-75.57 90.79,-85.73 97.78,-85.4"/>
</g>
<!-- Node8 -->
<g id="node8" class="node">
<title>Node8</title>
<g id="a_node8"><a xlink:href="container__service_8hpp.html" target="_top" xlink:title="Declares the ContainerServiceHandler class for business logic related to containers.">
<polygon fill="white" stroke="black" points="302.32,-118 302.32,-137 443.32,-137 443.32,-118 302.32,-118"/>
<text text-anchor="middle" x="372.82" y="-125" font-family="Helvetica,sans-Serif" font-size="10.00">inc/container_service.hpp</text>
</a>
</g>
</g>
<!-- Node1&#45;&gt;Node8 -->
<g id="edge33" class="edge">
<title>Node1&#45;&gt;Node8</title>
<path fill="none" stroke="midnightblue" d="M495.16,-246.37C469.39,-221.54 416.14,-170.24 389.2,-144.28"/>
<polygon fill="midnightblue" stroke="midnightblue" points="391.38,-141.52 381.75,-137.1 386.52,-146.56 391.38,-141.52"/>
</g>
<!-- Node9 -->
<g id="node9" class="node">
<title>Node9</title>
<g id="a_node9"><a xlink:href="status_8hpp.html" target="_top" xlink:title="Defines status codes and a Status struct for standardized error handling.">
<polygon fill="white" stroke="black" points="500.32,-56.5 500.32,-75.5 585.32,-75.5 585.32,-56.5 500.32,-56.5"/>
<text text-anchor="middle" x="542.82" y="-63.5" font-family="Helvetica,sans-Serif" font-size="10.00">inc/status.hpp</text>
</a>
</g>
</g>
<!-- Node1&#45;&gt;Node9 -->
<g id="edge38" class="edge">
<title>Node1&#45;&gt;Node9</title>
<path fill="none" stroke="midnightblue" d="M511.96,-246.13C515.96,-219.59 524.95,-161.09 533.82,-112 535.4,-103.27 537.31,-93.62 538.96,-85.5"/>
<polygon fill="midnightblue" stroke="midnightblue" points="542.41,-86.11 541,-75.61 535.55,-84.7 542.41,-86.11"/>
</g>
<!-- Node10 -->
<g id="node10" class="node">
<title>Node10</title>
<g id="a_node10"><a xlink:href="container__manager_8pb_8h.html" target="_top" xlink:title=" ">
<polygon fill="white" stroke="black" points="1404.32,-185 1404.32,-204 1539.32,-204 1539.32,-185 1404.32,-185"/>
<text text-anchor="middle" x="1471.82" y="-192" font-family="Helvetica,sans-Serif" font-size="10.00">container_manager.pb.h</text>
</a>
</g>
</g>
<!-- Node1&#45;&gt;Node10 -->
<g id="edge18" class="edge">
<title>Node1&#45;&gt;Node10</title>
<path fill="none" stroke="midnightblue" d="M573.69,-256.18C743.99,-244.68 1208.59,-213.29 1393.95,-200.76"/>
<polygon fill="midnightblue" stroke="midnightblue" points="1394.42,-204.24 1404.16,-200.07 1393.94,-197.25 1394.42,-204.24"/>
</g>
<!-- Node23 -->
<g id="node23" class="node">
<title>Node23</title>
<g id="a_node23"><a xlink:href="common_8hpp.html" target="_top" xlink:title="Defines common constants, string views, and utility structures for the application.">
<polygon fill="white" stroke="black" points="2468.82,-185 2468.82,-204 2566.82,-204 2566.82,-185 2468.82,-185"/>
<text text-anchor="middle" x="2517.82" y="-192" font-family="Helvetica,sans-Serif" font-size="10.00">inc/common.hpp</text>
</a>
</g>
</g>
<!-- Node1&#45;&gt;Node23 -->
<g id="edge34" class="edge">
<title>Node1&#45;&gt;Node23</title>
<path fill="none" stroke="midnightblue" d="M573.51,-258.44C875.97,-248.65 2164.71,-206.93 2458.18,-197.43"/>
<polygon fill="midnightblue" stroke="midnightblue" points="2458.72,-200.92 2468.6,-197.09 2458.49,-193.92 2458.72,-200.92"/>
</g>
<!-- Node26 -->
<g id="node26" class="node">
<title>Node26</title>
<g id="a_node26"><a xlink:href="security__provider_8hpp.html" target="_top" xlink:title="Declares the ISecurityProvider abstract interface for encryption/decryption.">
<polygon fill="white" stroke="black" points="603.82,-56.5 603.82,-75.5 743.82,-75.5 743.82,-56.5 603.82,-56.5"/>
<text text-anchor="middle" x="673.82" y="-63.5" font-family="Helvetica,sans-Serif" font-size="10.00">inc/security_provider.hpp</text>
</a>
</g>
</g>
<!-- Node1&#45;&gt;Node26 -->
<g id="edge39" class="edge">
<title>Node1&#45;&gt;Node26</title>
<path fill="none" stroke="midnightblue" d="M517.22,-246.12C522.22,-236.12 528.8,-222.42 533.82,-210 551.05,-167.39 535.54,-145.67 566.82,-112 581.74,-95.95 603.28,-85.42 623.13,-78.61"/>
<polygon fill="midnightblue" stroke="midnightblue" points="624.24,-81.93 632.7,-75.56 622.11,-75.26 624.24,-81.93"/>
</g>
<!-- Node27 -->
<g id="node27" class="node">
<title>Node27</title>
<g id="a_node27"><a xlink:title=" ">
<polygon fill="white" stroke="#bfbfbf" points="2584.82,-185 2584.82,-204 2644.82,-204 2644.82,-185 2584.82,-185"/>
<text text-anchor="middle" x="2614.82" y="-192" font-family="Helvetica,sans-Serif" font-size="10.00">iostream</text>
</a>
</g>
</g>
<!-- Node1&#45;&gt;Node27 -->
<g id="edge42" class="edge">
<title>Node1&#45;&gt;Node27</title>
<path fill="none" stroke="midnightblue" d="M573.49,-260.2C899.61,-258.47 2375.44,-248.58 2575.82,-210 2579.26,-209.34 2582.79,-208.41 2586.27,-207.33"/>
<polygon fill="midnightblue" stroke="midnightblue" points="2587.46,-210.62 2595.75,-204.03 2585.15,-204.01 2587.46,-210.62"/>
</g>
<!-- Node3 -->
<g id="node3" class="node">
<title>Node3</title>
<g id="a_node3"><a xlink:title=" ">
<polygon fill="white" stroke="#bfbfbf" points="484.82,-0.5 484.82,-19.5 528.82,-19.5 528.82,-0.5 484.82,-0.5"/>
<text text-anchor="middle" x="506.82" y="-7.5" font-family="Helvetica,sans-Serif" font-size="10.00">string</text>
</a>
</g>
</g>
<!-- Node2&#45;&gt;Node3 -->
<g id="edge2" class="edge">
<title>Node2&#45;&gt;Node3</title>
<path fill="none" stroke="midnightblue" d="M308.41,-192.53C352.56,-188.85 412.09,-177.19 451.82,-143 460.91,-135.18 487.58,-64.05 500.14,-29.57"/>
<polygon fill="midnightblue" stroke="midnightblue" points="503.57,-30.39 503.68,-19.79 496.98,-28 503.57,-30.39"/>
</g>
<!-- Node2&#45;&gt;Node4 -->
<g id="edge3" class="edge">
<title>Node2&#45;&gt;Node4</title>
<path fill="none" stroke="midnightblue" d="M191.31,-184.58C132.34,-171.99 45.16,-142.59 9.82,-76 -2.97,-51.89 27.12,-33.92 54.78,-23.06"/>
<polygon fill="midnightblue" stroke="midnightblue" points="56.22,-26.26 64.39,-19.52 53.79,-19.7 56.22,-26.26"/>
</g>
<!-- Node5 -->
<g id="node5" class="node">
<title>Node5</title>
<g id="a_node5"><a xlink:href="request__executor_8hpp.html" target="_top" xlink:title="Declares the abstract RequestExecutor interface for executing requests.">
<polygon fill="white" stroke="black" points="143.82,-118 143.82,-137 283.82,-137 283.82,-118 143.82,-118"/>
<text text-anchor="middle" x="213.82" y="-125" font-family="Helvetica,sans-Serif" font-size="10.00">inc/request_executor.hpp</text>
</a>
</g>
</g>
<!-- Node2&#45;&gt;Node5 -->
<g id="edge4" class="edge">
<title>Node2&#45;&gt;Node5</title>
<path fill="none" stroke="midnightblue" d="M242.01,-179.4C236.62,-169.66 229.41,-156.65 223.63,-146.21"/>
<polygon fill="midnightblue" stroke="midnightblue" points="226.54,-144.25 218.64,-137.19 220.42,-147.64 226.54,-144.25"/>
</g>
<!-- Node2&#45;&gt;Node7 -->
<g id="edge9" class="edge">
<title>Node2&#45;&gt;Node7</title>
<path fill="none" stroke="midnightblue" d="M199.22,-179.47C177.47,-171.5 152.94,-159.7 134.82,-143 117.65,-127.16 106.19,-102.44 99.85,-85.52"/>
<polygon fill="midnightblue" stroke="midnightblue" points="103.02,-83.98 96.42,-75.7 96.41,-86.29 103.02,-83.98"/>
</g>
<!-- Node2&#45;&gt;Node8 -->
<g id="edge12" class="edge">
<title>Node2&#45;&gt;Node8</title>
<path fill="none" stroke="midnightblue" d="M276.51,-179.4C297.71,-168.19 327.14,-152.64 347.87,-141.69"/>
<polygon fill="midnightblue" stroke="midnightblue" points="349.52,-144.77 356.72,-137.01 346.25,-138.58 349.52,-144.77"/>
</g>
<!-- Node5&#45;&gt;Node3 -->
<g id="edge5" class="edge">
<title>Node5&#45;&gt;Node3</title>
<path fill="none" stroke="midnightblue" d="M215.95,-117.94C220.19,-102.8 231.2,-71.45 252.82,-56 287.97,-30.89 414.39,-18.07 474.56,-13.28"/>
<polygon fill="midnightblue" stroke="midnightblue" points="474.94,-16.76 484.64,-12.5 474.4,-9.78 474.94,-16.76"/>
</g>
<!-- Node5&#45;&gt;Node4 -->
<g id="edge6" class="edge">
<title>Node5&#45;&gt;Node4</title>
<path fill="none" stroke="midnightblue" d="M211.09,-117.67C206.23,-103.23 194.88,-74.3 176.82,-56 162.87,-41.86 143.52,-31.02 127.02,-23.53"/>
<polygon fill="midnightblue" stroke="midnightblue" points="128.26,-20.25 117.69,-19.5 125.48,-26.68 128.26,-20.25"/>
</g>
<!-- Node6 -->
<g id="node6" class="node">
<title>Node6</title>
<g id="a_node6"><a xlink:href="container__request_8hpp.html" target="_top" xlink:title="Data structure for representing a container operation request.">
<polygon fill="white" stroke="black" points="262.32,-56.5 262.32,-75.5 405.32,-75.5 405.32,-56.5 262.32,-56.5"/>
<text text-anchor="middle" x="333.82" y="-63.5" font-family="Helvetica,sans-Serif" font-size="10.00">inc/container_request.hpp</text>
</a>
</g>
</g>
<!-- Node5&#45;&gt;Node6 -->
<g id="edge7" class="edge">
<title>Node5&#45;&gt;Node6</title>
<path fill="none" stroke="midnightblue" d="M231.02,-117.98C251.07,-108.03 284.42,-91.49 307.68,-79.96"/>
<polygon fill="midnightblue" stroke="midnightblue" points="309.26,-83.09 316.66,-75.51 306.15,-76.82 309.26,-83.09"/>
</g>
<!-- Node6&#45;&gt;Node3 -->
<g id="edge8" class="edge">
<title>Node6&#45;&gt;Node3</title>
<path fill="none" stroke="midnightblue" d="M361.24,-56.44C392.1,-46.81 442.19,-31.18 474.82,-20.99"/>
<polygon fill="midnightblue" stroke="midnightblue" points="476.25,-24.21 484.75,-17.89 474.16,-17.53 476.25,-24.21"/>
</g>
<!-- Node7&#45;&gt;Node3 -->
<g id="edge10" class="edge">
<title>Node7&#45;&gt;Node3</title>
<path fill="none" stroke="midnightblue" d="M159.26,-56.44C249.08,-44.7 407.09,-24.04 474.68,-15.2"/>
<polygon fill="midnightblue" stroke="midnightblue" points="475.27,-18.66 484.73,-13.89 474.36,-11.72 475.27,-18.66"/>
</g>
<!-- Node7&#45;&gt;Node4 -->
<g id="edge11" class="edge">
<title>Node7&#45;&gt;Node4</title>
<path fill="none" stroke="midnightblue" d="M93.82,-56.08C93.82,-49.01 93.82,-38.86 93.82,-29.99"/>
<polygon fill="midnightblue" stroke="midnightblue" points="97.32,-29.75 93.82,-19.75 90.32,-29.75 97.32,-29.75"/>
</g>
<!-- Node8&#45;&gt;Node4 -->
<g id="edge13" class="edge">
<title>Node8&#45;&gt;Node4</title>
<path fill="none" stroke="midnightblue" d="M384.5,-117.8C401.94,-103.78 431.01,-75.77 413.82,-56 381.49,-18.81 242.85,-11.47 159.02,-10.53"/>
<polygon fill="midnightblue" stroke="midnightblue" points="158.86,-7.02 148.83,-10.44 158.8,-14.02 158.86,-7.02"/>
</g>
<!-- Node8&#45;&gt;Node6 -->
<g id="edge17" class="edge">
<title>Node8&#45;&gt;Node6</title>
<path fill="none" stroke="midnightblue" d="M367.23,-117.98C361.44,-109.14 352.23,-95.09 344.95,-83.98"/>
<polygon fill="midnightblue" stroke="midnightblue" points="347.81,-81.95 339.4,-75.51 341.95,-85.79 347.81,-81.95"/>
</g>
<!-- Node8&#45;&gt;Node7 -->
<g id="edge16" class="edge">
<title>Node8&#45;&gt;Node7</title>
<path fill="none" stroke="midnightblue" d="M332.85,-117.98C283.02,-107.35 197.85,-89.18 143.77,-77.65"/>
<polygon fill="midnightblue" stroke="midnightblue" points="144.23,-74.17 133.72,-75.51 142.77,-81.02 144.23,-74.17"/>
</g>
<!-- Node8&#45;&gt;Node9 -->
<g id="edge14" class="edge">
<title>Node8&#45;&gt;Node9</title>
<path fill="none" stroke="midnightblue" d="M397.18,-117.98C426.47,-107.72 475.8,-90.46 508.82,-78.9"/>
<polygon fill="midnightblue" stroke="midnightblue" points="510.23,-82.12 518.51,-75.51 507.92,-75.51 510.23,-82.12"/>
</g>
<!-- Node9&#45;&gt;Node3 -->
<g id="edge15" class="edge">
<title>Node9&#45;&gt;Node3</title>
<path fill="none" stroke="midnightblue" d="M536.88,-56.08C531.85,-48.53 524.49,-37.49 518.31,-28.23"/>
<polygon fill="midnightblue" stroke="midnightblue" points="521.12,-26.13 512.66,-19.75 515.29,-30.01 521.12,-26.13"/>
</g>
<!-- Node10&#45;&gt;Node3 -->
<g id="edge19" class="edge">
<title>Node10&#45;&gt;Node3</title>
<path fill="none" stroke="midnightblue" d="M1539.63,-192.57C1757.76,-189.26 2429.11,-176.38 2460.82,-143 2470.31,-133.01 2470.31,-121.99 2460.82,-112 2391.78,-39.3 787.87,-14.79 539.11,-11.42"/>
<polygon fill="midnightblue" stroke="midnightblue" points="538.97,-7.92 528.92,-11.28 538.88,-14.91 538.97,-7.92"/>
</g>
<!-- Node11 -->
<g id="node11" class="node">
<title>Node11</title>
<g id="a_node11"><a xlink:title=" ">
<polygon fill="white" stroke="#bfbfbf" points="1056.32,-112.5 1056.32,-142.5 1179.32,-142.5 1179.32,-112.5 1056.32,-112.5"/>
<text text-anchor="start" x="1064.32" y="-130.5" font-family="Helvetica,sans-Serif" font-size="10.00">google/protobuf/stubs</text>
<text text-anchor="middle" x="1117.82" y="-119.5" font-family="Helvetica,sans-Serif" font-size="10.00">/common.h</text>
</a>
</g>
</g>
<!-- Node10&#45;&gt;Node11 -->
<g id="edge20" class="edge">
<title>Node10&#45;&gt;Node11</title>
<path fill="none" stroke="midnightblue" d="M1421.91,-184.98C1367.36,-175.58 1277.13,-159.78 1189.25,-143.05"/>
<polygon fill="midnightblue" stroke="midnightblue" points="1189.86,-139.61 1179.38,-141.17 1188.54,-146.48 1189.86,-139.61"/>
</g>
<!-- Node12 -->
<g id="node12" class="node">
<title>Node12</title>
<g id="a_node12"><a xlink:title=" ">
<polygon fill="white" stroke="#bfbfbf" points="1197.82,-112.5 1197.82,-142.5 1303.82,-142.5 1303.82,-112.5 1197.82,-112.5"/>
<text text-anchor="start" x="1205.82" y="-130.5" font-family="Helvetica,sans-Serif" font-size="10.00">google/protobuf/io</text>
<text text-anchor="middle" x="1250.82" y="-119.5" font-family="Helvetica,sans-Serif" font-size="10.00">/coded_stream.h</text>
</a>
</g>
</g>
<!-- Node10&#45;&gt;Node12 -->
<g id="edge21" class="edge">
<title>Node10&#45;&gt;Node12</title>
<path fill="none" stroke="midnightblue" d="M1442.48,-184.87C1408.38,-174.84 1351.31,-158.06 1308.3,-145.4"/>
<polygon fill="midnightblue" stroke="midnightblue" points="1309.1,-141.99 1298.52,-142.53 1307.12,-148.71 1309.1,-141.99"/>
</g>
<!-- Node13 -->
<g id="node13" class="node">
<title>Node13</title>
<g id="a_node13"><a xlink:title=" ">
<polygon fill="white" stroke="#bfbfbf" points="1321.82,-118 1321.82,-137 1455.82,-137 1455.82,-118 1321.82,-118"/>
<text text-anchor="middle" x="1388.82" y="-125" font-family="Helvetica,sans-Serif" font-size="10.00">google/protobuf/arena.h</text>
</a>
</g>
</g>
<!-- Node10&#45;&gt;Node13 -->
<g id="edge22" class="edge">
<title>Node10&#45;&gt;Node13</title>
<path fill="none" stroke="midnightblue" d="M1460.63,-184.73C1447.19,-174.21 1424.42,-156.38 1408.13,-143.62"/>
<polygon fill="midnightblue" stroke="midnightblue" points="1409.87,-140.54 1399.84,-137.13 1405.55,-146.05 1409.87,-140.54"/>
</g>
<!-- Node14 -->
<g id="node14" class="node">
<title>Node14</title>
<g id="a_node14"><a xlink:title=" ">
<polygon fill="white" stroke="#bfbfbf" points="1474.32,-118 1474.32,-137 1635.32,-137 1635.32,-118 1474.32,-118"/>
<text text-anchor="middle" x="1554.82" y="-125" font-family="Helvetica,sans-Serif" font-size="10.00">google/protobuf/arenastring.h</text>
</a>
</g>
</g>
<!-- Node10&#45;&gt;Node14 -->
<g id="edge23" class="edge">
<title>Node10&#45;&gt;Node14</title>
<path fill="none" stroke="midnightblue" d="M1483.02,-184.73C1496.46,-174.21 1519.22,-156.38 1535.52,-143.62"/>
<polygon fill="midnightblue" stroke="midnightblue" points="1538.09,-146.05 1543.81,-137.13 1533.78,-140.54 1538.09,-146.05"/>
</g>
<!-- Node15 -->
<g id="node15" class="node">
<title>Node15</title>
<g id="a_node15"><a xlink:title=" ">
<polygon fill="white" stroke="#bfbfbf" points="1653.82,-112.5 1653.82,-142.5 1799.82,-142.5 1799.82,-112.5 1653.82,-112.5"/>
<text text-anchor="start" x="1661.82" y="-130.5" font-family="Helvetica,sans-Serif" font-size="10.00">google/protobuf/generated</text>
<text text-anchor="middle" x="1726.82" y="-119.5" font-family="Helvetica,sans-Serif" font-size="10.00">_message_table_driven.h</text>
</a>
</g>
</g>
<!-- Node10&#45;&gt;Node15 -->
<g id="edge24" class="edge">
<title>Node10&#45;&gt;Node15</title>
<path fill="none" stroke="midnightblue" d="M1505.42,-184.94C1545.11,-174.82 1612.03,-157.76 1661.93,-145.04"/>
<polygon fill="midnightblue" stroke="midnightblue" points="1662.84,-148.42 1671.67,-142.56 1661.11,-141.64 1662.84,-148.42"/>
</g>
<!-- Node16 -->
<g id="node16" class="node">
<title>Node16</title>
<g id="a_node16"><a xlink:title=" ">
<polygon fill="white" stroke="#bfbfbf" points="1817.82,-112.5 1817.82,-142.5 1963.82,-142.5 1963.82,-112.5 1817.82,-112.5"/>
<text text-anchor="start" x="1825.82" y="-130.5" font-family="Helvetica,sans-Serif" font-size="10.00">google/protobuf/generated</text>
<text text-anchor="middle" x="1890.82" y="-119.5" font-family="Helvetica,sans-Serif" font-size="10.00">_message_util.h</text>
</a>
</g>
</g>
<!-- Node10&#45;&gt;Node16 -->
<g id="edge25" class="edge">
<title>Node10&#45;&gt;Node16</title>
<path fill="none" stroke="midnightblue" d="M1531.86,-184.99C1597.21,-175.62 1705.05,-159.83 1807.61,-143.17"/>
<polygon fill="midnightblue" stroke="midnightblue" points="1808.21,-146.62 1817.52,-141.56 1807.09,-139.71 1808.21,-146.62"/>
</g>
<!-- Node17 -->
<g id="node17" class="node">
<title>Node17</title>
<g id="a_node17"><a xlink:title=" ">
<polygon fill="white" stroke="#bfbfbf" points="1981.82,-112.5 1981.82,-142.5 2111.82,-142.5 2111.82,-112.5 1981.82,-112.5"/>
<text text-anchor="start" x="1989.82" y="-130.5" font-family="Helvetica,sans-Serif" font-size="10.00">google/protobuf/inlined</text>
<text text-anchor="middle" x="2046.82" y="-119.5" font-family="Helvetica,sans-Serif" font-size="10.00">_string_field.h</text>
</a>
</g>
</g>
<!-- Node10&#45;&gt;Node17 -->
<g id="edge26" class="edge">
<title>Node10&#45;&gt;Node17</title>
<path fill="none" stroke="midnightblue" d="M1539.33,-188.7C1633.81,-181.54 1811,-166.49 1971.45,-143.12"/>
<polygon fill="midnightblue" stroke="midnightblue" points="1972.13,-146.56 1981.51,-141.64 1971.11,-139.63 1972.13,-146.56"/>
</g>
<!-- Node18 -->
<g id="node18" class="node">
<title>Node18</title>
<g id="a_node18"><a xlink:title=" ">
<polygon fill="white" stroke="#bfbfbf" points="2130.32,-118 2130.32,-137 2283.32,-137 2283.32,-118 2130.32,-118"/>
<text text-anchor="middle" x="2206.82" y="-125" font-family="Helvetica,sans-Serif" font-size="10.00">google/protobuf/metadata.h</text>
</a>
</g>
</g>
<!-- Node10&#45;&gt;Node18 -->
<g id="edge27" class="edge">
<title>Node10&#45;&gt;Node18</title>
<path fill="none" stroke="midnightblue" d="M1539.76,-190.22C1658.12,-184.05 1909.66,-168.96 2120.82,-143 2130.63,-141.79 2141.02,-140.26 2151.07,-138.65"/>
<polygon fill="midnightblue" stroke="midnightblue" points="2151.67,-142.09 2160.96,-137.01 2150.53,-135.19 2151.67,-142.09"/>
</g>
<!-- Node19 -->
<g id="node19" class="node">
<title>Node19</title>
<g id="a_node19"><a xlink:title=" ">
<polygon fill="white" stroke="#bfbfbf" points="2301.82,-118 2301.82,-137 2451.82,-137 2451.82,-118 2301.82,-118"/>
<text text-anchor="middle" x="2376.82" y="-125" font-family="Helvetica,sans-Serif" font-size="10.00">google/protobuf/message.h</text>
</a>
</g>
</g>
<!-- Node10&#45;&gt;Node19 -->
<g id="edge28" class="edge">
<title>Node10&#45;&gt;Node19</title>
<path fill="none" stroke="midnightblue" d="M1539.36,-191.85C1679.97,-187.86 2014.28,-175.51 2292.82,-143 2302.53,-141.87 2312.82,-140.35 2322.75,-138.73"/>
<polygon fill="midnightblue" stroke="midnightblue" points="2323.65,-142.13 2332.92,-137.01 2322.48,-135.23 2323.65,-142.13"/>
</g>
<!-- Node20 -->
<g id="node20" class="node">
<title>Node20</title>
<g id="a_node20"><a xlink:title=" ">
<polygon fill="white" stroke="#bfbfbf" points="575.82,-112.5 575.82,-142.5 715.82,-142.5 715.82,-112.5 575.82,-112.5"/>
<text text-anchor="start" x="583.82" y="-130.5" font-family="Helvetica,sans-Serif" font-size="10.00">google/protobuf/repeated</text>
<text text-anchor="middle" x="645.82" y="-119.5" font-family="Helvetica,sans-Serif" font-size="10.00">_field.h</text>
</a>
</g>
</g>
<!-- Node10&#45;&gt;Node20 -->
<g id="edge29" class="edge">
<title>Node10&#45;&gt;Node20</title>
<path fill="none" stroke="midnightblue" d="M1404.11,-191.51C1274.42,-187.13 981.92,-174.53 726.2,-143.07"/>
<polygon fill="midnightblue" stroke="midnightblue" points="726.32,-139.56 715.97,-141.8 725.46,-146.51 726.32,-139.56"/>
</g>
<!-- Node21 -->
<g id="node21" class="node">
<title>Node21</title>
<g id="a_node21"><a xlink:title=" ">
<polygon fill="white" stroke="#bfbfbf" points="734.32,-112.5 734.32,-142.5 879.32,-142.5 879.32,-112.5 734.32,-112.5"/>
<text text-anchor="start" x="742.32" y="-130.5" font-family="Helvetica,sans-Serif" font-size="10.00">google/protobuf/extension</text>
<text text-anchor="middle" x="806.82" y="-119.5" font-family="Helvetica,sans-Serif" font-size="10.00">_set.h</text>
</a>
</g>
</g>
<!-- Node10&#45;&gt;Node21 -->
<g id="edge30" class="edge">
<title>Node10&#45;&gt;Node21</title>
<path fill="none" stroke="midnightblue" d="M1404.28,-189.6C1297.31,-182.99 1082.18,-167.96 889.67,-143.03"/>
<polygon fill="midnightblue" stroke="midnightblue" points="890.02,-139.55 879.65,-141.72 889.11,-146.49 890.02,-139.55"/>
</g>
<!-- Node22 -->
<g id="node22" class="node">
<title>Node22</title>
<g id="a_node22"><a xlink:title=" ">
<polygon fill="white" stroke="#bfbfbf" points="897.32,-112.5 897.32,-142.5 1038.32,-142.5 1038.32,-112.5 897.32,-112.5"/>
<text text-anchor="start" x="905.32" y="-130.5" font-family="Helvetica,sans-Serif" font-size="10.00">google/protobuf/unknown</text>
<text text-anchor="middle" x="967.82" y="-119.5" font-family="Helvetica,sans-Serif" font-size="10.00">_field_set.h</text>
</a>
</g>
</g>
<!-- Node10&#45;&gt;Node22 -->
<g id="edge31" class="edge">
<title>Node10&#45;&gt;Node22</title>
<path fill="none" stroke="midnightblue" d="M1404.09,-186.72C1322.38,-178.24 1180.61,-162.63 1048.74,-143.08"/>
<polygon fill="midnightblue" stroke="midnightblue" points="1048.86,-139.56 1038.45,-141.54 1047.83,-146.48 1048.86,-139.56"/>
</g>
<!-- Node23&#45;&gt;Node3 -->
<g id="edge35" class="edge">
<title>Node23&#45;&gt;Node3</title>
<path fill="none" stroke="midnightblue" d="M2516.28,-184.97C2512.74,-168.09 2502.38,-130.48 2477.82,-112 2363.84,-26.25 2303.72,-70.42 2161.82,-56 1830.31,-22.31 741.72,-12.73 539.35,-11.23"/>
<polygon fill="midnightblue" stroke="midnightblue" points="539.12,-7.72 529.1,-11.15 539.07,-14.72 539.12,-7.72"/>
</g>
<!-- Node24 -->
<g id="node24" class="node">
<title>Node24</title>
<g id="a_node24"><a xlink:title=" ">
<polygon fill="white" stroke="#bfbfbf" points="2657.32,-118 2657.32,-137 2730.32,-137 2730.32,-118 2657.32,-118"/>
<text text-anchor="middle" x="2693.82" y="-125" font-family="Helvetica,sans-Serif" font-size="10.00">string_view</text>
</a>
</g>
</g>
<!-- Node23&#45;&gt;Node24 -->
<g id="edge36" class="edge">
<title>Node23&#45;&gt;Node24</title>
<path fill="none" stroke="midnightblue" d="M2541.19,-184.87C2571.92,-173.52 2626.06,-153.52 2660.92,-140.65"/>
<polygon fill="midnightblue" stroke="midnightblue" points="2662.47,-143.81 2670.63,-137.06 2660.04,-137.24 2662.47,-143.81"/>
</g>
<!-- Node25 -->
<g id="node25" class="node">
<title>Node25</title>
<g id="a_node25"><a xlink:title=" ">
<polygon fill="white" stroke="#bfbfbf" points="2546.32,-118 2546.32,-137 2639.32,-137 2639.32,-118 2546.32,-118"/>
<text text-anchor="middle" x="2592.82" y="-125" font-family="Helvetica,sans-Serif" font-size="10.00">unordered_map</text>
</a>
</g>
</g>
<!-- Node23&#45;&gt;Node25 -->
<g id="edge37" class="edge">
<title>Node23&#45;&gt;Node25</title>
<path fill="none" stroke="midnightblue" d="M2527.94,-184.73C2539.97,-174.31 2560.27,-156.71 2574.97,-143.97"/>
<polygon fill="midnightblue" stroke="midnightblue" points="2577.6,-146.32 2582.87,-137.13 2573.02,-141.03 2577.6,-146.32"/>
</g>
<!-- Node26&#45;&gt;Node3 -->
<g id="edge40" class="edge">
<title>Node26&#45;&gt;Node3</title>
<path fill="none" stroke="midnightblue" d="M647.36,-56.44C617.82,-46.89 570.02,-31.44 538.51,-21.25"/>
<polygon fill="midnightblue" stroke="midnightblue" points="539.49,-17.88 528.89,-18.14 537.33,-24.54 539.49,-17.88"/>
</g>
</g>
</svg>
        <g id="navigator" transform="translate(0 0)" fill="#404254">
                <rect fill="#f2f5e9" fill-opacity="0.5" stroke="#606060" stroke-width=".5" x="0" y="0" width="60" height="60"/>
                <use id="zoomplus" xlink:href="#zoomPlus" x="17" y="9" onmousedown="handleZoom(evt,'in')"/>
                <use id="zoomminus" xlink:href="#zoomMin" x="42" y="9" onmousedown="handleZoom(evt,'out')"/>
                <use id="reset" xlink:href="#resetDef" x="30" y="36" onmousedown="handleReset()"/>
                <g id="arrowUp" xlink:href="#dirArrow" transform="translate(30 24)" onmousedown="handlePan(0,-1)">
                  <use xlink:href="#rim" fill="#404040">
                        <set attributeName="fill" to="#808080" begin="arrowUp.mouseover" end="arrowUp.mouseout"/>
                  </use>
                  <path fill="none" stroke="white" stroke-width="1.5" d="M0,-3.0v7 M-2.5,-0.5L0,-3.0L2.5,-0.5"/>
                </g>
                <g id="arrowRight" xlink:href="#dirArrow" transform="rotate(90) translate(36 -43)" onmousedown="handlePan(1,0)">
                  <use xlink:href="#rim" fill="#404040">
                        <set attributeName="fill" to="#808080" begin="arrowRight.mouseover" end="arrowRight.mouseout"/>
                  </use>
                  <path fill="none" stroke="white" stroke-width="1.5" d="M0,-3.0v7 M-2.5,-0.5L0,-3.0L2.5,-0.5"/>
                </g>
                <g id="arrowDown" xlink:href="#dirArrow" transform="rotate(180) translate(-30 -48)" onmousedown="handlePan(0,1)">
                  <use xlink:href="#rim" fill="#404040">
                        <set attributeName="fill" to="#808080" begin="arrowDown.mouseover" end="arrowDown.mouseout"/>
                  </use>
                  <path fill="none" stroke="white" stroke-width="1.5" d="M0,-3.0v7 M-2.5,-0.5L0,-3.0L2.5,-0.5"/>
                </g>
                <g id="arrowLeft" xlink:href="#dirArrow" transform="rotate(270) translate(-36 17)" onmousedown="handlePan(-1,0)">
                  <use xlink:href="#rim" fill="#404040">
                        <set attributeName="fill" to="#808080" begin="arrowLeft.mouseover" end="arrowLeft.mouseout"/>
                  </use>
                  <path fill="none" stroke="white" stroke-width="1.5" d="M0,-3.0v7 M-2.5,-0.5L0,-3.0L2.5,-0.5"/>
                </g>
        </g>
        <svg viewBox="0 0 15 15" width="100%" height="30px" preserveAspectRatio="xMaxYMin meet">
         <g id="arrow_out" transform="scale(0.3 0.3)">
          <a xlink:href="protobuf__request__executor_8cpp__incl_org.svg" target="_base">
           <rect id="button" ry="5" rx="5" y="6" x="6" height="38" width="38"
                fill="#f2f5e9" fill-opacity="0.5" stroke="#606060" stroke-width="1.0"/>
           <path id="arrow"
             d="M 11.500037,31.436501 C 11.940474,20.09759 22.043105,11.32322 32.158766,21.979434 L 37.068811,17.246167 C 37.068811,17.246167 37.088388,32 37.088388,32 L 22.160133,31.978069 C 22.160133,31.978069 26.997745,27.140456 26.997745,27.140456 C 18.528582,18.264221 13.291696,25.230495 11.500037,31.436501 z"
             style="fill:#404040;"/>
          </a>
         </g>
        </svg>
</svg>
