<?xml version="1.0" encoding="UTF-8" standalone="no"?>
<!DOCTYPE svg PUBLIC "-//W3C//DTD SVG 1.1//EN"
 "http://www.w3.org/Graphics/SVG/1.1/DTD/svg11.dtd">
<!-- Generated by graphviz version 2.43.0 (0)
 -->
<!-- Title: database/inc/redis_database.hpp Pages: 1 -->
<svg width="339pt" height="151pt"
 viewBox="0.00 0.00 338.51 151.00" xmlns="http://www.w3.org/2000/svg" xmlns:xlink="http://www.w3.org/1999/xlink">
<g id="graph0" class="graph" transform="scale(1 1) rotate(0) translate(4 147)">
<title>database/inc/redis_database.hpp</title>
<polygon fill="white" stroke="transparent" points="-4,4 -4,-147 334.51,-147 334.51,4 -4,4"/>
<!-- Node1 -->
<g id="node1" class="node">
<title>Node1</title>
<g id="a_node1"><a xlink:title="Implements RedisDatabaseHandler for Redis&#45;based database operations.">
<polygon fill="#bfbfbf" stroke="black" points="85.01,-112.5 85.01,-142.5 191.01,-142.5 191.01,-112.5 85.01,-112.5"/>
<text text-anchor="start" x="93.01" y="-130.5" font-family="Helvetica,sans-Serif" font-size="10.00">database/inc/redis</text>
<text text-anchor="middle" x="138.01" y="-119.5" font-family="Helvetica,sans-Serif" font-size="10.00">_database.hpp</text>
</a>
</g>
</g>
<!-- Node2 -->
<g id="node2" class="node">
<title>Node2</title>
<g id="a_node2"><a xlink:href="database__interface_8hpp.html" target="_top" xlink:title="Abstract interface for database operations.">
<polygon fill="white" stroke="black" points="12.51,-56.5 12.51,-75.5 161.51,-75.5 161.51,-56.5 12.51,-56.5"/>
<text text-anchor="middle" x="87.01" y="-63.5" font-family="Helvetica,sans-Serif" font-size="10.00">inc/database_interface.hpp</text>
</a>
</g>
</g>
<!-- Node1&#45;&gt;Node2 -->
<g id="edge1" class="edge">
<title>Node1&#45;&gt;Node2</title>
<path fill="none" stroke="midnightblue" d="M125.92,-112.4C118.44,-103.66 108.79,-92.41 100.98,-83.3"/>
<polygon fill="midnightblue" stroke="midnightblue" points="103.6,-80.97 94.43,-75.66 98.28,-85.53 103.6,-80.97"/>
</g>
<!-- Node3 -->
<g id="node3" class="node">
<title>Node3</title>
<g id="a_node3"><a xlink:title=" ">
<polygon fill="white" stroke="#bfbfbf" points="16.01,-0.5 16.01,-19.5 60.01,-19.5 60.01,-0.5 16.01,-0.5"/>
<text text-anchor="middle" x="38.01" y="-7.5" font-family="Helvetica,sans-Serif" font-size="10.00">string</text>
</a>
</g>
</g>
<!-- Node1&#45;&gt;Node3 -->
<g id="edge5" class="edge">
<title>Node1&#45;&gt;Node3</title>
<path fill="none" stroke="midnightblue" d="M84.93,-120.95C55.88,-114.89 22.19,-102.27 4.01,-76 -6.89,-60.24 6.77,-40.55 19.88,-27"/>
<polygon fill="midnightblue" stroke="midnightblue" points="22.58,-29.26 27.35,-19.8 17.72,-24.22 22.58,-29.26"/>
</g>
<!-- Node4 -->
<g id="node4" class="node">
<title>Node4</title>
<g id="a_node4"><a xlink:title=" ">
<polygon fill="white" stroke="#bfbfbf" points="81.01,-0.5 81.01,-19.5 191.01,-19.5 191.01,-0.5 81.01,-0.5"/>
<text text-anchor="middle" x="136.01" y="-7.5" font-family="Helvetica,sans-Serif" font-size="10.00">nlohmann/json.hpp</text>
</a>
</g>
</g>
<!-- Node1&#45;&gt;Node4 -->
<g id="edge6" class="edge">
<title>Node1&#45;&gt;Node4</title>
<path fill="none" stroke="midnightblue" d="M151.86,-112.29C163.75,-98.32 177.94,-76.2 171.01,-56 167.29,-45.16 159.78,-34.92 152.66,-26.96"/>
<polygon fill="midnightblue" stroke="midnightblue" points="155.01,-24.35 145.57,-19.55 149.96,-29.19 155.01,-24.35"/>
</g>
<!-- Node5 -->
<g id="node5" class="node">
<title>Node5</title>
<g id="a_node5"><a xlink:title=" ">
<polygon fill="white" stroke="#bfbfbf" points="217.51,-56.5 217.51,-75.5 330.51,-75.5 330.51,-56.5 217.51,-56.5"/>
<text text-anchor="middle" x="274.01" y="-63.5" font-family="Helvetica,sans-Serif" font-size="10.00">cpp_redis/cpp_redis</text>
</a>
</g>
</g>
<!-- Node1&#45;&gt;Node5 -->
<g id="edge4" class="edge">
<title>Node1&#45;&gt;Node5</title>
<path fill="none" stroke="midnightblue" d="M170.24,-112.4C192.86,-102.51 222.85,-89.38 244.77,-79.79"/>
<polygon fill="midnightblue" stroke="midnightblue" points="246.46,-82.87 254.22,-75.66 243.66,-76.46 246.46,-82.87"/>
</g>
<!-- Node2&#45;&gt;Node3 -->
<g id="edge2" class="edge">
<title>Node2&#45;&gt;Node3</title>
<path fill="none" stroke="midnightblue" d="M78.92,-56.08C71.86,-48.3 61.42,-36.8 52.86,-27.37"/>
<polygon fill="midnightblue" stroke="midnightblue" points="55.26,-24.8 45.95,-19.75 50.08,-29.51 55.26,-24.8"/>
</g>
<!-- Node2&#45;&gt;Node4 -->
<g id="edge3" class="edge">
<title>Node2&#45;&gt;Node4</title>
<path fill="none" stroke="midnightblue" d="M95.1,-56.08C102.17,-48.3 112.6,-36.8 121.16,-27.37"/>
<polygon fill="midnightblue" stroke="midnightblue" points="123.94,-29.51 128.07,-19.75 118.76,-24.8 123.94,-29.51"/>
</g>
</g>
</svg>
