<?xml version="1.0" encoding="UTF-8" standalone="no"?>
<!DOCTYPE svg PUBLIC "-//W3C//DTD SVG 1.1//EN"
 "http://www.w3.org/Graphics/SVG/1.1/DTD/svg11.dtd">
<!-- Generated by graphviz version 2.43.0 (0)
 -->
<!-- Title: database/inc/redis_database.hpp Pages: 1 -->
<svg width="696pt" height="106pt"
 viewBox="0.00 0.00 696.00 106.00" xmlns="http://www.w3.org/2000/svg" xmlns:xlink="http://www.w3.org/1999/xlink">
<g id="graph0" class="graph" transform="scale(1 1) rotate(0) translate(4 102)">
<title>database/inc/redis_database.hpp</title>
<polygon fill="white" stroke="transparent" points="-4,4 -4,-102 692,-102 692,4 -4,4"/>
<!-- Node1 -->
<g id="node1" class="node">
<title>Node1</title>
<g id="a_node1"><a xlink:title="Declares the RedisDatabaseHandler class for Redis&#45;based database operations.">
<polygon fill="#bfbfbf" stroke="black" points="264,-67.5 264,-97.5 370,-97.5 370,-67.5 264,-67.5"/>
<text text-anchor="start" x="272" y="-85.5" font-family="Helvetica,sans-Serif" font-size="10.00">database/inc/redis</text>
<text text-anchor="middle" x="317" y="-74.5" font-family="Helvetica,sans-Serif" font-size="10.00">_database.hpp</text>
</a>
</g>
</g>
<!-- Node2 -->
<g id="node2" class="node">
<title>Node2</title>
<g id="a_node2"><a xlink:href="container__service_8cpp.html" target="_top" xlink:title="Implements the ContainerServiceHandler class for business logic related to containers.">
<polygon fill="white" stroke="black" points="0,-0.5 0,-30.5 104,-30.5 104,-0.5 0,-0.5"/>
<text text-anchor="start" x="8" y="-18.5" font-family="Helvetica,sans-Serif" font-size="10.00">core/src/container</text>
<text text-anchor="middle" x="52" y="-7.5" font-family="Helvetica,sans-Serif" font-size="10.00">_service.cpp</text>
</a>
</g>
</g>
<!-- Node1&#45;&gt;Node2 -->
<g id="edge1" class="edge">
<title>Node1&#45;&gt;Node2</title>
<path fill="none" stroke="midnightblue" d="M253.9,-66.02C208.25,-54.82 147.27,-39.87 104.32,-29.33"/>
<polygon fill="midnightblue" stroke="midnightblue" points="253.15,-69.44 263.69,-68.42 254.81,-62.64 253.15,-69.44"/>
</g>
<!-- Node3 -->
<g id="node3" class="node">
<title>Node3</title>
<g id="a_node3"><a xlink:href="redis__database_8cpp.html" target="_top" xlink:title="Implements RedisDatabaseHandler for Redis&#45;based database operations.">
<polygon fill="white" stroke="black" points="122,-0.5 122,-30.5 228,-30.5 228,-0.5 122,-0.5"/>
<text text-anchor="start" x="130" y="-18.5" font-family="Helvetica,sans-Serif" font-size="10.00">database/src/redis</text>
<text text-anchor="middle" x="175" y="-7.5" font-family="Helvetica,sans-Serif" font-size="10.00">_database.cpp</text>
</a>
</g>
</g>
<!-- Node1&#45;&gt;Node3 -->
<g id="edge2" class="edge">
<title>Node1&#45;&gt;Node3</title>
<path fill="none" stroke="midnightblue" d="M276.87,-63.13C254.31,-52.8 226.58,-40.11 205.75,-30.58"/>
<polygon fill="midnightblue" stroke="midnightblue" points="275.64,-66.42 286.19,-67.4 278.55,-60.05 275.64,-66.42"/>
</g>
<!-- Node4 -->
<g id="node4" class="node">
<title>Node4</title>
<g id="a_node4"><a xlink:href="json__request__executor_8cpp.html" target="_top" xlink:title="Implements the JsonRequestExecutorHandler class for executing JSON&#45;based requests.">
<polygon fill="white" stroke="black" points="246,-0.5 246,-30.5 388,-30.5 388,-0.5 246,-0.5"/>
<text text-anchor="start" x="254" y="-18.5" font-family="Helvetica,sans-Serif" font-size="10.00">executor/src/json_request</text>
<text text-anchor="middle" x="317" y="-7.5" font-family="Helvetica,sans-Serif" font-size="10.00">_executor.cpp</text>
</a>
</g>
</g>
<!-- Node1&#45;&gt;Node4 -->
<g id="edge3" class="edge">
<title>Node1&#45;&gt;Node4</title>
<path fill="none" stroke="midnightblue" d="M317,-57.11C317,-48.15 317,-38.32 317,-30.58"/>
<polygon fill="midnightblue" stroke="midnightblue" points="313.5,-57.4 317,-67.4 320.5,-57.4 313.5,-57.4"/>
</g>
<!-- Node5 -->
<g id="node5" class="node">
<title>Node5</title>
<g id="a_node5"><a xlink:href="protobuf__request__executor_8cpp.html" target="_top" xlink:title="Implements the ProtoRequestExecutorHandler class for handling Protobuf&#45;based requests.">
<polygon fill="white" stroke="black" points="406.5,-0.5 406.5,-30.5 533.5,-30.5 533.5,-0.5 406.5,-0.5"/>
<text text-anchor="start" x="414.5" y="-18.5" font-family="Helvetica,sans-Serif" font-size="10.00">executor/src/protobuf</text>
<text text-anchor="middle" x="470" y="-7.5" font-family="Helvetica,sans-Serif" font-size="10.00">_request_executor.cpp</text>
</a>
</g>
</g>
<!-- Node1&#45;&gt;Node5 -->
<g id="edge4" class="edge">
<title>Node1&#45;&gt;Node5</title>
<path fill="none" stroke="midnightblue" d="M359.59,-63.41C384.02,-53.03 414.22,-40.2 436.87,-30.58"/>
<polygon fill="midnightblue" stroke="midnightblue" points="358.03,-60.26 350.2,-67.4 360.77,-66.71 358.03,-60.26"/>
</g>
<!-- Node6 -->
<g id="node6" class="node">
<title>Node6</title>
<g id="a_node6"><a xlink:href="init__handler_8cpp.html" target="_top" xlink:title="Implements project&#45;wide initialization functions.">
<polygon fill="white" stroke="black" points="552,-6 552,-25 688,-25 688,-6 552,-6"/>
<text text-anchor="middle" x="620" y="-13" font-family="Helvetica,sans-Serif" font-size="10.00">utils/src/init_handler.cpp</text>
</a>
</g>
</g>
<!-- Node1&#45;&gt;Node6 -->
<g id="edge5" class="edge">
<title>Node1&#45;&gt;Node6</title>
<path fill="none" stroke="midnightblue" d="M380.27,-67.93C440.42,-55.02 529.06,-36.01 580.01,-25.08"/>
<polygon fill="midnightblue" stroke="midnightblue" points="379.17,-64.58 370.13,-70.1 380.64,-71.43 379.17,-64.58"/>
</g>
</g>
</svg>
