<?xml version="1.0" encoding="UTF-8" standalone="no"?>
<!DOCTYPE svg PUBLIC "-//W3C//DTD SVG 1.1//EN"
 "http://www.w3.org/Graphics/SVG/1.1/DTD/svg11.dtd">
<!-- Generated by graphviz version 2.43.0 (0)
 -->
<!-- Title: database/src/redis_database.cpp Pages: 1 -->
<svg width="339pt" height="207pt"
 viewBox="0.00 0.00 338.70 207.00" xmlns="http://www.w3.org/2000/svg" xmlns:xlink="http://www.w3.org/1999/xlink">
<g id="graph0" class="graph" transform="scale(1 1) rotate(0) translate(4 203)">
<title>database/src/redis_database.cpp</title>
<polygon fill="white" stroke="transparent" points="-4,4 -4,-203 334.7,-203 334.7,4 -4,4"/>
<!-- Node1 -->
<g id="node1" class="node">
<title>Node1</title>
<g id="a_node1"><a xlink:title="Implements RedisDatabaseHandler for Redis&#45;based database operations.">
<polygon fill="#bfbfbf" stroke="black" points="141.2,-168.5 141.2,-198.5 247.2,-198.5 247.2,-168.5 141.2,-168.5"/>
<text text-anchor="start" x="149.2" y="-186.5" font-family="Helvetica,sans-Serif" font-size="10.00">database/src/redis</text>
<text text-anchor="middle" x="194.2" y="-175.5" font-family="Helvetica,sans-Serif" font-size="10.00">_database.cpp</text>
</a>
</g>
</g>
<!-- Node2 -->
<g id="node2" class="node">
<title>Node2</title>
<g id="a_node2"><a xlink:href="redis__database_8hpp.html" target="_top" xlink:title="Implements RedisDatabaseHandler for Redis&#45;based database operations.">
<polygon fill="white" stroke="black" points="73.7,-112.5 73.7,-131.5 202.7,-131.5 202.7,-112.5 73.7,-112.5"/>
<text text-anchor="middle" x="138.2" y="-119.5" font-family="Helvetica,sans-Serif" font-size="10.00">inc/redis_database.hpp</text>
</a>
</g>
</g>
<!-- Node1&#45;&gt;Node2 -->
<g id="edge1" class="edge">
<title>Node1&#45;&gt;Node2</title>
<path fill="none" stroke="midnightblue" d="M180.93,-168.4C172.62,-159.58 161.9,-148.18 153.28,-139.02"/>
<polygon fill="midnightblue" stroke="midnightblue" points="155.75,-136.54 146.35,-131.66 150.65,-141.34 155.75,-136.54"/>
</g>
<!-- Node7 -->
<g id="node7" class="node">
<title>Node7</title>
<g id="a_node7"><a xlink:title=" ">
<polygon fill="white" stroke="#bfbfbf" points="221.2,-112.5 221.2,-131.5 281.2,-131.5 281.2,-112.5 221.2,-112.5"/>
<text text-anchor="middle" x="251.2" y="-119.5" font-family="Helvetica,sans-Serif" font-size="10.00">iostream</text>
</a>
</g>
</g>
<!-- Node1&#45;&gt;Node7 -->
<g id="edge8" class="edge">
<title>Node1&#45;&gt;Node7</title>
<path fill="none" stroke="midnightblue" d="M207.71,-168.4C216.16,-159.58 227.08,-148.18 235.86,-139.02"/>
<polygon fill="midnightblue" stroke="midnightblue" points="238.52,-141.3 242.91,-131.66 233.46,-136.46 238.52,-141.3"/>
</g>
<!-- Node3 -->
<g id="node3" class="node">
<title>Node3</title>
<g id="a_node3"><a xlink:href="database__interface_8hpp.html" target="_top" xlink:title="Abstract interface for database operations.">
<polygon fill="white" stroke="black" points="12.7,-56.5 12.7,-75.5 161.7,-75.5 161.7,-56.5 12.7,-56.5"/>
<text text-anchor="middle" x="87.2" y="-63.5" font-family="Helvetica,sans-Serif" font-size="10.00">inc/database_interface.hpp</text>
</a>
</g>
</g>
<!-- Node2&#45;&gt;Node3 -->
<g id="edge2" class="edge">
<title>Node2&#45;&gt;Node3</title>
<path fill="none" stroke="midnightblue" d="M129.78,-112.08C122.35,-104.22 111.35,-92.57 102.39,-83.08"/>
<polygon fill="midnightblue" stroke="midnightblue" points="104.88,-80.62 95.47,-75.75 99.79,-85.42 104.88,-80.62"/>
</g>
<!-- Node4 -->
<g id="node4" class="node">
<title>Node4</title>
<g id="a_node4"><a xlink:title=" ">
<polygon fill="white" stroke="#bfbfbf" points="16.2,-0.5 16.2,-19.5 60.2,-19.5 60.2,-0.5 16.2,-0.5"/>
<text text-anchor="middle" x="38.2" y="-7.5" font-family="Helvetica,sans-Serif" font-size="10.00">string</text>
</a>
</g>
</g>
<!-- Node2&#45;&gt;Node4 -->
<g id="edge6" class="edge">
<title>Node2&#45;&gt;Node4</title>
<path fill="none" stroke="midnightblue" d="M73.59,-115.41C47.65,-109.62 20.18,-98.22 4.2,-76 -6.99,-60.44 6.72,-40.72 19.93,-27.1"/>
<polygon fill="midnightblue" stroke="midnightblue" points="22.67,-29.32 27.45,-19.86 17.82,-24.27 22.67,-29.32"/>
</g>
<!-- Node5 -->
<g id="node5" class="node">
<title>Node5</title>
<g id="a_node5"><a xlink:title=" ">
<polygon fill="white" stroke="#bfbfbf" points="81.2,-0.5 81.2,-19.5 191.2,-19.5 191.2,-0.5 81.2,-0.5"/>
<text text-anchor="middle" x="136.2" y="-7.5" font-family="Helvetica,sans-Serif" font-size="10.00">nlohmann/json.hpp</text>
</a>
</g>
</g>
<!-- Node2&#45;&gt;Node5 -->
<g id="edge7" class="edge">
<title>Node2&#45;&gt;Node5</title>
<path fill="none" stroke="midnightblue" d="M147.97,-112.1C160.12,-99.89 178.43,-77.07 171.2,-56 167.48,-45.16 159.97,-34.92 152.85,-26.96"/>
<polygon fill="midnightblue" stroke="midnightblue" points="155.2,-24.35 145.76,-19.55 150.15,-29.19 155.2,-24.35"/>
</g>
<!-- Node6 -->
<g id="node6" class="node">
<title>Node6</title>
<g id="a_node6"><a xlink:title=" ">
<polygon fill="white" stroke="#bfbfbf" points="217.7,-56.5 217.7,-75.5 330.7,-75.5 330.7,-56.5 217.7,-56.5"/>
<text text-anchor="middle" x="274.2" y="-63.5" font-family="Helvetica,sans-Serif" font-size="10.00">cpp_redis/cpp_redis</text>
</a>
</g>
</g>
<!-- Node2&#45;&gt;Node6 -->
<g id="edge5" class="edge">
<title>Node2&#45;&gt;Node6</title>
<path fill="none" stroke="midnightblue" d="M159.75,-112.44C182.23,-103.52 217.69,-89.44 243.18,-79.32"/>
<polygon fill="midnightblue" stroke="midnightblue" points="244.75,-82.46 252.75,-75.52 242.17,-75.95 244.75,-82.46"/>
</g>
<!-- Node3&#45;&gt;Node4 -->
<g id="edge3" class="edge">
<title>Node3&#45;&gt;Node4</title>
<path fill="none" stroke="midnightblue" d="M79.11,-56.08C72.05,-48.3 61.61,-36.8 53.05,-27.37"/>
<polygon fill="midnightblue" stroke="midnightblue" points="55.45,-24.8 46.14,-19.75 50.27,-29.51 55.45,-24.8"/>
</g>
<!-- Node3&#45;&gt;Node5 -->
<g id="edge4" class="edge">
<title>Node3&#45;&gt;Node5</title>
<path fill="none" stroke="midnightblue" d="M95.29,-56.08C102.36,-48.3 112.79,-36.8 121.35,-27.37"/>
<polygon fill="midnightblue" stroke="midnightblue" points="124.13,-29.51 128.26,-19.75 118.95,-24.8 124.13,-29.51"/>
</g>
</g>
</svg>
