<?xml version="1.0" encoding="UTF-8" standalone="no"?>
<!DOCTYPE svg PUBLIC "-//W3C//DTD SVG 1.1//EN"
 "http://www.w3.org/Graphics/SVG/1.1/DTD/svg11.dtd">
<!-- Generated by graphviz version 2.43.0 (0)
 -->
<!-- Title: database/inc/redis_database.hpp Pages: 1 -->
<!--zoomable 106 -->
<svg id="main" version="1.1" xmlns="http://www.w3.org/2000/svg" xmlns:xlink="http://www.w3.org/1999/xlink" xml:space="preserve" onload="init(evt)">
<style type="text/css"><![CDATA[
.edge:hover path { stroke: red; }
.edge:hover polygon { stroke: red; fill: red; }
]]></style>
<script type="text/javascript"><![CDATA[
var edges = document.getElementsByTagName('g');
if (edges && edges.length) {
  for (var i=0;i<edges.length;i++) {
    if (edges[i].id.substr(0,4)=='edge') {
      edges[i].setAttribute('class','edge');
    }
  }
}
]]></script>
        <defs>
                <circle id="rim" cx="0" cy="0" r="7"/>
                <circle id="rim2" cx="0" cy="0" r="3.5"/>
                <g id="zoomPlus">
                        <use xlink:href="#rim" fill="#404040">
                                <set attributeName="fill" to="#808080" begin="zoomplus.mouseover" end="zoomplus.mouseout"/>
                        </use>
                        <path d="M-4,0h8M0,-4v8" fill="none" stroke="white" stroke-width="1.5" pointer-events="none"/>
                </g>
                <g id="zoomMin">
                        <use xlink:href="#rim" fill="#404040">
                                <set attributeName="fill" to="#808080" begin="zoomminus.mouseover" end="zoomminus.mouseout"/>
                        </use>
                        <path d="M-4,0h8" fill="none" stroke="white" stroke-width="1.5" pointer-events="none"/>
                </g>
                <g id="dirArrow">
                        <path fill="none" stroke="white" stroke-width="1.5" d="M0,-3.0v7 M-2.5,-0.5L0,-3.0L2.5,-0.5"/>
                </g>
               <g id="resetDef">
                       <use xlink:href="#rim2" fill="#404040">
                               <set attributeName="fill" to="#808080" begin="reset.mouseover" end="reset.mouseout"/>
                       </use>
               </g>
        </defs>

<script type="text/javascript">
var viewWidth = 687;
var viewHeight = 106;
var sectionId = 'dynsection-1';
</script>
<script xlink:href="svgpan.js"/>
<svg id="graph" class="graph">
<g id="viewport">
<title>database/inc/redis_database.hpp</title>
<polygon fill="white" stroke="transparent" points="-4,4 -4,-102 683,-102 683,4 -4,4"/>
<!-- Node1 -->
<g id="node1" class="node">
<title>Node1</title>
<g id="a_node1"><a xlink:title="Implements RedisDatabaseHandler for Redis&#45;based database operations.">
<polygon fill="#bfbfbf" stroke="black" points="285,-67.5 285,-97.5 391,-97.5 391,-67.5 285,-67.5"/>
<text text-anchor="start" x="293" y="-85.5" font-family="Helvetica,sans-Serif" font-size="10.00">database/inc/redis</text>
<text text-anchor="middle" x="338" y="-74.5" font-family="Helvetica,sans-Serif" font-size="10.00">_database.hpp</text>
</a>
</g>
</g>
<!-- Node2 -->
<g id="node2" class="node">
<title>Node2</title>
<g id="a_node2"><a xlink:href="redis__database_8cpp.html" target="_top" xlink:title="Implements RedisDatabaseHandler for Redis&#45;based database operations.">
<polygon fill="white" stroke="black" points="0,-0.5 0,-30.5 106,-30.5 106,-0.5 0,-0.5"/>
<text text-anchor="start" x="8" y="-18.5" font-family="Helvetica,sans-Serif" font-size="10.00">database/src/redis</text>
<text text-anchor="middle" x="53" y="-7.5" font-family="Helvetica,sans-Serif" font-size="10.00">_database.cpp</text>
</a>
</g>
</g>
<!-- Node1&#45;&gt;Node2 -->
<g id="edge1" class="edge">
<title>Node1&#45;&gt;Node2</title>
<path fill="none" stroke="midnightblue" d="M274.97,-67.35C230.29,-57.29 168.95,-43.42 115,-31 112.09,-30.33 109.11,-29.64 106.09,-28.94"/>
<polygon fill="midnightblue" stroke="midnightblue" points="274.28,-70.78 284.81,-69.56 275.82,-63.95 274.28,-70.78"/>
</g>
<!-- Node3 -->
<g id="node3" class="node">
<title>Node3</title>
<g id="a_node3"><a xlink:href="json__request__executor_8cpp.html" target="_top" xlink:title="Implements the JsonRequestExecutorHandler class for executing JSON&#45;based requests.">
<polygon fill="white" stroke="black" points="124,-0.5 124,-30.5 266,-30.5 266,-0.5 124,-0.5"/>
<text text-anchor="start" x="132" y="-18.5" font-family="Helvetica,sans-Serif" font-size="10.00">executor/src/json_request</text>
<text text-anchor="middle" x="195" y="-7.5" font-family="Helvetica,sans-Serif" font-size="10.00">_executor.cpp</text>
</a>
</g>
</g>
<!-- Node1&#45;&gt;Node3 -->
<g id="edge2" class="edge">
<title>Node1&#45;&gt;Node3</title>
<path fill="none" stroke="midnightblue" d="M297.59,-63.13C274.87,-52.8 246.94,-40.11 225.97,-30.58"/>
<polygon fill="midnightblue" stroke="midnightblue" points="296.42,-66.44 306.97,-67.4 299.32,-60.07 296.42,-66.44"/>
</g>
<!-- Node4 -->
<g id="node4" class="node">
<title>Node4</title>
<g id="a_node4"><a xlink:href="docker__commands_8cpp.html" target="_top" xlink:title="Implements Docker command classes for container operations.">
<polygon fill="white" stroke="black" points="284.5,-0.5 284.5,-30.5 391.5,-30.5 391.5,-0.5 284.5,-0.5"/>
<text text-anchor="start" x="292.5" y="-18.5" font-family="Helvetica,sans-Serif" font-size="10.00">runtime/src/docker</text>
<text text-anchor="middle" x="338" y="-7.5" font-family="Helvetica,sans-Serif" font-size="10.00">_commands.cpp</text>
</a>
</g>
</g>
<!-- Node1&#45;&gt;Node4 -->
<g id="edge3" class="edge">
<title>Node1&#45;&gt;Node4</title>
<path fill="none" stroke="midnightblue" d="M338,-57.11C338,-48.15 338,-38.32 338,-30.58"/>
<polygon fill="midnightblue" stroke="midnightblue" points="334.5,-57.4 338,-67.4 341.5,-57.4 334.5,-57.4"/>
</g>
<!-- Node5 -->
<g id="node5" class="node">
<title>Node5</title>
<g id="a_node5"><a xlink:href="podman__commands_8cpp.html" target="_top" xlink:title="Implements Podman command classes for container operations.">
<polygon fill="white" stroke="black" points="409.5,-0.5 409.5,-30.5 524.5,-30.5 524.5,-0.5 409.5,-0.5"/>
<text text-anchor="start" x="417.5" y="-18.5" font-family="Helvetica,sans-Serif" font-size="10.00">runtime/src/podman</text>
<text text-anchor="middle" x="467" y="-7.5" font-family="Helvetica,sans-Serif" font-size="10.00">_commands.cpp</text>
</a>
</g>
</g>
<!-- Node1&#45;&gt;Node5 -->
<g id="edge4" class="edge">
<title>Node1&#45;&gt;Node5</title>
<path fill="none" stroke="midnightblue" d="M375.01,-62.85C395.4,-52.58 420.31,-40.03 439.06,-30.58"/>
<polygon fill="midnightblue" stroke="midnightblue" points="373.35,-59.77 365.99,-67.4 376.5,-66.02 373.35,-59.77"/>
</g>
<!-- Node6 -->
<g id="node6" class="node">
<title>Node6</title>
<g id="a_node6"><a xlink:href="init__handler_8cpp.html" target="_top" xlink:title="Implements project&#45;wide initialization functions.">
<polygon fill="white" stroke="black" points="543,-6 543,-25 679,-25 679,-6 543,-6"/>
<text text-anchor="middle" x="611" y="-13" font-family="Helvetica,sans-Serif" font-size="10.00">utils/src/init_handler.cpp</text>
</a>
</g>
</g>
<!-- Node1&#45;&gt;Node6 -->
<g id="edge5" class="edge">
<title>Node1&#45;&gt;Node6</title>
<path fill="none" stroke="midnightblue" d="M401.11,-66.47C455.17,-53.6 531.08,-35.53 575.24,-25.01"/>
<polygon fill="midnightblue" stroke="midnightblue" points="400.2,-63.09 391.29,-68.81 401.82,-69.9 400.2,-63.09"/>
</g>
</g>
</svg>
        <g id="navigator" transform="translate(0 0)" fill="#404254">
                <rect fill="#f2f5e9" fill-opacity="0.5" stroke="#606060" stroke-width=".5" x="0" y="0" width="60" height="60"/>
                <use id="zoomplus" xlink:href="#zoomPlus" x="17" y="9" onmousedown="handleZoom(evt,'in')"/>
                <use id="zoomminus" xlink:href="#zoomMin" x="42" y="9" onmousedown="handleZoom(evt,'out')"/>
                <use id="reset" xlink:href="#resetDef" x="30" y="36" onmousedown="handleReset()"/>
                <g id="arrowUp" xlink:href="#dirArrow" transform="translate(30 24)" onmousedown="handlePan(0,-1)">
                  <use xlink:href="#rim" fill="#404040">
                        <set attributeName="fill" to="#808080" begin="arrowUp.mouseover" end="arrowUp.mouseout"/>
                  </use>
                  <path fill="none" stroke="white" stroke-width="1.5" d="M0,-3.0v7 M-2.5,-0.5L0,-3.0L2.5,-0.5"/>
                </g>
                <g id="arrowRight" xlink:href="#dirArrow" transform="rotate(90) translate(36 -43)" onmousedown="handlePan(1,0)">
                  <use xlink:href="#rim" fill="#404040">
                        <set attributeName="fill" to="#808080" begin="arrowRight.mouseover" end="arrowRight.mouseout"/>
                  </use>
                  <path fill="none" stroke="white" stroke-width="1.5" d="M0,-3.0v7 M-2.5,-0.5L0,-3.0L2.5,-0.5"/>
                </g>
                <g id="arrowDown" xlink:href="#dirArrow" transform="rotate(180) translate(-30 -48)" onmousedown="handlePan(0,1)">
                  <use xlink:href="#rim" fill="#404040">
                        <set attributeName="fill" to="#808080" begin="arrowDown.mouseover" end="arrowDown.mouseout"/>
                  </use>
                  <path fill="none" stroke="white" stroke-width="1.5" d="M0,-3.0v7 M-2.5,-0.5L0,-3.0L2.5,-0.5"/>
                </g>
                <g id="arrowLeft" xlink:href="#dirArrow" transform="rotate(270) translate(-36 17)" onmousedown="handlePan(-1,0)">
                  <use xlink:href="#rim" fill="#404040">
                        <set attributeName="fill" to="#808080" begin="arrowLeft.mouseover" end="arrowLeft.mouseout"/>
                  </use>
                  <path fill="none" stroke="white" stroke-width="1.5" d="M0,-3.0v7 M-2.5,-0.5L0,-3.0L2.5,-0.5"/>
                </g>
        </g>
        <svg viewBox="0 0 15 15" width="100%" height="30px" preserveAspectRatio="xMaxYMin meet">
         <g id="arrow_out" transform="scale(0.3 0.3)">
          <a xlink:href="redis__database_8hpp__dep__incl_org.svg" target="_base">
           <rect id="button" ry="5" rx="5" y="6" x="6" height="38" width="38"
                fill="#f2f5e9" fill-opacity="0.5" stroke="#606060" stroke-width="1.0"/>
           <path id="arrow"
             d="M 11.500037,31.436501 C 11.940474,20.09759 22.043105,11.32322 32.158766,21.979434 L 37.068811,17.246167 C 37.068811,17.246167 37.088388,32 37.088388,32 L 22.160133,31.978069 C 22.160133,31.978069 26.997745,27.140456 26.997745,27.140456 C 18.528582,18.264221 13.291696,25.230495 11.500037,31.436501 z"
             style="fill:#404040;"/>
          </a>
         </g>
        </svg>
</svg>
