<?xml version="1.0" encoding="UTF-8" standalone="no"?>
<!DOCTYPE svg PUBLIC "-//W3C//DTD SVG 1.1//EN"
 "http://www.w3.org/Graphics/SVG/1.1/DTD/svg11.dtd">
<!-- Generated by graphviz version 2.43.0 (0)
 -->
<!-- Title: database/inc/redis_database.hpp Pages: 1 -->
<!--zoomable 106 -->
<svg id="main" version="1.1" xmlns="http://www.w3.org/2000/svg" xmlns:xlink="http://www.w3.org/1999/xlink" xml:space="preserve" onload="init(evt)">
<style type="text/css"><![CDATA[
.edge:hover path { stroke: red; }
.edge:hover polygon { stroke: red; fill: red; }
]]></style>
<script type="text/javascript"><![CDATA[
var edges = document.getElementsByTagName('g');
if (edges && edges.length) {
  for (var i=0;i<edges.length;i++) {
    if (edges[i].id.substr(0,4)=='edge') {
      edges[i].setAttribute('class','edge');
    }
  }
}
]]></script>
        <defs>
                <circle id="rim" cx="0" cy="0" r="7"/>
                <circle id="rim2" cx="0" cy="0" r="3.5"/>
                <g id="zoomPlus">
                        <use xlink:href="#rim" fill="#404040">
                                <set attributeName="fill" to="#808080" begin="zoomplus.mouseover" end="zoomplus.mouseout"/>
                        </use>
                        <path d="M-4,0h8M0,-4v8" fill="none" stroke="white" stroke-width="1.5" pointer-events="none"/>
                </g>
                <g id="zoomMin">
                        <use xlink:href="#rim" fill="#404040">
                                <set attributeName="fill" to="#808080" begin="zoomminus.mouseover" end="zoomminus.mouseout"/>
                        </use>
                        <path d="M-4,0h8" fill="none" stroke="white" stroke-width="1.5" pointer-events="none"/>
                </g>
                <g id="dirArrow">
                        <path fill="none" stroke="white" stroke-width="1.5" d="M0,-3.0v7 M-2.5,-0.5L0,-3.0L2.5,-0.5"/>
                </g>
               <g id="resetDef">
                       <use xlink:href="#rim2" fill="#404040">
                               <set attributeName="fill" to="#808080" begin="reset.mouseover" end="reset.mouseout"/>
                       </use>
               </g>
        </defs>

<script type="text/javascript">
var viewWidth = 954;
var viewHeight = 106;
var sectionId = 'dynsection-1';
</script>
<script xlink:href="svgpan.js"/>
<svg id="graph" class="graph">
<g id="viewport">
<title>database/inc/redis_database.hpp</title>
<polygon fill="white" stroke="transparent" points="-4,4 -4,-102 950,-102 950,4 -4,4"/>
<!-- Node1 -->
<g id="node1" class="node">
<title>Node1</title>
<g id="a_node1"><a xlink:title="Implements RedisDatabaseHandler for Redis&#45;based database operations.">
<polygon fill="#bfbfbf" stroke="black" points="417,-67.5 417,-97.5 523,-97.5 523,-67.5 417,-67.5"/>
<text text-anchor="start" x="425" y="-85.5" font-family="Helvetica,sans-Serif" font-size="10.00">database/inc/redis</text>
<text text-anchor="middle" x="470" y="-74.5" font-family="Helvetica,sans-Serif" font-size="10.00">_database.hpp</text>
</a>
</g>
</g>
<!-- Node2 -->
<g id="node2" class="node">
<title>Node2</title>
<g id="a_node2"><a xlink:href="container__service_8cpp.html" target="_top" xlink:title="Implements the ContainerServiceHandler class for business logic related to containers.">
<polygon fill="white" stroke="black" points="0,-0.5 0,-30.5 104,-30.5 104,-0.5 0,-0.5"/>
<text text-anchor="start" x="8" y="-18.5" font-family="Helvetica,sans-Serif" font-size="10.00">core/src/container</text>
<text text-anchor="middle" x="52" y="-7.5" font-family="Helvetica,sans-Serif" font-size="10.00">_service.cpp</text>
</a>
</g>
</g>
<!-- Node1&#45;&gt;Node2 -->
<g id="edge1" class="edge">
<title>Node1&#45;&gt;Node2</title>
<path fill="none" stroke="midnightblue" d="M406.62,-74.34C335.02,-65.83 215.15,-50.32 113,-31 110.11,-30.45 107.15,-29.86 104.18,-29.24"/>
<polygon fill="midnightblue" stroke="midnightblue" points="406.48,-77.85 416.82,-75.54 407.3,-70.89 406.48,-77.85"/>
</g>
<!-- Node3 -->
<g id="node3" class="node">
<title>Node3</title>
<g id="a_node3"><a xlink:href="redis__database_8cpp.html" target="_top" xlink:title="Implements RedisDatabaseHandler for Redis&#45;based database operations.">
<polygon fill="white" stroke="black" points="122,-0.5 122,-30.5 228,-30.5 228,-0.5 122,-0.5"/>
<text text-anchor="start" x="130" y="-18.5" font-family="Helvetica,sans-Serif" font-size="10.00">database/src/redis</text>
<text text-anchor="middle" x="175" y="-7.5" font-family="Helvetica,sans-Serif" font-size="10.00">_database.cpp</text>
</a>
</g>
</g>
<!-- Node1&#45;&gt;Node3 -->
<g id="edge2" class="edge">
<title>Node1&#45;&gt;Node3</title>
<path fill="none" stroke="midnightblue" d="M406.72,-68.08C359.82,-58.06 294.37,-43.92 237,-31 234.09,-30.34 231.1,-29.67 228.09,-28.98"/>
<polygon fill="midnightblue" stroke="midnightblue" points="406.23,-71.55 416.74,-70.21 407.69,-64.7 406.23,-71.55"/>
</g>
<!-- Node4 -->
<g id="node4" class="node">
<title>Node4</title>
<g id="a_node4"><a xlink:href="json__request__executor_8cpp.html" target="_top" xlink:title="Implements the JsonRequestExecutorHandler class for executing JSON&#45;based requests.">
<polygon fill="white" stroke="black" points="246,-0.5 246,-30.5 388,-30.5 388,-0.5 246,-0.5"/>
<text text-anchor="start" x="254" y="-18.5" font-family="Helvetica,sans-Serif" font-size="10.00">executor/src/json_request</text>
<text text-anchor="middle" x="317" y="-7.5" font-family="Helvetica,sans-Serif" font-size="10.00">_executor.cpp</text>
</a>
</g>
</g>
<!-- Node1&#45;&gt;Node4 -->
<g id="edge3" class="edge">
<title>Node1&#45;&gt;Node4</title>
<path fill="none" stroke="midnightblue" d="M427.41,-63.41C402.98,-53.03 372.78,-40.2 350.13,-30.58"/>
<polygon fill="midnightblue" stroke="midnightblue" points="426.23,-66.71 436.8,-67.4 428.97,-60.26 426.23,-66.71"/>
</g>
<!-- Node5 -->
<g id="node5" class="node">
<title>Node5</title>
<g id="a_node5"><a xlink:href="protobuf__request__executor_8cpp.html" target="_top" xlink:title="Implements the ProtoRequestExecutorHandler class for handling Protobuf&#45;based requests.">
<polygon fill="white" stroke="black" points="406.5,-0.5 406.5,-30.5 533.5,-30.5 533.5,-0.5 406.5,-0.5"/>
<text text-anchor="start" x="414.5" y="-18.5" font-family="Helvetica,sans-Serif" font-size="10.00">executor/src/protobuf</text>
<text text-anchor="middle" x="470" y="-7.5" font-family="Helvetica,sans-Serif" font-size="10.00">_request_executor.cpp</text>
</a>
</g>
</g>
<!-- Node1&#45;&gt;Node5 -->
<g id="edge4" class="edge">
<title>Node1&#45;&gt;Node5</title>
<path fill="none" stroke="midnightblue" d="M470,-57.11C470,-48.15 470,-38.32 470,-30.58"/>
<polygon fill="midnightblue" stroke="midnightblue" points="466.5,-57.4 470,-67.4 473.5,-57.4 466.5,-57.4"/>
</g>
<!-- Node6 -->
<g id="node6" class="node">
<title>Node6</title>
<g id="a_node6"><a xlink:href="docker__commands_8cpp.html" target="_top" xlink:title="Implements Docker command classes for container operations.">
<polygon fill="white" stroke="black" points="551.5,-0.5 551.5,-30.5 658.5,-30.5 658.5,-0.5 551.5,-0.5"/>
<text text-anchor="start" x="559.5" y="-18.5" font-family="Helvetica,sans-Serif" font-size="10.00">runtime/src/docker</text>
<text text-anchor="middle" x="605" y="-7.5" font-family="Helvetica,sans-Serif" font-size="10.00">_commands.cpp</text>
</a>
</g>
</g>
<!-- Node1&#45;&gt;Node6 -->
<g id="edge5" class="edge">
<title>Node1&#45;&gt;Node6</title>
<path fill="none" stroke="midnightblue" d="M508.44,-62.99C529.84,-52.69 556.05,-40.07 575.76,-30.58"/>
<polygon fill="midnightblue" stroke="midnightblue" points="506.78,-59.9 499.29,-67.4 509.82,-66.21 506.78,-59.9"/>
</g>
<!-- Node7 -->
<g id="node7" class="node">
<title>Node7</title>
<g id="a_node7"><a xlink:href="podman__commands_8cpp.html" target="_top" xlink:title="Implements Podman command classes for container operations.">
<polygon fill="white" stroke="black" points="676.5,-0.5 676.5,-30.5 791.5,-30.5 791.5,-0.5 676.5,-0.5"/>
<text text-anchor="start" x="684.5" y="-18.5" font-family="Helvetica,sans-Serif" font-size="10.00">runtime/src/podman</text>
<text text-anchor="middle" x="734" y="-7.5" font-family="Helvetica,sans-Serif" font-size="10.00">_commands.cpp</text>
</a>
</g>
</g>
<!-- Node1&#45;&gt;Node7 -->
<g id="edge6" class="edge">
<title>Node1&#45;&gt;Node7</title>
<path fill="none" stroke="midnightblue" d="M533.05,-65.98C576.76,-55.21 634.5,-41 676.86,-30.57"/>
<polygon fill="midnightblue" stroke="midnightblue" points="531.98,-62.64 523.11,-68.42 533.65,-69.43 531.98,-62.64"/>
</g>
<!-- Node8 -->
<g id="node8" class="node">
<title>Node8</title>
<g id="a_node8"><a xlink:href="init__handler_8cpp.html" target="_top" xlink:title="Implements project&#45;wide initialization functions.">
<polygon fill="white" stroke="black" points="810,-6 810,-25 946,-25 946,-6 810,-6"/>
<text text-anchor="middle" x="878" y="-13" font-family="Helvetica,sans-Serif" font-size="10.00">utils/src/init_handler.cpp</text>
</a>
</g>
</g>
<!-- Node1&#45;&gt;Node8 -->
<g id="edge7" class="edge">
<title>Node1&#45;&gt;Node8</title>
<path fill="none" stroke="midnightblue" d="M533.05,-72.55C599.73,-62.92 707.93,-46.86 801,-31 811.73,-29.17 823.27,-27.07 834.07,-25.05"/>
<polygon fill="midnightblue" stroke="midnightblue" points="532.52,-69.09 523.12,-73.98 533.52,-76.01 532.52,-69.09"/>
</g>
</g>
</svg>
        <g id="navigator" transform="translate(0 0)" fill="#404254">
                <rect fill="#f2f5e9" fill-opacity="0.5" stroke="#606060" stroke-width=".5" x="0" y="0" width="60" height="60"/>
                <use id="zoomplus" xlink:href="#zoomPlus" x="17" y="9" onmousedown="handleZoom(evt,'in')"/>
                <use id="zoomminus" xlink:href="#zoomMin" x="42" y="9" onmousedown="handleZoom(evt,'out')"/>
                <use id="reset" xlink:href="#resetDef" x="30" y="36" onmousedown="handleReset()"/>
                <g id="arrowUp" xlink:href="#dirArrow" transform="translate(30 24)" onmousedown="handlePan(0,-1)">
                  <use xlink:href="#rim" fill="#404040">
                        <set attributeName="fill" to="#808080" begin="arrowUp.mouseover" end="arrowUp.mouseout"/>
                  </use>
                  <path fill="none" stroke="white" stroke-width="1.5" d="M0,-3.0v7 M-2.5,-0.5L0,-3.0L2.5,-0.5"/>
                </g>
                <g id="arrowRight" xlink:href="#dirArrow" transform="rotate(90) translate(36 -43)" onmousedown="handlePan(1,0)">
                  <use xlink:href="#rim" fill="#404040">
                        <set attributeName="fill" to="#808080" begin="arrowRight.mouseover" end="arrowRight.mouseout"/>
                  </use>
                  <path fill="none" stroke="white" stroke-width="1.5" d="M0,-3.0v7 M-2.5,-0.5L0,-3.0L2.5,-0.5"/>
                </g>
                <g id="arrowDown" xlink:href="#dirArrow" transform="rotate(180) translate(-30 -48)" onmousedown="handlePan(0,1)">
                  <use xlink:href="#rim" fill="#404040">
                        <set attributeName="fill" to="#808080" begin="arrowDown.mouseover" end="arrowDown.mouseout"/>
                  </use>
                  <path fill="none" stroke="white" stroke-width="1.5" d="M0,-3.0v7 M-2.5,-0.5L0,-3.0L2.5,-0.5"/>
                </g>
                <g id="arrowLeft" xlink:href="#dirArrow" transform="rotate(270) translate(-36 17)" onmousedown="handlePan(-1,0)">
                  <use xlink:href="#rim" fill="#404040">
                        <set attributeName="fill" to="#808080" begin="arrowLeft.mouseover" end="arrowLeft.mouseout"/>
                  </use>
                  <path fill="none" stroke="white" stroke-width="1.5" d="M0,-3.0v7 M-2.5,-0.5L0,-3.0L2.5,-0.5"/>
                </g>
        </g>
        <svg viewBox="0 0 15 15" width="100%" height="30px" preserveAspectRatio="xMaxYMin meet">
         <g id="arrow_out" transform="scale(0.3 0.3)">
          <a xlink:href="redis__database_8hpp__dep__incl_org.svg" target="_base">
           <rect id="button" ry="5" rx="5" y="6" x="6" height="38" width="38"
                fill="#f2f5e9" fill-opacity="0.5" stroke="#606060" stroke-width="1.0"/>
           <path id="arrow"
             d="M 11.500037,31.436501 C 11.940474,20.09759 22.043105,11.32322 32.158766,21.979434 L 37.068811,17.246167 C 37.068811,17.246167 37.088388,32 37.088388,32 L 22.160133,31.978069 C 22.160133,31.978069 26.997745,27.140456 26.997745,27.140456 C 18.528582,18.264221 13.291696,25.230495 11.500037,31.436501 z"
             style="fill:#404040;"/>
          </a>
         </g>
        </svg>
</svg>
