<?xml version="1.0" encoding="UTF-8" standalone="no"?>
<!DOCTYPE svg PUBLIC "-//W3C//DTD SVG 1.1//EN"
 "http://www.w3.org/Graphics/SVG/1.1/DTD/svg11.dtd">
<!-- Generated by graphviz version 2.43.0 (0)
 -->
<!-- Title: executor/inc/request_executor.hpp Pages: 1 -->
<svg width="909pt" height="229pt"
 viewBox="0.00 0.00 908.50 229.00" xmlns="http://www.w3.org/2000/svg" xmlns:xlink="http://www.w3.org/1999/xlink">
<g id="graph0" class="graph" transform="scale(1 1) rotate(0) translate(4 225)">
<title>executor/inc/request_executor.hpp</title>
<polygon fill="white" stroke="transparent" points="-4,4 -4,-225 904.5,-225 904.5,4 -4,4"/>
<!-- Node1 -->
<g id="node1" class="node">
<title>Node1</title>
<g id="a_node1"><a xlink:title="Declares the abstract RequestExecutor interface for executing requests.">
<polygon fill="#bfbfbf" stroke="black" points="322.5,-190.5 322.5,-220.5 438.5,-220.5 438.5,-190.5 322.5,-190.5"/>
<text text-anchor="start" x="330.5" y="-208.5" font-family="Helvetica,sans-Serif" font-size="10.00">executor/inc/request</text>
<text text-anchor="middle" x="380.5" y="-197.5" font-family="Helvetica,sans-Serif" font-size="10.00">_executor.hpp</text>
</a>
</g>
</g>
<!-- Node2 -->
<g id="node2" class="node">
<title>Node2</title>
<g id="a_node2"><a xlink:href="dbus__consumer_8hpp.html" target="_top" xlink:title="Defines the DbusConsumer class for receiving and processing JSON requests over D&#45;Bus.">
<polygon fill="white" stroke="black" points="75,-129 75,-148 224,-148 224,-129 75,-129"/>
<text text-anchor="middle" x="149.5" y="-136" font-family="Helvetica,sans-Serif" font-size="10.00">api/inc/dbus_consumer.hpp</text>
</a>
</g>
</g>
<!-- Node1&#45;&gt;Node2 -->
<g id="edge1" class="edge">
<title>Node1&#45;&gt;Node2</title>
<path fill="none" stroke="midnightblue" d="M320.97,-187.75C275.8,-175.04 215.55,-158.09 179.81,-148.03"/>
<polygon fill="midnightblue" stroke="midnightblue" points="320.09,-191.14 330.66,-190.48 321.98,-184.4 320.09,-191.14"/>
</g>
<!-- Node5 -->
<g id="node5" class="node">
<title>Node5</title>
<g id="a_node5"><a xlink:href="mosquitto__mqtt__subscriber_8hpp.html" target="_top" xlink:title="Declares the MosquittoMqttSubscriber class for handling MQTT messages using Mosquitto.">
<polygon fill="white" stroke="black" points="242.5,-123.5 242.5,-153.5 372.5,-153.5 372.5,-123.5 242.5,-123.5"/>
<text text-anchor="start" x="250.5" y="-141.5" font-family="Helvetica,sans-Serif" font-size="10.00">api/inc/mosquitto_mqtt</text>
<text text-anchor="middle" x="307.5" y="-130.5" font-family="Helvetica,sans-Serif" font-size="10.00">_subscriber.hpp</text>
</a>
</g>
</g>
<!-- Node1&#45;&gt;Node5 -->
<g id="edge4" class="edge">
<title>Node1&#45;&gt;Node5</title>
<path fill="none" stroke="midnightblue" d="M357.03,-183.6C346,-173.78 333.16,-162.34 323.31,-153.58"/>
<polygon fill="midnightblue" stroke="midnightblue" points="354.86,-186.36 364.66,-190.4 359.52,-181.13 354.86,-186.36"/>
</g>
<!-- Node7 -->
<g id="node7" class="node">
<title>Node7</title>
<g id="a_node7"><a xlink:href="posix__message__queue__consumer_8hpp.html" target="_top" xlink:title="Declares the MessageQueueConsumer class for handling messages from a POSIX message queue.">
<polygon fill="white" stroke="black" points="390.5,-123.5 390.5,-153.5 518.5,-153.5 518.5,-123.5 390.5,-123.5"/>
<text text-anchor="start" x="398.5" y="-141.5" font-family="Helvetica,sans-Serif" font-size="10.00">api/inc/posix_message</text>
<text text-anchor="middle" x="454.5" y="-130.5" font-family="Helvetica,sans-Serif" font-size="10.00">_queue_consumer.hpp</text>
</a>
</g>
</g>
<!-- Node1&#45;&gt;Node7 -->
<g id="edge7" class="edge">
<title>Node1&#45;&gt;Node7</title>
<path fill="none" stroke="midnightblue" d="M404.3,-183.6C415.47,-173.78 428.49,-162.34 438.47,-153.58"/>
<polygon fill="midnightblue" stroke="midnightblue" points="401.76,-181.17 396.56,-190.4 406.38,-186.43 401.76,-181.17"/>
</g>
<!-- Node9 -->
<g id="node9" class="node">
<title>Node9</title>
<g id="a_node9"><a xlink:href="json__request__executor_8hpp.html" target="_top" xlink:title="Defines the JsonRequestExecutorHandler class for executing JSON&#45;based requests.">
<polygon fill="white" stroke="black" points="570.5,-123.5 570.5,-153.5 712.5,-153.5 712.5,-123.5 570.5,-123.5"/>
<text text-anchor="start" x="578.5" y="-141.5" font-family="Helvetica,sans-Serif" font-size="10.00">executor/inc/json_request</text>
<text text-anchor="middle" x="641.5" y="-130.5" font-family="Helvetica,sans-Serif" font-size="10.00">_executor.hpp</text>
</a>
</g>
</g>
<!-- Node1&#45;&gt;Node9 -->
<g id="edge10" class="edge">
<title>Node1&#45;&gt;Node9</title>
<path fill="none" stroke="midnightblue" d="M446.55,-188.05C489.22,-177.43 544.16,-163.74 584.84,-153.61"/>
<polygon fill="midnightblue" stroke="midnightblue" points="445.67,-184.66 436.81,-190.48 447.36,-191.46 445.67,-184.66"/>
</g>
<!-- Node3 -->
<g id="node3" class="node">
<title>Node3</title>
<g id="a_node3"><a xlink:href="dbus__consumer_8cpp.html" target="_top" xlink:title="Implements the DbusConsumer class for receiving and processing JSON requests over D&#45;Bus.">
<polygon fill="white" stroke="black" points="0,-62 0,-81 149,-81 149,-62 0,-62"/>
<text text-anchor="middle" x="74.5" y="-69" font-family="Helvetica,sans-Serif" font-size="10.00">api/src/dbus_consumer.cpp</text>
</a>
</g>
</g>
<!-- Node2&#45;&gt;Node3 -->
<g id="edge2" class="edge">
<title>Node2&#45;&gt;Node3</title>
<path fill="none" stroke="midnightblue" d="M131.45,-121.86C116.71,-109.08 96.41,-91.49 84.45,-81.13"/>
<polygon fill="midnightblue" stroke="midnightblue" points="129.54,-124.83 139.39,-128.73 134.12,-119.54 129.54,-124.83"/>
</g>
<!-- Node4 -->
<g id="node4" class="node">
<title>Node4</title>
<g id="a_node4"><a xlink:href="main_8cpp.html" target="_top" xlink:title="Entry point for the Container Manager application.">
<polygon fill="white" stroke="black" points="369.5,-0.5 369.5,-19.5 431.5,-19.5 431.5,-0.5 369.5,-0.5"/>
<text text-anchor="middle" x="400.5" y="-7.5" font-family="Helvetica,sans-Serif" font-size="10.00">main.cpp</text>
</a>
</g>
</g>
<!-- Node2&#45;&gt;Node4 -->
<g id="edge3" class="edge">
<title>Node2&#45;&gt;Node4</title>
<path fill="none" stroke="midnightblue" d="M160.64,-120.42C173.71,-101.77 197.11,-72.37 224.5,-56 270.25,-28.66 332.3,-17.81 369.19,-13.59"/>
<polygon fill="midnightblue" stroke="midnightblue" points="157.65,-118.6 154.93,-128.84 163.44,-122.53 157.65,-118.6"/>
</g>
<!-- Node5&#45;&gt;Node4 -->
<g id="edge6" class="edge">
<title>Node5&#45;&gt;Node4</title>
<path fill="none" stroke="midnightblue" d="M264.68,-118.19C252.36,-110.38 240.4,-100.06 233.5,-87 227.06,-74.82 225.12,-66.94 233.5,-56 249.94,-34.55 325.82,-21.02 369.43,-14.87"/>
<polygon fill="midnightblue" stroke="midnightblue" points="263.25,-121.41 273.65,-123.44 266.79,-115.37 263.25,-121.41"/>
</g>
<!-- Node6 -->
<g id="node6" class="node">
<title>Node6</title>
<g id="a_node6"><a xlink:href="mosquitto__mqtt__subscriber_8cpp.html" target="_top" xlink:title="Implements the MosquittoMqttSubscriber class for handling MQTT messages using Mosquitto.">
<polygon fill="white" stroke="black" points="242.5,-56.5 242.5,-86.5 372.5,-86.5 372.5,-56.5 242.5,-56.5"/>
<text text-anchor="start" x="250.5" y="-74.5" font-family="Helvetica,sans-Serif" font-size="10.00">api/src/mosquitto_mqtt</text>
<text text-anchor="middle" x="307.5" y="-63.5" font-family="Helvetica,sans-Serif" font-size="10.00">_subscriber.cpp</text>
</a>
</g>
</g>
<!-- Node5&#45;&gt;Node6 -->
<g id="edge5" class="edge">
<title>Node5&#45;&gt;Node6</title>
<path fill="none" stroke="midnightblue" d="M307.5,-113.11C307.5,-104.15 307.5,-94.32 307.5,-86.58"/>
<polygon fill="midnightblue" stroke="midnightblue" points="304,-113.4 307.5,-123.4 311,-113.4 304,-113.4"/>
</g>
<!-- Node7&#45;&gt;Node4 -->
<g id="edge9" class="edge">
<title>Node7&#45;&gt;Node4</title>
<path fill="none" stroke="midnightblue" d="M436.42,-115.16C430.33,-106.73 423.94,-96.81 419.5,-87 409.06,-63.96 403.76,-34.28 401.64,-19.77"/>
<polygon fill="midnightblue" stroke="midnightblue" points="433.77,-117.45 442.59,-123.32 439.36,-113.23 433.77,-117.45"/>
</g>
<!-- Node8 -->
<g id="node8" class="node">
<title>Node8</title>
<g id="a_node8"><a xlink:href="posix__message__queue__consumer_8cpp.html" target="_top" xlink:title="Implements the MessageQueueConsumer class for handling messages from a POSIX message queue.">
<polygon fill="white" stroke="black" points="428.5,-56.5 428.5,-86.5 556.5,-86.5 556.5,-56.5 428.5,-56.5"/>
<text text-anchor="start" x="436.5" y="-74.5" font-family="Helvetica,sans-Serif" font-size="10.00">api/src/posix_message</text>
<text text-anchor="middle" x="492.5" y="-63.5" font-family="Helvetica,sans-Serif" font-size="10.00">_queue_consumer.cpp</text>
</a>
</g>
</g>
<!-- Node7&#45;&gt;Node8 -->
<g id="edge8" class="edge">
<title>Node7&#45;&gt;Node8</title>
<path fill="none" stroke="midnightblue" d="M467.9,-114.58C473.36,-105.24 479.49,-94.75 484.27,-86.58"/>
<polygon fill="midnightblue" stroke="midnightblue" points="464.77,-113 462.75,-123.4 470.81,-116.53 464.77,-113"/>
</g>
<!-- Node9&#45;&gt;Node4 -->
<g id="edge15" class="edge">
<title>Node9&#45;&gt;Node4</title>
<path fill="none" stroke="midnightblue" d="M626.27,-115.26C612.48,-96.77 590.52,-71.11 565.5,-56 523.31,-30.52 466.46,-19.16 431.7,-14.33"/>
<polygon fill="midnightblue" stroke="midnightblue" points="623.49,-117.39 632.19,-123.44 629.16,-113.29 623.49,-117.39"/>
</g>
<!-- Node10 -->
<g id="node10" class="node">
<title>Node10</title>
<g id="a_node10"><a xlink:href="http__server_8hpp.html" target="_top" xlink:title="Defines the HttpServerHandler class for handling HTTP requests.">
<polygon fill="white" stroke="black" points="612.5,-62 612.5,-81 740.5,-81 740.5,-62 612.5,-62"/>
<text text-anchor="middle" x="676.5" y="-69" font-family="Helvetica,sans-Serif" font-size="10.00">api/inc/http_server.hpp</text>
</a>
</g>
</g>
<!-- Node9&#45;&gt;Node10 -->
<g id="edge11" class="edge">
<title>Node9&#45;&gt;Node10</title>
<path fill="none" stroke="midnightblue" d="M654,-114.29C660.18,-102.8 667.28,-89.63 671.82,-81.19"/>
<polygon fill="midnightblue" stroke="midnightblue" points="650.75,-112.93 649.09,-123.4 656.92,-116.25 650.75,-112.93"/>
</g>
<!-- Node12 -->
<g id="node12" class="node">
<title>Node12</title>
<g id="a_node12"><a xlink:href="json__request__executor_8cpp.html" target="_top" xlink:title="Implements the JsonRequestExecutorHandler class for executing JSON&#45;based requests.">
<polygon fill="white" stroke="black" points="758.5,-56.5 758.5,-86.5 900.5,-86.5 900.5,-56.5 758.5,-56.5"/>
<text text-anchor="start" x="766.5" y="-74.5" font-family="Helvetica,sans-Serif" font-size="10.00">executor/src/json_request</text>
<text text-anchor="middle" x="829.5" y="-63.5" font-family="Helvetica,sans-Serif" font-size="10.00">_executor.cpp</text>
</a>
</g>
</g>
<!-- Node9&#45;&gt;Node12 -->
<g id="edge14" class="edge">
<title>Node9&#45;&gt;Node12</title>
<path fill="none" stroke="midnightblue" d="M691.85,-120.09C722.2,-109.6 760.35,-96.41 788.79,-86.58"/>
<polygon fill="midnightblue" stroke="midnightblue" points="690.6,-116.82 682.29,-123.4 692.89,-123.44 690.6,-116.82"/>
</g>
<!-- Node10&#45;&gt;Node4 -->
<g id="edge13" class="edge">
<title>Node10&#45;&gt;Node4</title>
<path fill="none" stroke="midnightblue" d="M627.15,-59.86C570.56,-47.66 479.48,-28.03 431.84,-17.76"/>
<polygon fill="midnightblue" stroke="midnightblue" points="626.44,-63.29 636.96,-61.98 627.92,-56.45 626.44,-63.29"/>
</g>
<!-- Node11 -->
<g id="node11" class="node">
<title>Node11</title>
<g id="a_node11"><a xlink:href="http__server_8cpp.html" target="_top" xlink:title="Implements the HttpServerHandler class for handling HTTP requests.">
<polygon fill="white" stroke="black" points="612.5,-0.5 612.5,-19.5 740.5,-19.5 740.5,-0.5 612.5,-0.5"/>
<text text-anchor="middle" x="676.5" y="-7.5" font-family="Helvetica,sans-Serif" font-size="10.00">api/src/http_server.cpp</text>
</a>
</g>
</g>
<!-- Node10&#45;&gt;Node11 -->
<g id="edge12" class="edge">
<title>Node10&#45;&gt;Node11</title>
<path fill="none" stroke="midnightblue" d="M676.5,-51.82C676.5,-41 676.5,-27.9 676.5,-19.51"/>
<polygon fill="midnightblue" stroke="midnightblue" points="673,-51.98 676.5,-61.98 680,-51.98 673,-51.98"/>
</g>
</g>
</svg>
