<?xml version="1.0" encoding="UTF-8" standalone="no"?>
<!DOCTYPE svg PUBLIC "-//W3C//DTD SVG 1.1//EN"
 "http://www.w3.org/Graphics/SVG/1.1/DTD/svg11.dtd">
<!-- Generated by graphviz version 2.43.0 (0)
 -->
<!-- Title: executor/inc/request_executor.hpp Pages: 1 -->
<!--zoomable 173 -->
<svg id="main" version="1.1" xmlns="http://www.w3.org/2000/svg" xmlns:xlink="http://www.w3.org/1999/xlink" xml:space="preserve" onload="init(evt)">
<style type="text/css"><![CDATA[
.edge:hover path { stroke: red; }
.edge:hover polygon { stroke: red; fill: red; }
]]></style>
<script type="text/javascript"><![CDATA[
var edges = document.getElementsByTagName('g');
if (edges && edges.length) {
  for (var i=0;i<edges.length;i++) {
    if (edges[i].id.substr(0,4)=='edge') {
      edges[i].setAttribute('class','edge');
    }
  }
}
]]></script>
        <defs>
                <circle id="rim" cx="0" cy="0" r="7"/>
                <circle id="rim2" cx="0" cy="0" r="3.5"/>
                <g id="zoomPlus">
                        <use xlink:href="#rim" fill="#404040">
                                <set attributeName="fill" to="#808080" begin="zoomplus.mouseover" end="zoomplus.mouseout"/>
                        </use>
                        <path d="M-4,0h8M0,-4v8" fill="none" stroke="white" stroke-width="1.5" pointer-events="none"/>
                </g>
                <g id="zoomMin">
                        <use xlink:href="#rim" fill="#404040">
                                <set attributeName="fill" to="#808080" begin="zoomminus.mouseover" end="zoomminus.mouseout"/>
                        </use>
                        <path d="M-4,0h8" fill="none" stroke="white" stroke-width="1.5" pointer-events="none"/>
                </g>
                <g id="dirArrow">
                        <path fill="none" stroke="white" stroke-width="1.5" d="M0,-3.0v7 M-2.5,-0.5L0,-3.0L2.5,-0.5"/>
                </g>
               <g id="resetDef">
                       <use xlink:href="#rim2" fill="#404040">
                               <set attributeName="fill" to="#808080" begin="reset.mouseover" end="reset.mouseout"/>
                       </use>
               </g>
        </defs>

<script type="text/javascript">
var viewWidth = 983;
var viewHeight = 173;
var sectionId = 'dynsection-1';
</script>
<script xlink:href="svgpan.js"/>
<svg id="graph" class="graph">
<g id="viewport">
<title>executor/inc/request_executor.hpp</title>
<polygon fill="white" stroke="transparent" points="-4,4 -4,-169 979,-169 979,4 -4,4"/>
<!-- Node1 -->
<g id="node1" class="node">
<title>Node1</title>
<g id="a_node1"><a xlink:title="Declares the abstract RequestExecutor interface for executing requests.">
<polygon fill="#bfbfbf" stroke="black" points="393.5,-134.5 393.5,-164.5 509.5,-164.5 509.5,-134.5 393.5,-134.5"/>
<text text-anchor="start" x="401.5" y="-152.5" font-family="Helvetica,sans-Serif" font-size="10.00">executor/inc/request</text>
<text text-anchor="middle" x="451.5" y="-141.5" font-family="Helvetica,sans-Serif" font-size="10.00">_executor.hpp</text>
</a>
</g>
</g>
<!-- Node2 -->
<g id="node2" class="node">
<title>Node2</title>
<g id="a_node2"><a xlink:href="dbus__consumer_8hpp.html" target="_top" xlink:title="Defines the DBusConsumer class for receiving and processing JSON/Protobuf requests over D&#45;Bus.">
<polygon fill="white" stroke="black" points="0,-73 0,-92 149,-92 149,-73 0,-73"/>
<text text-anchor="middle" x="74.5" y="-80" font-family="Helvetica,sans-Serif" font-size="10.00">api/inc/dbus_consumer.hpp</text>
</a>
</g>
</g>
<!-- Node1&#45;&gt;Node2 -->
<g id="edge1" class="edge">
<title>Node1&#45;&gt;Node2</title>
<path fill="none" stroke="midnightblue" d="M383.4,-136.77C324.01,-126.54 235.56,-111.29 158.5,-98 147.27,-96.06 135.2,-93.98 123.8,-92.01"/>
<polygon fill="midnightblue" stroke="midnightblue" points="382.96,-140.24 393.41,-138.49 384.14,-133.34 382.96,-140.24"/>
</g>
<!-- Node4 -->
<g id="node4" class="node">
<title>Node4</title>
<g id="a_node4"><a xlink:href="http__server_8hpp.html" target="_top" xlink:title="Defines the HttpServerHandler class for handling HTTP requests.">
<polygon fill="white" stroke="black" points="167.5,-73 167.5,-92 295.5,-92 295.5,-73 167.5,-73"/>
<text text-anchor="middle" x="231.5" y="-80" font-family="Helvetica,sans-Serif" font-size="10.00">api/inc/http_server.hpp</text>
</a>
</g>
</g>
<!-- Node1&#45;&gt;Node4 -->
<g id="edge3" class="edge">
<title>Node1&#45;&gt;Node4</title>
<path fill="none" stroke="midnightblue" d="M394.27,-131.59C351.3,-118.9 294.26,-102.04 260.37,-92.03"/>
<polygon fill="midnightblue" stroke="midnightblue" points="393.45,-135 404.03,-134.48 395.44,-128.29 393.45,-135"/>
</g>
<!-- Node6 -->
<g id="node6" class="node">
<title>Node6</title>
<g id="a_node6"><a xlink:href="mosquitto__mqtt__subscriber_8hpp.html" target="_top" xlink:title="Declares the MosquittoMqttSubscriber class for handling MQTT messages using Mosquitto.">
<polygon fill="white" stroke="black" points="313.5,-67.5 313.5,-97.5 443.5,-97.5 443.5,-67.5 313.5,-67.5"/>
<text text-anchor="start" x="321.5" y="-85.5" font-family="Helvetica,sans-Serif" font-size="10.00">api/inc/mosquitto_mqtt</text>
<text text-anchor="middle" x="378.5" y="-74.5" font-family="Helvetica,sans-Serif" font-size="10.00">_subscriber.hpp</text>
</a>
</g>
</g>
<!-- Node1&#45;&gt;Node6 -->
<g id="edge5" class="edge">
<title>Node1&#45;&gt;Node6</title>
<path fill="none" stroke="midnightblue" d="M428.03,-127.6C417,-117.78 404.16,-106.34 394.31,-97.58"/>
<polygon fill="midnightblue" stroke="midnightblue" points="425.86,-130.36 435.66,-134.4 430.52,-125.13 425.86,-130.36"/>
</g>
<!-- Node8 -->
<g id="node8" class="node">
<title>Node8</title>
<g id="a_node8"><a xlink:href="posix__message__queue__consumer_8hpp.html" target="_top" xlink:title="Declares the MessageQueueConsumer class for handling messages from a POSIX message queue.">
<polygon fill="white" stroke="black" points="461.5,-67.5 461.5,-97.5 589.5,-97.5 589.5,-67.5 461.5,-67.5"/>
<text text-anchor="start" x="469.5" y="-85.5" font-family="Helvetica,sans-Serif" font-size="10.00">api/inc/posix_message</text>
<text text-anchor="middle" x="525.5" y="-74.5" font-family="Helvetica,sans-Serif" font-size="10.00">_queue_consumer.hpp</text>
</a>
</g>
</g>
<!-- Node1&#45;&gt;Node8 -->
<g id="edge7" class="edge">
<title>Node1&#45;&gt;Node8</title>
<path fill="none" stroke="midnightblue" d="M475.3,-127.6C486.47,-117.78 499.49,-106.34 509.47,-97.58"/>
<polygon fill="midnightblue" stroke="midnightblue" points="472.76,-125.17 467.56,-134.4 477.38,-130.43 472.76,-125.17"/>
</g>
<!-- Node10 -->
<g id="node10" class="node">
<title>Node10</title>
<g id="a_node10"><a xlink:href="json__request__executor_8hpp.html" target="_top" xlink:title="Defines the JsonRequestExecutorHandler class for executing JSON&#45;based requests.">
<polygon fill="white" stroke="black" points="607.5,-67.5 607.5,-97.5 749.5,-97.5 749.5,-67.5 607.5,-67.5"/>
<text text-anchor="start" x="615.5" y="-85.5" font-family="Helvetica,sans-Serif" font-size="10.00">executor/inc/json_request</text>
<text text-anchor="middle" x="678.5" y="-74.5" font-family="Helvetica,sans-Serif" font-size="10.00">_executor.hpp</text>
</a>
</g>
</g>
<!-- Node1&#45;&gt;Node10 -->
<g id="edge9" class="edge">
<title>Node1&#45;&gt;Node10</title>
<path fill="none" stroke="midnightblue" d="M510.12,-131.71C547.06,-121.14 594.21,-107.63 629.22,-97.61"/>
<polygon fill="midnightblue" stroke="midnightblue" points="509.13,-128.36 500.48,-134.48 511.05,-135.09 509.13,-128.36"/>
</g>
<!-- Node13 -->
<g id="node13" class="node">
<title>Node13</title>
<g id="a_node13"><a xlink:href="protobuf__request__executor_8hpp.html" target="_top" xlink:title="Defines the ProtoRequestExecutorHandler class for handling Protobuf&#45;based requests.">
<polygon fill="white" stroke="black" points="807.5,-67.5 807.5,-97.5 935.5,-97.5 935.5,-67.5 807.5,-67.5"/>
<text text-anchor="start" x="815.5" y="-85.5" font-family="Helvetica,sans-Serif" font-size="10.00">executor/inc/protobuf</text>
<text text-anchor="middle" x="871.5" y="-74.5" font-family="Helvetica,sans-Serif" font-size="10.00">_request_executor.hpp</text>
</a>
</g>
</g>
<!-- Node1&#45;&gt;Node13 -->
<g id="edge12" class="edge">
<title>Node1&#45;&gt;Node13</title>
<path fill="none" stroke="midnightblue" d="M519.82,-137.93C599.36,-125.62 729.72,-105.44 807.41,-93.42"/>
<polygon fill="midnightblue" stroke="midnightblue" points="519.25,-134.47 509.9,-139.46 520.32,-141.39 519.25,-134.47"/>
</g>
<!-- Node3 -->
<g id="node3" class="node">
<title>Node3</title>
<g id="a_node3"><a xlink:href="dbus__consumer_8cpp.html" target="_top" xlink:title="Implements the DBusConsumer class for receiving and processing JSON/Protobuf requests over D&#45;Bus.">
<polygon fill="white" stroke="black" points="0,-6 0,-25 149,-25 149,-6 0,-6"/>
<text text-anchor="middle" x="74.5" y="-13" font-family="Helvetica,sans-Serif" font-size="10.00">api/src/dbus_consumer.cpp</text>
</a>
</g>
</g>
<!-- Node2&#45;&gt;Node3 -->
<g id="edge2" class="edge">
<title>Node2&#45;&gt;Node3</title>
<path fill="none" stroke="midnightblue" d="M74.5,-62.54C74.5,-50.17 74.5,-34.62 74.5,-25.13"/>
<polygon fill="midnightblue" stroke="midnightblue" points="71,-62.73 74.5,-72.73 78,-62.73 71,-62.73"/>
</g>
<!-- Node5 -->
<g id="node5" class="node">
<title>Node5</title>
<g id="a_node5"><a xlink:href="http__server_8cpp.html" target="_top" xlink:title="Implements the HttpServerHandler class for handling HTTP requests.">
<polygon fill="white" stroke="black" points="167.5,-6 167.5,-25 295.5,-25 295.5,-6 167.5,-6"/>
<text text-anchor="middle" x="231.5" y="-13" font-family="Helvetica,sans-Serif" font-size="10.00">api/src/http_server.cpp</text>
</a>
</g>
</g>
<!-- Node4&#45;&gt;Node5 -->
<g id="edge4" class="edge">
<title>Node4&#45;&gt;Node5</title>
<path fill="none" stroke="midnightblue" d="M231.5,-62.54C231.5,-50.17 231.5,-34.62 231.5,-25.13"/>
<polygon fill="midnightblue" stroke="midnightblue" points="228,-62.73 231.5,-72.73 235,-62.73 228,-62.73"/>
</g>
<!-- Node7 -->
<g id="node7" class="node">
<title>Node7</title>
<g id="a_node7"><a xlink:href="mosquitto__mqtt__subscriber_8cpp.html" target="_top" xlink:title="Implements the MosquittoMqttSubscriber class for handling MQTT messages using Mosquitto.">
<polygon fill="white" stroke="black" points="313.5,-0.5 313.5,-30.5 443.5,-30.5 443.5,-0.5 313.5,-0.5"/>
<text text-anchor="start" x="321.5" y="-18.5" font-family="Helvetica,sans-Serif" font-size="10.00">api/src/mosquitto_mqtt</text>
<text text-anchor="middle" x="378.5" y="-7.5" font-family="Helvetica,sans-Serif" font-size="10.00">_subscriber.cpp</text>
</a>
</g>
</g>
<!-- Node6&#45;&gt;Node7 -->
<g id="edge6" class="edge">
<title>Node6&#45;&gt;Node7</title>
<path fill="none" stroke="midnightblue" d="M378.5,-57.11C378.5,-48.15 378.5,-38.32 378.5,-30.58"/>
<polygon fill="midnightblue" stroke="midnightblue" points="375,-57.4 378.5,-67.4 382,-57.4 375,-57.4"/>
</g>
<!-- Node9 -->
<g id="node9" class="node">
<title>Node9</title>
<g id="a_node9"><a xlink:href="posix__message__queue__consumer_8cpp.html" target="_top" xlink:title="Implements the MessageQueueConsumer class for handling messages from a POSIX message queue.">
<polygon fill="white" stroke="black" points="461.5,-0.5 461.5,-30.5 589.5,-30.5 589.5,-0.5 461.5,-0.5"/>
<text text-anchor="start" x="469.5" y="-18.5" font-family="Helvetica,sans-Serif" font-size="10.00">api/src/posix_message</text>
<text text-anchor="middle" x="525.5" y="-7.5" font-family="Helvetica,sans-Serif" font-size="10.00">_queue_consumer.cpp</text>
</a>
</g>
</g>
<!-- Node8&#45;&gt;Node9 -->
<g id="edge8" class="edge">
<title>Node8&#45;&gt;Node9</title>
<path fill="none" stroke="midnightblue" d="M525.5,-57.11C525.5,-48.15 525.5,-38.32 525.5,-30.58"/>
<polygon fill="midnightblue" stroke="midnightblue" points="522,-57.4 525.5,-67.4 529,-57.4 522,-57.4"/>
</g>
<!-- Node11 -->
<g id="node11" class="node">
<title>Node11</title>
<g id="a_node11"><a xlink:href="json__request__executor_8cpp.html" target="_top" xlink:title="Implements the JsonRequestExecutorHandler class for executing JSON&#45;based requests.">
<polygon fill="white" stroke="black" points="607.5,-0.5 607.5,-30.5 749.5,-30.5 749.5,-0.5 607.5,-0.5"/>
<text text-anchor="start" x="615.5" y="-18.5" font-family="Helvetica,sans-Serif" font-size="10.00">executor/src/json_request</text>
<text text-anchor="middle" x="678.5" y="-7.5" font-family="Helvetica,sans-Serif" font-size="10.00">_executor.cpp</text>
</a>
</g>
</g>
<!-- Node10&#45;&gt;Node11 -->
<g id="edge10" class="edge">
<title>Node10&#45;&gt;Node11</title>
<path fill="none" stroke="midnightblue" d="M678.5,-57.11C678.5,-48.15 678.5,-38.32 678.5,-30.58"/>
<polygon fill="midnightblue" stroke="midnightblue" points="675,-57.4 678.5,-67.4 682,-57.4 675,-57.4"/>
</g>
<!-- Node12 -->
<g id="node12" class="node">
<title>Node12</title>
<g id="a_node12"><a xlink:href="main_8cpp.html" target="_top" xlink:title="Entry point for the Container Manager application.">
<polygon fill="white" stroke="black" points="767.5,-6 767.5,-25 829.5,-25 829.5,-6 767.5,-6"/>
<text text-anchor="middle" x="798.5" y="-13" font-family="Helvetica,sans-Serif" font-size="10.00">main.cpp</text>
</a>
</g>
</g>
<!-- Node10&#45;&gt;Node12 -->
<g id="edge11" class="edge">
<title>Node10&#45;&gt;Node12</title>
<path fill="none" stroke="midnightblue" d="M713.63,-62.47C736.54,-50.06 765.32,-34.47 782.79,-25.01"/>
<polygon fill="midnightblue" stroke="midnightblue" points="711.66,-59.56 704.54,-67.4 715,-65.71 711.66,-59.56"/>
</g>
<!-- Node14 -->
<g id="node14" class="node">
<title>Node14</title>
<g id="a_node14"><a xlink:href="protobuf__request__executor_8cpp.html" target="_top" xlink:title="Implements the ProtoRequestExecutorHandler class for handling Protobuf&#45;based requests.">
<polygon fill="white" stroke="black" points="848,-0.5 848,-30.5 975,-30.5 975,-0.5 848,-0.5"/>
<text text-anchor="start" x="856" y="-18.5" font-family="Helvetica,sans-Serif" font-size="10.00">executor/src/protobuf</text>
<text text-anchor="middle" x="911.5" y="-7.5" font-family="Helvetica,sans-Serif" font-size="10.00">_request_executor.cpp</text>
</a>
</g>
</g>
<!-- Node13&#45;&gt;Node14 -->
<g id="edge13" class="edge">
<title>Node13&#45;&gt;Node14</title>
<path fill="none" stroke="midnightblue" d="M885.43,-58.87C891.22,-49.46 897.76,-38.83 902.84,-30.58"/>
<polygon fill="midnightblue" stroke="midnightblue" points="882.44,-57.05 880.18,-67.4 888.4,-60.71 882.44,-57.05"/>
</g>
</g>
</svg>
        <g id="navigator" transform="translate(0 0)" fill="#404254">
                <rect fill="#f2f5e9" fill-opacity="0.5" stroke="#606060" stroke-width=".5" x="0" y="0" width="60" height="60"/>
                <use id="zoomplus" xlink:href="#zoomPlus" x="17" y="9" onmousedown="handleZoom(evt,'in')"/>
                <use id="zoomminus" xlink:href="#zoomMin" x="42" y="9" onmousedown="handleZoom(evt,'out')"/>
                <use id="reset" xlink:href="#resetDef" x="30" y="36" onmousedown="handleReset()"/>
                <g id="arrowUp" xlink:href="#dirArrow" transform="translate(30 24)" onmousedown="handlePan(0,-1)">
                  <use xlink:href="#rim" fill="#404040">
                        <set attributeName="fill" to="#808080" begin="arrowUp.mouseover" end="arrowUp.mouseout"/>
                  </use>
                  <path fill="none" stroke="white" stroke-width="1.5" d="M0,-3.0v7 M-2.5,-0.5L0,-3.0L2.5,-0.5"/>
                </g>
                <g id="arrowRight" xlink:href="#dirArrow" transform="rotate(90) translate(36 -43)" onmousedown="handlePan(1,0)">
                  <use xlink:href="#rim" fill="#404040">
                        <set attributeName="fill" to="#808080" begin="arrowRight.mouseover" end="arrowRight.mouseout"/>
                  </use>
                  <path fill="none" stroke="white" stroke-width="1.5" d="M0,-3.0v7 M-2.5,-0.5L0,-3.0L2.5,-0.5"/>
                </g>
                <g id="arrowDown" xlink:href="#dirArrow" transform="rotate(180) translate(-30 -48)" onmousedown="handlePan(0,1)">
                  <use xlink:href="#rim" fill="#404040">
                        <set attributeName="fill" to="#808080" begin="arrowDown.mouseover" end="arrowDown.mouseout"/>
                  </use>
                  <path fill="none" stroke="white" stroke-width="1.5" d="M0,-3.0v7 M-2.5,-0.5L0,-3.0L2.5,-0.5"/>
                </g>
                <g id="arrowLeft" xlink:href="#dirArrow" transform="rotate(270) translate(-36 17)" onmousedown="handlePan(-1,0)">
                  <use xlink:href="#rim" fill="#404040">
                        <set attributeName="fill" to="#808080" begin="arrowLeft.mouseover" end="arrowLeft.mouseout"/>
                  </use>
                  <path fill="none" stroke="white" stroke-width="1.5" d="M0,-3.0v7 M-2.5,-0.5L0,-3.0L2.5,-0.5"/>
                </g>
        </g>
        <svg viewBox="0 0 15 15" width="100%" height="30px" preserveAspectRatio="xMaxYMin meet">
         <g id="arrow_out" transform="scale(0.3 0.3)">
          <a xlink:href="request__executor_8hpp__dep__incl_org.svg" target="_base">
           <rect id="button" ry="5" rx="5" y="6" x="6" height="38" width="38"
                fill="#f2f5e9" fill-opacity="0.5" stroke="#606060" stroke-width="1.0"/>
           <path id="arrow"
             d="M 11.500037,31.436501 C 11.940474,20.09759 22.043105,11.32322 32.158766,21.979434 L 37.068811,17.246167 C 37.068811,17.246167 37.088388,32 37.088388,32 L 22.160133,31.978069 C 22.160133,31.978069 26.997745,27.140456 26.997745,27.140456 C 18.528582,18.264221 13.291696,25.230495 11.500037,31.436501 z"
             style="fill:#404040;"/>
          </a>
         </g>
        </svg>
</svg>
