<?xml version="1.0" encoding="UTF-8" standalone="no"?>
<!DOCTYPE svg PUBLIC "-//W3C//DTD SVG 1.1//EN"
 "http://www.w3.org/Graphics/SVG/1.1/DTD/svg11.dtd">
<!-- Generated by graphviz version 2.43.0 (0)
 -->
<!-- Title: executor/inc/request_executor.hpp Pages: 1 -->
<svg width="1069pt" height="229pt"
 viewBox="0.00 0.00 1069.41 229.00" xmlns="http://www.w3.org/2000/svg" xmlns:xlink="http://www.w3.org/1999/xlink">
<g id="graph0" class="graph" transform="scale(1 1) rotate(0) translate(4 225)">
<title>executor/inc/request_executor.hpp</title>
<polygon fill="white" stroke="transparent" points="-4,4 -4,-225 1065.41,-225 1065.41,4 -4,4"/>
<!-- Node1 -->
<g id="node1" class="node">
<title>Node1</title>
<g id="a_node1"><a xlink:title="Declares the abstract RequestExecutor interface for executing requests.">
<polygon fill="#bfbfbf" stroke="black" points="373.41,-190.5 373.41,-220.5 489.41,-220.5 489.41,-190.5 373.41,-190.5"/>
<text text-anchor="start" x="381.41" y="-208.5" font-family="Helvetica,sans-Serif" font-size="10.00">executor/inc/request</text>
<text text-anchor="middle" x="431.41" y="-197.5" font-family="Helvetica,sans-Serif" font-size="10.00">_executor.hpp</text>
</a>
</g>
</g>
<!-- Node2 -->
<g id="node2" class="node">
<title>Node2</title>
<g id="a_node2"><a xlink:href="dbus__consumer_8hpp.html" target="_top" xlink:title="Defines the DbusConsumer class for receiving and processing JSON requests over D&#45;Bus.">
<polygon fill="white" stroke="black" points="356.91,-129 356.91,-148 505.91,-148 505.91,-129 356.91,-129"/>
<text text-anchor="middle" x="431.41" y="-136" font-family="Helvetica,sans-Serif" font-size="10.00">api/inc/dbus_consumer.hpp</text>
</a>
</g>
</g>
<!-- Node1&#45;&gt;Node2 -->
<g id="edge1" class="edge">
<title>Node1&#45;&gt;Node2</title>
<path fill="none" stroke="midnightblue" d="M431.41,-180.25C431.41,-169.02 431.41,-156.38 431.41,-148.19"/>
<polygon fill="midnightblue" stroke="midnightblue" points="427.91,-180.4 431.41,-190.4 434.91,-180.4 427.91,-180.4"/>
</g>
<!-- Node5 -->
<g id="node5" class="node">
<title>Node5</title>
<g id="a_node5"><a xlink:href="mosquitto__mqtt__subscriber_8hpp.html" target="_top" xlink:title="Declares the MosquittoMqttSubscriber class for handling MQTT messages using Mosquitto.">
<polygon fill="white" stroke="black" points="208.41,-123.5 208.41,-153.5 338.41,-153.5 338.41,-123.5 208.41,-123.5"/>
<text text-anchor="start" x="216.41" y="-141.5" font-family="Helvetica,sans-Serif" font-size="10.00">api/inc/mosquitto_mqtt</text>
<text text-anchor="middle" x="273.41" y="-130.5" font-family="Helvetica,sans-Serif" font-size="10.00">_subscriber.hpp</text>
</a>
</g>
</g>
<!-- Node1&#45;&gt;Node5 -->
<g id="edge4" class="edge">
<title>Node1&#45;&gt;Node5</title>
<path fill="none" stroke="midnightblue" d="M387.76,-186.54C362.48,-176.14 331.11,-163.24 307.62,-153.58"/>
<polygon fill="midnightblue" stroke="midnightblue" points="386.54,-189.83 397.12,-190.4 389.21,-183.35 386.54,-189.83"/>
</g>
<!-- Node7 -->
<g id="node7" class="node">
<title>Node7</title>
<g id="a_node7"><a xlink:href="posix__message__queue__consumer_8hpp.html" target="_top" xlink:title="Declares the MessageQueueConsumer class for handling messages from a POSIX message queue.">
<polygon fill="white" stroke="black" points="15.41,-123.5 15.41,-153.5 143.41,-153.5 143.41,-123.5 15.41,-123.5"/>
<text text-anchor="start" x="23.41" y="-141.5" font-family="Helvetica,sans-Serif" font-size="10.00">api/inc/posix_message</text>
<text text-anchor="middle" x="79.41" y="-130.5" font-family="Helvetica,sans-Serif" font-size="10.00">_queue_consumer.hpp</text>
</a>
</g>
</g>
<!-- Node1&#45;&gt;Node7 -->
<g id="edge7" class="edge">
<title>Node1&#45;&gt;Node7</title>
<path fill="none" stroke="midnightblue" d="M363.36,-191.93C299.86,-180.21 205.81,-162.84 143.59,-151.35"/>
<polygon fill="midnightblue" stroke="midnightblue" points="362.81,-195.39 373.28,-193.77 364.08,-188.51 362.81,-195.39"/>
</g>
<!-- Node9 -->
<g id="node9" class="node">
<title>Node9</title>
<g id="a_node9"><a xlink:href="json__request__executor_8hpp.html" target="_top" xlink:title="Defines the JsonRequestExecutorHandler class for executing JSON&#45;based requests.">
<polygon fill="white" stroke="black" points="723.41,-123.5 723.41,-153.5 865.41,-153.5 865.41,-123.5 723.41,-123.5"/>
<text text-anchor="start" x="731.41" y="-141.5" font-family="Helvetica,sans-Serif" font-size="10.00">executor/inc/json_request</text>
<text text-anchor="middle" x="794.41" y="-130.5" font-family="Helvetica,sans-Serif" font-size="10.00">_executor.hpp</text>
</a>
</g>
</g>
<!-- Node1&#45;&gt;Node9 -->
<g id="edge10" class="edge">
<title>Node1&#45;&gt;Node9</title>
<path fill="none" stroke="midnightblue" d="M499.69,-192.27C563.5,-180.85 658.38,-163.86 723.13,-152.26"/>
<polygon fill="midnightblue" stroke="midnightblue" points="498.96,-188.85 489.73,-194.06 500.19,-195.74 498.96,-188.85"/>
</g>
<!-- Node13 -->
<g id="node13" class="node">
<title>Node13</title>
<g id="a_node13"><a xlink:href="protobuf__request__executor_8hpp.html" target="_top" xlink:title="Defines the ProtoRequestExecutorHandler class for handling Protobuf&#45;based requests.">
<polygon fill="white" stroke="black" points="524.41,-123.5 524.41,-153.5 652.41,-153.5 652.41,-123.5 524.41,-123.5"/>
<text text-anchor="start" x="532.41" y="-141.5" font-family="Helvetica,sans-Serif" font-size="10.00">executor/inc/protobuf</text>
<text text-anchor="middle" x="588.41" y="-130.5" font-family="Helvetica,sans-Serif" font-size="10.00">_request_executor.hpp</text>
</a>
</g>
</g>
<!-- Node1&#45;&gt;Node13 -->
<g id="edge16" class="edge">
<title>Node1&#45;&gt;Node13</title>
<path fill="none" stroke="midnightblue" d="M474.78,-186.54C499.9,-176.14 531.07,-163.24 554.41,-153.58"/>
<polygon fill="midnightblue" stroke="midnightblue" points="473.37,-183.34 465.47,-190.4 476.05,-189.8 473.37,-183.34"/>
</g>
<!-- Node3 -->
<g id="node3" class="node">
<title>Node3</title>
<g id="a_node3"><a xlink:href="dbus__consumer_8cpp.html" target="_top" xlink:title="Implements the DbusConsumer class for receiving and processing JSON requests over D&#45;Bus.">
<polygon fill="white" stroke="black" points="384.91,-62 384.91,-81 533.91,-81 533.91,-62 384.91,-62"/>
<text text-anchor="middle" x="459.41" y="-69" font-family="Helvetica,sans-Serif" font-size="10.00">api/src/dbus_consumer.cpp</text>
</a>
</g>
</g>
<!-- Node2&#45;&gt;Node3 -->
<g id="edge2" class="edge">
<title>Node2&#45;&gt;Node3</title>
<path fill="none" stroke="midnightblue" d="M439.25,-119.29C444.63,-106.81 451.52,-90.81 455.69,-81.13"/>
<polygon fill="midnightblue" stroke="midnightblue" points="435.92,-118.16 435.18,-128.73 442.35,-120.93 435.92,-118.16"/>
</g>
<!-- Node4 -->
<g id="node4" class="node">
<title>Node4</title>
<g id="a_node4"><a xlink:href="main_8cpp.html" target="_top" xlink:title="Entry point for the Container Manager application.">
<polygon fill="white" stroke="black" points="428.41,-0.5 428.41,-19.5 490.41,-19.5 490.41,-0.5 428.41,-0.5"/>
<text text-anchor="middle" x="459.41" y="-7.5" font-family="Helvetica,sans-Serif" font-size="10.00">main.cpp</text>
</a>
</g>
</g>
<!-- Node2&#45;&gt;Node4 -->
<g id="edge3" class="edge">
<title>Node2&#45;&gt;Node4</title>
<path fill="none" stroke="midnightblue" d="M407.8,-123.22C395.68,-114.45 382.09,-102.02 375.41,-87 369.81,-74.41 368.33,-67.82 375.41,-56 386.79,-36.98 409.28,-25.54 428.12,-18.96"/>
<polygon fill="midnightblue" stroke="midnightblue" points="406.01,-126.23 416.25,-128.95 409.93,-120.44 406.01,-126.23"/>
</g>
<!-- Node5&#45;&gt;Node4 -->
<g id="edge6" class="edge">
<title>Node5&#45;&gt;Node4</title>
<path fill="none" stroke="midnightblue" d="M294.65,-116.22C312.9,-98.66 340.46,-73.84 367.41,-56 390.24,-40.89 418.9,-27.67 438.1,-19.54"/>
<polygon fill="midnightblue" stroke="midnightblue" points="292.15,-113.77 287.43,-123.25 297.03,-118.78 292.15,-113.77"/>
</g>
<!-- Node6 -->
<g id="node6" class="node">
<title>Node6</title>
<g id="a_node6"><a xlink:href="mosquitto__mqtt__subscriber_8cpp.html" target="_top" xlink:title="Implements the MosquittoMqttSubscriber class for handling MQTT messages using Mosquitto.">
<polygon fill="white" stroke="black" points="161.41,-56.5 161.41,-86.5 291.41,-86.5 291.41,-56.5 161.41,-56.5"/>
<text text-anchor="start" x="169.41" y="-74.5" font-family="Helvetica,sans-Serif" font-size="10.00">api/src/mosquitto_mqtt</text>
<text text-anchor="middle" x="226.41" y="-63.5" font-family="Helvetica,sans-Serif" font-size="10.00">_subscriber.cpp</text>
</a>
</g>
</g>
<!-- Node5&#45;&gt;Node6 -->
<g id="edge5" class="edge">
<title>Node5&#45;&gt;Node6</title>
<path fill="none" stroke="midnightblue" d="M257.25,-115.16C250.4,-105.68 242.62,-94.92 236.58,-86.58"/>
<polygon fill="midnightblue" stroke="midnightblue" points="254.51,-117.34 263.21,-123.4 260.18,-113.24 254.51,-117.34"/>
</g>
<!-- Node7&#45;&gt;Node4 -->
<g id="edge9" class="edge">
<title>Node7&#45;&gt;Node4</title>
<path fill="none" stroke="midnightblue" d="M42.65,-118.18C15.82,-101.63 -12.78,-77.19 6.41,-56 34.69,-24.77 330.19,-14.34 428.09,-11.73"/>
<polygon fill="midnightblue" stroke="midnightblue" points="41.22,-121.4 51.61,-123.47 44.78,-115.37 41.22,-121.4"/>
</g>
<!-- Node8 -->
<g id="node8" class="node">
<title>Node8</title>
<g id="a_node8"><a xlink:href="posix__message__queue__consumer_8cpp.html" target="_top" xlink:title="Implements the MessageQueueConsumer class for handling messages from a POSIX message queue.">
<polygon fill="white" stroke="black" points="15.41,-56.5 15.41,-86.5 143.41,-86.5 143.41,-56.5 15.41,-56.5"/>
<text text-anchor="start" x="23.41" y="-74.5" font-family="Helvetica,sans-Serif" font-size="10.00">api/src/posix_message</text>
<text text-anchor="middle" x="79.41" y="-63.5" font-family="Helvetica,sans-Serif" font-size="10.00">_queue_consumer.cpp</text>
</a>
</g>
</g>
<!-- Node7&#45;&gt;Node8 -->
<g id="edge8" class="edge">
<title>Node7&#45;&gt;Node8</title>
<path fill="none" stroke="midnightblue" d="M79.41,-113.11C79.41,-104.15 79.41,-94.32 79.41,-86.58"/>
<polygon fill="midnightblue" stroke="midnightblue" points="75.91,-113.4 79.41,-123.4 82.91,-113.4 75.91,-113.4"/>
</g>
<!-- Node9&#45;&gt;Node4 -->
<g id="edge15" class="edge">
<title>Node9&#45;&gt;Node4</title>
<path fill="none" stroke="midnightblue" d="M781.71,-114.7C769.92,-95.81 750.58,-69.88 726.41,-56 686.56,-33.12 551.86,-18.94 490.42,-13.52"/>
<polygon fill="midnightblue" stroke="midnightblue" points="778.73,-116.55 786.88,-123.33 784.74,-112.95 778.73,-116.55"/>
</g>
<!-- Node10 -->
<g id="node10" class="node">
<title>Node10</title>
<g id="a_node10"><a xlink:href="http__server_8hpp.html" target="_top" xlink:title="Defines the HttpServerHandler class for handling HTTP requests.">
<polygon fill="white" stroke="black" points="933.41,-62 933.41,-81 1061.41,-81 1061.41,-62 933.41,-62"/>
<text text-anchor="middle" x="997.41" y="-69" font-family="Helvetica,sans-Serif" font-size="10.00">api/inc/http_server.hpp</text>
</a>
</g>
</g>
<!-- Node9&#45;&gt;Node10 -->
<g id="edge11" class="edge">
<title>Node9&#45;&gt;Node10</title>
<path fill="none" stroke="midnightblue" d="M848.22,-120.27C887.78,-107.6 939.83,-90.93 970.84,-81.01"/>
<polygon fill="midnightblue" stroke="midnightblue" points="846.91,-117.01 838.45,-123.4 849.05,-123.68 846.91,-117.01"/>
</g>
<!-- Node12 -->
<g id="node12" class="node">
<title>Node12</title>
<g id="a_node12"><a xlink:href="json__request__executor_8cpp.html" target="_top" xlink:title="Implements the JsonRequestExecutorHandler class for executing JSON&#45;based requests.">
<polygon fill="white" stroke="black" points="773.41,-56.5 773.41,-86.5 915.41,-86.5 915.41,-56.5 773.41,-56.5"/>
<text text-anchor="start" x="781.41" y="-74.5" font-family="Helvetica,sans-Serif" font-size="10.00">executor/src/json_request</text>
<text text-anchor="middle" x="844.41" y="-63.5" font-family="Helvetica,sans-Serif" font-size="10.00">_executor.cpp</text>
</a>
</g>
</g>
<!-- Node9&#45;&gt;Node12 -->
<g id="edge14" class="edge">
<title>Node9&#45;&gt;Node12</title>
<path fill="none" stroke="midnightblue" d="M811.37,-115.45C818.72,-105.9 827.1,-95 833.58,-86.58"/>
<polygon fill="midnightblue" stroke="midnightblue" points="808.58,-113.34 805.26,-123.4 814.13,-117.6 808.58,-113.34"/>
</g>
<!-- Node10&#45;&gt;Node4 -->
<g id="edge13" class="edge">
<title>Node10&#45;&gt;Node4</title>
<path fill="none" stroke="midnightblue" d="M948.23,-60.04C940.29,-58.55 932.14,-57.14 924.41,-56 761.92,-32.06 565.54,-17.84 490.55,-12.94"/>
<polygon fill="midnightblue" stroke="midnightblue" points="947.65,-63.49 958.13,-61.95 948.98,-56.62 947.65,-63.49"/>
</g>
<!-- Node11 -->
<g id="node11" class="node">
<title>Node11</title>
<g id="a_node11"><a xlink:href="http__server_8cpp.html" target="_top" xlink:title="Implements the HttpServerHandler class for handling HTTP requests.">
<polygon fill="white" stroke="black" points="933.41,-0.5 933.41,-19.5 1061.41,-19.5 1061.41,-0.5 933.41,-0.5"/>
<text text-anchor="middle" x="997.41" y="-7.5" font-family="Helvetica,sans-Serif" font-size="10.00">api/src/http_server.cpp</text>
</a>
</g>
</g>
<!-- Node10&#45;&gt;Node11 -->
<g id="edge12" class="edge">
<title>Node10&#45;&gt;Node11</title>
<path fill="none" stroke="midnightblue" d="M997.41,-51.82C997.41,-41 997.41,-27.9 997.41,-19.51"/>
<polygon fill="midnightblue" stroke="midnightblue" points="993.91,-51.98 997.41,-61.98 1000.91,-51.98 993.91,-51.98"/>
</g>
<!-- Node13&#45;&gt;Node4 -->
<g id="edge18" class="edge">
<title>Node13&#45;&gt;Node4</title>
<path fill="none" stroke="midnightblue" d="M579.24,-113.69C571.52,-96.07 559.07,-72.38 542.41,-56 525.46,-39.34 501.08,-27.11 483.13,-19.65"/>
<polygon fill="midnightblue" stroke="midnightblue" points="576.16,-115.38 583.24,-123.26 582.62,-112.69 576.16,-115.38"/>
</g>
<!-- Node14 -->
<g id="node14" class="node">
<title>Node14</title>
<g id="a_node14"><a xlink:href="protobuf__request__executor_8cpp.html" target="_top" xlink:title="Implements the ProtoRequestExecutorHandler class for handling Protobuf&#45;based requests.">
<polygon fill="white" stroke="black" points="589.91,-56.5 589.91,-86.5 716.91,-86.5 716.91,-56.5 589.91,-56.5"/>
<text text-anchor="start" x="597.91" y="-74.5" font-family="Helvetica,sans-Serif" font-size="10.00">executor/src/protobuf</text>
<text text-anchor="middle" x="653.41" y="-63.5" font-family="Helvetica,sans-Serif" font-size="10.00">_request_executor.cpp</text>
</a>
</g>
</g>
<!-- Node13&#45;&gt;Node14 -->
<g id="edge17" class="edge">
<title>Node13&#45;&gt;Node14</title>
<path fill="none" stroke="midnightblue" d="M609.6,-116.31C619.35,-106.56 630.65,-95.26 639.33,-86.58"/>
<polygon fill="midnightblue" stroke="midnightblue" points="607.11,-113.85 602.51,-123.4 612.06,-118.8 607.11,-113.85"/>
</g>
</g>
</svg>
