<?xml version="1.0" encoding="UTF-8" standalone="no"?>
<!DOCTYPE svg PUBLIC "-//W3C//DTD SVG 1.1//EN"
 "http://www.w3.org/Graphics/SVG/1.1/DTD/svg11.dtd">
<!-- Generated by graphviz version 2.43.0 (0)
 -->
<!-- Title: executor/inc/request_executor.hpp Pages: 1 -->
<svg width="292pt" height="151pt"
 viewBox="0.00 0.00 292.40 151.00" xmlns="http://www.w3.org/2000/svg" xmlns:xlink="http://www.w3.org/1999/xlink">
<g id="graph0" class="graph" transform="scale(1 1) rotate(0) translate(4 147)">
<title>executor/inc/request_executor.hpp</title>
<polygon fill="white" stroke="transparent" points="-4,4 -4,-147 288.4,-147 288.4,4 -4,4"/>
<!-- Node1 -->
<g id="node1" class="node">
<title>Node1</title>
<g id="a_node1"><a xlink:title="Declares the abstract RequestExecutor interface for executing requests.">
<polygon fill="#bfbfbf" stroke="black" points="9.9,-112.5 9.9,-142.5 125.9,-142.5 125.9,-112.5 9.9,-112.5"/>
<text text-anchor="start" x="17.9" y="-130.5" font-family="Helvetica,sans-Serif" font-size="10.00">executor/inc/request</text>
<text text-anchor="middle" x="67.9" y="-119.5" font-family="Helvetica,sans-Serif" font-size="10.00">_executor.hpp</text>
</a>
</g>
</g>
<!-- Node2 -->
<g id="node2" class="node">
<title>Node2</title>
<g id="a_node2"><a xlink:title=" ">
<polygon fill="white" stroke="#bfbfbf" points="76.9,-0.5 76.9,-19.5 120.9,-19.5 120.9,-0.5 76.9,-0.5"/>
<text text-anchor="middle" x="98.9" y="-7.5" font-family="Helvetica,sans-Serif" font-size="10.00">string</text>
</a>
</g>
</g>
<!-- Node1&#45;&gt;Node2 -->
<g id="edge1" class="edge">
<title>Node1&#45;&gt;Node2</title>
<path fill="none" stroke="midnightblue" d="M39.47,-112.35C16.55,-98.93 -9.81,-77.65 3.9,-56 17.63,-34.3 44.97,-22.86 66.81,-16.96"/>
<polygon fill="midnightblue" stroke="midnightblue" points="67.8,-20.32 76.69,-14.55 66.15,-13.51 67.8,-20.32"/>
</g>
<!-- Node3 -->
<g id="node3" class="node">
<title>Node3</title>
<g id="a_node3"><a xlink:title=" ">
<polygon fill="white" stroke="#bfbfbf" points="12.9,-56.5 12.9,-75.5 122.9,-75.5 122.9,-56.5 12.9,-56.5"/>
<text text-anchor="middle" x="67.9" y="-63.5" font-family="Helvetica,sans-Serif" font-size="10.00">nlohmann/json.hpp</text>
</a>
</g>
</g>
<!-- Node1&#45;&gt;Node3 -->
<g id="edge2" class="edge">
<title>Node1&#45;&gt;Node3</title>
<path fill="none" stroke="midnightblue" d="M67.9,-112.4C67.9,-104.47 67.9,-94.46 67.9,-85.86"/>
<polygon fill="midnightblue" stroke="midnightblue" points="71.4,-85.66 67.9,-75.66 64.4,-85.66 71.4,-85.66"/>
</g>
<!-- Node4 -->
<g id="node4" class="node">
<title>Node4</title>
<g id="a_node4"><a xlink:href="container__request_8hpp.html" target="_top" xlink:title="Data structure for representing a container operation request.">
<polygon fill="white" stroke="black" points="141.4,-56.5 141.4,-75.5 284.4,-75.5 284.4,-56.5 141.4,-56.5"/>
<text text-anchor="middle" x="212.9" y="-63.5" font-family="Helvetica,sans-Serif" font-size="10.00">inc/container_request.hpp</text>
</a>
</g>
</g>
<!-- Node1&#45;&gt;Node4 -->
<g id="edge3" class="edge">
<title>Node1&#45;&gt;Node4</title>
<path fill="none" stroke="midnightblue" d="M102.26,-112.4C126.59,-102.42 158.93,-89.15 182.35,-79.53"/>
<polygon fill="midnightblue" stroke="midnightblue" points="183.88,-82.69 191.8,-75.66 181.22,-76.22 183.88,-82.69"/>
</g>
<!-- Node4&#45;&gt;Node2 -->
<g id="edge4" class="edge">
<title>Node4&#45;&gt;Node2</title>
<path fill="none" stroke="midnightblue" d="M194.83,-56.44C176.32,-47.68 147.32,-33.94 126.04,-23.86"/>
<polygon fill="midnightblue" stroke="midnightblue" points="127.41,-20.63 116.88,-19.52 124.41,-26.96 127.41,-20.63"/>
</g>
</g>
</svg>
