<?xml version="1.0" encoding="UTF-8" standalone="no"?>
<!DOCTYPE svg PUBLIC "-//W3C//DTD SVG 1.1//EN"
 "http://www.w3.org/Graphics/SVG/1.1/DTD/svg11.dtd">
<!-- Generated by graphviz version 2.43.0 (0)
 -->
<!-- Title: security/inc/security_provider.hpp Pages: 1 -->
<svg width="843pt" height="173pt"
 viewBox="0.00 0.00 843.00 173.00" xmlns="http://www.w3.org/2000/svg" xmlns:xlink="http://www.w3.org/1999/xlink">
<g id="graph0" class="graph" transform="scale(1 1) rotate(0) translate(4 169)">
<title>security/inc/security_provider.hpp</title>
<polygon fill="white" stroke="transparent" points="-4,4 -4,-169 839,-169 839,4 -4,4"/>
<!-- Node1 -->
<g id="node1" class="node">
<title>Node1</title>
<g id="a_node1"><a xlink:title="Declares the ISecurityProvider abstract interface for encryption/decryption.">
<polygon fill="#bfbfbf" stroke="black" points="312.5,-134.5 312.5,-164.5 427.5,-164.5 427.5,-134.5 312.5,-134.5"/>
<text text-anchor="start" x="320.5" y="-152.5" font-family="Helvetica,sans-Serif" font-size="10.00">security/inc/security</text>
<text text-anchor="middle" x="370" y="-141.5" font-family="Helvetica,sans-Serif" font-size="10.00">_provider.hpp</text>
</a>
</g>
</g>
<!-- Node2 -->
<g id="node2" class="node">
<title>Node2</title>
<g id="a_node2"><a xlink:href="json__request__executor_8cpp.html" target="_top" xlink:title="Implementation of the JSON request executor for Container Manager.">
<polygon fill="white" stroke="black" points="0,-67.5 0,-97.5 142,-97.5 142,-67.5 0,-67.5"/>
<text text-anchor="start" x="8" y="-85.5" font-family="Helvetica,sans-Serif" font-size="10.00">executor/src/json_request</text>
<text text-anchor="middle" x="71" y="-74.5" font-family="Helvetica,sans-Serif" font-size="10.00">_executor.cpp</text>
</a>
</g>
</g>
<!-- Node1&#45;&gt;Node2 -->
<g id="edge1" class="edge">
<title>Node1&#45;&gt;Node2</title>
<path fill="none" stroke="midnightblue" d="M302.28,-133.78C252.29,-122.91 184.68,-108.21 135.48,-97.52"/>
<polygon fill="midnightblue" stroke="midnightblue" points="301.83,-137.26 312.35,-135.97 303.32,-130.42 301.83,-137.26"/>
</g>
<!-- Node3 -->
<g id="node3" class="node">
<title>Node3</title>
<g id="a_node3"><a xlink:href="protobuf__request__executor_8cpp.html" target="_top" xlink:title="Protocol Buffers request executor for Container Manager.">
<polygon fill="white" stroke="black" points="160.5,-67.5 160.5,-97.5 287.5,-97.5 287.5,-67.5 160.5,-67.5"/>
<text text-anchor="start" x="168.5" y="-85.5" font-family="Helvetica,sans-Serif" font-size="10.00">executor/src/protobuf</text>
<text text-anchor="middle" x="224" y="-74.5" font-family="Helvetica,sans-Serif" font-size="10.00">_request_executor.cpp</text>
</a>
</g>
</g>
<!-- Node1&#45;&gt;Node3 -->
<g id="edge2" class="edge">
<title>Node1&#45;&gt;Node3</title>
<path fill="none" stroke="midnightblue" d="M329.05,-130.27C305.8,-119.92 277.13,-107.15 255.62,-97.58"/>
<polygon fill="midnightblue" stroke="midnightblue" points="327.76,-133.53 338.32,-134.4 330.61,-127.13 327.76,-133.53"/>
</g>
<!-- Node4 -->
<g id="node4" class="node">
<title>Node4</title>
<g id="a_node4"><a xlink:href="aes__gcm__security__provider_8hpp.html" target="_top" xlink:title="Declares the AesGcmSecurityProvider class for AES&#45;256&#45;GCM decryption.">
<polygon fill="white" stroke="black" points="306,-67.5 306,-97.5 434,-97.5 434,-67.5 306,-67.5"/>
<text text-anchor="start" x="314" y="-85.5" font-family="Helvetica,sans-Serif" font-size="10.00">security/inc/aes_gcm</text>
<text text-anchor="middle" x="370" y="-74.5" font-family="Helvetica,sans-Serif" font-size="10.00">_security_provider.hpp</text>
</a>
</g>
</g>
<!-- Node1&#45;&gt;Node4 -->
<g id="edge3" class="edge">
<title>Node1&#45;&gt;Node4</title>
<path fill="none" stroke="midnightblue" d="M370,-124.11C370,-115.15 370,-105.32 370,-97.58"/>
<polygon fill="midnightblue" stroke="midnightblue" points="366.5,-124.4 370,-134.4 373.5,-124.4 366.5,-124.4"/>
</g>
<!-- Node6 -->
<g id="node6" class="node">
<title>Node6</title>
<g id="a_node6"><a xlink:href="chacha20__security__provider_8hpp.html" target="_top" xlink:title="Declares the ChaCha20SecurityProvider class for ChaCha20&#45;Poly1305 decryption.">
<polygon fill="white" stroke="black" points="452,-67.5 452,-97.5 580,-97.5 580,-67.5 452,-67.5"/>
<text text-anchor="start" x="460" y="-85.5" font-family="Helvetica,sans-Serif" font-size="10.00">security/inc/chacha20</text>
<text text-anchor="middle" x="516" y="-74.5" font-family="Helvetica,sans-Serif" font-size="10.00">_security_provider.hpp</text>
</a>
</g>
</g>
<!-- Node1&#45;&gt;Node6 -->
<g id="edge5" class="edge">
<title>Node1&#45;&gt;Node6</title>
<path fill="none" stroke="midnightblue" d="M410.95,-130.27C434.2,-119.92 462.87,-107.15 484.38,-97.58"/>
<polygon fill="midnightblue" stroke="midnightblue" points="409.39,-127.13 401.68,-134.4 412.24,-133.53 409.39,-127.13"/>
</g>
<!-- Node8 -->
<g id="node8" class="node">
<title>Node8</title>
<g id="a_node8"><a xlink:href="null__security__provider_8hpp.html" target="_top" xlink:title="Declares the NullSecurityProvider class for the &quot;no encryption&quot; case.">
<polygon fill="white" stroke="black" points="598,-67.5 598,-97.5 736,-97.5 736,-67.5 598,-67.5"/>
<text text-anchor="start" x="606" y="-85.5" font-family="Helvetica,sans-Serif" font-size="10.00">security/inc/null_security</text>
<text text-anchor="middle" x="667" y="-74.5" font-family="Helvetica,sans-Serif" font-size="10.00">_provider.hpp</text>
</a>
</g>
</g>
<!-- Node1&#45;&gt;Node8 -->
<g id="edge7" class="edge">
<title>Node1&#45;&gt;Node8</title>
<path fill="none" stroke="midnightblue" d="M437.61,-133.7C487.19,-122.85 554.09,-108.21 602.85,-97.54"/>
<polygon fill="midnightblue" stroke="midnightblue" points="436.64,-130.33 427.62,-135.89 438.13,-137.17 436.64,-130.33"/>
</g>
<!-- Node5 -->
<g id="node5" class="node">
<title>Node5</title>
<g id="a_node5"><a xlink:href="aes__gcm__security__provider_8cpp.html" target="_top" xlink:title="Implementation of the AesGcmSecurityProvider class for AES&#45;256&#45;GCM decryption.">
<polygon fill="white" stroke="black" points="306.5,-0.5 306.5,-30.5 433.5,-30.5 433.5,-0.5 306.5,-0.5"/>
<text text-anchor="start" x="314.5" y="-18.5" font-family="Helvetica,sans-Serif" font-size="10.00">security/src/aes_gcm</text>
<text text-anchor="middle" x="370" y="-7.5" font-family="Helvetica,sans-Serif" font-size="10.00">_security_provider.cpp</text>
</a>
</g>
</g>
<!-- Node4&#45;&gt;Node5 -->
<g id="edge4" class="edge">
<title>Node4&#45;&gt;Node5</title>
<path fill="none" stroke="midnightblue" d="M370,-57.11C370,-48.15 370,-38.32 370,-30.58"/>
<polygon fill="midnightblue" stroke="midnightblue" points="366.5,-57.4 370,-67.4 373.5,-57.4 366.5,-57.4"/>
</g>
<!-- Node7 -->
<g id="node7" class="node">
<title>Node7</title>
<g id="a_node7"><a xlink:href="chacha20__security__provider_8cpp.html" target="_top" xlink:title="Implementation of the ChaCha20SecurityProvider class for ChaCha20&#45;Poly1305 decryption.">
<polygon fill="white" stroke="black" points="452.5,-0.5 452.5,-30.5 579.5,-30.5 579.5,-0.5 452.5,-0.5"/>
<text text-anchor="start" x="460.5" y="-18.5" font-family="Helvetica,sans-Serif" font-size="10.00">security/src/chacha20</text>
<text text-anchor="middle" x="516" y="-7.5" font-family="Helvetica,sans-Serif" font-size="10.00">_security_provider.cpp</text>
</a>
</g>
</g>
<!-- Node6&#45;&gt;Node7 -->
<g id="edge6" class="edge">
<title>Node6&#45;&gt;Node7</title>
<path fill="none" stroke="midnightblue" d="M516,-57.11C516,-48.15 516,-38.32 516,-30.58"/>
<polygon fill="midnightblue" stroke="midnightblue" points="512.5,-57.4 516,-67.4 519.5,-57.4 512.5,-57.4"/>
</g>
<!-- Node9 -->
<g id="node9" class="node">
<title>Node9</title>
<g id="a_node9"><a xlink:href="main_8cpp.html" target="_top" xlink:title="Entry point for the Container Manager service.">
<polygon fill="white" stroke="black" points="617,-6 617,-25 679,-25 679,-6 617,-6"/>
<text text-anchor="middle" x="648" y="-13" font-family="Helvetica,sans-Serif" font-size="10.00">main.cpp</text>
</a>
</g>
</g>
<!-- Node8&#45;&gt;Node9 -->
<g id="edge8" class="edge">
<title>Node8&#45;&gt;Node9</title>
<path fill="none" stroke="midnightblue" d="M660.01,-57.6C656.7,-46.28 652.96,-33.46 650.54,-25.19"/>
<polygon fill="midnightblue" stroke="midnightblue" points="656.71,-58.78 662.88,-67.4 663.43,-56.82 656.71,-58.78"/>
</g>
<!-- Node10 -->
<g id="node10" class="node">
<title>Node10</title>
<g id="a_node10"><a xlink:href="null__security__provider_8cpp.html" target="_top" xlink:title="Implementation of the NullSecurityProvider class for the &quot;no encryption&quot; case.">
<polygon fill="white" stroke="black" points="697,-0.5 697,-30.5 835,-30.5 835,-0.5 697,-0.5"/>
<text text-anchor="start" x="705" y="-18.5" font-family="Helvetica,sans-Serif" font-size="10.00">security/src/null_security</text>
<text text-anchor="middle" x="766" y="-7.5" font-family="Helvetica,sans-Serif" font-size="10.00">_provider.cpp</text>
</a>
</g>
</g>
<!-- Node8&#45;&gt;Node10 -->
<g id="edge9" class="edge">
<title>Node8&#45;&gt;Node10</title>
<path fill="none" stroke="midnightblue" d="M697.11,-61.73C712.42,-51.68 730.69,-39.68 744.56,-30.58"/>
<polygon fill="midnightblue" stroke="midnightblue" points="694.92,-58.98 688.48,-67.4 698.76,-64.83 694.92,-58.98"/>
</g>
</g>
</svg>
