<?xml version="1.0" encoding="UTF-8" standalone="no"?>
<!DOCTYPE svg PUBLIC "-//W3C//DTD SVG 1.1//EN"
 "http://www.w3.org/Graphics/SVG/1.1/DTD/svg11.dtd">
<!-- Generated by graphviz version 2.43.0 (0)
 -->
<!-- Title: utils/inc/status.hpp Pages: 1 -->
<svg width="1297pt" height="229pt"
 viewBox="0.00 0.00 1296.50 229.00" xmlns="http://www.w3.org/2000/svg" xmlns:xlink="http://www.w3.org/1999/xlink">
<g id="graph0" class="graph" transform="scale(1 1) rotate(0) translate(4 225)">
<title>utils/inc/status.hpp</title>
<polygon fill="white" stroke="transparent" points="-4,4 -4,-225 1292.5,-225 1292.5,4 -4,4"/>
<!-- Node1 -->
<g id="node1" class="node">
<title>Node1</title>
<g id="a_node1"><a xlink:title="Defines status codes and a Status struct for standardized error handling.">
<polygon fill="#bfbfbf" stroke="black" points="626.5,-201.5 626.5,-220.5 735.5,-220.5 735.5,-201.5 626.5,-201.5"/>
<text text-anchor="middle" x="681" y="-208.5" font-family="Helvetica,sans-Serif" font-size="10.00">utils/inc/status.hpp</text>
</a>
</g>
</g>
<!-- Node2 -->
<g id="node2" class="node">
<title>Node2</title>
<g id="a_node2"><a xlink:href="container__service_8hpp.html" target="_top" xlink:title="Declares the ContainerServiceHandler class for business logic related to containers.">
<polygon fill="white" stroke="black" points="890,-134.5 890,-164.5 994,-164.5 994,-134.5 890,-134.5"/>
<text text-anchor="start" x="898" y="-152.5" font-family="Helvetica,sans-Serif" font-size="10.00">core/inc/container</text>
<text text-anchor="middle" x="942" y="-141.5" font-family="Helvetica,sans-Serif" font-size="10.00">_service.hpp</text>
</a>
</g>
</g>
<!-- Node1&#45;&gt;Node2 -->
<g id="edge1" class="edge">
<title>Node1&#45;&gt;Node2</title>
<path fill="none" stroke="midnightblue" d="M728.32,-199.21C773.89,-188.82 842.66,-173.15 889.8,-162.4"/>
<polygon fill="midnightblue" stroke="midnightblue" points="727.37,-195.84 718.39,-201.48 728.92,-202.66 727.37,-195.84"/>
</g>
<!-- Node5 -->
<g id="node5" class="node">
<title>Node5</title>
<g id="a_node5"><a xlink:href="json__request__executor_8cpp.html" target="_top" xlink:title="Implements the JsonRequestExecutorHandler class for executing JSON&#45;based requests.">
<polygon fill="white" stroke="black" points="792,-0.5 792,-30.5 934,-30.5 934,-0.5 792,-0.5"/>
<text text-anchor="start" x="800" y="-18.5" font-family="Helvetica,sans-Serif" font-size="10.00">executor/src/json_request</text>
<text text-anchor="middle" x="863" y="-7.5" font-family="Helvetica,sans-Serif" font-size="10.00">_executor.cpp</text>
</a>
</g>
</g>
<!-- Node1&#45;&gt;Node5 -->
<g id="edge11" class="edge">
<title>Node1&#45;&gt;Node5</title>
<path fill="none" stroke="midnightblue" d="M696.04,-194.01C730.88,-156.97 816.65,-65.78 849.71,-30.63"/>
<polygon fill="midnightblue" stroke="midnightblue" points="693.36,-191.75 689.06,-201.44 698.46,-196.55 693.36,-191.75"/>
</g>
<!-- Node8 -->
<g id="node8" class="node">
<title>Node8</title>
<g id="a_node8"><a xlink:href="protobuf__request__executor_8cpp.html" target="_top" xlink:title="Implements the ProtoRequestExecutorHandler class for handling Protobuf&#45;based requests.">
<polygon fill="white" stroke="black" points="1161.5,-0.5 1161.5,-30.5 1288.5,-30.5 1288.5,-0.5 1161.5,-0.5"/>
<text text-anchor="start" x="1169.5" y="-18.5" font-family="Helvetica,sans-Serif" font-size="10.00">executor/src/protobuf</text>
<text text-anchor="middle" x="1225" y="-7.5" font-family="Helvetica,sans-Serif" font-size="10.00">_request_executor.cpp</text>
</a>
</g>
</g>
<!-- Node1&#45;&gt;Node8 -->
<g id="edge12" class="edge">
<title>Node1&#45;&gt;Node8</title>
<path fill="none" stroke="midnightblue" d="M746.22,-207.04C878.4,-199.48 1170.17,-174.32 1227,-98 1241.54,-78.47 1235.64,-48.4 1230.2,-30.76"/>
<polygon fill="midnightblue" stroke="midnightblue" points="745.63,-203.57 735.84,-207.62 746.02,-210.56 745.63,-203.57"/>
</g>
<!-- Node9 -->
<g id="node9" class="node">
<title>Node9</title>
<g id="a_node9"><a xlink:href="commands_8hpp.html" target="_top" xlink:title="Declares the Command interface and Invoker class for the command pattern.">
<polygon fill="white" stroke="black" points="436,-140 436,-159 586,-159 586,-140 436,-140"/>
<text text-anchor="middle" x="511" y="-147" font-family="Helvetica,sans-Serif" font-size="10.00">runtime/inc/commands.hpp</text>
</a>
</g>
</g>
<!-- Node1&#45;&gt;Node9 -->
<g id="edge13" class="edge">
<title>Node1&#45;&gt;Node9</title>
<path fill="none" stroke="midnightblue" d="M646.95,-198.08C613.91,-186.52 564.58,-169.25 535.31,-159.01"/>
<polygon fill="midnightblue" stroke="midnightblue" points="646.05,-201.48 656.64,-201.48 648.36,-194.87 646.05,-201.48"/>
</g>
<!-- Node12 -->
<g id="node12" class="node">
<title>Node12</title>
<g id="a_node12"><a xlink:href="docker__api__commands_8hpp.html" target="_top" xlink:title="Declares command classes for managing containers via the Docker HTTP API over a Unix socket.">
<polygon fill="white" stroke="black" points="85.5,-67.5 85.5,-97.5 202.5,-97.5 202.5,-67.5 85.5,-67.5"/>
<text text-anchor="start" x="93.5" y="-85.5" font-family="Helvetica,sans-Serif" font-size="10.00">runtime/inc/docker</text>
<text text-anchor="middle" x="144" y="-74.5" font-family="Helvetica,sans-Serif" font-size="10.00">_api_commands.hpp</text>
</a>
</g>
</g>
<!-- Node1&#45;&gt;Node12 -->
<g id="edge29" class="edge">
<title>Node1&#45;&gt;Node12</title>
<path fill="none" stroke="midnightblue" d="M616.21,-205.43C550,-199.74 444.62,-187.84 356,-165 289.18,-147.77 214.65,-116.01 174.17,-97.64"/>
<polygon fill="midnightblue" stroke="midnightblue" points="616.24,-208.94 626.49,-206.29 616.82,-201.97 616.24,-208.94"/>
</g>
<!-- Node16 -->
<g id="node16" class="node">
<title>Node16</title>
<g id="a_node16"><a xlink:href="podman__api__commands_8hpp.html" target="_top" xlink:title="Declares command classes for managing containers via the Podman HTTP API over a Unix socket.">
<polygon fill="white" stroke="black" points="220.5,-67.5 220.5,-97.5 337.5,-97.5 337.5,-67.5 220.5,-67.5"/>
<text text-anchor="start" x="228.5" y="-85.5" font-family="Helvetica,sans-Serif" font-size="10.00">runtime/inc/podman</text>
<text text-anchor="middle" x="279" y="-74.5" font-family="Helvetica,sans-Serif" font-size="10.00">_api_commands.hpp</text>
</a>
</g>
</g>
<!-- Node1&#45;&gt;Node16 -->
<g id="edge30" class="edge">
<title>Node1&#45;&gt;Node16</title>
<path fill="none" stroke="midnightblue" d="M616.03,-204.41C563.8,-198.53 489.16,-186.94 427,-165 378.6,-147.91 327.21,-116.1 299.54,-97.68"/>
<polygon fill="midnightblue" stroke="midnightblue" points="615.85,-207.91 626.17,-205.52 616.6,-200.96 615.85,-207.91"/>
</g>
<!-- Node18 -->
<g id="node18" class="node">
<title>Node18</title>
<g id="a_node18"><a xlink:href="podman__commands_8hpp.html" target="_top" xlink:title="Declares Podman command classes for container operations.">
<polygon fill="white" stroke="black" points="623.5,-67.5 623.5,-97.5 738.5,-97.5 738.5,-67.5 623.5,-67.5"/>
<text text-anchor="start" x="631.5" y="-85.5" font-family="Helvetica,sans-Serif" font-size="10.00">runtime/inc/podman</text>
<text text-anchor="middle" x="681" y="-74.5" font-family="Helvetica,sans-Serif" font-size="10.00">_commands.hpp</text>
</a>
</g>
</g>
<!-- Node1&#45;&gt;Node18 -->
<g id="edge31" class="edge">
<title>Node1&#45;&gt;Node18</title>
<path fill="none" stroke="midnightblue" d="M681,-191.11C681,-165.63 681,-120.81 681,-97.89"/>
<polygon fill="midnightblue" stroke="midnightblue" points="677.5,-191.31 681,-201.31 684.5,-191.31 677.5,-191.31"/>
</g>
<!-- Node3 -->
<g id="node3" class="node">
<title>Node3</title>
<g id="a_node3"><a xlink:href="container__service_8cpp.html" target="_top" xlink:title="Implements the ContainerServiceHandler class for business logic related to containers.">
<polygon fill="white" stroke="black" points="536,-0.5 536,-30.5 640,-30.5 640,-0.5 536,-0.5"/>
<text text-anchor="start" x="544" y="-18.5" font-family="Helvetica,sans-Serif" font-size="10.00">core/src/container</text>
<text text-anchor="middle" x="588" y="-7.5" font-family="Helvetica,sans-Serif" font-size="10.00">_service.cpp</text>
</a>
</g>
</g>
<!-- Node2&#45;&gt;Node3 -->
<g id="edge2" class="edge">
<title>Node2&#45;&gt;Node3</title>
<path fill="none" stroke="midnightblue" d="M901.69,-130.29C862.75,-113 801.91,-86.78 748,-67 711.08,-53.45 668.61,-40.15 636.7,-30.6"/>
<polygon fill="midnightblue" stroke="midnightblue" points="900.54,-133.61 911.1,-134.48 903.39,-127.21 900.54,-133.61"/>
</g>
<!-- Node4 -->
<g id="node4" class="node">
<title>Node4</title>
<g id="a_node4"><a xlink:href="json__request__executor_8hpp.html" target="_top" xlink:title="Declares the JsonRequestExecutorHandler class for executing JSON&#45;based requests.">
<polygon fill="white" stroke="black" points="871,-67.5 871,-97.5 1013,-97.5 1013,-67.5 871,-67.5"/>
<text text-anchor="start" x="879" y="-85.5" font-family="Helvetica,sans-Serif" font-size="10.00">executor/inc/json_request</text>
<text text-anchor="middle" x="942" y="-74.5" font-family="Helvetica,sans-Serif" font-size="10.00">_executor.hpp</text>
</a>
</g>
</g>
<!-- Node2&#45;&gt;Node4 -->
<g id="edge3" class="edge">
<title>Node2&#45;&gt;Node4</title>
<path fill="none" stroke="midnightblue" d="M942,-124.11C942,-115.15 942,-105.32 942,-97.58"/>
<polygon fill="midnightblue" stroke="midnightblue" points="938.5,-124.4 942,-134.4 945.5,-124.4 938.5,-124.4"/>
</g>
<!-- Node2&#45;&gt;Node5 -->
<g id="edge8" class="edge">
<title>Node2&#45;&gt;Node5</title>
<path fill="none" stroke="midnightblue" d="M895.16,-129.53C882.07,-121.8 869.41,-111.44 862,-98 850.39,-76.93 854.64,-47.91 858.81,-30.78"/>
<polygon fill="midnightblue" stroke="midnightblue" points="893.77,-132.76 904.23,-134.47 897.12,-126.61 893.77,-132.76"/>
</g>
<!-- Node6 -->
<g id="node6" class="node">
<title>Node6</title>
<g id="a_node6"><a xlink:href="main_8cpp.html" target="_top" xlink:title="Entry point for the Container Manager application.">
<polygon fill="white" stroke="black" points="991,-6 991,-25 1053,-25 1053,-6 991,-6"/>
<text text-anchor="middle" x="1022" y="-13" font-family="Helvetica,sans-Serif" font-size="10.00">main.cpp</text>
</a>
</g>
</g>
<!-- Node2&#45;&gt;Node6 -->
<g id="edge10" class="edge">
<title>Node2&#45;&gt;Node6</title>
<path fill="none" stroke="midnightblue" d="M988.84,-129.53C1001.93,-121.8 1014.59,-111.44 1022,-98 1035.05,-74.33 1028.63,-40.61 1024.52,-25.02"/>
<polygon fill="midnightblue" stroke="midnightblue" points="986.88,-126.61 979.77,-134.47 990.23,-132.76 986.88,-126.61"/>
</g>
<!-- Node7 -->
<g id="node7" class="node">
<title>Node7</title>
<g id="a_node7"><a xlink:href="protobuf__request__executor_8hpp.html" target="_top" xlink:title="Declares the ProtoRequestExecutorHandler class for handling Protobuf&#45;based requests.">
<polygon fill="white" stroke="black" points="1069,-67.5 1069,-97.5 1197,-97.5 1197,-67.5 1069,-67.5"/>
<text text-anchor="start" x="1077" y="-85.5" font-family="Helvetica,sans-Serif" font-size="10.00">executor/inc/protobuf</text>
<text text-anchor="middle" x="1133" y="-74.5" font-family="Helvetica,sans-Serif" font-size="10.00">_request_executor.hpp</text>
</a>
</g>
</g>
<!-- Node2&#45;&gt;Node7 -->
<g id="edge6" class="edge">
<title>Node2&#45;&gt;Node7</title>
<path fill="none" stroke="midnightblue" d="M993.15,-131.09C1023.99,-120.6 1062.75,-107.41 1091.64,-97.58"/>
<polygon fill="midnightblue" stroke="midnightblue" points="991.78,-127.86 983.44,-134.4 994.04,-134.49 991.78,-127.86"/>
</g>
<!-- Node2&#45;&gt;Node8 -->
<g id="edge9" class="edge">
<title>Node2&#45;&gt;Node8</title>
<path fill="none" stroke="midnightblue" d="M1004.56,-144.29C1073.32,-138.36 1177.79,-125.1 1206,-98 1224.33,-80.39 1226.48,-48.77 1226,-30.52"/>
<polygon fill="midnightblue" stroke="midnightblue" points="1003.94,-140.83 994.26,-145.15 1004.52,-147.8 1003.94,-140.83"/>
</g>
<!-- Node4&#45;&gt;Node5 -->
<g id="edge4" class="edge">
<title>Node4&#45;&gt;Node5</title>
<path fill="none" stroke="midnightblue" d="M916.94,-60.88C904.94,-51.01 890.87,-39.43 880.11,-30.58"/>
<polygon fill="midnightblue" stroke="midnightblue" points="914.91,-63.75 924.86,-67.4 919.36,-58.34 914.91,-63.75"/>
</g>
<!-- Node4&#45;&gt;Node6 -->
<g id="edge5" class="edge">
<title>Node4&#45;&gt;Node6</title>
<path fill="none" stroke="midnightblue" d="M967.22,-61.01C982.07,-48.94 1000.09,-34.3 1011.3,-25.19"/>
<polygon fill="midnightblue" stroke="midnightblue" points="964.91,-58.37 959.36,-67.4 969.33,-63.81 964.91,-58.37"/>
</g>
<!-- Node7&#45;&gt;Node8 -->
<g id="edge7" class="edge">
<title>Node7&#45;&gt;Node8</title>
<path fill="none" stroke="midnightblue" d="M1161.38,-61.45C1175.53,-51.45 1192.31,-39.6 1205.08,-30.58"/>
<polygon fill="midnightblue" stroke="midnightblue" points="1159.11,-58.77 1152.96,-67.4 1163.15,-64.48 1159.11,-58.77"/>
</g>
<!-- Node10 -->
<g id="node10" class="node">
<title>Node10</title>
<g id="a_node10"><a xlink:href="command__factory_8hpp.html" target="_top" xlink:title="Declares the CommandFactory class for creating command objects based on container requests.">
<polygon fill="white" stroke="black" points="481,-67.5 481,-97.5 605,-97.5 605,-67.5 481,-67.5"/>
<text text-anchor="start" x="489" y="-85.5" font-family="Helvetica,sans-Serif" font-size="10.00">runtime/inc/command</text>
<text text-anchor="middle" x="543" y="-74.5" font-family="Helvetica,sans-Serif" font-size="10.00">_factory.hpp</text>
</a>
</g>
</g>
<!-- Node9&#45;&gt;Node10 -->
<g id="edge14" class="edge">
<title>Node9&#45;&gt;Node10</title>
<path fill="none" stroke="midnightblue" d="M519.76,-130.71C524.89,-120.29 531.28,-107.3 536.06,-97.59"/>
<polygon fill="midnightblue" stroke="midnightblue" points="516.59,-129.22 515.32,-139.73 522.87,-132.31 516.59,-129.22"/>
</g>
<!-- Node9&#45;&gt;Node12 -->
<g id="edge17" class="edge">
<title>Node9&#45;&gt;Node12</title>
<path fill="none" stroke="midnightblue" d="M445.33,-138.34C384.45,-128.72 291.41,-113.46 211,-98 208.31,-97.48 205.57,-96.94 202.79,-96.39"/>
<polygon fill="midnightblue" stroke="midnightblue" points="445.15,-141.86 455.57,-139.96 446.24,-134.94 445.15,-141.86"/>
</g>
<!-- Node14 -->
<g id="node14" class="node">
<title>Node14</title>
<g id="a_node14"><a xlink:href="docker__commands_8hpp.html" target="_top" xlink:title="Declares Docker command classes for container operations.">
<polygon fill="white" stroke="black" points="355.5,-67.5 355.5,-97.5 462.5,-97.5 462.5,-67.5 355.5,-67.5"/>
<text text-anchor="start" x="363.5" y="-85.5" font-family="Helvetica,sans-Serif" font-size="10.00">runtime/inc/docker</text>
<text text-anchor="middle" x="409" y="-74.5" font-family="Helvetica,sans-Serif" font-size="10.00">_commands.hpp</text>
</a>
</g>
</g>
<!-- Node9&#45;&gt;Node14 -->
<g id="edge20" class="edge">
<title>Node9&#45;&gt;Node14</title>
<path fill="none" stroke="midnightblue" d="M488.49,-134.15C471.42,-123.27 448.08,-108.4 431.11,-97.59"/>
<polygon fill="midnightblue" stroke="midnightblue" points="486.93,-137.31 497.24,-139.73 490.69,-131.41 486.93,-137.31"/>
</g>
<!-- Node9&#45;&gt;Node16 -->
<g id="edge23" class="edge">
<title>Node9&#45;&gt;Node16</title>
<path fill="none" stroke="midnightblue" d="M470.41,-137.13C431.08,-126.11 371.33,-109.37 329.07,-97.53"/>
<polygon fill="midnightblue" stroke="midnightblue" points="469.62,-140.54 480.19,-139.87 471.51,-133.8 469.62,-140.54"/>
</g>
<!-- Node9&#45;&gt;Node18 -->
<g id="edge26" class="edge">
<title>Node9&#45;&gt;Node18</title>
<path fill="none" stroke="midnightblue" d="M543.16,-136.2C571.97,-125.19 614.2,-109.04 644.31,-97.53"/>
<polygon fill="midnightblue" stroke="midnightblue" points="541.67,-133.03 533.57,-139.87 544.17,-139.57 541.67,-133.03"/>
</g>
<!-- Node10&#45;&gt;Node3 -->
<g id="edge15" class="edge">
<title>Node10&#45;&gt;Node3</title>
<path fill="none" stroke="midnightblue" d="M558.47,-59.16C565.03,-49.68 572.48,-38.92 578.25,-30.58"/>
<polygon fill="midnightblue" stroke="midnightblue" points="555.58,-57.18 552.76,-67.4 561.33,-61.17 555.58,-57.18"/>
</g>
<!-- Node11 -->
<g id="node11" class="node">
<title>Node11</title>
<g id="a_node11"><a xlink:href="command__factory_8cpp.html" target="_top" xlink:title="Implements the CommandFactory class for creating command objects based on container requests.">
<polygon fill="white" stroke="black" points="268,-0.5 268,-30.5 392,-30.5 392,-0.5 268,-0.5"/>
<text text-anchor="start" x="276" y="-18.5" font-family="Helvetica,sans-Serif" font-size="10.00">runtime/src/command</text>
<text text-anchor="middle" x="330" y="-7.5" font-family="Helvetica,sans-Serif" font-size="10.00">_factory.cpp</text>
</a>
</g>
</g>
<!-- Node10&#45;&gt;Node11 -->
<g id="edge16" class="edge">
<title>Node10&#45;&gt;Node11</title>
<path fill="none" stroke="midnightblue" d="M487.11,-64.44C452.58,-53.91 408.81,-40.55 376.24,-30.61"/>
<polygon fill="midnightblue" stroke="midnightblue" points="486.46,-67.9 497.04,-67.48 488.5,-61.21 486.46,-67.9"/>
</g>
<!-- Node12&#45;&gt;Node11 -->
<g id="edge18" class="edge">
<title>Node12&#45;&gt;Node11</title>
<path fill="none" stroke="midnightblue" d="M193.81,-64.09C223.84,-53.6 261.59,-40.41 289.72,-30.58"/>
<polygon fill="midnightblue" stroke="midnightblue" points="192.64,-60.79 184.36,-67.4 194.95,-67.4 192.64,-60.79"/>
</g>
<!-- Node13 -->
<g id="node13" class="node">
<title>Node13</title>
<g id="a_node13"><a xlink:href="docker__api__commands_8cpp.html" target="_top" xlink:title="Implements Docker API command classes for managing containers via the Docker HTTP API over a Unix soc...">
<polygon fill="white" stroke="black" points="0,-0.5 0,-30.5 116,-30.5 116,-0.5 0,-0.5"/>
<text text-anchor="start" x="8" y="-18.5" font-family="Helvetica,sans-Serif" font-size="10.00">runtime/src/docker</text>
<text text-anchor="middle" x="58" y="-7.5" font-family="Helvetica,sans-Serif" font-size="10.00">_api_commands.cpp</text>
</a>
</g>
</g>
<!-- Node12&#45;&gt;Node13 -->
<g id="edge19" class="edge">
<title>Node12&#45;&gt;Node13</title>
<path fill="none" stroke="midnightblue" d="M117.1,-61.17C103.95,-51.23 88.45,-39.51 76.62,-30.58"/>
<polygon fill="midnightblue" stroke="midnightblue" points="115.25,-64.16 125.34,-67.4 119.47,-58.57 115.25,-64.16"/>
</g>
<!-- Node14&#45;&gt;Node11 -->
<g id="edge21" class="edge">
<title>Node14&#45;&gt;Node11</title>
<path fill="none" stroke="midnightblue" d="M383.94,-60.88C371.94,-51.01 357.87,-39.43 347.11,-30.58"/>
<polygon fill="midnightblue" stroke="midnightblue" points="381.91,-63.75 391.86,-67.4 386.36,-58.34 381.91,-63.75"/>
</g>
<!-- Node15 -->
<g id="node15" class="node">
<title>Node15</title>
<g id="a_node15"><a xlink:href="docker__commands_8cpp.html" target="_top" xlink:title="Implements Docker command classes for container operations.">
<polygon fill="white" stroke="black" points="410.5,-0.5 410.5,-30.5 517.5,-30.5 517.5,-0.5 410.5,-0.5"/>
<text text-anchor="start" x="418.5" y="-18.5" font-family="Helvetica,sans-Serif" font-size="10.00">runtime/src/docker</text>
<text text-anchor="middle" x="464" y="-7.5" font-family="Helvetica,sans-Serif" font-size="10.00">_commands.cpp</text>
</a>
</g>
</g>
<!-- Node14&#45;&gt;Node15 -->
<g id="edge22" class="edge">
<title>Node14&#45;&gt;Node15</title>
<path fill="none" stroke="midnightblue" d="M427.42,-59.74C435.55,-50.12 444.89,-39.09 452.09,-30.58"/>
<polygon fill="midnightblue" stroke="midnightblue" points="424.72,-57.5 420.93,-67.4 430.07,-62.02 424.72,-57.5"/>
</g>
<!-- Node16&#45;&gt;Node11 -->
<g id="edge24" class="edge">
<title>Node16&#45;&gt;Node11</title>
<path fill="none" stroke="midnightblue" d="M296.3,-59.45C303.79,-49.9 312.34,-39 318.96,-30.58"/>
<polygon fill="midnightblue" stroke="midnightblue" points="293.49,-57.37 290.07,-67.4 298.99,-61.69 293.49,-57.37"/>
</g>
<!-- Node17 -->
<g id="node17" class="node">
<title>Node17</title>
<g id="a_node17"><a xlink:href="podman__api__commands_8cpp.html" target="_top" xlink:title="Implements Podman API command classes for managing containers via the Podman HTTP API over a Unix soc...">
<polygon fill="white" stroke="black" points="134,-0.5 134,-30.5 250,-30.5 250,-0.5 134,-0.5"/>
<text text-anchor="start" x="142" y="-18.5" font-family="Helvetica,sans-Serif" font-size="10.00">runtime/src/podman</text>
<text text-anchor="middle" x="192" y="-7.5" font-family="Helvetica,sans-Serif" font-size="10.00">_api_commands.cpp</text>
</a>
</g>
</g>
<!-- Node16&#45;&gt;Node17 -->
<g id="edge25" class="edge">
<title>Node16&#45;&gt;Node17</title>
<path fill="none" stroke="midnightblue" d="M251.79,-61.17C238.48,-51.23 222.8,-39.51 210.84,-30.58"/>
<polygon fill="midnightblue" stroke="midnightblue" points="250.02,-64.21 260.12,-67.4 254.21,-58.61 250.02,-64.21"/>
</g>
<!-- Node18&#45;&gt;Node11 -->
<g id="edge27" class="edge">
<title>Node18&#45;&gt;Node11</title>
<path fill="none" stroke="midnightblue" d="M613.23,-66.91C518.03,-48.81 492.25,-48.02 401,-31 398.16,-30.47 395.25,-29.92 392.31,-29.35"/>
<polygon fill="midnightblue" stroke="midnightblue" points="612.81,-70.39 623.29,-68.84 614.13,-63.52 612.81,-70.39"/>
</g>
<!-- Node19 -->
<g id="node19" class="node">
<title>Node19</title>
<g id="a_node19"><a xlink:href="podman__commands_8cpp.html" target="_top" xlink:title="Implements Podman command classes for container operations.">
<polygon fill="white" stroke="black" points="658.5,-0.5 658.5,-30.5 773.5,-30.5 773.5,-0.5 658.5,-0.5"/>
<text text-anchor="start" x="666.5" y="-18.5" font-family="Helvetica,sans-Serif" font-size="10.00">runtime/src/podman</text>
<text text-anchor="middle" x="716" y="-7.5" font-family="Helvetica,sans-Serif" font-size="10.00">_commands.cpp</text>
</a>
</g>
</g>
<!-- Node18&#45;&gt;Node19 -->
<g id="edge28" class="edge">
<title>Node18&#45;&gt;Node19</title>
<path fill="none" stroke="midnightblue" d="M693.34,-58.58C698.37,-49.24 704.02,-38.75 708.42,-30.58"/>
<polygon fill="midnightblue" stroke="midnightblue" points="690.25,-56.93 688.59,-67.4 696.42,-60.25 690.25,-56.93"/>
</g>
</g>
</svg>
