<?xml version="1.0" encoding="UTF-8" standalone="no"?>
<!DOCTYPE svg PUBLIC "-//W3C//DTD SVG 1.1//EN"
 "http://www.w3.org/Graphics/SVG/1.1/DTD/svg11.dtd">
<!-- Generated by graphviz version 2.43.0 (0)
 -->
<!-- Title: ContainerRequest Pages: 1 -->
<svg width="151pt" height="310pt"
 viewBox="0.00 0.00 151.00 310.00" xmlns="http://www.w3.org/2000/svg" xmlns:xlink="http://www.w3.org/1999/xlink">
<g id="graph0" class="graph" transform="scale(1 1) rotate(0) translate(4 306)">
<title>ContainerRequest</title>
<polygon fill="white" stroke="transparent" points="-4,4 -4,-306 147,-306 147,4 -4,4"/>
<!-- Node1 -->
<g id="node1" class="node">
<title>Node1</title>
<g id="a_node1"><a xlink:title="Represents a request to perform an operation on a container.">
<polygon fill="#bfbfbf" stroke="black" points="0,-0.5 0,-57.5 104,-57.5 104,-0.5 0,-0.5"/>
<text text-anchor="middle" x="52" y="-45.5" font-family="Helvetica,sans-Serif" font-size="10.00">ContainerRequest</text>
<polyline fill="none" stroke="black" points="0,-38.5 104,-38.5 "/>
<text text-anchor="middle" x="52" y="-26.5" font-family="Helvetica,sans-Serif" font-size="10.00"> </text>
<polyline fill="none" stroke="black" points="0,-19.5 104,-19.5 "/>
<text text-anchor="middle" x="52" y="-7.5" font-family="Helvetica,sans-Serif" font-size="10.00"> </text>
</a>
</g>
</g>
<!-- Node2 -->
<g id="node2" class="node">
<title>Node2</title>
<g id="a_node2"><a xlink:title="STL class.">
<polygon fill="white" stroke="#bfbfbf" points="19.5,-138.5 19.5,-195.5 84.5,-195.5 84.5,-138.5 19.5,-138.5"/>
<text text-anchor="middle" x="52" y="-183.5" font-family="Helvetica,sans-Serif" font-size="10.00">std::string</text>
<polyline fill="none" stroke="#bfbfbf" points="19.5,-176.5 84.5,-176.5 "/>
<text text-anchor="middle" x="52" y="-164.5" font-family="Helvetica,sans-Serif" font-size="10.00"> </text>
<polyline fill="none" stroke="#bfbfbf" points="19.5,-157.5 84.5,-157.5 "/>
<text text-anchor="middle" x="52" y="-145.5" font-family="Helvetica,sans-Serif" font-size="10.00"> </text>
</a>
</g>
</g>
<!-- Node2&#45;&gt;Node1 -->
<g id="edge1" class="edge">
<title>Node2&#45;&gt;Node1</title>
<path fill="none" stroke="#404040" d="M52,-138.48C52,-118.79 52,-91.99 52,-69.95"/>
<polygon fill="none" stroke="#404040" points="52,-69.95 48,-63.95 52,-57.95 56,-63.95 52,-69.95"/>
<text text-anchor="middle" x="97.5" y="-112" font-family="Helvetica,sans-Serif" font-size="10.00"> +container_name</text>
<text text-anchor="middle" x="97.5" y="-101" font-family="Helvetica,sans-Serif" font-size="10.00">+runtime</text>
<text text-anchor="middle" x="97.5" y="-90" font-family="Helvetica,sans-Serif" font-size="10.00">+operation</text>
<text text-anchor="middle" x="97.5" y="-79" font-family="Helvetica,sans-Serif" font-size="10.00">+image_name</text>
</g>
<!-- Node3 -->
<g id="node3" class="node">
<title>Node3</title>
<g id="a_node3"><a xlink:title="STL class.">
<polygon fill="white" stroke="#bfbfbf" points="0,-233.5 0,-301.5 104,-301.5 104,-233.5 0,-233.5"/>
<text text-anchor="start" x="8" y="-289.5" font-family="Helvetica,sans-Serif" font-size="10.00">std::basic_string&lt;</text>
<text text-anchor="middle" x="52" y="-278.5" font-family="Helvetica,sans-Serif" font-size="10.00"> char &gt;</text>
<polyline fill="none" stroke="#bfbfbf" points="0,-271.5 104,-271.5 "/>
<text text-anchor="middle" x="52" y="-259.5" font-family="Helvetica,sans-Serif" font-size="10.00"> </text>
<polyline fill="none" stroke="#bfbfbf" points="0,-252.5 104,-252.5 "/>
<text text-anchor="middle" x="52" y="-240.5" font-family="Helvetica,sans-Serif" font-size="10.00"> </text>
</a>
</g>
</g>
<!-- Node3&#45;&gt;Node2 -->
<g id="edge2" class="edge">
<title>Node3&#45;&gt;Node2</title>
<path fill="none" stroke="midnightblue" d="M52,-223.38C52,-213.94 52,-204.2 52,-195.57"/>
<polygon fill="none" stroke="midnightblue" points="48.5,-223.43 52,-233.43 55.5,-223.43 48.5,-223.43"/>
</g>
</g>
</svg>
