<?xml version="1.0" encoding="UTF-8" standalone="no"?>
<!DOCTYPE svg PUBLIC "-//W3C//DTD SVG 1.1//EN"
 "http://www.w3.org/Graphics/SVG/1.1/DTD/svg11.dtd">
<!-- Generated by graphviz version 2.43.0 (0)
 -->
<!-- Title: CommandName Pages: 1 -->
<svg width="168pt" height="332pt"
 viewBox="0.00 0.00 167.50 332.00" xmlns="http://www.w3.org/2000/svg" xmlns:xlink="http://www.w3.org/1999/xlink">
<g id="graph0" class="graph" transform="scale(1 1) rotate(0) translate(4 328)">
<title>CommandName</title>
<polygon fill="white" stroke="transparent" points="-4,4 -4,-328 163.5,-328 163.5,4 -4,4"/>
<!-- Node1 -->
<g id="node1" class="node">
<title>Node1</title>
<g id="a_node1"><a xlink:title="Contains string constants for supported container operations.">
<polygon fill="#bfbfbf" stroke="black" points="14.5,-0.5 14.5,-57.5 110.5,-57.5 110.5,-0.5 14.5,-0.5"/>
<text text-anchor="middle" x="62.5" y="-45.5" font-family="Helvetica,sans-Serif" font-size="10.00">CommandName</text>
<polyline fill="none" stroke="black" points="14.5,-38.5 110.5,-38.5 "/>
<text text-anchor="middle" x="62.5" y="-26.5" font-family="Helvetica,sans-Serif" font-size="10.00"> </text>
<polyline fill="none" stroke="black" points="14.5,-19.5 110.5,-19.5 "/>
<text text-anchor="middle" x="62.5" y="-7.5" font-family="Helvetica,sans-Serif" font-size="10.00"> </text>
</a>
</g>
</g>
<!-- Node2 -->
<g id="node2" class="node">
<title>Node2</title>
<g id="a_node2"><a xlink:title="STL class.">
<polygon fill="white" stroke="#bfbfbf" points="15.5,-160.5 15.5,-217.5 109.5,-217.5 109.5,-160.5 15.5,-160.5"/>
<text text-anchor="middle" x="62.5" y="-205.5" font-family="Helvetica,sans-Serif" font-size="10.00">std::string_view</text>
<polyline fill="none" stroke="#bfbfbf" points="15.5,-198.5 109.5,-198.5 "/>
<text text-anchor="middle" x="62.5" y="-186.5" font-family="Helvetica,sans-Serif" font-size="10.00"> </text>
<polyline fill="none" stroke="#bfbfbf" points="15.5,-179.5 109.5,-179.5 "/>
<text text-anchor="middle" x="62.5" y="-167.5" font-family="Helvetica,sans-Serif" font-size="10.00"> </text>
</a>
</g>
</g>
<!-- Node2&#45;&gt;Node1 -->
<g id="edge1" class="edge">
<title>Node2&#45;&gt;Node1</title>
<path fill="none" stroke="#404040" d="M62.5,-160.48C62.5,-135.48 62.5,-98.31 62.5,-70.03"/>
<polygon fill="none" stroke="#404040" points="62.5,-69.74 58.5,-63.74 62.5,-57.74 66.5,-63.74 62.5,-69.74"/>
<text text-anchor="middle" x="111" y="-134" font-family="Helvetica,sans-Serif" font-size="10.00"> +CreateContainer</text>
<text text-anchor="middle" x="111" y="-123" font-family="Helvetica,sans-Serif" font-size="10.00">+RuntimeStatus</text>
<text text-anchor="middle" x="111" y="-112" font-family="Helvetica,sans-Serif" font-size="10.00">+RestartContainer</text>
<text text-anchor="middle" x="111" y="-101" font-family="Helvetica,sans-Serif" font-size="10.00">+RemoveContainer</text>
<text text-anchor="middle" x="111" y="-90" font-family="Helvetica,sans-Serif" font-size="10.00">+StopContainer</text>
<text text-anchor="middle" x="111" y="-79" font-family="Helvetica,sans-Serif" font-size="10.00">+StartContainer</text>
</g>
<!-- Node3 -->
<g id="node3" class="node">
<title>Node3</title>
<g id="a_node3"><a xlink:title="STL class.">
<polygon fill="white" stroke="#bfbfbf" points="0,-255.5 0,-323.5 125,-323.5 125,-255.5 0,-255.5"/>
<text text-anchor="start" x="8" y="-311.5" font-family="Helvetica,sans-Serif" font-size="10.00">std::basic_string_view</text>
<text text-anchor="middle" x="62.5" y="-300.5" font-family="Helvetica,sans-Serif" font-size="10.00">&lt; char &gt;</text>
<polyline fill="none" stroke="#bfbfbf" points="0,-293.5 125,-293.5 "/>
<text text-anchor="middle" x="62.5" y="-281.5" font-family="Helvetica,sans-Serif" font-size="10.00"> </text>
<polyline fill="none" stroke="#bfbfbf" points="0,-274.5 125,-274.5 "/>
<text text-anchor="middle" x="62.5" y="-262.5" font-family="Helvetica,sans-Serif" font-size="10.00"> </text>
</a>
</g>
</g>
<!-- Node3&#45;&gt;Node2 -->
<g id="edge2" class="edge">
<title>Node3&#45;&gt;Node2</title>
<path fill="none" stroke="midnightblue" d="M62.5,-245.38C62.5,-235.94 62.5,-226.2 62.5,-217.57"/>
<polygon fill="none" stroke="midnightblue" points="59,-245.43 62.5,-255.43 66,-245.43 59,-245.43"/>
</g>
</g>
</svg>
