<?xml version="1.0" encoding="UTF-8" standalone="no"?>
<!DOCTYPE svg PUBLIC "-//W3C//DTD SVG 1.1//EN"
 "http://www.w3.org/Graphics/SVG/1.1/DTD/svg11.dtd">
<!-- Generated by graphviz version 2.43.0 (0)
 -->
<!-- Title: MessageQueueConfig Pages: 1 -->
<svg width="143pt" height="310pt"
 viewBox="0.00 0.00 143.00 310.00" xmlns="http://www.w3.org/2000/svg" xmlns:xlink="http://www.w3.org/1999/xlink">
<g id="graph0" class="graph" transform="scale(1 1) rotate(0) translate(4 306)">
<title>MessageQueueConfig</title>
<polygon fill="white" stroke="transparent" points="-4,4 -4,-306 139,-306 139,4 -4,4"/>
<!-- Node1 -->
<g id="node1" class="node">
<title>Node1</title>
<g id="a_node1"><a xlink:title="Holds constant configuration for the POSIX message queue consumer.">
<polygon fill="#bfbfbf" stroke="black" points="0,-0.5 0,-90.5 124,-90.5 124,-0.5 0,-0.5"/>
<text text-anchor="middle" x="62" y="-78.5" font-family="Helvetica,sans-Serif" font-size="10.00">MessageQueueConfig</text>
<polyline fill="none" stroke="black" points="0,-71.5 124,-71.5 "/>
<text text-anchor="start" x="8" y="-59.5" font-family="Helvetica,sans-Serif" font-size="10.00">+ MaxMsgSize</text>
<text text-anchor="start" x="8" y="-48.5" font-family="Helvetica,sans-Serif" font-size="10.00">+ MaxMsgCount</text>
<text text-anchor="start" x="8" y="-37.5" font-family="Helvetica,sans-Serif" font-size="10.00">+ SleepTime</text>
<text text-anchor="start" x="8" y="-26.5" font-family="Helvetica,sans-Serif" font-size="10.00">+ ReceiveTimeoutSec</text>
<polyline fill="none" stroke="black" points="0,-19.5 124,-19.5 "/>
<text text-anchor="middle" x="62" y="-7.5" font-family="Helvetica,sans-Serif" font-size="10.00"> </text>
</a>
</g>
</g>
<!-- Node2 -->
<g id="node2" class="node">
<title>Node2</title>
<g id="a_node2"><a xlink:title="STL class.">
<polygon fill="white" stroke="#bfbfbf" points="29.5,-138.5 29.5,-195.5 94.5,-195.5 94.5,-138.5 29.5,-138.5"/>
<text text-anchor="middle" x="62" y="-183.5" font-family="Helvetica,sans-Serif" font-size="10.00">std::string</text>
<polyline fill="none" stroke="#bfbfbf" points="29.5,-176.5 94.5,-176.5 "/>
<text text-anchor="middle" x="62" y="-164.5" font-family="Helvetica,sans-Serif" font-size="10.00"> </text>
<polyline fill="none" stroke="#bfbfbf" points="29.5,-157.5 94.5,-157.5 "/>
<text text-anchor="middle" x="62" y="-145.5" font-family="Helvetica,sans-Serif" font-size="10.00"> </text>
</a>
</g>
</g>
<!-- Node2&#45;&gt;Node1 -->
<g id="edge1" class="edge">
<title>Node2&#45;&gt;Node1</title>
<path fill="none" stroke="#404040" d="M62,-138.28C62,-127.73 62,-115.29 62,-103.03"/>
<polygon fill="none" stroke="#404040" points="62,-102.91 58,-96.91 62,-90.91 66,-96.91 62,-102.91"/>
<text text-anchor="middle" x="98.5" y="-112" font-family="Helvetica,sans-Serif" font-size="10.00"> +QueueName</text>
</g>
<!-- Node3 -->
<g id="node3" class="node">
<title>Node3</title>
<g id="a_node3"><a xlink:title="STL class.">
<polygon fill="white" stroke="#bfbfbf" points="10,-233.5 10,-301.5 114,-301.5 114,-233.5 10,-233.5"/>
<text text-anchor="start" x="18" y="-289.5" font-family="Helvetica,sans-Serif" font-size="10.00">std::basic_string&lt;</text>
<text text-anchor="middle" x="62" y="-278.5" font-family="Helvetica,sans-Serif" font-size="10.00"> char &gt;</text>
<polyline fill="none" stroke="#bfbfbf" points="10,-271.5 114,-271.5 "/>
<text text-anchor="middle" x="62" y="-259.5" font-family="Helvetica,sans-Serif" font-size="10.00"> </text>
<polyline fill="none" stroke="#bfbfbf" points="10,-252.5 114,-252.5 "/>
<text text-anchor="middle" x="62" y="-240.5" font-family="Helvetica,sans-Serif" font-size="10.00"> </text>
</a>
</g>
</g>
<!-- Node3&#45;&gt;Node2 -->
<g id="edge2" class="edge">
<title>Node3&#45;&gt;Node2</title>
<path fill="none" stroke="midnightblue" d="M62,-223.38C62,-213.94 62,-204.2 62,-195.57"/>
<polygon fill="none" stroke="midnightblue" points="58.5,-223.43 62,-233.43 65.5,-223.43 58.5,-223.43"/>
</g>
</g>
</svg>
