<?xml version="1.0" encoding="UTF-8" standalone="no"?>
<!DOCTYPE svg PUBLIC "-//W3C//DTD SVG 1.1//EN"
 "http://www.w3.org/Graphics/SVG/1.1/DTD/svg11.dtd">
<!-- Generated by graphviz version 2.43.0 (0)
 -->
<!-- Title: Status::Error Pages: 1 -->
<svg width="315pt" height="1205pt"
 viewBox="0.00 0.00 315.00 1204.50" xmlns="http://www.w3.org/2000/svg" xmlns:xlink="http://www.w3.org/1999/xlink">
<g id="graph0" class="graph" transform="scale(1 1) rotate(0) translate(4 1200.5)">
<title>Status::Error</title>
<polygon fill="white" stroke="transparent" points="-4,4 -4,-1200.5 311,-1200.5 311,4 -4,4"/>
<!-- Node1 -->
<g id="node1" class="node">
<title>Node1</title>
<g id="a_node1"><a xlink:title="Returns an error Status with the given code and message.">
<polygon fill="#bfbfbf" stroke="black" points="230,-583.5 230,-602.5 307,-602.5 307,-583.5 230,-583.5"/>
<text text-anchor="middle" x="268.5" y="-590.5" font-family="Helvetica,sans-Serif" font-size="10.00">Status::Error</text>
</a>
</g>
</g>
<!-- Node2 -->
<g id="node2" class="node">
<title>Node2</title>
<g id="a_node2"><a xlink:href="classDockerRuntimeAvailableCommand.html#a433b87ede31bd16ced081ab1e74658f7" target="_top" xlink:title="Executes the command to check Docker runtime availability.">
<polygon fill="white" stroke="black" points="3.5,-1166 3.5,-1196 190.5,-1196 190.5,-1166 3.5,-1166"/>
<text text-anchor="start" x="11.5" y="-1184" font-family="Helvetica,sans-Serif" font-size="10.00">DockerRuntimeAvailableCommand</text>
<text text-anchor="middle" x="97" y="-1173" font-family="Helvetica,sans-Serif" font-size="10.00">::Execute</text>
</a>
</g>
</g>
<!-- Node1&#45;&gt;Node2 -->
<g id="edge1" class="edge">
<title>Node1&#45;&gt;Node2</title>
<path fill="none" stroke="midnightblue" d="M267.79,-612.87C268.67,-703.21 267.69,-1074.27 194,-1157 191.03,-1160.34 187.67,-1163.24 184.04,-1165.77"/>
<polygon fill="midnightblue" stroke="midnightblue" points="271.29,-612.83 267.67,-602.87 264.29,-612.91 271.29,-612.83"/>
</g>
<!-- Node3 -->
<g id="node3" class="node">
<title>Node3</title>
<g id="a_node3"><a xlink:href="classDockerApiRuntimeAvailableCommand.html#a77724faeeb6392b8508e81d8b1b61b42" target="_top" xlink:title="Executes the command to check Docker API runtime availability.">
<polygon fill="white" stroke="black" points="21,-1117 21,-1147 173,-1147 173,-1117 21,-1117"/>
<text text-anchor="start" x="29" y="-1135" font-family="Helvetica,sans-Serif" font-size="10.00">DockerApiRuntimeAvailable</text>
<text text-anchor="middle" x="97" y="-1124" font-family="Helvetica,sans-Serif" font-size="10.00">Command::Execute</text>
</a>
</g>
</g>
<!-- Node1&#45;&gt;Node3 -->
<g id="edge2" class="edge">
<title>Node1&#45;&gt;Node3</title>
<path fill="none" stroke="midnightblue" d="M267.51,-613.01C267.15,-698.65 261.37,-1033.29 194,-1108 188.25,-1114.38 181.08,-1119.18 173.27,-1122.78"/>
<polygon fill="midnightblue" stroke="midnightblue" points="271.01,-612.84 267.53,-602.83 264.01,-612.82 271.01,-612.84"/>
</g>
<!-- Node4 -->
<g id="node4" class="node">
<title>Node4</title>
<g id="a_node4"><a xlink:href="classPodmanApiRuntimeAvailableCommand.html#aff85761ab4422c43b802fa285074e28d" target="_top" xlink:title="Executes the command to check Podman API runtime availability.">
<polygon fill="white" stroke="black" points="18,-1068 18,-1098 176,-1098 176,-1068 18,-1068"/>
<text text-anchor="start" x="26" y="-1086" font-family="Helvetica,sans-Serif" font-size="10.00">PodmanApiRuntimeAvailable</text>
<text text-anchor="middle" x="97" y="-1075" font-family="Helvetica,sans-Serif" font-size="10.00">Command::Execute</text>
</a>
</g>
</g>
<!-- Node1&#45;&gt;Node4 -->
<g id="edge3" class="edge">
<title>Node1&#45;&gt;Node4</title>
<path fill="none" stroke="midnightblue" d="M267.18,-612.87C265.5,-693.12 255.13,-992.2 194,-1059 189.01,-1064.45 182.99,-1068.75 176.43,-1072.12"/>
<polygon fill="midnightblue" stroke="midnightblue" points="270.69,-612.74 267.37,-602.67 263.69,-612.6 270.69,-612.74"/>
</g>
<!-- Node5 -->
<g id="node5" class="node">
<title>Node5</title>
<g id="a_node5"><a xlink:href="classPodmanRuntimeAvailableCommand.html#aacb94d714ffe16dc33591d9e287da7d3" target="_top" xlink:title="Executes the command to check Podman runtime availability.">
<polygon fill="white" stroke="black" points="0.5,-1019 0.5,-1049 193.5,-1049 193.5,-1019 0.5,-1019"/>
<text text-anchor="start" x="8.5" y="-1037" font-family="Helvetica,sans-Serif" font-size="10.00">PodmanRuntimeAvailableCommand</text>
<text text-anchor="middle" x="97" y="-1026" font-family="Helvetica,sans-Serif" font-size="10.00">::Execute</text>
</a>
</g>
</g>
<!-- Node1&#45;&gt;Node5 -->
<g id="edge4" class="edge">
<title>Node1&#45;&gt;Node5</title>
<path fill="none" stroke="midnightblue" d="M266.77,-613.13C263.62,-688.3 248.83,-951.17 194,-1010 190.84,-1013.39 187.27,-1016.34 183.43,-1018.89"/>
<polygon fill="midnightblue" stroke="midnightblue" points="270.28,-612.87 267.18,-602.74 263.29,-612.6 270.28,-612.87"/>
</g>
<!-- Node6 -->
<g id="node6" class="node">
<title>Node6</title>
<g id="a_node6"><a xlink:href="classProtoRequestExecutorHandler.html#a7255c2daf8946f8c73b0327cd4ad9156" target="_top" xlink:title="Receives a serialized protobuf string, deserializes, saves to DB, and returns result as JSON.">
<polygon fill="white" stroke="black" points="15.5,-970 15.5,-1000 178.5,-1000 178.5,-970 15.5,-970"/>
<text text-anchor="start" x="23.5" y="-988" font-family="Helvetica,sans-Serif" font-size="10.00">ProtoRequestExecutorHandler</text>
<text text-anchor="middle" x="97" y="-977" font-family="Helvetica,sans-Serif" font-size="10.00">::Execute</text>
</a>
</g>
</g>
<!-- Node1&#45;&gt;Node6 -->
<g id="edge5" class="edge">
<title>Node1&#45;&gt;Node6</title>
<path fill="none" stroke="midnightblue" d="M266.26,-612.96C261.58,-682.1 242.66,-909.96 194,-961 189.61,-965.6 184.49,-969.37 178.93,-972.46"/>
<polygon fill="midnightblue" stroke="midnightblue" points="269.78,-612.82 266.94,-602.62 262.8,-612.37 269.78,-612.82"/>
</g>
<!-- Node7 -->
<g id="node7" class="node">
<title>Node7</title>
<g id="a_node7"><a xlink:href="classJsonRequestExecutorHandler.html#aaf7c1c7c14971ccfda4076e0a4681f43" target="_top" xlink:title="Executes a request represented as a JSON string.">
<polygon fill="white" stroke="black" points="18,-921 18,-951 176,-951 176,-921 18,-921"/>
<text text-anchor="start" x="26" y="-939" font-family="Helvetica,sans-Serif" font-size="10.00">JsonRequestExecutorHandler</text>
<text text-anchor="middle" x="97" y="-928" font-family="Helvetica,sans-Serif" font-size="10.00">::Execute</text>
</a>
</g>
</g>
<!-- Node1&#45;&gt;Node7 -->
<g id="edge6" class="edge">
<title>Node1&#45;&gt;Node7</title>
<path fill="none" stroke="midnightblue" d="M265.63,-612.7C259.28,-675.39 236.54,-868.66 194,-912 188.83,-917.27 182.68,-921.45 176.04,-924.75"/>
<polygon fill="midnightblue" stroke="midnightblue" points="269.13,-612.88 266.62,-602.58 262.16,-612.19 269.13,-612.88"/>
</g>
<!-- Node8 -->
<g id="node8" class="node">
<title>Node8</title>
<g id="a_node8"><a xlink:href="classDockerCreateContainerCommand.html#a808e47cfa3f850e5d6fec1e4e264db07" target="_top" xlink:title="Executes the command to create a Docker container.">
<polygon fill="white" stroke="black" points="7,-872 7,-902 187,-902 187,-872 7,-872"/>
<text text-anchor="start" x="15" y="-890" font-family="Helvetica,sans-Serif" font-size="10.00">DockerCreateContainerCommand</text>
<text text-anchor="middle" x="97" y="-879" font-family="Helvetica,sans-Serif" font-size="10.00">::Execute</text>
</a>
</g>
</g>
<!-- Node1&#45;&gt;Node8 -->
<g id="edge7" class="edge">
<title>Node1&#45;&gt;Node8</title>
<path fill="none" stroke="midnightblue" d="M264.77,-612.54C256.56,-668.44 230.45,-827.3 194,-863 190.56,-866.37 186.73,-869.28 182.63,-871.81"/>
<polygon fill="midnightblue" stroke="midnightblue" points="268.25,-612.92 266.2,-602.52 261.32,-611.93 268.25,-612.92"/>
</g>
<!-- Node9 -->
<g id="node9" class="node">
<title>Node9</title>
<g id="a_node9"><a xlink:href="classPodmanApiCreateContainerCommand.html#aa4f4f0eac46ff0428f4d7ea6a6e94f08" target="_top" xlink:title="Executes the command to create a Podman container via the API.">
<polygon fill="white" stroke="black" points="21,-823 21,-853 173,-853 173,-823 21,-823"/>
<text text-anchor="start" x="29" y="-841" font-family="Helvetica,sans-Serif" font-size="10.00">PodmanApiCreateContainer</text>
<text text-anchor="middle" x="97" y="-830" font-family="Helvetica,sans-Serif" font-size="10.00">Command::Execute</text>
</a>
</g>
</g>
<!-- Node1&#45;&gt;Node9 -->
<g id="edge8" class="edge">
<title>Node1&#45;&gt;Node9</title>
<path fill="none" stroke="midnightblue" d="M266.98,-612.73C264.72,-655.9 253.08,-759.25 194,-814 187.95,-819.6 180.8,-823.95 173.16,-827.32"/>
<polygon fill="midnightblue" stroke="midnightblue" points="270.48,-612.81 267.38,-602.67 263.48,-612.52 270.48,-612.81"/>
</g>
<!-- Node10 -->
<g id="node10" class="node">
<title>Node10</title>
<g id="a_node10"><a xlink:href="classDockerApiCreateContainerCommand.html#aa6fe70f5b10327368b93f0c2a8ecf45a" target="_top" xlink:title="Executes the command to create a Docker container via the API.">
<polygon fill="white" stroke="black" points="24,-774 24,-804 170,-804 170,-774 24,-774"/>
<text text-anchor="start" x="32" y="-792" font-family="Helvetica,sans-Serif" font-size="10.00">DockerApiCreateContainer</text>
<text text-anchor="middle" x="97" y="-781" font-family="Helvetica,sans-Serif" font-size="10.00">Command::Execute</text>
</a>
</g>
</g>
<!-- Node1&#45;&gt;Node10 -->
<g id="edge9" class="edge">
<title>Node1&#45;&gt;Node10</title>
<path fill="none" stroke="midnightblue" d="M264.85,-612.68C258.94,-648.58 241.27,-724.7 194,-765 187.07,-770.91 178.9,-775.4 170.29,-778.8"/>
<polygon fill="midnightblue" stroke="midnightblue" points="268.35,-612.95 266.38,-602.54 261.42,-611.91 268.35,-612.95"/>
</g>
<!-- Node11 -->
<g id="node11" class="node">
<title>Node11</title>
<g id="a_node11"><a xlink:href="classPodmanCreateContainerCommand.html#ac20efe97c1a0812cc615ed592de35ba4" target="_top" xlink:title="Executes the command to create a Podman container.">
<polygon fill="white" stroke="black" points="4,-725 4,-755 190,-755 190,-725 4,-725"/>
<text text-anchor="start" x="12" y="-743" font-family="Helvetica,sans-Serif" font-size="10.00">PodmanCreateContainerCommand</text>
<text text-anchor="middle" x="97" y="-732" font-family="Helvetica,sans-Serif" font-size="10.00">::Execute</text>
</a>
</g>
</g>
<!-- Node1&#45;&gt;Node11 -->
<g id="edge10" class="edge">
<title>Node1&#45;&gt;Node11</title>
<path fill="none" stroke="midnightblue" d="M261.29,-612.39C251.49,-639.78 229.8,-689.43 194,-716 189.45,-719.38 184.47,-722.29 179.26,-724.79"/>
<polygon fill="midnightblue" stroke="midnightblue" points="264.66,-613.36 264.57,-602.76 258.03,-611.1 264.66,-613.36"/>
</g>
<!-- Node12 -->
<g id="node12" class="node">
<title>Node12</title>
<g id="a_node12"><a xlink:href="classDockerStartContainerCommand.html#a6e499ebb03f933dea994126430b47fa2" target="_top" xlink:title="Executes the command to start a Docker container.">
<polygon fill="white" stroke="black" points="11.5,-676 11.5,-706 182.5,-706 182.5,-676 11.5,-676"/>
<text text-anchor="start" x="19.5" y="-694" font-family="Helvetica,sans-Serif" font-size="10.00">DockerStartContainerCommand</text>
<text text-anchor="middle" x="97" y="-683" font-family="Helvetica,sans-Serif" font-size="10.00">::Execute</text>
</a>
</g>
</g>
<!-- Node1&#45;&gt;Node12 -->
<g id="edge11" class="edge">
<title>Node1&#45;&gt;Node12</title>
<path fill="none" stroke="midnightblue" d="M254.68,-610.62C241.39,-627.6 219.07,-652.75 194,-667 188.03,-670.4 181.57,-673.32 174.94,-675.83"/>
<polygon fill="midnightblue" stroke="midnightblue" points="257.52,-612.67 260.78,-602.58 251.94,-608.43 257.52,-612.67"/>
</g>
<!-- Node13 -->
<g id="node13" class="node">
<title>Node13</title>
<g id="a_node13"><a xlink:href="classPodmanApiStartContainerCommand.html#a8b359ed21f9b14a581da61246eb6bd09" target="_top" xlink:title="Executes the command to start a Podman container via the API.">
<polygon fill="white" stroke="black" points="0.5,-627 0.5,-657 193.5,-657 193.5,-627 0.5,-627"/>
<text text-anchor="start" x="8.5" y="-645" font-family="Helvetica,sans-Serif" font-size="10.00">PodmanApiStartContainerCommand</text>
<text text-anchor="middle" x="97" y="-634" font-family="Helvetica,sans-Serif" font-size="10.00">::Execute</text>
</a>
</g>
</g>
<!-- Node1&#45;&gt;Node13 -->
<g id="edge12" class="edge">
<title>Node1&#45;&gt;Node13</title>
<path fill="none" stroke="midnightblue" d="M231.54,-605.89C219.66,-609.98 206.32,-614.37 194,-618 183.45,-621.11 172.18,-624.16 161.2,-626.99"/>
<polygon fill="midnightblue" stroke="midnightblue" points="232.84,-609.15 241.13,-602.56 230.54,-602.54 232.84,-609.15"/>
</g>
<!-- Node14 -->
<g id="node14" class="node">
<title>Node14</title>
<g id="a_node14"><a xlink:href="classDockerApiStartContainerCommand.html#a9e1d44df3c9fed542ccf6aef9e383860" target="_top" xlink:title="Executes the command to start a Docker container via the API.">
<polygon fill="white" stroke="black" points="3.5,-578 3.5,-608 190.5,-608 190.5,-578 3.5,-578"/>
<text text-anchor="start" x="11.5" y="-596" font-family="Helvetica,sans-Serif" font-size="10.00">DockerApiStartContainerCommand</text>
<text text-anchor="middle" x="97" y="-585" font-family="Helvetica,sans-Serif" font-size="10.00">::Execute</text>
</a>
</g>
</g>
<!-- Node1&#45;&gt;Node14 -->
<g id="edge13" class="edge">
<title>Node1&#45;&gt;Node14</title>
<path fill="none" stroke="midnightblue" d="M219.83,-593C210.63,-593 200.7,-593 190.62,-593"/>
<polygon fill="midnightblue" stroke="midnightblue" points="219.88,-596.5 229.88,-593 219.88,-589.5 219.88,-596.5"/>
</g>
<!-- Node15 -->
<g id="node15" class="node">
<title>Node15</title>
<g id="a_node15"><a xlink:href="classPodmanStartContainerCommand.html#a8b50901fb02b033f51cf996e6b78ac08" target="_top" xlink:title="Executes the command to start a Podman container.">
<polygon fill="white" stroke="black" points="8.5,-529 8.5,-559 185.5,-559 185.5,-529 8.5,-529"/>
<text text-anchor="start" x="16.5" y="-547" font-family="Helvetica,sans-Serif" font-size="10.00">PodmanStartContainerCommand</text>
<text text-anchor="middle" x="97" y="-536" font-family="Helvetica,sans-Serif" font-size="10.00">::Execute</text>
</a>
</g>
</g>
<!-- Node1&#45;&gt;Node15 -->
<g id="edge14" class="edge">
<title>Node1&#45;&gt;Node15</title>
<path fill="none" stroke="midnightblue" d="M229.97,-580.26C218.47,-576.49 205.76,-572.45 194,-569 182.43,-565.61 170.01,-562.2 158.07,-559.04"/>
<polygon fill="midnightblue" stroke="midnightblue" points="229.11,-583.66 239.7,-583.48 231.31,-577.02 229.11,-583.66"/>
</g>
<!-- Node16 -->
<g id="node16" class="node">
<title>Node16</title>
<g id="a_node16"><a xlink:href="classDockerStopContainerCommand.html#a2821bbcaa9c8e3e4797160f9c128ff6d" target="_top" xlink:title="Executes the command to stop a Docker container.">
<polygon fill="white" stroke="black" points="12,-480 12,-510 182,-510 182,-480 12,-480"/>
<text text-anchor="start" x="20" y="-498" font-family="Helvetica,sans-Serif" font-size="10.00">DockerStopContainerCommand</text>
<text text-anchor="middle" x="97" y="-487" font-family="Helvetica,sans-Serif" font-size="10.00">::Execute</text>
</a>
</g>
</g>
<!-- Node1&#45;&gt;Node16 -->
<g id="edge15" class="edge">
<title>Node1&#45;&gt;Node16</title>
<path fill="none" stroke="midnightblue" d="M254.38,-575.41C241.01,-558.71 218.74,-534.11 194,-520 187.19,-516.12 179.77,-512.83 172.17,-510.04"/>
<polygon fill="midnightblue" stroke="midnightblue" points="251.64,-577.58 260.54,-583.33 257.16,-573.28 251.64,-577.58"/>
</g>
<!-- Node17 -->
<g id="node17" class="node">
<title>Node17</title>
<g id="a_node17"><a xlink:href="classPodmanStopContainerCommand.html#a1843b23a5c04cac1958338a47edeac1c" target="_top" xlink:title="Executes the command to stop a Podman container.">
<polygon fill="white" stroke="black" points="9,-431 9,-461 185,-461 185,-431 9,-431"/>
<text text-anchor="start" x="17" y="-449" font-family="Helvetica,sans-Serif" font-size="10.00">PodmanStopContainerCommand</text>
<text text-anchor="middle" x="97" y="-438" font-family="Helvetica,sans-Serif" font-size="10.00">::Execute</text>
</a>
</g>
</g>
<!-- Node1&#45;&gt;Node17 -->
<g id="edge16" class="edge">
<title>Node1&#45;&gt;Node17</title>
<path fill="none" stroke="midnightblue" d="M261.21,-573.81C251.32,-546.7 229.5,-497.52 194,-471 188.9,-467.19 183.26,-463.95 177.36,-461.21"/>
<polygon fill="midnightblue" stroke="midnightblue" points="257.93,-575.05 264.52,-583.34 264.54,-572.75 257.93,-575.05"/>
</g>
<!-- Node18 -->
<g id="node18" class="node">
<title>Node18</title>
<g id="a_node18"><a xlink:href="classPodmanApiStopContainerCommand.html#a85bea8f24f66f9ac514ef09ea6dd1c1a" target="_top" xlink:title="Executes the command to stop a Podman container via the API.">
<polygon fill="white" stroke="black" points="1.5,-382 1.5,-412 192.5,-412 192.5,-382 1.5,-382"/>
<text text-anchor="start" x="9.5" y="-400" font-family="Helvetica,sans-Serif" font-size="10.00">PodmanApiStopContainerCommand</text>
<text text-anchor="middle" x="97" y="-389" font-family="Helvetica,sans-Serif" font-size="10.00">::Execute</text>
</a>
</g>
</g>
<!-- Node1&#45;&gt;Node18 -->
<g id="edge17" class="edge">
<title>Node1&#45;&gt;Node18</title>
<path fill="none" stroke="midnightblue" d="M264.69,-572.96C258.57,-537.14 240.67,-462.09 194,-422 189.56,-418.18 184.6,-414.94 179.35,-412.19"/>
<polygon fill="midnightblue" stroke="midnightblue" points="261.27,-573.79 266.28,-583.13 268.19,-572.7 261.27,-573.79"/>
</g>
<!-- Node19 -->
<g id="node19" class="node">
<title>Node19</title>
<g id="a_node19"><a xlink:href="classDockerApiStopContainerCommand.html#a069c3c95925d8595762d40ca76f0ff95" target="_top" xlink:title="Executes the command to stop a Docker container via the API.">
<polygon fill="white" stroke="black" points="4.5,-333 4.5,-363 189.5,-363 189.5,-333 4.5,-333"/>
<text text-anchor="start" x="12.5" y="-351" font-family="Helvetica,sans-Serif" font-size="10.00">DockerApiStopContainerCommand</text>
<text text-anchor="middle" x="97" y="-340" font-family="Helvetica,sans-Serif" font-size="10.00">::Execute</text>
</a>
</g>
</g>
<!-- Node1&#45;&gt;Node19 -->
<g id="edge18" class="edge">
<title>Node1&#45;&gt;Node19</title>
<path fill="none" stroke="midnightblue" d="M266.89,-573.13C264.46,-530.07 252.48,-427.65 194,-373 189.85,-369.12 185.17,-365.82 180.17,-363.03"/>
<polygon fill="midnightblue" stroke="midnightblue" points="263.41,-573.56 267.35,-583.39 270.4,-573.25 263.41,-573.56"/>
</g>
<!-- Node20 -->
<g id="node20" class="node">
<title>Node20</title>
<g id="a_node20"><a xlink:href="classDockerRemoveContainerCommand.html#a70ccb6707d41b644b22f13a6c520bc15" target="_top" xlink:title="Executes the command to remove a Docker container.">
<polygon fill="white" stroke="black" points="3,-284 3,-314 191,-314 191,-284 3,-284"/>
<text text-anchor="start" x="11" y="-302" font-family="Helvetica,sans-Serif" font-size="10.00">DockerRemoveContainerCommand</text>
<text text-anchor="middle" x="97" y="-291" font-family="Helvetica,sans-Serif" font-size="10.00">::Execute</text>
</a>
</g>
</g>
<!-- Node1&#45;&gt;Node20 -->
<g id="edge19" class="edge">
<title>Node1&#45;&gt;Node20</title>
<path fill="none" stroke="midnightblue" d="M268.32,-573.22C269.24,-523.74 264.45,-393.61 194,-324 190.08,-320.13 185.64,-316.83 180.87,-314.03"/>
<polygon fill="midnightblue" stroke="midnightblue" points="264.82,-573.15 268.03,-583.24 271.82,-573.35 264.82,-573.15"/>
</g>
<!-- Node21 -->
<g id="node21" class="node">
<title>Node21</title>
<g id="a_node21"><a xlink:href="classDockerApiRestartContainerCommand.html#a93f11d262f9a76765a4a606cd39eba44" target="_top" xlink:title="Executes the command to restart a Docker container via the API.">
<polygon fill="white" stroke="black" points="22.5,-235 22.5,-265 171.5,-265 171.5,-235 22.5,-235"/>
<text text-anchor="start" x="30.5" y="-253" font-family="Helvetica,sans-Serif" font-size="10.00">DockerApiRestartContainer</text>
<text text-anchor="middle" x="97" y="-242" font-family="Helvetica,sans-Serif" font-size="10.00">Command::Execute</text>
</a>
</g>
</g>
<!-- Node1&#45;&gt;Node21 -->
<g id="edge20" class="edge">
<title>Node1&#45;&gt;Node21</title>
<path fill="none" stroke="midnightblue" d="M265.6,-573.38C259.17,-510.93 236.22,-318.4 194,-275 187.76,-268.58 180.09,-263.74 171.83,-260.1"/>
<polygon fill="midnightblue" stroke="midnightblue" points="262.13,-573.86 266.61,-583.46 269.1,-573.16 262.13,-573.86"/>
</g>
<!-- Node22 -->
<g id="node22" class="node">
<title>Node22</title>
<g id="a_node22"><a xlink:href="classPodmanRemoveContainerCommand.html#a21932aba8fb96cf6214f74b9609acd52" target="_top" xlink:title="Executes the command to remove a Podman container.">
<polygon fill="white" stroke="black" points="0,-186 0,-216 194,-216 194,-186 0,-186"/>
<text text-anchor="start" x="8" y="-204" font-family="Helvetica,sans-Serif" font-size="10.00">PodmanRemoveContainerCommand</text>
<text text-anchor="middle" x="97" y="-193" font-family="Helvetica,sans-Serif" font-size="10.00">::Execute</text>
</a>
</g>
</g>
<!-- Node1&#45;&gt;Node22 -->
<g id="edge21" class="edge">
<title>Node1&#45;&gt;Node22</title>
<path fill="none" stroke="midnightblue" d="M266.24,-573.11C261.47,-504.22 242.29,-277.13 194,-226 190.45,-222.24 186.42,-219.02 182.06,-216.27"/>
<polygon fill="midnightblue" stroke="midnightblue" points="262.77,-573.67 266.92,-583.42 269.75,-573.21 262.77,-573.67"/>
</g>
<!-- Node23 -->
<g id="node23" class="node">
<title>Node23</title>
<g id="a_node23"><a xlink:href="classDockerRestartContainerCommand.html#a339586381700016baae33f07fe2715b4" target="_top" xlink:title="Executes the command to restart a Docker container.">
<polygon fill="white" stroke="black" points="5.5,-137 5.5,-167 188.5,-167 188.5,-137 5.5,-137"/>
<text text-anchor="start" x="13.5" y="-155" font-family="Helvetica,sans-Serif" font-size="10.00">DockerRestartContainerCommand</text>
<text text-anchor="middle" x="97" y="-144" font-family="Helvetica,sans-Serif" font-size="10.00">::Execute</text>
</a>
</g>
</g>
<!-- Node1&#45;&gt;Node23 -->
<g id="edge22" class="edge">
<title>Node1&#45;&gt;Node23</title>
<path fill="none" stroke="midnightblue" d="M266.74,-572.93C263.51,-498.01 248.42,-235.95 194,-177 190.5,-173.2 186.49,-169.95 182.16,-167.17"/>
<polygon fill="midnightblue" stroke="midnightblue" points="263.26,-573.44 267.16,-583.29 270.25,-573.15 263.26,-573.44"/>
</g>
<!-- Node24 -->
<g id="node24" class="node">
<title>Node24</title>
<g id="a_node24"><a xlink:href="classDockerApiRemoveContainerCommand.html#a56eefcf10fdf0689a2b6ba54e9970c13" target="_top" xlink:title="Executes the command to remove a Docker container via the API.">
<polygon fill="white" stroke="black" points="20,-88 20,-118 174,-118 174,-88 20,-88"/>
<text text-anchor="start" x="28" y="-106" font-family="Helvetica,sans-Serif" font-size="10.00">DockerApiRemoveContainer</text>
<text text-anchor="middle" x="97" y="-95" font-family="Helvetica,sans-Serif" font-size="10.00">Command::Execute</text>
</a>
</g>
</g>
<!-- Node1&#45;&gt;Node24 -->
<g id="edge23" class="edge">
<title>Node1&#45;&gt;Node24</title>
<path fill="none" stroke="midnightblue" d="M267.16,-573.19C265.37,-493.18 254.69,-194.95 194,-128 188.45,-121.88 181.6,-117.17 174.14,-113.56"/>
<polygon fill="midnightblue" stroke="midnightblue" points="263.66,-573.43 267.36,-583.36 270.66,-573.29 263.66,-573.43"/>
</g>
<!-- Node25 -->
<g id="node25" class="node">
<title>Node25</title>
<g id="a_node25"><a xlink:href="classPodmanRestartContainerCommand.html#a6b54741ba54cdaa95d63bdbd89005bb6" target="_top" xlink:title="Executes the command to restart a Podman container.">
<polygon fill="white" stroke="black" points="2.5,-39 2.5,-69 191.5,-69 191.5,-39 2.5,-39"/>
<text text-anchor="start" x="10.5" y="-57" font-family="Helvetica,sans-Serif" font-size="10.00">PodmanRestartContainerCommand</text>
<text text-anchor="middle" x="97" y="-46" font-family="Helvetica,sans-Serif" font-size="10.00">::Execute</text>
</a>
</g>
</g>
<!-- Node1&#45;&gt;Node25 -->
<g id="edge24" class="edge">
<title>Node1&#45;&gt;Node25</title>
<path fill="none" stroke="midnightblue" d="M267.49,-573.04C267.02,-487.63 260.88,-153.88 194,-79 190.56,-75.15 186.6,-71.85 182.31,-69.04"/>
<polygon fill="midnightblue" stroke="midnightblue" points="263.99,-573.21 267.52,-583.2 270.99,-573.18 263.99,-573.21"/>
</g>
<!-- Node26 -->
<g id="node26" class="node">
<title>Node26</title>
<g id="a_node26"><a xlink:href="container__service__test_8cpp.html#afafce5aa35b1f61a98510f19ac724511" target="_top" xlink:title=" ">
<polygon fill="white" stroke="black" points="71,-0.5 71,-19.5 123,-19.5 123,-0.5 71,-0.5"/>
<text text-anchor="middle" x="97" y="-7.5" font-family="Helvetica,sans-Serif" font-size="10.00">TEST_F</text>
</a>
</g>
</g>
<!-- Node1&#45;&gt;Node26 -->
<g id="edge25" class="edge">
<title>Node1&#45;&gt;Node26</title>
<path fill="none" stroke="midnightblue" d="M267.85,-573.09C269.04,-482.62 269.2,-111.1 194,-30 176.17,-10.77 145.06,-7.44 123.09,-7.84"/>
<polygon fill="midnightblue" stroke="midnightblue" points="264.35,-573.06 267.7,-583.11 271.35,-573.17 264.35,-573.06"/>
</g>
</g>
</svg>
