<?xml version="1.0" encoding="UTF-8" standalone="no"?>
<!DOCTYPE svg PUBLIC "-//W3C//DTD SVG 1.1//EN"
 "http://www.w3.org/Graphics/SVG/1.1/DTD/svg11.dtd">
<!-- Generated by graphviz version 2.43.0 (0)
 -->
<!-- Title: RuntimeName Pages: 1 -->
<svg width="135pt" height="310pt"
 viewBox="0.00 0.00 134.50 310.00" xmlns="http://www.w3.org/2000/svg" xmlns:xlink="http://www.w3.org/1999/xlink">
<g id="graph0" class="graph" transform="scale(1 1) rotate(0) translate(4 306)">
<title>RuntimeName</title>
<polygon fill="white" stroke="transparent" points="-4,4 -4,-306 130.5,-306 130.5,4 -4,4"/>
<!-- Node1 -->
<g id="node1" class="node">
<title>Node1</title>
<g id="a_node1"><a xlink:title="Contains string constants for supported container runtimes.">
<polygon fill="#bfbfbf" stroke="black" points="19,-0.5 19,-57.5 106,-57.5 106,-0.5 19,-0.5"/>
<text text-anchor="middle" x="62.5" y="-45.5" font-family="Helvetica,sans-Serif" font-size="10.00">RuntimeName</text>
<polyline fill="none" stroke="black" points="19,-38.5 106,-38.5 "/>
<text text-anchor="middle" x="62.5" y="-26.5" font-family="Helvetica,sans-Serif" font-size="10.00"> </text>
<polyline fill="none" stroke="black" points="19,-19.5 106,-19.5 "/>
<text text-anchor="middle" x="62.5" y="-7.5" font-family="Helvetica,sans-Serif" font-size="10.00"> </text>
</a>
</g>
</g>
<!-- Node2 -->
<g id="node2" class="node">
<title>Node2</title>
<g id="a_node2"><a xlink:title="STL class.">
<polygon fill="white" stroke="#bfbfbf" points="15.5,-138.5 15.5,-195.5 109.5,-195.5 109.5,-138.5 15.5,-138.5"/>
<text text-anchor="middle" x="62.5" y="-183.5" font-family="Helvetica,sans-Serif" font-size="10.00">std::string_view</text>
<polyline fill="none" stroke="#bfbfbf" points="15.5,-176.5 109.5,-176.5 "/>
<text text-anchor="middle" x="62.5" y="-164.5" font-family="Helvetica,sans-Serif" font-size="10.00"> </text>
<polyline fill="none" stroke="#bfbfbf" points="15.5,-157.5 109.5,-157.5 "/>
<text text-anchor="middle" x="62.5" y="-145.5" font-family="Helvetica,sans-Serif" font-size="10.00"> </text>
</a>
</g>
</g>
<!-- Node2&#45;&gt;Node1 -->
<g id="edge1" class="edge">
<title>Node2&#45;&gt;Node1</title>
<path fill="none" stroke="#404040" d="M62.5,-138.48C62.5,-118.79 62.5,-91.99 62.5,-69.95"/>
<polygon fill="none" stroke="#404040" points="62.5,-69.95 58.5,-63.95 62.5,-57.95 66.5,-63.95 62.5,-69.95"/>
<text text-anchor="middle" x="94.5" y="-112" font-family="Helvetica,sans-Serif" font-size="10.00"> +Podman</text>
<text text-anchor="middle" x="94.5" y="-101" font-family="Helvetica,sans-Serif" font-size="10.00">+Docker</text>
<text text-anchor="middle" x="94.5" y="-90" font-family="Helvetica,sans-Serif" font-size="10.00">+DockerApi</text>
<text text-anchor="middle" x="94.5" y="-79" font-family="Helvetica,sans-Serif" font-size="10.00">+PodmanApi</text>
</g>
<!-- Node3 -->
<g id="node3" class="node">
<title>Node3</title>
<g id="a_node3"><a xlink:title="STL class.">
<polygon fill="white" stroke="#bfbfbf" points="0,-233.5 0,-301.5 125,-301.5 125,-233.5 0,-233.5"/>
<text text-anchor="start" x="8" y="-289.5" font-family="Helvetica,sans-Serif" font-size="10.00">std::basic_string_view</text>
<text text-anchor="middle" x="62.5" y="-278.5" font-family="Helvetica,sans-Serif" font-size="10.00">&lt; char &gt;</text>
<polyline fill="none" stroke="#bfbfbf" points="0,-271.5 125,-271.5 "/>
<text text-anchor="middle" x="62.5" y="-259.5" font-family="Helvetica,sans-Serif" font-size="10.00"> </text>
<polyline fill="none" stroke="#bfbfbf" points="0,-252.5 125,-252.5 "/>
<text text-anchor="middle" x="62.5" y="-240.5" font-family="Helvetica,sans-Serif" font-size="10.00"> </text>
</a>
</g>
</g>
<!-- Node3&#45;&gt;Node2 -->
<g id="edge2" class="edge">
<title>Node3&#45;&gt;Node2</title>
<path fill="none" stroke="midnightblue" d="M62.5,-223.38C62.5,-213.94 62.5,-204.2 62.5,-195.57"/>
<polygon fill="none" stroke="midnightblue" points="59,-223.43 62.5,-233.43 66,-223.43 59,-223.43"/>
</g>
</g>
</svg>
