<?xml version="1.0" encoding="UTF-8" standalone="no"?>
<!DOCTYPE svg PUBLIC "-//W3C//DTD SVG 1.1//EN"
 "http://www.w3.org/Graphics/SVG/1.1/DTD/svg11.dtd">
<!-- Generated by graphviz version 2.43.0 (0)
 -->
<!-- Title: protobuf_container_5fmanager_2eproto::StaticDescriptorInitializer::StaticDescriptorInitializer Pages: 1 -->
<!--zoomable 212 -->
<svg id="main" version="1.1" xmlns="http://www.w3.org/2000/svg" xmlns:xlink="http://www.w3.org/1999/xlink" xml:space="preserve" onload="init(evt)">
<style type="text/css"><![CDATA[
.edge:hover path { stroke: red; }
.edge:hover polygon { stroke: red; fill: red; }
]]></style>
<script type="text/javascript"><![CDATA[
var edges = document.getElementsByTagName('g');
if (edges && edges.length) {
  for (var i=0;i<edges.length;i++) {
    if (edges[i].id.substr(0,4)=='edge') {
      edges[i].setAttribute('class','edge');
    }
  }
}
]]></script>
        <defs>
                <circle id="rim" cx="0" cy="0" r="7"/>
                <circle id="rim2" cx="0" cy="0" r="3.5"/>
                <g id="zoomPlus">
                        <use xlink:href="#rim" fill="#404040">
                                <set attributeName="fill" to="#808080" begin="zoomplus.mouseover" end="zoomplus.mouseout"/>
                        </use>
                        <path d="M-4,0h8M0,-4v8" fill="none" stroke="white" stroke-width="1.5" pointer-events="none"/>
                </g>
                <g id="zoomMin">
                        <use xlink:href="#rim" fill="#404040">
                                <set attributeName="fill" to="#808080" begin="zoomminus.mouseover" end="zoomminus.mouseout"/>
                        </use>
                        <path d="M-4,0h8" fill="none" stroke="white" stroke-width="1.5" pointer-events="none"/>
                </g>
                <g id="dirArrow">
                        <path fill="none" stroke="white" stroke-width="1.5" d="M0,-3.0v7 M-2.5,-0.5L0,-3.0L2.5,-0.5"/>
                </g>
               <g id="resetDef">
                       <use xlink:href="#rim2" fill="#404040">
                               <set attributeName="fill" to="#808080" begin="reset.mouseover" end="reset.mouseout"/>
                       </use>
               </g>
        </defs>

<script type="text/javascript">
var viewWidth = 1086;
var viewHeight = 212;
var sectionId = 'dynsection-1';
</script>
<script xlink:href="svgpan.js"/>
<svg id="graph" class="graph">
<g id="viewport">
<title>protobuf_container_5fmanager_2eproto::StaticDescriptorInitializer::StaticDescriptorInitializer</title>
<polygon fill="white" stroke="transparent" points="-4,4 -4,-208 1082,-208 1082,4 -4,4"/>
<!-- Node1 -->
<g id="node1" class="node">
<title>Node1</title>
<g id="a_node1"><a xlink:title=" ">
<polygon fill="#bfbfbf" stroke="black" points="0,-0.5 0,-52.5 146,-52.5 146,-0.5 0,-0.5"/>
<text text-anchor="start" x="8" y="-40.5" font-family="Helvetica,sans-Serif" font-size="10.00">protobuf_container</text>
<text text-anchor="start" x="8" y="-29.5" font-family="Helvetica,sans-Serif" font-size="10.00">_5fmanager_2eproto::</text>
<text text-anchor="start" x="8" y="-18.5" font-family="Helvetica,sans-Serif" font-size="10.00">StaticDescriptorInitializer</text>
<text text-anchor="middle" x="73" y="-7.5" font-family="Helvetica,sans-Serif" font-size="10.00">::StaticDescriptorInitializer</text>
</a>
</g>
</g>
<!-- Node2 -->
<g id="node2" class="node">
<title>Node2</title>
<g id="a_node2"><a xlink:href="namespaceprotobuf__container__5fmanager__2eproto.html#aa46eb85aa98c9a7df47e2ae1eb3c4730" target="_top" xlink:title=" ">
<polygon fill="white" stroke="black" points="182,-6 182,-47 306,-47 306,-6 182,-6"/>
<text text-anchor="start" x="190" y="-35" font-family="Helvetica,sans-Serif" font-size="10.00">protobuf_container</text>
<text text-anchor="start" x="190" y="-24" font-family="Helvetica,sans-Serif" font-size="10.00">_5fmanager_2eproto::</text>
<text text-anchor="middle" x="244" y="-13" font-family="Helvetica,sans-Serif" font-size="10.00">AddDescriptors</text>
</a>
</g>
</g>
<!-- Node1&#45;&gt;Node2 -->
<g id="edge1" class="edge">
<title>Node1&#45;&gt;Node2</title>
<path fill="none" stroke="midnightblue" d="M146.16,-26.5C154.64,-26.5 163.3,-26.5 171.77,-26.5"/>
<polygon fill="midnightblue" stroke="midnightblue" points="171.98,-30 181.98,-26.5 171.98,-23 171.98,-30"/>
</g>
<!-- Node3 -->
<g id="node3" class="node">
<title>Node3</title>
<g id="a_node3"><a xlink:href="namespaceprotobuf__container__5fmanager__2eproto.html#a1fdf8c59b31bd00c1839ab68bd8994a7" target="_top" xlink:title=" ">
<polygon fill="white" stroke="black" points="342,-61 342,-102 466,-102 466,-61 342,-61"/>
<text text-anchor="start" x="350" y="-90" font-family="Helvetica,sans-Serif" font-size="10.00">protobuf_container</text>
<text text-anchor="start" x="350" y="-79" font-family="Helvetica,sans-Serif" font-size="10.00">_5fmanager_2eproto::</text>
<text text-anchor="middle" x="404" y="-68" font-family="Helvetica,sans-Serif" font-size="10.00">AddDescriptorsImpl</text>
</a>
</g>
</g>
<!-- Node2&#45;&gt;Node3 -->
<g id="edge2" class="edge">
<title>Node2&#45;&gt;Node3</title>
<path fill="none" stroke="midnightblue" d="M304.28,-47.14C314.1,-50.56 324.36,-54.12 334.39,-57.62"/>
<polygon fill="midnightblue" stroke="midnightblue" points="333.32,-60.95 343.91,-60.93 335.62,-54.34 333.32,-60.95"/>
</g>
<!-- Node4 -->
<g id="node4" class="node">
<title>Node4</title>
<g id="a_node4"><a xlink:href="namespaceprotobuf__container__5fmanager__2eproto.html#aacd277bc73f14bedf6baff131999e32a" target="_top" xlink:title=" ">
<polygon fill="white" stroke="black" points="502,-151.5 502,-203.5 679,-203.5 679,-151.5 502,-151.5"/>
<text text-anchor="start" x="510" y="-191.5" font-family="Helvetica,sans-Serif" font-size="10.00">protobuf_container</text>
<text text-anchor="start" x="510" y="-180.5" font-family="Helvetica,sans-Serif" font-size="10.00">_5fmanager_2eproto::</text>
<text text-anchor="start" x="510" y="-169.5" font-family="Helvetica,sans-Serif" font-size="10.00">GOOGLE_PROTOBUF_ATTRIBUTE</text>
<text text-anchor="middle" x="590.5" y="-158.5" font-family="Helvetica,sans-Serif" font-size="10.00">_SECTION_VARIABLE</text>
</a>
</g>
</g>
<!-- Node3&#45;&gt;Node4 -->
<g id="edge3" class="edge">
<title>Node3&#45;&gt;Node4</title>
<path fill="none" stroke="midnightblue" d="M435.27,-102.01C454.04,-114.27 478.9,-129.7 502,-141.5 505.7,-143.39 509.53,-145.26 513.42,-147.09"/>
<polygon fill="midnightblue" stroke="midnightblue" points="512.03,-150.31 522.58,-151.3 514.95,-143.94 512.03,-150.31"/>
</g>
<!-- Node5 -->
<g id="node5" class="node">
<title>Node5</title>
<g id="a_node5"><a xlink:href="namespaceprotobuf__container__5fmanager__2eproto.html#a9046149bfa99ddca358e06cdd5040987" target="_top" xlink:title=" ">
<polygon fill="white" stroke="black" points="528.5,-91 528.5,-132 652.5,-132 652.5,-91 528.5,-91"/>
<text text-anchor="start" x="536.5" y="-120" font-family="Helvetica,sans-Serif" font-size="10.00">protobuf_container</text>
<text text-anchor="start" x="536.5" y="-109" font-family="Helvetica,sans-Serif" font-size="10.00">_5fmanager_2eproto::</text>
<text text-anchor="middle" x="590.5" y="-98" font-family="Helvetica,sans-Serif" font-size="10.00">InitDefaults</text>
</a>
</g>
</g>
<!-- Node3&#45;&gt;Node5 -->
<g id="edge4" class="edge">
<title>Node3&#45;&gt;Node5</title>
<path fill="none" stroke="midnightblue" d="M466.18,-91.45C482.93,-94.17 501.22,-97.15 518.47,-99.95"/>
<polygon fill="midnightblue" stroke="midnightblue" points="518.05,-103.43 528.49,-101.58 519.18,-96.52 518.05,-103.43"/>
</g>
<!-- Node6 -->
<g id="node6" class="node">
<title>Node6</title>
<g id="a_node6"><a xlink:href="namespaceprotobuf__container__5fmanager__2eproto.html#a43d9c82ec9dc3a58cbb8eae25c7aed5f" target="_top" xlink:title=" ">
<polygon fill="white" stroke="black" points="525,-31 525,-72 656,-72 656,-31 525,-31"/>
<text text-anchor="start" x="533" y="-60" font-family="Helvetica,sans-Serif" font-size="10.00">protobuf_container</text>
<text text-anchor="start" x="533" y="-49" font-family="Helvetica,sans-Serif" font-size="10.00">_5fmanager_2eproto::</text>
<text text-anchor="middle" x="590.5" y="-38" font-family="Helvetica,sans-Serif" font-size="10.00">protobuf_RegisterTypes</text>
</a>
</g>
</g>
<!-- Node3&#45;&gt;Node6 -->
<g id="edge5" class="edge">
<title>Node3&#45;&gt;Node6</title>
<path fill="none" stroke="midnightblue" d="M466.18,-71.55C481.73,-69.02 498.61,-66.28 514.75,-63.65"/>
<polygon fill="midnightblue" stroke="midnightblue" points="515.38,-67.1 524.69,-62.04 514.25,-60.19 515.38,-67.1"/>
</g>
<!-- Node7 -->
<g id="node7" class="node">
<title>Node7</title>
<g id="a_node7"><a xlink:href="namespaceprotobuf__container__5fmanager__2eproto.html#ab04c51c0072a4e45767b6a95c90b5b75" target="_top" xlink:title=" ">
<polygon fill="white" stroke="black" points="715,-31 715,-72 891,-72 891,-31 715,-31"/>
<text text-anchor="start" x="723" y="-60" font-family="Helvetica,sans-Serif" font-size="10.00">protobuf_container</text>
<text text-anchor="start" x="723" y="-49" font-family="Helvetica,sans-Serif" font-size="10.00">_5fmanager_2eproto::</text>
<text text-anchor="middle" x="803" y="-38" font-family="Helvetica,sans-Serif" font-size="10.00">protobuf_AssignDescriptorsOnce</text>
</a>
</g>
</g>
<!-- Node6&#45;&gt;Node7 -->
<g id="edge6" class="edge">
<title>Node6&#45;&gt;Node7</title>
<path fill="none" stroke="midnightblue" d="M656.09,-51.5C671.4,-51.5 688.07,-51.5 704.49,-51.5"/>
<polygon fill="midnightblue" stroke="midnightblue" points="704.66,-55 714.66,-51.5 704.66,-48 704.66,-55"/>
</g>
<!-- Node8 -->
<g id="node8" class="node">
<title>Node8</title>
<g id="a_node8"><a xlink:href="namespaceprotobuf__container__5fmanager__2eproto.html#a0ee348abc5f8f24a77a8606492ccac72" target="_top" xlink:title=" ">
<polygon fill="white" stroke="black" points="927,-6 927,-47 1078,-47 1078,-6 927,-6"/>
<text text-anchor="start" x="935" y="-35" font-family="Helvetica,sans-Serif" font-size="10.00">protobuf_container</text>
<text text-anchor="start" x="935" y="-24" font-family="Helvetica,sans-Serif" font-size="10.00">_5fmanager_2eproto::</text>
<text text-anchor="middle" x="1002.5" y="-13" font-family="Helvetica,sans-Serif" font-size="10.00">protobuf_AssignDescriptors</text>
</a>
</g>
</g>
<!-- Node7&#45;&gt;Node8 -->
<g id="edge7" class="edge">
<title>Node7&#45;&gt;Node8</title>
<path fill="none" stroke="midnightblue" d="M891.2,-40.46C899.65,-39.39 908.21,-38.31 916.64,-37.24"/>
<polygon fill="midnightblue" stroke="midnightblue" points="917.35,-40.68 926.83,-35.95 916.47,-33.74 917.35,-40.68"/>
</g>
<!-- Node8&#45;&gt;Node2 -->
<g id="edge8" class="edge">
<title>Node8&#45;&gt;Node2</title>
<path fill="none" stroke="midnightblue" d="M926.92,-22.67C914.91,-22.18 902.62,-21.76 891,-21.5 682.08,-16.78 435.08,-21.58 316.09,-24.54"/>
<polygon fill="midnightblue" stroke="midnightblue" points="315.93,-21.04 306.02,-24.79 316.1,-28.04 315.93,-21.04"/>
</g>
</g>
</svg>
        <g id="navigator" transform="translate(0 0)" fill="#404254">
                <rect fill="#f2f5e9" fill-opacity="0.5" stroke="#606060" stroke-width=".5" x="0" y="0" width="60" height="60"/>
                <use id="zoomplus" xlink:href="#zoomPlus" x="17" y="9" onmousedown="handleZoom(evt,'in')"/>
                <use id="zoomminus" xlink:href="#zoomMin" x="42" y="9" onmousedown="handleZoom(evt,'out')"/>
                <use id="reset" xlink:href="#resetDef" x="30" y="36" onmousedown="handleReset()"/>
                <g id="arrowUp" xlink:href="#dirArrow" transform="translate(30 24)" onmousedown="handlePan(0,-1)">
                  <use xlink:href="#rim" fill="#404040">
                        <set attributeName="fill" to="#808080" begin="arrowUp.mouseover" end="arrowUp.mouseout"/>
                  </use>
                  <path fill="none" stroke="white" stroke-width="1.5" d="M0,-3.0v7 M-2.5,-0.5L0,-3.0L2.5,-0.5"/>
                </g>
                <g id="arrowRight" xlink:href="#dirArrow" transform="rotate(90) translate(36 -43)" onmousedown="handlePan(1,0)">
                  <use xlink:href="#rim" fill="#404040">
                        <set attributeName="fill" to="#808080" begin="arrowRight.mouseover" end="arrowRight.mouseout"/>
                  </use>
                  <path fill="none" stroke="white" stroke-width="1.5" d="M0,-3.0v7 M-2.5,-0.5L0,-3.0L2.5,-0.5"/>
                </g>
                <g id="arrowDown" xlink:href="#dirArrow" transform="rotate(180) translate(-30 -48)" onmousedown="handlePan(0,1)">
                  <use xlink:href="#rim" fill="#404040">
                        <set attributeName="fill" to="#808080" begin="arrowDown.mouseover" end="arrowDown.mouseout"/>
                  </use>
                  <path fill="none" stroke="white" stroke-width="1.5" d="M0,-3.0v7 M-2.5,-0.5L0,-3.0L2.5,-0.5"/>
                </g>
                <g id="arrowLeft" xlink:href="#dirArrow" transform="rotate(270) translate(-36 17)" onmousedown="handlePan(-1,0)">
                  <use xlink:href="#rim" fill="#404040">
                        <set attributeName="fill" to="#808080" begin="arrowLeft.mouseover" end="arrowLeft.mouseout"/>
                  </use>
                  <path fill="none" stroke="white" stroke-width="1.5" d="M0,-3.0v7 M-2.5,-0.5L0,-3.0L2.5,-0.5"/>
                </g>
        </g>
        <svg viewBox="0 0 15 15" width="100%" height="30px" preserveAspectRatio="xMaxYMin meet">
         <g id="arrow_out" transform="scale(0.3 0.3)">
          <a xlink:href="structprotobuf__container__5fmanager__2eproto_1_1StaticDescriptorInitializer_af07c031db7d4f3e7017db34e2bd48ee4_cgraph_org.svg" target="_base">
           <rect id="button" ry="5" rx="5" y="6" x="6" height="38" width="38"
                fill="#f2f5e9" fill-opacity="0.5" stroke="#606060" stroke-width="1.0"/>
           <path id="arrow"
             d="M 11.500037,31.436501 C 11.940474,20.09759 22.043105,11.32322 32.158766,21.979434 L 37.068811,17.246167 C 37.068811,17.246167 37.088388,32 37.088388,32 L 22.160133,31.978069 C 22.160133,31.978069 26.997745,27.140456 26.997745,27.140456 C 18.528582,18.264221 13.291696,25.230495 11.500037,31.436501 z"
             style="fill:#404040;"/>
          </a>
         </g>
        </svg>
</svg>
