<?xml version="1.0" encoding="UTF-8" standalone="no"?>
<!DOCTYPE svg PUBLIC "-//W3C//DTD SVG 1.1//EN"
 "http://www.w3.org/Graphics/SVG/1.1/DTD/svg11.dtd">
<!-- Generated by graphviz version 2.43.0 (0)
 -->
<!-- Title: Status::Ok Pages: 1 -->
<!--zoomable 1107 -->
<svg id="main" version="1.1" xmlns="http://www.w3.org/2000/svg" xmlns:xlink="http://www.w3.org/1999/xlink" xml:space="preserve" onload="init(evt)">
<style type="text/css"><![CDATA[
.edge:hover path { stroke: red; }
.edge:hover polygon { stroke: red; fill: red; }
]]></style>
<script type="text/javascript"><![CDATA[
var edges = document.getElementsByTagName('g');
if (edges && edges.length) {
  for (var i=0;i<edges.length;i++) {
    if (edges[i].id.substr(0,4)=='edge') {
      edges[i].setAttribute('class','edge');
    }
  }
}
]]></script>
        <defs>
                <circle id="rim" cx="0" cy="0" r="7"/>
                <circle id="rim2" cx="0" cy="0" r="3.5"/>
                <g id="zoomPlus">
                        <use xlink:href="#rim" fill="#404040">
                                <set attributeName="fill" to="#808080" begin="zoomplus.mouseover" end="zoomplus.mouseout"/>
                        </use>
                        <path d="M-4,0h8M0,-4v8" fill="none" stroke="white" stroke-width="1.5" pointer-events="none"/>
                </g>
                <g id="zoomMin">
                        <use xlink:href="#rim" fill="#404040">
                                <set attributeName="fill" to="#808080" begin="zoomminus.mouseover" end="zoomminus.mouseout"/>
                        </use>
                        <path d="M-4,0h8" fill="none" stroke="white" stroke-width="1.5" pointer-events="none"/>
                </g>
                <g id="dirArrow">
                        <path fill="none" stroke="white" stroke-width="1.5" d="M0,-3.0v7 M-2.5,-0.5L0,-3.0L2.5,-0.5"/>
                </g>
               <g id="resetDef">
                       <use xlink:href="#rim2" fill="#404040">
                               <set attributeName="fill" to="#808080" begin="reset.mouseover" end="reset.mouseout"/>
                       </use>
               </g>
        </defs>

<script type="text/javascript">
var viewWidth = 305;
var viewHeight = 1107;
var sectionId = 'dynsection-2';
</script>
<script xlink:href="svgpan.js"/>
<svg id="graph" class="graph">
<g id="viewport">
<title>Status::Ok</title>
<polygon fill="white" stroke="transparent" points="-4,4 -4,-1102.5 301,-1102.5 301,4 -4,4"/>
<!-- Node1 -->
<g id="node1" class="node">
<title>Node1</title>
<g id="a_node1"><a xlink:title="Returns a success Status.">
<polygon fill="#bfbfbf" stroke="black" points="230,-534.5 230,-553.5 297,-553.5 297,-534.5 230,-534.5"/>
<text text-anchor="middle" x="263.5" y="-541.5" font-family="Helvetica,sans-Serif" font-size="10.00">Status::Ok</text>
</a>
</g>
</g>
<!-- Node2 -->
<g id="node2" class="node">
<title>Node2</title>
<g id="a_node2"><a xlink:href="classDockerRuntimeAvailableCommand.html#a433b87ede31bd16ced081ab1e74658f7" target="_top" xlink:title="Executes the command to check Docker runtime availability.">
<polygon fill="white" stroke="black" points="3.5,-1068 3.5,-1098 190.5,-1098 190.5,-1068 3.5,-1068"/>
<text text-anchor="start" x="11.5" y="-1086" font-family="Helvetica,sans-Serif" font-size="10.00">DockerRuntimeAvailableCommand</text>
<text text-anchor="middle" x="97" y="-1075" font-family="Helvetica,sans-Serif" font-size="10.00">::Execute</text>
</a>
</g>
</g>
<!-- Node1&#45;&gt;Node2 -->
<g id="edge1" class="edge">
<title>Node1&#45;&gt;Node2</title>
<path fill="none" stroke="midnightblue" d="M262.72,-564C263.25,-649.6 260.92,-984.07 194,-1059 191.02,-1062.33 187.66,-1065.23 184.03,-1067.76"/>
<polygon fill="midnightblue" stroke="midnightblue" points="266.22,-563.8 262.64,-553.83 259.22,-563.86 266.22,-563.8"/>
</g>
<!-- Node3 -->
<g id="node3" class="node">
<title>Node3</title>
<g id="a_node3"><a xlink:href="classPodmanRuntimeAvailableCommand.html#aacb94d714ffe16dc33591d9e287da7d3" target="_top" xlink:title="Executes the command to check Podman runtime availability.">
<polygon fill="white" stroke="black" points="0.5,-1019 0.5,-1049 193.5,-1049 193.5,-1019 0.5,-1019"/>
<text text-anchor="start" x="8.5" y="-1037" font-family="Helvetica,sans-Serif" font-size="10.00">PodmanRuntimeAvailableCommand</text>
<text text-anchor="middle" x="97" y="-1026" font-family="Helvetica,sans-Serif" font-size="10.00">::Execute</text>
</a>
</g>
</g>
<!-- Node1&#45;&gt;Node3 -->
<g id="edge2" class="edge">
<title>Node1&#45;&gt;Node3</title>
<path fill="none" stroke="midnightblue" d="M262.41,-563.86C261.64,-644.06 254.69,-942.99 194,-1010 190.89,-1013.44 187.36,-1016.42 183.55,-1019"/>
<polygon fill="midnightblue" stroke="midnightblue" points="265.91,-563.69 262.49,-553.67 258.91,-563.64 265.91,-563.69"/>
</g>
<!-- Node4 -->
<g id="node4" class="node">
<title>Node4</title>
<g id="a_node4"><a xlink:href="classPodmanApiRuntimeAvailableCommand.html#aff85761ab4422c43b802fa285074e28d" target="_top" xlink:title="Executes the command to check Podman API runtime availability.">
<polygon fill="white" stroke="black" points="18,-970 18,-1000 176,-1000 176,-970 18,-970"/>
<text text-anchor="start" x="26" y="-988" font-family="Helvetica,sans-Serif" font-size="10.00">PodmanApiRuntimeAvailable</text>
<text text-anchor="middle" x="97" y="-977" font-family="Helvetica,sans-Serif" font-size="10.00">Command::Execute</text>
</a>
</g>
</g>
<!-- Node1&#45;&gt;Node4 -->
<g id="edge3" class="edge">
<title>Node1&#45;&gt;Node4</title>
<path fill="none" stroke="midnightblue" d="M262.03,-564.12C259.84,-639.24 248.37,-901.96 194,-961 189,-966.43 182.96,-970.72 176.39,-974.09"/>
<polygon fill="midnightblue" stroke="midnightblue" points="265.53,-563.83 262.3,-553.74 258.54,-563.64 265.53,-563.83"/>
</g>
<!-- Node5 -->
<g id="node5" class="node">
<title>Node5</title>
<g id="a_node5"><a xlink:href="classDockerApiRuntimeAvailableCommand.html#a77724faeeb6392b8508e81d8b1b61b42" target="_top" xlink:title="Executes the command to check Docker API runtime availability.">
<polygon fill="white" stroke="black" points="21,-921 21,-951 173,-951 173,-921 21,-921"/>
<text text-anchor="start" x="29" y="-939" font-family="Helvetica,sans-Serif" font-size="10.00">DockerApiRuntimeAvailable</text>
<text text-anchor="middle" x="97" y="-928" font-family="Helvetica,sans-Serif" font-size="10.00">Command::Execute</text>
</a>
</g>
</g>
<!-- Node1&#45;&gt;Node5 -->
<g id="edge4" class="edge">
<title>Node1&#45;&gt;Node5</title>
<path fill="none" stroke="midnightblue" d="M261.55,-563.94C257.86,-633.04 242.2,-860.77 194,-912 188.11,-918.26 180.87,-922.98 173.01,-926.54"/>
<polygon fill="midnightblue" stroke="midnightblue" points="265.07,-563.77 262.08,-553.61 258.07,-563.42 265.07,-563.77"/>
</g>
<!-- Node6 -->
<g id="node6" class="node">
<title>Node6</title>
<g id="a_node6"><a xlink:href="classDockerCreateContainerCommand.html#a808e47cfa3f850e5d6fec1e4e264db07" target="_top" xlink:title="Executes the command to create a Docker container.">
<polygon fill="white" stroke="black" points="7,-872 7,-902 187,-902 187,-872 7,-872"/>
<text text-anchor="start" x="15" y="-890" font-family="Helvetica,sans-Serif" font-size="10.00">DockerCreateContainerCommand</text>
<text text-anchor="middle" x="97" y="-879" font-family="Helvetica,sans-Serif" font-size="10.00">::Execute</text>
</a>
</g>
</g>
<!-- Node1&#45;&gt;Node6 -->
<g id="edge5" class="edge">
<title>Node1&#45;&gt;Node6</title>
<path fill="none" stroke="midnightblue" d="M260.95,-563.69C255.64,-626.33 236.08,-819.49 194,-863 190.78,-866.33 187.16,-869.23 183.28,-871.75"/>
<polygon fill="midnightblue" stroke="midnightblue" points="264.45,-563.83 261.78,-553.57 257.48,-563.25 264.45,-563.83"/>
</g>
<!-- Node7 -->
<g id="node7" class="node">
<title>Node7</title>
<g id="a_node7"><a xlink:href="classPodmanApiCreateContainerCommand.html#aa4f4f0eac46ff0428f4d7ea6a6e94f08" target="_top" xlink:title="Executes the command to create a Podman container via the API.">
<polygon fill="white" stroke="black" points="21,-823 21,-853 173,-853 173,-823 21,-823"/>
<text text-anchor="start" x="29" y="-841" font-family="Helvetica,sans-Serif" font-size="10.00">PodmanApiCreateContainer</text>
<text text-anchor="middle" x="97" y="-830" font-family="Helvetica,sans-Serif" font-size="10.00">Command::Execute</text>
</a>
</g>
</g>
<!-- Node1&#45;&gt;Node7 -->
<g id="edge6" class="edge">
<title>Node1&#45;&gt;Node7</title>
<path fill="none" stroke="midnightblue" d="M260.15,-563.52C253.03,-619.39 229.97,-778.15 194,-814 188.04,-819.94 180.84,-824.49 173.1,-827.96"/>
<polygon fill="midnightblue" stroke="midnightblue" points="263.63,-563.87 261.39,-553.52 256.68,-563.01 263.63,-563.87"/>
</g>
<!-- Node8 -->
<g id="node8" class="node">
<title>Node8</title>
<g id="a_node8"><a xlink:href="classDockerApiCreateContainerCommand.html#aa6fe70f5b10327368b93f0c2a8ecf45a" target="_top" xlink:title="Executes the command to create a Docker container via the API.">
<polygon fill="white" stroke="black" points="24,-774 24,-804 170,-804 170,-774 24,-774"/>
<text text-anchor="start" x="32" y="-792" font-family="Helvetica,sans-Serif" font-size="10.00">DockerApiCreateContainer</text>
<text text-anchor="middle" x="97" y="-781" font-family="Helvetica,sans-Serif" font-size="10.00">Command::Execute</text>
</a>
</g>
</g>
<!-- Node1&#45;&gt;Node8 -->
<g id="edge7" class="edge">
<title>Node1&#45;&gt;Node8</title>
<path fill="none" stroke="midnightblue" d="M262.46,-563.69C261.27,-606.79 252.13,-710.01 194,-765 187.26,-771.37 179.09,-776.13 170.4,-779.66"/>
<polygon fill="midnightblue" stroke="midnightblue" points="265.97,-563.71 262.62,-553.65 258.97,-563.6 265.97,-563.71"/>
</g>
<!-- Node9 -->
<g id="node9" class="node">
<title>Node9</title>
<g id="a_node9"><a xlink:href="classPodmanCreateContainerCommand.html#ac20efe97c1a0812cc615ed592de35ba4" target="_top" xlink:title="Executes the command to create a Podman container.">
<polygon fill="white" stroke="black" points="4,-725 4,-755 190,-755 190,-725 4,-725"/>
<text text-anchor="start" x="12" y="-743" font-family="Helvetica,sans-Serif" font-size="10.00">PodmanCreateContainerCommand</text>
<text text-anchor="middle" x="97" y="-732" font-family="Helvetica,sans-Serif" font-size="10.00">::Execute</text>
</a>
</g>
</g>
<!-- Node1&#45;&gt;Node9 -->
<g id="edge8" class="edge">
<title>Node1&#45;&gt;Node9</title>
<path fill="none" stroke="midnightblue" d="M260.46,-563.65C255.65,-599.5 240.29,-675.53 194,-716 190.12,-719.39 185.83,-722.32 181.28,-724.84"/>
<polygon fill="midnightblue" stroke="midnightblue" points="263.96,-563.87 261.67,-553.52 257,-563.03 263.96,-563.87"/>
</g>
<!-- Node10 -->
<g id="node10" class="node">
<title>Node10</title>
<g id="a_node10"><a xlink:href="classDockerStartContainerCommand.html#a6e499ebb03f933dea994126430b47fa2" target="_top" xlink:title="Executes the command to start a Docker container.">
<polygon fill="white" stroke="black" points="11.5,-676 11.5,-706 182.5,-706 182.5,-676 11.5,-676"/>
<text text-anchor="start" x="19.5" y="-694" font-family="Helvetica,sans-Serif" font-size="10.00">DockerStartContainerCommand</text>
<text text-anchor="middle" x="97" y="-683" font-family="Helvetica,sans-Serif" font-size="10.00">::Execute</text>
</a>
</g>
</g>
<!-- Node1&#45;&gt;Node10 -->
<g id="edge9" class="edge">
<title>Node1&#45;&gt;Node10</title>
<path fill="none" stroke="midnightblue" d="M257.09,-563.37C248.43,-590.74 228.77,-640.36 194,-667 189.5,-670.45 184.56,-673.41 179.38,-675.94"/>
<polygon fill="midnightblue" stroke="midnightblue" points="260.46,-564.34 259.97,-553.75 253.75,-562.33 260.46,-564.34"/>
</g>
<!-- Node11 -->
<g id="node11" class="node">
<title>Node11</title>
<g id="a_node11"><a xlink:href="classPodmanStartContainerCommand.html#a8b50901fb02b033f51cf996e6b78ac08" target="_top" xlink:title="Executes the command to start a Podman container.">
<polygon fill="white" stroke="black" points="8.5,-627 8.5,-657 185.5,-657 185.5,-627 8.5,-627"/>
<text text-anchor="start" x="16.5" y="-645" font-family="Helvetica,sans-Serif" font-size="10.00">PodmanStartContainerCommand</text>
<text text-anchor="middle" x="97" y="-634" font-family="Helvetica,sans-Serif" font-size="10.00">::Execute</text>
</a>
</g>
</g>
<!-- Node1&#45;&gt;Node11 -->
<g id="edge10" class="edge">
<title>Node1&#45;&gt;Node11</title>
<path fill="none" stroke="midnightblue" d="M250.48,-562.11C238.26,-579.09 217.77,-603.93 194,-618 188.23,-621.41 182,-624.34 175.57,-626.86"/>
<polygon fill="midnightblue" stroke="midnightblue" points="253.57,-563.81 256.39,-553.6 247.82,-559.81 253.57,-563.81"/>
</g>
<!-- Node12 -->
<g id="node12" class="node">
<title>Node12</title>
<g id="a_node12"><a xlink:href="classDockerApiStartContainerCommand.html#a9e1d44df3c9fed542ccf6aef9e383860" target="_top" xlink:title="Executes the command to start a Docker container via the API.">
<polygon fill="white" stroke="black" points="3.5,-578 3.5,-608 190.5,-608 190.5,-578 3.5,-578"/>
<text text-anchor="start" x="11.5" y="-596" font-family="Helvetica,sans-Serif" font-size="10.00">DockerApiStartContainerCommand</text>
<text text-anchor="middle" x="97" y="-585" font-family="Helvetica,sans-Serif" font-size="10.00">::Execute</text>
</a>
</g>
</g>
<!-- Node1&#45;&gt;Node12 -->
<g id="edge11" class="edge">
<title>Node1&#45;&gt;Node12</title>
<path fill="none" stroke="midnightblue" d="M228.65,-557.15C217.68,-561.2 205.4,-565.51 194,-569 183.73,-572.15 172.76,-575.19 162.03,-577.99"/>
<polygon fill="midnightblue" stroke="midnightblue" points="230.16,-560.32 238.3,-553.54 227.71,-553.77 230.16,-560.32"/>
</g>
<!-- Node13 -->
<g id="node13" class="node">
<title>Node13</title>
<g id="a_node13"><a xlink:href="classPodmanApiStartContainerCommand.html#a8b359ed21f9b14a581da61246eb6bd09" target="_top" xlink:title="Executes the command to start a Podman container via the API.">
<polygon fill="white" stroke="black" points="0.5,-529 0.5,-559 193.5,-559 193.5,-529 0.5,-529"/>
<text text-anchor="start" x="8.5" y="-547" font-family="Helvetica,sans-Serif" font-size="10.00">PodmanApiStartContainerCommand</text>
<text text-anchor="middle" x="97" y="-536" font-family="Helvetica,sans-Serif" font-size="10.00">::Execute</text>
</a>
</g>
</g>
<!-- Node1&#45;&gt;Node13 -->
<g id="edge12" class="edge">
<title>Node1&#45;&gt;Node13</title>
<path fill="none" stroke="midnightblue" d="M219.38,-544C211.29,-544 202.53,-544 193.56,-544"/>
<polygon fill="midnightblue" stroke="midnightblue" points="219.61,-547.5 229.61,-544 219.61,-540.5 219.61,-547.5"/>
</g>
<!-- Node14 -->
<g id="node14" class="node">
<title>Node14</title>
<g id="a_node14"><a xlink:href="classDockerStopContainerCommand.html#a2821bbcaa9c8e3e4797160f9c128ff6d" target="_top" xlink:title="Executes the command to stop a Docker container.">
<polygon fill="white" stroke="black" points="12,-480 12,-510 182,-510 182,-480 12,-480"/>
<text text-anchor="start" x="20" y="-498" font-family="Helvetica,sans-Serif" font-size="10.00">DockerStopContainerCommand</text>
<text text-anchor="middle" x="97" y="-487" font-family="Helvetica,sans-Serif" font-size="10.00">::Execute</text>
</a>
</g>
</g>
<!-- Node1&#45;&gt;Node14 -->
<g id="edge13" class="edge">
<title>Node1&#45;&gt;Node14</title>
<path fill="none" stroke="midnightblue" d="M227.52,-531.12C216.82,-527.35 204.98,-523.35 194,-520 182.72,-516.56 170.6,-513.17 158.9,-510.05"/>
<polygon fill="midnightblue" stroke="midnightblue" points="226.37,-534.43 236.97,-534.49 228.73,-527.84 226.37,-534.43"/>
</g>
<!-- Node15 -->
<g id="node15" class="node">
<title>Node15</title>
<g id="a_node15"><a xlink:href="classPodmanStopContainerCommand.html#a1843b23a5c04cac1958338a47edeac1c" target="_top" xlink:title="Executes the command to stop a Podman container.">
<polygon fill="white" stroke="black" points="9,-431 9,-461 185,-461 185,-431 9,-431"/>
<text text-anchor="start" x="17" y="-449" font-family="Helvetica,sans-Serif" font-size="10.00">PodmanStopContainerCommand</text>
<text text-anchor="middle" x="97" y="-438" font-family="Helvetica,sans-Serif" font-size="10.00">::Execute</text>
</a>
</g>
</g>
<!-- Node1&#45;&gt;Node15 -->
<g id="edge14" class="edge">
<title>Node1&#45;&gt;Node15</title>
<path fill="none" stroke="midnightblue" d="M250.2,-525.92C237.89,-509.21 217.45,-484.93 194,-471 187.48,-467.13 180.37,-463.85 173.06,-461.08"/>
<polygon fill="midnightblue" stroke="midnightblue" points="247.52,-528.19 256.17,-534.31 253.22,-524.14 247.52,-528.19"/>
</g>
<!-- Node16 -->
<g id="node16" class="node">
<title>Node16</title>
<g id="a_node16"><a xlink:href="classDockerApiStopContainerCommand.html#a069c3c95925d8595762d40ca76f0ff95" target="_top" xlink:title="Executes the command to stop a Docker container via the API.">
<polygon fill="white" stroke="black" points="4.5,-382 4.5,-412 189.5,-412 189.5,-382 4.5,-382"/>
<text text-anchor="start" x="12.5" y="-400" font-family="Helvetica,sans-Serif" font-size="10.00">DockerApiStopContainerCommand</text>
<text text-anchor="middle" x="97" y="-389" font-family="Helvetica,sans-Serif" font-size="10.00">::Execute</text>
</a>
</g>
</g>
<!-- Node1&#45;&gt;Node16 -->
<g id="edge15" class="edge">
<title>Node1&#45;&gt;Node16</title>
<path fill="none" stroke="midnightblue" d="M256.9,-524.47C248.07,-497.3 228.32,-448.47 194,-422 188.95,-418.11 183.36,-414.82 177.49,-412.04"/>
<polygon fill="midnightblue" stroke="midnightblue" points="253.65,-525.82 259.93,-534.35 260.34,-523.76 253.65,-525.82"/>
</g>
<!-- Node17 -->
<g id="node17" class="node">
<title>Node17</title>
<g id="a_node17"><a xlink:href="classPodmanApiStopContainerCommand.html#a85bea8f24f66f9ac514ef09ea6dd1c1a" target="_top" xlink:title="Executes the command to stop a Podman container via the API.">
<polygon fill="white" stroke="black" points="1.5,-333 1.5,-363 192.5,-363 192.5,-333 1.5,-333"/>
<text text-anchor="start" x="9.5" y="-351" font-family="Helvetica,sans-Serif" font-size="10.00">PodmanApiStopContainerCommand</text>
<text text-anchor="middle" x="97" y="-340" font-family="Helvetica,sans-Serif" font-size="10.00">::Execute</text>
</a>
</g>
</g>
<!-- Node1&#45;&gt;Node17 -->
<g id="edge16" class="edge">
<title>Node1&#45;&gt;Node17</title>
<path fill="none" stroke="midnightblue" d="M260.31,-524C255.31,-488.22 239.69,-413.25 194,-373 189.61,-369.13 184.69,-365.85 179.46,-363.06"/>
<polygon fill="midnightblue" stroke="midnightblue" points="256.87,-524.66 261.59,-534.14 263.81,-523.78 256.87,-524.66"/>
</g>
<!-- Node18 -->
<g id="node18" class="node">
<title>Node18</title>
<g id="a_node18"><a xlink:href="classDockerRemoveContainerCommand.html#a70ccb6707d41b644b22f13a6c520bc15" target="_top" xlink:title="Executes the command to remove a Docker container.">
<polygon fill="white" stroke="black" points="3,-284 3,-314 191,-314 191,-284 3,-284"/>
<text text-anchor="start" x="11" y="-302" font-family="Helvetica,sans-Serif" font-size="10.00">DockerRemoveContainerCommand</text>
<text text-anchor="middle" x="97" y="-291" font-family="Helvetica,sans-Serif" font-size="10.00">::Execute</text>
</a>
</g>
</g>
<!-- Node1&#45;&gt;Node18 -->
<g id="edge17" class="edge">
<title>Node1&#45;&gt;Node18</title>
<path fill="none" stroke="midnightblue" d="M262.39,-524.16C261.02,-481.18 251.53,-378.89 194,-324 190.01,-320.2 185.52,-316.95 180.72,-314.19"/>
<polygon fill="midnightblue" stroke="midnightblue" points="258.89,-524.48 262.59,-534.41 265.89,-524.34 258.89,-524.48"/>
</g>
<!-- Node19 -->
<g id="node19" class="node">
<title>Node19</title>
<g id="a_node19"><a xlink:href="classDockerApiRestartContainerCommand.html#a93f11d262f9a76765a4a606cd39eba44" target="_top" xlink:title="Executes the command to restart a Docker container via the API.">
<polygon fill="white" stroke="black" points="22.5,-235 22.5,-265 171.5,-265 171.5,-235 22.5,-235"/>
<text text-anchor="start" x="30.5" y="-253" font-family="Helvetica,sans-Serif" font-size="10.00">DockerApiRestartContainer</text>
<text text-anchor="middle" x="97" y="-242" font-family="Helvetica,sans-Serif" font-size="10.00">Command::Execute</text>
</a>
</g>
</g>
<!-- Node1&#45;&gt;Node19 -->
<g id="edge18" class="edge">
<title>Node1&#45;&gt;Node19</title>
<path fill="none" stroke="midnightblue" d="M260.07,-524.19C252.82,-468.25 229.61,-310.8 194,-275 187.68,-268.65 179.97,-263.85 171.7,-260.23"/>
<polygon fill="midnightblue" stroke="midnightblue" points="256.61,-524.75 261.34,-534.24 263.56,-523.88 256.61,-524.75"/>
</g>
<!-- Node20 -->
<g id="node20" class="node">
<title>Node20</title>
<g id="a_node20"><a xlink:href="classPodmanRemoveContainerCommand.html#a21932aba8fb96cf6214f74b9609acd52" target="_top" xlink:title="Executes the command to remove a Podman container.">
<polygon fill="white" stroke="black" points="0,-186 0,-216 194,-216 194,-186 0,-186"/>
<text text-anchor="start" x="8" y="-204" font-family="Helvetica,sans-Serif" font-size="10.00">PodmanRemoveContainerCommand</text>
<text text-anchor="middle" x="97" y="-193" font-family="Helvetica,sans-Serif" font-size="10.00">::Execute</text>
</a>
</g>
</g>
<!-- Node1&#45;&gt;Node20 -->
<g id="edge19" class="edge">
<title>Node1&#45;&gt;Node20</title>
<path fill="none" stroke="midnightblue" d="M260.93,-524.39C255.53,-461.99 235.75,-269.57 194,-226 190.31,-222.15 186.1,-218.86 181.56,-216.06"/>
<polygon fill="midnightblue" stroke="midnightblue" points="257.45,-524.79 261.77,-534.46 264.42,-524.21 257.45,-524.79"/>
</g>
<!-- Node21 -->
<g id="node21" class="node">
<title>Node21</title>
<g id="a_node21"><a xlink:href="classDockerRestartContainerCommand.html#a339586381700016baae33f07fe2715b4" target="_top" xlink:title="Executes the command to restart a Docker container.">
<polygon fill="white" stroke="black" points="5.5,-137 5.5,-167 188.5,-167 188.5,-137 5.5,-137"/>
<text text-anchor="start" x="13.5" y="-155" font-family="Helvetica,sans-Serif" font-size="10.00">DockerRestartContainerCommand</text>
<text text-anchor="middle" x="97" y="-144" font-family="Helvetica,sans-Serif" font-size="10.00">::Execute</text>
</a>
</g>
</g>
<!-- Node1&#45;&gt;Node21 -->
<g id="edge20" class="edge">
<title>Node1&#45;&gt;Node21</title>
<path fill="none" stroke="midnightblue" d="M261.53,-524.13C257.75,-455.27 241.84,-228.32 194,-177 190.48,-173.22 186.46,-169.98 182.12,-167.21"/>
<polygon fill="midnightblue" stroke="midnightblue" points="258.05,-524.62 262.06,-534.43 265.04,-524.26 258.05,-524.62"/>
</g>
<!-- Node22 -->
<g id="node22" class="node">
<title>Node22</title>
<g id="a_node22"><a xlink:href="classDockerApiRemoveContainerCommand.html#a56eefcf10fdf0689a2b6ba54e9970c13" target="_top" xlink:title="Executes the command to remove a Docker container via the API.">
<polygon fill="white" stroke="black" points="20,-88 20,-118 174,-118 174,-88 20,-88"/>
<text text-anchor="start" x="28" y="-106" font-family="Helvetica,sans-Serif" font-size="10.00">DockerApiRemoveContainer</text>
<text text-anchor="middle" x="97" y="-95" font-family="Helvetica,sans-Serif" font-size="10.00">Command::Execute</text>
</a>
</g>
</g>
<!-- Node1&#45;&gt;Node22 -->
<g id="edge21" class="edge">
<title>Node1&#45;&gt;Node22</title>
<path fill="none" stroke="midnightblue" d="M262,-523.94C259.72,-449.06 247.97,-187.15 194,-128 188.43,-121.89 181.57,-117.2 174.11,-113.6"/>
<polygon fill="midnightblue" stroke="midnightblue" points="258.51,-524.4 262.29,-534.29 265.51,-524.2 258.51,-524.4"/>
</g>
<!-- Node23 -->
<g id="node23" class="node">
<title>Node23</title>
<g id="a_node23"><a xlink:href="classPodmanRestartContainerCommand.html#a6b54741ba54cdaa95d63bdbd89005bb6" target="_top" xlink:title="Executes the command to restart a Podman container.">
<polygon fill="white" stroke="black" points="2.5,-39 2.5,-69 191.5,-69 191.5,-39 2.5,-39"/>
<text text-anchor="start" x="10.5" y="-57" font-family="Helvetica,sans-Serif" font-size="10.00">PodmanRestartContainerCommand</text>
<text text-anchor="middle" x="97" y="-46" font-family="Helvetica,sans-Serif" font-size="10.00">::Execute</text>
</a>
</g>
</g>
<!-- Node1&#45;&gt;Node23 -->
<g id="edge22" class="edge">
<title>Node1&#45;&gt;Node23</title>
<path fill="none" stroke="midnightblue" d="M262.39,-524.2C261.52,-444.23 254.24,-146.16 194,-79 190.55,-75.15 186.59,-71.87 182.29,-69.06"/>
<polygon fill="midnightblue" stroke="midnightblue" points="258.89,-524.39 262.47,-534.36 265.89,-524.33 258.89,-524.39"/>
</g>
<!-- Node24 -->
<g id="node24" class="node">
<title>Node24</title>
<g id="a_node24"><a xlink:href="container__service__test_8cpp.html#ae36f59fcca1a5dc866857de22ca9740a" target="_top" xlink:title=" ">
<polygon fill="white" stroke="black" points="71,-0.5 71,-19.5 123,-19.5 123,-0.5 71,-0.5"/>
<text text-anchor="middle" x="97" y="-7.5" font-family="Helvetica,sans-Serif" font-size="10.00">TEST_F</text>
</a>
</g>
</g>
<!-- Node1&#45;&gt;Node24 -->
<g id="edge23" class="edge">
<title>Node1&#45;&gt;Node24</title>
<path fill="none" stroke="midnightblue" d="M262.79,-523.97C263.6,-438.26 262.27,-103.44 194,-30 176.15,-10.8 145.03,-7.46 123.07,-7.85"/>
<polygon fill="midnightblue" stroke="midnightblue" points="259.29,-524.12 262.67,-534.16 266.29,-524.2 259.29,-524.12"/>
</g>
</g>
</svg>
        <g id="navigator" transform="translate(0 0)" fill="#404254">
                <rect fill="#f2f5e9" fill-opacity="0.5" stroke="#606060" stroke-width=".5" x="0" y="0" width="60" height="60"/>
                <use id="zoomplus" xlink:href="#zoomPlus" x="17" y="9" onmousedown="handleZoom(evt,'in')"/>
                <use id="zoomminus" xlink:href="#zoomMin" x="42" y="9" onmousedown="handleZoom(evt,'out')"/>
                <use id="reset" xlink:href="#resetDef" x="30" y="36" onmousedown="handleReset()"/>
                <g id="arrowUp" xlink:href="#dirArrow" transform="translate(30 24)" onmousedown="handlePan(0,-1)">
                  <use xlink:href="#rim" fill="#404040">
                        <set attributeName="fill" to="#808080" begin="arrowUp.mouseover" end="arrowUp.mouseout"/>
                  </use>
                  <path fill="none" stroke="white" stroke-width="1.5" d="M0,-3.0v7 M-2.5,-0.5L0,-3.0L2.5,-0.5"/>
                </g>
                <g id="arrowRight" xlink:href="#dirArrow" transform="rotate(90) translate(36 -43)" onmousedown="handlePan(1,0)">
                  <use xlink:href="#rim" fill="#404040">
                        <set attributeName="fill" to="#808080" begin="arrowRight.mouseover" end="arrowRight.mouseout"/>
                  </use>
                  <path fill="none" stroke="white" stroke-width="1.5" d="M0,-3.0v7 M-2.5,-0.5L0,-3.0L2.5,-0.5"/>
                </g>
                <g id="arrowDown" xlink:href="#dirArrow" transform="rotate(180) translate(-30 -48)" onmousedown="handlePan(0,1)">
                  <use xlink:href="#rim" fill="#404040">
                        <set attributeName="fill" to="#808080" begin="arrowDown.mouseover" end="arrowDown.mouseout"/>
                  </use>
                  <path fill="none" stroke="white" stroke-width="1.5" d="M0,-3.0v7 M-2.5,-0.5L0,-3.0L2.5,-0.5"/>
                </g>
                <g id="arrowLeft" xlink:href="#dirArrow" transform="rotate(270) translate(-36 17)" onmousedown="handlePan(-1,0)">
                  <use xlink:href="#rim" fill="#404040">
                        <set attributeName="fill" to="#808080" begin="arrowLeft.mouseover" end="arrowLeft.mouseout"/>
                  </use>
                  <path fill="none" stroke="white" stroke-width="1.5" d="M0,-3.0v7 M-2.5,-0.5L0,-3.0L2.5,-0.5"/>
                </g>
        </g>
        <svg viewBox="0 0 15 15" width="100%" height="30px" preserveAspectRatio="xMaxYMin meet">
         <g id="arrow_out" transform="scale(0.3 0.3)">
          <a xlink:href="structStatus_ab516c5b687e7e334a1865fe28fd39122_icgraph_org.svg" target="_base">
           <rect id="button" ry="5" rx="5" y="6" x="6" height="38" width="38"
                fill="#f2f5e9" fill-opacity="0.5" stroke="#606060" stroke-width="1.0"/>
           <path id="arrow"
             d="M 11.500037,31.436501 C 11.940474,20.09759 22.043105,11.32322 32.158766,21.979434 L 37.068811,17.246167 C 37.068811,17.246167 37.088388,32 37.088388,32 L 22.160133,31.978069 C 22.160133,31.978069 26.997745,27.140456 26.997745,27.140456 C 18.528582,18.264221 13.291696,25.230495 11.500037,31.436501 z"
             style="fill:#404040;"/>
          </a>
         </g>
        </svg>
</svg>
