<?xml version="1.0" encoding="UTF-8" standalone="no"?>
<!DOCTYPE svg PUBLIC "-//W3C//DTD SVG 1.1//EN"
 "http://www.w3.org/Graphics/SVG/1.1/DTD/svg11.dtd">
<!-- Generated by graphviz version 2.43.0 (0)
 -->
<!-- Title: Status::Ok Pages: 1 -->
<svg width="305pt" height="1068pt"
 viewBox="0.00 0.00 305.00 1068.00" xmlns="http://www.w3.org/2000/svg" xmlns:xlink="http://www.w3.org/1999/xlink">
<g id="graph0" class="graph" transform="scale(1 1) rotate(0) translate(4 1064)">
<title>Status::Ok</title>
<polygon fill="white" stroke="transparent" points="-4,4 -4,-1064 301,-1064 301,4 -4,4"/>
<!-- Node1 -->
<g id="node1" class="node">
<title>Node1</title>
<g id="a_node1"><a xlink:title="Returns a success Status.">
<polygon fill="#bfbfbf" stroke="black" points="230,-520 230,-539 297,-539 297,-520 230,-520"/>
<text text-anchor="middle" x="263.5" y="-527" font-family="Helvetica,sans-Serif" font-size="10.00">Status::Ok</text>
</a>
</g>
</g>
<!-- Node2 -->
<g id="node2" class="node">
<title>Node2</title>
<g id="a_node2"><a xlink:href="classDockerRuntimeAvailableCommand.html#a433b87ede31bd16ced081ab1e74658f7" target="_top" xlink:title="Executes the command to check Docker runtime availability.">
<polygon fill="white" stroke="black" points="3.5,-1029.5 3.5,-1059.5 190.5,-1059.5 190.5,-1029.5 3.5,-1029.5"/>
<text text-anchor="start" x="11.5" y="-1047.5" font-family="Helvetica,sans-Serif" font-size="10.00">DockerRuntimeAvailableCommand</text>
<text text-anchor="middle" x="97" y="-1036.5" font-family="Helvetica,sans-Serif" font-size="10.00">::Execute</text>
</a>
</g>
</g>
<!-- Node1&#45;&gt;Node2 -->
<g id="edge1" class="edge">
<title>Node1&#45;&gt;Node2</title>
<path fill="none" stroke="midnightblue" d="M262.58,-549.36C262.48,-632.23 257.88,-949.43 194,-1020.5 191.01,-1023.82 187.64,-1026.72 184,-1029.24"/>
<polygon fill="midnightblue" stroke="midnightblue" points="266.08,-549.27 262.57,-539.27 259.08,-549.28 266.08,-549.27"/>
</g>
<!-- Node3 -->
<g id="node3" class="node">
<title>Node3</title>
<g id="a_node3"><a xlink:href="classPodmanRuntimeAvailableCommand.html#aacb94d714ffe16dc33591d9e287da7d3" target="_top" xlink:title="Executes the command to check Podman runtime availability.">
<polygon fill="white" stroke="black" points="0.5,-980.5 0.5,-1010.5 193.5,-1010.5 193.5,-980.5 0.5,-980.5"/>
<text text-anchor="start" x="8.5" y="-998.5" font-family="Helvetica,sans-Serif" font-size="10.00">PodmanRuntimeAvailableCommand</text>
<text text-anchor="middle" x="97" y="-987.5" font-family="Helvetica,sans-Serif" font-size="10.00">::Execute</text>
</a>
</g>
</g>
<!-- Node1&#45;&gt;Node3 -->
<g id="edge2" class="edge">
<title>Node1&#45;&gt;Node3</title>
<path fill="none" stroke="midnightblue" d="M262.24,-549.31C260.8,-626.83 251.63,-908.35 194,-971.5 190.87,-974.93 187.34,-977.9 183.52,-980.47"/>
<polygon fill="midnightblue" stroke="midnightblue" points="265.74,-549.1 262.4,-539.05 258.74,-548.99 265.74,-549.1"/>
</g>
<!-- Node4 -->
<g id="node4" class="node">
<title>Node4</title>
<g id="a_node4"><a xlink:href="classPodmanApiRuntimeAvailableCommand.html#aff85761ab4422c43b802fa285074e28d" target="_top" xlink:title="Executes the command to check Podman API runtime availability.">
<polygon fill="white" stroke="black" points="18,-931.5 18,-961.5 176,-961.5 176,-931.5 18,-931.5"/>
<text text-anchor="start" x="26" y="-949.5" font-family="Helvetica,sans-Serif" font-size="10.00">PodmanApiRuntimeAvailable</text>
<text text-anchor="middle" x="97" y="-938.5" font-family="Helvetica,sans-Serif" font-size="10.00">Command::Execute</text>
</a>
</g>
</g>
<!-- Node1&#45;&gt;Node4 -->
<g id="edge3" class="edge">
<title>Node1&#45;&gt;Node4</title>
<path fill="none" stroke="midnightblue" d="M261.81,-549.38C258.92,-621.39 245.38,-867.26 194,-922.5 188.97,-927.91 182.92,-932.18 176.34,-935.54"/>
<polygon fill="midnightblue" stroke="midnightblue" points="265.32,-549.16 262.2,-539.03 258.33,-548.89 265.32,-549.16"/>
</g>
<!-- Node5 -->
<g id="node5" class="node">
<title>Node5</title>
<g id="a_node5"><a xlink:href="classDockerApiRuntimeAvailableCommand.html#a77724faeeb6392b8508e81d8b1b61b42" target="_top" xlink:title="Executes the command to check Docker API runtime availability.">
<polygon fill="white" stroke="black" points="21,-882.5 21,-912.5 173,-912.5 173,-882.5 21,-882.5"/>
<text text-anchor="start" x="29" y="-900.5" font-family="Helvetica,sans-Serif" font-size="10.00">DockerApiRuntimeAvailable</text>
<text text-anchor="middle" x="97" y="-889.5" font-family="Helvetica,sans-Serif" font-size="10.00">Command::Execute</text>
</a>
</g>
</g>
<!-- Node1&#45;&gt;Node5 -->
<g id="edge4" class="edge">
<title>Node1&#45;&gt;Node5</title>
<path fill="none" stroke="midnightblue" d="M261.27,-549.42C256.79,-615.51 239.17,-826.09 194,-873.5 188.19,-879.59 181.09,-884.24 173.41,-887.76"/>
<polygon fill="midnightblue" stroke="midnightblue" points="264.78,-549.35 261.94,-539.14 257.8,-548.89 264.78,-549.35"/>
</g>
<!-- Node6 -->
<g id="node6" class="node">
<title>Node6</title>
<g id="a_node6"><a xlink:href="classDockerCreateContainerCommand.html#a808e47cfa3f850e5d6fec1e4e264db07" target="_top" xlink:title="Executes the command to create a Docker container.">
<polygon fill="white" stroke="black" points="7,-833.5 7,-863.5 187,-863.5 187,-833.5 7,-833.5"/>
<text text-anchor="start" x="15" y="-851.5" font-family="Helvetica,sans-Serif" font-size="10.00">DockerCreateContainerCommand</text>
<text text-anchor="middle" x="97" y="-840.5" font-family="Helvetica,sans-Serif" font-size="10.00">::Execute</text>
</a>
</g>
</g>
<!-- Node1&#45;&gt;Node6 -->
<g id="edge5" class="edge">
<title>Node1&#45;&gt;Node6</title>
<path fill="none" stroke="midnightblue" d="M260.57,-549.26C254.38,-608.79 233.05,-784.79 194,-824.5 190.63,-827.93 186.84,-830.9 182.78,-833.46"/>
<polygon fill="midnightblue" stroke="midnightblue" points="264.06,-549.57 261.58,-539.26 257.1,-548.86 264.06,-549.57"/>
</g>
<!-- Node7 -->
<g id="node7" class="node">
<title>Node7</title>
<g id="a_node7"><a xlink:href="classPodmanApiCreateContainerCommand.html#aa4f4f0eac46ff0428f4d7ea6a6e94f08" target="_top" xlink:title="Executes the command to create a Podman container via the API.">
<polygon fill="white" stroke="black" points="21,-784.5 21,-814.5 173,-814.5 173,-784.5 21,-784.5"/>
<text text-anchor="start" x="29" y="-802.5" font-family="Helvetica,sans-Serif" font-size="10.00">PodmanApiCreateContainer</text>
<text text-anchor="middle" x="97" y="-791.5" font-family="Helvetica,sans-Serif" font-size="10.00">Command::Execute</text>
</a>
</g>
</g>
<!-- Node1&#45;&gt;Node7 -->
<g id="edge6" class="edge">
<title>Node1&#45;&gt;Node7</title>
<path fill="none" stroke="midnightblue" d="M263.21,-549.46C263.71,-596.11 258.13,-713.06 194,-775.5 188.09,-781.25 181.02,-785.69 173.44,-789.11"/>
<polygon fill="midnightblue" stroke="midnightblue" points="266.7,-549.11 262.98,-539.19 259.7,-549.26 266.7,-549.11"/>
</g>
<!-- Node8 -->
<g id="node8" class="node">
<title>Node8</title>
<g id="a_node8"><a xlink:href="classDockerApiCreateContainerCommand.html#aa6fe70f5b10327368b93f0c2a8ecf45a" target="_top" xlink:title="Executes the command to create a Docker container via the API.">
<polygon fill="white" stroke="black" points="24,-735.5 24,-765.5 170,-765.5 170,-735.5 24,-735.5"/>
<text text-anchor="start" x="32" y="-753.5" font-family="Helvetica,sans-Serif" font-size="10.00">DockerApiCreateContainer</text>
<text text-anchor="middle" x="97" y="-742.5" font-family="Helvetica,sans-Serif" font-size="10.00">Command::Execute</text>
</a>
</g>
</g>
<!-- Node1&#45;&gt;Node8 -->
<g id="edge7" class="edge">
<title>Node1&#45;&gt;Node8</title>
<path fill="none" stroke="midnightblue" d="M261.57,-549.49C258.61,-589.32 246.17,-678.81 194,-726.5 187.15,-732.76 178.92,-737.45 170.2,-740.94"/>
<polygon fill="midnightblue" stroke="midnightblue" points="265.07,-549.64 262.19,-539.45 258.08,-549.21 265.07,-549.64"/>
</g>
<!-- Node9 -->
<g id="node9" class="node">
<title>Node9</title>
<g id="a_node9"><a xlink:href="classPodmanCreateContainerCommand.html#ac20efe97c1a0812cc615ed592de35ba4" target="_top" xlink:title="Executes the command to create a Podman container.">
<polygon fill="white" stroke="black" points="4,-686.5 4,-716.5 190,-716.5 190,-686.5 4,-686.5"/>
<text text-anchor="start" x="12" y="-704.5" font-family="Helvetica,sans-Serif" font-size="10.00">PodmanCreateContainerCommand</text>
<text text-anchor="middle" x="97" y="-693.5" font-family="Helvetica,sans-Serif" font-size="10.00">::Execute</text>
</a>
</g>
</g>
<!-- Node1&#45;&gt;Node9 -->
<g id="edge8" class="edge">
<title>Node1&#45;&gt;Node9</title>
<path fill="none" stroke="midnightblue" d="M259.04,-549.08C252.36,-580.97 234.59,-643.92 194,-677.5 189.9,-680.89 185.38,-683.82 180.61,-686.34"/>
<polygon fill="midnightblue" stroke="midnightblue" points="262.49,-549.68 260.96,-539.2 255.62,-548.35 262.49,-549.68"/>
</g>
<!-- Node10 -->
<g id="node10" class="node">
<title>Node10</title>
<g id="a_node10"><a xlink:href="classDockerStartContainerCommand.html#a6e499ebb03f933dea994126430b47fa2" target="_top" xlink:title="Executes the command to start a Docker container.">
<polygon fill="white" stroke="black" points="11.5,-637.5 11.5,-667.5 182.5,-667.5 182.5,-637.5 11.5,-637.5"/>
<text text-anchor="start" x="19.5" y="-655.5" font-family="Helvetica,sans-Serif" font-size="10.00">DockerStartContainerCommand</text>
<text text-anchor="middle" x="97" y="-644.5" font-family="Helvetica,sans-Serif" font-size="10.00">::Execute</text>
</a>
</g>
</g>
<!-- Node1&#45;&gt;Node10 -->
<g id="edge9" class="edge">
<title>Node1&#45;&gt;Node10</title>
<path fill="none" stroke="midnightblue" d="M254.55,-548.33C244.04,-570.9 223.36,-608.18 194,-628.5 189.06,-631.92 183.67,-634.86 178.05,-637.37"/>
<polygon fill="midnightblue" stroke="midnightblue" points="257.78,-549.68 258.66,-539.12 251.39,-546.83 257.78,-549.68"/>
</g>
<!-- Node11 -->
<g id="node11" class="node">
<title>Node11</title>
<g id="a_node11"><a xlink:href="classPodmanStartContainerCommand.html#a8b50901fb02b033f51cf996e6b78ac08" target="_top" xlink:title="Executes the command to start a Podman container.">
<polygon fill="white" stroke="black" points="8.5,-588.5 8.5,-618.5 185.5,-618.5 185.5,-588.5 8.5,-588.5"/>
<text text-anchor="start" x="16.5" y="-606.5" font-family="Helvetica,sans-Serif" font-size="10.00">PodmanStartContainerCommand</text>
<text text-anchor="middle" x="97" y="-595.5" font-family="Helvetica,sans-Serif" font-size="10.00">::Execute</text>
</a>
</g>
</g>
<!-- Node1&#45;&gt;Node11 -->
<g id="edge10" class="edge">
<title>Node1&#45;&gt;Node11</title>
<path fill="none" stroke="midnightblue" d="M244.4,-545.74C231.26,-556.74 212.6,-570.8 194,-579.5 186.69,-582.92 178.82,-585.9 170.86,-588.47"/>
<polygon fill="midnightblue" stroke="midnightblue" points="246.88,-548.22 252.18,-539.04 242.32,-542.92 246.88,-548.22"/>
</g>
<!-- Node12 -->
<g id="node12" class="node">
<title>Node12</title>
<g id="a_node12"><a xlink:href="classDockerApiStartContainerCommand.html#a9e1d44df3c9fed542ccf6aef9e383860" target="_top" xlink:title="Executes the command to start a Docker container via the API.">
<polygon fill="white" stroke="black" points="3.5,-539.5 3.5,-569.5 190.5,-569.5 190.5,-539.5 3.5,-539.5"/>
<text text-anchor="start" x="11.5" y="-557.5" font-family="Helvetica,sans-Serif" font-size="10.00">DockerApiStartContainerCommand</text>
<text text-anchor="middle" x="97" y="-546.5" font-family="Helvetica,sans-Serif" font-size="10.00">::Execute</text>
</a>
</g>
</g>
<!-- Node1&#45;&gt;Node12 -->
<g id="edge11" class="edge">
<title>Node1&#45;&gt;Node12</title>
<path fill="none" stroke="midnightblue" d="M219.51,-536.03C210.56,-537.39 200.81,-538.88 190.84,-540.39"/>
<polygon fill="midnightblue" stroke="midnightblue" points="220.25,-539.46 229.61,-534.5 219.19,-532.54 220.25,-539.46"/>
</g>
<!-- Node13 -->
<g id="node13" class="node">
<title>Node13</title>
<g id="a_node13"><a xlink:href="classPodmanApiStartContainerCommand.html#a8b359ed21f9b14a581da61246eb6bd09" target="_top" xlink:title="Executes the command to start a Podman container via the API.">
<polygon fill="white" stroke="black" points="0.5,-490.5 0.5,-520.5 193.5,-520.5 193.5,-490.5 0.5,-490.5"/>
<text text-anchor="start" x="8.5" y="-508.5" font-family="Helvetica,sans-Serif" font-size="10.00">PodmanApiStartContainerCommand</text>
<text text-anchor="middle" x="97" y="-497.5" font-family="Helvetica,sans-Serif" font-size="10.00">::Execute</text>
</a>
</g>
</g>
<!-- Node1&#45;&gt;Node13 -->
<g id="edge12" class="edge">
<title>Node1&#45;&gt;Node13</title>
<path fill="none" stroke="midnightblue" d="M219.65,-523.25C211.48,-522.06 202.63,-520.77 193.56,-519.44"/>
<polygon fill="midnightblue" stroke="midnightblue" points="219.21,-526.72 229.61,-524.7 220.22,-519.79 219.21,-526.72"/>
</g>
<!-- Node14 -->
<g id="node14" class="node">
<title>Node14</title>
<g id="a_node14"><a xlink:href="classDockerStopContainerCommand.html#a2821bbcaa9c8e3e4797160f9c128ff6d" target="_top" xlink:title="Executes the command to stop a Docker container.">
<polygon fill="white" stroke="black" points="12,-441.5 12,-471.5 182,-471.5 182,-441.5 12,-441.5"/>
<text text-anchor="start" x="20" y="-459.5" font-family="Helvetica,sans-Serif" font-size="10.00">DockerStopContainerCommand</text>
<text text-anchor="middle" x="97" y="-448.5" font-family="Helvetica,sans-Serif" font-size="10.00">::Execute</text>
</a>
</g>
</g>
<!-- Node1&#45;&gt;Node14 -->
<g id="edge13" class="edge">
<title>Node1&#45;&gt;Node14</title>
<path fill="none" stroke="midnightblue" d="M243.32,-513.25C230.18,-502.85 211.95,-489.8 194,-481.5 185.71,-477.67 176.74,-474.35 167.73,-471.5"/>
<polygon fill="midnightblue" stroke="midnightblue" points="241.2,-516.03 251.17,-519.62 245.61,-510.6 241.2,-516.03"/>
</g>
<!-- Node15 -->
<g id="node15" class="node">
<title>Node15</title>
<g id="a_node15"><a xlink:href="classPodmanStopContainerCommand.html#a1843b23a5c04cac1958338a47edeac1c" target="_top" xlink:title="Executes the command to stop a Podman container.">
<polygon fill="white" stroke="black" points="9,-392.5 9,-422.5 185,-422.5 185,-392.5 9,-392.5"/>
<text text-anchor="start" x="17" y="-410.5" font-family="Helvetica,sans-Serif" font-size="10.00">PodmanStopContainerCommand</text>
<text text-anchor="middle" x="97" y="-399.5" font-family="Helvetica,sans-Serif" font-size="10.00">::Execute</text>
</a>
</g>
</g>
<!-- Node1&#45;&gt;Node15 -->
<g id="edge14" class="edge">
<title>Node1&#45;&gt;Node15</title>
<path fill="none" stroke="midnightblue" d="M254.11,-510.45C243.38,-488.34 222.68,-452.35 194,-432.5 188.48,-428.68 182.41,-425.44 176.09,-422.7"/>
<polygon fill="midnightblue" stroke="midnightblue" points="251.06,-512.21 258.45,-519.8 257.41,-509.26 251.06,-512.21"/>
</g>
<!-- Node16 -->
<g id="node16" class="node">
<title>Node16</title>
<g id="a_node16"><a xlink:href="classDockerApiStopContainerCommand.html#a069c3c95925d8595762d40ca76f0ff95" target="_top" xlink:title="Executes the command to stop a Docker container via the API.">
<polygon fill="white" stroke="black" points="4.5,-343.5 4.5,-373.5 189.5,-373.5 189.5,-343.5 4.5,-343.5"/>
<text text-anchor="start" x="12.5" y="-361.5" font-family="Helvetica,sans-Serif" font-size="10.00">DockerApiStopContainerCommand</text>
<text text-anchor="middle" x="97" y="-350.5" font-family="Helvetica,sans-Serif" font-size="10.00">::Execute</text>
</a>
</g>
</g>
<!-- Node1&#45;&gt;Node16 -->
<g id="edge15" class="edge">
<title>Node1&#45;&gt;Node16</title>
<path fill="none" stroke="midnightblue" d="M258.84,-509.81C251.92,-478.28 233.89,-416.65 194,-383.5 189.36,-379.65 184.2,-376.38 178.74,-373.61"/>
<polygon fill="midnightblue" stroke="midnightblue" points="255.48,-510.85 260.9,-519.95 262.34,-509.45 255.48,-510.85"/>
</g>
<!-- Node17 -->
<g id="node17" class="node">
<title>Node17</title>
<g id="a_node17"><a xlink:href="classPodmanApiStopContainerCommand.html#a85bea8f24f66f9ac514ef09ea6dd1c1a" target="_top" xlink:title="Executes the command to stop a Podman container via the API.">
<polygon fill="white" stroke="black" points="1.5,-294.5 1.5,-324.5 192.5,-324.5 192.5,-294.5 1.5,-294.5"/>
<text text-anchor="start" x="9.5" y="-312.5" font-family="Helvetica,sans-Serif" font-size="10.00">PodmanApiStopContainerCommand</text>
<text text-anchor="middle" x="97" y="-301.5" font-family="Helvetica,sans-Serif" font-size="10.00">::Execute</text>
</a>
</g>
</g>
<!-- Node1&#45;&gt;Node17 -->
<g id="edge16" class="edge">
<title>Node1&#45;&gt;Node17</title>
<path fill="none" stroke="midnightblue" d="M261.44,-509.49C258.25,-470.02 245.43,-381.82 194,-334.5 189.82,-330.65 185.12,-327.38 180.11,-324.6"/>
<polygon fill="midnightblue" stroke="midnightblue" points="257.97,-509.94 262.14,-519.67 264.95,-509.46 257.97,-509.94"/>
</g>
<!-- Node18 -->
<g id="node18" class="node">
<title>Node18</title>
<g id="a_node18"><a xlink:href="classDockerRemoveContainerCommand.html#a70ccb6707d41b644b22f13a6c520bc15" target="_top" xlink:title="Executes the command to remove a Docker container.">
<polygon fill="white" stroke="black" points="3,-245.5 3,-275.5 191,-275.5 191,-245.5 3,-245.5"/>
<text text-anchor="start" x="11" y="-263.5" font-family="Helvetica,sans-Serif" font-size="10.00">DockerRemoveContainerCommand</text>
<text text-anchor="middle" x="97" y="-252.5" font-family="Helvetica,sans-Serif" font-size="10.00">::Execute</text>
</a>
</g>
</g>
<!-- Node1&#45;&gt;Node18 -->
<g id="edge17" class="edge">
<title>Node1&#45;&gt;Node18</title>
<path fill="none" stroke="midnightblue" d="M263.11,-509.74C263.41,-463.55 257.4,-347.71 194,-285.5 190.07,-281.64 185.62,-278.35 180.84,-275.56"/>
<polygon fill="midnightblue" stroke="midnightblue" points="259.61,-509.85 262.93,-519.91 266.61,-509.98 259.61,-509.85"/>
</g>
<!-- Node19 -->
<g id="node19" class="node">
<title>Node19</title>
<g id="a_node19"><a xlink:href="classPodmanRemoveContainerCommand.html#a21932aba8fb96cf6214f74b9609acd52" target="_top" xlink:title="Executes the command to remove a Podman container.">
<polygon fill="white" stroke="black" points="0,-196.5 0,-226.5 194,-226.5 194,-196.5 0,-196.5"/>
<text text-anchor="start" x="8" y="-214.5" font-family="Helvetica,sans-Serif" font-size="10.00">PodmanRemoveContainerCommand</text>
<text text-anchor="middle" x="97" y="-203.5" font-family="Helvetica,sans-Serif" font-size="10.00">::Execute</text>
</a>
</g>
</g>
<!-- Node1&#45;&gt;Node19 -->
<g id="edge18" class="edge">
<title>Node1&#45;&gt;Node19</title>
<path fill="none" stroke="midnightblue" d="M260.5,-509.52C254.15,-450.09 232.55,-276.03 194,-236.5 190.27,-232.68 186.04,-229.41 181.48,-226.63"/>
<polygon fill="midnightblue" stroke="midnightblue" points="257.05,-510.22 261.57,-519.81 264.01,-509.5 257.05,-510.22"/>
</g>
<!-- Node20 -->
<g id="node20" class="node">
<title>Node20</title>
<g id="a_node20"><a xlink:href="classDockerApiRestartContainerCommand.html#a93f11d262f9a76765a4a606cd39eba44" target="_top" xlink:title="Executes the command to restart a Docker container via the API.">
<polygon fill="white" stroke="black" points="22.5,-147.5 22.5,-177.5 171.5,-177.5 171.5,-147.5 22.5,-147.5"/>
<text text-anchor="start" x="30.5" y="-165.5" font-family="Helvetica,sans-Serif" font-size="10.00">DockerApiRestartContainer</text>
<text text-anchor="middle" x="97" y="-154.5" font-family="Helvetica,sans-Serif" font-size="10.00">Command::Execute</text>
</a>
</g>
</g>
<!-- Node1&#45;&gt;Node20 -->
<g id="edge19" class="edge">
<title>Node1&#45;&gt;Node20</title>
<path fill="none" stroke="midnightblue" d="M261.24,-509.71C256.65,-444.05 238.72,-234.84 194,-187.5 187.73,-180.86 179.95,-175.9 171.54,-172.21"/>
<polygon fill="midnightblue" stroke="midnightblue" points="257.76,-510.18 261.92,-519.92 264.74,-509.71 257.76,-510.18"/>
</g>
<!-- Node21 -->
<g id="node21" class="node">
<title>Node21</title>
<g id="a_node21"><a xlink:href="classDockerRestartContainerCommand.html#a339586381700016baae33f07fe2715b4" target="_top" xlink:title="Executes the command to restart a Docker container.">
<polygon fill="white" stroke="black" points="5.5,-98.5 5.5,-128.5 188.5,-128.5 188.5,-98.5 5.5,-98.5"/>
<text text-anchor="start" x="13.5" y="-116.5" font-family="Helvetica,sans-Serif" font-size="10.00">DockerRestartContainerCommand</text>
<text text-anchor="middle" x="97" y="-105.5" font-family="Helvetica,sans-Serif" font-size="10.00">::Execute</text>
</a>
</g>
</g>
<!-- Node1&#45;&gt;Node21 -->
<g id="edge20" class="edge">
<title>Node1&#45;&gt;Node21</title>
<path fill="none" stroke="midnightblue" d="M261.76,-509.27C258.71,-437.08 244.77,-193.58 194,-138.5 190.5,-134.7 186.5,-131.45 182.17,-128.67"/>
<polygon fill="midnightblue" stroke="midnightblue" points="258.28,-509.81 262.17,-519.67 265.27,-509.54 258.28,-509.81"/>
</g>
<!-- Node22 -->
<g id="node22" class="node">
<title>Node22</title>
<g id="a_node22"><a xlink:href="classDockerApiRemoveContainerCommand.html#a56eefcf10fdf0689a2b6ba54e9970c13" target="_top" xlink:title="Executes the command to remove a Docker container via the API.">
<polygon fill="white" stroke="black" points="20,-49.5 20,-79.5 174,-79.5 174,-49.5 20,-49.5"/>
<text text-anchor="start" x="28" y="-67.5" font-family="Helvetica,sans-Serif" font-size="10.00">DockerApiRemoveContainer</text>
<text text-anchor="middle" x="97" y="-56.5" font-family="Helvetica,sans-Serif" font-size="10.00">Command::Execute</text>
</a>
</g>
</g>
<!-- Node1&#45;&gt;Node22 -->
<g id="edge21" class="edge">
<title>Node1&#45;&gt;Node22</title>
<path fill="none" stroke="midnightblue" d="M262.2,-509.29C260.61,-431.48 250.97,-152.49 194,-89.5 188.45,-83.37 181.61,-78.66 174.16,-75.05"/>
<polygon fill="midnightblue" stroke="midnightblue" points="258.7,-509.69 262.38,-519.63 265.7,-509.56 258.7,-509.69"/>
</g>
<!-- Node23 -->
<g id="node23" class="node">
<title>Node23</title>
<g id="a_node23"><a xlink:href="classPodmanRestartContainerCommand.html#a6b54741ba54cdaa95d63bdbd89005bb6" target="_top" xlink:title="Executes the command to restart a Podman container.">
<polygon fill="white" stroke="black" points="2.5,-0.5 2.5,-30.5 191.5,-30.5 191.5,-0.5 2.5,-0.5"/>
<text text-anchor="start" x="10.5" y="-18.5" font-family="Helvetica,sans-Serif" font-size="10.00">PodmanRestartContainerCommand</text>
<text text-anchor="middle" x="97" y="-7.5" font-family="Helvetica,sans-Serif" font-size="10.00">::Execute</text>
</a>
</g>
</g>
<!-- Node1&#45;&gt;Node23 -->
<g id="edge22" class="edge">
<title>Node1&#45;&gt;Node23</title>
<path fill="none" stroke="midnightblue" d="M262.55,-509.74C262.33,-427.27 257.3,-111.58 194,-40.5 190.56,-36.64 186.61,-33.34 182.32,-30.53"/>
<polygon fill="midnightblue" stroke="midnightblue" points="259.05,-509.78 262.55,-519.78 266.05,-509.77 259.05,-509.78"/>
</g>
</g>
</svg>
