<?xml version="1.0" encoding="UTF-8" standalone="no"?>
<!DOCTYPE svg PUBLIC "-//W3C//DTD SVG 1.1//EN"
 "http://www.w3.org/Graphics/SVG/1.1/DTD/svg11.dtd">
<!-- Generated by graphviz version 2.43.0 (0)
 -->
<!-- Title: Status::Error Pages: 1 -->
<!--zoomable 1166 -->
<svg id="main" version="1.1" xmlns="http://www.w3.org/2000/svg" xmlns:xlink="http://www.w3.org/1999/xlink" xml:space="preserve" onload="init(evt)">
<style type="text/css"><![CDATA[
.edge:hover path { stroke: red; }
.edge:hover polygon { stroke: red; fill: red; }
]]></style>
<script type="text/javascript"><![CDATA[
var edges = document.getElementsByTagName('g');
if (edges && edges.length) {
  for (var i=0;i<edges.length;i++) {
    if (edges[i].id.substr(0,4)=='edge') {
      edges[i].setAttribute('class','edge');
    }
  }
}
]]></script>
        <defs>
                <circle id="rim" cx="0" cy="0" r="7"/>
                <circle id="rim2" cx="0" cy="0" r="3.5"/>
                <g id="zoomPlus">
                        <use xlink:href="#rim" fill="#404040">
                                <set attributeName="fill" to="#808080" begin="zoomplus.mouseover" end="zoomplus.mouseout"/>
                        </use>
                        <path d="M-4,0h8M0,-4v8" fill="none" stroke="white" stroke-width="1.5" pointer-events="none"/>
                </g>
                <g id="zoomMin">
                        <use xlink:href="#rim" fill="#404040">
                                <set attributeName="fill" to="#808080" begin="zoomminus.mouseover" end="zoomminus.mouseout"/>
                        </use>
                        <path d="M-4,0h8" fill="none" stroke="white" stroke-width="1.5" pointer-events="none"/>
                </g>
                <g id="dirArrow">
                        <path fill="none" stroke="white" stroke-width="1.5" d="M0,-3.0v7 M-2.5,-0.5L0,-3.0L2.5,-0.5"/>
                </g>
               <g id="resetDef">
                       <use xlink:href="#rim2" fill="#404040">
                               <set attributeName="fill" to="#808080" begin="reset.mouseover" end="reset.mouseout"/>
                       </use>
               </g>
        </defs>

<script type="text/javascript">
var viewWidth = 315;
var viewHeight = 1166;
var sectionId = 'dynsection-1';
</script>
<script xlink:href="svgpan.js"/>
<svg id="graph" class="graph">
<g id="viewport">
<title>Status::Error</title>
<polygon fill="white" stroke="transparent" points="-4,4 -4,-1162 311,-1162 311,4 -4,4"/>
<!-- Node1 -->
<g id="node1" class="node">
<title>Node1</title>
<g id="a_node1"><a xlink:title="Returns an error Status with the given code and message.">
<polygon fill="#bfbfbf" stroke="black" points="230,-569 230,-588 307,-588 307,-569 230,-569"/>
<text text-anchor="middle" x="268.5" y="-576" font-family="Helvetica,sans-Serif" font-size="10.00">Status::Error</text>
</a>
</g>
</g>
<!-- Node2 -->
<g id="node2" class="node">
<title>Node2</title>
<g id="a_node2"><a xlink:href="classDockerRuntimeAvailableCommand.html#a433b87ede31bd16ced081ab1e74658f7" target="_top" xlink:title="Executes the command to check Docker runtime availability.">
<polygon fill="white" stroke="black" points="3.5,-1127.5 3.5,-1157.5 190.5,-1157.5 190.5,-1127.5 3.5,-1127.5"/>
<text text-anchor="start" x="11.5" y="-1145.5" font-family="Helvetica,sans-Serif" font-size="10.00">DockerRuntimeAvailableCommand</text>
<text text-anchor="middle" x="97" y="-1134.5" font-family="Helvetica,sans-Serif" font-size="10.00">::Execute</text>
</a>
</g>
</g>
<!-- Node1&#45;&gt;Node2 -->
<g id="edge1" class="edge">
<title>Node1&#45;&gt;Node2</title>
<path fill="none" stroke="midnightblue" d="M267.66,-598.63C267.94,-687.02 264.54,-1039.76 194,-1118.5 191.02,-1121.83 187.65,-1124.73 184.01,-1127.25"/>
<polygon fill="midnightblue" stroke="midnightblue" points="271.16,-598.36 267.6,-588.37 264.16,-598.39 271.16,-598.36"/>
</g>
<!-- Node3 -->
<g id="node3" class="node">
<title>Node3</title>
<g id="a_node3"><a xlink:href="classDockerApiRuntimeAvailableCommand.html#a77724faeeb6392b8508e81d8b1b61b42" target="_top" xlink:title="Executes the command to check Docker API runtime availability.">
<polygon fill="white" stroke="black" points="21,-1078.5 21,-1108.5 173,-1108.5 173,-1078.5 21,-1078.5"/>
<text text-anchor="start" x="29" y="-1096.5" font-family="Helvetica,sans-Serif" font-size="10.00">DockerApiRuntimeAvailable</text>
<text text-anchor="middle" x="97" y="-1085.5" font-family="Helvetica,sans-Serif" font-size="10.00">Command::Execute</text>
</a>
</g>
</g>
<!-- Node1&#45;&gt;Node3 -->
<g id="edge2" class="edge">
<title>Node1&#45;&gt;Node3</title>
<path fill="none" stroke="midnightblue" d="M267.36,-598.37C266.36,-681.29 258.33,-998.65 194,-1069.5 188.23,-1075.86 181.04,-1080.65 173.23,-1084.24"/>
<polygon fill="midnightblue" stroke="midnightblue" points="270.86,-598.31 267.46,-588.28 263.86,-598.24 270.86,-598.31"/>
</g>
<!-- Node4 -->
<g id="node4" class="node">
<title>Node4</title>
<g id="a_node4"><a xlink:href="classPodmanApiRuntimeAvailableCommand.html#aff85761ab4422c43b802fa285074e28d" target="_top" xlink:title="Executes the command to check Podman API runtime availability.">
<polygon fill="white" stroke="black" points="18,-1029.5 18,-1059.5 176,-1059.5 176,-1029.5 18,-1029.5"/>
<text text-anchor="start" x="26" y="-1047.5" font-family="Helvetica,sans-Serif" font-size="10.00">PodmanApiRuntimeAvailable</text>
<text text-anchor="middle" x="97" y="-1036.5" font-family="Helvetica,sans-Serif" font-size="10.00">Command::Execute</text>
</a>
</g>
</g>
<!-- Node1&#45;&gt;Node4 -->
<g id="edge3" class="edge">
<title>Node1&#45;&gt;Node4</title>
<path fill="none" stroke="midnightblue" d="M267,-598.33C264.63,-675.88 252.08,-957.56 194,-1020.5 188.99,-1025.93 182.95,-1030.21 176.38,-1033.58"/>
<polygon fill="midnightblue" stroke="midnightblue" points="270.5,-598.15 267.29,-588.05 263.51,-597.95 270.5,-598.15"/>
</g>
<!-- Node5 -->
<g id="node5" class="node">
<title>Node5</title>
<g id="a_node5"><a xlink:href="classPodmanRuntimeAvailableCommand.html#aacb94d714ffe16dc33591d9e287da7d3" target="_top" xlink:title="Executes the command to check Podman runtime availability.">
<polygon fill="white" stroke="black" points="0.5,-980.5 0.5,-1010.5 193.5,-1010.5 193.5,-980.5 0.5,-980.5"/>
<text text-anchor="start" x="8.5" y="-998.5" font-family="Helvetica,sans-Serif" font-size="10.00">PodmanRuntimeAvailableCommand</text>
<text text-anchor="middle" x="97" y="-987.5" font-family="Helvetica,sans-Serif" font-size="10.00">::Execute</text>
</a>
</g>
</g>
<!-- Node1&#45;&gt;Node5 -->
<g id="edge4" class="edge">
<title>Node1&#45;&gt;Node5</title>
<path fill="none" stroke="midnightblue" d="M266.54,-598.39C262.68,-670.45 245.84,-916.45 194,-971.5 190.82,-974.88 187.24,-977.81 183.39,-980.35"/>
<polygon fill="midnightblue" stroke="midnightblue" points="270.06,-598.21 267.07,-588.04 263.07,-597.85 270.06,-598.21"/>
</g>
<!-- Node6 -->
<g id="node6" class="node">
<title>Node6</title>
<g id="a_node6"><a xlink:href="classProtoRequestExecutorHandler.html#a7255c2daf8946f8c73b0327cd4ad9156" target="_top" xlink:title="Receives a serialized protobuf string, deserializes, saves to DB, and returns result as JSON.">
<polygon fill="white" stroke="black" points="15.5,-931.5 15.5,-961.5 178.5,-961.5 178.5,-931.5 15.5,-931.5"/>
<text text-anchor="start" x="23.5" y="-949.5" font-family="Helvetica,sans-Serif" font-size="10.00">ProtoRequestExecutorHandler</text>
<text text-anchor="middle" x="97" y="-938.5" font-family="Helvetica,sans-Serif" font-size="10.00">::Execute</text>
</a>
</g>
</g>
<!-- Node1&#45;&gt;Node6 -->
<g id="edge5" class="edge">
<title>Node1&#45;&gt;Node6</title>
<path fill="none" stroke="midnightblue" d="M265.96,-598.43C260.47,-664.57 239.63,-875.27 194,-922.5 189.58,-927.07 184.44,-930.82 178.87,-933.9"/>
<polygon fill="midnightblue" stroke="midnightblue" points="269.48,-598.4 266.79,-588.15 262.5,-597.84 269.48,-598.4"/>
</g>
<!-- Node7 -->
<g id="node7" class="node">
<title>Node7</title>
<g id="a_node7"><a xlink:href="classJsonRequestExecutorHandler.html#aaf7c1c7c14971ccfda4076e0a4681f43" target="_top" xlink:title="Executes a request represented as a JSON string.">
<polygon fill="white" stroke="black" points="18,-882.5 18,-912.5 176,-912.5 176,-882.5 18,-882.5"/>
<text text-anchor="start" x="26" y="-900.5" font-family="Helvetica,sans-Serif" font-size="10.00">JsonRequestExecutorHandler</text>
<text text-anchor="middle" x="97" y="-889.5" font-family="Helvetica,sans-Serif" font-size="10.00">::Execute</text>
</a>
</g>
</g>
<!-- Node1&#45;&gt;Node7 -->
<g id="edge6" class="edge">
<title>Node1&#45;&gt;Node7</title>
<path fill="none" stroke="midnightblue" d="M265.22,-598.27C257.96,-657.84 233.52,-833.95 194,-873.5 188.9,-878.6 182.89,-882.68 176.4,-885.93"/>
<polygon fill="midnightblue" stroke="midnightblue" points="268.71,-598.61 266.41,-588.27 261.75,-597.79 268.71,-598.61"/>
</g>
<!-- Node8 -->
<g id="node8" class="node">
<title>Node8</title>
<g id="a_node8"><a xlink:href="classDockerCreateContainerCommand.html#a808e47cfa3f850e5d6fec1e4e264db07" target="_top" xlink:title="Executes the command to create a Docker container.">
<polygon fill="white" stroke="black" points="7,-833.5 7,-863.5 187,-863.5 187,-833.5 7,-833.5"/>
<text text-anchor="start" x="15" y="-851.5" font-family="Helvetica,sans-Serif" font-size="10.00">DockerCreateContainerCommand</text>
<text text-anchor="middle" x="97" y="-840.5" font-family="Helvetica,sans-Serif" font-size="10.00">::Execute</text>
</a>
</g>
</g>
<!-- Node1&#45;&gt;Node8 -->
<g id="edge7" class="edge">
<title>Node1&#45;&gt;Node8</title>
<path fill="none" stroke="midnightblue" d="M267.76,-598.49C267.22,-645.22 259.06,-762.33 194,-824.5 190.4,-827.94 186.38,-830.91 182.09,-833.47"/>
<polygon fill="midnightblue" stroke="midnightblue" points="271.26,-598.21 267.76,-588.2 264.26,-598.2 271.26,-598.21"/>
</g>
<!-- Node9 -->
<g id="node9" class="node">
<title>Node9</title>
<g id="a_node9"><a xlink:href="classPodmanApiCreateContainerCommand.html#aa4f4f0eac46ff0428f4d7ea6a6e94f08" target="_top" xlink:title="Executes the command to create a Podman container via the API.">
<polygon fill="white" stroke="black" points="21,-784.5 21,-814.5 173,-814.5 173,-784.5 21,-784.5"/>
<text text-anchor="start" x="29" y="-802.5" font-family="Helvetica,sans-Serif" font-size="10.00">PodmanApiCreateContainer</text>
<text text-anchor="middle" x="97" y="-791.5" font-family="Helvetica,sans-Serif" font-size="10.00">Command::Execute</text>
</a>
</g>
</g>
<!-- Node1&#45;&gt;Node9 -->
<g id="edge8" class="edge">
<title>Node1&#45;&gt;Node9</title>
<path fill="none" stroke="midnightblue" d="M266.05,-598.23C262.04,-637.96 247.26,-727.9 194,-775.5 187.98,-780.88 180.93,-785.09 173.44,-788.39"/>
<polygon fill="midnightblue" stroke="midnightblue" points="269.56,-598.28 266.95,-588.02 262.59,-597.67 269.56,-598.28"/>
</g>
<!-- Node10 -->
<g id="node10" class="node">
<title>Node10</title>
<g id="a_node10"><a xlink:href="classDockerApiCreateContainerCommand.html#aa6fe70f5b10327368b93f0c2a8ecf45a" target="_top" xlink:title="Executes the command to create a Docker container via the API.">
<polygon fill="white" stroke="black" points="24,-735.5 24,-765.5 170,-765.5 170,-735.5 24,-735.5"/>
<text text-anchor="start" x="32" y="-753.5" font-family="Helvetica,sans-Serif" font-size="10.00">DockerApiCreateContainer</text>
<text text-anchor="middle" x="97" y="-742.5" font-family="Helvetica,sans-Serif" font-size="10.00">Command::Execute</text>
</a>
</g>
</g>
<!-- Node1&#45;&gt;Node10 -->
<g id="edge9" class="edge">
<title>Node1&#45;&gt;Node10</title>
<path fill="none" stroke="midnightblue" d="M263.35,-598.11C255.55,-630.04 235.59,-693.04 194,-726.5 187.04,-732.1 178.95,-736.41 170.47,-739.74"/>
<polygon fill="midnightblue" stroke="midnightblue" points="266.8,-598.74 265.62,-588.21 259.98,-597.18 266.8,-598.74"/>
</g>
<!-- Node11 -->
<g id="node11" class="node">
<title>Node11</title>
<g id="a_node11"><a xlink:href="classPodmanCreateContainerCommand.html#ac20efe97c1a0812cc615ed592de35ba4" target="_top" xlink:title="Executes the command to create a Podman container.">
<polygon fill="white" stroke="black" points="4,-686.5 4,-716.5 190,-716.5 190,-686.5 4,-686.5"/>
<text text-anchor="start" x="12" y="-704.5" font-family="Helvetica,sans-Serif" font-size="10.00">PodmanCreateContainerCommand</text>
<text text-anchor="middle" x="97" y="-693.5" font-family="Helvetica,sans-Serif" font-size="10.00">::Execute</text>
</a>
</g>
</g>
<!-- Node1&#45;&gt;Node11 -->
<g id="edge10" class="edge">
<title>Node1&#45;&gt;Node11</title>
<path fill="none" stroke="midnightblue" d="M258.61,-597.34C246.97,-619.9 224.42,-657.2 194,-677.5 188.86,-680.93 183.26,-683.88 177.44,-686.4"/>
<polygon fill="midnightblue" stroke="midnightblue" points="261.87,-598.64 263.18,-588.12 255.6,-595.53 261.87,-598.64"/>
</g>
<!-- Node12 -->
<g id="node12" class="node">
<title>Node12</title>
<g id="a_node12"><a xlink:href="classDockerStartContainerCommand.html#a6e499ebb03f933dea994126430b47fa2" target="_top" xlink:title="Executes the command to start a Docker container.">
<polygon fill="white" stroke="black" points="11.5,-637.5 11.5,-667.5 182.5,-667.5 182.5,-637.5 11.5,-637.5"/>
<text text-anchor="start" x="19.5" y="-655.5" font-family="Helvetica,sans-Serif" font-size="10.00">DockerStartContainerCommand</text>
<text text-anchor="middle" x="97" y="-644.5" font-family="Helvetica,sans-Serif" font-size="10.00">::Execute</text>
</a>
</g>
</g>
<!-- Node1&#45;&gt;Node12 -->
<g id="edge11" class="edge">
<title>Node1&#45;&gt;Node12</title>
<path fill="none" stroke="midnightblue" d="M248.29,-594.37C234.08,-605.38 213.83,-619.62 194,-628.5 186.4,-631.91 178.23,-634.88 169.98,-637.47"/>
<polygon fill="midnightblue" stroke="midnightblue" points="250.64,-596.97 256.3,-588.01 246.29,-591.49 250.64,-596.97"/>
</g>
<!-- Node13 -->
<g id="node13" class="node">
<title>Node13</title>
<g id="a_node13"><a xlink:href="classPodmanApiStartContainerCommand.html#a8b359ed21f9b14a581da61246eb6bd09" target="_top" xlink:title="Executes the command to start a Podman container via the API.">
<polygon fill="white" stroke="black" points="0.5,-588.5 0.5,-618.5 193.5,-618.5 193.5,-588.5 0.5,-588.5"/>
<text text-anchor="start" x="8.5" y="-606.5" font-family="Helvetica,sans-Serif" font-size="10.00">PodmanApiStartContainerCommand</text>
<text text-anchor="middle" x="97" y="-595.5" font-family="Helvetica,sans-Serif" font-size="10.00">::Execute</text>
</a>
</g>
</g>
<!-- Node1&#45;&gt;Node13 -->
<g id="edge12" class="edge">
<title>Node1&#45;&gt;Node13</title>
<path fill="none" stroke="midnightblue" d="M219.78,-585.54C211.53,-586.75 202.71,-588.06 193.71,-589.38"/>
<polygon fill="midnightblue" stroke="midnightblue" points="220.5,-588.97 229.88,-584.05 219.48,-582.04 220.5,-588.97"/>
</g>
<!-- Node14 -->
<g id="node14" class="node">
<title>Node14</title>
<g id="a_node14"><a xlink:href="classPodmanStartContainerCommand.html#a8b50901fb02b033f51cf996e6b78ac08" target="_top" xlink:title="Executes the command to start a Podman container.">
<polygon fill="white" stroke="black" points="8.5,-539.5 8.5,-569.5 185.5,-569.5 185.5,-539.5 8.5,-539.5"/>
<text text-anchor="start" x="16.5" y="-557.5" font-family="Helvetica,sans-Serif" font-size="10.00">PodmanStartContainerCommand</text>
<text text-anchor="middle" x="97" y="-546.5" font-family="Helvetica,sans-Serif" font-size="10.00">::Execute</text>
</a>
</g>
</g>
<!-- Node1&#45;&gt;Node14 -->
<g id="edge13" class="edge">
<title>Node1&#45;&gt;Node14</title>
<path fill="none" stroke="midnightblue" d="M219.95,-571.77C209.25,-570.25 197.56,-568.6 185.79,-566.93"/>
<polygon fill="midnightblue" stroke="midnightblue" points="219.49,-575.24 229.88,-573.17 220.47,-568.31 219.49,-575.24"/>
</g>
<!-- Node15 -->
<g id="node15" class="node">
<title>Node15</title>
<g id="a_node15"><a xlink:href="classDockerApiStartContainerCommand.html#a9e1d44df3c9fed542ccf6aef9e383860" target="_top" xlink:title="Executes the command to start a Docker container via the API.">
<polygon fill="white" stroke="black" points="3.5,-490.5 3.5,-520.5 190.5,-520.5 190.5,-490.5 3.5,-490.5"/>
<text text-anchor="start" x="11.5" y="-508.5" font-family="Helvetica,sans-Serif" font-size="10.00">DockerApiStartContainerCommand</text>
<text text-anchor="middle" x="97" y="-497.5" font-family="Helvetica,sans-Serif" font-size="10.00">::Execute</text>
</a>
</g>
</g>
<!-- Node1&#45;&gt;Node15 -->
<g id="edge14" class="edge">
<title>Node1&#45;&gt;Node15</title>
<path fill="none" stroke="midnightblue" d="M247.4,-562.8C233.17,-552.35 213.27,-539.03 194,-530.5 185.42,-526.7 176.14,-523.39 166.85,-520.52"/>
<polygon fill="midnightblue" stroke="midnightblue" points="245.37,-565.65 255.47,-568.86 249.58,-560.06 245.37,-565.65"/>
</g>
<!-- Node16 -->
<g id="node16" class="node">
<title>Node16</title>
<g id="a_node16"><a xlink:href="classDockerStopContainerCommand.html#a2821bbcaa9c8e3e4797160f9c128ff6d" target="_top" xlink:title="Executes the command to stop a Docker container.">
<polygon fill="white" stroke="black" points="12,-441.5 12,-471.5 182,-471.5 182,-441.5 12,-441.5"/>
<text text-anchor="start" x="20" y="-459.5" font-family="Helvetica,sans-Serif" font-size="10.00">DockerStopContainerCommand</text>
<text text-anchor="middle" x="97" y="-448.5" font-family="Helvetica,sans-Serif" font-size="10.00">::Execute</text>
</a>
</g>
</g>
<!-- Node1&#45;&gt;Node16 -->
<g id="edge15" class="edge">
<title>Node1&#45;&gt;Node16</title>
<path fill="none" stroke="midnightblue" d="M258.3,-559.75C246.48,-537.66 223.87,-501.44 194,-481.5 188.27,-477.68 181.99,-474.44 175.46,-471.69"/>
<polygon fill="midnightblue" stroke="midnightblue" points="255.27,-561.51 262.96,-568.8 261.49,-558.31 255.27,-561.51"/>
</g>
<!-- Node17 -->
<g id="node17" class="node">
<title>Node17</title>
<g id="a_node17"><a xlink:href="classPodmanApiStopContainerCommand.html#a85bea8f24f66f9ac514ef09ea6dd1c1a" target="_top" xlink:title="Executes the command to stop a Podman container via the API.">
<polygon fill="white" stroke="black" points="1.5,-392.5 1.5,-422.5 192.5,-422.5 192.5,-392.5 1.5,-392.5"/>
<text text-anchor="start" x="9.5" y="-410.5" font-family="Helvetica,sans-Serif" font-size="10.00">PodmanApiStopContainerCommand</text>
<text text-anchor="middle" x="97" y="-399.5" font-family="Helvetica,sans-Serif" font-size="10.00">::Execute</text>
</a>
</g>
</g>
<!-- Node1&#45;&gt;Node17 -->
<g id="edge16" class="edge">
<title>Node1&#45;&gt;Node17</title>
<path fill="none" stroke="midnightblue" d="M263.24,-559.19C255.27,-527.76 235.07,-465.68 194,-432.5 189.18,-428.6 183.81,-425.31 178.15,-422.52"/>
<polygon fill="midnightblue" stroke="midnightblue" points="259.84,-560.02 265.56,-568.94 266.64,-558.4 259.84,-560.02"/>
</g>
<!-- Node18 -->
<g id="node18" class="node">
<title>Node18</title>
<g id="a_node18"><a xlink:href="classDockerApiStopContainerCommand.html#a069c3c95925d8595762d40ca76f0ff95" target="_top" xlink:title="Executes the command to stop a Docker container via the API.">
<polygon fill="white" stroke="black" points="4.5,-343.5 4.5,-373.5 189.5,-373.5 189.5,-343.5 4.5,-343.5"/>
<text text-anchor="start" x="12.5" y="-361.5" font-family="Helvetica,sans-Serif" font-size="10.00">DockerApiStopContainerCommand</text>
<text text-anchor="middle" x="97" y="-350.5" font-family="Helvetica,sans-Serif" font-size="10.00">::Execute</text>
</a>
</g>
</g>
<!-- Node1&#45;&gt;Node18 -->
<g id="edge17" class="edge">
<title>Node1&#45;&gt;Node18</title>
<path fill="none" stroke="midnightblue" d="M265.89,-558.46C261.61,-518.92 246.39,-430.63 194,-383.5 189.77,-379.7 185.04,-376.46 180.01,-373.71"/>
<polygon fill="midnightblue" stroke="midnightblue" points="262.43,-559.04 266.86,-568.66 269.4,-558.37 262.43,-559.04"/>
</g>
<!-- Node19 -->
<g id="node19" class="node">
<title>Node19</title>
<g id="a_node19"><a xlink:href="classPodmanStopContainerCommand.html#a1843b23a5c04cac1958338a47edeac1c" target="_top" xlink:title="Executes the command to stop a Podman container.">
<polygon fill="white" stroke="black" points="9,-294.5 9,-324.5 185,-324.5 185,-294.5 9,-294.5"/>
<text text-anchor="start" x="17" y="-312.5" font-family="Helvetica,sans-Serif" font-size="10.00">PodmanStopContainerCommand</text>
<text text-anchor="middle" x="97" y="-301.5" font-family="Helvetica,sans-Serif" font-size="10.00">::Execute</text>
</a>
</g>
</g>
<!-- Node1&#45;&gt;Node19 -->
<g id="edge18" class="edge">
<title>Node1&#45;&gt;Node19</title>
<path fill="none" stroke="midnightblue" d="M267.66,-558.71C266.91,-512.44 258.34,-396.45 194,-334.5 190.03,-330.68 185.55,-327.42 180.76,-324.65"/>
<polygon fill="midnightblue" stroke="midnightblue" points="264.16,-558.91 267.71,-568.89 271.16,-558.88 264.16,-558.91"/>
</g>
<!-- Node20 -->
<g id="node20" class="node">
<title>Node20</title>
<g id="a_node20"><a xlink:href="classDockerRemoveContainerCommand.html#a70ccb6707d41b644b22f13a6c520bc15" target="_top" xlink:title="Executes the command to remove a Docker container.">
<polygon fill="white" stroke="black" points="3,-245.5 3,-275.5 191,-275.5 191,-245.5 3,-245.5"/>
<text text-anchor="start" x="11" y="-263.5" font-family="Helvetica,sans-Serif" font-size="10.00">DockerRemoveContainerCommand</text>
<text text-anchor="middle" x="97" y="-252.5" font-family="Helvetica,sans-Serif" font-size="10.00">::Execute</text>
</a>
</g>
</g>
<!-- Node1&#45;&gt;Node20 -->
<g id="edge19" class="edge">
<title>Node1&#45;&gt;Node20</title>
<path fill="none" stroke="midnightblue" d="M265.14,-558.51C257.72,-499.03 233.02,-324.87 194,-285.5 190.24,-281.71 185.99,-278.47 181.41,-275.7"/>
<polygon fill="midnightblue" stroke="midnightblue" points="261.71,-559.3 266.39,-568.8 268.66,-558.45 261.71,-559.3"/>
</g>
<!-- Node21 -->
<g id="node21" class="node">
<title>Node21</title>
<g id="a_node21"><a xlink:href="classDockerApiRestartContainerCommand.html#a93f11d262f9a76765a4a606cd39eba44" target="_top" xlink:title="Executes the command to restart a Docker container via the API.">
<polygon fill="white" stroke="black" points="22.5,-196.5 22.5,-226.5 171.5,-226.5 171.5,-196.5 22.5,-196.5"/>
<text text-anchor="start" x="30.5" y="-214.5" font-family="Helvetica,sans-Serif" font-size="10.00">DockerApiRestartContainer</text>
<text text-anchor="middle" x="97" y="-203.5" font-family="Helvetica,sans-Serif" font-size="10.00">Command::Execute</text>
</a>
</g>
</g>
<!-- Node1&#45;&gt;Node21 -->
<g id="edge20" class="edge">
<title>Node1&#45;&gt;Node21</title>
<path fill="none" stroke="midnightblue" d="M265.93,-558.7C260.32,-492.99 239.18,-283.67 194,-236.5 187.81,-230.03 180.17,-225.16 171.92,-221.5"/>
<polygon fill="midnightblue" stroke="midnightblue" points="262.46,-559.24 266.77,-568.92 269.44,-558.66 262.46,-559.24"/>
</g>
<!-- Node22 -->
<g id="node22" class="node">
<title>Node22</title>
<g id="a_node22"><a xlink:href="classPodmanRemoveContainerCommand.html#a21932aba8fb96cf6214f74b9609acd52" target="_top" xlink:title="Executes the command to remove a Podman container.">
<polygon fill="white" stroke="black" points="0,-147.5 0,-177.5 194,-177.5 194,-147.5 0,-147.5"/>
<text text-anchor="start" x="8" y="-165.5" font-family="Helvetica,sans-Serif" font-size="10.00">PodmanRemoveContainerCommand</text>
<text text-anchor="middle" x="97" y="-154.5" font-family="Helvetica,sans-Serif" font-size="10.00">::Execute</text>
</a>
</g>
</g>
<!-- Node1&#45;&gt;Node22 -->
<g id="edge21" class="edge">
<title>Node1&#45;&gt;Node22</title>
<path fill="none" stroke="midnightblue" d="M266.48,-558.25C262.45,-486.02 245.23,-242.39 194,-187.5 190.47,-183.72 186.46,-180.49 182.11,-177.72"/>
<polygon fill="midnightblue" stroke="midnightblue" points="263.01,-558.86 267.04,-568.66 270,-558.49 263.01,-558.86"/>
</g>
<!-- Node23 -->
<g id="node23" class="node">
<title>Node23</title>
<g id="a_node23"><a xlink:href="classDockerRestartContainerCommand.html#a339586381700016baae33f07fe2715b4" target="_top" xlink:title="Executes the command to restart a Docker container.">
<polygon fill="white" stroke="black" points="5.5,-98.5 5.5,-128.5 188.5,-128.5 188.5,-98.5 5.5,-98.5"/>
<text text-anchor="start" x="13.5" y="-116.5" font-family="Helvetica,sans-Serif" font-size="10.00">DockerRestartContainerCommand</text>
<text text-anchor="middle" x="97" y="-105.5" font-family="Helvetica,sans-Serif" font-size="10.00">::Execute</text>
</a>
</g>
</g>
<!-- Node1&#45;&gt;Node23 -->
<g id="edge22" class="edge">
<title>Node1&#45;&gt;Node23</title>
<path fill="none" stroke="midnightblue" d="M266.97,-558.78C264.47,-481.63 251.54,-201.42 194,-138.5 190.51,-134.69 186.53,-131.42 182.2,-128.64"/>
<polygon fill="midnightblue" stroke="midnightblue" points="263.47,-559.11 267.27,-569 270.47,-558.9 263.47,-559.11"/>
</g>
<!-- Node24 -->
<g id="node24" class="node">
<title>Node24</title>
<g id="a_node24"><a xlink:href="classDockerApiRemoveContainerCommand.html#a56eefcf10fdf0689a2b6ba54e9970c13" target="_top" xlink:title="Executes the command to remove a Docker container via the API.">
<polygon fill="white" stroke="black" points="20,-49.5 20,-79.5 174,-79.5 174,-49.5 20,-49.5"/>
<text text-anchor="start" x="28" y="-67.5" font-family="Helvetica,sans-Serif" font-size="10.00">DockerApiRemoveContainer</text>
<text text-anchor="middle" x="97" y="-56.5" font-family="Helvetica,sans-Serif" font-size="10.00">Command::Execute</text>
</a>
</g>
</g>
<!-- Node1&#45;&gt;Node24 -->
<g id="edge23" class="edge">
<title>Node1&#45;&gt;Node24</title>
<path fill="none" stroke="midnightblue" d="M267.33,-558.73C266.21,-476.21 257.75,-160.36 194,-89.5 188.47,-83.35 181.64,-78.63 174.19,-75.02"/>
<polygon fill="midnightblue" stroke="midnightblue" points="263.83,-558.81 267.44,-568.77 270.83,-558.73 263.83,-558.81"/>
</g>
<!-- Node25 -->
<g id="node25" class="node">
<title>Node25</title>
<g id="a_node25"><a xlink:href="classPodmanRestartContainerCommand.html#a6b54741ba54cdaa95d63bdbd89005bb6" target="_top" xlink:title="Executes the command to restart a Podman container.">
<polygon fill="white" stroke="black" points="2.5,-0.5 2.5,-30.5 191.5,-30.5 191.5,-0.5 2.5,-0.5"/>
<text text-anchor="start" x="10.5" y="-18.5" font-family="Helvetica,sans-Serif" font-size="10.00">PodmanRestartContainerCommand</text>
<text text-anchor="middle" x="97" y="-7.5" font-family="Helvetica,sans-Serif" font-size="10.00">::Execute</text>
</a>
</g>
</g>
<!-- Node1&#45;&gt;Node25 -->
<g id="edge24" class="edge">
<title>Node1&#45;&gt;Node25</title>
<path fill="none" stroke="midnightblue" d="M267.63,-558.46C267.78,-470.47 263.92,-119.28 194,-40.5 190.57,-36.64 186.63,-33.33 182.33,-30.52"/>
<polygon fill="midnightblue" stroke="midnightblue" points="264.13,-558.66 267.59,-568.67 271.13,-558.68 264.13,-558.66"/>
</g>
</g>
</svg>
        <g id="navigator" transform="translate(0 0)" fill="#404254">
                <rect fill="#f2f5e9" fill-opacity="0.5" stroke="#606060" stroke-width=".5" x="0" y="0" width="60" height="60"/>
                <use id="zoomplus" xlink:href="#zoomPlus" x="17" y="9" onmousedown="handleZoom(evt,'in')"/>
                <use id="zoomminus" xlink:href="#zoomMin" x="42" y="9" onmousedown="handleZoom(evt,'out')"/>
                <use id="reset" xlink:href="#resetDef" x="30" y="36" onmousedown="handleReset()"/>
                <g id="arrowUp" xlink:href="#dirArrow" transform="translate(30 24)" onmousedown="handlePan(0,-1)">
                  <use xlink:href="#rim" fill="#404040">
                        <set attributeName="fill" to="#808080" begin="arrowUp.mouseover" end="arrowUp.mouseout"/>
                  </use>
                  <path fill="none" stroke="white" stroke-width="1.5" d="M0,-3.0v7 M-2.5,-0.5L0,-3.0L2.5,-0.5"/>
                </g>
                <g id="arrowRight" xlink:href="#dirArrow" transform="rotate(90) translate(36 -43)" onmousedown="handlePan(1,0)">
                  <use xlink:href="#rim" fill="#404040">
                        <set attributeName="fill" to="#808080" begin="arrowRight.mouseover" end="arrowRight.mouseout"/>
                  </use>
                  <path fill="none" stroke="white" stroke-width="1.5" d="M0,-3.0v7 M-2.5,-0.5L0,-3.0L2.5,-0.5"/>
                </g>
                <g id="arrowDown" xlink:href="#dirArrow" transform="rotate(180) translate(-30 -48)" onmousedown="handlePan(0,1)">
                  <use xlink:href="#rim" fill="#404040">
                        <set attributeName="fill" to="#808080" begin="arrowDown.mouseover" end="arrowDown.mouseout"/>
                  </use>
                  <path fill="none" stroke="white" stroke-width="1.5" d="M0,-3.0v7 M-2.5,-0.5L0,-3.0L2.5,-0.5"/>
                </g>
                <g id="arrowLeft" xlink:href="#dirArrow" transform="rotate(270) translate(-36 17)" onmousedown="handlePan(-1,0)">
                  <use xlink:href="#rim" fill="#404040">
                        <set attributeName="fill" to="#808080" begin="arrowLeft.mouseover" end="arrowLeft.mouseout"/>
                  </use>
                  <path fill="none" stroke="white" stroke-width="1.5" d="M0,-3.0v7 M-2.5,-0.5L0,-3.0L2.5,-0.5"/>
                </g>
        </g>
        <svg viewBox="0 0 15 15" width="100%" height="30px" preserveAspectRatio="xMaxYMin meet">
         <g id="arrow_out" transform="scale(0.3 0.3)">
          <a xlink:href="structStatus_ace3b560f6a5f4a2d62a02b6e03700538_icgraph_org.svg" target="_base">
           <rect id="button" ry="5" rx="5" y="6" x="6" height="38" width="38"
                fill="#f2f5e9" fill-opacity="0.5" stroke="#606060" stroke-width="1.0"/>
           <path id="arrow"
             d="M 11.500037,31.436501 C 11.940474,20.09759 22.043105,11.32322 32.158766,21.979434 L 37.068811,17.246167 C 37.068811,17.246167 37.088388,32 37.088388,32 L 22.160133,31.978069 C 22.160133,31.978069 26.997745,27.140456 26.997745,27.140456 C 18.528582,18.264221 13.291696,25.230495 11.500037,31.436501 z"
             style="fill:#404040;"/>
          </a>
         </g>
        </svg>
</svg>
