<?xml version="1.0" encoding="UTF-8" standalone="no"?>
<!DOCTYPE svg PUBLIC "-//W3C//DTD SVG 1.1//EN"
 "http://www.w3.org/Graphics/SVG/1.1/DTD/svg11.dtd">
<!-- Generated by graphviz version 2.43.0 (0)
 -->
<!-- Title: MessageQueueConfig Pages: 1 -->
<svg width="143pt" height="299pt"
 viewBox="0.00 0.00 142.50 299.00" xmlns="http://www.w3.org/2000/svg" xmlns:xlink="http://www.w3.org/1999/xlink">
<g id="graph0" class="graph" transform="scale(1 1) rotate(0) translate(4 295)">
<title>MessageQueueConfig</title>
<polygon fill="white" stroke="transparent" points="-4,4 -4,-295 138.5,-295 138.5,4 -4,4"/>
<!-- Node1 -->
<g id="node1" class="node">
<title>Node1</title>
<g id="a_node1"><a xlink:title="Holds constant configuration for the POSIX message queue consumer.">
<polygon fill="#bfbfbf" stroke="black" points="0,-0.5 0,-79.5 123,-79.5 123,-0.5 0,-0.5"/>
<text text-anchor="middle" x="61.5" y="-67.5" font-family="Helvetica,sans-Serif" font-size="10.00">MessageQueueConfig</text>
<polyline fill="none" stroke="black" points="0,-60.5 123,-60.5 "/>
<text text-anchor="start" x="8" y="-48.5" font-family="Helvetica,sans-Serif" font-size="10.00">+ MaxMsgSize</text>
<text text-anchor="start" x="8" y="-37.5" font-family="Helvetica,sans-Serif" font-size="10.00">+ MaxMsgCount</text>
<text text-anchor="start" x="8" y="-26.5" font-family="Helvetica,sans-Serif" font-size="10.00">+ SleepTime</text>
<polyline fill="none" stroke="black" points="0,-19.5 123,-19.5 "/>
<text text-anchor="middle" x="61.5" y="-7.5" font-family="Helvetica,sans-Serif" font-size="10.00"> </text>
</a>
</g>
</g>
<!-- Node2 -->
<g id="node2" class="node">
<title>Node2</title>
<g id="a_node2"><a xlink:title="STL class.">
<polygon fill="white" stroke="#bfbfbf" points="29,-127.5 29,-184.5 94,-184.5 94,-127.5 29,-127.5"/>
<text text-anchor="middle" x="61.5" y="-172.5" font-family="Helvetica,sans-Serif" font-size="10.00">std::string</text>
<polyline fill="none" stroke="#bfbfbf" points="29,-165.5 94,-165.5 "/>
<text text-anchor="middle" x="61.5" y="-153.5" font-family="Helvetica,sans-Serif" font-size="10.00"> </text>
<polyline fill="none" stroke="#bfbfbf" points="29,-146.5 94,-146.5 "/>
<text text-anchor="middle" x="61.5" y="-134.5" font-family="Helvetica,sans-Serif" font-size="10.00"> </text>
</a>
</g>
</g>
<!-- Node2&#45;&gt;Node1 -->
<g id="edge1" class="edge">
<title>Node2&#45;&gt;Node1</title>
<path fill="none" stroke="#404040" d="M61.5,-127.4C61.5,-116.63 61.5,-103.93 61.5,-91.62"/>
<polygon fill="none" stroke="#404040" points="61.5,-91.54 57.5,-85.54 61.5,-79.54 65.5,-85.54 61.5,-91.54"/>
<text text-anchor="middle" x="98" y="-101" font-family="Helvetica,sans-Serif" font-size="10.00"> +QueueName</text>
</g>
<!-- Node3 -->
<g id="node3" class="node">
<title>Node3</title>
<g id="a_node3"><a xlink:title="STL class.">
<polygon fill="white" stroke="#bfbfbf" points="9.5,-222.5 9.5,-290.5 113.5,-290.5 113.5,-222.5 9.5,-222.5"/>
<text text-anchor="start" x="17.5" y="-278.5" font-family="Helvetica,sans-Serif" font-size="10.00">std::basic_string&lt;</text>
<text text-anchor="middle" x="61.5" y="-267.5" font-family="Helvetica,sans-Serif" font-size="10.00"> char &gt;</text>
<polyline fill="none" stroke="#bfbfbf" points="9.5,-260.5 113.5,-260.5 "/>
<text text-anchor="middle" x="61.5" y="-248.5" font-family="Helvetica,sans-Serif" font-size="10.00"> </text>
<polyline fill="none" stroke="#bfbfbf" points="9.5,-241.5 113.5,-241.5 "/>
<text text-anchor="middle" x="61.5" y="-229.5" font-family="Helvetica,sans-Serif" font-size="10.00"> </text>
</a>
</g>
</g>
<!-- Node3&#45;&gt;Node2 -->
<g id="edge2" class="edge">
<title>Node3&#45;&gt;Node2</title>
<path fill="none" stroke="midnightblue" d="M61.5,-212.38C61.5,-202.94 61.5,-193.2 61.5,-184.57"/>
<polygon fill="none" stroke="midnightblue" points="58,-212.43 61.5,-222.43 65,-212.43 58,-212.43"/>
</g>
</g>
</svg>
