<?xml version="1.0" encoding="UTF-8" standalone="no"?>
<!DOCTYPE svg PUBLIC "-//W3C//DTD SVG 1.1//EN"
 "http://www.w3.org/Graphics/SVG/1.1/DTD/svg11.dtd">
<!-- Generated by graphviz version 2.43.0 (0)
 -->
<!-- Title: ValidateYamlContent Pages: 1 -->
<svg width="240pt" height="66pt"
 viewBox="0.00 0.00 240.00 66.00" xmlns="http://www.w3.org/2000/svg" xmlns:xlink="http://www.w3.org/1999/xlink">
<g id="graph0" class="graph" transform="scale(1 1) rotate(0) translate(4 62)">
<title>ValidateYamlContent</title>
<polygon fill="white" stroke="transparent" points="-4,4 -4,-62 236,-62 236,4 -4,4"/>
<!-- Node1 -->
<g id="node1" class="node">
<title>Node1</title>
<g id="a_node1"><a xlink:title="Validates that all required placeholders are replaced in the YAML content.">
<polygon fill="#bfbfbf" stroke="black" points="0,-19.5 0,-38.5 119,-38.5 119,-19.5 0,-19.5"/>
<text text-anchor="middle" x="59.5" y="-26.5" font-family="Helvetica,sans-Serif" font-size="10.00">ValidateYamlContent</text>
</a>
</g>
</g>
<!-- Node2 -->
<g id="node2" class="node">
<title>Node2</title>
<g id="a_node2"><a xlink:href="structStatus.html#ace3b560f6a5f4a2d62a02b6e03700538" target="_top" xlink:title="Returns an error Status with the given code and message.">
<polygon fill="white" stroke="black" points="155,-38.5 155,-57.5 232,-57.5 232,-38.5 155,-38.5"/>
<text text-anchor="middle" x="193.5" y="-45.5" font-family="Helvetica,sans-Serif" font-size="10.00">Status::Error</text>
</a>
</g>
</g>
<!-- Node1&#45;&gt;Node2 -->
<g id="edge1" class="edge">
<title>Node1&#45;&gt;Node2</title>
<path fill="none" stroke="midnightblue" d="M119.17,-37.44C127.78,-38.68 136.57,-39.95 144.92,-41.15"/>
<polygon fill="midnightblue" stroke="midnightblue" points="144.47,-44.62 154.86,-42.58 145.46,-37.69 144.47,-44.62"/>
</g>
<!-- Node3 -->
<g id="node3" class="node">
<title>Node3</title>
<g id="a_node3"><a xlink:href="structStatus.html#ab516c5b687e7e334a1865fe28fd39122" target="_top" xlink:title="Returns a success Status.">
<polygon fill="white" stroke="black" points="160,-0.5 160,-19.5 227,-19.5 227,-0.5 160,-0.5"/>
<text text-anchor="middle" x="193.5" y="-7.5" font-family="Helvetica,sans-Serif" font-size="10.00">Status::Ok</text>
</a>
</g>
</g>
<!-- Node1&#45;&gt;Node3 -->
<g id="edge2" class="edge">
<title>Node1&#45;&gt;Node3</title>
<path fill="none" stroke="midnightblue" d="M119.17,-20.56C129.38,-19.09 139.83,-17.58 149.53,-16.19"/>
<polygon fill="midnightblue" stroke="midnightblue" points="150.3,-19.61 159.7,-14.72 149.3,-12.68 150.3,-19.61"/>
</g>
</g>
</svg>
